<?xml version="1.0" encoding="utf-8"?>
<!-- Generator: Adobe Illustrator 15.0.2, SVG Export Plug-In . SVG Version: 6.00 Build 0)  -->
<!DOCTYPE svg PUBLIC "-//W3C//DTD SVG 1.1//EN" "http://www.w3.org/Graphics/SVG/1.1/DTD/svg11.dtd">
<svg version="1.1" id="Layer_1" xmlns="http://www.w3.org/2000/svg" xmlns:xlink="http://www.w3.org/1999/xlink" x="0px" y="0px"
	 width="66px" height="66px" viewBox="0 0 66 66" enable-background="new 0 0 66 66" xml:space="preserve">
<g>
	<polygon fill="#232734" points="38.707,29.257 38.902,29.627 39.049,30.188 39.602,30.073 39.918,29.74 39.408,29.554 
		39.464,29.422 39.819,29.136 39.719,28.616 39.896,27.919 38.707,29.257 	"/>
	<polygon fill="#232734" points="51.268,28.883 50.262,28.29 51.146,28.926 51.261,28.836 51.268,28.883 	"/>
	<polygon fill="#232734" points="44.545,28.686 44.568,29.053 45.081,29.48 45.043,29.486 45.02,29.118 44.487,28.696 
		44.545,28.686 	"/>
	<polygon fill="#232734" points="40.917,29.358 41.413,29.574 41.336,29.062 40.925,29.422 40.917,29.358 	"/>
	<polygon fill="#232734" points="53.108,26.476 52.56,26.093 52.197,26.158 52.194,26.103 52.742,26.493 53.102,26.415 
		53.108,26.476 	"/>
	<polygon fill="#232734" points="40.591,30.304 40.858,30.514 41.097,30.172 41.011,29.976 40.878,30 40.591,30.304 	"/>
	<polygon fill="#232734" points="44.487,28.696 44.455,28.333 44.21,28.275 44.241,28.404 44.545,28.686 44.487,28.696 	"/>
	<polygon fill="#232734" points="38.464,29.073 38.718,28.751 38.643,28.565 38.517,28.602 38.515,29.069 38.464,29.073 	"/>
	<polygon fill="#232734" points="39.378,24.364 38.977,24.886 39.114,24.928 39.464,24.745 39.378,24.364 	"/>
	<polygon fill="#232734" points="39.046,24.871 38.667,24.884 38.37,25.184 39.046,24.871 	"/>
	<polygon fill="#232734" points="53.771,26.532 54.096,26.767 54.444,26.677 54.447,26.71 54.241,26.547 53.776,26.595 
		53.771,26.532 	"/>
	<polygon fill="#232734" points="39.32,17.25 38.937,16.978 39.32,17.25 	"/>
	<polygon fill="#232734" points="37.849,17.895 37.518,17.656 37.384,17.658 37.395,17.855 37.846,17.857 37.849,17.895 	"/>
	<polygon fill="#232734" points="49.635,30.859 49.599,30.754 49.491,30.767 49.524,30.875 49.635,30.859 	"/>
	<polygon fill="#232734" points="42.614,30.649 42.404,30.926 42.682,31.141 42.614,30.649 	"/>
	<polygon fill="#232734" points="55.982,25.21 55.708,25.216 55.775,25.278 55.974,25.157 55.982,25.21 	"/>
	<polygon fill="#232734" points="45.196,24.257 45.154,24.508 45.34,24.484 45.242,24.251 45.196,24.257 	"/>
	<polygon fill="#232734" points="42.35,30.498 42.623,30.715 42.661,30.483 42.35,30.498 	"/>
	<polygon fill="#232734" points="40.034,26.006 40.277,26.061 40.28,25.949 40.043,26.069 40.034,26.006 	"/>
	<polygon fill="#232734" points="47.909,31.297 47.674,31.208 47.687,31.37 47.902,31.241 47.909,31.297 	"/>
	<polygon fill="#232734" points="39.92,25.165 40.138,25.255 40.231,25.202 40.109,25.059 39.926,25.212 39.92,25.165 	"/>
	<path fill="#232734" d="M45.23,35.753l0.031-0.245l-0.11,0.013l0.129,0.227l-0.334,0.311l-1.212-0.318l-2.181-1.469l0.568,0.684
		l0.109,0.567l-0.887-0.815l-1.744-1.33l-2.025-1.595l-0.038-0.252l0.262-0.196l-1.661-1.508l0.695-0.097l0.517,0.172l-0.015-0.299
		l-0.105-0.281l-0.305-0.336l-0.662-1.184l-0.668-1.186l-0.436-0.087l-0.225-0.203l-0.173-0.245l-0.827-0.436l-1.804,0.322
		l-1.757,0.854l-2.846,1.402l-1.458,0.76l-1.091,0.801l-0.867,0.601l-0.956,0.451L21.538,31.9l0.154,0.382l1.213,0.496l0.586-0.219
		l0.379,0.289l-0.04,0.646l1.943-0.058l0.148-0.023l2.227-0.251l3.457,0.944l0.55,0.237l1.326,0.5l0.814,0.588l1.845,1.765
		l1.338,1.823l1.379,4.908l0.021,2.022l-0.228,1.281l-0.736,2.448l-0.593,1.05l-0.265,0.54l-0.258,0.542l-1.157,1.494l-0.568,0.375
		l-1.827,1.312l-2.09,0.95l-3.104,0.529l0.168,0.454l0.058,0.439l-0.141,0.037l-1.286-0.771l-0.874,0.118l0.137,0.535l-0.267-0.018
		l-1.236-0.874l-0.691,0.021l0.616,0.849l-0.155,0.716l-0.425-0.214l-0.621-0.426l-0.652-0.533l0.26-0.118l0.949,0.437l-1.319-1.13
		l-0.696,0.029l0.876,0.777l-0.405,0.055l-4.52-3.332l-1.248-1.014l-0.448-0.854l-1.178-2.613l-0.699-2.462l0.205-3.281l0.059-0.297
		l0.757-2.963l2.642-3.436l0.636-0.438l0.081-0.419l-0.412-0.577l0.101-0.112l0.992-0.336l0.214-0.425l-1.68-0.556l-2.753,0.812
		l-1.417,0.513l-2.687,1.007l-1.036,0.177l-0.262-0.129l-0.267-0.528l-0.908-0.047l0.628-0.979l2.889-1.415l3.552-1.665l2.323-1.098
		l1.413-0.853l1.563-0.907l-0.05,0.013l0.146,0.028l0.826-0.322l0.169-0.736l-0.076-0.277l0.726-0.152l-0.155-0.492l-0.057-0.576
		l0.53-0.01l0.231,0.688l0.232,0.129l0.271,0.336l0.276,0.117l0.776-0.907l0.003-0.549l-0.82-0.338l0.013,0.062l0.011-0.271
		l-0.352-0.419l-1.055,0.432l-0.868,0.29l-0.324,0.29l0.054-0.009l-0.662,0.304l0.061-0.005l-0.146-0.03l-1.275,0.355l-0.113,0.097
		l0.064-0.009l-0.885-0.117l-0.066,0.395l0.63,0.648l0.102,0.714L18.381,27.8l-0.463-0.588l-0.402-0.566l-0.217,0.2l0.425,0.753
		l-0.389,0.229l-0.802-0.657l-0.391-0.63l-0.851-0.25l-0.991-0.361l-0.861-0.31l-1.602-1.14l-1.264-1.089l-0.989-1.106l-1.01-2.059
		l-0.829-3.043l-0.001-1.209l0.067-1.513l0.266-1.017l0.313-1.005l0.585-1.549l0.854-1.917l0.239-0.386l1.096-1.8l0.559-0.501
		l1.637-1.223l0.758-0.26l1.677-0.948l1.349-0.351l0.892-0.13l1.36-0.022l1.513-0.019l1.202,0.101l0.912,0.172l1.095,0.442
		l2.233,1.237l0.704,0.58l0.485,0.572l0.613,0.662L28.7,7.82l1.197,1.542l0.921,1.887l0.227,0.56l0.569,2.346l0.006,1.961
		l-0.325,1.463l-0.472,1.429l-0.68,1.345l-1.087,1.248l-0.546,0.518l-0.671,0.472l-0.165,1.424l-0.316,1.632l0.101,0.645l3.235-1.49
		l1.048-0.598l1.442-0.815l1.528-0.645l0.373-0.192l0.202-0.312l-0.018-0.874l0.187-0.887l0.383-1.608l0.034-0.299l0.6-2.795
		l0.941-1.889l0.358-0.66l0.883-1.19l0.668-0.611l0.609-0.736l1.086-0.736l1.097-0.51l0.417-0.179l4.279-0.898l0.147,0.026
		l1.332,0.009l0.743,0.226l2.663,1.022l0.136,0.063l1.193,0.632l2.703,2.055l1.525,2.173l1.087,2.157l0.504,2.065l0.147,1.048
		l-0.038,2.822l-0.226,0.613l-0.366,2.389l-0.537,1.56l-0.377,0.653l-0.781,1.457l-0.628,1.195l-0.483,0.574l-1.215,1.186
		l-2.131,1.353l-3.359,1.317l-0.753,0.153l-0.251,0.558l-0.696-0.299l-0.145,0.423l-0.569,0.108l-0.528,0.235L45.23,35.753
		L45.23,35.753z M11.171,16.31l-0.255-0.038l0.024,0.102l0.222-0.127l0.425-0.05l0.296,0.289l-0.051,0.394l-0.309,0.469l-0.43,0.053
		l-0.229-0.062l-0.041,0.089l0.264-0.077l0.43-0.06l0.571-0.137l0.502,0.092l0.333-0.039l0.811-0.354l0.278-0.334l0.229,0.064
		l0.054-0.091l-0.276,0.071l-0.408-0.087l-0.262-0.082l0.005,0.046l0.209-0.302l1.419-0.464l1.462,0.075l0.146,0.267l-0.64,0.318
		l-2.702,1.288l-0.045,0.472l-0.577,0.638l-0.942,0.478l-0.3,0.332l-0.274-0.489l-0.554,0.481l-0.453,0.354l0.022,0.139l0.111,0.095
		l0.685-0.048l0.458-0.601l0.383,0.292l0.946-0.155l1-0.467l0.313,0.235l-0.489,0.349l0.289,1.232l0.294,0.036l0.319,0.477
		l-0.332,0.502h-0.356l-0.254,0.312l-0.559-0.151l-0.382-0.62l-0.368-0.28l-0.15-0.722l-1.02,0.007l-1.032,0.02l-0.18,0.215
		l0.144,0.238l1.285,0.429l-0.184,0.329l-0.446-0.021l0.051,0.555l1.186-0.044l0.187,0.206l-0.455,0.338l0.095,0.229l0.696,0.261
		l-0.223,0.517l0.413,0.019l0.29-0.411l-0.552-0.112l0.914-0.426l0.135,0.27l0.39,0.138l0.086,0.287l0.469,0.072l0.082-0.125
		l-0.149-0.695l0.879-0.195l-0.027-0.219l-0.851,0.419l-0.419-0.088l-0.313-0.489l0.613-0.302l0.264,0.06l1.133-0.206l0.563-0.165
		l-0.184,0.696l0.261,0.298l0.298-0.044l0.589-0.179l-0.029,0.598l0.342,0.634l0.26,0.069l0.711-0.593l0.389,0.024l0.47,1.001
		l0.309-0.218l0.343-0.342l0.56-0.009l0.819-0.322l0.329-0.392l0.519-0.092l0.096,1.354l1.179-1.31l0.451-2.219l-0.114-0.983
		l0.07-0.277l0.491,0.239l-0.012-0.543l-0.334-0.166l-0.135,0.542l-0.421-0.233l-0.343,0.208l-0.304,0.884l-0.346,0.166
		l-0.035-0.893l-0.236,0.039l-0.399,0.801l-0.426,0.036l0.208-0.835l-0.84-0.391l-0.074-0.562l0.64-0.411l0.603-0.45l0.552-0.503
		l0.062-0.285L21.66,16.89l-0.664-0.374l-2.043-0.461l-0.054-0.266l0.58,0.007l1.045,0.159l0.433-0.09l-0.4-0.755L18.82,13.76
		l-0.278-0.345l0.018-0.137l2.04-0.404l0.354-0.397l-0.477-0.746l0.17,0.007l1.359,0.945l0.513,0.732l0.237-0.053l-0.6-2.147
		l-1.118-1.899l-0.969-0.839l-0.386-0.804l1.159,0.734l1.052,1.483l0.375,0.644l0.339,0.287l-0.068,0.243l0.114,0.001l-0.105-0.238
		l0.3-1.187l0.396,0.139l1.427,1.13l0.625,0.477l0.423,0.059l-0.024,0.858l0.053,0.753l0.021,0.885l0.555-0.225l0.079,0.647
		l1.253,1.112l0.062,0.546l-1.232,1.842l-0.098,0.685l1.35,3.382l1.169-0.964l0.356-0.482l0.781-1.446l0.052-0.459l0.277-0.437
		l0.298-1.029l-0.722-0.366l-0.121-0.25l0.218-0.177l0.44,0.01l0.436-0.449l-0.017-0.713l-0.079-0.308l-0.998-0.151l0.107-0.364
		l0.92-0.421l-0.549-2.001l-1.21,1.054l0.807-1.368l0.107-0.645l-0.838-1.485l-0.691,0.364L28.44,9.097l-0.024-0.525l-0.103-0.205
		L27.78,7.84l-0.221-0.419L27.23,7.124l-1.419-1.142l-0.473-0.589L24.583,5.24l0.805,3.35l-0.331,0.177l-0.257-1.714l-1.074-1.895
		l-0.147-0.42l-0.513-0.301l-1.46-0.305l-0.774,0.072l-0.443-0.018l-2.405,0.015l-0.426,0.146l0.037-0.005l-1.736,0.41l-0.09,0.366
		l-0.161,0.22l-0.954,0.005l-1.346,0.674l-0.423,0.511l-0.377,0.07l0.037,0.389l-0.789,0.679l-0.431,0.579l0.267,0.037l1.965-0.723
		l0.311-0.474l-0.219-0.111L12.75,7.071l-0.273-0.079l0.396-0.522l0.124,0.076l1.602-0.02l0.141-0.033l0.383-0.146l0.773,0.645
		L15.151,7.15L14.94,7.321l-0.258-0.026l0.01,0.122l0.245-0.124l0.234,0.177l1.839,0.609l1.226,0.26l1.462,1.206L18.645,9.02
		l-3.778-1.004l-0.804,0.102l-0.387,0.339l-0.709,0.52l0.041,0.257l0.127,0.078l2.046,0.368l0.398,0.086l-0.001,0.176l-0.852,0.219
		l-0.626-0.407l-1.443,0.184l-0.41,0.624l0.204,0.251l-0.041,0.562l0.553-0.22l2.188-0.475l0.092,0.069l-0.123,0.246l-0.282,0.098
		l-1.581,0.482l-0.967,0.413l-0.899,0.518l-0.154,0.407l0.619,0.472l-0.006-0.033l-0.552,0.428l-0.424,0.365l-0.114-1.158
		l-0.412,0.046l-0.893,0.865l-0.138,0.058l-0.444,0.002l-0.166,0.687l0.368,0.163l-0.429,0.946l0.222-0.018l1.166-0.682h0.56
		l-0.314,0.319L8.854,16.87l-0.012,0.177l0.902-0.688l0.786-0.701l0.417-0.166l0.46-0.585l0.437-0.042l0.283,0.006l0.543-0.287
		l-0.062-0.526l0.573-0.132l0.516-0.228l-0.063,0.63l1.726-0.433l0.037,0.237l-0.391,0.19l-1.092,0.459l-0.308,0.312l-0.429,0.065
		l-0.272-0.083l-0.993,0.36l-0.318,0.814L11.171,16.31L11.171,16.31z M42.463,30.92l-0.038,0.252l0.252-0.092l0.281,0.491
		l0.281,0.095l0.477,0.468l0.244-1.038l0.25,0.115l0.277,0.715l0.521,0.469l0.489-0.378l0.612-0.021l-0.308-0.671l-0.354-0.479
		l-0.108-0.279l-0.339-0.961l0.079-0.125l-0.037,0.006l0.488,0.372l0.278,0.834l0.69,0.989l0.614,0.468l0.634-0.098l0.554-0.05
		l0.576,0.255l0.223-0.139l-0.044-0.261l-0.549-0.212l-0.606-0.404l0.007,0.057l0.254-0.115l1.396,0.508l0.489-0.235l0.06-0.139
		l0.191-0.727l0.039-0.327l0.66,0.194l0.879-0.818l0.896-0.31l0.279-0.584l-0.031-0.602l-0.232-0.552l0.47,0.103l0.586,0.075
		l0.514-0.291l0.341,0.479l0.748,0.031L55.41,28.37l-0.889-0.014l-0.692,0.177l-0.268-0.024l0.105,0.249l-0.175,0.493l0.284,0.033
		l0.204-0.139l-0.137-0.226l-0.241-0.157l0.217-0.286l0.808,0.729l0.124,0.582l-0.599,0.104l-0.532,0.245l-0.545-0.501l-0.309,0.301
		L52.7,30.22l-0.688,0.872l0.12,0.343l0.247,0.336l-0.659,0.057l-0.224-0.326l-0.305-0.271l-0.271,0.287l-0.032,0.298l-0.135,0.462
		l0.129,0.079l1.037,0.116l0.413,0.173l1.167-0.661l0.615-0.43l0.353-0.79l0.916-0.459l0.907-1.589l0.036-0.442l0.809-1.253h-0.684
		l-0.731,0.065l-0.908-0.161l-0.368-0.248l0.003,0.033l0.097-0.112l0.434-0.043l2.464-0.448l-0.151-0.491l0.394-0.234l0.247-2.139
		l-0.781-0.636l0.009,0.062l0.421-0.073l0.627-0.472l-0.088-2.722l-0.18-0.733l-0.19-0.729l-0.546-1.724l-0.638-1.286l-0.722-0.58
		l-0.81-0.136l-3.706,0.396l-0.441,0.088l-0.307-0.279l1.086-0.429l1.337-0.271l1.206-0.069l1.134,0.178l0.104-0.435l-0.993-0.935
		l-1.199-1.13l-0.271-0.125L52.383,10.8l-0.54-0.254l-1.512-0.684l-1.108-0.196l-0.614-0.364L47.33,9.148l-0.436,0.2l-0.21-0.204
		L46.05,9.12l-2.576,0.562l-0.626,0.656l0.449,2.276l-0.268,0.071l-0.324-0.297l-0.4-1.764l-0.543-0.136l-0.818,0.416l-1.102,1.01
		l-0.434,0.416l-0.855,1.064l-1.256,2.232l-0.742,2.449l-0.019,0.6l0.145,0.25l-0.004-0.065l-0.194,0.387l-0.173,1.188l-0.162,0.989
		l1.195,0.057l0.565-0.145l-0.053,0.007l0.447,0.256l0.4-0.087l0.327-0.409l0.054-0.298l0.771-0.443l0.855-0.274l0.198-1.007
		l0.237-1.032l0.89-1.257l0.029-0.126l0.36-0.988l0.213-1.027l0.357-0.07l0.105,0.107l0.34,1.602l0.31,1.77l-0.118,1.499
		l0.243,0.151l1.299-0.735l0.12,0.24l0.393,0.416l1.04,0.149l0.584-0.023l0.201,0.253l-0.348,1.132l-1.429,1.203l-0.824-0.036
		l-0.236,0.169l0.294,0.803l0.337,0.3l0.031,0.555l-0.097,0.117l-0.046,0.006L44.9,24.262l-0.644,0.813l-0.739,1.44l0.392,2.241
		l-0.652,0.397l-0.396-0.167l-0.823-2.24l-0.714-2.131l0.01-0.58l-0.599-0.489l-1.264,0.27l-0.085,0.602l-0.553-0.191l-0.162-0.236
		l-0.568,0.097l-0.541,0.604l-0.866-0.078l-0.551,0.154l-0.176,0.259l0.35,1.127l1.056-0.573l0.911-0.454l0.142,0.045l0.02,0.407
		l0.333,0.305l0.032,0.285l-0.529,0.695l-0.68,0.387l-0.489,0.275l0.105,0.484l0.606,0.606l0.104,0.286l0.587,0.167l-0.051,0.004
		l0.301,0.177l-0.299,0.345l0.07,0.425l0.131,0.258l0.596,0.825l0.276-0.008l0.399-1.079l-0.069-0.271l0.787-0.386l0.269,0.063
		l-0.008-0.064l-0.386,0.589l0.103,0.352l-0.12,0.674l-0.412,0.54l0.203,0.843l0.617,0.354l0.009-0.866l-0.483-0.866l0.402-0.52
		l0.325,0.975l0.499-0.174l-0.213-0.983l0.552-0.07l0.379,0.289L42.463,30.92L42.463,30.92z M16.584,24.258L16.15,24.31l-0.42-0.058
		l-0.585-0.001l-1.284,0.121l-0.069,0.276l1.327,0.053l0.77-0.11l0.256-0.337l0.433-0.062L17,23.9L16.584,24.258L16.584,24.258z
		 M35.208,25.821l-0.019-0.379l-0.233-0.083l-0.051,0.08l0.032,0.129l0.331,0.247l-0.069,0.224l0.073,0.054L35.208,25.821
		L35.208,25.821z M43.488,34.034l0.015-0.364l-0.339-0.241l0.381-0.099l0.947,1.02l1.406,0.271l2.717-0.385l0.298-0.31l0.274,0.013
		l-0.056-0.072l-0.214,0.103l-0.815-0.343L47,32.648l-1.103-0.26l0.075,0.833l0.562,0.482l-0.196,0.218l-1.022-0.856l-0.268,0.059
		l0.213,0.939l-0.719-0.728l-1.443-0.611l0.123,0.692l0.299,0.613l-0.056,0.223l0.09,0.044L43.488,34.034L43.488,34.034z
		 M21.849,35.908l-0.247-0.042l0.034,0.1l0.203-0.12l0.776,0.591l0.211,0.002l0.111-0.085l-0.001-0.23l-0.826-0.297L21.849,35.908
		L21.849,35.908z M30.241,25.819l0.359,0.005l0.253-0.312l0.118,0.09l1.165-0.241l1.286-0.435l0.986-0.376l3.238-1.256l1.332-0.297
		l1.773-0.299l0.713-0.201l1.327-0.223l-0.157-0.362l-1.207,0.078l-1.355,0.047l-2.074,0.432l-2.402,0.895l-0.861,0.271
		l-0.864,0.261l-2.7,1.341l-0.309,0.327l-0.459,0.102l-0.152,0.212l-0.136-0.058l-2.034,0.92l-0.293,0.327l0.089,0.22l1.996-0.983
		L30.241,25.819L30.241,25.819z M18.051,51.359l0.278-0.354l0.601-1.373l-0.223-0.331l-0.239,0.135L18,50.531l-0.061,0.438
		l0.167,0.383l-0.062,0.272l0.124-0.015L18.051,51.359L18.051,51.359z M26.994,34.092l0.064-0.006l-0.281-0.082l-1.642,0.648
		l0.403,0.602l0.498,0.708l2.129,2.367l0.688-0.661l0.177-0.94l0.234-2.091l1.967,1.593l0.701,1.439l-0.039,0.809l0.188,0.415
		l-0.586,0.001l-0.128,0.288l-0.441,0.726l-0.471,0.34l0.004,0.142l1.483-0.283l2.676,2.038l0.115,1.247l-0.286,1.243l0.267,2.296
		l-0.41-0.023l-0.749-1.118l-0.422-0.806l-0.999,0.034l-0.085,0.57l-0.843-0.644l-0.405-0.12l-1.278,1.699l-0.612,1.208
		l-0.203,1.188l-0.224,1.49l-0.263,0.702l-0.19,0.408l-0.309,0.976l0.468-0.153l0.285,0.677l0.611-0.379l0.138,0.195l-0.048,0.748
		l0.392-0.327l0.534-1.558l0.163-0.249l-0.057,0.006l0.115,0.092l0.077,0.429l0.113,1.008l-0.301,0.503l-0.677,0.584l-0.305,0.651
		l-0.663,0.593l0.263,0.269l0.15-0.007l1.869-0.454l0.702-0.921l0.621-1.454l-0.012-0.624l0.299-0.564l0.114-0.822l-0.068-1.051
		l-0.172-2.983l0.062-0.135l0.286,0.337l0.312,2.383l0.065,1.202l0.126,0.398l0.465-0.078l0.104-0.294l0.252,0.041l0.431,0.776
		l-0.718,1.011l-0.66,0.015l-0.671,1.388l0.436,0.085l0.129,0.268l0.863-0.318l0.854-1.12l0.368-1.919l-0.246-0.589l0.297-0.534
		l0.42,0.105l-0.047,0.603l0.004,0.604l0.015,0.452l0.014,0.528l0.144-0.046l0.349-0.396l0.297-1.83l0.231-0.151l0.476,0.424
		l0.326-0.847l-0.221-0.872l0.063-0.282l-0.054,0.006l0.379,0.24l0.143-0.035l0.299-0.846l-0.037-2.086l-0.521-0.171l-0.182-1.059
		l0.178-0.227l0.121,0.018l0.199,0.719l0.398,0.052l-0.158-2.045l-0.299-0.644l-0.921-0.776l-0.809-0.236l-0.319-0.369l0.962,0.176
		l0.641,0.353l0.154-0.205l-0.049-0.295l-0.604-1.212l-1.184-0.28l0.009,0.066l0.618-0.598l-0.655-0.839L34.451,37.7l-0.312-0.275
		l0.38-0.216l0.089-0.381l-0.33-0.31l-1.357-0.97l-0.661,0.081l-0.109-0.038l-0.183-0.452l-0.53-0.214l-0.426-0.133l-1.522-0.614
		l-0.104,0.055l-0.112,0.437l-0.524-0.163l0.041-0.446l-0.665-0.179L26.994,34.092L26.994,34.092z M25.002,28.759l-0.25-0.057
		l0.244-0.001l0.274,0.019l1.174-0.989v-0.883l0.235-1.341l0.161-0.737l0.005-2.555l-0.576-2.507l-0.498-1.426l-0.6-0.868
		l-0.712-0.547l-0.251,0.038l1.068,2.271l0.223,2.63l0.139,1.354l-0.005,2.251l-0.2,0.961l0.078,0.972l-0.117,0.289L25.002,28.759
		L25.002,28.759z M28.305,40.428l0.066-0.271l-0.473-0.761l-1.169-1.563l-0.288-0.344l-0.993-1.125l-0.536-0.466l-0.31-0.539
		l-3.534-2.654l-0.844-0.515l1.354-1.43l1.856-0.981l0.667-1.238l0.253-0.111l-0.251-0.293l-2.07,0.912l-3.23,1.615l-3.112,1.532
		l-3.27,1.54l-1.479,0.731l-0.793,0.384l0.235,0.633l1.977-0.711l1.562-0.557l0.568-0.191l2.727-0.886l1.045-0.125l1.029,0.203
		l1.619,0.802l0.786,0.444l0.737,0.438l3.263,2.463l0.865,1.04l0.963,1.342l0.8,0.678l-0.39,0.62l0.035,0.112l0.688-0.292
		L28.305,40.428L28.305,40.428z M16.868,46.962l-0.167,0.597l-0.541,0.856l-0.187,0.911l0.075,0.302l0.233,0.066l0.356-0.873
		l1.383-1.903l0.925-0.533l0.438-0.055l-0.592,0.602l-1.873,2.396l-0.148,1.217l0.394,0.78l0.176-0.032l0.256-1.316l0.176-1.181
		l0.713-0.892l0.052,0.661l1.344-0.968l0.127,0.001l0.168,0.287l1.523-1.533l-0.223,0.566L20.174,48.6l-0.788,1.088l-0.194,0.915
		l0.61-0.383l0.49-0.343l0.595-0.489l0.008,0.559l0.799-0.66l0.104,0.519l-0.293,0.167l-0.954,2.183l0.118,1.469l0.352,0.218
		l0.309-2.034l0.044-0.145l0.464-0.614l0.423-0.246l0.231-0.608l0.026-0.053l1.235-1.728l0.307-0.13l-0.396,1.175l-1.337,1.988
		l0.396,0.158l-0.032,0.471l0.771-0.611l0.208,0.333l-0.071,0.59l0.188,0.221l0.776-0.645l0.403,0.124l-0.611,1.025l-0.757,0.377
		l-0.463-0.063l-0.402,0.411l-0.202,0.839l0.503,0.255l1.123-0.484l0.363-0.478l0.079-0.65l0.604-0.793l0.328,0.121l0.057,0.142
		l0.298,0.04l0.238,0.433l-0.738,0.729l-0.196,0.103l-0.815,1.011l0.006,0.148l0.221,0.08l1.057-0.84l1.558-2.083l0.427-1.266
		l-0.51,0.104l-0.161-0.467l0.519-0.525l0.145,0.268l0.231-0.011l0.418-1.153l-0.106-0.978l0.258-1.264l-0.398-1.104l-1.14-0.91
		l-0.19-1.352l0.228-1.232l-0.75,0.726l-0.628,0.786l-1.616,0.278l-0.764-0.246l-1.199-0.127l-0.849-0.229l-0.069-0.312l1.031-1.354
		l1.298-0.757l0.59-0.671l0.529-0.266l0.053-0.409l-0.513-0.537l-0.169-0.737l0.207-0.271l0.984-0.271l-0.16-0.28l-0.623-0.452
		l-0.776,0.076l-1.304-0.931l-1.161-0.382l-0.266,0.084l0.049-0.006l-0.588-0.061l-1.186,0.644l-0.742,0.701l-0.02,1.236l0.48,0.168
		l-0.003-0.063l-0.243,0.356l-0.582,0.447l0.229,0.083l0.897-0.127l0.307,0.261l-0.276,0.3l-0.057,0.293l-1.116,0.044l-0.398,0.225
		l0.06,0.98l0.847-0.287l0.261,0.089l-0.003-0.02l-0.974,0.803l-0.187,0.699l-0.491,0.27l-0.242,0.495l0.977,0.29l-0.304,0.716
		l0.158,0.391l0.589-0.092l0.329-0.313l0.418,0.21l-0.914,1.413l-0.589,0.768l-0.137,0.06l-0.525-0.232l0.066-0.133l-0.213-0.528
		l-0.135-0.571l-0.1-0.079l-0.771,0.887l0.092,1.023l0.095,0.059l0.748-0.7L16.868,46.962L16.868,46.962z M34,42.13l-1.174-0.736
		l-1.093-0.633l-0.465,0.217l-0.593,0.101l-0.54,0.583l0.533,1.951l0.427,0.795l2.035-0.128l0.558,0.559l0.246,0.066L34,42.13
		L34,42.13z M23.985,41.209l-0.692,0.756L22.12,42.59l-0.212,0.394v0.148l0.231,0.252l2.3,0.448l0.347-0.014l0.908-0.442
		l0.929-1.303l0.014-0.342l-0.438-0.561L23.985,41.209L23.985,41.209z M29.116,42.226l-1.544,0.188l-0.384,1.72l0.129,0.449
		l0.998,0.883l0.676,0.801l0.853-0.876l0.21-0.911L29.116,42.226L29.116,42.226z M25.231,12.524l-0.148-0.26l-0.136-0.31
		l-0.818-1.006l-0.592-0.454l-0.378,0.2l0.06,2.073l0.104,2.02l0.338,0.312l1.266-0.371L25.231,12.524L25.231,12.524z
		 M29.114,39.808l0.352,0.269l0.264-0.104l0.604-0.665l0.577-0.465l0.374-0.36l-0.401-1.792L29.7,35.833l-0.119,0.27l-0.082,1.041
		l-0.35,0.973l-0.102,0.277L29.114,39.808L29.114,39.808z M43.391,25.196l0.58-0.368l0.251-0.853l-0.282-1.329l-0.429,0.068
		l-0.732,0.497l-0.665,0.306l-0.189,0.784l0.734,2.601l0.384-0.331l0.164-0.413L43.391,25.196L43.391,25.196z M23.111,16.025
		l0.197-0.207l-0.694-0.856l-0.757-1.549l-0.359-0.284l-0.846,0.228l-0.811,0.169l-0.076,0.44l1.377,1.157l0.399,0.632l0.208,0.164
		l0.769,0.075L23.111,16.025L23.111,16.025z M41.413,18.815l0.217,1.464l0.654,0.308l0.757-0.994l0.102-0.355l0.126-1.642
		l-0.361-1.134l-0.279,0.131l-0.807,1.427L41.413,18.815L41.413,18.815z M46.044,21.125l0.465-0.649l-0.211-0.176l-0.885-0.106
		l-1.328,0.017l-0.412,0.542l-0.119,0.947l0.225,0.234l0.678-0.041L46.044,21.125L46.044,21.125z M26.976,15.727l-1.226-0.853
		l-0.208,0.5l-0.572,0.418l0.846,1.563l0.138-0.041l1.052-1.229L26.976,15.727L26.976,15.727z M18.659,25.818l0.368-0.071
		l1.123-1.279l-0.024-0.125l-0.848,0.211l-0.736-0.085L18,24.226l-0.832,0.321l-0.089,0.409l0.341,0.268l0.599,0.035l0.408,0.323
		L18.659,25.818L18.659,25.818z M15.081,45.304l-0.033,1.302l0.146-0.058l1.351-1.716l-0.262-0.871L15.081,45.304L15.081,45.304z
		 M26.634,40.497l-0.377-1.18l-0.405-0.309l-1.162-0.085l-0.086,0.072l0.357,0.735l0.787,0.655L26.634,40.497L26.634,40.497z
		 M12.119,9.494l0.659-0.989L12.57,8.412l-0.55,0.228l-0.979,0.694L10.19,9.67l-0.147,0.771L12.119,9.494L12.119,9.494z
		 M15.969,40.86l0.91-0.536l-0.225-0.49l0.849-0.757l0.178-0.699l-0.132-0.201l-0.126,0.064l-0.653,0.812l-0.844,1.709L15.969,40.86
		L15.969,40.86z M9.621,11.391l0.042,0.61l0.883-0.498l0.916-0.36l0.287-0.863h-0.286l-0.411,0.157L9.621,11.391L9.621,11.391z
		 M22.34,18.927l0.802-0.355l0.645-0.952l-0.126-0.041l-1.121,0.333l-0.116,0.091l-0.389,0.212l-0.237,0.171L21.59,18.78
		L22.34,18.927L22.34,18.927z M9.112,18.589l0.043,0.688l0.408-0.103l1.093-0.739l0.195-0.249l-0.196-0.346l-0.728,0.135
		L9.112,18.589L9.112,18.589z M49.608,33.001l0.808,0.557l0.88-0.243l0.166-0.354l-2-0.742L49.608,33.001L49.608,33.001z
		 M26.398,55.726l0.574-0.104l1.246-1.536l0.01-0.252l-0.301-0.001l-0.278,0.102l-0.19,0.228l-0.231,0.562L26.398,55.726
		L26.398,55.726z M41.757,32.05l-0.146,0.035l-0.189,0.207l0.413,1.229l0.423,0.248l0.378-0.138l0.02-0.288l-0.086-0.424
		L41.757,32.05L41.757,32.05z M21.702,54.462l0.619-0.768l-0.126-1.005l-0.598,0.579L21.702,54.462L21.702,54.462z M19.557,53.221
		l0.523-0.103l-0.047-1.145l0.26-0.727l-0.609,0.554L19.557,53.221L19.557,53.221z M41.441,21.554l0.234-0.228l-0.72-0.639
		l-1.011,0.424l0.013,0.143l0.082,0.085L41.441,21.554L41.441,21.554z M18.809,51.413l-0.268,0.352l0.189,1.157l0.251,0.058
		l0.237-1.46L18.809,51.413L18.809,51.413z M36.806,27.079l0.905-0.564l0.233-0.519l-0.23-0.176l-0.968,0.685L36.806,27.079
		L36.806,27.079z M15.563,42.4l0.48-0.331l0.517-0.281l0.231-0.51l-0.559,0.099l-0.699,0.936L15.563,42.4L15.563,42.4z
		 M16.118,42.623l-1.035,1.374l0.79-0.784l0.634-0.561L16.118,42.623L16.118,42.623z M9.8,12.838l1.271-0.701l-0.179-0.218
		l-0.923,0.448L9.8,12.838L9.8,12.838z M21.402,24.155l-0.79,0.37l-0.098,0.252l0.189,0.214l0.893-0.51L21.402,24.155L21.402,24.155
		z M24.713,25.353l0.243-0.134l-0.074-0.713l-0.389-0.065l-0.112,0.248L24.713,25.353L24.713,25.353z M48.217,32.917l0.306,0.345
		l0.716,0.029l-0.152-0.346l-0.401-0.161L48.217,32.917L48.217,32.917z M27.135,53.753l-0.239,0.164l-0.571,0.874l0.192-0.057
		l0.546-0.703L27.135,53.753L27.135,53.753z M16.348,25.439l-0.75-0.195l0.141,0.247l0.251,0.134L16.348,25.439L16.348,25.439z
		 M23.35,53.061L23.559,53l-0.122-0.202l-0.208,0.053L23.35,53.061L23.35,53.061z M17.326,46.043l0.22-0.108l-0.008-0.196
		l-0.127,0.05l-0.088,0.112L17.326,46.043L17.326,46.043z M19.596,48.507l0.042,0.092l0.058-0.099L19.596,48.507L19.596,48.507z
		 M12.65,17.995l0.042,0.089l0.056-0.097L12.65,17.995L12.65,17.995z M13.099,21.393l0.054,0.1l0.059-0.098L13.099,21.393
		L13.099,21.393z M24.75,23.363l-0.048-0.076l-0.04,0.076H24.75L24.75,23.363z M15.66,48.278l0.091-0.075l-0.068-0.04L15.66,48.278
		L15.66,48.278z M19.763,35.34l0.106-0.021l-0.131-0.083L19.763,35.34L19.763,35.34z"/>
	<polygon fill="#232734" points="46.349,15.329 44.704,17.63 45.038,17.759 45.356,17.081 46.173,16.009 47.754,14.853 
		47.857,14.582 47.32,14.606 46.349,15.329 	"/>
	<polygon fill="#232734" points="47.684,11.747 47.461,11.527 47.32,11.573 46.178,12.524 45.812,13.166 45.695,13.736 
		45.792,13.795 46.215,13.39 47.684,11.747 	"/>
	<polygon fill="#232734" points="36.677,18.862 37.28,19.298 39.286,19.93 39.654,19.814 39.027,19.474 38.395,19.064 
		36.947,18.825 36.681,18.927 36.677,18.862 	"/>
	<polygon fill="#232734" points="52.99,22.89 53.641,22.781 54.495,22.838 54.605,22.727 53.925,22.19 52.898,22.317 52.99,22.89 	
		"/>
	<polygon fill="#232734" points="37.856,21.344 38.163,20.637 38.476,20.429 37.402,20.006 37.301,20.712 37.909,21.337 
		37.856,21.344 	"/>
	<polygon fill="#232734" points="40.942,14.103 41.639,13.675 41.864,12.788 42.155,12.5 41.97,12.29 41.604,12.447 41.395,12.999 
		40.746,13.743 40.942,14.103 	"/>
	<polygon fill="#232734" points="37.846,17.857 38.161,18.132 39.354,18.418 39.645,18.363 39.712,18.279 39.533,18.06 
		38.969,17.939 38.713,17.745 37.849,17.895 37.846,17.857 	"/>
	<polygon fill="#232734" points="52.197,26.158 50.728,25.039 50.076,25.05 50.169,25.266 50.776,25.483 51.822,26.194 
		52.194,26.103 52.197,26.158 	"/>
	<polygon fill="#232734" points="53.37,12.383 53.166,12.031 51.718,12.277 51.627,12.654 53.37,12.383 	"/>
	<polygon fill="#232734" points="45.121,11.583 44.755,11.727 44.259,12.593 44.385,13.149 44.698,12.863 45.121,11.583 	"/>
	<polygon fill="#232734" points="39.025,26.354 38.011,27.851 38.273,27.814 39.247,26.503 39.169,26.317 39.025,26.354 	"/>
	<polygon fill="#232734" points="46.54,28.473 46.39,27.888 45.821,27.425 45.677,27.413 45.682,27.622 46.15,28.36 46.54,28.473 	
		"/>
	<polygon fill="#232734" points="40.644,15.634 40.349,14.842 39.823,14.969 40.644,15.634 	"/>
	<polygon fill="#232734" points="38.896,16.22 39.277,16.651 39.546,16.57 39.682,16.338 39.417,16.045 38.896,16.22 	"/>
	<polygon fill="#232734" points="48.186,16.781 47.993,16.416 47.438,17.005 48.186,16.781 	"/>
	<polygon fill="#232734" points="41.114,17.48 40.274,16.84 40.334,17.092 41.114,17.48 	"/>
	<polygon fill="#232734" points="48.518,30.779 47.662,30.136 48.518,30.779 	"/>
	<polygon fill="#232734" points="53.808,18.246 53.379,18.254 53.255,18.322 53.338,18.541 53.808,18.246 	"/>
	<polygon fill="#232734" points="39.386,27.163 38.921,27.731 39.386,27.163 	"/>
	<polygon fill="#232734" points="46.969,23.106 47.339,23.526 47.481,23.532 47.468,23.317 46.969,23.106 	"/>
	<polygon fill="#232734" points="50.993,18.878 50.962,18.982 51.277,19.107 51.248,18.965 50.993,18.878 	"/>
	<polygon fill="#232734" points="56.494,21.433 56.322,21.496 56.385,21.615 56.648,21.664 56.615,21.529 56.494,21.433 	"/>
	<polygon fill="#232734" points="53.776,26.595 53.447,26.386 53.108,26.476 53.102,26.415 53.432,26.614 53.771,26.532 
		53.776,26.595 	"/>
	<polygon fill="#232734" points="55.16,24.425 55.306,24.628 55.5,24.595 55.368,24.396 55.16,24.425 	"/>
	<polygon fill="#232734" points="55.974,25.157 56.335,25.372 56.461,25.353 56.345,25.115 55.982,25.21 55.974,25.157 	"/>
	<polygon fill="#232734" points="56.995,17.92 57.213,17.875 57.077,17.663 56.864,17.703 56.995,17.92 	"/>
	<polygon fill="#232734" points="51.261,28.836 51.482,28.906 51.461,28.762 51.268,28.883 51.261,28.836 	"/>
	<polygon fill="#232734" points="55.954,18.807 55.952,18.977 56.076,18.951 56.055,18.824 55.954,18.807 	"/>
	<polygon fill="#232734" points="55.75,19.829 55.717,19.721 55.607,19.742 55.634,19.857 55.75,19.829 	"/>
	<polygon fill="#232734" points="55.668,16.792 55.752,16.733 55.669,16.69 55.668,16.792 	"/>
	<polygon fill="#232734" points="55.937,20.38 56.001,20.468 56.045,20.388 55.937,20.38 	"/>
	<polygon fill="#232734" points="49.31,29.153 49.389,29.101 49.305,29.057 49.31,29.153 	"/>
	<polygon fill="#232734" points="40.043,26.069 39.789,26.014 39.753,26.106 40.034,26.006 40.043,26.069 	"/>
	<polygon fill="#232734" points="39.926,25.212 39.688,25.163 39.703,25.269 39.92,25.165 39.926,25.212 	"/>
	<polygon fill="#232734" points="18.845,4.776 18.737,5.053 19.25,5.25 20.228,5.625 21.463,6.494 22.294,7.149 22.612,7.184 
		21.215,5.621 20.671,5.377 19.734,4.904 18.845,4.776 	"/>
	<polygon fill="#232734" points="18.892,10.991 18.857,10.748 18.133,10.476 17.378,10.025 16.575,9.927 16.99,10.338 
		17.248,10.482 18.475,10.994 18.892,10.991 	"/>
	<polygon fill="#232734" points="18.533,6.425 17.887,5.8 17.017,5.643 18.533,6.425 	"/>
	<polygon fill="#232734" points="14.779,12.546 14.445,12.318 13.377,12.5 13.242,12.746 13.346,12.797 14.678,12.635 
		14.775,12.524 14.779,12.546 	"/>
	<polygon fill="#232734" points="28.487,20.424 28.411,20.005 28.135,19.674 27.868,19.602 27.987,20.269 28.487,20.424 	"/>
	<polygon fill="#232734" points="28.315,11.127 27.659,11.786 27.668,11.932 27.875,12.121 28.112,11.989 28.174,11.857 
		28.315,11.127 	"/>
	<polygon fill="#232734" points="18.351,21.576 19.239,21.201 19.262,21.067 19.057,20.945 18.358,21.418 18.351,21.576 	"/>
	<polygon fill="#232734" points="29.743,18.259 29.115,18.299 28.967,18.726 29.618,18.696 29.743,18.259 	"/>
	<polygon fill="#232734" points="27.086,8.725 26.975,8.142 26.723,8.032 26.669,8.129 26.828,8.691 27.086,8.725 	"/>
	<polygon fill="#232734" points="16.309,18.34 15.902,18.328 15.744,18.504 15.931,18.687 16.309,18.34 	"/>
	<polygon fill="#232734" points="21.052,22.613 21.569,22.201 21.495,21.992 21.36,22.017 21.052,22.613 	"/>
	<polygon fill="#232734" points="16.057,20.189 15.747,19.965 15.523,20.288 16.057,20.189 	"/>
	<polygon fill="#232734" points="22.556,21.407 22.442,21.67 22.59,21.888 22.729,21.901 22.792,21.389 22.556,21.407 	"/>
	<polygon fill="#232734" points="18.848,19.553 18.385,20.129 18.848,19.553 	"/>
	<polygon fill="#232734" points="20.412,21.485 20.148,21.508 19.885,21.853 19.927,22.107 20.412,21.485 	"/>
	<polygon fill="#232734" points="17.206,12.678 17.118,12.451 16.9,12.462 16.942,12.596 17.058,12.686 17.206,12.678 	"/>
	<polygon fill="#232734" points="16.852,19.907 16.884,20.101 17.009,20.065 17.075,19.813 16.957,19.821 16.852,19.907 	"/>
	<polygon fill="#232734" points="15.746,13.076 15.622,12.857 15.403,12.845 15.494,13.055 15.746,13.076 	"/>
	<polygon fill="#232734" points="15.534,17.221 15.701,17.224 15.676,17.102 15.55,17.124 15.534,17.221 	"/>
	<polygon fill="#232734" points="11.419,14.968 11.852,14.919 11.68,14.407 10.874,14.151 10.531,15.07 10.913,15.063 
		11.419,14.968 	"/>
	<polygon fill="#232734" points="13.604,15.059 13.171,15.113 13.025,15.643 13.442,15.619 13.657,15.19 13.604,15.059 	"/>
	<polygon fill="#232734" points="16.815,21.57 16.947,21.784 17.151,21.739 17.031,21.525 16.815,21.57 	"/>
	<polygon fill="#232734" points="12.462,13.098 12.113,13.09 11.855,13.384 11.849,13.351 12.199,13.328 12.455,13.036 
		12.462,13.098 	"/>
	<polygon fill="#232734" points="16.419,14.66 16.335,14.707 16.423,14.757 16.419,14.66 	"/>
	<polygon fill="#232734" points="18.111,17.534 18.059,17.446 18.011,17.532 18.111,17.534 	"/>
	<polygon fill="#232734" points="13.354,16.441 13.104,16.388 13.11,16.509 13.349,16.395 13.354,16.441 	"/>
	<polygon fill="#232734" points="14.775,12.524 15.015,12.583 14.988,12.417 14.779,12.546 14.775,12.524 	"/>
	<polygon fill="#232734" points="12.455,13.036 12.715,13.067 12.686,12.958 12.462,13.098 12.455,13.036 	"/>
	<polygon fill="#232734" points="25.705,45.543 25.942,45.446 26.071,44.546 25.731,44.832 25.705,45.543 	"/>
	<polygon fill="#232734" points="24.894,48.449 24.838,48.711 25.148,48.625 25.283,48.382 25.207,48.196 25.077,48.237 
		24.894,48.449 	"/>
	<polygon fill="#232734" points="23.299,45.262 23.736,44.644 23.299,45.262 	"/>
	<polygon fill="#232734" points="22.206,47.68 21.924,48.051 22.206,47.68 	"/>
	<polygon fill="#232734" points="25.247,51.705 25.321,51.74 25.507,51.58 25.42,51.414 25.223,51.567 25.247,51.705 	"/>
	<polygon fill="#232734" points="25.639,48.862 25.598,48.754 25.482,48.768 25.523,48.878 25.639,48.862 	"/>
	<polygon fill="#232734" points="14.874,36.593 14.62,37.539 15.119,37.918 15.444,37.771 15.519,37 14.874,36.593 	"/>
	<polygon fill="#232734" points="11.933,38.436 12.631,39.327 12.793,39.083 11.933,38.436 	"/>
	<polygon fill="#232734" points="13.726,37.548 13.577,37.795 14.175,38.4 14.417,38.382 14.459,38.249 13.726,37.548 	"/>
	<polygon fill="#232734" points="17.549,36.303 17.8,36.003 17.49,35.34 17.106,35.196 17,35.587 17.549,36.303 	"/>
	<polygon fill="#232734" points="16.375,36.085 17.207,36.768 17.004,36.235 16.74,35.874 16.375,36.085 	"/>
	<polygon fill="#232734" points="13.117,38.033 12.622,38.133 12.597,38.291 13.385,38.814 13.117,38.033 	"/>
	<polygon fill="#232734" points="22.557,38.355 22.6,38.098 22.247,38.011 22.208,38.368 22.557,38.355 	"/>
	<polygon fill="#232734" points="21.065,40.792 20.676,40.458 20.287,40.615 21.065,40.792 	"/>
	<polygon fill="#232734" points="21.446,38.271 21.269,38.365 21.399,38.604 21.633,38.759 21.831,38.681 21.799,38.545 
		21.446,38.271 	"/>
	<polygon fill="#232734" points="18.857,38.081 19.296,38.057 19.39,37.97 19.224,37.753 18.857,38.081 	"/>
	<polygon fill="#232734" points="18.772,38.857 19.211,39.129 19.289,39.067 19.275,38.934 18.775,38.92 18.772,38.857 	"/>
	<polygon fill="#232734" points="18.696,41.501 18.921,41.555 18.899,41.4 18.699,41.521 18.696,41.501 	"/>
	<polygon fill="#232734" points="20.286,37.571 20.357,37.669 20.406,37.584 20.286,37.571 	"/>
	<polygon fill="#232734" points="20.83,36.232 20.73,36.449 20.778,36.549 20.928,36.425 20.781,36.238 20.83,36.232 	"/>
	<polygon fill="#232734" points="33.637,48.134 33.858,49.86 34.182,49.667 34.012,48.06 33.832,47.913 33.637,48.134 	"/>
	<polygon fill="#232734" points="36.258,47.457 36.121,46.778 35.868,46.704 35.816,46.818 35.992,47.364 36.258,47.457 	"/>
	<polygon fill="#232734" points="35.509,39.054 34.786,39.06 35.29,39.205 35.5,38.988 35.509,39.054 	"/>
	<polygon fill="#232734" points="36.436,42.743 36.457,42.619 36.267,42.63 36.212,42.884 36.436,42.743 	"/>
	<polygon fill="#232734" points="32.039,45.532 32.355,46.208 32.25,45.718 32.039,45.532 	"/>
	<polygon fill="#232734" points="32.342,46.136 32.409,46.636 32.342,46.136 	"/>
	<polygon fill="#232734" points="37.108,47.917 37.13,47.624 37.046,47.686 37.162,47.911 37.108,47.917 	"/>
	<polygon fill="#232734" points="35.373,44.978 35.522,44.955 35.485,44.814 35.338,44.831 35.373,44.978 	"/>
	<polygon fill="#232734" points="32.813,38.826 32.94,38.797 32.787,38.698 32.813,38.826 	"/>
	<polygon fill="#232734" points="30.619,54.432 31.211,53.245 31.628,53.058 31.645,52.223 31.377,52.138 30.791,53.232 
		30.549,54.188 30.669,54.425 30.619,54.432 	"/>
	<polygon fill="#232734" points="30.779,47.255 30.598,47.492 30.586,49.375 30.686,49.482 30.897,49.393 30.9,47.48 30.735,47.26 
		30.779,47.255 	"/>
	<polygon fill="#232734" points="29.308,50.887 29.054,51.259 29.308,50.887 	"/>
	<polygon fill="#232734" points="29.299,49.431 29.446,49.646 29.636,49.58 29.503,49.375 29.375,49.368 29.299,49.431 	"/>
	<polygon fill="#232734" points="30.208,51.456 30.268,51.224 30.166,51.227 30.265,51.45 30.208,51.456 	"/>
	<polygon fill="#232734" points="31.922,49.948 32.082,49.947 32.067,49.822 31.942,49.849 31.922,49.948 	"/>
	<polygon fill="#232734" points="30.735,47.26 30.794,46.994 30.669,47.008 30.779,47.255 30.735,47.26 	"/>
	<polygon fill="#232734" points="30.669,54.425 30.609,54.685 30.723,54.668 30.619,54.432 30.669,54.425 	"/>
	<polygon fill="#232734" points="28.361,37.307 28.372,37.181 28.317,37.088 28.101,37.225 28.133,37.44 28.267,37.411 
		28.361,37.307 	"/>
	<polygon fill="#232734" points="25.344,31.312 24.528,31.412 24.24,31.725 24.351,32.323 24.722,32.365 25.251,31.844 
		25.337,31.253 25.344,31.312 	"/>
	<polygon fill="#232734" points="34.375,26.833 34.024,26.189 33.132,26.606 33.801,27.374 33.939,27.358 34.375,26.833 	"/>
	<polygon fill="#232734" points="25.337,31.253 25.914,31.696 26.189,31.672 26.263,31.274 25.429,31.194 25.344,31.312 
		25.337,31.253 	"/>
	<polygon fill="#232734" points="31.254,28.194 30.665,27.899 31.178,28.587 31.254,28.194 	"/>
	<polygon fill="#232734" points="31.748,27.34 32.12,27.576 32.36,27.461 32.382,27.186 31.9,26.875 31.762,27.403 31.748,27.34 	
		"/>
	<polygon fill="#232734" points="33.602,30.941 32.698,29.99 32.435,30.032 33.602,30.941 	"/>
	<polygon fill="#232734" points="27.55,29.939 26.896,29.94 26.887,30.069 27.128,30.583 27.472,30.289 27.534,29.876 27.55,29.939 
			"/>
	<polygon fill="#232734" points="25.826,30.327 26.407,30.952 26.548,30.937 26.599,30.853 25.826,30.327 	"/>
	<polygon fill="#232734" points="28.951,29.088 28.273,29.123 28.842,29.583 28.943,29.034 28.951,29.088 	"/>
	<polygon fill="#232734" points="31.762,27.403 31.07,27.436 31.664,27.903 31.748,27.34 31.762,27.403 	"/>
	<polygon fill="#232734" points="28.943,29.034 29.431,29.261 29.352,28.736 28.951,29.088 28.943,29.034 	"/>
	<polygon fill="#232734" points="27.534,29.876 27.922,29.806 27.888,29.439 27.626,29.373 27.55,29.939 27.534,29.876 	"/>
	<polygon fill="#232734" points="30.202,28.887 30.089,28.439 29.958,28.436 29.922,28.636 30.25,28.881 30.202,28.887 	"/>
	<polygon fill="#232734" points="30.25,28.881 30.197,29.122 30.308,29.118 30.202,28.887 30.25,28.881 	"/>
	<polygon fill="#232734" points="27.058,34.086 26.705,34.561 26.691,34.819 27.14,34.483 26.994,34.092 27.058,34.086 	"/>
	<polygon fill="#232734" points="19.323,26.669 19.103,27.181 19.156,27.313 20.886,28.632 20.836,28.645 20.868,28.376 
		19.258,26.678 19.323,26.669 	"/>
	<polygon fill="#232734" points="23.928,25.645 23.539,25.391 23.203,25.616 23.766,26.283 24.035,26.352 24.046,26.116 
		23.916,25.583 23.928,25.645 	"/>
	<polygon fill="#232734" points="20.792,26.256 20.531,26.6 20.935,27.148 21.079,27.134 21.125,27.038 20.732,26.261 
		20.792,26.256 	"/>
	<polygon fill="#232734" points="21.394,25.958 21.342,26.498 21.521,26.654 21.739,26.341 21.687,26.219 21.34,25.966 
		21.394,25.958 	"/>
</g>
</svg>
