<?xml version="1.0" encoding="utf-8"?>
<!-- Generator: Adobe Illustrator 15.0.2, SVG Export Plug-In . SVG Version: 6.00 Build 0)  -->
<!DOCTYPE svg PUBLIC "-//W3C//DTD SVG 1.1//EN" "http://www.w3.org/Graphics/SVG/1.1/DTD/svg11.dtd">
<svg version="1.1" id="Layer_1" xmlns="http://www.w3.org/2000/svg" xmlns:xlink="http://www.w3.org/1999/xlink" x="0px" y="0px"
	 width="54.333px" height="54.333px" viewBox="0 0 54.333 54.333" enable-background="new 0 0 54.333 54.333" xml:space="preserve">
<g id="ramita2">
	<path fill="#232734" d="M45.659,33.932l-0.094,0.299l-0.41,0.098l-0.619,0.307L44.19,34.82l-0.646,0.468l-0.922,0.444l-0.752,0.336
		l-0.816,0.157l-0.869,0.143l-0.666,0.646l-1.268,0.949l-0.695,0.369l-0.346,0.192l-0.469,0.167l-1.166,0.605l-1.396,0.121
		l-1.229-0.295l-0.145-0.199l0.082-0.576l0.42-0.167l0.402-0.257l0.428-0.199l0.668-0.42l0.039-0.148l-0.525-0.468l-0.75-0.368
		l-0.5-0.115l-0.535-0.145l-0.615-0.109l-1.461-0.022l-1.377,0.122L28.77,36.1l-0.622,0.128l-0.616,0.123l-0.606,0.177l-0.383-0.015
		l-0.33-0.437l0.146-0.449l0.526-0.408l0.483-0.161l0.075-0.197l-0.707-0.331l-1.386-0.342l-0.924-0.301l-0.2-0.163l-0.261-0.076
		l-0.307-0.078l-1.016-0.442l-1.479-0.756l-0.95-0.563l-1.777-1.17l-0.222-0.14L18.04,30.26l-0.189-0.262l-0.133-0.529l0.071-0.219
		l0.665-0.244l0.531,0.14l0.627,0.11l0.193-0.104l0.058-0.406l-0.98-1.328l-0.473-0.417l-0.416-0.357l-1.203-1.016l-0.595-0.387
		l-1.004-0.625l-0.734-0.46l-0.541-0.323L13,23.38l-0.563-0.28l-0.812-0.49l-0.703-0.502l-0.614-0.495l-0.692-0.521l-0.683-1.054
		L8.786,19.76l-0.311-0.466l-0.147-1.777l-0.27-0.436l0.375-0.135l0.242-0.718l0.411-0.509l0.389-0.271l1.599,0.156l1.872,0.975
		l0.579,0.532l0.324,0.344l1.124,1.323l0.23,0.324l0.251,0.308l0.562,0.55l0.488,0.614l0.356,0.189l0.055-0.03l0.099-0.374
		l0.184-0.169l0.259-0.189l1.416,0.378l0.317,0.394l0.363,0.304l0.263,0.481l0.342,0.413l0.284,0.463l0.629,0.716l0.809,1.369
		l0.07,0.284l0.603,0.701l0.022-0.791l0.115-0.706l0.259-0.497l0.522-0.381l0.49-0.085l0.542,0.233l0.485,0.344l0.256,0.353
		l0.243,0.494l0.405,1.191l0.388,1.029l0.101,0.214l0.409,0.673l0.266,0.659l0.036,0.063l0.204,0.32l0.188,0.157l0.083,0.233
		l0.256,0.179l0.457,0.569l0.832,0.543l1.703,0.818l0.113,0.111l0.061,0.05l0.457,0.009l0.023-0.3l0.17-0.911l0.088-0.129
		l0.438-0.154l0.92,0.004l0.816,0.4l0.123,0.145l0.148,0.177l0.244,0.149l0.318,0.406l0.307,0.365l0.279,0.176l0.391,0.484
		l0.225,0.221l0.4,0.379l0.396,0.381l0.225,0.221l0.826,0.725l0.773,0.618l1.094,0.215l0.404-0.118l1.334-0.174l0.68-0.199
		l0.641-0.097l0.541-0.284l0.525-0.176l0.365-0.146l0.703-0.264l0.502,0.102L45.659,33.932L45.659,33.932z M39.125,35.758
		l-0.119-0.063l-0.008,0.062l0.131-0.024l0.117,0.058l0.014-0.059L39.125,35.758L39.125,35.758z M39.112,36.558l-0.113-0.072
		l-0.012,0.058l0.131-0.019l0.111,0.062l0.008-0.053L39.112,36.558L39.112,36.558z M37.989,37.178l-0.123-0.077l-0.008,0.062
		l0.137-0.019l0.143,0.054l-0.021-0.046L37.989,37.178L37.989,37.178z M33.356,31.89l-0.119-0.065l-0.004,0.061l0.127-0.025
		l0.125,0.074l0.014-0.062L33.356,31.89L33.356,31.89z M23.571,23.86l-0.106-0.072l-0.019,0.054l0.129-0.016l0.126,0.071l0.002-0.06
		L23.571,23.86L23.571,23.86z M20.273,29.603l-0.124-0.056l-0.001,0.06l0.131-0.038l0.115,0.071l0.017-0.06L20.273,29.603
		L20.273,29.603z M37.452,36.98l-0.314-0.172l-0.365-0.284l-0.023-0.16l0.303,0.067l0.494,0.224l0.074-0.023l0.121,0.07l0.01-0.058
		l-0.135,0.021l-0.084-0.127l-0.035-0.068l0.004-0.073l0.121-0.042l0.57,0.208l0.133-0.047l0.217,0.187l-0.223-0.158l-0.117-0.283
		l0.062-0.025l0.154,0.01l0.281,0.148l0.01-0.129l-0.152-0.172l-1.295-0.356l-0.627-0.094l-1.541-0.36l-0.387-0.095l-0.906-0.274
		l-0.979-0.315l-0.818-0.294l-2.055-0.822l-0.799-0.342l-1.125-0.581l-0.938-0.571l-1.69-0.865l-0.802-0.502l-0.449-0.312
		l-0.597-0.384l-0.324-0.35L22.99,29.37l-0.631-0.47l-0.31-0.36l-0.057-0.057l-0.605-0.613l-0.349-0.433l-0.669-0.668l-0.164-0.17
		l-0.555-0.561l-0.304-0.366l-0.592-0.631l-0.33-0.337l-0.349-0.318l-0.395-0.498l-0.218-0.227l-0.456-0.437l-0.345-0.28
		l-0.069-0.082l-1.007-0.997l-0.304-0.248l-0.733-0.595l-0.664-0.423l-0.736-0.459l-0.596-0.382l-0.504-0.285l-1.37,0.255
		l-0.039,0.052l0.503,0.345l0.381-0.032l-0.197,0.267l-0.12,0.288l-0.316-0.26l-0.372,0.277l-0.216-0.075l-0.14,0.132l0.345,0.164
		l0.305-0.044l0.398-0.21l0.061,0.049l0.614-0.067l0.004,0.116l-0.282,0.129l-0.604,0.164l-0.062,0.043l-0.056,0.137l0.164,0.253
		l0.463-0.004l0.13,0.063l0.002-0.019l-0.18,0.248l0.449,0.294l0.698-0.083l0.2,0.087l0.002-0.02l-0.502,0.189l-0.272,0.263
		l0.359,0.123l0.309-0.05l0.129,0.065l0.001-0.016l-0.176,0.246l0.409,0.167l1.224-0.219l0.076,0.188l-0.606,0.149l-0.038,0.139
		l0.107,0.104l0.231,0.032l0.934-0.137l0.122,0.163l-0.606,0.137l-0.072,0.124l0.033,0.065l0.196,0.125l1.065,0.765l0.659,0.304
		l0.203,0.114l0.758,0.56l0.265,0.291l0.188,0.14l0.664,0.549l0.419,0.352l0.441,0.446l0.229,0.148l0.77,1.057l0.138,0.709
		l0.466,0.138l0.228,0.291l0.005-0.033l-0.366,0.076l0.072-0.121l-0.059-0.019l0.014,0.144l-0.302,0.043l-0.114,0.117l0.371,0.184
		l-0.3,0.205l-0.346,0.143l-0.19-0.049l-0.063,0.117l0.062,0.018l0.193-0.095l0.11,0.094l1.42,0.341l0.207,0.09l0.006-0.035
		l-0.425,0.158l-0.088,0.127l0.202,0.051l0.464,0.004l0.124,0.076l0.005-0.026l-0.192,0.188l-0.021,0.25l0.962,0.1l-0.094,0.29
		l0.223,0.071l0.544,0.082l0.117,0.09l0.004-0.028l-0.259,0.208l-0.264-0.1l-0.104,0.076l0.248,0.094l0.121-0.086l0.418,0.207
		l1.013,0.008l0.039,0.041l-0.211,0.293l0.548,0.01l0.534,0.023l-0.022,0.074l-0.168,0.164l-0.112-0.072l-0.021,0.058l0.139-0.017
		l0.213,0.08l0.63-0.051l0.297,0.021l-0.06,0.283l0.393-0.008l0.366,0.096l0.285,0.117l0.086,0.123l0.028,0.157l0.521,0.043v0.239
		l0.145,0.195l0.375,0.025l0.344,0.434l0.014,0.238l0.117,0.098l1.211-0.295l0.734-0.012l0.295,0.098l0.379-0.079l0.285,0.196
		l0.561-0.088l0.396,0.059l0.391-0.029l0.027,0.051l-0.098,0.211l0.074,0.027l1.021-0.016l0.031,0.264l-0.264,0.084l0.268-0.113
		l0.127,0.07l0.455,0.029l-0.066,0.135l-0.244,0.193l-0.031,0.135l0.109,0.095l0.703-0.022l0.232,0.006l0.082,0.084L36,36.612
		l-0.43,0.163L35.495,36.9l0.064,0.032l0.84-0.008l0.281-0.146l0.398,0.044l0.062-0.045l0.129,0.16l0.186,0.01l0.141,0.043
		l-0.027-0.043L37.452,36.98L37.452,36.98z M34.668,38.018l-0.244-0.001l-0.012,0.073l0.066,0.015l0.193-0.114l0.105,0.146
		l-0.4,0.295L34.26,38.37l-0.02,0.062l0.143-0.029l0.086,0.156l0.004-0.024l-0.262,0.147l-0.479,0.22l-0.135-0.007l0.141-0.022
		l0.061,0.051l0.547,0.004l0.549,0.01l0.148,0.076l0.445-0.049l1.02-0.461l0.221-0.059l0.729-0.458l0.256-0.056l0.316-0.234
		l-0.012-0.189l-1.107-0.453l-1.373,0.35l-0.029,0.072l0.359,0.089l0.111,0.097l0.002-0.025l-0.188,0.117l-0.648,0.121l-0.25,0.183
		L34.668,38.018L34.668,38.018z M23.852,26.408l-0.212-0.187l0.218,0.152l0.221,0.197L23.852,26.408L23.852,26.408z M10.934,17.31
		l-0.22-0.2l0.225,0.169l0.117,0.066l0.009-0.058L10.934,17.31L10.934,17.31z M24.101,27.007l-0.602-0.462l0.028,0.181l0.111,0.104
		l0.401,0.195l0.065-0.04l0.217,0.286l0.191,0.015l0.252,0.295l0.525,0.347l0.309,0.349l-0.022,0.218l-0.192-0.246l-0.513-0.359
		l-0.533-0.334L23.8,27.231l-0.308,0.027l-0.308-0.188l-0.387-0.529l-0.344-0.434l-0.45-0.485l-0.465,0.211l-0.601,0.182
		l-0.282,0.138l-0.027,0.32l0.351,0.163l0.15-0.046l0.663-0.228l0.12,0.076l0.003-0.021l-0.75,0.387l-0.017,0.168l0.346,0.359
		l0.274-0.038l0.803-0.33l0.306,0.026l-0.051,0.116l-0.717,0.325l-0.281,0.117l0.497,0.329l0.482-0.285l0.689-0.363l0.221,0.218
		l0.902,0.566l0.762,0.585l0.197-0.12l0.133,0.059l0.233-0.021l-0.104,0.289l0.074,0.146l0.072,0.229l-0.623-0.306l-0.778,0.279
		l-0.674,0.361l-0.01,0.152l0.27,0.203l0.332-0.052l0.601-0.394l0.201,0.056l0.005-0.028l-0.747,0.577l-0.042,0.126l0.148,0.055
		l0.834-0.199l0.424-0.2l0.149-0.03l0.004,0.203l-0.357,0.16l-0.44,0.163l-0.149,0.165l0.206,0.191l0.095,0.024l1.033-0.304
		l0.674-0.223l0.451,0.104l-0.054,0.143l-0.582,0.404l-0.434,0.341l0.029-0.379l0.121-0.229l-0.692,0.226l-0.104,0.172l0.273,0.161
		l0.075,0.027l0.304-0.002l0.132,0.193l0.977,0.504l0.095-0.007l0.773-0.36L29.2,30.95l0.025-0.074l-0.34-0.174h-0.09l-1.186,0.774
		l-0.229-0.069l0.081-0.141l0.558-0.254l0.59-0.521l-0.152-0.172l-0.709-0.498l-0.59-0.744l-0.638-0.91l-0.242-0.572l-0.513-0.779
		l-0.181-0.718l-0.222-0.375l-0.188-0.72l-0.226-0.587l-0.161-0.272L24.39,23.65l-0.06-0.051l-0.353-0.172l-0.139,0.057
		l-0.006,0.138l0.123,0.198l-0.156,0.433l-0.157-0.005l-0.14,0.048l-0.135-0.174l-0.107,0.019l-0.001,0.068l0.247,0.071l0.23,0.204
		l0.189,0.133l0.005,0.073l-0.044,0.042L23.575,24.7l-0.144,0.038l-0.159-0.166l-0.067-0.006l0.027,0.142l0.202,0.018l0.206,0.211
		l0.419,0.268l-0.095,0.123l-0.288,0.029l-0.219-0.192l0.225,0.162l0.391,0.368l0.111,0.104l0.01,0.073l-0.04,0.039l-0.227-0.041
		l-0.344-0.188l-0.32-0.2l-0.088,0.112l0.054,0.133l0.758,0.407l0.399,0.243l0.12,0.254l-0.153,0.037l0.034,0.132l0.26,0.168
		l0.144,0.262l-0.282,0.07l-0.217-0.278L24.101,27.007L24.101,27.007z M31.262,33.611l0.053-0.215l0.195-0.122l0.393-0.218
		l0.404-0.236l0.375-0.284l0.025-0.07l-0.051-0.133l-0.141-0.016l-0.34,0.197l-0.496,0.197L31.284,33l-0.479,0.393l0.389,0.213
		l0.072-0.027l0.225,0.037l0.229,0.204l0.436-0.099l1.299-0.922l0.041-0.15l-0.576-0.047l-1.43,1.04L31.262,33.611L31.262,33.611z
		 M30.094,33.083l-0.117-0.205l0.393-0.225l0.965-0.672l0.145-0.195l-0.334-0.064l-0.74,0.486l-0.266,0.071l-0.805,0.571
		l-0.004-0.221l0.328-0.238l0.967-0.672l0.082-0.127l-0.174-0.117l-0.396,0.018l-1.191,0.813l-0.336,0.081l0.027-0.213l0.453-0.162
		l0.82-0.604l0.043-0.137l-0.359-0.154l-0.645,0.246l-0.914,0.633l0.069,0.209l0.37,0.189l0.137-0.036l0.141,0.175l0.441,0.289
		l0.143-0.006l0.469,0.256l0.293-0.018l0.049,0.062l0.375,0.043l0.621-0.343l0.215-0.094l0.719-0.501l0.023-0.075l-0.326-0.101
		l-0.701,0.361l-0.139,0.071L30.094,33.083L30.094,33.083z M38.44,35.055l-0.004,0.229l-0.203,0.115l-0.164,0.157l0.52,0.129
		l0.553-0.295l0.092,0.002l0.227,0.2l0.379-0.002l0.455-0.121l0.439-0.232l0.49,0.115l0.441-0.115l0.498-0.293l0.863-0.078
		l0.373-0.244l0.42-0.201l0.1-0.119l0.303-0.055l0.322,0.094l0.451-0.279l-0.082-0.262l-0.676,0.174l-0.141,0.066l-0.451,0.146
		l-0.521,0.181l-0.453,0.131l-0.566,0.232l-0.797,0.148l-0.844,0.201l-0.787,0.071l-0.213,0.021l-0.965-0.131l-0.062,0.045
		l-0.145-0.184l-0.332-0.208l-1.271-0.924l-0.164-0.036l-0.646,0.439l-0.391,0.271l-0.494,0.231l-0.059,0.129l0.045,0.061
		l0.764,0.165l0.092-0.235l0.262-0.158l0.307-0.062l0.072,0.154l-0.359,0.361l0.385,0.152l0.273-0.15l0.547-0.312l0.127,0.064
		l0.018,0.068l-0.029,0.098l-0.301,0.224l0.025,0.149l0.461,0.049l0.615-0.26L38.44,35.055L38.44,35.055z M11.041,18.804
		l0.004-0.025l-0.195,0.129l-0.691,0.165L9.955,19.19l-0.012,0.201l0.481,0.167l1.197-0.218l0.078-0.056l-0.025-0.299l0.366,0.14
		l0.804,0.501l0.364,0.107l0.088-0.157l0.768-0.073l0.094-0.109l-0.115-0.18l-0.234-0.015l-0.545,0.091l-0.235-0.018l-0.112-0.21
		l0.74-0.084l-0.112-0.182l-0.39,0.016l-0.305-0.05l0.286-0.19l-0.021-0.136l-0.312-0.228l-0.505-0.379l-0.136-0.004l0.139,0.381
		l-0.373-0.253l-0.425-0.352l-0.192,0.083l0.43,0.524l-0.479,0.022l-0.325,0.236l-0.416-0.009l0.035,0.141l0.29,0.107L11.041,18.804
		L11.041,18.804z M17.489,21.08l0.224,0.424l-0.032,0.311l-0.563,0.196l-0.197-0.083l0.094-0.195l0.224-0.071l0.115-0.072
		l-0.144-0.162l-0.185-0.046l-0.667,0.132l-0.152-0.03l0.027-0.212l0.269-0.068l-0.384-0.388l-0.254,0.153l-0.366,0.136
		l-0.065,0.128l0.241,0.195l0.55,0.445l0.52,0.479l0.684,0.653l0.204,0.24l0.395,0.384l0.328,0.338l0.943,1.056l0.207,0.238
		l0.383,0.493l0.343,0.227l0.673-0.188l0.295-0.106l0.664-0.222l0.009-0.087l-0.632-0.999l-0.031-0.067l-0.054-0.227l-0.401-0.383
		l-0.08-0.342l-1.904-2.547l-1.192-0.445l-0.143,0.269L17.489,21.08L17.489,21.08z M15.445,20.002l-0.283-0.025l-0.85,0.164
		L14,20.101l0.03-0.116l0.999-0.201l0.101-0.11l-0.258-0.129l-0.234,0.011l-0.536,0.125l-0.607,0.147l-0.024,0.127l0.101,0.119
		l0.76,0.396l0.514-0.16l0.528-0.064l0.009,0.052l-0.169,0.153l-0.597,0.15l0.069,0.149l0.401,0.204l0.4-0.108l0.416-0.149
		l-0.015-0.083L15.445,20.002L15.445,20.002z M25.044,28.631l-0.678-0.408l-0.25-0.01l-0.654,0.263l-0.512,0.196l-0.056,0.146
		l0.087,0.115l0.456,0.307l1.145-0.302l0.286-0.129L25.044,28.631L25.044,28.631z M32.821,34.209l0.189-0.242l0.236-0.061
		l1.307-0.824l-0.07-0.135l-0.543-0.09l-0.598,0.367l-0.291,0.089l-0.771,0.563l-0.037,0.125L32.821,34.209L32.821,34.209z
		 M33.872,34.231l0.609-0.393l0.42-0.211l0.279-0.141l0.646-0.434l-0.041-0.215l-0.143-0.035l-0.5,0.225l-0.541,0.312l-0.516,0.338
		l-0.168,0.051l-0.152,0.041l-0.703,0.577l0.471,0.104l0.123-0.176L33.872,34.231L33.872,34.231z M33.924,34.534l0.41,0.162
		l0.404-0.105l0.707-0.463l0.602-0.346l0.314-0.199l0.023-0.201l-0.354-0.09l-0.766,0.391l-0.27,0.16l-0.57,0.377l-0.391,0.127
		L33.924,34.534L33.924,34.534z M22.7,28.534l0.709-0.259l0.515-0.185l0.071-0.125l-0.043-0.061l-0.406-0.229l-0.283-0.036
		l-0.491,0.29l-0.376,0.132l-0.087,0.207l0.135,0.187L22.7,28.534L22.7,28.534z M33.95,32.37l0.178,0.086l0.484-0.285l0.164-0.035
		l0.076-0.018l0.084-0.193l-0.227-0.199L34.25,31.84l-0.133,0.271L33.95,32.37L33.95,32.37z M32.458,30.01l-0.479,0.395l0.334,0.188
		l0.182-0.236l0.48,0.005l0.076-0.17L32.458,30.01L32.458,30.01z M35.19,32.247l-0.604,0.293l-0.027,0.145l0.412,0.152l0.393-0.352
		L35.19,32.247L35.19,32.247z M9.853,18.393l0.019-0.048l-0.176-0.232l-0.521-0.08l-0.038,0.24l0.387,0.18L9.853,18.393
		L9.853,18.393z M11.206,18.07l-0.001-0.149l-0.154-0.163l-0.362-0.066l-0.106,0.177l0.269,0.26L11.206,18.07L11.206,18.07z
		 M34.249,31.278l-0.498,0.16l-0.135,0.167l0.094,0.118l0.463-0.076l0.197-0.223L34.249,31.278L34.249,31.278z M9.2,19.382v0.077
		l0.556,0.232L9.8,19.617L9.2,19.382L9.2,19.382z M11.597,16.897l-0.034,0.121l0.496,0.363l0.162-0.11l-0.103-0.099l-0.183-0.143
		l-0.126-0.089L11.597,16.897L11.597,16.897z M33.465,30.5l-0.379,0.054l-0.195,0.114l-0.047,0.14l0.322,0.026L33.465,30.5
		L33.465,30.5z M33.708,30.747l-0.074,0.002l-0.082,0.278l0.297,0.052l0.117-0.158L33.708,30.747L33.708,30.747z M10.171,17.535
		l0.315-0.211l-0.45-0.092L10.171,17.535L10.171,17.535z M9.894,17.908l0.413,0.344l0.067-0.105L9.894,17.908L9.894,17.908z
		 M9.768,17.701l-0.47-0.339l0.106,0.269L9.768,17.701L9.768,17.701z M9.999,18.897l0.343-0.063l0.029-0.058l-0.066-0.128
		l-0.42,0.026l-0.001,0.074L9.999,18.897L9.999,18.897z M10.038,20.021l0.566,0.221l-0.005-0.129l-0.379-0.226L10.038,20.021
		L10.038,20.021z M9.529,20.118l0.272,0.321l0.068-0.036l0.017-0.188L9.529,20.118L9.529,20.118z M14.289,18.794l-0.253-0.366
		l-0.071,0.29L14.289,18.794L14.289,18.794z M33.34,31.417l-0.135-0.252l-0.074-0.017l-0.141,0.048l0.055,0.2L33.34,31.417
		L33.34,31.417z M9.2,18.798l0.142,0.228l0.235,0.001l-0.08-0.214L9.2,18.798L9.2,18.798z M10.535,21.204l0.176,0.274l0.041-0.019
		l0.002-0.07L10.535,21.204L10.535,21.204z M9.613,16.423L9.509,16.17l-0.107-0.01l0.002,0.072L9.613,16.423L9.613,16.423z
		 M12.639,17.571l-0.032-0.051l-0.147-0.033l-0.092,0.065l0.095,0.104l0.145-0.023L12.639,17.571L12.639,17.571z M12.885,17.967
		l0.139,0.05l0.115-0.037l-0.07-0.119L12.885,17.967L12.885,17.967z M12.483,16.997l-0.043,0.058l0.167,0.109l0.108-0.067
		l-0.024-0.065L12.483,16.997L12.483,16.997z M14.466,19.085l-0.082,0.112l0.044,0.045l0.137,0.05l0.07-0.012l0.011-0.119
		L14.466,19.085L14.466,19.085z M9.048,17.72l-0.122-0.074l0.015,0.138l0.112,0.01L9.048,17.72L9.048,17.72z M9.65,17.001
		l-0.146-0.208L9.65,17.001L9.65,17.001z M10.34,16.789l-0.117-0.081l-0.02,0.052l0.087,0.109l0.048-0.009L10.34,16.789
		L10.34,16.789z M11.021,16.088l-0.113-0.076l-0.02,0.046l0.081,0.105l0.048-0.009L11.021,16.088L11.021,16.088z M13.494,18.294
		l0.062,0.124l0.083-0.057l-0.103-0.1L13.494,18.294L13.494,18.294z M13.066,17.369l0.128,0.184L13.066,17.369L13.066,17.369z
		 M30.538,35.396l-0.139,0.037l-0.016,0.114l0.131-0.037L30.538,35.396L30.538,35.396z M8.946,18.489l-0.003-0.048L8.908,18.46
		L8.946,18.489L8.946,18.489z M9.029,16.96l-0.006,0.062l0.059,0.022l0.006-0.06L9.029,16.96L9.029,16.96z M10.768,16.721h0.059
		l-0.03-0.053L10.768,16.721L10.768,16.721z M11.626,16.531l0.045-0.001l-0.055-0.084l-0.018,0.041L11.626,16.531L11.626,16.531z
		 M11.912,16.678l0.067-0.04l-0.059-0.023L11.912,16.678L11.912,16.678z M13.56,17.788l-0.008,0.067l0.064,0.02l0.007-0.065
		L13.56,17.788L13.56,17.788z M33.364,35.725l-0.055,0.005l0.025,0.044L33.364,35.725L33.364,35.725z M33.055,32.187l0.053,0.001
		l-0.025-0.047L33.055,32.187L33.055,32.187z M32.651,31.521l-0.062,0.036l0.055,0.021L32.651,31.521L32.651,31.521z M32.444,31.088
		l0.057-0.01l0.018-0.07l-0.07-0.01L32.444,31.088L32.444,31.088z"/>
	<polygon fill="#232734" points="13.186,22.559 13.447,22.37 13.896,22.296 14.005,22.467 13.248,22.58 13.189,22.531 	"/>
	<polygon fill="#232734" points="12.345,21.377 12.073,21.523 11.764,21.569 11.643,21.496 11.641,21.514 12.232,21.32 12.342,21.4 
			"/>
	<polygon fill="#232734" points="13.515,21.9 13.317,22.017 12.937,22.089 12.812,22.022 12.81,22.042 13.401,21.846 13.511,21.928 
			"/>
	<polygon fill="#232734" points="13.189,22.531 13.016,22.657 12.836,22.597 12.835,22.613 13.008,22.497 13.186,22.559 	"/>
	<polygon fill="#232734" points="12.342,21.4 12.489,21.405 12.453,21.444 12.345,21.377 	"/>
	<polygon fill="#232734" points="13.511,21.928 13.643,21.908 13.633,21.965 13.515,21.9 	"/>
	<polygon fill="#232734" points="22.16,31.375 22.283,31.349 22.3,31.391 22.165,31.349 	"/>
	<polygon fill="#232734" points="21.877,30.995 22.028,30.973 22.011,31.04 21.883,30.959 	"/>
	<polygon fill="#232734" points="21.163,29.743 21.291,29.723 21.278,29.774 21.168,29.709 	"/>
	<polygon fill="#232734" points="23.704,32.418 23.838,32.391 23.828,32.45 23.708,32.391 	"/>
	<polygon fill="#232734" points="25.306,29.481 25.44,29.459 25.423,29.516 25.31,29.454 	"/>
	<polygon fill="#232734" points="17.671,22.94 17.56,22.769 19.046,22.308 19.161,22.421 19.018,22.577 18.645,22.69 	"/>
	<polygon fill="#232734" points="18.616,24.024 18.528,23.858 19.124,23.716 19.971,23.366 20.12,23.504 	"/>
	<polygon fill="#232734" points="19.398,22.829 19.392,22.948 19.058,23.149 18.143,23.352 18.071,23.203 18.43,23.097 
		18.872,22.949 	"/>
	<polygon fill="#232734" points="20.766,24.615 20.378,24.809 19.923,25.079 19.697,25.106 19.629,25.074 19.641,24.954 
		19.966,24.75 20.473,24.573 	"/>
	<polygon fill="#232734" points="19.222,24.572 19.24,24.359 19.83,24.169 20.188,23.985 20.372,24.069 20.303,24.208 
		19.726,24.415 	"/>
	<polygon fill="#232734" points="18.51,22.007 18.182,22.208 17.425,22.349 17.343,22.165 18.168,21.946 18.399,21.937 
		18.507,22.03 	"/>
	<polygon fill="#232734" points="21.239,25.023 21.078,25.242 20.553,25.362 20.199,25.503 20.108,25.367 20.362,25.215 
		21.018,25.003 	"/>
	<polygon fill="#232734" points="18.507,22.03 18.63,22.008 18.626,22.064 18.51,22.007 	"/>
	<polygon fill="#232734" points="35.979,37.657 36.168,37.538 36.241,37.542 36.182,37.661 35.981,37.631 	"/>
	<polygon fill="#232734" points="34.471,38.556 34.618,38.556 34.581,38.592 34.475,38.532 	"/>
	<polygon fill="#232734" points="34.749,38.131 34.899,38.022 34.866,38.181 	"/>
	<polygon fill="#232734" points="11.041,18.804 11.176,18.779 11.166,18.839 11.045,18.779 	"/>
	<polygon fill="#232734" points="21.913,26.438 22.048,26.415 22.04,26.478 21.916,26.417 	"/>
</g>
</svg>
