<?xml version="1.0" encoding="utf-8"?>
<!-- Generator: Adobe Illustrator 15.0.2, SVG Export Plug-In . SVG Version: 6.00 Build 0)  -->
<!DOCTYPE svg PUBLIC "-//W3C//DTD SVG 1.1//EN" "http://www.w3.org/Graphics/SVG/1.1/DTD/svg11.dtd">
<svg version="1.1" id="Layer_1" xmlns="http://www.w3.org/2000/svg" xmlns:xlink="http://www.w3.org/1999/xlink" x="0px" y="0px"
	 width="74.333px" height="74.333px" viewBox="0 0 74.333 74.333" enable-background="new 0 0 74.333 74.333" xml:space="preserve">
<g id="_x32_">
	<path fill="#232734" d="M26.957,8.001l0.051,0.112l0.749,0.8l0.319,0.589l0.655,0.93l0.694,0.901l0.595,0.717l0.571,0.733
		l0.572,0.739l0.384,0.617l0.426,0.585l0.312,0.663l1.939,4.36l0.047,0.536l0.226,0.509l0.335,1.198l0.061,0.198l0.203,0.908
		l0.301,0.282l0.951-0.426l0.715,0.052l1.235-0.003l0.37-0.11l0.855,0.062l0.511,0.062l2.122,0.78l1.523,1.712l0.043,0.969
		l0.127,1.856l0.166,0.491l0.479,1.107l-0.04,0.773l-0.338,0.966l-0.152,0.382l0.142,0.582l-0.027,0.541l-0.491,1.812l-0.116,0.552
		l-0.264,0.383l-0.039,0.502l-0.205,0.058l-0.156-0.127l-0.312-0.983l-0.397-0.817l-0.424-0.58l-0.742,1.047l0.092,0.902l0.16,1.743
		v0.134l0.336,0.733l0.451,0.614l0.075,0.619l-0.271,0.959l-0.228,0.947l0.214,0.557l0.122,0.605l0.278,2.059l0.007,0.207
		l0.14,0.607l0.032,1.455l-0.284,1.844l-0.287,1.11l-0.276,1.112l-0.112,1.967l0.049,0.516l0.116,0.271l1.431-0.235l0.799-0.207
		l0.302-0.081l0.616-0.053l0.57,0.223l0.371,0.361l0.301,0.281l1.133,0.849l0.41,0.985l-0.021,0.533l-0.202,0.346l0.072,0.438
		l-0.247,0.199l-0.181,0.103l-0.758,0.858l0.451,1.095l-0.012,0.582l-0.329,1.139l0.205,0.274l0.103,0.443l0.369,1.403l0.032,0.412
		l0.027,1.084l-0.114,0.354l-0.178,0.812l-0.277,0.662l-0.252,0.014l0.186-1.445l-0.309-0.889l-0.372-1.211l-0.792-0.781
		l-0.338-0.238l-1.309-0.244l-0.729-0.003l-0.438,0.075l-0.592-0.12l-0.318,0.095l-0.521-0.061l-0.451-0.346l-0.58-1.196
		l-0.652-0.535l-0.458-1.009l-0.007-1.848l0.449-0.83l0.465-0.688l0.629-0.724l0.459-0.285l0.164-0.35l-0.479-1.273l-0.084-1.26
		l0.123-0.383l0.459-2.026l0.093-0.614l0.379-1.579l0.047-0.768l0.027-0.938L41.14,44.56l-0.147-0.922l-0.19-0.785l-0.433,0.037
		l-0.363-0.168l-0.194,0.088l-0.517,1.23l-0.548,0.491l-0.633-0.035l-0.256,0.306L37.69,44.31l0.14-0.386l0.944,0.121l0.588-1.037
		l-0.346-0.354l-0.252-0.452l-0.228-0.466l-0.156-0.121l-0.39,0.31l0.693,1.554l-0.09,0.178l-0.089-0.043l-0.731-1.531l-0.433-0.521
		l-0.278-0.08l-0.076-0.49l-0.079-0.387l0.104-0.278l0.102-0.144l-0.075-0.017l0.015,0.174l-0.119,0.274l-0.148,0.121l-0.499,1.882
		l0.09,0.038l0.438,0.008l0.06-0.688l0.075-0.402l0.136-0.141l0.078,0.401l-0.017,1.66l0.082,0.602l-0.43-0.405l-0.043,0.599
		l0.258,0.688l0.08,0.633l0.157,0.076l0.166-0.681l0.458-0.25l0.148,0.338l-0.95,3.146l-1.63,1.943l-1.178,0.519l-0.651-0.175
		l-0.142-0.138l0.293-0.065l0.719,0.011l0.214-0.034l0.517-0.55l-0.175-0.017l-0.801,0.137l-0.705,0.104l-0.123,0.142l0.106,0.294
		l-0.097,0.04l-0.206,0.021l-0.306-0.389l0.053-0.193l0.39-0.312l0.312-0.024l0.926-0.109l0.974-0.381l0.391-0.193l0.455-0.494
		l0.326-1.032l0.062-1.297l-0.421-0.903l-0.436-0.115l-0.461-1.012l-0.56-1.041l-0.321-0.158l-0.252,0.207l-0.195,0.359
		l-0.354-0.587l-0.312-0.661l-0.354-0.594l-0.129-0.053l-1.035,0.14l-0.811-0.428l-0.559-0.47l-0.272-0.451l-0.337,0.098
		l-0.131,0.171l-0.56,0.28l-0.175,0.494l-0.503,1.264l-0.413,0.948l-0.174,0.071l-0.129-0.145l-0.018-0.102l-0.094-1.865
		l-0.038-0.311l-0.129-0.713l-0.104-0.783l-0.627-1.479l-0.356-1.189l-0.101-0.295l-0.123-0.503l-0.133-1.131l0.283-2.162
		l0.176-0.812l0.443-1.284l0.785-1.936l1.354-1.582l1.114-1.221l0.224-0.213l1.414-1.209l0.168-0.12l0.862-0.565l0.363-0.269
		l0.541-0.096l0.2-0.476l-0.117-0.398l-0.104-0.398l-0.168-0.705l-0.188-0.704l-0.146-0.497l-1.994-4.495l-0.432-0.8l-0.416-0.588
		l-0.85-1.306l-0.487-0.663l-0.188-0.36l-0.307-0.297l-0.762-1.117l-0.115-0.171L27.315,10l-0.604-0.553l-0.384-0.522
		 M46.269,56.373l0.123,0.122l0.037-0.102l-0.173,0.015l-0.276-0.11l-0.273-0.107l-0.259-0.1l-0.099,0.143l0.092,0.027l0.278-0.107
		l0.275,0.107L46.269,56.373L46.269,56.373z M41.294,58.134l0.104-0.277l0.274-0.144l0.048-0.639l-0.484-1.224l-0.209-0.933
		l-0.252-0.164l-0.291,0.13l-0.096,0.499l-0.24,0.46l-0.35,0.317l-0.191-0.255l0.248-0.137l0.041-0.078l-0.158-0.012l-0.096,0.24
		l-0.849,1.529l-0.008,0.916l0.104,0.134l0.09-0.047l0.475-0.386l-0.034-0.015l0.134,0.261l-0.279,0.664l-0.4-0.223l0.456,1.043
		l0.267,0.048l0.244-0.338l0.34-0.246l0.131-0.386l0.141-0.139l0.18,0.406l-0.117,0.215l0.102,0.258l-0.27,0.273l-0.224-0.031
		l-0.128,0.383l0.602,1.33l0.367,0.104l0.355-0.162l0.035-0.188l0.117-0.316l-0.191-0.348l0.109-0.229l-0.261-0.623l0.075-0.062
		l0.054-1.154l-0.065-0.184L41.294,58.134L41.294,58.134z M36.112,41.408l0.111-0.275l0.104-0.139l-0.075-0.021l0.012,0.174
		l-0.109,0.274l-0.118,0.15l0.08,0.03L36.112,41.408L36.112,41.408z M35.476,39.399l0.142,0.117l0.024-0.072l-0.183-0.002
		l-0.09-0.221l0.125-0.13l-0.111-0.03l0.021,0.174l-0.108,0.104L35.476,39.399L35.476,39.399z M37.003,38.263l0.094-0.166
		l-0.061,0.012v0.166l-0.119,0.129l0.042,0.057L37.003,38.263L37.003,38.263z M36.999,23.808l0.279,0.109l0.062,0.172l0.298,0.131
		l0.086,0.182l0.539,0.431l0.098-0.015l0.717,0.81l0.096-0.028l0.297,0.631l0.141,0.025l0.035-0.111l-0.229-0.428l-0.256-0.087
		l-0.716-0.806l-0.098,0.027l-0.197-0.441l-0.348-0.182l-0.178,0.025l-0.062-0.173l-0.295-0.126l-0.281-0.107l-0.275-0.102
		l-0.275-0.107l-0.067-0.076l-0.091-0.028l-0.825,0.386l0.272,0.13l0.702,0.024l0.276,0.109l0.074,0.188l1.289,1.041l0.197,0.063
		l0.057-0.035v-0.098l-1.233-1.096l-0.192-0.07l-0.197,0.026l-0.28-0.101l-0.06-0.18l0.092-0.322l0.275,0.107L36.999,23.808
		L36.999,23.808z M32.897,24.96l0.104-0.277l0.116-0.142l-0.077-0.026l-0.004,0.183l-0.107,0.274l-0.127,0.271l-0.193,0.221
		l-0.18,1.02l-0.051,0.822l0.186,1.016l0.094,0.609l0.393,0.721l-0.121-0.504l0.031-0.715l0.12-0.697l0.188,0.156l0.039,0.402
		l0.229,0.209l0.051,0.088l0.083,0.299l0.021,0.31l0.259,1.104l0.116,0.712l0.351,0.866l0.04,0.368l-0.079-0.381l0.106-0.156
		l-0.049-0.71l-0.271-1.19l-0.071-0.612l-0.178-0.681l0.254-0.062l0.193,0.236l-0.11,0.146l0.228,0.792l0.134,0.707l0.032,0.202
		l0.147,1.229l0.136,1.228l0.131,0.146l0.179-1.414l-0.147-0.701l-0.093-0.396l-0.144-0.327l-0.01-0.467l-0.516-1.151l0.275-0.27
		l0.365,0.742l-0.003,0.32l0.253,0.738l-0.013,0.358l0.233,0.661l0.108,0.625l0.082,0.062l0.076-0.019l0.326-0.862l-0.052-0.192
		l-0.308-0.162l-0.345-0.871l0.001-0.396l-0.373-1.896l-0.592-2.396l-0.023-0.924l-0.501-0.1L33.554,24.5l-0.291,0.769l-0.164,0.959
		l-0.188-0.281l-0.004-0.307l-0.099-0.391L32.897,24.96L32.897,24.96z M36.168,38.892l-0.112,0.153l0.188,0.019l-0.054,0.389
		l0.168,0.219l0.453-0.753l-0.279-0.187l-0.311-0.074l-0.166,0.06l0.074-0.266l0.229-0.531l-0.116-0.144l-0.479,0.721l0.309,0.175
		L36.168,38.892L36.168,38.892z M35.166,38.196l-0.038,0.338l0.087,0.029l0.029-0.1l-0.115-0.281l0.042-0.17L35.166,38.196
		L35.166,38.196z M36.944,36.022l-0.127,0.133l0.063,0.181l0.093,0.041l0.031-0.188l-0.092-0.178l0.107-0.125l-0.064-0.033
		L36.944,36.022L36.944,36.022z M27.151,32.116l0.084-0.273l-0.073-0.193l0.11-0.131l-0.065-0.027l-0.004,0.177l-0.095,0.306
		l0.08,0.159l-0.121,0.271l-0.148,0.128l-0.24,1.108l-0.011,0.514l0.006,0.729l-0.015,0.623l0.074,0.514l0.44,1.803l0.679,1.597
		l0.021,0.399l0.399,0.979l0.15,0.594l0.143-0.906l-0.229-1.112l-0.074-0.613l-0.396-1.392l-0.312-0.887l-0.173-1.226l-0.231-2.567
		l-0.104-0.287L27.151,32.116L27.151,32.116z M33.931,38.517l-0.127,0.225l0.116,0.267l0.14,0.046l-0.156-0.546l0.101-0.13
		l-0.065-0.027L33.931,38.517L33.931,38.517z M31.62,34.937l0.117-0.145l-0.235-0.427l0.146,0.579l-0.123,0.23l0.107,0.272
		l0.082,0.045l0.087-0.108L31.62,34.937L31.62,34.937z M45.217,56.646l-0.142-0.121l-0.035,0.076l0.189,0.008l0.14,0.142
		l0.239,0.183l-0.801,0.035l-0.326-0.197l-0.203,0.207l0.186,0.225l0.094,0.039l1.1,0.045l0.033-0.084l-0.127-0.283l0.319-0.229
		L45.217,56.646L45.217,56.646z M45.089,55.319l-0.138-0.104l-0.022,0.072l0.168,0.009l0.092,0.278l0.196,0.101l0.204,0.021
		l-0.04-0.271L45.089,55.319L45.089,55.319z M41.433,42.97l-0.113,0.225l0.266,0.621l-0.109,0.231l0.174,0.433l-0.104,0.158
		l0.056,0.824l-0.082,1.604l-0.351,1.574l-0.347,1.83l-0.359,1.547l0.1,0.793l0.211,0.588l0.389,0.597l0.031-0.076l-0.217-0.743
		l0.064-1.429l0.393-1.486l0.396-1.507l0.122-0.716l-0.091-2.582l-0.25-0.986l0.117-0.228l-0.185-0.438l0.106-0.229l-0.256-0.614
		l0.07-0.068l-0.181-0.51l-0.093,0.161L41.433,42.97L41.433,42.97z M37.562,23.593l-0.141-0.109l-0.021,0.076l0.177-0.004
		l0.547,0.445l0.087-0.036l0.178,0.396l1.479,1.373l0.392,0.521l0.206-0.092l0.107-0.374l-0.398-0.064l-1.538-1.527l-0.334-0.223
		l-0.1,0.021L37.562,23.593L37.562,23.593z M43.933,58.334l0.147,0.131l0.021-0.086l-0.183-0.007l-0.489-0.876l-0.044,0.218
		l0.363,0.59L43.933,58.334L43.933,58.334z M36.498,37.146l0.028-0.396l-0.289,0.16l0.18,0.205l0.102-0.012l-0.045,0.399l0.209,0.16
		l0.186-0.574L36.498,37.146L36.498,37.146z M45.229,58.674l0.237,0.126l0.112-0.143l-0.083-0.036l-0.28,0.09l-0.525-0.472
		l-0.271-0.057l0.018,0.213l0.504,0.359L45.229,58.674L45.229,58.674z M41.466,24.572l0.332,0.505l-0.156-0.462l-0.188-0.015
		l-0.301-0.638l-0.37-0.181l-0.009,0.287l0.596,0.525L41.466,24.572L41.466,24.572z M36.292,27.368l-0.096,0.029l-0.198,0.384
		l0.344,0.718l-0.399,0.043l-0.077-0.062l-0.536-1.192l0.023-0.41l-0.369-0.815l-0.088-0.056l-0.051,0.15l0.242,0.636l-0.02,0.366
		l0.896,1.999l0.091,0.066l0.243-0.738l0.125-0.461l-0.159-0.664l0.074-0.064l-0.283-0.686l-0.01,0.199L36.292,27.368L36.292,27.368
		z M41.592,30.053l-0.222-0.301l0.238,0.261l0.744,1.564l0.08,0.062l0.006-0.187l-0.541-1.213l-0.121-0.158L41.592,30.053
		L41.592,30.053z M43.351,58.621l-0.144-0.11l-0.03,0.076l0.184,0.01l0.31,0.629l0.479,0.361l0.168-0.109l-0.488-0.719l-0.29-0.16
		L43.351,58.621L43.351,58.621z M41.64,58.901l0.312,0.211l-0.055,0.615l0.037,0.553l-0.185,0.287l0.36,0.576l0.231-0.455
		l-0.013-0.683l-0.146-0.538l0.004-0.13l0.23-0.655l-0.594-0.724l-0.256,0.737l0.097,0.215l-0.11,0.146l0.076,0.029L41.64,58.901
		L41.64,58.901z M29.962,38.899l0.089-0.047l0.292-0.867l0.008-0.247l-0.232-0.523l0.088-0.053l0.242-0.649l-0.225-1.257
		l-0.149-1.204l-0.099-0.218l-0.287-0.673L29.56,32.45l-0.199-0.699l-0.067-0.932l0.146-1.656l0.06-1.425l-0.196,0.026l-1.13,1.495
		l-0.188,0.481L27.7,30.955l-0.032,0.31l-0.176,1.022l-0.017,1.13l0.045,0.617l0.061,0.615l0.044,0.514l0.138,0.712l0.217,0.69
		l0.033,0.455l0.205,0.545l0.159,0.494l0.226,0.904l0.041,0.202l0.067,0.509l0.153,0.569l0.207-0.171l-0.045-0.926l-0.08-0.924
		l-0.314-1.199l-0.283-0.809l-0.097-0.801l0.097-0.17l0.229,0.234l0.167,0.775l0.195,0.901l0.078,0.584l0.235,0.651l0.12,0.767
		l-0.008,0.928l0.229,0.112l0.12-0.053l0.318-1.063L29.962,38.899L29.962,38.899z M28.284,10.534l-0.279-0.625l-0.34-0.264
		l-0.887-1.203l0.355,0.974l0.496,0.542l0.479,0.53l0.188,0.01l0.495,1.108l0.498,0.578l0.495,0.657l0.412,0.464l0.444,0.828
		l0.652,1.056l0.152,0.338l0.352,0.325l1.696,3.798l0.021,0.431l0.653,1.598l-0.003,0.383l0.322,0.866l0.022,0.408l0.164,0.909
		l0.14,0.091l0.264-0.489l-0.332-0.496l-0.001-0.375l-0.229-0.619l0.004-0.394l-0.389-1.021l-0.021-0.446l-0.449-1.011l-1.777-4.013
		l-0.84-1.426l-0.871-1.156l-0.208-0.225L29.5,11.981l-0.517-0.646l-0.303-0.418l-0.216-0.353L28.284,10.534L28.284,10.534z
		 M37.761,38.872l-0.104,0.261l0.356,0.86l1.032,2.223l0.269,0.231l0.229,0.2l0.149-0.902l0.023-0.278l0.407,0.867l0.726-0.328
		l0.012-0.075l-0.396-0.087l-0.362-0.753l0.099-0.357l0.417,0.738l0.301,0.064l-0.279-1.111l-0.199,0.023l-0.25,0.324l-0.33-0.643
		l-0.514-0.896l0.164-0.404l-0.146-0.354l-0.331-0.393l-0.372-0.484l-0.495,0.041l0.203-0.352l-0.377-0.744l-0.089,1.096
		l0.455,0.689l-0.004,0.223l-0.231,0.154l-0.181-0.376l-0.146-0.082L37.761,38.872L37.761,38.872z M30.376,31.131l0.27,0.063
		l0.28,1.074l0.236,0.637v0.455l0.401,0.639l-0.018-1.014l0.217,0.302l0.192,0.797l0.144,0.103l0.035-0.102l-0.083-1.344
		l-0.079-0.819l0.064-0.047l0.359,0.302l0.252,0.773l0.447,0.697l0.336,0.422l-0.115-0.704l0.018-0.728l-0.009-0.521l-0.152-0.814
		l-0.164-0.491l-0.297-0.778l-0.274-0.994l-0.244-1.004l-0.146-0.47l0.086-1.692l0.117-0.608l-0.163-0.179l-0.441,0.257
		l-1.323,1.307l-0.035,0.304l-0.245,0.321l-0.287,1.523l-0.092,1.034l-0.043,1.343l0.275,0.883l-0.11,0.135l0.108,0.377l0.084,0.048
		l0.08-0.112l-0.188-0.454l0.085-0.057l0.03-0.707l-0.012-1.241l0.24-0.104l0.021,0.822l0.17,0.381l-0.082,0.061L30.3,31.912
		l0.092,0.821l0.154,0.914l0.182,0.805l0.062,0.408l0.223,1.317l0.016,0.938l0.09,0.048l0.173-0.457l-0.052-1.135l-0.111-1.23
		l-0.089-0.402l-0.147-0.707l-0.082-0.297l-0.25-1.008L30.376,31.131L30.376,31.131z M42.206,61.519l0.848,0.152l0.941-0.038
		l0.604,0.214l1.232,0.938l0.158-0.211l-0.453-1.086l-0.288-0.207l-0.217-0.421l-0.091-0.098l-0.81-0.339l-0.733-0.017l-0.307,0.16
		L42.206,61.519L42.206,61.519z M44.333,55.054l0.311-0.234l0.325-0.238l-0.918-0.363l-0.432,0.312l0.442,0.979l0.557,0.643
		l0.221-0.051l-0.262-0.852L44.333,55.054L44.333,55.054z M43.606,59.744L42.7,58.985l-0.121,0.175l0.102,1.005l0.151,0.062
		l0.678-0.305L43.606,59.744L43.606,59.744z M40.026,24.181v0.254l0.759,0.82l0.375,0.336l0.28-0.088l0.053-0.148l-0.301-0.053
		L40.026,24.181L40.026,24.181z M42.501,33.08l-0.557-0.706l-0.133-0.011l0.94,2.013L42.501,33.08L42.501,33.08z M35.776,39.996
		l-0.194,0.639l0.269,0.386l0.338-0.938L35.776,39.996L35.776,39.996z M39.935,33.565l-0.527-0.594l-0.074-0.021l0.451,1.019
		L39.935,33.565L39.935,33.565z M36.062,37.238l-0.58-0.058l0.158,0.569l0.164,0.077l0.297-0.371L36.062,37.238L36.062,37.238z
		 M39.005,24.001l0.01-0.162l-0.623-0.488l-0.146,0.059l0.017,0.091L39.005,24.001L39.005,24.001z M39.79,23.69l-0.021-0.297
		l-0.316-0.112l-0.28,0.168l0.14,0.247L39.79,23.69L39.79,23.69z M36.083,30.058l-0.309-0.684l-0.086-0.052l-0.061,0.13l0.118,0.389
		l0.073,0.493l0.143,0.069L36.083,30.058L36.083,30.058z M33.586,32.918l0.087,0.39l0.02,0.198l-0.004,0.304l0.069,0.188
		l0.156,0.099l0.007-0.601L33.586,32.918L33.586,32.918z M38.562,33.751l-0.129,0.248l0.002,0.203l0.33,0.624l0.127-0.007
		l-0.24-0.993L38.562,33.751L38.562,33.751z M35.61,42.063l0.082-0.592l-0.311-0.326l-0.092,0.387L35.61,42.063L35.61,42.063z
		 M42.626,56.229l0.35,0.842l0.178-0.006l0.068-0.168l-0.035-0.095L42.626,56.229L42.626,56.229z M42.14,57.638l0.062,0.34
		l0.548,0.575L42.595,58L42.14,57.638L42.14,57.638z M44.124,30.004l-0.176-0.026l-0.04,0.395l-0.079,0.375l0.273-0.064l0.119-0.365
		L44.124,30.004L44.124,30.004z M42.394,30.54l-0.428-1.02l-0.047,0.019l-0.016,0.099L42.394,30.54L42.394,30.54z M41.53,23.938
		l-0.031,0.103l0.6,0.69l-0.289-0.729L41.53,23.938L41.53,23.938z M36.582,24.595l-0.569-0.24l-0.201,0.023l0.023,0.212l0.421,0.129
		l0.202,0.015L36.582,24.595L36.582,24.595z M45.208,59.664l0.521,0.646l0.16,0.039l0.02-0.101L45.712,59.8L45.208,59.664
		L45.208,59.664z M35.759,25.908l0.035-0.498l-0.35-0.142L35.759,25.908L35.759,25.908z M33.517,30.769l0.379,0.812l0.021-0.102
		l-0.324-0.713L33.517,30.769L33.517,30.769z M40.567,39.274l-0.006,0.101l0.266,0.658l0.078,0.063l0.053-0.119L40.567,39.274
		L40.567,39.274z M41.331,38.883l0.384,0.904L41.331,38.883L41.331,38.883z M43.416,54.788l-0.246,0.078l0.265,0.439l0.094-0.024
		l0.009-0.157l-0.115-0.141L43.416,54.788L43.416,54.788z M43.562,56.487l-0.287-0.646l-0.114-0.057l-0.089,0.14l0.281,0.629
		l0.181,0.028L43.562,56.487L43.562,56.487z M43.806,55.748l-0.039,0.097l0.352,0.697l0.1-0.115L43.806,55.748L43.806,55.748z
		 M43.086,58.069l-0.45-0.869L43.086,58.069L43.086,58.069z M34.524,33.466l-0.021,0.398l0.238,0.094L34.524,33.466L34.524,33.466z
		 M41.015,32.386l0.18,0.042l-0.006-0.194l-0.174-0.366l-0.139-0.04l-0.023,0.097L41.015,32.386L41.015,32.386z M34.507,39.882
		l-0.203,0.496l0.127,0.135l0.062-0.045L34.507,39.882L34.507,39.882z M41.394,28.815l0.101,0.381l0.085,0.057l0.053-0.137
		L41.394,28.815L41.394,28.815z M39.646,31.069l0.111-0.271l-0.104-0.111l-0.082,0.052L39.646,31.069L39.646,31.069z M40.521,32.5
		l-0.088-0.374l-0.084-0.054l-0.057,0.137L40.521,32.5L40.521,32.5z M43.41,31.267l-0.19-0.312l-0.098,0.031l0.003,0.16
		L43.41,31.267L43.41,31.267z M32.554,40.372l0.202,0.384L32.554,40.372L32.554,40.372z M35.211,42.149l0.056,0.379l0.144,0.037
		l0.021-0.098L35.211,42.149L35.211,42.149z M42.894,55.288l-0.074-0.357L42.7,54.884l-0.014,0.094L42.894,55.288L42.894,55.288z
		 M45.958,55.021l0.336,0.166l-0.117-0.277L45.958,55.021L45.958,55.021z M43.629,56.918l0.17,0.295l0.158-0.079l-0.056-0.143
		L43.629,56.918L43.629,56.918z M33.589,30.344l-0.007-0.187l-0.114-0.047l-0.001,0.091L33.589,30.344L33.589,30.344z
		 M30.089,33.254l0.02-0.098l-0.037-0.093l-0.076-0.055l-0.031,0.133L30.089,33.254L30.089,33.254z M41.089,31.019l-0.039-0.084
		l-0.064-0.061l-0.057,0.002l0.018,0.172l0.128,0.062L41.089,31.019L41.089,31.019z M39.753,32.331l-0.014,0.098l0.111,0.141
		l0.012-0.146L39.753,32.331L39.753,32.331z M34.159,39.612l-0.038-0.082l-0.125-0.055l0.015,0.176l0.129,0.058L34.159,39.612
		L34.159,39.612z M37.194,38.97l0.014,0.187l0.091,0.034l0.028-0.168l-0.062-0.063L37.194,38.97L37.194,38.97z M34.051,40.988
		L34,40.917l-0.067-0.021l0.008,0.172l0.074,0.045L34.051,40.988L34.051,40.988z M41.19,40.544l-0.051-0.072l-0.064-0.027
		l0.021,0.178l0.067,0.05L41.19,40.544L41.19,40.544z M36.399,43.151l-0.047-0.072l-0.067-0.021l0.012,0.17l0.071,0.047
		L36.399,43.151L36.399,43.151z M36.36,44.2l0.023-0.09l-0.104-0.131l-0.047,0.035l0.057,0.16L36.36,44.2L36.36,44.2z
		 M42.258,56.442l-0.017,0.098l0.037,0.095l0.086,0.048l0.021-0.156L42.258,56.442L42.258,56.442z M44.954,59.083l-0.071,0.049
		l-0.019,0.071l0.175-0.013l0.044-0.07L44.954,59.083L44.954,59.083z M34.794,25.319v0.089l0.055-0.019L34.794,25.319L34.794,25.319
		z M38.627,25.677l-0.002,0.084l0.054-0.018L38.627,25.677L38.627,25.677z M39.128,26.202l-0.061-0.016l0.017,0.06L39.128,26.202
		L39.128,26.202z M42.472,25.163l0.066,0.021l-0.025-0.082L42.472,25.163L42.472,25.163z M41,26.291l-0.06-0.011l0.014,0.05
		L41,26.291L41,26.291z M40.028,28.842l0.007-0.083l-0.062,0.02L40.028,28.842L40.028,28.842z M39.597,29.955l0.029-0.07
		l-0.062-0.047l-0.021,0.074L39.597,29.955L39.597,29.955z M34.545,32.844l-0.099,0.034l0.072,0.051L34.545,32.844L34.545,32.844z
		 M37.972,31.312l-0.07-0.018l0.021,0.071L37.972,31.312L37.972,31.312z M37.933,31.847l0.002-0.084l-0.056,0.02L37.933,31.847
		L37.933,31.847z M42.746,30.271l-0.009,0.076l0.062-0.019L42.746,30.271L42.746,30.271z M34.392,34.517l-0.088-0.024l0.043,0.11
		L34.392,34.517L34.392,34.517z M31.899,35.792l-0.008,0.084l0.065-0.021L31.899,35.792L31.899,35.792z M36.437,34.526l-0.094,0.031
		l0.067,0.045L36.437,34.526L36.437,34.526z M39.685,34.753l0.029-0.083l-0.074-0.048l-0.021,0.084L39.685,34.753L39.685,34.753z
		 M33.672,37.808l0.063,0.018l-0.021-0.067L33.672,37.808L33.672,37.808z M34.571,38.709l-0.023,0.085l0.107-0.039L34.571,38.709
		L34.571,38.709z M35.206,40.631l0.029-0.071l-0.067-0.037l-0.026,0.07L35.206,40.631L35.206,40.631z M36.619,40.216l0.012-0.072
		l-0.062,0.02L36.619,40.216L36.619,40.216z M36.035,41.97l-0.009,0.076l0.062-0.021L36.035,41.97L36.035,41.97z M35.944,42.813
		l0.008-0.075l-0.059,0.017L35.944,42.813L35.944,42.813z M36.745,43.033l-0.002,0.081l0.055-0.018L36.745,43.033L36.745,43.033z
		 M43.47,54.075l0.07,0.01l-0.016-0.057L43.47,54.075L43.47,54.075z M42.013,55.214l-0.076-0.044l-0.028,0.079l0.069,0.044
		L42.013,55.214L42.013,55.214z M42.015,55.836l-0.009,0.071l0.058-0.016L42.015,55.836L42.015,55.836z"/>
	<polygon fill="#232734" points="30.146,37.226 29.871,37.485 29.56,37.005 29.671,36.753 29.612,36.146 29.537,35.421 
		29.062,34.526 29.034,34.651 29.181,35.142 29.215,35.647 29.327,36.146 29.597,37.017 29.49,37.16 29.729,38.34 29.962,38.899 
		29.554,38.919 29.362,38.024 29.22,37.211 29.155,36.597 29.048,35.985 28.938,35.588 28.836,34.978 28.724,34.581 28.675,34.062 
		28.315,33.2 28.274,32.819 28.354,33.213 28.246,33.358 28.342,34.248 28.44,35.039 28.333,35.29 28.069,34.19 27.961,33.269 
		27.97,32.854 27.994,32.755 28.242,31.712 28.392,31.812 28.511,32.097 28.702,33.214 28.962,34.087 29.435,34.354 29.54,34.832 
		29.699,35.218 29.819,35.827 29.958,36.433 30.005,36.946 	"/>
	<polygon fill="#232734" points="41.332,58.151 41.226,58.429 41.092,58.565 40.955,59.36 41.164,59.83 41.06,60.063 41.313,60.681 
		41.207,60.912 41.377,61.339 41.079,61.431 40.935,61.306 40.847,60.488 40.573,59.606 40.679,59.301 40.595,59.14 40.708,58.926 
		40.612,58.67 40.885,58.274 41.256,57.356 41.332,57.336 41.403,57.394 41.45,57.581 41.437,57.876 	"/>
	<polygon fill="#232734" points="40.479,58.3 40.384,58.021 40.745,56.95 40.881,56.847 40.987,57.024 40.577,58.149 40.444,58.289 
			"/>
	<polygon fill="#232734" points="39.881,56.961 39.879,56.769 40.672,55.716 40.869,55.714 40.75,55.999 40.03,56.863 39.849,56.95 
			"/>
	<polygon fill="#232734" points="39.667,57.515 39.881,56.961 39.849,56.95 39.64,57.504 	"/>
	<polygon fill="#232734" points="40.653,58.685 40.433,58.784 40.362,58.606 40.479,58.3 40.444,58.289 	"/>
	<polygon fill="#232734" points="39.563,57.789 39.667,57.515 39.64,57.504 39.524,57.776 	"/>
	<polygon fill="#232734" points="39.524,57.776 39.419,58.058 39.453,58.069 39.563,57.789 	"/>
	<polygon fill="#232734" points="37.726,38.854 38.136,38.671 38.204,39.185 38.308,39.562 38.808,39.892 38.649,39.267 
		38.847,39.088 39.287,39.88 39.258,40 38.938,40.255 38.856,40.549 38.696,40.657 38.608,40.62 38.435,40.367 	"/>
	<polygon fill="#232734" points="36.228,39.103 36.129,38.88 36.544,38.696 	"/>
</g>
</svg>
