<?xml version="1.0" encoding="utf-8"?>
<!-- Generator: Adobe Illustrator 15.0.2, SVG Export Plug-In . SVG Version: 6.00 Build 0)  -->
<!DOCTYPE svg PUBLIC "-//W3C//DTD SVG 1.1//EN" "http://www.w3.org/Graphics/SVG/1.1/DTD/svg11.dtd">
<svg version="1.1" id="Layer_1" xmlns="http://www.w3.org/2000/svg" xmlns:xlink="http://www.w3.org/1999/xlink" x="0px" y="0px"
	 width="54.333px" height="54.333px" viewBox="0 0 54.333 54.333" enable-background="new 0 0 54.333 54.333" xml:space="preserve">
<g id="ramita1">
	<path fill="#232734" d="M24.705,31.386v-0.989l0.253-0.973l0.259-0.848l0.447-0.913l0.404-0.938l0.479-0.381l0.992-0.271
		l1.084,0.966l0.116,1.023l-0.132,0.403l0.072,0.997l-0.362,1.48l-0.125,1.443l-0.213,0.815l-0.277,0.969l-0.153,0.859l0.541,0.174
		l0.864-0.535l0.399-0.283l0.86-0.953l1.233-1.294l1.583-2.301l0.76-2.153l0.079-0.628l0.004-1.728l-0.234-0.922l-0.052-0.752
		l-0.678-1.452l-0.084-0.584L32.42,21.03l-0.391-1.25l-0.347-1.328l0.082-0.376l-0.221-1.248l-0.184-0.532v-2.283l0.453-1.387
		l0.002-0.926l0.223-1.247l0.082-0.638l1.875-2.884l0.842-0.585l1.506-0.084l0.584,0.029l1.678,1.34l0.287,1.018l0.111,0.62
		l0.029,1.484l0.945,0.241l0.457,0.284l0.308,0.574l-0.077,0.896l-1.52,2.547l-0.814,2.174l0.086,0.24l-0.09,0.239l-0.068,1.901
		l0.207,0.533l0.07,1.228l0.072,0.499l0.041,1.509l-0.004,0.489l-0.121,0.354l-0.006,0.368l0.354,0.594l1.263,0.14l0.293,0.237
		l0.344,1.025l-0.48,1.327l-0.58,1.118l-1.16,1.37l-1.01,1.151l-0.388,0.49l-1.087,0.877l-0.807,0.617l-1.578,1.08l-0.332,0.524
		l0.686,0.929l-0.146,0.575l-0.047,0.481l-0.229,0.34l-1.625,1.627l-0.31,0.224l-1.449,0.78l-0.707,0.283l-1.526,0.623l-1.061,0.41
		l-2.037,0.705l-2.632,1.204l-1.487,0.981l-0.557,0.304l-2.01,0.833l-0.612,0.064l-2.783,0.197L14.57,45.9l-1.282-0.203
		l-0.146-0.312l-0.207-0.73l0.044-0.312l0.536-0.176l0.904-0.705h1.103l1.223-0.039h0.844l2.995-1.188l2.018-1.947l0.718-1.045
		l0.61-1.394l0.963-2.651l0.013-3.037L24.705,31.386L24.705,31.386z M26.703,33.162l0.262-0.25l0.496,0.195l-0.092-0.857
		l-0.377,0.689l-0.252,0.258l-0.265,0.256l-0.732,0.393l0.076,0.566l0.622-0.651v-0.343L26.703,33.162L26.703,33.162z
		 M38.482,29.836l0.189-0.1l-0.074-0.059l-0.078,0.195l-0.264,0.26l-0.359,0.018l-0.627,0.441l-0.49-0.077l0.176-0.153l1.723-1.311
		l1.154-1.188l0.191-0.461l-0.191-0.247l-3.493,2.919l-0.284-0.154l0.939-0.842l1.223-0.91l0.098-0.082l1.252-1.277l0.078-0.201
		l-0.235-0.022l-1.343,0.966l-0.428,0.269l-1.24,0.887l-0.219,0.109h-0.258l0.026,0.027l0.006-0.125l0.933-0.852l0.711-0.528
		l0.814-0.601l0.062-0.228l0.188-0.079l-0.055-0.071l-0.102,0.185h-0.895l-0.557,0.425l-0.347,0.077l-0.019-0.017l0.149-0.462
		l0.583-0.971l0.018-0.124l-0.149-0.15l-0.492,0.373l-0.362,0.052l0.02,0.02l-0.002-0.125l0.413-0.47L37.953,24l-0.129-1.252
		l-0.713,0.671l-0.354-0.095l0.687-0.749l0.49-0.875l-0.092-0.206l-0.855,0.551l-0.233,0.084l-0.243-0.086l1.213-1.271L37.554,20.2
		l-1.529,1.281l-0.258,0.724l-0.135,0.877l-0.16,0.478l-0.322,1.738l-0.174,0.863l-0.535,1.955l-0.1,0.364l-1.295,2.513
		l-1.074,1.224l-0.897,1.066l-1.459,1.684l-1.512,1.055l-0.917,0.686l-0.229,0.08l-0.087-0.688l-0.421,0.654l-0.222,0.095
		L25.1,38.019l-0.163-0.175l0.09-0.229l1.737-2.021l0.149-0.341l-0.107-0.174l-1.213,1.101l-0.486,0.125l-0.089,0.101l-0.56,1.533
		L23.9,39.475l0.02,0.125l-0.206,0.084l0.057,0.084l0.117-0.2l0.335-0.146l1.844-1.907l0.411-0.253l-0.059,0.381l-2.706,2.672
		l-0.424,0.105l-0.21,0.279l-1.167,1.205l-0.888,0.656l-0.922,0.678l-0.918,0.416l-0.849,0.238l-0.859,0.271l-1.516,0.051
		l-1.532-0.006l-0.253,0.082l-0.205,0.285l0.425,0.625h1.565l0.416-0.146l0.88,0.12l0.604-0.186l0.593-0.218l0.622-0.116l0.889-0.49
		l0.721-0.295l0.582-0.461l1.636-1.416l1.804-1.807l0.228-0.083l-0.024-0.024l-0.014,0.36l-1.413,1.499l0.123,0.178l0.647-0.305
		l1.6-1.613l0.09,0.219l-0.465,0.59l-0.153,0.29l0.583-0.054l0.252-0.283l0.895-1.059l0.09,0.016l0.053,0.107l-0.356,0.789
		l0.358,0.021l1.293-0.514l1.259-0.592l0.688-0.322l1.318-0.707l0.166-0.625l1.17-1.185l0.225-0.3l-0.078-0.241l-0.312,0.181
		l-0.479,0.42l-0.359,0.066l0.006,0.008l0.117-0.453l0.135-0.32l0.176-0.086l-0.098-0.096l-0.076,0.186l-0.342,0.053l-0.847,0.717
		h-0.347l-0.006-0.007l0.096-0.219l0.626-0.634l0.032-0.236l-0.229-0.299l0.319-0.562l2.122-1.045l1.066-0.688l0.924-0.67
		l1.933-1.858l0.517-0.71L38.482,29.836L38.482,29.836z M27.725,28.551l0.189-0.087l-0.062-0.068l-0.086,0.194l-0.208,0.111
		l0.076,0.072L27.725,28.551L27.725,28.551z M26.451,28.048l0.259-0.257l0.182-0.123l-0.077-0.051l-0.069,0.211l-0.261,0.252
		l-0.268,0.246l-0.123,0.018l-0.316,0.324l-0.109,0.666l-0.24,0.582l0.04,1.269l0.07,0.14l0.29-0.166l0.576-0.67l0.439-0.613
		l0.557-0.653l-0.238-0.08l-0.443,0.2l0.002,0.003l-0.01-0.522l0.26-0.252l0.124-0.016l0.599-0.611l-0.176-0.271l-0.52,0.537
		l-0.016,0.373l-0.256,0.258l-0.418,0.195l-0.336-0.027l0.226-0.697L26.451,28.048L26.451,28.048z M39.249,13.971l0.187-0.082
		l-0.017-0.083l-0.138,0.196l-0.262,0.255l-0.123,0.013l-0.604,0.641l-1.206,1.3l-0.117,0.036l-0.188-0.103l1.097-1.23l0.943-1.192
		l0.972-1.174l0.077-0.102l0.068-0.106l0.041-0.244l-0.334-0.074l-0.287,0.403l-0.438,0.463l-1.676,1.909l-0.481,0.396l-0.232-0.054
		l0.764-1.001l0.88-1.066l-0.388-0.265l-0.576,0.653l-0.547,0.699l-0.225,0.073l0.017,0.015l0.046-0.362l1.162-1.498l0.555-0.843
		l-0.104-0.314l-0.705,0.879l-0.795,0.985l-0.801,0.804l-0.062-0.312l0.646-0.782l0.608-0.81l0.563-0.834l0.754-1.019l0.123-0.24
		l-0.026-0.359l-0.063-0.09L38.002,9.51l-0.784,1.147l-0.656,0.755l-0.125,0.006l0.016,0.014l0.057-0.366l0.717-1.048l0.738-1.179
		l-0.121-0.34l-0.746,0.884l-0.705,0.9l-0.807,0.813l-0.322-0.081l0.785-0.826l0.33-0.386l1.303-1.878L37.523,7.65l-0.23,0.061
		l-0.316,0.39l-0.664,0.752L36.185,8.86l0.014,0.013l0.084-0.469l0.146-0.578l0.264-0.25l0.187-0.077l-0.099-0.094l-0.067,0.192
		l-0.258,0.257l-0.302,0.188l-1.029,1.251l-0.221,0.079l0.012,0.011l0.057-0.362L36.107,7.5l0.076-0.233l-0.065-0.094l-0.101-0.008
		l-0.365,0.342L34.076,9.48l-0.092,0.09l-0.455-0.128L33.22,9.616l-0.383-0.259L33.101,9.1l0.264-0.248l0.499-0.773l0.261-0.257
		l0.188-0.091l-0.066-0.059L34.164,7.86l-0.266,0.253l-0.5,0.774l-0.26,0.25l-0.266,0.255l-0.191,0.134l-0.131,0.742l-0.211,0.987
		l-0.148,0.594l0.115,0.288l-0.181,0.696l-0.063,0.632l-0.068,0.713l-0.006,0.655l-0.062,0.56l0.133,0.746l0.073,1.402l0.075,0.496
		l0.202,0.864l0.198,0.862l0.121,0.359l0.611,0.992l0.065,0.629l0.438,0.89l0.482,1.755l0.137,1.211l0.119,0.096l0.105-1.562
		l0.514-2.766l0.169-0.434l-0.108-1.721l0.104-0.362l-0.354-1.107l-0.287-1.101l-0.121-1.171l-0.433-1.578l0.327-0.34l0.373,0.369
		l0.527,2.085l0.18,0.866l0.205,0.859l0.361,0.287l0.744-0.837l1.235-1.454l0.851-1.252l0.016-0.25L39.249,13.971L39.249,13.971z
		 M34.896,7.569l0.188-0.089l-0.025-0.074l-0.127,0.198l-0.137,0.18L34.896,7.569L34.896,7.569z M26.733,32.178l-0.315,0.187
		l-0.229,0.066l0.052-0.385l1.7-2.351l-0.035-0.24l-0.197,0.074l-0.752,0.852l-1.346,1.31l-0.136,0.459l0.498,0.506l-0.258,0.422
		l0.053,0.352l0.237-0.162l0.675-0.749l0.018-0.377l0.11-0.01l-0.036-0.056L26.733,32.178L26.733,32.178z M26.991,33.967
		l-0.224,0.055l-0.732,0.781l-0.524,0.253l-0.274,0.689l0.121,0.19l1.579-1.616l0.024-0.382l0.182-0.114l-0.071-0.062L26.991,33.967
		L26.991,33.967z M37.625,18.147l-0.629,0.772l-0.781,0.629l-0.181,0.602l-0.073,0.749l0.133,0.146l0.791-0.806l0.723-0.876
		l0.105-0.229L37.625,18.147L37.625,18.147z M36.409,18.223l-0.442,0.219l0.086,0.634l0.243,0.013l0.667-0.738l0.555-0.674
		l0.164-0.189l0.201-0.823l-0.193,0.073l-0.418,0.464L36.409,18.223L36.409,18.223z M27.049,27.172l0.076,0.057l0.012-0.092
		L27.049,27.172L27.049,27.172z M27.603,31.178l-0.052,0.088l0.09,0.007L27.603,31.178L27.603,31.178z"/>
	<polygon fill="#232734" points="36.71,27.047 36.685,27.292 36.628,27.403 35.56,28.258 35.304,28.254 35.234,28.175 
		36.463,27.105 36.693,27.031 	"/>
	<polygon fill="#232734" points="30.818,37.025 30.806,37.147 29.625,38.035 29.341,37.873 30.568,37.031 30.812,37.018 	"/>
	<polygon fill="#232734" points="26.447,38.285 26.447,38.666 25.661,39.498 25.437,39.578 25.442,39.583 25.5,39.226 26.353,38.33 
		26.476,38.315 	"/>
	<polygon fill="#232734" points="30.066,38.572 30.611,37.91 30.734,37.818 31.08,37.798 31.06,37.779 31.048,37.902 30.502,38.417 
		30.027,38.535 	"/>
	<polygon fill="#232734" points="32.091,37.018 32.078,37.141 31.421,37.718 31.06,37.779 31.08,37.798 31.086,37.671 
		31.728,37.076 32.099,37.025 	"/>
	<polygon fill="#232734" points="26.475,36.777 26.998,36.746 26.443,37.3 	"/>
	<polygon fill="#232734" points="35.922,28.817 35.513,28.961 35.949,28.844 	"/>
	<polygon fill="#232734" points="36.437,25.748 36.324,25.942 36.251,25.867 36.457,25.768 	"/>
	<polygon fill="#232734" points="26.476,38.315 26.587,38.113 26.651,38.197 26.447,38.285 	"/>
	<polygon fill="#232734" points="30.027,38.535 29.957,38.716 29.877,38.71 30.066,38.572 	"/>
	<polygon fill="#232734" points="25.195,39.846 25.442,39.583 25.437,39.578 25.175,39.828 	"/>
	<polygon fill="#232734" points="24.938,40.104 25.195,39.846 25.175,39.828 24.914,40.08 	"/>
	<polygon fill="#232734" points="34.904,9.372 34.904,9.606 34.775,9.834 33.919,10.755 33.81,10.814 33.714,10.801 33.665,10.702 
		33.691,10.58 34.792,9.392 34.916,9.383 	"/>
	<polygon fill="#232734" points="36.183,8.86 36.05,9.327 35.636,9.797 35.414,9.88 35.433,9.901 35.541,9.426 36.072,8.886 
		36.197,8.872 	"/>
	<polygon fill="#232734" points="36.437,14.234 36.009,14.987 35.66,14.987 35.697,15.023 36.236,14.339 36.454,14.248 	"/>
	<polygon fill="#232734" points="36.437,11.418 35.925,12.184 35.948,12.206 36.453,11.432 	"/>
	<polygon fill="#232734" points="34.898,10.391 34.837,10.752 34.453,10.779 34.919,10.411 	"/>
	<polygon fill="#232734" points="35.662,12.435 35.616,12.796 35.23,12.826 35.691,12.464 	"/>
	<polygon fill="#232734" points="35.414,9.88 35.156,10.134 35.179,10.158 35.433,9.901 	"/>
	<polygon fill="#232734" points="34.919,10.411 35.179,10.158 35.156,10.134 34.898,10.391 	"/>
	<polygon fill="#232734" points="35.691,12.464 35.948,12.206 35.925,12.184 35.662,12.435 	"/>
	<polygon fill="#232734" points="35.66,14.987 35.56,15.196 35.474,15.126 35.697,15.023 	"/>
	<polygon fill="#232734" points="26.719,29.341 26.513,29.577 26.315,29.485 26.38,29.405 26.721,29.344 	"/>
	<path fill="#232734" d="M26.229,32.391l-0.296,0.299L26.229,32.391z"/>
</g>
</svg>
