<?xml version="1.0" encoding="utf-8"?>
<!-- Generator: Adobe Illustrator 15.0.2, SVG Export Plug-In . SVG Version: 6.00 Build 0)  -->
<!DOCTYPE svg PUBLIC "-//W3C//DTD SVG 1.1//EN" "http://www.w3.org/Graphics/SVG/1.1/DTD/svg11.dtd">
<svg version="1.1" id="Layer_1" xmlns="http://www.w3.org/2000/svg" xmlns:xlink="http://www.w3.org/1999/xlink" x="0px" y="0px"
	 width="39.333px" height="39.333px" viewBox="0 0 39.333 39.333" enable-background="new 0 0 39.333 39.333" xml:space="preserve">
<g id="_x31_">
	<path fill="#232734" d="M14.01,5.292l0.823,1.054l0.867,1.758l0.653,1.563l0.738,2.927l0.012,0.854l0.188,0.516l0.173,3.398
		l-0.021,1.031l-0.215,0.977l0.076,1.713l-0.009,0.495l0.259,1.44l0.145,0.041l1.423-0.279l0.592,0.215l0.815-0.07l1.296,0.055
		l0.759,0.742l1.641,1.271l-0.213,1.881l-0.353,0.594l-0.521,0.328l-0.033,0.197l0.33,0.836l-0.06,0.244l-0.104,0.18l-0.773,0.228
		l-0.021,0.119l0.541,1.237l0.688,1.026l1.421,1.203l0.184,0.494l-0.096,0.293l-0.804,0.196l-0.821,0.121l-0.406-0.039l-0.934-0.075
		l-1.229-0.557l-1.172-0.753l-1.317-0.069l-0.337-0.203l0.299-0.258l-0.443-0.594l0.191,0.016l0.795,0.666l0.268,0.133l0.291-0.103
		l0.15-0.437l-0.487-1.222l-0.052-0.389l-0.219,0.155l0.156,0.49L19.1,31.108l-0.375-0.143l-0.313-0.623l-0.623-0.562l-0.325-0.603
		l-0.547-1.009l-0.088-0.055l-0.174,0.092l-0.106,0.382l-0.187,0.064l-0.127-0.248l0.455-1.16l0.181,0.119l0.601,1.33l0.78,1.141
		l0.333,0.16l0.104-0.546l-0.479-0.642l-0.412-0.789l-0.301-0.278l-0.245-0.726l0.353-0.324L17.612,27l0.582,1.303l0.574,0.642
		l0.188-0.438l-0.13-0.283l-0.188-0.246l-0.322-0.853L17.838,26.1l-0.064-0.043l-0.315-0.008l0.231-0.328l-0.106-0.646l-0.081-0.038
		l-0.385,0.312l-0.827,0.771l-0.536,1.783l-0.104,0.291l-0.068,0.076H15.5l-0.066-0.069l0.019-0.927L15.442,27.3l0.062-0.084
		l0.369-1.065l0.727-0.873l0.471-0.426l0.224-0.476l-0.084-0.399l-0.088-0.358l-1.008,0.489l-0.648,0.445l-0.754,1.174l-0.336,1.795
		l0.011,0.205l0.045,1.754l0.475,0.266l0.248,0.314l0.34-0.105l-0.021,0.719l-0.125,0.25l-0.24-0.008l-0.135,0.376l0.074,0.228
		l0.643-0.254l0.188-0.474l0.189-0.696l0.15-0.123l0.342,0.187l0.637,0.498l0.712,0.631l0.19,0.354l-0.55-0.195l-0.212-0.098
		l0.123,0.367l0.613,0.522l0.171,0.249l-0.201,0.005l-0.481-0.194l-0.629-0.697l-0.389-0.701l-0.18,0.021l-0.606,0.713l-0.237,0.199
		l-0.274,0.126l-0.522-0.158l-0.354-1.148l-0.058-0.195l-0.238-1.314l-0.045-2.076l0.002-0.312l0.15-0.838l0.776-1.271l0.453-0.515
		l0.795-0.431l0.229-0.255l0.623-0.312l0.077-0.209l-0.132-1.656l-0.184-1.889l0.271-1.082l0.027-0.72l-0.015-0.624l-0.016-0.308
		l-0.178-1.127l0.102-0.406l-0.146-1.445l-0.303-1.417l-0.156-0.814L16.25,10.73l-0.081-0.301L15.971,9.5l-0.268-0.315l-0.485-1.226
		l-0.308-0.506l-0.321-0.531l-0.428-0.584l-0.371-0.641l-0.367-0.273 M24.839,33.409l0.13,0.104L25,33.444l-0.17-0.01l-0.123-0.123
		l-0.042,0.116L24.839,33.409L24.839,33.409z M21.288,33.153l0.141,0.127l0.026-0.077l-0.181-0.011l-0.14-0.125l-0.032,0.078
		L21.288,33.153L21.288,33.153z M22.827,25.817l0.115,0.11l0.055-0.03l-0.182-0.049l-0.274-0.109l-0.278-0.104l-0.279-0.101
		l-0.033-0.398l0.767,0.243l0.154-0.356l-0.729-0.319l-0.301-0.292l-1.124-0.381l-0.272,0.113l-0.088,0.17l0.254,0.533L21.216,25
		l0.009,0.149l-0.627,0.146l0.268,0.617l0.185,0.095l0.356-0.194l0.113-0.289l0.479-0.026l0.277,0.104l0.272,0.114L22.827,25.817
		L22.827,25.817z M19.157,24.276l-0.107,0.151l0.227,0.396l-0.155-0.562l0.112-0.121L19.169,24.1L19.157,24.276L19.157,24.276z
		 M23.797,33.637l0.33,0.043l0.023-0.08l-0.092-0.031l-0.275,0.113l-0.473-0.229l-0.459,0.181l-0.315-0.305l-0.19-0.006
		l-0.312-0.215l-0.097,0.012l-0.69-1.128l0.039-0.388l-0.377-0.488l-0.17,0.203l0.461,1.049l0.198,0.178l0.373,0.539l0.184,0.003
		l-0.062,0.399l0.756,0.215l0.211-0.096l0.065,0.074L23.797,33.637L23.797,33.637z M20.283,30.889l-0.104,0.248l0.51,1.124
		l0.221,0.22l-0.666-1.604l0.104-0.255l-0.207-0.312l-0.06,0.139L20.283,30.889L20.283,30.889z M22.321,24.244l-0.08-0.183
		l-0.365-0.004l0.464,0.145l0.911,0.585l0.277,0.026l0.193,0.758l0.084,0.035l0.178-0.209l-0.215-0.472l-0.256-0.075l-0.08-0.187
		l-0.836-0.544L22.321,24.244L22.321,24.244z M18.227,24.21l0.236,0.626l0.28,0.03l0.086-0.173l-0.111-0.596l0.12-0.158l0.559-0.26
		l0.283-0.217l-1.353,0.057l-0.104,0.061L18.227,24.21L18.227,24.21z M18.555,25.274l-0.007,0.113l0.427,1.059l0.174,0.068
		l0.012-0.619l-0.329-0.566L18.555,25.274L18.555,25.274z M21.891,28.858l-0.522-1.066l-0.079-0.066l-0.154,0.84l0.381,0.071
		l0.197,0.278l0.139,0.076L21.891,28.858L21.891,28.858z M20.455,26.63l0.267,0.491l0.346,0.127l-0.375-0.543l0.06-0.316
		l-0.163-0.199L20.455,26.63L20.455,26.63z M19.789,26.264l-0.388-0.674l-0.026,0.082l0.14,0.496l0.076,0.495l0.083,0.034
		L19.789,26.264L19.789,26.264z M20.6,23.305l0.799,0.092l-0.026-0.179l-0.603-0.104L20.6,23.305L20.6,23.305z M21.625,27.012
		l-0.068-0.474l-0.267-0.115l-0.161,0.048l0.041,0.187L21.625,27.012L21.625,27.012z M19.569,27.524l0.195-0.189l-0.432-0.336
		L19.569,27.524L19.569,27.524z M21.827,25.865l0.031,0.293l0.371,0.135l-0.043-0.261L21.827,25.865L21.827,25.865z M20.145,28.825
		l-0.168-0.647l-0.16-0.02l-0.025,0.092l0.193,0.463L20.145,28.825L20.145,28.825z M19.167,29.401l0.294-0.195l-0.117-0.139
		l-0.204,0.146L19.167,29.401L19.167,29.401z M20.639,29.485l0.024-0.172l-0.333-0.209l-0.074,0.023l-0.016,0.098L20.639,29.485
		L20.639,29.485z M20.012,31.612l-0.254-0.637l-0.043,0.023L20.012,31.612L20.012,31.612z M20.793,29.819l0.096,0.246l0.23-0.116
		L20.793,29.819L20.793,29.819z M22.52,29.055l0.373-0.051l0.027-0.15l-0.094-0.027L22.52,29.055L22.52,29.055z M21.827,32.297
		l0.091,0.172L22,32.516l0.064-0.127l-0.07-0.179l-0.139-0.126L21.827,32.297L21.827,32.297z M20.37,25.579l-0.055-0.081
		l-0.074-0.032l-0.018,0.098l0.116,0.146L20.37,25.579L20.37,25.579z M20.811,27.742l-0.086-0.021l-0.086,0.026l-0.029,0.084
		l0.142,0.033L20.811,27.742L20.811,27.742z M23.266,26.822l-0.072,0.048l-0.008,0.076l0.182-0.002l0.04-0.077L23.266,26.822
		L23.266,26.822z M19.75,29.789l-0.136-0.132l-0.019,0.162l0.131,0.061L19.75,29.789L19.75,29.789z M22.821,28.438l-0.188-0.139
		l-0.033,0.09l0.123,0.142l0.066-0.003L22.821,28.438L22.821,28.438z M23.908,32.467l-0.056-0.068l-0.065-0.021l-0.022,0.085
		l0.113,0.124L23.908,32.467L23.908,32.467z M22.895,33.02l0.063,0.021l-0.021-0.071L22.895,33.02L22.895,33.02z"/>
	<polygon fill="#232734" points="17.079,29.34 17.324,29.524 17.434,29.692 17.95,30.448 19.083,31.637 18.975,31.891 
		17.184,30.147 16.696,29.045 16.719,28.854 	"/>
	<polygon fill="#232734" points="15.451,27.282 15.096,27.33 15.442,27.307 	"/>
</g>
</svg>
