<?xml version="1.0" encoding="utf-8"?>
<!-- Generator: Adobe Illustrator 15.0.2, SVG Export Plug-In . SVG Version: 6.00 Build 0)  -->
<!DOCTYPE svg PUBLIC "-//W3C//DTD SVG 1.1//EN" "http://www.w3.org/Graphics/SVG/1.1/DTD/svg11.dtd">
<svg version="1.1" id="Layer_1" xmlns="http://www.w3.org/2000/svg" xmlns:xlink="http://www.w3.org/1999/xlink" x="0px" y="0px"
	 width="141.333px" height="141.333px" viewBox="0 0 141.333 141.333" enable-background="new 0 0 141.333 141.333"
	 xml:space="preserve">
<g id="carrot1">
	<path fill="#232734" d="M125.269,133.254l0.119,0.587l-0.969-0.104l-2.878-0.576l-0.919-0.301l-0.8-0.246l-0.673-0.181
		l-0.814-0.224l-1.353-0.708l-0.438-0.068l-1.611-0.625l-1.164-0.666l-0.51-0.226l-1.028-0.433l-1.931-1.088l-0.51-0.092
		l-7.218-4.445l-0.229-0.298l-0.466-0.173l-1.194-0.73l-0.35-0.436l-0.438-0.12l-0.892-0.574l-0.401-0.36l-0.826-0.536l-1.073-0.896
		l-0.773-0.595l-0.566-0.628l-0.337-0.238l-1.176-0.985l-0.548-0.433l-1.518-1.225l-1.214-0.85l-0.792-0.63l-0.231-0.112
		l-0.634-0.541l-0.837-0.738l-1.043-0.82l-0.284-0.396l-0.948-0.829l-0.867-0.903l-1.68-1.473l-0.676-0.701l-0.758-0.807
		l-0.772-0.801l-0.81-0.953l-0.627-0.747l-0.583-0.598l-1.658-1.883l-1.362-1.586l-0.875-0.896l-2.328-2.772l-0.569-0.797
		l-0.519-0.65l-0.553-0.624l-0.563-0.612l-0.203-0.19l-1.065-1.282l-1.017-1.325l-0.484-0.501l-0.699-0.679l-0.192-0.198
		l-1.37-1.382l-0.283-0.306l-0.733-0.841l-0.232-0.35l-1.073-1.274l-0.905-1.235l-0.523-0.651l-0.379-0.589l-0.547-0.635
		l-1.209-1.889l-0.899-1.24l-0.809-1.137l-0.967-1.193l-0.585-0.784l-0.894-1.247l-1.025-1.5l-1.031-1.315l-2.722-3.899
		l-0.674-1.101l-0.593-0.502l-1.369-2.142l-0.8-1.143l-0.097-0.1l-1.255-2.346l-0.537-0.982l-0.454-1.021l-0.499-0.998l-2.902-6.364
		l-1.049-2.44l-1.13-3.758l-0.433-1.775l-0.338-1.366l-0.163-0.847l0.215-2.127l0.433-0.858l-0.027-0.809l0.348-1.028l0.412-0.403
		l0.11-0.252l-0.014-0.14l-0.825-1.119l-0.804-0.964l-0.67-0.707l-0.586-0.595l-1.327-1.239L34.81,30.29l-0.908-0.663l-0.393-0.396
		l-1.149-1.217l-0.644-0.92l-0.779-0.593l-0.862-0.907l-0.247-0.338l-1.085-1.078l-0.982-0.995l-0.788-0.974l-0.867-1.085
		l-0.83-1.118l-1.895-2.413l-0.968-1.19l-0.91-1.055l-1.147-1.579l-0.684-0.878l-0.656-0.717l-2.033-2.651l-0.47-0.553l-0.448-1.146
		L15.52,6.696l-0.327-1.323l0.928-0.544l2.099,3.034l1.536-0.411l0.542,0.175l-0.291-1.27l1.058,0.042l0.326-0.576l0.529,0.053
		l2.205,1.631l1.021,1.215l0.841,0.737l0.953,1.005l0.562,0.412l0.266,0.064l0.104-0.043l-0.166-0.518l-0.518-0.654l-0.742-0.834
		l-0.203-0.192l-0.051-0.787l0.188-0.234l0.975,0.216l0.881,0.896l0.826,0.747l0.806,0.769l0.774,0.797l0.734,0.841l1.155,1.399
		l1.054,1.3l0.223,0.351l1.547,2.314l1.181,1.725l2.135,3.45l0.85,1.606l0.713,1.362l0.773,1.33l0.607,1.103l0.617,1.092
		l0.516,1.146L43.2,30.99l1.29,2.779l0.748,0.553l1.85,0.209l1.077,0.262l0.539,0.126l0.524,0.188l0.53,0.056l1.783,0.805
		l0.447,0.517l1.358,0.843l1.104,0.852l0.884,0.896l0.396,0.387l0.804,0.771l0.836,0.938l0.929,1.041l0.803,0.965l0.927,1.228
		l0.877,1.084l0.993,1.351l1.057,1.478l0.389,0.583l3.307,5.027l2.882,4.465l2.729,4.411l1.032,1.492l0.613,0.933l1.176,1.737
		l1.057,1.644l0.541,0.979l1.187,2.226l1.225,2.038l1.164,2.076l0.361,0.596l0.742,1.349l0.408,0.733l0.935,1.721l0.119,0.254
		l1.856,3.602l0.905,1.74l1.412,2.74l0.788,1.325l4.397,7.305l1.119,1.606l0.991,1.527l0.837,1.113l0.793,1.152l0.442,0.715
		l1.08,1.637l1.184,1.552l0.174,0.216l2.024,3.019l0.983,1.356l1.217,1.705l0.487,0.677l1.2,1.544l0.279,0.308l0.41,0.38
		l0.764,0.998l2.107,2.6l0.877,0.895l0.851,0.928l0.821,0.942l0.794,0.791l0.718,0.858l0.194,0.197l1.572,1.381l1.063,1.106
		l0.174,0.219l0.896,0.681l0.676,0.706l1.622,1.324l1.659,1.061l2.393,1.481l1.469,0.832L125.269,133.254L125.269,133.254z
		 M81.614,80.574l-0.072-0.39l0.036-0.215l-0.148,0.034l0.128,0.177l0.104,0.381l-0.017,0.24l0.095-0.039L81.614,80.574
		L81.614,80.574z M80.86,79.115l-0.09-0.219l0.147,0.205l-0.174,0.285l-0.659-0.862l0.013-0.097l0.426-0.373l-0.151-0.5
		l-0.417-0.368l-0.2-0.655l-0.423-0.563l-0.32-0.029l0.077-0.498l-0.21-0.505l-0.277-0.455l-0.515-0.081l0.12-0.672l-0.022-0.153
		l-0.349-0.615l-0.328-0.202l0.029-0.251l-0.655-1.038l-0.222,0.017l-0.07,0.116l0.073,0.524l0.389,0.57l0.513,0.042l-0.054,0.397
		l-0.212,0.485l0.049-0.015l-0.332-0.246l-1.336-2.128l-0.137-0.533l0.124-0.021l0.297,0.264l0.368-0.077l-0.631-1.243l-0.783,0.147
		l-0.511-0.441l0.353-0.074l0.092,0.106l0.325-0.648l-0.319-0.463l-0.498,0.228l-0.226-0.332l0.415-0.391l-0.58-0.812l-0.662,0.125
		l-0.67-1.021l-0.358-0.595l-0.022-0.266l0.498,0.182l0.176-0.21l-0.503-0.81l-0.25,0.003l-0.244,0.34l-0.523-0.421l-0.735-1.127
		l0.009-0.251l0.665-0.095l0.104-0.268l-0.259-0.297l-0.344-0.405L70.66,62l0.042,0.947l-0.315-0.246l-0.122-0.722l0.332-0.601
		l-0.384-0.697l-0.329-0.236l0.022-0.216l-0.08-0.031l0.094,0.238l-0.242,0.305l0.141,0.782l-0.358-0.09l-0.156-0.382l-0.344-0.182
		l-0.135-0.396l-0.188,0.046l0.047,0.117l0.312,0.223l-0.06,0.251l-0.046,0.387l0.054-0.017l-0.12-0.066l-1.602-2.359l0.036-0.258
		l0.303,0.274l0.494,0.815l0.213,0.171l0.41-0.002l0.468,0.205l0.247-0.131l0.21-0.329l-0.707-0.99l0.015,0.044l0.019-0.135
		l-0.438-0.625l-0.704,0.622l-0.381-0.14l0.083-0.533l0.238-0.503l0.062-0.27l-0.067-0.382l-0.534-0.12l0.007,0.038l0.089-0.482
		l-0.28-0.009l-0.136-0.921l-0.633-0.518l-0.167-0.381l-0.316-0.26l-0.238-0.466l-0.367-0.227l-0.056-0.273l-0.013-0.381
		l-0.233-0.194l-0.129-0.051l-0.39,0.26l0.007,0.277l-0.225,0.012l-0.534-0.611l-0.585-1.223l0.042-0.131l-0.057,0.016l0.362,0.223
		l0.693,1.018l0.401-0.593l-0.6-0.217l-0.146-0.646l-0.457-0.344l0.022-0.416l-0.227-0.324l-0.405-0.022l0.022-0.556l-0.066-0.268
		l-0.34-0.154l-0.582,0.419l0.15-0.786l-0.423-0.573l0.168-0.385l-0.018-0.159l-0.925-1.339l-0.322-0.451l-0.558-0.411l0.047-0.129
		l-0.685-0.798l-0.195,0.076l-0.134,1.161l0.561,0.221l0.037-0.279l0.407-0.266l-0.057,0.123l0.072,0.872l-0.315,0.512l0.039-0.012
		l-0.553-0.375l-0.41-0.521l-0.688-0.81l-0.073-0.109l-0.018-0.255L58.523,45l-0.086-0.555l-0.117-0.374l-0.613-0.2l-0.082,0.361
		l0.154,0.496l-0.536-0.434l-0.533-0.634l-0.708-0.846l-0.77-0.97l-0.959-0.688l-0.502-0.783l0.968,0.153l0.247,0.126l0.499,0.97
		l0.351-0.171l0.512-0.457l-0.625-0.513L55.7,40.228l-0.679-0.469l-0.562-0.075l-0.273-0.791l-0.22-0.178l-0.449,0.15l-0.06,0.401
		l-0.43-0.634l0.425-0.366l-0.908-0.258l-0.122-0.035l-0.227-0.684l-1.066-0.606l-0.196,0.043l0.05,0.127l0.834,0.716l-0.129,0.241
		l-0.845-0.005l-0.942-0.586l-2.05-0.849l-0.08,0.058l-0.021,0.286l-0.496,0.031l-0.038-0.397l-0.956-0.281l-0.532,0.083
		l-0.287-0.267l-0.554-0.028l-0.253,0.099l0.016-0.004l-0.646,0.152l-0.069,0.56l0.225,0.516l-0.194,0.367l0.05-0.015l-0.102-0.092
		l-0.557-0.515l-0.231-0.06l-0.65,0.651l-0.312,1.065l0.067,0.021l0.83-0.916l-0.19,1.566l-0.417,0.199l-0.319,0.605l-0.096-0.382
		l0.124-0.508l-0.373,0.393l-0.564,0.398l-0.081,1.122l-0.169,0.51l0.078,1.938l-0.029,0.386l-0.33,0.83l0.347,1.151l0.967,2.59
		l-0.016,0.403l-0.677,0.101l0.234,0.875l0.481-0.161l-0.207-0.51l0.15-0.364l0.269,0.223l0.886,2.126l0.296,0.929l-0.013,0.269
		l-0.261,0.784l0.312,0.464l0.405,0.07l-0.121,0.537l0.32,0.811l0.2-0.61l0.335,0.082l0.267,0.701l0.341,0.524l0.321,0.259
		l0.059,0.323l0.28,0.215l-0.075,0.244l-0.026,0.39l0.053-0.013l-0.688,0.132l0.168,0.523l0.835,0.333l0.037,0.362l-0.051,0.413
		l0.309,0.594l0.746,0.144l0.546,0.849l1.479,2.36l0.303,0.467l0.742,1.329l-0.055,0.07l-0.627-0.284L49.354,64.5l0.523,0.792
		l0.542,0.091l-0.085,0.681l0.711,1.15l0.503,0.162l0.155,0.91l0.758,0.297l0.094,0.949l0.216,0.176l0.413-0.034l0.289,0.438
		l-0.053,0.712l0.496,0.817l0.364-0.422l-0.35-0.908l0.266,0.026l0.657,0.717l1.879,2.599l0.632,1.07l-0.408-0.018L56.704,75
		l0.141,0.206l-0.036,0.218l0.151-0.03l-0.135-0.183l0.242-0.092l0.302,0.229l0.17,0.646l0.153,0.647l0.39,0.154l0.217-0.705
		l-0.048,0.014l0.692,0.446l0.869,1.059l0.796,1.291l0.055,0.275l-0.363,0.737l0.407,0.558l0.505-0.202l0.206,0.299l-0.184,0.369
		l0.238,0.447l0.394,0.02l0.087-0.106l0.066-0.398l0.41-0.228l-0.02-0.061l-0.069,0.893l0.231,0.38l-0.235,0.632l0.419,0.55
		l0.473-0.248l-0.129,0.796l0.309,0.48l0.67-0.073l0.265,0.25l-0.282,0.299l0.146,0.404l0.704-0.087l0.037,0.253l-0.04,0.409
		l0.105,0.259l0.727-0.053l-0.146,0.648l0.159,0.196l0.409,0.028l0.028,0.368l0.173,0.348l0.413-0.011l0.185,0.328l0.104,0.659
		l0.671,0.009l0.055,0.086l-0.097,0.667l0.759-0.045l0.071-0.239l-0.445-0.692l-0.724-0.826l-0.719-0.839l-0.004-0.256l-0.051,0.015
		l1.011,0.898l1.352,1.556l2.017,2.624l-0.013,0.257l-0.714-0.649l-0.62-0.742l-0.689-0.839l-0.283,0.031l-0.231,0.375l0.197,0.332
		l0.442-0.004l0.188,0.457l0.097,0.209l0.284,0.027l0.191,0.369l0.354,0.396l-0.003,0.425l0.295,0.002l0.301,0.359l-0.03,0.28
		l0.747,0.247l-0.206,0.335l0.603,0.403L71.791,93l-0.226-0.138l-0.133-0.044l0.024-0.235l-0.521-0.75l-0.007-0.365l0.765,0.575
		l0.996,1.378l0.355,0.426l0.801,0.961l-0.007,0.359l-0.274-0.02l-0.137,0.007l-0.223,0.306l0.281,0.4l0.362-0.192l-0.006,0.415
		l0.235,0.279l0.401-0.078l0.467-0.174l0.292,0.442l-0.203,0.122l-0.274,0.029l-0.084,0.313l0.31,0.02l0.23,0.758l0.387,0.238
		l0.239,0.468l0.49,0.302l0.326,0.738l0.561-0.014l0.207,0.12l-0.148,0.511l0.036,0.134l0.767,0.435l-0.264-0.91l0.576,0.325
		l0.517,0.647l0.677,0.696l0.19,0.197l0.534,0.64l0.66,0.719l0.536,0.639l0.565,0.604l0.666,0.71l0.609,0.762l0.107,0.249
		l-0.082,0.969l0.188,0.215l0.403-0.02l0.185,0.179l-0.037,0.107l-0.249,0.233l1.142,1.026l0.916,0.857l0.219-0.042l-0.026-0.683
		l-0.201-0.125l-0.676-0.151l-0.225-0.507l-0.297-0.63l0.234-0.004l0.558,0.414l0.7,0.677l0.322,0.266l0.686,0.687l0.689,0.685
		l0.912,0.656l0.309,0.396l1.53,1.3l0.79,0.585l0.747,0.604l-0.084,0.256l-1.712-0.909l-0.344-0.53l-1.297-0.791l-0.263-0.744
		l-0.681,0.08l0.365,0.408l0.289,0.389l1.231,1.025l0.433,0.349l0.781,0.485l1.091,0.865l0.345-0.213l-0.049,0.767l0.266,0.124
		l0.632-0.087l0.015,0.25l0.152,0.478l0.225,0.14l0.673,0.13l0.02,0.528l0.705-0.04l0.203,0.642l0.396,0.061l0.255,0.672
		l1.011,0.418l0.94,0.628l0.065,0.504l1.018,0.479l0.562,0.588l0.411-0.059l0.213,0.145l0.023,0.575l0.778,0.226l0.213,0.384
		l0.749,0.35l0.158-0.202l-0.079-0.247l-0.635-0.54l-0.503-0.477l-1.836-1.157l-0.326-0.463l-1.063-0.803l0.007-0.256l-0.043,0.014
		l1.539,0.981l0.521,0.581l2.36,1.506l0.313,0.459l2.177,1.4l0.766,0.812l0.962,0.58l0.137,0.224l-0.522-0.139l-2.127-1.363
		l-0.3-0.454l-0.79-0.377l-0.396,0.141l0.278,0.305l4.176,2.605l0.257,0.112l0.385-0.071l0.256-0.116l0.279,0.172l0.117,0.657
		l0.449,0.492l0.383-0.189l0.944,0.208l2.426,1.375l0.709-0.114l0.243,0.615l0.577,0.36l-0.245,0.146l0.348,0.351l0.567,0.041
		l0.36,0.473l0.896,0.212l1.055,0.146l0.181,0.389l0.279,0.048l0.201-0.163l-0.046-0.243l-1.1-0.863l0.55-0.047l0.063-0.386
		l-0.987-0.562l0.165,0.545l-0.474,0.375l-0.357,0.238l-0.559-0.644l-0.262-0.342l0.987,0.289l-0.078-0.198l-1.688-1.458
		l-0.188-0.205l-0.607-0.564l-0.421-0.362l-0.013-0.257l0.377,0.206l0.327-0.245l-0.151-0.462l-0.725-0.422l-0.187,0.069
		l-0.04,0.127l0.02,0.135l0.368,0.393l0.028,0.255l-0.669-0.5l-0.167-0.223l0.161-0.625l-0.347-0.115l-0.053,0.271l-0.105,0.031
		l-0.675-0.453l-0.025-0.255l0.33,0.204l0.237-0.093l0.087-0.218l-0.201-0.092l-0.442,0.254l-0.847-0.717l-0.638-0.73l-0.682-0.686
		l-0.04-0.262l0.262-0.031l-0.126-0.18l0.235-0.347l-0.397-0.721l-0.938-0.567l-0.407,0.377l-0.217-0.162l-0.908-0.981l-0.033-0.116
		l0.038-0.13l-0.049,0.014l0.847,0.463l0.563-0.08l-0.728-0.971l-0.481-0.068l-0.607-0.787l-0.483,0.22l0.018-0.005l-0.526-0.35
		l-0.024-0.336l-0.05,0.015l0.26,0.1l0.432-0.201l-0.552-1.087l-1.008-0.688l-0.521-0.968l-0.42-0.423l-0.239-0.339l-0.405-0.359
		l-0.164-0.523l-0.804-1.14l-0.368,0.08l-0.026,0.331l-0.331-0.253l0.302-0.635l-0.039-0.241l-0.514-0.225l-0.138,0.323
		l-0.465-0.243l-0.418-0.707l0.015-0.136l0.724,0.343l-0.66-0.843l-0.053,0.537l-0.814-0.886l-0.082-0.105l-0.035-0.118l0.036-0.131
		l-0.03,0.008l0.592,0.364l0.138-0.039l0.122-0.45l-0.332-0.436l-0.299-0.008l-0.249-0.737l-0.676-0.596l-0.068-0.782l-0.631-0.264
		l-0.042-0.656l-0.19-0.34l-0.763-0.208l-0.069-0.228l0.233-0.152l-0.112-0.528l-1.041-1.646l-1.208-1.695l-0.394,0.114l0.014,0.263
		l0.084,0.385l0.055-0.016l-0.772-0.422l-0.143-0.403l-0.198-0.137l0.483-0.114l0.32-0.185l-0.116-0.51l-0.77-0.926l-0.123-0.055
		l-0.001-0.25l-0.114,0.025l0.146,0.217l-0.093,0.101l-0.565-0.011l0.1-0.615l0.267-0.18l-1.005-1.602l-0.399-0.356l0.031-0.13
		l-0.373-0.708l-0.539-0.39l0.018-0.211l-0.138,0.032l0.117,0.18l-0.534,0.354l-0.484-0.377l-0.058-0.332l-0.056,0.014l0.353,0.173
		l0.492-0.413L88.66,92.88l-0.523-0.347l0.037-0.227l-0.109,0.004l0.128,0.211l-0.005,0.264l0.163,0.351l-0.725-0.002l-0.213-0.275
		l0.224-0.163l-0.17-1.557l-0.336-0.465l-0.305-0.037l-0.177-0.091l-0.63-1.014l-0.491-0.267l-0.033-0.325l-0.304-0.212
		l-0.045-0.325l-0.29-0.21L84.82,87.87l-0.297-0.211l0.193-0.511l0.098-0.238l0.215-0.163L84.53,85.76l-0.245,0.129l-0.242,0.112
		l-0.189-0.181l0.134-0.363l0.25-0.15l-0.727-1.131l-0.279-0.009l-0.08-0.656l-0.121-0.645l-0.4-0.071l-0.517-0.812l0.036-0.134
		l0.489,0.161l-0.359-0.362l0.012-0.233l-0.106,0.014l0.146,0.207l-0.167,0.273l-0.804-0.885l-0.686-1.444l0.052-0.253l0.258-0.05
		L80.86,79.115L80.86,79.115z M80.569,103.743l0.04-0.237l-0.346-0.142l0.354,0.364l0.304,0.355L80.569,103.743L80.569,103.743z
		 M85.724,88.397l-0.05-0.355l-0.239-0.026l0.025,0.119l0.317,0.246l0.141,0.402l0.196,0.139l-0.008,0.256l0.557,0.288l-0.606-0.527
		l-0.127-0.41L85.724,88.397L85.724,88.397z M18.556,10.638l-0.024-0.328l-0.317-0.205l0.035-0.129L17.312,8.89l-0.047-0.349
		l-0.243-0.028l0.031,0.116l0.311,0.246l-0.037,0.129l0.937,1.087l0.009,0.331l0.31,0.208l0.161,0.42l0.126-0.005l0.012-0.187
		L18.556,10.638L18.556,10.638z M16.951,7.335l-0.016-0.332l-0.321-0.201l0.046-0.221l-0.153,0.023l0.147,0.188l0.115,0.415
		l0.21,0.119l0.32,0.388L16.951,7.335L16.951,7.335z M27.12,8.605l0.115,0.357l0.69,0.474l-0.004,0.261l1.348,2.129l0.545,0.806
		l0.726,0.838l0.675,0.688l0.181,0.208l0.692,0.69l0.767,1.158l-0.004,0.261l-0.529-0.448l-0.618-0.926l-0.332-0.258l-0.279-0.307
		l-0.269-0.313L29.694,13l-0.381-0.397l-0.574-0.594l-0.334-0.239l-0.271,0.041l0.146,0.403l1.036,1.655l0.831,0.937l0.813,1.119
		l0.784,0.969l0.688,1.046l0.717,1.026l1.01,1.665l-0.054,0.255l-0.327-0.25l-0.938-1.379l-0.91-1.407l-0.405-0.57l-1.777-2.391
		l-0.663-0.408l0.052-0.126l-0.973-1.487L27,11.319l-0.169-0.216l-1.506-1.626l-0.957-0.912l-0.239-0.421l-0.553-0.401L23.01,7.138
		L22.546,6.83l-0.215,0.035l0.81,1.275l1.38,1.545L24.87,9.91l0.746,0.969l-0.03,0.134l0.055-0.016l-0.95-0.798l-0.185-0.206
		l-1.479-1.597l-1.294-0.797l-0.612-0.643l-0.137-0.009l-0.058,0.213l0.195,0.359l0.74,0.826l0.779,0.79l1.015,1.14l1.073,1.457
		l1.128,1.589l0.801,0.953l1.354,1.191l0.584,0.59l0.994,1.149l0.018,0.258l-0.662-0.496l-0.95-1.151l-1.249-0.852l-0.261-0.429
		l-0.778-0.479L25.639,13.7l-0.252-0.024l0.03,0.124l0.327,0.246l-0.161,0.269l-0.422-0.289l-1.395-2.132l-0.815-0.532l-0.876-0.592
		l-0.104-0.17l-0.59-0.58L20.73,9.308l-0.498-0.186L20.18,9.662l-0.877-0.836l-0.951,0.183l0.457,1.015l1.425,1.868l0.606,0.567
		l0.468,0.688l0.457,0.518l0.532,0.631l0.5,0.655l0.884,1.057l0.993,1.138l0.007,0.255l-0.778-0.531l-0.322-0.474l-0.874-1.049
		l-0.725-0.609l0.02-0.25l-0.62-0.287l0.639,0.526l-0.052,0.127l0.512,0.804l1.058,1.291l1.07,1.279l1.017,1.329l0.961,1.191
		l0.83,1.242l0.642,0.604l0.805,0.959l1.212,1.154l1.203,1.329l0.891,0.874l0.854,0.918l0.987,0.98l0.586,0.592l0.678,0.498
		l0.586,0.597l0.65,0.526l0.777,0.793l0.788,0.779l0.932,1.022l0.64,0.734l0.616,0.75l0.983,1.497l0.188,0.143l0.471-0.28
		l1.171-0.737l1.257-0.61l0.099-0.197l-0.205-0.184l-0.778-0.295l-0.65-0.251l-0.803-0.243l-2.726-1.679l-0.349-0.466l-0.822-0.545
		l-0.832-0.735l-0.274-0.068l-0.847-0.923l-0.251-0.055l-0.462-0.513l-0.637-0.538l-0.614-0.563l-0.79-0.539l-0.368-0.453
		l-1.012-0.955l-0.325-0.263L31.252,25.3l-0.791-0.787l-0.713-0.859l-1.523-1.809l-0.869-1.083l-0.958-1.004l-1.364-1.576
		l-0.406-0.711l0.035-0.135l0.765,0.601l0.798,0.964l0.816,0.945l0.878,0.889l1.954,2.36l1.775,1.95l0.247,0.38l0.766,0.557
		l1.027,0.93l0.556,0.621l0.927,0.634l0.912,0.856l0.784,0.796l1.448,0.982l0.376,0.489l2.771,1.54l-0.641-0.944l-0.616-0.931
		l-0.65-0.724l-0.777-0.812l-1.931-1.263l-0.306-0.433l-1.704-1.135l-0.335-0.477l-0.888-0.602l-0.464-0.584L32.47,24.24
		l-1.421-1.329l-0.784-0.784l-0.682-0.688l-0.928-1.033l-0.425-0.706l0.032-0.136l0.942,0.815l0.949,1.012l0.686,0.689l0.522,0.456
		l0.539,0.638l1.246,1.382l0.729,0.56l0.703,0.676l0.668,0.698l0.915,0.403l-1.616-2.618l-1.032-1.123l-0.421-0.365l-0.946-0.817
		L31.346,21.4l-0.789-0.784L29.7,19.718l-0.569-0.605l-0.542-0.629l-0.526-0.455l-0.021-0.259l1.241,1.062l0.854,0.878l0.771,0.771
		l1.033,0.684l0.324,0.386l-0.373-0.372l0.024-0.253l-0.459-0.689l-0.507-0.655l-0.485-0.679l-0.911-1.367l0.035-0.133l0.625,0.543
		l0.717,1.012l0.692,1.035l0.763,0.977l1.071,1.44l0.253,0.061l-0.12-0.513l-1.824-2.96l-0.018-0.265l0.476,0.329l0.667,1.05
		l1.437,2.337l0.701,1.575l0.31,0.622l0.41,0.725l1.229,1.856l0.338,0.234l-0.042,0.13l0.536,0.773l0.14,0.012l-0.104-0.497
		l-0.556-0.41l0.058-0.32l0.005-0.336l0.326,0.253l0.941,1.356l0.538,0.805l0.334,0.238l0.136-0.004l0.061-0.084l-0.08-0.398
		l-1.074-2.551l-0.21-0.354l-0.838-1.75l-0.096-0.798l0.371,0.403l1.023,2.14l0.238,0.504l0.53,1.292l0.583,1.112l0.461,1.172
		l1.2,2.209l0.81,1.196l0.588,0.207l0.606,0.164l-0.206-1.101l-0.72-1.354l-0.35-0.597l-0.7-1.366l-0.4-0.737l-0.946-1.706
		l-0.728-1.19l-0.724-1.349l-0.11-0.256l-0.565-1.118l-1.987-3.358l-0.236-0.345l-0.635-0.915l-0.848-1.281l-0.953-1.366
		l-0.187-0.373l-0.16-0.353l-0.508-0.413l-1.203-1.636l-0.2-0.196l-0.719-0.85l-0.6-0.765l-0.812-0.76l-1.43-1.09l-0.059-0.333
		l-0.752-0.5l0.046-0.22l-0.086-0.042L27.12,8.605L27.12,8.605z M21.176,8.583l-0.045,0.129l0.395,0.707l0.73,0.658l0.852,0.702
		l0.357,0.018l-0.756-0.869L22.38,9.67l-0.286-0.297l-0.961-0.778l-0.151-0.394l-0.121-0.004l0.005,0.171L21.176,8.583L21.176,8.583
		z M57.489,42.287l-0.479,0.232l-0.114-0.912l-0.563,0.021l0.099,0.519l0.028,0.624l0.647,0.794l0.237,0.035l0.051-0.293l0.532-0.02
		l0.134-0.218L57.489,42.287L57.489,42.287z M58.61,77.139l-0.164,0.275L58.44,77.68l0.687,0.858l0.237-0.033l0.118-0.238
		l-0.301-0.929l-0.342-0.24L58.61,77.139L58.61,77.139z M109.685,127.508l0.798,0.471l0.888,0.328l0.263,0.023l-0.307-0.387
		l-0.598-0.338l-0.463-0.296l-0.636-0.239L109.685,127.508L109.685,127.508z M109.622,122.937l0.284-0.225l-0.603-0.936
		l-0.501,0.133l0.437,0.451l0.25,0.482L109.622,122.937L109.622,122.937z M117.503,129.49l-0.349,0.067l-0.112,0.065l0.058,0.213
		l0.764,0.526l0.256-0.492L117.503,129.49L117.503,129.49z M86.434,109.921l0.548,0.671l0.243,0.13l0.248-0.054l0.007-0.367
		l-0.696-0.454L86.434,109.921L86.434,109.921z M45.073,56.55l-0.471-1.111l-0.254-0.056l-0.065,0.21l0.549,0.948L45.073,56.55
		L45.073,56.55z M81.905,105.205l-0.054-0.658l-0.22-0.173l-0.124-0.062l-0.135,0.011l-0.086,0.221L81.905,105.205L81.905,105.205z
		 M56.401,74.157l-0.616-0.369l-0.06,0.331l0.581,0.278L56.401,74.157L56.401,74.157z M40.446,43.011l-0.271,0.233l0.033,0.774
		L40.446,43.011L40.446,43.011z M80.04,102.925l0.016-0.263l-0.032-0.13l-0.282-0.255l-0.284,0.228L80.04,102.925L80.04,102.925z
		 M54.973,72.975l0.361,0.537l0.101,0.035l0.148-0.323l-0.359-0.545L54.973,72.975L54.973,72.975z M43.059,52.336l-0.217-0.826
		l-0.31,0.222l0.147,0.518L43.059,52.336L43.059,52.336z M59.568,79.06l0.545,0.186l0.109-0.192l-0.189-0.166L59.568,79.06
		L59.568,79.06z M72.776,94.298l-0.085,0.575l0.318-0.257L72.776,94.298L72.776,94.298z M41.293,47.804l-0.312,0.05l-0.017,0.252
		l0.185,0.175l0.251-0.251L41.293,47.804L41.293,47.804z M78.554,101.295l0.386,0.638l0.229-0.267L78.554,101.295L78.554,101.295z
		 M82.8,106.322l0.202-0.15L82.53,105.7l-0.074,0.094L82.8,106.322L82.8,106.322z M114.674,127.507l0.359,0.618l0.104-0.4
		L114.674,127.507L114.674,127.507z M119.228,131.07l-0.457-0.502l-0.103,0.087l0.062,0.235L119.228,131.07L119.228,131.07z
		 M73.567,66.215l-0.099-0.234l-0.214-0.077l-0.094,0.201l0.13,0.364l0.221-0.137L73.567,66.215L73.567,66.215z M48.885,63.153
		l-0.091,0.445l0.23,0.021l0.021-0.131L48.885,63.153L48.885,63.153z M54.466,72.33l0.351-0.572L54.466,72.33L54.466,72.33z
		 M113.145,126.252l0.332,0.372l0.184-0.063l-0.052-0.12L113.145,126.252L113.145,126.252z M112.593,128.906l-0.569-0.374
		L112.593,128.906L112.593,128.906z M117.845,130.679l-0.126-0.019l-0.012,0.341l0.176,0.107l0.086-0.1L117.845,130.679
		L117.845,130.679z M119.897,131.377l-0.024,0.104l0.052,0.112l0.249,0.038l-0.024-0.204L119.897,131.377L119.897,131.377z
		 M19.723,12.157l0.141,0.188l0.153-0.024l-0.064-0.097L19.723,12.157L19.723,12.157z M20.849,13.515l0.359,0.241L20.849,13.515
		L20.849,13.515z M41.675,38.499l0.072-0.24l-0.176,0.116l-0.004,0.179L41.675,38.499L41.675,38.499z M40.451,41.049l0.055-0.25
		l-0.102-0.003l-0.119,0.22l0.044,0.078L40.451,41.049L40.451,41.049z M58.593,43.71l-0.146-0.188l-0.174,0.051l0.138,0.166
		L58.593,43.71L58.593,43.71z M71.47,63.465l-0.08,0.048l0.017,0.117l0.114-0.024L71.47,63.465L71.47,63.465z M40.614,46.19
		l-0.031-0.129l-0.131,0.021l0.036,0.124L40.614,46.19L40.614,46.19z M48.937,35.709l-0.086,0.124l0.118-0.009L48.937,35.709
		L48.937,35.709z M49.622,36.12l-0.077,0.047l0.014,0.114l0.11-0.025L49.622,36.12L49.622,36.12z M50.458,36.984l-0.081,0.117
		l0.115-0.004L50.458,36.984L50.458,36.984z M42.295,50.768L42.167,50.8l0.016,0.132l0.125-0.034L42.295,50.768L42.295,50.768z
		 M85.33,87.214l-0.099,0.01l0.114,0.089L85.33,87.214L85.33,87.214z M47.259,60.569l-0.025-0.111l-0.114,0.007l0.026,0.108
		L47.259,60.569L47.259,60.569z M47.798,61.871l-0.061-0.099l-0.053,0.072L47.798,61.871L47.798,61.871z M48.006,62.313l0.054,0.098
		l0.055-0.069L48.006,62.313L48.006,62.313z M19.112,11.454l0.036,0.1l0.108,0.007l-0.037-0.102L19.112,11.454L19.112,11.454z
		 M110.214,123.044l-0.115,0.022l0.135,0.094L110.214,123.044L110.214,123.044z M114.027,127.028l-0.127,0.021l0.03,0.121
		l0.114-0.023L114.027,127.028L114.027,127.028z"/>
	<path fill="#232734" d="M69.537,83.011l0.256-0.005l0.275-0.429l-0.253-0.801l0.645-0.395l-0.276-0.443l0.221-0.526l0.168-0.513
		l0.53-0.071l0.424-0.608l-0.289-0.845l0.031-0.252l-0.05,0.015l0.627,0.531l0.259,0.271l0.912-0.273l0.247,0.324l0.864-0.883
		l0.015-0.42l0.426-0.094l0.071,0.111l-0.02,0.815l-0.234,0.38l0.129,0.814l-1.11,0.771l0.075-0.672l0.238-0.08l-0.226,0.137
		l-0.135-0.025L73.092,80.1l0.14,0.218l0.229,0.151l-0.019,0.522l1.902,3.087l-0.35-0.033l-0.252-0.326l-1.006-1.502l-0.175-0.152
		l-0.427,0.355l-0.495,0.08l0.275-1.354l-0.184-0.366L72.5,80.629l-0.507,0.584l-0.059,0.455l-0.381,0.549l-0.347,0.217l0.057-0.016
		l-0.362,0.059l-0.08,0.37l0.098,0.538l-0.451,0.248l0.055-0.015l-0.366-0.164l-0.141,0.052l-0.576,0.603l-0.537,0.054l-0.03,0.687
		l0.782,0.924l0.282,0.468l0.633,0.719l0.577,0.772l-0.028,0.25l0.014-0.004l-0.463-0.3l-0.945-1.195l-0.905-1.05l-0.944-1.202
		l-0.195-0.321l-0.24,0.053l-0.066,0.258l-0.256,0.111l-0.308-0.18l0.14-0.526l0.361-0.145l1.101,0.101l-0.009-0.515l-0.262-0.013
		l-0.35-0.435l0.146-0.385l-0.406,0.116l-0.184-0.481l1.282,0.173l0.083-0.739l0.419-0.081l0.117,0.386l0.206,0.782l0.096,0.674
		l-0.239-0.038l0.008,0.109L69.537,83.011L69.537,83.011z M71.023,80.662l-0.252,0.019l0.059,0.063l0.184-0.125l0.711,0.285
		l-0.117-0.521l-0.509,0.164L71.023,80.662L71.023,80.662z M72.074,79.88l-0.128-0.091l-0.106,0.23l0.057,0.046L72.074,79.88
		L72.074,79.88z"/>
	<path fill="#232734" d="M94.548,110.656l-0.128,0.521l-0.403,0.085l-0.294-0.655l-0.509,0.431l-0.635-0.74l-0.151,0.562l0.658,0.57
		l0.509-0.031l0.082,0.387l-0.505,0.47l-0.483,0.271l0.044-0.013l-0.423-0.064l-0.071-0.226l-0.739-0.377l-0.119,0.063l-0.266-0.033
		l-0.167-0.802l0.233-0.091l0.498,0.203l0.132-0.027l0.065-1.031l0.105-0.166l1.025-0.691l0.045-0.299l0.476-0.16l0.174,0.222
		l0.209-0.111l0.022-0.403l0.129-0.261l0.501-0.061l0.174-0.605l-0.242-0.565l-0.725-0.985l0.048-0.128l-0.025,0.008l0.626,0.533
		l0.555,0.614l0.584,0.581l0.558,0.643l0.339-0.204l0.124-0.05l0.231,0.102l0.021,0.239l-0.36,0.383l1.101,1.393l-0.019,0.24
		l-0.25-0.09l-0.985-1.156l-0.373-0.152l0.246,0.814l-0.028,0.541l0.09,0.264l0.152,0.23l0.091,0.227l-0.268-0.051l-0.388-0.391
		l-0.615-0.033l-0.206,0.178l-0.138,0.043l-0.386-0.151l0.026-0.24l-0.106,0.017L94.548,110.656L94.548,110.656z M94.595,109.65
		l0.708-0.348l-0.043-0.126L95.051,109l-0.388,0.074l-0.255,0.264L94.595,109.65L94.595,109.65z M93.888,109.667l-0.1-0.072
		l-0.117,0.018l0.096,0.178l0.168-0.014L93.888,109.667L93.888,109.667z"/>
	<path fill="#232734" d="M49.802,50.685l-0.642-0.331l-0.523,0.155l-0.783,0.186l-0.243,0.395l0.172,0.359l-0.165,0.474
		l-0.108,0.017l-0.762-0.273l-0.25-0.896l0.091-0.282l0.523-0.826l0.214-0.041l0.1,0.809l0.524-0.379l0.511-0.055l-0.073-0.472
		l-0.572-0.135l-0.226-0.283l-0.505-0.181l-0.001-0.239l0.246-0.336l0.808-0.591l0.336,0.194l0.219,0.354l0.276,0.812l0.317,0.253
		l0.102,0.359l0.219-0.004l-0.032-0.125l-0.344-0.213l0.188-0.342l-0.291-0.946l0.49-0.116l0.522,0.918l0.269-0.075l0.528-0.512
		l0.321-0.212l-0.447-0.365l-0.786,0.132l-0.227-0.16l-0.001-0.291l0.483-0.703l0.436-0.302l0.085-0.258l0.681-0.632l-0.012,1.22
		l-0.221,0.138l-0.359,0.084l0.298,0.572l0.881-0.234l-0.037,1.285l0.526,0.59l-0.264,0.259l-0.186,0.205l-0.305,0.21l-0.325-0.661
		l-0.359-0.028l-0.402,0.382l-0.371,0.199l-0.587,0.953L49.802,50.685L49.802,50.685z M48.208,48.191l-0.092-0.02l-0.162,0.165
		l0.094,0.148l0.167-0.17L48.208,48.191L48.208,48.191z"/>
	<polygon fill="#232734" points="53.224,64.405 53.857,64.911 54.066,65.266 55.225,66.881 55.917,66.798 56.002,67.445 
		56.093,68.1 56.366,68.195 57.049,67.79 57.327,66.951 57.126,66.384 57.159,66.131 57.109,66.143 57.528,66.286 57.849,66.095 
		58.125,65.858 58.309,66.105 58.794,66.151 58.751,66.16 58.933,66.348 59.002,66.751 58.654,66.985 58.585,67.903 57.965,68.096 
		58.484,68.961 58.737,68.888 58.981,68.722 59.631,69.428 59.457,69.763 58.581,69.644 58.317,69.301 57.434,69.187 57.325,68.663 
		56.765,68.999 57.748,69.817 57.82,70.378 59.137,72.448 59.196,72.843 59.037,72.852 58.531,72.199 58.02,71.374 57.353,70.627 
		56.971,70.515 56.902,70.438 56.66,69.85 56.379,69.846 55.724,69.191 55.776,68.31 55.696,68.18 54.832,66.919 53.919,65.693 
		53.233,64.648 53.26,64.395 53.224,64.405 	"/>
	<polygon fill="#232734" points="81.506,94.719 81.885,93.802 82.243,93.818 82.656,94.417 83.199,94.435 83.353,94.85 
		83.253,94.94 82.81,94.986 82.957,95.462 82.68,95.72 82.383,95.467 82.258,95.229 82.143,95.163 82.013,95.182 81.983,95.88 
		82.25,96.361 82.541,96.796 82.354,97.064 81.62,97.309 81.613,98.287 81.333,98.532 81.128,98.363 80.487,96.824 80.337,96.61 
		80.346,96.669 80.732,96.339 80.45,95.578 80.739,95.135 80.821,94.424 81.204,94.496 81.548,94.714 81.081,94.982 80.985,95.213 
		81.272,95.437 81.422,95.396 81.621,95.065 81.506,94.719 	"/>
	<path fill="#232734" d="M46.628,53.69l-0.442-0.273l-1.135-2.24l-0.729,0.068l-0.127-0.417l0.261-0.626l-0.375-1.049l-0.544-1.271
		l-0.019-0.404l-0.057,0.013l0.267,0.164l0.575,1.034l0.438,0.848l0.378,0.031l0.324-0.347l0.566,0.114l-0.202,0.344l0.078,0.167
		l0.117-0.052l-0.053-0.446l0.184-0.209l0.521,0.017l0.105,0.474l-0.282,0.166l-0.123,0.634l-0.389,0.724l0.025,0.125l0.211,1.021
		l0.132,0.53l0.297,0.621l-0.051,0.253L46.628,53.69L46.628,53.69z M45.617,50.618l0.023,0.1l0.08-0.112L45.617,50.618
		L45.617,50.618z"/>
	<polygon fill="#232734" points="80.337,96.61 80.129,97.021 80.346,98.07 79.637,98.683 78.797,97.996 77.957,98.185 
		77.235,98.233 75.087,95.587 75.058,95.173 75.334,95.266 76.652,96.876 77.053,97.259 77.479,97.791 78.403,97.531 78.224,97.027 
		77.765,96.667 77.301,95.879 78.028,96.181 78.708,96.913 79.34,96.668 79.317,96.673 79.666,96.546 80.078,96.23 80.346,96.669 
		80.337,96.61 	"/>
	<path fill="#232734" d="M105.81,121.278l0.415,0.184l0.592,0.817l-0.444,0.241l-0.105-0.087l-0.179-0.215l-0.121,0.038l-0.4,0.515
		l0.059,0.333l2.458,1.603l0.412,0.688h-0.139l-1.051-0.611l-0.29-0.463l-1.821-1.127l-2.009-1.268l-0.055-0.459l0.792,0.252
		l1.398-0.404l0.396,0.187l-0.019,0.222l0.1-0.012l-0.128-0.198l0.188-0.247L105.81,121.278L105.81,121.278z M104.999,122.346
		l0.21-0.125l0.021-0.239l-0.21,0.12L104.999,122.346L104.999,122.346z"/>
	<polygon fill="#232734" points="62.397,63.448 62.486,63.339 63.185,63.053 62.773,64.172 63.134,64.367 63.876,64.175 
		63.433,63.681 63.414,63.548 63.849,62.863 64.113,62.859 64.234,62.934 64.462,63.582 65.157,64.239 64.527,64.536 63.585,65.283 
		63.479,65.529 63.916,66.105 63.88,66.464 63.603,66.499 63.288,66.244 62.974,65.484 62.64,65.201 62.659,65.254 62.637,64.992 
		61.88,63.821 61.438,62.978 61.487,62.849 61.454,62.858 62.452,63.433 62.445,63.669 62.54,63.638 62.397,63.448 	"/>
	<polygon fill="#232734" points="53.409,45.294 53.292,45.815 53.64,45.953 54.577,45.897 55.35,45.633 55.636,46.059 
		55.623,46.005 55.374,46.348 54.625,46.602 54.035,46.521 53.643,46.702 53.378,47.08 53.6,47.56 53.544,48.25 53.441,48.505 
		53.225,48.664 53.044,48.52 52.899,47.988 52.462,47.484 52.804,46.845 52.543,46.334 52.715,45.469 53.421,45.353 53.409,45.294 	
		"/>
	<polygon fill="#232734" points="59.494,68.228 59.164,67.987 59.142,67.074 59.689,66.741 59.778,65.825 59.647,65.49 
		58.751,66.16 58.794,66.151 58.584,65.671 58.648,65.007 58.525,64.485 58.578,64.361 58.53,64.373 59.321,64.842 60.302,64.767 
		60.274,64.774 60.396,65.705 60.418,66.178 60.416,66.167 60.307,67.444 59.613,68.034 59.438,68.25 59.494,68.228 	"/>
	<polygon fill="#232734" points="60.418,66.178 61.146,65.438 61.161,65.144 61.374,64.962 61.438,64.695 61.923,64.519 
		61.848,65.446 61.536,65.635 61.337,66.069 61.577,66.269 62.24,66.296 63.013,67.188 62.673,67.497 62.444,67.367 62.314,67.123 
		62.136,66.889 61.749,66.801 61.473,66.829 61.031,67.126 60.775,66.953 60.797,66.55 60.416,66.167 60.418,66.178 	"/>
	<polygon fill="#232734" points="74.589,74.267 75.045,74.548 76.479,76.748 76.669,77.409 76.05,77.799 75.791,77.837 
		75.506,78.142 75.556,78.125 75.22,77.889 75.935,76.77 75.718,76.282 74.631,74.512 74.636,74.253 74.589,74.267 	"/>
	<polygon fill="#232734" points="71.118,87.982 71.551,88.25 72.457,89.505 73.383,90.682 73.99,91.421 74.951,92.749 74.95,93.004 
		75,92.99 74.278,92.37 73.618,91.489 72.86,90.508 72.173,89.648 71.689,89.161 71.079,88.104 71.131,87.978 71.118,87.982 	"/>
	<polygon fill="#232734" points="108.817,124.428 110.202,125.011 110.544,125.44 112.218,126.552 112.635,127.224 112.401,127.266 
		111.198,126.338 110.884,126.07 109.944,125.408 108.817,124.428 	"/>
	<polygon fill="#232734" points="84.727,91.095 85.521,91.045 85.62,91.257 85.447,91.65 86.011,92.591 85.955,92.944 
		84.982,93.104 84.841,92.722 85.065,92.091 84.735,91.33 84.78,91.08 84.727,91.095 	"/>
	<polygon fill="#232734" points="75.506,78.142 76.024,78.212 76.045,78.702 76.453,79.018 76.124,79.453 75.543,79.763 
		75.535,80.287 75.021,80.391 74.949,79.273 75.496,78.395 75.51,78.257 75.556,78.125 75.506,78.142 	"/>
	<polygon fill="#232734" points="64.403,58.066 64.735,58.307 66.332,60.915 66.634,61.823 66.568,61.911 66.436,61.911 
		66.33,61.825 65.413,60.115 64.437,58.437 64.444,58.054 64.403,58.066 	"/>
	<polygon fill="#232734" points="88.418,108.047 88.182,108.051 87.731,107.724 86.95,106.941 86.292,106.225 85.982,105.945 
		85.358,105.191 85.675,105.17 86.407,105.772 87.201,106.554 87.823,107.297 88.418,108.047 	"/>
	<polygon fill="#232734" points="83.488,94.272 82.909,93.742 83.608,92.889 84.489,92.974 84.602,93.467 84.402,93.716 
		84.042,93.918 83.877,94.142 83.488,94.272 	"/>
	<polygon fill="#232734" points="94.651,112.21 94.789,112.204 95.344,112.794 95.995,113.312 96.239,113.662 97.033,114.223 
		97.239,114.581 97.43,114.777 97.603,115.092 96.63,114.329 96.205,114.024 95.393,113.275 94.785,112.713 94.651,112.21 	"/>
	<polygon fill="#232734" points="85.175,104.765 84.45,104.4 83.587,103.502 82.83,102.505 82.442,102.115 82.304,101.725 
		82.344,101.638 82.477,101.65 83.229,102.459 83.836,103.214 84.416,103.812 85.062,104.541 85.175,104.765 	"/>
	<polygon fill="#232734" points="84.625,96.642 85.25,97.146 86.653,99.128 87.022,99.517 86.999,99.758 87.04,99.748 
		86.383,99.344 85.371,98.016 84.611,96.756 84.66,96.632 84.625,96.642 	"/>
	<polygon fill="#232734" points="45.829,56.545 45.793,56.216 45.494,56.009 45.587,55.768 45.595,55.371 45.553,55.382 
		45.863,55.574 46.462,56.57 46.815,56.99 47.382,58.225 47.142,58.287 46.96,58.083 46.169,56.774 45.829,56.545 	"/>
	<polygon fill="#232734" points="84.11,90.006 83.883,89.843 82.315,87.079 82.357,86.948 82.316,86.958 82.802,87.258 
		83.21,88.102 83.65,88.792 84.115,89.778 84.061,90.022 84.11,90.006 	"/>
	<polygon fill="#232734" points="65.593,64.01 65.49,63.395 65.832,62.824 66.429,63.007 66.625,63.482 66.51,63.768 65.593,64.01 	
		"/>
	<polygon fill="#232734" points="41.162,41.077 41.507,40.675 42.125,39.999 42.365,40.634 42.693,41.163 42,41.543 41.162,41.077 	
		"/>
	<polygon fill="#232734" points="97.779,117.111 97.644,117.33 97.386,117.295 96.466,116.48 95.652,115.458 96.611,115.969 
		97.624,116.881 97.779,117.111 	"/>
	<polygon fill="#232734" points="80.386,86.39 79.836,85.992 78.719,84.106 78.721,83.87 78.859,83.872 80.37,86.152 80.344,86.402 
		80.386,86.39 	"/>
	<polygon fill="#232734" points="85.243,88.715 85.258,89.047 85.57,89.251 85.596,89.595 85.707,90.039 85.755,90.025 
		85.269,89.725 84.251,88.106 84.031,87.601 84.089,87.355 84.057,87.364 84.577,87.645 84.715,88.049 84.911,88.18 85.038,88.589 
		85.243,88.715 	"/>
	<polygon fill="#232734" points="50.74,60.746 50.211,60.152 49.904,59.531 49.344,58.565 49.56,58.5 49.783,58.658 50.885,60.419 
		50.74,60.746 	"/>
	<polygon fill="#232734" points="43.343,46.694 43.02,46.464 42.952,46.321 42.661,45.393 42.325,44.49 42.444,43.842 
		42.404,43.851 42.941,44.949 43.286,46.708 43.343,46.694 	"/>
	<polygon fill="#232734" points="105.444,120.336 104.949,120.281 104.584,119.861 103.096,118.482 103.099,118.239 103.057,118.25 
		104.027,118.848 104.347,119.31 105.277,119.688 105.384,120.355 105.444,120.336 	"/>
	<polygon fill="#232734" points="56.09,44.036 56.283,44.343 56.17,44.622 55.245,45.21 54.742,45.089 55.122,44.481 55.496,44.457 
		56.09,44.036 	"/>
	<polygon fill="#232734" points="103.099,118.239 102.156,117.454 101.986,117.242 100.827,116.044 101.71,116.46 102.35,117.195 
		103,117.896 103.057,118.25 103.099,118.239 	"/>
	<polygon fill="#232734" points="58.936,75.532 59.564,76.068 60.637,77.333 60.602,77.583 60.364,77.655 59.708,76.951 
		58.932,75.647 58.979,75.518 58.936,75.532 	"/>
	<polygon fill="#232734" points="60.197,47.194 60.369,46.972 60.8,46.946 60.491,47.812 60.501,48.215 60.239,48.158 
		59.454,46.871 59.504,46.743 59.465,46.754 60.21,47.191 60.177,47.43 60.34,47.393 60.197,47.194 	"/>
	<polygon fill="#232734" points="87.526,95.745 87.019,95.432 86.577,94.618 86.139,93.761 86.068,93.375 86.221,93.373 
		86.832,94.274 87.501,95.625 87.474,95.758 87.526,95.745 	"/>
	<polygon fill="#232734" points="83.988,100.888 84.741,101.352 85.681,102.762 85.508,102.758 85.076,102.496 84.035,101.127 
		84.042,100.875 83.988,100.888 	"/>
	<polygon fill="#232734" points="66.667,64.375 67.169,65.163 66.851,65.208 66.449,65.249 66.088,65.231 66.269,64.331 
		66.667,64.375 	"/>
	<polygon fill="#232734" points="51.286,39.69 50.459,39.187 50.042,38.661 49.015,37.946 48.935,37.734 49.782,38.133 50.6,38.653 
		50.588,38.6 50.7,38.982 51.216,39.45 51.232,39.706 51.286,39.69 	"/>
	<polygon fill="#232734" points="88.022,109.547 87.996,109.103 88.715,109.676 89.581,110.392 89.038,110.542 88.625,110.044 
		88.022,109.547 	"/>
	<polygon fill="#232734" points="42.127,47.176 42.451,47.216 42.962,48.671 42.748,48.937 42.538,48.779 42.363,48.254 
		42.127,47.176 	"/>
	<polygon fill="#232734" points="54.324,47.078 54.832,47.18 55.36,47.303 55.468,47.558 55.473,47.827 55.393,47.936 
		55.154,48.034 54.272,47.491 54.324,47.078 	"/>
	<polygon fill="#232734" points="79.34,96.668 78.926,95.904 79.691,95.335 79.896,95.461 79.919,95.61 79.317,96.673 79.34,96.668 
			"/>
	<polygon fill="#232734" points="68.891,61.498 69.406,61.814 70.287,63.463 70.069,63.465 68.914,61.614 68.945,61.481 
		68.891,61.498 	"/>
	<polygon fill="#232734" points="43.964,37.545 44.308,37.769 44.994,38.94 44.866,39.214 44.617,39.173 44.075,38.057 
		43.971,37.663 44.014,37.531 43.964,37.545 	"/>
	<polygon fill="#232734" points="89.033,102.497 89.343,102.564 90.179,103.475 90.291,103.726 90.236,103.942 90.101,103.94 
		89.867,103.792 89.766,103.699 89.033,102.497 	"/>
	<polygon fill="#232734" points="70.164,89.024 69.708,88.737 68.666,87.324 68.864,87.237 68.978,87.306 69.177,87.49 
		70.155,88.793 70.123,89.037 70.164,89.024 	"/>
	<polygon fill="#232734" points="47.152,37.524 46.765,37.897 45.963,37.403 46.122,36.977 47.152,37.524 	"/>
	<polygon fill="#232734" points="64.408,82.214 65.199,82.753 65.672,83.581 65.64,83.808 65.401,83.752 64.955,83.078 
		64.469,82.446 64.462,82.198 64.408,82.214 	"/>
	<polygon fill="#232734" points="72.265,70.522 72.709,70.814 73.563,72.146 73.514,72.269 73.542,72.261 73.004,71.885 
		72.283,70.636 72.319,70.51 72.265,70.522 	"/>
	<polygon fill="#232734" points="74.92,71.113 74.236,70.503 73.667,69.606 73.685,69.365 73.633,69.38 74.111,69.674 
		74.871,70.879 74.868,71.127 74.92,71.113 	"/>
	<polygon fill="#232734" points="69.917,80.776 69.767,81.02 69.51,81.023 68.999,80.282 69.244,80.011 69.486,80.093 
		69.917,80.776 	"/>
	<polygon fill="#232734" points="108.372,121.487 108.208,121.758 107.46,121.17 106.846,120.453 106.81,120.195 107.874,120.87 
		108.052,121.29 108.372,121.487 	"/>
	<polygon fill="#232734" points="66.162,81.536 65.663,81.299 64.868,79.965 65.25,80.096 66.162,81.536 	"/>
	<polygon fill="#232734" points="62.656,76.974 62.411,77.212 61.715,75.995 61.892,75.825 62.656,76.974 	"/>
	<polygon fill="#232734" points="50.089,51.237 50.435,51.45 50.86,51.433 50.874,52.122 50.501,52.058 50.106,51.35 50.146,51.22 
		50.089,51.237 	"/>
	<polygon fill="#232734" points="52.98,55.79 53.241,55.862 53.757,56.684 53.797,56.955 53.243,56.728 52.98,55.79 	"/>
	<polygon fill="#232734" points="55.963,60.482 56.421,60.764 56.99,61.857 56.783,61.878 55.997,60.602 56.023,60.468 
		55.963,60.482 	"/>
	<polygon fill="#232734" points="61.748,53.788 62.708,54.891 62.803,55.269 62.743,55.388 62.788,55.375 62.553,55.244 
		61.886,54.396 61.8,53.772 61.748,53.788 	"/>
	<polygon fill="#232734" points="63.406,56.461 63.82,56.716 64.176,57.343 64.447,57.941 64.403,58.066 64.444,58.054 
		63.933,57.716 63.429,56.693 63.451,56.449 63.406,56.461 	"/>
	<polygon fill="#232734" points="67.732,62.243 67.223,62.332 67.236,61.549 67.431,61.386 67.746,61.578 67.732,62.243 	"/>
	<polygon fill="#232734" points="67.736,64.273 67.185,63.914 67.245,63.187 67.484,63.037 67.801,64.038 67.736,64.273 	"/>
	<polygon fill="#232734" points="63.28,74.909 63.897,75.448 64.307,76.308 64.085,76.319 63.304,75.03 63.335,74.896 63.28,74.909 
			"/>
	<polygon fill="#232734" points="70.467,83.633 70.784,83.862 70.3,84.75 70.09,84.593 70.522,83.619 70.467,83.633 	"/>
	<polygon fill="#232734" points="81.317,85.355 81.941,85.872 82.308,86.448 82.316,86.958 82.357,86.948 82.14,86.803 
		81.334,85.468 81.368,85.343 81.317,85.355 	"/>
	<polygon fill="#232734" points="84.193,94.84 84.833,94.485 85.034,94.649 84.648,95.228 84.193,94.84 	"/>
	<polygon fill="#232734" points="89.042,95.365 89.387,95.577 89.718,95.349 90.091,95.336 90.048,95.732 89.711,96.287 
		89.093,95.621 89.042,95.365 	"/>
	<polygon fill="#232734" points="91.971,99.803 92.102,100.208 92.302,100.339 92.327,100.683 92.441,101.126 92.482,101.115 
		91.986,100.809 91.464,99.895 91.485,99.514 91.442,99.524 91.971,99.803 	"/>
	<polygon fill="#232734" points="52.765,66.765 53.666,67.865 53.505,68.073 52.747,66.876 52.798,66.755 52.765,66.765 	"/>
	<polygon fill="#232734" points="104.232,116.948 103.524,116.326 103.068,115.829 103.081,115.583 103.042,115.594 
		103.745,116.027 104.174,116.709 104.182,116.962 104.232,116.948 	"/>
	<polygon fill="#232734" points="80.737,80.987 80.512,80.838 79.927,79.771 79.991,79.529 79.945,79.542 80.263,79.79 
		80.751,80.755 80.696,80.999 80.737,80.987 	"/>
	<polygon fill="#232734" points="46.298,44.56 45.774,44.218 45.55,43.269 45.795,43.348 46.076,43.977 46.313,44.446 
		46.256,44.572 46.298,44.56 	"/>
	<polygon fill="#232734" points="83.106,104.415 82.758,104.308 82.396,103.72 82.458,103.471 82.676,103.54 83.154,104.034 
		83.106,104.415 	"/>
	<polygon fill="#232734" points="64.222,60.744 64.359,60.747 64.944,61.664 64.86,61.862 64.732,61.836 64.222,60.744 	"/>
	<polygon fill="#232734" points="54.27,43.361 53.885,43.214 53.705,42.417 54.055,42.447 54.27,43.361 	"/>
	<polygon fill="#232734" points="91.518,101.553 92.45,102.64 92.415,102.768 92.47,102.751 91.92,102.413 91.544,101.791 
		91.561,101.541 91.518,101.553 	"/>
	<polygon fill="#232734" points="48.418,39.19 48.205,38.828 47.583,38.276 48.584,38.782 48.552,39.15 48.418,39.19 	"/>
	<polygon fill="#232734" points="91.212,102.494 90.824,102.438 90.21,101.658 90.746,101.754 91.212,102.494 	"/>
	<polygon fill="#232734" points="55.636,46.059 55.924,45.595 56.283,45.536 56.377,45.895 55.983,46.199 55.623,46.005 
		55.636,46.059 	"/>
	<polygon fill="#232734" points="92.772,101.665 93.72,102.753 93.672,102.879 93.721,102.864 92.767,101.777 92.816,101.652 
		92.772,101.665 	"/>
	<polygon fill="#232734" points="96.618,106.686 97.569,107.774 97.523,107.9 97.568,107.886 96.648,106.8 96.674,106.67 
		96.618,106.686 	"/>
	<polygon fill="#232734" points="51.895,65.536 51.282,65.024 50.954,64.448 50.992,64.32 50.95,64.332 51.912,65.421 
		51.859,65.546 51.895,65.536 	"/>
	<polygon fill="#232734" points="52.798,66.755 51.851,65.664 51.895,65.536 51.859,65.546 52.81,66.638 52.765,66.765 
		52.798,66.755 	"/>
	<polygon fill="#232734" points="64.671,54.933 65.164,55.074 65.236,54.672 65.547,54.864 65.568,55.027 65.246,55.61 65.3,55.596 
		64.834,55.29 64.73,54.919 64.671,54.933 	"/>
	<polygon fill="#232734" points="61.342,67.745 61.727,68.138 61.245,68.517 61.015,68.09 61.342,67.745 	"/>
	<polygon fill="#232734" points="66.295,85.646 65.402,84.676 65.684,84.685 65.895,84.85 66.298,85.533 66.254,85.659 
		66.295,85.646 	"/>
	<polygon fill="#232734" points="70.123,89.037 70.619,89.312 71.041,90 70.851,90.109 70.515,89.873 70.124,89.154 70.164,89.024 
		70.123,89.037 	"/>
	<polygon fill="#232734" points="49.129,51.176 48.786,51.564 48.692,50.919 49.11,51.042 49.129,51.176 	"/>
	<polygon fill="#232734" points="49.24,47.073 49.234,46.819 49.871,46.586 49.472,47.188 49.24,47.073 	"/>
	<polygon fill="#232734" points="72.973,68.309 73.284,68.564 73.67,69.252 73.633,69.38 73.685,69.365 73.251,69.079 
		73.021,68.293 72.973,68.309 	"/>
	<polygon fill="#232734" points="44.633,35.955 45.052,36.731 44.437,36.295 44.649,35.951 44.633,35.955 	"/>
	<polygon fill="#232734" points="61.151,71.936 61.734,72.475 61.613,72.703 61.277,72.553 61.125,72.041 61.195,71.924 
		61.151,71.936 	"/>
	<polygon fill="#232734" points="73.84,76.079 73.604,75.955 73.286,75.68 73.136,75.175 73.394,75.197 73.853,75.965 
		73.804,76.087 73.84,76.079 	"/>
	<polygon fill="#232734" points="64.483,65.48 64.852,65.094 65.039,65.568 64.483,65.48 	"/>
	<polygon fill="#232734" points="42.444,43.842 42.285,43.639 42.24,43.237 42.311,43.105 42.544,43.027 42.695,43.231 
		42.404,43.851 42.444,43.842 	"/>
	<polygon fill="#232734" points="84.061,90.022 84.391,90.251 84.764,90.965 84.727,91.095 84.78,91.08 84.063,90.138 84.11,90.006 
		84.061,90.022 	"/>
	<polygon fill="#232734" points="62.64,65.201 62.659,65.773 62.363,65.999 62.12,65.827 62.278,65.332 62.659,65.254 62.64,65.201 
			"/>
	<polygon fill="#232734" points="80.302,99.168 80.679,98.601 80.788,98.98 80.42,99.24 80.302,99.168 	"/>
	<polygon fill="#232734" points="84.66,96.632 84.114,96.261 83.939,95.734 84.18,95.77 84.672,96.519 84.625,96.642 84.66,96.632 	
		"/>
	<polygon fill="#232734" points="85.553,94.582 86.234,95.498 85.771,95.315 85.615,94.566 85.553,94.582 	"/>
	<polygon fill="#232734" points="66.717,58.122 66.343,57.765 66.048,57.062 65.993,57.075 66.531,57.406 66.723,57.909 
		66.663,58.139 66.717,58.122 	"/>
	<polygon fill="#232734" points="77.906,75.927 77.372,75.598 77.194,75.096 77.244,74.863 77.195,74.875 77.885,75.815 
		77.851,75.943 77.906,75.927 	"/>
	<polygon fill="#232734" points="46.2,40.907 46.987,41.404 46.851,41.813 46.248,41.137 46.253,40.892 46.2,40.907 	"/>
	<polygon fill="#232734" points="71.524,72.331 70.869,71.433 71.009,71.435 71.527,72.214 71.477,72.341 71.524,72.331 	"/>
	<polygon fill="#232734" points="72.357,67.22 72.034,66.979 71.645,66.28 71.693,66.154 71.648,66.167 72.368,67.108 
		72.309,67.234 72.357,67.22 	"/>
	<polygon fill="#232734" points="91.561,101.541 90.848,100.645 91.067,100.665 91.566,101.429 91.518,101.553 91.561,101.541 	"/>
	<polygon fill="#232734" points="93.161,107.343 92.903,107.285 92.463,106.549 93.161,107.343 	"/>
	<polygon fill="#232734" points="94.117,114.178 94.586,114.43 94.594,114.679 94.247,114.761 94.117,114.178 	"/>
	<polygon fill="#232734" points="60.646,55.226 60.887,55.291 61.289,55.963 60.843,55.834 60.646,55.226 	"/>
	<polygon fill="#232734" points="58.555,58.432 59.268,59.338 59.041,59.33 58.552,58.546 58.598,58.42 58.555,58.432 	"/>
	<polygon fill="#232734" points="71.268,78.124 70.958,77.932 70.574,77.268 71.107,77.483 71.218,78.138 71.268,78.124 	"/>
	<polygon fill="#232734" points="105.384,120.355 105.849,120.6 105.961,121.065 105.81,121.278 105.859,121.266 105.541,121.071 
		105.444,120.336 105.384,120.355 	"/>
	<polygon fill="#232734" points="68.349,62.518 68.378,62.843 68.062,62.874 68.021,62.542 68.349,62.518 	"/>
	<polygon fill="#232734" points="67.254,71.86 67.396,71.858 67.708,72.295 67.695,72.43 67.472,72.458 67.254,71.86 	"/>
	<polygon fill="#232734" points="62.429,80.67 62.494,80.143 63.03,80.478 62.41,80.61 62.429,80.67 	"/>
	<polygon fill="#232734" points="70.401,67.892 70.702,67.955 70.802,68.438 70.401,67.892 	"/>
	<polygon fill="#232734" points="73.843,72.806 74.326,73.619 74.259,73.729 74.302,73.715 73.826,72.91 73.876,72.796 
		73.843,72.806 	"/>
	<polygon fill="#232734" points="73.711,77.883 73.413,78.112 73.273,78.025 73.227,77.683 73.573,77.637 73.711,77.883 	"/>
	<polygon fill="#232734" points="72.231,83.511 72.098,83.535 71.842,83.294 71.944,83.063 72.302,83.146 72.231,83.511 	"/>
	<polygon fill="#232734" points="74.923,80.771 74.936,81.134 74.577,81.156 74.571,80.807 74.923,80.771 	"/>
	<polygon fill="#232734" points="77.358,81.592 77.896,81.996 77.779,82.332 77.366,81.703 77.412,81.577 77.358,81.592 	"/>
	<polygon fill="#232734" points="74.059,89.25 74.523,89.479 74.559,89.857 74.439,89.897 74.059,89.25 	"/>
	<polygon fill="#232734" points="53.421,45.353 53.657,45.027 53.792,44.983 54.036,45.074 53.988,45.43 53.755,45.503 
		53.409,45.294 53.421,45.353 	"/>
	<polygon fill="#232734" points="55.766,40.472 54.937,40.668 55.253,40.321 55.766,40.472 	"/>
	<polygon fill="#232734" points="81.695,82.608 82.168,83.397 82.112,83.525 82.164,83.512 81.684,82.702 81.747,82.591 
		81.695,82.608 	"/>
	<polygon fill="#232734" points="82.923,84.968 82.573,84.751 82.425,84.219 82.68,84.234 82.874,84.982 82.923,84.968 	"/>
	<polygon fill="#232734" points="83.339,85.893 82.923,84.968 82.874,84.982 83.344,85.553 83.297,85.905 83.339,85.893 	"/>
	<polygon fill="#232734" points="83.755,86.818 83.389,86.42 83.339,85.893 83.297,85.905 83.647,86.121 83.801,86.599 
		83.722,86.828 83.755,86.818 	"/>
	<polygon fill="#232734" points="82.997,90.687 83.531,91.108 83.402,91.468 83.01,90.801 83.047,90.672 82.997,90.687 	"/>
	<polygon fill="#232734" points="56.37,48.97 55.965,48.382 56.37,48.97 	"/>
	<polygon fill="#232734" points="41.435,44.464 41.663,44.428 41.683,44.855 41.439,44.816 41.435,44.464 	"/>
	<polygon fill="#232734" points="86.838,92.018 86.503,91.782 86.347,91.296 86.674,91.31 86.858,91.918 86.791,92.033 
		86.838,92.018 	"/>
	<polygon fill="#232734" points="85.615,94.566 85.285,94.322 85.244,94.2 85.333,93.957 85.677,93.983 85.737,94.217 
		85.553,94.582 85.615,94.566 	"/>
	<polygon fill="#232734" points="87.474,95.758 87.986,96.443 87.918,96.676 87.929,96.673 87.461,95.855 87.526,95.745 
		87.474,95.758 	"/>
	<polygon fill="#232734" points="90.26,97.143 90.75,97.925 90.509,97.885 90.31,97.131 90.26,97.143 	"/>
	<polygon fill="#232734" points="62.539,58.026 62.955,58.599 62.624,58.532 62.539,58.026 	"/>
	<polygon fill="#232734" points="60.891,64.119 60.892,63.874 61.195,63.712 61.392,63.997 61.003,64.187 60.891,64.119 	"/>
	<polygon fill="#232734" points="71.356,65.619 71.042,65.393 71.218,65.021 71.365,65.385 71.322,65.627 71.356,65.619 	"/>
	<polygon fill="#232734" points="64.462,82.198 63.868,81.688 64.404,81.97 64.408,82.214 64.462,82.198 	"/>
	<polygon fill="#232734" points="45.926,47.542 45.887,47.099 46.149,47.317 45.926,47.542 	"/>
	<polygon fill="#232734" points="66.215,79.551 66.374,79.242 66.657,79.421 66.215,79.551 	"/>
	<polygon fill="#232734" points="51.232,39.706 51.819,40.213 51.276,39.928 51.286,39.69 51.232,39.706 	"/>
	<polygon fill="#232734" points="71.207,82.434 71.564,82.655 71.35,83.05 71.263,82.418 71.207,82.434 	"/>
	<polygon fill="#232734" points="74.95,93.004 75.55,93.528 74.982,93.238 75,92.99 74.95,93.004 	"/>
	<polygon fill="#232734" points="80.1,90.556 80.676,91.055 80.204,90.901 80.149,90.542 80.1,90.556 	"/>
	<polygon fill="#232734" points="78.524,94.233 78.628,94.318 78.605,94.569 78.503,94.648 78.326,94.509 78.302,94.244 
		78.524,94.233 	"/>
	<polygon fill="#232734" points="54.309,51.892 54.201,51.944 54.11,51.9 54.012,51.66 54.047,51.45 54.334,51.647 54.309,51.892 	
		"/>
	<polygon fill="#232734" points="76.366,98.45 76.278,97.936 76.663,98.223 76.366,98.45 	"/>
	<polygon fill="#232734" points="49.299,61.654 49.616,61.904 49.604,62.161 49.515,62.253 49.312,62.152 49.333,61.646 
		49.299,61.654 	"/>
	<polygon fill="#232734" points="57.815,51.037 58.295,51.305 58.41,51.542 57.931,51.396 57.867,51.025 57.815,51.037 	"/>
	<polygon fill="#232734" points="54.25,69.319 54.349,69.233 54.511,69.382 54.497,69.641 54.252,69.569 54.25,69.319 	"/>
	<polygon fill="#232734" points="60.302,64.767 59.992,64.384 60.231,64.247 60.469,64.295 60.445,64.554 60.274,64.774 
		60.302,64.767 	"/>
	<polygon fill="#232734" points="93.924,101.999 93.386,101.655 93.353,101.319 93.306,101.333 93.763,101.652 93.869,102.014 
		93.924,101.999 	"/>
	<polygon fill="#232734" points="67.188,56.77 66.828,56.887 66.48,56.502 67.195,56.808 67.188,56.77 	"/>
	<polygon fill="#232734" points="94.298,103.544 93.772,103.203 93.721,102.864 93.672,102.879 94.138,103.189 94.243,103.561 
		94.298,103.544 	"/>
	<polygon fill="#232734" points="59.438,68.25 59.953,68.272 59.908,68.609 59.567,68.592 59.494,68.228 59.438,68.25 	"/>
	<polygon fill="#232734" points="93.818,105.915 93.293,105.573 93.263,105.23 93.209,105.247 93.767,105.58 93.792,105.922 
		93.818,105.915 	"/>
	<polygon fill="#232734" points="94.858,104.231 94.343,103.876 94.298,103.544 94.243,103.561 94.765,103.917 94.806,104.247 
		94.858,104.231 	"/>
	<polygon fill="#232734" points="94.183,105.233 94.078,105.294 93.995,105.26 93.906,104.892 93.944,104.807 94.07,104.809 
		94.183,105.233 	"/>
	<polygon fill="#232734" points="94.806,104.247 95.342,104.59 95.377,104.93 95.431,104.914 94.968,104.597 94.858,104.231 
		94.806,104.247 	"/>
	<polygon fill="#232734" points="92.689,112.527 93.051,112.75 93.025,113.103 92.917,113.17 92.721,113.045 92.733,112.514 
		92.689,112.527 	"/>
	<polygon fill="#232734" points="67.416,58.576 67.272,58.843 66.872,58.548 66.717,58.122 66.663,58.139 67.416,58.576 	"/>
	<polygon fill="#232734" points="58.979,75.518 58.452,75.173 58.41,74.835 58.362,74.849 58.903,75.191 58.936,75.532 
		58.979,75.518 	"/>
	<polygon fill="#232734" points="95.241,116.205 95.735,116.523 95.241,116.205 	"/>
	<polygon fill="#232734" points="99.525,114.378 98.886,113.87 99.484,114.147 99.477,114.392 99.525,114.378 	"/>
	<polygon fill="#232734" points="97.548,118.125 96.954,117.62 97.52,117.896 97.505,118.138 97.548,118.125 	"/>
	<polygon fill="#232734" points="100.091,115.061 99.56,114.715 99.525,114.378 99.477,114.392 100.011,114.741 100.043,115.077 
		100.091,115.061 	"/>
	<polygon fill="#232734" points="100.043,115.077 100.642,115.588 100.099,115.306 100.091,115.061 100.043,115.077 	"/>
	<polygon fill="#232734" points="65.247,68.71 65.18,68.344 65.362,68.293 65.492,68.502 65.247,68.71 	"/>
	<polygon fill="#232734" points="55.657,54.006 55.962,54.209 55.994,54.536 56.034,54.526 55.733,54.324 55.71,53.993 
		55.657,54.006 	"/>
	<polygon fill="#232734" points="50.665,63.781 50.314,63.431 50.617,63.794 50.665,63.781 	"/>
	<polygon fill="#232734" points="59.219,49.734 58.882,49.505 59.219,49.734 	"/>
	<polygon fill="#232734" points="50.617,63.794 50.928,64.005 50.95,64.332 50.992,64.32 50.693,64.108 50.665,63.781 
		50.617,63.794 	"/>
	<polygon fill="#232734" points="53.26,64.395 52.963,64.188 52.935,63.861 52.883,63.874 53.203,64.07 53.224,64.405 53.26,64.395 
			"/>
	<polygon fill="#232734" points="61.812,50.307 61.724,50.358 61.519,50.214 61.533,50.119 61.661,50.099 61.812,50.307 	"/>
	<polygon fill="#232734" points="55.166,62.917 54.832,62.57 55.119,62.928 55.166,62.917 	"/>
	<polygon fill="#232734" points="62.698,50.688 62.368,50.485 62.386,50.289 62.503,50.271 62.643,50.704 62.698,50.688 	"/>
	<polygon fill="#232734" points="58.598,58.42 58.31,58.21 58.273,57.886 58.217,57.9 58.531,58.104 58.555,58.432 58.598,58.42 	
		"/>
	<polygon fill="#232734" points="62.643,50.704 62.854,50.837 62.974,51.246 63.031,51.23 62.749,51.009 62.698,50.688 
		62.643,50.704 	"/>
	<polygon fill="#232734" points="52.669,68.045 52.684,68.238 52.447,68.185 52.441,67.991 52.669,68.045 	"/>
	<polygon fill="#232734" points="61.8,53.772 61.491,53.541 61.438,53.422 61.748,53.788 61.8,53.772 	"/>
	<polygon fill="#232734" points="59.835,60.169 59.514,59.962 59.49,59.78 59.613,59.767 59.715,59.842 59.785,60.183 
		59.835,60.169 	"/>
	<polygon fill="#232734" points="64.059,53.845 63.75,53.627 63.755,53.454 63.875,53.455 64.012,53.859 64.059,53.845 	"/>
	<polygon fill="#232734" points="59.785,60.183 60.081,60.393 60.115,60.718 60.166,60.704 59.851,60.5 59.835,60.169 
		59.785,60.183 	"/>
	<polygon fill="#232734" points="63.113,55.913 62.825,55.703 62.788,55.375 62.743,55.388 63.063,55.591 63.08,55.922 
		63.113,55.913 	"/>
	<polygon fill="#232734" points="64.012,53.859 64.386,54.236 64.059,53.845 64.012,53.859 	"/>
	<polygon fill="#232734" points="60.115,60.718 60.412,60.929 60.455,61.252 60.498,61.24 60.198,61.033 60.166,60.704 
		60.115,60.718 	"/>
	<polygon fill="#232734" points="63.451,56.449 63.149,56.239 63.113,55.913 63.08,55.922 63.387,56.13 63.406,56.461 
		63.451,56.449 	"/>
	<polygon fill="#232734" points="60.83,61.775 60.516,61.569 60.498,61.24 60.455,61.252 60.745,61.464 60.784,61.789 60.83,61.775 
			"/>
	<polygon fill="#232734" points="61.152,62.314 60.933,62.194 60.83,61.775 60.784,61.789 61.103,61.986 61.124,62.322 
		61.152,62.314 	"/>
	<polygon fill="#232734" points="61.487,62.849 61.173,62.646 61.152,62.314 61.124,62.322 61.441,62.523 61.454,62.858 
		61.487,62.849 	"/>
	<polygon fill="#232734" points="65.964,56.665 65.637,56.429 65.585,56.312 65.808,56.324 65.905,56.679 65.964,56.665 	"/>
	<polygon fill="#232734" points="56.233,72.031 56.474,72.05 56.583,72.259 56.347,72.243 56.233,72.031 	"/>
	<polygon fill="#232734" points="58.078,74.297 57.753,74.095 57.75,73.914 57.872,73.909 58.032,74.311 58.078,74.297 	"/>
	<polygon fill="#232734" points="58.41,74.835 58.102,74.626 58.078,74.297 58.032,74.311 58.333,74.521 58.362,74.849 
		58.41,74.835 	"/>
	<polygon fill="#232734" points="58.298,76.09 57.989,75.845 57.953,75.73 58.197,75.761 58.25,76.104 58.298,76.09 	"/>
	<polygon fill="#232734" points="61.605,78.849 61.645,78.975 61.443,79.003 61.36,78.797 61.492,78.77 61.605,78.849 	"/>
	<polygon fill="#232734" points="71.693,66.154 71.373,65.95 71.356,65.619 71.322,65.627 71.623,65.838 71.648,66.167 
		71.693,66.154 	"/>
	<polygon fill="#232734" points="71.918,64.635 72.195,64.884 72.268,65.225 71.976,64.981 71.918,64.635 	"/>
	<polygon fill="#232734" points="72.687,67.754 72.383,67.55 72.357,67.22 72.309,67.234 72.526,67.356 72.634,67.77 72.687,67.754 
			"/>
	<polygon fill="#232734" points="72.634,67.77 72.927,67.982 72.973,68.309 73.021,68.293 72.811,68.173 72.687,67.754 
		72.634,67.77 	"/>
	<polygon fill="#232734" points="73.579,67.991 73.761,67.936 73.719,68.185 73.592,68.207 73.543,68.113 73.579,67.991 	"/>
	<polygon fill="#232734" points="73.514,72.269 73.823,72.476 73.843,72.806 73.876,72.796 73.565,72.591 73.542,72.261 
		73.514,72.269 	"/>
	<polygon fill="#232734" points="74.868,71.127 75.165,71.34 75.199,71.664 75.249,71.649 74.94,71.441 74.92,71.113 74.868,71.127 
			"/>
	<polygon fill="#232734" points="66.632,86.183 66.316,85.978 66.295,85.646 66.254,85.659 66.564,85.864 66.582,86.198 
		66.632,86.183 	"/>
	<polygon fill="#232734" points="75.199,71.664 75.509,71.871 75.533,72.197 75.579,72.185 75.278,71.978 75.249,71.649 
		75.199,71.664 	"/>
	<polygon fill="#232734" points="74.259,73.729 74.571,73.937 74.589,74.267 74.636,74.253 74.344,74.044 74.302,73.715 
		74.259,73.729 	"/>
	<polygon fill="#232734" points="67.293,85.746 67.548,85.796 67.583,86.01 67.339,85.965 67.293,85.746 	"/>
	<polygon fill="#232734" points="77.298,73.62 77.619,73.843 77.661,73.96 77.442,73.947 77.347,73.605 77.298,73.62 	"/>
	<polygon fill="#232734" points="77.851,75.943 78.192,76.296 77.906,75.927 77.851,75.943 	"/>
	<polygon fill="#232734" points="79.1,76.91 79.322,76.573 79.1,76.91 	"/>
	<polygon fill="#232734" points="77.412,81.577 77.11,81.343 77.063,81.232 77.28,81.253 77.358,81.592 77.412,81.577 	"/>
	<polygon fill="#232734" points="79.658,78.991 79.334,78.746 79.29,78.621 79.608,79.005 79.658,78.991 	"/>
	<polygon fill="#232734" points="72.131,91.264 72.156,91.461 71.93,91.417 71.903,91.223 72.131,91.264 	"/>
	<polygon fill="#232734" points="73.46,88.58 73.847,88.833 73.46,88.58 	"/>
	<polygon fill="#232734" points="79.991,79.529 79.773,79.412 79.658,78.991 79.608,79.005 79.819,79.129 79.945,79.542 
		79.991,79.529 	"/>
	<polygon fill="#232734" points="79.617,82.276 79.279,81.921 79.568,82.289 79.617,82.276 	"/>
	<polygon fill="#232734" points="80.696,80.999 81.029,81.197 81.031,81.533 81.065,81.523 80.769,81.315 80.737,80.987 
		80.696,80.999 	"/>
	<polygon fill="#232734" points="81.031,81.533 81.321,81.738 81.363,82.067 81.412,82.053 81.194,81.937 81.065,81.523 
		81.031,81.533 	"/>
	<polygon fill="#232734" points="81.747,82.591 81.426,82.384 81.412,82.053 81.363,82.067 81.695,82.608 81.747,82.591 	"/>
	<polygon fill="#232734" points="78.392,87.669 78.41,87.851 78.226,87.923 78.196,87.806 78.392,87.669 	"/>
	<polygon fill="#232734" points="76.633,92.139 76.688,92.302 76.511,92.449 76.451,92.279 76.633,92.139 	"/>
	<polygon fill="#232734" points="80.344,86.402 80.638,86.613 80.673,86.937 80.726,86.921 80.414,86.718 80.386,86.39 
		80.344,86.402 	"/>
	<polygon fill="#232734" points="81.059,87.455 80.85,87.328 80.726,86.921 80.673,86.937 80.959,87.15 81.003,87.472 
		81.059,87.455 	"/>
	<polygon fill="#232734" points="81.384,87.993 81.101,87.778 81.059,87.455 81.003,87.472 81.296,87.686 81.329,88.009 
		81.384,87.993 	"/>
	<polygon fill="#232734" points="80.149,90.542 79.84,90.292 79.813,90.178 80.055,90.208 80.1,90.556 80.149,90.542 	"/>
	<polygon fill="#232734" points="81.329,88.009 81.647,88.249 81.694,88.367 81.459,88.345 81.384,87.993 81.329,88.009 	"/>
	<polygon fill="#232734" points="81.998,89.083 82.312,89.288 82.332,89.613 82.381,89.598 82.183,89.472 82.056,89.069 
		81.998,89.083 	"/>
	<polygon fill="#232734" points="83.722,86.828 84.03,87.03 84.057,87.364 84.089,87.355 83.786,87.149 83.755,86.818 
		83.722,86.828 	"/>
	<polygon fill="#232734" points="82.715,90.131 82.51,90.004 82.381,89.598 82.332,89.613 82.64,89.818 82.662,90.148 
		82.715,90.131 	"/>
	<polygon fill="#232734" points="83.047,90.672 82.842,90.546 82.715,90.131 82.662,90.148 82.974,90.355 82.997,90.687 
		83.047,90.672 	"/>
	<polygon fill="#232734" points="78.533,99.657 78.785,99.688 78.893,99.893 78.656,99.884 78.533,99.657 	"/>
	<polygon fill="#232734" points="85.707,90.039 85.91,90.165 86.04,90.572 86.092,90.56 85.777,90.359 85.755,90.025 85.707,90.039 
			"/>
	<polygon fill="#232734" points="79.948,101.132 80.2,101.181 80.243,101.393 79.994,101.351 79.948,101.132 	"/>
	<polygon fill="#232734" points="86.791,92.033 87.113,92.263 87.164,92.386 86.838,92.018 86.791,92.033 	"/>
	<polygon fill="#232734" points="88.616,94.428 88.968,95.02 88.755,94.869 88.616,94.428 	"/>
	<polygon fill="#232734" points="87.918,96.676 88.221,96.925 88.242,97.042 88.115,97.071 87.929,96.673 87.918,96.676 	"/>
	<polygon fill="#232734" points="88.491,98.995 88.133,98.624 88.461,99.003 88.491,98.995 	"/>
	<polygon fill="#232734" points="88.461,99.003 88.692,99.142 88.793,99.369 88.661,99.393 88.453,99.236 88.491,98.995 
		88.461,99.003 	"/>
	<polygon fill="#232734" points="90.31,97.131 89.941,96.759 90.437,96.921 90.425,96.872 90.26,97.143 90.31,97.131 	"/>
	<polygon fill="#232734" points="85.15,106.323 85.104,106.554 84.917,106.583 84.95,106.352 85.05,106.304 85.15,106.323 	"/>
	<polygon fill="#232734" points="86.218,107.582 86.267,107.765 86.14,107.77 85.989,107.562 86.097,107.531 86.218,107.582 	"/>
	<polygon fill="#232734" points="88.254,105.616 88.198,105.843 88.015,105.864 88.062,105.641 88.168,105.591 88.254,105.616 	"/>
	<polygon fill="#232734" points="43.28,43.2 43.335,43.277 43.207,43.495 43.107,43.492 43.081,43.357 43.28,43.2 	"/>
	<polygon fill="#232734" points="43.965,42.523 43.989,42.723 43.865,42.741 43.73,42.523 43.965,42.523 	"/>
	<polygon fill="#232734" points="92.816,101.652 92.49,101.45 92.482,101.115 92.441,101.126 92.75,101.33 92.772,101.665 
		92.816,101.652 	"/>
	<polygon fill="#232734" points="93.353,101.319 93.041,101.113 93.027,100.779 92.972,100.794 93.273,101.006 93.306,101.333 
		93.353,101.319 	"/>
	<polygon fill="#232734" points="46.253,40.892 45.909,40.542 46.2,40.907 46.253,40.892 	"/>
	<polygon fill="#232734" points="47.552,38.785 47.598,38.963 47.48,38.975 47.346,38.787 47.552,38.785 	"/>
	<polygon fill="#232734" points="92.793,103.289 92.503,103.075 92.47,102.751 92.415,102.768 92.709,102.984 92.738,103.305 
		92.793,103.289 	"/>
	<polygon fill="#232734" points="47.927,39.419 47.988,39.482 47.873,39.694 47.77,39.709 47.813,39.464 47.927,39.419 	"/>
	<polygon fill="#232734" points="92.738,103.305 93.093,103.648 92.793,103.289 92.738,103.305 	"/>
	<polygon fill="#232734" points="93.869,102.014 94.177,102.234 94.182,102.401 94.062,102.396 93.924,101.999 93.869,102.014 	"/>
	<polygon fill="#232734" points="44.739,45.094 44.989,45.12 45.082,45.328 44.851,45.325 44.739,45.094 	"/>
	<polygon fill="#232734" points="93.263,105.23 92.887,104.873 93.209,105.247 93.263,105.23 	"/>
	<polygon fill="#232734" points="46.256,44.572 46.554,44.785 46.579,45.109 46.631,45.092 46.339,44.88 46.298,44.56 
		46.256,44.572 	"/>
	<polygon fill="#232734" points="49.653,39.854 49.685,40.055 49.51,40.179 49.461,39.988 49.653,39.854 	"/>
	<polygon fill="#232734" points="46.579,45.109 46.865,45.32 46.909,45.643 46.967,45.626 46.775,45.49 46.631,45.092 
		46.579,45.109 	"/>
	<polygon fill="#232734" points="43.744,50.452 43.817,50.497 43.725,50.719 43.583,50.625 43.744,50.452 	"/>
	<polygon fill="#232734" points="46.909,45.643 47.103,45.775 47.243,46.175 47.301,46.161 47.103,46.026 46.967,45.626 
		46.909,45.643 	"/>
	<polygon fill="#232734" points="44.185,51.995 44.431,52.053 44.432,52.244 44.214,52.189 44.185,51.995 	"/>
	<polygon fill="#232734" points="52.586,38.991 52.529,39.058 52.306,38.982 52.316,38.808 52.551,38.871 52.586,38.991 	"/>
	<polygon fill="#232734" points="95.377,104.93 95.715,105.168 95.762,105.292 95.523,105.278 95.431,104.914 95.377,104.93 	"/>
	<polygon fill="#232734" points="96.344,106.128 95.963,105.772 96.287,106.145 96.344,106.128 	"/>
	<polygon fill="#232734" points="96.674,106.67 96.384,106.453 96.344,106.128 96.287,106.145 96.586,106.361 96.618,106.686 
		96.674,106.67 	"/>
	<polygon fill="#232734" points="96.297,107.56 95.998,107.557 95.967,107.437 96.273,107.435 96.297,107.56 	"/>
	<polygon fill="#232734" points="52.722,40.789 52.788,40.737 52.982,40.849 52.988,40.943 52.763,40.897 52.722,40.789 	"/>
	<polygon fill="#232734" points="45.595,55.371 45.383,55.254 45.265,54.837 45.212,54.849 45.539,55.045 45.553,55.382 
		45.595,55.371 	"/>
	<polygon fill="#232734" points="46.582,53.703 46.884,53.911 46.916,54.236 46.963,54.225 46.658,54.023 46.628,53.69 
		46.582,53.703 	"/>
	<polygon fill="#232734" points="50.146,51.22 49.829,51.021 49.802,50.685 49.759,50.698 49.978,50.814 50.089,51.237 
		50.146,51.22 	"/>
	<polygon fill="#232734" points="48.857,52.983 48.907,52.919 49.113,53.01 49.143,53.127 48.912,53.08 48.857,52.983 	"/>
	<polygon fill="#232734" points="55.408,43.256 55.41,43.449 55.288,43.444 55.168,43.231 55.293,43.205 55.408,43.256 	"/>
	<polygon fill="#232734" points="97.523,107.9 97.766,108.01 97.864,108.433 97.894,108.425 97.592,108.22 97.568,107.886 
		97.523,107.9 	"/>
	<polygon fill="#232734" points="93.917,114.918 93.935,115.115 93.708,115.064 93.696,114.881 93.917,114.918 	"/>
	<polygon fill="#232734" points="96.998,111.578 97.056,111.763 96.837,111.685 96.769,111.517 96.998,111.578 	"/>
	<polygon fill="#232734" points="53.149,50.093 52.825,49.864 52.771,49.744 53.09,50.107 53.149,50.093 	"/>
	<polygon fill="#232734" points="101.522,113.461 101.564,113.654 101.398,113.775 101.335,113.589 101.522,113.461 	"/>
	<polygon fill="#232734" points="103.081,115.583 102.758,115.373 102.722,115.252 102.903,115.185 103.042,115.594 
		103.081,115.583 	"/>
	<polygon fill="#232734" points="101.764,120.605 101.838,120.543 102.041,120.766 101.914,120.791 101.764,120.605 	"/>
	<polygon fill="#232734" points="103.783,120.128 103.584,120.193 103.435,119.996 103.634,119.93 103.783,120.128 	"/>
	<polygon fill="#232734" points="104.765,117.638 105.125,118.024 104.783,117.633 104.765,117.638 	"/>
	<polygon fill="#232734" points="105.704,118.848 105.374,118.626 105.33,118.505 105.516,118.444 105.655,118.862 105.704,118.848 
			"/>
	<polygon fill="#232734" points="58.578,64.361 58.441,64.142 58.556,64.127 58.53,64.373 58.578,64.361 	"/>
	<polygon fill="#232734" points="64.73,54.919 64.633,54.669 64.715,54.712 64.671,54.933 64.73,54.919 	"/>
	<polygon fill="#232734" points="55.345,70.792 55.443,70.801 55.383,70.877 55.345,70.792 	"/>
	<polygon fill="#232734" points="65.246,55.61 65.344,55.853 65.26,55.812 65.3,55.596 65.246,55.61 	"/>
	<polygon fill="#232734" points="65.905,56.679 65.993,57.075 66.048,57.062 65.964,56.665 65.905,56.679 	"/>
	<polygon fill="#232734" points="61.195,71.924 61.063,71.734 61.16,71.708 61.151,71.936 61.195,71.924 	"/>
	<polygon fill="#232734" points="68.83,65.141 68.865,65.267 68.74,65.284 68.83,65.141 	"/>
	<polygon fill="#232734" points="63.335,74.896 63.189,74.678 63.28,74.909 63.335,74.896 	"/>
	<polygon fill="#232734" points="68.838,68.207 68.945,68.238 68.895,68.301 68.838,68.207 	"/>
	<polygon fill="#232734" points="69.15,68.724 69.257,68.715 69.169,68.83 69.15,68.724 	"/>
	<polygon fill="#232734" points="63.759,82.628 63.648,82.603 63.706,82.528 63.759,82.628 	"/>
	<polygon fill="#232734" points="72.319,70.51 72.167,70.289 72.265,70.522 72.319,70.51 	"/>
	<polygon fill="#232734" points="71.477,72.341 71.627,72.562 71.524,72.331 71.477,72.341 	"/>
	<polygon fill="#232734" points="66.466,84.502 66.457,84.66 66.368,84.652 66.35,84.535 66.466,84.502 	"/>
	<polygon fill="#232734" points="75.533,72.197 75.67,72.396 75.565,72.427 75.579,72.185 75.533,72.197 	"/>
	<polygon fill="#232734" points="73.804,76.087 73.934,76.255 73.798,76.285 73.84,76.079 73.804,76.087 	"/>
	<polygon fill="#232734" points="77.244,74.863 77.131,74.624 77.221,74.653 77.195,74.875 77.244,74.863 	"/>
	<polygon fill="#232734" points="71.198,85.946 71.208,85.847 71.288,85.911 71.198,85.946 	"/>
	<polygon fill="#232734" points="78.425,75.342 78.432,75.449 78.326,75.474 78.317,75.364 78.425,75.342 	"/>
	<polygon fill="#232734" points="43.554,39.741 43.428,39.759 43.397,39.635 43.53,39.608 43.554,39.741 	"/>
	<polygon fill="#232734" points="73.315,92.719 73.337,92.826 73.233,92.838 73.204,92.733 73.315,92.719 	"/>
	<polygon fill="#232734" points="79.568,82.289 79.663,82.521 79.584,82.489 79.617,82.276 79.568,82.289 	"/>
	<polygon fill="#232734" points="73.895,93.83 73.999,93.812 73.914,93.93 73.895,93.83 	"/>
	<polygon fill="#232734" points="81.368,85.343 81.292,85.104 81.368,85.149 81.317,85.355 81.368,85.343 	"/>
	<polygon fill="#232734" points="82.112,83.525 82.205,83.766 82.128,83.729 82.164,83.512 82.112,83.525 	"/>
	<polygon fill="#232734" points="43.43,47.083 43.343,46.694 43.286,46.708 43.378,47.095 43.43,47.083 	"/>
	<polygon fill="#232734" points="43.519,47.478 43.43,47.083 43.378,47.095 43.462,47.491 43.519,47.478 	"/>
	<polygon fill="#232734" points="50.6,38.653 50.793,38.532 50.844,38.588 50.588,38.6 50.6,38.653 	"/>
	<polygon fill="#232734" points="82.056,89.069 81.897,88.856 82.009,88.833 81.998,89.083 82.056,89.069 	"/>
	<polygon fill="#232734" points="47.243,46.175 47.393,46.384 47.29,46.406 47.301,46.161 47.243,46.175 	"/>
	<polygon fill="#232734" points="47.625,46.939 47.63,46.848 47.712,46.917 47.625,46.939 	"/>
	<polygon fill="#232734" points="49.266,45.241 49.375,45.266 49.315,45.34 49.266,45.241 	"/>
	<polygon fill="#232734" points="44.958,53.414 44.973,53.518 44.856,53.428 44.958,53.414 	"/>
	<polygon fill="#232734" points="45.265,54.837 45.143,54.621 45.253,54.616 45.212,54.849 45.265,54.837 	"/>
	<polygon fill="#232734" points="86.04,90.572 86.13,90.816 86.047,90.771 86.092,90.56 86.04,90.572 	"/>
	<polygon fill="#232734" points="46.916,54.236 47.008,54.473 46.926,54.433 46.963,54.225 46.916,54.236 	"/>
	<polygon fill="#232734" points="45.768,57.168 45.898,57.375 45.792,57.384 45.821,57.156 45.768,57.168 	"/>
	<polygon fill="#232734" points="82.167,103.233 82.067,103.228 82.032,103.125 82.143,103.125 82.167,103.233 	"/>
	<polygon fill="#232734" points="88.083,93.775 87.987,93.531 88.064,93.567 88.028,93.789 88.083,93.775 	"/>
	<polygon fill="#232734" points="84.042,100.875 83.901,100.682 84,100.656 83.988,100.888 84.042,100.875 	"/>
	<polygon fill="#232734" points="53.09,50.107 53.171,50.197 53.098,50.205 53.149,50.093 53.09,50.107 	"/>
	<polygon fill="#232734" points="88.954,94.972 89.054,95.404 88.954,94.972 	"/>
	<polygon fill="#232734" points="83.735,105.228 83.888,105.157 83.907,105.281 83.784,105.313 83.735,105.228 	"/>
	<polygon fill="#232734" points="86.999,99.758 87.143,99.971 87.031,99.991 87.04,99.748 86.999,99.758 	"/>
	<polygon fill="#232734" points="90.437,96.921 90.613,96.79 90.633,96.92 90.425,96.872 90.437,96.921 	"/>
	<polygon fill="#232734" points="48.627,60.318 48.657,60.418 48.535,60.326 48.627,60.318 	"/>
	<polygon fill="#232734" points="50.877,56.536 51.022,56.481 51.04,56.596 50.923,56.619 50.877,56.536 	"/>
	<polygon fill="#232734" points="91.485,99.514 91.408,99.271 91.488,99.313 91.442,99.524 91.485,99.514 	"/>
	<polygon fill="#232734" points="57.446,47.075 57.454,46.972 57.538,47.034 57.446,47.075 	"/>
	<polygon fill="#232734" points="49.333,61.646 49.197,61.439 49.303,61.413 49.299,61.654 49.333,61.646 	"/>
	<polygon fill="#232734" points="90.252,107.853 90.086,107.84 90.095,107.745 90.219,107.727 90.252,107.853 	"/>
	<polygon fill="#232734" points="55.71,53.993 55.57,53.792 55.672,53.769 55.657,54.006 55.71,53.993 	"/>
	<polygon fill="#232734" points="57.867,51.025 57.77,50.788 57.852,50.827 57.815,51.037 57.867,51.025 	"/>
	<polygon fill="#232734" points="52.915,59.784 52.925,59.694 52.995,59.753 52.915,59.784 	"/>
	<polygon fill="#232734" points="55.994,54.536 56.088,54.785 55.996,54.747 56.034,54.526 55.994,54.536 	"/>
	<polygon fill="#232734" points="52.935,63.861 52.817,63.667 52.914,63.661 52.883,63.874 52.935,63.861 	"/>
	<polygon fill="#232734" points="51.404,66.419 51.507,66.437 51.449,66.514 51.404,66.419 	"/>
	<polygon fill="#232734" points="59.784,53.671 59.691,53.721 59.629,53.58 59.746,53.557 59.784,53.671 	"/>
	<polygon fill="#232734" points="56.023,60.468 55.889,60.264 55.992,60.252 55.963,60.482 56.023,60.468 	"/>
	<polygon fill="#232734" points="60.864,52.323 60.854,52.423 60.772,52.359 60.864,52.323 	"/>
	<polygon fill="#232734" points="58.273,57.886 58.14,57.69 58.239,57.672 58.217,57.9 58.273,57.886 	"/>
	<polygon fill="#232734" points="99.251,118.267 99.278,118.392 99.156,118.409 99.123,118.287 99.251,118.267 	"/>
	<polygon fill="#232734" points="55.119,62.928 55.253,63.136 55.141,63.163 55.166,62.917 55.119,62.928 	"/>
	<polygon fill="#232734" points="100.34,117.447 100.479,117.392 100.497,117.501 100.384,117.522 100.34,117.447 	"/>
	<polygon fill="#232734" points="100.424,119.473 100.565,119.415 100.584,119.528 100.471,119.551 100.424,119.473 	"/>
	<polygon fill="#232734" points="63.348,52.918 63.465,52.911 63.382,53.031 63.348,52.918 	"/>
	<polygon fill="#232734" points="110.556,126.647 110.659,126.636 110.583,126.745 110.556,126.647 	"/>
	<polygon fill="#232734" points="57.159,66.131 57.036,65.936 57.134,65.922 57.109,66.143 57.159,66.131 	"/>
	<polygon fill="#232734" points="24.349,15.162 25.007,15.661 25.788,16.613 26.231,17.277 26.869,17.84 27.445,18.426 
		27.73,18.715 28.295,19.477 28.281,19.615 28.049,19.458 27.141,18.819 26.398,18.007 25.641,17.031 24.831,16.095 24.321,15.296 
		24.349,15.162 	"/>
	<polygon fill="#232734" points="20.164,9.609 20.774,9.985 21.797,11.368 22.03,11.851 21.992,12.105 21.542,11.785 21.067,11.109 
		20.631,10.404 20.153,9.748 20.164,9.609 	"/>
	<polygon fill="#232734" points="22.875,13.262 23.395,13.693 24.388,14.969 24.371,15.224 24.032,14.998 23.843,14.807 
		23.196,13.953 22.849,13.396 22.875,13.262 	"/>
	<polygon fill="#232734" points="21.97,12.042 22.923,13.186 22.896,13.323 21.942,12.177 21.97,12.042 	"/>
	<polygon fill="#232734" points="37.407,23.585 37.005,23.215 36.106,21.49 33.319,17.357 32.833,16.681 32.833,16.42 
		33.554,16.938 34.602,18.355 37.311,22.921 37.407,23.585 	"/>
	<polygon fill="#232734" points="26.654,16.252 27.434,16.836 28.06,17.57 28.059,17.826 27.397,17.329 26.673,16.509 
		26.654,16.252 	"/>
	<polygon fill="#232734" points="25.571,14.262 26.048,15 26.01,15.243 25.532,14.507 25.571,14.262 	"/>
	<polygon fill="#232734" points="25.99,15.181 26.29,15.423 26.343,15.777 26.145,15.619 25.99,15.181 	"/>
	<polygon fill="#232734" points="26.323,15.718 26.624,15.959 26.675,16.312 26.476,16.156 26.323,15.718 	"/>
	<polygon fill="#232734" points="29.119,14.47 29.071,14.594 29.637,15.482 30.221,16.367 30.201,16.5 29.755,16.169 28.982,15.195 
		28.349,14.149 28.41,14.027 28.363,14.042 29.119,14.47 	"/>
	<polygon fill="#232734" points="28.41,14.027 27.589,13.501 27.383,13.319 26.952,12.783 26.391,11.996 26.652,12.002 
		26.98,12.252 28.349,13.787 28.363,14.042 28.41,14.027 	"/>
	<polygon fill="#232734" points="30.178,16.437 30.684,16.823 30.86,17.566 30.16,16.672 30.178,16.437 	"/>
	<polygon fill="#232734" points="25.585,11.012 26.129,11.375 26.152,11.551 26.024,11.557 25.698,11.339 25.64,10.997 
		25.585,11.012 	"/>
	<polygon fill="#232734" points="30.84,17.51 31.269,17.804 31.434,18.249 31.015,17.953 30.84,17.51 	"/>
	<polygon fill="#232734" points="31.414,18.191 31.708,18.436 31.764,18.784 31.478,18.537 31.414,18.191 	"/>
	<polygon fill="#232734" points="35.617,23.803 35.359,23.587 34.779,22.405 34.087,21.215 34.086,20.829 34.486,21.197 
		35.423,22.806 35.617,23.803 	"/>
	<polygon fill="#232734" points="37.036,26.333 36.68,25.982 36.326,25.327 36.351,25.201 37.073,26.083 37.036,26.333 	"/>
	<polygon fill="#232734" points="36.373,25.264 35.884,24.525 35.929,24.278 36.416,25.142 36.373,25.264 	"/>
	<polygon fill="#232734" points="35.95,24.342 35.66,24.098 35.597,23.746 35.81,23.9 35.95,24.342 	"/>
	<polygon fill="#232734" points="37.369,26.868 37.161,26.716 37.015,26.271 37.226,26.424 37.369,26.868 	"/>
	<polygon fill="#232734" points="68.897,58.811 68.798,59.342 68.379,59.413 68.543,58.898 68.912,58.855 68.897,58.811 	"/>
</g>
</svg>
