<?xml version="1.0" encoding="utf-8"?>
<!-- Generator: Adobe Illustrator 15.0.2, SVG Export Plug-In . SVG Version: 6.00 Build 0)  -->
<!DOCTYPE svg PUBLIC "-//W3C//DTD SVG 1.1//EN" "http://www.w3.org/Graphics/SVG/1.1/DTD/svg11.dtd">
<svg version="1.1" id="Layer_1" xmlns="http://www.w3.org/2000/svg" xmlns:xlink="http://www.w3.org/1999/xlink" x="0px" y="0px"
	 width="141.333px" height="141.333px" viewBox="0 0 141.333 141.333" enable-background="new 0 0 141.333 141.333"
	 xml:space="preserve">
<g id="carrot2">
	<path fill="#232734" d="M127.121,120.167l0.376,0.175l0.68,0.482l0.113,0.369l-0.102,0.26l-0.655,0.197l-0.244-0.096l-1.025-0.502
		l-0.594-0.555l-0.742-0.636l-0.658-0.462l-0.297,0.605l-0.526,0.457l-1.077-0.91l-0.71-1.312l-0.576-0.786l-0.333-0.447
		l-1.765-2.158l-1.698-1.753l-2.154-2.255l-0.544-0.437l-1.316-1.028l-1.178-0.992l-1.33-1.024l-1.257-0.879l-1.984-1.296
		l-1.43-1.087l-0.537-0.223l-0.121-0.069l-1.715-1.429l-2.396-1.919l-0.476-0.285l-0.431-0.105l-1.745,0.439l-1.253,0.058
		l-0.828-0.137l-0.837-0.017l-0.548-0.125l-0.413-0.071l-1.785-0.285l-2.833-0.837l-2.211-1.185l-1.047-0.402l-0.837-0.505
		l-0.871-0.438l-1.233-0.653l-1.184-0.728l-2.138-1.308l-0.454-0.314l-1.565-0.91l-0.788-0.57l-0.741-0.386l-0.8-0.561l-0.685-0.476
		l-2.33-1.778l-1.329-1.015l-1.289-1.067l-1.236-1.106l-0.768-0.605l-1.12-1.038l-1.275-1.083l-1.035-1.143l-0.981-1l-1.864-1.696
		l-0.758-0.61L61.066,77.9l-0.946-0.825l-0.227-0.161l-1.34-1.212l-1.323-1.247l-1.381-1.391l-1.389-1.168l-1.225-1.152
		l-1.053-1.117l-3.175-3.168l-1.329-1.438l-1.49-1.672l-1.384-1.761l-1.283-1.664l-1.868-2.447l-1.943-2.568l-0.17-0.222
		l-0.605-0.95l-0.596-0.774l-3.329-4.507l-1.015-1.338l-0.897-1.251l-1.573-2.319l-0.734-1.021l-2.02-3.207l-0.509-0.665
		l-2.068-2.64l-0.399-0.572l-0.646-1.087l-0.717-0.851l-0.81-1.138l-0.938-1.03l-1.988-2.53l-2.055-2.658l-1.757-2.53l-0.317-0.463
		l-1.178-1.662l-1.998-2.232l-0.301-0.473l-1.144-1.593l-1.321-1.49l-0.529-0.396l-0.558-0.63l-0.656-0.719L8.21,13.254L7.36,12.145
		l-0.304-0.471l-0.769-1.622l0.049-0.131l0.449-0.055l1.809,1.726l1.043,0.93l1.751,1.803l1.059,0.912l1.021,0.948l1.146,1.229
		l1.184,1.374l1.104,1.259l0.36,0.427l2.382,2.368l2.011,2.144l1.18,1.2l2.04,2.112l2.016,2.14l3.284,3.05l0.954,0.814l0.786,0.786
		l0.761,0.607l1.248,1.112l1.194,0.963l1.409,1.136l1.001,0.754l1.011,0.738l0.488,0.267l0.254,0.121l0.861,0.713l1.069,0.662
		l0.92,0.634l0.915,0.624l1.023,0.727L45,44.76l1.036,0.834l1.288,0.68l1.311,0.792l0.913,0.642l1.286,0.832l0.248,0.128
		l0.753,0.631l0.835,0.504l0.864,0.708l2.756,1.904l0.796,0.561l0.928,0.621l0.813,0.547l0.535,0.443l2.509,2.229l1.133,0.816
		l1.202,0.95l1.163,0.768l1.149,0.785l0.418,0.193l0.849,0.757l1.161,0.658l0.247,0.132l0.725,0.662l0.923,0.619l0.805,0.556
		l0.929,0.616l0.791,0.564l1.275,0.849l1.211,0.696l0.46,0.311l1.146,0.799l1.114,0.836l1.178,0.74l1.032,0.719l0.998,0.405
		l0.973,0.625l0.83,0.5L84.667,72l0.912,0.639l0.973,0.552l1.989,1.529l0.438,0.346l0.329,0.258l0.546,0.243l2.537,1.906l2.14,1.563
		l0.329,0.256l0.617,0.324l0.75,0.677l0.615,0.259l0.93,0.842l1.862,1.885l1.237,1.33l0.109,0.088l1.472,1.687l0.877,1.264
		l0.589,0.935l0.451,1.025l0.223,0.662l0.606,2.682l-0.688,2.533l0.26,0.603l0.314,0.962l0.78,0.737l2.158,1.757l2.906,2.639
		l0.771,0.326l0.698,0.458l0.7,0.449l0.792,0.29l0.265,0.113l0.296,0.277l0.539,0.027l0.356,0.268l3.209,1.007l0.446,0.354
		l3.017,0.976l0.509,0.339l1.805,1.047l1.188,0.719l1.186,0.729l0.939,0.594l2.099,1.37l0.628,0.294l0.91,0.683l0.849,0.133
		l0.077,0.163l-0.233,0.942l0.693,0.738l1.034,1.317l0.573,1.125l0.275,0.38l0.711,0.349l0.146,0.941l-0.244,1.092l-0.777,0.125
		l0.288,0.45l-0.043,0.549l0.251,0.632l-0.127,0.519l-0.918,0.466l-1.985-0.517l-1.079,0.19l-2.485-1.573l-0.673-0.484l-0.459,0.186
		l-0.518-0.174l-0.741-0.665l-3-3.124l-0.325-0.456l-0.877-1.261l-2.724-3.18l-0.459-0.523l-1.971-2.177l-0.967-0.796l-0.414-0.375
		l-0.751-0.826l-0.904-0.654l-0.792-0.563l-0.731-0.398l-0.856-0.464l-0.337-0.233l-0.924-0.363l-1.005-0.167l0.069,0.126
		l0.863,0.688l1.267,1.097l1.316,1.026l1.302,1.053l1.402,1.148l0.467,0.302l1.664,1.26l0.695,0.859l0.023,0.269l-0.484-0.265
		l-1.138-1.097l-0.683-0.303l-0.956-0.886l-1.527-1.216l-0.538-0.439l-1.746-1.38l-0.954-0.815l-0.916-0.631l-1.217-0.932
		l-1.69-1.539l-0.975-2.108l-0.343-1.208l-0.029-0.411l-0.308-1.214l-0.166-0.386l-0.262-0.33l-0.507,1.014l-0.65,0.718l-0.78,0.803
		l-0.731,0.603l1.388,1.153l1.513,1.234l0.947,0.822l0.902,0.657l0.984,0.779l0.251,0.121l0.948,0.581l1.065,0.645l0.319,0.261
		l0.778,0.584l0.927,0.62l0.733,0.639l0.897,0.652l0.972,0.79l1.796,1.302l0.302,0.289l1.656,1.705l2.983,3.329l0.167,0.227
		l0.146,0.24l0.883,1.431l0.915,1.407l0.188,0.17l0.286,0.083l0.024,0.222l0.135-0.074l-0.169-0.142l0.045-0.399l-0.263-0.64
		l-1.276-2.208l-0.443-0.459l-1.723-1.798l-1.225-1.31l-0.504-0.814l0.016-0.136l0.486,0.257l0.913,1.058l1.148,1.22l1.231,1.33
		l1.074,1.457l0.517,0.916l0.364,0.326l0.804,0.546l0.708,0.667l1.516,1.23l0.527,0.09L127.121,120.167L127.121,120.167z
		 M16.463,21.408l0.052,0.233l0.092-0.053l-0.196-0.151l-0.055-0.243l-0.098,0.051L16.463,21.408L16.463,21.408z M18.064,23.936
		l0.183,0.352l-0.021,0.137l0.618,1.076l0.098,0.031l0.146-0.292l-0.438-0.804l-0.439-0.129l-0.195-0.343l-0.19-0.359l-0.197-0.325
		l-0.261-0.096l0.011-0.123l-0.144-0.06l0.079,0.088l0.106,0.065l0.194,0.33l0.264,0.092L18.064,23.936L18.064,23.936z M18.5,23.471
		l0.185,0.354l0.061,0.233L18.834,24l-0.203-0.147L18.445,23.5l0.094-0.313l0.576,0.166l0.188,0.36l0.376,0.266l-0.428-0.237
		l-0.189-0.359l-0.195-0.325l-0.261-0.097l-0.057-0.234l-0.093,0.047l0.202,0.158l-0.087,0.31l-0.234,0.096L18.5,23.471L18.5,23.471
		z M27.042,35.365l0.187,0.352l0.649,0.772l0.186,0.358l0.591,1.036l0.259,0.081l0.015,0.204l0.222-0.133l0.211,0.155l0.664,1.03
		l0.647,0.997l0.283,0.123l0.88-0.345l0.188,0.359l-0.447,0.532l-0.027,0.532l0.225,0.354l0.608,0.76l0.505,0.84l0.579,0.768
		l0.312,0.747l0.665,0.709l0.153,0.589l0.513,0.748l0.455,0.81l0.563,0.027l1.538,2.362l0.53,0.641l0.691,0.97l0.316,0.135
		l-0.027-0.051l0.08,0.242l0.688,0.969l0.035,0.252l-0.586-0.174l-0.188-0.359l-0.463-0.422l-0.089-0.237l-0.04,0.071l0.173,0.143
		l0.232,0.356l0.237,0.062l0.188,0.358l0.231,0.358l0.229,0.062l0.189,0.36l0.196,0.347l0.048,0.226l0.083-0.054l-0.184-0.143
		l-0.196-0.347l-0.189-0.361l0.098-0.303l0.383,0.175l0.721,1.179l0.479,0.667l1.716,2.147l0.094,0.381l-0.321,0.285l0.639,0.894
		l0.732,0.821l0.376-0.034l-0.3-0.441l-0.702-1l0.013-0.137l0.37,0.179l1.562,1.94l0.992,1.15l0.123,0.232l-0.133,0.224l-0.29-0.24
		l-0.249-0.004l-0.02,0.237l0.263,0.485l0.357,0.372l0.176-0.207l0.118-0.062l0.118,0.179l-0.114,0.406l0.08,0.256l1.003,1.135
		l0.263,0.072l0.02,0.256l0.828,0.894l0.261,0.06l0.206,0.346l0.461,0.425l0.167,0.357l3.375,3.321l0.529,0.449l0.264,0.08
		l-0.016,0.135l0.685,0.628l0.237-0.073l0.067-0.28l-0.487-0.489l-0.518,0.102l0.077-0.32l-0.666-0.928l-0.385-0.006l0.027-0.528
		l0.833,0.46l1.948,1.962l1.308,1.231l0.084,0.251l-0.792-0.278l-0.242-0.139l-0.194-0.416l-0.631-0.527l-0.205,0.342l0.538,0.758
		l0.441,0.222l0.596,0.588l0.096,0.103l0.37,0.06l0.138-0.229l-0.144-0.53l0.75,0.544l1.13,1.091l-0.002,0.132l-0.39-0.089
		l-0.123,0.03l-0.092,0.327l0.715,0.313l0.045,0.225l0.083-0.055l-0.165-0.149l-0.038-0.325l-0.07-0.335l0.479,0.258l1.508,1.405
		l1.023,0.888l-0.327,0.339l-0.029-0.227l-0.09,0.042l0.168,0.158l0.048,0.252l0.414,0.369l0.237,0.133l0.682,0.045l-0.025,0.641
		l0.474,0.501l0.438,0.739l0.381,0.025l0.193-0.405l-0.038,0.023l0.496,0.146l1.512,1.283l0.866,0.696l1.227,0.948l0.153,0.513
		l-0.626,0.245l0.784,0.839l0.469-0.342l0.311,0.096l-0.054,0.389l0.257,0.245l0.516-0.097l-0.028-0.054l-0.365,0.719l0.724,0.65
		l0.839,0.722l0.804,0.595l0.63,0.01l0.078,0.653l0.699,0.513l0.129-0.008l0.442-0.474l-0.553-0.644l-0.004-0.253l-0.031,0.02
		l0.543,0.159l3.067,2.388l2.029,1.463l2.029,1.457l0.753,0.644l-0.556,0.547l-0.362-0.898l-0.374,0.039l-0.419,0.289l0.21-0.586
		l-0.763-0.502l0.025,0.054l-0.277-0.386l-0.494-0.141l-0.088-0.242l-1.02-0.723l-0.951-0.801l-0.847-0.471l-1.444-1.064
		l-0.236,0.062l-0.31,0.478l0.594,0.454l0.63,0.549l0.795,0.545l0.262-0.037l0.315-0.297l-0.018,0.481l0.262,0.429l0.251,0.076
		l0.425-0.121l0.123,0.529l0.653,0.49l0.306-0.226l0.354-0.143l-0.231,0.649l0.713,0.677l0.81,0.237l0.057,0.239l1.669,0.892
		l-0.027-0.045l0.094,0.246l0.764,0.307l0.395-0.118l0.332,0.561l0.639,0.031l0.078,0.436l0.422,0.256l0.549-0.149l0.201,0.177
		l0.267,0.508l0.338,0.13l0.559-0.352l-0.568-0.494l-0.793-0.396l0.062-0.25l0.117-0.047l0.329,0.262l0.874,0.316l0.356,0.323
		l0.896,0.336l0.128,0.104l1.014,0.276l0.264,0.05l0.297,0.299l0.654,0.037l0.066-0.945l-0.661-0.193l-0.808,0.186l-0.188-0.3
		l0.198-0.286l-0.583-0.212l-0.389,0.34l-0.547-0.255l0.216-0.308l-0.489-0.725l0.143-0.038l0.874,0.278l0.387,0.316l1.047,0.383
		l0.688,0.131l0.26-0.251l-0.062-0.556l0.374-0.665l-0.233-0.703l0.317-1.064l0.177-0.197l0.265,0.025l0.419,0.944l-0.388,0.626
		l0.108,0.51l-0.192,0.564l0.108,0.2l0.697-0.841l0.794-0.967l0.29-0.29l0.275-0.304l0.392-0.066l0.272,0.35l0.365,0.131
		l-0.088,0.361l0.287,0.424l-0.506,0.814l-0.445,0.167l-0.086,0.958l0.044-0.027l-0.503-0.115l-0.215-0.301l0.001-0.517
		l-0.171-0.161l-0.018-0.24l-0.094,0.034l0.164,0.178l-0.109,0.374l-0.397,0.27l0.096,0.391l0.689,0.263l0.059,0.343l-0.558,0.607
		l0.744,0.335l0.789,0.584l-0.341,0.251l-0.889-0.61l-0.905,0.339l0.13,0.191l0.353,0.214l0.034,0.247l-0.306,0.269l0.017,0.368
		l0.379-0.003l0.199-0.363l0.23-0.095l0.205,0.156l0.107,0.408l0.396,0.037l0.348-0.584l1.027-0.163l-0.275-0.445l0.971,0.043
		l0.599-0.232l0.966,0.248l0.955,0.163l0.188-0.17l0.375,0.086l0.12-0.044l-0.095-0.169l-0.382,0.165l-0.645-0.668l0.128-0.031
		l0.682,0.133l1.914,0.204l-0.081-0.491l-0.892-0.261l-0.69,0.012l-0.359-0.593l-0.75-0.372l-0.779-0.583l0.23-0.037l0.757,0.34
		l1.003,0.313l0.398-0.447l0.341,1.025l0.58,0.188l0.214-0.086l-0.003-0.135l-0.575-0.778l-0.671-0.705l-0.102-0.38l-0.054,0.027
		l0.482,0.259l0.723,0.63l0.263-0.006l-0.015-0.392l0.185-0.206l0.151-0.385l0.324-0.189l-0.17-0.318l-0.051-0.255l-0.095,0.065
		l0.192,0.163l-0.171,0.583l-0.302-0.435l-0.284-1.138l-0.709-1.057l0.007-0.136l0.268-0.053l-0.193-0.184l-0.188-0.358l-0.002-0.27
		l-0.616-1.128l-0.055-0.427l-0.36-0.378l-0.358-0.43l-0.116,0.026l-0.449,0.718l0.373,0.53l0.152,0.357L98.574,90.3l-0.596,0.328
		l-0.219-0.037l-0.023-0.636l-0.566,0.009l-0.257-0.347l-0.243-0.319l-0.37,0.483l-0.488,0.111l-0.428-0.253l-0.231,0.486
		l-1.289,0.555l-0.205,0.637l-0.255-0.003l-0.331,0.223l0.304,0.792l-0.213,0.277l-0.298-0.13l-0.109-0.38l-0.362-0.422l0.068-0.553
		l-0.315-0.422l0.934,0.028l0.743-0.586l0.796-0.467l-0.482-0.65l-0.018-0.251l-0.044,0.028l0.435,0.076l0.448-0.258l-0.047-0.301
		l0.421-0.3l0.255,0.441l-0.163,0.346l0.84,0.167l-0.331-0.423l0.103-0.439l-0.067-0.251l-0.044-0.131l0.046-0.263l0.399-0.025
		l0.142,0.483l0.513,0.454l0.462-0.253l0.433-0.48l0.272-0.929l0.305-0.322l-0.073-0.268l-0.069-0.117l-0.473-0.023l-0.302,0.227
		l-0.457-0.459l0.316-0.425l-0.102-0.583l-0.013,0.008l0.989-0.316l0.21,0.855l0.446-0.263l-0.297-0.438l-0.392-0.136l0.003-0.245
		l-0.534-0.588l-0.04-0.244l0.237-0.114l-0.159-0.129l-0.229-0.357l-0.154,0.115l0.062,0.106l0.361,0.114l-0.085,0.316l-0.539-0.042
		l-0.299,0.287l-0.247-0.072l-0.037-0.729l-0.579-0.546l-1.07-0.9l-1.206-0.669l-0.171-0.139l-0.231-0.483l-0.559-0.317l-0.65-0.392
		l-0.848-0.795l-0.388-0.151l-0.238,0.091l0.327,0.277l0.048,0.253l0.02-0.012l-0.648-0.236l-0.068-0.112l-0.577-1.205L88.8,76.715
		l-0.854-0.312l-0.432,0.137l-0.234-0.095l0.07-0.229l0.099-0.1l-1.146-0.639l0.014,0.405l-0.434-0.072l-0.138-0.196l0.281-0.5
		l-0.743-0.536l-1.04-0.682L83.981,73.8l-0.179-0.033l-0.81,0.166l0.231,0.307l0.072,0.256l0.049-0.029l-0.405-0.098l-0.554-0.309
		l-0.572,1.097l-0.263-0.052l-0.069-0.253l0.168-0.67l-0.282-0.863l-0.517-0.436l-0.267-0.672l-0.124-0.021l-0.088-0.245
		l-0.044,0.083l0.164,0.145l-0.048,0.116l0.421,0.586l-0.314,0.396l0.316,0.29l-0.003,0.256l-0.333,0.085l-0.476-0.925l-0.706-0.461
		l-0.38,0.031l-0.2-0.371l0.543-0.427l0.456-0.295l-0.036-0.274L78.42,71.6l-0.259-0.234l0.178-0.259l-0.454-0.68l0.313-0.403
		l-0.048,0.028l0.394,0.322l0.484-0.512l-0.145-0.392l-0.475-0.242l-0.771-0.083l-0.172-0.456l-1.137-0.621l-0.225,0.287
		l0.138,0.216l0.339,0.225l-0.103,0.147l-0.853-0.431l-0.744-0.343l0.029,0.055l-0.073-0.248l-1.396-1.047l-0.453,0.327
		l-0.019-0.652l-0.611-0.607l-0.594-0.175l-0.416-0.389l-1.047-0.67l-0.189-0.328l0.346-0.17l0.111-0.361l-0.207-0.221l-0.375-0.158
		l-0.407,0.16l-0.392-0.085l0.116-0.397l-0.457-0.189l-0.396,0.084l0.015-0.538l-0.672-0.432h-0.112l-0.088,0.235l0.245,0.509
		l0.655,0.196l0.128,0.324l0.595,0.192l-0.081,0.303l-1.207-0.633l-1.051-0.624l-0.553,0.09l-0.06-0.467l-0.544-0.535l-0.964-0.755
		l0.06-0.411l1.11,0.8l0.387-0.278l-1.349-0.903l-0.153,0.371l-0.557-0.184l0.034,0.057l0.166-0.678l-0.52-0.5l-0.41-0.001
		l-0.387-0.565l-0.69-0.482l-0.362-0.004l-0.339-0.509l-0.527-0.403l-0.112,0.338l0.465,0.505l-0.056,0.215l-0.126,0.006
		l-1.417-1.121l0.512-0.124l0.098-0.247l-0.183-0.197L60.026,56.5l-0.134,0.079l-0.088,0.101l-0.169,0.198l-0.387-0.065
		l-1.375-0.938l-1.438-1.09l-0.522-0.457l-0.067-0.112l-0.012-0.14l0.266,0.066l0.354-0.271l-0.678-0.262l0.091,0.522l-0.634-0.287
		l-0.694-0.459l-0.771-0.584l0.053-0.353l0.459,0.262l0.215-0.094L54.5,52.48l-0.146-0.218l-0.564-0.23l-0.753-0.735l-0.679,0.246
		l-0.204-0.729l-0.832-0.6l-0.229,0.142l-0.204,0.111l-0.078-0.415l-0.865-0.514l-0.361,0.042l-0.729-0.497l-0.824-0.52l-0.825-0.51
		l-1.062-0.665l-0.725-0.623l-0.009-0.139l0.36-0.316l-1.114-0.667l0.046,0.51l-0.593-0.233l-0.164-0.311l0.354-0.402l-0.19-0.258
		l-0.689-0.017l-0.059,0.105l0.438,0.288l0.18,0.33l-1.346-0.705l-0.81-0.531l-1.245-0.776l0.197-0.666l-0.758-0.555l-0.469,0.139
		l-0.1,0.096l-0.092-0.007l-0.325-0.595l-0.26-0.633l-0.177-0.175l-0.272,0.068l-0.496-0.45l-0.483-0.252l-0.147-0.412l-0.626-0.516
		L36.187,39.6l0.451,0.796l-0.369,0.021l-0.446-0.327l-1.455-1.293l-0.256-0.055l0.018,0.73l0.836,0.619l0.704,0.632l-0.009,0.137
		l0.029-0.018l-0.727-0.332l-0.973-0.713l-0.385,0.065L33.5,40.226l0.038-0.022l-0.278-0.033l-0.342,0.292l1.254,2.143h-0.277
		l-0.446-0.535l-0.109-0.021l-0.104,0.085l-0.178,0.208l-0.191-0.282l0.233-0.319l-0.742-1.209l-0.375-0.152l-0.193-0.355
		l-0.038-0.238l-0.443-0.476l-0.046-0.355l-0.035,0.021l0.878-0.357l0.393,0.114l-0.188,1.046l0.524-0.92l-0.368-0.108l-0.033-0.232
		l-0.532-0.842l0.521,0.196l0.447,0.246l0.126-0.274l-1.09-1.046l-1.189-1.165l-1.181-0.953l-0.523-0.165l-0.426-0.289l0.467,0.264
		l0.034,0.246l1.178,1.104l0.087,0.242l-0.637-0.244l-0.658-0.295l-0.358-0.671l-0.561-0.336l-0.045-0.504l0.226-0.199l-0.276-0.431
		l-0.421-0.176l0.132-0.775l-0.383,0.035l-0.07-0.523l-0.527-0.212l-0.333-0.564l-0.652-0.044l-0.209-0.774l-0.606-0.372
		l-0.229-0.52l-0.37-0.14l-0.124-0.308l-0.343-0.118l-0.21-0.381l-0.246-0.051l-0.11-0.314l-0.357-0.113l0.032-0.129l-0.486-0.596
		l-0.174,0.104l0.665,0.598L23.24,28.4l0.238,0.06l0.115,0.308l0.354,0.118l0.218,0.371l0.241,0.058l-0.244,0.845l-0.465-0.25
		l-0.557-0.575l-0.481-0.197l-0.188-0.355l0.006-0.139L21.5,27.145l-0.17-0.496l0.563,0.017l-0.316-0.451l-0.261-0.022l0.048,0.514
		l-0.512-0.034l0.384,0.819l0.08,0.369l-0.581-0.17l-0.375-0.851l-0.728-0.831l-0.148,0.288l0.066,0.122l0.767,0.972l0.207,0.17
		l0.26,0.098l0.461,0.43l0.191,0.357l0.047,0.358l0.604,0.411l0.055,0.239l0.094-0.051l-0.199-0.159l-0.023-0.262l-0.072-0.393
		l0.578,0.166l0.182,0.358l0.267,0.598l1.206,1.308l0.724,1l0.203-0.172l0.149-0.528l0.405,0.17l0.217,0.452l-0.215,0.328
		l0.383,0.496l-0.576,0.008l0.283,0.441l0.404,0.138l0.018,0.253l0.333,0.428l1.237,1.619l0.02,0.256l-0.58-0.164l-0.188-0.349
		l-0.048-0.233l-0.085,0.052L27.042,35.365L27.042,35.365z M42.169,56.821l0.056,0.234l0.088-0.06l-0.197-0.146l-0.031-0.223
		L42,56.665L42.169,56.821L42.169,56.821z M79.626,70.155l0.398,0.275l-0.448-0.249l-0.026-0.22l-0.091,0.034L79.626,70.155
		L79.626,70.155z M34.123,38.068l-0.151-0.315l-0.243,0.037l0.069,0.106l0.371,0.146l0.053,0.23l0.089-0.052L34.123,38.068
		L34.123,38.068z M102.614,93.658l0.1-0.362l-0.205-0.26l0.094-0.393l-0.488-0.784l-0.131,0.238l0.572,0.915l-0.086,0.35
		l0.194,0.267l0.043,0.242l0.089-0.056L102.614,93.658L102.614,93.658z M103.828,92.542l0.135-0.668l-0.402-0.162l0.188,0.742
		l0.122,0.066l-0.024,0.533L103.828,92.542L103.828,92.542z M129.494,118.223l0.066,0.247l0.881,0.196l-0.09-0.106l-0.905-0.308
		l0.009-0.126l-0.5-0.305l-0.291,0.194l-0.385-0.151l-0.66-0.48l-2.297-1.997l-0.607-0.568l-0.39-0.123l0.009-0.237l-0.28-0.429
		l-0.38-0.111l-0.051-0.245l-0.108,0.05l0.207,0.169l-0.02,0.139l0.662,0.643l0.186,0.494l1.769,2.118l0.112,0.373l-0.577-0.365
		l-1.064-1.283l-1.18-1.366l-0.317-0.46l-0.816-1.126l-0.709-0.856l-1.423-1.552l-0.71-0.374l-0.062-0.243l-0.046,0.027l0.942,0.259
		l0.709,0.452l3.177,1.031l0.335,0.282l2.73,0.688l-0.095-0.102l-1.169-0.443l-0.577-0.4l-1.084-0.6l-1.204-0.402l-0.509-0.224
		l-1.13-0.532l-1.16-0.38l-0.391-0.328l-1.771-0.52l-0.774,0.18l0.286,0.466l1.224,1.337l1.318,1.44l2.752,3.652l1.364,0.963
		l0.435,0.574l1.792,1.425l0.743,0.219l0.285,0.321l0.11-0.053l-0.072-0.108l-0.367-0.134l-0.042-0.251l-0.708-0.662l-0.28-0.608
		l0.383,0.17l0.401,0.391l2.662,2.007l1.073,0.645l1.112,0.569l1.496,0.393l0.421,0.024l0.346-0.234l-0.073-0.125l-0.8-0.549
		l-0.388-0.163l-1.496-0.738l-1.074-0.629l-1.086-0.616l-0.123-0.063l-0.596-0.578l-0.017-0.138L129.494,118.223L129.494,118.223z
		 M131.718,119.501l-0.058-0.245l-0.908-0.201l1.007,0.421l0.048,0.24l0.947,0.192L131.718,119.501L131.718,119.501z
		 M130.138,112.877l-0.069-0.229l-0.866-0.207l0.979,0.409l0.132,0.327l0.635,0.191l0.124-0.049l-0.035-0.179L130.138,112.877
		L130.138,112.877z M34.902,38.554l-0.025,0.134l0.671,0.628l0.247-0.034l-0.933-0.705l-0.058-0.238l-0.094,0.056L34.902,38.554
		L34.902,38.554z M82.364,71.829l0.237,0.611l0.845,0.141l-1.129-0.72l-0.002-0.133l-0.658-0.269l0.197,0.469L82.364,71.829
		L82.364,71.829z M73.184,65.957l-0.042-0.244l-1.024-0.688l-1.08-0.828l-0.137,0.012l0.491,0.885l0.826,0.462l0.307,0.234
		l0.703,0.142l0.374,0.667l0.131,0.028l0.175-0.372L73.184,65.957L73.184,65.957z M101.9,90.22l-0.699-0.289l-0.15-0.683
		l-0.291-0.241l0.01-0.134l-0.783-0.865l-0.179,0.653l0.2,0.313l0.801,0.003l-0.183,0.62l0.387,0.596l0.509,0.789l0.164,0.508
		l0.356-0.166l0.03-0.804l0.219,0.16l0.174,0.214l0.249,0.074l0.166-0.329l-0.446-0.845L101.9,90.22L101.9,90.22z M100.845,87.822
		l-0.034,0.133l0.621,1.145l0.501,0.428l1.046-0.288l-0.492-0.789l-0.025-0.136l-0.568-0.451l-0.38,0.131l-0.7-0.152l-0.151-0.315
		l-0.234,0.036l0.062,0.104L100.845,87.822L100.845,87.822z M131.294,114.936l0.481,0.266l0.703,0.668l0.518,0.085l-0.001-0.245
		l-0.298-0.466l-1.519-1.195l-0.55-0.418l-0.713-0.294l-0.336-0.314l-0.65-0.24l-0.397-0.375l-1.097-0.321l-0.06-0.247l-1.077-0.635
		l-1.219-0.67l-1.216-0.682l-1.213-0.677l-0.46-0.307l-1.055-0.672l-0.722-0.42l-0.737-0.382l-1.112-0.57l-0.665-0.238l-0.509-0.383
		l-3.285-0.977l-0.126,0.052l-0.004,0.095l1.032,0.93l1.997,1.269l1.346,0.723l0.438,0.332l2.455,0.812l0.408,0.308l1.655,0.574
		l0.421,0.323l2.142,0.922l0.26,0.1l1.348,0.394l0.066,0.239l1.174,0.704l0.716,0.401l0.68,0.45l0.683,0.455l0.063,0.248
		l-1.133-0.369l-0.713-0.461l-0.19,0.087l0.293,0.292l0.046,0.252l-1.232-0.655l-1.18-0.422l-0.372-0.183l-0.748-0.367l-1.968-0.615
		l-0.504-0.401l-0.368-0.107l-0.271-0.076l-0.365,0.053l0.365,0.199l0.658,0.507l0.8,0.26l0.241,0.128l0.075,0.245l-0.807-0.071
		l0.317,0.456l0.81,0.762l0.822,0.751l0.887,0.668l0.992,0.756l0.714,0.425l0.81,0.531l0.96,0.549l1.636,1.029l0.423,0.068
		l-0.149-0.236l-2.732-2.573l-0.716-0.659l-0.777-0.575l-0.391-0.378l-0.013-0.137l0.636,0.271l1.305,1.021l4.386,4.058l0.272-0.014
		l-0.295-0.893l-0.232-0.495l-0.773-0.791l-1.465-1.479l-1.7-1.421l-0.083-0.245l0.852,0.295l1.696,1.577l0.867,0.906l0.466,0.517
		l0.96,1.016l0.507,0.462l0.354-0.114l0.197-0.667l-0.3-0.484l-0.404-0.161l-1.409-0.893l-0.567-0.597l-0.645-0.527l-0.344-0.434
		L131.294,114.936L131.294,114.936z M113.133,104.012l-0.978-0.661l-0.995-0.504l-0.337-0.245l-1.308-1.038l-0.909-0.869
		l-0.957-0.81l-1.286-1.07l-1.016-0.735l-0.112,0.027l-0.066,0.109l0.386,1.908l1.095,1.751l1.081,0.876l0.966,0.558l1.207,0.371
		l1.216,0.314l1.141,0.283l2.429,0.549l0.377,0.351l3.564,1.086l0.608,0.429l0.754,0.357l0.729,0.4l0.505,0.234l1.404,0.908
		l1.35,0.732l0.471,0.292l1.211,0.695l0.914,0.354l0.249,0.126l0.855,0.31l-0.166-0.371l-1.043-0.707l-1.044-0.686l-1.066-0.646
		l-0.945-0.587l-1.134-0.541l-0.462-0.339l-2.395-0.749l-0.428-0.366l-3.04-0.951l-0.349-0.321L113.133,104.012L113.133,104.012z
		 M90.235,97.373l-0.479,0.271l-0.225-0.033l-0.137-0.516l-0.686-0.201l-0.241,0.437l0.665,0.443l0.765,0.305l0.29-0.001
		l0.324-0.195l0.088-0.299L90.235,97.373L90.235,97.373z M66.27,81.032l-0.146,0.241l0.142,0.385l1.522,1.349l0.259-0.53
		l-0.291-0.252l-0.529-0.163l-0.194-0.549L66.27,81.032L66.27,81.032z M94.8,80.383L94.2,80.019l-0.407-0.569l-0.718-0.552
		l-0.214,0.225l1.752,1.528L94.8,80.383L94.8,80.383z M98.128,99.065l-0.633-0.125l-0.784,0.17l0.099,0.142l0.253,0.107l0.272,0.053
		l1.244-0.068l0.124-0.064l0.109-0.085l0.023-0.097l-0.101-0.083L98.128,99.065L98.128,99.065z M90.424,76.961l-1.005-0.658
		l-0.46-0.023l1.073,0.982l0.128,0.045l0.279-0.2L90.424,76.961L90.424,76.961z M81.797,73.107l0.565,0.245l0.553,0.043l0.066-0.076
		l-0.015-0.138l-0.934-0.556L81.797,73.107L81.797,73.107z M86.111,74.155l0.237,0.701l0.565,0.374l0.275-0.06l-0.17-0.366
		L86.111,74.155L86.111,74.155z M92.319,98.634l-0.028-0.369l-0.909-0.146l0.032,0.351L92.319,98.634L92.319,98.634z M87.745,96.495
		l-0.126,0.43l0.175,0.206l0.255-0.014l0.057-0.653L87.745,96.495L87.745,96.495z M101.876,87.163l-0.244-0.487l-0.439,0.284
		l0.447,0.494L101.876,87.163L101.876,87.163z M80.973,70.9l-0.64,0.249l0.462,0.503L80.973,70.9L80.973,70.9z M85.777,73.89
		l-0.742-0.378l-0.129,0.047l-0.025,0.231l0.452,0.357L85.777,73.89L85.777,73.89z M103.335,89.849l-0.165,0.197l0.153,0.787
		l0.349,0.022L103.335,89.849L103.335,89.849z M59.313,56.158l-0.505-0.539l-0.11,0.074l0.101,0.438L59.313,56.158L59.313,56.158z
		 M58.024,73.911l0.332,0.522l0.251-0.022l0.06-0.235L58.024,73.911L58.024,73.911z M57.678,55.043l0.065,0.263l0.07,0.117
		l0.341,0.173l0.204-0.312L57.678,55.043L57.678,55.043z M67.07,62.108l0.166-0.28l-0.261-0.314l-0.128-0.04l-0.228,0.086
		l-0.019,0.132L67.07,62.108L67.07,62.108z M103.09,92.538l0.188-0.123l-0.147-0.808l-0.09-0.027l-0.198,0.338L103.09,92.538
		L103.09,92.538z M45.413,61.016l0.157-0.147l-0.499-0.717l-0.11,0.243L45.413,61.016L45.413,61.016z M65.801,80.524l-0.546-0.009
		l0.285,0.433l0.242,0.014l0.094-0.326L65.801,80.524L65.801,80.524z M103.47,93.334l-0.289,0.966l0.231,0.092l0.086-0.055
		L103.47,93.334L103.47,93.334z M46.911,47.232l-0.351-0.487l-0.248,0.038l-0.029,0.126l0.075,0.24L46.911,47.232L46.911,47.232z
		 M57.43,54.736l-0.328-0.459l-0.342-0.014l0.218,0.481L57.43,54.736L57.43,54.736z M84.515,73.169l-0.53-0.451L83.9,73.187
		L84.515,73.169L84.515,73.169z M41.65,43.975l0.122-0.325l-0.626-0.157L41.65,43.975L41.65,43.975z M90.917,77.732l0.307,0.217
		l0.116-0.036l0.084-0.23l-0.273-0.247l-0.199,0.134L90.917,77.732L90.917,77.732z M92.088,78.217l-0.196,0.192l0.125,0.324
		l0.318-0.129l0.047-0.153L92.088,78.217L92.088,78.217z M75.786,67.884l-0.154-0.318l-0.239,0.065L75.455,68L75.786,67.884
		L75.786,67.884z M98.984,87.852l0.132,0.035l0.37-0.154l0.075-0.194l-0.239-0.065l-0.368,0.175l-0.047,0.096L98.984,87.852
		L98.984,87.852z M88.421,75.823l-0.542-0.279l-0.112,0.063l0.007,0.087l0.447,0.229L88.421,75.823L88.421,75.823z M55.496,53.316
		l-0.254-0.408l-0.097-0.021l-0.144,0.225l0.073,0.109L55.496,53.316L55.496,53.316z M128.434,113.396l-0.42-0.24l-0.181,0.083
		l0.089,0.098L128.434,113.396L128.434,113.396z M42.639,44.568l0.211-0.258l-0.433-0.189L42.639,44.568L42.639,44.568z
		 M74.702,67.264l0.122-0.059l0.018-0.115l-0.119-0.24l-0.22-0.064l-0.096,0.234L74.702,67.264L74.702,67.264z M96.987,98.595
		l-0.438-0.246l-0.183,0.093l0.09,0.103L96.987,98.595L96.987,98.595z M99.539,86.418l0.153,0.189l0.242,0.014l0.031-0.219
		l-0.233-0.31l-0.116,0.078L99.539,86.418L99.539,86.418z M95.687,81.176l-0.68-0.175L95.687,81.176L95.687,81.176z M103.074,96.614
		l0.147-0.195l-0.07-0.146l-0.078,0.091L103.074,96.614L103.074,96.614z M99.09,98.702l0.118,0.011l0.083-0.047L99.22,98.57
		l-0.234,0.003L99.09,98.702L99.09,98.702z M95.532,99.028l0.446,0.136L95.532,99.028L95.532,99.028z M92.093,96.093l0.19-0.177
		l0.013-0.125l-0.065-0.116l-0.187,0.158L92.093,96.093L92.093,96.093z M91.759,97.243l0.264-0.368l-0.139-0.142l-0.101,0.062
		L91.759,97.243L91.759,97.243z M9.438,13.669l0.187,0.154l0.166-0.096l-0.178-0.142L9.438,13.669L9.438,13.669z M112.877,104.986
		l0.055,0.105l0.117-0.032l-0.064-0.099L112.877,104.986L112.877,104.986z M103.132,95.498l0.09-0.056l-0.032-0.101l-0.084,0.058
		L103.132,95.498L103.132,95.498z M101.177,92.138l-0.071,0.052l0.078,0.037L101.177,92.138L101.177,92.138z M98.99,86.863
		l-0.073-0.076l-0.033,0.083L98.99,86.863L98.99,86.863z M96.933,88.858l-0.063-0.062l-0.104,0.045l0.051,0.1L96.933,88.858
		L96.933,88.858z M93.991,93.705l0.124-0.061l-0.067-0.116l-0.133,0.102L93.991,93.705L93.991,93.705z M48.984,48.708l0.056,0.098
		l0.105-0.035l-0.056-0.094L48.984,48.708L48.984,48.708z M48.147,48.181l-0.053-0.099l-0.054,0.139L48.147,48.181L48.147,48.181z
		 M47.565,47.808l0.125-0.045l-0.065-0.102l-0.111,0.039L47.565,47.808L47.565,47.808z M130.25,121.021l0.076-0.055l-0.095-0.041
		L130.25,121.021L130.25,121.021z M128.063,111.211l0.073,0.068l0.027-0.071L128.063,111.211L128.063,111.211z M33.086,37.236
		l-0.082,0.062l0.103,0.042L33.086,37.236L33.086,37.236z M32.144,36.372l-0.078,0.065l0.085,0.037L32.144,36.372L32.144,36.372z
		 M31.588,35.981l0.087,0.081l0.033-0.083L31.588,35.981L31.588,35.981z M28.695,33.388l-0.074-0.07l-0.028,0.066L28.695,33.388
		L28.695,33.388z M26.2,34.396l0.068,0.068l0.029-0.067L26.2,34.396L26.2,34.396z M22.896,30.208l-0.047-0.09l-0.05,0.122
		L22.896,30.208L22.896,30.208z M19.136,24.402l0.043,0.101l0.101-0.043l-0.049-0.092L19.136,24.402L19.136,24.402z M18.043,22.409
		l0.083-0.068l-0.099-0.04L18.043,22.409L18.043,22.409z M17.056,22.051l-0.076-0.073l-0.03,0.071L17.056,22.051L17.056,22.051z
		 M15.837,20.887l0.054-0.138l-0.103,0.039L15.837,20.887L15.837,20.887z M15.396,20.44l0.075-0.055l-0.086-0.037L15.396,20.44
		L15.396,20.44z M10.416,14.457l-0.071,0.059l0.078,0.034L10.416,14.457L10.416,14.457z"/>
	<path fill="#232734" d="M60.447,63.352l-0.207,0.961l0.217,0.494l0.352-0.022l0.027-0.679l0.45-0.146l0.272,0.265l0.28-0.105
		l0.305,0.329L62.1,64.601l-0.517,0.133l-0.186,0.441l-0.562,0.535l-0.702,0.024l0.518,0.589l0.583-0.028l0.203,0.579l-0.136,0.633
		l-0.484,0.282l-0.975-0.065l-0.023,0.815l-0.22,0.118l-0.127-0.051l-0.09-0.098l-0.319-0.915l0.746-0.447l-0.845-0.7l0.023,0.044
		l-0.103-0.397l-0.211-0.343l0.195-0.705l0.576-0.41l0.461-1.066l0.571-0.16L60.447,63.352L60.447,63.352z M60.821,66.878
		l-0.262-0.288l-0.404,0.073l0.469,0.505L60.821,66.878L60.821,66.878z"/>
	<polygon fill="#232734" points="70.197,84.158 70.145,83.917 69.962,84.084 69.467,83.915 69.245,83.522 69.291,83.263 
		69.785,83.266 69.366,82.415 69.329,82.036 70.061,81.566 68.828,80.417 68.768,80.17 68.718,80.198 69.178,80.333 69.367,80.446 
		70.088,81.106 71.02,81.709 71.832,82.294 72.083,82.769 72.206,82.871 72.65,82.544 73.032,82.633 73.001,82.59 73.082,83.367 
		73.407,84.212 73.451,84.185 73.047,84.133 72.604,84.47 71.8,83.755 71.09,83.7 70.871,83.049 70.395,82.831 70.624,83.591 
		70.558,84.026 70.197,84.158 	"/>
	<polygon fill="#232734" points="61.748,59.959 62.25,60.107 63.257,60.97 64.135,61.228 64.496,61.834 65.019,62.281 
		65.587,62.221 65.802,62.593 66.104,64.083 65.838,64.354 65.535,64.287 64.741,63.178 64.717,62.768 64.442,62.529 63.663,62.841 
		63.42,62.315 63.739,61.832 63.31,61.557 62.686,61.836 62.544,62.238 62.595,62.213 62.19,62.125 62.124,61.769 62.526,61.37 
		62.602,60.99 61.838,60.181 61.792,59.932 61.748,59.959 	"/>
	<polygon fill="#232734" points="44.665,57.265 44.085,56.92 43.967,56.537 44.069,56.172 43.967,55.606 43.965,55.607 
		44.207,55.505 44.462,55.036 45.261,54.958 44.858,54.267 44.375,53.609 44.353,53.353 44.312,53.378 44.691,53.538 45.66,54.706 
		46.082,55.275 45.859,55.6 45.478,55.767 45.142,56.645 45.914,57.674 45.929,57.936 45.915,57.944 45.365,57.76 45.393,57.805 
		45.178,57.408 45.208,57.456 44.707,57.019 44.671,56.773 44.569,56.823 44.754,56.993 44.634,57.283 44.665,57.265 	"/>
	<path fill="#232734" d="M94.434,91.552l0.221-0.642l0.283-0.129l0.92,0.271l0.203-0.12l-0.6-0.375l-0.026-0.374l0.404-0.312
		l0.282,0.395l0.263-0.069l0.707,0.244l0.157,0.362l-0.117,0.264L96.96,91.27l0.272,0.31l-0.079,0.361l-0.534,0.11l-0.492,0.18
		l-0.611-0.344l-0.319,0.188L94.434,91.552L94.434,91.552z M96.389,91.463l0.131-0.049l-0.078-0.111l-0.127,0.043L96.389,91.463
		L96.389,91.463z"/>
	<polygon fill="#232734" points="76.492,76.858 76.317,77.06 76.049,77.357 75.814,77.388 75.861,77.482 76.02,77.303 
		76.396,77.478 76.63,78.253 76.42,78.558 76.17,78.487 76.082,78.385 75.906,78.206 75.248,77.975 75.258,77.994 75.197,77.193 
		75.598,76.63 75.428,76.343 75.299,76.345 74.914,76.707 74.673,76.536 74.65,76.281 75.792,75.58 76.039,75.776 76.472,75.727 
		76.976,76.153 76.958,76.119 77.174,76.512 77.149,76.473 77.241,76.982 76.555,76.965 76.44,76.889 76.388,76.659 76.309,76.719 
		76.492,76.858 	"/>
	<polygon fill="#232734" points="50.551,52.231 49.898,52.04 49.882,51.349 48.933,51.015 48.608,52.15 48.386,53.015 48.117,52.9 
		48.057,52.514 48.058,52.103 48.043,51.673 48.384,51.227 48.505,50.176 48.478,50.194 49.589,50.689 52.175,52.477 52.873,53.105 
		52.862,53.241 52.892,53.222 52.174,52.903 51.093,52.144 50.591,51.987 50.165,51.703 50.62,51.97 50.501,52.258 50.551,52.231 	
		"/>
	<polygon fill="#232734" points="73.539,81.904 74.073,81.007 73.667,80.582 74.055,79.947 74.388,79.084 74.641,78.998 
		74.778,79.031 74.774,79.687 74.895,80.091 74.843,80.982 74.324,81.348 74.717,82.345 74.082,82.527 73.923,82.015 73.512,81.855 
		73.539,81.904 	"/>
	<polygon fill="#232734" points="77.757,75.514 78.072,75.301 78.767,75.678 79.048,75.646 79.502,76.079 79.248,76.671 
		79.568,77.082 79.079,77.523 78.874,77.07 78.569,77.241 78.742,78.049 78.507,78.332 78.103,78.213 78.128,78.267 78.189,77.882 
		77.99,77.586 78.017,77.639 77.896,76.971 78.153,76.701 78.355,76.115 77.732,75.463 77.757,75.514 	"/>
	<polygon fill="#232734" points="49.668,66.107 49.498,65.741 49.783,65.431 49.723,64.901 50.108,65.064 50.612,65.543 
		51.802,66.909 53.057,68.224 53.519,68.745 53.56,69.006 52.857,68.696 52.575,68.294 51.747,67.597 51.4,67.03 50.945,66.531 
		50.131,66.529 50.245,65.755 49.668,66.107 	"/>
	<path fill="#232734" d="M92.129,82.756l0.472-0.188l0.254,0.233l0.869,0.353l0.924,0.812l0.402-0.097l0.55,0.138l0.279,0.432
		l-0.176,0.238l0.016,0.109l0.675,0.694l-0.084,0.081l-0.285-0.009l-1.063-0.855l-0.969-0.787l-0.216-0.168l-1.448-0.809
		L92.129,82.756L92.129,82.756z M95.188,84.259l0.083,0.077l0.03-0.076L95.188,84.259L95.188,84.259z"/>
	<polygon fill="#232734" points="80.392,75.852 80.178,75.113 79.025,74.645 78.749,74.199 79.079,73.702 78.972,73.319 
		79.204,73.053 79.82,73.791 80.3,74.458 80.69,74.603 80.826,74.834 80.822,75.792 80.497,75.93 80.392,75.852 	"/>
	<polygon fill="#232734" points="75.313,79.04 75.747,78.789 76.02,79.117 76.028,79.405 76.244,80.547 75.659,81.752 
		75.771,82.143 75.431,82.532 75.17,82.351 75.304,81.724 75.202,81.278 75.614,80.564 75.323,80.25 75.277,80.166 75.326,79.621 
		75.313,79.04 	"/>
	<polygon fill="#232734" points="42.487,53.69 42.172,53.437 41.094,52.154 39.892,50.604 39.073,49.32 39.108,49.186 39.09,49.196 
		39.348,49.272 39.557,49.46 40.89,51.046 42.527,53.335 42.45,53.71 42.487,53.69 	"/>
	<polygon fill="#232734" points="55.616,61.943 55.233,61.793 54.423,61.028 53.042,59.87 51.791,58.762 51.163,58.121 
		51.645,58.19 51.977,58.436 53.979,60.152 55.495,61.59 55.583,61.962 55.616,61.943 	"/>
	<polygon fill="#232734" points="46.879,49.733 45.676,49.102 44.622,48.467 44.466,48.259 45.458,48.447 46.341,49.196 
		46.595,49.24 46.622,49.027 46.592,48.891 46.834,48.866 47.615,49.412 48.403,49.953 48.478,50.194 48.505,50.176 47.83,50.032 
		47.165,50.075 46.854,49.684 47.25,49.767 47.373,49.711 47.302,49.599 46.879,49.733 	"/>
	<polygon fill="#232734" points="63.172,63.198 63.833,63.245 64.037,63.728 64.328,63.748 64.376,64.435 64.822,64.7 
		65.405,65.465 64.736,65.453 64.228,64.813 63.406,64.374 63.281,63.985 63.214,63.584 63.172,63.198 	"/>
	<polygon fill="#232734" points="77.732,75.463 77.695,76.255 77.149,76.473 77.174,76.512 76.958,76.119 76.976,76.153 
		77.014,75.742 76.751,75.285 76.47,75.333 76.264,74.864 76.485,74.705 77.958,74.402 78.218,74.668 78.113,74.91 77.851,74.963 
		77.557,75.192 77.757,75.514 77.732,75.463 	"/>
	<polygon fill="#232734" points="61.681,65.112 62.575,64.875 63.038,65.124 63.419,66.155 63.095,66.461 62.939,66.417 
		62.856,65.889 62.495,65.498 62.188,65.656 62.252,66.193 62.015,66.472 61.575,65.853 61.681,65.112 	"/>
	<polygon fill="#232734" points="57.751,67.557 57.6,68.2 57.945,68.645 57.5,68.938 57.104,68.97 56.465,69.128 56.384,69.236 
		56.43,69.217 55.844,69.044 55.875,69.092 55.751,68.571 55.994,68.283 56.243,68.364 56.339,68.458 56.428,68.564 57.178,68.415 
		57.134,67.875 57.415,67.478 57.789,67.609 57.751,67.557 	"/>
	<polygon fill="#232734" points="36.118,41.293 36.619,41.441 36.753,41.522 37.535,42.275 38.441,42.863 39.194,43.429 
		39.246,43.54 39.228,43.674 39.271,43.647 38.86,43.599 38.467,43.956 38.427,43.324 37.894,42.912 37.48,42.557 36.145,41.405 
		36.156,41.27 36.118,41.293 	"/>
	<polygon fill="#232734" points="94.78,82.509 93.996,82.279 92.136,80.818 91.623,80.279 92.03,80.293 92.723,80.739 
		93.169,81.063 94.729,82.401 94.732,82.539 94.78,82.509 	"/>
	<polygon fill="#232734" points="72.738,81.622 71.744,81.573 71.492,80.806 71.773,80.292 72.288,80.68 72.696,80.773 
		73.004,81.256 72.688,81.653 72.738,81.622 	"/>
	<polygon fill="#232734" points="71.603,67.451 71.924,67.33 72.406,67.584 74.454,68.966 74.526,69.168 74.404,69.216 
		74.007,69.111 73.758,68.993 72.263,68.013 71.603,67.451 	"/>
	<polygon fill="#232734" points="39.228,43.674 40,43.901 40.972,44.736 41.579,44.99 42.088,45.462 42.069,45.556 41.252,45.132 
		39.757,44.241 39.269,43.783 39.271,43.647 39.228,43.674 	"/>
	<polygon fill="#232734" points="94.558,85.135 95.134,85.267 96.066,86.16 96.921,86.417 97.068,86.625 96.846,86.932 
		96.582,86.903 95.809,86.34 94.603,85.243 94.606,85.107 94.558,85.135 	"/>
	<polygon fill="#232734" points="36.833,43.854 37.207,44.008 39.042,46.007 39.067,46.259 39.093,46.243 38.708,46.111 
		38.613,46.015 36.971,44.194 36.876,43.827 36.833,43.854 	"/>
	<polygon fill="#232734" points="64.257,60.359 64.365,60.897 63.817,60.83 63.371,60.24 62.555,59.778 62.072,59.369 62.034,59.12 
		61.986,59.15 62.825,59.397 62.799,59.352 62.97,59.699 63.341,59.838 63.747,59.744 63.829,60.146 64.292,60.416 64.257,60.359 	
		"/>
	<polygon fill="#232734" points="47.894,60.263 47.332,60.093 47.356,60.145 47.029,59.483 46.673,59.316 46.698,59.36 
		46.483,58.965 46.511,59.011 46.021,58.537 46.046,58.583 45.834,58.194 45.853,58.227 45.915,57.944 45.929,57.936 46.186,58.023 
		47.868,60.03 47.857,60.285 47.894,60.263 	"/>
	<polygon fill="#232734" points="60.478,63.409 60.623,63.002 61.567,62.261 61.83,62.365 61.716,63.147 61.694,63.162 
		61.093,63.542 60.447,63.352 60.478,63.409 	"/>
	<polygon fill="#232734" points="75.913,69.645 75.983,69.89 77.381,70.727 77.495,70.905 77.365,70.964 76.247,70.476 
		75.773,70.218 75.216,69.828 74.894,69.459 75.94,69.701 75.913,69.645 	"/>
	<polygon fill="#232734" points="75.248,77.975 74.879,78.691 74.637,78.62 74.429,78.092 73.754,77.783 73.675,77.412 
		73.899,77.092 74.175,77.131 74.357,77.643 75.258,77.994 75.248,77.975 	"/>
	<polygon fill="#232734" points="57.789,67.609 57.5,67.188 57.526,66.728 57.649,66.674 58.081,66.712 58.614,66.35 58.988,66.491 
		58.964,66.447 58.748,66.93 58.455,67.209 57.751,67.557 57.789,67.609 	"/>
	<polygon fill="#232734" points="40.646,47.893 40.904,47.974 42.581,49.59 42.676,49.958 42.703,49.943 42.317,49.803 
		40.736,48.253 40.666,47.88 40.646,47.893 	"/>
	<polygon fill="#232734" points="61.716,63.147 62.316,62.872 62.595,62.213 62.544,62.238 62.938,62.635 62.844,63.048 
		62.272,63.806 61.961,63.752 61.679,63.298 61.694,63.162 61.716,63.147 	"/>
	<polygon fill="#232734" points="56.693,70.169 56.522,70.352 56.272,70.284 55.078,68.96 55.071,68.824 55.024,68.852 
		55.875,69.092 55.844,69.044 55.995,69.355 56.43,69.217 56.384,69.236 56.57,69.785 56.714,70.219 56.693,70.169 	"/>
	<polygon fill="#232734" points="41.717,50.255 41.968,50.334 43.204,51.917 43.201,52.167 43.229,52.15 42.979,52.07 
		42.028,50.958 41.706,50.382 41.725,50.251 41.717,50.255 	"/>
	<polygon fill="#232734" points="73.08,78.592 73.138,78.324 73.585,78.166 73.913,79.214 73.852,79.463 73.484,79.452 
		73.08,78.592 	"/>
	<polygon fill="#232734" points="59.801,72.593 60.437,72.836 61.22,73.383 61.951,73.963 61.3,73.842 59.821,72.7 59.843,72.567 
		59.801,72.593 	"/>
	<polygon fill="#232734" points="95.176,92.024 95.549,92.116 95.731,92.329 96.077,93.015 95.836,93.348 95.5,93.188 95.33,92.993 
		95.206,92.946 95.211,92.812 95.176,92.024 	"/>
	<polygon fill="#232734" points="46.042,53.015 46.314,53.123 46.549,53.604 45.982,54.132 45.695,53.729 46.042,53.015 	"/>
	<polygon fill="#232734" points="89.177,80.582 88.66,80.405 87.253,79.266 87.665,79.295 89.146,80.471 89.137,80.607 
		89.177,80.582 	"/>
	<polygon fill="#232734" points="47.191,52.957 46.733,52.355 46.812,52.093 47.249,51.88 47.191,52.957 	"/>
	<polygon fill="#232734" points="53.078,65.598 52.827,65.515 51.503,64.208 51.506,63.963 51.473,63.985 51.726,64.059 
		53.041,65.375 53.044,65.62 53.078,65.598 	"/>
	<polygon fill="#232734" points="57.419,69.838 57.511,69.459 58.161,69.278 58.752,69.148 58.906,69.438 58.691,69.683 
		58.444,69.779 57.647,69.886 57.389,69.793 57.419,69.838 	"/>
	<polygon fill="#232734" points="73.407,84.212 74.039,84.447 74.631,85.011 74.752,85.25 74.744,85.359 73.951,85.22 
		73.811,85.003 73.488,84.43 73.451,84.185 73.407,84.212 	"/>
	<polygon fill="#232734" points="79.647,88.972 80.756,89.468 81.593,89.906 81.652,90.143 81.681,90.125 81.152,89.987 
		80.208,89.461 79.739,89.192 79.681,88.951 79.647,88.972 	"/>
	<polygon fill="#232734" points="49.151,58.9 49.514,59.055 50.459,60.204 50.458,60.453 50.476,60.442 50.221,60.366 
		49.149,59.012 49.181,58.881 49.151,58.9 	"/>
	<polygon fill="#232734" points="45.968,58.822 45.592,58.679 44.634,57.396 44.665,57.265 44.634,57.283 45.208,57.456 
		45.178,57.408 45.393,57.805 45.365,57.76 45.853,58.227 45.834,58.194 46.046,58.583 46.021,58.537 45.938,58.839 45.968,58.822 	
		"/>
	<polygon fill="#232734" points="78.103,78.213 77.948,78.634 77.624,78.687 77.323,77.927 77.661,77.535 78.017,77.639 
		77.99,77.586 77.914,77.976 78.128,78.267 78.103,78.213 	"/>
	<polygon fill="#232734" points="94.119,88.775 93.306,88.363 92.517,87.652 92.459,87.414 92.418,87.439 92.979,87.603 
		94.008,88.562 94.075,88.803 94.119,88.775 	"/>
	<polygon fill="#232734" points="78.597,73.41 78.52,73.821 78.17,73.854 77.718,73.012 78.193,72.991 78.597,73.41 	"/>
	<polygon fill="#232734" points="53.676,63.461 54.189,63.612 55.048,64.491 55.062,64.744 55.094,64.723 54.725,64.596 
		53.718,63.567 53.717,63.437 53.676,63.461 	"/>
	<polygon fill="#232734" points="49.759,64.957 49.285,64.679 48.929,64.559 48.379,64.539 48.525,64.157 48.75,64.072 
		49.387,64.251 49.72,64.704 49.759,64.957 	"/>
	<polygon fill="#232734" points="42.676,49.958 42.935,50.042 44.005,51.082 43.731,51.125 42.678,50.078 42.703,49.943 
		42.676,49.958 	"/>
	<polygon fill="#232734" points="87.996,77.597 86.527,76.714 86.54,76.582 86.501,76.605 87.312,76.842 87.931,77.373 
		87.958,77.622 87.996,77.597 	"/>
	<polygon fill="#232734" points="87.402,92.285 86.064,91.537 86.834,91.71 87.402,92.285 	"/>
	<polygon fill="#232734" points="42.901,55.822 42.195,54.996 42.238,54.913 42.365,54.898 43.151,55.65 43.159,55.86 
		42.901,55.822 	"/>
	<polygon fill="#232734" points="81.218,77.636 82.305,78.384 82.281,78.734 81.218,77.636 	"/>
	<polygon fill="#232734" points="52.862,53.241 53.603,53.458 54.236,54.036 54.081,54.129 53.825,54.042 52.929,53.457 
		52.892,53.222 52.862,53.241 	"/>
	<polygon fill="#232734" points="86.842,81.182 86.995,81.584 86.479,81.538 85.881,80.968 86.842,81.182 	"/>
	<polygon fill="#232734" points="35.768,42.615 35.39,42.477 34.651,41.674 34.63,41.423 34.625,41.426 34.877,41.504 
		35.625,42.263 35.724,42.638 35.768,42.615 	"/>
	<polygon fill="#232734" points="47.373,53.953 47.455,54.479 47.005,54.753 46.747,54.629 46.782,53.991 47.391,53.983 
		47.373,53.953 	"/>
	<polygon fill="#232734" points="49.181,58.881 48.926,58.806 48.053,57.807 48.073,57.674 48.028,57.703 48.284,57.779 
		49.168,58.766 49.151,58.9 49.181,58.881 	"/>
	<polygon fill="#232734" points="39.526,46.691 39.857,46.81 40.598,47.649 40.646,47.893 40.666,47.88 39.868,47.394 
		39.523,46.801 39.561,46.669 39.526,46.691 	"/>
	<polygon fill="#232734" points="71.476,84.814 72.117,85.457 71.671,85.738 71.428,85.582 71.511,84.793 71.476,84.814 	"/>
	<polygon fill="#232734" points="47.391,53.983 47.324,53.461 47.709,53.268 47.956,53.575 47.631,54.016 47.373,53.953 
		47.391,53.983 	"/>
	<polygon fill="#232734" points="47.363,50.81 47.573,51.187 47.076,51.522 46.846,51.092 47.363,50.81 	"/>
	<polygon fill="#232734" points="85.579,93.303 85.627,92.953 85.987,92.978 86.46,93.454 85.579,93.303 	"/>
	<polygon fill="#232734" points="82.938,76.153 83.524,76.773 83.048,76.707 82.32,76.132 82.938,76.153 	"/>
	<polygon fill="#232734" points="36.364,45.468 37.152,46.353 37.116,46.452 36.991,46.469 36.865,46.413 36.372,45.585 
		36.395,45.45 36.364,45.468 	"/>
	<polygon fill="#232734" points="73.512,81.855 73.392,82.349 73.001,82.59 73.032,82.633 72.963,82.383 72.738,81.622 
		72.688,81.653 73.539,81.904 73.512,81.855 	"/>
	<polygon fill="#232734" points="68.427,80.843 67.632,80.338 67.953,80.264 68.427,80.843 	"/>
	<polygon fill="#232734" points="58.6,71.662 59.802,72.46 59.801,72.593 59.843,72.567 59.006,72.145 58.536,71.884 58.566,71.941 
		58.649,71.634 58.6,71.662 	"/>
	<polygon fill="#232734" points="93.639,91.286 94.483,91.527 94.37,91.764 93.83,91.957 93.598,91.544 93.639,91.286 	"/>
	<polygon fill="#232734" points="58.446,67.804 58.874,68.385 58.766,68.474 58.473,68.581 58.174,68.124 58.446,67.804 	"/>
	<polygon fill="#232734" points="51.037,64.848 51.556,64.913 51.881,65.484 51.728,65.688 51.037,64.848 	"/>
	<polygon fill="#232734" points="90.291,93.813 89.395,93.55 89.542,93.089 90.235,93.706 90.241,93.84 90.291,93.813 	"/>
	<polygon fill="#232734" points="74.358,87.095 73.969,87.003 73.455,86.439 73.659,86.387 74.332,86.984 74.327,87.115 
		74.358,87.095 	"/>
	<polygon fill="#232734" points="77.457,74.129 77.063,74.129 76.848,73.816 77.127,73.586 77.262,73.605 77.457,74.129 	"/>
	<polygon fill="#232734" points="74.107,83.201 73.782,83.705 73.522,83.23 74.107,83.201 	"/>
	<polygon fill="#232734" points="59.36,69.367 59.844,69.136 60.036,69.591 59.939,69.683 59.429,69.563 59.36,69.367 	"/>
	<polygon fill="#232734" points="40.032,52.082 39.177,51.828 39.205,51.878 39.379,51.309 39.335,51.334 39.984,52.107 
		40.032,52.082 	"/>
	<polygon fill="#232734" points="61.887,66.852 62.55,67.109 62.075,67.354 61.887,66.852 	"/>
	<polygon fill="#232734" points="87.484,87.002 87.35,87.038 86.667,86.429 87.484,87.002 	"/>
	<polygon fill="#232734" points="63.718,64.965 63.976,65.214 63.898,65.589 63.692,65.653 63.718,64.965 	"/>
	<polygon fill="#232734" points="56.714,70.219 57.419,69.838 57.389,69.793 57.496,70.185 57.493,70.448 57.534,70.422 
		57.043,70.527 56.693,70.169 56.714,70.219 	"/>
	<polygon fill="#232734" points="50.547,63.128 50.803,63.207 51.473,63.852 51.472,63.985 51.506,63.963 50.598,63.347 
		50.586,63.106 50.547,63.128 	"/>
	<polygon fill="#232734" points="60.943,68.629 60.588,68.683 60.509,68.583 60.696,68.158 60.943,68.629 	"/>
	<polygon fill="#232734" points="58.536,71.884 58.359,72.252 58.107,72.279 58.001,72.064 58.164,71.872 58.566,71.941 
		58.536,71.884 	"/>
	<polygon fill="#232734" points="62.034,59.12 61.041,58.707 61.967,59.019 61.986,59.15 62.034,59.12 	"/>
	<polygon fill="#232734" points="53.971,66.477 54.629,67.117 54.613,67.254 54.66,67.228 53.971,66.577 54.008,66.453 
		53.971,66.477 	"/>
	<polygon fill="#232734" points="53.346,56.201 52.948,55.883 52.91,55.686 53.039,55.659 53.294,55.738 53.346,56.201 	"/>
	<polygon fill="#232734" points="46.619,59.601 45.94,58.947 45.968,58.822 45.938,58.839 46.511,59.011 46.483,58.965 
		46.698,59.36 46.673,59.316 46.593,59.615 46.619,59.601 	"/>
	<polygon fill="#232734" points="44.812,47.149 45.286,47.587 44.959,47.682 44.696,47.408 44.812,47.149 	"/>
	<polygon fill="#232734" points="78.644,88.386 79.515,88.655 79.647,88.972 79.681,88.951 78.817,88.682 78.678,88.365 
		78.644,88.386 	"/>
	<polygon fill="#232734" points="83.28,81.365 82.729,80.968 82.774,80.888 82.895,80.876 83.106,81.014 83.28,81.365 	"/>
	<polygon fill="#232734" points="82.686,90.709 81.811,90.442 81.681,90.125 81.652,90.143 82.51,90.418 82.647,90.733 
		82.686,90.709 	"/>
	<polygon fill="#232734" points="37.038,48.429 37.654,48.947 37.286,48.909 37.038,48.429 	"/>
	<polygon fill="#232734" points="75.463,86.5 75.776,86.412 75.83,86.741 75.605,86.799 75.463,86.5 	"/>
	<polygon fill="#232734" points="84.218,94.225 83.656,93.866 83.819,93.748 84.046,93.867 84.218,94.225 	"/>
	<polygon fill="#232734" points="76.939,79.223 76.83,79.464 76.446,79.458 76.372,79.215 76.644,78.981 76.875,79.102 
		76.939,79.223 	"/>
	<polygon fill="#232734" points="78.381,71.938 78.156,72.582 77.919,72.148 78.381,71.938 	"/>
	<polygon fill="#232734" points="36.395,45.45 35.749,44.671 35.707,44.695 36.39,45.344 36.364,45.468 36.395,45.45 	"/>
	<polygon fill="#232734" points="75.94,69.701 76.453,69.319 76.793,69.764 75.913,69.645 75.94,69.701 	"/>
	<polygon fill="#232734" points="34.172,40.993 33.504,40.326 33.538,40.204 33.5,40.226 34.153,40.766 34.16,41 34.172,40.993 	"/>
	<polygon fill="#232734" points="72.627,79.874 72.995,80.004 73.042,80.356 72.843,80.468 72.587,80.231 72.67,79.85 
		72.627,79.874 	"/>
	<polygon fill="#232734" points="71.511,84.793 70.935,84.612 70.963,84.666 71.125,84.315 71.354,84.269 71.522,84.435 
		71.476,84.814 71.511,84.793 	"/>
	<polygon fill="#232734" points="72.67,79.85 72.296,79.741 72.243,79.359 72.448,79.236 72.718,79.475 72.627,79.874 72.67,79.85 	
		"/>
	<polygon fill="#232734" points="97.37,87.612 97.155,87.917 96.88,87.792 96.928,87.422 97.182,87.395 97.37,87.612 	"/>
	<polygon fill="#232734" points="69.109,63.84 69.977,64.155 70.146,64.478 69.268,64.168 69.109,63.84 	"/>
	<polygon fill="#232734" points="65.445,78.572 65.77,78.49 65.841,78.841 65.599,78.887 65.487,78.826 65.445,78.572 	"/>
	<polygon fill="#232734" points="63.771,69.145 64.156,69.245 64.416,69.691 63.771,69.145 	"/>
	<polygon fill="#232734" points="85.676,93.805 86.061,94.147 85.946,94.22 85.84,94.178 85.676,93.805 	"/>
	<polygon fill="#232734" points="87.958,77.622 88.706,77.951 87.999,77.734 87.996,77.597 87.958,77.622 	"/>
	<polygon fill="#232734" points="84.22,92.848 83.996,92.505 84.016,92.391 84.145,92.345 84.22,92.848 	"/>
	<polygon fill="#232734" points="86.54,76.582 85.834,76.23 86.452,76.362 86.501,76.605 86.54,76.582 	"/>
	<polygon fill="#232734" points="55.51,58.381 55.334,58.063 55.4,57.953 55.679,58.16 55.633,58.376 55.51,58.381 	"/>
	<polygon fill="#232734" points="82.691,83.978 82.493,83.717 82.75,83.693 82.996,83.801 83.048,83.992 82.927,84.043 
		82.691,83.978 	"/>
	<polygon fill="#232734" points="50.586,63.106 50.234,62.947 50.306,62.573 50.536,62.886 50.547,63.128 50.586,63.106 	"/>
	<polygon fill="#232734" points="77.917,87.875 78.521,88.073 78.644,88.386 78.678,88.365 78.077,88.166 77.946,87.858 
		77.917,87.875 	"/>
	<polygon fill="#232734" points="77.942,88.852 78.36,88.935 78.422,89.05 78.284,89.277 78.188,89.259 77.942,88.852 	"/>
	<polygon fill="#232734" points="77.179,87.373 77.789,87.565 77.917,87.875 77.946,87.858 77.345,87.658 77.225,87.347 
		77.179,87.373 	"/>
	<polygon fill="#232734" points="76.918,88.015 76.548,87.821 76.674,87.619 76.774,87.669 76.853,87.769 76.918,88.015 	"/>
	<polygon fill="#232734" points="43.967,55.606 43.62,55.455 43.72,55.068 43.962,55.367 43.965,55.607 43.967,55.606 	"/>
	<polygon fill="#232734" points="44.674,46.115 45.159,46.293 45.439,46.668 44.851,46.426 44.674,46.115 	"/>
	<polygon fill="#232734" points="44.626,48.768 44.564,49.212 44.306,48.956 44.495,48.731 44.626,48.768 	"/>
	<polygon fill="#232734" points="41.244,53.917 40.908,53.426 41.107,53.371 41.217,53.931 41.244,53.917 	"/>
	<polygon fill="#232734" points="78.767,81.054 78.042,80.716 78.696,80.828 78.734,81.073 78.767,81.054 	"/>
	<polygon fill="#232734" points="74.883,68.17 74.637,68.616 74.406,68.184 74.913,68.225 74.883,68.17 	"/>
	<polygon fill="#232734" points="71.15,78.542 71.063,78.273 71.224,78.076 71.331,78.132 71.558,78.528 71.15,78.542 	"/>
	<polygon fill="#232734" points="71.189,75.482 70.863,75.38 70.958,75.062 71.189,75.482 	"/>
	<polygon fill="#232734" points="67.575,75.616 67.394,75.415 67.358,75.187 67.689,75.318 67.72,75.443 67.575,75.616 	"/>
	<polygon fill="#232734" points="64.174,76.126 64.026,75.906 64.063,75.694 64.295,75.77 64.359,76.019 64.174,76.126 	"/>
	<polygon fill="#232734" points="63.177,76.377 63.25,76.297 63.571,76.46 63.495,76.704 63.291,76.624 63.177,76.377 	"/>
	<polygon fill="#232734" points="60.374,74.13 60.178,73.785 60.333,73.639 60.542,73.781 60.374,74.13 	"/>
	<polygon fill="#232734" points="92.459,87.414 91.736,87.057 92.376,87.191 92.418,87.439 92.459,87.414 	"/>
	<polygon fill="#232734" points="89.972,89.046 89.597,88.906 89.539,88.718 89.659,88.667 90.044,88.794 90.124,88.902 
		89.972,89.046 	"/>
	<polygon fill="#232734" points="86.792,94.727 87.22,94.852 87.128,94.956 86.792,94.995 86.792,94.727 	"/>
	<polygon fill="#232734" points="61.792,59.932 61.038,59.59 61.685,59.713 61.748,59.959 61.792,59.932 	"/>
	<polygon fill="#232734" points="91.054,79.106 91.296,79.183 91.404,79.614 91.074,79.094 91.054,79.106 	"/>
	<polygon fill="#232734" points="68.042,72.622 67.792,72.559 67.613,72.386 67.72,72.332 67.948,72.416 67.998,72.645 
		68.042,72.622 	"/>
	<polygon fill="#232734" points="65.217,77.12 65.583,77.23 65.66,77.402 65.542,77.447 65.423,77.404 65.268,77.093 65.217,77.12 	
		"/>
	<polygon fill="#232734" points="65.091,79.681 64.718,79.527 64.655,79.419 64.902,79.379 65.053,79.705 65.091,79.681 	"/>
	<polygon fill="#232734" points="68.412,65.091 68.331,64.899 68.573,64.886 68.66,65.076 68.412,65.091 	"/>
	<polygon fill="#232734" points="68.228,64.4 68.36,64.006 68.228,64.4 	"/>
	<polygon fill="#232734" points="62.173,75.131 62.044,75.515 62.173,75.131 	"/>
	<polygon fill="#232734" points="60.989,69.667 60.618,69.566 60.541,69.386 60.651,69.334 60.769,69.379 60.936,69.696 
		60.989,69.667 	"/>
	<polygon fill="#232734" points="57.952,70.883 58.214,70.978 58.411,71.304 58.463,71.276 58.125,71.153 58,70.853 57.952,70.883 	
		"/>
	<polygon fill="#232734" points="57.493,70.448 57.727,70.52 57.952,70.883 58,70.853 57.66,70.725 57.534,70.422 57.493,70.448 	
		"/>
	<polygon fill="#232734" points="56.441,66.037 56.704,66.127 56.817,66.294 56.692,66.313 56.571,66.253 56.491,66.005 
		56.441,66.037 	"/>
	<polygon fill="#232734" points="56.491,66.005 56.16,65.876 56.031,65.577 55.98,65.608 56.328,65.728 56.441,66.037 
		56.491,66.005 	"/>
	<polygon fill="#232734" points="56.502,62.825 56.859,62.961 56.926,63.064 56.703,63.105 56.547,62.798 56.502,62.825 	"/>
	<polygon fill="#232734" points="57.973,57.246 58.02,57.172 58.325,57.292 58.277,57.36 58.042,57.348 57.973,57.246 	"/>
	<polygon fill="#232734" points="57.424,59.819 57.517,59.738 57.604,59.77 57.585,60.014 57.469,60.064 57.424,59.819 	"/>
	<polygon fill="#232734" points="56.031,65.577 55.697,65.448 55.565,65.151 55.515,65.182 55.751,65.25 55.98,65.608 
		56.031,65.577 	"/>
	<polygon fill="#232734" points="54.566,68.419 54.928,68.529 55.024,68.852 55.071,68.824 54.736,68.697 54.612,68.395 
		54.566,68.419 	"/>
	<polygon fill="#232734" points="56.547,62.798 56.198,62.68 56.08,62.373 56.042,62.396 56.394,62.51 56.502,62.825 56.547,62.798 
			"/>
	<polygon fill="#232734" points="55.062,64.744 55.394,64.874 55.515,65.182 55.565,65.151 55.213,65.029 55.094,64.723 
		55.062,64.744 	"/>
	<polygon fill="#232734" points="57.33,57.557 57.303,57.647 57.063,57.621 57.123,57.441 57.33,57.557 	"/>
	<polygon fill="#232734" points="55.583,61.962 55.934,62.083 56.042,62.396 56.08,62.373 55.732,62.251 55.616,61.943 
		55.583,61.962 	"/>
	<polygon fill="#232734" points="54.008,66.453 53.662,66.339 53.544,66.026 53.505,66.05 53.74,66.111 53.971,66.477 
		54.008,66.453 	"/>
	<polygon fill="#232734" points="53.544,66.026 53.303,65.968 53.078,65.598 53.044,65.62 53.404,65.729 53.505,66.05 
		53.544,66.026 	"/>
	<polygon fill="#232734" points="56.289,55.676 55.928,55.544 55.863,55.44 56.086,55.393 56.243,55.701 56.289,55.676 	"/>
	<polygon fill="#232734" points="53.717,63.437 53.259,63.006 53.213,63.034 53.579,63.145 53.676,63.461 53.717,63.437 	"/>
	<polygon fill="#232734" points="53.259,63.006 52.917,62.885 52.794,62.58 52.754,62.603 53.114,62.717 53.213,63.034 
		53.259,63.006 	"/>
	<polygon fill="#232734" points="54.336,55.551 54.733,55.684 54.336,55.551 	"/>
	<polygon fill="#232734" points="52.794,62.58 52.456,62.457 52.33,62.153 52.292,62.175 52.653,62.288 52.754,62.603 52.794,62.58 
			"/>
	<polygon fill="#232734" points="51.831,61.748 52.195,61.858 52.292,62.175 52.33,62.153 51.997,62.027 51.876,61.72 
		51.831,61.748 	"/>
	<polygon fill="#232734" points="51.876,61.72 51.651,61.651 51.41,61.295 51.363,61.324 51.721,61.432 51.831,61.748 51.876,61.72 
			"/>
	<polygon fill="#232734" points="50.905,60.892 51.265,61.008 51.363,61.324 51.41,61.295 51.079,61.163 50.95,60.866 
		50.905,60.892 	"/>
	<polygon fill="#232734" points="50.458,60.453 50.702,60.511 50.905,60.892 50.95,60.866 50.601,60.75 50.476,60.442 
		50.458,60.453 	"/>
	<polygon fill="#232734" points="52.197,53.767 52.592,53.9 52.197,53.767 	"/>
	<polygon fill="#232734" points="49.428,63.054 48.972,62.63 48.918,62.659 49.16,62.721 49.382,63.08 49.428,63.054 	"/>
	<polygon fill="#232734" points="47.844,63.145 47.773,63.025 47.902,62.987 48.096,63.14 47.974,63.193 47.844,63.145 	"/>
	<polygon fill="#232734" points="47.564,57.272 47.8,57.326 48.028,57.703 48.073,57.674 47.844,57.601 47.612,57.247 
		47.564,57.272 	"/>
	<polygon fill="#232734" points="47.332,60.093 46.818,59.948 46.773,59.97 47.356,60.145 47.332,60.093 	"/>
	<polygon fill="#232734" points="43.812,58.224 43.312,57.743 43.554,57.835 43.812,58.224 	"/>
	<polygon fill="#232734" points="44.353,53.353 44.122,53.293 43.891,52.927 43.843,52.953 44.087,53.006 44.312,53.378 
		44.353,53.353 	"/>
	<polygon fill="#232734" points="43.201,52.167 43.548,52.283 43.661,52.595 43.702,52.572 43.349,52.461 43.229,52.15 
		43.201,52.167 	"/>
	<polygon fill="#232734" points="42.053,46.735 41.822,46.747 41.749,46.57 41.98,46.55 42.054,46.639 42.053,46.735 	"/>
	<polygon fill="#232734" points="39.921,45.305 39.85,45.117 39.969,45.074 40.17,45.197 40.152,45.292 39.921,45.305 	"/>
	<polygon fill="#232734" points="39.067,46.259 39.304,46.318 39.526,46.691 39.561,46.669 39.197,46.565 39.093,46.243 
		39.067,46.259 	"/>
	<polygon fill="#232734" points="36.212,47.394 36.163,47.272 36.276,47.056 36.433,47.174 36.319,47.385 36.212,47.394 	"/>
	<polygon fill="#232734" points="36.369,43.427 36.603,43.496 36.833,43.854 36.876,43.827 36.53,43.71 36.416,43.398 
		36.369,43.427 	"/>
	<polygon fill="#232734" points="35.907,42.998 36.15,43.058 36.369,43.427 36.416,43.398 35.957,42.97 35.907,42.998 	"/>
	<polygon fill="#232734" points="35.661,40.86 36.011,40.978 36.118,41.293 36.156,41.27 35.792,41.162 35.69,40.842 35.661,40.86 	
		"/>
	<polygon fill="#232734" points="34.512,44.241 34.495,44.008 34.656,43.923 34.691,44.157 34.615,44.228 34.512,44.241 	"/>
	<polygon fill="#232734" points="34.63,41.423 34.277,41.31 34.172,40.993 34.16,41 34.514,41.111 34.625,41.426 34.63,41.423 	"/>
	<polygon fill="#232734" points="96.847,84.34 97.098,84.394 97.323,84.755 97.335,84.748 97.106,84.686 96.896,84.31 96.847,84.34 
			"/>
	<polygon fill="#232734" points="96.896,84.31 96.459,84.056 96.847,84.34 96.896,84.31 	"/>
	<polygon fill="#232734" points="95.28,82.665 95.018,82.847 94.816,82.729 94.78,82.509 94.732,82.539 95.303,82.708 95.28,82.665 
			"/>
	<polygon fill="#232734" points="94.606,85.107 94.248,84.946 94.183,84.848 94.423,84.817 94.558,85.135 94.606,85.107 	"/>
	<polygon fill="#232734" points="91.437,85.246 91.62,85.174 91.802,85.314 91.628,85.396 91.437,85.246 	"/>
	<polygon fill="#232734" points="91.177,86.71 91.061,86.549 91.177,86.512 91.388,86.665 91.304,86.722 91.177,86.71 	"/>
	<polygon fill="#232734" points="89.248,91.282 89.128,91.357 89.023,91.178 89.17,90.993 89.272,91.168 89.248,91.282 	"/>
	<polygon fill="#232734" points="91.644,81.761 91.555,81.569 91.733,81.454 91.803,81.568 91.644,81.761 	"/>
	<polygon fill="#232734" points="89.592,81.044 90.032,81.282 89.644,81.013 89.592,81.044 	"/>
	<polygon fill="#232734" points="89.137,80.607 89.478,80.734 89.592,81.044 89.644,81.013 89.296,80.885 89.177,80.582 
		89.137,80.607 	"/>
	<polygon fill="#232734" points="84.955,94.413 84.826,94.803 84.955,94.413 	"/>
	<polygon fill="#232734" points="88.946,78.935 88.866,78.75 89.038,78.615 89.101,78.734 88.946,78.935 	"/>
	<polygon fill="#232734" points="86.063,89.145 85.955,89.21 85.841,89.055 85.983,88.875 86.063,88.918 86.094,89.028 
		86.063,89.145 	"/>
	<polygon fill="#232734" points="86.75,83.596 86.502,83.607 86.402,83.417 86.643,83.398 86.75,83.596 	"/>
	<polygon fill="#232734" points="83.983,91.792 83.958,91.873 83.722,91.837 83.778,91.676 83.983,91.792 	"/>
	<polygon fill="#232734" points="82.811,94.305 82.883,94.05 83.058,93.875 83.11,93.996 83.018,94.226 82.784,94.26 82.811,94.305 
			"/>
	<polygon fill="#232734" points="82.647,90.733 82.91,90.808 83.091,90.991 82.97,91.05 82.729,90.956 82.686,90.709 82.647,90.733 
			"/>
	<polygon fill="#232734" points="82.5,91.711 82.483,91.463 82.673,91.402 82.695,91.637 82.6,91.713 82.5,91.711 	"/>
	<polygon fill="#232734" points="80.748,90.621 80.921,90.496 81.117,90.651 80.944,90.781 80.748,90.621 	"/>
	<polygon fill="#232734" points="84.818,74.833 84.573,74.844 84.507,74.747 84.642,74.606 84.836,74.747 84.818,74.833 	"/>
	<polygon fill="#232734" points="84.208,75.265 84.118,75.176 84.155,75.105 84.406,75.136 84.467,75.254 84.208,75.265 	"/>
	<polygon fill="#232734" points="79.476,89.955 79.686,89.88 79.797,90.055 79.676,90.105 79.542,90.076 79.476,89.955 	"/>
	<polygon fill="#232734" points="83.296,74.496 83.739,74.754 83.345,74.466 83.296,74.496 	"/>
	<polygon fill="#232734" points="79.889,84.891 79.828,84.788 80.109,84.722 80.17,84.826 79.889,84.891 	"/>
	<polygon fill="#232734" points="76.85,82.706 77.166,82.678 77.212,82.861 77.103,82.917 76.85,82.706 	"/>
	<polygon fill="#232734" points="75.741,73.914 75.653,73.865 75.707,73.625 75.815,73.587 75.848,73.849 75.741,73.914 	"/>
	<polygon fill="#232734" points="67.931,67.41 67.939,67.506 67.854,67.468 67.931,67.41 	"/>
	<polygon fill="#232734" points="65.268,77.093 65.086,76.925 65.189,76.889 65.217,77.12 65.268,77.093 	"/>
	<polygon fill="#232734" points="63.561,72.072 63.671,72.028 63.731,72.13 63.619,72.179 63.561,72.072 	"/>
	<polygon fill="#232734" points="60.936,69.696 61.032,69.762 61.096,69.852 60.964,69.781 60.989,69.667 60.936,69.696 	"/>
	<polygon fill="#232734" points="62.825,59.397 62.982,59.214 63.035,59.309 62.799,59.352 62.825,59.397 	"/>
	<polygon fill="#232734" points="58.411,71.304 58.6,71.662 58.649,71.634 58.463,71.276 58.411,71.304 	"/>
	<polygon fill="#232734" points="60.025,58.101 60.14,58.106 60.111,58.176 60.025,58.101 	"/>
	<polygon fill="#232734" points="54.613,67.254 54.79,67.417 54.693,67.456 54.66,67.228 54.613,67.254 	"/>
	<polygon fill="#232734" points="54.612,68.395 54.473,68.183 54.558,68.207 54.566,68.419 54.612,68.395 	"/>
	<polygon fill="#232734" points="54.009,67.86 53.956,67.771 54.054,67.745 54.009,67.86 	"/>
	<polygon fill="#232734" points="53.533,67.343 53.632,67.343 53.598,67.416 53.533,67.343 	"/>
	<polygon fill="#232734" points="56.243,55.701 56.391,55.911 56.299,55.891 56.289,55.676 56.243,55.701 	"/>
	<polygon fill="#232734" points="49.382,63.08 49.557,63.24 49.462,63.28 49.428,63.054 49.382,63.08 	"/>
	<polygon fill="#232734" points="48.972,62.63 48.769,62.459 48.877,62.417 48.918,62.659 48.972,62.63 	"/>
	<polygon fill="#232734" points="95.589,83.145 95.596,83.238 95.515,83.202 95.589,83.145 	"/>
	<polygon fill="#232734" points="95.303,82.708 95.459,82.515 95.524,82.667 95.28,82.665 95.303,82.708 	"/>
	<polygon fill="#232734" points="49.944,56.726 49.91,56.585 49.999,56.576 50.05,56.678 49.944,56.726 	"/>
	<polygon fill="#232734" points="50.501,52.258 50.69,52.428 50.551,52.231 50.501,52.258 	"/>
	<polygon fill="#232734" points="50.375,53.488 50.349,53.57 50.189,53.472 50.299,53.425 50.375,53.488 	"/>
	<polygon fill="#232734" points="47.857,60.285 48.029,60.436 47.942,60.496 47.894,60.263 47.857,60.285 	"/>
	<polygon fill="#232734" points="90.241,93.84 90.433,94.005 90.328,94.045 90.291,93.813 90.241,93.84 	"/>
	<polygon fill="#232734" points="92.237,85.755 92.142,85.752 92.175,85.685 92.237,85.755 	"/>
	<polygon fill="#232734" points="90.95,89.761 91.061,89.76 91.027,89.839 90.95,89.761 	"/>
	<polygon fill="#232734" points="47.612,57.247 47.416,57.063 47.564,57.272 47.612,57.247 	"/>
	<polygon fill="#232734" points="46.818,59.948 46.619,59.601 46.593,59.615 46.773,59.97 46.818,59.948 	"/>
	<polygon fill="#232734" points="89.596,94.344 89.71,94.292 89.754,94.405 89.645,94.461 89.596,94.344 	"/>
	<polygon fill="#232734" points="90.631,89.396 90.528,89.417 90.463,89.333 90.569,89.312 90.631,89.396 	"/>
	<polygon fill="#232734" points="92.105,81.98 92.052,81.88 92.213,81.94 92.105,81.98 	"/>
	<polygon fill="#232734" points="43.891,52.927 43.702,52.572 43.661,52.595 43.843,52.953 43.891,52.927 	"/>
	<polygon fill="#232734" points="42.451,53.71 42.619,53.84 42.584,53.924 42.487,53.69 42.451,53.71 	"/>
	<polygon fill="#232734" points="88.976,77.435 89.077,77.421 89.042,77.509 88.976,77.435 	"/>
	<polygon fill="#232734" points="43.663,46.572 43.529,46.624 43.589,46.457 43.663,46.572 	"/>
	<polygon fill="#232734" points="41.217,53.931 41.407,54.097 41.308,54.157 41.244,53.917 41.217,53.931 	"/>
	<polygon fill="#232734" points="41.52,49.911 41.717,50.255 41.725,50.251 41.542,49.898 41.52,49.911 	"/>
	<polygon fill="#232734" points="41.542,49.898 41.365,49.767 41.49,49.689 41.52,49.911 41.542,49.898 	"/>
	<polygon fill="#232734" points="39.984,52.107 40.156,52.273 40.032,52.082 39.984,52.107 	"/>
	<polygon fill="#232734" points="83.407,87.144 83.59,87.297 83.498,87.349 83.452,87.12 83.407,87.144 	"/>
	<polygon fill="#232734" points="39.379,51.309 39.209,51.162 39.292,51.113 39.335,51.334 39.379,51.309 	"/>
	<polygon fill="#232734" points="83.452,87.12 83.266,86.957 83.367,86.905 83.407,87.144 83.452,87.12 	"/>
	<polygon fill="#232734" points="39.108,49.186 38.918,49.042 39.057,48.959 39.09,49.196 39.108,49.186 	"/>
	<polygon fill="#232734" points="38.437,41.886 38.382,41.772 38.497,41.727 38.556,41.837 38.437,41.886 	"/>
	<polygon fill="#232734" points="35.749,44.671 35.565,44.508 35.663,44.458 35.707,44.695 35.749,44.671 	"/>
	<polygon fill="#232734" points="35.957,42.97 35.768,42.615 35.724,42.638 35.907,42.998 35.957,42.97 	"/>
	<polygon fill="#232734" points="78.734,81.073 78.894,81.28 78.798,81.273 78.767,81.054 78.734,81.073 	"/>
	<polygon fill="#232734" points="77.225,87.347 77.056,87.202 77.141,87.153 77.179,87.373 77.225,87.347 	"/>
	<polygon fill="#232734" points="78.199,70.024 78.007,69.875 78.099,69.803 78.151,70.052 78.199,70.024 	"/>
	<polygon fill="#232734" points="72.693,86.427 72.575,86.523 72.53,86.419 72.63,86.366 72.693,86.427 	"/>
	<polygon fill="#232734" points="68.768,80.17 68.574,80.009 68.671,79.955 68.718,80.198 68.768,80.17 	"/>
	<polygon fill="#232734" points="71.784,66.312 71.738,66.22 71.832,66.185 71.885,66.275 71.784,66.312 	"/>
	<polygon fill="#232734" points="70.633,66.465 70.513,66.56 70.467,66.455 70.57,66.401 70.633,66.465 	"/>
	<polygon fill="#232734" points="70.291,65.31 70.275,65.199 70.374,65.238 70.291,65.31 	"/>
	<polygon fill="#232734" points="67.998,72.645 68.187,72.808 68.083,72.849 68.042,72.622 67.998,72.645 	"/>
	<polygon fill="#232734" points="94.406,95.65 95.948,96.195 96.157,96.404 97.383,96.84 97.284,97.034 95.416,96.497 
		94.521,95.865 94.45,95.623 94.406,95.65 	"/>
	<polygon fill="#232734" points="100.439,91.218 100.634,91.568 100.542,91.879 100.097,91.597 98.949,90.321 98.934,90.19 
		99.539,90.421 100.069,91.08 100.439,91.218 	"/>
	<polygon fill="#232734" points="94.997,97.195 94.818,96.744 95.395,96.914 94.997,97.195 	"/>
	<polygon fill="#232734" points="99.049,93.115 98.923,93.068 98.861,92.711 99.212,92.749 99.254,93.002 99.049,93.115 	"/>
	<polygon fill="#232734" points="100.035,94.622 99.833,94.455 99.651,94.095 100.037,94.383 99.981,94.649 100.035,94.622 	"/>
	<polygon fill="#232734" points="97.134,96.022 97.07,95.813 97.362,95.672 97.46,95.745 97.375,95.936 97.134,96.022 	"/>
	<polygon fill="#232734" points="97.918,97.136 98.118,97.055 98.307,97.204 98.118,97.3 97.918,97.136 	"/>
	<polygon fill="#232734" points="100.95,94.346 101.125,94.544 101.038,94.547 100.999,94.321 100.95,94.346 	"/>
	<polygon fill="#232734" points="100.999,94.321 100.805,93.973 100.755,94 100.95,94.346 100.999,94.321 	"/>
	<polygon fill="#232734" points="100.564,93.652 100.755,94 100.805,93.973 100.618,93.623 100.564,93.652 	"/>
	<polygon fill="#232734" points="100.374,93.301 100.564,93.652 100.618,93.623 100.423,93.274 100.374,93.301 	"/>
	<polygon fill="#232734" points="100.196,92.942 100.374,93.301 100.423,93.274 100.231,92.922 100.196,92.942 	"/>
	<polygon fill="#232734" points="100.231,92.922 100.036,92.816 100.011,92.714 100.191,92.718 100.196,92.942 100.231,92.922 	"/>
	<polygon fill="#232734" points="97.927,94.44 97.811,94.521 97.756,94.423 97.861,94.379 97.927,94.44 	"/>
	<polygon fill="#232734" points="119.572,110.033 119.041,109.876 118.363,109.252 118.877,109.282 119.533,109.927 119.526,110.06 
		119.572,110.033 	"/>
	<polygon fill="#232734" points="126.385,113.832 124.451,113.196 124.263,112.875 126.285,113.568 126.385,113.832 	"/>
	<polygon fill="#232734" points="127.116,114.339 126.499,114.112 126.348,113.781 126.97,114.009 127.116,114.339 	"/>
	<polygon fill="#232734" points="26.121,33.37 26.074,33.044 26.007,32.716 26.657,32.653 27.671,33.199 27.727,33.75 
		27.191,33.694 27.183,33.474 27.102,33.449 27.241,33.667 27.152,33.974 26.591,33.613 26.121,33.37 	"/>
	<polygon fill="#232734" points="30.318,36.032 30.959,36.489 31.911,37.582 31.922,37.714 31.465,37.427 30.638,37.033 
		30.459,36.539 30.318,36.032 	"/>
	<polygon fill="#232734" points="27.12,33.918 27.686,34.269 28.142,34.532 28.154,34.786 28.428,35.259 28.418,35.514 28.46,35.49 
		28.088,35.344 27.154,34.174 27.12,33.918 	"/>
	<polygon fill="#232734" points="28.021,36.87 27.833,36.516 27.786,36.252 27.727,35.858 28.078,36.018 28.611,36.909 
		28.603,37.04 28.021,36.87 	"/>
	<polygon fill="#232734" points="29.174,38.087 28.867,37.994 28.67,37.365 28.568,36.986 29.134,37.188 29.115,37.149 
		29.174,38.087 	"/>
	<polygon fill="#232734" points="30.798,38.524 30.432,38.382 30.503,37.983 30.74,38.3 30.759,38.547 30.798,38.524 	"/>
	<polygon fill="#232734" points="30.759,38.547 30.995,38.611 31.225,38.976 31.26,38.955 30.906,38.839 30.798,38.524 
		30.759,38.547 	"/>
	<polygon fill="#232734" points="29.134,37.188 29.267,37.001 29.361,36.994 29.332,37.174 29.115,37.149 29.134,37.188 	"/>
	<polygon fill="#232734" points="28.418,35.514 28.587,35.665 28.502,35.719 28.46,35.49 28.418,35.514 	"/>
	<polygon fill="#232734" points="130.829,114.505 131.083,114.589 131.326,114.988 130.973,114.835 130.829,114.505 	"/>
	<polygon fill="#232734" points="76.341,89.69 76.298,89.572 76.41,89.514 76.454,89.633 76.341,89.69 	"/>
	<polygon fill="#232734" points="25.278,31.37 24.782,30.891 25.142,31.042 25.278,31.37 	"/>
	<polygon fill="#232734" points="24.814,30.936 24.318,30.458 24.562,30.547 24.814,30.936 	"/>
	<polygon fill="#232734" points="24.352,30.513 24.132,30.106 24.352,30.513 	"/>
	<polygon fill="#232734" points="80.485,92.114 80.175,92.315 80.007,92.145 80.124,92.095 80.51,92.167 80.485,92.114 	"/>
	<polygon fill="#232734" points="101.876,90.167 102.102,90.578 101.876,90.167 	"/>
	<polygon fill="#232734" points="21.39,28.469 21.199,28.114 21.287,27.807 21.972,28.64 21.39,28.469 	"/>
</g>
</svg>
