<?xml version="1.0" encoding="utf-8"?>
<!-- Generator: Adobe Illustrator 15.0.2, SVG Export Plug-In . SVG Version: 6.00 Build 0)  -->
<!DOCTYPE svg PUBLIC "-//W3C//DTD SVG 1.1//EN" "http://www.w3.org/Graphics/SVG/1.1/DTD/svg11.dtd">
<svg version="1.1" id="Layer_1" xmlns="http://www.w3.org/2000/svg" xmlns:xlink="http://www.w3.org/1999/xlink" x="0px" y="0px"
	 width="218.52px" height="218.52px" viewBox="0 0 218.52 218.52" enable-background="new 0 0 218.52 218.52" xml:space="preserve">
<g id="carving-fork">
	<path fill="#232734" d="M72.645,97.847l-4.397-3.226l-0.304-0.437l-2.063-1.512l-0.977-1.033l-1.03-0.981l-0.604-0.598
		l-1.156-1.051l-0.442-0.358l-0.795-0.613l-0.663-0.521l-0.554-0.67l-2.545-1.895l-0.559-0.621l-1.366-1.046L54.48,82.59
		l-0.296-0.304l-1.008-1.008l-0.869-0.738l-1.051-0.961l-1.102-0.909l-1.385-1.021l-0.833-0.774l-0.646-0.56l-1.268-0.939
		l-0.544-0.641l-1.123-0.909l-0.884-0.926l-0.895-0.719l-1.332-1.28l-0.505-0.5l-0.395-0.407l-1.343-1.465l-0.454-0.544
		l-0.494-0.509l-0.876-1.296l-0.077-0.561l0.795-0.461l0.283,0.099l2.372,1.611l0.485,0.293l1.501,0.81l2.931,2.067l1.483,0.841
		l0.488,0.289l1.867,1.336l0.84,0.767l0.317,0.281l2.101,1.504l0.244,0.148l2.068,1.251l1.884,1.312l1.607,1.396l1.136,0.875
		l2.376,1.74l0.314,0.477l6.778,4.929l1.717,1.296l0.24,0.3l2.127,1.396l0.461,0.291l0.446,0.333l0.717,0.692l4.412,3.201
		l3.07,2.114l0.78,0.308l2.161,1.435l1.261,0.655l0.374,0.207l1.787,0.869l1.186,0.475l0.433,0.088l0.24,0.129l1.682,0.759
		l2.583,0.778l2.245,0.386l0.401-0.11l0.25-0.351l0.012-0.291l-1.322-1.992l-0.424-0.592l-0.535-0.449l-0.434-0.372l-0.297-0.448
		l-1.237-1.026l-0.755-1.062l-1.45-1.15l-1.171-1.175l-0.431-0.602l-0.402-0.402L88.42,92.15l-0.795-0.611l-0.924-0.88l-0.312-0.289
		l-0.9-0.912l-0.525-0.478l-1.24-1.166l-0.678-0.531l-2.882-2.129l-0.623-0.581l-0.619-0.588l-1.362-1.057l-0.749-0.587l-0.271-0.37
		l-2.038-1.533l-1.432-1.173l-0.244-0.116l-0.88-0.689l-0.294-0.307l-0.344-0.258l-5.786-4.211l-0.334-0.468l-4.096-2.919
		l-1.224-0.634l-0.3-0.448l-6.02-4.301l-2.076-1.532l-0.327-0.275l-1.612-1.387l-0.81-0.595l-0.911-0.899l-0.413-0.389l-0.75-0.853
		l-0.7-0.707l-0.767-0.841l-0.792-0.923l-0.161-0.775l0.331-0.95l0.425-0.096l0.921,0.322l0.661,0.476l0.239,0.328l1.88,1.345
		l0.939,0.585l0.765,0.372l3.296,2.295l4.688,3.307l1.015,0.517l0.749,0.41l1.887,1.306l1.003,0.54l0.981,0.577l2.826,1.964
		l0.686,0.439l0.472,0.112l2.973,1.979l0.427,0.11l1.387,0.731l1.229,0.718l1.787,1.199l1.005,0.534l0.499,0.271l3.897,2.688
		l4.299,3.052l0.968,0.35l1.87,1.332l1.961,1.444l1.918,1.268l0.569,0.164l6.521,4.646l0.36,0.483l3.725,2.778l0.285,0.417
		l0.552,0.426l0.991,1.017l0.88,0.929L106.806,97l1.559,1.843l0.875,1.125l0.693,1.077l0.817,0.979l0.739,1.036l1.106,1.825
		l0.204,0.377l1.05,2.502l0.069,0.412l0.043,0.278l0.841,3.012l0.101,0.44l0.987,0.794l1.253,1.156l0.541,0.462l0.92,0.893
		l0.529,0.473l1.344,1.009l0.419,0.601l1.355,1.018l0.242,0.419l0.663,0.544l0.808,0.799l1.45,1.156l0.447,0.541l0.457,0.143
		l0.344,0.513l2.787,2.057l0.245,0.447l0.655,0.225l0.219,0.272l0.896,0.485l1.521,1.079l4.453,3.1l0.39,0.105l0.418,0.437
		l4.041,2.977l1.155,0.537l0.712,0.687l2.702,2.018l0.812,0.229l2.756,1.908l0.612,0.596l0.202,0.172l1.489,0.838l1.251,0.888
		l0.324,0.084l0.433,0.322l0.386,0.169l3.94,2.667l0.56,0.141l0.815,0.522l0.493,0.287l1.504,0.81l0.955,0.635l0.36,0.23
		l1.864,1.034l1.641,1.153l0.761,0.385l0.636,0.315l1.549,1.026l1.494,0.823l0.366,0.221l3.338,2.277l0.456,0.087l1.26,0.836
		l1.045,0.457l0.84,0.718l0.765,0.379l1.773,1.217l1.147,0.774l0.498,0.105l5.385,3.764l1.037,0.972l0.306,0.294l1.446,1.365
		l0.216,0.188l1.098,1.112l0.437,0.417l1.449,2.914l0.807,1.655l0.104,1.732l-0.476,1.76l-1.362,0.753l-0.253,0.125l-3.8,1.126
		l-1.833-0.237l-0.688-0.176l-1.221-0.376l-1.051-0.424l-0.388-0.162l-1.092-0.324l-0.928-0.358l-0.508-0.246l-1.088-0.695
		l-1.149-0.548l-1.074-0.711l-1.068-0.726l-0.355-0.214l-0.438-0.108l-5.527-3.846l-0.704-0.673l-0.519-0.221l-3.011-2.199
		l-0.291-0.305l-0.502-0.502l-1.155-0.849l-0.585-0.618l-0.172-0.226l-0.976-1.036l-0.888-0.927l-0.538-0.465l-1.507-1.098
		l-0.655-0.555l-0.992-1.011l-0.283-0.315l-0.974-1.218l-0.899-0.72l-0.317-0.282l-1.388-1.295l-1.26-1.237l-0.236-0.392
		l-0.629-0.582l-0.525-0.668l-1.093-1.104l-0.65-0.796l-1.107-0.857l-0.709-0.696l-1.53-1.319l-0.227-0.344l-1.218-1.192
		l-1.114-0.897l-1.141-1.067l-0.898-0.91l-0.956-0.853l-0.318-0.285l-1.219-1.196l-0.312-0.471l-0.796-0.63l-0.323-0.278
		l-1.439-1.377l-1.362-1.246l-1.562-1.195l-0.283-0.414l-2.35-1.731l-0.264-0.421l-0.867-0.452l-0.658-0.486l-0.431-0.355
		l-0.82-0.789l-2.898-2.108l-0.679-0.483l-0.292-0.437l-1.159-0.693l-0.502-0.263l-1.894-1.298l-5.282-3.707l-0.642-0.306
		l-0.191-0.188l-0.561-0.418l-1.006-0.528l-2.899-2.015l-1.188-0.076l-0.421,0.037l-1.71,0.221l-2.273-0.144l-0.562,0.064
		l-1.129,0.162l-1.646-0.481l-0.792-0.318l-0.678-0.199l-0.808-0.279l-0.251-0.133l-1.422-0.651l-1.458-0.569l-0.916-0.375
		l-0.852-0.313l-2.441-1.66l-1.759-1.237l-1.237-0.875l-0.661-0.194l-3.703-2.63l-0.337-0.457l-0.771-0.356l-3.189-2.192
		l-1.387-1.227l-0.434-0.368l-1.955-1.458l-1.718-1.492l-1.479-1.134L72.645,97.847L72.645,97.847z M189.69,171.499l-0.209-0.047
		l0.064,0.254l-0.361,0.177l-0.22,0.149l-0.236-0.047l0.018,0.097l0.209-0.105l0.337,0.211l0.168,0.004l0.931-0.24l1.377,0.062
		l0.696,0.009l0.271,0.011l0.711-0.468l-0.179-0.378l-0.305,0.021l-1.063,0.358l-1.281,0.119l-0.222,0.312l-0.495-0.352l0.018-0.253
		L189.69,171.499L189.69,171.499z M181.806,171.132l0.267,0.05l-0.036-0.114l-0.219,0.125l-0.22-0.057l0.001,0.101L181.806,171.132
		L181.806,171.132z M166.1,161.028l0.252,0.051l-0.02-0.106l-0.224,0.112l-0.251-0.062l0.02,0.112L166.1,161.028L166.1,161.028z
		 M153.587,147.911l0.245,0.055l-0.008-0.106l-0.227,0.11l-0.245-0.049l0.028,0.106L153.587,147.911L153.587,147.911z
		 M94.202,96.219l0.253,0.044l-0.021-0.112l-0.223,0.115l-0.218-0.057l-0.042,0.091L94.202,96.219L94.202,96.219z M146.358,139.255
		l0.238,0.041l-0.011-0.106l-0.219,0.127l-0.262-0.062l0.024,0.114L146.358,139.255L146.358,139.255z M142.481,135.802l0.23,0.045
		l-0.021-0.099l-0.2,0.103l-0.221-0.073l0.021,0.154L142.481,135.802L142.481,135.802z M189.156,173.192l0.4-0.074l0.346,0.246
		l0.501-0.098l-0.093-0.228l-0.745,0.121l-0.403,0.062l-0.348-0.181l-0.112,0.025l0.121,0.215L189.156,173.192L189.156,173.192z
		 M185.164,173.907l-0.261,0.021l0.071,0.058l0.18-0.13l0.501,0.359l-0.012,0.271l0.304,0.274l1.059-0.114l-0.183-0.207
		l-0.706-0.025l-0.522-0.186l0.033-0.118l-0.144-0.3L185.164,173.907L185.164,173.907z M184.229,173.249l-0.403,0.07l-0.339-0.219
		l-0.128,0.016l0.092,0.208l0.364-0.06l0.402-0.07l0.354,0.217l0.133-0.015l-0.104-0.222L184.229,173.249L184.229,173.249z
		 M180.07,170.603l0.265,0.053l-0.02-0.115l-0.235,0.117l-0.636-0.103l-0.478-0.174l0.471,0.115l0.199,0.158L180.07,170.603
		L180.07,170.603z M177.495,168.773l0.261,0.056l-0.024-0.106l-0.225,0.11l-0.456-0.198L177.495,168.773L177.495,168.773z
		 M175.124,165.683l0.499,0.35l-0.499,0.248l0.828,0.486l-0.004,0.521l0.919-0.024l-0.063,0.012l0.517,0.205l1.26-0.006l0.129-0.054
		l0.038-0.096l-0.06-0.117l-0.396-0.104l-0.493-0.229l0.009,0.037l0.249-0.415l-0.822-1.108l-0.503-0.683l-1.102-1.104l-0.68-1.058
		l0.035-0.137l0.751,0.607l0.222,0.408l0.523,0.26l-0.517-0.922l-0.307-0.628l0.239-0.303l0.213,0.326l1.068,1.504l1.153,1.434
		l0.32,0.28l0.419,0.387l0.106,0.543l-0.978-0.505l0.058-0.112l-0.077,0.006l0.08,0.098l0.006,0.26l0.934,0.865l0.645,0.741
		l0.766,0.839l0.396,0.107l0.349,0.424l0.794,0.22l-0.473,0.257l0.779,0.137l-0.377-0.385l0.362-0.182l0.706,0.047l-0.11-0.592
		l-1.023-0.8l-0.27-0.479l-0.749-0.536l-0.877-0.718l-0.789-1.199l-0.562-0.396l-0.5-0.68l-0.774-1.007l-0.452-0.881l0.044-0.401
		l0.357,0.438l0.68,1.081l0.627,0.766l0.729,0.871l0.523,0.668l0.752,0.661l0.23,0.397l1.439,1.088l0.318,0.52l1.252,0.951
		l0.192,0.203l0.003,0.264l-0.704,0.019l-0.151,0.213l1.027,0.33l-0.211-0.361l0.021-0.262l0.238,0.158l0.397,0.135l0.381,0.414
		l0.405,0.115l0.851,0.729l0.764,0.026l0.439,0.22l0.855-0.021l0.083-0.246l-0.522-0.17l-3.152-2.242l-0.56-0.443l0.064-0.399
		l0.363,0.107l2.811,1.977l0.843,0.545l0.798,0.295l0.858,0.379l2.713-0.461l-0.345-1.06l-1.663,0.381l-2.384-0.862l-0.263-0.099
		l-0.771-0.352l-1.178-0.815l-3.55-2.56l-0.319-0.525l-0.354-0.276l-1.562-1.996l0.003-0.539l0.3,0.299l0.517,0.969l0.753,0.624
		l0.306,0.512l1.88,1.419l0.541,0.622l1.377,0.973l0.583,0.166l1.29,0.889l1.41,0.656l1.464,0.492l1.002-0.191l0.244-0.131
		l0.036-0.281l-0.933,0.156l-0.904-0.195l-1.034-0.636l-0.438-0.09l-6.181-4.382l-1.045-1.677l-0.109-1.028l0.199-0.669l-0.384-0.14
		l-0.932,1.298l-0.108-0.236l0.221-0.513l0.181-0.566l0.888-0.555l-0.19-0.23l-1.293-0.559l-0.14-0.021l-1.146,0.476l-0.367,0.605
		l0.224,1.825l-0.063,0.254l0.05-0.01l-0.354-0.252l-0.232-1.794l0.706-1.301l-1.443,0.265l-0.394,0.555l-0.239,0.833l-0.15-0.222
		l-0.04-0.526l0.815-1.06l0.653-0.176l0.207-0.17l0.248,0.028l-0.034-0.104l-0.206,0.117l-0.431-0.36l-1.831-0.024l-0.51-0.188
		l-0.004-0.025l0.219-0.162l0.16-0.151l-0.209-0.157l-2.263-0.237l-1.173,0.296l-0.397,0.661l-0.023-0.888l1.35-0.452l2.809,0.373
		l0.415,0.072l0.506,0.026l-0.846-0.564l-0.4-0.135l-1.064-0.399l-1.192-0.277l-2.886,0.475l-0.097-0.05l0.086-0.253l0.526-0.2
		l0.801-0.242l0.259,0.023l-0.044-0.106l-0.204,0.136l-0.217-0.178l-1.829,0.064l-0.726,1.021l0.098,0.574l0.744,1.997l0.389,0.916
		l0.39,0.591l1.123,1.811l0.853,1.13l0.387,0.595l0.526,0.657l0.66,0.252l0.27,0.455l0.217-0.151l-0.154-0.519l0.174-0.123
		l0.795,0.783l0.282,0.067l0.087,0.683l-0.316-0.208l-0.319,0.104l-0.361-0.19l-0.117,0.026l0.126,0.223L175.124,165.683
		L175.124,165.683z M170.245,163.623l0.267-0.005l-0.066-0.066l-0.19,0.12l-0.499-0.354l0.453-0.247l-0.247-0.251l-0.741-0.234
		l0.374-0.168l0.279-0.398l0.033-0.403l0.435,0.364l0.666,1.411l0.585,0.497l0.771,0.068l-0.073-0.549l-0.468-0.451l-0.69-1.126
		l-0.689-1.069l-0.587-0.968l-0.524-1.157l-0.786-2.188l0.107-0.873l1.229-1.061l1.959,0.047l0.826,0.175l1.541,0.218l-0.335-0.3
		l-1.479-0.474l-2.332-0.554l-1.236,0.176l-1.03,1.521l0.377,1.955l0.534,1.469l-0.061,0.26l-0.372-0.396l-0.549-1.268l-0.251-0.048
		l0.051,0.824l-0.079,1.09l-0.28-0.276l0.144-4.015l0.342-0.592l0.167-0.541l0.188-0.271l0.668-0.354l0.333-0.05l1.56,0.011
		l-0.471-0.444l-1.22-0.41l-0.646,0.272l-0.609,0.354l-0.564,0.419l-0.459,0.543l-0.742,1.139l-0.352,1.438l-0.134,0.246
		l-0.147-0.514l0.33-1.261l1.596-2.245l0.552-0.331l0.062-0.251l-0.093-0.093l-1.251-0.233l-1.355,0.299l-0.444,0.225l-0.678,0.953
		l-0.304,1.878l-0.137,0.247l-0.177-0.361l0.365-2.348l0.495-0.331l1.229-0.89l1.149-0.048l1.063-0.023l-0.417-0.354l-1.157-0.529
		l-0.438-0.269l-0.75-0.085l-0.905,0.438l-0.994,0.54l-0.809,1.188l-0.055-0.389l0.878-1.281l-0.082-0.283l-0.5-0.258l-0.412-0.102
		l-0.072-0.105l0.15-0.181l1.128,0.185l0.213,0.367l0.509-0.104l0.163-0.315l-0.677-0.253l-0.817-0.231l-0.666-0.209l-0.845-0.131
		l-0.7-0.125l-0.833,0.122l-0.562,0.241l-0.234,0.457l0.437,2.596l0.576,0.408l-0.007-0.056l-0.484,0.767l-0.35-0.422l-0.459-0.503
		l0.181-0.508l-0.214-0.174l-0.827,0.125l-0.054,0.094l0.061,0.121l0.915,0.33l-0.5,0.22l-0.096,0.249l0.04,0.139l1.023,0.598
		l0.267-0.335l0.551,0.584l1.062,0.317l0.564,0.782l0.149,1.354l0.534,0.122l0.121-0.069l-0.028-0.229l-0.354-0.303l0.107-0.487
		l-0.063-0.562l-0.044-0.563l0.035-0.135l0.138-0.246l0.161,0.378l0.2,1.102l0.099,0.254l0.356,0.417l-0.032,0.271l0.418,0.351
		l0.403-0.568l0.271,1.138l-0.057,0.119l-0.381-0.194l-0.26,0.246l0.632-0.115l0.558,0.396l0.005,0.312l0.292,0.488l0.656,0.23
		l-0.485,0.237l0.713,0.166l-0.293-0.399l0.059-0.673l-0.176-1.063l0.2-0.378l0.171,0.37l0.256,1.236l0.479,1.47l0.707,0.852
		l0.53,0.075l-0.344,0.732l0.556-0.024l0.069-0.412l-0.332-0.288l0.061-0.33l0.056-0.333l0.298,0.284l0.452,0.941l0.406,0.45
		l-0.038,0.519l0.233,0.209l0.36,0.215l-0.197,0.462l0.736,0.268l-0.017,0.354l0.235,0.086L170.245,163.623L170.245,163.623z
		 M154.526,143.691l-0.269,0.017l0.076,0.062l0.182-0.135l0.339,0.213l0.128-0.003l-0.094-0.198L154.526,143.691L154.526,143.691z
		 M148.953,143.605l-0.228-0.04l0.016,0.102l0.203-0.11l0.485,0.196l-0.344-0.4l0.188-0.26l0.235,0.056l-0.044-0.154l-0.184,0.146
		l-0.309-0.226l-0.121,0.011l-0.017,0.188l0.307,0.229L148.953,143.605L148.953,143.605z M148.75,142.404l-0.256-0.04l0.036,0.112
		l0.21-0.126l0.198,0.168l0.438-0.05l0.362-0.008l0.683-0.688l0.137-0.222l-0.083-0.27l-0.942,0.039l-1.096,0.029l-0.102,0.248
		l0.023,0.128l0.578,0.411L148.75,142.404L148.75,142.404z M147.471,142.165l0.262-0.012l-0.072-0.068l-0.183,0.121l-0.485-0.19
		l0.335,0.399l-0.178,0.258l-0.247-0.034l0.029,0.104l0.208-0.117l0.467,0.318l0.416-0.213l-0.742-0.31L147.471,142.165
		L147.471,142.165z M147.646,139.507l-0.246-0.037l0.025,0.104l0.207-0.126l0.319,0.213l0.314-0.109l-0.04,0.507l-1.229-0.275
		l-0.136,0.006l-0.206,0.174l0.089,0.231l1.562,0.312l1.386-0.067l-0.011-0.126l-1.156-0.791l-0.249,0.088l-0.242-0.15
		L147.646,139.507L147.646,139.507z M147.09,138.722l0.231,0.047l-0.012-0.097l-0.209,0.107l-0.314-0.207l-0.319,0.095l-0.327-0.21
		l-0.125,0.021l0.009,0.199l0.438-0.05l0.195,0.146L147.09,138.722L147.09,138.722z M145.068,137.677l-0.234-0.058l0.03,0.146
		l0.194-0.143l0.489,0.211L145.068,137.677L145.068,137.677z M191.737,175.052l-0.271,0.021l0.07,0.07l0.195-0.123l0.589,0.114
		l0.091-0.222l-0.092-0.06L191.737,175.052L191.737,175.052z M162.428,147.858l0.252,0.055l-0.025-0.102l-0.215,0.106l-0.53-0.354
		l-0.34,0.076l-0.604-0.358l-1.27-0.608l-1.489-0.379l-1.06-0.361l-0.96-0.168l-1.128-0.049l-0.455,0.293l0.018,0.418l-0.057,0.388
		l0.354,0.288l-0.491,0.217l0.229,0.289l0.331-0.168l-0.116-0.334l0.535,0.022l-0.089,0.798l-0.591,0.969l0.01,0.141l0.096,0.098
		l0.479,0.221l-0.34,0.376l-0.034,0.102l0.079,0.112l0.218,0.184l0.057,0.409l-0.088,0.229l0.129,0.38l0.223-0.349l-0.303-0.254
		l-0.077-0.403l0.238-0.1l1.025,0.144l0.234-0.354l0.225-0.631l0.134,0.238l0.183,1.151l-0.051,0.254l0.444,0.595l0.707-0.061
		l0.209-0.161l0.022-2.293l1.662-0.486l1.756,0.329l1.931,0.473l0.941,0.299l0.181-0.053l-0.062-0.125l-0.601-0.375l-1.062-0.41
		l-1.12-0.211l-0.558-0.114l-2.805-0.426l-1.399,0.296l-0.506,1.146l-0.109-0.24l0.111-0.555l0.51-0.816l1.949-0.215l1.962,0.268
		l0.232-0.122l0.524,0.351L162.428,147.858L162.428,147.858z M112.545,113.514l0.377-0.736l-0.432,0.493l0.105,0.236l-0.354,0.699
		l0.404-0.475L112.545,113.514L112.545,113.514z M187.322,173.29l0.471,0.189l-0.466-0.149l-0.519-0.191l-0.514,0.163l-0.265,0.021
		l0.072,0.063l0.185-0.128l0.623,0.23l0.267,0.052l0.281,0.381l-0.33-0.369L187.322,173.29L187.322,173.29z M180.112,169.616
		l-0.32-0.207l-0.169,0.072l0.044,0.115l0.44-0.021l0.837,0.025l-0.348-0.189L180.112,169.616L180.112,169.616z M152.251,145.906
		l-0.235,0.108l-0.407-0.061l0.574,0.436l0.004-0.472l0.123-0.211l-0.018-0.434l0.148-0.245l-0.008-0.245l-0.928-0.242l0.188,0.49
		l0.665,0.236l-0.492,0.241L152.251,145.906L152.251,145.906z M153.419,146.735l-0.246,0.474l0.189,0.18l0.328-0.131l-0.014-0.249
		l-0.32-0.268l0.473-0.242l-0.048-0.132l-0.31-0.258l0.514-0.216l0.363-0.388l1.405-0.197l1.502,0.298l1.987,0.616l0.215-0.124
		l0.718,0.362l-0.479-0.408l-0.232,0.094l-2.053-1.438l-3.811-0.144l-0.544,0.345l-0.103,0.477l-0.003-0.024l0.007,0.399
		l0.561,0.343l-0.479,0.252L153.419,146.735L153.419,146.735z M176.146,169.266l-0.48-0.188l0.472,0.129l0.194,0.376l0.552,0.02
		l-0.226-0.334L176.146,169.266L176.146,169.266z M153.354,142.853l-0.402,0.08l-0.466-0.252l-1.732-0.068l-0.1,0.088l-0.255,0.014
		l0.067,0.058l0.178-0.122l0.352,0.417l-0.338,0.19l-0.037,0.282l-0.266-0.009l-0.137-0.005l-0.234,0.296l0.175,0.188l0.819,0.086
		l0.146-0.517l0.341-0.179l0.017-0.339l0.538-0.06l0.704,0.023l0.217-0.147l0.407-0.059l0.348,0.226l0.706,0.049l0.038-0.073
		l-0.854-0.494L153.354,142.853L153.354,142.853z M156.643,151.536l0.026-0.553l-0.608-0.385l0.048,0.506l0.593,0.422l-0.038,0.264
		l0.113-0.018L156.643,151.536L156.643,151.536z M173.151,164.987l0.251,0.038l-0.028-0.11l-0.214,0.116l-0.27-0.454l-0.839,0.168
		l0.191,0.317l0.815,0.029L173.151,164.987L173.151,164.987z M192.96,173.78l0.222,0.042l0.041-0.088l-0.256,0.084l-0.107-0.071
		l-1.408,0.236l-0.082,0.102l-0.257,0.023l0.07,0.062l0.181-0.12l0.35,0.249l0.836-0.167L192.96,173.78L192.96,173.78z
		 M141.08,135.859l-0.489,0.261l-0.094,0.354l0.945,0.187l-0.072-0.543l-0.348-0.248l0.005-0.27l-0.065,0.055L141.08,135.859
		L141.08,135.859z M179.483,168.464l0.048-0.258l-0.282-0.287l-0.129-0.056l-1.116-0.027l-0.229,0.121l-0.221-0.083l-0.076,0.17
		l0.103,0.013l0.188-0.149l0.999,0.423l0.357,0.193l-0.049,0.243l0.305,0.186l0.461-0.113l-0.05-0.123L179.483,168.464
		L179.483,168.464z M189.959,175.515l0.266-0.007l-0.062-0.06l-0.193,0.119l-0.503-0.227l-0.987-0.026l-0.41,0.082l0.137,0.224
		l1.662-0.001L189.959,175.515L189.959,175.515z M57.396,81.687l-0.049,0.009l0.545,0.387l0.678,1.312l-0.009,0.395l-0.303-0.041
		l-0.152,0.113l1.052,0.937l0.225,0.39l0.945,0.756l0.369,0.577l1.259,0.897l0.411,0.391l0.912,0.896l1.025,0.783l0.562,0.64
		l2.529,1.904l0.269,0.438l4.422,3.256l1.076,0.893l1.309,1.024l1.962,1.467l1.063,0.943l0.233,0.13l1.199,0.744l0.393,0.562
		l0.856,0.608l0.815,0.585l0.907,0.701l0.812,0.588l0.809,0.721l0.326,0.102l0.901,0.883l1.976,1.431l3.735,2.658l2.728,1.876
		l0.495,0.144l0.559,0.448l1.761,1.034l0.379,0.067l0.684,0.395l0.487,0.084l0.885,0.462l1.236,0.591l0.741,0.17l1.213,0.401
		l1.38,0.341l1.248,0.207l0.998,0.042l1.846,0.077l3.701-2.146l0.812-1.144l0.154-0.539l0.29-0.494l0.422-0.901l0.489-2.549
		l-0.221-0.642l-0.649-1.582l-1.104-1.833l-0.29-0.491l-1.646-1.956l-0.338-0.457l-0.781-0.413l-0.779-1.12l-0.864-0.938
		l-0.978-1.033l-1.094-0.896l-0.547-0.677l-0.744-0.661l-0.802-0.808l-0.422-0.382l-1.017-0.993l-0.644-0.758l-0.77-0.642
		l-0.323-0.475l-1.497-1.104l-7.271-5.12l-0.617-0.353l-0.236-0.13l-1.198-0.972l-1.279-0.85l-0.399-0.114l-2.28-1.53l-1.604-0.912
		l-0.363-0.226l-1.789-1.193l-0.887-0.457l-0.508-0.252l-2.61-1.771l-6.304-4.479l-1.301-0.566l-3.387-2.41l-0.797-0.32
		l-0.653-0.654l-0.83-0.369l-2.595-1.796l-1.165-0.542l-1.172-0.832l-0.398-0.543l-0.603-0.116l-2.218-1.572l-2.178-1.505
		l-0.68-0.165l-1.021-0.722l-0.263-0.096l-0.084,0.055l0.042,0.397l0.794,0.345l0.25,0.509l0.681,0.161l0.323,0.595l0.829,0.306
		l0.051,0.542l0.109,0.088l0.268,0.077l0.377,0.125l0.207,0.414l0.226,0.17l0.526,0.179l0.555,0.617l0.284,0.028l0.551,0.365
		l0.189,0.369l0.254,0.066l0.347-0.21l0.292,0.25l-0.426,0.321l0.731,0.653l0.14-0.003l0.232-0.185l0.67,0.14l0.069,0.083
		l-0.287,0.25l-0.36,0.018l0.17,0.222l1.182,0.811l1.238,0.902l0.123,0.069l0.269,0.003l0.438-0.369l0.267,0.463l-0.013-0.063
		l-0.154,0.28l-0.249-0.05l0.027,0.106l0.215-0.095l0.591,0.726l1.413,1.004l0.578,0.148l-0.014-0.053l0.121,0.361l0.562,0.198
		l3.018,2.124l5.616,3.969l2.678,1.923l0.519,0.48l0.611,0.594l3.122,2.285l0.436,0.364l1.148,1.058l1.365,1.044l0.425,0.376
		l1.026,0.982l0.647,0.557l1.129,1.085l0.33,0.271l1.469,1.344l0.445,0.356l1.343,1.271l0.48,0.601l1.239,1.089l1.266,1.146
		l0.26,0.337l1.015,1.186l1.215,1.385l0.246,0.349l0.672,0.729l0.788,0.786l0.511,0.867l0.673,0.749l1.421,2.449l0.151,0.709
		l-0.009,0.567l-0.269,0.939l0.056-0.01l-0.389-0.224l-0.12-0.009l-1.978,0.293l-2.37-0.348l-1.604-0.592l-0.397-0.146l-1.808-0.832
		l-1.181-0.483l-1.296-0.584l-0.396-0.156l-0.775-0.354l-0.823-0.525l-0.496-0.107l-1.206-0.655l-1.006-0.533l-3.189-2.194
		l-0.609-0.362l-1.002-0.541l-2.468-1.723l-5.271-3.721l-0.209-0.192l-0.152-0.268l-1.415-0.875l-1.271-1.129l-1.746-1.256
		l-0.804-0.603l-0.558-0.6l-0.336-0.089l-1.135-0.811l-0.414-0.386l-1.47-1.073l-0.968-0.597l-1.589-1.423l-0.169-0.164
		l-0.312-0.477l-0.574-0.149l-0.335-0.458l-3.003-2.255l-0.605-0.688l-5.802-4.122l-0.488-0.175l-0.19-0.306l-0.625-0.206
		l-0.454-0.542l-0.766-0.346l-0.712-0.687l-1.633-0.874l-0.233,0.026l0.838,0.776l0.888,0.92l0.827,0.759l-0.343,0.236l-0.029,0.263
		l1.179,0.965l0.344,0.558l2.156,1.592l0.175,0.017l0.144-0.417l1.106,0.396l0.319,0.663l-0.017,0.154L51.4,77.783l-0.743-0.365
		l0.1,0.235l1.576,1.218l0.328,0.487l1.865,1.419l0.258,0.405l1.956,1.521l0.563,0.619l0.355-0.186L57.414,82.5l-0.109-0.558
		L57.396,81.687L57.396,81.687z M132.801,131.081l0.311,0.474l1.628,1.259l0.484,0.519l0.597,0.404l1.561-0.215l0.929-0.835
		l-0.198-0.979l-0.989-0.703l-0.837-0.515l-0.451-0.16l-2.008-1.656l-0.531-0.133l-2.635-1.854l-1.991-1.403l-0.643-0.702
		l-2.841-2.166l-0.282-0.426l-1.907-1.465l-0.263-0.422l-1.526-1.196l-0.411-0.39l-0.919-0.892l-0.766-0.637l-1.042-0.966
		l-1.021-0.791l-0.561-0.643l-1.91-1.428l-0.439,0.138l-0.793,1.185l0.02,0.289l0.584,0.499l0.56,0.894l0.162,0.494l0.453,0.051
		l0.379,0.371l-0.131,0.346l-0.218-0.11l-0.062-0.142l-0.922-0.203l-0.278-0.358l-1.148-0.855l-0.291-0.065l-0.508,0.433l0.032,0.14
		l0.568,0.428l1.289,0.598l2.317,1.646l0.3,0.445l3.369,2.395l1.218,0.597l4.676,3.313l0.268,0.064l0.189-0.186l-0.061-0.209
		l-0.598-0.502l-0.095-0.095l-0.505-0.155l0.23-0.335l0.411-0.094l0.162,0.464l0.555,0.099l0.354,0.562l0.273,0.312l0.641,0.496
		l0.812,0.653l0.422,0.092l0.131,0.222l-0.071,0.119l-0.62,0.139l-0.695-0.69l-0.206,0.025l0.026,0.137l0.752,0.846l0.931,0.668
		L132.801,131.081L132.801,131.081z M189.63,167.149l-1.875-0.98l-0.313-0.473l-0.653-0.162l-1.171-0.962l-0.714-0.686l-1.408-1.395
		l-0.105-1.451l0.013-0.281l-1.037-0.321l-0.474,0.301l0.2,1.371l0.703,0.93l1.34,1.027l0.298,0.457l0.573,0.166l0.344,0.471
		l2.637,1.873l0.479,0.115l1.327,0.835l1.213,0.449l0.402-0.054l0.119-0.065l-0.238-0.872L189.63,167.149L189.63,167.149z
		 M184.648,163.253l3.581,2.603l0.736,0.434l1.22,0.459l0.365-0.115l-1.012-0.567l-0.645-0.453l-0.635-0.313l-1.131-0.58
		l-0.697-0.543l-0.751-0.996l-0.417-1.191l-0.571-0.406l-0.861-0.119l-0.19,0.271l0.17,0.368L184.648,163.253L184.648,163.253z
		 M186.259,163.342l2.493,1.713l0.117-0.029l-0.29-0.312l-0.687-0.703l-0.284-0.308l-1.49-1.081l-0.236,0.024L186.259,163.342
		L186.259,163.342z M153.503,144.1l0.236-0.471l-1.152-0.087l-0.024,0.302l-0.818,0.218l0.3,0.293l0.784,0.059L153.503,144.1
		L153.503,144.1z M147.842,141.527l-0.353-0.409l-1.09-0.226l-0.308,0.568l0.114,0.078l1.398,0.117L147.842,141.527L147.842,141.527
		z M151.485,141.683l-0.414,0.18l-0.166,0.176l0.185,0.183l1.889,0.138l-0.295-0.339L151.485,141.683L151.485,141.683z
		 M189.808,174.569l-0.471-0.405l-1.062,0.116l-0.178,0.146l0.188,0.177L189.808,174.569L189.808,174.569z M144.026,138.167
		l-0.094,0.275l1.079,0.139l0.205-0.328L144.026,138.167L144.026,138.167z M156.716,152.461l-0.121,0.25l0.826,0.559l-0.429-0.81
		L156.716,152.461L156.716,152.461z M143.989,136.591l-0.137-0.011l-0.139,0.002l-0.287,0.184l0.271,0.28l0.901,0.049
		L143.989,136.591L143.989,136.591z M141.873,138.019l-0.951-0.25L141.873,138.019L141.873,138.019z M145.498,141.301l-0.729-0.535
		l-0.187,0.172l0.103,0.231L145.498,141.301L145.498,141.301z M138.755,136.003l0.647,0.263l0.295-0.193l-0.184-0.188l-0.7-0.087
		L138.755,136.003L138.755,136.003z M171.125,164.815l-0.214-0.288l-0.867-0.104l0.283,0.321L171.125,164.815L171.125,164.815z
		 M154.214,148.921l-0.055-0.155l-0.188-0.198l-0.339,0.013l0.071,0.396l0.119,0.049L154.214,148.921L154.214,148.921z
		 M44.913,72.321l-0.723-0.579l-0.053,0.046L44.913,72.321L44.913,72.321z M150.075,144.56l0.146,0.219l0.662-0.037l-0.26-0.287
		L150.075,144.56L150.075,144.56z M147.751,143.975l0.59,0.421l0.104-0.332L147.751,143.975L147.751,143.975z M144.113,139.693
		l0.751,0.062l-0.466-0.396L144.113,139.693L144.113,139.693z M93.643,95.552l-0.119-0.035l-0.218,0.127l0.025,0.226l0.235,0.068
		l0.179-0.171L93.643,95.552L93.643,95.552z M85.625,87.848l-0.617-0.564l-0.141-0.01l0.04,0.201L85.625,87.848L85.625,87.848z
		 M165.795,159.952l-0.198-0.293l-0.519,0.043l-0.064,0.084l0.034,0.126L165.795,159.952L165.795,159.952z M168.138,161.927
		l-0.688-0.085l0.366,0.391L168.138,161.927L168.138,161.927z M177.955,169.479l0.736-0.045l-0.059-0.122l-0.655-0.057
		L177.955,169.479L177.955,169.479z M75.996,79.941l0.352,0.397l0.186-0.033l-0.052-0.126L75.996,79.941L75.996,79.941z
		 M142.01,136.43l0.324,0.292l0.272-0.363L142.01,136.43L142.01,136.43z M151.928,146.946l0.057,0.156l0.378,0.049l0.11-0.228
		l-0.2-0.115L151.928,146.946L151.928,146.946z M159.562,154.764l-0.049-0.132l-0.359-0.049l-0.098,0.225l0.333,0.094
		L159.562,154.764L159.562,154.764z M159.86,155.575l-0.248-0.046l0.095,0.281l0.225,0.131l0.127-0.005l-0.004-0.188L159.86,155.575
		L159.86,155.575z M168.355,151.782l0.538,0.01l0.161-0.134l-0.217-0.132L168.355,151.782L168.355,151.782z M166.212,161.593
		l-0.032,0.099l0.327,0.177l0.158-0.194l-0.18-0.139L166.212,161.593L166.212,161.593z M183.147,174.034l-0.352-0.375l-0.18,0.076
		l0.043,0.127L183.147,174.034L183.147,174.034z M126.363,125.952l0.374,0.285L126.363,125.952L126.363,125.952z M72.739,77.893
		l-0.124-0.046l-0.095,0.027l0.029,0.133l0.243,0.074L72.739,77.893L72.739,77.893z M142.92,137.948l-0.229,0.063l-0.05,0.225
		l0.076,0.06l0.204-0.11L142.92,137.948L142.92,137.948z M143.051,139.269l0.16,0.176l0.104-0.131l-0.214-0.107L143.051,139.269
		L143.051,139.269z M96.435,98.594l-0.109-0.055l-0.101,0.02l0.146,0.194l0.118,0.013L96.435,98.594L96.435,98.594z
		 M147.523,143.487l-0.043-0.199l-0.225-0.057l0.038,0.18L147.523,143.487L147.523,143.487z M149.534,144.501l-0.133-0.21
		l-0.2,0.028l0.114,0.195L149.534,144.501L149.534,144.501z M150.815,145.933l0.004,0.228l0.225-0.123l-0.016-0.13L150.815,145.933
		L150.815,145.933z M152.871,148.522l-0.228-0.021l0.136,0.22h0.132L152.871,148.522L152.871,148.522z M154.412,150.478l0.281,0.204
		l-0.078-0.213l-0.122-0.046L154.412,150.478L154.412,150.478z M157.931,154.405l0.058,0.111l0.247,0.076l-0.028-0.129l-0.219-0.117
		L157.931,154.405L157.931,154.405z M160.324,155.037l0.149,0.206l0.137-0.009l0.002-0.1l-0.211-0.143L160.324,155.037
		L160.324,155.037z M160.983,156.149l-0.134-0.205l-0.191,0.021l0.119,0.19L160.983,156.149L160.983,156.149z M162.244,157.73
		l-0.023,0.087l0.293,0.18l0.03-0.08l-0.171-0.178L162.244,157.73L162.244,157.73z M163.074,158.716l-0.034-0.135l-0.11-0.067
		l-0.125-0.003l0.062,0.184L163.074,158.716L163.074,158.716z M163.76,158.001l-0.105-0.084l-0.131,0.023l0.011,0.205l0.239,0.062
		L163.76,158.001L163.76,158.001z M77.51,81.625l-0.115-0.055l-0.103,0.027l0.03,0.127l0.245,0.078L77.51,81.625L77.51,81.625z
		 M182.96,171.653l-0.244-0.059l0.037,0.19l0.244,0.078L182.96,171.653L182.96,171.653z M184.741,174.84l-0.358-0.269
		L184.741,174.84L184.741,174.84z M187.538,172.114l-0.252-0.07l0.023,0.131l0.228,0.108l0.055-0.06L187.538,172.114
		L187.538,172.114z M45.838,72.906l-0.098,0.02l0.085,0.079L45.838,72.906L45.838,72.906z M43.435,70.839l-0.079,0.095l0.104,0.008
		L43.435,70.839L43.435,70.839z M139.94,133.13l0.036,0.085l0.052-0.053L139.94,133.13L139.94,133.13z M139.5,134.206l-0.004,0.11
		l0.111-0.132L139.5,134.206L139.5,134.206z M140.855,134.415l-0.092,0.035l0.062,0.061L140.855,134.415L140.855,134.415z
		 M81.287,84.085l-0.052-0.098l-0.053,0.059L81.287,84.085L81.287,84.085z M76.984,80.594l-0.08,0.099l0.104,0.005L76.984,80.594
		L76.984,80.594z M86.316,88.679l0.032,0.079l0.051-0.052L86.316,88.679L86.316,88.679z M145.833,139.714l-0.084,0.041l0.022,0.121
		l0.119-0.012L145.833,139.714L145.833,139.714z M89.143,91.402l-0.022-0.126l-0.124,0.012l0.052,0.155L89.143,91.402L89.143,91.402
		z M90.513,92.292l-0.091,0.105l0.114,0.008L90.513,92.292L90.513,92.292z M90.974,92.716l-0.042-0.097l-0.059,0.062L90.974,92.716
		L90.974,92.716z M148.026,143.446l0.02,0.113l0.116,0.006l-0.021-0.113L148.026,143.446L148.026,143.446z M93.05,95.143
		l-0.104,0.051l0.068,0.06L93.05,95.143L93.05,95.143z M94.86,97.221l-0.01-0.125l-0.119,0.022l0.01,0.116L94.86,97.221
		L94.86,97.221z M150.62,145.282l0.055,0.104l0.058-0.066L150.62,145.282L150.62,145.282z M152.483,147.776l0.104-0.037l-0.083-0.07
		L152.483,147.776L152.483,147.776z M154.729,148.226l-0.05-0.101l-0.057,0.065L154.729,148.226L154.729,148.226z M154.329,149.617
		l-0.108-0.003l0.028,0.104l0.104,0.005L154.329,149.617L154.329,149.617z M162.4,157.093h-0.129l0.035,0.121l0.124,0.002
		L162.4,157.093L162.4,157.093z M164.467,159.731l-0.038-0.09l-0.055,0.056L164.467,159.731L164.467,159.731z M167.032,162.506
		l-0.089,0.104l0.114,0.006L167.032,162.506L167.032,162.506z M168.212,162.811l0.101-0.031l-0.079-0.07L168.212,162.811
		L168.212,162.811z M169.109,164.403l0.045,0.099l0.058-0.062L169.109,164.403L169.109,164.403z M111.944,113.239l-0.015-0.087
		l-0.071,0.076L111.944,113.239L111.944,113.239z M112.914,112.16l0.112,0.092l0.007-0.122L112.914,112.16L112.914,112.16z
		 M171.76,166.238l-0.09,0.021l0.074,0.069L171.76,166.238L171.76,166.238z M111.71,114.944l0.096-0.051l-0.062-0.053
		L111.71,114.944L111.71,114.944z M177.348,164.642l0.129,0.108l-0.024-0.1L177.348,164.642L177.348,164.642z M181.435,170.437
		l0.088-0.028l-0.071-0.062L181.435,170.437L181.435,170.437z M184.243,173.812l0.051,0.081l0.115-0.001l-0.119-0.143
		L184.243,173.812L184.243,173.812z M190.764,175.638l0.079-0.023l-0.059-0.059L190.764,175.638L190.764,175.638z"/>
	<polygon fill="#232734" points="101.368,99.559 100.811,99.524 100.729,99.035 101.362,98.257 101.851,99.284 102.113,99.947 
		103.192,101.242 103.423,101.478 103.499,102.007 102.753,103.057 102.674,103.619 102.256,104.513 101.853,105.25 101.72,105.301 
		101.662,105.094 102.002,104.166 102.304,103.679 102.401,102.124 102.574,101.935 102.75,102.102 102.808,102.233 
		102.938,102.185 103.04,101.904 102.205,101.212 101.521,99.777 101.349,99.562 101.395,99.332 101.241,99.371 	"/>
	<polygon fill="#232734" points="88.224,105.698 88.141,105.963 88.012,106.156 87.778,106.026 87.632,105.782 87.145,105.916 
		86.982,105.082 87.592,105.131 88.283,105.102 88.741,105.629 89.193,105.681 89.619,106.357 90.043,106.881 90.343,106.925 
		90.682,107.943 90.465,107.944 90.151,107.435 89.653,107.318 89.12,106.356 88.165,105.708 88.202,105.45 88.081,105.463 	"/>
	<polygon fill="#232734" points="47.316,73.656 47.483,73.42 47.901,73.494 48.326,74.228 48.751,74.239 49.573,75.521 
		49.654,75.932 49.602,76.03 49.468,76.029 49.122,75.62 48.817,75.385 48.734,75.255 48.315,75.219 48.215,75.153 47.501,74.321 	
		"/>
	<polygon fill="#232734" points="70.643,93.233 70.056,93.134 69.744,92.877 69.525,92.535 68.537,91.85 68.68,91.649 
		70.242,91.968 70.481,92.594 70.702,93.103 70.648,93.232 	"/>
	<polygon fill="#232734" points="65.127,88.583 64.884,88.692 64.535,88.514 64.25,88.039 63.157,87.545 62.882,86.9 62.633,86.272 
		62.681,86.145 62.624,86.154 63.399,86.417 63.812,87.189 64.204,87.267 64.391,87.456 64.835,88.338 65.136,88.635 	"/>
	<polygon fill="#232734" points="98.276,106.869 97.858,106.611 97.745,106.377 97.969,106.339 98.399,106.504 99.349,106.381 
		100.327,106.359 101.27,106.064 101.535,106.066 101.467,106.321 101.235,106.467 99.764,106.939 	"/>
	<polygon fill="#232734" points="97.721,111.082 98.124,110.964 99.08,112.477 98.802,112.76 98.323,111.899 98.074,111.79 
		97.933,112.283 97.972,112.276 97.66,112.025 97.055,110.807 97.235,110.504 97.779,111.072 97.747,111.325 97.866,111.316 	"/>
	<polygon fill="#232734" points="61.062,85.047 61.211,85.584 60.968,85.849 60.681,85.233 60.038,84.673 59.455,84.52 
		59.255,83.574 59.782,83.977 60.121,84.052 60.52,84.584 	"/>
	<polygon fill="#232734" points="73.444,76.123 72.952,75.534 71.829,75.333 71.378,74.55 72.567,74.972 72.695,75.022 
		73.608,75.669 	"/>
	<polygon fill="#232734" points="93.97,109.424 93.857,109.945 92.938,109.406 92.946,109.447 92.637,108.838 92.643,108.884 
		92.567,108.438 92.575,108.469 92.652,107.949 92.807,107.962 93.771,109.305 93.979,109.486 	"/>
	<polygon fill="#232734" points="84.062,83.731 83.599,83.7 83.472,83.448 82.966,83.284 82.706,82.459 82.94,82.282 83.627,82.763 
		83.781,83 84.073,83.788 	"/>
	<polygon fill="#232734" points="99.275,97 98.735,97.006 98.386,96.403 98.031,96.151 97.729,95.399 98.697,95.958 99.287,97.065 	
		"/>
	<polygon fill="#232734" points="75.466,77.884 75.24,77.547 74.958,77.525 75.259,77.224 76.293,77.641 76.609,78.247 
		76.101,78.317 75.978,78.068 	"/>
	<polygon fill="#232734" points="104.454,113 104.44,113.349 104.345,113.668 104.378,113.662 103.993,113.468 103.512,113.623 
		103.073,112.643 103.298,112.601 103.634,113.016 104.111,112.813 104.467,113.066 	"/>
	<polygon fill="#232734" points="78.18,99.437 77.922,99.407 77.305,98.007 77.412,97.805 77.644,97.923 78.279,99.171 	"/>
	<polygon fill="#232734" points="87.014,86.787 86.706,86.365 86.265,86.256 86.135,85.713 86.171,85.441 86.925,85.8 
		87.245,86.479 	"/>
	<polygon fill="#232734" points="84.875,104.202 84.517,104.148 83.982,103.024 84.02,102.757 84.106,102.662 84.22,102.665 	"/>
	<polygon fill="#232734" points="84.073,83.788 84.314,83.411 85.116,83.549 85.399,84.223 84.956,84.306 84.784,84.047 
		84.391,83.996 84.062,83.731 	"/>
	<polygon fill="#232734" points="104.467,113.066 104.538,112.53 105.112,112.991 105.654,112.979 105.784,113.528 105.003,113.587 
		104.454,113 	"/>
	<polygon fill="#232734" points="102.221,113.177 102.131,113.701 101.995,113.699 101.135,112.304 101.084,112.035 
		101.101,111.896 101.334,111.919 101.496,112.135 101.93,112.667 101.915,112.605 102.026,113.074 102.235,113.238 	"/>
	<polygon fill="#232734" points="101.93,112.667 101.982,112.4 101.979,112.119 102.227,112.177 102.962,113.538 102.786,113.748 
		102.221,113.177 102.235,113.238 102.217,112.87 101.915,112.605 	"/>
	<polygon fill="#232734" points="93.979,109.486 94.369,109.147 95.076,110.73 94.767,110.693 94.326,109.839 93.97,109.424 	"/>
	<polygon fill="#232734" points="56.03,81.069 55.584,81.086 55.405,80.684 54.865,80.24 54.823,79.858 54.77,79.868 55.513,80.144 
		56.036,81.115 	"/>
	<polygon fill="#232734" points="107.091,112.76 107.169,113.148 107.242,113.435 106.735,113.425 106.347,113.554 106.188,113.118 
		106.54,112.905 106.614,112.66 107.097,112.815 	"/>
	<polygon fill="#232734" points="99.287,97.065 99.671,96.73 100.112,97.724 99.88,98.002 99.618,97.414 99.275,97 	"/>
	<polygon fill="#232734" points="100.014,112.305 99.947,112.838 99.687,112.769 99.2,111.79 99.301,111.593 99.424,111.622 
		99.583,111.844 100.025,112.367 	"/>
	<polygon fill="#232734" points="85.921,104.421 85.572,104.54 85.071,103.3 85.328,103.358 85.923,104.45 	"/>
	<polygon fill="#232734" points="59.938,66.827 60.058,66.801 60.878,67.01 61.022,67.347 60.993,67.478 60.771,67.522 
		59.994,66.953 	"/>
	<polygon fill="#232734" points="75.328,96.579 75.814,96.557 76.338,97.396 76.121,97.696 75.319,96.538 	"/>
	<polygon fill="#232734" points="65.136,88.635 65.319,88.373 65.275,88.381 65.604,88.641 65.978,89.399 65.975,89.681 
		65.754,89.685 65.127,88.583 	"/>
	<polygon fill="#232734" points="69.784,73.431 68.866,73.208 68.763,72.688 69.682,73.187 	"/>
	<polygon fill="#232734" points="71.353,93.759 71.74,93.697 72.112,94.405 71.891,94.703 71.345,93.705 	"/>
	<polygon fill="#232734" points="97.122,95 96.819,95.208 96.558,94.916 96.526,94.782 96.552,94.521 96.809,94.571 	"/>
	<polygon fill="#232734" points="67.546,71.89 67.913,72.002 68.022,72.263 68.031,72.582 67.846,72.624 	"/>
	<polygon fill="#232734" points="74.603,96.064 75.328,96.579 75.319,96.538 75.239,96.945 75.153,97.013 75.027,96.982 
		74.579,96.173 74.647,96.056 	"/>
	<polygon fill="#232734" points="80.755,81.195 81.234,81.45 81.183,81.833 80.817,81.715 	"/>
	<polygon fill="#232734" points="56.036,81.115 56.4,81.004 56.839,81.804 56.509,81.731 56.335,81.327 56.03,81.069 	"/>
	<polygon fill="#232734" points="88.52,87.463 88.815,87.237 88.963,88.028 88.886,88.098 88.765,88.063 	"/>
	<polygon fill="#232734" points="100.743,112.836 100.014,112.305 100.025,112.367 100.103,111.838 100.346,111.893 
		100.769,112.723 100.703,112.843 	"/>
	<polygon fill="#232734" points="78.853,79.69 79.078,79.578 79.504,79.892 79.472,80.277 79.116,80.189 78.854,79.706 	"/>
	<polygon fill="#232734" points="79.435,99.668 79.123,99.899 78.817,99.275 79.062,98.976 	"/>
	<polygon fill="#232734" points="81.477,101.309 81.692,101.181 82.003,101.389 82.084,101.646 82.053,101.898 81.813,101.833 
		81.474,101.259 	"/>
	<polygon fill="#232734" points="77.204,78.688 77.554,78.854 77.618,79.263 77.544,79.342 77.414,79.326 	"/>
	<polygon fill="#232734" points="80.15,80.633 80.324,80.832 80.346,80.972 80.188,81.164 80.05,81.186 79.867,80.86 	"/>
	<polygon fill="#232734" points="81.868,81.64 81.984,81.98 81.802,82.304 81.632,81.768 	"/>
	<polygon fill="#232734" points="72.973,94.897 73.498,95.321 73.295,95.705 72.939,95.129 72.998,94.893 	"/>
	<polygon fill="#232734" points="79.812,100.124 80.378,100.647 79.895,100.736 79.789,100.357 79.862,100.115 	"/>
	<polygon fill="#232734" points="83.028,102.182 83.169,102.184 83.446,102.657 83.407,102.896 83.073,102.716 	"/>
	<polygon fill="#232734" points="62.381,68.731 62.609,68.385 62.95,68.451 62.844,68.892 62.368,68.668 	"/>
	<polygon fill="#232734" points="110.733,108.769 110.66,109.114 110.404,109.058 110.473,108.716 	"/>
	<polygon fill="#232734" points="107.973,112.193 108.232,112.176 108.736,112.274 108.302,112.587 	"/>
	<polygon fill="#232734" points="81.474,101.259 80.975,101.156 80.935,101.021 80.913,100.742 81.24,100.799 81.477,101.309 	"/>
	<polygon fill="#232734" points="52.517,78.388 52.209,78.292 52.18,77.802 52.421,77.883 	"/>
	<polygon fill="#232734" points="78.854,79.706 78.424,79.972 78.348,79.551 78.625,79.332 78.853,79.69 	"/>
	<polygon fill="#232734" points="92.689,90.986 93.125,91.542 93.061,91.779 92.812,91.719 	"/>
	<polygon fill="#232734" points="71.345,93.705 70.95,94.015 70.591,93.466 70.643,93.233 70.648,93.232 71.353,93.759 	"/>
	<polygon fill="#232734" points="64.789,70.788 64.913,70.288 65.055,70.309 65.22,70.618 65.022,70.787 64.775,70.735 	"/>
	<polygon fill="#232734" points="85.923,104.45 86.352,104.471 86.393,104.601 86.322,104.857 86.191,104.889 85.921,104.421 	"/>
	<polygon fill="#232734" points="87.99,86.573 88.088,86.667 88.068,87.019 87.952,87.056 87.807,86.868 87.771,86.738 
		87.867,86.549 	"/>
	<polygon fill="#232734" points="53.708,79.202 53.498,79.232 53.429,78.885 53.523,78.802 53.703,78.931 	"/>
	<polygon fill="#232734" points="95.543,110.219 95.261,109.953 95.477,109.608 95.609,109.981 95.548,110.218 	"/>
	<polygon fill="#232734" points="103.216,103.364 103.334,103.575 103.137,104.036 102.892,104.042 102.927,103.784 
		103.257,103.357 	"/>
	<polygon fill="#232734" points="107.097,112.815 107.691,112.844 107.804,113.065 107.592,113.175 107.091,112.76 	"/>
	<polygon fill="#232734" points="109.23,111.433 109.481,111.129 109.702,111.199 109.652,111.395 	"/>
	<polygon fill="#232734" points="63.748,69.068 63.762,69.541 63.632,69.526 63.532,69.081 	"/>
	<polygon fill="#232734" points="90.824,89.875 90.726,89.377 91.081,89.637 	"/>
	<polygon fill="#232734" points="66.828,71.727 66.474,71.433 66.747,71.207 	"/>
	<polygon fill="#232734" points="92.329,90.783 92.121,90.815 92.036,90.458 92.131,90.375 92.321,90.507 	"/>
	<polygon fill="#232734" points="92.637,108.838 92.213,108.89 92,108.735 92.011,108.794 92.154,108.577 92.575,108.469 
		92.567,108.438 92.643,108.884 	"/>
	<polygon fill="#232734" points="102.586,105.508 102.583,105.642 102.382,105.783 102.375,105.655 102.457,105.549 	"/>
	<polygon fill="#232734" points="109.067,111.902 108.723,111.804 108.691,111.679 108.883,111.596 	"/>
	<path fill="#232734" d="M109.884,110.1l0.271-0.353L109.884,110.1z"/>
	<polygon fill="#232734" points="61.358,67.847 61.431,67.784 61.647,67.926 61.657,68.036 61.39,67.968 	"/>
	<path fill="#232734" d="M90.157,88.821l-0.254,0.348L90.157,88.821z"/>
	<polygon fill="#232734" points="95.883,94.125 95.946,94.051 96.163,94.173 96.051,94.315 	"/>
	<polygon fill="#232734" points="64.499,70.054 64.153,69.947 64.192,69.749 64.324,69.728 64.423,69.815 	"/>
	<polygon fill="#232734" points="95.021,93.081 94.646,93.009 94.667,92.807 94.79,92.792 	"/>
	<polygon fill="#232734" points="91.859,108.989 91.565,108.426 91.505,108.435 92.011,108.794 92,108.735 91.82,108.995 	"/>
	<polygon fill="#232734" points="94.332,92.299 94.391,92.354 94.286,92.562 94.158,92.456 	"/>
	<polygon fill="#232734" points="95.865,110.782 95.554,110.561 95.543,110.219 95.548,110.218 95.833,110.45 95.831,110.787 	"/>
	<polygon fill="#232734" points="65.319,88.373 65.211,88.18 65.306,88.153 65.275,88.381 	"/>
	<polygon fill="#232734" points="72.998,94.893 72.876,94.668 72.995,94.648 72.973,94.897 	"/>
	<polygon fill="#232734" points="74.647,96.056 74.521,95.847 74.624,95.825 74.603,96.064 	"/>
	<polygon fill="#232734" points="62.681,86.145 62.562,85.927 62.668,85.925 62.624,86.154 	"/>
	<polygon fill="#232734" points="79.862,100.115 79.754,99.906 79.851,99.907 79.812,100.124 	"/>
	<polygon fill="#232734" points="65.962,70.717 66.058,70.742 65.996,70.81 	"/>
	<polygon fill="#232734" points="57.396,81.687 57.274,81.466 57.383,81.45 57.347,81.695 	"/>
	<polygon fill="#232734" points="54.823,79.858 54.713,79.65 54.812,79.647 54.77,79.868 	"/>
	<polygon fill="#232734" points="91.565,108.426 91.447,108.194 91.562,108.198 91.505,108.435 	"/>
	<polygon fill="#232734" points="91.82,108.995 91.933,109.228 91.813,109.235 91.859,108.989 	"/>
	<polygon fill="#232734" points="92.797,109.652 92.646,109.454 92.946,109.447 92.938,109.406 92.751,109.661 	"/>
	<polygon fill="#232734" points="92.751,109.661 92.881,109.883 92.769,109.899 92.797,109.652 	"/>
	<polygon fill="#232734" points="93.152,110.482 93.04,110.495 93.042,110.385 93.151,110.367 	"/>
	<polygon fill="#232734" points="95.831,110.787 95.954,110.986 95.796,111.002 95.865,110.782 	"/>
	<polygon fill="#232734" points="100.445,105.269 100.551,105.488 100.448,105.483 100.501,105.26 	"/>
	<polygon fill="#232734" points="103.257,103.357 103.15,103.139 103.261,103.115 103.216,103.364 	"/>
	<polygon fill="#232734" points="97.933,112.283 98.036,112.487 97.938,112.504 97.972,112.276 	"/>
	<polygon fill="#232734" points="100.703,112.843 100.825,113.073 100.708,113.089 100.743,112.836 	"/>
	<polygon fill="#232734" points="104.345,113.668 104.444,113.861 104.35,113.884 104.378,113.662 	"/>
	<polygon fill="#232734" points="109.865,110.715 109.766,110.689 109.834,110.618 	"/>
	<polygon fill="#232734" points="135.662,132.437 135.171,132.375 134.636,131.958 134.724,131.558 135.318,131.219 
		136.242,131.526 136.308,131.818 136.149,132.772 136.043,132.843 135.934,132.821 135.852,132.708 	"/>
	<polygon fill="#232734" points="122.643,122.087 123.211,122.49 123.027,122.929 122.625,122.993 121.615,122.06 121.346,121.753 
		121.524,121.437 121.981,121.989 	"/>
	<polygon fill="#232734" points="116.227,118.505 115.658,117.663 115.803,117.459 116.146,117.46 116.864,118.049 116.625,118.468 
			"/>
	<polygon fill="#232734" points="129.852,127.273 130.546,128.113 130.486,128.216 130.35,128.228 129.288,127.844 129.135,127.612 
			"/>
	<polygon fill="#232734" points="132.374,129.95 132.26,129.692 132.001,129.628 131.825,129.16 132.874,129.433 133.011,129.649 
		132.889,129.885 	"/>
	<polygon fill="#232734" points="134.265,131.486 133.996,131.528 133.806,131.349 133.739,131.081 133.775,130.777 
		134.083,130.599 134.474,131.159 	"/>
	<polygon fill="#232734" points="118.633,119.655 118.444,119.968 118.065,119.917 117.792,119.106 118.314,119.048 
		118.352,119.219 	"/>
	<polygon fill="#232734" points="124.353,123.979 124.567,123.581 124.699,123.55 124.968,123.535 	"/>
	<polygon fill="#232734" points="124.099,123.229 124.003,123.557 123.588,123.633 123.495,123.583 123.566,123.327 	"/>
	<polygon fill="#232734" points="120.425,121.484 120.575,121.073 121.182,121.019 121.024,121.44 	"/>
	<polygon fill="#232734" points="120.437,120.58 120.266,120.916 119.856,120.972 119.739,120.788 119.811,120.671 	"/>
	<polygon fill="#232734" points="119.707,120.075 119.132,120.476 119.075,120.276 119.172,120.138 	"/>
	<polygon fill="#232734" points="133.61,130.253 133.53,130.511 133.013,130.669 132.948,130.59 132.981,130.46 	"/>
	<polygon fill="#232734" points="117.077,118.665 117.338,118.593 117.599,118.624 117.432,118.949 117.297,118.964 	"/>
	<polygon fill="#232734" points="131.676,128.541 131.545,128.877 131.429,128.901 131.345,128.719 	"/>
	<polygon fill="#232734" points="178.561,161.827 178.963,162.218 179.5,163.048 180.212,163.737 180.66,164.335 181.866,165.276 
		182.137,165.693 182.987,166.339 183.851,167.003 183.864,167.575 182.769,166.698 182.268,166.204 181.354,165.521 
		180.949,165.131 180.257,164.427 179.323,163.687 178.652,162.493 178.61,161.817 	"/>
	<polygon fill="#232734" points="177.095,161.493 176.632,160.708 176.709,160.462 	"/>
	<polygon fill="#232734" points="186.437,170.401 186.206,170.382 186.17,170.177 186.304,170.171 186.417,170.255 	"/>
	<path fill="#232734" d="M176.722,160.527l-0.079-0.467L176.722,160.527z"/>
	<path fill="#232734" d="M180.35,161.285l0.08,0.469L180.35,161.285z"/>
	<polygon fill="#232734" points="171.702,157.603 172.128,158.497 172.835,159.561 173.579,160.594 174.384,161.579 
		174.903,162.065 174.995,162.459 173.85,161.414 173.564,161.106 173.14,160.728 172.444,159.833 171.945,159.148 171.611,158.526 
		171.47,157.993 	"/>
	<polygon fill="#232734" points="170.748,159.194 171.211,159.462 171.205,159.729 171.137,159.849 170.883,159.804 	"/>
	<polygon fill="#232734" points="173.333,162 173.081,162.354 172.503,161.577 172.736,161.518 	"/>
	<polygon fill="#232734" points="175.563,166.042 175.758,165.778 176.285,165.892 176.475,166.177 175.942,166.246 	"/>
	<polygon fill="#232734" points="169.955,157.11 170.104,157.322 170.104,157.737 169.776,157.464 169.98,157.106 	"/>
	<polygon fill="#232734" points="176.867,167.263 176.474,166.882 177,166.784 176.803,167.274 	"/>
	<polygon fill="#232734" points="169.98,157.106 169.859,156.919 170.01,156.89 169.955,157.11 	"/>
	<polygon fill="#232734" points="177.797,166.877 177.608,166.997 177.534,166.925 177.805,166.914 	"/>
	<polygon fill="#232734" points="175.376,157.44 174.67,157.898 174.442,158.219 174.413,158.521 174.782,159.888 175.084,160.68 
		175.537,161.391 175.456,161.61 175.199,161.527 174.937,161.198 174.298,159.997 174.105,157.687 174.99,157.23 175.372,157.415 	
		"/>
	<polygon fill="#232734" points="159.748,152.687 160.188,152.413 160.171,151.719 160.583,151.228 160.572,152.075 160.64,152.794 
		160.115,152.897 159.741,152.632 	"/>
	<polygon fill="#232734" points="162.145,152.226 162.216,152.571 162.053,152.917 161.963,152.572 	"/>
	<polygon fill="#232734" points="162.049,152.861 161.955,153.56 161.907,153.094 	"/>
	<path fill="#232734" d="M161.946,153.489l0.08,0.469L161.946,153.489z"/>
	<path fill="#232734" d="M163.635,156.153l-0.147-0.865L163.635,156.153z"/>
	<polygon fill="#232734" points="156.936,146.321 157.565,146.681 157.059,146.778 156.796,146.526 	"/>
	<polygon fill="#232734" points="169.92,161.679 169.698,161.501 168.577,159.212 168.629,158.946 168.842,159.114 169.968,161.296 
			"/>
	<path fill="#232734" d="M167.433,159.147l0.079,0.471L167.433,159.147z"/>
	<path fill="#232734" d="M167.5,159.548l0.078,0.47L167.5,159.548z"/>
	<polygon fill="#232734" points="152.956,145.385 153.446,145.544 152.952,145.359 	"/>
	<polygon fill="#232734" points="149.38,142.491 148.877,142.149 149.377,141.999 149.511,142.246 	"/>
	<path fill="#232734" d="M179.535,168.455l-0.463,0.082L179.535,168.455z"/>
	<polygon fill="#232734" points="189.685,171.441 189.955,171.635 189.492,171.714 	"/>
</g>
</svg>
