<?xml version="1.0" encoding="utf-8"?>
<!-- Generator: Adobe Illustrator 15.0.2, SVG Export Plug-In . SVG Version: 6.00 Build 0)  -->
<!DOCTYPE svg PUBLIC "-//W3C//DTD SVG 1.1//EN" "http://www.w3.org/Graphics/SVG/1.1/DTD/svg11.dtd">
<svg version="1.1" id="Layer_1" xmlns="http://www.w3.org/2000/svg" xmlns:xlink="http://www.w3.org/1999/xlink" x="0px" y="0px"
	 width="165px" height="165px" viewBox="0 0 165 165" enable-background="new 0 0 165 165" xml:space="preserve">
<g id="queso">
	<path fill="#232734" d="M103.432,32.36l0.608,0.242l0.931,1.074l1.192,1.584l0.604,0.96l0.312,0.634l0.5,1.287l-0.054,1.733
		l-0.192,1.397l-0.146,1.401l-0.278,1.09l-0.562,1.012l0.604,1.05l0.424,1.053l1.729,3.947l0.651,2.394l0.343,2.534l-0.15,0.544
		l-0.071,0.564l-0.278,0.334l0.077,0.395l0.017,0.978l0.213,2.833l0.345,1.225L110.99,64l0.32,0.633l0.678,1.607l0.123,1.374
		l0.009,1.411l0.093,1.416l-0.094,0.777l-0.41,0.637l-0.889,2.124l-3.379,3.245l-0.711,1.652l-0.076,1.226l0.386,1.006l0.987,1.384
		l0.701,1.051l0.535,0.161l1.019-0.073l1.44,1.307l1.301,1.297l1.006,1.188l-0.053,0.417l0.562,1.066l0.657,0.527l1.576,1.409
		l1.522,2.134l0.404,1.043l0.062,2.308l-0.785,0.831l-1.277,1.107l-1.209,0.979l-3.442,2.497l-5.005,3.223l-1.823,1.345l-1.989,1.36
		l-1.295,0.868l-4.56,3.143l-1.675,1.063l-1.564,0.975l-1.583,0.945l-1.696,1.021l-1.313,0.836l-1.181,0.785l-1.344,0.785
		l-0.711,0.438l-0.713,0.438l-0.753,0.398l-0.721,0.448l-0.716,0.441l-0.848,0.443l-3.306,1.654l-0.51,0.254l-3.628,1.604
		l-0.782,0.313l-0.669,0.229l-0.787,0.333l-0.491,0.337l-0.663,0.074l-0.29-0.039l-1.73-0.652l-0.819-0.552l-1.136-0.833
		l-1.041-0.464l-0.742-0.298l-0.46-0.424l-1.674-0.438l-1.846-0.733l-0.383-0.396l-0.371-0.177l-1.446-0.604l-0.59-0.387
		l-1.275-0.886l-0.738-0.417l-0.735-0.662l-1.058-0.934l-1.026-0.74l-1.294-0.854l-0.834-0.647l-0.544-1.131l-0.141-0.199
		l-2.614-3.344l-1.56-2.869l-0.793-1.83l-0.853-1.633l-1.104-2.475l-0.695-2.004l-1.021-2.507l-0.736-1.209l-0.369-1.222
		l-0.411-0.742l-0.43-1.047l-0.287-0.949l-0.613-2.001l0.039-1.167l-0.127-3.37l0.226-0.706l0.283-1.094l0.287-0.949l0.27-1.241
		l0.17-0.685l0.085-0.806l0.578-1.818l0.262-0.91l0.321-0.462l0.466-1.04l0.58-0.971l0.627-1.106l0.868-1.621l0.674-1.075
		l0.076-0.119l0.769-1.354l0.746-1.399l0.518-0.635l1.15-1.418l0.588-0.612l0.311-0.276l0.876-0.709l1.277-1.317l1.455-1.132
		l2.513-1.846l1.438-0.91l1.284-0.889l1.164-0.706l2.263-1.538l1.975-1.476l3.088-1.902l3.77-2.534l0.238-0.152l3.387-2.074
		l1.33-0.81l1.838-1.075l1.065-0.699l0.98-0.538l1.113-0.626l0.944-0.632l0.47-0.318l1.214-0.725l1.286-0.608l1.108-0.63l0.119-0.08
		l1.021-0.498l0.969-0.593l1.483-0.822l1.306-0.572l4.715-2.025l1.34-0.467l0.392-0.163l2.151-1.089l1.14-0.582l0.996-0.509
		L103.432,32.36L103.432,32.36z M70.785,117.521l0.004,0.246l0.11-0.023l-0.169-0.2l-0.045-0.237l-0.086,0.058L70.785,117.521
		L70.785,117.521z M76.119,118.771l-0.377,0.151l-0.392-0.138l-0.954,0.104l-0.644,0.605l0.258,0.462l-0.156,0.267l-1.391,0.12
		l-0.395-0.118l-0.072-0.261l0.162-0.216l0.436-0.104l-0.426-0.33l-0.645-0.52l-0.73-0.062l-1.284-0.445l-0.984,0.122l-0.318-0.319
		l-1.783-0.711l-0.341,0.248l-0.264,0.062l-0.4-0.106l-0.293-0.379l-1.215-0.521l-0.527,0.34l-0.389-0.164l-0.114-0.219l0.166-0.203
		l0.469-0.227l-1.215-0.83l-1.382-0.552l-1.497-0.638l-0.398-0.383l-1.265-0.552l-0.938-0.612l-1.412-0.933l-0.426-0.36
		l-0.496-0.424l-0.376-0.666L53.59,109.6l-1.101-0.875l-1.082-0.896l-0.67-0.905l-0.713-1.056l-0.47-1.019l-1.247-2.026
		l-0.622-0.605l-0.162-0.379l0.016-0.265l-0.647-1.254l-0.76-1.52l-0.162-0.23l-0.125-0.014l-0.278-0.002l-0.169-0.463l0.309-0.294
		l-0.504-1.032l-0.391-0.898l-0.403-1.065l-0.466-0.721l0.185-0.655l-0.188-1.119l-0.284-1.27L43.1,91.021l-0.112-0.449l0.546,0.053
		l0.102-0.064l0.056-0.879l-0.401-2.203l-0.169-1.686l-0.378-0.122l-0.15-0.241l0.185-0.261l0.265-0.042l0.104-1.412l0.218-0.966
		l0.07-1.129l0.041-0.279l0.117-2.248l-0.062-0.985l-0.104-1.813l-0.118-0.072l0.249-0.494l0.307-0.421l-0.245-0.147l-0.406,0.836
		l0.149,0.208L42.789,76.8l-0.356,0.923l0.271,0.573l-0.515,0.351L42,79.524l-0.326,1.088l-0.261,1.239l-0.33,1.23l-0.403,1.356
		L40.613,85l0.003,2.829l0.177,1.987l0.583,1.595l0.684,1.86l0.399,0.75l0.22,0.814l0.441,0.889l1.317,2.817l0.524,1.617
		l1.312,3.004l0.318,0.635l0.784,1.511l0.735,1.699l0.967,1.738l0.612,0.952l1.492,1.878l1.105,1.135l0.659,1.326l1.085,0.771
		l0.913,0.659l1.023,0.757l0.874,0.717l0.835,0.865l0.929,0.521l0.836,0.529l0.816,0.59l1.796,0.764l0.397,0.4l1.354,0.539
		l2.895,1.043l0.375,0.144l0.643,0.247L68.284,123l0.81,0.562l0.813,0.551l0.408,0.022l1.405,0.537l0.903-0.608l1.533-0.572
		l0.386,0.184l0.599-0.203l-0.03-0.399l0.788-0.298l0.435,0.363l0.558-0.257l0.068-0.562l0.877,0.109l0.802-0.332l-0.171-0.652
		l0.505-0.229l0.154,0.025l0.29,0.272l0.211-0.099l0.055-0.522l0.854,0.17l1.285-0.758l-0.014-0.396l0.757-0.454l0.133-0.248
		l-0.062,0.021l0.813,0.205l0.725-0.41l-0.012-0.281l0.902-0.21l0.83-0.55l-0.037-0.404l0.582-0.236l0.396,0.158l0.252-0.403
		l-0.604-0.142l0.052-0.104l0.758-0.332l0.199,0.201l0.832-0.479l0.839-0.467l0.086-0.51l0.372,0.006l0.146,0.467l0.897-0.84
		l0.944-0.299l0.841-0.513l0.737-0.604l-0.068-0.379l0.171-0.43l-0.062,0.029l0.299,0.289l0.356,0.199l1.397-0.937l-0.023,0.013
		l1.076-0.643l-0.254-0.439l0.309,0.021l0.4,0.067l0.037-0.402l0.945-0.625l0.64,0.027l0.45-0.401l0.041-0.369l0.972-0.235
		l1.554-0.979l1.266-0.902l0.199-0.362l0.359-0.184l0.371-0.163l0.472-0.43l0.319-0.091l-0.032-0.325l-0.091-0.083l0.062-0.932
		l0.377-0.152l0.379,0.396l0.479-0.283l0.212-0.431l0.57-0.11l1.021-0.885l0.021-0.271l-0.875,0.314l-0.936,0.614l-0.853,0.693
		l-0.375,0.161l-0.271,0.004l-2.406,1.461l-0.812,0.558l-1.1,0.64l-1.204,0.734l-2.774,1.389l-0.295-0.379l0.137,0.024l1.775-0.822
		l0.732-0.418l0.813-0.541l1.82-1.057l1.849-1.271l0.182-0.365l0.375-0.153l0.133,0.035l1.271-0.536l0.445-0.29l0.105-0.267
		l0.371-0.162l0.845-0.592l0.258,0.008l1.538-0.692l0.167-0.358l0.258,0.018l1.614-0.995l0.085-0.104l0.104-0.248l0.123,0.028
		l0.715-0.629l0.377-0.161l0.229-0.021l-0.043-0.089l-0.162,0.166l-0.38,0.153l-0.847,0.576l-0.254-0.03l-1.707,1.104l-0.105,0.244
		l-0.258-0.024l-1.508,0.739l-0.184,0.362l-0.848,0.588l-0.379,0.144l-0.131-0.042l-1.514,0.684l-0.203,0.17l-0.104,0.262
		l-0.374,0.154l-0.266,0.011l-2.215,1.188l-0.119,0.072l-3.219,1.971l-1.279,0.856l-0.203,0.36l-0.35,0.137l-1.354,1.352
		l-0.593,0.362l-2.418,1.38l-0.264-0.008l-0.013-0.021l0.164-0.33l1.149-0.682l0.107-0.271l0.375-0.154l0.6-0.194l-0.39-0.105
		l-0.192,0.343l-0.373,0.157l-0.133-0.039l-1.638,0.749l-1.474,0.779l-1.424,0.862l-0.131,0.396l-0.369,0.106l0.08-0.5l-0.571,0.296
		l-0.378,0.161l-0.545,0.099l-1.711,0.686l-0.535,0.167l-2.822,1.321l-2.643,1.354l-1.104,0.624l-0.105,0.265L76.119,118.771
		L76.119,118.771z M45.816,96.211l-0.008,0.232l0.136-0.067l-0.173-0.146l0.123-0.291l0.388,0.121l0.473-0.035l0.127,0.302
		l-0.362,0.675l0.484,0.441l0.121,0.552l0.639,0.254l-0.014-0.031l-0.183,0.177l-0.774,0.199l0.143,0.398l0.744,0.177l0.078,0.554
		l-0.346,0.457l0.42,0.051l0.402-0.488l0.624,0.92l-0.484,0.271l-0.179,0.213l0.051,0.211l0.422,0.021l-0.02-0.052l0.057,0.677
		l0.614,0.176l0.519-0.279l0.857,0.384l-0.625,0.104l-0.228,0.164l-0.22,0.352l0.141,0.343l0.25-0.05l0.228-0.354l0.236-0.134
		l0.531,0.417l-0.393,0.403l0.293,0.426l-0.051,0.264l-0.147,0.235l-0.312,0.276l0.193,0.404l0.222-0.086l0.469-0.879l0.155-0.062
		l0.246,0.1l0.12,0.677l0.262,0.312l-0.025-0.058l-0.585,0.363l-0.169,0.174l0.152,0.67l0.529,0.205l0.151-0.634l0.124-0.062
		l0.294,0.15l0.328,0.895l0.179,0.802l0.288,0.097l0.66-0.223l0.331,0.324l-0.039,0.146l-0.606,0.353l0.004,0.105l0.886,0.301
		l0.264,0.023l0.297,0.634l0.438,0.812l-0.406-0.099l-0.189,0.183l0.092,0.229l0.262-0.004l0.221-0.358l0.667,0.229l0.354,0.007
		l0.381,0.915l0.77,0.201l0.326-0.271l0.653,0.531L59.67,112l0.348,0.6l0.19-0.183l0.024-0.276l0.438-0.388l0.211,0.478
		l-0.153,0.576l0.255,0.506l0.645,0.562l0.981,0.394l0.842-0.018l0.546-0.284l0.222,0.568l-0.575,0.301l-0.096,0.256l0.312,0.179
		l0.329-0.261l1.147,0.117l0.451,0.646l0.354,0.129l-0.023,0.67l0.856-0.252l-0.059,0.022l0.782,0.111l-0.241-0.604l0.221-0.146
		l0.379-0.097l0.422,0.389l0.301,0.298l0.447,0.341l0.472,0.411l1.075-0.438l0.349,0.403l0.42-0.079l0.403,0.137l0.313,0.559
		l0.129,0.166l0.121-0.068l0.228-0.263l0.452-0.036l0.237-0.383l0.198-0.145l0.442-0.041l0.1-0.252l-0.231-0.679l0.186-0.123
		l0.399,0.183l0.443,0.762l0.961-0.032l0.114-0.071l0.129-0.526l-0.012-0.56l0.265-0.297l0.285,0.221l-0.207,0.205l0.019,0.664
		l0.115,0.113l0.469-0.273l-0.093-0.512l0.146-0.302l0.692-0.38l0.56-1.028l0.123-0.046l0.237,0.156l0.144,1.1l0.559-0.359
		l0.674-0.517l0.404-0.049l0.039-0.271l0.676-0.533l0.227-0.147l0.689,0.492l0.497-0.183l0.05-0.133L82.68,113.2l0.108-0.241
		l0.373,0.077l0.179,0.221l0.909-0.312l-0.028-0.551l0.318-0.266l-0.01-0.561l0.31-0.239l-0.011-0.28l0.498,0.041l-0.024-0.045
		l-0.179,0.53l-0.002,0.511l-0.273,0.198l0.281,0.468l0.35-0.143l0.494-0.586l0.647,0.062l0.172-0.609l0.545-0.103l0.546-0.001
		l0.105-0.797L87.93,110.6l0.25,0.101l0.605-0.45l0.045-0.254l-0.047,0.02l0.585,0.187l-0.13,0.377l0.046,0.125l0.114-0.05
		l-0.086-0.432l0.146-0.824l0.362-0.117l0.738,0.796l0.655-0.248l-0.629-0.463l0.699-0.468l0.399,0.084l0.084,0.276l0.15-0.178
		l0.221-0.004l0.021-0.093l-0.225,0.14l-0.301-0.119l0.266-0.552l-0.055,0.021l0.407,0.131l0.558-0.379l0.446,0.131l0.519-0.342
		l0.576,0.131l0.061-0.428l0.875-0.435l0.277-0.897l0.785,0.438l0.604-0.532l-0.624-0.16l0.091-0.369l0.474-0.185l0.526,0.153
		l1.92-0.812l0.351-0.313l0.729-0.203l0.044-0.53l0.223-0.081l0.205,0.182l0.656-0.246l0.803-0.195l0.226-0.389l0.433-0.312
		l0.184-0.388l1.01-0.881l1.162-0.289l0.896-0.43l0.556-0.082l1.107-0.923l0.168-0.483l0.32-0.449h0.271l0.623,0.525l0.074,0.271
		l0.057-0.084l-0.174-0.169l-0.06-0.396l-0.106-0.539l0.155-0.201l0.198,0.164l0.992,0.076l0.32-0.264l0.793-0.232l-0.283-0.444
		l1.086-0.123l0.233-0.129l-0.052,0.022l0.895-0.688l-0.131-0.436l0.282-0.229l1.125,0.251l-0.021-0.188l-0.447-0.354l0.521-0.083
		l0.514-0.188l0.236,0.209l0.541-0.031l0.805-0.229l0.205-0.47l-0.408-0.737l0.359,0.003l0.215,0.399l0.684,0.092l-0.176-0.753
		l-0.282,0.039l-0.192-0.747l-0.894-1.601l-0.199-0.193l-0.509-0.27L115.52,90.7l-1.299-1.222l-0.935-0.441l-0.843-0.641
		l0.021,0.049l0.138-0.406l-0.727-0.956l-0.271-0.007l-0.468-0.535l-0.444-0.688l0.025,0.06l-0.145-0.356l-0.98-0.565l-0.854-0.438
		l-0.531-0.011l-0.355-0.646l-0.562-1.271l-1.153-2.065l-0.079-1.299l-0.209-0.97V77.45l0.913-1.513l0.901-0.787l0.704-0.693
		l0.185-0.209l0.495-1.014l0.952-1.24l0.041-0.26l0.167-0.685l0.569-1.438l0.486-0.709l0.018-0.415l-0.074-1.114l-0.051-0.278
		l-0.58-1.253l-1.012-2.149l-0.068-1.121l-0.555-2.778l-0.646-0.307l-0.595,0.29l-0.562-0.384l0.246-0.293l1.059-0.775l0.397-1.021
		l0.14-0.831l0.072-1.123l-0.18-1.118l-0.659-1.556l-0.216-0.521l-0.452-1.788l-0.239-1.634l-0.106-0.317l-0.578-1.75l-0.062-0.127
		l-0.679-1.237l-0.315-0.281l-0.334-0.382l-0.004-0.614l0.67-1.548l0.405-1.021l0.171-0.538l0.359-1.484l-0.027-0.423l0.189-0.255
		l-0.358-0.909l-0.229-0.963l-2.488-3.031l-0.203,0.181l-0.483,0.01l-0.146-0.224l-1.001-0.044l0.376,0.428l0.1,1.074l-0.293-0.039
		l-0.424-0.518l-0.42,0.215l-0.052,0.274l-0.62,0.563l-0.416-0.08l0.021-0.257l-0.377-0.739l-0.244,0.274l-0.03,0.809l-0.369,0.103
		l-0.149,0.374l-0.396,0.032l-0.3-0.278l-0.314,0.427l0.053,0.271l0.024,0.137l-0.089,0.25l-0.382-0.088l-0.448-1.198l-1.314,0.642
		l0.047-0.02l-0.801,0.267l-0.744,0.415l-0.809,0.235l-0.863,0.477l-0.897,0.376l0.032-0.015l-0.408,0.097l-1.68,0.765l0.133,0.215
		l0.191,0.206l0.002,0.366l-0.271-0.012l-0.32-0.423l-0.308,0.041l-3.283,1.677l-2.521,1.298l-0.322,0.22l-0.146,0.61l0.383,0.526
		l0.076,0.269l-0.24,0.051l0.15,0.191l-0.229,0.351l-0.271,0.05l-1.16-0.398l-0.926,0.497l-0.746-0.172l-0.06,0.049l0.655,0.86
		L80.6,45.792l-0.942,0.188l-0.27,0.031l-0.198-0.168l0.028-0.269l0.628-0.467l-0.087-0.102l-0.127-0.057l-1.05,0.614l0.214,0.759
		l-0.788,0.597l-0.307,0.042l0.498-0.633l-0.268-0.432l-1.347,0.947l0.026,0.129l0.102,0.05l0.685-0.229l0.362,0.144l-0.069,0.12
		l-0.492,0.232l-0.508,0.381l-0.708-0.46l-0.484,0.221l0.229,0.317l0.029,0.268l0.046-0.019l-0.586,0.002l-0.067,0.536l-0.442,0.061
		l-0.488,0.468l0.236,0.707l-0.211,0.306l-0.404-0.609l-0.904,0.302l-0.95,0.271l-0.508,0.444l-0.39,0.854l-0.938,0.338
		l-0.431,0.333l-0.697-0.454l-0.508,0.188L68.462,53l-0.398-0.038l-0.394,0.343l-0.056,0.557L67.3,54.127l-0.394-0.111l0.111-0.396
		l-0.613-0.244l0.44,0.541l0.119,0.075l-0.232,0.431l-1.065,0.462l-0.358,0.541l-0.551-0.286l-0.02,0.282l-0.618,0.196l0.025,0.048
		l-0.548-0.709l-0.303,0.452l0.112,1.084l-0.352,0.262l-0.578-0.239l-0.114-0.229l0.112-0.396l0.247-0.032l-0.057-0.088
		l-0.165,0.174l-0.135-0.037l-0.979,0.51l-0.635,1.207l-0.106-0.099l-0.089-0.109l-0.489,0.104l0.218,0.658l-0.534,0.78
		l-0.292,0.292l-0.693-0.199L58.643,58.7l-0.394,0.18l0.034,0.146l0.527,0.001l-0.19,0.369l-0.264,0.083l-0.343,0.105l-0.6,0.932
		l-1.244-0.492l-0.228,0.102L55.9,60.563l-0.251,0.155l-0.537,0.062l-0.646,0.553l0.048-0.024l-0.506,0.16l-0.628,0.525
		l-0.191,0.361l-0.251,0.025l0.036,0.113l0.19-0.194l0.43,0.317l-0.562,0.578l-0.433,0.121l-0.643,0.577l0.058,0.353l0.709,0.525
		l-0.078,0.255l-0.271,0.01l-1.072-0.364l-0.385-0.314l0.427,0.294l-0.423,0.663l-0.141,0.015l-0.41,0.261l-0.095,0.405l0.634,1.101
		l-0.035,0.131l-0.326,0.123l-0.367-0.392l-0.445-0.178l-0.47,0.206l-0.101,0.446L48.684,67.7l-0.036,0.538l-0.458,0.491l0.12,0.249
		l0.397,0.138l0.053,0.375l0.041-0.021l-0.437-0.102l-0.299,0.265l-0.541,0.071l0.003,0.734l-0.867,0.84l-0.245,1.061l-0.124,0.066
		l-0.275,0.026l-0.277,0.266l0.559,0.515l-0.405,0.615l-0.379,0.756l-0.209,0.181l-0.41,0.062l-0.082,0.352l0.28-0.025l0.314,0.229
		l0.314,0.009l-0.082,0.37l-0.566,0.058l-0.142,0.979l-0.047,0.969l-0.386-0.102l-0.188,0.362l0.268-0.05l0.125-0.053l0.164-0.2
		l0.378,0.15l0.147,0.796l-0.388,0.025l-0.443-0.062l0.217,0.696l0.137,0.24l0.534,0.389l-0.645,0.231l-0.368-0.324l0.409,0.305
		l-0.179,0.352l0.047,0.402l-0.51,0.435l0.52,0.451l-0.017,0.303l0.481,0.657l-0.213,0.423l-0.475-0.254l-0.56,0.411l-0.115,0.369
		l0.325-0.031l0.37,0.388l-0.023-0.062l-0.206,0.168l-0.46,0.061l0.368,0.423l0.285,0.485l0.422,0.062l0.28,0.623l0.017,0.273
		l-0.288,0.201l-0.427-0.347l-0.168,0.33l0.503,1.165l0.093,0.105L45.3,87.72l-0.066,0.488l-0.472,0.226l-0.599,0.018l0.892,0.402
		l0.165,0.373l-0.009,0.508l-0.257,0.299l0.091,0.688l0.081,0.801l-0.528-0.051l-0.001-0.225l-0.074-0.021l0.129,0.224l-0.115,0.391
		l0.428,0.354l0.404,0.348l-0.101,0.253l-0.614,0.376l0.144,0.375l0.234-0.053l0.342-0.239l0.282-0.132l0.393,0.238l-0.633,1.297
		l-0.223,0.334l0.482,0.332l0.231,0.654l-0.235,0.045L45.816,96.211L45.816,96.211z M90.915,110.812l0.229-0.008l-0.035-0.096
		l-0.17,0.158l-0.241,0.021l0.046,0.096L90.915,110.812L90.915,110.812z M108.752,102.27l0.371-0.153l0.238-0.035l-0.055-0.091
		l-0.162,0.182l-0.369,0.152l-0.25,0.04l0.052,0.097L108.752,102.27L108.752,102.27z M109.971,101.531l0.37-0.155l0.132,0.026
		l0.621-0.254l1.217-0.842l0.097-0.248l0.743-0.424l-0.041-0.15l-0.689,0.602l-0.634,0.143l-0.659,0.48l-0.646,0.42l-0.119,0.296
		l-0.367,0.157l-0.247,0.027l0.04,0.104L109.971,101.531L109.971,101.531z M110.552,99.314l0.228-0.008l-0.071-0.119l-0.14,0.168
		l-0.221-0.012l-0.029,0.098L110.552,99.314L110.552,99.314z M112.824,98.98l0.375-0.148l0.367-0.166l0.229-0.01l0.016-0.084
		l-0.221,0.146l-0.367,0.163l-0.373,0.152l-0.261,0.036l0.056,0.104L112.824,98.98L112.824,98.98z M114.096,97.345l0.371-0.155
		l0.237-0.021l-0.058-0.088l-0.16,0.158l-0.371,0.151l-0.234,0.034l0.049,0.093L114.096,97.345L114.096,97.345z M116.052,96.277
		l0.226-0.002l-0.03-0.096l-0.168,0.151l-0.238,0.035l0.048,0.093L116.052,96.277L116.052,96.277z M117.643,95.387l0.237-0.037
		l-0.042-0.103l-0.179,0.183l-0.239-0.01l0.062,0.146L117.643,95.387L117.643,95.387z M110.039,102.221l-0.475,0.42l-0.129-0.041
		l-0.496,0.193l0.394,0.15l0.209-0.35l0.394-0.191l0.08-0.238l0.239-0.001l-0.021-0.108L110.039,102.221L110.039,102.221z
		 M56.144,111.115l-0.494-0.059l0.475,0.012l0.223-0.019l-0.037-0.091L56.144,111.115L56.144,111.115z M101.219,34.194l0.327-0.109
		l-0.011-0.234l-0.108,0.046l-0.192,0.334l-0.25,0.075l0.082,0.052L101.219,34.194L101.219,34.194z M82.838,43.901l-0.412-0.755
		l-0.293,0.436l0.486,0.407L82.838,43.901L82.838,43.901z M64.515,115.771l-0.061,0.379l0.764,0.312l0.093-0.043l-0.443-0.288
		L64.515,115.771L64.515,115.771z M77.721,116.577l0.389-0.524l-0.041-0.123l-0.227-0.044l-0.427,0.509L77.721,116.577
		L77.721,116.577z M99.096,35.592l-0.003-0.267l-0.208-0.161l-0.228,0.297l0.196,0.183L99.096,35.592L99.096,35.592z
		 M110.814,71.729l0.299-0.151l-0.199-0.277l-0.208,0.105L110.814,71.729L110.814,71.729z M65.746,53.594l-0.109,0.052l-0.153,0.205
		l0.156,0.184l0.328-0.056l-0.093-0.331L65.746,53.594L65.746,53.594z M58.997,58.025l0.179,0.461l0.421-0.235L58.997,58.025
		L58.997,58.025z M57.063,59.839l0.496-0.209l-0.093-0.291l-0.302-0.051L57.063,59.839L57.063,59.839z M75.021,117.445l-0.001-0.256
		l-0.351-0.024l-0.004,0.356L75.021,117.445L75.021,117.445z M57.812,112.504l0.282,0.199l0.259-0.083l-0.057-0.351L57.812,112.504
		L57.812,112.504z M103.395,33.334l0.016-0.262l-0.121-0.01l-0.137,0.037l-0.127,0.285l0.268,0.026L103.395,33.334L103.395,33.334z
		 M72.682,49.09l0.488-0.035v-0.122l-0.192-0.052L72.682,49.09L72.682,49.09z M99.861,105.714l0.244-0.065l0.111-0.062l0.016-0.194
		l-0.125-0.021L99.861,105.714L99.861,105.714z M85.602,113.34l-0.043-0.191l-0.154,0.16l0.029,0.112L85.602,113.34L85.602,113.34z
		 M54.705,109.781l0.003-0.098l-0.188-0.125l-0.116,0.034l0.183,0.224L54.705,109.781L54.705,109.781z M59.259,112.782l-0.137,0.21
		l0.15,0.07l0.06-0.244L59.259,112.782L59.259,112.782z M69.984,50.799l0.395,0.277l0.117-0.053l-0.022-0.214L69.984,50.799
		L69.984,50.799z M68.04,52.463l-0.059-0.117l-0.24-0.02l0.173,0.162L68.04,52.463L68.04,52.463z M109.211,74.265l-0.208,0.058
		l0.044,0.119l0.24,0.003L109.211,74.265L109.211,74.265z M108.309,75.243l-0.129,0.188l0.139,0.066l0.062-0.218L108.309,75.243
		L108.309,75.243z M46.806,70.328l-0.104-0.008l-0.104,0.072v0.256l0.198-0.064L46.806,70.328L46.806,70.328z M98.111,35.514
		l-0.082,0.056l0.082,0.044V35.514L98.111,35.514z M64.915,54.267l-0.062-0.087l-0.045,0.086L64.915,54.267L64.915,54.267z
		 M107.145,76.691l0.073-0.049l-0.065-0.04L107.145,76.691L107.145,76.691z M106.543,77.317l0.044,0.072l0.041-0.07L106.543,77.317
		L106.543,77.317z M113.191,87.698l0.065-0.04l-0.063-0.039L113.191,87.698L113.191,87.698z M49.37,66.128l-0.068,0.043l0.065,0.039
		L49.37,66.128L49.37,66.128z M117.285,96.939l-0.043-0.135l-0.121,0.062l0.038,0.128L117.285,96.939L117.285,96.939z
		 M115.365,96.854l0.074-0.045l-0.076-0.043L115.365,96.854L115.365,96.854z M112.753,98.217l-0.046-0.074l-0.041,0.072
		L112.753,98.217L112.753,98.217z M111.547,98.952l-0.023-0.106l-0.094,0.051l0.021,0.102L111.547,98.952L111.547,98.952z
		 M45.437,73.599l0.097-0.042l-0.02-0.104l-0.095,0.044L45.437,73.599L45.437,73.599z M109.131,100.238l0.104-0.055l-0.027-0.111
		l-0.102,0.051L109.131,100.238L109.131,100.238z M107.488,101.266l-0.084,0.055l0.082,0.047L107.488,101.266L107.488,101.266z
		 M108.139,102.699l-0.117,0.042l0.033,0.123l0.116-0.046L108.139,102.699L108.139,102.699z M108.576,103.303l-0.045-0.082
		l-0.049,0.088L108.576,103.303L108.576,103.303z M105.182,105.637l-0.041-0.074l-0.045,0.074H105.182L105.182,105.637z
		 M44.355,82.016l-0.04-0.113l-0.075,0.151L44.355,82.016L44.355,82.016z M95.82,108.146l0.113-0.047l-0.029-0.119l-0.11,0.051
		L95.82,108.146L95.82,108.146z M93.797,110.32l-0.043-0.07l-0.042,0.072L93.797,110.32L93.797,110.32z M92.562,110.167l0.076-0.052
		l-0.068-0.041L92.562,110.167L92.562,110.167z M89.941,111.521l-0.039-0.073l-0.043,0.071L89.941,111.521L89.941,111.521z
		 M84.668,113.791l0.087-0.057l-0.093-0.049L84.668,113.791L84.668,113.791z M80.814,115.283l-0.033-0.098l-0.066,0.125
		L80.814,115.283L80.814,115.283z M57.407,112.369l-0.077-0.081l-0.035,0.067L57.407,112.369L57.407,112.369z M62.496,114.766
		l0.051-0.104l-0.103,0.013L62.496,114.766L62.496,114.766z"/>
	<path fill="#232734" d="M85.134,60.023l-0.532-0.212l-0.504-0.779l-0.035-0.899l0.434-0.576l1.158-1.193l1.75-1.086l0.656-0.151
		l2.824-1.102l0.869,0.388l0.225,0.471l-0.043,0.335l-1.906,2.929l-1.414,1.319l-1.118,0.284l-1.397,0.12L85.134,60.023
		L85.134,60.023z M85.516,57.393l0.262-0.026l-0.057-0.102l-0.182,0.184l-0.249,0.018l0.034,0.107L85.516,57.393L85.516,57.393z
		 M88.036,58.758l0.25-0.005l0.653-0.604l-0.047,0.023l0.252-0.079l0.455-0.515l0.68-0.691l0.646-0.889l0.29-0.763l-0.163-0.188
		l-0.138-0.216l0.189,0.193l-0.346,0.427l-0.453,0.265l-0.041,0.467l-0.646-0.188l-0.416,0.2l-0.1,0.417l-0.513,0.153l-0.616,0.561
		l-0.507,0.159l0.036-0.549l-0.234-0.31l-0.361,0.532l0.445,0.867l-0.422,0.023l-0.443,0.336l-0.137-0.032l-0.195-0.178
		l-0.178-0.125l-0.104,0.243l0.269,0.45l-0.076,0.452l-0.627-0.255l-0.164,0.12l0.065,0.117l0.378,0.146l0.328-0.178l1.635-0.106
		l0.412-0.305L88.036,58.758L88.036,58.758z M90.548,54.806l-0.897,0.169l0.311,0.377L90.548,54.806L90.548,54.806z M85.168,57.941
		l-0.363,0.162l-0.018,0.223l0.13,0.025L85.168,57.941L85.168,57.941z M88.805,55.788l-0.072-0.097l-0.25-0.009l0.052,0.121
		l0.222,0.063L88.805,55.788L88.805,55.788z M86.518,56.824l0.076-0.056l-0.08-0.041L86.518,56.824L86.518,56.824z"/>
	<path fill="#232734" d="M74.957,100.662l-2.062,0.671l-0.849,0.078l-1.084-0.208l-0.925-0.607l-0.331-0.488l-0.443-0.541
		l-0.246-0.765l0.793-2.009l0.271-0.318l1.123-1.363l0.431-0.211l0.411-0.104l1.219,0.374l1.009,0.17l1.207,1.476l0.414,1.451
		l-0.244,1.352L74.957,100.662L74.957,100.662z M73.816,96.062l-0.519-0.084l-0.089,0.646l0.586-0.608l0.201-0.117L73.816,96.062
		L73.816,96.062z M74.692,97.598l0.252-0.035l-0.159-0.194l-0.365-1.011l-0.627,0.862l-1.06-0.165l-0.543-0.104l0.093-0.557
		l-0.502,0.215l0.469,0.314l-0.271,0.555l0.046-0.023l-0.57-0.184l-0.02-0.229l-0.081,0.036l0.155,0.168l-0.05,0.654l-0.812,0.074
		l-0.041,0.389l-0.699-0.031l0.176,0.605l-0.064,0.101l-0.213,0.182l0.845,1.063l1.121,0.312l0.835,0.128l1.114-0.195l0.862-0.418
		l0.537-1.344l-0.344-0.768L74.692,97.598L74.692,97.598z M71.961,95.688l-0.104,0.041l0.133,0.062L71.961,95.688L71.961,95.688z"/>
	<path fill="#232734" d="M98.857,91.168l0.354-0.98l1.667-0.664l0.993-0.1l1.146,0.502l0.916,0.678l0.834,0.713l0.225,1.121
		l-0.567,1.429l-0.901,0.407l-0.803-0.25l-0.818-0.203l-1.631-0.5L98.857,91.168L98.857,91.168z M101.223,91.902l0.383,0.34
		l-0.361,0.42l0.146,0.256l0.936,0.307l0.843,0.077l0.701-0.041l0.267-0.151l0.211-0.647l-0.041-0.134l-0.824-0.525l0.271-0.269
		l-0.309-0.165l-1.12,0.635l-0.247-0.284l-0.395-0.085l-0.435,0.328l-0.38-0.129l-0.23,0.275l0.156,0.197l0.251-0.057
		L101.223,91.902L101.223,91.902z M102.838,90.969l-0.027-0.134l-0.221-0.063l-0.342,0.236l0.013,0.365l0.378-0.036L102.838,90.969
		L102.838,90.969z M101.182,90.886l0.146-0.292l-0.312-0.146L101.182,90.886L101.182,90.886z M100.331,90.713l-0.123,0.031
		l0.179,0.085L100.331,90.713L100.331,90.713z M100.186,91.669l0.057,0.076l0.037-0.071L100.186,91.669L100.186,91.669z"/>
	<path fill="#232734" d="M68.309,70.764l0.55,0.015l0.913,2.154l-0.684,0.869l-1.543,0.35l-1.456-0.562l-0.437-0.736l0.038-0.97
		l0.128-0.388l1.153-1.093l0.805-0.087L68.309,70.764L68.309,70.764z M66.467,72.99l0.319,0.409l0.608,0.23l0.961-0.171l0.767-0.515
		l-0.135-0.539l-0.389,0.023v-0.283l-0.323-0.343l-0.149,0.051l-0.343,0.717L66.467,72.99L66.467,72.99z"/>
	<path fill="#232734" d="M87.719,88.016l-0.494,1.228l-0.412,0.187l-0.775-0.224l-0.796-1.733l0.047-0.283l0.265-0.604l0.713-0.292
		l0.354,0.172l0.527,0.47L87.719,88.016L87.719,88.016z M86.788,87.454l-0.824,0.021l-0.071,0.088l0.117,0.69l0.234,0.093
		l0.354-0.244l0.459-0.179L86.788,87.454L86.788,87.454z"/>
	<path fill="#232734" d="M56.98,76.964l-0.999-0.698l-0.131-0.447l0.349-0.82l1.253-0.501l0.391,0.156l0.44,1.02l-0.385,0.358
		l-0.27,0.459L56.98,76.964L56.98,76.964z M56.815,75.982l0.269-0.547l-0.068-0.068l-0.118,0.062L56.815,75.982L56.815,75.982z"/>
	<path fill="#232734" d="M91.729,64.537L91.943,65l-0.883,1.278l-0.985-0.306l-0.271-0.382l-0.123-0.856l0.303-0.494l1.209,0.088
		L91.729,64.537L91.729,64.537z M90.4,65.35l0.466,0.232l0.319-0.217l-0.291-0.438L90.4,65.35L90.4,65.35z"/>
	<path fill="#232734" d="M101.305,48.692l0.5,0.906l-0.205,0.511l-0.515,0.461l-0.547-0.016l-0.56-0.656l0.062-1.188l0.676-0.251
		L101.305,48.692L101.305,48.692z M100.697,49.366l-0.026-0.219l-0.085,0.039l0.145,0.165l-0.123,0.23l0.039,0.25l0.1-0.001
		l0.146-0.315L100.697,49.366L100.697,49.366z"/>
	<path fill="#232734" d="M86.309,74.257l-0.341-0.866l0.364-0.952l0.248-0.12l0.889,0.342l0.318,1.056l-0.569,0.846L86.309,74.257
		L86.309,74.257z M87.042,73.138l-0.132-0.051l-0.289,0.209l0.087,0.408l0.442,0.117L87.042,73.138L87.042,73.138z"/>
	<polygon fill="#232734" points="94.852,37.829 95.093,37.697 95.936,37.642 96.307,38.067 96.661,38.45 96.296,38.654 
		96.012,38.348 95.373,38.223 95.236,38.47 94.843,38.564 94.753,38.47 93.729,38.844 93.122,38.476 93.238,38.231 94.145,37.984 
		94.139,37.662 94.508,37.638 94.895,37.81 94.98,38.055 95.016,37.977 	"/>
	<polygon fill="#232734" points="54.552,95.003 53.952,96.027 53.663,95.962 53.059,95.375 53.021,95.239 53.086,94.389 
		53.384,94.159 54.205,94.393 	"/>
	<polygon fill="#232734" points="61.717,107.288 62.289,106.616 63.137,106.826 63.365,107.514 63.21,107.9 62.87,108.121 
		62.335,108.045 	"/>
	<polygon fill="#232734" points="57.214,61.923 56.994,61.985 56.281,61.586 55.81,61.393 55.838,61.123 56.492,60.662 
		56.973,60.884 56.81,61.22 	"/>
	<polygon fill="#232734" points="96.018,36.451 96.678,36.715 97.098,37.227 97.253,37.453 97.207,37.965 96.811,37.91 
		96.635,37.555 96.514,37.31 96.288,37.168 95.918,36.793 96.062,36.432 	"/>
	<polygon fill="#232734" points="61.24,112.986 61.452,112.688 61.688,112.889 62.901,113.334 62.762,113.573 	"/>
	<polygon fill="#232734" points="67.961,114.602 68.117,114.208 68.88,114.061 69.396,113.657 69.677,113.923 69.54,114.148 
		68.997,114.587 68.48,114.53 67.937,114.545 	"/>
	<polygon fill="#232734" points="44.524,84.073 44.689,83.658 45.078,83.65 45.376,84.035 45.901,84.062 45.801,84.434 
		45.398,84.457 45.014,84.507 44.854,84.439 44.501,84.014 	"/>
	<polygon fill="#232734" points="55.088,62.575 55.067,62.931 54.267,62.766 53.952,62.328 53.954,61.953 54.316,61.924 
		54.755,62.572 	"/>
	<polygon fill="#232734" points="54.43,64.423 53.906,64.688 53.728,64.472 52.966,64.329 52.865,64.102 53.034,63.92 	"/>
	<polygon fill="#232734" points="46.275,94.646 46.456,94.854 46.96,94.622 46.648,95.469 46.404,95.48 45.843,94.9 	"/>
	<polygon fill="#232734" points="99.286,40.062 100.164,40.413 99.648,40.857 99.352,40.614 	"/>
	<polygon fill="#232734" points="91.947,38.201 92.417,38.477 92.83,38.997 92.723,39.254 92.355,39.177 91.868,38.696 
		91.825,38.577 91.98,38.187 	"/>
	<polygon fill="#232734" points="96.979,77.169 97.122,76.899 97.771,77.039 97.871,77.296 97.783,77.561 97.229,77.644 	"/>
	<polygon fill="#232734" points="61.87,62.839 62.17,62.582 62.719,62.918 62.363,63.455 	"/>
	<polygon fill="#232734" points="46.896,71.95 47.168,71.896 47.815,72.336 47.062,72.689 	"/>
	<polygon fill="#232734" points="68.936,115.4 69.913,115.428 70.144,115.559 70.075,115.913 69.116,115.906 	"/>
	<polygon fill="#232734" points="46.438,92.714 46.248,92.357 46.383,92.13 46.803,91.8 46.907,92.486 	"/>
	<polygon fill="#232734" points="52.146,65.36 52.333,66.034 51.73,66.341 51.517,66.183 51.516,66.067 52.023,65.425 	"/>
	<polygon fill="#232734" points="104.29,35.731 104.104,36.104 103.75,36.137 103.591,35.935 103.523,35.673 103.512,35.523 
		103.635,35.151 103.582,35.175 104.143,35.392 104.124,35.343 104.316,35.777 	"/>
	<polygon fill="#232734" points="86.716,41.45 86.826,41.173 87.452,41.322 87.275,42.037 	"/>
	<polygon fill="#232734" points="75.751,48.015 76.166,48.206 76.342,48.705 75.848,48.911 75.595,48.503 75.797,47.996 	"/>
	<polygon fill="#232734" points="49.421,101.066 49.837,100.727 50.086,100.712 50.278,101.035 50.197,101.288 49.749,101.398 
		49.393,101.009 	"/>
	<polygon fill="#232734" points="113.812,90.322 114.094,90.032 114.635,90.688 114.35,90.943 114.104,90.82 114.018,90.709 	"/>
	<polygon fill="#232734" points="72.896,116.835 72.505,116.699 72.092,116.83 71.766,116.607 72.451,116.102 72.828,116.227 
		72.814,116.195 72.87,116.595 72.852,116.854 	"/>
	<polygon fill="#232734" points="62.559,57.029 61.536,56.899 61.67,56.67 62.446,56.811 	"/>
	<polygon fill="#232734" points="103.635,35.151 103.082,35.136 102.916,34.729 103.471,34.519 103.779,34.766 103.582,35.175 	"/>
	<polygon fill="#232734" points="102.354,36.491 102.285,36.244 102.404,35.998 102.841,35.86 102.794,36.379 102.604,36.549 	"/>
	<polygon fill="#232734" points="85.561,42.571 85.471,42.828 84.848,42.657 84.854,42.267 	"/>
	<polygon fill="#232734" points="83.607,43.347 83.682,42.986 84.482,42.88 84.607,42.938 84.682,43.048 84.665,43.154 
		84.43,43.298 84.296,43.334 	"/>
	<polygon fill="#232734" points="116.387,93.157 115.898,92.936 116.094,92.535 116.46,92.494 	"/>
	<polygon fill="#232734" points="114.021,93.749 113.646,93.739 113.616,93.346 113.768,93.118 113.889,93.068 114.098,93.225 
		114.119,93.493 	"/>
	<polygon fill="#232734" points="112.598,97.359 112.177,97.191 112.146,96.841 112.648,96.552 112.99,96.714 112.546,97.384 	"/>
	<polygon fill="#232734" points="45.184,89.245 45.027,88.866 45.769,88.904 45.931,89.135 45.994,89.405 	"/>
	<polygon fill="#232734" points="67.937,114.545 67.747,114.938 66.976,115.05 67.588,114.471 67.961,114.602 	"/>
	<polygon fill="#232734" points="98.161,104.197 98.23,104.725 98.018,105.021 97.631,104.132 97.823,103.811 98.186,104.247 	"/>
	<polygon fill="#232734" points="47.441,89.729 47.159,90.188 46.97,89.623 47.17,89.473 47.393,89.6 	"/>
	<polygon fill="#232734" points="99.678,35.725 100.32,35.7 99.996,36.292 99.734,36.318 99.582,36.124 	"/>
	<polygon fill="#232734" points="56.296,109.645 56.104,109.133 56.756,109.334 56.689,109.669 	"/>
	<polygon fill="#232734" points="52.377,103.939 52.098,103.865 52.04,103.188 52.366,103.297 	"/>
	<polygon fill="#232734" points="88.789,109.348 88.18,109.102 88.127,108.729 88.452,108.65 88.736,109.367 	"/>
	<polygon fill="#232734" points="86.646,42.384 86.395,42.694 85.98,41.845 86.288,41.804 	"/>
	<polygon fill="#232734" points="89.357,40.826 88.883,41.109 88.359,40.557 88.626,40.526 89.391,40.88 	"/>
	<polygon fill="#232734" points="90.3,41.158 90.062,40.698 90.605,40.438 	"/>
	<polygon fill="#232734" points="91.459,39.509 90.913,39.56 90.766,39.112 91.361,39.271 91.417,39.526 	"/>
	<polygon fill="#232734" points="104.509,37.038 104.389,36.987 104.248,36.792 104.48,36.521 104.702,36.638 104.703,36.881 	"/>
	<polygon fill="#232734" points="101.812,36.408 101.561,36.46 101.374,36.186 101.663,35.997 101.852,36.161 	"/>
	<polygon fill="#232734" points="91.417,39.526 91.771,39.717 91.797,39.968 91.602,40.125 91.324,39.884 91.459,39.509 	"/>
	<polygon fill="#232734" points="93.788,41.162 93.43,41.168 93.402,40.908 93.6,40.738 	"/>
	<polygon fill="#232734" points="89.391,40.88 89.316,40.356 89.805,40.195 89.357,40.826 	"/>
	<polygon fill="#232734" points="85.012,44.155 85.165,43.956 85.406,43.957 85.521,44.161 85.27,44.393 	"/>
	<polygon fill="#232734" points="72.278,55.806 71.957,55.91 71.901,55.579 72.129,55.519 	"/>
	<polygon fill="#232734" points="78.441,62.901 78.219,63.03 78.579,62.126 	"/>
	<polygon fill="#232734" points="58.709,60.824 58.457,60.726 58.397,60.283 58.513,60.213 58.752,60.59 58.655,60.845 	"/>
	<polygon fill="#232734" points="57.276,64 57.478,64.521 57.273,64.818 	"/>
	<polygon fill="#232734" points="55.555,65.46 55.216,65.523 55.205,65.168 55.559,65.205 	"/>
	<polygon fill="#232734" points="113.178,89.966 113.221,90.095 112.893,90.382 112.719,90.207 112.93,89.896 	"/>
	<polygon fill="#232734" points="115.32,91.5 115.838,91.617 115.921,91.831 115.705,91.975 115.35,91.848 	"/>
	<polygon fill="#232734" points="52.195,67.818 51.983,67.955 51.819,67.52 52.073,67.476 	"/>
	<polygon fill="#232734" points="50.052,68.978 49.838,68.48 50.052,68.171 	"/>
	<polygon fill="#232734" points="111.372,94.064 111.079,94.26 110.934,93.962 111.264,93.85 	"/>
	<polygon fill="#232734" points="48.763,69.488 49.165,69.649 49.328,70.126 48.883,70 48.804,69.469 	"/>
	<polygon fill="#232734" points="111.521,95.445 111.702,95.09 112.062,95.104 112.082,95.354 112.014,95.46 111.501,95.389 	"/>
	<polygon fill="#232734" points="104.506,98.521 104.574,98.757 104.391,98.936 104.096,98.715 104.38,98.475 	"/>
	<polygon fill="#232734" points="100.736,99.145 100.634,99.225 100.369,99.204 100.369,98.845 100.629,98.816 100.795,99.018 	"/>
	<polygon fill="#232734" points="71.733,90.657 72.026,90.48 72.202,90.655 71.96,90.928 	"/>
	<polygon fill="#232734" points="96.336,102.965 96.105,103.639 95.816,103.426 	"/>
	<polygon fill="#232734" points="82.521,98.409 82.451,98.914 81.998,98.852 82.293,98.568 	"/>
	<polygon fill="#232734" points="96.939,104.413 97.003,104.648 96.809,104.826 96.51,104.605 	"/>
	<polygon fill="#232734" points="49.622,88.182 49.51,87.859 49.873,87.775 49.944,88.011 	"/>
	<polygon fill="#232734" points="91.904,108.449 91.552,108.259 91.581,107.902 91.831,107.9 91.938,107.979 91.85,108.473 	"/>
	<polygon fill="#232734" points="48.39,92.42 47.954,92.684 47.8,92.217 	"/>
	<polygon fill="#232734" points="85.324,111.088 85.281,110.561 85.525,110.287 85.715,110.736 85.3,111.043 	"/>
	<polygon fill="#232734" points="48.93,96.119 49.178,96.096 49.349,96.391 49.184,96.568 48.888,96.371 	"/>
	<polygon fill="#232734" points="55.62,99.182 55.552,98.842 55.915,98.812 55.954,99.064 	"/>
	<polygon fill="#232734" points="86.441,111.377 86.17,111.656 85.956,111.162 86.206,110.898 	"/>
	<polygon fill="#232734" points="83.032,112.126 83.268,111.835 83.5,112.46 83.352,112.648 83.166,112.521 	"/>
	<polygon fill="#232734" points="81.659,112.377 81.484,112.532 81.243,112.284 81.378,112.09 81.607,112.139 	"/>
	<polygon fill="#232734" points="61.95,104.782 61.753,104.948 61.547,104.677 61.743,104.511 	"/>
	<polygon fill="#232734" points="80.006,112.736 79.865,112.805 79.564,112.634 79.871,112.332 80.024,112.381 	"/>
	<polygon fill="#232734" points="52.065,105.193 52.152,104.928 52.453,104.725 52.645,105.155 52.435,105.271 52.04,105.137 	"/>
	<polygon fill="#232734" points="55.315,106.093 55.021,106.29 54.831,106.111 55.071,105.823 	"/>
	<polygon fill="#232734" points="66.618,110.4 66.635,110.756 66.279,110.729 66.272,110.471 	"/>
	<polygon fill="#232734" points="68.547,112.102 68.191,112.15 68.201,111.773 68.445,111.749 	"/>
	<polygon fill="#232734" points="65.715,112.111 65.663,111.984 65.692,111.35 65.952,111.416 	"/>
	<polygon fill="#232734" points="57.878,108.758 58.078,108.932 58.029,109.186 57.66,109.154 57.604,109.025 	"/>
	<polygon fill="#232734" points="61.791,110.637 61.462,110.693 61.428,110.354 61.775,110.389 	"/>
	<polygon fill="#232734" points="57.641,109.727 57.767,109.688 58.055,109.893 57.805,110.126 57.604,109.854 	"/>
	<polygon fill="#232734" points="72.828,116.227 73.054,115.882 73.316,115.859 73.482,116.051 73.215,116.32 73.078,116.29 
		72.814,116.195 	"/>
	<polygon fill="#232734" points="59.126,111.117 58.771,111.171 58.755,110.814 59.114,110.857 	"/>
	<polygon fill="#232734" points="65.727,114.752 65.779,114.623 66.106,114.499 66.286,114.814 66.246,114.945 	"/>
	<polygon fill="#232734" points="66.973,116.312 66.626,116.118 66.59,115.771 66.923,115.746 67.009,115.842 66.914,116.337 	"/>
	<polygon fill="#232734" points="104.143,35.392 104.491,35.253 104.693,35.401 104.546,35.718 104.29,35.731 104.316,35.777 
		104.124,35.343 	"/>
	<polygon fill="#232734" points="52.936,101.014 53.091,101.232 53.055,101.455 52.797,101.424 52.745,101.191 52.815,101.08 	"/>
	<polygon fill="#232734" points="95.46,39.173 95.387,38.936 95.658,38.764 95.848,38.923 95.809,39.019 	"/>
	<polygon fill="#232734" points="69.219,82.143 69.054,82.34 68.73,82.226 68.854,82.032 69.099,81.96 	"/>
	<polygon fill="#232734" points="80.835,87.363 80.779,87.271 80.868,87.049 81.11,87.037 81.195,87.119 81.084,87.305 	"/>
	<polygon fill="#232734" points="83.367,44.301 83.49,44.006 83.811,44.234 83.729,44.658 	"/>
	<polygon fill="#232734" points="56.138,103.868 55.892,103.893 55.791,103.583 56.087,103.604 	"/>
	<polygon fill="#232734" points="75.342,111.205 75.472,111.434 75.475,111.562 75.261,111.592 75.11,111.402 75.242,111.195 	"/>
	<polygon fill="#232734" points="48.668,101.378 49.421,101.066 49.393,101.009 49.281,101.244 48.761,101.391 48.648,101.326 	"/>
	<polygon fill="#232734" points="107.139,99.994 106.879,99.993 106.755,99.693 106.938,99.525 	"/>
	<polygon fill="#232734" points="47.385,76.396 47.603,76.812 47.263,76.811 47.209,76.694 	"/>
	<polygon fill="#232734" points="80.165,113.791 79.92,113.787 79.796,113.471 79.977,113.341 80.077,113.423 80.143,113.534 	"/>
	<polygon fill="#232734" points="82.438,45.462 82.324,45.889 82.089,45.441 	"/>
	<polygon fill="#232734" points="48.312,78.657 48.742,78.498 48.618,78.809 	"/>
	<polygon fill="#232734" points="77.818,113.604 77.508,113.738 77.408,113.654 77.507,113.457 77.764,113.387 	"/>
	<polygon fill="#232734" points="101.555,100.296 101.385,100.484 101.068,100.348 101.208,100.154 101.327,100.096 101.54,100.172 
			"/>
	<polygon fill="#232734" points="99.258,100.463 98.934,100.484 98.861,100.271 99.016,100.089 	"/>
	<polygon fill="#232734" points="102.461,101.441 102.544,101.518 102.382,101.836 102.057,101.682 102.195,101.497 	"/>
	<polygon fill="#232734" points="96.701,99.834 96.577,99.395 96.895,99.546 	"/>
	<polygon fill="#232734" points="100.255,102.414 100.318,102.516 100.245,102.755 99.988,102.752 99.887,102.561 99.988,102.473 	
		"/>
	<polygon fill="#232734" points="78.793,50.864 78.934,51.08 78.896,51.289 78.772,51.292 78.601,51.121 78.689,50.903 	"/>
	<polygon fill="#232734" points="45.543,81.898 45.44,81.989 45.086,82.03 45.193,81.688 45.539,81.791 	"/>
	<polygon fill="#232734" points="76.178,114.523 75.95,114.622 75.797,114.455 76.018,114.303 76.214,114.395 	"/>
	<polygon fill="#232734" points="74.866,50.871 74.466,51.041 74.342,50.881 74.572,50.616 	"/>
	<polygon fill="#232734" points="72.081,51.153 72.186,50.912 72.449,50.704 72.684,51.089 72.722,51.073 72.316,51.11 
		72.05,51.099 	"/>
	<polygon fill="#232734" points="96.843,103.202 97.093,103.209 97.215,103.496 97.032,103.657 	"/>
	<polygon fill="#232734" points="72.684,51.089 73.077,51.42 72.709,51.578 72.722,51.073 	"/>
	<polygon fill="#232734" points="98.186,104.247 98.262,103.988 98.753,103.994 98.161,104.197 	"/>
	<polygon fill="#232734" points="72.05,51.099 72.07,51.61 71.757,51.446 71.837,51.216 72.081,51.153 	"/>
	<polygon fill="#232734" points="45.799,85.02 46.209,84.884 46.062,85.191 	"/>
	<polygon fill="#232734" points="95.467,105.54 95.383,105.447 95.486,105.261 95.799,105.307 95.711,105.532 	"/>
	<polygon fill="#232734" points="69.239,52.775 69.031,52.874 68.876,52.42 69.006,52.385 	"/>
	<polygon fill="#232734" points="46.232,86.082 46.624,86.307 46.503,86.521 46.296,86.453 46.238,86.334 	"/>
	<polygon fill="#232734" points="70.515,53.98 70.332,54.068 70.162,53.771 70.229,53.665 70.432,53.733 	"/>
	<polygon fill="#232734" points="68.15,53.693 68.302,53.923 68.25,54.14 68.121,54.143 67.941,53.957 	"/>
	<polygon fill="#232734" points="47.582,86.921 47.721,87.162 47.719,87.3 47.489,87.339 47.377,86.996 	"/>
	<polygon fill="#232734" points="86.658,102.812 86.568,102.871 86.332,102.79 86.312,102.545 86.396,102.452 86.588,102.561 	"/>
	<polygon fill="#232734" points="90.143,104.871 89.801,104.76 89.93,104.434 	"/>
	<polygon fill="#232734" points="55.018,107.367 55.229,107.809 54.894,107.775 54.843,107.657 	"/>
	<polygon fill="#232734" points="64.117,55.616 64.109,56.142 63.978,56.178 63.796,55.795 64.143,55.664 	"/>
	<polygon fill="#232734" points="66.419,57.287 66.206,57.363 66.018,57.188 66.051,57.063 66.244,56.93 66.34,57.025 	"/>
	<polygon fill="#232734" points="61.836,94.427 61.631,94.534 61.398,94.286 61.609,94.141 61.838,94.177 	"/>
	<polygon fill="#232734" points="75.527,116.221 75.12,115.984 75.283,115.789 75.385,115.855 	"/>
	<polygon fill="#232734" points="93.361,107.396 93.205,106.961 93.514,107.102 	"/>
	<polygon fill="#232734" points="84.323,103.754 84.721,103.991 84.555,104.184 84.456,104.121 	"/>
	<polygon fill="#232734" points="60.479,110.615 60.303,110.286 60.385,110.092 60.603,110.17 	"/>
	<polygon fill="#232734" points="45.692,90.719 45.938,91.27 45.52,91.155 	"/>
	<polygon fill="#232734" points="62.52,59.22 62.702,58.807 62.981,59.024 	"/>
	<polygon fill="#232734" points="79.592,104.381 79.361,104.527 79.125,104.508 79.268,104.177 79.531,104.176 	"/>
	<polygon fill="#232734" points="62.354,111.895 62.812,111.725 62.675,112.062 	"/>
	<polygon fill="#232734" points="64.037,112.583 63.779,112.58 63.656,112.244 63.849,112.089 	"/>
	<polygon fill="#232734" points="87.843,107.809 88.012,107.98 87.797,108.236 87.65,108.02 	"/>
	<polygon fill="#232734" points="82.444,106.467 82.348,106.354 82.548,106.051 82.785,106.15 82.782,106.258 	"/>
	<polygon fill="#232734" points="61.618,60.634 62.084,60.43 62.09,60.677 61.794,60.813 	"/>
	<polygon fill="#232734" points="45.565,91.587 45.828,92.035 45.647,92.154 45.389,91.907 	"/>
	<polygon fill="#232734" points="63.754,112.975 63.988,113.257 63.919,113.475 63.61,113.295 	"/>
	<polygon fill="#232734" points="58.655,60.845 58.945,61.432 58.572,61.343 58.709,60.824 	"/>
	<polygon fill="#232734" points="71.541,116.316 71.237,116.32 71.176,116.199 71.198,115.977 71.455,115.984 	"/>
	<polygon fill="#232734" points="57.589,62.377 57.934,62.604 57.771,62.786 57.677,62.724 57.61,62.614 	"/>
	<polygon fill="#232734" points="55.322,61.819 55.555,61.777 55.684,62.104 55.597,62.2 55.399,62.088 	"/>
	<polygon fill="#232734" points="65.339,114.128 65.243,114.393 65.028,114.516 64.863,114.156 64.955,114.087 65.36,114.178 	"/>
	<polygon fill="#232734" points="55.589,63.233 55.788,63.154 55.906,63.593 55.782,63.618 	"/>
	<polygon fill="#232734" points="53.929,63.572 53.916,63.062 54.194,63.052 54.265,63.381 53.91,63.521 	"/>
	<polygon fill="#232734" points="50.293,96.883 50.473,97.236 50.446,97.344 50.316,97.371 	"/>
	<polygon fill="#232734" points="110.691,85.854 110.393,86.253 110.219,85.812 110.718,85.912 	"/>
	<polygon fill="#232734" points="48.905,97.264 49.055,97.486 49.034,97.709 48.708,97.562 48.719,97.439 	"/>
	<polygon fill="#232734" points="52.115,98.559 52.262,98.773 52.207,98.982 52.083,98.986 51.92,98.809 52.012,98.584 	"/>
	<polygon fill="#232734" points="54.312,67.064 54.146,67.245 53.889,67.031 54.098,66.871 	"/>
	<polygon fill="#232734" points="115.665,94.287 115.496,93.958 115.786,93.766 115.997,93.958 115.611,94.307 	"/>
	<polygon fill="#232734" points="115.611,94.307 115.736,94.775 115.283,94.657 115.665,94.287 	"/>
	<polygon fill="#232734" points="116.254,94.663 116.428,95.114 116.182,95.117 116.064,94.828 	"/>
	<polygon fill="#232734" points="76.974,109.332 76.97,109.576 76.567,109.641 76.528,109.535 	"/>
	<polygon fill="#232734" points="113.979,95.062 113.916,94.822 114.109,94.655 114.238,94.705 114.348,94.907 114.25,95.006 	"/>
	<polygon fill="#232734" points="80.271,110.768 80.666,110.948 80.536,111.152 80.445,111.116 	"/>
	<polygon fill="#232734" points="112.962,94.916 113.09,94.878 113.344,95.098 113.128,95.242 112.924,95.043 	"/>
	<polygon fill="#232734" points="50.562,99.189 51.087,99.285 51.15,99.406 50.964,99.514 	"/>
	<polygon fill="#232734" points="110.191,95.324 110.348,95.553 110.293,95.766 110.16,95.766 109.979,95.584 	"/>
	<polygon fill="#232734" points="50.107,72.081 49.934,71.954 49.926,71.594 50.046,71.573 50.225,72.007 	"/>
	<polygon fill="#232734" points="68.11,106.865 67.943,106.41 68.271,106.549 	"/>
	<polygon fill="#232734" points="54.833,101.818 54.483,101.761 54.48,101.51 54.582,101.426 54.684,101.45 54.766,101.559 	"/>
	<polygon fill="#232734" points="90.302,108.329 90.045,108.301 89.973,108.126 90.213,108.141 	"/>
	<polygon fill="#232734" points="85.874,107.299 85.668,107.428 85.628,107.189 85.833,107.057 	"/>
	<polygon fill="#232734" points="49.361,93.133 49.354,93.369 49.183,93.439 49.176,93.201 49.262,93.135 	"/>
	<polygon fill="#232734" points="47.537,93.136 47.314,93.126 47.25,92.95 47.475,92.949 	"/>
	<polygon fill="#232734" points="88.829,109.992 88.658,109.693 88.789,109.348 88.736,109.367 88.873,109.782 88.782,110.01 	"/>
	<polygon fill="#232734" points="87.986,110.575 87.902,110.114 88.02,110.081 88.076,110.204 87.93,110.598 	"/>
	<polygon fill="#232734" points="46.251,94.051 46.093,94.17 45.917,93.993 46.081,93.882 	"/>
	<polygon fill="#232734" points="86.639,110.611 86.568,110.511 86.738,110.422 86.896,110.621 	"/>
	<polygon fill="#232734" points="79.748,108.441 79.719,108.193 79.908,108.07 79.937,108.3 	"/>
	<polygon fill="#232734" points="61.732,101.182 61.994,101.188 62.055,101.382 61.81,101.381 	"/>
	<polygon fill="#232734" points="82.549,109.796 82.809,109.782 82.953,109.977 82.707,109.996 	"/>
	<polygon fill="#232734" points="47.43,96.712 47.303,96.759 47.27,96.439 47.393,96.386 	"/>
	<polygon fill="#232734" points="74.628,107.555 74.668,107.684 74.516,107.883 74.412,107.854 74.413,107.605 	"/>
	<polygon fill="#232734" points="47.542,97.754 47.419,97.598 47.591,97.416 47.703,97.578 	"/>
	<polygon fill="#232734" points="71.999,107.869 71.953,107.636 72.131,107.463 72.214,107.496 72.208,107.732 	"/>
	<polygon fill="#232734" points="82.299,111.578 82.059,111.562 81.965,111.391 82.205,111.382 82.279,111.471 	"/>
	<polygon fill="#232734" points="49.501,99.663 49.308,99.727 49.158,99.568 49.331,99.49 	"/>
	<polygon fill="#232734" points="65.678,106.38 65.484,106.438 65.479,106.211 65.662,106.139 	"/>
	<polygon fill="#232734" points="82.298,112.773 82.369,112.979 82.176,113.077 82.115,112.953 	"/>
	<polygon fill="#232734" points="69.573,108.636 69.505,108.441 69.669,108.285 69.756,108.467 	"/>
	<path fill="#232734" d="M78.29,111.796l0.428,0.177L78.29,111.796z"/>
	<polygon fill="#232734" points="67.043,108.781 67.056,109.027 66.874,109.167 66.855,108.93 	"/>
	<polygon fill="#232734" points="75.275,112.363 75.181,112.428 75.066,112.424 75.058,112.184 75.255,112.105 75.302,112.23 	"/>
	<polygon fill="#232734" points="53.587,104.907 53.772,105.041 53.744,105.107 53.524,105.05 53.471,104.941 	"/>
	<polygon fill="#232734" points="70.822,112.197 71.073,112.171 71.229,112.368 70.983,112.398 	"/>
	<polygon fill="#232734" points="72.773,112.952 72.72,113.027 72.488,112.986 72.48,112.809 72.721,112.835 	"/>
	<polygon fill="#232734" points="74.084,114.202 74.031,113.969 74.197,113.798 74.28,113.84 74.29,114.084 	"/>
	<polygon fill="#232734" points="64.092,110.229 64.035,110.048 64.262,110.055 64.325,110.23 	"/>
	<polygon fill="#232734" points="71.233,113.643 71.11,113.667 70.922,113.523 71.069,113.396 71.254,113.557 	"/>
	<polygon fill="#232734" points="74.524,115.52 74.276,115.545 74.135,115.354 74.375,115.327 	"/>
	<path fill="#232734" d="M55.391,108.477l0.387,0.162L55.391,108.477z"/>
	<polygon fill="#232734" points="65.303,112.357 65.334,112.62 65.137,112.753 65.098,112.507 	"/>
	<polygon fill="#232734" points="66.729,113.502 66.92,113.673 66.871,113.75 66.621,113.739 66.604,113.535 	"/>
	<polygon fill="#232734" points="70.897,115.259 70.701,115.316 70.549,115.157 70.73,115.091 	"/>
	<polygon fill="#232734" points="103.38,36.882 103.387,36.53 103.503,36.47 103.613,36.633 	"/>
	<polygon fill="#232734" points="99.512,36.95 99.311,37.002 99.312,36.749 99.51,36.698 	"/>
	<polygon fill="#232734" points="100.059,37.229 100.445,37.287 100.494,37.4 100.323,37.526 100.209,37.473 	"/>
	<polygon fill="#232734" points="103.346,38.52 103.369,38.766 103.188,38.887 103.152,38.653 	"/>
	<polygon fill="#232734" points="101.988,38.933 101.805,39.03 101.633,38.86 101.812,38.763 	"/>
	<polygon fill="#232734" points="98.373,38.152 98.029,38.156 97.98,38.041 98.139,37.904 	"/>
	<polygon fill="#232734" points="87.764,40.819 87.889,40.883 87.951,41.001 87.768,41.118 87.589,40.944 87.643,40.853 	"/>
	<polygon fill="#232734" points="91.915,42.543 91.968,42.792 91.793,42.955 91.704,42.907 91.7,42.665 	"/>
	<polygon fill="#232734" points="89.555,44.708 89.559,44.979 89.354,45.028 89.35,44.774 	"/>
	<polygon fill="#232734" points="87.088,46.107 87.139,46.228 86.829,46.263 86.779,46.144 	"/>
	<polygon fill="#232734" points="81.646,45.337 81.516,45.157 81.697,44.972 81.821,45.158 	"/>
	<polygon fill="#232734" points="83.957,46.296 83.954,45.95 84.15,45.933 84.197,46.051 	"/>
	<polygon fill="#232734" points="80.635,46.724 80.992,46.729 81.035,46.845 80.879,46.977 	"/>
	<polygon fill="#232734" points="80.033,47.974 79.928,48.022 79.838,47.838 80,47.675 80.068,47.735 80.08,47.854 	"/>
	<polygon fill="#232734" points="78.558,47.698 78.389,47.81 78.206,47.64 78.379,47.536 	"/>
	<polygon fill="#232734" points="76.844,48.763 76.836,49.13 76.717,49.194 76.599,49.029 	"/>
	<polygon fill="#232734" points="76.587,49.84 76.457,49.637 76.699,49.597 76.846,49.808 	"/>
	<polygon fill="#232734" points="75.5,49.877 75.305,49.96 75.144,49.792 75.326,49.705 	"/>
	<polygon fill="#232734" points="78.193,51.109 77.994,51.26 77.961,51.001 78.161,50.872 	"/>
	<polygon fill="#232734" points="73.395,50.644 73.277,50.49 73.445,50.314 73.554,50.476 	"/>
	<polygon fill="#232734" points="74.246,51.788 74.131,51.841 74.082,51.54 74.199,51.489 	"/>
	<polygon fill="#232734" points="76.799,52.556 77.041,52.545 77.175,52.724 76.947,52.753 	"/>
	<polygon fill="#232734" points="76.239,52.624 76.033,52.697 75.881,52.537 76.067,52.449 	"/>
	<polygon fill="#232734" points="71.34,51.83 71.343,52.175 71.138,52.186 71.088,52.069 	"/>
	<polygon fill="#232734" points="103.414,65.314 103.325,65.369 103.119,65.265 103.132,65.177 103.361,65.2 	"/>
	<polygon fill="#232734" points="74.636,54.422 74.588,54.506 74.356,54.441 74.303,54.315 74.564,54.32 	"/>
	<polygon fill="#232734" points="90.249,61.475 90.365,61.54 90.384,61.725 90.137,61.721 90.131,61.512 	"/>
	<polygon fill="#232734" points="68.852,56.433 69.098,56.418 69.234,56.604 69.001,56.624 	"/>
	<polygon fill="#232734" points="64.186,57.665 63.841,57.662 63.793,57.549 63.945,57.426 	"/>
	<polygon fill="#232734" points="61.125,57.665 61.595,57.706 61.635,57.824 61.474,57.967 	"/>
	<polygon fill="#232734" points="96.297,73.521 96.688,73.541 96.736,73.658 96.581,73.79 	"/>
	<polygon fill="#232734" points="60.435,61.46 60.419,61.23 60.596,61.104 60.617,61.332 	"/>
	<polygon fill="#232734" points="54.468,61.33 54.6,61.369 54.862,61.453 54.897,61.67 54.563,61.563 54.516,61.306 	"/>
	<polygon fill="#232734" points="108.831,85.123 108.709,84.93 108.934,84.902 109.062,85.089 	"/>
	<polygon fill="#232734" points="53.91,63.521 53.507,63.661 53.454,63.473 53.572,63.432 53.929,63.572 	"/>
	<polygon fill="#232734" points="75.688,73.416 75.617,73.224 75.844,73.231 75.927,73.414 	"/>
	<polygon fill="#232734" points="104.958,84.878 105.048,85.044 104.811,85.04 104.764,84.927 	"/>
	<polygon fill="#232734" points="111.876,88.047 111.799,87.852 111.955,87.7 112.045,87.885 	"/>
	<polygon fill="#232734" points="114.663,91.582 114.755,91.626 114.705,91.872 114.573,91.925 114.534,91.788 	"/>
	<polygon fill="#232734" points="107.859,89.881 107.802,89.992 107.699,90.059 107.639,89.771 107.753,89.725 	"/>
	<polygon fill="#232734" points="115.378,93.133 115.115,93.15 114.973,92.952 115.221,92.927 	"/>
	<polygon fill="#232734" points="51.207,68.43 51.106,68.482 50.894,68.363 50.914,68.278 51.15,68.311 	"/>
	<polygon fill="#232734" points="109.301,92.197 109.135,92.307 108.959,92.141 109.131,92.04 	"/>
	<polygon fill="#232734" points="95.462,87.193 95.593,87.395 95.359,87.428 95.223,87.229 	"/>
	<polygon fill="#232734" points="108.768,93.514 108.592,93.59 108.428,93.438 108.602,93.35 	"/>
	<polygon fill="#232734" points="47.987,70.214 48.248,70.22 48.305,70.418 48.064,70.417 	"/>
	<polygon fill="#232734" points="111.501,95.389 111.289,95.533 110.988,95.381 111.165,95.266 111.521,95.445 	"/>
	<polygon fill="#232734" points="49.002,70.914 49.021,71.154 48.837,71.284 48.812,71.059 	"/>
	<polygon fill="#232734" points="108.674,95.532 108.496,95.581 108.505,95.348 108.686,95.311 	"/>
	<path fill="#232734" d="M110.254,97.527l-0.387-0.172L110.254,97.527z"/>
	<polygon fill="#232734" points="105.88,97.773 105.812,97.568 106.052,97.564 106.13,97.759 	"/>
	<polygon fill="#232734" points="46.533,74.331 46.476,74.452 46.364,74.516 46.258,74.338 46.422,74.16 46.505,74.209 	"/>
	<polygon fill="#232734" points="102.553,96.811 102.596,96.936 102.352,97.139 102.338,96.889 	"/>
	<polygon fill="#232734" points="98.173,95.359 98.229,95.477 98.031,95.548 97.857,95.375 98.062,95.312 	"/>
	<polygon fill="#232734" points="74.859,86.868 74.841,86.631 75.021,86.495 75.044,86.734 	"/>
	<polygon fill="#232734" points="47.117,75.644 47.154,75.902 46.943,76.034 46.914,75.787 46.994,75.687 	"/>
	<polygon fill="#232734" points="105.529,99.005 105.873,98.988 105.916,99.105 105.77,99.236 	"/>
	<polygon fill="#232734" points="106.66,100.352 106.473,100.459 106.29,100.273 106.48,100.17 	"/>
	<polygon fill="#232734" points="45.917,77.101 45.689,77.137 45.617,76.948 45.741,76.911 45.865,76.967 	"/>
	<polygon fill="#232734" points="104.4,100.911 104.207,100.962 104.207,100.727 104.398,100.678 	"/>
	<polygon fill="#232734" points="103.68,101.533 103.736,101.655 103.54,101.73 103.374,101.559 103.566,101.489 	"/>
	<polygon fill="#232734" points="45.981,79.235 45.784,79.314 45.631,79.155 45.812,79.061 	"/>
	<polygon fill="#232734" points="55.106,83.508 55.562,83.537 55.578,83.734 55.47,83.779 	"/>
	<path fill="#232734" d="M102.004,102.85l-0.412-0.18L102.004,102.85z"/>
	<polygon fill="#232734" points="45.387,80.544 45.648,80.528 45.799,80.724 45.549,80.745 	"/>
	<polygon fill="#232734" points="98.104,101.552 98.348,101.564 98.416,101.755 98.182,101.752 	"/>
	<polygon fill="#232734" points="100.689,102.966 100.596,102.814 100.751,102.646 100.85,102.801 	"/>
	<polygon fill="#232734" points="46.349,81.563 46.088,81.596 45.953,81.391 46.193,81.35 	"/>
	<polygon fill="#232734" points="93.034,100.514 93.02,100.275 93.195,100.15 93.219,100.372 	"/>
	<polygon fill="#232734" points="99.186,102.848 99.206,103.093 99.02,103.238 98.995,102.994 	"/>
	<polygon fill="#232734" points="95.484,101.645 95.596,101.814 95.348,101.812 95.296,101.695 95.367,101.631 	"/>
	<polygon fill="#232734" points="99.427,103.645 99.688,103.609 99.816,103.809 99.588,103.848 	"/>
	<path fill="#232734" d="M45.892,83.262l0.18-0.399L45.892,83.262z"/>
	<polygon fill="#232734" points="95.174,104.367 95.427,104.368 95.473,104.574 95.229,104.575 	"/>
	<polygon fill="#232734" points="93.434,104.287 93.218,104.348 93.123,104.16 93.249,104.119 93.382,104.157 	"/>
	<polygon fill="#232734" points="93.82,105.663 93.613,105.739 93.5,105.555 93.626,105.518 93.759,105.551 	"/>
	<polygon fill="#232734" points="45.977,86.965 45.73,86.951 45.683,86.764 45.918,86.768 45.986,86.868 	"/>
	<path fill="#232734" d="M92.355,105.336l-0.158,0.381L92.355,105.336z"/>
	<polygon fill="#232734" points="94.686,106.395 94.448,106.375 94.409,106.193 94.632,106.207 94.698,106.307 	"/>
	<polygon fill="#232734" points="94.146,106.76 94.4,106.741 94.537,106.93 94.297,106.965 	"/>
	<polygon fill="#232734" points="45.997,88.16 46.362,88.154 46.408,88.275 46.249,88.417 	"/>
	<polygon fill="#232734" points="91.568,106.617 91.518,106.693 91.291,106.658 91.286,106.482 91.521,106.504 	"/>
	<polygon fill="#232734" points="86.918,43.634 86.919,43.738 86.805,43.794 86.831,43.602 	"/>
	<polygon fill="#232734" points="72.624,53.201 72.637,53.396 72.526,53.439 72.51,53.249 	"/>
	<polygon fill="#232734" points="60.651,59.23 60.751,59.374 60.627,59.407 60.571,59.289 	"/>
	<polygon fill="#232734" points="59.254,60.006 59.133,60.042 59.076,59.931 	"/>
	<polygon fill="#232734" points="109.546,85.602 109.434,85.624 109.385,85.518 109.5,85.492 	"/>
	<polygon fill="#232734" points="79.835,74.256 79.925,74.402 79.802,74.459 79.756,74.329 	"/>
	<polygon fill="#232734" points="112.443,88.396 112.312,88.583 112.21,88.6 112.236,88.426 112.465,88.445 	"/>
	<polygon fill="#232734" points="50.889,66.11 50.889,66.214 50.798,66.163 	"/>
	<polygon fill="#232734" points="51.057,70.555 50.932,70.588 50.88,70.47 51.008,70.435 	"/>
	<polygon fill="#232734" points="48.056,71.205 47.941,71.231 47.895,71.121 48.011,71.092 	"/>
	<polygon fill="#232734" points="111.143,96.902 111.006,96.986 110.956,96.872 111.076,96.831 	"/>
	<polygon fill="#232734" points="48.82,72.963 48.824,73.062 48.707,73.115 48.662,72.995 	"/>
	<polygon fill="#232734" points="105.538,95.604 105.396,95.688 105.359,95.572 105.475,95.525 	"/>
	<polygon fill="#232734" points="108.766,97.18 108.848,97.303 108.742,97.34 108.698,97.236 	"/>
	<polygon fill="#232734" points="107.598,98.896 107.457,98.975 107.404,98.859 107.525,98.82 	"/>
	<polygon fill="#232734" points="103.964,99.602 103.887,99.667 103.801,99.529 103.919,99.475 	"/>
	<polygon fill="#232734" points="100.951,101.786 100.831,101.823 100.775,101.707 100.902,101.656 	"/>
	<polygon fill="#232734" points="61.363,86.805 61.402,86.932 61.277,86.979 61.232,86.848 	"/>
	<polygon fill="#232734" points="97.311,101.542 97.188,101.611 97.143,101.51 97.25,101.477 	"/>
	<polygon fill="#232734" points="47.014,84.18 47.141,84.334 47.03,84.378 46.897,84.234 	"/>
	<polygon fill="#232734" points="92.441,102.775 92.4,102.661 92.514,102.628 92.561,102.739 	"/>
	<polygon fill="#232734" points="94.797,103.963 94.713,103.961 94.753,103.895 	"/>
	<polygon fill="#232734" points="91.312,104.001 91.38,104.128 91.273,104.172 91.243,104.061 	"/>
	<polygon fill="#232734" points="89.346,106.602 89.423,106.634 89.311,106.779 89.275,106.665 	"/>
	<polygon fill="#232734" points="90.773,107.207 90.629,107.299 90.585,107.178 90.706,107.128 	"/>
	<polygon fill="#232734" points="77.959,102.412 77.886,102.475 77.803,102.348 77.914,102.295 	"/>
	<polygon fill="#232734" points="86.075,109.023 85.921,109.052 85.914,108.964 86.021,108.924 	"/>
	<polygon fill="#232734" points="84.227,109.627 84.158,109.557 84.283,109.492 84.341,109.594 	"/>
	<polygon fill="#232734" points="47.464,95.613 47.396,95.532 47.527,95.441 47.571,95.557 	"/>
	<polygon fill="#232734" points="83.782,110.872 83.744,110.951 83.596,110.836 83.712,110.798 	"/>
	<polygon fill="#232734" points="47.764,98.249 47.909,98.096 47.992,98.141 47.75,98.218 	"/>
	<polygon fill="#232734" points="57.676,102.893 57.757,103.021 57.65,103.061 57.607,102.953 	"/>
	<polygon fill="#232734" points="51.228,101.645 51.121,101.67 51.084,101.566 51.191,101.539 	"/>
	<polygon fill="#232734" points="59.502,105.48 59.382,105.561 59.345,105.458 59.446,105.417 	"/>
	<polygon fill="#232734" points="72.649,110.884 72.608,110.758 72.73,110.702 72.782,110.834 	"/>
	<polygon fill="#232734" points="54.425,104.199 54.424,104.095 54.508,104.139 	"/>
	<polygon fill="#232734" points="61.116,107.327 61.21,107.463 61.094,107.501 61.042,107.387 	"/>
	<polygon fill="#232734" points="57.577,106.596 57.415,106.604 57.406,106.51 57.526,106.473 	"/>
	<polygon fill="#232734" points="52.909,105.745 52.842,105.666 52.977,105.593 53.032,105.706 	"/>
	<polygon fill="#232734" points="59.219,108.511 59.113,108.514 59.161,108.425 	"/>
	<polygon fill="#232734" points="69.827,112.607 69.866,112.716 69.718,112.639 	"/>
	<polygon fill="#232734" points="53.494,106.407 53.587,106.552 53.465,106.591 53.416,106.471 	"/>
	<polygon fill="#232734" points="56.727,107.689 56.774,107.812 56.646,107.845 	"/>
	<polygon fill="#232734" points="72.767,114.445 72.759,114.553 72.68,114.508 	"/>
	<polygon fill="#232734" points="66.095,113.657 66.018,113.716 65.936,113.588 66.045,113.548 	"/>
	<polygon fill="#232734" points="57.456,110.852 57.26,110.865 57.219,110.752 57.329,110.702 	"/>
	<polygon fill="#232734" points="65.36,114.178 65.604,114.045 65.575,114.128 65.339,114.128 	"/>
	<polygon fill="#232734" points="72.852,116.854 73.028,117.018 72.977,117.102 72.896,116.835 	"/>
	<path fill="#232734" d="M73.774,121.486l0.055,0.509l-1.085,0.222l-0.953-0.117l0.588,0.371l0.205,0.326l-0.445,0.213l-0.429-0.027
		l0.249,0.377l-0.11,0.365l-0.402,0.129l-0.717,0.078l-0.351-0.555l0.77-0.219l-0.189-0.317l-0.218-0.178l0.008-0.545l0.537,0.085
		l-0.516-0.032l-0.37-0.216l-0.364-1.186l-0.521-0.434l-0.084-0.684l0.761,0.141l-0.031-0.057l0.147,0.354l1.445,0.585l0.275,0.057
		l1.125,0.088l0.746,0.005l0.347-0.201l2.803-0.856l0.53-0.199l0.142-0.023l0.037,0.344l-2.727,1.146l-1.09,0.283l-0.154,0.205
		l-0.51-0.078L73.774,121.486L73.774,121.486z M71.071,121.322l0.768,0.166l-0.564-0.273l-0.182,0.158l-0.253-0.006l0.036,0.1
		L71.071,121.322L71.071,121.322z"/>
	<polygon fill="#232734" points="103.266,106.879 102.885,107.012 102.751,106.975 101.98,107.309 98.279,109.361 96.994,110.225 
		96.12,110.673 95.779,110.47 97.207,109.59 98.781,108.657 99.884,108.032 101.244,107.29 102.613,106.564 103.945,105.77 
		104.346,105.732 104.116,106.301 103.788,106.384 103.643,106.729 	"/>
	<polygon fill="#232734" points="75.729,118.893 76.097,118.725 76.468,118.564 77.572,118.496 77.616,118.719 77.408,118.895 
		76.358,119.28 75.634,119.67 74.857,119.948 74.609,119.886 74.679,119.521 75.051,119.328 75.668,119.016 	"/>
	<polygon fill="#232734" points="64.773,119.869 65.752,120.177 66.15,120.575 66.48,120.738 67.529,121.158 67.623,121.364 
		67.406,121.511 67.143,121.495 65.274,120.527 64.809,120.225 	"/>
	<polygon fill="#232734" points="60.949,117.984 60.857,118.343 60.725,118.377 60.213,118.184 58.854,117.018 58.834,116.895 
		58.967,116.855 59.359,116.973 59.729,117.164 	"/>
	<polygon fill="#232734" points="60.477,115.303 60.516,116.031 59.756,115.92 59.274,114.916 	"/>
	<polygon fill="#232734" points="49.371,108.271 48.594,106.496 48.596,106.365 48.854,106.354 49.692,107.771 49.514,108.257 	"/>
	<polygon fill="#232734" points="79.717,118.973 80.029,118.549 81.795,117.771 81.841,118.152 79.956,118.979 79.701,118.938 	"/>
	<polygon fill="#232734" points="79.036,120.365 78.928,120.717 77.275,121.438 77.016,121.443 77.043,121.186 77.258,121.02 
		78.931,120.342 	"/>
	<polygon fill="#232734" points="55.56,112.869 55.618,112.57 56.012,112.619 56.961,113.4 56.913,113.7 56.39,113.602 	"/>
	<polygon fill="#232734" points="50.486,109.906 50.633,109.688 50.744,109.688 51.56,110.62 51.586,110.747 51.547,110.879 
		51.322,110.954 	"/>
	<polygon fill="#232734" points="83.104,115.896 83.996,115.509 84.275,115.71 83.081,116.422 82.979,116.413 82.969,116.146 	"/>
	<polygon fill="#232734" points="57.559,115.886 57.307,116.17 56.644,115.85 56.568,115.736 56.605,115.479 56.72,115.419 	"/>
	<polygon fill="#232734" points="90.562,112.55 90.441,112.79 89.241,113.438 89.105,113.441 89.189,113.083 90.42,112.49 
		90.551,112.527 	"/>
	<polygon fill="#232734" points="82.7,119.212 82.525,118.918 82.597,118.745 83.633,118.236 83.502,118.595 83.064,118.917 
		82.639,119.232 	"/>
	<polygon fill="#232734" points="62.941,119.614 62.235,119.227 62.683,118.998 63.154,119.239 63.16,119.492 	"/>
	<polygon fill="#232734" points="93.29,112.68 92.479,112.854 92.469,112.523 93.423,111.93 93.229,112.709 	"/>
	<polygon fill="#232734" points="80.979,117.318 80.915,117.439 79.663,117.96 79.726,117.564 80.566,117.188 80.974,117.307 	"/>
	<polygon fill="#232734" points="75.623,122.225 75.457,122.575 74.642,122.717 74.258,122.617 74.257,122.614 74.322,122.494 
		75.641,122.266 	"/>
	<polygon fill="#232734" points="80.023,119.872 80.916,119.518 81.132,119.664 80.328,120.096 80.084,119.993 	"/>
	<polygon fill="#232734" points="85.372,117.68 84.516,118.057 84.562,117.704 85.197,117.504 	"/>
	<polygon fill="#232734" points="52.675,112.346 52.885,112.27 53.316,112.59 53.081,112.875 52.85,112.732 52.701,112.492 	"/>
	<polygon fill="#232734" points="85.938,114.052 86.312,113.891 86.882,114.12 85.936,114.568 	"/>
	<polygon fill="#232734" points="74.258,122.617 74.197,122.74 73.32,123.029 73.363,122.773 74.257,122.614 	"/>
	<polygon fill="#232734" points="42.705,81.563 42.476,81.646 42.37,81.202 42.63,81.198 	"/>
	<polygon fill="#232734" points="95.282,112.264 94.409,111.842 94.344,111.729 95.217,112.02 95.258,112.275 	"/>
	<polygon fill="#232734" points="84.746,116.508 85.251,116.338 85.459,116.473 	"/>
	<polygon fill="#232734" points="70.192,119.795 70.145,119.28 70.771,119.529 70.161,119.739 	"/>
	<polygon fill="#232734" points="63.574,117.884 63.67,117.641 63.921,117.635 64.082,117.928 63.766,118.053 	"/>
	<polygon fill="#232734" points="65.923,119.156 66.537,119.339 66.067,119.538 	"/>
	<polygon fill="#232734" points="68.477,118.923 68.982,118.975 69.033,119.182 68.902,119.223 	"/>
	<polygon fill="#232734" points="88.211,115.146 87.875,115.348 87.684,115.262 87.697,115.146 	"/>
	<polygon fill="#232734" points="45.573,100.324 45.511,100.229 45.848,99.982 45.944,100.068 45.835,100.26 	"/>
	<polygon fill="#232734" points="47.572,101.816 47.735,102.198 47.531,102.354 47.206,102.189 47.316,101.857 	"/>
	<polygon fill="#232734" points="69.545,121.97 69.33,122.111 69.099,121.991 69.229,121.792 69.359,121.742 69.567,121.844 	"/>
	<polygon fill="#232734" points="42.545,88.65 42.495,88.42 42.831,88.312 42.931,88.518 42.821,88.602 	"/>
	<polygon fill="#232734" points="43.852,95.914 44.317,95.766 44.164,96.089 	"/>
	<polygon fill="#232734" points="53.108,110.585 53.322,111.049 52.983,111.014 52.93,110.893 	"/>
	<polygon fill="#232734" points="95.109,110.727 95.13,110.979 94.938,111.127 94.914,110.874 	"/>
	<polygon fill="#232734" points="42.848,92.482 42.727,92.51 42.539,92.376 42.679,92.249 42.861,92.396 	"/>
	<polygon fill="#232734" points="89.977,114.361 89.962,114.118 90.146,113.994 90.178,114.216 	"/>
	<polygon fill="#232734" points="47.591,103.511 47.671,103.691 47.489,103.816 47.438,103.695 47.482,103.57 	"/>
	<polygon fill="#232734" points="80.974,117.307 81.085,117.068 81.294,116.958 81.224,117.301 80.979,117.318 	"/>
	<polygon fill="#232734" points="49.197,106.023 48.829,106.02 48.78,105.898 48.945,105.756 	"/>
	<polygon fill="#232734" points="55.146,114.227 54.896,114.294 54.713,114.111 54.736,114.018 54.988,114.016 	"/>
	<polygon fill="#232734" points="42.098,82.969 41.97,83.016 41.771,82.77 41.899,82.723 42.103,82.857 	"/>
	<polygon fill="#232734" points="41.434,86.188 41.378,85.984 41.63,85.979 41.69,86.171 	"/>
	<polygon fill="#232734" points="41.509,88.938 41.44,88.848 41.582,88.755 41.626,88.877 	"/>
	<polygon fill="#232734" points="79.701,118.938 79.533,119.08 79.499,118.993 79.717,118.973 	"/>
	<polygon fill="#232734" points="51.25,109.044 51.256,108.934 51.339,108.979 	"/>
	<polygon fill="#232734" points="75.641,122.266 75.813,122.111 75.849,122.203 75.623,122.225 	"/>
	<polygon fill="#232734" points="68.062,120.083 68.007,120.003 68.137,119.917 68.171,120.03 	"/>
	<polygon fill="#232734" points="89.021,57.012 89.209,57.188 89.12,57.431 88.85,57.235 88.887,57.014 	"/>
	<polygon fill="#232734" points="88.939,58.149 88.562,58.002 88.52,57.808 88.641,57.765 88.893,58.173 	"/>
	<polygon fill="#232734" points="88.096,58.736 87.902,58.422 88.045,58.247 88.131,58.277 88.17,58.396 88.128,58.517 
		88.036,58.758 	"/>
	<polygon fill="#232734" points="89.757,56.407 89.805,56.529 89.637,56.454 	"/>
	<polygon fill="#232734" points="73.376,97.72 73.044,97.795 73.009,97.443 73.371,97.473 	"/>
	<polygon fill="#232734" points="74.841,97.345 74.719,97.648 74.376,97.461 74.343,97.268 74.463,97.227 	"/>
	<polygon fill="#232734" points="71.979,97.479 72.351,97.65 72.401,97.773 72.282,97.832 72.025,97.455 	"/>
	<polygon fill="#232734" points="74.25,98.52 74.007,98.53 73.887,98.355 74.106,98.323 	"/>
	<polygon fill="#232734" points="73.279,99.341 73.07,99.372 72.991,99.202 73.109,99.17 73.229,99.217 	"/>
	<polygon fill="#232734" points="74.118,97.962 74.083,97.845 74.196,97.792 74.242,97.916 	"/>
	<polygon fill="#232734" points="72.396,98.299 72.468,98.426 72.361,98.466 72.327,98.355 	"/>
	<polygon fill="#232734" points="71.393,98.688 71.327,98.605 71.462,98.523 71.515,98.641 	"/>
	<polygon fill="#232734" points="70.65,99.002 70.582,98.926 70.714,98.854 70.771,98.964 	"/>
	<polygon fill="#232734" points="71.946,99.754 71.836,99.786 71.9,99.645 	"/>
</g>
</svg>
