<?xml version="1.0" encoding="utf-8"?>
<!-- Generator: Adobe Illustrator 15.0.2, SVG Export Plug-In . SVG Version: 6.00 Build 0)  -->
<!DOCTYPE svg PUBLIC "-//W3C//DTD SVG 1.1//EN" "http://www.w3.org/Graphics/SVG/1.1/DTD/svg11.dtd">
<svg version="1.1" id="Layer_1" xmlns="http://www.w3.org/2000/svg" xmlns:xlink="http://www.w3.org/1999/xlink" x="0px" y="0px"
	 width="99px" height="99px" viewBox="0 0 99 99" enable-background="new 0 0 99 99" xml:space="preserve">
<g id="chives2">
	<path fill="#232734" d="M78.917,65.251l0.377,0.053l0.959,0.501l0.356,0.056l0.776,0.358l0.812,0.251l0.701,0.197l0.651,0.342
		l1.62,0.51l0.226,0.093l1.12,0.484l1.141,0.418l0.114,0.041l1.59,0.614l1.145,0.402l2.601,1.342l0.483,0.37l0.515,1.117
		l0.024,0.092l-0.265,0.741l0.021,0.701l-0.29,0.919l-0.286,0.961l-0.452,0.832L92.42,77.65l-0.212,0.438l-1.444,2.37l-0.462,0.329
		l-0.468,0.688l-0.493,0.537l-0.258,0.256l-1.045,1l-0.12,0.018l-0.324-0.133l-1.455-0.136l-1.92-0.854l-0.947-0.552l-0.729-0.639
		l-0.852-0.865l-0.665-0.706l-0.663-0.708l-0.468-0.392l-0.6-0.886l-1.176-0.734l-0.476-0.378l-0.837-0.697l-4.432-2.771
		l-0.48-0.068l-1.339-0.745l-0.602-0.356l-0.512-0.327l-1.217-0.542l-0.944-0.573l-1.216-0.553l-0.544-0.271l-2.011-1.179
		l-0.673-0.271l-0.333-0.142l-1.071-0.601l-0.572-0.195l-1.255-0.45l-1.458-0.61l-0.856-0.48l-0.72-0.214l-1.154-0.656l-0.437-0.218
		l-1.961-0.904l-0.496-0.145l-0.531-0.306l-1.649-0.777l-0.547-0.272l-1.001-0.424l-1.252-0.478l-1.095-0.565l-0.524-0.106
		l-2.266-1.37l-0.785-0.331l-0.442-0.196l-1.521-0.856l-0.396-0.064l-1.756-1.007l-0.996-0.46l-0.541-0.276l-0.524-0.319
		l-0.651-0.345l-0.562-0.23l-0.511-0.293l-0.656-0.316l-4.585-2.854l-0.683-0.508l-0.565-0.418l-0.634-0.298l-0.274-0.328
		l-2.67-1.75l-0.293-0.382l-0.981-0.661l-0.4-0.282l-2.359-1.735l-0.471-0.295l-0.359-0.436l-0.794-0.554l-0.921-0.795l-0.655-0.548
		l-0.615-0.583l-0.774-0.777l-0.807-0.56l-1.207-1.194l-0.681-0.522l-0.294-0.416L12.211,37.5l-0.86-0.619l-0.23-0.342l-0.787-0.591
		l-0.537-0.49l-0.261-0.253l-0.97-0.919l-0.884-1l-1.022-1.04L6.16,31.713l-0.429-0.397L5.72,31.188l0.487-0.861l0.475-0.376
		l0.938-0.76l0.963-0.77l1.028-0.319l0.443-0.712l0.42-0.25l0.464-0.622l0.684-0.09l0.691-0.025l0.101-0.349l0.512-0.515
		l0.433-0.543l1.118,0.797l0.554,0.162l0.397,0.438l0.206,0.103l0.863-0.229l0.793-0.867l0.322-0.766l0.756-0.938l0.754-1.031
		l0.434-0.351l0.607-0.394l0.64-0.446l2.037-0.686l1.414-0.151l0.423,0.263l0.322,0.82l0.996,1.501l1.63,1.964l0.703,0.842
		l1.461,1.623l0.777,0.939l0.755,0.792l0.828,0.889l0.827,0.893l0.938,0.956l0.576,0.62l0.736,0.81L36,34.327l0.496,0.531
		l0.518,0.516l0.259,0.252l0.894,0.827l0.28,0.233l0.698,0.676l0.55,0.65l0.599,0.61l0.727,0.647l0.715,0.661l0.772,0.773
		l0.598,0.604l0.537,0.368l0.45,0.522l1.323,1.26l0.434,0.423l0.624,0.579l0.462,0.394l0.633,0.57l0.365,0.318l0.569,0.46
		l1.051,0.902l0.452,0.516l1.261,1.32l0.601,0.426l0.363,0.325l0.319,0.366l0.5,0.523l0.881,0.611l0.206,0.133l1.531,1.022
		l1.054,0.827l0.496,0.353l2.906,1.808l1.066,0.312l0.901,0.354l0.946,0.569l0.699,0.22l0.61,0.592l0.801,0.294l1.033,0.654
		l0.538,0.434l0.587,0.432l0.601,0.376l0.432,0.086l0.309,0.334l0.229,0.051l0.261,0.326l1.206,0.748l0.216,0.116l2.286,1.146
		l0.997,0.442l0.869,0.454l0.899,0.374l0.555,0.246l0.961,0.545l0.671,0.284L78.917,65.251L78.917,65.251z M17.035,31.5
		l-0.007-0.291l-0.276-0.177v-0.222l-0.475-0.537l-0.461-0.553l-0.385-0.61l-0.615-0.893l-0.867-1.157l-0.74-0.426l0.09,0.433
		l0.497,0.41l0.604,0.899l0.906,1.126l0.831,1.112l0.652,0.406l0.007,0.292l0.277,0.176l0.277,0.329l-0.047-0.104L17.035,31.5
		L17.035,31.5z M11.458,32.089l-0.017-0.282l-0.268-0.187l-0.01-0.213l-0.495-0.232l0.551,0.433l0.007,0.288l0.274,0.181
		l0.265,0.311L11.458,32.089L11.458,32.089z M25.633,23.789l0.11,0.376l0.38,0.222l-0.027,0.221l0.597,0.759l0.38,0.471l0.456,0.564
		l1.132,1.272l0.526,0.659l0.667,0.701l0.423,0.43l0.77,0.935l0.811,1.06l0.646,0.725l0.67,0.701l0.702,0.834l0.764,0.782
		l0.164,0.176l0.98,0.899l0.572,0.628l0.662,0.712l1.021,1.04l0.29,0.4l0.596,0.369l0.234,0.407l0.788,0.655l0.608,0.592
		l0.704,0.666l0.184,0.16l0.595,0.598l0.681,0.694l0.875,0.84l0.883,0.828l0.662,0.534l0.003,0.222l0.045-0.013l-1.033-0.657
		l-0.275-0.234l-0.714-0.655l-0.343-0.346l-0.348-0.334l-0.735-0.633l-0.77-0.776l-0.824-0.887l-1.251-1.154l-0.387-0.455
		l-0.966-0.662l-0.678-0.939l-0.854-0.862l-0.979-0.904l-0.174-0.168l-0.988-1.069l-1.061-1.001l-1.021-1.2l-0.823-1.047
		l-0.823-1.127l-1.164-1.149l-0.686-0.853l-0.728-0.815l-0.756-0.95l-0.7-0.837l-0.693-0.845l-0.737-1.111l-0.779-1.369l-0.45-0.223
		l-0.315,0.123l0.484,0.903l0.245,0.572l0.425,0.36l0.366,0.544l-0.005,0.227l0.044-0.013l-0.899-0.784l-0.567-0.633l-0.659-0.713
		l-0.481-0.371l-0.377-0.072l0.692,0.882l0.99,1.226l0.164,0.177l0.444,0.728l0.357,0.491l0.666,0.866l0.224,0.283l0.54,0.655
		l0.526,0.669l0.628,0.736l0.546,0.65l0.596,0.6l1.327,1.904l0.795,0.738l0.884,0.997l0.815,1.044L31.89,34.66l-0.315-0.172
		l-0.389,0.393l-0.086,0.5l-0.274,0.191l0.181,0.79l0.372,0.308l0.298,0.378l0.643,0.715l1.124,1.092l0.655,0.704l0.74,0.792
		l0.626,0.738l1.301,1.259l0.183,0.155l0.897,0.807l0.228,0.359l0.498,0.434l0.037,0.225l-1.064-0.74l-0.229-0.348l-0.669-0.479
		l-0.237-0.377l-1.491-1.362l-0.689-0.846L33.385,39.3l-0.768-0.77l-0.48-0.537l-0.563-0.628l-0.598-0.603l-0.737-0.55l-0.451-0.41
		l0.131,0.959l-0.475,0.516l-0.027,0.114l0.116,0.356l0.85,0.661l0.777,0.933l0.478,0.543l0.221,0.064l0.429,0.413l0.566,0.467
		l-0.156,0.128l-0.232-0.006l-0.739-0.622l-0.446-0.409l-0.765-0.783l-0.812-0.9l-0.867-0.846l-0.887-0.827l-0.832-0.889
		l-0.571-0.627l-1.398-1.517l-0.823-0.698l0.028-0.211l-1.017-1.276l-0.303-0.172l0.036-0.111l-0.829-0.95l-0.268-0.329l0.316,0.315
		l-0.03,0.112l0.802,0.954l-0.035,0.21l0.686,1.067l0.406,0.285l0.212,0.104l-0.04,0.114l0.707,0.96l1.206,1.521l0.641,0.72
		L27.554,37l0.008,0.358l-0.355-0.125l-0.309-0.37l-0.8-0.911l-0.734-0.973L25.271,34.9l-0.647-0.725l-0.646-0.722l-0.826-1.049
		l-0.46-0.72l-1.484-2.229l-0.966-1.408l-0.916-1.431l-0.626-1.057l-0.422-0.233l0.015-0.194l-0.082,0.019l0.097,0.168l-0.07,0.212
		l0.208,0.694l-0.039,0.343l-0.454-0.552l-0.194-0.104l-0.18,0.332l1.182,1.775l0.606,0.91l0.5,0.835l0.648,0.875l1.316,1.894
		l1.1,1.449l1.36,1.533l1.152,1.245l0.88,0.797l0.922,0.717l-0.567-0.778l-0.973-0.891l-0.773-0.931l-0.134-0.203l-0.141-0.197
		l0.008-0.227l0.617,0.447l0.52,0.784l0.521,0.662l0.682,0.486l0.271,0.413l0.273,0.235l0.228,0.38l0.717,0.517l-0.002,0.229
		l-0.81-0.524l-0.23-0.017l0.839,0.6l0.192-0.107l0.646,0.467l0.067,0.31l-0.639-0.283l0.436,0.331l0.194-0.096l1.102,0.95
		l0.287,0.226l0.608,0.589l0.691,0.494l0.188-0.047l-0.829-0.903l-0.606-0.592l-0.749-0.792l-0.579-0.449l-0.479-0.546l-0.506-0.521
		l-0.604-0.585l0.103-0.213l0.12-0.011l0.204,0.114l0.514,0.516l0.375,0.308l0.69,0.682l0.345,0.343l0.928,0.963l0.968,0.923
		l0.956,0.942l0.207,0.299l0.773,0.771l0.289,0.217l0.816,0.732l0.464,0.396l0.485,0.367l0.943,0.766l1.076,0.705l0.36,0.403
		l0.56,0.421l0.624,0.39l1.968,1.244l0.532,0.304l0.342,0.093l0.099-0.226l-0.056-0.108l-1.296-0.927l-0.226-0.338l-1.068-0.752
		l-0.278-0.363l-0.903-0.688l-0.9-0.817l-0.991-0.872l-0.706-0.851l0.224-0.18l0.428,0.432l0.396,0.284l1.101,0.949l0.273,0.24
		l0.62,0.573l0.479,0.377l1.113,0.947l0.28,0.396l1.215,0.833l0.37,0.312l0.743,0.628l2.071,1.315l2.009,1.181l0.118-0.096
		l-1.979-1.37l-0.199-0.323l-1.305-0.881l-0.285-0.396l-1.207-0.801l-0.298-0.41l-1.719-1.166l-0.213-0.327l-0.789-0.58
		l-0.855-0.862l-0.021-0.227l0.853,0.593l0.237,0.37l1.737,1.159l1.169,1.042l0.192,0.311l1.641,1.073l0.505,0.529l0.895,0.639
		l0.278,0.232l0.863,0.675l0.354,0.073l0.222,0.284l2.481,1.581l0.455,0.162l1.041,0.346l1.022,0.414l0.604,0.032l-0.092-0.179
		l-0.566-0.193l-0.213-0.103l-0.143-0.216l-2.039-1.124l-0.478-0.486l-1.428-0.956l-0.601-0.599l-1.407-1.164l-0.992-0.699
		l-0.296-0.393l-1.311-1.106l-0.39-0.291l-0.503-0.353l-0.447-0.415l-0.228,0.292l-0.24,0.267l-0.224-0.012l-0.67-0.68l-0.155-0.3
		L41,44.559l-0.503-0.51l-0.444-0.522l-0.912-0.689l-0.699-0.663l-0.186-0.157l-0.902-0.991l-1.007-1.22l-1.135-1.1l-0.829-0.888
		l-0.865-1.025l-0.764-0.947l-0.865-1.013l-0.016-0.227l0.76,0.613l1.143,1.258l0.776,0.936l0.847,0.871l0.768,0.777l0.322,0.36
		l0.949,1.111l0.431,0.43l1.147,1.263l1.021,0.729l0.556,0.76l0.35,0.052l0.336,0.145l1.023,0.467l0.057,0.563l0.517,0.579
		l0.424,0.509l1.032,0.714l0.275,0.384l1.223,0.842l0.525,0.565l1.124,0.93l0.386,0.299l1.104,0.755l0.216,0.312l0.815,0.547
		l4.07,2.518l0.597,0.234l0.186,0.243l1.682,0.229l-1.785-1.229l-0.085-0.395l0.648,0.317l0.265,0.364l0.452,0.272l0.947,0.25
		l-0.041-0.197l-2.322-1.515l-0.241-0.357l-1.52-1.018l-0.908-0.984l-0.164-0.179L51.199,49.5l-0.228-0.347l-0.831-0.613
		l-0.842-1.006l-1.114-0.862l-1.234-0.991l-0.074-0.098l-0.434-0.427l-0.885-0.831l-0.975-0.92l-0.588-0.612l-0.755-0.795
		l-0.894-0.815l-0.628-0.573L40.964,40l-0.604-0.598l-0.557-0.638l-0.564-0.466l-0.162-0.178l-0.796-0.918l-0.976-0.911l-0.5-0.532
		l-0.648-0.554l-0.683-0.691l-0.774-0.78l-0.623-0.744l-0.333-0.353l-0.782-0.769l-0.756-0.789l-0.762-0.781l-0.43-0.424
		l-0.945-1.107l-0.866-1.174l-0.068-0.102l-0.527-0.508l-0.61-0.598l-0.484-0.544l-0.272-0.237l-0.529-0.662L26.078,24.4
		l-0.052-0.289l-0.444-0.31l0.008-0.216l-0.091,0.027L25.633,23.789L25.633,23.789z M19.691,23.569l-0.055,0.198l0.159,0.455
		l0.457,0.284l-0.021,0.22l0.724,0.955l0.651,0.859l0.739,0.94l0.48,0.35l-0.149,0.236l-0.826-0.716l-0.988-1.23l-1.001-1.378
		l-0.598-0.769l-0.1-0.065l-0.293,0.119v0.337l1.058,1.93l0.285,0.25l0.461,0.72l0.446,0.577l0.548,0.646l0.458,0.563l0.878,1.166
		l0.45,0.572l0.666,0.864l0.678,0.857l1.555,1.711l0.235,0.276l0.84,0.88l0.891,0.996l0.797,0.576l0.262-0.194l0.012-0.265
		l-0.123-0.484l-0.411-0.559l0.37-0.396L28.3,34.098l-0.317-0.362l-3.377-4.001l-0.83-0.694l-0.131-0.338l-0.266,0.091l-0.637-0.464
		l-0.075-0.307l0.428,0.146l-0.309-0.329l0.042-0.11l-0.674-1.111l-0.784-1.063l-0.545-0.639l-0.595-0.402l0.047-0.109L19.927,23.8
		l-0.278-0.22l0.018-0.216l-0.087,0.034L19.691,23.569L19.691,23.569z M15.826,38.562l0.148-0.24l0.902,0.628l0.196,0.333
		l0.89,0.802l0.893,0.817l0.815,0.844l0.278,0.071l0.252,0.244l1.549,1.109l0.563,0.53l0.538,0.181l0.172,0.219l0.266-0.233
		l0.39-0.301l-0.644-0.818l-1.275-1.124l-0.275-0.233l-0.702-0.669l-0.682-0.688l-0.803-0.562l-0.143-0.195l-0.254-0.26
		l-0.603-0.421l-0.503-0.526L17.4,37.779l-0.334-0.352l-0.24-0.269l-1.084-0.973l-0.783-0.763l-0.778-0.764l-0.673-0.699
		l-0.675-0.699l-0.424-0.196l-0.011,0.084l0.644,0.872l0.533,0.658l0.54,0.653l0.608,0.57l0.062,0.142l-0.354-0.097l-0.988-0.896
		l-0.418-0.438l-0.999-1.223l-1.074-1.312l-0.646-0.721l-0.505-0.521l-1.105-1.286l-0.288,0.096l-0.022,0.11l0.684,0.838
		l0.255,0.259l1.336,1.733l0.234,0.271l0.575,0.623l0.505,0.683l-0.01,0.148l-0.4-0.248l-0.316-0.367l-0.572-0.624l-0.631-0.741
		l-0.701-0.825l-0.506-0.524l-0.486-0.54l-0.251-0.128l-0.475,0.121l0.612,0.623l0.615,0.756l0.557,0.631l1.131,1.271l0.662,0.539
		l0.163,0.175l0.593,0.605l0.573,0.621l0.281,0.422l0.82,0.506l0.185-0.04l0.028-0.242l0.41,0.161l0.706,0.66l1.022,1.027
		l0.002,0.225l-0.657-0.457l-0.297-0.426l-0.85-0.524l-0.204,0.005l0.79,0.67l0.471,0.539l0.631,0.367l-0.014,0.212l0.56,0.26
		L15.826,38.562L15.826,38.562z M33.652,43.857l0.005-0.217l-0.563-0.456l-0.48-0.533l-0.327-0.097l-0.19,0.218l1.6,1.071
		l0.285,0.318L33.652,43.857L33.652,43.857z M19.661,30.53l0.038-0.215l-0.98-1.379l-1.472-2.222l-0.378,0.048l-0.04,0.137
		l0.858,1.285l0.174,0.314l0.393,0.604l0.608,0.742l0.84,0.676l0.003,0.206l0.088-0.025L19.661,30.53L19.661,30.53z M16.521,35.19
		l-0.334,0.112l-0.649-0.456l-0.277-0.424l-0.85-0.757l-0.528-0.659l-0.197-0.141l-0.322-0.02l-0.076,0.216l0.658,0.707l0.621,0.746
		l0.664,0.714l1.169,1.042l0.614,0.585l0.601,0.595l0.188,0.251l0.851,0.579l0.797,0.745l0.59,0.433l0.497,0.527l1.457,1.285
		l1.208,1.005l0.54,0.487l0.923,0.493l0.129,0.218l0.225-0.182l-0.085-0.481l-1.363-0.928l-0.311-0.448l-1.127-0.95l-0.573-0.453
		L20.6,39.143l-0.219-0.336l-1.189-1.025l-1.159-1.062l-0.479-0.543l-0.518-0.512l-0.561-0.46l-0.015-0.226L15,33.35l-1.158-1.411
		l-0.354-0.327l-0.116-0.007l-0.065,0.181l0.164,0.325l1.387,1.533l0.736,0.751l0.275,0.438L16.521,35.19L16.521,35.19z
		 M26.881,30.095l0.034-0.01l-0.836-0.682l-0.148-0.187l-0.781-0.765l-0.636-0.731l-0.639-0.72l-0.139-0.2l-0.501-0.684
		l-0.536-0.663l-0.624-0.743l-1.625-2.072l-0.617,0.354l0.242,0.384l0.518,0.675l0.594,0.772l0.537,0.656l0.519,0.821l0.801,0.915
		l0.737,0.965l0.88,0.994l0.785,0.924L26.2,31.05l1.005,1.215l0.6,0.6l0.599,0.762l0.472,0.55l0.537,0.445l0.414,0.645l0.068,0.098
		l0.212,0.066l0.163-0.158l-0.211-0.823l0.888-0.245l0.129-0.257l-0.332-0.488l-0.351-0.335l-0.486-0.545l-0.585-0.614l-0.599-0.763
		l-0.663-0.87l-0.505-0.675l-0.568-0.623l-0.836-0.883l-0.752-0.953l-0.618-0.75l-1.247-1.646l-0.929-1.273l-1.069-1.162
		l-0.213-0.293l-0.442,0.113l0.022,0.239l0.113,0.212l0.867,1.009l0.859,1.171l1.657,2.249l0.179,0.166l1.409,1.701l0.556,0.424
		l0.377,0.625L26.881,30.095L26.881,30.095z M14.78,30.958l0.017-0.006l-0.39-0.279l-0.785-0.929l-0.779-0.927l-0.673-0.866
		l-0.807-0.738l-0.339,0.085l0.083,0.233l1.287,2.073l0.229,0.281l0.521,0.675l0.478,0.543l1.396,1.529l0.482,0.702l0.662,0.708
		l0.733,0.81l0.485,0.541l0.381,0.548l0.495,0.45l0.608,0.588l0.193,0.147l0.896,0.817l0.508,0.521l0.551,0.645l0.698,0.496
		l0.181,0.163l1.126,0.996l0.245,0.369l0.771,0.479l0.435,0.047l0.565,0.168l0.682-0.226l-0.762-0.788l-0.282-0.229l-0.894-0.822
		l-0.771-0.771l-0.836-0.884l-0.683-0.854l-1.074-1.314l-0.775-0.77l-0.932-0.964l-0.865-1.014L15.429,30.3l-0.93-1.125
		l-1.504-1.898l-0.24-0.061L12.239,27.2l0.293,0.542l0.584,0.78l0.549,0.647l0.555,0.799l0.51,0.672l0.095,0.206L14.78,30.958
		L14.78,30.958z M21.671,36.664l-0.024,0.216l0.425,0.427l1.044,1.174l0.29,0.396l0.683,0.502l0.666,0.704l0.592,0.603l0.688,0.686
		l0.792,0.582l0.226,0.326l0.67,0.479l0.701,0.674l0.898,0.632l0.382,0.298l0.83,0.71l0.899,0.607l0.27,0.379l0.35,0.218l4.66,2.94
		l1.996,1.197l0.434,0.213l0.999,0.44l1.13,0.647l0.434,0.07l2.195,1.287l0.69,0.211l0.07,0.185l-0.681-0.056l-1.008-0.575
		l-0.438-0.205l-1.001-0.438l-0.852-0.483l-0.235-0.038l-0.659,0.288l-0.451-0.183l-0.554,0.187l-0.251-0.375l0.392-0.26
		l0.253,0.011l0.233-0.03l-0.04-0.112l-1.279-0.809l-0.642-0.197l-0.456-0.432l-0.554-0.337l-0.379-0.085l-2.796-1.739l-0.393-0.285
		l-0.945-0.761l-1.604-1.064l-0.247-0.354l-1.282-0.889l-1.384-1.194l-1.343-1.197l-0.177,0.143l0.021,0.721l0.474,0.379
		l0.079,0.592l1.103,0.763l0.242,0.338l2.316,1.522l0.294,0.396l0.451,0.135l0.715,0.643l2.307,1.388l0.484,0.163l0.279,0.354
		l-0.096,0.179l-4.697-2.926l-0.245-0.343l-2.644-1.726l-0.771-0.544l-0.228-0.282l-0.196-0.145l-0.377,0.144l0.364,0.646l4.2,2.701
		l0.224,0.294l0.234,0.054l0.965,0.732l1.237,0.771l0.248,0.047l0.249,0.241l0.533,0.336l0.337,0.068l0.995,0.636l0.211,0.089
		l0.218,0.247l0.386,0.109l0.846,0.495l1.681,1.006l0.258-0.013l0.184-0.294l0.308,0.167l0.372-0.019l0.491,0.356l0.171,0.678
		l0.046,0.227l0.789,0.312l1.043,0.601l1.527,0.722l0.434,0.216l1.168,0.674l0.362,0.05l1.982,1.176l-0.009-0.048l-0.207,0.082
		l-1.45-0.752l-1.779-0.805l-0.512-0.104l-2.125-1.269l-0.353-0.052l-1.003-0.513l-0.164,0.071l0.131,0.332l-0.59,0.357
		l-0.291-0.356l-1.146-0.102l0.198-0.439l0.658-0.308l0.025-0.215l-0.678,0.013l-0.273-0.109l-0.273-0.488l-0.043-0.237
		l-0.992-0.431l-7.41-4.575l-1.791-1.167l-0.299-0.379l-1.924-1.196l-0.803,0.228l-0.331-0.339l-0.414,0.166l0.148,0.187l3.654,2.25
		l0.659,0.286l0.132,0.197l6.13,3.826l0.909,0.342l0.03,0.183l-0.438-0.153l-0.446-0.051l-1.739-1.005l-0.473-0.083l-2.689-1.672
		l-0.356-0.456l-3.188-1.964l-0.677-0.23l-0.616-0.383l-0.293-0.386l-1.273-0.788l-0.12-0.002l-0.001,0.17l0.489,0.536l0.681,0.517
		l0.072,0.098l-0.032,0.217l0.04-0.014L22.78,45.12l-0.804-0.736l-1.034-0.851l-0.393-0.288l-1.091-0.758l-0.607-0.628l-0.594-0.607
		l-1.083-0.762l-0.179-0.271l-1.006-0.805l-0.89-0.824l-0.713-0.659l-0.689-0.681l-1.376-1.205l-0.165-0.177l-0.89-0.993
		l-1.564-1.347L9.199,32.82l-0.585-0.617l-1.219-1.469l-0.851,0.12l-0.084,0.085l-0.043,0.224L7.035,31.9l0.581,0.62l0.93,0.964
		l0.847,0.871l0.623,0.577l0.687,0.466l0.422,0.479l1.088,0.794l0.751,0.794l0.83,0.716l0.076,0.094l0.517,0.512l0.627,0.555
		l0.359,0.299l0.286,0.23l0.381,0.303l0.842,0.878l0.173,0.218l1.261,0.917l1.009,0.876l0.366,0.318l0.639,0.565l1.425,0.937
		l0.406,0.476l0.995,0.668l0.234,0.339l2.445,1.618l0.496,0.354l1.248,0.974l3.627,2.321l0.287,0.349l0.565,0.181l0.271,0.359
		l1.674,0.912l0.857,0.423l0.938,0.583l1.076,0.604l0.471,0.099l1.796,1.069l0.87,0.444l0.997,0.454l1.17,0.676l0.432,0.226
		l1.427,0.681l1.929,1.144l0.665,0.204l1.904,0.82l0.495,0.104l0.937,0.507l0.48,0.047l1.931,1.133l0.95,0.221l-0.076-0.124
		l-1.079-0.723l-0.528-0.063l-1.977-1.175l-0.285-0.05l-0.119-0.026l-0.934-0.715l0.354-0.049l0.665,0.304l0.947,0.566l1.012,0.412
		l0.218,0.114l1.904,1.121l0.233,0.239l0.015,0.465l0.555,0.331l1.122,0.471l0.65,0.337l1.33,0.611l0.654,0.331l1.126,0.462
		l0.232,0.068l1.496,0.503l0.967,0.536l0.661,0.309l0.782,0.339l1.596,0.918l0.429,0.229l1.106,0.509l1.274,0.737l0.435,0.221
		l1.213,0.569l1.263,0.759l0.544,0.273l1.218,0.554l1.354,0.775l0.554,0.136l0.16,0.123l1.198,0.754l0.323,0.156l0.286,0.41
		l2.708,1.757l0.908,0.849l0.272,0.395l0.541,0.403l0.931,0.959l0.661,0.713l0.827,0.721l0.291,0.384l1.257,0.781l2.266,0.413
		l1.485-0.463l0.041-0.342l0.726,0.069l0.402-0.264l0.542-0.684l0.482-0.35l1.477-2.458l0.053-0.438l0.166-0.324l0.443-0.735
		l0.313-0.923l0.187-0.39l0.053-0.666l-0.257-0.63l0.411-0.072l-0.183-0.593l-0.137-0.451l0.241-0.223l-0.715-0.82l-1.407-0.829
		l-0.746-0.215l-0.427-0.229l-1.193-0.25l-0.974-0.508l-1.29-0.361l-1.226-0.6l-1.161-0.295l-0.774-0.363l-0.813-0.246l-0.222-0.104
		l-1.271-0.405l-1.226-0.546l-0.12-0.021l-0.681-0.259l-0.549-0.268l-1.335-0.592l-0.739-0.436l-0.911-0.335l-0.657-0.331l-1-0.431
		l-2.65-1.552l-0.901-0.338l-4.342-2.699l-0.219-0.288l-0.809-0.348l-1.57-0.957l-1.534-0.727l-0.907-0.45l-0.449-0.072
		l-0.797-0.294l-0.953-0.172l-0.85-0.106l-0.955-0.193l-0.967-0.121l-1.062-0.251l-0.93-0.282l-1.175-0.293l-0.239-0.055
		l-0.979-0.27l-1.733-0.772l-0.232-0.068L48.7,52.976l-0.913-0.333l-0.468-0.135l-1.048-0.315l-0.879-0.432l-1.022-0.385
		l-0.486-0.266l-0.421-0.056l-2.471-1.442l-0.365-0.075l-1.877-1.072l-0.631-0.379l-4.07-2.628l-0.417-0.399l-0.735,0.261
		l-0.015-0.471l-0.721-0.758l-0.368-0.229l-1.417-1.145l-0.842-0.459l-0.328,0.171l-0.187-0.115l-0.008-0.45l-0.367-0.535
		l-0.756-0.55l-0.537-0.037l-0.2-0.636l-0.767-0.656l-0.511,0.022l-0.229-0.535l-1.022-1.199l-0.391-0.03l-0.337-0.749l-0.516-0.375
		l-0.453,0.179l0.098-0.543l-0.352-0.615l-0.677-0.688l-0.559-0.629l-0.683-0.699l-0.612-0.367l-0.132,0.295l-0.237-0.299
		l0.151-0.321l-0.117-0.226l-0.692-0.688l-0.557-0.203l-0.232-0.098l-0.083-0.551l-1.305-1.475l-0.587-0.776l-0.87-1.013
		l-0.906-0.784l0.014-0.216l-0.304-0.122l0.335,0.325l0.01,0.223l0.617,0.744l0.534,0.95l0.424,0.588l0.545,0.646l0.534,0.81
		l0.888,1.151l1.098,1.293l1.062,1.458l1.033,0.716l0.464,0.54l1.245,1.153l0.753,0.787l0.8,0.743l0.896,0.82l0.317,0.408
		l0.564,0.418l0.437,0.416l0.448,0.541l-0.228,0.001l-1.317-1.062l-0.382-0.301l-0.504-0.524l-0.672-0.526l-0.073-0.096
		l-0.516-0.508l-0.974-0.912l-0.166-0.172l-0.819-0.703l0.011-0.21l-0.533-0.254L21.671,36.664L21.671,36.664z M9.597,28.701
		l0.47,0.677l0.86,1.161l0.864,1.001l0.844,0.654l0.146-0.01l-0.377-0.867l-0.498-0.675l-0.627-0.73l-0.567-0.615l-0.64-0.721
		l-0.219-0.091L9.597,28.701L9.597,28.701z M13.238,31.203l-0.869-0.894l-0.221-0.019l-0.017,0.093l0.311,0.505L13.238,31.203
		L13.238,31.203z M9.523,29.56l-0.52-0.326L9.523,29.56L9.523,29.56z M13.676,26.03l-0.104,0.007l-0.113,0.186l0.132,0.18
		l0.116,0.022l0.066-0.178L13.676,26.03L13.676,26.03z M22.456,34.729l-0.27-0.307l-0.182,0.02l0.044,0.106L22.456,34.729
		L22.456,34.729z M23.085,35.316l-0.097-0.038l-0.08,0.017l0.044,0.096l0.192,0.06L23.085,35.316L23.085,35.316z M41.411,45.004
		l-0.003,0.084l0.051,0.086l0.206,0.048l-0.056-0.16L41.411,45.004L41.411,45.004z M9.689,29.949l0.138,0.191l0.109,0.021
		l-0.023-0.152L9.689,29.949L9.689,29.949z M10.394,30.594l-0.172-0.005l0.051,0.104l0.093,0.076l0.116-0.009L10.394,30.594
		L10.394,30.594z M24.362,21.428l-0.028-0.116l-0.104-0.059l-0.113,0.016l0.049,0.178L24.362,21.428L24.362,21.428z M21.712,29.235
		l-0.087-0.066l-0.104,0.016l0.085,0.158l0.149-0.011L21.712,29.235L21.712,29.235z M57.305,54.333l0.059,0.086l0.041-0.055
		L57.305,54.333L57.305,54.333z M42.749,49.627l-0.021-0.089l-0.093,0.003l0.029,0.085L42.749,49.627L42.749,49.627z M23.469,35.853
		l-0.061,0.078l0.09,0.007L23.469,35.853L23.469,35.853z M20.279,31.338l-0.05-0.079l-0.041,0.053L20.279,31.338L20.279,31.338z
		 M18.758,33.627l0.083-0.027l-0.078-0.062L18.758,33.627L18.758,33.627z M12.681,26.675l0.083-0.035l-0.066-0.054L12.681,26.675
		L12.681,26.675z M11.136,28.532l0.028,0.087l0.093,0.005l-0.028-0.089L11.136,28.532L11.136,28.532z M10.972,28.162l-0.052-0.088
		l-0.049,0.064L10.972,28.162L10.972,28.162z"/>
	<path fill="#232734" d="M88.683,77.72l-0.232,0.299l-0.494,0.049l-0.389,0.257l0.317,0.36l0.525-0.197l0.51,0.743l-0.176,0.157
		l-0.35-0.061l-0.916,0.439L87.4,79.95l0.064,0.706l-0.202,0.134l-0.274-0.185l-0.145-0.464l-0.123-0.339l-0.563,0.145l0.022-0.005
		l-0.096-0.206l0.024-0.354l-0.379-0.037l-0.185-0.271l0.404-0.65l0.376-0.246l-0.102-0.188l-0.067-0.315l0.304-0.115l0.665,0.264
		l-0.083-0.203l0.234-0.643l0.171,0.175h0.109l0.412-0.23l-0.03-0.607l0.642-0.098l0.177,0.164l0.036,0.114l-0.044,0.23
		l-0.098,0.064l-0.355,0.286l0.126,0.461l0.271,0.242L88.683,77.72L88.683,77.72z M87.105,79.21l-0.037-0.962l-0.44,0.073
		l-0.357,0.736l0.401-0.144L87.105,79.21L87.105,79.21z"/>
	<polygon fill="#232734" points="39.712,55.646 40.135,55.724 42.971,57.391 43.381,57.437 44.933,58.347 45.477,58.423 
		46.549,59.145 46.611,59.28 45.495,58.95 43.881,58.054 43.461,57.988 41.677,56.966 40.98,56.747 38.208,55.123 37.768,55.016 
		33.025,52 33.123,51.965 33.755,52.059 34.704,52.658 39.712,55.646 	"/>
	<polygon fill="#232734" points="57.524,60.879 57.13,61.033 56.584,61.136 56.767,61.596 56.652,61.823 56.333,61.957 
		55.142,61.716 55.062,61.287 55.775,61.216 56.232,60.659 56.633,60.244 55.993,60.156 55.965,60.5 55.747,60.741 55.477,60.129 
		55.688,60.005 55.75,59.612 56.131,59.36 56.203,59.147 56.013,58.735 56.418,58.549 56.658,58.698 56.913,59.643 57.136,59.877 
		57.328,60.129 57.765,59.759 58,60.032 57.871,60.225 57.65,60.326 57.567,60.401 57.524,60.634 57.524,60.879 	"/>
	<polygon fill="#232734" points="24.179,46.07 24.662,46.113 24.969,46.309 25.257,46.679 26.745,47.699 27.006,48.079 
		27.809,48.579 28.628,49.12 29.467,49.63 30.294,50.153 30.993,50.743 29.945,50.443 29.409,49.929 26.061,47.747 25.8,47.389 
		24.239,46.28 24.219,46.056 24.179,46.07 	"/>
	<polygon fill="#232734" points="72.335,68.724 71.993,68.556 71.773,68.564 71.285,68.282 71.175,67.967 71.461,67.283 
		71.598,66.724 72.111,66.979 71.803,67.281 71.887,67.979 71.993,68.15 72.413,67.18 73.031,67.132 73.114,67.336 72.855,67.874 
		72.673,68.319 72.658,68.46 72.296,68.732 72.335,68.724 	"/>
	<polygon fill="#232734" points="90.607,74.623 90.842,75.037 90.727,75.357 90.012,75.789 89.591,76.551 89.239,75.96 
		89.522,75.774 89.321,75.234 89.077,74.795 89.246,74.577 89.569,74.612 89.75,74.918 90.263,75.118 90.282,74.862 90.656,74.614 
		90.607,74.623 	"/>
	<polygon fill="#232734" points="90.656,74.614 90.049,74.237 89.531,74.173 89.237,74.029 89.05,73.884 88.984,73.671 
		89.247,73.498 90.617,73.786 90.999,74.387 90.607,74.623 90.656,74.614 	"/>
	<polygon fill="#232734" points="71.383,69.322 71.565,69.029 72.335,68.724 72.296,68.732 72.587,68.936 72.751,69.263 
		73.401,69.512 73.249,69.957 72.555,69.997 72.136,69.284 71.656,69.454 71.366,69.274 71.383,69.322 	"/>
	<polygon fill="#232734" points="57.664,58.904 57.682,59.162 57.48,59.419 57.229,59.227 57.064,58.536 57.169,58.337 
		57.599,58.291 57.655,57.917 57.819,57.767 58.025,57.827 58.378,58.441 58.235,58.733 57.664,58.904 	"/>
	<polygon fill="#232734" points="73.12,67.947 73.56,67.592 73.808,67.352 74.176,67.387 74.269,67.738 73.697,68.002 
		73.811,68.929 73.606,69.039 73.371,69.066 73.194,68.915 73.171,68.324 73.12,67.947 	"/>
	<polygon fill="#232734" points="88.047,75.837 88.001,74.779 88.075,74.663 88.564,74.349 88.819,74.442 88.866,74.657 
		88.761,74.875 88.395,75.775 88.047,75.837 	"/>
	<polygon fill="#232734" points="88.693,77.777 88.844,77.462 88.821,77.21 89.221,76.709 89.403,76.841 89.15,77.493 
		89.154,77.609 89.341,78.379 89.004,78.458 88.854,78.025 88.683,77.72 88.693,77.777 	"/>
	<polygon fill="#232734" points="33.358,46.106 33.142,46.112 32.514,45.753 30.98,44.801 30.753,44.518 30.992,44.512 
		33.24,45.909 33.358,46.106 	"/>
	<polygon fill="#232734" points="92.093,73.01 92.069,73.245 91.571,73.903 91.459,73.928 91.19,73.451 91.635,73.099 92.093,73.01 
			"/>
	<polygon fill="#232734" points="86.925,76.517 86.965,75.97 87.431,75.833 87.554,76.332 86.925,76.517 	"/>
	<polygon fill="#232734" points="73.581,66.844 73.314,66.631 73.323,66.271 73.612,66.105 73.726,66.15 73.905,66.309 
		73.581,66.844 	"/>
	<polygon fill="#232734" points="71.435,70.141 71.566,70.094 71.838,70.347 71.547,70.935 71.207,70.873 71.187,70.656 
		71.435,70.141 	"/>
	<polygon fill="#232734" points="74.93,67.161 74.973,66.84 75.187,66.779 75.303,66.802 75.664,66.86 75.765,67.204 74.93,67.161 	
		"/>
	<polygon fill="#232734" points="86.157,79.947 86.319,80.095 86.439,80.773 85.962,80.934 85.995,80.236 86.18,79.942 
		86.157,79.947 	"/>
	<polygon fill="#232734" points="72.609,66.408 72.493,66.444 72.245,66.266 72.309,66.048 72.401,65.977 72.816,65.737 
		72.609,66.408 	"/>
	<polygon fill="#232734" points="88.449,70.48 88.385,70.527 87.896,69.955 87.952,69.886 88.062,69.902 88.156,69.971 
		88.449,70.48 	"/>
	<polygon fill="#232734" points="90.401,76.697 90.268,76.264 90.712,76.208 90.796,76.521 90.401,76.697 	"/>
	<polygon fill="#232734" points="90.544,72.297 90.639,72.372 90.611,72.69 90.312,72.587 90.344,72.37 90.544,72.297 	"/>
	<polygon fill="#232734" points="91.354,72.094 91.25,71.9 91.521,71.769 91.633,71.964 91.354,72.094 	"/>
	<polygon fill="#232734" points="50.722,58.438 51.006,58.438 50.957,58.727 50.75,58.717 50.722,58.438 	"/>
	<polygon fill="#232734" points="65.469,65.824 65.671,65.793 65.764,66.091 65.575,66.203 65.419,65.932 65.469,65.824 	"/>
	<polygon fill="#232734" points="64.396,59.3 64.316,59.576 64.107,59.539 64.047,59.448 64.168,59.3 64.282,59.283 64.396,59.3 	
		"/>
	<polygon fill="#232734" points="60.739,64.349 60.666,63.933 60.928,64.09 60.739,64.349 	"/>
	<polygon fill="#232734" points="69.421,64.958 69.538,65.146 69.417,65.333 69.228,65.122 69.312,64.94 69.421,64.958 	"/>
	<polygon fill="#232734" points="71.366,69.274 71.326,69.384 71.301,69.713 71.066,69.68 71.063,69.391 71.383,69.322 
		71.366,69.274 	"/>
	<polygon fill="#232734" points="54.717,61.978 54.305,62.06 54.29,61.951 54.685,61.872 54.717,61.978 	"/>
	<polygon fill="#232734" points="77.003,74.383 77.219,74.286 77.383,74.376 77.343,74.482 77.003,74.383 	"/>
	<polygon fill="#232734" points="31.235,43.794 31.036,44.161 30.922,43.862 31.14,43.736 31.235,43.794 	"/>
	<polygon fill="#232734" points="82.191,78.683 82.257,79.021 82.093,79.107 81.959,78.935 82.191,78.683 	"/>
	<polygon fill="#232734" points="47.464,57.07 47.646,56.969 48.079,57.286 47.455,57.022 47.464,57.07 	"/>
	<polygon fill="#232734" points="89.551,70.54 89.418,70.951 89.244,70.986 89.237,70.87 89.551,70.54 	"/>
	<polygon fill="#232734" points="72.39,70.738 72.271,70.381 72.41,70.254 72.621,70.477 72.39,70.738 	"/>
	<polygon fill="#232734" points="83.781,78.027 83.492,77.935 83.471,77.823 83.635,77.667 83.771,77.794 83.781,78.027 	"/>
	<polygon fill="#232734" points="92.541,72.782 92.239,72.511 92.414,72.377 92.487,72.446 92.541,72.782 	"/>
	<polygon fill="#232734" points="21.164,34.775 21.467,34.812 21.459,34.991 21.354,35.014 21.164,34.775 	"/>
	<polygon fill="#232734" points="46.076,54.271 46.275,54.307 46.312,54.481 46.106,54.453 46.076,54.271 	"/>
	<polygon fill="#232734" points="50.807,56.982 50.859,56.774 51.021,56.758 50.982,56.95 50.807,56.982 	"/>
	<polygon fill="#232734" points="54.723,56.966 54.629,57.017 54.57,56.866 54.754,56.758 54.771,56.868 54.723,56.966 	"/>
	<polygon fill="#232734" points="62.583,58.356 62.596,58.532 62.381,58.494 62.383,58.316 62.583,58.356 	"/>
	<polygon fill="#232734" points="64.326,61.856 64.276,62.063 64.11,62.084 64.153,61.88 64.248,61.835 64.326,61.856 	"/>
	<polygon fill="#232734" points="65.825,60.265 65.889,60.202 66.077,60.302 66.079,60.399 65.857,60.37 65.825,60.265 	"/>
	<polygon fill="#232734" points="65.048,67.508 65.154,67.492 65.281,67.71 65.177,67.726 65.035,67.594 65.048,67.508 	"/>
	<polygon fill="#232734" points="66.639,68.459 66.535,68.493 66.507,68.322 66.684,68.25 66.7,68.361 66.639,68.459 	"/>
	<polygon fill="#232734" points="71.383,63.388 71.442,63.425 71.362,63.611 71.245,63.531 71.383,63.388 	"/>
	<polygon fill="#232734" points="67.99,69.4 67.939,69.33 68.14,69.154 68.156,69.266 67.99,69.4 	"/>
	<polygon fill="#232734" points="72.481,64.052 72.284,64.046 72.255,63.889 72.358,63.879 72.448,63.946 72.481,64.052 	"/>
	<polygon fill="#232734" points="69.132,69.791 69.336,69.812 69.42,69.987 69.22,69.971 69.132,69.791 	"/>
	<polygon fill="#232734" points="73.438,64.353 73.425,64.547 73.278,64.583 73.271,64.479 73.333,64.389 73.438,64.353 	"/>
	<polygon fill="#232734" points="74.271,65.035 74.175,65.091 74.125,64.932 74.309,64.824 74.324,64.937 74.271,65.035 	"/>
	<polygon fill="#232734" points="71.694,71.131 71.799,71.12 71.857,71.285 71.696,71.39 71.65,71.228 71.694,71.131 	"/>
	<polygon fill="#232734" points="74.279,72.556 74.456,72.502 74.471,72.617 74.296,72.746 74.279,72.556 	"/>
	<polygon fill="#232734" points="77.862,69.595 77.874,69.764 77.768,69.77 77.635,69.626 77.674,69.554 77.862,69.595 	"/>
	<polygon fill="#232734" points="80.002,67.264 80.051,67.324 79.948,67.496 79.862,67.503 79.904,67.301 80.002,67.264 	"/>
	<polygon fill="#232734" points="76.356,73.879 76.408,73.979 76.248,74.037 76.146,73.851 76.26,73.827 76.356,73.879 	"/>
	<polygon fill="#232734" points="78.515,71.995 78.717,71.671 78.515,71.995 	"/>
	<polygon fill="#232734" points="81.241,67.883 81.415,67.843 81.428,67.957 81.247,68.082 81.241,67.883 	"/>
	<polygon fill="#232734" points="78.059,74.94 78.093,75.041 77.927,75.065 77.854,74.898 77.963,74.878 78.059,74.94 	"/>
	<polygon fill="#232734" points="82.605,68.629 82.605,68.526 82.749,68.387 82.829,68.518 82.677,68.651 82.605,68.629 	"/>
	<polygon fill="#232734" points="78.906,75.455 78.938,75.559 78.768,75.597 78.691,75.418 78.805,75.395 78.906,75.455 	"/>
	<polygon fill="#232734" points="79.775,76.057 79.576,76.357 79.775,76.057 	"/>
	<polygon fill="#232734" points="85.39,69.104 85.432,69.263 85.326,69.276 85.228,69.225 85.209,69.118 85.39,69.104 	"/>
	<polygon fill="#232734" points="80.8,77.221 80.948,77.377 80.906,77.442 80.705,77.363 80.69,77.25 80.8,77.221 	"/>
	<polygon fill="#232734" points="82.422,74.524 82.632,74.561 82.639,74.742 82.43,74.708 82.422,74.524 	"/>
	<polygon fill="#232734" points="81.712,75.973 81.883,75.937 81.894,76.05 81.709,76.179 81.673,76.083 81.712,75.973 	"/>
	<polygon fill="#232734" points="84.906,72.238 84.914,72.415 84.803,72.423 84.664,72.272 84.703,72.196 84.906,72.238 	"/>
	<polygon fill="#232734" points="81.634,78.083 81.699,78.232 81.536,78.363 81.482,78.207 81.634,78.083 	"/>
	<polygon fill="#232734" points="82.893,79.871 82.915,79.658 83.089,79.575 83.083,79.782 82.893,79.871 	"/>
	<polygon fill="#232734" points="83.758,80.184 83.924,80.136 83.883,80.345 83.771,80.367 83.758,80.184 	"/>
	<polygon fill="#232734" points="84.542,80.84 84.588,80.642 84.752,80.625 84.71,80.823 84.617,80.865 84.542,80.84 	"/>
	<polygon fill="#232734" points="85.808,81.194 85.825,81.293 85.661,81.338 85.546,81.172 85.72,81.142 85.808,81.194 	"/>
	<polygon fill="#232734" points="87.113,81.519 86.92,81.535 86.866,81.359 86.98,81.345 87.086,81.402 87.113,81.519 	"/>
	<polygon fill="#232734" points="92.14,71.676 92.033,71.685 92.012,71.58 92.12,71.568 92.14,71.676 	"/>
	<polygon fill="#232734" points="90.941,71.094 90.98,71.167 90.857,71.214 90.836,71.112 90.941,71.094 	"/>
	<polygon fill="#232734" points="90.427,71.375 90.473,71.499 90.372,71.52 90.358,71.416 90.427,71.375 	"/>
	<polygon fill="#232734" points="86.793,69.778 86.883,69.8 86.83,69.862 86.793,69.778 	"/>
	<polygon fill="#232734" points="83.965,68.793 84.002,68.86 83.889,68.905 83.865,68.81 83.965,68.793 	"/>
	<polygon fill="#232734" points="79.926,74.385 79.939,74.487 79.843,74.505 79.818,74.403 79.926,74.385 	"/>
	<polygon fill="#232734" points="75.175,73.165 75.169,73.29 75.096,73.281 75.08,73.187 75.175,73.165 	"/>
	<polygon fill="#232734" points="78.763,67.01 78.775,67.105 78.683,67.11 78.666,67.018 78.763,67.01 	"/>
	<polygon fill="#232734" points="77.54,66.563 77.584,66.679 77.488,66.701 77.473,66.603 77.54,66.563 	"/>
	<polygon fill="#232734" points="76.773,66.384 76.83,66.42 76.72,66.524 76.71,66.429 76.773,66.384 	"/>
	<polygon fill="#232734" points="73.115,71.89 73.132,71.992 73.014,71.908 73.115,71.89 	"/>
	<polygon fill="#232734" points="75.78,65.837 75.674,65.857 75.665,65.752 75.769,65.728 75.78,65.837 	"/>
	<polygon fill="#232734" points="70.555,70.713 70.674,70.674 70.693,70.771 70.594,70.782 70.555,70.713 	"/>
	<polygon fill="#232734" points="70.396,62.719 70.375,62.802 70.317,62.752 70.396,62.719 	"/>
	<polygon fill="#232734" points="69.462,62.483 69.367,62.49 69.347,62.398 69.443,62.387 69.462,62.483 	"/>
	<polygon fill="#232734" points="67.995,61.462 68.019,61.581 67.902,61.597 67.995,61.462 	"/>
	<polygon fill="#232734" points="63.758,67.011 63.682,67.055 63.64,66.932 63.742,66.904 63.758,67.011 	"/>
	<polygon fill="#232734" points="35.126,36.379 35.956,37.069 36.564,37.654 37.088,38.149 37.592,38.667 37.853,38.912 
		38.418,39.531 38.998,39.972 39.286,40.36 39.892,40.949 40.437,41.591 40.78,41.92 41.187,42.423 42.024,42.989 42.536,43.567 
		42.81,43.801 43.684,44.619 43.871,44.965 44.762,45.584 44.963,45.88 45.79,46.581 46.605,47.292 46.658,47.6 46.698,47.587 
		45.689,46.96 45.372,46.513 44.49,45.891 44.274,45.572 43.312,44.665 43.025,44.442 42.646,44.137 41.896,43.351 41.073,42.633 
		40.113,41.708 39.547,41.076 38.968,40.456 38.193,39.689 37.532,38.98 36.45,38.005 35.785,37.303 35.143,36.585 35.163,36.369 
		35.126,36.379 	"/>
	<polygon fill="#232734" points="35.163,36.369 34.264,35.752 33.676,35.141 33.108,34.512 32.629,33.972 32.532,33.894 
		31.398,32.986 30.526,31.82 29.708,30.922 29.533,30.757 29.043,30.22 28.457,29.451 28.222,29.181 27.711,28.667 27.233,28.125 
		26.997,27.853 26.33,27 26.392,26.784 26.582,26.846 27.697,28.276 28.559,29.119 29.258,29.952 29.482,30.235 30.162,30.919 
		30.698,31.574 31.935,33.067 32.057,33.267 33.163,34.039 33.709,34.691 34.208,35.209 34.391,35.368 35.132,36.159 35.126,36.379 
		35.163,36.369 	"/>
	<polygon fill="#232734" points="50.492,49.995 48.989,48.984 48.674,48.596 47.757,47.639 47.79,47.33 47.895,47.316 
		48.564,48.144 49.533,48.902 49.674,49.12 51.187,50.125 51.487,50.563 52.326,51.142 52.475,51.635 51.578,50.945 50.492,49.995 	
		"/>
	<polygon fill="#232734" points="24.646,24.373 25.071,24.636 25.436,25.24 25.172,25.245 24.647,24.47 24.689,24.36 24.646,24.373 
			"/>
	<polygon fill="#232734" points="46.658,47.6 47.768,48.338 47.822,48.448 47.604,48.44 46.71,47.808 46.698,47.587 46.658,47.6 	
		"/>
	<polygon fill="#232734" points="48.718,49.299 48.088,48.995 48.032,48.892 48.188,48.854 48.718,49.299 	"/>
	<polygon fill="#232734" points="25.676,25.732 25.839,25.726 25.924,25.896 25.812,25.911 25.676,25.732 	"/>
	<polygon fill="#232734" points="45.141,44.92 45.459,45.229 45.186,44.908 45.141,44.92 	"/>
	<polygon fill="#232734" points="49.205,49.818 49.191,49.894 49.135,49.848 49.205,49.818 	"/>
	<polygon fill="#232734" points="22.483,32.578 22.006,32.211 21.368,31.345 20.661,30.239 19.956,29.273 19.055,27.851 
		18.564,27.172 18.389,26.517 18.75,26.742 19.941,28.626 20.32,29.241 20.825,29.91 21.201,30.526 21.612,31.12 22.225,31.848 
		22.53,32.354 22.483,32.578 	"/>
	<polygon fill="#232734" points="24.68,35.099 23.975,34.619 23.729,34.356 23.105,33.775 22.473,32.751 22.465,32.522 
		22.888,32.785 23.473,33.741 23.83,34.016 24.611,34.773 24.68,35.099 	"/>
	<polygon fill="#232734" points="33.013,41.249 33.122,41.239 33.147,41.348 33.036,41.356 33.013,41.249 	"/>
	<polygon fill="#232734" points="18.695,35.394 17.798,34.773 17.583,34.445 16.904,33.962 16.595,33.453 16.745,33.352 
		17.653,34.135 18.661,35.182 18.663,35.404 18.695,35.394 	"/>
	<polygon fill="#232734" points="18.663,35.404 19.348,35.895 19.819,36.439 19.813,36.603 19.697,36.6 19.388,36.408 
		19.208,36.249 18.67,35.61 18.695,35.394 18.663,35.404 	"/>
	<polygon fill="#232734" points="14.78,30.958 15.247,31.306 15.765,31.941 15.76,32.156 15.802,32.144 14.755,31.063 
		14.797,30.953 14.78,30.958 	"/>
	<polygon fill="#232734" points="15.76,32.156 16.035,32.368 16.063,32.47 15.846,32.444 15.802,32.144 15.76,32.156 	"/>
	<polygon fill="#232734" points="27.371,30.699 28.04,31.162 28.091,31.266 27.887,31.259 27.437,30.897 27.42,30.684 
		27.371,30.699 	"/>
	<polygon fill="#232734" points="27.42,30.684 26.951,30.377 26.915,30.085 26.881,30.095 27.34,30.402 27.371,30.699 27.42,30.684 
			"/>
	<polygon fill="#232734" points="28.499,31.72 28.564,31.876 28.452,31.875 28.311,31.703 28.395,31.678 28.499,31.72 	"/>
	<polygon fill="#232734" points="28.88,32.337 28.8,32.315 28.845,32.263 28.88,32.337 	"/>
	<polygon fill="#232734" points="18.174,39.445 19.042,40.011 19.24,40.361 21.39,41.762 21.453,41.862 21.318,41.937 
		19.367,40.713 18.76,40.137 18.228,39.654 18.222,39.433 18.174,39.445 	"/>
	<polygon fill="#232734" points="18.222,39.433 18.107,39.265 18.192,39.243 18.174,39.445 18.222,39.433 	"/>
	<polygon fill="#232734" points="26.494,33.042 27.529,34.125 27.489,34.235 27.521,34.226 26.905,33.691 26.528,33.246 
		26.535,33.031 26.494,33.042 	"/>
	<polygon fill="#232734" points="27.489,34.235 28.164,34.702 28.199,34.816 28.112,35.022 27.898,35.009 27.477,34.333 
		27.521,34.226 27.489,34.235 	"/>
	<polygon fill="#232734" points="24.189,29.83 23.738,29.526 23.683,29.237 23.637,29.246 24.004,29.478 24.145,29.841 
		24.189,29.83 	"/>
	<polygon fill="#232734" points="24.427,30.315 24.869,30.62 24.919,30.907 24.97,30.895 24.566,30.619 24.476,30.301 
		24.427,30.315 	"/>
	<polygon fill="#232734" points="23.369,28.747 23.819,29.027 23.637,29.246 23.683,29.237 23.414,29.046 23.369,28.747 	"/>
	<polygon fill="#232734" points="24.476,30.301 24.201,30.114 24.189,29.83 24.145,29.841 24.4,30.03 24.427,30.315 24.476,30.301 	
		"/>
	<polygon fill="#232734" points="26.535,33.031 26.217,32.71 26.494,33.042 26.535,33.031 	"/>
	<polygon fill="#232734" points="24.919,30.907 25.055,31.087 24.963,31.106 24.97,30.895 24.919,30.907 	"/>
</g>
</svg>
