<?xml version="1.0" encoding="utf-8"?>
<!-- Generator: Adobe Illustrator 15.0.2, SVG Export Plug-In . SVG Version: 6.00 Build 0)  -->
<!DOCTYPE svg PUBLIC "-//W3C//DTD SVG 1.1//EN" "http://www.w3.org/Graphics/SVG/1.1/DTD/svg11.dtd">
<svg version="1.1" id="Layer_1" xmlns="http://www.w3.org/2000/svg" xmlns:xlink="http://www.w3.org/1999/xlink" x="0px" y="0px"
	 width="99px" height="99px" viewBox="0 0 99 99" enable-background="new 0 0 99 99" xml:space="preserve">
<g id="chives1">
	<path fill="#232734" d="M70.635,29.322l0.184-0.333l0.812-0.715l0.18-0.312l0.613-0.597l0.525-0.668l0.436-0.584l0.553-0.486
		l1.058-1.328l0.167-0.178l0.854-0.871l0.8-0.915l0.078-0.092l1.145-1.264l0.786-0.925l2.186-1.945l0.519-0.319l1.228-0.079
		l0.095,0.011l0.596,0.512l0.664,0.232l0.752,0.6l0.795,0.611l0.615,0.722l0.779,0.768l0.332,0.355l1.693,2.198l0.142,0.549
		l0.476,0.685l0.324,0.652l0.146,0.332l0.558,1.335l-0.026,0.118l-0.24,0.255l-0.648,1.309l-1.486,1.486l-0.854,0.688l-0.858,0.451
		l-1.113,0.484L84.6,32.43l-0.898,0.365l-0.533,0.296l-1.043,0.242l-1.107,0.834l-0.523,0.309l-0.95,0.53l-4.177,3.143l-0.235,0.425
		l-1.176,0.982l-0.549,0.434l-0.489,0.36l-0.941,0.941l-0.875,0.675l-0.951,0.938l-0.447,0.41l-1.822,1.454l-0.494,0.531
		l-0.253,0.26l-0.944,0.784l-0.388,0.464l-0.87,1.011l-1.093,1.143l-0.757,0.626l-0.457,0.596l-1.027,0.842l-0.359,0.33
		l-1.547,1.506l-0.312,0.411l-0.477,0.386l-1.317,1.261l-0.45,0.413l-0.756,0.782l-0.895,0.997l-0.92,0.819l-0.288,0.451
		l-2.092,1.623l-0.59,0.614l-0.342,0.343l-1.347,1.112l-0.202,0.348l-1.569,1.277l-0.786,0.765l-0.452,0.406l-0.486,0.375
		l-0.555,0.484l-0.418,0.442l-0.457,0.372l-0.53,0.498l-4.308,3.257l-0.72,0.455L38.83,71.13l-0.506,0.484l-0.404,0.138
		l-2.591,1.865l-0.462,0.137l-0.969,0.679l-0.408,0.271l-2.466,1.58l-0.444,0.334l-0.535,0.179l-0.802,0.542l-1.072,0.576
		l-0.746,0.414l-0.766,0.366l-1.003,0.443l-0.812,0.552l-1.547,0.698l-0.732,0.448l-0.493,0.125l-1.272,0.67l-0.886,0.581
		l-0.401,0.092l-0.834,0.523l-0.65,0.325l-0.33,0.153l-1.205,0.574l-1.251,0.467l-1.337,0.582l-0.676,0.274l-0.524,0.258
		l-0.124-0.035l-0.629-0.764l-0.181-0.578l-0.372-1.147l-0.374-1.176l0.072-1.074l-0.506-0.669l-0.082-0.481l-0.414-0.656
		l0.161-0.67l0.225-0.654l-0.29-0.22l-0.297-0.662L9.54,76.077l1.145-0.758l0.351-0.459l0.552-0.213l0.169-0.156l0.096-0.888
		l-0.525-1.051l-0.599-0.576l-0.604-1.042l-0.692-1.073L9.262,69.33l-0.15-0.708l-0.188-0.757l0.091-2.147l0.366-1.374l0.397-0.301
		l0.881-0.006l1.759-0.392l2.417-0.817l1.037-0.354l2.041-0.781l1.154-0.39l1.012-0.42l1.126-0.454l1.13-0.451l1.229-0.534
		l0.786-0.315l1.02-0.396l1.002-0.444l0.675-0.271l0.666-0.299l0.328-0.15l1.093-0.538l0.319-0.178l0.881-0.409l0.804-0.279
		l0.784-0.34l0.865-0.446l0.874-0.431l0.999-0.443l0.777-0.341l0.536-0.369l0.649-0.233l1.65-0.783l0.551-0.253l0.764-0.374
		l0.534-0.291l0.759-0.386l0.428-0.227l0.634-0.366l1.22-0.657l0.643-0.237l1.686-0.703l0.612-0.408l0.435-0.222l0.456-0.167
		l0.668-0.279l0.887-0.603l0.198-0.145l1.504-1.063l1.15-0.686l0.506-0.338l2.73-2.063l0.674-0.884l0.654-0.714l0.871-0.68
		l0.456-0.573l0.771-0.358l0.562-0.641l0.98-0.73l0.598-0.347l0.615-0.393l0.566-0.427l0.234-0.371l0.422-0.169l0.13-0.194
		l0.397-0.127l1.132-0.857l0.185-0.16l1.891-1.722l0.771-0.772l0.735-0.648l0.672-0.704l0.429-0.431l0.854-0.702l0.506-0.523
		L70.635,29.322L70.635,29.322z M16.931,74.977l-0.274-0.098l-0.264,0.194l-0.207-0.08l-0.672,0.251l-0.682,0.232l-0.707,0.139
		l-1.054,0.255l-1.392,0.395l-0.663,0.538l0.436,0.071l0.561-0.316l1.057-0.243l1.376-0.441l1.337-0.376l0.613-0.464l0.275,0.099
		l0.263-0.195l0.407-0.142l-0.114,0.007L16.931,74.977L16.931,74.977z M15.48,80.395l-0.271-0.086l-0.271,0.183l-0.201-0.067
		l-0.395,0.379l0.602-0.359l0.271,0.098l0.268-0.192l0.385-0.135L15.48,80.395L15.48,80.395z M12.816,64.185l0.391,0.032
		l0.343-0.275l0.196,0.104l0.922-0.285l0.576-0.186l0.691-0.223l1.594-0.6l0.803-0.256l0.895-0.371l0.553-0.239l1.148-0.384
		l1.28-0.376l0.908-0.344l0.894-0.374l1.031-0.356l1.005-0.433l0.222-0.089l1.191-0.594l0.792-0.309l0.902-0.362l1.337-0.58
		l0.477-0.127l0.559-0.423l0.464-0.073l0.896-0.501l0.771-0.354l0.874-0.418l0.215-0.115l0.771-0.341l0.893-0.386l1.098-0.516
		l1.09-0.526l0.736-0.427l0.207,0.077l0.005-0.048l-0.983,0.729l-0.318,0.173l-0.867,0.432l-0.445,0.195l-0.438,0.205l-0.854,0.459
		l-1.002,0.44l-1.123,0.451l-1.525,0.753l-0.564,0.198l-0.965,0.664l-1.119,0.296l-1.111,0.487l-1.195,0.589l-0.219,0.103
		l-1.354,0.539l-1.314,0.631l-1.487,0.523l-1.272,0.393l-1.348,0.364l-1.49,0.674l-1.041,0.334l-1.022,0.387l-1.158,0.364
		l-1.032,0.354l-1.037,0.345l-1.303,0.289l-1.557,0.236l-0.37,0.34l0.001,0.34l1.018-0.129l0.622-0.023l0.488-0.268l0.639-0.146
		l0.21,0.086l0.004-0.046l-1.055,0.559l-0.793,0.303l-0.902,0.359l-0.519,0.316l-0.203,0.326l1.071-0.33l1.5-0.484l0.224-0.09
		l0.839-0.154l0.586-0.157l1.048-0.311L15.15,65.5l0.806-0.269l0.813-0.252l0.912-0.322l0.803-0.275l0.773-0.342l2.254-0.556
		l0.975-0.477l1.248-0.468l1.267-0.386l0.208,0.091l-0.274,0.232l0.228,0.504l0.436,0.26l0.08,0.324l0.803,0.115l0.42-0.237
		l0.46-0.143l0.897-0.343L29.68,62.3l0.894-0.359l1.005-0.407l0.914-0.319l1.641-0.763l0.211-0.114l1.074-0.549l0.418-0.083
		l0.584-0.31l0.223,0.046l-1.073,0.729l-0.407,0.089l-0.688,0.453l-0.438,0.085l-1.806,0.904l-1.037,0.34l-1.118,0.472l-0.992,0.441
		L28.41,63.21l-0.789,0.301l-0.777,0.342l-0.777,0.491l-0.545,0.273l0.941,0.222l0.312,0.628l0.097,0.067l0.374,0.019l0.922-0.557
		l1.149-0.391l0.678-0.25l0.14-0.184l0.54-0.252l0.638-0.361l0.064,0.192l-0.09,0.215l-0.846,0.467l-0.541,0.27l-1.006,0.433
		l-1.132,0.435l-1.101,0.506l-1.09,0.531l-1.129,0.458l-0.789,0.308l-1.918,0.762l-0.947,0.518l-0.186-0.102l-1.557,0.491
		l-0.27,0.221l-0.09-0.073l-1.186,0.433l-0.403,0.132l0.407-0.183l0.095,0.069l1.179-0.406l0.184,0.107l1.242-0.257l0.412-0.276
		l0.173-0.161l0.091,0.078l1.15-0.315l1.853-0.58l0.901-0.339l1.052-0.359l0.337,0.121L25.93,67.54l-0.456,0.155l-1.138,0.42
		l-1.17,0.336l-0.107,0.059l-0.908,0.345l-0.906,0.345l-1.275,0.394l-0.837,0.173l-2.614,0.585l-1.66,0.396l-1.664,0.342
		l-1.211,0.206l-0.369,0.311l-0.175-0.084l-0.013,0.084l0.192-0.031l0.172,0.143l0.723,0.055l0.306,0.159l-0.678,0.226l-0.168,0.145
		l0.246,0.286l2.081-0.465l1.066-0.24l0.96-0.167l1.05-0.291l2.238-0.55l1.748-0.506l1.919-0.721l1.576-0.629l1.06-0.535l1-0.604
		l-0.932,0.25l-1.18,0.589l-1.146,0.388l-0.237,0.053l-0.233,0.06l-0.21-0.088l0.64-0.416l0.918-0.203l0.805-0.249l0.699-0.461
		l0.482-0.105l0.317-0.171l0.437-0.076l0.739-0.483l0.214,0.083l-0.78,0.568l-0.099,0.208l0.861-0.566L28.18,67.04l0.667-0.438
		l0.313,0.049l-0.493,0.495l0.465-0.288l-0.019-0.216l1.281-0.688l0.313-0.187l0.769-0.356l0.709-0.469l0.023-0.193l-1.141,0.45
		l-0.77,0.354l-1.008,0.416l-0.627,0.379l-0.682,0.251l-0.669,0.285l-0.763,0.355l-0.162-0.172l0.033-0.117l0.18-0.149l0.666-0.294
		l0.422-0.239l0.884-0.4l0.443-0.199l1.231-0.521l1.209-0.571l1.223-0.556l0.354-0.086l0.996-0.445l0.306-0.192l0.978-0.499
		l0.535-0.291l0.517-0.321l1.054-0.605l1.044-0.751l0.506-0.192l0.594-0.371l0.587-0.443l1.867-1.391l0.475-0.388l0.21-0.285
		l-0.175-0.173l-0.121,0.013l-1.332,0.877l-0.396,0.09l-1.085,0.728l-0.439,0.129l-0.967,0.596L37.1,60.566l-1.168,0.612
		l-1.048,0.354l-0.087-0.272l0.555-0.245l0.408-0.267l1.28-0.688l0.322-0.168l0.759-0.374l0.523-0.312l1.283-0.699l0.47-0.119
		l1.214-0.835l0.422-0.234l0.854-0.469l1.971-1.462l1.823-1.45l-0.047-0.146l-1.989,1.356l-0.373,0.07l-1.29,0.901l-0.474,0.125
		l-1.179,0.839l-0.49,0.131l-1.706,1.187l-0.381,0.08l-0.824,0.529L36.815,59.5l-0.22-0.062l0.859-0.583l0.432-0.089l1.705-1.205
		l1.392-0.718l0.358-0.068l1.592-1.146l0.674-0.281l0.918-0.606l0.316-0.177L45.781,54l0.195-0.304l0.346-0.105l2.365-1.749
		l0.314-0.366l0.696-0.848l0.753-0.807l0.247-0.552l-0.199,0.021l-0.384,0.46l-0.173,0.161l-0.253,0.057l-1.78,1.499l-0.625,0.272
		L45.88,52.73l-0.774,0.347l-1.592,0.895l-1.008,0.676l-0.473,0.135l-1.504,0.826l-0.412,0.261l-0.508,0.343l-0.549,0.269
		l0.191,0.316l0.163,0.32l-0.092,0.205l-0.874,0.381l-0.336,0.038l-0.396-0.448l-0.657,0.286l-0.646,0.228l-0.971,0.604l-0.87,0.415
		l-0.214,0.117l-1.248,0.486l-1.5,0.502l-1.434,0.665l-1.125,0.455l-1.268,0.44l-1.159,0.372l-1.256,0.445l-0.217-0.067l0.845-0.488
		l1.584-0.616l1.152-0.389l1.117-0.478l1-0.438l0.452-0.172l1.378-0.487l0.556-0.248l1.591-0.618l1.046-0.691l0.907-0.246
		l0.174-0.308l0.256-0.262l0.804-0.788l0.546,0.149l0.727-0.274l0.627-0.213l1.036-0.708l0.457-0.119l1.225-0.839l0.716-0.287
		l1.271-0.717l0.417-0.253l1.101-0.759l0.369-0.089l0.803-0.565l3.811-2.896l0.433-0.474l0.294-0.086l0.816-1.487l-1.787,1.226
		l-0.399-0.062l0.529-0.491l0.435-0.117l0.417-0.323l0.573-0.795L52.23,45.8l-2.246,1.624l-0.42,0.097l-1.496,1.054l-1.244,0.494
		l-0.226,0.089l-0.61,0.386l-0.405,0.089l-0.87,0.556l-1.241,0.425l-1.204,0.731l-1.369,0.796l-0.117,0.034l-0.554,0.252
		l-1.093,0.527l-1.208,0.58l-0.783,0.329l-1.013,0.42l-1.082,0.541l-0.76,0.38l-0.84,0.486l-0.775,0.35l-0.795,0.291l-0.638,0.359
		l-0.224,0.088l-1.143,0.413l-1.201,0.585l-0.676,0.274l-0.75,0.408l-0.891,0.389l-1.006,0.443l-0.918,0.314l-0.448,0.185
		l-0.997,0.454l-1.008,0.423l-1.003,0.43l-0.55,0.249l-1.373,0.485l-1.406,0.388l-0.119,0.027l-0.664,0.31l-0.777,0.355
		l-0.681,0.258l-0.319,0.169l-0.807,0.256l-0.734,0.396l-0.289-0.056l-0.448,0.304l-0.199-0.084l-0.008,0.094L12.816,64.185
		L12.816,64.185z M10.48,69.652l0.166,0.122l0.481,0.015l0.429-0.324l0.197,0.098l1.151-0.333l1.036-0.299l1.143-0.354l0.499-0.323
		l0.167,0.225l-0.965,0.515l-1.503,0.481l-1.646,0.439l-0.931,0.283l-0.097,0.068l0.006,0.316l0.313,0.121l2.181-0.295l0.336-0.177
		l0.838-0.172l0.697-0.21l0.801-0.279l0.689-0.226l1.404-0.401l0.695-0.214l1.047-0.312l1.043-0.324l2.154-0.838l0.342-0.12
		l1.123-0.47l1.249-0.473l0.824-0.537l-0.087-0.314l-0.243-0.106l-0.497-0.059l-0.668,0.184l-0.238-0.488l-1.223,0.523l-0.452,0.166
		l-4.946,1.717l-0.945,0.525l-0.363,0.002l-0.01,0.279l-0.662,0.429l-0.312-0.04l0.289-0.347l-0.418,0.17l-0.088-0.079l-1.279,0.23
		l-1.273,0.351l-0.792,0.279l-0.589,0.411l-0.085-0.083l-0.688,0.11l-0.306,0.182l-0.195-0.094l0.001,0.093L10.48,69.652
		L10.48,69.652z M23.088,78.638l-0.17-0.225l0.908-0.617l0.382-0.063l1.067-0.543l1.084-0.539l1.08-0.459l0.166-0.234l0.318-0.147
		l1.592-1.048l0.696-0.335l0.362-0.438l0.266-0.083l-0.123-0.331l-0.141-0.472l-0.994,0.308l-1.507,0.787l-0.317,0.174l-0.876,0.414
		l-0.887,0.391l-0.813,0.547l-0.234,0.062l-0.333,0.145l-0.608,0.411l-0.672,0.28l-0.412,0.267l-0.447,0.185l-0.338,0.128
		l-1.297,0.663l-0.992,0.457l-0.992,0.453l-0.895,0.377l-0.895,0.38l-0.335,0.325l0.074,0.039l1.045-0.287l0.806-0.262l0.804-0.271
		l0.751-0.363l0.154-0.007l-0.217,0.295l-1.19,0.602l-0.56,0.232l-1.499,0.494l-1.61,0.532l-0.904,0.345l-0.668,0.284l-1.597,0.571
		l-0.015,0.303l0.095,0.061l1.027-0.338l0.333-0.145l2.098-0.625l0.338-0.122l0.788-0.313l0.817-0.227l0.135,0.063l-0.375,0.284
		l-0.455,0.164l-0.789,0.31L15.199,81.8l-1.021,0.358l-0.67,0.284l-0.679,0.26l-0.209,0.189l-0.057,0.486l0.802-0.349l0.926-0.303
		l0.789-0.294l1.592-0.6l0.74-0.425l0.222-0.089l0.777-0.336l0.785-0.312l0.495-0.111l0.766-0.584l0.03-0.188l-0.217-0.112
		l0.298-0.325l0.87-0.423l1.325-0.586l0.21,0.079l-0.662,0.449l-0.503,0.125L21.012,79.6l-0.069,0.192l0.909-0.497l0.672-0.245
		l0.569-0.458l0.193,0.089l0.442-0.429L23.088,78.638L23.088,78.638z M34.426,63.899l-0.201-0.082l-0.627,0.362l-0.671,0.257
		l-0.207,0.271l0.136,0.256l1.574-1.109l0.397-0.151L34.426,63.899L34.426,63.899z M16.967,72.177l-0.187-0.112l-1.64,0.421
		l-2.602,0.576l-0.091,0.37l0.113,0.086l1.507-0.34l0.357-0.05l0.703-0.149l0.911-0.302l0.932-0.541l0.193,0.07l0.008-0.091
		L16.967,72.177L16.967,72.177z M20.19,76.782l-0.015,0.352l-0.659,0.442l-0.495,0.106l-1.012,0.522l-0.805,0.257l-0.203,0.133
		l-0.133,0.294l0.175,0.148l0.896-0.36l0.92-0.312L19.764,78l1.392-0.717l0.767-0.363l0.771-0.348l0.302-0.084l0.846-0.587
		l0.98-0.477l0.617-0.396l0.669-0.274l1.723-0.899l1.371-0.768l0.649-0.329l0.791-0.685l0.249-0.042l-0.089-0.274l-0.479-0.093
		l-1.355,0.939l-0.529,0.129l-1.292,0.71l-0.629,0.373l-1.172,0.575l-0.393,0.084l-1.385,0.742l-1.407,0.701l-0.678,0.252
		l-0.663,0.299l-0.631,0.359l-0.216-0.068l-2.045,0.779l-1.732,0.575l-0.433,0.214l-0.049,0.106l0.146,0.126l0.361-0.036
		l1.929-0.745l0.966-0.418l0.508-0.1L20.19,76.782L20.19,76.782z M19.15,65.283l0.004-0.036l-0.937,0.536l-0.227,0.071l-0.995,0.456
		l-0.91,0.33l-0.901,0.339l-0.236,0.058l-0.817,0.223l-0.812,0.262l-0.918,0.315L9.884,68.61l0.109,0.703l0.444-0.089l0.816-0.24
		l0.934-0.276l0.805-0.267l0.953-0.189l1.14-0.419l1.166-0.342l1.243-0.466l1.146-0.401l1.157-0.363l1.495-0.502l0.775-0.344
		l0.924-0.286l0.684-0.243l0.608-0.342l0.75-0.155l0.116-0.028l0.138-0.175l-0.089-0.209l-0.844-0.098l0.089-0.917L24.25,62.75
		l-0.574,0.135l-0.438,0.206l-0.683,0.259l-0.783,0.326l-0.927,0.285l-1.051,0.307l-0.81,0.229l-0.786,0.307l-1.124,0.463
		l-1.16,0.36l-0.921,0.308l-1.984,0.574l-1.522,0.41L10.019,67.5l-0.35,0.094l-0.053,0.453l0.23,0.065l0.239-0.03l1.253-0.447
		l1.401-0.383l2.694-0.739l0.219-0.107l2.094-0.705l0.596-0.366l0.718-0.128L19.15,65.283L19.15,65.283z M15.615,76.887l0.002-0.018
		l-0.401,0.265l-1.148,0.398l-1.145,0.396l-1.05,0.316l-0.979,0.489l-0.042,0.347l0.248,0.006l2.397-0.457l0.344-0.113l0.817-0.244
		l0.678-0.251l1.928-0.754l0.83-0.198l0.898-0.364l1.018-0.395l0.679-0.259l0.649-0.159l0.598-0.301l0.766-0.357l0.208-0.127
		l1.085-0.542l0.668-0.288l0.799-0.282l0.714-0.475l0.218-0.109l1.332-0.693l0.434-0.097l0.724-0.547l0.2-0.39l0.359-0.467
		l0.034-0.718l-1.009,0.429l-0.314,0.181l-1.088,0.54l-0.997,0.443l-1.124,0.463L23.9,72.886l-1.612,0.53l-0.997,0.448l-1.232,0.523
		l-1.258,0.444l-3.566,1.214L13.85,76.51l-2.311,0.723l-0.143,0.202l-0.2,0.477l0.611-0.08l0.938-0.266l0.802-0.279l0.944-0.231
		l0.811-0.235l0.226-0.014L15.615,76.887L15.615,76.887z M23.413,72.502l0.192,0.101l0.551-0.244l1.471-0.554l0.474-0.128
		l0.714-0.458l0.896-0.368l0.775-0.336l0.886-0.397l0.828-0.53l0.385-0.094l0.688-0.453l0.881-0.413l0.912-0.612l0.415-0.249
		l0.96-0.521l0.891-0.622l0.45-0.115l0.329-0.248l4.416-3.295l1.834-1.435l0.354-0.328l0.77-0.774l1.01-0.822l0.222-0.379
		l1.989-1.588l0.443-0.568h0.198l-0.296,0.615l-0.899,0.734l-0.349,0.335l-0.768,0.777l-0.757,0.621l-0.12,0.206l0.032,0.719
		l-0.331,0.355l-0.025,0.584l-0.439,0.101l-0.103-0.46l0.101-0.232l0.055-0.228l-0.118-0.004l-1.214,0.904l-0.414,0.528
		l-0.566,0.271l-0.514,0.396l-0.215,0.322l-2.627,1.987l-0.406,0.263l-1.049,0.61l-1.57,1.115l-0.418,0.104l-1.29,0.877l-1.61,0.864
		l-1.6,0.823l0.069,0.217l0.681,0.238l0.523-0.306l0.58,0.138l1.107-0.755l0.403-0.105l2.251-1.616l0.477-0.132l0.287-0.373
		l0.855-0.437l2.125-1.655l0.324-0.394l0.432-0.134l0.131,0.154l-4.415,3.334l-0.408,0.105l-2.559,1.85l-0.785,0.523l-0.345,0.111
		l-0.205,0.132l-0.001,0.403l0.733-0.108l4.029-2.952l0.354-0.103l0.135-0.2l1.029-0.638l1.164-0.879l0.132-0.215l0.315-0.145
		l0.505-0.378l0.184-0.29l0.95-0.7l0.159-0.166l0.31-0.114l0.239-0.32l0.767-0.612l1.541-1.208l0.08-0.246l-0.209-0.275l0.268-0.228
		l0.116-0.354l0.509-0.331l0.693,0.084l0.229,0.039l0.574-0.625l0.934-0.759l1.222-1.166l0.358-0.327l1.047-0.85l0.177-0.319
		l1.81-1.43l-0.049-0.008l0.003,0.223l-1.223,1.084l-1.39,1.372l-0.28,0.439l-1.946,1.529l-0.175,0.31l-0.839,0.753l0.008,0.179
		l0.357-0.003l0.121,0.679l-0.438,0.144l-0.506,1.034l-0.339-0.343l-0.051-0.725l-0.191-0.102l-0.231,0.638l-0.201,0.216
		l-0.553,0.08L43.557,63.2l-0.76,0.771l-6.928,5.276L34.137,70.5l-0.461,0.143l-1.807,1.367l-0.075,0.83l-0.435,0.188l0.006,0.446
		l0.227-0.071l3.412-2.604l0.504-0.512l0.23-0.053l5.771-4.35l0.645-0.726l0.182,0.037l-0.301,0.354l-0.207,0.398l-1.562,1.263
		l-0.248,0.412l-2.524,1.91l-0.555,0.169l-2.977,2.271l-0.457,0.549l-0.579,0.438l-0.465,0.135l-1.192,0.906l-0.045,0.111
		l0.158,0.062l0.676-0.265l0.727-0.449l0.117-0.032l0.191,0.107v-0.042L31.705,74.5l-0.977,0.487l-1.165,0.66l-0.409,0.262
		l-1.1,0.747l-0.803,0.342l-0.78,0.337l-1.101,0.736l-0.316,0.07l-1.113,0.649l-1.088,0.535l-0.871,0.43L21.1,80.154l-1.618,0.853
		l-0.225,0.09l-1.246,0.476l-1.818,0.977l-0.841,0.216l-0.786,0.325l-1.808,0.61l-0.193,0.837l0.049,0.109l0.193,0.12l0.909-0.312
		l0.788-0.319l1.232-0.522l1.117-0.478l0.763-0.375l0.681-0.474l0.598-0.222l1.131-0.73l1.012-0.417l0.965-0.518l0.115-0.038
		l0.664-0.298l0.742-0.387l0.408-0.229l0.317-0.184l0.419-0.248l1.121-0.471l0.266-0.083l1.309-0.848l1.18-0.627l0.428-0.228
		l0.758-0.394l1.385-0.995l0.59-0.207l0.98-0.69l0.4-0.097l2.388-1.702l0.509-0.336l1.355-0.815l3.469-2.554l0.429-0.143
		l0.372-0.462l0.432-0.124l1.452-1.235l0.702-0.648l0.881-0.666l0.949-0.788l0.261-0.404l1.644-1.293l0.727-0.652l0.781-0.769
		l1.051-0.849l0.365-0.322l1.147-1.088l1.759-1.39l0.429-0.548l1.448-1.483l0.275-0.425l0.81-0.692l0.216-0.432l1.751-1.396
		l0.546-0.808l-0.143,0.026l-1.062,0.749l-0.249,0.47l-1.805,1.423l-0.15,0.249l-0.066,0.102l-1.002,0.615l0.082-0.349l0.521-0.512
		l0.869-0.681l0.748-0.797l0.185-0.162l1.729-1.376l0.308-0.132l0.438,0.153l0.509-0.398l0.842-0.879l0.548-0.487l1.047-1.021
		l0.545-0.491l0.835-0.886l0.147-0.192l1.006-1.216l0.848-0.71l0.525-0.507l0.597-0.608l1.429-1.161l0.367-0.317l0.872-0.851
		l1.146-0.925l0.362-0.326l0.966-0.929l1.162-0.906l0.449-0.41l0.954-0.938l1.21-0.986l0.325-0.468l0.173-0.105l1.134-0.848
		l0.262-0.246l0.485-0.12l2.611-1.897l1.117-0.544l0.467-0.112l0.57-0.36l1.229-0.524l0.902-0.361l0.971-0.514l0.462-0.134
		l1.181-0.893l1.198-1.967l0.101-1.553l-0.304-0.161l0.324-0.652l-0.101-0.47l-0.445-0.752l-0.152-0.575l-1.766-2.261l-0.389-0.206
		l-0.244-0.271l-0.527-0.678l-0.748-0.624l-0.297-0.313l-0.604-0.288l-0.68,0.014l0.08-0.41l-0.618-0.042l-0.47-0.034l-0.122-0.305
		l-1.021,0.373l-1.279,1.016l-0.468,0.619l-0.367,0.316l-0.662,1.023l-0.824,0.728l-0.799,1.075l-1,0.929l-0.691,0.978l-0.617,0.593
		l-0.521,0.671l-0.176,0.17l-0.834,1.041l-0.949,0.947l-0.064,0.104l-0.485,0.543l-0.446,0.416l-1.031,1.034l-0.672,0.533
		l-0.639,0.73l-0.545,0.494l-0.762,0.779l-2.399,1.917l-0.638,0.72l-4.078,3.085l-0.346,0.101l-0.616,0.631l-1.456,1.122
		l-1.229,1.172l-0.746,0.685l-0.229,0.394l-0.56,0.639l-0.503,0.828l-0.404,0.755l-0.523,0.822l-0.459,0.859l-0.615,0.9
		l-0.597,0.767l-0.696,0.991l-0.136,0.204l-0.603,0.816l-1.344,1.341l-0.146,0.192l-0.611,0.757l-0.639,0.732l-0.293,0.389
		l-0.67,0.864l-0.719,0.665l-0.726,0.817l-0.423,0.358l-0.202,0.373l-2.233,1.788l-0.201,0.314l-1.674,1.367l-0.58,0.453
		l-3.914,2.856l-0.521,0.246l-0.021,0.78l-0.445-0.156l-0.966,0.402l-0.346,0.261l-1.576,0.912l-0.73,0.621l0.043,0.367
		l-0.176,0.133l-0.423-0.154l-0.63,0.151l-0.785,0.508l-0.229,0.488l-0.664-0.041l-0.889,0.48l-0.161,0.484l-0.582,0.021
		l-1.486,0.524l-0.168,0.354l-0.82,0.046l-0.535,0.347l0.005,0.487l-0.473-0.286l-0.7,0.107L21.9,71.572l-0.789,0.296l-0.896,0.387
		l-0.562,0.439l0.229,0.229l-0.365,0.113l-0.245-0.256l-0.252,0.028l-0.892,0.399l-0.389,0.446l-0.176,0.183l-0.543-0.12
		l-1.845,0.688l-0.935,0.27l-1.258,0.448l-1.057,0.565l-0.197-0.09l-0.223,0.239l0.424-0.196l0.211,0.07l0.916-0.309l1.079-0.158
		l0.7-0.184l0.799-0.277l0.947-0.208l1.395-0.416l1.6-0.561l1.742-0.469l1.039-0.708l0.67-0.239l1.523-0.748l1.005-0.421
		l0.981-0.479l1.086-0.542l0.496-0.149l0.592-0.377l0.545-0.258l0.666-0.226l-0.081,0.213l-1.464,0.85l-0.418,0.248l-0.67,0.282
		l-0.732,0.438l-0.115,0.034l-0.66,0.299l-1.2,0.582l-0.22,0.093l-0.951,0.513l-0.191-0.085l-0.428,0.406L23.413,72.502
		L23.413,72.502z M11.648,80.916l0.801-0.195l1.393-0.387l1.244-0.447L16,79.333l0.043-0.141l-0.945,0.041l-0.809,0.223
		l-0.906,0.323l-0.778,0.31l-0.902,0.338l-0.164,0.171L11.648,80.916L11.648,80.916z M15.29,78.414l-1.146,0.491l-0.096,0.2
		l0.08,0.048l0.583-0.108L15.29,78.414L15.29,78.414z M12.424,81.292l-0.491,0.368L12.424,81.292L12.424,81.292z M10.619,76.15
		l-0.031,0.1l0.133,0.172l0.214-0.059l0.062-0.1l-0.142-0.126L10.619,76.15L10.619,76.15z M21.889,71.076l-0.383,0.141l-0.047,0.178
		l0.115-0.004L21.889,71.076L21.889,71.076z M22.663,70.699l-0.071,0.076l-0.013,0.081l0.104-0.007l0.125-0.158L22.663,70.699
		L22.663,70.699z M38.281,57.068l0.076,0.033l0.099-0.018l0.119-0.174l-0.17-0.006L38.281,57.068L38.281,57.068z M12.847,81.277
		l0.228-0.06l0.059-0.094l-0.151-0.033L12.847,81.277L12.847,81.277z M13.702,80.851l-0.066,0.159L13.751,81l0.104-0.06l0.033-0.11
		L13.702,80.851L13.702,80.851z M10.158,64.525l-0.119-0.016l-0.091,0.076l-0.026,0.111l0.184,0.017L10.158,64.525L10.158,64.525z
		 M16.494,69.799L16.4,69.856l-0.023,0.104l0.18-0.023l0.043-0.143L16.494,69.799L16.494,69.799z M52.689,45.579l0.101-0.023
		l-0.036-0.058L52.689,45.579L52.689,45.579z M43.076,57.478l-0.092-0.013l-0.029,0.088l0.09,0.004L43.076,57.478L43.076,57.478z
		 M23.301,70.534l0.052,0.084l0.038-0.081L23.301,70.534L23.301,70.534z M17.943,71.89l-0.092,0.019l0.035,0.058L17.943,71.89
		L17.943,71.89z M19.534,74.132l0.004-0.087l-0.085,0.05L19.534,74.132L19.534,74.132z M10.865,77.31l-0.003-0.09l-0.074,0.043
		L10.865,77.31L10.865,77.31z M12.043,79.418l0.091,0.005l0.038-0.085l-0.093-0.005L12.043,79.418L12.043,79.418z M11.639,79.439
		l-0.101,0.017l0.043,0.068L11.639,79.439L11.639,79.439z"/>
	<path fill="#232734" d="M85.777,24.679l0.195,0.325l-0.132,0.478l0.1,0.455l0.451-0.166l0.004-0.562L87.271,25l0.084,0.221
		l-0.182,0.305l0.082,1.014l0.143,0.138l0.682,0.193l0.053,0.236l-0.271,0.19l-0.484-0.031l-0.359-0.008l-0.068,0.579l0.004-0.023
		l-0.227,0.016l-0.322-0.15l-0.171,0.34l-0.319,0.075l-0.463-0.61l-0.095-0.439l-0.212,0.027l-0.318-0.051l0.001-0.324l0.484-0.526
		l-0.219,0.005l-0.517-0.449l0.225-0.097l0.04-0.102l-0.067-0.469l-0.578-0.188l0.139-0.634l0.217-0.106l0.12,0.007l0.198,0.124
		l0.025,0.114l0.141,0.434l0.475,0.049l0.324-0.167L85.777,24.679L85.777,24.679z M86.602,26.686l-0.91-0.31l-0.09,0.437
		l0.559,0.599l0.01-0.427L86.602,26.686L86.602,26.686z"/>
	<polygon fill="#232734" points="47.604,62.472 47.828,62.105 50.402,60.056 50.592,59.69 51.998,58.568 52.264,58.087 
		53.322,57.345 53.471,57.334 52.763,58.258 51.348,59.445 51.135,59.813 49.541,61.112 49.086,61.682 46.576,63.688 46.318,64.06 
		41.802,67.405 41.805,67.301 42.119,66.746 43.019,66.074 47.604,62.472 	"/>
	<polygon fill="#232734" points="58.879,47.722 58.881,48.146 58.781,48.692 59.275,48.687 59.446,48.875 59.457,49.22 
		58.807,50.247 58.376,50.167 58.566,49.476 58.209,48.849 57.966,48.327 57.654,48.892 57.965,49.042 58.111,49.332 57.444,49.365 
		57.404,49.123 57.06,48.923 56.961,48.478 56.788,48.334 56.336,48.364 56.308,47.919 56.532,47.749 57.506,47.85 57.805,47.725 
		58.109,47.636 57.92,47.096 58.258,46.975 58.393,47.164 58.408,47.406 58.448,47.511 58.65,47.634 58.879,47.722 	"/>
	<polygon fill="#232734" points="33.094,73.536 33.307,73.1 33.6,72.884 34.049,72.749 35.533,71.724 35.982,71.618 36.737,71.047 
		37.536,70.477 38.312,69.876 39.098,69.292 39.898,68.851 39.243,69.722 38.572,70.038 35.333,72.38 34.906,72.496 33.311,73.554 
		33.094,73.494 33.094,73.536 	"/>
	<polygon fill="#232734" points="71.516,36.712 71.235,36.971 71.164,37.178 70.726,37.533 70.393,37.524 69.855,37.011 
		69.384,36.683 69.806,36.294 69.977,36.69 70.658,36.863 70.856,36.825 70.102,36.085 70.279,35.491 70.5,35.487 70.908,35.92 
		71.258,36.25 71.385,36.315 71.508,36.75 71.516,36.712 	"/>
	<polygon fill="#232734" points="83.576,21.771 84.046,21.701 84.304,21.923 84.451,22.747 85.012,23.413 84.334,23.529 
		84.262,23.198 83.686,23.191 83.188,23.261 83.045,23.025 83.193,22.737 83.545,22.678 83.914,22.272 83.682,22.161 83.586,21.723 
		83.576,21.771 	"/>
	<polygon fill="#232734" points="83.586,21.723 83.016,22.155 82.77,22.615 82.531,22.837 82.328,22.96 82.105,22.946 
		82.037,22.637 82.798,21.462 83.496,21.322 83.576,21.771 83.586,21.723 	"/>
	<polygon fill="#232734" points="71.73,37.815 71.523,37.54 71.516,36.712 71.508,36.75 71.803,36.553 72.168,36.517 72.633,36 
		72.994,36.3 72.781,36.963 71.966,37.099 71.953,37.607 71.681,37.813 71.73,37.815 	"/>
	<polygon fill="#232734" points="57.084,46.883 57.332,46.959 57.501,47.24 57.23,47.405 56.526,47.311 56.379,47.142 
		56.489,46.724 56.162,46.538 56.08,46.331 56.209,46.16 56.908,46.051 57.131,46.289 57.084,46.883 	"/>
	<polygon fill="#232734" points="71.071,35.7 70.898,35.163 70.763,34.845 70.928,34.513 71.287,34.553 71.33,35.181 72.236,35.409 
		72.265,35.637 72.205,35.867 72,35.978 71.441,35.788 71.071,35.7 	"/>
	<polygon fill="#232734" points="83.791,24.598 82.787,24.261 82.705,24.15 82.588,23.581 82.766,23.375 82.983,23.41 
		83.149,23.586 83.857,24.25 83.791,24.598 	"/>
	<polygon fill="#232734" points="85.834,24.69 85.594,24.437 85.351,24.368 85.026,23.814 85.215,23.692 85.732,24.161 
		85.842,24.199 86.628,24.301 86.58,24.645 86.123,24.629 85.777,24.679 85.834,24.69 	"/>
	<polygon fill="#232734" points="36.42,64.98 36.348,65.184 35.787,65.641 34.35,66.732 34.003,66.842 34.083,66.618 36.193,65.02 
		36.42,64.98 	"/>
	<polygon fill="#232734" points="82.604,19.807 82.813,19.913 83.25,20.614 83.232,20.728 82.691,20.807 82.522,20.266 
		82.604,19.807 	"/>
	<polygon fill="#232734" points="84.023,25.888 83.526,25.656 83.566,25.171 84.075,25.235 84.023,25.888 	"/>
	<polygon fill="#232734" points="70.207,34.875 69.912,35.046 69.58,34.909 69.529,34.58 69.611,34.49 69.824,34.38 70.207,34.875 	
		"/>
	<polygon fill="#232734" points="72.514,38.06 72.518,37.92 72.852,37.757 73.296,38.241 73.115,38.535 72.906,38.477 72.514,38.06 
			"/>
	<polygon fill="#232734" points="70.986,33.729 70.703,33.574 70.723,33.352 70.785,33.252 70.969,32.936 71.326,32.965 
		70.986,33.729 	"/>
	<polygon fill="#232734" points="86.949,27.836 87.146,27.738 87.822,27.87 87.801,28.372 87.16,28.091 86.953,27.813 
		86.949,27.836 	"/>
	<polygon fill="#232734" points="69.451,35.625 69.443,35.746 69.188,35.914 69.008,35.777 68.975,35.665 68.898,35.19 
		69.451,35.625 	"/>
	<polygon fill="#232734" points="78.934,22.3 78.955,22.376 78.246,22.627 78.203,22.551 78.256,22.455 78.355,22.39 78.934,22.3 	
		"/>
	<polygon fill="#232734" points="85.438,22.708 84.986,22.677 85.093,22.244 85.416,22.277 85.438,22.708 	"/>
	<polygon fill="#232734" points="81.383,20.997 81.486,20.935 81.773,21.075 81.57,21.317 81.378,21.209 81.383,20.997 	"/>
	<polygon fill="#232734" points="81.484,20.167 81.265,20.196 81.24,19.896 81.463,19.861 81.484,20.167 	"/>
	<polygon fill="#232734" points="54.16,53.197 54.262,52.931 54.514,53.081 54.432,53.27 54.16,53.197 	"/>
	<polygon fill="#232734" points="66.345,42.081 66.389,41.881 66.7,41.901 66.736,42.117 66.428,42.167 66.345,42.081 	"/>
	<polygon fill="#232734" points="59.87,40.742 60.099,40.916 59.988,41.096 59.883,41.121 59.789,40.955 59.813,40.841 
		59.87,40.742 	"/>
	<polygon fill="#232734" points="63.271,45.966 62.856,45.885 63.098,45.698 63.271,45.966 	"/>
	<polygon fill="#232734" points="66.954,38.081 67.172,38.04 67.303,38.219 67.037,38.32 66.898,38.176 66.954,38.081 	"/>
	<polygon fill="#232734" points="71.681,37.813 71.77,37.89 72.067,38.032 71.953,38.24 71.682,38.138 71.73,37.815 71.681,37.813 	
		"/>
	<polygon fill="#232734" points="58.897,50.737 58.826,51.151 58.719,51.126 58.787,50.729 58.897,50.737 	"/>
	<polygon fill="#232734" points="78.473,34.385 78.459,34.148 78.602,34.027 78.687,34.103 78.473,34.385 	"/>
	<polygon fill="#232734" points="33.5,66.132 33.771,66.45 33.451,66.449 33.412,66.201 33.5,66.132 	"/>
	<polygon fill="#232734" points="84.347,31.084 84.686,31.144 84.707,31.329 84.498,31.392 84.347,31.084 	"/>
	<polygon fill="#232734" points="51.715,55.746 51.686,55.541 52.137,55.25 51.666,55.738 51.715,55.746 	"/>
	<polygon fill="#232734" points="79.386,21.293 79.722,21.564 79.691,21.74 79.58,21.705 79.386,21.293 	"/>
	<polygon fill="#232734" points="73.414,37.383 73.039,37.366 72.971,37.191 73.254,37.074 73.414,37.383 	"/>
	<polygon fill="#232734" points="84.305,29.365 84.115,29.601 84.002,29.582 83.916,29.373 84.084,29.291 84.305,29.365 	"/>
	<polygon fill="#232734" points="82.551,19.306 82.191,19.491 82.129,19.28 82.218,19.236 82.551,19.306 	"/>
	<polygon fill="#232734" points="21.469,72.297 21.611,72.029 21.775,72.1 21.76,72.206 21.469,72.297 	"/>
	<polygon fill="#232734" points="48.604,56.039 48.709,55.865 48.885,55.893 48.784,56.075 48.604,56.039 	"/>
	<polygon fill="#232734" points="52.831,52.594 52.656,52.471 52.699,52.314 52.863,52.419 52.831,52.594 	"/>
	<polygon fill="#232734" points="54.222,48.934 54.234,49.04 54.073,49.04 54.038,48.83 54.146,48.853 54.222,48.934 	"/>
	<polygon fill="#232734" points="58.338,42.095 58.508,42.146 58.395,42.333 58.229,42.268 58.338,42.095 	"/>
	<polygon fill="#232734" points="62.23,41.723 62.406,41.844 62.367,42.007 62.191,41.894 62.184,41.79 62.23,41.723 	"/>
	<polygon fill="#232734" points="61.283,39.753 61.248,39.671 61.409,39.532 61.5,39.565 61.393,39.761 61.283,39.753 	"/>
	<polygon fill="#232734" points="67.766,43.078 67.789,42.972 68.038,42.932 68.016,43.035 67.842,43.12 67.766,43.078 	"/>
	<polygon fill="#232734" points="69.225,41.933 69.219,42.042 69.049,42.007 69.044,41.817 69.154,41.841 69.225,41.933 	"/>
	<polygon fill="#232734" points="66.193,35.686 66.248,35.644 66.393,35.786 66.276,35.866 66.193,35.686 	"/>
	<polygon fill="#232734" points="70.587,41.009 70.504,41.032 70.411,40.782 70.521,40.807 70.587,41.009 	"/>
	<polygon fill="#232734" points="67.207,34.899 67.131,35.081 66.973,35.052 67.001,34.952 67.095,34.892 67.207,34.899 	"/>
	<polygon fill="#232734" points="71.361,40.084 71.455,39.901 71.647,39.886 71.561,40.067 71.361,40.084 	"/>
	<polygon fill="#232734" points="67.83,34.115 68.008,34.196 67.987,34.345 67.889,34.315 67.826,34.225 67.83,34.115 	"/>
	<polygon fill="#232734" points="68.766,33.581 68.783,33.691 68.617,33.68 68.582,33.471 68.693,33.497 68.766,33.581 	"/>
	<polygon fill="#232734" points="73.532,38.173 73.559,38.072 73.733,38.076 73.774,38.264 73.606,38.249 73.532,38.173 	"/>
	<polygon fill="#232734" points="75.789,36.272 75.803,36.087 75.914,36.114 75.972,36.324 75.789,36.272 	"/>
	<polygon fill="#232734" points="74.312,31.865 74.473,31.915 74.44,32.016 74.259,32.088 74.205,32.026 74.312,31.865 	"/>
	<polygon fill="#232734" points="72.902,29.032 72.975,29.007 73.1,29.165 73.076,29.248 72.902,29.135 72.902,29.032 	"/>
	<polygon fill="#232734" points="77.77,34.807 77.881,34.794 77.878,34.965 77.668,34.993 77.686,34.879 77.77,34.807 	"/>
	<polygon fill="#232734" points="76.785,32.116 76.555,31.812 76.785,32.116 	"/>
	<polygon fill="#232734" points="73.926,28.096 73.949,27.92 74.061,27.949 74.113,28.163 73.926,28.096 	"/>
	<polygon fill="#232734" points="79.371,33.599 79.477,33.604 79.439,33.767 79.258,33.775 79.278,33.666 79.371,33.599 	"/>
	<polygon fill="#232734" points="75.111,27.09 75.014,27.054 74.937,26.87 75.088,26.842 75.157,27.032 75.111,27.09 	"/>
	<polygon fill="#232734" points="80.155,32.993 80.264,33 80.238,33.173 80.044,33.18 80.062,33.066 80.155,32.993 	"/>
	<polygon fill="#232734" points="81.029,32.397 81.238,32.691 81.029,32.397 	"/>
	<polygon fill="#232734" points="76.553,24.663 76.716,24.68 76.69,24.783 76.607,24.858 76.5,24.835 76.553,24.663 	"/>
	<polygon fill="#232734" points="82.483,31.859 82.683,31.776 82.728,31.838 82.582,31.998 82.472,31.971 82.483,31.859 	"/>
	<polygon fill="#232734" points="80.547,29.376 80.658,29.195 80.829,29.252 80.722,29.435 80.547,29.376 	"/>
	<polygon fill="#232734" points="81.646,30.56 81.674,30.387 81.783,30.418 81.838,30.636 81.734,30.635 81.646,30.56 	"/>
	<polygon fill="#232734" points="79.305,26.238 79.473,26.294 79.441,26.401 79.249,26.476 79.192,26.412 79.305,26.238 	"/>
	<polygon fill="#232734" points="83.586,31.389 83.748,31.382 83.812,31.581 83.648,31.576 83.586,31.389 	"/>
	<polygon fill="#232734" points="85.707,30.855 85.516,30.758 85.502,30.567 85.691,30.646 85.707,30.855 	"/>
	<polygon fill="#232734" points="86.311,30.161 86.324,29.989 86.505,30.102 86.486,30.213 86.311,30.161 	"/>
	<polygon fill="#232734" points="87.204,29.665 87.035,29.549 87.078,29.391 87.248,29.5 87.254,29.602 87.204,29.665 	"/>
	<polygon fill="#232734" points="87.988,28.61 88.088,28.628 88.07,28.798 87.873,28.846 87.908,28.673 87.988,28.61 	"/>
	<polygon fill="#232734" points="88.76,27.507 88.705,27.694 88.521,27.68 88.549,27.569 88.641,27.491 88.76,27.507 	"/>
	<polygon fill="#232734" points="81.375,19.285 81.346,19.386 81.239,19.369 81.268,19.264 81.375,19.285 	"/>
	<polygon fill="#232734" points="80.402,20.194 80.484,20.184 80.484,20.316 80.381,20.299 80.402,20.194 	"/>
	<polygon fill="#232734" points="80.479,20.775 80.611,20.777 80.596,20.878 80.493,20.853 80.479,20.775 	"/>
	<polygon fill="#232734" points="77.686,23.594 77.738,23.519 77.777,23.59 77.686,23.594 	"/>
	<polygon fill="#232734" points="75.752,25.881 75.828,25.87 75.828,25.993 75.731,25.98 75.752,25.881 	"/>
	<polygon fill="#232734" points="79.522,31.658 79.623,31.681 79.604,31.778 79.5,31.764 79.522,31.658 	"/>
	<polygon fill="#232734" points="76.678,35.654 76.793,35.705 76.759,35.769 76.666,35.75 76.678,35.654 	"/>
	<polygon fill="#232734" points="72.221,30.097 72.314,30.12 72.285,30.208 72.193,30.191 72.221,30.097 	"/>
	<polygon fill="#232734" points="71.365,31.078 71.489,31.079 71.475,31.176 71.378,31.155 71.365,31.078 	"/>
	<polygon fill="#232734" points="70.923,31.729 70.978,31.69 71.034,31.83 70.942,31.804 70.923,31.729 	"/>
	<polygon fill="#232734" points="74.75,37.119 74.851,37.14 74.73,37.22 74.75,37.119 	"/>
	<polygon fill="#232734" points="70.057,32.46 70.037,32.567 69.936,32.538 69.949,32.432 70.057,32.46 	"/>
	<polygon fill="#232734" points="72.733,39.087 72.738,38.962 72.836,38.978 72.811,39.075 72.733,39.087 	"/>
	<polygon fill="#232734" points="65.214,36.367 65.283,36.417 65.217,36.453 65.214,36.367 	"/>
	<polygon fill="#232734" points="64.658,37.155 64.631,37.245 64.537,37.231 64.562,37.138 64.658,37.155 	"/>
	<polygon fill="#232734" points="63.18,38.158 63.299,38.178 63.272,38.292 63.18,38.158 	"/>
	<polygon fill="#232734" points="66.839,44.104 66.854,44.191 66.723,44.186 66.732,44.08 66.839,44.104 	"/>
	<polygon fill="#232734" points="27.975,59.84 28.916,59.313 29.681,58.955 30.33,58.644 30.996,58.36 31.316,58.205 32.098,57.898 
		32.718,57.515 33.184,57.385 33.949,57.032 34.745,56.753 35.176,56.55 35.791,56.352 36.619,55.773 37.342,55.502 37.658,55.331 
		38.735,54.809 39.127,54.758 40.024,54.148 40.372,54.067 41.322,53.546 42.278,53.041 42.586,53.101 42.588,53.059 41.641,53.776 
		41.109,53.912 40.213,54.512 39.838,54.598 38.645,55.172 38.334,55.36 37.914,55.603 36.91,56.022 35.945,56.533 34.738,57.097 
		33.944,57.399 33.158,57.717 32.164,58.165 31.266,58.528 29.968,59.188 29.074,59.557 28.173,59.899 27.978,59.802 27.975,59.84 	
		"/>
	<polygon fill="#232734" points="27.978,59.802 27.08,60.42 26.299,60.75 25.508,61.054 24.832,61.308 24.725,61.37 23.471,62.103 
		22.069,62.499 20.938,62.94 20.721,63.043 20.043,63.309 19.114,63.581 18.779,63.704 18.115,63.996 17.438,64.247 17.1,64.37 
		16.064,64.686 15.884,64.551 16.012,64.396 17.746,63.868 18.842,63.367 19.869,63.012 20.215,62.905 21.098,62.515 21.9,62.25 
		23.738,61.631 23.969,61.589 25.086,60.833 25.891,60.557 26.554,60.278 26.768,60.165 27.771,59.756 27.975,59.84 27.978,59.802 	
		"/>
	<polygon fill="#232734" points="46.195,50.381 44.713,51.421 44.238,51.577 43.017,52.089 42.739,51.948 42.764,51.845 
		43.777,51.517 44.832,50.885 45.086,50.832 46.566,49.781 47.084,49.657 47.925,49.082 48.438,49.12 47.473,49.708 46.195,50.381 	
		"/>
	<polygon fill="#232734" points="13.007,65.316 13.406,65.014 14.1,64.89 14.01,65.138 13.099,65.35 13.011,65.27 13.007,65.316 	
		"/>
	<polygon fill="#232734" points="42.586,53.101 43.674,52.331 43.794,52.319 43.709,52.521 42.799,53.127 42.588,53.059 
		42.586,53.101 	"/>
	<polygon fill="#232734" points="44.91,51.789 44.4,52.267 44.285,52.283 44.305,52.124 44.91,51.789 	"/>
	<polygon fill="#232734" points="14.646,64.842 14.699,64.687 14.888,64.669 14.861,64.778 14.646,64.842 	"/>
	<polygon fill="#232734" points="39.539,53.557 39.941,53.371 39.544,53.509 39.539,53.557 	"/>
	<polygon fill="#232734" points="45.569,51.519 45.635,51.56 45.572,51.596 45.569,51.519 	"/>
	<polygon fill="#232734" points="19.891,70.278 19.377,70.591 18.34,70.877 17.054,71.14 15.899,71.452 14.249,71.783 
		13.439,71.998 12.765,71.926 13.104,71.669 15.291,71.233 16,71.1 16.805,70.869 17.516,70.739 18.217,70.568 19.117,70.258 
		19.698,70.154 19.891,70.278 	"/>
	<polygon fill="#232734" points="23.032,69.132 22.33,69.619 21.998,69.752 21.231,70.127 20.049,70.351 19.832,70.275 
		20.229,69.974 21.332,69.771 21.717,69.537 22.703,69.08 23.032,69.132 	"/>
	<polygon fill="#232734" points="31.762,63.561 31.792,63.455 31.902,63.47 31.87,63.576 31.762,63.561 	"/>
	<polygon fill="#232734" points="21.161,74.824 20.259,75.439 19.876,75.522 19.182,75.983 18.595,76.088 18.555,75.912 
		19.612,75.345 20.951,74.78 21.158,74.858 21.161,74.824 	"/>
	<polygon fill="#232734" points="21.158,74.858 21.861,74.395 22.539,74.15 22.689,74.214 22.646,74.322 22.355,74.542 
		22.143,74.652 21.353,74.925 21.161,74.824 21.158,74.858 	"/>
	<polygon fill="#232734" points="15.615,76.887 16.107,76.577 16.886,76.321 17.085,76.403 17.089,76.36 15.704,76.949 
		15.617,76.87 15.615,76.887 	"/>
	<polygon fill="#232734" points="17.085,76.403 17.382,76.222 17.487,76.232 17.385,76.425 17.089,76.36 17.085,76.403 	"/>
	<polygon fill="#232734" points="19.89,65.042 20.562,64.583 20.678,64.574 20.599,64.761 20.099,65.051 19.895,64.991 
		19.89,65.042 	"/>
	<polygon fill="#232734" points="19.895,64.991 19.439,65.318 19.154,65.247 19.15,65.283 19.602,64.963 19.89,65.042 
		19.895,64.991 	"/>
	<polygon fill="#232734" points="21.248,64.355 21.418,64.35 21.377,64.455 21.164,64.524 21.172,64.438 21.248,64.355 	"/>
	<polygon fill="#232734" points="21.961,64.221 21.912,64.288 21.879,64.227 21.961,64.221 	"/>
	<polygon fill="#232734" points="24.755,76.764 25.595,76.157 25.992,76.097 28.072,74.593 28.188,74.57 28.209,74.723 
		26.367,76.105 25.611,76.466 24.969,76.79 24.762,76.715 24.755,76.764 	"/>
	<polygon fill="#232734" points="24.762,76.715 24.562,76.762 24.572,76.674 24.755,76.764 24.762,76.715 	"/>
	<polygon fill="#232734" points="21.764,66.701 23.145,66.124 23.234,66.2 23.236,66.167 22.517,66.55 21.965,66.742 21.768,66.659 
		21.764,66.701 	"/>
	<polygon fill="#232734" points="23.234,66.2 23.911,65.737 24.029,65.746 24.191,65.9 24.104,66.096 23.321,66.248 23.236,66.167 
		23.234,66.2 	"/>
	<polygon fill="#232734" points="17.938,67.7 17.492,68.011 17.201,67.96 17.194,68.005 17.543,67.747 17.932,67.746 17.938,67.7 	
		"/>
	<polygon fill="#232734" points="18.477,67.652 18.918,67.348 19.205,67.405 19.211,67.354 18.809,67.631 18.48,67.602 
		18.477,67.652 	"/>
	<polygon fill="#232734" points="16.633,68.077 17.055,67.757 17.194,68.005 17.201,67.96 16.928,68.142 16.633,68.077 	"/>
	<polygon fill="#232734" points="18.48,67.602 18.207,67.791 17.938,67.7 17.932,67.746 18.2,67.574 18.477,67.652 18.48,67.602 	
		"/>
	<polygon fill="#232734" points="21.768,66.659 21.354,66.84 21.764,66.701 21.768,66.659 	"/>
	<polygon fill="#232734" points="19.205,67.405 19.422,67.343 19.406,67.436 19.211,67.354 19.205,67.405 	"/>
</g>
</svg>
