<?xml version="1.0" encoding="utf-8"?>
<!-- Generator: Adobe Illustrator 15.0.2, SVG Export Plug-In . SVG Version: 6.00 Build 0)  -->
<!DOCTYPE svg PUBLIC "-//W3C//DTD SVG 1.1//EN" "http://www.w3.org/Graphics/SVG/1.1/DTD/svg11.dtd">
<svg version="1.1" id="Layer_1" xmlns="http://www.w3.org/2000/svg" xmlns:xlink="http://www.w3.org/1999/xlink" x="0px" y="0px"
	 width="31.578px" height="31.578px" viewBox="0 0 31.578 31.578" enable-background="new 0 0 31.578 31.578" xml:space="preserve">
<g>
	<path fill="#232734" d="M11.692,12.853l0.444,0.57l0.479,0.567l0.132,1.487l-1.29,1.69l-0.145,0.108l-1.132,0.353L9.383,17.5
		l-0.604-0.594l-0.767-0.96l0.151-2.343l0.98-0.743L11.692,12.853L11.692,12.853z M11.774,14.751l0.02-0.278l-0.959-0.863
		l-1.216,0.142l0.033,0.315l-0.224,1.078l0.74-0.478l0.789-0.442l0.875,0.522l-0.608,0.993l0.624-0.863L11.774,14.751L11.774,14.751
		z"/>
	<path fill="#232734" d="M23.597,10.424l0.244,2.037l-0.76,0.998l-0.688,0.331l-1.636-0.331l-0.461-1.234l0.127-1.214l0.889-1.085
		L22.23,9.81l0.911,0.329L23.597,10.424L23.597,10.424z M22.046,12.537l0.574-0.042l0.297-1.091l-0.948-0.688l-0.827,0.851
		l-0.051,0.409l0.162,0.724l0.25,0.133l0.062-0.891l0.332-0.426l0.252-0.146l0.263,0.081l0.055,0.263l-0.25,0.373L22.046,12.537
		L22.046,12.537z"/>
	<path fill="#232734" d="M17.914,17.798l0.78-0.35l0.515-0.035l1.117,0.877l0.336,0.701l-0.07,0.442l-0.11,0.463l-0.549,0.722
		l-0.521,0.266l-0.863,0.131l-1.064-0.831l-0.156-1.603L17.914,17.798L17.914,17.798z M19.591,19.037l-0.672-0.752l-0.576,0.106
		l-0.178,0.321l0.725,0.021l-0.027,0.467l0.321,0.209L19.591,19.037L19.591,19.037z"/>
	<path fill="#232734" d="M12.296,21.012l-0.765,0.976l-0.72,0.038l-0.786-0.659l0.208-0.998l0.114-0.091L11,19.946l1.191,0.577
		L12.296,21.012L12.296,21.012z M10.86,21.192l0.545-0.044l-0.198-0.322l-0.339,0.217L10.86,21.192L10.86,21.192z"/>
	<polygon fill="#232734" points="15.024,13.224 15.71,13.875 16.582,13.523 16.693,12.415 16.141,11.927 15.569,11.978 
		15.273,12.655 	"/>
	<polygon fill="#232734" points="16.904,23.287 15.651,23.042 15.123,23.583 15.183,24.109 16.49,24.137 16.899,23.585 	"/>
	<polygon fill="#232734" points="17.623,8.133 17.062,7.928 17.28,7.56 17.853,7.282 17.968,6.916 17.039,6.814 16.641,7.397 
		16.691,8.126 17.358,8.42 17.617,8.08 	"/>
</g>
</svg>
