<?xml version="1.0" encoding="utf-8"?>
<!-- Generator: Adobe Illustrator 15.0.2, SVG Export Plug-In . SVG Version: 6.00 Build 0)  -->
<!DOCTYPE svg PUBLIC "-//W3C//DTD SVG 1.1//EN" "http://www.w3.org/Graphics/SVG/1.1/DTD/svg11.dtd">
<svg version="1.1" id="Layer_1" xmlns="http://www.w3.org/2000/svg" xmlns:xlink="http://www.w3.org/1999/xlink" x="0px" y="0px"
	 width="31.578px" height="31.578px" viewBox="0 0 31.578 31.578" enable-background="new 0 0 31.578 31.578" xml:space="preserve">
<g>
	<path fill="#232734" d="M19.819,19.283l-1.511,0.652l-1.49-0.316l-0.879-0.67l-0.446-0.892l-0.219-1.63l0.756-2.077l0.749-0.412
		l1.07,0.034l1.046,0.014l1.301,1.019l0.658,1.308l0.089,0.858l-0.191,0.886L19.819,19.283L19.819,19.283z M16.636,16.443l0.4-0.75
		l-0.451,0.51l0.11,0.233l-0.079,0.263l0.115-0.005L16.636,16.443L16.636,16.443z M19.264,15.88l-0.562,0.028l-0.58,1.938
		l0.977-1.136L19.264,15.88L19.264,15.88z M17.229,16.435l0.36-0.225l0.371-0.246l0.272-0.128l0.317-0.322l0.171-0.249l-0.003-0.288
		l-0.254-0.154l-0.266,0.096l-0.8,1.1L17.229,16.435L17.229,16.435z M18.001,18.875l0.156,0.002l-0.016-0.123l-0.122,0.027
		L18.001,18.875L18.001,18.875z"/>
	<path fill="#232734" d="M12.197,11.144l-0.006-1.652l1.496-0.902l0.712,0.512l0.357,1.294l-0.955,1.258l-0.883,0.039L12.197,11.144
		L12.197,11.144z M13.672,10.802l0.219-0.345l-0.303-0.841l-0.426,0.049l-0.431,0.542l0.064,0.529L13.672,10.802L13.672,10.802z"/>
	<path fill="#232734" d="M7.255,15.916l0.638-0.998l0.663-0.329l0.77,0.17l0.178,1.393l-1.049,0.801l-0.866-0.209L7.255,15.916
		L7.255,15.916z M8.776,15.548l-0.317-0.049L8.03,15.833l0.183,0.479L8.776,15.548L8.776,15.548z"/>
	<path fill="#232734" d="M13.779,22.074l-0.614,0.35l-0.755-0.129l-0.333-0.697l0.191-1.254l0.697-0.151l0.912,0.733L13.779,22.074
		L13.779,22.074z M13.074,21.535l-0.058-0.099l-0.056,0.09L13.074,21.535L13.074,21.535z"/>
	<polygon fill="#232734" points="6.92,20.052 7.685,20.401 8.337,20.22 8.617,19.324 7.892,18.669 7.137,18.985 	"/>
	<polygon fill="#232734" points="24.887,15.234 24.998,16.125 25.337,16.39 26.125,15.986 26.21,15.848 26.02,14.522 25.516,14.404 
			"/>
</g>
</svg>
