<?xml version="1.0" encoding="utf-8"?>
<!-- Generator: Adobe Illustrator 15.0.2, SVG Export Plug-In . SVG Version: 6.00 Build 0)  -->
<!DOCTYPE svg PUBLIC "-//W3C//DTD SVG 1.1//EN" "http://www.w3.org/Graphics/SVG/1.1/DTD/svg11.dtd">
<svg version="1.1" id="Layer_1" xmlns="http://www.w3.org/2000/svg" xmlns:xlink="http://www.w3.org/1999/xlink" x="0px" y="0px"
	 width="31.578px" height="31.578px" viewBox="0 0 31.578 31.578" enable-background="new 0 0 31.578 31.578" xml:space="preserve">
<g>
	<path fill="#232734" d="M9.606,10.211l0.419-0.55l1.714-0.611l2.028,0.198l0.678,0.517l0.635,1.927l-0.428,1.739l-0.672,1
		l-0.749,0.374l-2.24-0.08l-1.113-0.851l-0.105-0.13l-0.274-0.591L9.606,10.211L9.606,10.211z M10.326,12.728l-0.056-0.425
		l0.006-0.29l-0.083,0.07l0.121,0.214l0.065,0.424l-0.048,0.257l0.114-0.016L10.326,12.728L10.326,12.728z M13.729,10.391
		l-0.712-0.517l-1.357,0.673l-0.489,0.771l0.745-0.28l0.628-0.346l0.067,0.471l-0.431,0.145l-0.609,1.112l0.749-0.68l0.843,0.167
		l-0.17,0.786l-0.43,0.693v0.145l0.249,0.021l0.711-0.935L13.729,10.391L13.729,10.391z M10.363,11.505l0.199-0.172l0.008-0.199
		l-0.203,0.154L10.363,11.505L10.363,11.505z M11.49,13.453l0.084,0.022l0.202-0.303l-0.083-0.017L11.49,13.32V13.453L11.49,13.453z
		 M13.663,13.538l0.041,0.101l0.065-0.108L13.663,13.538L13.663,13.538z"/>
	<path fill="#232734" d="M9.985,21.218l-0.812-0.779L8.995,19.1l0.353-0.841l1.003-0.809l1.342-0.201l0.868,0.363l0.622,0.875
		L12.849,20.5l-1.568,0.836L9.985,21.218L9.985,21.218z M11.771,20.191l0.407-0.416l0.197-0.768l-0.365-0.756l-1.452-0.144
		l-0.103,0.108l-0.162,0.422l-0.427,0.378l0.097,0.552l1.183-1.143l0.129,0.363l-0.601,1.23l0.074,0.029l0.645-0.562l0.382,0.446
		L11.771,20.191L11.771,20.191z"/>
	<path fill="#232734" d="M26.675,13.3l0.816,0.661l0.174,0.989l-0.231,0.899l-0.593,0.777l-0.869,0.188l-0.307-0.053l-1.108-0.976
		l-0.078-1.481l0.438-0.576l0.871-0.427L26.675,13.3L26.675,13.3z M26.75,15.1l-0.598,0.746L26.75,15.1L26.75,15.1z"/>
	<polygon fill="#232734" points="4.739,14.976 5.308,15.408 6.408,15.28 6.979,14.592 6.496,12.985 5.852,12.805 5.021,13.252 	"/>
	<path fill="#232734" d="M21.957,8.874l-0.862-0.231l-0.487-0.371l-0.171-1.244l0.638-0.734l1.08-0.007l0.406,0.112l0.371,1.322
		L21.957,8.874L21.957,8.874z M21.923,7.165l-0.405,0.097L21.296,7.44l0.002,0.276l0.652,0.257L21.923,7.165L21.923,7.165z"/>
	<path fill="#232734" d="M17.041,16.421l0.855,0.256l0.35,0.641l-0.533,1.209l-1.441,0.188l-0.687-0.697l0.168-0.734l0.466-0.609
		L17.041,16.421L17.041,16.421z M17.056,17.437l0.268,0.076l-0.039-0.221l-0.256-0.07L17.056,17.437L17.056,17.437z"/>
	<polygon fill="#232734" points="21.229,22.057 20.578,22.912 20.689,23.63 21.048,23.903 21.763,24.021 22.596,23.651 
		22.514,22.416 22.082,22.271 21.669,22.104 	"/>
	<polygon fill="#232734" points="7.056,5.746 6.496,4.948 5.919,5.038 5.472,5.625 5.604,6.688 6.597,6.999 	"/>
	<polygon fill="#232734" points="5.182,24.835 5.575,25.098 5.874,25.076 6.276,24.882 6.714,23.896 6.664,23.755 5.949,23.283 
		5.281,23.574 5.053,24.356 	"/>
	<polygon fill="#232734" points="16.82,24.531 16.953,24.979 17.428,25.291 18.464,24.514 18.223,23.826 17.516,23.646 	"/>
</g>
</svg>
