<?xml version="1.0" encoding="utf-8"?>
<!-- Generator: Adobe Illustrator 15.0.2, SVG Export Plug-In . SVG Version: 6.00 Build 0)  -->
<!DOCTYPE svg PUBLIC "-//W3C//DTD SVG 1.1//EN" "http://www.w3.org/Graphics/SVG/1.1/DTD/svg11.dtd">
<svg version="1.1" id="Layer_1" xmlns="http://www.w3.org/2000/svg" xmlns:xlink="http://www.w3.org/1999/xlink" x="0px" y="0px"
	 width="31.578px" height="31.578px" viewBox="0 0 31.578 31.578" enable-background="new 0 0 31.578 31.578" xml:space="preserve">
<g>
	<path fill="#232734" d="M18.273,11.536l0.141,0.808l-0.194,1.045l-1.914,0.784l-0.568-0.147L14.65,12.9l-0.086-0.53l0.237-0.789
		l0.723-0.978l1.294-0.126l0.553,0.312L18.273,11.536L18.273,11.536z M17.794,12.568l-0.162-0.71L16.77,11.2l-0.919,0.086
		l-0.493,0.776l0.202,0.683l0.312-0.304l0.395-0.148l0.247,0.161l0.397,0.095L17.794,12.568L17.794,12.568z"/>
	<path fill="#232734" d="M14.406,18.319l-1.028-0.252l-0.125-0.414l0.188-0.864l0.805-0.505l0.147,0.023l0.743,1.041l-0.238,0.727
		L14.406,18.319L14.406,18.319z M14.287,17.505l0.011-0.1l-0.18-0.014l0.028,0.133L14.287,17.505L14.287,17.505z"/>
	<polygon fill="#232734" points="19.574,14.457 20.436,14.664 21.139,14.508 21.262,14.238 21.353,13.695 20.658,13.039 
		20.021,13.114 19.38,14.037 	"/>
	<polygon fill="#232734" points="19.314,18.128 18.833,18.272 18.735,19.111 19.703,19.382 19.994,19.125 19.891,18.477 	"/>
	<polygon fill="#232734" points="9.916,18.294 10.161,18.064 10.381,17.705 10.152,17.156 9.723,17.1 9.543,18.208 	"/>
	<polygon fill="#232734" points="14.697,22.496 15.076,22.472 15.085,21.906 14.848,21.862 	"/>
</g>
</svg>
