<?xml version="1.0" encoding="utf-8"?>
<!-- Generator: Adobe Illustrator 15.0.2, SVG Export Plug-In . SVG Version: 6.00 Build 0)  -->
<!DOCTYPE svg PUBLIC "-//W3C//DTD SVG 1.1//EN" "http://www.w3.org/Graphics/SVG/1.1/DTD/svg11.dtd">
<svg version="1.1" id="Layer_1" xmlns="http://www.w3.org/2000/svg" xmlns:xlink="http://www.w3.org/1999/xlink" x="0px" y="0px"
	 width="31.578px" height="31.578px" viewBox="0 0 31.578 31.578" enable-background="new 0 0 31.578 31.578" xml:space="preserve">
<g>
	<path fill="#232734" d="M12.466,10.951l2.705-0.795l1.516,0.312l1.311,0.979l0.262,0.321l0.076,3.4l-2.102,1.7l-2.942-0.227
		l-1.39-1.059l-0.419-0.772l-0.02-2.585L12.466,10.951L12.466,10.951z M16.714,12.806L16.68,12.04l-0.505-0.425l-1.611-0.33
		l-0.291,0.694l-0.283,0.372l-0.735,0.215l-0.038,0.254l1.181,2.244l0.277-0.211l-0.271-0.845l0.454-0.807l0.061-0.419l0.516-0.488
		l0.283,1.166l0.347,0.161l0.03-0.458l0.681-0.363l-0.038,0.257l0.106-0.025L16.714,12.806L16.714,12.806z M15.681,14.955
		l0.296,0.005l0.317-0.069l0.156-0.373l-1.201-0.037L15.681,14.955L15.681,14.955z M12.932,12.074l0.896-0.686L12.932,12.074
		L12.932,12.074z M12.492,12.994l-0.016,0.699L12.492,12.994L12.492,12.994z"/>
	<path fill="#232734" d="M18.936,18.75l0.599,0.457l0.383,0.828l-0.099,0.77l-0.433,0.568l-0.893,0.332l-1.16-0.871l-0.062-0.574
		l1.092-1.457L18.936,18.75L18.936,18.75z M18.621,20.104l-0.437,0.354l0.019,0.144l0.104,0.032L18.621,20.104L18.621,20.104z"/>
	<polygon fill="#232734" points="10.463,19.664 10.514,20.199 11.344,20.919 11.635,20.976 12.922,20.74 13.206,19.873 
		12.812,19.059 12.252,18.632 11.2,18.731 	"/>
	<polygon fill="#232734" points="24.326,13.225 23.671,13.327 23.214,13.928 23.33,15.08 23.548,15.282 23.681,15.367 
		24.858,15.299 25.513,14.439 25.5,14.3 25.152,13.816 24.798,13.54 	"/>
	<polygon fill="#232734" points="15.129,25.947 15.062,25.298 14.296,24.755 13.179,25.184 13.043,25.83 13.959,26.673 
		14.648,26.58 	"/>
	<polygon fill="#232734" points="14.449,6.069 15.074,6.545 15.831,5.59 15.129,5.064 14.581,5.217 	"/>
	<polygon fill="#232734" points="6.905,15.385 6.307,15.552 6.19,16.867 6.559,16.882 6.769,16.642 7.002,15.778 	"/>
</g>
</svg>
