<?xml version="1.0" encoding="utf-8"?>
<!-- Generator: Adobe Illustrator 15.0.2, SVG Export Plug-In . SVG Version: 6.00 Build 0)  -->
<!DOCTYPE svg PUBLIC "-//W3C//DTD SVG 1.1//EN" "http://www.w3.org/Graphics/SVG/1.1/DTD/svg11.dtd">
<svg version="1.1" id="Layer_1" xmlns="http://www.w3.org/2000/svg" xmlns:xlink="http://www.w3.org/1999/xlink" x="0px" y="0px"
	 width="218.52px" height="218.52px" viewBox="0 0 218.52 218.52" enable-background="new 0 0 218.52 218.52" xml:space="preserve">
<g id="knife">
	<path fill="#232734" d="M40.277,69.892l-0.182-0.306l-1.246-1.551l-0.074-0.122l-0.938-1.063l-0.803-1.177l-0.593-0.797
		l-0.457-0.716l-0.512-0.853l-0.202-0.376L34.338,61.5l-0.709-1.56l-1.13-1.799l-0.234-0.283l-0.533-1.533l-0.164-1.013L32.389,54
		l1.144-0.352l1.222,0.208l2.039,0.613l1.218,0.355l0.935,0.435l2.604,0.552l0.929,0.335l1.202,0.429l1.444,0.596l1.859,0.691
		l1.201,0.44l1.058,0.405l0.401,0.129l0.56,0.121l1.621,0.525l1.487,0.485l0.262,0.108l1.919,0.938l1.171,0.517l1.182,0.496
		l0.931,0.346l0.807,0.498l0.489,0.102l0.358,0.215l1.39,0.716l0.501,0.269l1.027,0.49l1.003,0.537l2.125,1.161l0.646,0.295
		l0.499,0.267l1.685,1.097l1.124,0.611l0.978,0.589l1.861,1.046l0.612,0.365l1.632,0.878l0.61,0.368l2.344,1.578l0.472,0.123
		l6.123,4.237l3.754,2.642l0.77,0.42l0.889,0.575l0.654,0.493l0.944,0.572l0.929,0.672l0.95,0.855l0.543,0.458l1.6,1.214
		l0.711,0.697l0.42,0.38l2.76,2.059l2.504,1.782l0.289,0.436l3.225,2.382l0.907,0.901l0.438,0.12l0.455,0.542l1.576,1.197
		l0.71,0.699l0.403,0.399l1.376,1.087l0.235,0.348l1.229,0.948l0.429,0.375l1.451,1.365l0.335,0.512l0.972,0.762l0.236,0.391
		l1.308,1.295l1.267,1.029l0.621,0.703l0.69,0.72l0.516,0.487l1.013,1l0.524,0.48l0.506,0.499l0.609,0.597l1.138,0.874l0.821,0.786
		l1.034,0.967l0.231,0.365l1.337,1.284l1.391,1.612l0.817,0.982l1.006,0.87l1.734,1.93l1.146,1.681l0.943,0.562l-0.321,1.218
		l-0.204,0.525l-0.398,0.384l-0.17,0.231l-0.149,0.239l-0.438,1.187l3.03,2.381l0.104,0.098l0.236,0.418l4.184,3.015l1.006,0.391
		l0.158,0.67l0.175,0.223l3.602,2.607l1.739,0.977l1.352,0.804l0.858,0.334l2.912,1.973l0.851,0.521l0.717,0.39l0.494,0.272
		l0.958,0.362l1.686,1.082l0.547,0.15l1.508,0.971l0.486,0.123l1.54,1.019l1.382,0.737l0.496,0.279l1.301,0.843l0.57,0.161
		l0.964,0.638l0.495,0.283l1.752,0.943l1.271,0.635l0.373,0.207l1.15,0.562l0.497,0.275l1.084,0.684l0.426,0.104l1.124,0.624
		l1.042,0.46l1.271,0.633l0.374,0.205l1.149,0.562l0.499,0.271l1.115,0.709l0.562,0.15l1.055,0.676l0.365,0.226l2.839,1.641
		l0.466,0.12l2.69,1.793l0.504,0.14l1.861,1.195l0.627,0.334l1.094,0.809l0.306,0.082l0.114,0.084l1.947,1.69l0.232,0.346
		l0.263,0.091l0.271,0.344l0.767,0.271l0.675,1.104l0.961,0.824l0.609,1.01l0.817,1.492l0.428,0.731l0.338,0.783l0.557,1.619
		l0.058,2.839l-0.064,0.483l-1.34,1.816l-0.941,0.834l-1.551,0.71l-2.545-0.157l-0.556-0.094l-0.564-0.063l-2.589-0.783l-1.43-0.623
		l-0.249-0.141l-1.058-0.422l-0.838-0.551l-1.973-0.771l-2.247-1.571l-2.938-2.055l-0.822-0.348l-0.342-0.463l-0.957-0.779
		l-0.259-0.446l-2.129-1.613l-0.293-0.414l-2.767-2.115l-0.394-0.404l-0.607-0.6l-1.254-1.154l-0.534-0.471l-0.689-0.514
		l-0.524-0.476l-0.61-0.549l-1.438-1.181l-0.406-0.397l-0.188-0.264l-2.048-1.515l-0.885-0.922l-1.722-1.285l-0.539-0.458
		l-0.919-0.888l-1.018-0.797l-0.687-0.521l-0.519-0.44l-2.649-2.183l-0.536-0.646l-0.797-0.61l-0.401-0.458l-0.23-0.076l-0.27-0.377
		l-1.383-1.061l-0.313-0.48l-0.96-0.75l-0.438-0.365l-2.464-2.053l-0.262-0.469l-2.973-2.177l-3.637-2.561l-0.709-0.486
		l-0.738-0.282l-0.306-0.363l-0.44-0.104l-1.603-1.177l-0.918-0.686l-0.791-0.556l-0.94-0.654l-0.842-0.547l-0.953-0.617
		l-0.808-0.298l-1.711-0.691l-0.343,0.075l-0.057,0.037l-1.793,2.377l-0.719,0.164l-0.374-0.229l-0.281-0.639l-0.055-0.542
		l-0.886-0.483l-0.516-0.233l-0.687-0.449l-0.626-0.167l-1.484-0.973l-0.501-0.122l-1.418-1.146l-0.244-0.107l-0.503-0.264
		l-3.037-2.154l-0.244-0.365l-0.657-0.244l-1.982-1.422l-2.944-2.045l-0.77-0.284l-0.411-0.431l-0.895-0.43l-1.146-0.566
		l-0.499-0.268l-1.105-0.738l-0.552-0.137l-0.223-0.121l-1.51-0.802l-1.297-0.574l-1.108-0.651l-1.046-0.449l-1.562-1.018
		l-0.245-0.14l-0.51-0.128l-3.934-2.729l-3.705-2.683l-0.317-0.502l-1.149-1.063l-0.997-1.207l-0.942-1.068l-1.278-1.518
		l-0.434-0.37l-1.009-0.999l-1.488-1.715l-0.291-0.313l-0.749-0.663l-0.54-0.661l-1.409-1.373l-0.279-0.425l-2.521-2.15
		l-3.934-2.929l-0.278-0.45l-0.967-0.734l-0.527-0.474l-0.933-0.873l-0.699-0.502l-0.796-0.611l-0.717-0.644l-0.726-0.676
		l-2.69-1.901l-0.855-0.607l-0.372-0.082l-0.979-0.772l-0.909-0.723l-0.492-0.156l-0.828-0.734l-0.437-0.095l-2.247-1.533
		l-0.757-0.391L55.29,81.1l-0.53-0.193l-0.353-0.244L49.053,77l-1.007-0.664l-0.432-0.159l-1.957-1.698l-0.297-0.403l-1.003-0.529
		l-0.676-0.757l-1.24-0.938l-0.905-0.9L40.277,69.892L40.277,69.892z M196.782,175.871l0.253,0.023l-0.028-0.108l-0.214,0.142
		l-0.399,0.053l-0.398,0.079l-0.243-0.053l0.014,0.108l0.221-0.108l0.401-0.064L196.782,175.871L196.782,175.871z M182.492,158.325
		l0.22,0.049l-0.069-0.26l0.21-0.139l0.886,0.161l-0.196,0.269l-0.267,0.005l0.062,0.062l0.193-0.121l0.196,0.139l0.433-0.036
		l0.258-0.021l-0.068-0.052l-0.178,0.129l-0.495-0.361l0.312-0.139l0.272-0.186l0.254,0.051l-0.021-0.108l-0.228,0.097l-0.521-0.414
		l-1.449-0.091l0.022-0.438l-0.51-0.161l-1.206-0.399l-2.646-0.394l-1.877,0.229l-0.368-0.227l0.013,0.053l0.918-0.459l1.775,0.031
		l0.278-0.042l-0.055-0.257l-1.71-0.256l-0.707,0.144l-0.268-0.05l0.319-0.318l0.535-0.109l0.562,0.014l0.559-0.058l-0.036-0.215
		l-1.618-0.405l-1.955-0.205l-0.989,0.003l-0.26-0.077l0.003,0.021l0.272-0.307l2.021-0.039l-0.049-0.349l-0.646-0.276l-1.305-0.517
		l-0.135-0.032l-2.529-0.05l-0.399-0.03l0.667-0.437l0.487-0.196l0.479,0.18l-0.473-0.133l-0.855-0.396l-0.504-0.215l-0.446-0.327
		l-0.836-0.521l-0.95-0.271l-1.418-0.124l-0.847,0.081l-0.685,0.236l-0.362-0.206l0.286-0.314l2.112-0.277l-0.024-0.104
		l-0.717-0.568l-3.288-0.675l-0.383-0.186l0.469-0.253l-0.062-0.124l-1.866-0.533l-0.832-0.104l-0.375-0.184l0.665-0.156
		l1.098,0.107l-0.941-0.74l-2.701-0.692l-1.175,0.239l-0.265-0.045l0.269-0.299l1.787-0.229l-0.207-0.243l-1.021-0.359l-1.016-0.098
		l-0.242-0.144l0.48-0.27l-0.062-0.129l-1.181-0.785l-1.354-0.603l-1.087,0.351l-0.926,1.381l-0.094,0.827l1.285,0.219l0.55-0.138
		l0.442-0.534l1.688-0.475l0.318,0.146l-0.513,0.182l-1.422,0.597l-0.068,0.26l0.175,0.338l-0.416,0.491l0.531,0.108l0.724,0.516
		l0.301-0.036l0.739-1.032l0.382-0.056l-0.704,1.093l0.15,0.524l-0.162,0.693l0.761,0.265l0.053,0.13l-0.908,0.125l0.38,0.376
		l0.864,0.094l1.206-1.697l0.864-0.174l-0.435,0.359l-0.354,0.204l-0.654,0.923l-0.054,0.604l-0.181,0.521l0.593-0.094l0.161-0.675
		l0.215-0.154l0.065,1.023l0.551,0.391l-0.509,0.211l-0.031,0.825l0.325,0.231v0.254l0.764,0.481l-0.162-0.634l0.353-0.493
		l0.731,0.521l-0.436,0.305l0.269,0.565l1.048-0.147l0.073-0.354l-0.604-0.431l0.657-0.089l0.437-1.346l0.113-0.068l0.146,0.16
		l-0.208,0.812l-0.01,1.299l0.316,0.226l-0.21,0.488l0.345,0.188l0.407-0.099l-0.583-0.569l0.532-0.221l0.116-0.374l0.077-0.36
		l0.514-0.711l0.371-0.05l-0.534,0.752l-0.083,0.88l0.301,0.297l-0.008-0.043l-0.177,0.479l0.72,0.31l-0.013-0.06l-0.369,0.182
		l-0.229,0.307l0.198,0.146l0.693,0.084l0.518,0.204l-1.094,0.152l0.12,0.545l0.599,0.426l0.694,0.095l0.149-0.027l0.267-0.316
		l0.794,0.738l-0.31-0.038l-0.196,0.097l0.105,0.239l0.233,0.137l1.179-0.237l0.152,0.218l0.138,0.688l0.343,0.244l-0.236,0.334
		l0.229,0.312l0.541-0.081l-0.592-0.555l0.923-0.253l0.264,0.024l0.394,0.365l-0.543,0.438l0.015,0.4l-0.039,0.401l0.582,0.413
		l-0.429,0.277l0.798,0.129l0.238-0.337l0.241,0.525l0.328,0.232l-0.588,0.335l-0.507-0.209l-0.045,0.431l0.255,0.028l0.285-0.312
		l0.347,0.553l0.606,0.138l-0.046,0.404l0.461,0.38l0.269-0.31l0.174,0.358l0.544,0.275l0.269-0.08l0.087-0.666l-0.12-0.225
		l0.446-0.306l0.668-0.737l0.579-0.814l2.022-1.081l0.132,0.04l-0.007-0.047l-0.678,0.674l-0.412,0.363l0.058-0.01l-0.261-0.027
		l-0.698,0.4l-1.375,2.009l0.106,0.534l0.801-0.295l0.395,0.67l-0.448,0.274l-0.402,0.082l-0.243-0.068l0.009,0.105l0.224-0.097
		l0.407-0.059l0.498,0.347l-0.238,0.129l-0.674,0.096l0.139,0.578l1-0.139l0.078-0.4l-0.36-0.256l0.457-0.256l0.031-0.303
		l0.259-0.147l0.882-1.015l0.52-0.73l0.67-0.338l0.267,0.002l-0.854,0.741l-1.302,1.8l-0.169,0.975l0.564,0.339l-0.248,0.117
		l-0.269,0.565l0.124,0.24l0.842,0.104l0.526,0.193l-0.245,0.119l-0.837,0.021l-0.188,0.197l0.457,0.447l0.963-0.109l0.008-0.49
		l-0.216-0.179l0.593-0.329l0.174,0.357l-0.055,0.671l0.754,0.289l-0.483,0.224l-0.14,0.211l0.145,0.214l0.655,0.012l0.066-0.125
		l0.008-0.265l-0.317-0.262l0.33-0.361l0.255-1.451l1.459-2.055l0.146-0.58l1.373-0.748l0.128,0.056l-0.005-0.022l-0.858,0.735
		l-1.884,2.649l-0.218,1.39l0.117,1.819l0.062,0.112l0.472-0.127l-0.204-0.358l0.029-0.102l0.244-0.139l0.221-1.158l0.318-0.405
		l-0.043,0.006l0.102,0.231l-0.245,1.612l0.059,0.488l0.35,0.31l-0.003-0.021l-0.235,0.4l0.228,0.266l1.108-0.252l0.646,1.43
		l0.521-0.045l0.096-0.989l0.479,0.186l-0.006-0.055l0.079,0.771l0.374,0.409l-0.263,0.261l0.584,0.524l-1.119,0.147l0.243,0.324
		l1.228,0.192l0.21-0.126l-0.615-0.533l0.25-0.352l-0.112-1.076l0.179-0.506l0.503,0.766l1.153,0.186l-0.053,0.577l0.574,0.407
		l-0.004-0.026l0.266,0.859l0.786-0.014l0.355,0.176l-0.005-0.021l-0.346,0.198l-0.479,0.158l0.407,0.559l0.013,0.515l0.77,0.458
		l0.375-0.081l-0.401-0.695l0.419-0.186l0.11,0.067l0.145,0.396l0.705,0.467l0.279-0.008l0.242-0.117l-0.719-0.825l0.091-0.267
		l-0.431-0.528l-0.2-0.301l0.254-0.166l-0.103-1.66l0.153-0.246l-0.048,0.006l0.162,0.207l0.412,2.193l0.853,1.36l0.146,0.177
		l0.489,0.348l0.184,0.685l0.946,0.156l0.174,0.413l0.37,0.203l1.638,0.112l0.862,0.14l-0.707-0.339l-0.583-0.354l-0.534-0.102
		l-1.407-1l-0.28-0.46l-0.75-0.657l-0.464-1.273l0.159-0.649l-0.009,0.002l0.105,0.088l0.831,1.95l0.847,0.673l0.368,0.196
		l0.389-0.069l0.499,0.355l0.367,0.607l1.345,0.062l0.502,0.187l-0.193,0.264l-0.249-0.033l0.032,0.108l0.207-0.126l0.347,0.235
		l1.398,0.177l0.41-0.069l-0.113-0.231l-0.998-0.288l-0.908-0.021l0.19-0.447l-0.537-0.215l-1.046-0.332l-0.104-0.461l-0.669-0.445
		l0.047-0.135l-0.413-0.894l-0.185-0.832l0.05-1.43l0.512-0.646l0.725-0.233l0.606-0.228l1.896-0.168l-0.476-0.465l-0.425-0.055
		l-0.982-0.108l-0.084-0.4l1.094-0.307l-0.01-0.107l-0.795-0.592l-1.218-0.371l-1.41-0.211l-0.362-0.209l0.007,0.034l0.221-0.15
		l0.566,0.011l2.231,0.519l0.706,0.452l0.899,0.468l-0.4-0.445l-0.396-0.626l-1.049-0.694l-0.542-0.143l-1.734-0.638l-2.09-0.34
		l-0.388-0.154l0.222-0.151l0.979-0.138l0.195-0.169l0.542,0.36l0.323-0.11l0.539,0.371l0.332-0.101l0.952,0.523l-0.719-0.58
		l-0.229,0.104l-0.53-0.347l-0.342,0.075l-0.529-0.353l-0.338,0.084l-0.349-0.219l-0.807-0.209l-2.037-0.463l-1.245-0.202
		l-0.306-0.062l-1.21,0.072l-0.25-0.146l0.229-0.156l1.134-0.114l2.938,0.496l1.646,0.407l0.56,0.102l0.277,0.021l0.007-0.103
		l-0.999-0.989l-0.771-0.34l-0.533-0.193l-1.105-0.258l-1.252-0.251l-0.159-0.204l1.52,0.011l-0.017-0.216l-1.26-0.613l-2.898-0.591
		l-1.138-0.044l-1.977,0.081l-0.412-0.032l0.354-0.491l0.399-0.067L182.492,158.325L182.492,158.325z M144.106,139.499l0.228,0.052
		l-0.007-0.098l-0.21,0.106l-0.224-0.043l0.022,0.094L144.106,139.499L144.106,139.499z M141.193,135.674l0.212-0.061l-0.199,0.12
		l-0.228-0.07l-0.004,0.104L141.193,135.674L141.193,135.674z M162.129,154.767l0.234,0.059l-0.002-0.104l-0.223,0.104l-0.489-0.359
		l0.257-0.125l0.151-0.193l-0.334-0.204l-0.407,0.098l0.369,0.417l0.09,0.354L162.129,154.767L162.129,154.767z M154.117,146.305
		l-0.242-0.053l0.014,0.104l0.22-0.112l0.478,0.2L154.117,146.305L154.117,146.305z M152.837,146.061l0.239,0.07l-0.021-0.166
		l-0.213,0.131l-0.344-0.18l-0.117,0.021l0.031,0.127L152.837,146.061L152.837,146.061z M191.358,176.632l-0.494-0.189l0.488,0.146
		l0.703,0.332l-0.48-0.395L191.358,176.632L191.358,176.632z M160.94,152.56l-0.248-0.062l0.006,0.109l0.232-0.104l0.227,0.151
		l0.387-0.271l-0.402,0.021L160.94,152.56L160.94,152.56z M152.933,145.419l0.279-0.012l-0.069-0.07l-0.2,0.136l-0.704-0.34
		l0.103,0.233l0.23,0.137h0.256L152.933,145.419L152.933,145.419z M196.544,170.79l-0.214-0.041l0.023,0.156l0.19-0.111l0.491,0.327
		l-0.227,0.146l-0.543,0.123l-0.059,0.091l0.06,0.116l0.666,0.155l-0.239,0.48l0.324,0.215l0.705-0.022l0.362,0.188l-0.008-0.044
		l-0.636,0.227l-0.167,0.162l0.312,0.23l1.119-0.085l0.183,0.191l-0.339,0.24l0.259,0.299l0.812-0.002l-0.211-1.962l-0.699,0.022
		l-0.389-0.17l0.445-0.267l-0.276-0.239l-0.923,0.149l-0.087,0.102l-0.514-0.34l0.789-0.28l0.044-0.093l-0.075-0.105l-1.099,0.025
		L196.544,170.79L196.544,170.79z M185.266,170.849l-0.093,0.248l0.127,0.395l0.781,0.979l0.264,0.054l0.188-0.145l-0.442-0.671
		l-0.196-0.677l-0.686-0.172l0.255-0.359l-0.101-0.545l-0.57,0.062l-0.089,0.419L185.266,170.849L185.266,170.849z M153.123,141.682
		l0.231,0.046l-0.004-0.106l-0.22,0.11l-1.365-0.647l-0.239-0.136l-0.039-0.421l-1.294-0.833l-0.764-0.088l-0.635,0.305
		l-0.438,0.616l0.035,0.446l0.133,0.235l1.214,0.292l0.104,0.2l-0.671-0.006l-0.346,0.133l-0.216-0.049l0.03,0.146l0.182-0.118
		l0.553,0.369l0.612-0.05l0.789-1.109l0.562-0.154l0.252,0.074l-0.437,0.343l-0.496,0.49l0.052,1.668l0.38,0.432l-0.314,0.262
		l0.667,0.37l0.494-1.153l0.565-1.132L153.123,141.682L153.123,141.682z M146.259,140.021l-0.234-0.155l-0.132-0.036l-0.079,0.047
		l0.187,0.179l0.253-0.089l0.308,0.219l0.447,0.04l0.271,0.246l-0.485,0.274l-0.478-0.193l0.471,0.148l0.567,0.403l0.579-0.06
		l0.104-0.623l0.61-0.8l0.566-0.547l-0.358-0.12l-1.04-0.686l-1.279,0.015l-0.344,0.764l-0.127,0.064l-0.156,0.163l0.081,0.101
		l0.543,0.148l0.167,0.205L146.259,140.021L146.259,140.021z M195.319,172.062l0.191-0.5l-0.421-0.547l0.376-0.175l0.018-0.395
		l-0.09-0.365l1.25-0.061l1.272-0.153l0.275,0.026l0.133,0.215l-0.23,0.165l0.203,0.304l0.948,0.229l-0.001-0.12l-0.354-0.918
		l-0.532-0.172l-0.455-0.328l-1.157,0.073l-1.127-0.012l-0.224-0.177l0.404-0.319l0.271-0.007l-0.071-0.067l-0.189,0.124
		l-0.385-0.244l-1.202,0.358l-0.591,0.566l-0.041,1.122l0.989,1.89l1.15-0.127l-0.148-0.371l-0.27-0.072L195.319,172.062
		L195.319,172.062z M75.125,94.017l0.773,0.552l0.805,0.803l0.397,0.404l0.402,0.396l0.843,0.963l1.007,1.006l0.104,0.096
		l1.116,1.088l0.419,0.386l0.68,0.726l0.739,0.864l0.879,0.931l0.958,1.047l0.953,1.049l1.053,1.159l0.744,1.041l1.034,0.976
		l1.492,1.319l2.421,1.793l0.604,0.598l0.676,0.505l1.252,0.672l1.78,1.205l0.506,0.256l0.892,0.441l1.445,0.947l0.577,0.159
		l1.06,0.678l0.502,0.264l1.144,0.573l0.856,0.521l1.257,0.652l2.401,1.613l0.452,0.111l1.894,0.987l2.438,1.662l0.947,0.407
		l5.514,3.814l0.813,0.587l3.059,2.135l0.644,0.299l0.517,0.232l1.178,0.501l1.25,0.39l1.083-0.065l0.572-0.687l0.729-0.676
		l0.129-0.379l0.333-0.265l0.704-1.42l0.604-1.174l0.499-0.434l1.702-2.31l0.32-0.383l0.642-0.451l0.266-0.981l-0.829-1.18
		l-0.913-1.085l-1.212-1.009l-1.679-1.53l-0.536-0.663l-0.432-0.375l-0.979-1.024l-0.102-0.102l-0.642-0.756l-0.758-0.845
		l-0.871-0.941l-0.819-0.714l-0.565-0.706l-0.62-0.585l-0.702-0.707l-0.533-0.47l-0.909-0.901l-0.31-0.294l-1.019-0.991
		l-0.738-0.668l-0.604-0.602l-0.761-0.65l-1.45-1.365l-0.391-0.409l-0.495-0.511l-0.749-0.576l-0.676-0.799l-0.883-0.929
		l-0.994-0.822l-0.173-0.227l-0.497-0.503l-0.117-0.082l-1.681-1.533l-0.321-0.279l-2.728-1.938l-0.306-0.419l-0.266-0.091
		l-0.295-0.286l-0.679-0.429l-1.604-1.403l-1.623-1.155l-0.345-0.489l-2.185-1.607l-0.559-0.449l-0.302-0.37l-0.445-0.166
		l-0.383-0.569l-1.558-1.119l-1.628-1.377l-0.431-0.123l-0.924-0.656l-1.291-0.905l-0.968-0.783l-0.804-0.523l-0.344-0.451
		l-1.166-0.53l-1.528-1.066l-5.69-4.042l-0.535-0.106l-2.994-1.99l-0.718-0.29l-2.22-1.453l-0.543-0.144l-1.125-0.795l-1.304-0.822
		l-0.423-0.077l-0.9-0.505l-1.271-0.64l-0.402-0.283l-0.6-0.141l-1.836-1.196l-0.493-0.281l-1.539-0.76l-0.523-0.113l-1.221-0.805
		l-0.422-0.097l-0.627-0.337l-0.829-0.302l-1.2-0.725l-1.272-0.629l-1.132-0.597l-1.153-0.547l-1.024-0.498l-0.935-0.589
		l-0.459-0.073l-1.07-0.384l-0.933-0.345L49.4,59.927l-0.805-0.27l-1.204-0.446l-1.083-0.348L45.1,58.448l-0.948-0.427l-0.944-0.179
		l-0.955-0.282l-0.941-0.308l-0.813-0.443l-2.146-0.536l-1.782-0.458l-2.911-0.586l-0.145,0.266l0.655,0.717l-0.211,0.648
		l0.313,0.944l0.134,0.251l0.509,1.178l1,2.208l0.585,0.972l0.6,0.964l1.603,2.521l1.11,1.285l0.65,0.752l0.873,0.745l0.164,0.232
		l0.586,0.622l0.529,0.668l1.44,1.378l1.733,1.272l1.344,0.996l0.268,0.378l0.288,0.088l0.588,0.609l4.804,3.393l0.371,0.205
		l1.005,0.526l1.304,0.89l2.491,1.693l0.515,0.241l0.292,0.293l0.337,0.258l1.628,0.875l4.828,3.428l0.884,0.365l0.275,0.437
		l0.75,0.534l3.13,2.281l0.632,0.572l0.615,0.59l2.611,1.972L75.125,94.017L75.125,94.017z M129.876,130.508l1.172,0.729
		l1.363,0.617l0.589,0.143l2.378,1.607l0.476,0.119l1.506,1.002l1.53,1.058l0.546-0.173l1.431-1.955l0.183-1.431l-0.504-0.209
		l-0.487-0.297l-0.632-0.313l-0.766-0.361l-1.23-0.873l-0.28-0.41l-0.672-0.454l-0.516-0.214l-0.292-0.795l-2.83-1.889l-0.226,0.151
		l-0.877,1.127l-0.967,0.97l-0.099,0.316l-0.05,0.128l-0.589,0.762L129.876,130.508L129.876,130.508z M132.318,125.462l0.743-0.873
		l0.354-0.77l-0.087-0.184l-0.687,0.344l-2.463,3.389l-0.844,1.317l-0.008,0.233l0.237-0.144l0.592-0.801l0.387-0.404l0.598-0.595
		L132.318,125.462L132.318,125.462z M145.886,136.952l-0.837-0.146l-0.069,0.39l-0.662,0.125l0.079,0.514l0.858,0.312l0.765-0.047
		l0.75-0.443L145.886,136.952L145.886,136.952z M197.473,177.241l-0.153-0.221l-0.694,0.057l-2.518,0.111l-0.557,0.035l-0.054,0.078
		l0.062,0.114l2.208,0.237l1.229-0.146L197.473,177.241L197.473,177.241z M150.168,143.371l-0.031-0.472l-0.263-0.293l-0.938-0.224
		l-0.11,0.056l-0.067,0.248l0.138,0.229l0.967,0.488L150.168,143.371L150.168,143.371z M193.431,175.799l-1.851-0.32l-0.455,0.099
		l0.272,0.306L193.431,175.799L193.431,175.799z M174.88,163.885l-0.771,0.021l0.245,0.613l0.392,0.092l0.175-0.344L174.88,163.885
		L174.88,163.885z M198.095,175.604l-0.195,0.245l-0.077,0.258l0.219,0.077l0.716-0.142l0.293-0.607L198.095,175.604
		L198.095,175.604z M197.03,174.25l0.515-0.074l0.2-0.175l-0.029-0.145l-0.885-0.288l-0.254,0.184L197.03,174.25L197.03,174.25z
		 M147.216,142.267l0.815,0.75l0.229-0.029l-0.251-0.65L147.216,142.267L147.216,142.267z M185.11,172.354l-0.061-0.142l-1.265-0.54
		l-0.109,0.032l1.081,0.799L185.11,172.354L185.11,172.354z M183.229,172.447l-0.041-0.216l-1.157-0.644L183.229,172.447
		L183.229,172.447z M195.91,172.839l-0.456,0.136l-0.037,0.098l0.05,0.121l0.949,0.142l0.128-0.329L195.91,172.839L195.91,172.839z
		 M154.604,146.872l0.046,0.422l0.224,0.131l0.5-0.106l-0.204-0.523L154.604,146.872L154.604,146.872z M154.592,148.243l0.626-0.12
		l0.042-0.255l-0.657-0.104L154.592,148.243L154.592,148.243z M166.751,157.885l0.354,0.412l0.255-0.021l0.096-0.239l-0.295-0.231
		L166.751,157.885L166.751,157.885z M180.146,168.796l-0.281,0.021l-0.119,0.067l0.79,0.586l-0.01-0.136L180.146,168.796
		L180.146,168.796z M153.421,146.858l-0.522-0.072l-0.114,0.193l0.098,0.09l0.415,0.059l0.177-0.146L153.421,146.858
		L153.421,146.858z M144.623,139.004l0.159,0.2l0.513-0.022l0.021-0.097l-0.067-0.102L144.623,139.004L144.623,139.004z
		 M172.1,163.837l0.729,0.465L172.1,163.837L172.1,163.837z M163.213,154.7l-0.094-0.529l-0.34-0.15L163.213,154.7L163.213,154.7z
		 M162.986,153.476l-0.519-0.294l-0.193,0.156l0.303,0.24L162.986,153.476L162.986,153.476z M197.557,168.507l0.139,0.229
		l0.546-0.012l0.048-0.08l-0.066-0.119L197.557,168.507L197.557,168.507z M198.51,174.579l0.617,0.172l0.188-0.116l-0.143-0.188
		L198.51,174.579L198.51,174.579z M127.706,131.185l-0.375,0.518L127.706,131.185L127.706,131.185z M142.36,133.89l-0.288-0.211
		l-0.16,0.194l0.181,0.091L142.36,133.89L142.36,133.89z M156.919,149.162l-0.207-0.271l-0.32,0.322L156.919,149.162
		L156.919,149.162z M159.308,152.63l0.258,0.001l0.15-0.124l-0.065-0.104l-0.238-0.057L159.308,152.63L159.308,152.63z
		 M160.322,153.337l-0.44-0.229l-0.101,0.098l0.125,0.191L160.322,153.337L160.322,153.337z M163.179,156.045l0.495,0.357
		L163.179,156.045L163.179,156.045z M164.826,156.179l0.346,0.396l0.201-0.08l-0.027-0.137L164.826,156.179L164.826,156.179z
		 M167.148,156.369l-0.281-0.001l-0.172,0.139l0.196,0.178L167.148,156.369L167.148,156.369z M177.356,167.865l-0.28-0.007
		l-0.147,0.146l0.097,0.095L177.356,167.865L177.356,167.865z M178.843,168.302l-0.229-0.433l-0.365,0.021l0.227,0.302
		L178.843,168.302L178.843,168.302z M179.518,170.188l0.468-0.1l-0.303-0.203L179.518,170.188L179.518,170.188z M181.091,169.846
		l0.424,0.472l0.194-0.086l-0.024-0.127L181.091,169.846L181.091,169.846z M182.901,169.982l-0.37-0.009l-0.137,0.18l0.073,0.107
		l0.443-0.105L182.901,169.982L182.901,169.982z M128.858,129.542l-0.22,0.151l0.001,0.134l0.207-0.077L128.858,129.542
		L128.858,129.542z M142.105,134.714l-0.122-0.195l-0.195,0.044l0.117,0.175L142.105,134.714L142.105,134.714z M148.003,141.745
		l-0.131-0.209l-0.204,0.027l0.113,0.19L148.003,141.745L148.003,141.745z M153.844,148.061l-0.184-0.323l-0.183,0.07l0.027,0.114
		L153.844,148.061L153.844,148.061z M154.004,147.153l0.213-0.094l0.033-0.224l-0.21,0.084L154.004,147.153L154.004,147.153z
		 M155.546,149.599l0.308,0.355l0.121-0.015l0.021-0.199L155.546,149.599L155.546,149.599z M157.833,149.987l-0.234-0.063
		l-0.006,0.2l0.244,0.065L157.833,149.987L157.833,149.987z M161.674,153.187l-0.14,0.021l-0.075,0.119l0.01,0.134l0.21-0.047
		L161.674,153.187L161.674,153.187z M164.283,155.48l0.146,0.203l0.136-0.012l0.007-0.096l-0.209-0.145L164.283,155.48
		L164.283,155.48z M168.183,158.358l0.346-0.183l-0.097-0.188l-0.119,0.014L168.183,158.358L168.183,158.358z M168.575,159.063
		l0.069-0.113l-0.021-0.135l-0.231,0.1l0.062,0.195L168.575,159.063L168.575,159.063z M168.998,159.829l-0.03-0.128l-0.234-0.075
		l-0.017,0.088l0.192,0.15L168.998,159.829L168.998,159.829z M176.712,166.44l-0.189-0.336l-0.192,0.071l0.021,0.123L176.712,166.44
		L176.712,166.44z M177.789,167.116l-0.021,0.096l0.05,0.107l0.238,0.061l-0.031-0.188L177.789,167.116L177.789,167.116z
		 M178.779,169.118l-0.229-0.066l0.036,0.176l0.229,0.085L178.779,169.118L178.779,169.118z M185.879,173.236l-0.037-0.132
		l-0.105-0.072l-0.122-0.004l0.056,0.176L185.879,173.236L185.879,173.236z M186.201,174.12l-0.02,0.079l0.28,0.185l0.025-0.075
		l-0.164-0.175L186.201,174.12L186.201,174.12z M187.787,173.921l0.158,0.194l0.13,0.011l-0.007-0.092l-0.203-0.146L187.787,173.921
		L187.787,173.921z M187.718,174.946l0.145,0.201l0.205-0.028l-0.158-0.199L187.718,174.946L187.718,174.946z M190.57,174.13
		l-0.354-0.267L190.57,174.13L190.57,174.13z M190.525,174.983l-0.122-0.07l-0.21,0.025l0.148,0.211l0.22-0.029L190.525,174.983
		L190.525,174.983z M142.749,134.764l-0.104-0.002l0.122,0.107L142.749,134.764L142.749,134.764z M143.347,135.925l-0.092,0.023
		l0.075,0.07L143.347,135.925L143.347,135.925z M143.993,136.001L143.882,136l0.126,0.108L143.993,136.001L143.993,136.001z
		 M143.86,137.761l-0.037-0.089l-0.055,0.06L143.86,137.761L143.86,137.761z M144.066,138.247l0.045,0.091l0.052-0.056
		L144.066,138.247L144.066,138.247z M144.706,138.343l0.045,0.099l0.06-0.063L144.706,138.343L144.706,138.343z M149.657,144.025
		l-0.022-0.118l-0.118-0.006l0.021,0.116L149.657,144.025L149.657,144.025z M151.428,145.872l-0.092,0.033l0.072,0.063
		L151.428,145.872L151.428,145.872z M155.153,149.019l0.101-0.029l-0.077-0.071L155.153,149.019L155.153,149.019z M156.712,149.798
		l0.093-0.034l-0.068-0.062L156.712,149.798L156.712,149.798z M158.103,151.338l-0.102,0.036l0.075,0.068L158.103,151.338
		L158.103,151.338z M164.453,157.323l-0.04-0.094l-0.056,0.058L164.453,157.323L164.453,157.323z M165.669,157.136l-0.036-0.078
		l-0.048,0.053L165.669,157.136L165.669,157.136z M165.71,157.946l0.086-0.031l-0.062-0.058L165.71,157.946L165.71,157.946z
		 M166.409,157.326l0.051,0.087l0.117-0.006l-0.114-0.143L166.409,157.326L166.409,157.326z M170.155,161.07l0.083-0.021
		l-0.068-0.064L170.155,161.07L170.155,161.07z M170.535,161.983l0.029,0.078l0.05-0.049L170.535,161.983L170.535,161.983z
		 M172.549,162.079l0.051,0.082l0.117-0.006l-0.117-0.145L172.549,162.079L172.549,162.079z M179.427,155.649l-0.026-0.113
		l-0.115-0.009l0.03,0.109L179.427,155.649L179.427,155.649z M175.05,165.127l-0.095,0.033l0.07,0.065L175.05,165.127
		L175.05,165.127z M181.201,168.776l-0.091,0.039l0.024,0.127l0.128-0.006L181.201,168.776L181.201,168.776z M188.469,174.438
		l0.084-0.023l-0.065-0.063L188.469,174.438L188.469,174.438z M188.919,175.744l0.039,0.087l0.051-0.051L188.919,175.744
		L188.919,175.744z M189.497,175.819l0.027,0.119l0.096-0.116L189.497,175.819L189.497,175.819z M197.583,167.571l0.089-0.034
		l-0.068-0.061L197.583,167.571L197.583,167.571z"/>
	<polygon fill="#232734" points="123.67,128.192 122.669,127.674 123.188,127.58 123.567,127.771 124.936,128.691 125.949,129.231 
		125.32,129.479 125.671,129.771 125.711,130.159 124.199,129.524 123.072,128.833 122.545,128.632 121.815,128.022 
		121.361,127.898 120.162,126.958 120.119,126.825 120.296,126.63 120.438,126.633 120.562,126.702 123.594,128.786 
		124.138,128.873 124.925,129.233 124.863,129.104 	"/>
	<polygon fill="#232734" points="92.163,108.423 92.576,108.268 94.648,109.717 94.694,109.85 93.778,109.686 93.315,109.173 
		92.771,109.337 91.951,108.785 90.419,107.181 90.691,107.004 91.25,107.628 	"/>
	<polygon fill="#232734" points="38.115,60.488 39.912,64.608 39.714,64.812 39.311,64.289 37.935,61.048 37.912,60.635 	"/>
	<polygon fill="#232734" points="52.713,75.988 52.135,75.862 51.358,75.019 51.17,74.814 50.636,74.002 51.347,74.399 
		51.678,74.898 52.395,75.408 52.952,75.479 53.494,75.902 53.935,76.684 	"/>
	<polygon fill="#232734" points="112.821,102.977 112.7,103.346 110.591,103.743 109.625,104.025 109.445,103.856 110.027,103.468 	
		"/>
	<polygon fill="#232734" points="40.63,64.389 41.367,65.696 42.136,66.914 41.892,67.137 40.583,65.211 40.387,64.691 	"/>
	<polygon fill="#232734" points="93.483,90.899 93.652,90.68 96.801,89.854 97.066,89.935 97.116,90.058 97.056,90.149 96.36,90.28 
		94.565,90.714 93.738,90.927 93.477,90.857 	"/>
	<polygon fill="#232734" points="108.674,102.939 108.956,102.432 111.759,101.938 111.869,101.985 111.781,102.227 111.518,102.32 
			"/>
	<polygon fill="#232734" points="129.831,119.296 126.979,119.826 126.716,119.751 126.687,119.616 126.777,119.544 
		129.542,119.058 	"/>
	<polygon fill="#232734" points="117.28,109.768 117.377,109.385 119.834,108.969 120.038,109.31 	"/>
	<polygon fill="#232734" points="42.854,67.694 43.53,68.155 44.659,69.745 44.477,69.972 44.15,69.572 43.823,69.306 
		43.505,68.848 43.241,68.521 42.972,68.031 	"/>
	<polygon fill="#232734" points="66.842,84.839 67.135,84.843 69.562,86.586 69.649,87.145 68.876,86.466 67.104,85.172 	"/>
	<polygon fill="#232734" points="111.594,119.919 111.041,119.831 109.881,119.347 109.326,118.942 109.32,118.81 109.694,118.731 
		110.723,119.265 111.493,119.565 111.544,119.927 	"/>
	<polygon fill="#232734" points="116.68,123.759 118.725,125.522 118.479,125.521 	"/>
	<polygon fill="#232734" points="105.39,98.439 107.44,98.126 107.518,98.201 107.497,98.325 107.399,98.422 105.479,98.807 
		105.275,98.711 	"/>
	<polygon fill="#232734" points="45.673,59.921 44.625,60.313 43.763,60.697 43.701,60.325 43.901,60.127 45.429,59.685 	"/>
	<polygon fill="#232734" points="48.6,72.748 50.081,73.825 50.025,74.225 49.742,74.198 49.205,73.765 48.626,72.987 
		48.654,72.736 	"/>
	<polygon fill="#232734" points="101.121,93.338 99.098,93.716 99.208,93.365 100.85,93.049 	"/>
	<polygon fill="#232734" points="120.118,110.274 118.453,110.594 118.147,110.385 118.217,110.302 119.999,109.981 
		120.208,110.072 	"/>
	<polygon fill="#232734" points="105.869,96.983 105.813,97.229 105.698,97.305 104.731,97.556 103.916,97.787 103.946,97.456 	"/>
	<polygon fill="#232734" points="125.72,128.001 125.384,128.302 125.133,128.167 124.003,127.63 123.864,127.067 	"/>
	<polygon fill="#232734" points="57.956,67.065 58.103,66.835 59.585,66.079 59.857,66.038 60.118,66.301 58.973,66.768 
		58.203,67.084 57.948,67.026 	"/>
	<polygon fill="#232734" points="127.757,117.786 127.898,118.07 126.124,118.543 125.844,118.288 126.795,118.036 	"/>
	<polygon fill="#232734" points="75.43,76.662 75.706,76.356 77.157,75.847 77.567,75.823 77.526,76.077 75.679,76.679 
		75.422,76.622 	"/>
	<polygon fill="#232734" points="88.56,84.922 88.392,85.142 88.146,85.271 86.391,85.733 86.457,85.503 88.303,84.842 
		88.558,84.912 	"/>
	<polygon fill="#232734" points="123.626,115.686 123.722,115.285 125.382,115.03 125.671,115.28 125.58,115.352 	"/>
	<polygon fill="#232734" points="99.382,112.951 99.556,112.667 99.819,112.708 100.494,113.195 100.569,113.431 100.374,113.601 	
		"/>
	<polygon fill="#232734" points="48.333,62.53 48.284,62.469 48.477,62.115 50.061,61.536 50.021,61.812 49.126,62.221 	"/>
	<polygon fill="#232734" points="46.698,61.814 46.786,61.544 48.31,60.967 48.549,61.276 	"/>
	<polygon fill="#232734" points="38.601,57.82 39.396,57.77 39.212,58.117 38.687,58.253 37.896,57.934 37.837,57.719 37.919,57.61 
		38.556,57.315 38.642,57.368 	"/>
	<polygon fill="#232734" points="36.036,57.969 36.724,59.515 36.677,59.777 36.46,59.77 35.849,58.518 35.854,58.114 	"/>
	<polygon fill="#232734" points="130.125,122.538 130.295,122.321 130.548,122.212 132.055,121.948 132.03,122.29 130.384,122.63 
		130.128,122.557 	"/>
	<polygon fill="#232734" points="55.146,65.059 55.312,64.844 56.749,64.318 57.014,64.356 57.113,64.557 55.39,65.114 
		55.142,65.04 	"/>
	<polygon fill="#232734" points="131.067,121.654 129.761,121.899 129.522,121.554 131.146,121.237 	"/>
	<polygon fill="#232734" points="111.86,104.617 111.642,104.925 110.224,105.16 110.034,104.968 110.222,104.822 111.865,104.659 	
		"/>
	<polygon fill="#232734" points="40.964,59.52 41.033,59.082 42.05,58.563 42.326,58.529 42.559,58.777 	"/>
	<polygon fill="#232734" points="52.141,64.332 52.299,64.111 53.956,63.515 54.072,63.585 54.071,63.583 53.904,63.792 
		52.379,64.387 52.138,64.314 	"/>
	<polygon fill="#232734" points="113.879,106.013 114.013,105.689 115.357,105.416 115.547,105.621 	"/>
	<polygon fill="#232734" points="68.835,73.286 68.879,73.046 70.025,72.556 70.292,72.815 	"/>
	<polygon fill="#232734" points="104.748,96.105 104.604,96.475 103.091,96.985 103.147,96.516 	"/>
	<polygon fill="#232734" points="117.012,108.302 117.097,108.194 118.607,107.926 118.853,107.983 118.75,108.223 117.377,108.469 
		117.011,108.299 	"/>
	<polygon fill="#232734" points="122.594,113.314 122.511,113.424 121.062,113.825 121.059,113.512 122.101,113.16 122.598,113.336 
			"/>
	<polygon fill="#232734" points="101.868,95.442 101.954,95.334 103.602,95.068 103.699,95.126 103.591,95.406 102.245,95.639 
		101.862,95.411 	"/>
	<polygon fill="#232734" points="96.486,91.621 96.635,91.387 96.88,91.257 98.126,91.046 98.311,91.26 98.119,91.39 96.734,91.667 
		96.48,91.59 	"/>
	<polygon fill="#232734" points="116.641,107.328 116.353,107.622 115.103,107.917 114.795,107.691 114.847,107.594 116.52,107.269 
		116.643,107.339 	"/>
	<polygon fill="#232734" points="114.652,106.894 114.735,106.649 116.22,106.383 116.343,106.44 116.288,106.657 115.753,106.801 	
		"/>
	<polygon fill="#232734" points="45.357,61.213 45.444,60.958 46.774,60.599 46.849,60.828 46.742,60.921 	"/>
	<polygon fill="#232734" points="60.664,67.23 60.745,67.114 61.996,66.529 62.244,66.776 61.191,67.175 60.65,67.171 	"/>
	<polygon fill="#232734" points="66.786,70.217 66.771,70.451 65.483,70.915 65.355,70.866 65.347,70.651 	"/>
	<polygon fill="#232734" points="67.704,71.157 67.52,71.416 66.904,71.628 66.279,71.862 66.137,71.552 67.581,71.093 
		67.704,71.157 	"/>
	<polygon fill="#232734" points="71.707,88.291 71.308,88.106 70.575,87.125 70.656,86.892 70.871,86.969 71.458,87.727 	"/>
	<polygon fill="#232734" points="85.756,82.944 85.975,82.635 87.2,82.269 87.382,82.449 86.414,82.882 85.747,82.9 	"/>
	<polygon fill="#232734" points="88.354,83.711 88.065,83.998 86.703,84.292 86.588,84.217 86.589,84.226 86.877,83.938 
		88.235,83.652 88.356,83.722 	"/>
	<polygon fill="#232734" points="90.882,85.91 90.791,86.15 89.648,86.6 89.518,86.587 89.38,86.534 89.367,86.406 	"/>
	<polygon fill="#232734" points="85.719,101.427 85.956,101.441 86.066,101.521 86.688,102.44 86.719,102.578 86.613,102.775 
		86.488,102.742 85.839,101.84 	"/>
	<polygon fill="#232734" points="113.385,121.089 113.487,121.036 114.549,121.728 114.538,122.118 114.396,122.14 113.703,121.676 
			"/>
	<polygon fill="#232734" points="121.59,112.24 121.428,112.469 121.173,112.585 120.072,112.778 120.076,112.412 121.469,112.208 
		121.594,112.273 	"/>
	<polygon fill="#232734" points="128.774,121.155 128.922,120.785 130.196,120.61 130.284,120.682 130.18,120.907 	"/>
	<polygon fill="#232734" points="98.123,92.781 98.41,92.486 99.388,92.347 99.58,92.54 99.369,92.677 98.241,92.825 98.119,92.755 
			"/>
	<polygon fill="#232734" points="79.536,77.885 79.865,78.187 78.621,78.427 78.536,78.358 78.641,78.122 	"/>
	<polygon fill="#232734" points="60.694,68.653 60.853,68.433 62.104,67.91 62.226,67.975 62.223,67.961 62.068,68.186 
		60.81,68.689 60.688,68.625 	"/>
	<polygon fill="#232734" points="100.969,94.28 101.911,94.084 102.232,94.416 101.08,94.616 100.855,94.542 	"/>
	<polygon fill="#232734" points="113.458,104.341 113.186,104.675 112.356,104.818 111.86,104.617 111.865,104.659 111.958,104.555 
		113.466,104.399 	"/>
	<polygon fill="#232734" points="125.467,117.306 126.867,117.044 126.706,117.421 125.735,117.573 	"/>
	<polygon fill="#232734" points="60.688,68.625 60.617,68.746 59.378,69.334 59.31,69.267 59.331,69.135 59.929,68.791 
		60.445,68.583 60.694,68.653 	"/>
	<polygon fill="#232734" points="58.561,68.198 58.721,67.977 59.841,67.446 60.088,67.51 60.087,67.503 59.818,67.812 
		58.793,68.231 58.552,68.153 	"/>
	<polygon fill="#232734" points="83.812,81.029 82.756,81.412 82.55,81.241 82.587,81.135 83.51,80.779 	"/>
	<polygon fill="#232734" points="84.185,82.177 84.442,81.858 85.373,81.649 85.607,81.822 85.633,81.982 84.423,82.229 
		84.178,82.14 	"/>
	<polygon fill="#232734" points="125.969,116.164 126.234,116.327 126.28,116.489 125.342,116.684 125.147,116.457 125.191,116.358 
			"/>
	<polygon fill="#232734" points="79.565,79.473 79.676,79.132 80.642,79.019 80.554,79.264 	"/>
	<polygon fill="#232734" points="74.819,75.502 74.404,75.86 73.706,76.007 73.451,75.927 73.459,75.962 73.885,75.61 74.575,75.43 
		74.823,75.519 	"/>
	<polygon fill="#232734" points="94.244,89.316 94.399,89.097 95.458,88.814 95.421,89.107 94.357,89.371 94.24,89.297 	"/>
	<polygon fill="#232734" points="43.683,59.36 43.524,59.589 42.636,59.967 42.508,59.913 42.519,59.694 43.428,59.326 
		43.687,59.385 	"/>
	<polygon fill="#232734" points="72.454,74.892 72.629,74.673 73.735,74.391 73.54,74.767 72.568,74.943 72.449,74.87 	"/>
	<polygon fill="#232734" points="50.436,62.772 50.657,62.46 51.729,62.25 51.539,62.644 50.55,62.823 50.432,62.747 	"/>
	<polygon fill="#232734" points="85.747,82.9 85.519,83.222 84.53,83.403 84.574,83.161 85.638,82.869 85.756,82.944 	"/>
	<polygon fill="#232734" points="130.128,122.557 129.951,122.78 128.878,122.967 129.053,122.608 129.88,122.454 130.125,122.538 	
		"/>
	<polygon fill="#232734" points="62.226,67.975 62.378,67.759 63.468,67.463 63.416,67.738 62.342,68.034 62.223,67.961 	"/>
	<polygon fill="#232734" points="124.827,126.669 125.426,126.62 125.972,126.958 125.962,127.198 125.438,127.017 124.887,126.893 
			"/>
	<polygon fill="#232734" points="64.966,69.299 64.854,69.639 63.919,69.769 64.025,69.522 	"/>
	<polygon fill="#232734" points="94.24,89.297 94.012,89.619 93.102,89.813 92.871,89.724 92.879,89.76 93.171,89.468 
		94.122,89.246 94.244,89.316 	"/>
	<polygon fill="#232734" points="107.781,100.171 108.718,100.023 108.896,100.202 108.838,100.289 108.037,100.441 	"/>
	<polygon fill="#232734" points="95.516,110.436 96.485,110.94 96.574,111.201 96.3,111.194 	"/>
	<polygon fill="#232734" points="40.849,58.423 40.562,58.707 40.005,58.867 39.771,58.587 40.724,58.34 40.845,58.403 	"/>
	<polygon fill="#232734" points="108.855,101.468 109.021,101.247 109.835,101.121 109.941,101.333 109.112,101.515 
		108.852,101.433 	"/>
	<polygon fill="#232734" points="107.029,99.223 107.856,99.088 107.847,99.309 107.187,99.504 	"/>
	<polygon fill="#232734" points="48.654,72.736 48.196,72.406 48.006,71.781 48.166,71.792 48.648,72.618 48.6,72.748 	"/>
	<polygon fill="#232734" points="75.201,90.622 74.926,90.982 74.399,90.208 74.611,90.16 	"/>
	<polygon fill="#232734" points="57.273,65.481 56.908,65.995 56.144,66.091 56.152,66.137 56.657,65.712 57.282,65.537 	"/>
	<polygon fill="#232734" points="92.235,87.184 92.99,86.827 93.261,87.064 92.622,87.376 92.232,87.169 	"/>
	<polygon fill="#232734" points="88.371,104.642 88.961,105.468 88.828,105.461 	"/>
	<polygon fill="#232734" points="74.823,75.519 75.061,75.185 75.608,75.089 75.875,75.378 74.941,75.559 74.819,75.502 	"/>
	<polygon fill="#232734" points="46.491,71.251 47.506,72.021 47.552,72.155 47.422,72.17 46.53,71.501 46.544,71.242 	"/>
	<polygon fill="#232734" points="122.598,113.336 122.854,113.052 123.552,113.088 123.515,113.387 122.594,113.314 	"/>
	<polygon fill="#232734" points="77.736,76.89 78.75,76.697 78.621,76.938 78.06,77.074 77.723,76.835 	"/>
	<polygon fill="#232734" points="77.723,76.835 77.507,77.166 77.304,77.384 76.831,77.521 76.593,77.458 76.6,77.495 
		76.664,77.374 77.736,76.89 	"/>
	<polygon fill="#232734" points="102.781,114.878 102.514,114.83 102.195,114.578 102.735,114.427 102.884,114.641 	"/>
	<polygon fill="#232734" points="81.348,80.017 81.382,79.78 82.031,79.643 82.157,79.854 	"/>
	<polygon fill="#232734" points="120.188,111.26 120.93,111.124 121.066,111.343 120.188,111.264 	"/>
	<polygon fill="#232734" points="71.215,73.658 70.393,74.02 70.456,73.759 71.212,73.642 	"/>
	<polygon fill="#232734" points="43.687,59.385 44.486,59.036 44.431,59.291 43.683,59.36 	"/>
	<polygon fill="#232734" points="106.831,117.51 106.772,117.004 107.298,117.411 	"/>
	<polygon fill="#232734" points="86.588,84.217 86.333,84.536 85.794,84.614 85.844,84.352 86.589,84.226 	"/>
	<polygon fill="#232734" points="75.63,77.85 76.491,77.426 76.6,77.495 76.593,77.458 75.857,77.912 75.627,77.836 	"/>
	<polygon fill="#232734" points="95.677,91.709 95.426,92.062 94.878,92.17 94.907,91.909 95.685,91.765 	"/>
	<polygon fill="#232734" points="74.67,78.239 75.519,77.787 75.63,77.85 75.627,77.836 74.66,78.186 	"/>
	<polygon fill="#232734" points="56.144,66.091 55.891,66.446 55.385,66.535 55.312,66.476 55.321,66.348 56.152,66.137 	"/>
	<polygon fill="#232734" points="75.422,76.622 74.568,77.072 74.458,77.007 74.459,77.016 75.206,76.579 75.43,76.662 	"/>
	<polygon fill="#232734" points="91.873,88.688 92.838,88.332 92.828,88.274 92.101,88.764 91.87,88.669 	"/>
	<polygon fill="#232734" points="57.948,67.026 57.702,67.373 57.155,67.457 57.145,67.297 57.956,67.065 	"/>
	<polygon fill="#232734" points="57.89,79.099 58.075,78.927 58.384,79.106 58.337,79.344 58.005,79.328 	"/>
	<polygon fill="#232734" points="122.396,114.578 122.116,114.849 121.874,114.828 121.752,114.624 121.833,114.521 122.402,114.61 
			"/>
	<polygon fill="#232734" points="51.933,63.109 51.11,63.537 51.277,63.193 51.938,63.135 	"/>
	<polygon fill="#232734" points="37.534,56.958 36.911,57.253 37.257,56.744 	"/>
	<polygon fill="#232734" points="92.232,87.169 91.266,87.53 91.271,87.562 92.123,87.121 92.235,87.184 	"/>
	<polygon fill="#232734" points="96.757,93.218 97.722,92.846 97.718,92.821 96.857,93.262 96.752,93.188 	"/>
	<polygon fill="#232734" points="88.356,83.722 88.829,83.521 89.005,83.661 88.95,83.774 88.717,83.883 88.354,83.711 	"/>
	<polygon fill="#232734" points="88.961,84.862 89.762,84.743 89.752,84.693 88.957,84.838 	"/>
	<polygon fill="#232734" points="68.503,72.072 68.856,72.003 68.942,72.104 68.804,72.281 68.463,72.201 	"/>
	<polygon fill="#232734" points="67.704,71.157 67.989,70.872 68.334,71.123 67.946,71.24 67.704,71.157 	"/>
	<polygon fill="#232734" points="93.242,88.257 93.69,88.019 94.041,88.128 94.034,88.091 93.955,88.209 93.235,88.222 	"/>
	<polygon fill="#232734" points="71.212,73.642 71.654,73.352 71.866,73.605 71.215,73.658 	"/>
	<polygon fill="#232734" points="108.852,101.433 108.261,101.631 108.178,101.573 108.186,101.446 108.518,101.283 
		108.855,101.468 	"/>
	<path fill="#232734" d="M104.632,115.884l0.638,0.406L104.632,115.884z"/>
	<polygon fill="#232734" points="113.466,104.399 113.97,104.187 114.142,104.33 114.076,104.437 113.828,104.531 113.458,104.341 	
		"/>
	<polygon fill="#232734" points="120.188,111.264 119.896,111.556 119.535,111.318 120.188,111.26 	"/>
	<polygon fill="#232734" points="123.203,114.487 122.396,114.578 122.402,114.61 123.194,114.427 	"/>
	<polygon fill="#232734" points="123.194,114.427 123.999,114.32 124,114.324 123.203,114.487 	"/>
	<polygon fill="#232734" points="57.683,65.456 58.217,65.168 58.377,65.351 58.3,65.427 57.679,65.431 	"/>
	<polygon fill="#232734" points="54.072,63.585 54.369,63.295 54.733,63.531 54.071,63.583 	"/>
	<polygon fill="#232734" points="51.938,63.135 52.464,62.843 52.617,63.02 52.542,63.102 51.933,63.109 	"/>
	<path fill="#232734" d="M64.402,83.083l-0.578-0.437L64.402,83.083z"/>
	<polygon fill="#232734" points="95.685,91.765 96.486,91.621 96.48,91.59 96.296,91.797 95.911,91.856 95.677,91.709 	"/>
	<polygon fill="#232734" points="60.369,80.437 60.454,80.656 60.202,80.765 59.999,80.633 60.019,80.505 60.245,80.384 	"/>
	<polygon fill="#232734" points="84.178,82.14 83.899,82.427 83.561,82.212 84.185,82.177 	"/>
	<polygon fill="#232734" points="73.012,88.988 72.435,88.411 73.002,88.739 72.966,88.996 	"/>
	<polygon fill="#232734" points="78.47,93.434 78.433,93.358 78.559,93.166 78.651,93.172 78.657,93.293 	"/>
	<polygon fill="#232734" points="72.449,74.87 72.173,75.165 72.053,75.176 72.028,75.043 72.454,74.892 	"/>
	<polygon fill="#232734" points="115.81,108.498 115.423,108.776 115.812,108.51 	"/>
	<polygon fill="#232734" points="60.65,67.171 60.423,67.483 60.087,67.503 60.088,67.51 60.664,67.23 	"/>
	<polygon fill="#232734" points="84.131,98.805 84.104,99.015 83.927,99.064 83.926,98.942 83.998,98.836 	"/>
	<polygon fill="#232734" points="73.451,75.927 73.061,76.25 73.459,75.962 	"/>
	<polygon fill="#232734" points="121.594,112.273 121.938,112.154 122.051,112.38 121.94,112.419 121.59,112.24 	"/>
	<polygon fill="#232734" points="35.734,56.219 35.772,56.409 35.649,56.416 35.523,56.215 	"/>
	<polygon fill="#232734" points="123.999,114.32 124.479,114.473 124,114.324 	"/>
	<polygon fill="#232734" points="55.461,77.415 55.901,77.588 55.926,77.708 55.746,77.79 	"/>
	<polygon fill="#232734" points="61.996,81.704 62.37,81.802 62.351,82.012 62.214,82.025 62.102,81.946 	"/>
	<polygon fill="#232734" points="92.871,89.724 92.599,90.026 92.478,90.041 92.452,89.909 92.879,89.76 	"/>
	<polygon fill="#232734" points="85.278,100.574 85.318,100.778 85.097,100.713 85.049,100.521 	"/>
	<polygon fill="#232734" points="79.437,94.532 79.493,94.452 79.726,94.559 79.604,94.719 	"/>
	<polygon fill="#232734" points="55.142,65.04 54.909,65.315 54.575,65.325 54.584,65.38 54.803,65.064 55.146,65.059 	"/>
	<polygon fill="#232734" points="57.282,65.537 57.683,65.456 57.679,65.431 57.273,65.481 	"/>
	<polygon fill="#232734" points="54.575,65.325 54.36,65.446 54.584,65.38 	"/>
	<polygon fill="#232734" points="52.138,64.314 51.943,64.446 51.915,64.287 52.141,64.332 	"/>
	<polygon fill="#232734" points="46.544,71.242 46.431,71.033 46.534,71.022 46.491,71.251 	"/>
	<polygon fill="#232734" points="50.432,62.747 50.181,62.825 50.222,62.735 50.436,62.772 	"/>
	<polygon fill="#232734" points="76.564,91.596 76.609,91.686 76.459,91.737 76.435,91.612 	"/>
	<polygon fill="#232734" points="74.66,78.186 74.453,78.305 74.445,78.205 74.67,78.239 	"/>
	<polygon fill="#232734" points="88.957,84.838 88.56,84.922 88.558,84.912 88.961,84.862 	"/>
	<polygon fill="#232734" points="81.229,95.985 81.23,96.109 81.109,96.133 81.105,96.006 	"/>
	<polygon fill="#232734" points="74.062,77.096 74.459,77.016 74.458,77.007 74.056,77.061 	"/>
	<polygon fill="#232734" points="89.762,84.743 89.963,84.632 89.998,84.732 89.752,84.693 	"/>
	<polygon fill="#232734" points="74.056,77.061 73.8,77.141 73.836,77.052 74.062,77.096 	"/>
	<polygon fill="#232734" points="82.387,97.222 82.476,97.246 82.498,97.354 82.342,97.289 	"/>
	<polygon fill="#232734" points="90.862,87.585 90.614,87.679 90.646,87.599 90.87,87.632 	"/>
	<polygon fill="#232734" points="91.266,87.53 90.862,87.585 90.87,87.632 91.271,87.562 	"/>
	<polygon fill="#232734" points="91.87,88.669 91.671,88.812 91.634,88.648 91.873,88.688 	"/>
	<polygon fill="#232734" points="93.235,88.222 92.828,88.274 92.838,88.332 93.242,88.257 	"/>
	<polygon fill="#232734" points="94.041,88.128 94.306,88.037 94.277,88.126 94.034,88.091 	"/>
	<polygon fill="#232734" points="93.477,90.857 93.282,90.976 93.221,90.905 93.483,90.899 	"/>
	<polygon fill="#232734" points="96.752,93.188 96.574,93.312 96.54,93.177 96.757,93.218 	"/>
	<polygon fill="#232734" points="98.119,92.755 97.718,92.821 97.722,92.846 98.123,92.781 	"/>
	<polygon fill="#232734" points="101.862,95.411 101.659,95.543 101.634,95.383 101.868,95.442 	"/>
	<polygon fill="#232734" points="72.966,88.996 73.098,89.224 73.012,88.988 	"/>
	<polygon fill="#232734" points="40.845,58.403 41.066,58.275 41.095,58.458 40.849,58.423 	"/>
	<polygon fill="#232734" points="116.209,108.43 115.81,108.498 115.812,108.51 116.212,108.443 	"/>
	<polygon fill="#232734" points="116.643,107.339 117.04,107.252 117.045,107.28 116.641,107.328 	"/>
	<polygon fill="#232734" points="116.607,108.352 116.209,108.43 116.212,108.443 116.614,108.389 	"/>
	<polygon fill="#232734" points="117.04,107.252 117.265,107.128 117.296,107.312 117.045,107.28 	"/>
	<polygon fill="#232734" points="116.614,108.389 117.012,108.302 117.011,108.299 116.607,108.352 	"/>
	<polygon fill="#232734" points="111.544,119.927 111.661,120.135 111.558,120.143 111.594,119.919 	"/>
	<polygon fill="#232734" points="58.552,68.153 58.341,68.276 58.318,68.171 58.561,68.198 	"/>
	<polygon fill="#232734" points="190.723,165.583 190.461,165.909 189.496,166.413 188.232,168.188 188.026,170.3 187.798,170.468 
		187.979,167.563 188.492,166.841 189.372,166.065 190.33,165.585 190.728,165.615 	"/>
	<polygon fill="#232734" points="184.46,167.519 184.373,167.141 184.621,166.489 185.07,166 185.138,165.706 186.202,164.586 
		187.135,163.907 188.986,163.628 188.788,163.846 187.529,164.227 186.359,164.868 	"/>
	<polygon fill="#232734" points="192.325,167.774 192.049,168.083 191.129,168.952 190.913,170.169 190.734,170.54 190.743,170.538 
		190.548,170.044 190.677,169.171 191.585,167.894 192.093,167.739 192.337,167.825 	"/>
	<polygon fill="#232734" points="193.813,172.69 193.285,173.437 192.765,172.624 192.566,172.116 192.646,171.864 192.588,171.878 
		193.19,172.584 	"/>
	<polygon fill="#232734" points="189.121,169.374 189.038,169.263 189.019,169.138 190.089,167.743 190.078,167.882 189.073,169.38 
			"/>
	<polygon fill="#232734" points="185.095,167.611 185.463,167.081 185.593,167.052 185.642,167.132 185.347,168.172 
		185.239,168.233 185.102,168.07 	"/>
	<polygon fill="#232734" points="188.919,163.641 190.194,163.456 190.421,163.597 190.327,163.691 189.149,163.77 	"/>
	<polygon fill="#232734" points="192.333,171.296 191.968,170.942 191.815,170.048 191.882,169.935 191.859,169.938 
		192.149,170.225 192.355,171.183 192.289,171.306 	"/>
	<polygon fill="#232734" points="184.265,168.787 184.124,168.576 184.116,168.022 184.455,167.451 184.532,167.556 
		184.547,167.799 	"/>
	<polygon fill="#232734" points="193.296,167.41 192.824,167.786 192.325,167.774 192.337,167.825 193.069,167.368 193.302,167.446 
			"/>
	<polygon fill="#232734" points="186.437,170.663 186.911,170.45 187.088,170.588 187.033,170.702 186.797,170.812 186.433,170.636 
			"/>
	<polygon fill="#232734" points="191.882,169.935 191.735,169.727 191.721,169.324 192.037,169.583 191.859,169.938 	"/>
	<polygon fill="#232734" points="192.646,171.864 192.347,171.63 192.333,171.296 192.289,171.306 192.588,171.878 	"/>
	<polygon fill="#232734" points="191.121,165.514 190.722,165.583 190.728,165.615 191.129,165.557 	"/>
	<polygon fill="#232734" points="191.129,165.557 191.528,165.487 191.521,165.442 191.121,165.514 	"/>
	<polygon fill="#232734" points="191.528,165.487 191.929,165.421 191.921,165.374 191.521,165.442 	"/>
	<polygon fill="#232734" points="191.929,165.421 192.331,165.349 192.324,165.313 191.921,165.374 	"/>
	<polygon fill="#232734" points="187.84,171.658 188.049,171.534 188.075,171.698 187.836,171.636 	"/>
	<polygon fill="#232734" points="193.302,167.446 193.492,167.333 193.548,167.396 193.296,167.41 	"/>
	<polygon fill="#232734" points="177.382,164.601 177.248,164.37 177.282,163.806 177.488,162.979 177.717,162.31 177.955,161.8 
		179.203,160.036 179.875,159.524 181.132,158.889 181.399,158.944 181.104,159.248 179.381,160.302 178.226,161.927 
		177.663,163.659 	"/>
	<polygon fill="#232734" points="185.611,161.936 185.309,162.226 184.639,162.431 183.708,163.147 182.211,165.198 
		181.802,166.696 181.524,167.191 181.284,166.96 181.296,167.021 181.441,166.78 181.864,165.267 182.787,163.877 183.756,162.57 
		185.347,161.871 	"/>
	<polygon fill="#232734" points="180.17,165.125 180.064,165.036 180.306,163.974 180.668,163.551 181.411,162.915 181.646,162.823 
		180.562,164.112 180.127,165.131 	"/>
	<polygon fill="#232734" points="183.237,160.269 182.95,160.564 181.986,160.784 181.869,160.707 181.874,160.729 182.292,160.377 
		182.983,160.219 183.24,160.292 	"/>
	<polygon fill="#232734" points="184.67,160.228 184.573,160.327 183.603,160.443 183.237,160.269 183.24,160.292 183.439,160.142 
		184.326,160.015 184.676,160.264 	"/>
	<polygon fill="#232734" points="184.676,160.264 184.755,160.161 185.71,160.296 185.703,160.257 184.879,160.375 184.67,160.228 	
		"/>
	<polygon fill="#232734" points="181.814,167.698 181.494,168.228 181.396,167.364 181.517,167.13 181.686,167.436 181.825,167.759 
			"/>
	<polygon fill="#232734" points="183.281,161.739 183.514,161.432 183.637,161.403 183.693,161.589 183.273,161.694 	"/>
	<polygon fill="#232734" points="180.39,167.772 180.741,167.679 180.861,167.899 180.747,167.931 180.387,167.751 	"/>
	<polygon fill="#232734" points="183.273,161.694 183.047,161.815 183.038,161.7 183.281,161.739 	"/>
	<polygon fill="#232734" points="181.284,166.96 181.021,167.047 181.06,166.974 181.296,167.021 	"/>
	<polygon fill="#232734" points="185.71,160.296 185.895,160.174 185.96,160.237 185.703,160.257 	"/>
	<polygon fill="#232734" points="137.303,133.003 137.407,133.268 137.777,133.317 138.56,133.748 138.782,133.786 138.928,134.294 
		138.122,134.399 137.413,134.312 137.291,134.087 136.933,133.933 136.827,133.671 136.546,133.642 136.548,133.28 	"/>
	<polygon fill="#232734" points="133.775,131.696 133.436,131.562 133.266,131.212 132.984,131.162 133.095,130.821 
		133.624,130.685 133.773,131.081 134.486,131.039 	"/>
	<polygon fill="#232734" points="135.409,132.37 134.738,132.507 134.339,132.006 135.035,131.749 135.187,131.983 135.656,131.903 
			"/>
	<polygon fill="#232734" points="135.657,132.685 136.487,132.522 136.555,132.716 136.461,132.819 135.776,133.01 135.55,132.933 	
		"/>
	<polygon fill="#232734" points="132.547,130.505 132.038,130.61 131.743,130.219 132.347,130.181 	"/>
	<polygon fill="#232734" points="131.434,130.015 131.302,130.028 131.296,129.9 131.425,129.882 	"/>
	<polygon fill="#232734" points="171.833,161.007 171.099,160.479 171.615,160.287 171.699,160.169 171.523,159.745 
		170.727,159.517 170.957,159.378 171.807,159.366 172.525,158.751 172.416,159.562 172.081,160.286 172.825,160.605 
		172.312,160.765 	"/>
	<polygon fill="#232734" points="170.322,158.179 170.271,157.79 171.404,156.157 173.523,155.234 173.783,155.293 173.484,155.579 
		171.503,156.513 	"/>
	<polygon fill="#232734" points="178.403,157.219 178.637,157.082 179.718,156.898 179.721,157.254 178.727,157.401 
		178.389,157.161 	"/>
	<polygon fill="#232734" points="182.296,158.179 182.105,158.442 181.702,158.503 181.316,158.423 180.633,158.464 
		180.982,158.094 181.876,157.966 	"/>
	<polygon fill="#232734" points="177.029,157.646 177.31,157.356 178.403,157.219 178.389,157.161 178.146,157.504 177.26,157.691 
		177.024,157.614 	"/>
	<polygon fill="#232734" points="173.679,157.337 172.801,158.431 172.77,158.271 173.433,157.405 173.692,157.396 	"/>
	<polygon fill="#232734" points="178.766,159.184 177.812,159.871 177.568,159.802 178.524,159.146 	"/>
	<polygon fill="#232734" points="174.415,156.81 174.028,157.335 173.679,157.337 173.692,157.396 174.082,156.89 174.425,156.854 	
		"/>
	<polygon fill="#232734" points="175.15,156.281 174.76,156.804 174.415,156.81 174.425,156.854 174.81,156.333 175.157,156.313 	
		"/>
	<polygon fill="#232734" points="170.228,158.812 169.964,158.617 170.318,158.116 170.419,158.464 	"/>
	<polygon fill="#232734" points="174.518,155.167 174.994,155.133 175.218,155.263 	"/>
	<polygon fill="#232734" points="175.716,155.968 175.489,156.282 175.15,156.281 175.157,156.313 175.296,156.104 175.728,156.02 	
		"/>
	<polygon fill="#232734" points="179.33,158.883 179.16,159.087 178.698,159.202 178.963,158.903 	"/>
	<polygon fill="#232734" points="179.896,158.58 179.724,158.775 179.266,158.9 179.433,158.701 	"/>
	<path fill="#232734" d="M173.716,155.308l0.47-0.079L173.716,155.308z"/>
	<path fill="#232734" d="M174.117,155.24l0.466-0.081L174.117,155.24z"/>
	<path fill="#232734" d="M175.155,155.271l0.464-0.083L175.155,155.271z"/>
	<path fill="#232734" d="M175.551,155.201l0.467-0.079L175.551,155.201z"/>
	<polygon fill="#232734" points="175.53,158.702 175.672,158.909 175.603,158.983 175.588,158.692 	"/>
	<polygon fill="#232734" points="177.024,157.614 176.62,157.665 176.627,157.712 177.029,157.646 	"/>
	<path fill="#232734" d="M180.299,158.517l-0.465,0.076L180.299,158.517z"/>
	<path fill="#232734" d="M180.698,158.449l-0.468,0.079L180.698,158.449z"/>
	<polygon fill="#232734" points="182.699,158.106 182.504,158.378 182.237,158.187 	"/>
	<polygon fill="#232734" points="167.448,155.786 167.366,155.409 167.624,154.61 167.9,153.817 168.547,153.128 169.162,152.391 
		169.973,152.232 169.261,152.763 168.351,153.922 168.021,154.53 	"/>
	<polygon fill="#232734" points="172.677,153.825 172.491,154.087 171.312,154.418 170.415,155.079 169.869,155.743 
		169.134,156.173 169.13,155.927 169.764,155.392 170.397,154.628 170.878,154.343 171.195,154.055 172.562,153.772 
		172.681,153.847 	"/>
	<path fill="#232734" d="M169.905,152.247l0.468-0.079L169.905,152.247z"/>
	<polygon fill="#232734" points="172.681,153.847 173.081,153.78 173.078,153.759 172.677,153.825 	"/>
	<path fill="#232734" d="M170.018,158.608l-0.46,0.08L170.018,158.608z"/>
	<polygon fill="#232734" points="182.964,166.351 182.989,166.106 183.184,165.98 183.253,166.169 	"/>
	<polygon fill="#232734" points="183.228,168.745 183.599,168.669 183.693,168.89 183.563,168.917 183.222,168.69 	"/>
	<polygon fill="#232734" points="181.825,167.759 182.016,167.633 182.08,167.687 181.814,167.698 	"/>
	<polygon fill="#232734" points="184.764,163.994 184.682,164.036 184.646,163.899 184.759,163.876 	"/>
	<polygon fill="#232734" points="159.796,150.7 159.46,150.044 158.988,149.771 159.501,149.745 159.823,149.544 159.91,149.08 
		160.46,148.307 161.821,147.587 162.259,147.525 162.621,147.719 161.452,148.155 160.527,148.689 160.338,148.966 
		160.008,150.185 	"/>
	<polygon fill="#232734" points="164.629,149.842 164.199,150.354 163.829,150.398 164.162,149.989 	"/>
	<path fill="#232734" d="M160.92,151.091l-0.46,0.078L160.92,151.091z"/>
	<polygon fill="#232734" points="165.646,154.853 165.104,154.407 164.844,153.922 165.353,153.704 165.768,153.12 165.87,153.362 
		165.838,153.765 166.58,154.276 166.025,154.259 	"/>
	<polygon fill="#232734" points="167.534,151.204 166.669,151.921 165.771,153.185 165.714,152.797 166.551,151.61 167.27,151.183 	
		"/>
	<polygon fill="#232734" points="169.665,150.618 170.17,150.969 169.956,151.112 169.066,151.217 168.669,151.013 169.34,150.844 	
		"/>
	<polygon fill="#232734" points="168.731,151.007 167.468,151.222 167.984,150.855 	"/>
	<polygon fill="#232734" points="163.959,152.196 163.562,152.269 163.569,152.312 163.968,152.249 	"/>
	<polygon fill="#232734" points="163.968,152.249 164.18,152.142 164.187,152.245 163.959,152.196 	"/>
	<polygon fill="#232734" points="164.104,153.058 164.304,152.944 164.328,153.038 164.093,152.999 	"/>
	<path fill="#232734" d="M159.549,146.59l-0.468,0.079L159.549,146.59z"/>
	<path fill="#232734" d="M159.948,146.521l-0.468,0.081L159.948,146.521z"/>
	<polygon fill="#232734" points="195.312,172.007 194.954,172.079 194.849,171.871 194.977,171.859 195.319,172.062 	"/>
	<polygon fill="#232734" points="197.479,171.442 197.978,171.788 197.864,171.853 196.884,171.76 197.273,171.612 	"/>
	<path fill="#232734" d="M197.92,171.796l0.457-0.078L197.92,171.796z"/>
	<polygon fill="#232734" points="198.087,172.613 198.279,172.484 198.354,172.552 198.079,172.569 	"/>
	<path fill="#232734" d="M193.717,173.743l0.864-0.146L193.717,173.743z"/>
	<polygon fill="#232734" points="159.495,151.13 159.03,151.161 158.801,151.036 	"/>
</g>
</svg>
