<?xml version="1.0" encoding="utf-8"?>
<!-- Generator: Adobe Illustrator 15.0.2, SVG Export Plug-In . SVG Version: 6.00 Build 0)  -->
<!DOCTYPE svg PUBLIC "-//W3C//DTD SVG 1.1//EN" "http://www.w3.org/Graphics/SVG/1.1/DTD/svg11.dtd">
<svg version="1.1" id="Layer_1" xmlns="http://www.w3.org/2000/svg" xmlns:xlink="http://www.w3.org/1999/xlink" x="0px" y="0px"
	 width="143px" height="143px" viewBox="0 0 143 143" enable-background="new 0 0 143 143" xml:space="preserve">
<g id="lavanda">
	<path fill="#232734" d="M64.015,81.792l-0.083-0.315l-0.272-0.248l-1.834-1.504l-0.653-0.521l-0.642-0.261l-2.299-0.963
		l-0.44-0.332l-0.321-0.222l-0.776-1.194l0.071-0.625l0.752-0.426l1.736,0.861l2.169,1.531l0.821,0.544l0.185-0.647l0.541-0.363
		l1.005,0.729l-0.029-1.22l-0.545-1.499l-0.29-0.317l0.006-0.394l-0.853-0.618l-0.561-0.004l-0.919,0.28l-1.882,0.867l-2.368-0.26
		l-0.29-0.268l0.545-0.072l1.246,0.138l1.254-0.016l0.923-0.595l1.442-0.539l1.029-0.375l0.225-1.542l-1.538-4.228l-0.424-0.507
		l-0.847-0.687l-0.134,0.009l-0.082,0.227l0.864,2.366l0.636,1.078l-0.088,0.812l-0.31,0.067l-0.713-0.826l-0.643-0.906
		l-0.805-0.955l-0.685-0.978l-1.064-0.457l0.052,1.158l1.313,1.247l0.792,0.784l0.684,0.873l0.507,0.66l0.398,0.796l0.838,0.345
		l-0.086,0.202l-1.104,0.16l-1.212,0.336l-0.404-0.028l-0.265,0.06l-2.192,0.158l-0.812-0.197l-0.817-0.058l-0.15,0.213l0.141,0.386
		l0.356,0.246l1.015,0.473l0.177,0.197l-0.537,0.086l-0.548-0.121L54.32,73.77l-0.022-1.289l0.356-0.174l1.78,0.317l2.064,0.042
		l0.495-0.241l-0.118-0.2l-0.778-0.279l-1.115-0.524l-0.826-0.704l0.218-0.796l1.553,0.523l0.093-0.186l-1.821-1.708l-0.379-0.397
		l-0.493-0.468l-0.562-0.4l-0.741-0.628l-2.672-2.244l-0.612-0.291L49.86,63.7l-0.59,0.243l-0.599,0.344l-0.649,0.261l-0.555,0.203
		l-2.737-0.865l-0.467-0.529l1.256-0.54l0.453,0.05l1.134-0.502l-0.262-0.315l-0.84-0.497l-0.682-0.469l-0.053-0.794l1.214,0.253
		l0.265-0.031l0.161,0.171l0.049-0.09l-0.232-0.033l-0.175-0.369l-0.427-0.113l-0.208-0.159l-1.361-0.95l-0.913-0.628l-0.93-0.609
		l-0.261-0.106l-0.624,0.227l-0.79,0.82l-0.631,0.261l-1.519-0.066l-1.265-0.456l-0.167-0.33l0.214-0.382l1.109-0.683l-1.364-0.786
		l-0.366-0.835l-0.889-0.354l-0.999-0.499l-0.809-0.389l-0.372-0.669l0.264,0.019l0.679,0.479l0.915,0.325l0.358,0.211l1.555,0.607
		l0.938,0.198l0.067-0.244l-0.179-0.206l-3.029-1.427l-1.214-0.299l-0.23,0.114l-0.066,0.255l-0.271,0.002l-0.747-0.481l0.163-0.333
		l0.59-0.03l1.235,0.089l0.938,0.266l1.021,0.455l0.479,0.231l0.526-0.709l0.351-0.128l1.588,0.81l0.618,0.56l0.548,0.189
		l0.142-0.472l0.322-0.401l0.412,0.017l0.691,0.679l0.625,0.81l0.591,1.625l0.692,0.512l1.131,0.55l0.91,0.642l0.291,0.161
		l0.97-0.008l0.874,0.326l0.5-0.086l0.191,0.185l0.188,0.664l0.152,1.107l-0.61,1.042l-1.499-0.23l-0.537,0.072l-0.365-0.176
		l-0.359-0.169l-0.17-0.164l-0.048,0.095l0.242,0.016l0.358,0.169l0.367,0.177l1.346,0.685l0.725-0.175l0.277,0.256l-0.14,0.244
		l-1.21,0.266l-0.546,0.08l-1.365,0.232l-0.901,0.35l-0.058,0.137l1.521,0.673l1.332-0.387l2.167-0.809l0.311,0.197l1.864,1.46
		l1.723,1.407l3.123,2.765l0.446,0.329l0.257-0.003l0.147,0.333l0.312,0.094l0.144,0.349l0.17,0.042l0.025-0.118l-0.362-0.229
		l-0.138-0.342l-0.315-0.094l-0.178-0.486l-1.164-0.979l-0.433-0.9L54.57,65.23l-1.654-1.262l-0.568-0.396l-1.575-1.084
		l-0.286-0.544l0.241-0.797l-0.045-0.996l-0.247-0.287l0.017-0.543l-0.098-0.404l-0.025,0.048l0.249,0.053l0.65,1.682l0.057,0.834
		l0.172,0.208l3.79,3.057l1.385,0.91l1.655,0.754l0.819,0.517l0.007-0.517l0.282-1.238l0.511-0.221l0.535,0.083l1.022,0.773
		l0.385,0.669l0.146-0.116l-0.055-0.692l-0.137-0.837l-0.476-0.294l-1.432-0.636l-1.694-1.621l-1.039-2.821l-0.063-0.896
		l0.024-1.215l0.117-0.07l-0.015-0.006l0.251,1.354l1.232,3.471l1,1.018l1.823,0.852l0.101-0.104l-0.021-1.077l-1.496-0.407
		l-0.531-0.491l-0.62-1.379l-0.358-0.836l-0.283-0.853l-0.184-0.202l-0.206-1.272l0.259,0.15l1.397,3.68l1.171,0.959l0.502-0.111
		l-0.151-0.794l0.005-0.623l-0.359-1.001l-0.145-0.964l-0.14-0.8l-1.146-0.599l-0.835-0.724l0.146-0.307l0.143-0.019l1.244,0.887
		l0.18-0.397l-1.056-0.702l-1.239-0.647l-1.227-0.625l-0.431-0.374l-0.383,0.139l-0.276,0.32l-1.519-0.239l-0.776,0.843l-1.19,0.433
		l-0.177-0.09l-0.479-0.523l-0.805,0.293l-0.975-0.108l-0.896-0.443l-0.346-0.539l-0.075-0.97l-0.334-0.918l0.297-0.416l0.138-0.024
		l1.828,0.685l1.336,0.148l0.264-0.294l0.817-0.08l-0.539-1.602l-0.587-0.312l-0.537-0.102l-0.163-0.221l-0.561-1.439l-0.898-1.573
		l-0.693-0.871l-0.415-0.368l-0.12-0.025l0.486,1.518l0.38,0.477l0.6,0.934l0.005,0.128l-0.222,0.049l-0.145-0.061l-1.045-1.62
		l-0.253-0.329l-0.374-0.737l0.197-0.655l0.792-0.068l0.418,0.242l0.784,1.075l0.615,0.928l0.454,0.909l0.877,0.844l0.678,0.88
		l0.415,0.548l0.814,1.594l0.009,0.426l0.181,0.226l1.297,0.822l0.253,0.094l-0.002-0.261L55,53.608l-0.476-1.463l0.59-0.202
		l1.044,0.927l0.316,0.616l0.511,0.66l0.739,0.628l1.117,0.589l0.767,0.346l0.659,0.434l0.372-0.195l0.056-0.272l-0.178-1.658
		l-0.068-0.41l-0.122-1.392l-0.062-2.229l0.053-0.407l0.108-0.401l0.151-1.378l-0.03-0.148l-1.168-0.565l-0.697,0.046l-3.247-2.987
		l-0.167-0.461l-0.181-0.577l0.154-0.468l0.71,0.023l0.345,0.231l-0.019-0.975l-0.314,0.259l-0.261-0.014l-0.121-0.226l0.143-0.678
		l0.238-0.152l0.531,0.416l0.455,0.396l-0.03,0.467l0.365,0.399l0.029,0.364l-0.283,0.02l0.096,0.763l0.022-0.044l-0.267-0.017
		l-0.564-0.39l-0.493-0.229l-0.014,0.268l0.485,0.99l1.021,1.28l2.72,0.921l0.297-0.611l-0.207-0.57l-1.281-0.647l-1.178-0.472
		l-0.156-0.357l-0.02,0.045l0.268-0.01l0.914,0.384l0.546-0.148l0.218-0.506l-0.186-0.51l-0.648-0.25l0.045,0.021l-0.188-0.473
		l-0.405-0.246l0.042,0.022l-0.426-1.04l-0.118-0.726l0.252-0.209l0.177,0.021l0.616,0.331l1.484,1.657l0.411,0.884l-0.013,0.133
		l-0.067,0.107l-0.262-0.325l-0.648-0.896l-1.006-0.965l-0.371-0.112l0.004,0.285l1.273,1.282l0.45,1.032l0.603,0.586l0.226-0.082
		l0.399-1.804l-0.121-0.585l0.06-0.913l0.155-0.4l0.672-2.265l0.124-1.394l-0.08-0.561l-1.183-0.919l-0.74-1.219l-0.357-0.72
		l-0.554-0.083l-0.032-0.288l0.214-1.095l0.021-1.11l-0.14-0.959l-0.228-0.943l-0.384-0.031l-0.233,0.53l-0.051,0.389l-0.405,0.042
		l-0.088-0.256l0.018-0.138l0.063-0.312l-0.492-1.421l-0.252-0.308l-0.282,0.072L56.7,28.872l-0.201,0.782l0.332,1.392L56.63,30.92
		l-0.89-2.511l-0.04-0.134l-0.096-0.969l-0.235-0.751l0.059-0.487l-0.392-1.215l0.021-0.485l-0.632-1.902l-0.862-0.822l-0.258-0.583
		l-0.382-0.396l-0.669-0.884l-0.463-0.543l-0.513-1.409l0.479-0.637l0.889,0.477l0.742,1.275l0.366,0.785l0.611,0.562l0.056-1.234
		l-0.168-1.323l0.021-1.586l0.231-0.491l0.282,0.578l-0.006,1.39l0.056,0.83l0.082,0.098l0.257-0.012l0.297-0.29l0.31-0.053
		l0.503,0.478l0.071,0.667l0.326,0.14l0.118-0.07l0.23-0.206l0.444,0.257l0.104,0.299l0.035,1.253l-0.285,1.449l-0.496,0.572
		l-0.276,0.099l-0.427-0.245l0.526-0.393l0.169-0.219l0.277-1.491l-0.062-0.666l-0.265,0.006l-0.252,0.484l-0.199,1.232
		l-0.195,0.123l-0.108-0.083l-0.117-0.251l-0.075-0.409l0.208-0.703l-0.104-1.215l-0.146-0.402l-0.218-0.113l-0.3,0.249
		l-0.053,0.129l-0.171,1.387v0.973l0.018,0.138l0.225,1.228l0.11,1.108l0.136,0.681l0.188,0.662l-0.033,0.503l0.347,1.145
		l0.002,0.414l0.123,0.058l0.652-0.502l0.314-0.025l0.55,0.45l0.464,0.985l0.809,0.231l0.228,0.337l0.483,1.447l-0.001,2
		l0.371-0.046l0.526,0.106l0.942,1.02l0.47,0.203l0.156-1.383l-0.03-1.101l0.001-0.412l-0.07-2.089l-0.127-0.543l-0.114-0.911
		l-0.339-0.428l-0.479-1.315l-0.024-1.132l0.229-0.203l0.68,0.08l0.197-0.181l-0.128-0.848l0.101-0.378l0.334-0.207l0.635,0.537
		l0.097,0.815l0.199,0.679l-0.358,0.583l0.646,1.038l0.256,1.225l0.619,1.344l-0.119,0.834l-0.783,1.641l-0.121,0.635l-0.101,1.095
		l-0.033,0.417l0.357,0.288l0.358-0.078l0.536,0.22l0.089,0.679l-0.685,1.211l-0.195,0.342l-0.558,4.593l-0.086,0.409l-0.478,1.23
		l-0.026,0.605l0.279-0.021l0.749-1.012l0.217-0.162l-0.04-0.021l0.137,0.376l-0.267,0.513l-0.96,1.845l-0.202,1.083l0.305,0.412
		l0.377-0.13l0.095-0.094l0.599-1.077l0.541-0.747l0.74-3.109l-0.287-0.022l-0.636,0.495l0.033,0.018l-0.012-0.262l0.938-0.997
		l0.261,0.017l0.16,0.202l-0.2,1.512L65,43.544l-0.392,0.89l-0.757,1.172l-0.394,0.695l0.35,0.439l2.72,2.4l1.114,1.059
		l-0.028-1.521l0.713-0.702l0.337,0.424l-0.53-0.029l-0.087,0.759l1.053,2.776l0.731,0.676l0.763,0.673l-0.519-1.108l-1.465-3.773
		l0.256,0.067l0.519,0.485l1.396,3.55l0.525,0.288l0.143-0.387l0.022-1.608l-0.281-0.326l-0.524-1.292L69.9,47.59l0.54-1.302
		l0.401-0.04l0.348,0.244l0.334,0.635l0.895,0.535l1.305,1.671l0.256,0.68l0.039,0.934l-0.129,0.536l-0.195,0.176l-0.068-1.047
		l-0.516-1.422l-0.631-0.799l-0.479-0.232l-0.052,0.251l0.075,1.923l-0.163,1.925l-0.048,0.685l0.095,0.255l-0.157,0.162
		l0.088,0.041l0.023-0.224l0.136-0.031l0.891-0.641l0.555-0.62l0.283-0.287l0.078,0.436l-0.709,0.832l-0.673,0.586l0.572,1.021
		l1.288,0.745l1.261,0.855l0.856,0.699l1.406,1.335l0.209,0.359l-0.396-0.064l-1.612-1.31l-3.278-2.046l-0.312,0.036l-0.18,0.473
		L72.621,56l1.15,1.004l1.996,1.914l1.947,1.541l0.564,0.272l2.824,2.132l0.537,0.146l-0.109-0.391l-0.654-0.885l-1.096-1.25
		l-1.225-1.135l-0.205-0.188l-0.397-0.726l0.5,0.177l1.108,1.039l1.242,1.307l0.381,0.151l-0.367-0.868l0.051-0.528l-0.762-0.681
		l-0.683-1.042l0.228-0.633l-0.041-1.113l0.617-1.237l0.826,0.115l0.889,1.01L81.387,56.1l-0.341-0.4h-0.269l-0.17,0.494
		l-0.312,0.03l0.001,0.34l0.82,0.263l-0.071,0.202l-0.508,0.217l-0.158,0.252l0.566,0.785l0.545,0.287l0.197,0.539l0.361-0.6
		l0.407,0.145l1.517,1.385l0.25,0.333l0.467,1.282l0.074,0.546l0.188,0.182l0.139-0.793l-0.677-1.878l-0.489-0.692l-0.473-1.124
		l-1.14-1.067l-0.418-0.72l0.256,0.076l2.033,2.188l1.328,3.586l-0.078,0.898l-1.086,2.355l-0.234,0.65l-0.307,1.05l1.174,1.16
		l1.723,1.624l1.275,1.465l1.304,1.789l0.696,0.865l0.707,1.027l0.59,1.008l0.934,0.914l0.104-0.166l-0.623-1.67l-0.572-0.212
		l-0.043-0.725l-0.401-0.442l-0.483-1.089l-0.649-1.177l-0.019,0.031l0.252,0.023l0.531,0.562l0.385,0.828l0.653,0.637l-0.04-0.736
		l0.444-0.659h0.407l0.605,0.345l0.627,0.611l0.463,1.137l0.416,1.034l0.109-0.062l0.6-2.288l0.397-0.718l0.005-0.136l-0.882-2.741
		l0.026-0.759l0.181-0.659l0.688,0.843l0.688,1.892l0.104,0.937l0.186,0.716l-0.055,0.519l-0.195,1.092l-0.008,0.959l-0.371,1.076
		l-0.207,1.231l-0.104,1.084l-0.078,1.144l-1.102,0.229l-1.491,0.543l-0.431,0.396l-1.15,0.327l-0.277,0.009l-2.039-0.182
		l-0.36-0.086l0.032,0.273l0.882,0.401l0.946,0.23l1.23-0.21l1.234-0.217l1.167,0.449L94,81.615l-0.128,0.027l-1.229-0.386
		l-1.474,0.536l-2.646-0.418l0.31,0.716l0.224,1.247l-0.168,0.383l-0.359,0.122l0.025-0.356l0.112-0.436l-0.419-1.152L87.5,81.661
		l-0.277,0.774l-0.263,0.741l0.487,0.901l1.472,1.854l0.526,0.805l0.244,0.33l0.473,0.773l0.638,0.62l0.392-0.894l-0.515-0.349
		l-0.02-0.112l0.536-2.893l-0.319-0.878l-0.489,0.224l-0.066,0.256l-0.115,0.076l0.048,0.02l-0.194-0.732l0.205-0.412l1.139,0.627
		l0.263-0.08l0.379-0.574l0.265-0.073l0.577,0.476l0.327,0.901l-0.182,0.653l-0.363-0.008l-0.202-1.092l-0.37,0.012l-0.49,3.569
		l0.029,0.832l-0.178,0.812l0.271,0.363l-0.254,0.485l0.4,0.535l0.348,0.767l0.483,0.842l0.208,0.359l0.852,2.194l-0.07,0.157
		l-0.207-0.027l-0.549-0.961l-0.504-1.117l-0.412-1.043l-0.36-0.593l-0.046-0.347l-0.889-0.928l-0.959-0.548l0.131-0.997
		l-0.334-0.539l-0.766-0.979l-0.624-0.543l-1.157-0.51l0.02,0.293l0.367,0.408L87.4,86.372l-0.364-0.124l-0.513-0.471l-1.236-0.817
		l-1.564,0.163l-0.408-0.156l-0.435-0.763l0.202-0.694l0.27-0.027l1.533,0.688l0.917,0.339l1.32,0.415l0.104-0.203l-0.305-0.623
		l-0.98-1.16l-1.242-0.668l-1.854-0.588l-1.632-0.349l-0.343-0.653l0.047-0.133l1.277-1.102l1.191,0.629l-0.015,0.244l-0.964-0.129
		l-0.913,0.354l-0.058,0.374l1.888,0.414l1.731,0.45l0.062-0.234l-0.597-0.932l-1.557-1.565l-0.936-0.602l-0.514-0.224l-1.228-0.281
		l-0.37,0.188l-0.077,0.115l0.071,0.26l1.443,0.828l-0.047,0.251l-0.521-0.165l-1.427-0.788l-0.062-0.126l-0.072-0.305l0.252-0.284
		l0.123-0.064l0.959-0.276l0.945,0.206l0.773,0.294l0.046-0.162l-0.757-0.979l-0.514-0.832L78.891,74l-0.326-0.82l-0.016,0.027
		l0.133-0.016l0.758,0.734l0.974,0.896l0.245-0.022l0.156,0.384l0.115,0.071l0.053-0.103l-0.348-0.31l-0.178-0.487l-0.964-1.049
		l-0.97-1l-1.398-1.362l-1.387-0.907L75.6,70.056l0.057,0.031l-0.111-0.239l-0.762-0.393l0.058,0.032l-0.302-0.464l-0.195-0.195
		l-0.023-0.251l0.23-0.126l1.913,1.396l1.481,1.271l1.777,1.768l1.647,1.884l0.247-0.074l0.134-0.547l0.42-0.097l0.724,0.481
		l0.699,1.064l0.84,2.31l-0.123,0.853l-0.638-0.695l-0.579-0.772l-0.632-0.908l-0.507-0.771l-0.596-0.049l-0.047,0.109l0.725,1.171
		l0.1,0.099l1.049,1.3l1.043,1.308l0.6,0.76l0.091,0.012l0.25-1.184l0.416-0.068l1.146,1.063l0.178,0.482l0.101,0.495l0.828-0.416
		l-0.328-0.435l0.429-0.551l1.457,0.565l1.311,0.121l1.283-0.488l-0.424-0.292l-1.387-0.062l-1.183-0.436l-1.113-0.521l-1.069-0.738
		l-0.263-0.721l0.255,0.051l0.756,0.772l2.771,1.078l0.686,0.094l1.111-0.067l0.665-0.129l-0.103-0.345l-2.012-0.512l-0.812-0.155
		L87.96,77.03l-0.692-0.468l-0.643-0.532l-0.371-0.179l-0.053,0.137l0.402,1.183l-0.354-0.163l-0.572-1.712l0.043-0.133l0.231-0.142
		l1.731,1.414l2.075,0.967l0.365-0.06l-0.502-0.948L89.4,75.781l0.096-0.408l0.426-0.575l-0.305-0.592l-0.703-1.036l-0.868-1.083
		l-3.501-3.773l-0.721-0.658l-0.318-0.453l-0.293-0.154l-1.286,0.731l-0.394,0.149l-1.648,0.259l-2.209-0.331l-2.541-1.025
		l-1.275-1.13l-0.139,0.002l-0.096-0.361l0.459-0.953l0.377-0.133l0.329,0.159l-0.38,0.138l-0.092,0.979l1.099,1.042l0.851,0.356
		l2.276,0.651l1.101,0.121l1.506-0.211l1.42-0.583l0.035-0.173l-1.781,0.152l-1.287-0.526L78.6,66.117l-0.894-0.351l-1.567-0.582
		l-0.804-0.255l-0.601-0.537l0.455-0.07l3.508,1.305l0.224-0.117l-0.399-0.693l-0.506-0.66l-0.121-0.534l0.015-0.376l-0.376-0.395
		l-0.477-1.168l-0.601-1.354l-0.715-0.681l-1.812-1.928l-0.887-0.681l-0.825-0.742l-0.261-0.048l-0.312,0.249l-0.853,0.09
		l-0.944,0.278l-1.07,0.125l-2.761-0.493l-1.211-0.665l-0.468-0.679l0.264-1.071l0.503-0.468l0.693-0.299l0.469,0.18l0.012,0.428
		l1.18,0.744l0.365-0.239l0.241-0.653l0.508,0.169l1.912,0.329l0.093-0.264l-0.882-0.786l-1.646-1.606l-0.29-0.588l-0.699-0.671
		l-0.817-0.677l-0.219,0.189l-0.265-0.088l-0.328-0.253l-0.469-0.287l-0.087,0.053l-0.015,0.126l1.104,1.048l0.898,0.863
		l1.072,0.894l0.408,0.383l0.201,0.359l-0.391,0.157l-2.898-2.608l-0.848-0.71l-0.781-0.581l-0.822-0.737l-0.264,0.044l-0.321,0.914
		l0.136,1.799l0.125,1.388l0.098,0.404l0.208,1.372l0.152,2.776l0.079,0.404l0.682,0.462l-0.269,0.257l-0.358,0.02l0.135,0.514
		l0.943,0.623l0.21-0.738l0.199-0.904l0.749-0.918l0.524,0.247l0.301,0.852l0.125,0.949l0.276,0.053l0.646-0.268l0.695-0.094
		l0.719,0.397l0.119,0.25l-0.147,1.374l-0.703,1.499L67.8,62.449l0.986,0.713l0.608,0.283l0.737,0.266l0.896,0.937l0.489,0.244
		l0.178-1.05l1.335,0.883l0.471,0.88l0.246,0.047l0.355,1.302l-0.121,0.301l-0.103,0.094l-0.11-0.062l-0.631-1.415l-1.177-1.25
		l0.095,0.673l0.256,0.651l0.152,0.651l-0.479-0.172l-1.649-1.876l-0.593-0.321l-0.031,0.136l0.431,1.203l1.011,0.917l2.399,2.125
		l0.169,0.372l0.016-0.027l-0.133,0.037l-2.28-1.077l-2.147,0.342l-0.03,1.149l0.511,1.43l0.126,0.095l0.202-0.778l0.204-0.686
		l0.438-0.511l0.472,0.139l0.491,0.675l0.213,1.252l0.362,0.016l0.284-0.345l0.249-0.085l0.553,0.095l0.966,0.56l0.785,0.582
		l0.777,0.788l1.193,1.872l0.336,0.594l0.5,1.895l0.002,0.417l0.113,1.528l0.001,0.691l-0.549,4.016l0.024,0.168l0.721,0.797
		l-0.02,0.533l0.588,0.295l2.129,2.03l0.902,1.062l1.25,1.497l0.434,0.545l0.707,0.861l1.113,1.248l0.844,1.272l0.24,0.334
		l0.406,0.045l0.11-1.825l-0.22-1.371l-0.66-1.549l-0.184-0.211l-0.164-0.646l-0.564-1.116l0.156-1.498l0.527-0.011l1.227,1.134
		l1.978,2.52l1.196,2.037l0.572,1.688l-0.061,2.135l-0.107,0.544l-0.269,0.797l-0.427,2.282l1.275,3.447l0.192,0.244l0.874,1.256
		l0.811,1.134l0.563,0.795l0.464,0.28l0.676,0.146l1.182,1.24l1.308,3.323l0.123,0.021l-0.032-1.081l-0.548-1.879l-0.081-1.07
		l0.283-0.63l0.316-0.1l1.278,0.653l0.724,0.869l0.603,1.653l-0.044,2.101l-0.216,0.81l-0.888,2.088l0.145,0.373l0.396,0.394
		l0.926,0.853l0.822,0.948l0.649,0.727l0.457,0.702l0.347,0.759l0.231,1.587l-0.263,0.652l-2.077,1.09l-0.624-0.502l-1.006-2.533
		l-2.205-2.5l-0.567,0.027l-0.444,0.332l-0.896,0.267l-0.221,0.166l-1.031,0.157l-2.92-0.91l-1.161-0.914l-1.229-1.319l-0.783-0.974
		l-0.784-0.934l0.633-0.345l2.396,0.767l2.103,0.013l1.053,0.354l0.151-0.19l-0.985-0.78l-1.333-1.939l-0.474-1.323l-0.109-0.542
		l-0.241-1.311l0.062-0.736l0.482-0.075l1.162,1.009l0.465,0.51l0.502,0.152l0.215,0.135l-0.023-0.088l-0.21-0.004l-0.551-0.939
		l-0.063-0.129l-0.445-1.027l-0.555-0.803l-0.852-1.438l-1.128-1.21l-0.63-0.547l-0.723-0.748l-1.328-0.093l-2.196,0.727
		l-2.806-0.45l-1.551-0.611l-0.859-0.699l-0.689-0.688l-0.257-0.472l0.14-0.496l0.721-0.321l1.6,0.303l1.514,0.195l1.619,0.117
		l0.098-0.222l-0.799-0.541l-1.037-0.667l-0.961-0.807l-0.371-0.408l-1.047-1.277l-0.438-1.162l0.138-0.984l0.259-0.047l3.623,1.812
		l0.268-0.236l-0.739-0.375l-0.205-0.189l-0.637-0.908l-0.671-0.885l-0.066-0.123l-0.068-0.121l-1.852-2.081l-0.729-0.844
		l-0.602-0.579l-1.706-1.424l-0.313,0.027l-0.186,0.525l0.18,0.672l0.027-0.053l-0.137,0.224l0.169,1.519l0.081,1.107l0.197,1.096
		l0.197,0.812l0.596,1.724l0.367,1.622l0.135,0.542l0.298,0.959l-0.162,0.672l0.157,0.342l-0.245,0.39l1.103,3.282l0.203,0.156
		l0.461-0.861l0.206-0.16l0.138-0.032l0.705,0.755l0.303,0.831l0.062,1.117l-0.189,0.618l-0.629,0.436l-0.082,0.252l0.3,0.82
		l0.399,0.426l0.463,1.094l0.129,0.103l0.634,0.146l0.669,0.93l0.689,0.875l0.139,0.236l1.699,2.533l0.258,0.329l0.009,0.392
		l-0.28,0.129l-0.595-0.567l-0.293-0.577l-0.619-0.63l0.147,0.655l0.627,0.912l0.572,0.945l0.551,0.803l-0.024,0.33l-0.999-0.955
		l-0.717-1.192l-0.204-0.362l-0.501-0.834l-0.387-0.74l-0.432-0.557l-0.496-1.126l-0.312-0.323l-0.781-1.457l0.017-0.293
		l-0.297-0.289l-0.705-1.67l-0.326-0.33l-0.465-1.125l-0.238-0.15l-0.795,0.169l-0.014-1.297l-1.131-0.957l-0.543-0.033
		l-0.002,0.233l0.568,0.396l0.035,0.248l-0.223,0.131l-0.402-0.094l-1.51-0.778l-0.625-0.576l-0.162-0.578l0.401-0.963l0.789-0.014
		l0.746,0.624l0.553,0.589l0.996,0.568l0.746,0.583v-0.28l-0.256-0.802l-0.308-0.933L76.65,99.7l-0.44-1.773l0.022-0.407
		l-0.48-1.111l-0.143-0.958l-0.362-1.624l-0.192-0.812l-0.47-2.033l-0.158-0.819l-0.258-1.085l-0.221-0.766l-0.007-0.716
		l-0.526-0.585l-0.037-0.507l0.046-0.823l-0.146-0.037l-0.869,0.627l-0.12,0.438l-0.655,0.714l-0.609,0.692l-1.376,0.391
		l-1.198,0.055l0.137,1.98l0.503,1.99l0.044,1.298l0.309-0.091l0.131-0.541l0.45-1.148l0.407-1.188l0.428-0.646l0.225-1.132
		l0.235-0.06l1.396,1.104l-0.189,0.744l-0.422-0.54l-0.682-0.118l-0.047,1.806l0.264,2.338l0.114,0.074l0.789-0.959l0.437-0.33
		l-0.004,0.269l-0.42,0.723l-0.631,0.871l-0.428,0.298l-0.182,0.301l-0.444,1.32l-0.715,1.194l0.082,0.665l1.148,0.011l1.362-2.091
		l0.657-1.232l0.512-0.976l0.126-0.825l0.047-0.416l0.003-0.277l-0.312-0.604l-0.34,0.374l-0.492,0.459l-0.027-0.138l0.367-1.191
		l0.376-0.725l0.252,0.014l0.29,0.622l0.188,0.665l0.031,1.109l-0.025,0.416l-0.592,1.7l-1.133,2.089l-0.479,0.93l-0.751,0.771
		l0.145,1.195l0.045,1.198l0.399,1.105l0.175,0.676l0.228,1.23l0.971,2.626l0.589,0.375l0.187,0.21l0.502,0.665l0.447,1.026
		l0.426,1.037l0.1,0.098l0.105-0.078l0.92-2.605l0.105-0.828l0.348-0.752l0.292-0.019l0.724,0.863l0.473,1.297l-0.248,1.653
		l-0.238,0.316l-0.072-0.266l0.033-1.547l-0.689-1.457l-0.264,0.142l-0.224,1.769l-0.135,0.535l-0.708,1.656l-0.262,0.729
		l0.145,1.16l0.021,1.096l0.099,0.086l0.097-0.02l1.018-2.135l0.761-1.646l0.209-0.162l0.103,0.436l-1.424,3.188l0.121,0.404
		l0.594,0.938l0.617,0.926l0.893,1.412l0.901,1.235l0.949,1.369l0.106,0.039l0.387-2.023l0.693-0.333l1.258,0.625l0.218-0.208
		l1.343,0.855l0.688,1.226l0.23,0.505l0.416,1.138l0.014,0.61l0.145,1.521l-0.105,0.826l-0.189,0.672l-0.354,0.743l-0.498,0.979
		l0.775,0.607l0.137,0.371l0.021-0.053l-0.521-0.021l0.117,0.536l1.021,0.468l0.375-0.359l0.353,1.142l1.083,0.894l0.012,0.248
		l-0.219,0.125l-0.512-0.192l-1.452-0.8l-0.129,0.047l-0.222-0.559l0.31-0.108l0.166,0.181l0.054-0.095l-0.244-0.03l-0.186-0.176
		l-0.046,0.258l-0.124,0.399l0.305,0.104l0.182,0.549l0.01-0.02l-0.512-0.124l-0.613-0.575l-0.413-0.918l-2.046-0.439l-1.018-0.407
		l-0.951-0.22l-0.672-0.188l-0.521-0.207l-1.746-1.375l-0.341-0.44l-1.315-1.797l-0.201-0.367l-0.445-1.217l0.121-1.498l0.783,0.151
		l0.933,0.272l0.743,0.354l0.254-0.152l-0.129-0.814l0.06-0.718l-0.222-0.492l-0.852-1.269l-0.52-0.817l-0.5-0.835l-0.266-0.487
		l-0.189-0.372l-0.85-1.736l-0.363-0.869l-0.223-0.234l-1.229-1.123l-2.385-0.365l-0.863-0.375l-1.203-0.707l-0.504-0.19
		l-0.124,0.054l-0.061,0.119l0.435,0.708l0.701,1.037l1.094,1.071l0.984,0.533l1.198,0.37l0.959,0.146l0.977-0.304l0.277,0.262
		l-0.164,0.404l-0.942,0.185l-0.839-0.029l-1.857-0.603l-0.251-0.117l-1.211-0.934l-0.941-1.201l-0.871-1.894l0.258-0.583
		l0.806,0.154l0.081-0.191l-0.537-1.703l0.274-0.504l0.372,0.168l2.229,1.687l1.104,1.101l0.135-0.688l-0.69-0.518l-0.406-1.119
		l0.053-0.5l-0.491-1.354l-0.423-0.52l-0.364-1.446l-0.226-0.326l-0.229-0.76l-0.005-0.416l-0.04-0.832l-0.194-0.818l-0.022-0.644
		l-0.474-1.303l-0.607-0.662l-0.44-0.121l-1.934,0.646l-0.779-0.022l-2.265-1.318l-0.184-0.207l-0.99-1.671l-0.472-0.835
		l0.095-0.695l0.338-0.093l1.318,1.188l3.519,0.486l-0.144-0.504l-0.589-0.768l-0.705-1.188L64.7,92.602l0.056-0.771l0.489-0.323
		l0.233,0.134l0.819,1.26l0.621,0.594l0.067-0.105l-0.051-0.408l-0.377-1.621l-0.069-0.271l-0.357-1.921l-0.328-1.63l-0.104-0.405
		l-0.189-2.22l-0.035-0.533l-0.379-0.461l0.371-0.414l-1.345-0.123l-1.235-0.077l-1.135-0.553l-0.295-0.835l0.225-0.431l1.817,0.145
		l0.537,0.108l1.712,0.855l2.766,0.267l1.231-0.158l1.366-0.217l0.52-0.193l0.185-0.204l-0.456-0.526l-1.313-1.43l-0.776-0.97
		l-1.001-0.964l-0.359-0.225l-0.052,0.174l0.346,1.19l-0.056,0.843l0.024,0.961l-0.852,0.952l-0.358,0.13l-0.473-0.184l0.931-0.79
		l0.279-1.599l-0.212-1.18l-0.395-0.212l-0.422,0.181l0.069-0.254l0.425-0.535l-0.037-0.379l-1.19-0.67l-0.212,0.481l0.127,0.812
		l0.269,1.336l-0.415,0.15l0.236,0.703l0.13-0.879l0.296-0.426l0.334-0.4l0.099,0.374l-0.233,0.664l-0.12,1.519l0.096,1.129
		l-0.564-0.205l-0.123-0.428l-0.226-0.349l-0.218-0.517l-0.249-0.338l-0.122,0.828l-0.339,0.002l-0.678-1.722l-0.488-0.688
		l-0.36-0.758l-0.197-0.092l-0.041,0.77l0.663,1.218l0.001,0.269l-0.281,0.295l1.067,0.875l0.001,0.371L64.015,81.792L64.015,81.792
		z M69.197,98.405l0.171,0.187l0.042-0.099l-0.235-0.037l-0.161-0.183l-0.048,0.095L69.197,98.405L69.197,98.405z M97.334,114.197
		l0.168-0.393l-0.1-0.229l0.162-0.189l-0.104-0.053L97.45,113.6l-0.187,0.272l0.116,0.346l-0.165,0.164l0.092,0.06L97.334,114.197
		L97.334,114.197z M72.75,111.47l0.161,0.169l0.05-0.091l-0.23-0.032l-0.266-0.438l-0.357,0.371l-0.034-0.135l-1.223-1.309
		l-1.202-0.949l-0.319-0.195L69.026,109l0.083,0.536l0.33,0.442l0.826,1.088l1.463,0.447l0.396-0.111l0.284,0.175L72.75,111.47
		L72.75,111.47z M55.899,53.596l0.165,0.189l0.05-0.094l-0.237-0.048l-0.387-0.682l0.164,0.613L55.899,53.596L55.899,53.596z
		 M63.671,29.833l0.105-0.083l0.09-0.924l-0.107-0.079l-0.149,0.204l-0.082,0.258l0.051,0.266l0.147,0.384l-0.155,0.174l0.089,0.048
		L63.671,29.833L63.671,29.833z M57.79,71.162l0.473-0.006l-0.484,0.035l-0.126-0.428l-0.89-0.284l0.047,0.288l0.718,0.398
		L57.79,71.162L57.79,71.162z M62.633,32.643l-0.114,0.069l-0.075,0.912l0.184,0.201l0.247-0.26l-0.276-0.938l0.163-0.135
		l-0.127-0.063L62.633,32.643L62.633,32.643z M62.903,29.259l-0.187,0.165l0.006,1.782l0.11,0.077l0.092-0.042l0.146-0.378
		l-0.026-1.102l-0.182-0.518l0.117-0.421l-0.098-0.072l-0.096,0.149L62.903,29.259L62.903,29.259z M74.577,87.785l0.188-0.163
		l0.086-0.815l-0.588-1.19l-0.307,0.241l0.652,1.941l-0.162,0.191l0.281,0.587L74.577,87.785L74.577,87.785z M63.976,63.536
		l0.252-0.107l0.754-1.129l-0.021-0.137l-0.376-0.222l-0.138-0.379l0.392-0.143l0.479-0.863l0.49-0.728l-0.026-0.923l-0.127-0.961
		l-0.424-0.215l-0.435,1.06l-0.262,1.991l-0.047,0.801l-0.393,0.143l-0.364,0.835l0.259,0.983l-0.552,0.216l-1.308-3.525
		l-0.483-0.519l0.037-0.797l-0.534-0.475l-0.107-0.026l0.106,0.817l0.198,1.084l0.765,2.105L62.5,62.83l0.567,1.246l0.396-0.377
		l0.289,0.406l0.22-0.325L63.976,63.536L63.976,63.536z M61.51,45.275l0.369-0.158l0.366-2.728l-0.552-1.349l-0.211,0.384
		l-0.001,0.831l-0.015,1.665l0.005,1.11l0.083,0.264l-0.151,0.202l0.103,0.035L61.51,45.275L61.51,45.275z M94.846,77.727
		l0.125-0.06l0.228-0.917l0.094-0.543l0.233-1.093l0.201-0.665l0.056-0.832l0.024-0.682l-0.189-0.175l-0.446,1.009l-0.383,1.918
		l-0.078,1.524l0.167,0.524l-0.111,0.076l-0.037,0.758l0.295-0.19L94.846,77.727L94.846,77.727z M87.014,99.712l0.168,0.153
		l0.043-0.092l-0.227-0.027l-0.402-1.11l-0.478-0.604l-0.681-1.038l-1.164-0.969l-0.771,0.299l0.53,0.921l-0.255-0.052l-0.614-0.562
		l-0.077-0.938l-0.275-0.162l-1.149-0.45l-1.07-0.621l-0.513-0.213l-0.045,0.151l0.346,0.894l0.521,0.81l1.469,1.803l1.15,0.541
		l0.662,0.199l0.668,0.066l0.221,0.139l-0.016-0.098l-0.214-0.021l-0.157-0.366l-0.709-1.149l0.252,0.049l1.76,1.709l0.349,0.416
		l0.431,0.329L87.014,99.712L87.014,99.712z M82.967,62.344l-0.277-0.712l-0.318-0.803l-0.479-0.046l0.225,0.786l0.023,0.851
		l0.469,0.289l0.381-0.419l1.176,2.188l0.24-0.293l0.27-1.265l-0.906-2.493l-0.621-0.833l-0.568-0.309l0.301,1.235l0.043,0.783
		l0.17,0.812L82.967,62.344L82.967,62.344z M84.878,123.559l-0.36-0.691l0.06,0.482l0.33,0.155l0.268,0.866l-0.161,1.316
		l-0.231,1.343l0.366-0.093l0.529-1.278l0.309-2.359l-1.133-3.055l-0.66-0.793l-0.258-0.019l-0.138,0.2l0.153,0.533l1.029,2.896
		l0.035,0.271L84.878,123.559L84.878,123.559z M42.834,57.156l0.47,0.489l1.14,0.78l1.898,1.154l0.73,0.398l1.612,1.291l0.485-0.222
		l-0.52-0.579l-3.009-2.223l-0.456-0.31l-0.763-0.346l-0.63-0.3l-0.673-0.395l-0.301,0.299l-0.108-0.429l-1.146-1.177l-0.408-0.099
		l0.055,0.535l0.064,0.438l-1.388-0.52l-1.327-0.157l-0.394,0.115l-0.091,0.1l0.119,0.183l2.054,0.84l-0.148,0.473l-1.592,0.371
		l-0.092,0.222l0.165,0.196l1.559,0.18l0.698-0.254l0.784-0.853l0.41-0.149l0.54,0.036L42.834,57.156L42.834,57.156z M66.511,67.988
		l0.192,0.353l0.28,0.038l1.827-0.646l0.145-0.341l0.935,0.252l1.071-0.191l0.037-0.126l-0.732-0.902l-0.681-0.355l-0.315,0.226
		l-0.597-0.379l-2.809-1.49l-0.959,0.849l-0.375-0.01l-0.355,0.148l-0.067,1.523l0.173,1.659l0.177,1.518l0.338,1.624l0.036,0.731
		l1.624,1.268l1.046,0.69l1.218,0.802l0.19-0.925l0.611-0.762l0.4,0.103l1.786,1.75l0.27,0.313l0.86,1.431l0.213,0.354l0.649,1.071
		l0.697,1.207l0.211,0.154l0.164-0.382l0.051-1.726l-0.271-0.584l-0.591-0.94l-0.212-0.354l-0.691-1.045l-0.588-1.107l-0.203-0.25
		l-0.719-0.03l0.134-0.973l-0.094-0.246l-0.374,0.073l-0.312,0.342l-0.879,0.318l-0.306-0.273l-0.86-2.521l-0.039-0.415
		l-0.347-1.209l-0.366-0.144l-0.678,0.379l-0.901-0.041l-0.336-0.229L66.511,67.988L66.511,67.988z M88.624,90.555l-0.222,0.305
		l-0.239,1.797l-0.45,1.902l-0.141,1.375l0.004,0.368l0.521,1.634l0.08,1.26l-0.214-0.105l-0.599-1.1l0.011-0.409l-0.735-1.957
		l-0.377-0.056l0.023,0.539l0.271,1.361l0.45,0.735l0.634,1.595l-0.199,0.876l-0.123,0.058l-0.24-0.088l-0.993-0.496l-2.748-0.354
		l-3.743-0.423l-0.965-0.182l-0.247,0.09l-0.11,0.262l0.098,0.252l0.68,0.688l2.291,1.022l2.27,0.334l2.382-0.79l1.431,0.083
		l0.967,0.854l0.84,0.723l0.858,1.264l0.796,1.127l0.778,1.156l0.335,0.607l0.207,0.359l0.713,1.032l0.637,1.08l0.682,0.875
		l0.053-0.125l-0.525-1.506l-0.356-0.356l-0.655-1.613l-0.462-0.604l-0.697-1.194l-0.774-1.158l-0.828-1.113l-0.36-0.591
		l-0.331-0.923l-0.335-1.774l0.07-0.798l0.821-4.67l-0.541-2.162l-0.056-0.114L88.624,90.555L88.624,90.555z M85.812,96.146
		l-0.104-0.668l-0.401-0.545l-0.521-1.246l-1.162-1.465l-1.329-1.613l-0.905-1.061l-0.726-0.848l-0.879-0.877l-0.091-0.104L79.04,87
		l-0.612-0.573l-0.703-0.677l-0.767-0.59l-0.017-0.699l-0.146-1.525l0.081-1.662l0.389-1.48l-0.021-1.25l-0.197-1.376l-0.036-0.719
		l-1.046-2.784l-0.614-0.375l0.26,1.23l0.223,1.234l-0.043,2.225l-0.033,1.672l-0.131,0.539l-0.033,0.414l0.016,0.832l0.225,0.926
		l-0.121,0.707l-0.495,0.209l-0.756-0.072l-1.208-0.514l-0.273,0.472l0.807,0.555l0.902,0.382l0.307,0.582l0.393,0.359l0.438,0.928
		l0.112,0.08l0.141,0.01l0.141,0.015l0.453,0.542l1.715,1.844l1.285,1.641l0.372,0.409l1.077,1.273l0.335,0.442l2.597,3.133
		l1.555,1.302l0.23,0.06l0.172-0.346L85.812,96.146L85.812,96.146z M71.866,81.252l0.364,0.678l0.291,0.188l0.263-0.185
		l-0.657-1.031l-0.485-1.184l-0.188-0.311l0.247-0.004l0.736,1.001l0.429,0.886l0.985,0.977l1.084,0.239l0.049-0.122l-0.512-1.279
		l-0.66-1.219l-0.324-0.775l-0.481-0.68l-0.967-1.524l-1.218-1.519l-0.55-0.621l-0.35-0.121l-0.098,0.438l-0.265,0.312l0.527,0.149
		l1.187,2.546l-0.076,0.731l-0.642-0.779l-0.432-0.706l-0.858-0.501l-2.849-1.765l-0.461-0.312l-1.36-0.603l-0.186-0.358
		l-0.865-0.492l-0.243,0.479l2.182,1.68l2.298,1.642l2.451,2.422L71.866,81.252L71.866,81.252z M93.839,117.264l1.24-0.451
		l0.508-0.651l-0.431-0.091l-0.924-0.82l-0.457-0.307l-0.728-0.404l-0.921-0.282l-1.363-0.205l-1.795-0.271l-0.822-0.069
		l-0.074,0.105l3.422,3.194l1.188,0.327L93.839,117.264L93.839,117.264z M81.443,65.83l0.983-0.176l1.058-0.283l0.17-0.209
		l-0.03-0.271l-0.153-0.224l-0.242-0.137l-3.226-1.9l-1.354-0.959l-1.434-0.734l0.172,0.757l0.338,0.368l1.027,2.494l1.023,0.916
		L81.443,65.83L81.443,65.83z M69.24,88.202l0.093-0.53L69.05,87.37l0.058-0.503l0.466-0.316l1.726-2.332l1.091-0.574l-0.363-0.201
		l-0.969-0.076l-2.91,0.115l-0.553-0.016l-0.333,0.16l0.063,1.848l1.126,1.447l-0.596,0.155l0.204,0.795L69.24,88.202L69.24,88.202z
		 M95.915,114.682L96,113.934l-0.314-0.748l-0.588-0.461l-1.013-1.143l-0.612-0.752l-0.322-0.589l-0.849-0.745l-0.181-0.206
		l-1.282-1.065l-0.354-0.162l-0.034,0.929l0.653,1.222l0.498,0.832l0.203,0.357l0.774,1.143l1.026,0.92l0.607,0.436l0.215,0.072
		l0.965,0.471L95.915,114.682L95.915,114.682z M101.082,121.704l0.732-0.458l0.102-0.286l-0.154-0.511l-0.385-0.922l-2.876-3.202
		l-0.332-0.647l-0.95-0.496l-0.345,0.131l-0.157,1.064l0.979,0.977l0.375,0.402l0.656,0.713l0.614,0.92l0.888,1.234l0.317,0.773
		l0.188,0.223L101.082,121.704L101.082,121.704z M77.503,123.923l-0.278,0.433l0.787,1.467l1.477,1.285l1.578,0.93l1.225,0.203
		l-0.02-0.232l-0.822-0.941l-0.585-0.776l-0.784-1.146l-0.723-1.17l-1.28-1.037l-0.821-0.14l-0.213,0.142l0.014,0.254
		L77.503,123.923L77.503,123.923z M83.7,127.948l0.655,0.147l-0.615-1.662l-0.359,0.252l-0.372-0.733l-0.682-1.042l-0.711-1.188
		l-0.935-1.029l-1.633-1.7l-0.145,0.782l0.393,1.078l1.829,1.972l0.646,1.581l0.414,0.428l0.293,0.626l0.998,0.663L83.7,127.948
		L83.7,127.948z M66.934,96.811l-1.762-0.375l-1.916-0.191l-0.518-0.277l-0.645-0.249l-0.062,0.091l0.032,0.267l0.49,0.667
		l1.559,1.557l1.298,0.573l1.562-0.499l0.943-0.217l0.18-0.152l-0.048-0.129L66.934,96.811L66.934,96.811z M84.344,123.711
		l-1.136-3.124l-1.215-1.306l-0.185,0.498l0.221,1.084l0.143,2.296l0.335,0.491l1.597,2.25l0.35,0.008l-0.15-1.645L84.344,123.711
		L84.344,123.711z M65.611,61.303l-0.068,0.603L65.04,63.17l-0.768,0.982l-0.129,0.374l0.494,0.219l0.994-0.742l1.005-0.942
		l-0.115-0.334l-0.4-0.122l0.98-0.5l0.661-0.688l0.554-1.483l-0.388-0.771l-0.583-0.039l-0.802,0.615L65.611,61.303L65.611,61.303z
		 M93.825,78.63l0.28-1.037l-0.039-0.942l-0.312-1.629l-0.423-1.309l-0.747-1.081l-0.688-0.084l-0.168,0.647l0.197,1.225l0.45,1.316
		l0.368,1.016l0.395,0.456l0.235,0.646L93.825,78.63L93.825,78.63z M72.695,85.257l0.728-0.438l-0.741-0.795l-0.864,0.314
		l-0.996,1.046l-0.524,0.978l-0.605,0.919l0.927,0.422l0.395-0.144L72.695,85.257L72.695,85.257z M64.849,55.197l0.21,0.179
		l1.321,0.727l2.913,0.405l1.151-0.554l-0.396,0.043l-0.659,0.055l-3.643-1.806l-0.527-0.08l-0.476,0.635L64.849,55.197
		L64.849,55.197z M69.918,93.365l-0.208,1.248l-0.091,1.652l0.149,0.355l0.135-0.014l1.21-1.685l0.138-1.392l-0.11-1.231L71,91.219
		l-0.172-0.167l-0.325,0.622L69.918,93.365L69.918,93.365z M60.819,78.415l0.239-0.483l-1.908-1.389l-1.647-0.804l-0.275,0.243
		l0.728,1.209l2.036,1.201L60.819,78.415L60.819,78.415z M72.754,71.905l0.234,0.352l0.171,0.505l0.233,0.342l0.211,0.517
		l0.854,1.426l0.852,0.937l-0.304-2.053L74.948,73.4l-0.64-1.09l-1.367-0.92L72.754,71.905L72.754,71.905z M99.216,109.757
		l-0.493-0.834l-0.435-0.864l-0.118-0.047l-0.209,0.146l-0.023,0.132l0.127,0.962l0.188,0.95l0.009,0.414l-0.098,1.937l-0.057,1.104
		l0.09,0.092l0.101-0.025l0.806-1.77L99.216,109.757L99.216,109.757z M94.587,108.878l0.798,2.384l0.547,0.957l0.325,0.609
		l0.195,0.517l0.196,0.13l0.225-0.504l-0.533-1.578l-0.547-1.584l-0.604-1.475l-0.447-0.455l-0.18-0.072L94.587,108.878
		L94.587,108.878z M68.783,96.527l-0.772-0.805l-0.616-0.752l-0.669-0.893l-0.715-1.021l-0.677-0.671L65.28,92.65l0.709,1.83
		l0.166,0.222l0.482,0.786l0.659,0.593l1.167,0.991l0.513,0.466l0.134-0.241L68.783,96.527L68.783,96.527z M86.993,88.293
		l-1.028-0.959L85.85,88.13l0.596,1.077l0.158,0.387l0.725,1.336l0.143,0.527l0.359,0.146l0.138-1.492l-0.25-0.666l-0.405-0.559
		L86.993,88.293L86.993,88.293z M51.682,54.688l-0.081-0.24l-0.561-0.396l-0.119-0.377l-0.059-0.229l-0.641-0.128l-1.124,0.146
		L48.86,53.92l0.411,0.912l0.71,0.304l0.946-0.11L51.682,54.688L51.682,54.688z M74.551,112.296l0.641,0.647l0.182-1.508
		l-0.514-1.412l-0.823-1.291l-0.263,0.393l0.136,0.812l0.274,1.348L74.551,112.296L74.551,112.296z M54.491,21.855l-0.229-0.627
		l-0.312-0.453l-0.345-0.592l-0.493-0.654l-0.466-0.847l-0.604-0.893l-0.286,0.041l-0.092,0.236l0.539,1.098l0.695,0.848
		l0.729,0.994L54.491,21.855L54.491,21.855z M62.965,82.906l1.756,0.053l0.257-0.193l-1.583-0.707l-1.335-0.137l-0.205,0.167
		L62.965,82.906L62.965,82.906z M62.793,60.728l0.124,0.243l0.142,0.234l0.057,0.543l0.182,0.18l0.266-0.107l0.526-1.274
		l-0.274-0.657l-0.511-0.308L62.793,60.728L62.793,60.728z M70.297,71.845l0.501,0.234l0.405-0.845l0.038-0.748l-0.462-0.923
		l-0.33,0.597L70.297,71.845L70.297,71.845z M61.165,33.713l-1.008-0.734l0.011,0.392l0.364,0.91l0.747,1.173l0.188,0.172
		l0.241-0.496L61.165,33.713L61.165,33.713z M53.817,53.968l-0.854-0.638l-0.175-0.054l-1.231,0.501l1.233,0.579l0.073,0.521
		l0.261-0.015L53.817,53.968L53.817,53.968z M39.925,54.879l0.064-0.404l-1.638-0.945l0.058,0.514l0.808,0.776l0.048,0.126
		l-0.024,0.422l0.251,0.104l0.265,0.078l0.224-0.146l0.054-0.12l-0.037-0.134L39.925,54.879L39.925,54.879z M86.582,81.452
		l-0.424-1.261l-0.538-0.465l-0.123-0.028l-0.222,0.29l0.332,0.908l0.701,1.013L86.582,81.452L86.582,81.452z M73.993,101.669
		l0.856,0.31l0.166-0.766L73.95,100.4L73.993,101.669L73.993,101.669z M79.734,104.708l-0.043-1.081l-0.439-0.969l-0.424,0.847
		l0.229,1.128l0.405,0.236L79.734,104.708L79.734,104.708z M92.047,77.703l0.003-0.129l-0.963-1.186l-0.849-0.457l-0.137,0.174
		l0.135,0.385l0.836,0.766l0.318,0.436L92.047,77.703L92.047,77.703z M71.617,49.438l-0.108-1.263l-0.123-0.289l-0.494-0.446
		l-0.163-0.054l-0.267,0.271l0.655,1.556L71.617,49.438L71.617,49.438z M67.603,63.141l0.11,0.644l1.249,0.849l0.116-0.04
		l0.132-0.384l-0.429-0.523l-0.921-0.606L67.603,63.141L67.603,63.141z M82.256,74.684l-0.058,0.082l0.276,0.762l0.455,0.687
		l0.553,0.782l0.205,0.357l0.196,0.023l0.032-0.131l-0.465-0.827l-0.055-0.392l-0.508-0.625L82.256,74.684L82.256,74.684z
		 M62.161,27.013l0.273-0.398l-0.318-0.589l-0.137-0.715l-0.59-0.554l-0.107,0.735L62.161,27.013L62.161,27.013z M70.637,54.986
		l-0.778-0.265l-1.078-0.23l-0.21,0.056l0.052,0.256l0.228,0.155l0.52,0.19l0.783,0.116L70.637,54.986L70.637,54.986z M42.92,56.159
		l0.058-0.247l-0.328-0.751l-0.684-0.835l-0.277,0.032l0.053,0.576l0.529,0.538L42.92,56.159L42.92,56.159z M66.997,87.203
		l0.375-0.859l-0.508-0.445l-0.303,0.052l-0.151,0.446L66.997,87.203L66.997,87.203z M63.113,79.977l-0.809-1.008l-0.358-0.199
		l-0.1,0.029l-0.045,0.131l0.04,0.133l0.545,0.619L63.113,79.977L63.113,79.977z M63.756,34.348l-0.168,0.241l-0.06,0.12l0.04,0.376
		l0.364,0.032l0.156-0.771L63.756,34.348L63.756,34.348z M84.395,84.71l0.002-0.267l-0.701-0.447l-0.264,0.193l0.295,0.459
		l0.268,0.055L84.395,84.71L84.395,84.71z M48.699,59.812l0.014-0.292l-0.684-0.461l-0.223,0.043l0.045,0.284L48.699,59.812
		L48.699,59.812z M71.291,55.244l0.235,0.66l0.281-0.463L71.291,55.244L71.291,55.244z M76.036,95.443l-0.043,0.134l0.254,0.901
		l0.244-0.049L76.036,95.443L76.036,95.443z M84.83,128.688l0.436,0.556l0.094-0.05l0.017-0.125L84.83,128.688L84.83,128.688z
		 M81.887,66.167l-0.668,0.221L81.887,66.167L81.887,66.167z M62.358,63.575l-0.166,0.347l0.01,0.113l0.236-0.016L62.358,63.575
		L62.358,63.575z M62.594,23.699l-0.061-0.109l-0.096-0.045l-0.035,0.122l0.145,0.2L62.594,23.699L62.594,23.699z M59.604,70.914
		l0.041,0.251l0.11,0.086l0.055-0.125l-0.126-0.229L59.604,70.914L59.604,70.914z M82.312,111.12l0.02,0.256l0.105,0.082
		l0.053-0.086l-0.098-0.236L82.312,111.12L82.312,111.12z M60.974,52.236l-0.075-0.028l0.019,0.091L60.974,52.236L60.974,52.236z
		 M59.208,70.597l0.04-0.103l-0.085-0.07l-0.035,0.101L59.208,70.597L59.208,70.597z M80.671,66.215l0.042,0.146l0.071-0.099
		L80.671,66.215L80.671,66.215z M68.298,94.802l0.018-0.103l-0.087,0.021L68.298,94.802L68.298,94.802z M69.728,99.497l-0.013,0.106
		l0.076-0.02L69.728,99.497L69.728,99.497z M85.354,93.988l0.019-0.106l-0.093,0.024L85.354,93.988L85.354,93.988z M97.463,112.427
		l-0.036,0.103l0.083,0.07l0.036-0.104L97.463,112.427L97.463,112.427z M48.831,52.67l0.037,0.139l0.063-0.091L48.831,52.67
		L48.831,52.67z M61.618,48.348l-0.019,0.09l0.072-0.014L61.618,48.348L61.618,48.348z"/>
	<path fill="#232734" d="M105.336,90.08l-0.07-0.534l0.109-0.339l0.323-0.148l0.253,0.113l0.236,0.194l0.353,1.306l0.099,1.238
		l0.02,1.113l-0.161,1.352l-0.492,1.494l-0.249,0.943l-0.326,0.752l0.396,1.216l0.396,1.051l0.434,1.185l0.406,1.196l0.373,1.06
		l0.56,1.078l0.218-0.514l0.842-2.107l0.455-0.483l0.891,0.369l0.517,1.456l-0.312,1.312l-0.104,0.822l-0.299,1.356l-0.764,1.81
		l-0.613,0.937l0.214,0.934l-0.265,1.494l0.345,1.232l-0.015,0.562l0.303,1.066l0.121,1.102l0.055,0.97l-0.037,1.094l0.167,0.218
		l-0.347,0.703l-1.137,0.193l-0.125-0.023l-0.748-0.365l-0.127-0.242l-0.012-1.669l0.135-1.388l-0.039-0.689l-0.023-0.693
		l0.027-1.393l-0.092-0.689l-0.109-0.684l-0.323-1.466l-1.842-0.28l-3.819-1.738l-1.09-0.886l-0.342-0.899l0.605-0.367l1.291,0.712
		l1.383,0.612l0.133-0.037l0.051-0.244l-0.062-0.121l-0.841-0.928l-0.879-1.684l0.077-0.71l0.732-0.263l0.498,0.212l1.265,1.321
		l1.258,1.305l0.226,0.354l0.489,0.252l0.074-0.217l-0.151-1.523l-0.18-1.094l-1.009-2.77l-0.815-2.243l-1.642-0.201L99.846,97.9
		l-0.178-0.385l-0.008,0.016l0.816,0.033l0.85,0.154l2.021-0.066l0.086-0.094l-0.021-0.108l-1.815-1.729l-1.187-0.369l-1.753-0.845
		l-0.889-0.661l-0.162-0.371L97.592,93.5l0.264-0.006l1.582,0.895l0.908,0.394l-0.593-1.224l-0.382-0.906l-1.021-1.315l0.043-1.05
		l0.25-0.124l0.957,0.521l0.574,0.285l-0.24-0.787l-0.676-1.051l-0.466-0.619l-0.75-1.398l-0.169-0.383l-0.738-1.344l-0.312-0.623
		l-0.498-0.835l-0.782-1.142l-0.691-1.046l-0.026-0.263l0.353,0.033l0.104,0.092l0.665,0.892l0.633,0.914l1.081,1.983l0.424,0.432
		l0.595,1.484l0.551,0.824l0.312,0.748l0.574,0.823l0.352,0.598l0.196,0.201l0.761,1.425l-0.035,0.504l0.215,0.488l0.595,0.938
		l0.403,0.889l0.11,0.084l-0.125-0.793l-0.048-0.729l-0.48-2.136l-0.088-1.921l-0.459-0.716l-0.617-1.089l-0.687-1.045l-0.157-0.229
		l-0.477-0.85l-0.629-0.911l-0.598-0.767l-1.218-1.521l-1.526-1.8l0.248-0.402l1.111,1.24l0.678,0.884l0.609,0.757l0.684,0.873
		l0.623,0.748l0.855,1.266l0.927,1.556l0.599,0.937l0.359,0.873l0.45,0.459l0.683,1.875l0.24,0.258l0.184,0.937l0.273,0.823
		l0.207,0.877l0.403-0.098l-0.021-0.01l0.092,0.258l-0.131,0.955l-0.312,1.775l0.125,0.236l0.417-0.478l0.605-1.069l0.601-1.709
		l0.075-0.812l0.149-1.141l-0.104-0.494l-0.021-0.551l-0.147-0.672l-0.352-0.735l-0.395,0.333L105.336,90.08L105.336,90.08z
		 M106.803,108.064l0.137,0.193l0.101-0.277l0.114-0.076l0.287-2.624l-0.278-0.415l-0.363-0.754l-0.362-0.006l-0.035,0.678
		l0.02,1.104l0.284,1.213l0.376,0.903l-0.294,0.101l-0.369-0.158l-0.274-0.633l-0.517-0.65l-0.845-0.911l-0.857-0.899l-1.316-1.414
		l-0.485-0.228l-0.212,0.147l-0.021,0.265l0.354,0.987l1.78,2.041l1.099,0.574l1.058,0.661l0.262,0.007L106.803,108.064
		L106.803,108.064z M105.834,108.732l0.157,0.16l0.069-0.143l-0.229-0.014l-0.192-0.354l-0.707-0.442l-2.877-0.949l-0.719-0.457
		l-0.656-0.514l-0.132-0.037l-0.14,0.203l0.79,0.889l3.161,1.51l1.218,0.243L105.834,108.732L105.834,108.732z M110.396,102.408
		l-0.174-0.407l-0.744-0.22l-0.582,1.27l-0.781,2.538l-0.086,0.964l0.064,1.109l-0.349,0.716l-0.263,0.476l0.052,0.258l0.237,0.08
		l0.633-0.275l0.513-0.484l0.653-1.393l0.334-1.204l0.078-0.409L110.396,102.408L110.396,102.408z M107.566,109.947l-0.043,0.894
		l0.211,1.38l0.067,2.354l-0.13,2.356l0.01,0.137l0.338,0.387l1.049-0.405l0.127-1.491l-0.342-1.123l0.02-0.666l-0.719-1.977
		l0.011-0.939l-0.009-1.065L107.566,109.947L107.566,109.947z M105.027,100.062l1.018,3.137l0.739,0.285l0.075-0.895l-0.885-2.43
		l-0.271-0.641l-0.697-1.343l-0.272-0.101l-0.508,0.393l0.412,0.697L105.027,100.062L105.027,100.062z M100.145,91.57l-0.877-0.68
		l-0.234-0.144l-0.223,0.028l-0.021,0.136l0.514,0.812l0.356,0.756l0.498,0.66l0.622,0.913l1.162,1.165l0.356,0.039l-0.122-0.551
		l-0.596-0.934l-0.512-0.818L100.145,91.57L100.145,91.57z M102.443,91.025l0.223,1.416l0.387,1.332l0.028,0.274l0.676,2.373
		l0.12,0.062l0.066-0.072l0.017-0.957l-0.146-1.092l-0.238-1.063l0.035-0.571l-0.885-2.435l-0.149-0.063l-0.086,0.162
		L102.443,91.025L102.443,91.025z M108.873,118.264l-0.229-0.385l-0.365,0.162l-0.057,0.195L108.873,118.264L108.873,118.264z"/>
	<polygon fill="#232734" points="41.994,48.839 41.321,49.005 39.855,48.736 38.787,49.037 37.562,49.083 36.962,48.833 
		36.886,48.522 37.501,48.042 38.587,48.469 39.469,48.086 37.573,47.311 35.321,45.845 33.935,44.988 33.873,44.279 34.248,44.262 
		36.491,45.65 38.588,47 39.725,47.54 40.621,47.935 41.136,48.154 41.399,48.243 43.132,48.76 43.421,49.023 43.09,49.201 	"/>
	<polygon fill="#232734" points="57.382,34.545 57.021,33.553 56.992,33.435 56.773,31.934 56.847,31.838 57.372,32.561 
		57.45,33.17 58.032,34.893 59.403,38.714 59.566,39.528 59.678,40.068 59.916,40.83 59.65,41.144 59.518,41.106 59.451,40.562 
		58.785,40.349 58.408,39.96 58.498,39.549 59.039,39.553 58.999,39.175 57.822,35.88 57.666,34.931 	"/>
	<polygon fill="#232734" points="54.148,42.281 54.322,42.493 54.464,42.69 53.976,42.889 52.541,41.604 52.191,41.145 
		51.289,40.924 49.88,40.333 49.923,39.929 50.671,39.125 51.064,39.072 51.216,39.275 51.162,39.386 50.445,39.79 50.395,40.045 
		50.442,40.175 51.909,40.589 52,40 51.725,39.284 51.619,39.195 51.934,39.025 52.191,39.123 52.725,39.562 53.288,39.925 
		53.31,39.884 52.436,40.701 52.529,40.946 54.054,42.275 54.187,42.3 	"/>
	<polygon fill="#232734" points="99.666,97.514 99.271,97.656 98.895,97.447 97.96,96.625 97.253,95.783 96.428,94.502 
		96.146,94.189 96.128,93.833 95.84,93.518 95.555,92.734 95.768,92.121 97.548,93.368 97.592,93.5 97.605,93.473 97.221,93.411 
		96.322,93.13 96.387,93.535 96.617,94.04 97.475,95.293 98.646,96.695 99.451,97.184 99.658,97.527 	"/>
	<polygon fill="#232734" points="55.519,30.566 55.197,30.794 54.946,30.686 52.66,28.897 52.126,28.378 51.814,27.521 
		52.271,26.891 53.06,27.804 53.893,28.728 54.69,29.677 	"/>
	<polygon fill="#232734" points="46.745,48.896 47.755,49.384 48.796,50.03 48.544,50.295 47.406,49.775 46.342,49.407 
		45.614,47.72 44.246,46.912 44.142,46.273 44.903,46.203 45.707,46.963 46.185,47.567 	"/>
	<polygon fill="#232734" points="53.924,10.567 53.708,10.354 53.67,9.717 53.48,9.177 53.088,9.201 53.065,10.043 53.153,10.728 
		53.021,10.897 52.907,10.831 52.588,9.965 52.646,9.102 53.252,8.555 53.507,8.612 53.593,8.712 54.121,10.153 54.221,10.834 
		54.715,11.785 55.341,13.471 55.225,13.864 55.135,13.967 54.932,13.879 54.537,12.808 54.121,12.444 	"/>
	<path fill="#232734" d="M76.521,53.835l-0.723-0.057l-0.596-0.832l-0.172-0.492l-0.038-0.545l-0.019-0.271l0.227-0.496l0.505-0.14
		l0.616,0.5l0.283,0.78L76.521,53.835L76.521,53.835z M75.874,52.259l0.056-0.16l-0.066-0.257l-0.186-0.182l-0.062,0.325
		L75.874,52.259L75.874,52.259z"/>
	<polygon fill="#232734" points="51.777,79.352 52.135,79.24 52.815,79.786 53.359,81.229 53.263,81.448 53.001,81.463 
		52.885,81.395 52.065,80.879 50.49,79.877 50.259,79.169 50.81,78.875 51.409,79.189 51.434,79.143 51.002,79.465 52.346,80.543 
		52.551,80.083 51.974,79.689 51.789,79.326 	"/>
	<polygon fill="#232734" points="56.096,35.942 55.568,35.155 54.993,33.788 55.041,33.665 56.01,34.377 56.365,35.168 
		56.765,35.54 57.07,36.192 57.786,36.938 57.451,37.109 57.087,36.923 	"/>
	<polygon fill="#232734" points="75.396,88.415 75.922,88.541 76.766,88.996 76.902,89.238 77.033,89.682 76.812,90.632 
		77.084,91.395 76.939,91.566 76.413,91.123 75.424,88.361 	"/>
	<path fill="#232734" d="M96.082,99.357l-0.439-0.463l-0.396-0.42l0.062-0.682l0.452-0.54l0.931-0.076l0.6,0.513l0.139,0.49
		l-0.283,0.711L96.082,99.357L96.082,99.357z M95.762,98.214l0.068,0.122l0.688,0.445l0.232-0.062l0.166-0.343l-0.428-0.829
		L95.762,98.214L95.762,98.214z"/>
	<polygon fill="#232734" points="85.887,104.387 86.613,105.24 86.691,105.753 85.771,105.759 84.561,104.426 84.658,103.991 
		85.004,103.799 85.551,104.18 	"/>
	<polygon fill="#232734" points="39.774,46.328 39.952,46.851 39.856,47.04 38.499,45.88 38.525,45.623 39.205,45.362 
		40.758,46.035 41.227,47.221 40.733,47.027 40.73,46.707 40.045,46.302 39.783,46.312 39.56,45.978 39.188,46.088 39.641,46.357 	
		"/>
	<path fill="#232734" d="M45.022,69.536l0.74,0.144l0.611,0.537l0.229,0.629l-0.257,0.323l-0.495,0.147l-1.24-0.463l-0.344-0.844
		L45.022,69.536L45.022,69.536z M46.132,70.512l-1.113-0.373l-0.055,0.247l0.147,0.218l0.774,0.338L46.132,70.512L46.132,70.512z"/>
	<polygon fill="#232734" points="47.981,50.83 48.356,50.735 50.597,51.631 51.158,51.427 51.848,51.67 51.509,52.073 
		51.598,52.181 51.395,52.498 49.678,51.677 48.157,51.001 48,50.79 	"/>
	<polygon fill="#232734" points="58.094,89.01 56.815,88.791 56.79,88.518 56.896,87.959 57.608,87.699 58.356,87.838 
		58.549,88.214 	"/>
	<polygon fill="#232734" points="71.707,31.414 71.257,31.458 71.133,30.333 70.996,29.19 71.191,28.707 71.633,28.824 
		72.354,30.603 72.337,30.736 72.275,30.838 71.857,30.626 71.825,30.186 71.745,30.083 71.565,30.201 71.459,30.495 	"/>
	<polygon fill="#232734" points="87.785,68.93 87.536,68.936 86.479,67.875 86.379,67.782 84.712,66.167 84.83,65.854 
		84.962,65.812 85.184,65.969 86.279,67.203 87.396,68.232 87.771,68.955 	"/>
	<polygon fill="#232734" points="48,50.79 47.625,50.9 46.642,50.388 45.985,50.184 45.47,49.999 43.939,49.4 43.948,49.039 
		44.447,49.258 45.617,49.664 46.143,49.833 46.924,50.069 47.812,50.439 47.981,50.83 	"/>
	<polygon fill="#232734" points="99.795,69.568 99.391,69.366 99.088,68.548 99.096,67.604 99.598,67.809 100.277,69.044 	"/>
	<polygon fill="#232734" points="40.298,66.986 39.679,67.167 39.84,66.503 39.141,66.016 38.968,65.534 39.205,65.127 
		40.101,65.528 40.254,65.867 	"/>
	<polygon fill="#232734" points="55.789,48.998 56.651,49.806 56.137,50.498 55.914,50.37 55.169,49.053 54.967,48.542 
		55.063,48.156 55.26,48.038 55.367,48.116 	"/>
	<polygon fill="#232734" points="42.967,50.643 42.792,51.158 41.714,50.69 41.612,50.44 41.649,50.185 41.89,49.985 43.539,50.421 
		43.575,50.522 43.5,50.622 	"/>
	<polygon fill="#232734" points="104.738,94.188 104.684,93.652 104.805,92.568 105.09,90.373 105.336,90.08 105.324,90.075 
		105.439,90.471 105.324,91.573 105.208,93.098 104.93,94.027 104.719,94.18 	"/>
	<polygon fill="#232734" points="74.645,40.566 74.934,40.515 75.591,41.187 75.682,42.441 75.387,42.86 75.122,42.395 
		74.584,40.819 	"/>
	<polygon fill="#232734" points="42.273,27.989 41.567,27.526 41.018,27.243 40.736,26.261 41.006,26.163 42.454,27.615 	"/>
	<polygon fill="#232734" points="53.288,39.925 53.423,39.913 54.214,40.795 54.587,41.172 54.52,42.115 54.148,42.281 54.187,42.3 
		54.021,41.284 53.467,40.908 53.473,40.391 53.31,39.884 	"/>
	<polygon fill="#232734" points="81.016,51.583 80.661,51.442 79.924,49.417 80.205,49.341 80.432,49.654 81.068,51.452 	"/>
	<polygon fill="#232734" points="55.822,61.728 55.705,62.616 55.512,62.475 55.179,61.558 54.803,61.542 54.522,61.842 
		54.277,61.909 54.139,61.566 54.44,61.129 55.095,60.904 	"/>
	<polygon fill="#232734" points="93.893,57.354 93.643,57.504 93.055,56.965 93.357,55.929 93.831,56.119 93.988,56.405 	"/>
	<polygon fill="#232734" points="92.587,123.729 92.124,124.202 91.645,123.909 91.77,123.561 92.678,123.124 93.072,123.297 
		93.463,124.084 93.336,124.256 93.128,124.1 	"/>
	<polygon fill="#232734" points="89.54,71.283 89.409,71.301 88.619,70.432 88.342,69.979 87.785,68.93 87.771,68.955 
		87.902,68.942 88.637,69.689 89.139,70.305 89.521,71.314 	"/>
	<polygon fill="#232734" points="52.963,37.103 53.197,37.203 53.96,37.788 54.042,37.897 54.128,38.276 54.048,38.349 
		53.911,38.344 52.823,37.524 52.776,37.275 	"/>
	<polygon fill="#232734" points="57.242,57.322 57.065,56.662 57.789,55.744 57.984,56.28 57.913,56.534 57.783,56.768 
		57.228,57.316 	"/>
	<polygon fill="#232734" points="77.661,72.302 77.049,72.1 76.044,71.166 75.831,70.58 75.809,70.621 75.941,70.607 77.456,71.98 
		77.632,72.354 	"/>
	<polygon fill="#232734" points="83.45,106.812 83.577,106.857 84.038,107.297 84.33,107.936 84.229,108.199 83.977,108.247 
		83.396,106.918 	"/>
	<polygon fill="#232734" points="45.224,51.696 44.784,51.954 43.9,51.652 44.026,51.148 44.148,51.134 	"/>
	<polygon fill="#232734" points="43.78,37.146 43.662,37.613 43.212,37.429 43.472,36.71 44.216,36.53 44.178,36.895 	"/>
	<polygon fill="#232734" points="78.564,73.18 77.684,73.164 77.617,72.688 77.661,72.302 77.632,72.354 78.357,72.734 
		78.549,73.207 	"/>
	<polygon fill="#232734" points="50.671,67.793 51.054,67.914 51.162,68.005 50.706,68.612 50.231,68.354 	"/>
	<polygon fill="#232734" points="103.219,76.402 102.759,76.243 102.746,75.828 103.229,75.703 103.409,76.016 	"/>
	<polygon fill="#232734" points="58.605,43.045 58.847,43.632 58.554,43.904 58.354,43.754 58.309,43.211 58.65,43.066 	"/>
	<polygon fill="#232734" points="57.392,51.514 57.091,50.979 57.162,50.893 57.66,51.276 	"/>
	<polygon fill="#232734" points="75.014,69.977 74.277,69.622 74.193,69.387 74.18,69.415 74.509,69.424 74.841,69.488 
		74.783,69.456 74.991,70.021 	"/>
	<polygon fill="#232734" points="75.831,70.58 75.098,70.219 75.014,69.977 74.991,70.021 75.256,70.024 75.656,70.088 
		75.602,70.057 75.809,70.621 	"/>
	<polygon fill="#232734" points="64.194,109.359 64.209,109.094 64.413,108.943 64.628,109.215 64.446,109.396 	"/>
	<polygon fill="#232734" points="74.225,45.382 74.458,45.124 74.68,45.256 74.811,45.495 74.85,45.627 74.689,45.855 	"/>
	<polygon fill="#232734" points="55.509,55.598 55.709,55.753 55.734,55.991 55.534,56.118 55.224,55.794 55.38,55.623 	"/>
	<polygon fill="#232734" points="49.688,57.988 50.011,58.122 50.33,58.958 50.355,58.91 50.037,58.771 49.707,57.94 	"/>
	<polygon fill="#232734" points="90.202,83.893 90.378,84.486 90.225,84.777 90.275,84.8 90.09,84.205 90.25,83.911 	"/>
	<polygon fill="#232734" points="80.593,107.354 80.432,107.034 80.84,106.896 	"/>
	<polygon fill="#232734" points="49.519,29.428 50.035,29.375 50.051,29.612 49.953,29.658 	"/>
	<polygon fill="#232734" points="58.057,42.348 57.827,42.738 57.652,42.624 57.711,42.505 58.099,42.37 	"/>
	<polygon fill="#232734" points="63.854,41.77 64.289,41.311 64.256,41.293 64.158,41.609 63.814,41.749 	"/>
	<polygon fill="#232734" points="49.707,57.94 49.467,58.05 49.23,57.99 49.286,57.878 49.52,57.813 49.688,57.988 	"/>
	<path fill="#232734" d="M72.305,69.344l-0.389,0.136L72.305,69.344z"/>
	<polygon fill="#232734" points="74.193,69.387 73.807,69.194 73.736,68.953 73.723,68.98 74.04,69.071 74.18,69.415 	"/>
	<polygon fill="#232734" points="78.967,83.061 79.05,83.039 79.159,83.247 78.994,83.296 	"/>
	<polygon fill="#232734" points="109.07,86.48 108.786,86.732 108.628,86.587 108.689,86.464 	"/>
	<polygon fill="#232734" points="51.409,79.189 51.777,79.352 51.789,79.326 51.434,79.143 	"/>
	<polygon fill="#232734" points="90.225,84.777 90.225,85.021 90.127,84.986 90.275,84.8 	"/>
	<polygon fill="#232734" points="57.128,43.919 57.494,44.085 57.514,44.041 57.15,43.875 	"/>
	<polygon fill="#232734" points="86.557,128.877 86.197,128.707 86.175,128.76 86.531,128.932 	"/>
	<polygon fill="#232734" points="86.531,128.932 86.775,128.963 86.727,129.055 86.557,128.877 	"/>
	<polygon fill="#232734" points="86.52,131.314 86.764,131.324 86.693,131.477 86.527,131.297 	"/>
	<polygon fill="#232734" points="82.109,72.217 82.578,71.477 83.014,71.7 83.493,72.881 82.963,73.354 82.83,73.318 82.493,73.07 
		82.729,72.415 82.6,72.184 82.064,72.195 	"/>
	<polygon fill="#232734" points="79.527,70.881 79.723,70.454 80.491,71.155 80.18,71.357 	"/>
	<polygon fill="#232734" points="81.755,70.154 81.62,70.059 81.579,69.81 81.891,69.661 81.958,69.87 	"/>
	<polygon fill="#232734" points="78.762,69.34 78.961,69.175 79.131,69.286 78.943,69.448 78.82,69.419 	"/>
	<polygon fill="#232734" points="82.064,72.195 82.029,72.423 81.939,72.381 82.109,72.217 	"/>
	<path fill="#232734" d="M71.107,58.05l0.259,0.277l0.146,1.227l-0.625,1.364l-0.374-0.194l0.355-0.438l0.175-1.095l-0.271-0.384
		l-0.359,1.466l-0.149,0.038l-0.836-0.085l-0.578-1.51l0.366-0.636l0.243-0.092l0.964,0.529L71.107,58.05L71.107,58.05z
		 M69.318,59.114l0.642,0.661l-0.423-1.157L69.318,59.114L69.318,59.114z"/>
	<polygon fill="#232734" points="72.552,59.832 72.566,58.986 72.822,58.63 73.616,59.907 73.363,60.282 73.395,60.657 
		73.134,61.043 72.936,60.871 	"/>
	<polygon fill="#232734" points="63.064,50.975 63.65,50.196 64.2,50.483 63.779,51.171 63.744,51.301 63.921,52.099 63.337,51.813 
			"/>
	<polygon fill="#232734" points="69.014,61.477 69.295,61.676 68.967,62.241 68.719,62.244 68.631,62.019 	"/>
	<polygon fill="#232734" points="67.237,69.596 67.354,69.649 67.783,70.663 67.73,71.057 67.488,71.654 67.336,71.861 
		66.972,71.96 65.964,71.16 65.885,70.667 66.384,70.496 66.647,70.588 67.084,70.752 66.996,70.068 	"/>
	<polygon fill="#232734" points="69.006,67.418 68.671,67.503 67.93,67.252 67.259,67.229 66.494,68.037 66.407,67.625 
		67.285,66.846 68.845,67.216 	"/>
</g>
</svg>
