<?xml version="1.0" encoding="utf-8"?>
<!-- Generator: Adobe Illustrator 15.0.2, SVG Export Plug-In . SVG Version: 6.00 Build 0)  -->
<!DOCTYPE svg PUBLIC "-//W3C//DTD SVG 1.1//EN" "http://www.w3.org/Graphics/SVG/1.1/DTD/svg11.dtd">
<svg version="1.1" id="Layer_1" xmlns="http://www.w3.org/2000/svg" xmlns:xlink="http://www.w3.org/1999/xlink" x="0px" y="0px"
	 width="39.75px" height="39.75px" viewBox="0 0 39.75 39.75" enable-background="new 0 0 39.75 39.75" xml:space="preserve">
<g id="hoja4">
	<path fill="#232734" d="M11.973,23.465l-0.295-0.654L10.427,21.6l-0.197-0.567L9.654,20l-0.602-0.832l-0.119-0.355L8.945,17.3
		l-0.187-0.841l-0.18-0.688l-0.206-0.104l-2.047-0.284L5.39,15.261L4.531,15.18l-0.456-0.087L3.929,14.76l0.112-0.518l0.202-0.222
		l0.112-0.04l1.623,0.103L6.9,14.277l0.982,0.257L8.03,14.41l-0.057-0.26l0.121-0.483l0.139-0.206l0.149-0.104l0.86-0.381
		l0.164-0.049l0.545-0.241l0.394-0.176l1.889,0.07l1.922,0.455l0.413,0.122l0.932,0.089l0.811-0.264l1.38,0.246l0.508-0.333
		l0.162-0.037l1.035-0.045l0.906,0.229l1.003,0.482l0.159,0.057l0.806,0.291l0.408,0.134l0.713,0.293l0.799,0.497l0.638,0.435
		l0.638,0.435l0.379,0.199l0.508,0.532l0.631,0.22l0.406,0.374l0.231,0.251l0.718,0.96l0.26,0.341l1.064,0.997l0.16,0.313
		l0.812,0.797l0.307,0.5l0.453,0.621L32.012,23l0.35,0.688l0.556,1.539l0.261,0.627l0.104,0.23l0.647,0.802l0.227,0.259l0.437,0.438
		l0.06,0.343l-0.268,0.005l-1.715-0.556l-0.08-0.033l-0.908-0.22L31.007,27l-0.255-0.068l-0.663,0.103l-0.925-0.158l-0.771,0.085
		l-1.026-0.113l-0.343,0.008l-1.627,0.183l-0.345-0.001l-0.591-0.051l-0.68-0.035l-0.598-0.057l-1.029-0.09l-1.028-0.087
		l-0.849-0.116l-0.68-0.047l-0.896-0.019l-0.357-0.163l-0.379-0.198l-0.587-0.347l-0.61-0.307l-0.639-0.244l-1.059-0.18
		l-0.938-0.516l-0.07-0.05l-0.54-0.259l-0.474-0.199l-0.527-0.272L11.973,23.465L11.973,23.465z M6.921,14.697L6.787,14.64
		l-0.005,0.062l0.136-0.042l0.149,0.048l-0.009-0.066L6.921,14.697L6.921,14.697z M5.932,14.493l-0.243,0.009l-0.192-0.176
		l-0.758-0.054L4.68,14.661l0.856-0.122l0.15-0.066L5.93,14.46l0.149,0.059V14.45L5.932,14.493L5.932,14.493z M18.454,15.384
		l-0.044-0.255l-0.072-0.017l-0.02,0.103l0.162,0.167l-0.018,0.22l0.163,0.179l0.132-0.035L18.7,15.6L18.454,15.384L18.454,15.384z
		 M25.145,16.776l0.513,0.66l0.167,0.186l0.171,0.027l0.062-0.204l-0.683-0.665l-0.228,0.034l-0.309-0.295L24.404,16.3l0.644,0.785
		L25.145,16.776L25.145,16.776z M16.477,14.718l0.533,0.542l0.284,0.702l0.37-0.02l-0.327-0.858l-1.598-1.435l-0.081-0.011
		l-0.06,0.276l-0.023,0.406l0.108,0.136l0.356,0.369l0.267,0.433l0.201,0.373l0.206,0.13l0.199-0.085l-0.201-0.366l-0.264-0.436
		L16.477,14.718L16.477,14.718z M19.867,13.862l-0.075-0.04l-0.312,0.082l-0.433-0.215l0.167,0.257l0.815,0.762l0.625,0.806
		l0.281,0.63l0.408,0.012l0.104-0.095l-0.619-0.911l-0.218-0.382l-0.686-0.63l-0.085-0.142l0.024-0.165l1.279,1.202l0.117,0.276
		l0.412,0.643l0.172,0.188l0.215,0.081l-0.022-0.343l-0.304-0.537l-1.573-1.425L20.02,13.83L19.867,13.862L19.867,13.862z
		 M12.129,13.325l1.544,1.456l0.11,0.271l0.522,0.433l-0.118-0.459l-0.794-0.784L12.76,13.66l-0.012-0.132l0.106,0.008l0.318,0.261
		l0.544,0.477l0.16,0.054l0.234,0.344l0.352,0.391l0.118,0.381l-0.183,0.411l0.23,0.092l0.271-0.236l0.034-0.515l-0.194-0.379
		l-1.796-1.574l-0.498,0.126l-0.317-0.013l-0.135-0.06l-0.031,0.046L12,13.392L12.129,13.325L12.129,13.325z M31.686,26.068
		l-1.525-1.381l-1.146-0.881l-0.336-0.267l-0.441-0.304l0.15,0.463l0.731,0.742l0.259,0.418l0.354,0.373l0.237,0.395l0.474,0.434
		l0.531,0.28l0.407,0.017l0.027-0.174l0.278-0.146l0.723,0.622l0.324,0.003l-0.09-0.155l-0.591-0.344l-0.217-0.137L31.686,26.068
		L31.686,26.068z M21.268,17.715l-0.002-0.02l-0.572,0.645l-0.045,0.166l0.728,0.324l0.394-0.553l0.166-0.039l0.108,0.076
		l-0.386,0.555l0.023,0.077l0.644,0.216l0.457,0.324l0.35,0.005l0.777-0.848l0.256-0.229l0.083-0.018l0.023,0.145l-0.735,0.806
		l0.011,0.434l0.32,0.199l0.501-0.231l0.446-0.25l0.326-0.064l0.047,0.044l-0.011,0.082l-0.45,0.232l-0.233,0.26l-0.041,0.213
		l0.471,0.22l0.093-0.006l0.424-0.393l0.467-0.257l0.209-0.139l0.148,0.048l-0.061,0.126l-0.352,0.244l-0.438,0.262l-0.055,0.065
		l-0.053,0.156l0.178,0.149l0.39-0.171l0.409-0.3l-0.006,0.136l-0.323,0.402l-0.038,0.157l0.34,0.196l0.301-0.168l0.934,0.163
		l-0.006,0.231l-0.42-0.041l-0.34-0.021l-0.025,0.151l0.459,0.16l1.328,0.368l0.646,0.206l0.5,0.127l1.26,0.264l0.158-0.053
		l-0.688-0.724l-1.569-0.453l-0.235-0.087l-0.018-0.139l0.083-0.021l1.095,0.199l0.312,0.137l0.4,0.004l-0.34-0.376l-0.308-0.236
		l-0.566-0.197l-0.138-0.233l-1.154-0.261l-0.806,0.021l0.081-0.194l0.679-0.101l-0.05-0.153l-0.619-0.604l-0.636-0.434l-0.56-0.376
		L25.1,18.181l-0.371-0.176l-0.519-0.594l-0.323-0.232L23.352,17.2l-0.598-0.053l-0.363-0.265l-0.504-0.021l-0.593-0.085
		l-0.604,0.014l-0.677-0.024l-0.748-0.188l-0.162-0.052l-0.239,0.021L18.152,17.4l0.462,0.089l0.385-0.336l0.415-0.143l-0.009,0.161
		l-0.544,0.403l-0.036,0.146l0.252,0.028l0.244-0.018l1.217-0.637l0.114,0.182l-0.629,0.266l-0.359,0.394l-0.005,0.144l0.309,0.133
		l0.376,0.174l0.565-0.552l0.204-0.15L21.268,17.715L21.268,17.715z M18.905,22.344l0.161,0.192l0.187,0.926l0.427,1.574
		l0.321,0.604l0.16,0.191l0.261,0.042l0.936,0.124l0.166,0.029l0.151-0.09l-0.358-0.957l-0.026-0.25l0.132-0.051l0.666,1.184
		l0.354,0.393l0.486,0.115l0.254-0.053l-0.461-0.528l-0.592-1.541l-0.434-1.569l0.193-0.09l0.278,0.801l0.385,1.139l0.323,0.945
		l0.369,0.403l0.408,0.547l0.593-0.022l0.112-0.119l-0.262-0.531l-0.468-0.709l-0.33-0.6l-0.233-0.551l-0.226-0.643l-0.028-0.264
		l-0.074-0.858l0.082-0.123l0.121,0.091l0.246,1.178l0.246,0.637l0.235,0.64L24,25.049l0.402,0.655l0.675,0.653l1.552,0.06
		l0.084-0.218l-0.854-1.079l0.035-0.151l-0.026,0.004l0.534,0.534l0.093,0.235l0.446,0.408l0.486-0.146l-0.025-0.082l-0.654-0.66
		l-0.158-0.476l0.395,0.474l0.845,0.771l0.446,0.027l-0.389-0.444l-0.443-0.507l0.156,0.023l0.553,0.487l0.283,0.077l0.568,0.392
		l-0.021-0.132l-0.809-0.777l-0.218-0.263L27.654,24.4l-0.375-0.571l-0.014-0.313l0.084,0.012l0.209,0.365l0.262,0.338l0.396,0.553
		l0.293,0.464l1.187,1.06l0.414,0.088l0.162-0.101l-0.01-0.079l-0.699-0.756l-0.105-0.227l-0.646-0.668l-0.129-0.291l-0.279-0.284
		l-0.262-0.27l-0.134-0.284l-1.422-1.229l-0.489-0.152l-0.132-0.275l-0.659-0.619l-0.277-0.197l-0.687-0.355l0.12,0.477l0.236,0.734
		l-0.059,0.146h0.008l-0.273-0.267l-0.117-0.507l-0.277-0.323l-0.155-0.497l-0.392-0.092l0.026,0.331l0.11,0.404l-0.065,0.146h0.002
		l-0.157-0.197l-0.304-0.806l-0.101-0.127l-0.394-0.063l-0.028,0.425l-0.15-0.048l-0.109-0.411l-0.334-0.329l-0.244,0.402
		l-0.022,0.258l-0.052,0.038l-0.143-0.09l-0.105-0.778l-0.696-0.274l-0.313-0.091l-0.178,0.27l-0.135,0.053l-0.212-0.432
		l-1.273-0.532l-0.056,0.224l0.137,0.218l0.202,0.834l0.013,0.344l-0.178,0.129l-0.607-1.902l-0.259-0.18l-0.249-0.067l-0.886-0.324
		l-0.224-0.127l-0.212,0.072l0.01,0.081l0.498,0.795l0.238,0.641l-0.039,0.145l-0.293-0.28l-1.011-1.746l-0.569-0.171l0.039,0.331
		l0.397,0.661l0.207,0.729l-0.192-0.08l-0.423-0.842l-0.652-1.004l-0.237-0.224l-0.496-0.124l0.037,0.345l0.34,0.689l-0.005,0.239
		l-0.161-0.06l-0.577-1.048l-0.516-0.601l-0.886-0.25l-0.255,0.055l0.458,0.514l0.469,0.951l0.065,0.422l0.19,0.224l0.174,0.628
		l-0.06,0.15h0.004l-0.176-0.183l-0.37-0.864l-0.369-0.872l-0.342-0.591l-0.55-0.52l-0.585,0.098l0.438,0.496l0.17,0.427
		l-0.271,0.044l-0.442-0.757l-0.334-0.236l0.237,0.575l0.233,0.646l0.545,1.988l0.044,0.255l0.274,0.992l0.34,0.883l0.463,0.918
		l0.725,0.945l0.068,0.051l0.085,0.008l-0.012-0.128l-0.529-0.87l-0.191-0.836l-0.175-0.664l-0.153-0.581l0.057-0.23l0.146,0.106
		l0.129,0.5l0.319,1.068l0.47,1.314l0.313,0.483l0.589,0.538l0.869,0.457l0.103-0.151l-0.616-1.213l-0.317-0.89l0.07-0.12
		l0.082,0.015l0.192,0.28l0.435,0.931l0.51,0.893l0.518,0.568l0.086,0.029l0.269-0.098l-0.096-0.139l-0.501-0.587l-0.436-0.835
		l-0.508-1.462l-0.021-0.283l0.223,0.151l0.109,0.229l0.416,1.221l0.457,0.822l0.439,0.631l0.444,0.614l0.885,0.351l0.359-0.035
		l-0.509-1.167l-0.01-0.17l0.176-0.138l0.221,0.562l0.217,0.562l0.283,0.528l0.492,0.517l0.465,0.114l0.174-0.071l-0.111-0.467
		l-0.294-0.615L18.944,23.9l0.017-0.551l-0.107-0.934l0.048-0.07h0.003V22.344z M9.191,15.472l0.253,0.567l0.286,0.527l0.002,0.153
		l-0.16,0.227l0.006,0.94l0.03,0.323l0.381,0.787l0.199,0.475l0.174,0.188l0.155-0.075l-0.381-1.424l0.132-0.107l0.141,0.298
		l0.311,1.07l0.175,0.752l0.35,1.233l0.41,0.31l-0.049-0.397l-0.453-1.105l-0.491-2.001l-0.249-0.908l-0.33-0.887l-0.354-0.685
		l-0.104-0.126L9.191,15.472L9.191,15.472z M31.031,22.915l-1.102-0.248l-1.801-0.504l-0.316,0.012l0.033,0.077l0.444,0.243
		l0.397,0.298l1.377,0.408l0.439,0.322l0.698,0.312l0.696,0.49l0.229-0.057l-0.071-0.429l-0.271-0.304l-0.217-0.293L31.031,22.915
		L31.031,22.915z M29.605,23.324l-0.004,0.061l0.892,0.795l0.558,0.393l1.147,0.988l0.499,0.135l-0.198-0.534l-0.883-0.808
		l-0.369-0.147l-0.735-0.431l-0.438-0.25L29.605,23.324L29.605,23.324z M20.624,16.299l0.013-0.27l-0.219-0.487l-0.501-0.528
		L19.8,14.76l-0.3-0.299l-0.448-0.41l-0.692-0.306l0.038,0.153l0.687,0.642l0.67,0.877l0.282,0.614l0.103,0.163L20.624,16.299
		L20.624,16.299z M19.639,15.896l-0.205-0.557l-0.518-0.683l-0.688-0.629l-0.399-0.121l-0.053,0.146l0.551,0.556l0.117,0.248
		l0.398,0.423l0.654,0.73L19.639,15.896L19.639,15.896z M24.279,16.627l-0.502-1.058l-0.233-0.214l-0.185-0.179l-0.25-0.232
		l-0.291-0.16l-0.094,0.202l0.944,1.385l0.147,0.139L24.279,16.627L24.279,16.627z M17.047,16.821l-0.08-0.15l-0.957-0.34
		l-0.31,0.105l0.096,0.188l0.895,0.273l0.926,0.402l0.247-0.034l0.333-0.391l-0.047-0.045L17.047,16.821L17.047,16.821z
		 M17.195,14.515l0.141,0.271l0.494,0.881l0.152,0.377l0.319-0.068l-0.479-1.161l-1.203-1.077l-0.084-0.01l0.01,0.076L17.195,14.515
		L17.195,14.515z M20.576,13.923l0.438,0.344l0.09,0.204l0.897,0.863l0.244,0.436l0.217,0.452l0.081,0.01l0.048-0.039l-0.058-0.329
		l-0.604-1.04l-0.842-0.769l-0.449-0.144L20.576,13.923L20.576,13.923z M15.024,14.859l0.087,0.199l0.279,0.521l0.217,0.055
		l0.031-0.226l-0.312-0.549l-0.73-0.662l-0.149-0.005L15.024,14.859L15.024,14.859z M23.309,16.38l-0.236-0.634l-0.592-0.582
		l0.496,1.074L23.309,16.38L23.309,16.38z M12.204,14.942L12.18,14.81l-1.273-1.145l-0.138-0.026l0.02,0.085l1.329,1.205
		L12.204,14.942L12.204,14.942z M15.896,15.024l-0.814-0.737L15.896,15.024L15.896,15.024z M16.848,13.651l0.307-0.007l-0.07-0.223
		l-0.455-0.04L16.848,13.651L16.848,13.651z M13.559,15.493l-0.006-0.114l-0.384-0.274L13.559,15.493L13.559,15.493z M28.107,19.104
		l0.011-0.163l-0.099-0.093l-0.09,0.112l0.061,0.143l0.07,0.033L28.107,19.104L28.107,19.104z M15.854,15.24l0.184,0.249
		l0.119-0.016l-0.018-0.076l-0.17-0.166L15.854,15.24L15.854,15.24z M10.349,14.372l-0.153,0.141l0.163,0.153L10.349,14.372
		L10.349,14.372z M12.816,14.569l-0.072-0.143l-0.105,0.002l0.03,0.071L12.816,14.569L12.816,14.569z M9.391,14.714l-0.02-0.056
		l-0.032,0.025L9.391,14.714L9.391,14.714z M9.71,14.513l0.021,0.063l0.04-0.036L9.71,14.513L9.71,14.513z M9.74,14.105l0.002-0.064
		l-0.063-0.007l0.001,0.063L9.74,14.105L9.74,14.105z M16.333,13.485l-0.063,0.017l0.041,0.046L16.333,13.485L16.333,13.485z"/>
	<polygon fill="#232734" points="12.985,18.813 13.111,18.926 13.453,20.059 13.441,20.228 13.398,20.271 13.324,20.246 
		13.241,20.104 12.929,18.959 12.989,18.813 	"/>
	<polygon fill="#232734" points="23.658,22.008 23.818,22.193 24.109,23.521 23.883,23.372 23.812,23.225 23.621,22.072 
		23.673,22.007 	"/>
	<polygon fill="#232734" points="17.209,21.139 17.412,20.997 17.478,22.298 17.277,22.18 	"/>
	<polygon fill="#232734" points="25.895,24.969 25.661,24.756 25.32,23.866 25.525,23.973 25.912,24.9 25.868,24.973 	"/>
	<polygon fill="#232734" points="20.337,21.874 20.453,21.751 20.557,21.74 20.764,22.191 20.62,22.505 20.477,22.542 	"/>
	<polygon fill="#232734" points="23.673,22.007 23.516,21.814 23.456,21.225 23.505,21.157 23.503,21.157 23.658,21.35 
		23.708,21.939 23.658,22.008 	"/>
	<polygon fill="#232734" points="24.639,21.963 24.833,22.486 24.693,22.432 24.6,22.031 24.646,21.963 	"/>
	<polygon fill="#232734" points="18.901,22.344 18.786,21.982 18.847,21.938 18.917,21.952 18.905,22.344 	"/>
	<polygon fill="#232734" points="16.341,20.103 16.381,20.147 16.3,20.276 16.215,20.275 16.22,20.19 	"/>
	<polygon fill="#232734" points="15.373,20.404 15.399,20.46 15.302,20.574 15.239,20.555 15.233,20.471 	"/>
	<polygon fill="#232734" points="16.437,21.58 16.397,21.616 16.271,21.533 16.349,21.455 	"/>
	<polygon fill="#232734" points="13.894,19.829 13.873,19.76 13.985,19.747 14.034,19.888 	"/>
	<polygon fill="#232734" points="14.411,19.522 14.334,19.521 14.413,19.445 	"/>
	<polygon fill="#232734" points="20.206,20.286 20.196,20.348 20.144,20.285 	"/>
	<polygon fill="#232734" points="21.268,17.715 21.602,17.592 21.646,17.646 21.628,17.706 21.325,17.749 21.266,17.695 	"/>
	<polygon fill="#232734" points="16.481,14.757 15.564,13.918 15.793,13.896 16.479,14.528 	"/>
</g>
</svg>
