<?xml version="1.0" encoding="utf-8"?>
<!-- Generator: Adobe Illustrator 15.0.2, SVG Export Plug-In . SVG Version: 6.00 Build 0)  -->
<!DOCTYPE svg PUBLIC "-//W3C//DTD SVG 1.1//EN" "http://www.w3.org/Graphics/SVG/1.1/DTD/svg11.dtd">
<svg version="1.1" id="Layer_1" xmlns="http://www.w3.org/2000/svg" xmlns:xlink="http://www.w3.org/1999/xlink" x="0px" y="0px"
	 width="74px" height="74px" viewBox="0 0 74 74" enable-background="new 0 0 74 74" xml:space="preserve">
<g>
	<path fill="#363942" d="M34.098,13.398l0.244-0.227l0.119-0.178l0.945-1.938l0.267-0.814l0.363-1.011l0.003-0.353l0.348-0.928
		l0.269-1.493l-0.097-0.589l0.281-0.018l0.254,0.364l0.839,1.62l1.27,1.59l0.717,0.787l0.573,0.362l1.447,1.961l0.706,1.079
		l0.381,0.769l0.506,1.319l0.663,0.461l0.924,1.341l0.217,0.369l0.659,0.914l0.268,0.648l0.491,0.952l1.074,2.102l0.187,0.506
		l0.464,1.081l0.193,1.117l-0.042,0.381l0.47,0.724l0.12,1.69l-0.188,2.126l-0.134,0.846l-0.174,0.725l-0.146,0.623l-0.315,0.914
		l0.014,0.65l0.257-0.194l2.072-1.093l0.771-0.211l1.566-0.004l0.744,0.069l0.737,0.116l0.731,0.14l0.938,0.216l0.796,0.332
		l0.406,0.031l2.768,1.257l1.695,0.125l0.65,0.36l0.242,0.025l0.961,0.027l1.598-0.079l1.373-0.228l0.902-0.349l0.661-0.389
		l0.872-0.754l0.242,0.124l0.023,0.224l-0.396,0.337l-0.521,0.536l-0.455,0.59l-0.573,0.774l-0.396,0.766l-0.391,0.806l-0.522,0.641
		l-0.853,1.745l-0.508,0.684l-0.724,0.928l-0.501,0.888l-1.202,0.986l-1.435,0.627l-0.603,1.283l-0.338,1.041l-0.074,0.074
		l-0.534,0.664l-0.516,0.545l-1.046,0.921l-2.256,1.641l-0.796,0.451l-0.874,0.187l-0.746,0.049l-0.854-0.088l-0.825,0.027
		l-0.759-0.204l-1.402-0.71l-1.166-0.153l-0.737-0.055l-0.043,0.261l0.823,1.477l0.355,1.683l-0.107,1.707l-1.292,2.79l-0.271,0.24
		l-0.399,0.635l-0.476,0.576l-0.464,0.584l-0.572,0.475l-0.598,0.449l-1.253,1.455l-1.175,1.244l-0.722,0.641l-0.671,0.535
		l-0.705,0.771l-1.468,0.271l-0.501,0.188l-1.544,1.49l-0.228,0.223l-0.295,0.092l-0.281-0.969l0.278-1.013l0.175-0.944l0.156-1.164
		l-0.974-2.849l-0.582-1.149l-1.143-1.684l-1.78-2.555l-0.664-1.451l-0.234-0.085l-0.302,0.353l-0.738,0.344l-0.163,0.137
		l-0.454,0.455l-1.74,0.979l-1.05,0.215l-0.96,0.09l-0.316-0.057l-1.393-0.032l-1.414-0.216l-0.762-0.302l-0.949-0.159l-0.319-0.027
		l-1.029-0.296l-1.038-0.251l-1.064-0.514l-1.643-0.965l-0.36-0.027l-0.479-0.383l-0.66-0.363L13.2,52.244l-0.885-0.63l-1.04-0.525
		L9.83,50.361l-0.895-0.584l-0.729-0.626l-0.703-0.657l-0.612-0.598l-0.739-0.4L5.979,47.42l-0.031-0.429l-0.762-1l-0.716-0.49
		l0.092-0.19l0.301-0.107l1.049-0.216l1.248-0.326l0.301-0.109l1.689-0.694l2.088-1.091l0.761-0.594l0.442-0.298l0.389-0.356
		l0.376-0.34l0.501-0.932l0.758-0.596l0.475-0.983l0.828-0.897l0.601-1.039l2.925-2.111l0.661-0.353l0.648-0.371l1.302-0.511
		l1.354-0.335l0.73-0.177l1.655-0.462l0.53-0.069l1.279-0.117l0.688-0.188l0.167-0.191l-0.104-0.848l-0.077-0.736l0.125-0.181
		l0.17-0.156l-0.23-1.034l-0.077-1.703l0.146-1.062l0.037-0.209l0.239-0.934l0.161-0.947l0.326-1.241l0.198-0.828l0.305-0.685
		l0.018-0.475l0.461-1.024l0.342-0.214l0.291-0.521l0.234-0.354l0.42-0.615l0.726-1.446l0.755-1.167l0.437-0.744L34.098,13.398
		L34.098,13.398L34.098,13.398z M46.607,52.999l0.036,0.194l0.038-0.053l-0.109-0.129l-0.097-0.29l-0.134-0.306l-0.174-0.069
		l-0.09-0.294l-0.004-0.256l0.003-0.257l0.263,0.153l0.252,0.483l0.077,0.024l0.113-0.164l-0.594-1.578l-0.582-0.214l0.003,0.105
		l0.114,0.292l0.394,0.746l-0.021,0.199l-0.3-0.256l-0.474-0.777l-0.328-0.225l0.165-0.342l0.371-0.1l0.094-0.164l-0.619-0.553
		l-0.74-0.43l-0.659-0.996l-1.446-0.642l-0.057,0.038l1.099,1.162l0.378,0.631l0.258,0.335l0.731,0.776l0.452,0.273l-0.012,0.196
		l0.573,1.026l0.252,0.346l0.276,0.152l0.097,0.293l0.305,0.375L46.607,52.999L46.607,52.999L46.607,52.999z M47.855,52.398
		l-0.007,0.189l0.073-0.025l-0.11-0.147l-0.1-0.288l0.141-0.291l-0.207-0.59l-0.508-0.281l0.003,0.191l0.611,0.955L47.855,52.398
		L47.855,52.398L47.855,52.398z M17.969,36.787l0.288-0.097l0.289-0.094l0.512,0.36l-1.135,0.248l-1.116,0.406l-1.186,1.207
		l0.005,0.103l0.558-0.226l0.585-0.275l0.443-0.258l1.056-0.279l1.029-0.32l0.962-0.004l0.521-0.109l1.823-0.023l1.268,0.172
		l0.211,0.032l2.866,1.391l0.61,0.579l0.611,1.073l0.589,1.091l0.658,0.03l-0.654-1.573l-0.039-0.07l-0.368-0.457l-0.441-0.296
		L27.51,38.56l-1.093-0.516l-0.68-0.511l-0.322-0.274l-0.79-0.339l-1.129-0.314l-0.423-0.051l-0.602-0.204l-0.092-0.19l1.191,0.019
		l1.023,0.271l1.452,0.851l0.649,0.375l1.029,0.516l0.419,0.658l0.268,0.328l1.305,2.064l0.337,0.68l0.3,0.032l0.243-0.116
		l-0.014-1.122l-0.464-1.21l-0.614-1.006l-0.131-0.398l0.466,0.199l0.842,1.365l0.311,1.353l0.051,0.959l0.146,0.095l0.382-0.773
		l-0.044-0.475l-0.621-1.514l0.03-0.102l0.422,0.196l0.097,0.288l-0.008,0.189l0.082-0.021l-0.117-0.152l-0.092-0.291l0.007-0.203
		l-1.108-2.01l-0.567-0.273l-0.053-0.255l-0.446-0.215l-0.085-0.263l-0.375-0.093l0.497,0.34l0.051,0.252l0.423,0.229l-0.004,0.179
		l0.49,0.615l0.012,0.187l-0.646-0.542l-1.343-1.366l-0.855-0.663l-1.164-0.52l-0.185-0.004l-0.288,0.176l-1.09-0.465l-0.16,0.021
		l0.158,0.148l0.951,0.5l1.582,0.884l0.287,0.06l0.891,0.939l-0.023,0.062l-0.915-0.575l-1.798-0.866l-1.914-0.912l-0.552-0.056
		l-0.93-0.076l-0.063,0.084l-0.188-0.013l0.021,0.075l0.151-0.103l0.697,0.212l0.593,0.195l0.043,0.093l-0.041,0.057l-0.312,0.032
		l-0.259,0.173l-0.835-0.062l-1.353-0.181l-0.846,0.018l-0.923,0.24l-0.118,0.28l-0.284-0.115l-0.185,0.272l0.458-0.195l0.946-0.07
		l0.53-0.041l0.156,0.091l-0.022,0.097l-0.152,0.134l-0.621,0.139l-0.956,0.455l-0.056,0.091l-0.283,0.111l-0.286,0.104
		l-0.188-0.012l0.014,0.083L17.969,36.787L17.969,36.787L17.969,36.787z M40.722,46.323l0.1,0.292l0.022,0.195l0.408,0.482
		l0.421,0.477l0.399,0.494l0.396,0.5l0.907,1.166l0.14,0.156l0.33,0.41l0.25,0.339l0.369,0.509l0.331,0.954l0.329,0.486l0.539,2.155
		l0.12,0.505l0.251-0.325l0.116,0.162l0.011,0.35l0.26-0.436l-0.105-0.369l-0.27,0.332l-0.094-0.184l-0.009-0.851l0.113-0.909
		l-0.576-1.051L44.9,51.143l-0.502-0.669l-0.795-0.854l-0.757-1.032l-0.283-0.318l-1.183-1.217l-0.599-0.424l-0.095-0.293
		l-0.041-0.193l-0.038,0.061L40.722,46.323L40.722,46.323L40.722,46.323z M45.988,38.316l0.177,0.017l-0.014-0.077l-0.147,0.102
		l-0.177,0.002l0.035,0.066L45.988,38.316L45.988,38.316L45.988,38.316z M39.956,26.539l0.003,0.179l0.069-0.025l-0.115-0.138
		v-0.171l-0.067,0.022L39.956,26.539L39.956,26.539L39.956,26.539z M40.933,63.2l0.27-0.263l-0.252,0.303l-0.269,0.096l0.008,0.182
		l0.09-0.045L40.933,63.2L40.933,63.2L40.933,63.2z M13.686,47.223l-0.261-0.128L13.2,47.216l-0.418-0.202l-1.551,0.03l-0.275,0.19
		l-0.921,0.29l-0.94,0.225l-1.052,0.213l-0.087,0.183l0.459,0.337l0.568-0.175l0.309-0.063l0.143,0.125l-0.052,0.217l-0.467,0.246
		l-0.048,0.35l0.791,0.387l0.617-0.037l0.274-0.159l0.232,0.148l-0.064,0.188l-0.459,0.281l0.057,0.088l0.9,0.443l0.649-0.22
		l0.315-0.345l0.681-0.252l-0.011,0.198l-0.668,0.532l-0.364,0.34l0.173,0.116l1.166-0.185l0.211-0.019l0.16,0.114l-0.058,0.184
		l-0.67,0.25l0.155,0.141l0.897,0.366l1.034-0.236l0.411-0.11l0.663-0.23l0.943-0.605l0.849-0.648l0.186,0.14l-1.72,1.361
		l-1.001,0.466l-0.289,0.02l-0.396,0.151l0.723,0.44l0.513-0.004l1.456-0.404l1.033-0.225L18.5,51.92l-0.067,0.272l-1.359,0.394
		l-0.508,0.171l-0.132,0.158l0.7,0.727l0.295-0.092l0.942-0.516l0.547-0.341l2.177-2.478l0.555-0.785l0.16-0.278l0.241-0.481
		l0.793-1.531L22.998,47l0.229,0.146l-0.047,0.2l-1.022,2.124l-0.5,0.805l0.057,0.084l0.108,0.177l-0.613,1.101l-0.307,0.438
		l-0.442,0.461l-1.401,1.124l-0.377,0.175l0.115,0.328l2.129-0.954l0.598-0.456l0.343-0.254l0.536-0.081l0.503-1.027l0.259,0.19
		l-0.396,0.684l-0.658,1.217l-0.283,0.252l-0.405,0.811l-0.388-0.04l0.075-0.376l0.255-0.277l-0.087,0.053l-0.152,0.263
		l-0.099-0.028l-0.508,0.477l-0.034,0.076l0.06,0.101l0.292,0.027l0.401-0.026l0.17-0.285l0.196,0.011l1.328-1.2l0.354-0.571
		l0.612-0.876l1.594-3.302l0.463-0.974l0.164-0.102l0.092,0.494l-1.312,2.838l-0.84,1.631l-0.33,0.449l-0.409,1.302l0.858-0.479
		l0.438-0.466l0.53-0.674l0.271-0.46l0.268-0.467l0.149-0.149l0.194,0.014l0.053,0.078l0.01,0.104l-0.244,0.599l-0.221,0.493
		l-0.184,0.612l-0.233,0.569l-0.263,0.328l0.02,0.188l0.197,0.017l0.083-0.062l1.091-1.589l0.338-0.37l0.694-1.375l0.468-1.31
		l0.099-0.306l0.559-1.166l0.181-0.135l0.195,0.232l-0.438,1.002l-0.3,1.025l-0.089,0.195l-0.519,1.067l-0.604,1.382l0.036,0.154
		l0.273-0.33l0.491-0.564l0.37-0.779l0.61-1.266l0.194-0.072l-0.054,0.315l-1.231,2.519l-0.088,0.303l0.205,0.275l0.219-0.248
		l0.545-1.053l0.185-0.045l0.133,0.141l-0.058,0.309l-0.463,0.974l0.011,0.2l0.788-1.32l0.383-0.504l0.007-0.619l-0.392,0.224
		l0.054-0.75l0.225-1.065l-0.209-0.904l0.168-0.541l-0.089-0.215l-1.249-0.603l-0.001-0.322l-0.188-0.229l-0.256,0.289l-0.239,0.93
		l-0.084,0.309l-0.463,1.309l-0.165,0.062l-0.11-0.398l0.257-0.827l0.16-0.62l0.278-0.689l0.036-0.434l0.756-1.68l0.448-0.732
		l0.712-0.924l1.476-0.928l-0.118-0.121l-0.206,0.008l-0.667,0.34l-1.133,0.619l-0.511,0.393l-0.825,1.117l-0.364,0.657
		l-0.345,0.096l0.026-0.315l0.498-0.996l0.416-0.441l0.57-0.636l0.975-0.653l-0.052-0.17l-1.487,0.558l-1.075,0.757l-1.605,3.314
		l-0.129,0.691l-0.146,0.514l-0.179,0.614l-0.229,0.489l-0.481,0.965l-0.467,0.586l-0.151,0.285l-0.246-0.184l0.432-0.74l0.77-1.596
		l0.174-0.609l0.071-0.309l0.216-0.814l0.286-0.777l1.189-2.416l0.564-0.605l0.659-0.528l0.27-0.089l-0.009-0.177l-0.091,0.039
		l-0.154,0.263l-0.268-0.152l-0.812,0.314l-0.914,0.732l-0.758,1.172l-0.505,0.377l-0.02-0.205l0.523-1.064l0.086-0.303
		l-0.412,0.137l-0.587,0.636l-0.664,0.962l-0.162,0.275l-0.49,1.3l-0.11,0.301l-0.783,1.657l-0.232,0.358l-0.475,0.581l-0.587,0.604
		l-0.211-0.041l-0.008-0.285l0.059-0.09l1.6-2.393l0.653-1.447l0.41-0.838l0.794-1.455l0.87-0.602l-0.139-0.116l-1.011,0.281
		l-0.608,0.626l-0.686,0.52l-0.658,0.551l-0.615,0.641l-0.354,0.627l-0.244,0.35l-0.434,0.61l-0.508,0.95l-0.169,0.114l-0.19-0.206
		l0.71-1.449l0.073-0.077l0.723-1.056l0.353-0.582l-0.699,0.669l-0.204,0.245l-0.697,0.65l-0.463,0.873l-0.465,0.576l-0.76,0.9
		l-0.502,0.413l-1.093,0.348l0.016-0.224l0.475-0.238l0.369-0.213l0.798-0.717l0.388-0.508l0.28-0.256l0.638-1.209l1.063-0.996
		l-0.149-0.127l-0.989,0.309l-0.355,0.437l-1.379,0.844L15.12,47.88l-0.152-0.135l0.04-0.191l0.878-0.609l0.071-0.281l-0.818,0.246
		l-0.837,0.17l-0.049,0.069l0.021,0.216l-0.589,0.238l-0.702,0.267l-0.916,0.558l-0.348,0.175l-0.222-0.11l0.086-0.275l0.258-0.193
		l1.215-0.678l0.137-0.15l0.478-0.014l0.197,0.001l-0.04-0.075L13.686,47.223L13.686,47.223L13.686,47.223z M32.308,54.763
		l0.007-0.199l-0.077,0.035l0.11,0.149l-0.124,0.263l0.021,0.092l0.058,0.029l0.119-0.13L32.308,54.763L32.308,54.763L32.308,54.763
		z M40.266,57.642l0.001-0.189l-0.074,0.037l0.113,0.139l-0.133,0.265l0.062,0.132l0.129-0.133L40.266,57.642L40.266,57.642
		L40.266,57.642z M50.692,49.933l0.178,0.095l0.192,0.001l-0.032-0.082l-0.173-0.08l-0.15,0.105l-0.194-0.01l0.033,0.076
		L50.692,49.933L50.692,49.933L50.692,49.933z M54.275,50.017l-0.272-0.111l-0.095,0.025l0.049,0.148l0.307-0.096l0.193,0.006
		l-0.024-0.081L54.275,50.017L54.275,50.017L54.275,50.017z M51.461,42.876l0.395,0.079l-0.381-0.04l-0.189-0.017l0.021,0.077
		L51.461,42.876L51.461,42.876L51.461,42.876z M44.908,37.081l0.251-0.035l0.132-0.261l0.248-0.045l0.135-0.249l0.245-0.067
		l0.226-0.421l0.255-0.268l-0.238,0.31l-0.249,0.067L45.69,36.53l-0.303,0.126l-0.08,0.168l-0.306,0.122l-0.08,0.166l-0.312,0.124
		l-0.07,0.175l-0.089-0.038l-0.58,0.435l-0.16-0.013l0.03,0.09l0.117-0.111l0.669-0.393l0.311-0.123L44.908,37.081L44.908,37.081
		L44.908,37.081z M44.031,36.414l0.252-0.253l-0.236,0.297l-0.169-0.008l-0.022,0.062L44.031,36.414L44.031,36.414L44.031,36.414z
		 M44.502,35.453l0.308-0.129l0.067-0.179l0.293-0.097l0.271-0.11l0.111-0.184l0.248-0.268l-0.23,0.312l-0.249,0.044l-0.136,0.248
		l-0.295,0.092l-0.379,0.298l-0.296,0.081l-0.06-0.324l0.766-0.504l2.165-1.886l0.904-1.574l0.042-0.099l0.06-0.086l0.267-0.216
		l0.176-0.369l-0.116-0.51l-0.325,0.556l-0.469,0.844l-0.584,0.755l-0.715,0.784l-1.421,1.129l-0.397,0.124l-0.047-0.14l1.236-0.961
		l1.234-1.195l0.542-1.011l0.299-0.278l0.625-1.174l0.343-0.896l-0.104-0.165l-0.004-0.182l-0.067,0.035l0.11,0.132L48,29.575
		l-0.238,0.213l-0.566,1.026l-0.393,0.392l-0.253,0.344l-0.879,0.934l-0.268,0.172l-0.164-0.054l0.003-0.098l0.365-0.384l0.576-0.63
		l0.383-0.339l0.552-0.663l1.587-3.423l-0.041-0.21l-0.056-0.091l-0.16,0.045l-0.382,0.772L47.9,27.715l-0.178-0.086l-0.011-0.212
		l0.298-0.693l0.181-0.945l0.004-0.728l-0.089-0.058l0.01-0.192l-0.079,0.028l0.104,0.152l-0.301,0.895l-0.211,1.033l-0.247,0.455
		l-0.072,0.006l0.064-0.407l0.129-0.723l0.042-0.203l-0.107-0.164l0.092-0.387l-0.05,0.374l-0.311,0.562l-0.381,0.526l-0.184-0.217
		l0.729-1.646l0.093-0.669l0.084-0.304l-0.097-0.169l0.006-0.189l-0.074,0.029l0.109,0.145l-0.389,0.822l0.001,0.394l-0.971,2.014
		l-0.522,0.413l-0.02-0.215l0.615-0.865l0.139-0.284l0.014-0.403l0.291-0.608l0.313-0.801l0.09-0.845l-0.457,0.708l-0.185-0.065
		l0.286-0.684l0.004-0.407l0.164-0.539l-0.111-0.159l0.115-0.274l-0.072-0.114l-0.079,0.053l0.068,0.325l-0.346,0.665l-0.097,0.044
		l-0.183-0.077l-0.037-0.195l0.165-0.492l-0.024-0.875l-0.124-0.956l-0.25,0.319l-0.109,1.632l-1.312,2.676l-0.183,0.261
		l-0.467,0.583l-0.645,0.56l-0.178,0.26l-0.006,0.194l0.197,0.225l-0.104,0.54l0.218-0.046l0.658-0.536l0.411-0.493l0.684-0.82
		l0.383-0.646l0.224-0.355l0.193,0.019l0.059,0.077l0.024,0.124l-0.48,0.938l-0.75,0.901l-0.368,0.625l0.158,0.285l-0.354,0.355
		l-0.903,0.741l-0.754,0.897l-0.607,1.258l0.022,0.101l0.146-0.053l0.412-0.752l0.563-0.645l0.597-0.594l0.109-0.014l0.1,0.028
		l0.021,0.184l-1.187,1.367l-0.483,0.807l0.555,0.195l0.186-0.099L42.715,32.3l0.046,0.208l0.117,0.155l0.576-0.472l0.48-0.414
		l0.822-0.839l0.769-1.021l0.093-0.054l0.13,0.151l0.023,0.103l-0.088,0.18l-0.252,0.341l-1.024,1.223l-0.655,0.55l-0.621,0.59
		l-0.089,0.174l0.516,1.298l0.191,1.049l-0.09,0.405l0.559-0.359L44.502,35.453L44.502,35.453L44.502,35.453z M53.522,36.678
		l0.008,0.19l0.088-0.023l-0.138-0.152l-0.281-0.26L53.522,36.678L53.522,36.678L53.522,36.678z M54.239,34.628l0.296-0.133
		l0.086-0.161l0.22,0.109l-0.36,0.508l-0.49,0.407l0.001,0.192l0.102,0.2l0.527-0.427l0.291-0.701l-0.117-0.164L55,34.042
		l0.183-0.001l-0.023-0.076l-0.146,0.113l-0.305,0.118l-0.073,0.177l-0.247,0.045l-0.135,0.25l-0.262,0.26L54.239,34.628
		L54.239,34.628L54.239,34.628z M37.833,26.474l0.002,0.184l0.087-0.017l-0.132-0.152l-0.262-0.248L37.833,26.474L37.833,26.474
		L37.833,26.474z M39.527,23.457l0.099,0.296l0.028,0.198l0.262,0.327l0.08,0.003l0.057-0.075l-0.092-0.275l-0.378-0.164
		l-0.097-0.296l-0.051-0.247l-0.24-0.134l-0.038-0.25l-0.255-0.133l-0.044-0.249l-0.251-0.133l0.003-0.193l-0.454-0.177l0.479,0.359
		l0.048,0.248l0.25,0.133l0.046,0.249l0.25,0.132l0.053,0.248L39.527,23.457L39.527,23.457L39.527,23.457z M57.526,47.755
		l-0.441-0.179l-0.238,0.087l-0.213-0.271l-0.862-0.29l-0.896-0.57l-0.893-0.488l-0.954-0.461l0.027-0.396l0.71,0.475l0.752,0.357
		l0.143-0.048l-0.521-0.382l-0.185-0.252l-0.687-0.479l0.009-0.112l0.237-0.094l0.31,0.323l0.617,0.365l0.219,0.268l0.643,0.361
		l0.602,0.479l0.509,0.066l0.595,0.112l-0.047-0.097l-1.059-0.602l-0.451-0.383l-0.758-0.4l-0.091-0.172l0.114-0.471l-0.932-0.691
		l-1.028-0.574l-0.852,0.088l-0.15,0.111l0.062,0.201l0.397,0.745l0.585,1.013l0.268,0.172l0.01,0.189l0.532,0.506l0.732,0.424
		l1.925,0.905l0.401,0.125l0.167-0.095l0.352,0.178l0.325-0.088l0.187,0.006l-0.019-0.082L57.526,47.755L57.526,47.755
		L57.526,47.755z M47.386,53.373l-0.01,0.174l0.077-0.016l-0.105-0.145l-0.197-0.572l-0.007-0.193l-0.073,0.041l0.117,0.137
		L47.386,53.373L47.386,53.373L47.386,53.373z M20.062,54.367l-0.476,0.104l0.3,0.116l0.163-0.256l0.161,0.01l0.024-0.064
		L20.062,54.367L20.062,54.367L20.062,54.367z M42.255,14.262l0.08-0.388l-0.044,0.376l-0.209,0.444l0.115,0.234l-0.469,1.057
		l-0.008,0.384l-0.498,1.032l-0.1,0.05l-0.077-0.127l0.31-0.757l-0.013-0.343l0.344-0.913l-0.102-0.168l0.185-0.571l-0.23,0.393
		l0.091,0.165l-0.573,1.225l-0.208,0.827L40.571,17.2l-0.068-0.179l0.299-1.116l0.393-1.311l0.11-0.509l-0.042-0.515l-0.081-0.065
		l0.181-0.36l0.002-0.191l-0.154,0.022l-0.108,0.277l0.116,0.241l-0.386,0.038l-0.053-0.398L40.7,13.151l-0.081,0.064l-0.77,1.881
		l-0.104,0.043l-0.429-0.442l-0.11-1.534l0.972-2.103l-0.043-0.204l-0.269-0.15l-0.2,0.076l-0.115,0.183l-0.06,0.087l-0.188,0.058
		l-0.155-0.239l0.18-0.517l-0.082-0.301l-0.318-0.27l-0.198,0.023l-0.172,0.379l-0.062,0.42l-0.183,0.832L38.15,12.27l-0.143,0.11
		l-0.115-0.398l0.074-0.413l-0.035-0.097l-0.269-0.18l-0.055-0.233l0.221-0.462l0.191-0.484l0.107-0.754L38.05,8.947l-0.067-0.039
		L37.896,8.96l-0.061,0.522l-0.077,0.631l-0.622,1.079l0.23,2.238l0.072,0.528l0.362,1.674l0.153,0.129l0.047,0.205l0.051-0.061
		l-0.107-0.14l0.111-0.405l0.13-1.165l0.078-0.48l0.584-0.547l-0.241,1.127l-0.09,1.278l0.035,1.151l0.21,0.972l0.236,1.155
		l0.49,0.963l0.373-0.395l0.195,0.253l-0.09,1.106l0.186,0.571l0.455,1.325l0.181,1.797l-0.026,0.755l-0.187,0.504l0.123,0.408
		l0.1-0.028l0.875-1.722l0.056-0.206l0.259-0.927l0.088-0.414l0.19-0.724l0.075-0.829l0.375-0.185l0.189-0.719l0.104-0.302
		l0.296-1.061L43.3,18.634l0.29-0.69l0.004-0.395l0.243-0.749l-0.033-0.211l-0.135-0.123l-0.092,0.044l-0.425,1.306l-0.094,0.74
		l-0.312,0.405l-0.224-0.147l0.181-1.653l-0.288-0.07l0.164-0.635l0.155-0.622l0.257-0.184l0.05-0.219l-0.287-0.441l-0.277,0.752
		l-0.259,0.683l-0.026,0.444l-0.285,0.586l-0.089,0.054l-0.066-0.134l0.114-0.735l0.414-1.547l-0.113-0.156l0.204-0.441
		L42.255,14.262L42.255,14.262L42.255,14.262z M40.254,43.255l-0.025-0.196l-0.044,0.052l0.102,0.133l-0.061,0.896l0.075,0.07
		l-0.14,0.352l0.142,0.339l0.214-0.558l-0.253-0.122l0.214-0.444l-0.086-0.402L40.254,43.255L40.254,43.255L40.254,43.255z
		 M41.909,29.879l0.186-0.016l0.372-0.724l-0.026-0.178l-0.516,0.957l-0.188,0.026l-0.279,0.551l0.025,0.091L41.909,29.879
		L41.909,29.879L41.909,29.879z M15.619,40.722l-0.194-0.082l-0.809,0.188l-0.056,0.09l-0.463,0.137l0.29,0.239l-0.336,0.212
		l-0.675,0.44l-0.145,0.258l-0.173-0.004l0.016,0.074l0.144-0.109l0.196,0.021l2.056-0.717l0.146-0.301l0.447,0.392l0.987-0.017
		l0.956,0.082l1.366,0.201l0.888,0.381l1.328,0.613l1.998,0.162l1.461-0.485l-0.307-0.306l-0.322-0.295l-2.985-1.424l-1.594-0.113
		l-0.531-0.035l-0.729,0.07l-1.131,0.297l-1.367,0.262l-0.455,0.243l-0.197-0.032l-0.507-0.061l0.341-0.213l0.34-0.211l0.295-0.102
		l0.098,0.043l1.153-0.209l1.32-0.422l0.545-0.016l0.353,0.107l1.247-0.121l1.362,0.24l0.697,0.289l0.771,0.386l0.666,0.354
		l0.745,0.422l0.611,0.395l0.285,0.131l0.946-0.111l0.056-0.198l-1.248-1.134l-0.21-0.015l-0.022-0.104l0.158-0.132l0.76,0.34
		l0.656,0.547l0.934,0.626l0.473-0.027l0.117-0.046l-0.163-0.546l-1.355-1.907l-0.776-0.541l-0.637-0.379l-0.387-0.139l-0.494-0.16
		l-1.347-0.333l-1.272-0.047l-0.21-0.008l-0.846,0.003l-0.592,0.25l-1.061,0.137l-2.285,0.609l-2.105,1.062l-0.125,0.168
		l0.014,0.102l0.069,0.042l0.409-0.122l1.431-0.474l0.408,0.067l0.005,0.013l-0.14,0.136l-0.97,0.363l-0.029,0.396L15.619,40.722
		L15.619,40.722L15.619,40.722z M31.634,38.826l-0.008,0.189l0.08-0.021l-0.109-0.156l0.108-0.277l-0.703-0.963l-0.096-0.279
		l-0.182,0.011l0.046,0.091l0.274,0.159l0.018,0.294l0.479,0.906L31.634,38.826L31.634,38.826L31.634,38.826z M37.305,65.311
		l-0.193-0.019l-0.754,0.55l-0.09,0.187l0.01,0.099l0.169,0.039l0.776-0.675l0.076-0.194l0.104,0.022l0.087-0.03l0.27-0.657
		l-0.086,0.041L37.305,65.311L37.305,65.311L37.305,65.311z M47.652,47.3l0.091-0.279l-0.028-0.087l-0.141,0.116l0.105,0.24
		l-0.062,0.885l0.273,0.35l0.394-0.093l-0.095-0.269l-0.448-0.812L47.652,47.3L47.652,47.3L47.652,47.3z M51.302,44.751l-0.454-0.25
		l-0.182-0.413l-0.382-0.356l-0.175-0.266l-0.102,0.035l-0.069,0.188l0.768,1.227l0.612,0.296l-0.021,0.194l0.893,1.223l1.048,0.663
		l0.105-0.001l-0.119-0.371l-0.474-0.418l-0.574-0.455l-0.291-0.559l0.397,0.059l-0.262-0.679l-0.365-0.218L51.302,44.751
		L51.302,44.751L51.302,44.751z M58.49,46.751l-0.267,0.113l-0.689-0.24l0.477,0.451l0.009,0.342l0.506-0.302l0.139-0.278
		l0.192-0.008l0.232-0.318l-0.209-0.234l-0.925-0.014l-0.81-0.386l-0.938-0.323l0.259,0.22L58.49,46.751L58.49,46.751L58.49,46.751z
		 M33.433,56.952l0.008,0.177l0.072-0.029l-0.114-0.135l0.133-0.284l0.123-1.92l-0.156,0.072l-0.284,0.58l-0.313,0.651l0.282,0.768
		L33.433,56.952L33.433,56.952L33.433,56.952z M36.66,12.008l-0.014,0.187l0.077-0.019l-0.103-0.153l0.103-0.301l0.055-2.352
		l-0.016-0.345l-0.444,0.743l0.033,1.371l0.217,0.817L36.66,12.008L36.66,12.008L36.66,12.008z M41.359,32.524l-0.009-0.183
		l-0.064,0.04l0.112,0.127l-0.302,0.79l-0.145,0.511l-0.465,0.965l-0.242,0.215l-0.064,0.393l0.124,0.186l0.605-0.665l0.666-1.305
		l0.014-0.619L41.359,32.524L41.359,32.524L41.359,32.524z M39.463,39.972l0.002,0.188l0.323,0.395l0.1-0.324l-0.45-0.248
		l0.018-0.199l-0.233-0.666l0.302-1.931l-0.135-0.311l-0.158,0.128l-0.416,1.319l-0.032,0.741l0.396,0.771L39.463,39.972
		L39.463,39.972L39.463,39.972z M47.723,45.173l-0.105-0.159l0.126,0.152L47.7,45.263l0.646,1.453l0.43,0.466l0.757,1.032
		l0.29,0.351l0.268,0.036l-0.012-0.123l-0.83-1.239l-0.087-0.388l-0.533-0.701l-0.509-0.822L47.723,45.173L47.723,45.173
		L47.723,45.173z M38.031,48.411l-0.197-0.038l-1.318,0.453l-0.379,0.197l-0.564,0.487l-0.694,0.488l-0.882,0.828l-0.73,1.515
		l-0.259,0.115l0.121,0.435l0.124-0.169L33.245,52.3l0.188-0.016l0.121-0.172l0.882-1.031l1.148-0.748l1.42-0.914l0.876-0.758
		l0.141-0.277l0.186-0.01l-0.023-0.084L38.031,48.411L38.031,48.411L38.031,48.411z M65.968,37.204l-0.193-0.001l-0.282,0.32
		l-1.883,1.744l-0.003,0.089l0.37,0.359l-0.132,0.205l-1.658,0.289l-0.554,0.486l0.032,0.101l1.05,0.065l1.3-0.187l0.218-0.304
		l0.566-0.773l0.916-1.83l0.241-0.597l0.175-0.014l-0.022-0.078L65.968,37.204L65.968,37.204L65.968,37.204z M38.824,64.101
		l0.271-0.078l0.971-2.039l0.062-0.201l0.008-0.361l0.389-0.805l-0.041-1.328l-0.224-0.922l-0.335,0.086l-0.089,0.181l-0.029,0.466
		l-0.435,1.039l-0.031,0.347l-0.473,1.069l-0.062,0.652l-0.091,0.307l0.11,0.158l-0.741,1.758l0.09-0.058l0.741-1.541l-0.116-0.151
		l0.397-1.191l0.044-0.096l0.175-0.054l0.117,0.157l-0.128,0.508l-0.254,1.022l-0.034,0.099l-0.275,1.014l-0.264,0.09L38.3,64.781
		l0.005,0.218L38.824,64.101L38.824,64.101L38.824,64.101z M38.125,29.287l-0.008-0.189l-0.078,0.03l0.123,0.146l0.218,1.228
		l0.445,0.969l0.141,0.288l0.675,1.623l0.161,1.198l0.348-0.085l0.528-1.092l0.107-0.816l-0.274-0.925l-0.39-0.334l-0.469-0.428
		l-1.259-1.445L38.125,29.287L38.125,29.287L38.125,29.287z M41.867,59.344l-0.086,0.397l0.057-0.389l0.386-0.854l-0.025-1.983
		l-0.45-1.748l-0.139-0.406l-0.278-0.803l-0.201-0.496l-0.501-1.07l-0.137-0.115l-0.103,0.168l0.048,0.642l0.083,1.393l-0.062,1.175
		l-0.027,1.174l0.312,1.034l0.168,1.71l0.012,1.285l0.213-0.125l0.066-0.529l0.156-0.5l-0.09-0.646l0.089-0.532l0.081-0.408
		l0.012-0.004l0.132,0.145l0.064,0.518l0.083,0.834L41.867,59.344L41.867,59.344L41.867,59.344z M59.516,45.576l0.258-0.092
		l0.213-1.023l-0.132-0.136l-0.25,0.114l-0.598-0.176l0.517,0.221l0.069-0.08l-0.006,0.361l-0.664,0.045l-1.452-0.894l-0.758-0.244
		l0.229-0.307l0.458,0.218l0.165-0.107l-0.094-0.484l0.05-0.097l0.18-0.068l0.687,0.296l0.101-0.031l0.022-0.071l-0.174-0.261
		l0.026-0.193l0.184-0.032l0.374,0.33l0.598,0.317l0.538,0.26l0.703-0.018l-0.146-0.168l-0.662-0.356l-0.331-0.306l-0.201-0.019
		l-0.541-0.604l-0.121-0.034l-1.029,0.204l-1.166,0.238l0.251,0.23l0.153,0.145l0.096,0.19L57.06,43.05l-0.16,0.07l-1.423-0.66
		l-2.156,0.232l-0.111,0.193l0.058,0.089l1.181,0.688l0.454-0.055l0.614,0.523l1.487,0.719l0.103-0.019l0.045-0.175l-0.095-0.205
		l-0.823-0.471l-0.378-0.203l-0.252-0.448l0.184-0.028l0.616,0.531l2.81,1.355l0.359,0.012l-0.053,0.387l-0.685,0.025l0.526,0.209
		L59.516,45.576L59.516,45.576L59.516,45.576z M43.963,52.469l0.415,0.177l-0.002,0.19l0.085-0.024l-0.113-0.156l0.094-0.262
		l-0.453-1.018l-0.52-0.67l-1.592-2.012l-1.248-1.458l-0.273-0.321l-0.1,0.01l0.368,1.681l1.114,1.495l0.661,0.975l0.308,0.437
		l0.507,0.943l0.129,0.294l0.265,0.817l0.224,0.936l0.208,1.046l0.19,0.604l0.187-0.255l-0.035-2.061l-0.434-1.184l0.04-0.193
		L43.963,52.469L43.963,52.469L43.963,52.469z M44.746,19.538l0.006-0.194l-0.077,0.038l0.106,0.143l-0.39,0.992l-0.161,0.223
		l-0.396,0.298l-0.046,0.438L43.347,21.6l0.371-0.969l0.014-0.332l0.428-1.125l0.218-1.26l0.072-0.419l-0.113-0.289l-0.185,0.09
		l-0.574,1.603l-0.066,0.203l-0.379,1.441l-0.269,0.913l-0.275,0.697l-0.177,0.941l-0.261,0.925l-0.055,0.491l-0.77,1.592
		l-0.67,1.709l0.449-0.623l0.576-0.625l0.181,0.218l-0.03,0.203l-0.366,0.403l-0.797,1.74l0.122,0.406l0.086-0.057l0.991-1.83
		l0.39-0.452l0.898-1.05l0.513-0.43l1.431-2.987l-0.063-0.31l-0.069-0.082l-0.163,0.103l-0.442,0.86l-0.486,0.96l-0.646,0.845
		L42.9,25.004l0.479-0.668l0.382-0.771l0.421-0.874l0.369-0.765l0.11-0.751l0.198-1.477L44.746,19.538L44.746,19.538L44.746,19.538z
		 M45.94,47.898l-0.012,0.186l0.133,0.267l0.108-0.276L45.933,47.9l0.087-0.299l-0.093-0.528l0.055-1.98l-1.223-2.503l-0.795-0.351
		L43.8,43.343l-0.412,0.119l-0.037-1.58l-1.038-0.199l-0.496,0.056l0.019,1.024l-0.196-0.045L41.2,41.632l-0.271,0.277l-0.085,0.895
		l0.415,1.233l-0.062,1.006l0.438,0.737l0.195,0.041l-0.159-0.955l0.244-0.247l0.26,0.589l0.278,0.814l0.114,0.181l0.387,0.365
		l0.168,0.426l0.299,0.12l0.196-0.024l0.064-0.184L43.29,45.02l0.188-0.223l0.21,0.124l0.074,0.612l0.213,0.929l0.476,0.955
		l0.287,0.305l0.329-0.084l-0.246-0.818l-0.167-0.623l-0.012-0.531l0.128-0.733l0.261-0.038l0.061,0.082l-0.035,0.932l0.148,0.949
		l0.473,0.873L45.94,47.898L45.94,47.898L45.94,47.898z M12.842,42.946l0.89,0.393l1.165-0.08l0.676,0.454l-0.241,0.184
		l-0.647-0.263l-1.896-0.236l-1.173,0.281l0.026,0.093l0.858,0.51l0.187,0.21l0.457,0.265l0.527,0.059l0.62,0.151l0.641,0.183
		l0.919,0.025l0.475,0.156l1.007-0.113l1.871-0.371l0.111-0.143l-0.79-0.183l-0.672-0.323l-0.739-0.126l-0.106-0.168l0.949-0.11
		l0.235,0.203l0.668,0.156l1.489-0.03l1.594-0.725l-0.566-0.187l-0.294-0.112l-0.58-0.283l-0.769-0.387l-1.546-0.399l-2.243-0.057
		l-0.375,0.005l-1.609,0.415l-0.699,0.266l-0.406,0.32l-0.195,0.002l0.028,0.083L12.842,42.946L12.842,42.946L12.842,42.946z
		 M39.354,24.811L39.34,24.98l0.062,0.024l-0.09-0.179l-0.024-0.201l-0.27-0.906l-0.068-0.224l-0.441-0.501l-0.619-0.065
		l-1.409-0.729l-0.247-0.27l-0.722-0.386l-0.484-0.237l-0.793-0.544l-1.033-0.603l-0.755-0.88l-0.55-1.173l-0.316,0.01l-1.067,2.14
		l-0.043,0.208l0.422,0.856l0.734,0.769l0.92,0.733l0.249,0.267l0.449,0.219l1.156,0.759l1.052,0.529l0.107-0.01l-0.163-0.36
		l0.122-0.021l0.927,0.509l0.321,0.28l0.921,0.729l0.777,1.02l0.611,1.135l0.361,0.53l0.24,0.071l-0.354-1l-0.706-1.075
		l-1.304-1.406l-0.607-0.584l-0.035-0.351l-0.333-0.233l-0.383-0.304l-0.246-0.037l-0.082-0.326l0.4-0.05l0.264-0.224l1.823,0.892
		l0.779,0.762L39.354,24.811L39.354,24.811L39.354,24.811z M34.823,47.55l0.482-0.118l0.68-0.843l0.204-0.38l0.444-1.307
		l0.338-0.663l0.104-0.05l0.095,0.298l-0.243,1.146l-0.748,1.291l-0.262,0.465l0.036,0.137l0.646-0.557l0.521-0.53l0.091-0.006
		l0.352,0.229l0.191-0.232l0.792-1.642l0.098-0.64l0.103-0.412l0.084-0.743l0.093-0.753l0.353-0.09l-0.161,1.912l-0.187,0.941
		l-0.443,0.982l-0.431,0.791l-0.404,0.658l0.951-0.48l0.65-0.619l0.554-1.146l-0.044-0.843l-0.082-1.499l-0.013-0.859l-0.208-0.716
		l-0.717,0.141l-0.578,0.281l-0.358,0.675l-0.396,0.606l-0.153-0.382l-0.004-0.311l-0.321,0.129l-0.712,0.795l-0.465,0.475
		l-0.128,0.271l-0.937,1.291l-0.487,0.125l-0.308,0.039l-0.186,0.106l-1.5,0.806l-0.098,0.044l-0.042,0.38l-0.644,0.142
		l-0.192-0.341l0.183,0.002l-0.026-0.075l-0.143,0.11l-0.191-0.087l-1.063,0.087l-0.481,0.223l0.379,0.318l0.466,0.401l1.079,0.063
		l0.527-0.031l0.597-0.253l0.696-0.814l0.389-0.136l-0.326,0.791l-0.657,0.511l-0.048,0.188l0.156,0.129l1.148-0.219l0.524-0.514
		L34.8,46.72l0.09-0.025l0.118,0.387l-0.169,0.509l-0.189,0.026l-0.239,0.307l0.33,0.225l-0.007-0.299L34.823,47.55L34.823,47.55
		L34.823,47.55z M50.568,40.32l-0.771-0.279l0.393,0.598l0.397,0.14l0.034,0.435l0.669,0.815l0.225,0.169l0.673-0.004l0.109-0.047
		l0.173-0.279L52.8,41.63l2.056-1.7l0.949-0.852l0.1,0.011l0.107,0.242l-0.879,0.93l-0.559,0.5l-0.657,0.549l-0.203,0.207
		l-0.697,0.292l-0.038,0.302l1.323-0.404l1.292-0.021l0.849-0.459l0.83-0.49l0.768-0.603l0.617-0.858l0.676-1.222l0.521-0.807
		l0.36-0.831l-0.359,0.221l-0.628,0.654l-0.449,0.807l-0.501,0.406l-0.017-0.225l0.565-0.746l0.473-0.987l-0.018-0.104l-0.151,0.062
		l-0.292,0.447l-0.531,0.667l-0.193,0.253l-0.443,0.599l-0.186,0.26l-0.193,0.014l0.013,0.03l0.542-1.124l0.348-0.301l0.374-0.65
		l0.268-0.215l-0.006-0.294l-0.181-0.051l-0.79,0.704l-0.097-0.392l0.226-0.226l0.506-1.063l-0.027-0.074l-0.362,0.215l-0.504,0.345
		l-0.84,1.661l-0.16,0.073l0.019-0.536l0.187-0.372l0.606-0.994l-0.015-0.218l-0.463,0.743l-0.341,0.28l-0.415,0.314l-0.337,0.69
		l-0.437,0.719l0.085-0.477l0.205-0.379l0.238-0.484l0.238-0.444l0.308-0.227l0.489-1.015l0.553-0.785l-0.089-0.101l-0.403,0.493
		l-0.438,0.605l-0.393,0.441l-0.413,0.775l-0.621,0.28l-0.629,1.254L54.442,38l0.026-0.372l0.096-0.303l0.085-0.421l0.256-0.189
		l0.72-1.412l0.323-0.312l0.007-0.211l-0.381,0.215l-0.442,0.466l-0.294,0.427l0.019,0.358l-0.364,0.316l-0.754,1.562l-0.486,0.576
		l-0.277,0.323l-0.79,0.724l-0.386,0.191L51.6,39.713l0.311-0.318l0.421-0.333l0.354-0.401l0.74-0.911l-0.053-0.595l-0.167-0.132
		l-0.298-0.125l-0.005-0.183l-0.078,0.027l0.118,0.144l-0.048,0.388l-0.312,0.019l0.267,0.646l-0.379,0.059l-0.151,0.428
		l-0.143-0.16l-0.478-0.094l-0.138-0.699l-0.204-0.111l-0.207,0.211l-0.141,0.718l-0.109,0.169l-0.193,0.02l0.083-0.631l0.146-0.506
		l0.046-0.518l-0.054-0.062l-0.097,0.038l-0.35,0.546l-0.132-0.406l0.163-0.138l0.093-0.213l-0.279-0.653l0.467-0.421l0.331-0.615
		l-0.214-0.021l-0.1-0.368l-1.086,2.104l0.13,0.931l0.702,0.81l0.193,0.105l0.022,0.197l0.628,0.685l-0.054,0.225l-0.094,0.032
		l-0.141-0.16l-0.947-0.991l-0.294-0.055l0.532,0.747l0.633,0.697l0.49,0.795l-0.265-0.01l-0.884-1.165l-0.322-0.115l-0.137,0.073
		l0.63,0.708L50.568,40.32L50.568,40.32L50.568,40.32z M36.227,29.298l0.009,0.178l0.066-0.036l-0.114-0.127l-0.128-0.479
		l-0.562-0.546l-0.927-0.479l-1.032-0.542L32.6,26.816l-0.875-0.425l-0.151-0.146l0.017-0.193l0.083-0.045l0.604,0.198l0.706,0.242
		l0.802,0.474l2.083,1.045l0.591,0.678l0.239,0.043l0.308-0.537l-0.117-0.283l-0.714-0.935l-0.82-0.678l-0.609-0.518l-0.34-0.166
		l-0.432-0.281l0.118-0.094l1.256,0.618l0.573,0.477l0.264,0.174l1.166,1.672l0.69-0.244l0.086-0.217l-1.492-1.646l-0.685-0.669
		l-0.585-0.284l-0.749-0.419l-1.261-0.806l-1.145-0.778l-0.179-0.119l-1.439-1.27l-0.101-0.191l-0.045-0.097l-0.123-0.172
		l-0.276,0.023l-0.128,0.294l0.084,1.909l0.079,0.442l0.747,1.029l-0.307,0.109l-0.525-0.467l-0.407-0.704l-0.168-0.643
		l-0.174,0.231l-0.157,0.731l-0.185,1.159l0.02,0.912l0.379,0.709l0.339,0.411l0.425,0.481l0.549,0.655l0.49,0.686l0.397,0.354
		l-0.508,0.067l-1.136-1.307l-1.057-1.311l-0.221,0.238l0.002,1.283l0.051,0.209l0.618,1.246l0.691,0.843l1.926,0.945l0.078,0.069
		l0.051,0.094l-0.365,0.149l-0.406-0.134l-1.418-0.719l-0.873-0.826l-0.189,0.019l-0.134,0.277l0.096,0.744l0.533,1.175l0.253,0.153
		l0.283,0.3l-0.257,0.304l0.022,0.193l1.733,2.419l1.434,0.728l1.198,0.058l0.745-0.044l0.63-0.105l0.174-0.194l-0.097-1.264
		l-0.341-0.231l-0.5-0.398l-0.67-0.346l-0.976-0.459L32.5,33.514l-0.102-0.167l0.1-0.04l0.573,0.019l1.144,0.529l0.862,0.444
		l0.369-0.091l-0.094-0.27l-0.176-0.124l-0.007-0.29l0.237-0.188l-0.605-1.027l0.312,0.067l0.394,0.125l0.083-0.056l0.037-0.208
		l-0.615-0.617L33.89,31.08l-0.054-0.123l0.13-0.086l1.271,0.577l0.38,0.127l-0.711-0.848l0.155-0.189l0.626,0.596l0.182-0.32
		l-0.082-0.197l-0.867-0.893l-0.255-0.055l-0.236-0.415l0.108-0.016l0.811,0.507l0.493,0.357l0.137-0.033l0.123-0.162l-0.276-0.676
		L36.227,29.298L36.227,29.298L36.227,29.298z M36.904,16.958l-0.339-0.224l-1.343-0.869l-0.586-0.272l-0.072-0.184l0.606,0.011
		l1.066,0.515l0.853,0.502l-0.322-0.45l-0.565-0.467l-0.48-0.426l-0.482-0.494l-0.402-0.708l0.086-0.169l0.16,0.071l0.127,0.173
		l0.867,1.087l0.2,0.041l-0.125-0.38l-0.754-1.17l-0.049-0.195l0.041-0.097l0.193-0.012l0.544,0.653l0.19,0.051l0.037-0.069
		l-0.639-1.94l-0.062-0.087l-0.086-0.004l-0.625,1.113l-0.242,0.214l-0.987,1.527l-0.29,0.683l0.561,1.503l-0.596-0.25l-0.435-0.584
		l-0.566,0.866l0.036,1.585l0.771,1.178l0.555,0.33l0.565,0.405l0.778-0.033l0.634,0.075l0.717,0.229l-0.902-0.607l0.113-0.13
		l1.928,0.955l0.16,0.139l0.415,0.334l0.38,0.365l0.471,0.155L38.6,21.392l-0.364-0.389l-0.393-0.466l-0.82-0.47l-0.255-0.302
		l-0.76-0.372l-0.113-0.167l0.188-0.037l0.978,0.448l0.19,0.13l0.271,0.314l0.596,0.333l1.354,1.58l0.158-0.157l-0.913-1.605
		L37.492,19.4l-0.204-0.232l-0.567-0.625l-0.809-0.257l-0.166-0.381l0.627,0.088l0.903,0.543l0.846,0.428l0.104-0.016l0.034-0.173
		l-0.399-0.633L36.904,16.958L36.904,16.958L36.904,16.958z M34.852,52.583l-0.677,1.555l0.178,0.1l0.713-0.638l0.779-0.734
		l1.927-1.846l0.069,0.645l-1.366,1.193l-1.351,1.212l0.205,0.384l-0.426,0.891L34.56,56.21l0.046,0.244l0.13,0.152l0.272-0.084
		l0.395-1.209l0.795-0.703l0.589-0.619l0.394-0.363l0.986-1.131l0.392-0.644l0.21-0.24l0.301-0.442l0.298-0.613l0.1-0.712
		l0.004-0.64l-0.075-0.037l-0.193,0.243l-0.36,0.081l0.251-1.039l-0.126-0.289L38.744,48.4l-1.275,1.141l-1.151,0.789l-2.063,1.493
		l-1.233,2.651l0.03,0.067l0.15-0.142l0.533-1.059l0.136-0.162l0.466-0.205l0.434-0.736l0.225-0.108l0.164,0.048l-0.052,0.195
		L34.852,52.583L34.852,52.583L34.852,52.583z M9.665,45.247L9.235,44.8l-0.557-0.229l-0.761,0.241l-0.122,0.453l0.853,0.811
		l-0.003,0.23l0.382,0.117l0.306,0.107l0.34,0.125l0.63-0.014l-0.199-0.271l-0.186-0.229l-0.512-0.399l0.192-0.046l1.9,0.709
		l0.424,0.045l0.664,0.18l0.806-0.059l0.429-0.014l1.481-0.17l1.619-0.568l-0.165-0.199l-0.528,0.092l-0.522-0.091l-0.744-0.058
		l-0.316-0.041l-1.36-0.271l-0.475-0.156l-0.335-0.365l-1.785-0.902l-1.267,0.516l0.615,0.729L9.665,45.247L9.665,45.247
		L9.665,45.247z M34.632,39.488l-2.013,1.795l-0.75,1.642l0.372-0.07l0.385-0.521l0.763-0.581l0.698-0.252l1.029-0.22l1.078,0.081
		l0.282,0.043l0.422,0.201l0.236,0.059l0.916-0.486l1.127-0.271l-0.72-0.926l-1.999-0.983l-0.246-0.05L34.632,39.488L34.632,39.488
		L34.632,39.488z M31.345,44.912l-0.494,1.005l0.006,0.103l0.141,0.138l0.941-0.177l1.268-0.525l0.912-0.747l1.202-1.202
		l0.008-0.228l-1.573,0.333l0.012-0.232l0.621-0.242l1.358-0.623l0.416-0.068l0.206-0.073l0.164-0.296l-0.057-0.153l-0.735-0.243
		l-2.18,0.453l-0.713,0.629l-0.428,0.474l-0.465,0.585l-0.013,0.168l0.201,0.018l0.285-0.143l0.236,0.034l-0.041,0.271
		L31.345,44.912L31.345,44.912L31.345,44.912z M43.536,55.291l-0.173-0.711l-0.505-1.861l-0.951-1.67l-0.671-0.967l-0.916-1.029
		l-0.114,0.002l0.073,0.918l0.631,1.719l0.137,0.291l0.331,0.673l0.271,0.583l0.216,0.711l0.271,0.693l0.354,0.281l0.504,2.157
		l0.073,0.531l-0.012,0.747l-0.049,0.639l0.072,0.141l0.099-0.055l0.215-0.713l0.281-1.379L43.536,55.291L43.536,55.291
		L43.536,55.291z M59.2,41.217l0.148-0.196l0.653-0.834l0.121-0.174l0.7-1.071l0.745-1.552l0.212-0.493l-0.006-0.203l-0.395,0.138
		l-0.463,0.836l-0.097,0.045l-0.06-0.159l0.233-0.802l-0.182-0.101l-0.406,0.61l-0.481,0.607l-0.635,1.213l-0.232,0.357l-0.617,0.85
		l-1.735,1.271l-0.026,0.184l0.22,0.11l1.116-0.229L59.2,41.217L59.2,41.217L59.2,41.217z M39.996,52.533l-0.16,0.066l-0.303,0.57
		l-0.461,0.588l-0.969,1.279l-0.629,0.727l-0.532,0.778l-0.323,0.284l-0.83,1.72l-0.121,0.893l0.377,1.317l0.29-0.682l-0.123-0.279
		l-0.132-0.27l0.389-0.902l0.202-0.063l0.316-0.121l0.346-0.632l0.223-0.365l0.611-0.889l0.532-0.654l0.732-1.441l0.449-0.94
		l0.229-0.163L39.996,52.533L39.996,52.533L39.996,52.533z M31.736,51.521l-0.126,1.826l-0.072,0.63l0.137,0.395l0.15-0.118
		l0.095-0.412l-0.017-1.162l0.178-0.486l-0.014-0.387l0.318-0.66l0.167-0.076l0.021,0.104l-0.174,0.5l-0.087,0.634l-0.078,1.479
		l0.087,0.193l0.176-0.2l0.469-1.839l0.652-1.303l0.351-0.327l1.42-1.113l0.108-0.351l-1.472-0.043L32.31,50.33L31.736,51.521
		L31.736,51.521L31.736,51.521z M45.171,42.041l0.949-0.002l0.188,0.094l0.094,0.172l-0.114,0.157l-0.312,0.05l-0.114,0.182
		L47,44.07l1.051,0.573l0.209,0.253l0.321-0.109l-0.319-0.66l-0.367-0.752l-0.838-0.501l-0.034-0.103l0.41-0.126l0.591,0.271
		l0.205,0.02l0.037-0.072l-0.748-1.281l-0.128-0.163l-0.733-0.354l-0.955-0.098l-0.834,0.303l-0.093,0.256L45.171,42.041
		L45.171,42.041L45.171,42.041z M38.201,39.015l0.088-1.521l0.713-1.532l0.074-0.307l-0.112-0.166l-0.839-0.107l-0.744,0.02
		l-0.742-0.084l-0.205,0.035l-0.08,0.5l0.82,0.365l0.601,0.217l-0.134,0.197l-0.621-0.02l-0.599-0.12l0.239,1.148l0.6,0.104
		l-0.031,0.304l-0.408,0.073l-0.059,0.189l0.117,0.17l0.284,0.142l0.494,0.062L38.201,39.015L38.201,39.015L38.201,39.015z
		 M42.178,33.613l-0.304,0.122l-0.034,0.28L41.277,35.1l-0.811,0.976l0.546,0.752l0.38,1.04l0.285,1.225l0.39-0.179l0.352-0.774
		l0.251-2.538l-0.092-0.295l-0.244,0.142l-0.794,0.439l0.025-0.208l0.411-0.484L42.48,34.5L42.178,33.613L42.178,33.613
		L42.178,33.613z M35.826,56.886l0.83-0.745l0.595-0.755l0.62-0.732l0.666-0.833l0.552-0.781l0.335-0.784l0.129-0.518l0.231-0.602
		l-0.093-0.117l-0.283,0.418l-0.244,0.35l-0.317,0.43l-0.716,0.928l-0.742,0.769l-1.393,1.544l-0.515,0.279l-0.275,1.573
		l0.056,0.522l0.088,0.059l0.193-0.025l0.026-0.319L35.826,56.886L35.826,56.886L35.826,56.886z M36.795,62.457l-0.038,0.624
		l0.115,0.468l-0.209,0.464l-0.227,0.2l0.072,0.6l0.22-0.26l0.639-1.087l0.146-0.262l0.299-0.442l1.031-2.135l0.361-0.783
		l0.187-0.834l0.207-0.609l0.089-0.819l-0.869,1.532l-0.325,0.303l-0.296,0.551l-0.483,0.588L36.795,62.457L36.795,62.457
		L36.795,62.457z M37.387,60.234l0.517-0.625l0.283-0.448l0.601-0.878l0.879-1.84l0.217-0.934l0.021-0.836l-0.26,0.324l-0.899,1.444
		l-0.279,0.456l-0.242,0.35l-0.489,0.697l-0.495,0.823l-0.11,0.165l-0.276,0.806l-0.176,0.833l-0.254,1.386L37.387,60.234
		L37.387,60.234L37.387,60.234z M37.44,33.224l0.183,0.129l1.456,0.664l0.151-0.118l-0.092-0.908l-0.304-0.61l-0.359-0.658
		l-0.253-0.593l-0.272-0.702l-0.278-0.522l-0.09,0.063l-0.986,2.029l-0.04,0.309L37.44,33.224L37.44,33.224L37.44,33.224z
		 M45.359,39.593l0.052-0.207l-0.143-0.141l-0.416-0.068l-1.049-0.12l-1.112,0.614l-0.472,0.977l-0.537,0.313l0.359,0.225
		L43.2,40.73l0.712-0.473L45.359,39.593L45.359,39.593L45.359,39.593z M37.463,33.772l-0.392-0.442l-0.443-0.454l-0.094-0.009
		l-0.076,0.052l-0.234,1.572l0.289,0.405l0.863,0.102l0.961-0.024l0.313,0.052l0.512-0.096l-0.115-0.388L37.463,33.772
		L37.463,33.772L37.463,33.772z M60.679,40.355l0.097,0.001l0.918-0.528l0.636-0.598l0.291-0.54l0.335-0.499l-0.187-0.363
		l0.27-0.567l0.182-0.6l-0.157,0.131l-0.371,0.77l-0.224,0.362l-0.186,0.068l-0.191-0.213l0.13-0.513l-0.23,0.307l-1.307,2.576
		L60.679,40.355L60.679,40.355L60.679,40.355z M30.858,43.251l-0.29,0.047l-1.133,0.627l-0.641,0.834l-0.634,0.818l0.042,0.617
		l1.625-1.019l0.593-0.442l0.056-0.349l-0.454,0.275l-0.163-0.066l-0.012-0.103l0.163-0.3l0.786-0.362L30.858,43.251L30.858,43.251
		L30.858,43.251z M46.386,44.632l0.012,2.322l0.022,0.428l0.105,0.521l0.207,0.508l0.512,0.521l0.462,0.257l0.115-0.044
		l-0.718-0.995l-0.007-1.411l-0.113-0.845l0.002-0.221l0.09-0.188l-0.559-0.863L46.386,44.632L46.386,44.632L46.386,44.632z
		 M35.858,38.412v-0.129l-0.419-1.202l-0.224-0.047l-1.064,0.127l-1.071,0.004l-0.102,0.022l-0.104,0.161l0.069,0.229l0.57,0.232
		l0.604,0.184l0.485,0.154l0.625,0.149L35.858,38.412L35.858,38.412L35.858,38.412z M50.501,34.02l0.284-0.241l0.045-0.188
		l-0.168-0.019l-1.204,1.015l-0.433,0.467l-0.437,0.625l0.706,1.036l0.157-0.096l0.357-0.769L50.501,34.02L50.501,34.02
		L50.501,34.02z M47.159,40.714l-0.378-0.34l-0.585-0.411l-0.973,0.027l-1.966,1.24l0.378,0.241l0.504-0.046l0.1-0.045l0.224-0.278
		l0.782-0.415l1.176-0.1L47.159,40.714L47.159,40.714L47.159,40.714z M31.076,50.409l-0.159,0.771l-0.156,0.939l0.009,0.102
		l0.134,0.147l0.131-0.115l0.012-0.272l0.918-1.904l0.892-0.923l-0.05-0.135l-0.657-0.216l-0.459,0.335L31.076,50.409L31.076,50.409
		L31.076,50.409z M39.78,39.625l0.507,0.1l0.212-0.438l0.015-0.661l0.028-0.848l-0.161-0.493l-0.176-0.261l-0.181-0.043
		l-0.189,0.808l-0.05,0.918l-0.12,0.616L39.78,39.625L39.78,39.625L39.78,39.625z M62.511,41.911l-1.003-0.269l-0.438-0.364
		l-0.525-0.126l-0.42,0.272l0.19,0.216l0.348-0.05l1.551,0.676l0.542-0.044l0.579-0.627l0.078-0.314l-0.559,0.104l-0.581,0.156
		L62.511,41.911L62.511,41.911L62.511,41.911z M39.609,14.601l0.442-0.801l0.014-0.326l0.423-1.043l0.033-0.713l-0.223-0.264
		l-0.554,1.199l-0.271,1.05L39.609,14.601L39.609,14.601L39.609,14.601z M53.058,33.453l-0.367,0.111l-1.055,1.082l-0.354,0.743
		l0.152,0.517l0.487-0.678l0.521-0.665l0.63-0.596L53.058,33.453L53.058,33.453L53.058,33.453z M26.496,34.666l0.108-0.012
		l0.411-0.326l-1.034-0.51l-0.622-0.138l-0.734-0.107l-0.702,0.012l0.693,0.216l0.57,0.226l0.686,0.241l0.53,0.353L26.496,34.666
		L26.496,34.666L26.496,34.666z M47.37,55.344l0.088-0.928l-0.179-0.491l-0.081-0.037l-0.095,0.048l-0.052,0.093l-0.21,1.045
		l-0.02,0.32l-0.146,1.593l0.045,0.042l0.288-0.441l0.011-0.395L47.37,55.344L47.37,55.344L47.37,55.344z M7.11,45.228l-0.766,0.279
		l0.062,0.279l0.279,0.142l1.104,0.304l0.559-0.048l-0.677-0.48L7.11,45.228L7.11,45.228L7.11,45.228z M63.291,38.91l0.162-0.041
		l0.479-0.431l0.448-0.456l0.442-0.466l0.443-0.455l0.009-0.1l-0.162-0.048l-0.449,0.451l-0.466,0.076l-0.627,0.766L63.291,38.91
		L63.291,38.91L63.291,38.91z M55.525,48.685l-0.327,0.199l-0.429,0.099l0.826,0.438l0.791-0.471l0.449-0.421l-0.027-0.077
		L55.525,48.685L55.525,48.685L55.525,48.685z M37.561,9.571l-0.058-1.606l-0.296-0.371l-0.09,0.043l-0.033,0.736l0.124,1.699
		L37.561,9.571L37.561,9.571L37.561,9.571z M24.286,54.271l-0.681,0.283l-0.565,0.278l-0.641,0.321l0.326,0.225l0.552-0.034
		l0.993-0.875L24.286,54.271L24.286,54.271L24.286,54.271z M25.188,32.992l0.061,0.081l1.842,0.406l0.103-0.021l-0.131-0.406
		l-0.652-0.314L25.188,32.992L25.188,32.992L25.188,32.992z M34.128,56.753l0.138-0.145l0.027-0.417l0.192-0.712l0.26-0.799
		l-0.061-0.162l-0.247,0.212l-0.295,0.266l-0.173,1.385L34.128,56.753L34.128,56.753L34.128,56.753z M45.097,48.629l0.592,0.506
		l0.609,0.576l0.294,0.112l-0.008-0.634l-1.315-0.587L45.097,48.629L45.097,48.629L45.097,48.629z M61.085,43.054l0.347,0.281
		l0.682-0.399l0.033-0.078l-0.154-0.114l-1.248-0.057l-0.293,0.093L61.085,43.054L61.085,43.054L61.085,43.054z M43.814,37.241
		l0.484-0.178l1.332-1.031l0.032-0.205l-0.465,0.215l-1.393,0.954l-0.06,0.086L43.814,37.241L43.814,37.241L43.814,37.241z
		 M9.352,47.15l-0.144-0.153l-0.935-0.204L8.058,46.88l-0.169,0.479l0.019,0.106L9.352,47.15L9.352,47.15L9.352,47.15z
		 M55.336,47.474l-0.324-0.033l-0.781-0.346l-0.175,0.047l0.051,0.093l0.546,0.324l1.269,0.491l0.222-0.094l-0.584-0.295
		L55.336,47.474L55.336,47.474L55.336,47.474z M7.847,46.849l-0.331-0.234L7.121,46.46L6.29,46.339L6.242,46.39l0.384,0.48
		l0.844,0.152L7.847,46.849L7.847,46.849L7.847,46.849z M32.659,39.086l-0.14-0.528l-0.388-0.1l0.049,0.725l-0.027,0.804
		l0.101-0.065L32.659,39.086L32.659,39.086L32.659,39.086z M52.777,35.511l0.334-0.729l0.251-0.329l-0.019-0.177l-0.915,0.836
		L52.777,35.511L52.777,35.511L52.777,35.511z M50.107,41.398l0.333,0.729l0.382,0.069l0.056-0.2l-0.566-0.574L50.107,41.398
		L50.107,41.398L50.107,41.398z M27.974,34.098l0.144,0.151l0.958,0.482l0.156-0.086l-0.104-0.276l-0.44-0.222L27.974,34.098
		L27.974,34.098L27.974,34.098z M40.9,40.013l0.172-0.464l-0.066-0.134l-0.09,0.052l-0.308,0.661l0.017,0.547l0.062,0.031
		l0.241-0.342L40.9,40.013L40.9,40.013L40.9,40.013z M27.222,53.603l-0.313,0.428l-0.368,0.373l0.002,0.104l0.063,0.033l0.37-0.199
		L27.222,53.603L27.222,53.603L27.222,53.603z M42.423,60.417l-0.155,0.129L41.822,61.5l0.03,0.145L42.423,60.417L42.423,60.417
		L42.423,60.417z M42.522,27.39l-0.623,1.186l0.036,0.062l0.149-0.141l0.485-0.938L42.522,27.39L42.522,27.39L42.522,27.39z
		 M41.075,29.882l0.146-0.078l0.354-0.939L41.075,29.882L41.075,29.882L41.075,29.882z M34.77,58.941l0.114-0.148l-0.199-0.674
		l-0.188,0.205L34.77,58.941L34.77,58.941L34.77,58.941z M39.411,22.302l0.321,0.75l0.099,0.003l-0.149-0.698L39.411,22.302
		L39.411,22.302L39.411,22.302z M54.915,48.522l-0.396-0.297l-0.677-0.21L54.915,48.522L54.915,48.522L54.915,48.522z
		 M29.804,35.225l0.446,0.537l0.103-0.02l0.01-0.07l-0.303-0.436L29.804,35.225L29.804,35.225L29.804,35.225z M26.344,54.13
		l0.047-0.098l-0.154-0.146l-0.377,0.541L26.344,54.13L26.344,54.13L26.344,54.13z M37.48,16.076l-0.224-0.544l-0.071-0.033
		l-0.125,0.136l0.25,0.512L37.48,16.076L37.48,16.076L37.48,16.076z M48.847,36.737l-0.397-0.532l-0.165,0.073l0.156,0.319
		L48.847,36.737L48.847,36.737L48.847,36.737z M49.428,41.785l0.187,0.354l0.315-0.165l-0.224-0.299L49.428,41.785L49.428,41.785
		L49.428,41.785z M49.215,49.088l0.412,0.015L49.215,49.088L49.215,49.088L49.215,49.088z M53.435,48.544l0.202-0.037l0.082-0.061
		l-0.067-0.15l-0.374-0.106L53.435,48.544L53.435,48.544L53.435,48.544z M19.413,53.01l0.415-0.382l-0.435,0.219L19.413,53.01
		L19.413,53.01L19.413,53.01z M20.718,51.74l0.343-0.624l-0.052-0.021L20.718,51.74L20.718,51.74L20.718,51.74z M21.688,53.432
		l0.092-0.2l-0.07-0.135l-0.089,0.048l-0.105,0.176l0.034,0.229L21.688,53.432L21.688,53.432L21.688,53.432z M30.066,36.52
		l-0.541-0.236L30.066,36.52L30.066,36.52L30.066,36.52z M27.334,34.992l0.474,0.185l-0.291-0.185L27.334,34.992L27.334,34.992
		L27.334,34.992z M50.997,45.634l-0.09,0.01l-0.034,0.271l0.195,0.061l0.029-0.156L50.997,45.634L50.997,45.634L50.997,45.634z
		 M52.308,36.021l-0.027-0.197l-0.041-0.097l-0.159-0.019l-0.035,0.098L52.308,36.021L52.308,36.021L52.308,36.021z M45.571,57.854
		l-0.234,0.333l0.004,0.105l0.138-0.064L45.571,57.854L45.571,57.854L45.571,57.854z M60.085,43.818l-0.494-0.221L60.085,43.818
		L60.085,43.818L60.085,43.818z M60.674,35.579l0.173-0.264l-0.084-0.155l-0.19-0.018l-0.045,0.154L60.674,35.579L60.674,35.579
		L60.674,35.579z M35.201,20.78l-0.049-0.089l-0.092-0.043l-0.098,0.005l0.064,0.119L35.201,20.78L35.201,20.78L35.201,20.78z
		 M37.759,24.416l-0.062-0.086l-0.184-0.04l0.1,0.121L37.759,24.416L37.759,24.416L37.759,24.416z M57.879,34.977l0.021-0.098
		l-0.028-0.071l-0.14,0.135l0.015,0.095L57.879,34.977L57.879,34.977L57.879,34.977z M59.664,42.188l-0.312-0.159L59.664,42.188
		L59.664,42.188L59.664,42.188z M48.461,37.002l-0.041-0.088l-0.183-0.042l-0.005,0.129l0.177,0.05L48.461,37.002L48.461,37.002
		L48.461,37.002z M49.058,41.147l0.221,0.108l-0.089-0.139l-0.086-0.016L49.058,41.147L49.058,41.147L49.058,41.147z M34.49,38.737
		l0.189,0.024l-0.036-0.092l-0.081-0.05l-0.127,0.044L34.49,38.737L34.49,38.737L34.49,38.737z M50.251,49.119l-0.011,0.07
		l0.047,0.078l0.173,0.018l-0.026-0.14L50.251,49.119L50.251,49.119L50.251,49.119z M39.074,47.748l-0.149,0.02l0.11,0.133
		l0.085-0.021L39.074,47.748L39.074,47.748L39.074,47.748z M33.893,53.891l0.03-0.19l-0.133,0.102l0.021,0.137L33.893,53.891
		L33.893,53.891L33.893,53.891z M30.191,53.189l-0.057-0.135l-0.092,0.041l0.004,0.232L30.191,53.189L30.191,53.189L30.191,53.189z
		 M33.05,54.949l-0.084,0.053l-0.032,0.203l0.077-0.025l0.083-0.182L33.05,54.949L33.05,54.949L33.05,54.949z M21.497,50.585
		l-0.089,0.055l-0.055,0.09l0.022,0.101l0.141-0.091L21.497,50.585L21.497,50.585L21.497,50.585z M27.672,54.727l-0.154,0.091
		l0.012,0.168l0.087-0.025L27.672,54.727L27.672,54.727L27.672,54.727z M41.554,62.711l0.082-0.048l0.04-0.18l-0.058,0.002
		l-0.09,0.158L41.554,62.711L41.554,62.711L41.554,62.711z M25.681,55.31l0.151-0.057l0.021-0.174l-0.146,0.043L25.681,55.31
		L25.681,55.31L25.681,55.31z M25.078,55.374l0.012-0.195l-0.155,0.045l-0.021,0.189L25.078,55.374L25.078,55.374L25.078,55.374z
		 M22.647,54.221l-0.15,0.131l-0.007,0.095l0.13-0.031L22.647,54.221L22.647,54.221L22.647,54.221z M15.767,53.113l-0.048-0.088
		l-0.091-0.043l-0.095,0.007l0.062,0.118L15.767,53.113L15.767,53.113L15.767,53.113z M37.618,63.92l0.083-0.048l0.039-0.086
		l-0.002-0.092l-0.109,0.063L37.618,63.92L37.618,63.92L37.618,63.92z M40.906,11.857l0.064-0.044l-0.053-0.034L40.906,11.857
		L40.906,11.857L40.906,11.857z M40.794,12.619l-0.08,0.04l0.007,0.092l0.081-0.042L40.794,12.619L40.794,12.619L40.794,12.619z
		 M41.791,13.496l0.079-0.025l-0.009-0.083l-0.074,0.036L41.791,13.496L41.791,13.496L41.791,13.496z M43.148,16.241l-0.031-0.065
		l-0.041,0.061L43.148,16.241L43.148,16.241L43.148,16.241z M47.505,23.062l-0.069,0.052l0.058,0.034L47.505,23.062L47.505,23.062
		L47.505,23.062z M38.579,19.309l-0.054-0.069l-0.033,0.052L38.579,19.309L38.579,19.309L38.579,19.309z M47.994,24.012
		l-0.081,0.026l0.099,0.058L47.994,24.012L47.994,24.012L47.994,24.012z M37.908,21.569l-0.071,0.028l0.075,0.048L37.908,21.569
		L37.908,21.569L37.908,21.569z M66.062,36.227l0.067-0.06l-0.048-0.029L66.062,36.227L66.062,36.227L66.062,36.227z M61.514,35.242
		l0.087-0.021l-0.026-0.085l-0.078,0.027L61.514,35.242L61.514,35.242L61.514,35.242z M62.345,35.502l-0.07,0.043l0.062,0.039
		L62.345,35.502L62.345,35.502L62.345,35.502z M37.028,23.871l0.062-0.023l-0.067-0.044L37.028,23.871L37.028,23.871L37.028,23.871z
		 M58.382,34.31l-0.057,0.095l0.083-0.016L58.382,34.31L58.382,34.31L58.382,34.31z M38.175,24.854l0.053,0.066l0.031-0.048
		L38.175,24.854L38.175,24.854L38.175,24.854z M39.22,25.31l-0.064,0.036l0.062,0.038L39.22,25.31L39.22,25.31L39.22,25.31z
		 M55.301,33.325l-0.047-0.051l-0.081,0.012l0.104,0.087L55.301,33.325L55.301,33.325L55.301,33.325z M38.296,28.237l-0.058,0.031
		l0.051,0.036L38.296,28.237L38.296,28.237L38.296,28.237z M39.09,28.671l-0.045-0.068l-0.037,0.058L39.09,28.671L39.09,28.671
		L39.09,28.671z M53.47,35.541l-0.066,0.047l0.053,0.035L53.47,35.541L53.47,35.541L53.47,35.541z M47.768,33.079l-0.016-0.082
		l-0.075,0.029l0.016,0.075L47.768,33.079L47.768,33.079L47.768,33.079z M52.03,36.599l-0.042-0.067L51.95,36.59L52.03,36.599
		L52.03,36.599L52.03,36.599z M55.07,44.984l0.056,0.068l0.031-0.051L55.07,44.984L55.07,44.984L55.07,44.984z M55.48,45.244
		l0.068-0.027l-0.074-0.047L55.48,45.244L55.48,45.244L55.48,45.244z M50.221,44.82l-0.038-0.064l-0.036,0.055L50.221,44.82
		L50.221,44.82L50.221,44.82z M30.498,36.933l-0.068,0.025l0.074,0.047L30.498,36.933L30.498,36.933L30.498,36.933z M23.345,34.239
		l0.055,0.072l0.035-0.056L23.345,34.239L23.345,34.239L23.345,34.239z M22.752,34.205l-0.044-0.061l-0.03,0.045L22.752,34.205
		L22.752,34.205L22.752,34.205z M22.006,34.078l0.036,0.06l0.033-0.047L22.006,34.078L22.006,34.078L22.006,34.078z M51.494,50.045
		l0.068-0.04l-0.066-0.039L51.494,50.045L51.494,50.045L51.494,50.045z M50.137,49.869l0.052-0.096L50.1,49.784L50.137,49.869
		L50.137,49.869L50.137,49.869z M47.961,53.375l0.066-0.047l-0.054-0.033L47.961,53.375L47.961,53.375L47.961,53.375z M48.03,53.757
		l-0.062,0.046l0.049,0.031L48.03,53.757L48.03,53.757L48.03,53.757z M44.812,56.593l-0.016-0.082l-0.068,0.115L44.812,56.593
		L44.812,56.593L44.812,56.593z M43.927,57.292l-0.071,0.055l0.054,0.034L43.927,57.292L43.927,57.292L43.927,57.292z
		 M43.941,57.844l-0.032-0.069l-0.044,0.067L43.941,57.844L43.941,57.844L43.941,57.844z M11.898,43.153l0.083-0.013l-0.027-0.078
		l-0.08,0.012L11.898,43.153L11.898,43.153L11.898,43.153z M44.562,59.341l0.034,0.074l0.046-0.071L44.562,59.341L44.562,59.341
		L44.562,59.341z M20.297,52.198l-0.023-0.06l-0.043,0.064L20.297,52.198L20.297,52.198L20.297,52.198z M18.125,53.789l-0.115-0.062
		l0.019,0.1L18.125,53.789L18.125,53.789L18.125,53.789z"/>
	<polygon fill="#363942" points="46.367,27.404 46.326,27.337 46.421,27.173 46.491,27.177 46.461,27.365 46.367,27.404 
		46.367,27.404 	"/>
	<polygon fill="#363942" points="50.547,40.792 50.569,40.589 50.55,40.279 50.733,40.39 51.512,41.389 51.541,41.597 
		51.358,41.603 50.811,40.919 50.547,40.792 50.547,40.792 	"/>
	<polygon fill="#363942" points="57.291,38.742 57.158,39.007 57.019,39.023 57.007,38.927 57.303,38.772 57.291,38.742 
		57.291,38.742 	"/>
	<polygon fill="#363942" points="30.441,38.25 30.699,38.429 30.972,39.063 30.956,39.253 30.441,38.25 30.441,38.25 	"/>
	<polygon fill="#363942" points="30.144,37.867 30.46,38.293 30.212,38.13 30.144,37.867 30.144,37.867 	"/>
	<polygon fill="#363942" points="17.046,39.71 17.222,39.457 18.592,39.269 18.753,39.392 18.772,39.48 18.588,39.579 
		17.965,39.641 17.349,39.792 17.051,39.723 17.046,39.71 17.046,39.71 	"/>
	<polygon fill="#363942" points="21.658,39.509 21.511,39.242 21.55,39.083 21.652,39.08 22.42,39.731 22.411,39.816 21.658,39.509 
		21.658,39.509 	"/>
	<polygon fill="#363942" points="35.606,44.65 35.839,44.763 35.333,45.998 35.054,45.953 35.606,44.65 35.606,44.65 	"/>
	<polygon fill="#363942" points="37.671,45.311 37.679,44.687 37.887,44.201 37.997,44.146 38.26,44.375 38.071,45.207 
		37.867,45.413 37.671,45.311 37.671,45.311 	"/>
	<polygon fill="#363942" points="35.989,40.342 36.764,40.603 36.81,40.699 36.683,40.778 36.111,40.51 35.989,40.342 
		35.989,40.342 	"/>
	<polygon fill="#363942" points="34.181,40.642 34.373,40.659 34.405,40.805 34.225,40.792 34.181,40.642 34.181,40.642 	"/>
	<polygon fill="#363942" points="43.988,52.46 43.874,52.312 43.956,52.275 43.963,52.469 43.988,52.46 43.988,52.46 	"/>
	<polygon fill="#363942" points="41.437,57.716 41.35,57.662 40.866,56.175 40.895,56.099 41.081,56.146 41.557,57.425 
		41.449,57.712 41.437,57.716 41.437,57.716 	"/>
	<polygon fill="#363942" points="41.835,36.222 41.947,36.704 41.675,36.716 41.615,36.545 41.835,36.222 41.835,36.222 	"/>
	<polygon fill="#363942" points="51.29,44.709 51.891,45.404 51.895,45.507 51.292,45.222 51.283,44.968 51.29,44.709 51.29,44.709 
			"/>
	<polygon fill="#363942" points="14.347,41.308 14.55,40.896 14.969,41.091 14.347,41.308 14.347,41.308 	"/>
	<polygon fill="#363942" points="58.672,46.863 58.45,46.762 58.622,46.673 58.672,46.863 58.672,46.863 	"/>
</g>
</svg>
