<?xml version="1.0" encoding="utf-8"?>
<!-- Generator: Adobe Illustrator 15.0.2, SVG Export Plug-In . SVG Version: 6.00 Build 0)  -->
<!DOCTYPE svg PUBLIC "-//W3C//DTD SVG 1.1//EN" "http://www.w3.org/Graphics/SVG/1.1/DTD/svg11.dtd">
<svg version="1.1" id="Layer_1" xmlns="http://www.w3.org/2000/svg" xmlns:xlink="http://www.w3.org/1999/xlink" x="0px" y="0px"
	 width="48.75px" height="48.75px" viewBox="0 0 48.75 48.75" enable-background="new 0 0 48.75 48.75" xml:space="preserve">
<g>
	<path fill="#232734" d="M27.538,32.75h-0.072L27.1,33.098l-0.303,0.207L26,33.434l-0.264,0.006l-0.231-0.303l-0.178-0.309
		l-0.793,0.494l-0.468,0.197l-0.891,0.328l-0.581,0.024l-0.433,0.03l-0.432,0.07L21.3,33.93l-0.42-0.496l-0.066-0.037l-0.703-0.832
		l0.364-1.254l0.914-1.039l0.114-0.268l1.03-0.518l0.899-0.514l0.474,0.082l0.582,0.09l0.526,0.062l0.266-0.485l0.304-0.5
		l0.364-0.176l0.468-0.4l0.401,0.014l0.375,0.283l0.401,0.218l0.375,0.53l0.132,1.071l0.051,0.435L28.1,30.622l0.237,0.116
		l0.433-0.066l0.959-0.357l0.295-0.129l0.852-0.754l0.82-0.619l0.91-0.608l0.862-0.547l0.919-0.285l0.172-0.127l-0.063-0.056
		l-0.683-0.246l-0.705-0.209l-0.469-0.196l-0.498-0.132l-0.465-0.209l-0.496-0.135l-0.675-0.278l-0.573-0.318l-0.654-0.321
		l-0.617-0.388l-0.723-0.349L27.164,24l-0.732-0.327l-0.894-0.496l-0.989-0.468l-0.598-0.268l-0.598-0.269l-0.591-0.285
		l-0.122-0.081l-0.654,0.322l-0.195,0.101l-0.951,0.552l-0.296,0.203l-0.11,0.582l-0.426,0.772l0.04,0.63l0.415,0.429l0.188,1.008
		l0.532,0.818l-0.014,0.448l0.168,0.386l-0.117,0.346l-0.074,0.408l-0.024,0.498l-0.43,0.27l-0.185,0.541l-0.443,0.259l-0.112,0.343
		l-0.689,0.332l-0.328,0.283l-0.584,0.09l-0.697-0.256l-0.627-0.119l-0.421-0.539l-0.37-0.092l-0.432-0.333l-0.316,0.421
		l-0.465,0.424l-0.206,0.658l-0.491,0.229l-0.118,0.121l-0.371,0.314l-0.292,0.066l-0.523-0.057l-0.453,0.264l-0.592,0.076
		l-0.763-0.105l-0.547-0.119l-0.472-0.395l-0.3-0.197L9.46,31.488l-0.187-0.314L8.81,30.957l-0.407-0.492l-0.046-0.143l-0.075-0.506
		l-0.193-0.472l-0.077-0.301L8.1,28.578l0.286-0.284l0.078-0.733l0.675-0.516l0.082-0.24l0.883-0.572l0.227-0.145l0.106-0.264
		l0.306-0.234l0.48-0.121l0.78,0.096l0.235-0.135l-0.302-0.14l-0.169-0.127l-0.229-0.285l-0.459-0.881l0.076-0.399l0.162-0.243
		l-0.206-0.297l0.067-0.355l0.364-0.458l0.073-0.232l0.435-0.355l0.616-0.194l0.331-0.408l0.939-0.047l0.148-0.175l0.322-0.147
		l0.206-0.008l0.278-0.326l0.766-0.191l0.384,0.121l0.617,0.205l0.312,0.058l0.345,0.27l0.209,0.389l0.761,0.636l0.359,0.247
		l0.569,0.658l0.511-0.026l0.42,0.083l0.143-0.167l0.088-0.288l0.283-0.229l0.532-0.24l0.447-0.252l0.268-0.109l0.072-0.114
		l-0.995-0.611l-0.252-0.145l-0.702-0.388l-0.722-0.35l-1.33-0.76l-0.74-0.464l-0.505,0.026l-0.442-0.103l-0.229-0.167l-0.356-0.063
		l-0.427,0.097l-0.91,0.271l-0.26,0.255l-0.623,0.212l-0.331,0.403l-0.368,0.05l-0.816,0.921l-0.388,0.12l-0.3-0.058l-0.135-0.094
		l-0.472-0.332l-0.319-0.203l-0.168,0.09l-0.381,0.356l-0.347,0.081L9.025,20.59l-0.411,0.134l-0.818-0.101l-0.282,0.063
		l-0.213-0.02l-0.944-0.375l-0.6-0.419l-0.75-0.938l0.167-0.425l-0.096-0.771l0.038-0.198l0.764-0.596l0.163-0.34l0.566-0.333
		l-0.108-0.392l0.109-0.647l0.49-0.319l0.296-0.062l0.205,0.051l0.127,0.076l0.236-0.125l-0.556-0.328l-0.801-0.152l-0.714-0.539
		l-0.731-0.299L4.66,13.393l-0.318-0.31l-0.637-0.175l-0.44-0.439l-0.083-0.603l-0.283-0.671l0.042-0.149l0.078-0.137l-0.28-0.446
		l0.21-0.552l-0.34-0.574l0.056-0.225l0.743-0.348l0.296-0.292L3.99,8.274L3.947,7.982l0.006-0.279l0.3-0.208L4.83,7.401
		l0.458-0.026L5.55,6.843l0.197-0.141l0.409-0.153l0.368-0.223l0.465-0.054l0.338,0.145l0.334-0.085l0.442,0.084l0.52,0.4
		L9.15,6.917l0.398,0.275l0.099,0.115l0.468,0.557l0.329,0.478l0.183,0.479l-0.039,0.511l0.165,0.631l0.114,0.419l0.142,0.027
		l0.005-0.268l0.013-0.22l0.065-0.261l0.459-0.25l0.118-0.182l0.393-0.094l0.461,0.467l0.074-0.099L12.37,8.597l0.496-0.512
		l0.491,0.093l0.685-0.23l0.477-0.128l0.476,1.008l0.383,0.428l0.188,0.222l0.527,0.913l0.051,0.071l0.265,0.118l0.346,0.54
		l0.032,0.276l0.29,0.443l0.055,0.015l0.535-0.192l0.566-0.565l0.746,0.115l0.334,0.454l0.269,0.176l0.326-0.067l-0.101-0.258
		l-0.269-0.346l-0.601-0.801v-0.351l-0.291-0.47l-0.11-0.362l0.039-0.203l0.262-0.263l0.009-0.134l-0.153-0.929l0.333-0.279
		l0.346-0.112l0.241-0.167l0.19-0.083l0.426,0.112L20.47,7.29l0.29-0.001l0.103-0.249l-0.05-0.213l0.053-0.292l0.396-0.213
		l0.215-0.614l0.542-0.333l0.759,0.099l0.452-0.077l0.426-0.007l0.459,0.24l0.435,0.291l0.279-0.031l0.37,0.221l0.648,0.62
		l0.229,0.712l0.241,0.321l0.218,0.462L26.9,8.93L27,9.379l-0.236,0.495l0.053,0.631l-0.043,0.118l-0.264,0.344l-0.338,0.194
		l-0.281,0.495l0.158,0.09l0.508-0.149l0.42,0.078l0.361-0.02l0.432,0.021l0.408,0.303l0.402,0.3l0.367,0.264l0.402,0.763
		l0.125,0.415l0.018,0.588L29.27,15.05l-0.166,0.645l-0.599,0.696l-0.245,0.133l-0.494-0.045l-0.123,0.068l-0.51,0.36l-0.531-0.028
		l-0.109,0.098l-0.485,0.308l-0.25-0.009l-0.319,0.186l-0.412,0.048l-0.649,0.362l-0.234-0.1l-0.609,0.512l-0.07,0.021l-0.314-0.006
		l-0.304,0.108l-0.222,0.799l0.071,0.35l-0.116,0.494l0.007,0.509l0.013,0.548l0.329,0.502l0.529,0.301l0.596,0.277l0.671,0.286
		l0.138,0.047l0.653,0.324l1.661,0.915l0.724,0.344l0.588,0.288l0.188,0.11l0.623,0.378l0.254,0.139l0.736,0.315l0.773,0.397
		l0.279,0.082l0.547,0.207l0.271,0.104l0.759,0.266l0.211,0.062l0.899,0.3l0.354,0.094l0.911,0.266l0.214-0.014l0.27,0.146
		l0.748,0.139l0.054-0.123l-0.247-0.363l-0.561-0.768l-0.521-0.802l-0.426-0.929l-0.113-0.424l-0.172-0.502l0.127-0.154l0.123-0.342
		l-0.077-0.226l0.109-0.258l-0.107-0.414l0.076-0.204L34.675,21.7l-0.062,0.014l-0.191,0.471l-0.217,0.396l-0.53,0.364l-0.505,0.456
		l-0.548,0.088l-1.119-0.812l-0.226-0.458l-0.258-0.5l-0.229-0.061l-0.342-0.124l-0.481-0.165l-1.016-0.214l-0.352-0.25
		l-0.216-0.198l-0.124-0.264l-0.148-0.155L27.74,20.06l-0.408-0.521l0.083-0.437l-0.144-0.641l0.377-0.577l0.08-0.303l0.502-0.307
		l0.521-0.38l0.199-0.151l0.664,0.17l0.43-0.027l0.447,0.081l0.29,0.172l0.423-0.138l0.137,0.028l0.702,0.541l0.458-0.18
		l0.682,0.194l0.315,0.14l0.444,0.709l0.182,0.948l-0.051,0.264l-0.088,0.504l0.08,0.432l0.591,0.407l0.108-0.405l-0.076-0.43
		l-0.168-1.229l-0.033-0.29l-0.104-0.375l-0.798-1.114l-0.213-0.075l-0.167-0.054l-0.763-0.547l-0.826-0.187l-0.59-0.34
		l-0.604-0.414l-0.158-0.312l-0.217-0.362l0.004-0.269l-0.246-0.764l0.02-0.286l-0.197-0.438l0.084-0.445l-0.05-0.26l0.562-0.684
		l0.823-0.064l0.16-0.129l-0.229-0.682l0.145-0.403l-0.152-0.484l-0.184-0.55l0.143-0.332l-0.187-0.996l0.039-0.204l0.829-0.617
		l0.505-0.038l0.337,0.053l0.072-0.129l0.056-0.865L32.979,5.8l0.469-0.128l1.004,0.221l0.27,0.112l0.491,0.227l0.231,0.301
		l0.027,0.176l0.215,0.454l0.741,0.161l0.593,0.954l0.229,0.184l0.29,0.672L37.55,9.39l0.406,1.307l-0.118,0.351l0.176,0.422
		l-0.055,0.281l-0.511,0.613l-0.026,0.153l0.16,0.232l0.072,0.009l0.432-0.174l0.35,0.046l0.299,0.335l0.281,0.133l0.344,0.438
		l0.105,0.486l-0.058,0.299l-0.198,0.305l0.025,0.236l-0.051,0.422l-0.219,0.377l-0.232,0.184l-0.15,0.351l-0.175,0.211
		l-0.628,0.244l-0.258,0.242l-1.139,0.203l-0.408,0.251l-0.18,0.016l-0.584-0.074l-0.328,0.003l-0.502-0.084l-0.044,0.157
		l0.229,0.599l0.187,0.632l0.144,0.717l0.09,0.579l0.082,0.577l0.022,0.873l-0.021,0.271l0.174,0.257l0.168-0.125l0.553-0.464
		l0.34-0.158l0.188-0.467l0.271-0.366l-0.039-0.268l0.09-0.424l0.25-0.438l0.418-0.325l0.305-0.426l0.377-0.168l0.736,0.148
		l0.191-0.104l0.151-0.072l0.414-0.009l0.674-0.671l0.407-0.081l0.955,0.288l0.375-0.186l0.892,0.147l0.354,0.185l0.847,0.558
		l0.296,0.731l-0.465,0.444l0.021,0.361l-0.031,0.277l-0.728,0.72l-0.896,0.256l-0.006,0.305l-0.191,0.446l-0.451,0.231
		l-0.734-0.001L40.611,22.2l-0.121,0.061l-0.021,0.138l0.508,1.116l-0.388,0.171l-0.368,0.331l-0.145,0.007l-0.942-0.148
		l-0.628-0.167l-0.307-0.458l0.027-0.365l-0.231-0.523l-0.154-0.126l-0.554-0.354l-0.596-0.113l-0.644,0.061l-0.282,0.292
		l-0.486,0.136l-0.096,0.16l-0.037,0.799l-0.024,0.503l0.067,0.3l-0.078,0.413l0.539,1.058l0.882,1.17l0.298,0.398l0.801,0.539
		l2.741,0.521l0.218,0.021l0.799,0.047l0.873,0.054l0.363,0.024l0.654,0.025l0.146,0.001l0.729,0.021l0.654-0.047l0.217-0.002
		l0.51,0.008l0.503,0.071l0.09,0.101l-0.052,0.127l-0.539,0.078l-0.327-0.037l-0.437-0.008l-0.512-0.013l-0.435,0.039l-0.511-0.067
		l-0.439,0.026l-1.191-0.178l-0.287,0.052l-1.51-0.229l-0.231,0.037l-1.054-0.199l-0.209-0.115l-0.569-0.018l-0.505-0.095
		l-1.227-0.249l-0.281-0.07l-0.344-0.053l-0.379-0.014l-1.097,0.368l-0.802,0.354l-0.582,0.312l-0.545,0.375l-0.517,0.409
		l-0.537,0.431l-0.649,0.865l-0.131,0.688l0.422,1.846l0.154,0.283l0.209,0.285l0.16,0.006l0.674-0.261l0.68,0.087l0.582-0.139
		l0.469,0.088l0.367,0.26l0.111,0.217l-0.074,0.392l0.072,0.266l-0.048,0.429l-0.382,0.5l-0.001,0.506l-0.606,0.365l-0.33,0.815
		l0.195,0.405l-0.458,0.824l-0.059,0.408l-0.079,0.348l-0.221,0.312l-0.629,0.361l-0.541,0.353l-0.455,0.116l-0.603-0.089
		l-1.047-0.083l-0.3-0.291l-0.151,0.01l-0.403-0.214l-0.25-0.548l0.057-0.551l-0.324-0.51l0.197-1.062l0.555-0.611l0.031-0.163
		L27.449,36l-0.299-0.418l0.134-0.656l0.286-0.299l-0.03-0.225l0.804-0.648l0.676-0.537l0.347,0.027l0.266,0.049l0.656-0.119
		l0.039-0.229l-0.337-1.229l0.007-0.562l0.091-0.187l0.043-0.362l-0.126,0.016l-0.914,0.836L28.169,32.5l-0.212,0.295l-0.258,0.354
		l-0.4,0.52l-0.479,0.576l0.045,0.257l-0.506,0.492l-0.019,0.104l0.063,0.227l-0.123,0.236l-0.106,0.27l-0.12,0.314l0.038,0.297
		l0.314,0.509l-0.079,0.679l0.162,0.419l-0.047,0.547l0.066,0.232l-0.084,0.44l-0.244,0.383l-0.35,0.201l-0.562,0.16l-0.144,0.133
		l0.022,0.238l-0.41,0.773l-0.162,0.242l-0.475,0.315l-0.227,0.062l-0.42-0.078l-0.124-0.075l-0.676-0.088l-0.52,0.434l-0.182,0.078
		l-0.182,0.103l-0.514,0.569l-0.409,0.128l-0.501-0.049l-0.91,0.223l-0.479-0.092l-0.306-0.294l-0.338,0.007l-0.555-0.354
		L17.396,42.3l-0.442-0.231l-0.046-0.48l0.294-0.402l-0.06-0.211l-0.203-0.457l0.14-0.254l0.105-0.242l0.596-0.588l0.531-0.68
		l-0.191-0.377L18.067,37.9l0.502-0.984l0.952-0.428l0.289,0.119l0.712,0.095l0.362-0.032l0.193-0.109l-0.243-0.832l0.377-0.559
		l0.336-0.551l0.41-0.079l0.88,0.144l0.705-0.021l0.909,0.271l0.063,0.021l1.011,0.001l0.146,0.087l0.269-0.071l0.434-0.492
		l0.229-0.373l0.289-0.33l0.572-0.762l0.062-0.281l0.109-0.017l0.006-0.047L27.538,32.75L27.538,32.75z M21.944,14.886l0.12,0.171
		l0.117,0.172l0.117,0.172l0.032,0.12l0.047-0.029l-0.104-0.074l-0.116-0.172l-0.118-0.172l-0.118-0.172l-0.115-0.176l0.045-0.155
		l-0.019,0.013l0.309,0.041l0.119,0.171l0.118,0.172l0.032,0.125l0.147,0.117l0.023,0.503l0.264-0.059l0.068,0.121l0.061-0.095
		l0.218,0.13l-0.432,0.387l0.027,0.19l0.308-0.169l0.043,0.101l-0.465,0.443l0.238,0.124l-0.015-0.021l-0.351,0.473l0.218,0.724
		l0.639-0.12l0.364-0.363l-0.033-0.15l-0.005-0.072l0.067-0.118l0.136-0.005l0.466,0.311l0.188-0.273l-0.03-0.143l0.098-0.073
		l0.646,0.09l0.226-0.203l0.42,0.03l0.244-0.157l0.123-0.181l0.168-0.098l0.643,0.042l0.176-0.121l0.206-0.343l0.562,0.083
		l0.19-0.054l0.154-0.31l0.396-0.303l0.033-0.559l0.293-0.279l0.068-0.431l-0.178-0.231l0.143-0.321l-0.311-0.405l-0.422-0.73
		l-0.261-0.099l-0.483-0.467l-0.142-0.087l-0.194,0.009l-0.332,0.153l-0.211-0.02l-0.189-0.121l-0.411,0.105l-0.442,0.046
		l-0.508,0.386l-0.097,0.342l-0.373,0.048L24.7,12.727l0.235-0.664l0.254-0.669l0.552-0.203l0.157-0.315l0.58-0.343l0.049-0.175
		l-0.148-0.64l0.193-0.229l0.042-0.507l-0.312-0.4l-0.009-0.29l-0.237-0.389l-0.309-0.29l-0.284-0.862L25.24,6.682l-0.398-0.384
		l-0.538-0.102L23.86,5.829l-0.786-0.145l-0.339,0.098l-0.3-0.084l-0.26-0.05l-0.474,0.358l0.021,0.351L21.427,6.57l-0.293,0.203
		l-0.066,0.764l0.082,0.292l-0.106,0.255L20.743,7.78l-0.348-0.093l-0.552-0.333L19.744,7.46l-0.439,0.197L19.088,7.71l-0.075,0.495
		l0.181,0.425l-0.039,0.283l-0.228,0.168l-0.102,0.191l0.208,0.312l0.254,0.262l-0.042,0.423l0.269,0.532l0.331,0.187l0.166,0.309
		l0.616,0.8l0.161,0.115l0.599,0.85l-0.067,0.141L21,13.077l-0.388-0.092l-0.538-0.678l-0.932-0.351l-0.055-0.046l-0.335-0.467
		l-0.221-0.058l-0.464,0.336l-0.096,0.21l-0.058,0.044l-0.505,0.203l0.053,0.274l-0.132,0.185l-0.192,0.075L17.12,12.87
		l-0.051,0.716l-0.023,0.497l0.41,0.51l0.01,0.315l0.4,0.545l0.431,0.185l0.146,0.322l0.653,0.465l0.411-0.18l0.196-0.09
		l0.071,0.016l0.257,0.425l0.449,0.241l0.542,0.16l0.126,0.271l0.568,0.097L21.62,17.11l-0.066-0.195l-0.013,0.009l0.205,0.049
		l0.45,0.622l0.116,0.062l0.035,0.123l0.041-0.038l-0.096-0.07l0.056-0.218l-0.272-0.405l-0.061-0.194l-0.019,0.012l0.067-0.021
		l0.083-0.228L22.1,16.418l-0.021,0.015l0.307,0.04l0.036,0.121l0.042-0.035l-0.094-0.075l0.032-0.39l-0.273-0.466l-0.566-0.835
		l-0.026-0.132l-0.023,0.018l0.312,0.036L21.944,14.886L21.944,14.886z M20.977,22.363l-0.127,0.025l0.026,0.051l0.083-0.102
		l0.12-0.061l-0.045-0.012L20.977,22.363L20.977,22.363z M24.339,36.188l0.066-0.119l0.962-0.686l-0.615-0.131l-0.217,0.189
		l-0.463-0.344l-0.904-0.189l-0.343,0.177l-0.18-0.112l-0.721-0.132l-0.138,0.03l-0.265,0.426l-0.368,0.438l0.535,0.912
		l-0.172,0.606l-0.339-0.163l-0.607-0.115l-0.46,0.055l-0.358-0.079l-0.569-0.078l-0.438,0.326l-0.084,0.44l-0.188,0.241l0.02,0.375
		l0.368,0.479l1.35,0.248l-0.168,0.104l-0.711-0.099l-0.133,0.027l0.018,0.246l0.909,0.174l-0.017-0.022l-0.089,0.099l-0.58-0.066
		l-0.143-0.006l-0.426,0.014l-0.447-0.191l-0.34,0.375l-0.361,0.252l-0.379,0.699l0.217,0.432l-0.157,0.42l-0.118,0.357l0.058,0.096
		l0.358,0.068l0.231-0.102l0.136,0.026l0.159,0.3l0.507,0.024l0.281,0.028l0.177,0.322l0.283,0.054l0.265,0.018l0.38-0.198
		l0.536,0.096l0.517-0.137l0.326-0.48l0.562-0.266l0.185-0.242l-0.025-0.152l0.242-0.186l0.253,0.133l0.545-0.106l0.198,0.048
		l0.147,0.18l0.39,0.142l0.419-0.291l0.097-0.349l0.246-0.444l-0.159-0.53l-0.299-0.311l0.178-0.307l0.608,0.416l0.417,0.035
		l0.432-0.238l0.166-0.297l-0.125-0.297l-0.028-0.221l0.167-0.225l-0.069-0.495l-0.177-0.298l0.191-0.553l-0.322-0.238l-0.078-0.387
		l0.221-0.812l-0.109-0.176l-0.146,0.037l-0.503,0.423l-0.576,0.557l-0.134,0.039l-0.086-0.333L24.339,36.188L24.339,36.188z
		 M33.312,19.741l-0.023,0.019l0.232,0.044l0.217-0.18l0.015-0.336l-0.417-0.234l0.292-0.286l-0.188-0.586l-0.563-0.398
		l-0.247-0.106l-0.521,0.516l0.179,0.41l-0.119,0.153l-0.133-0.041l-0.208-0.264l-0.153-0.668l-0.282-0.343l-0.639,0.006
		l-0.348-0.15l-0.492-0.083l-0.485-0.073l-0.348-0.074l-0.294,0.309L28.3,17.56l-0.17,0.127l-0.063,0.339l-0.354,0.32l-0.071,0.475
		l0.305,0.436l-0.269,0.241l-0.002,0.171l0.834,0.576l0.337,0.562l0.578,0.266l0.283,0.034l0.845,0.123l0.062,0.042l0.414,0.117
		l0.639-0.146l0.115,0.075l0.007,0.066l-0.113,0.18l-0.077,0.393l0.193,0.471l0.335,0.366l0.29,0.213l0.264,0.185l0.383-0.087
		l0.362-0.456l0.522-0.27l0.328-0.731l0.047-0.477l-0.398-0.245l-0.24-0.16l-0.457-0.351l-0.281-0.222l-0.006-0.071l-0.021,0.016
		l0.518,0.208l0.066,0.02l0.155-0.101L33.6,19.981l-0.236-0.119L33.312,19.741L33.312,19.741z M37.658,20.42l0.093,0.176
		l0.812,0.155l0.998,0.234l0.057,0.061l-0.225-0.008l-2.031-0.344l-0.174,0.01l-0.319,0.2l-0.205,0.488l0.044,0.058l0.74,0.161
		l0.516,0.37l0.499,0.784l0.06,0.36l0.148,0.319l0.422,0.194l0.545-0.113l0.248,0.156l0.271-0.031l0.123-0.249l0.146-0.06
		l0.136-0.192l-0.4-0.562l-0.387-0.132l-0.117-0.509l0.003-0.067l0.091-0.105l0.359,0.014l0.826,0.158l0.268-0.055l0.499-0.004
		l0.362-0.333l0.011-0.517l0.151-0.123l0.789-0.164l0.652-0.478l0.076-0.321l-0.047-0.531l0.341-0.247l-0.015-0.433l-0.535-0.478
		l-0.492-0.167l-0.819-0.229l-0.401,0.216l-0.527-0.207l-0.422-0.103l-0.486,0.062l-0.265,0.369l0.03,0.14l0.033,0.141l-0.105,0.253
		l-0.139,0.012l-0.227-0.18l-0.598,0.146l-0.086,0.235l-0.467,0.401l-0.121-0.064l-0.008-0.205l0.119-0.183l0.073-0.276
		l-0.229-0.141l-0.265,0.081l-0.255,0.353l-0.125,0.276l-0.382,0.169l-0.283,0.531l0.095,0.188l0.363,0.307l0.169,0.054
		L37.658,20.42L37.658,20.42z M25.907,30.195l0.021-0.019l-0.422-0.079l-0.484-0.285l-0.259-0.285l-1.222-0.232l-0.623,0.252
		l-0.12,0.256l-1.047,0.387l-0.22,0.414l0.076,0.264l0.471,0.093l0.477,0.181l-1.474-0.214l-0.375,0.703l0.087,0.351l-0.368,0.533
		l0.092,0.353l0.288,0.198l0.381-0.019l0.093,0.101l0.066,0.352l0.331,0.191l0.402-0.082l0.517-0.282l0.282,0.198l0.851-0.137
		l0.422-0.289l0.132-0.062l0.23,0.007l0.19-0.086l0.645-0.59l0.273-0.232l0.265,0.433l-0.138,0.311l0.215,0.182l0.426-0.086
		l0.398-0.01l0.266-0.221l0.131-0.287l0.396-0.193l0.199-0.283l-0.189-0.672l-0.277-0.264l-0.203-0.037l0.017,0.023l0.026-0.066
		l0.472-0.169l0.114-0.086l0.121-0.635l-0.092-0.364l-0.14-0.424l0.092-0.18l-0.077-0.379l-0.24-0.324l-0.426-0.121l-0.188-0.246
		l-0.166-0.1l-0.356,0.336l-0.084,0.114l-0.529,0.212l-0.213,0.908l0.017,0.075l0.267,0.401l0.149,0.084L25.907,30.195
		L25.907,30.195z M30.973,35.2l-0.057-0.429l0.035-0.358l-0.043-0.147l-0.438-0.535l-0.316-0.164l-0.372,0.188l-0.291-0.175
		l-0.226-0.042l-0.395,0.134l-0.2,0.354l-0.62,0.223l-0.255,0.304l-0.062,0.317l-0.219,0.342l0.039,0.415l0.141,0.138l0.74,0.008
		l0.215,0.017l0.506-0.011l0.121,0.065l-0.569,0.356l-0.321,0.439l-0.449,0.348l-0.106,0.373l-0.17,0.399l0.139,0.386l0.337,0.194
		l0.049,0.265l-0.138,0.289l0.099,0.389l0.266,0.232l0.492,0.002l0.152,0.32l0.043,0.059l0.414,0.102l0.485-0.154l0.209,0.145
		l0.315,0.041l0.433-0.116l1.039-0.738l0.089-0.469l-0.061-0.381l0.541-0.605l-0.203-0.45l0.055-0.291l0.184-0.519l-0.283-0.354
		l0.033-0.135l0.285-0.031l0.434,0.071l0.129-0.058l0.033-0.562l0.446-0.48l0.041-0.139l-0.188-0.41l0.14-0.395l-0.12-0.076
		l-0.572-0.117l-0.266,0.095l-0.716-0.136l-0.581,0.211l-0.196,0.277l-0.104,0.553l-0.002,0.289l-0.153,0.116L30.973,35.2
		L30.973,35.2z M34.293,16.035l-0.09,0.581l0.039,0.134l0.41,0.131l0.397,0.169l0.218-0.04l0.438,0.04l0.141-0.02l0.211-0.205
		l0.434-0.046l0.363-0.027l0.438-0.04l0.166-0.131l-0.029-0.15l0.104-0.183l0.396,0.026l0.433-0.327l-0.039-0.271l0.441-0.263
		l0.182-0.318l-0.053-0.187l-0.094-0.323l0.344-0.592l-0.146-0.485l-0.369-0.144l-0.506-0.456l-0.496,0.295l-0.408-0.177
		l-0.323,0.155l-0.147-0.215l0.343-0.449l0.066-0.355l0.525-0.622l-0.186-0.495l0.143-0.844l-0.308-0.413l-0.256-0.99l-0.606-0.947
		l-0.357-0.28l-0.43-0.083l-0.508-0.137L35.1,7.248l0.021-0.239l0.027-0.27l-0.396-0.347l-0.26-0.131L34.001,6.2l-0.688-0.201
		l-0.479,0.525l0.2,0.97l-0.05,0.061l-0.561,0.174l-0.597-0.205l-0.06,0.036l-0.473,0.292l-0.066,0.03l-0.213,0.385l0.082,0.382
		l0.188,0.317l-0.064,0.295l-0.133,0.251l0.391,0.954l-0.16,0.323l0.072,0.332l0.283,0.45l-0.3,0.296l0.149,0.434l-0.004,0.071
		l-0.16,0.087l-0.471-0.354l-0.562-0.042l-0.263,0.312l0.015,0.387l-0.052,0.207l-0.039,0.132l0.26,0.518l-0.049,0.494l0.199,0.377
		l-0.026,0.268l0.147,0.311l0.211,0.408l0.933,0.527l0.981,0.187l0.168,0.182l0.613,0.387l0.426,0.092l0.137-0.06l0.199-0.691
		l0.121-0.045L34.293,16.035L34.293,16.035z M19.569,23.443l0.071-0.119l0.249-0.204l-0.336-0.095l-0.247,0.15l-0.222,0.115
		l-0.263-0.444l-0.249-0.104l-0.208-0.402l-0.34-0.104l-0.175-0.415l-0.354-0.248L17.271,21.6l-0.172-0.535l-0.374-0.261
		l-0.35,0.081l-0.549-0.37l-0.28-0.028l-0.219,0.16h-0.165l-0.159,0.18l0.051,0.213l-0.11,0.17l-0.396-0.178l-0.385,0.307
		l-0.273,0.064l-0.195-0.105l-0.576,0.074l-0.061,0.059l-0.065,0.343l-0.127,0.08l-0.357-0.049l-0.586,0.276l0.165,0.336
		l-0.644,0.35l-0.025,0.188l0.333,0.408l-0.304,0.283l-0.07,0.372l0.067,0.104l0.435,0.149l0.098,0.191l-0.145,0.273l0.46,0.435
		l1.045,0.232l0.813,0.248l0.465-0.271l0.124,0.265l-0.268,0.191l-0.444,0.107l-0.875-0.021l-0.911-0.127l-0.301,0.057l-0.653-0.086
		l-0.416,0.108l-0.295,0.448l-0.921,0.438l-0.063,0.206l0.174,0.387l-0.436,0.016l-0.624,0.4l-0.041,0.215l0.163,0.396L8.6,28.561
		l-0.184,0.164l0.045,0.771l0.284,0.295L8.686,30.24l0.323,0.477l0.553,0.151l0.15,0.366l0.276,0.285l0.502,0.156l0.187,0.383
		l1.349,0.267l0.431-0.103l0.33-0.304l0.421,0.071l0.364,0.039l0.143-0.049l0.158-0.326l0.188-0.096l0.402-0.158l0.178-0.443
		l-0.025-0.281l0.447-0.234l0.135-0.312l0.276-0.217l0.073-0.238l0.155-0.244L15.7,29.361l-0.178-0.447l0.06-0.311l0.062-0.326
		l-0.061-0.539l0.327-0.461l0.29,0.115l-0.319,0.477l0.105,0.213l0.083,0.186l-0.022,0.086l-0.081,0.121l0.079,0.573l0.283,0.324
		l-0.053,0.567l0.422,0.194l0.068,0.027l0.425,0.586l0.627,0.052l0.258,0.277l0.337,0.064l0.369-0.098L18.839,31l0.315-0.287
		l0.375-0.027l0.137-0.129l0.007-0.449l0.174-0.118l0.143-0.017l0.073,0.002l0.259-0.289l-0.098-0.359l0.136-0.15l0.231,0.021
		l0.272-0.18l-0.147-0.562l0.229-0.354l0.001-0.256l-0.144-0.236l-0.154-0.229l0.122-0.24l-0.136-0.312L20.336,26.6l-0.31-0.096
		l-0.057-0.045l0.269-0.301l-0.082-0.615l-0.288-0.453l-0.189-0.619l0.216-0.62l0.249-0.442l-0.047-0.126l-0.327,0.151l-0.215-0.009
		L19.569,23.443L19.569,23.443z M14.6,17.239l-0.015,0.01l0.136,0.018l0.202-0.119l-0.025,0.017l0.21,0.057l0.447,0.346l0.434,0.026
		l-0.068-0.517l-1.054-1.086l0.101-0.184l0.352-0.087l0.361-0.256l0.077-0.401l0.143-0.187l-0.163-0.313l0.022-0.135l0.272-0.165
		l0.104-0.392l-0.046-0.365l0.287-0.172l0.233-0.435l-0.026-0.302l0.116-0.17l0.039-0.571l-0.292-0.172l-0.016-0.517l-0.257-0.219
		l-0.199,0.099l-0.133-0.053l-0.048-0.131l-0.054-0.699l-0.288-0.312l-0.216,0.296l-0.151-0.117l0.033-0.578L14.98,9.267
		l-0.304,0.005l-0.131-0.164l0.156-0.392l-0.246-0.461l-0.143-0.037l-0.209,0.185l-0.069,0.005l-0.132-0.055l-0.196-0.008
		L13.56,8.717l0.143,0.337L13.69,9.267l-0.096,0.078L13.3,9.132L13.236,9l-0.069-0.362L12.875,8.45l-0.077,0.122l-0.035,0.215
		l0.151,0.709l0.433,0.83l-0.042,0.155l-0.339,0.13l-0.432-0.479l-0.488-0.506l-0.121,0.27l-0.271,0.029l-0.248-0.09l-0.061,0.273
		l0.132,0.261l0.036,0.143l-0.331,0.441l0.303,0.397l-0.049,0.131l-0.064,0.033L11.19,11.72l0.188,0.341l0.467,0.366l0.021,0.161
		l-0.241,0.14l-0.543-0.233l-0.346-0.256l-0.313-0.472l-0.059-0.368l0.3-0.518l-0.016-0.098l-0.279-0.295l0.144-0.325l-0.136-0.419
		L10.1,9.528l0.199-0.644l-0.287-0.687L9.67,8.177l-0.2-0.104l0.006-0.414L8.949,7.191L8.807,7.194L8.604,7.39L8.466,7.334
		L8.285,6.951l-0.39-0.277L7.48,6.763L6.777,6.612L6.603,6.626L6.414,6.768L6.237,7.104L5.899,7.131l0.066,0.206l-0.016,0.2
		l-0.426,0.3L5.052,7.673L4.542,7.7L4.403,7.741L4.26,8.004l0.385,0.548L3.951,8.726l0.004,0.142l0.054,0.136L3.842,9.171
		L3.634,9.079L3.052,9.305l0.036,0.311l0.413,0.352L3.5,10.12l-0.442,0.213l0.493,0.496l0.037,0.19L3.33,11.161l-0.049,0.202
		l0.342,0.359l0.134,0.226l-0.19,0.301l0.025,0.156l0.276,0.244l0.412,0.113l0.419,0.097l0.067,0.128l0.075,0.123l0.715,0.065
		l0.4,0.316l0.441,0.112l0.407,0.493l0.503,0.086l0.322-0.16l0.318,0.414l0.452,0.221l0.495-0.045l0.501-0.173l0.216,0.163
		l0.334-0.055l0.183,0.089l-0.032,0.151l-0.544,0.52l-0.441,0.126l-0.466-0.088l-0.501-0.037L8.12,15.361l0.028,0.144l-0.11,0.162
		l-0.136-0.035l-0.277-0.313l-0.451-0.084L6.91,15.438l0.261,0.542l-0.1,0.237l0.316,0.176l0.378,0.199l-0.001,0.146L7.653,16.81
		l-0.36-0.059L6.57,16.645l-0.297,0.292l0.173,0.326l-0.14,0.145l-0.479-0.015l-0.472,0.56l0.093,0.321l0.31,0.344l-0.025,0.061
		l-0.315,0.206l-0.006,0.273l0.782,0.647L6.4,19.798l0.377,0.435l0.675,0.134l0.107-0.096l0.244-0.111l0.673,0.263L8.8,20.312
		l0.306-0.173l0.308,0.146l0.466-0.36l0.403-0.412l0.308-0.477l0.134,0.051l0.045,0.202l-0.058,0.431l0.1,0.091l0.14-0.014
		l0.231,0.097l0.035,0.214l0.306,0.283l0.205-0.044l0.063-0.136l-0.06-0.28l0.264-0.066l0.322-0.24l-0.025-0.223l0.174-0.131
		l0.435,0.036l0.14-0.154l0.07-0.204l0.614-0.146l0.285-0.261l-0.035-0.143l0.239-0.139l0.253,0.094l0.44-0.044l0.317-0.181
		l0.558-0.144l-0.371-0.304l-0.7-0.283l-0.104-0.086L14.6,17.239L14.6,17.239z M19.021,16.715l-0.525-0.313l-1.062-1.001
		l-0.131-0.177l-0.306-0.659l-0.288-0.744l-0.068-0.126l-0.133-0.025l-0.329,0.958l-0.006,0.656l0.129,0.697l-0.38,0.533
		l0.012,0.161l0.43,0.371l-0.011,0.199L16.28,17.36l0.196,0.305l0.932,0.814l0.293,0.217l0.622,0.377l0.262,0.121l0.262,0.127
		l1.146,0.635l0.559,0.341l0.511,0.272l0.554,0.35l0.388,0.146l0.248-0.329l-0.027-0.683l-0.146-0.715l-0.178-0.192l-0.121-0.511
		l-0.182-0.312l0.028-0.381l-0.065-0.133l-0.102-0.108l-0.528-0.165l-0.245-0.299l-0.596-0.289l-0.386-0.198l-0.346-0.09
		L19.021,16.715L19.021,16.715z M28.182,32.094l0.848-1.104l-0.059-0.053l-0.922,0.17l-0.066,0.129L28.182,32.094L28.182,32.094z
		 M22.151,18.755l0.055,0.013l0.199-0.275l-0.095-0.377l-0.218-0.318l-0.144-0.157l-0.068,0.103l0.166,0.405L22.151,18.755
		L22.151,18.755z M16.036,17.861l0.031,0.134l0.444,0.355l0.141,0.028l0.066-0.026l-0.013-0.114l-0.456-0.345L16.036,17.861
		L16.036,17.861z M15.594,16.343l0.26-0.504l-0.408,0.172L15.594,16.343L15.594,16.343z M10.65,11.482l0.035,0.083l0.094,0.105
		l0.08-0.089l0.05-0.283l-0.068-0.082L10.65,11.482L10.65,11.482z M8.93,15.079l0.37-0.101l-0.308-0.1L8.93,15.079L8.93,15.079z
		 M25.619,11.787l-0.008-0.048l-0.112-0.052l-0.056,0.077l0.113,0.047L25.619,11.787L25.619,11.787z"/>
	<path fill="#232734" d="M7.899,17.029l0.03-0.062l0.457-0.143l-0.015-0.025l0.333,0.208l0.402-0.242l-0.025-0.217l0.74-0.201
		l0.293,0.056l-0.015-0.022l0.095,0.154l0.216-0.094l-0.02,0.014l0.404-0.017l-0.149-0.156l0.036-0.036l0.576-0.031l0.583-0.03
		l0.29,0.009l0.575,0.076l0.113-0.086l0.018-0.083l-0.474-0.417l0.005-0.071l-0.022,0.018l0.187-0.148l0.035-0.131l-0.022,0.018
		l0.11,0.073l0.347,0.434l0.199,0.05l0.029,0.119l0.053-0.001l-0.098-0.106l-0.039-0.195l-0.148-0.306l-0.022,0.016l0.16,0.031
		l0.456,0.552l0.171,0.131l0.067,0.011l0.079-0.109l-0.151-0.679l0.048-0.25l-0.025,0.016l0.062,0.035l0.236,0.891l0.547,0.953
		l-0.041,0.218l0.015-0.01l-0.405-0.14l-0.671-0.49l-0.534-0.123l-0.87,0.121l-0.354,0.076l-0.214-0.025l0.013,0.02l-0.093-0.118
		l-0.073,0.089l0.024-0.017l-0.336,0.021l-0.456,0.131l0.011,0.016l-0.059-0.125l-0.103,0.093l0.017-0.012l-0.193,0.133l0.023-0.017
		L9.99,16.92l-0.312,0.132l0.016,0.023L9.657,16.81l-0.292,0.061L8.828,17.39l-0.261,0.324l-0.069,0.008l0.018,0.025l0.073-0.445
		l0.115-0.028l-0.048-0.07l-0.068,0.097l-0.182-0.144l-0.173,0.056l-0.43,0.227l0.017,0.026l0.056-0.31l-0.025,0.018l0.12-0.036
		l-0.086-0.132L7.899,17.029L7.899,17.029z M9.869,16.535l-0.036,0.037l0.05,0.015L9.869,16.535L9.869,16.535z"/>
	<polygon fill="#232734" points="6.494,11.819 6.592,11.729 6.807,11.736 7.642,11.894 8.516,12.145 8.07,11.844 7.597,11.653 
		8.104,11.613 8.197,11.525 8.174,11.541 8.467,11.752 9.99,12.948 10.245,13.351 10.606,13.903 10.729,13.972 10.713,13.946 
		10.683,14.115 10.703,14.098 10.501,14.022 9.9,13.49 9.508,13.023 8.106,12.707 8.12,12.728 8.209,12.631 8.57,12.67 
		8.929,12.683 8.947,12.64 8.475,12.347 7.599,12.181 7.01,12.187 6.947,12.104 7.01,12.07 7.29,12.039 7.194,11.955 6.479,11.794 	
		"/>
	<polygon fill="#232734" points="12.568,15.349 12.223,15.27 11.678,14.509 11.686,14.438 11.672,14.448 11.862,14.319 
		11.844,14.331 11.912,14.349 12.515,15.231 12.546,15.366 	"/>
	<polygon fill="#232734" points="6.958,10.859 7.215,10.797 7.344,10.878 7.47,10.634 7.445,10.653 8.054,11.296 8.058,11.365 
		8.082,11.349 7.945,11.321 7.233,11.024 7.034,10.957 6.981,10.841 	"/>
	<polygon fill="#232734" points="10.767,13.679 10.835,13.702 11.238,14.301 11.208,14.521 11.162,14.574 11.107,14.572 
		10.911,14.357 10.705,14.169 10.703,14.098 10.683,14.115 10.814,14.021 10.713,13.946 10.729,13.972 10.788,13.665 	"/>
	<polygon fill="#232734" points="12.961,14.073 12.813,14.045 12.714,13.965 12.344,13.459 12.397,13.31 12.447,13.321 
		12.938,14.017 12.939,14.087 	"/>
	<polygon fill="#232734" points="7.497,12.739 7.465,12.802 7.268,12.839 7.059,12.867 6.921,12.906 6.709,12.887 6.679,12.791 
		7.044,12.69 7.512,12.762 	"/>
	<polygon fill="#232734" points="13.118,13.21 13.052,13.188 12.655,12.617 12.783,12.572 13.137,13.038 13.102,13.222 	"/>
	<polygon fill="#232734" points="6.855,9.916 6.741,9.838 6.512,9.493 6.554,9.347 6.859,9.696 6.832,9.933 	"/>
	<polygon fill="#232734" points="13.279,14.736 12.967,14.35 12.925,14.269 12.961,14.073 12.939,14.087 13.251,14.475 
		13.293,14.56 13.256,14.753 	"/>
	<polygon fill="#232734" points="14.097,11.558 14.115,11.286 14.364,10.965 14.358,11.243 	"/>
	<path fill="#232734" d="M6.806,10.435l-0.82-0.126L6.806,10.435z"/>
	<polygon fill="#232734" points="13.746,14.672 13.631,14.516 13.761,14.131 13.722,14.688 	"/>
	<polygon fill="#232734" points="13.781,13.237 13.76,13.648 13.679,13.702 13.655,13.635 13.729,13.286 	"/>
	<polygon fill="#232734" points="11.714,14.306 11.69,14.169 11.654,13.83 11.635,13.843 11.865,14.2 11.844,14.331 11.862,14.319 
		11.698,14.286 	"/>
	<polygon fill="#232734" points="11.227,13.618 11.343,13.691 11.507,13.819 11.489,13.792 11.388,14.037 11.25,13.603 	"/>
	<polygon fill="#232734" points="11.25,13.603 11.032,13.272 11.104,13.154 11.256,13.401 11.227,13.618 	"/>
	<polygon fill="#232734" points="10.278,17.011 10.241,17.207 10.016,17.376 9.978,17.256 10.295,17.034 	"/>
	<polygon fill="#232734" points="10.788,13.665 10.554,13.305 10.582,13.175 10.562,13.189 10.767,13.679 	"/>
	<polygon fill="#232734" points="9.501,17.165 9.224,17.554 9.189,17.488 9.517,17.187 	"/>
	<polygon fill="#232734" points="7.414,17.237 7.899,17.029 7.885,17.007 7.851,17.174 7.876,17.157 7.739,17.174 7.396,17.212 	"/>
	<polygon fill="#232734" points="7.512,12.762 7.651,12.648 8.12,12.728 8.106,12.707 7.965,12.818 7.497,12.739 	"/>
	<polygon fill="#232734" points="6.479,11.794 6.34,11.905 5.873,11.829 5.89,11.854 6.032,11.747 6.494,11.819 	"/>
	<polygon fill="#232734" points="13.807,15.137 13.692,15.001 13.746,14.672 13.722,14.688 13.831,14.826 13.781,15.153 	"/>
	<polygon fill="#232734" points="7.394,18.131 7.525,17.743 7.443,18.098 7.375,18.107 	"/>
	<path fill="#232734" d="M7.387,11.442l-0.323-0.055L7.387,11.442z"/>
	<polygon fill="#232734" points="6.981,10.841 6.589,10.708 6.908,10.741 6.958,10.859 	"/>
	<polygon fill="#232734" points="6.485,11.272 6.75,11.281 6.803,11.323 6.729,11.371 	"/>
	<polygon fill="#232734" points="13.947,12.903 14.023,12.859 14.035,12.923 13.962,13.034 	"/>
	<polygon fill="#232734" points="12.369,15.61 12.108,15.506 12.347,15.628 	"/>
	<polygon fill="#232734" points="11.439,14.859 11.705,15.053 11.729,15.037 11.606,15.018 11.464,14.842 	"/>
	<polygon fill="#232734" points="11.654,13.83 11.489,13.792 11.507,13.819 11.612,13.576 11.635,13.843 	"/>
	<polygon fill="#232734" points="10.115,16.402 10.314,16.301 10.392,16.454 10.411,16.44 10.101,16.38 	"/>
	<polygon fill="#232734" points="8.387,16.824 8.584,16.71 8.706,16.737 8.689,16.713 8.496,16.829 8.372,16.799 	"/>
	<polygon fill="#232734" points="7.375,18.107 7.277,18.344 7.394,18.131 	"/>
	<polygon fill="#232734" points="7.181,10.454 7.445,10.653 7.47,10.634 7.345,10.615 7.202,10.439 	"/>
	<polygon fill="#232734" points="6.644,12.188 6.634,12.228 6.496,12.223 6.451,12.17 	"/>
	<polygon fill="#232734" points="5.873,11.829 5.623,11.862 5.89,11.854 	"/>
	<polygon fill="#232734" points="14.923,17.148 14.809,17.069 14.862,17.042 14.897,17.165 	"/>
	<polygon fill="#232734" points="13.256,14.753 13.356,14.807 13.347,14.853 13.279,14.736 	"/>
	<polygon fill="#232734" points="13.336,13.567 13.434,13.635 13.413,13.679 13.354,13.554 	"/>
	<polygon fill="#232734" points="13.253,14.003 13.354,14.064 13.338,14.106 13.275,13.987 	"/>
	<polygon fill="#232734" points="13.221,13.395 13.336,13.567 13.354,13.554 13.235,13.384 	"/>
	<polygon fill="#232734" points="13.275,13.987 13.158,13.815 13.134,13.832 13.253,14.003 	"/>
	<polygon fill="#232734" points="12.999,15.434 12.901,15.362 12.921,15.322 12.977,15.45 	"/>
	<polygon fill="#232734" points="13.102,13.222 13.221,13.395 13.235,13.384 13.118,13.21 	"/>
	<polygon fill="#232734" points="13.158,13.815 13.039,13.644 13.02,13.657 13.134,13.832 	"/>
	<polygon fill="#232734" points="13.039,13.644 12.922,13.471 12.903,13.484 13.02,13.657 	"/>
	<polygon fill="#232734" points="12.922,13.471 12.806,13.3 12.783,13.316 12.903,13.484 	"/>
	<polygon fill="#232734" points="12.667,13.144 12.783,13.316 12.806,13.3 12.692,13.125 	"/>
	<polygon fill="#232734" points="12.692,13.125 12.587,13.054 12.632,13.02 12.667,13.144 	"/>
	<polygon fill="#232734" points="11.82,15.23 11.936,15.306 11.885,15.34 11.845,15.213 	"/>
	<polygon fill="#232734" points="11.845,15.213 11.729,15.037 11.705,15.053 11.82,15.23 	"/>
	<polygon fill="#232734" points="11.393,16.793 11.422,16.632 11.397,16.648 11.563,16.677 11.551,16.658 11.377,16.771 	"/>
	<polygon fill="#232734" points="11.377,16.771 11.277,16.869 11.275,16.821 11.393,16.793 	"/>
	<polygon fill="#232734" points="11.686,14.438 11.585,14.379 11.714,14.306 11.698,14.286 11.672,14.448 	"/>
	<polygon fill="#232734" points="11.464,14.842 11.375,14.742 11.422,14.749 11.439,14.859 	"/>
	<polygon fill="#232734" points="10.63,16.785 10.456,16.899 10.469,16.919 10.496,16.757 10.479,16.769 10.641,16.801 	"/>
	<polygon fill="#232734" points="10.456,16.899 10.278,17.011 10.295,17.034 10.326,16.873 10.303,16.89 10.469,16.919 	"/>
	<polygon fill="#232734" points="10.582,13.175 10.476,13.115 10.492,13.062 10.562,13.189 	"/>
	<polygon fill="#232734" points="9.677,17.049 9.501,17.165 9.517,17.187 9.692,17.072 	"/>
	<polygon fill="#232734" points="8.706,16.737 8.766,16.643 8.812,16.656 8.689,16.713 	"/>
	<polygon fill="#232734" points="8.498,17.722 8.426,17.833 8.395,17.783 8.516,17.747 	"/>
	<polygon fill="#232734" points="7.804,17.44 7.701,17.526 7.709,17.48 7.82,17.467 	"/>
	<polygon fill="#232734" points="7.396,17.212 7.312,17.316 7.28,17.268 7.414,17.237 	"/>
	<polygon fill="#232734" points="8.058,11.365 8.174,11.541 8.197,11.525 8.082,11.349 	"/>
	<polygon fill="#232734" points="7.066,10.28 7.181,10.454 7.202,10.439 7.088,10.265 	"/>
	<polygon fill="#232734" points="7.088,10.265 6.971,10.093 6.948,10.108 7.066,10.28 	"/>
	<polygon fill="#232734" points="6.971,10.093 6.855,9.916 6.832,9.933 6.948,10.108 	"/>
	<polygon fill="#232734" points="6.155,10.793 6.146,10.748 6.192,10.764 	"/>
	<polygon fill="#232734" points="18.173,25.275 18.308,24.56 18.283,24.422 17.877,24.588 17.689,24.567 17.704,24.588 
		17.775,24.47 18.179,24.18 18.027,24.065 17.805,24.126 14.425,23.483 14.228,23.161 14.204,23.178 14.598,23.383 14.869,23.45 
		16.23,23.71 16.398,23.572 16.374,23.591 17.153,23.739 17.381,23.914 17.658,23.96 18.223,23.89 18.304,23.786 18.279,23.801 
		18.474,23.668 18.461,23.678 18.693,23.813 19.02,23.665 19.225,23.68 19.209,23.659 19.019,23.857 18.61,24.343 18.48,24.521 
		18.275,25.201 18.155,25.252 	"/>
	<polygon fill="#232734" points="11.539,29.406 11.717,29.035 11.467,28.93 11.483,28.953 11.566,28.857 12.002,28.857 
		12.225,28.712 11.839,28.551 11.854,28.574 11.938,28.475 12.498,28.385 12.595,28.305 12.549,28.25 11.921,28.116 11.936,28.141 
		12.03,28.045 12.554,28.082 12.974,27.979 13.271,27.801 13.344,27.805 13.33,27.785 13.25,28.121 12.905,28.283 12.672,28.555 
		12.25,28.953 11.663,29.385 11.528,29.393 	"/>
	<polygon fill="#232734" points="18.304,23.786 17.621,23.542 16.998,23.361 16.662,23.099 17.129,23.252 17.77,23.376 
		18.393,23.388 18.461,23.678 18.474,23.668 18.279,23.801 	"/>
	<polygon fill="#232734" points="15.982,25.76 16.018,25.576 16.8,25.03 17.014,25.057 16.998,25.035 16.973,25.1 16.039,25.736 
		15.969,25.738 	"/>
	<polygon fill="#232734" points="10.984,29.891 10.957,30.027 10.427,30.591 10.311,30.617 10.319,30.482 10.808,29.971 
		10.994,29.902 	"/>
	<polygon fill="#232734" points="15.095,26.49 15.146,26.287 15.673,25.9 15.807,25.873 15.794,25.854 15.746,26.057 15.214,26.439 
		15.08,26.469 	"/>
	<polygon fill="#232734" points="11.528,29.393 11.461,29.594 11.057,29.898 10.984,29.891 10.994,29.902 11.109,29.648 
		11.402,29.432 11.539,29.406 	"/>
	<polygon fill="#232734" points="11.003,28.99 10.979,29.057 10.227,29.143 10.242,29.166 10.264,29.1 11.016,29.012 	"/>
	<polygon fill="#232734" points="12.953,27.57 13.014,27.686 12.79,27.814 12.503,27.691 	"/>
	<polygon fill="#232734" points="9.984,29.712 10.46,29.504 10.516,29.542 10.534,29.592 10.336,29.66 10.255,29.766 10.28,29.75 
		9.971,29.693 	"/>
	<polygon fill="#232734" points="17.291,29.545 17.229,29.451 17.502,29.086 17.531,29.211 17.508,29.271 	"/>
	<polygon fill="#232734" points="18.155,25.252 18.014,25.881 17.966,25.934 17.938,25.877 18.053,25.324 18.173,25.275 	"/>
	<polygon fill="#232734" points="17.205,28.672 17.149,28.875 16.928,29.035 16.891,28.965 17.223,28.691 	"/>
	<polygon fill="#232734" points="14.265,26.912 13.785,26.82 13.826,26.695 14.185,26.764 14.243,26.928 	"/>
	<polygon fill="#232734" points="13.863,27.456 14.23,27.072 14.216,27.051 13.848,27.432 	"/>
	<polygon fill="#232734" points="13.965,22.958 13.437,22.792 13.897,22.855 13.941,22.976 	"/>
	<polygon fill="#232734" points="11.248,28.609 11.394,28.502 11.854,28.574 11.839,28.551 11.694,28.659 11.232,28.584 	"/>
	<polygon fill="#232734" points="9.758,30.119 9.881,29.953 9.961,29.842 9.938,29.855 10.246,29.914 10.232,29.893 10,30.102 
		9.743,30.1 	"/>
	<polygon fill="#232734" points="18.069,28.855 18.13,28.895 18.076,29.259 18.094,28.84 	"/>
	<polygon fill="#232734" points="17.082,27.748 17.021,28.057 17.049,28.037 16.738,27.979 16.755,28.002 17.097,27.77 	"/>
	<polygon fill="#232734" points="16.081,22.782 16.465,22.922 16.144,22.884 16.103,22.766 	"/>
	<polygon fill="#232734" points="15.97,23.361 16.286,23.44 16.374,23.591 16.398,23.572 16.084,23.496 15.993,23.344 	"/>
	<polygon fill="#232734" points="11.473,28.2 11.605,28.084 11.936,28.141 11.921,28.116 11.787,28.23 11.459,28.178 	"/>
	<polygon fill="#232734" points="11.016,29.012 11.156,28.902 11.483,28.953 11.467,28.93 11.324,29.035 11.003,28.99 	"/>
	<polygon fill="#232734" points="10.784,28.668 10.922,28.559 11.248,28.609 11.232,28.584 11.096,28.695 10.77,28.646 	"/>
	<polygon fill="#232734" points="10.77,28.646 10.637,28.762 10.309,28.707 10.323,28.73 10.46,28.617 10.784,28.668 	"/>
	<polygon fill="#232734" points="10.227,29.143 10.084,29.248 9.766,29.205 9.78,29.229 9.919,29.118 10.242,29.166 	"/>
	<polygon fill="#232734" points="18.197,29.775 18.311,29.975 18.268,30.018 18.19,29.958 18.218,29.764 	"/>
	<polygon fill="#232734" points="18.218,29.764 18.115,29.566 18.156,29.518 18.223,29.577 18.197,29.775 	"/>
	<polygon fill="#232734" points="17.98,28.539 18.096,28.666 18.069,28.855 18.094,28.84 17.973,28.719 18.005,28.523 	"/>
	<polygon fill="#232734" points="18.006,28.523 17.975,28.279 17.98,28.539 	"/>
	<polygon fill="#232734" points="18.018,26.521 17.979,26.507 17.986,26.387 18.038,26.348 18.055,26.473 	"/>
	<polygon fill="#232734" points="17.405,28.41 17.382,28.535 17.205,28.672 17.223,28.691 17.265,28.504 17.422,28.434 	"/>
	<polygon fill="#232734" points="17.021,28.057 17.147,28.182 17.131,28.244 16.975,28.326 16.99,28.35 17.049,28.037 	"/>
	<polygon fill="#232734" points="17.165,27.316 17.016,27.424 16.922,27.348 16.979,27.316 17.182,27.338 	"/>
	<polygon fill="#232734" points="16.103,22.766 15.854,22.655 16.081,22.782 	"/>
	<polygon fill="#232734" points="15.993,23.344 15.739,23.232 15.97,23.361 	"/>
	<polygon fill="#232734" points="15.303,22.934 15.56,23.047 15.324,22.917 	"/>
	<polygon fill="#232734" points="15.324,22.917 15.14,22.872 15.064,22.718 15.04,22.735 15.227,22.78 15.303,22.934 	"/>
	<polygon fill="#232734" points="14.551,22.696 14.531,22.732 14.467,22.737 14.374,22.663 14.436,22.633 	"/>
	<polygon fill="#232734" points="13.941,22.976 14.13,23.023 14.204,23.178 14.228,23.161 14.046,23.109 13.965,22.958 	"/>
	<polygon fill="#232734" points="13.693,23.49 13.627,23.419 13.764,23.405 13.812,23.457 13.764,23.489 	"/>
	<polygon fill="#232734" points="12.795,27.225 12.748,27.174 12.842,27.121 12.952,27.182 12.928,27.217 12.863,27.232 	"/>
	<polygon fill="#232734" points="11.459,28.178 11.194,28.203 11.473,28.2 	"/>
	<polygon fill="#232734" points="10.255,29.766 10.45,29.811 10.495,29.857 10.429,29.926 10.232,29.893 10.246,29.914 10.28,29.75 
			"/>
	<polygon fill="#232734" points="10.309,28.707 10.105,28.816 10.059,28.771 10.121,28.701 10.323,28.73 	"/>
	<polygon fill="#232734" points="9.462,29.314 9.59,29.198 9.78,29.229 9.766,29.205 9.639,29.324 9.447,29.293 	"/>
	<polygon fill="#232734" points="19.398,23.562 19.569,23.443 19.556,23.424 19.385,23.542 	"/>
	<polygon fill="#232734" points="19.225,23.68 19.398,23.562 19.385,23.542 19.209,23.659 	"/>
	<polygon fill="#232734" points="17.422,28.434 17.489,28.332 17.521,28.375 17.405,28.41 	"/>
	<polygon fill="#232734" points="17.182,27.338 17.249,27.229 17.291,27.271 17.165,27.316 	"/>
	<polygon fill="#232734" points="17.097,27.77 17.169,27.668 17.214,27.691 17.082,27.748 	"/>
	<polygon fill="#232734" points="17.532,24.705 17.704,24.588 17.689,24.567 17.519,24.686 	"/>
	<polygon fill="#232734" points="16.975,28.326 16.908,28.425 16.867,28.408 16.99,28.35 	"/>
	<polygon fill="#232734" points="17.359,24.822 17.532,24.705 17.519,24.686 17.347,24.804 	"/>
	<polygon fill="#232734" points="17.188,24.939 17.359,24.822 17.347,24.804 17.173,24.918 	"/>
	<polygon fill="#232734" points="16.738,27.979 16.674,28.08 16.635,28.041 16.755,28.002 	"/>
	<polygon fill="#232734" points="17.173,24.918 16.998,25.035 17.014,25.057 17.188,24.939 	"/>
	<polygon fill="#232734" points="15.969,25.738 15.794,25.854 15.807,25.873 15.982,25.76 	"/>
	<polygon fill="#232734" points="15.08,26.469 14.908,26.586 14.922,26.605 15.095,26.49 	"/>
	<polygon fill="#232734" points="14.908,26.586 14.736,26.703 14.752,26.725 14.922,26.605 	"/>
	<polygon fill="#232734" points="14.579,26.842 14.752,26.725 14.736,26.703 14.564,26.82 	"/>
	<polygon fill="#232734" points="14.403,26.957 14.579,26.842 14.564,26.82 14.393,26.939 	"/>
	<polygon fill="#232734" points="14.393,26.939 14.216,27.051 14.23,27.072 14.265,26.912 14.243,26.928 14.403,26.957 	"/>
	<polygon fill="#232734" points="15.064,22.718 14.954,22.649 14.997,22.619 15.04,22.735 	"/>
	<polygon fill="#232734" points="13.848,27.432 13.678,27.553 13.692,27.574 13.863,27.456 	"/>
	<polygon fill="#232734" points="13.518,27.688 13.692,27.574 13.678,27.553 13.505,27.67 	"/>
	<polygon fill="#232734" points="13.344,27.805 13.518,27.688 13.505,27.67 13.33,27.785 	"/>
	<polygon fill="#232734" points="9.961,29.842 9.863,29.734 9.984,29.712 9.971,29.693 9.938,29.855 	"/>
	<polygon fill="#232734" points="9.743,30.1 9.641,30.189 9.64,30.145 9.758,30.119 	"/>
	<polygon fill="#232734" points="9.447,29.293 9.369,29.396 9.333,29.348 9.462,29.314 	"/>
	<polygon fill="#232734" points="23.257,9.441 23.141,10.05 23.281,10.213 23.266,10.193 23.248,10.408 23.295,10.597 
		23.192,10.715 23.151,10.866 23.388,11.035 23.053,11.285 22.769,11.581 22.61,11.458 22.61,11.213 22.465,10.914 22.453,10.637 
		22.431,10.654 22.676,10.773 22.77,10.597 22.824,10.258 22.804,10.272 22.979,10.178 23.048,9.818 22.861,9.426 22.911,9.296 
		23.081,9.428 23.277,9.465 	"/>
	<polygon fill="#232734" points="22.598,13.812 22.502,13.733 22.469,12.904 22.393,12.426 22.596,12.198 22.564,12.067 
		22.451,12.112 22.41,12.449 22.318,12.355 22.209,11.961 22.403,11.678 22.384,11.69 22.607,11.836 22.744,11.794 22.582,13.118 
		22.648,13.356 22.58,13.823 	"/>
	<polygon fill="#232734" points="22.241,14.809 22.125,14.636 22.171,14.48 22.15,14.495 22.362,14.511 22.485,14.362 
		22.598,13.812 22.58,13.823 22.883,13.883 22.87,13.866 22.706,14.072 22.685,14.395 22.942,14.343 22.928,14.318 22.429,14.98 
		22.357,14.984 	"/>
	<polygon fill="#232734" points="24.18,9.315 24.152,9.477 24.176,9.462 24.05,9.55 24.144,9.631 24.127,9.609 23.979,9.756 
		23.594,9.946 23.337,10.188 23.266,10.193 23.281,10.213 23.352,9.75 23.712,9.524 23.749,9.651 23.797,9.618 23.687,9.542 
		24.196,9.339 	"/>
	<polygon fill="#232734" points="20.019,13.171 19.523,13.069 19.329,12.98 18.934,12.815 18.671,12.712 18.687,12.675 
		19.44,12.849 19.84,13.005 19.969,13.063 19.999,13.187 	"/>
	<polygon fill="#232734" points="21.556,16.913 21.421,16.887 20.719,16.322 20.657,16.14 20.637,16.156 20.771,16.185 
		21.484,16.737 21.543,16.922 	"/>
	<polygon fill="#232734" points="22.403,11.678 22.336,11.656 21.944,11.061 21.935,10.991 21.91,11.007 22.137,11.05 
		22.411,11.448 22.384,11.69 	"/>
	<polygon fill="#232734" points="20.407,13.416 21.078,13.771 21.073,13.841 21.094,13.825 20.432,13.469 20.428,13.4 	"/>
	<polygon fill="#232734" points="23.483,9.034 23.408,9.348 23.257,9.441 23.277,9.465 23.205,9.113 23.256,8.895 23.502,9.059 	"/>
	<polygon fill="#232734" points="26.924,13.666 26.854,13.701 26.354,13.623 26.284,13.521 	"/>
	<polygon fill="#232734" points="24.823,13.953 25.305,13.743 25.29,13.719 25.273,13.782 24.806,13.929 	"/>
	<polygon fill="#232734" points="24.348,15.66 24.833,15.456 24.816,15.432 24.474,15.651 24.33,15.634 	"/>
	<polygon fill="#232734" points="21.821,13.961 21.487,13.667 21.562,13.65 21.801,13.975 	"/>
	<polygon fill="#232734" points="21.337,14.042 21.714,14.411 21.737,14.395 21.354,14.091 21.357,14.026 	"/>
	<polygon fill="#232734" points="19.415,15.476 19.879,15.571 19.967,15.728 19.986,15.712 19.558,15.617 19.437,15.459 	"/>
	<polygon fill="#232734" points="23.087,16.77 23.574,16.567 23.557,16.542 23.071,16.748 	"/>
	<polygon fill="#232734" points="23.043,15.411 23.411,15.031 23.396,15.009 23.095,15.402 23.028,15.392 	"/>
	<polygon fill="#232734" points="21.184,10.117 21.561,10.485 21.585,10.469 21.209,10.099 	"/>
	<polygon fill="#232734" points="19.03,15.229 18.541,15.097 18.602,15.037 18.953,15.124 19.008,15.247 	"/>
	<polygon fill="#232734" points="19.967,15.728 20.296,15.797 20.371,15.956 20.393,15.939 20.072,15.866 19.986,15.712 	"/>
	<polygon fill="#232734" points="19.999,13.187 20.328,13.255 20.407,13.416 20.428,13.4 20.113,13.322 20.019,13.171 	"/>
	<polygon fill="#232734" points="19.008,15.247 19.337,15.318 19.415,15.476 19.437,15.459 19.117,15.382 19.03,15.229 	"/>
	<polygon fill="#232734" points="25.754,13.661 25.607,13.767 25.29,13.719 25.305,13.743 25.516,13.636 25.77,13.686 	"/>
	<polygon fill="#232734" points="23.666,15.964 23.412,16.169 23.483,15.971 23.685,15.989 	"/>
	<polygon fill="#232734" points="25.77,13.686 25.846,13.58 26.033,13.648 25.754,13.661 	"/>
	<polygon fill="#232734" points="23.86,15.868 24.049,15.751 24.172,15.78 24.153,15.755 23.963,15.867 23.843,15.844 	"/>
	<polygon fill="#232734" points="24.69,9.135 24.842,9.024 24.939,9.101 24.883,9.136 24.674,9.11 	"/>
	<polygon fill="#232734" points="23.939,14.512 23.899,14.697 23.747,14.78 23.762,14.802 23.956,14.536 	"/>
	<polygon fill="#232734" points="24.372,9.221 24.506,9.116 24.69,9.135 24.674,9.11 24.479,9.217 24.354,9.196 	"/>
	<polygon fill="#232734" points="24.192,8.962 24.149,8.94 24.144,8.882 24.225,8.798 	"/>
	<polygon fill="#232734" points="23.247,14.236 22.928,14.318 22.942,14.343 23.142,14.228 23.265,14.26 	"/>
	<polygon fill="#232734" points="22.988,15.702 22.823,15.672 22.886,15.489 23.043,15.411 23.028,15.392 	"/>
	<polygon fill="#232734" points="23.704,8.795 23.743,8.603 23.901,8.535 23.886,8.513 23.851,8.653 23.687,8.771 	"/>
	<polygon fill="#232734" points="23.687,8.771 23.653,8.889 23.483,9.034 23.502,9.059 23.55,8.87 23.704,8.795 	"/>
	<polygon fill="#232734" points="21.871,16.067 21.746,16.049 21.604,15.874 21.583,15.888 21.847,16.083 	"/>
	<polygon fill="#232734" points="21.791,16.5 21.604,16.458 21.527,16.303 21.504,16.32 21.625,16.343 21.768,16.516 	"/>
	<polygon fill="#232734" points="21.527,16.303 21.403,16.28 21.264,16.105 21.24,16.121 21.43,16.162 21.504,16.32 	"/>
	<polygon fill="#232734" points="21.256,14.476 21.376,14.507 21.516,14.677 21.539,14.659 21.359,14.607 21.281,14.457 	"/>
	<polygon fill="#232734" points="21.378,15.521 21.254,15.504 21.112,15.327 21.088,15.343 21.354,15.538 	"/>
	<polygon fill="#232734" points="21.073,13.841 21.265,13.883 21.337,14.042 21.357,14.026 21.175,13.979 21.094,13.825 	"/>
	<polygon fill="#232734" points="21.281,14.457 21.038,14.351 21.256,14.476 	"/>
	<polygon fill="#232734" points="20.998,15.15 20.76,15.048 20.973,15.167 	"/>
	<polygon fill="#232734" points="20.371,15.956 20.498,15.977 20.637,16.156 20.657,16.14 20.534,16.117 20.393,15.939 	"/>
	<polygon fill="#232734" points="20.305,13.95 20.24,13.886 20.3,13.871 20.408,13.927 20.366,13.955 	"/>
	<polygon fill="#232734" points="20.762,9.635 20.751,9.671 20.631,9.661 20.649,9.587 	"/>
	<polygon fill="#232734" points="26.044,14.974 26.057,15.016 26.012,15 	"/>
	<polygon fill="#232734" points="25.215,15.323 25.201,15.269 25.255,15.285 	"/>
	<polygon fill="#232734" points="24.833,15.456 24.917,15.357 24.947,15.405 24.816,15.432 	"/>
	<polygon fill="#232734" points="24.65,14.071 24.823,13.953 24.806,13.929 24.633,14.047 	"/>
	<polygon fill="#232734" points="24.478,14.187 24.65,14.071 24.633,14.047 24.461,14.165 	"/>
	<polygon fill="#232734" points="24.33,15.634 24.153,15.755 24.172,15.78 24.348,15.66 	"/>
	<polygon fill="#232734" points="24.065,16.355 24.14,16.259 24.168,16.305 24.048,16.331 	"/>
	<polygon fill="#232734" points="24.304,14.302 24.478,14.187 24.461,14.165 24.288,14.28 	"/>
	<polygon fill="#232734" points="24.048,16.331 23.963,16.434 23.927,16.384 24.065,16.355 	"/>
	<polygon fill="#232734" points="25.158,9.324 25.123,9.277 25.177,9.256 	"/>
	<polygon fill="#232734" points="24.288,14.28 24.116,14.398 24.131,14.419 24.304,14.302 	"/>
	<polygon fill="#232734" points="24.116,14.398 23.939,14.512 23.956,14.536 24.131,14.419 	"/>
	<polygon fill="#232734" points="23.685,15.989 23.86,15.868 23.843,15.844 23.666,15.964 	"/>
	<polygon fill="#232734" points="23.574,16.567 23.649,16.468 23.684,16.509 23.557,16.542 	"/>
	<polygon fill="#232734" points="24.902,9.387 24.848,9.41 24.865,9.34 	"/>
	<polygon fill="#232734" points="23.589,14.916 23.762,14.802 23.747,14.78 23.572,14.893 	"/>
	<polygon fill="#232734" points="24.53,9.498 24.519,9.446 24.57,9.463 	"/>
	<polygon fill="#232734" points="23.572,14.893 23.396,15.009 23.411,15.031 23.589,14.916 	"/>
	<polygon fill="#232734" points="23.439,14.142 23.509,14.039 23.548,14.083 23.423,14.117 	"/>
	<polygon fill="#232734" points="22.912,16.887 23.087,16.77 23.071,16.748 22.897,16.866 	"/>
	<polygon fill="#232734" points="24.354,9.196 24.18,9.315 24.196,9.339 24.372,9.221 	"/>
	<polygon fill="#232734" points="24.152,9.477 24.233,9.582 24.127,9.609 24.144,9.631 24.176,9.462 	"/>
	<polygon fill="#232734" points="23.265,14.26 23.439,14.142 23.423,14.117 23.247,14.236 	"/>
	<polygon fill="#232734" points="23.837,10.811 23.844,10.855 23.805,10.84 	"/>
	<polygon fill="#232734" points="23.901,8.535 23.974,8.426 24.009,8.471 23.886,8.513 	"/>
	<polygon fill="#232734" points="22.883,13.883 22.94,13.777 22.991,13.838 22.87,13.866 	"/>
	<polygon fill="#232734" points="22.104,16.416 21.985,16.244 21.963,16.259 22.082,16.43 	"/>
	<polygon fill="#232734" points="21.884,16.691 21.999,16.863 22.018,16.851 21.904,16.677 	"/>
	<polygon fill="#232734" points="21.847,16.083 21.963,16.259 21.985,16.244 21.871,16.067 	"/>
	<polygon fill="#232734" points="21.904,16.677 21.791,16.5 21.768,16.516 21.884,16.691 	"/>
	<polygon fill="#232734" points="22.171,14.48 22.055,14.308 22.034,14.322 22.15,14.495 	"/>
	<polygon fill="#232734" points="22.824,10.258 22.707,10.087 22.682,10.104 22.804,10.272 	"/>
	<polygon fill="#232734" points="22.055,14.308 21.938,14.135 21.916,14.15 22.034,14.322 	"/>
	<polygon fill="#232734" points="22.567,9.93 22.682,10.104 22.707,10.087 22.592,9.914 	"/>
	<polygon fill="#232734" points="21.938,14.135 21.821,13.961 21.801,13.975 21.916,14.15 	"/>
	<polygon fill="#232734" points="21.714,14.411 21.833,14.584 21.852,14.571 21.737,14.395 	"/>
	<polygon fill="#232734" points="21.469,15.715 21.583,15.888 21.604,15.874 21.492,15.698 	"/>
	<polygon fill="#232734" points="22.592,9.914 22.476,9.741 22.449,9.759 22.567,9.93 	"/>
	<polygon fill="#232734" points="22.313,10.48 22.431,10.654 22.453,10.637 22.338,10.464 	"/>
	<polygon fill="#232734" points="21.492,15.698 21.378,15.521 21.354,15.538 21.469,15.715 	"/>
	<polygon fill="#232734" points="22.476,9.741 22.358,9.569 22.333,9.587 22.449,9.759 	"/>
	<polygon fill="#232734" points="22.338,10.464 22.221,10.292 22.196,10.309 22.313,10.48 	"/>
	<polygon fill="#232734" points="21.264,16.105 21.148,15.933 21.124,15.949 21.24,16.121 	"/>
	<polygon fill="#232734" points="22.358,9.569 22.238,9.4 22.213,9.417 22.333,9.587 	"/>
	<polygon fill="#232734" points="22.221,10.292 22.113,10.214 22.162,10.181 22.196,10.309 	"/>
	<polygon fill="#232734" points="21.148,15.933 21.052,15.833 21.098,15.834 21.124,15.949 	"/>
	<polygon fill="#232734" points="22.096,9.245 22.213,9.417 22.238,9.4 22.122,9.227 	"/>
	<polygon fill="#232734" points="21.797,10.833 21.91,11.007 21.935,10.991 21.82,10.816 	"/>
	<polygon fill="#232734" points="21.112,15.327 20.998,15.15 20.973,15.167 21.088,15.343 	"/>
	<polygon fill="#232734" points="21.981,9.07 22.096,9.245 22.122,9.227 22.007,9.052 	"/>
	<polygon fill="#232734" points="21.82,10.816 21.701,10.645 21.678,10.662 21.797,10.833 	"/>
	<polygon fill="#232734" points="20.861,15.665 20.8,15.673 20.812,15.627 	"/>
	<polygon fill="#232734" points="22.007,9.052 21.89,8.88 21.865,8.897 21.981,9.07 	"/>
	<polygon fill="#232734" points="21.561,10.485 21.678,10.662 21.701,10.645 21.585,10.469 	"/>
	<polygon fill="#232734" points="21.89,8.88 21.773,8.708 21.749,8.725 21.865,8.897 	"/>
	<polygon fill="#232734" points="20.483,15.378 20.599,15.449 20.55,15.483 20.508,15.361 	"/>
	<polygon fill="#232734" points="21.773,8.708 21.672,8.64 21.714,8.607 21.749,8.725 	"/>
	<polygon fill="#232734" points="20.665,14.099 20.681,14.144 20.627,14.126 	"/>
	<polygon fill="#232734" points="20.508,15.361 20.403,15.286 20.45,15.257 20.483,15.378 	"/>
	<polygon fill="#232734" points="21.209,10.099 21.096,10.021 21.145,9.988 21.184,10.117 	"/>
	<polygon fill="#232734" points="19.667,13.64 19.72,13.635 19.706,13.675 	"/>
	<polygon fill="#232734" points="34.693,9.987 34.788,10.083 34.843,10.698 34.693,11.598 34.855,12.221 34.854,12.955 
		34.823,13.392 34.826,13.971 34.743,14.475 34.635,14.822 34.514,14.874 34.531,14.897 34.542,14.692 34.492,14.221 34.289,13.789 
		34.268,13.802 34.484,13.821 34.6,13.667 34.634,13.38 34.473,12.982 34.484,12.773 34.464,12.788 34.593,12.735 34.664,12.54 
		34.459,11.557 34.438,11.42 34.422,11.431 34.587,11.335 34.572,10.502 34.37,10.208 34.35,10.222 34.48,10.224 34.684,10.099 
		34.721,9.971 	"/>
	<polygon fill="#232734" points="34.111,15.421 34.463,15.461 34.512,15.664 34.409,15.992 34.293,16.035 34.311,16.055 
		34.244,15.652 34.137,15.404 	"/>
	<polygon fill="#232734" points="31.1,13.947 31.366,13.998 31.734,14.265 31.654,14.329 31.514,14.292 31.115,14 31.121,13.929 	
		"/>
	<polygon fill="#232734" points="34.721,9.971 34.625,9.882 34.712,9.248 34.79,9.142 34.812,9.209 34.693,9.987 	"/>
	<polygon fill="#232734" points="34.326,11.243 33.943,10.875 33.922,10.891 34.305,11.258 	"/>
	<polygon fill="#232734" points="31.42,14.608 31.952,14.779 31.452,14.659 31.443,14.591 	"/>
	<polygon fill="#232734" points="31.443,14.591 30.977,14.497 30.891,14.338 30.871,14.353 31.333,14.452 31.42,14.608 	"/>
	<polygon fill="#232734" points="31.121,13.929 30.621,13.754 31.035,13.827 31.1,13.947 	"/>
	<polygon fill="#232734" points="31.926,13.631 31.604,13.56 31.52,13.406 31.497,13.424 31.779,13.492 31.902,13.648 	"/>
	<polygon fill="#232734" points="31.52,13.406 31.124,13.267 31.387,13.262 31.497,13.424 	"/>
	<polygon fill="#232734" points="30.891,14.338 30.57,14.265 30.486,14.111 30.462,14.127 30.79,14.193 30.871,14.353 	"/>
	<polygon fill="#232734" points="34.514,14.874 34.491,15.013 34.416,15.123 34.385,15.076 34.413,14.946 34.531,14.897 	"/>
	<polygon fill="#232734" points="33.773,13.258 34.035,13.455 34.061,13.438 33.936,13.419 33.796,13.243 	"/>
	<polygon fill="#232734" points="34.135,12.254 33.87,12.061 33.846,12.077 34.109,12.27 	"/>
	<polygon fill="#232734" points="33.393,12.887 33.518,12.906 33.659,13.081 33.682,13.066 33.559,13.048 33.414,12.873 	"/>
	<polygon fill="#232734" points="33.831,10.698 33.645,10.655 33.57,10.499 33.548,10.517 33.688,10.553 33.807,10.714 	"/>
	<polygon fill="#232734" points="33.354,11.531 33.496,11.566 33.616,11.725 33.641,11.708 33.52,11.685 33.379,11.512 	"/>
	<polygon fill="#232734" points="33.113,14.458 32.934,14.41 32.855,14.259 32.832,14.278 33.012,14.327 33.089,14.476 	"/>
	<polygon fill="#232734" points="33.301,12.696 33.098,12.642 33.053,12.591 33.168,12.554 33.277,12.711 	"/>
	<polygon fill="#232734" points="33.57,10.499 33.33,10.396 33.548,10.517 	"/>
	<polygon fill="#232734" points="33.379,11.512 33.189,11.45 33.146,11.406 33.259,11.378 33.354,11.531 	"/>
	<polygon fill="#232734" points="32.855,14.259 32.609,14.154 32.832,14.278 	"/>
	<polygon fill="#232734" points="32.17,14.603 32.417,14.706 32.193,14.585 	"/>
	<polygon fill="#232734" points="32.49,12.116 32.734,12.215 32.516,12.1 	"/>
	<polygon fill="#232734" points="32.164,13.851 32.415,13.959 32.188,13.833 	"/>
	<polygon fill="#232734" points="32.188,13.833 31.994,13.789 31.926,13.631 31.902,13.648 32.085,13.698 32.164,13.851 	"/>
	<polygon fill="#232734" points="33.898,8.762 33.783,8.592 33.76,8.609 33.876,8.778 	"/>
	<polygon fill="#232734" points="32.602,14.892 32.665,14.887 32.652,14.928 	"/>
	<polygon fill="#232734" points="33.783,8.592 33.68,8.526 33.718,8.49 33.76,8.609 	"/>
	<polygon fill="#232734" points="32.939,10.019 32.988,10.012 32.977,10.052 	"/>
	<polygon fill="#232734" points="32.193,14.585 32.081,14.513 32.129,14.485 32.17,14.603 	"/>
	<polygon fill="#232734" points="32.516,12.1 32.43,11.998 32.477,12.006 32.49,12.116 	"/>
	<polygon fill="#232734" points="30.486,14.111 30.377,14.041 30.423,14.012 30.462,14.127 	"/>
	<polygon fill="#232734" points="34.137,15.404 34.021,15.327 34.073,15.297 34.111,15.421 	"/>
	<polygon fill="#232734" points="34.484,12.773 34.365,12.603 34.346,12.617 34.464,12.788 	"/>
	<polygon fill="#232734" points="34.152,13.63 34.268,13.802 34.289,13.789 34.174,13.615 	"/>
	<polygon fill="#232734" points="34.229,12.446 34.346,12.617 34.365,12.603 34.25,12.43 	"/>
	<polygon fill="#232734" points="34.035,13.455 34.152,13.63 34.174,13.615 34.061,13.438 	"/>
	<polygon fill="#232734" points="33.854,15.137 33.801,15.159 33.82,15.091 	"/>
	<polygon fill="#232734" points="34.305,11.258 34.422,11.431 34.438,11.42 34.326,11.243 	"/>
	<polygon fill="#232734" points="34.109,12.27 34.229,12.446 34.25,12.43 34.135,12.254 	"/>
	<polygon fill="#232734" points="34.341,9.474 34.45,9.538 34.411,9.577 34.365,9.457 	"/>
	<polygon fill="#232734" points="34.23,10.05 34.35,10.222 34.37,10.208 34.254,10.035 	"/>
	<polygon fill="#232734" points="33.796,13.243 33.682,13.066 33.659,13.081 33.773,13.258 	"/>
	<polygon fill="#232734" points="33.438,14.726 33.45,14.773 33.398,14.757 	"/>
	<polygon fill="#232734" points="34.223,9.301 34.341,9.474 34.365,9.457 34.249,9.284 	"/>
	<polygon fill="#232734" points="34.118,9.876 34.23,10.05 34.254,10.035 34.143,9.859 	"/>
	<polygon fill="#232734" points="33.73,11.901 33.846,12.077 33.87,12.061 33.756,11.885 	"/>
	<polygon fill="#232734" points="34.109,9.126 34.223,9.301 34.249,9.284 34.131,9.111 	"/>
	<polygon fill="#232734" points="34.143,9.859 34.023,9.788 34.07,9.751 34.118,9.876 	"/>
	<polygon fill="#232734" points="33.807,10.714 33.922,10.891 33.943,10.875 33.831,10.698 	"/>
	<polygon fill="#232734" points="33.756,11.885 33.641,11.708 33.616,11.725 33.73,11.901 	"/>
	<polygon fill="#232734" points="33.089,14.476 33.201,14.546 33.156,14.578 33.113,14.458 	"/>
	<polygon fill="#232734" points="34.131,9.111 34.016,8.938 33.991,8.955 34.109,9.126 	"/>
	<polygon fill="#232734" points="33.277,12.711 33.393,12.887 33.414,12.873 33.301,12.696 	"/>
	<polygon fill="#232734" points="34.016,8.938 33.898,8.762 33.876,8.778 33.991,8.955 	"/>
	<polygon fill="#232734" points="33.795,9.628 33.764,9.572 33.857,9.597 	"/>
	<polygon fill="#232734" points="22.567,37.631 22.073,37.672 22.017,37.632 22.02,37.585 22.201,37.471 24.363,36.5 24.434,36.484 
		24.381,36.648 23.633,37.334 23.501,37.359 23.516,37.382 23.423,37.257 23.347,37.352 23.374,37.334 23.189,37.314 22.636,37.545 
		22.541,37.646 	"/>
	<polygon fill="#232734" points="18.487,40.173 18.413,39.93 18.603,39.873 19.147,39.85 19.134,39.826 19.121,39.992 
		18.924,39.967 18.862,40.033 18.91,40.074 19.106,39.97 19.202,40.182 19.188,40.307 19.218,40.288 18.729,40.286 18.449,40.297 
		18.464,40.32 18.473,40.152 18.599,40.084 18.548,40.068 	"/>
	<polygon fill="#232734" points="21.79,38.549 21.854,38.427 21.994,38.273 21.972,38.287 22.108,38.305 22.316,38.182 
		22.287,38.201 22.456,38.146 22.628,38.109 22.611,38.092 22.577,38.227 22.496,38.338 22.179,38.609 21.886,38.902 21.697,38.967 
		21.712,38.988 21.768,38.68 21.743,38.695 21.854,38.662 21.779,38.531 	"/>
	<polygon fill="#232734" points="22.362,37.907 22.44,37.794 22.567,37.631 22.541,37.646 22.748,37.809 22.81,37.79 23.041,37.648 
		23.168,37.615 23.152,37.592 23.036,37.846 22.684,38.094 22.611,38.092 22.628,38.109 22.41,37.911 22.348,37.889 	"/>
	<polygon fill="#232734" points="19.188,40.307 19.433,40.43 19.037,40.688 18.824,40.666 18.843,40.689 19.104,40.459 
		19.218,40.288 	"/>
	<polygon fill="#232734" points="18.475,40.896 18.13,41.113 18.073,41.075 18.279,40.909 18.493,40.924 	"/>
	<polygon fill="#232734" points="21.282,38.756 21.79,38.549 21.779,38.531 21.743,38.695 21.768,38.68 21.629,38.7 	"/>
	<polygon fill="#232734" points="20.188,38.997 20.339,38.887 20.676,38.921 20.453,39.029 	"/>
	<polygon fill="#232734" points="20.968,38.844 21.18,38.729 21.311,38.74 21.1,38.855 	"/>
	<polygon fill="#232734" points="20.65,38.936 20.795,38.825 20.991,38.83 20.844,38.938 	"/>
	<polygon fill="#232734" points="20.533,39.66 20.729,39.547 20.851,39.576 20.833,39.553 20.517,39.637 	"/>
	<polygon fill="#232734" points="19.466,39.76 19.652,39.648 19.702,39.736 19.649,39.768 19.453,39.74 	"/>
	<polygon fill="#232734" points="19.147,39.85 19.272,39.727 19.466,39.76 19.453,39.74 19.325,39.855 19.134,39.826 	"/>
	<polygon fill="#232734" points="18.146,40.408 18.268,40.287 18.464,40.32 18.449,40.297 18.275,40.4 18.131,40.385 	"/>
	<polygon fill="#232734" points="18.131,40.385 17.981,40.491 17.891,40.419 17.946,40.389 18.146,40.408 	"/>
	<polygon fill="#232734" points="23.501,37.359 23.327,37.475 23.343,37.498 23.374,37.334 23.347,37.352 23.516,37.382 	"/>
	<polygon fill="#232734" points="23.327,37.475 23.152,37.592 23.168,37.615 23.343,37.498 	"/>
	<polygon fill="#232734" points="21.539,39.104 21.712,38.988 21.697,38.967 21.523,39.081 	"/>
	<polygon fill="#232734" points="21.523,39.081 21.352,39.197 21.367,39.221 21.539,39.104 	"/>
	<polygon fill="#232734" points="21.352,39.197 21.183,39.318 21.197,39.342 21.367,39.221 	"/>
	<polygon fill="#232734" points="21.025,39.459 21.197,39.342 21.183,39.318 21.01,39.436 	"/>
	<polygon fill="#232734" points="20.851,39.576 21.025,39.459 21.01,39.436 20.833,39.553 	"/>
	<polygon fill="#232734" points="20.517,39.637 20.346,39.756 20.36,39.777 20.533,39.66 	"/>
	<polygon fill="#232734" points="20.346,39.756 20.176,39.876 20.188,39.895 20.36,39.777 	"/>
	<polygon fill="#232734" points="20.126,39.438 20.192,39.343 20.223,39.384 20.109,39.414 	"/>
	<polygon fill="#232734" points="20.017,40.012 20.188,39.895 20.176,39.876 20.002,39.99 	"/>
	<polygon fill="#232734" points="20.002,39.99 19.83,40.107 19.845,40.129 20.017,40.012 	"/>
	<polygon fill="#232734" points="19.83,40.107 19.727,40.195 19.728,40.152 19.845,40.129 	"/>
	<polygon fill="#232734" points="18.669,40.805 18.843,40.689 18.824,40.666 18.652,40.781 	"/>
	<polygon fill="#232734" points="18.652,40.781 18.475,40.896 18.493,40.924 18.669,40.805 	"/>
	<polygon fill="#232734" points="29.52,37.307 29.271,37.199 29.646,37.001 30.195,36.561 30.161,36.98 29.787,37.309 
		29.652,37.333 29.664,37.352 29.574,37.232 29.501,37.318 	"/>
	<polygon fill="#232734" points="30.955,35.178 30.906,35.516 30.984,35.773 30.801,36.736 30.74,36.864 30.676,36.805 
		30.798,36.045 30.727,35.775 30.854,35.248 30.973,35.2 	"/>
	<polygon fill="#232734" points="30.333,37.777 30.462,37.145 30.521,37.095 30.551,37.148 30.438,37.7 30.316,37.754 	"/>
	<polygon fill="#232734" points="29.908,37.529 29.852,37.834 29.876,37.818 29.677,37.954 29.699,37.938 29.542,37.91 
		29.557,37.934 29.925,37.553 	"/>
	<polygon fill="#232734" points="29.605,34.49 29.838,34.385 29.977,34.604 29.712,34.645 29.725,34.665 29.593,34.469 	"/>
	<polygon fill="#232734" points="28.782,38.831 29.271,38.628 29.256,38.605 28.77,38.811 	"/>
	<polygon fill="#232734" points="29.582,34.621 29.24,34.531 29.189,34.482 29.605,34.49 29.593,34.469 29.562,34.635 	"/>
	<polygon fill="#232734" points="28.85,38.375 28.795,38.492 28.613,38.586 28.657,38.387 28.861,38.395 	"/>
	<polygon fill="#232734" points="28.543,34.59 28.578,34.529 28.941,34.584 28.523,34.564 	"/>
	<polygon fill="#232734" points="28.9,34.938 28.818,35.029 28.52,34.949 28.916,34.961 	"/>
	<polygon fill="#232734" points="30.316,37.754 30.27,37.95 30.184,37.984 30.161,37.924 30.333,37.777 	"/>
	<polygon fill="#232734" points="29.907,38.447 30.012,38.189 29.891,38.422 	"/>
	<polygon fill="#232734" points="30.109,35.787 30.171,35.596 30.223,35.557 30.255,35.68 30.1,35.77 	"/>
	<polygon fill="#232734" points="29.827,37.965 29.777,38.146 29.627,38.221 29.645,38.244 29.699,37.938 29.677,37.954 
		29.844,37.986 	"/>
	<polygon fill="#232734" points="29.627,38.221 29.605,38.344 29.432,38.488 29.448,38.512 29.465,38.385 29.645,38.244 	"/>
	<polygon fill="#232734" points="29.301,37.562 29.109,37.674 28.988,37.652 29.004,37.676 29.129,37.557 29.318,37.586 	"/>
	<polygon fill="#232734" points="29.236,34.873 29.426,34.754 29.553,34.783 29.534,34.76 29.343,34.871 29.223,34.85 	"/>
	<polygon fill="#232734" points="28.988,37.652 28.729,37.686 29.004,37.676 	"/>
	<polygon fill="#232734" points="28.77,38.811 28.646,38.938 28.452,38.898 28.466,38.92 28.59,38.801 28.782,38.831 	"/>
	<polygon fill="#232734" points="29.223,34.85 29.091,34.963 28.9,34.938 28.916,34.961 29.046,34.848 29.236,34.873 	"/>
	<polygon fill="#232734" points="28.523,34.564 28.453,34.658 28.426,34.617 28.543,34.59 	"/>
	<polygon fill="#232734" points="30.355,36.395 30.35,36.341 30.389,36.354 	"/>
	<polygon fill="#232734" points="29.925,37.553 29.994,37.453 30.021,37.496 29.908,37.529 	"/>
	<polygon fill="#232734" points="29.852,37.834 29.953,37.92 29.827,37.965 29.844,37.986 29.876,37.818 	"/>
	<polygon fill="#232734" points="29.891,38.422 29.814,38.529 29.788,38.48 29.907,38.447 	"/>
	<polygon fill="#232734" points="29.938,35.902 30.109,35.787 30.1,35.77 29.924,35.881 	"/>
	<polygon fill="#232734" points="29.924,35.881 29.852,35.98 29.816,35.938 29.938,35.902 	"/>
	<polygon fill="#232734" points="29.652,37.333 29.479,37.447 29.492,37.468 29.52,37.307 29.501,37.318 29.664,37.352 	"/>
	<polygon fill="#232734" points="29.382,38.047 29.557,37.934 29.542,37.91 29.368,38.025 	"/>
	<polygon fill="#232734" points="29.271,38.628 29.448,38.512 29.432,38.488 29.256,38.605 	"/>
	<polygon fill="#232734" points="29.479,37.447 29.301,37.562 29.318,37.586 29.492,37.468 	"/>
	<polygon fill="#232734" points="29.368,38.025 29.195,38.145 29.21,38.164 29.382,38.047 	"/>
	<polygon fill="#232734" points="29.037,38.279 29.21,38.164 29.195,38.145 29.021,38.258 	"/>
	<polygon fill="#232734" points="29.712,34.645 29.534,34.76 29.553,34.783 29.582,34.621 29.562,34.635 29.725,34.665 	"/>
	<polygon fill="#232734" points="29.021,38.258 28.85,38.375 28.861,38.395 29.037,38.279 	"/>
	<polygon fill="#232734" points="28.452,38.898 28.384,38.99 28.355,38.951 28.466,38.92 	"/>
	<polygon fill="#232734" points="21.996,30.557 22.064,30.534 22.68,30.648 23.199,30.93 22.84,30.922 22.457,30.73 22.047,30.607 	
		"/>
	<polygon fill="#232734" points="23.751,30.516 23.608,30.641 22.754,30.461 22.635,30.384 23.764,30.532 	"/>
	<polygon fill="#232734" points="25.006,30.303 24.324,30.111 24.399,30.08 24.945,30.199 24.986,30.318 	"/>
	<polygon fill="#232734" points="23.777,30.387 24.551,30.551 24.397,30.616 23.751,30.516 23.764,30.532 23.797,30.373 	"/>
	<polygon fill="#232734" points="25.907,30.195 26.443,30.359 25.938,30.248 25.93,30.178 	"/>
	<polygon fill="#232734" points="24.986,30.318 25.312,30.389 25.393,30.545 25.412,30.53 25.093,30.456 25.006,30.303 	"/>
	<polygon fill="#232734" points="25.014,30.822 24.746,30.843 24.684,30.754 24.817,30.732 	"/>
	<polygon fill="#232734" points="23.797,30.373 23.396,30.236 23.771,30.316 23.777,30.387 	"/>
	<polygon fill="#232734" points="21.669,31.34 21.743,31.241 22.05,31.318 21.654,31.314 	"/>
	<polygon fill="#232734" points="21.205,31.396 21.344,31.285 21.669,31.34 21.654,31.314 21.509,31.419 21.189,31.373 	"/>
	<polygon fill="#232734" points="24.45,31.544 24.204,31.578 24.468,31.57 	"/>
	<polygon fill="#232734" points="22.325,30.229 22.252,30.156 22.312,30.131 22.422,30.193 22.389,30.229 	"/>
	<polygon fill="#232734" points="26.805,31.115 26.926,30.992 27.123,31.027 27.107,31.004 26.977,31.113 26.79,31.092 	"/>
	<polygon fill="#232734" points="26.79,31.092 26.525,31.117 26.805,31.115 	"/>
	<polygon fill="#232734" points="26.027,31.268 26.285,31.234 26.012,31.24 	"/>
	<polygon fill="#232734" points="26.012,31.24 25.755,31.275 26.027,31.268 	"/>
	<polygon fill="#232734" points="25.393,30.545 25.587,30.604 25.631,30.654 25.412,30.53 	"/>
	<polygon fill="#232734" points="25.249,31.418 25.501,31.387 25.23,31.393 	"/>
	<polygon fill="#232734" points="25.23,31.393 24.973,31.43 25.249,31.418 	"/>
	<polygon fill="#232734" points="24.468,31.57 24.729,31.541 24.45,31.544 	"/>
	<polygon fill="#232734" points="21.189,31.373 21.109,31.477 21.075,31.428 21.205,31.396 	"/>
	<polygon fill="#232734" points="37.991,20.354 38.047,20.239 38.232,20.143 38.9,19.945 39.109,19.964 39.096,19.941 
		38.918,20.167 39.087,20.373 39.654,20.556 39.705,20.678 39.729,20.662 38.986,20.509 38.768,20.357 38.402,20.288 37.979,20.333 
			"/>
	<polygon fill="#232734" points="39.109,19.964 39.198,19.869 39.917,19.67 40.207,19.725 40.191,19.702 40.102,19.795 
		39.384,19.996 39.096,19.941 	"/>
	<polygon fill="#232734" points="40.207,19.725 40.223,19.655 40.607,19.502 40.75,19.603 40.406,19.712 40.191,19.702 	"/>
	<polygon fill="#232734" points="39.936,20.272 40.389,20.373 40.48,20.526 40.507,20.509 40.045,20.409 39.957,20.256 	"/>
	<polygon fill="#232734" points="41.311,20.214 40.764,20.045 40.829,20.015 41.247,20.104 41.289,20.229 	"/>
	<polygon fill="#232734" points="42.729,19.215 42.939,19.311 42.938,19.376 42.835,19.386 	"/>
	<polygon fill="#232734" points="42.125,19.79 42.268,19.824 42.329,19.906 42.264,19.919 42.195,19.896 42.148,19.772 	"/>
	<polygon fill="#232734" points="42.148,19.772 41.887,19.667 42.125,19.79 	"/>
	<polygon fill="#232734" points="39.705,20.678 39.9,20.723 39.938,20.807 39.879,20.83 39.729,20.662 	"/>
	<polygon fill="#232734" points="37.67,20.439 37.798,20.317 37.991,20.354 37.979,20.333 37.781,20.45 37.658,20.42 	"/>
	<polygon fill="#232734" points="41.289,20.229 41.396,20.299 41.35,20.331 41.311,20.214 	"/>
	<polygon fill="#232734" points="40.48,20.526 40.586,20.596 40.54,20.625 40.507,20.509 	"/>
	<polygon fill="#232734" points="39.957,20.256 39.85,20.188 39.893,20.154 39.936,20.272 	"/>
	<polygon fill="#232734" points="31.32,19.084 31.523,19.141 31.816,19.45 32.205,19.592 32.249,19.71 32.268,19.695 31.456,19.423 
		30.755,19.25 29.689,19.04 29.598,18.962 30.148,18.913 30.207,18.706 30.189,18.719 30.384,18.756 30.551,19.069 31.186,19.188 
		31.252,19.169 31.343,19.069 	"/>
	<polygon fill="#232734" points="32.249,19.71 32.518,19.618 32.637,19.676 32.921,20.07 32.915,20.139 32.938,20.123 
		32.264,19.766 32.268,19.695 	"/>
	<polygon fill="#232734" points="29.291,18.678 29.13,18.795 28.5,18.647 28.46,18.603 28.887,18.629 29.312,18.705 	"/>
	<polygon fill="#232734" points="28.999,17.894 29.277,17.8 29.677,17.907 29.723,18.029 29.744,18.013 29.391,17.982 29.182,18.05 
		29.02,17.878 	"/>
	<polygon fill="#232734" points="30.129,18.258 30.784,18.615 30.793,18.684 30.816,18.667 30.148,18.311 30.148,18.241 	"/>
	<polygon fill="#232734" points="29.059,18.356 29.4,18.448 29.419,18.634 29.291,18.678 29.312,18.705 29.178,18.5 29.081,18.34 	
		"/>
	<polygon fill="#232734" points="33.05,19.539 32.734,19.467 32.643,19.316 32.619,19.333 32.904,19.396 33.027,19.556 	"/>
	<polygon fill="#232734" points="29.712,18.18 29.744,18.013 29.723,18.029 30.033,18.107 30.129,18.258 30.148,18.241 
		29.695,18.156 	"/>
	<polygon fill="#232734" points="33.312,19.741 33.118,19.699 33.05,19.539 33.027,19.556 33.209,19.607 33.289,19.76 	"/>
	<polygon fill="#232734" points="32.643,19.316 32.336,19.259 32.352,19.282 32.549,19.171 32.619,19.333 	"/>
	<polygon fill="#232734" points="31.807,18.878 32.066,19.076 32.092,19.059 31.904,19.017 31.83,18.862 	"/>
	<path fill="#232734" d="M31.534,18.596l-0.222-0.051L31.534,18.596z"/>
	<polygon fill="#232734" points="31.059,18.886 31.236,18.937 31.32,19.084 31.343,19.069 31.221,19.041 31.078,18.867 	"/>
	<polygon fill="#232734" points="30.793,18.684 30.973,18.737 31.059,18.886 31.078,18.867 30.898,18.815 30.816,18.667 	"/>
	<polygon fill="#232734" points="30.207,18.706 30.025,18.657 29.947,18.505 29.927,18.52 30.118,18.562 30.189,18.719 	"/>
	<polygon fill="#232734" points="29.947,18.505 29.762,18.459 29.688,18.305 29.664,18.32 29.795,18.341 29.927,18.52 	"/>
	<polygon fill="#232734" points="29.688,18.305 29.496,18.256 29.46,18.171 29.518,18.145 29.712,18.18 29.695,18.156 29.664,18.32 
			"/>
	<polygon fill="#232734" points="29.081,18.34 28.891,18.288 28.843,18.242 28.924,18.188 29.059,18.356 	"/>
	<polygon fill="#232734" points="29.02,17.878 28.816,17.826 28.773,17.775 28.893,17.742 28.999,17.894 	"/>
	<polygon fill="#232734" points="31.83,18.862 31.734,18.766 31.779,18.768 31.807,18.878 	"/>
	<polygon fill="#232734" points="31.082,18.392 31.046,18.347 31.1,18.328 	"/>
	<polygon fill="#232734" points="32.184,19.251 32.352,19.282 32.336,19.259 32.277,19.352 32.205,19.236 	"/>
	<polygon fill="#232734" points="32.066,19.076 32.184,19.251 32.205,19.236 32.092,19.059 	"/>
	<polygon fill="#232734" points="20.447,38.427 20.368,38.529 20.224,38.533 18.931,38.291 18.729,38.191 18.881,38.152 
		20.461,38.449 	"/>
	<polygon fill="#232734" points="24.326,36.169 23.966,36.383 23.835,36.37 23.854,36.396 24.339,36.188 	"/>
	<polygon fill="#232734" points="22.019,38.145 22.362,37.907 22.348,37.889 22.287,38.201 22.316,38.182 22.004,38.123 	"/>
	<polygon fill="#232734" points="20.461,38.449 20.496,38.387 20.871,38.445 20.447,38.427 	"/>
	<polygon fill="#232734" points="22.414,36.874 22.671,36.842 22.397,36.848 	"/>
	<polygon fill="#232734" points="22.397,36.848 22.254,36.959 22.154,36.887 22.211,36.855 22.414,36.874 	"/>
	<polygon fill="#232734" points="21.705,38.238 21.896,38.127 22.019,38.145 22.004,38.123 21.972,38.287 21.994,38.273 
		21.689,38.214 	"/>
	<polygon fill="#232734" points="21.387,38.324 21.52,38.218 21.705,38.238 21.689,38.214 21.564,38.334 21.371,38.302 	"/>
	<polygon fill="#232734" points="21.371,38.302 21.114,38.343 21.387,38.324 	"/>
	<polygon fill="#232734" points="23.835,36.37 23.751,36.477 23.716,36.426 23.854,36.396 	"/>
	<polygon fill="#232734" points="23.492,36.547 23.434,36.57 23.453,36.498 	"/>
	<polygon fill="#232734" points="23.047,36.691 23.13,36.596 23.162,36.645 23.029,36.668 	"/>
	<polygon fill="#232734" points="23.029,36.668 22.965,36.764 22.922,36.748 23.047,36.691 	"/>
	<polygon fill="#232734" points="21.583,37.65 21.6,37.693 21.546,37.678 	"/>
</g>
</svg>
