<svg id="_ÎÓÈ_1" data-name="—ÎÓÈ_1" xmlns="http://www.w3.org/2000/svg" viewBox="0 0 34.41 17.66"><defs><style>.cls-1{fill:#232734;}</style></defs><title>leaf4</title><path class="cls-1" d="M-5.47,144l0.51-.57,0.65-.43,0.59-.35,0.73-.3,0.72-.33,0.47,0,0.71,0.36L-1,143.54l-0.47.65-0.29.16-0.48.61-1,.67-0.82.77-0.55.36-0.66.42-0.54.42L-5.5,148l0.78,0.14,0.38,0,1-.1L-2,148l2.11-.51,1.56-.85,0.37-.32,0.9-1,0.34-.65,0.36-.46L4,143l0.26-.38L4.37,142l0.42-.92,0.49-.95L5.52,140,6,139.17l0.17-.4,1.19-1.32,1-.57,0.48-.53,0.78-.6,0.38-.33,2.58-.69,0.79,0.1,0.91,0.73,0.32,0.32,0.27,1.65-0.36.74-0.26.42-0.75.87,0.42,0.63,0.12,0.4-0.12.49-0.51.48-2.2.68-1.6.83-0.08.18-0.18.09-1,1.06-0.16.42-0.6.75-0.22.32-0.76.89-0.26.28-0.25.14-0.19.21-0.1.53,0.66,0.74,0,0.29-0.33.77-1,.52-0.92.34-1.38.19-1.18.14L1.25,151l-1.08-.06-0.79-.06-1.47-.2-0.46.13-0.09.89L-3,152l-0.28.25-0.31.08-1.78.09-0.29,0-1.24-.3-0.56-.2-1.21-.43-0.83-.31-1.54-.65-2.15-.67-1.37-.21-0.48-.11-1.59-.56-0.39-.28-1.71-1.33-0.12-.15-0.64-.78,0.08-.26,0.26-.53,0.19-.16,0.4,0.18,0.89,0.06,0.64,0.57,0.73,0.61,0.49,0.44,2.35,0.87,2.18-.07,1-.23,1.08-.49,1.93-1,1.59-1.75,0.29-.55h0Zm0.23,2.06H-5l0.19,0.37,0.39-.54-0.58.2-0.28,0H-5.52L-6.15,146l-0.25.37,0.7-.05,0.18-.2h0.28Zm8.53,4.2,0.16,0v-0.07l-0.15.07H3l-0.22-.18-0.59-.07L2,149.79H2.13l1.68,0.14,1.28-.09,0.35-.17,0-.24-3.53-.13-0.08-.24h1L4,149.18H4.1l1.39-.09L5.64,149l-0.12-.13-1.28-.14-0.39-.07-1.18-.13-0.18-.05-0.15-.13v0l0.07-.07h1l0.68,0.06,0.78,0.08,0.15-.1,0.15,0.05v-0.07L5,148.39l-0.52-.47-0.54,0-0.24-.14v0L4,147.54l0.84-.26L5,147.22v-0.16l-0.48,0-0.24-.16v0l0.06-.07,0.48-.06L6,146.64l0.58-.79-0.76,0-0.16-.24,0.79-.08,0.74-.25,0.05-.17L6.48,145l-0.18-.07-0.1-.18,1.36-.1,0.2-.42-1.55-.06-0.52.28-0.53.44-0.34.19-1.09.84-0.55.41-1.32.85-0.25.16-2.05.78-1.26.15-1.07.15-1.72.21-1.42-.18-0.88-.08L-7,148.3l0.31-.44-0.58.16L-7.43,148l-1.26.09v-0.19l0.17-.09,2.05-.26,0.26-.12,0-.16H-7.45l-0.35-.18H-7.9l-1.12.59-1.12.6-0.05.08-0.16-.06v0.08l0.17-.06,0.27,0.09,2.06-.14,0.37,0.07-0.23.19-3,.14-0.3-.16-0.27.05-1.3.09-0.85-.08-0.88-.09-0.75-.24-0.61-.3-0.64-.29-0.9-.76-0.88-.8-0.19-.08-0.27.06-0.08.58,0.9,0.81,0.32,0.13,0.45,0.53,0.45,0.21L-16,148.5l0.42,0.26,0.77,0.18,0.57,0.2,0.58,0,1.68,0,2-.11,0.17,0.07v0l-0.2.2-1.6.13,0,0.17,0.53,0.16,1.76-.1-0.06.17L-10,150l-0.24.09,0.36,0.27,0.29,0,1.07-.15,0,0.06,0,0.09-0.62.27,0.2,0.2,1,0.38,1,0.31,0.56,0.17,1.13,0.28,0.42-.27,1.29-.08,0.29-.06,0.08-.18-0.27-.06H-3.89l-0.24-.15h0l0.3-.2,0.24-.12,0.15,0v-0.11l-0.14.07-0.23-.15-0.86,0-0.2-.18h0l0.17-.08,0.69,0,0.14-.12,0-.29,0.48-.16,1.77,0.5,1,0.16,0.88,0.09,2.08-.07L3,150.29H3.29Zm-5.54-6.33,0.15,0v-0.07l-0.15.07-0.18,0V144l0.17-.08h0Zm-0.47-1h0.28l0.17,0,0-.07-0.15.09H-3L-3.09,143l-0.35,0-0.41.33-0.44.21-0.64.75,0,0.12,0.25,0.05,0.68-.09,0.57-.12,0.66-.09-0.1-.17-0.36-.11h0l0.27-.31H-2.7l0.08,0.06,0.66,0,0-.25-0.58,0-0.2.21-0.28,0-0.34-.11-0.18-.19L-3,143l0.28,0h0ZM12,141.52l0.15,0,0-.06-0.18,0H11.7l-0.08-.06-0.68.06-1.37.12-0.09,0-0.06-.16,1.27-.14,1.16-.2L13,141l0.1,0,0.09,0,0.15-.12-0.15-.22-0.38.08-0.49,0-2,.23-0.49,0-0.11-.15,1-.18,1.06-.16-0.09-.35-0.67.08-0.68.12-0.17-.07v0l0.21-.19,1.45-.26,0.76-.2,0.1-.24-0.86.14-1,.16-0.88,0,0.13-.21,0.78-.12,0.77-.15,0.76-.19,1-.2,0.2-.07,0.17-.22v-0.09l-0.23-.15-1,.25-0.77.1-0.08-.06v0l0.22-.18,1-.23,1-.3,0.11-.26-0.89.12-0.87.15-0.89.05-0.14-.21,0.88-.07,0.39-.05,1.73-.41,0.05-.24-0.16-.09-0.39.06-0.77.09L12.87,137h0l0.29-.23,0.39-.26h0.28L14,136.55v-0.1l-0.14.08H13.55l-0.27,0-1.24.19-0.17-.07h0l0.22-.18,1.45-.29,0.17-.1V136l-0.05-.06H13.26l-1.94.32h-0.1l-0.2-.31-0.27-.06-0.09-.35h0.57l0.69-.19h0.28l0.15,0v-0.07l-0.14.07H11.93l-0.69.19H10.68l-0.18,0L10,135.9l-0.64.46L9,136.62l-0.08.23-0.47.31-0.37.33-0.41.38-0.34.38L7,138.53,6.7,139,6,139.88l-0.21.33-0.33.6-0.33.6L5,141.68l-0.16.89-0.29.4-0.21.74L3.72,145l-0.55.77,0,0.12L4.06,145l1.73-1.33,0.32-.16,0.83-1,0.25-.16,0.37-.82L8,140.71,8.52,140l0.57-1.14,0.37,0,0,0.41L8.7,140.69l-0.35.59-0.33.6,0.06,0.35,0.87-.1,1.47-.2,1.14-.28,0.14-.14H12Zm0.81-6,0.15,0,0-.06-0.18,0-0.17,0,0.17-.07h0Zm-17.5,10L-5,145.47l-0.17-.08,0.23-.2,2.2-.47,0.1-.16-0.15-.06-0.88.1-1.46.06-0.32.19,0,0.55-0.37.11-0.15.23,0.22,0,0.78-.08,0.21-.21,0.07,0.05v-0.05l-0.08,0h0Zm-0.78,1.17-0.16-.08-0.83.07-0.43-.13-0.52.26,0,0.17,1.75-.11,0.21-.21,0.17,0v-0.07l-0.15.08h0Zm14.36-3.61-0.76.12-0.78,0-0.42.25-0.43.39V144l0.87-.05,0.87-.13,0.18-.08,0.46-.62h0Zm-0.74-.59-0.37-.1-0.28.41,0.13,0.13,0.77-.08,0.67-.1,0.19,0,0.54-.37-0.15-.06-0.48.05-1,.14h0Zm-10.06.3v0.07l0.05,0-0.07,0h0Zm-1.76,2.6-0.08,0,0,0.05,0-.07h0Z" transform="translate(19.5 -134.72)"/><polygon class="cls-1" points="23.22 13.02 23.08 13.15 22.99 13.19 21.93 13.13 21.78 12.99 21.78 12.91 23.05 12.93 23.22 13.01 23.22 13.02 23.22 13.02"/><polygon class="cls-1" points="14.63 15.72 14.56 15.79 13.42 15.69 13.34 15.44 14.48 15.6 14.63 15.71 14.63 15.72 14.63 15.72"/><polygon class="cls-1" points="11.45 14.18 11.26 14.4 10.37 14.47 10.2 14.4 10.2 14.41 10.42 14.23 11.38 14.15 11.45 14.21 11.45 14.18 11.45 14.18"/><polygon class="cls-1" points="13.39 16.22 14.05 16.13 14.17 16.14 14.38 16.3 14.38 16.28 14.31 16.35 13.73 16.36 13.39 16.18 13.39 16.22 13.39 16.22"/><polygon class="cls-1" points="15.37 16.38 15.3 16.44 14.62 16.44 14.38 16.28 14.38 16.3 14.45 16.23 15.13 16.22 15.37 16.39 15.37 16.38 15.37 16.38"/><polygon class="cls-1" points="12.25 13.32 12.57 13.57 11.96 13.61 12.25 13.32 12.25 13.32"/><polygon class="cls-1" points="21.84 13.63 21.53 13.51 21.85 13.66 21.84 13.63 21.84 13.63"/><polygon class="cls-1" points="23.74 12.13 23.57 12.18 23.57 12.1 23.74 12.15 23.74 12.13 23.74 12.13"/><polygon class="cls-1" points="11.45 14.21 11.63 14.15 11.62 14.23 11.45 14.18 11.45 14.21 11.45 14.21"/><polygon class="cls-1" points="13.39 16.18 13.26 16.25 13.21 16.21 13.39 16.22 13.39 16.18 13.39 16.18"/><polygon class="cls-1" points="9.92 14.43 10.2 14.41 10.2 14.4 9.92 14.41 9.92 14.43 9.92 14.43"/><polygon class="cls-1" points="9.64 14.44 9.92 14.43 9.92 14.41 9.63 14.42 9.64 14.44 9.64 14.44"/><polygon class="cls-1" points="31.36 1.88 31.24 2.01 31.05 2.08 30.08 2.17 29.98 2.14 29.93 2.09 29.96 2 30.04 1.95 31.29 1.83 31.36 1.89 31.36 1.88 31.36 1.88"/><polygon class="cls-1" points="32.37 2.25 32.05 2.45 31.57 2.5 31.39 2.44 31.39 2.46 31.7 2.24 32.29 2.21 32.37 2.26 32.37 2.25 32.37 2.25"/><polygon class="cls-1" points="29.72 5.48 29.08 5.7 28.88 5.51 28.89 5.55 29.55 5.44 29.73 5.5 29.72 5.48 29.72 5.48"/><polygon class="cls-1" points="31.19 3.86 30.49 4.03 30.49 4.06 31.19 3.87 31.19 3.86 31.19 3.86"/><polygon class="cls-1" points="30.83 2.46 30.61 2.64 30.37 2.46 30.83 2.49 30.83 2.46 30.83 2.46"/><polygon class="cls-1" points="30.21 4.04 30 4.23 29.76 4.04 30.21 4.07 30.21 4.04 30.21 4.04"/><polygon class="cls-1" points="31.39 2.44 31.11 2.45 31.11 2.48 31.39 2.46 31.39 2.44 31.39 2.44"/><polygon class="cls-1" points="30.83 2.49 31.11 2.48 31.11 2.45 30.83 2.46 30.83 2.49 30.83 2.49"/><polygon class="cls-1" points="30.21 4.07 30.49 4.06 30.49 4.03 30.21 4.04 30.21 4.07 30.21 4.07"/><polygon class="cls-1" points="28.88 5.51 28.72 5.58 28.7 5.5 28.89 5.55 28.88 5.51 28.88 5.51"/><polygon class="cls-1" points="16.26 9.15 16.02 9.18 15.95 9.03 16.03 9.02 16.26 9.16 16.26 9.15 16.26 9.15"/><polygon class="cls-1" points="14.39 10.66 14.06 10.68 14.39 10.66 14.39 10.66"/></svg>