<?xml version="1.0" encoding="utf-8"?>
<!-- Generator: Adobe Illustrator 15.0.2, SVG Export Plug-In . SVG Version: 6.00 Build 0)  -->
<!DOCTYPE svg PUBLIC "-//W3C//DTD SVG 1.1//EN" "http://www.w3.org/Graphics/SVG/1.1/DTD/svg11.dtd">
<svg version="1.1" id="Layer_1" xmlns="http://www.w3.org/2000/svg" xmlns:xlink="http://www.w3.org/1999/xlink" x="0px" y="0px"
	 width="54px" height="54px" viewBox="0 0 54 54" enable-background="new 0 0 54 54" xml:space="preserve">
<g id="hoja3">
	<path fill="#232734" d="M20.71,34.911l-0.782-0.841l-1.114-0.656l-0.684-0.743l-0.328-0.233l-0.067-0.071l-0.476-0.511
		l-0.313-0.396l-0.119-0.167l-0.597-0.407l-0.124-0.256l-0.215-0.694l-0.409-0.36l-0.279-0.73l-0.442-0.286l-0.311-0.47
		l-0.404-1.501l-0.609-0.534l-0.187-0.058l-0.702,0.043l-2.408,0.086l-0.411-0.022l-0.271-0.119l-0.175-0.116l-0.129-0.255
		l-0.067-0.968l0.17-0.373l0.12-0.067l0.801-0.064l1.399,0.088l0.334,0.028l1.863-0.299l1.223-2.275l0.191-0.81l0.695-1.305
		l1.472-1.28l0.67-0.606l1.292-0.779l1.593-0.605l0.97-0.23l1.031-0.254l1.348-0.115l1.301,0.018l0.568,0.069l0.588,0.257
		l0.599-0.036l0.496,0.079l0.763,0.447l1.01,0.19l1.219,0.604l0.81,0.025l0.671,0.45l1.083,0.225l0.553,0.249l0.521,0.313
		l0.854,0.291l0.795,0.396l0.725,0.536l1.221,0.645l0.555,0.719l0.995,0.576l0.276,0.761l0.636,0.44l0.217,0.986l0.382,0.633
		l0.243,0.32l1.127,1.409l0.983,1.139l0.383,0.412l0.525,0.342l0.312,0.42l1.223,1.297l0.086,0.074l0.473,1l-0.762,0.561
		l-1.047,0.191l-1.902,0.179l-1.211,0.06l-0.534,0.252l-1.584,0.652l-1.313,0.508l-1.602,0.424l-0.96,0.439l-0.964,0.291
		l-0.394,0.098l-1.181,0.247L32.4,35.023L32,34.947l-1.895,0.672l-0.6-0.021L28.622,35.7l-0.84,0.131l-0.957-0.183l-0.779,0.135
		l-0.701,0.064l-1.097,0.01l-0.995-0.139l-0.561-0.218L22.234,35.3l-1.074-0.259L20.71,34.911L20.71,34.911z M25.123,16.407
		l-0.172-0.034l0.023,0.12l0.139-0.116l0.182-0.002l-0.033-0.072L25.123,16.407L25.123,16.407z M22.376,17.711l-0.168-0.009
		l0.016,0.074l0.138-0.106l0.178-0.006l-0.028-0.069L22.376,17.711L22.376,17.711z M27.762,23.986l-0.187-0.005l0.028,0.078
		l0.146-0.111l0.278-0.08l0.267,0.119l0.89-0.244l0.191-0.066l1.266-0.621l-0.172,0.398l-1.672,0.704l-0.271,0.115L28.48,24.36
		l-0.184-0.012l0.021,0.081l0.154-0.093l0.236,0.125l0.768-0.162l0.356,0.08v-0.002l-0.127,0.28l0.526,0.267l1.134-0.314l1.14-0.37
		l0.049,0.163l-0.152,0.124l-1.221,0.444l0.146,0.143l0.891-0.055l1.174-0.335l0.061,0.042l-0.069,0.173l-1.022,0.418l0.031,0.089
		l0.783,0.455l-0.264,0.082l-0.448-0.191l-0.351-0.006l-0.521-0.177l-0.15,0.091L30.9,25.514l0.381,0.242l0.15-0.09l0.807,0.392
		l0.332,0.014l0.613,0.288l0.766,0.211l0.671,0.184l0.756,0.131l0.963,0.439l0.375,0.021l0.632,0.279l0.312,0.004l0.8,0.26
		l-0.054-0.111l-1.229-0.651l-0.596-0.121l-0.562-0.215l-1.344-0.344l-0.904-0.433l0.274-0.072l1.24,0.386l0.875,0.194l0.224-0.021
		l1.967-0.926l1.566-0.368l0.477-0.164l-0.067-0.153l-0.351-0.196l0.004,0.009l0.125-0.282l-0.027-0.083l-0.188-0.115l-0.766,0.191
		l-0.848,0.239l0.037-0.201l1.232-0.439l0.354-0.177l-0.283-0.273l-0.395-0.052l-0.49,0.124l-2.027,0.616L36.7,24.022l2.114-0.689
		l0.379-0.14l-0.285-0.617l-0.243-0.185l0.006,0.02l0.231-0.26l-0.15-0.107l-1.167-0.033l-0.269-0.101l0.006,0.016l0.123-0.131
		l0.408-0.196l-0.513-0.301l-0.557,0.054l-0.269-0.095l0.004,0.02l0.135-0.133l0.367-0.136l-0.223-0.506l-0.979-0.127l-0.684,0.179
		l-1.688,0.652l-0.564,0.192l-0.09-0.042l0.006,0.015l0.161-0.241l0.798-0.402l0.943-0.331l1.016-0.353l-0.15-0.148l-1.195-0.037
		l-0.271-0.105l0.004,0.014l0.228-0.165l0.312-0.17l-0.426-0.199l-1.46,0.135l-0.28-0.012l0.006,0.014l0.149-0.254l0.651-0.154
		l-0.588-0.318l-0.746,0.148l-0.271-0.082l0.002,0.002l0.315-0.193l0.194-0.155l-0.438-0.275l-0.652,0.058l-0.686,0.076l-0.27-0.103
		l0.01,0.026l0.142-0.126l0.367-0.163l-0.08-0.142l-0.856-0.245l-1.486,0.269l-1.349,0.422l-0.188-0.029l0.011,0.033l0.167-0.261
		l0.948-0.309l0.567-0.194l0.136-0.134l0.177,0.003l-0.029-0.07L28.547,17.3l-0.449-0.396l-0.326,0.09l-0.34,0.176l-0.346,0.171
		l-0.179-0.02l0.009,0.028l0.227-0.304l0.318-0.351l0.181,0.009l-0.02-0.082l-0.149,0.11l-0.492,0.034l-1.973,0.766l-0.28,0.015
		l0.008,0.022l0.235-0.312l0.396-0.249l0.879-0.316l0.027-0.071l-0.055-0.075l-0.19-0.037l-0.682,0.17l-1.229,0.442l-1.41,0.763
		L20.3,19.508l-1.051,1.124l-0.352,0.538l-0.183,0.119l-0.267,0.294l-0.267,0.095l0.297-0.521l0.465-0.511l0.91-1.046l0.714-0.686
		l0.913-0.594l0.151-0.125l0.092-0.174l0.171-0.007l-0.029-0.071l-0.131,0.109l-0.034-0.356l1.491-0.895l0.321-0.036l0.146-0.246
		l0.166,0.017l-0.014-0.072l-0.142,0.09l-0.266-0.119l-1.007,0.166l-0.396,0.076l-0.982,0.158L20.087,17.2l-1.805,1.086
		l-0.733,0.503l-0.601,0.599l-0.635,1.062l-0.323,0.279L15.878,20.9l-0.998,1.875l-0.312,0.634l0.028,0.145l0.806-0.893l0.197-0.225
		l0.452-0.537l0.139-0.048l0.016,0.106l-0.49,0.875l-0.734,0.823l-0.025,0.163l0.18,0.061l0.52-0.167l0.671-0.692l0.478-0.777
		l0.279-0.234l0.708-1.241l0.334-0.258l0.052-0.086l1.11-1.403l0.393-0.315l0.36-0.323l0.206,0.041l-0.01,0.182l-0.628,0.496
		l-0.938,0.907l-0.593,0.955l-0.314,0.273l-0.367,0.692l-0.407,0.699l-0.165,0.249l-0.72,0.806l0.17,0.15l0.654-0.228l0.538-0.98
		l0.491-0.883l0.264-0.072l-0.939,1.976l0.166,0.083l2.008-0.604l1.562-0.879l0.094-0.034l0.166,0.009l-0.035,0.175l-0.673,0.425
		l-0.433,0.246l-0.497,0.268l-0.107,0.204l-0.166-0.016l0.011,0.075l0.144-0.099l0.292-0.016l1.176-0.562l0.731-0.255L21.7,22.853
		L21.056,23.3l0.051,0.11l0.289,0.049l0.844-0.315l1.024-0.388l0.088,0.046l-0.008-0.025l-0.176,0.389l-0.166-0.008l0.019,0.069
		l0.135-0.101l0.183,0.013l0.923-0.261l0.175,0.034l-0.006-0.016l-0.242,0.282l-0.213,0.179l-0.545,0.178l-0.274,0.088l-0.17-0.027
		l0.009,0.074l0.147-0.086l0.278-0.081l0.183,0.081l0.268-0.078l0.096-0.172l0.278,0.128l1.457-0.428l1.563-0.688l0.356-0.179
		l0.092,0.005l-0.136,0.345l-0.525,0.298l-0.174,0.237l-0.089-0.039l-2.041,0.647l-0.055,0.08l-0.277,0.083l-0.271,0.093
		l-0.175-0.027l0.009,0.073l0.152-0.085l0.273-0.089l0.276-0.083l0.261,0.114l1.663-0.499l0.27-0.277l0.179,0.029l0.645-0.213
		l0.179,0.03v-0.001l-0.241,0.276l-0.77,0.334l-0.095,0.18l-0.27,0.1l-0.157-0.021l0.027,0.099l0.121-0.104l0.279-0.07l0.178,0.075
		l1.329-0.37l0.951-0.529l0.457-0.102l-0.047,0.181l-1.035,0.582L28.039,23.9L27.762,23.986L27.762,23.986z M15.422,24.805
		l-0.168-0.016l0.019,0.069l0.136-0.096l0.184,0.015l-0.023-0.074L15.422,24.805L15.422,24.805z M14.694,24.877l-0.274,0.08
		l-0.167-0.021l0.033,0.099l0.122-0.112l0.273-0.084l0.179,0.021l-0.016-0.077L14.694,24.877L14.694,24.877z M13.252,24.572
		l-0.274,0.079l-0.264-0.126l-1.694,0.027l-0.492-0.026l-0.595-0.039l-0.371,0.084l-0.128,0.285l0.19,0.679l0.646,0.111l1.167-0.375
		l0.654-0.223l0.741-0.293l0.136-0.132l0.271-0.089l0.18,0.013l-0.018-0.077L13.252,24.572L13.252,24.572z M17.917,31.355
		l-0.023,0.153l0.062,0.026l-0.074-0.171l-0.105-0.291l-0.156-0.076l0.021-0.174l-1.376-1.789l-0.147-0.354l0.024-0.096l0.343,0.209
		l1.72,2.346l0.952,1.756l1.116,0.825l0.548,0.222l-0.249-0.432l-1.465-2.031l-0.128-0.271l0.023-0.188l-0.018,0.006l0.173,0.095
		l0.885,1.216l1.721,2.086l0.599,0.387l0.859-0.125l0.037-0.175l-0.612-0.655l-0.744-0.942l-0.034-0.095l0.137-0.189l0.723,0.947
		l1.513,1.096l0.128-0.014l-0.203-0.203l-0.315-0.246l-0.014-0.182l-0.034,0.014l0.361,0.177l0.967,0.7l0.37,0.141l0.384,0.02
		l0.351-0.19l0.53-0.129l-0.58-0.683l-0.01-0.188l0.479,0.354l0.618,0.646l0.82,0.11l-0.173-0.241l-0.017-0.187l-0.033,0.014
		l0.816,0.393l0.289,0.06l0.094-0.179l-0.518-0.467l-0.599-0.523l-0.457-0.522l0.167-0.018l0.335,0.215l0.604,0.519l0.308,0.254
		l0.659,0.442l0.324-0.153L29.7,34.387l-0.322-0.236l-0.012-0.183l-0.033,0.013l0.88,0.475l0.54,0.254l0.192,0.003l0.111-0.153
		l-0.048-0.086l-1.226-1.004l-0.139-0.357l0.369,0.057l0.036,0.247l0.25,0.129l0.127-0.054l-0.034-0.084l-0.41-0.229l-0.1-0.312
		l-0.037-0.244l-0.031,0.009l0.549,0.417l1.307,0.978l0.833-0.092l0.099-0.158l-0.099-0.156l-0.819-0.49l-1.117-1.33l-1.375-1.961
		l-0.703-0.967l-0.025-0.188l0.38,0.229l2.538,3.545l0.575,0.49l0.838,0.5l0.037-0.397l-0.032,0.013l0.633,0.471l0.282-0.084
		l-0.067-0.18l-0.342-0.492l0.114-0.225l0.534,0.646l0.674,0.355l0.605-0.039l-0.043-0.089l-0.459-0.372l-0.529-0.453l-0.135-0.147
		l-0.416-0.427l-0.422-0.416l-0.002-0.184l-0.031,0.012l0.512,0.306l0.797,0.83l0.518,0.313l0.191,0.271l0.503-0.02L35.54,32.7
		l-0.545-0.685l0.026-0.095l-0.02,0.009l0.414,0.264l0.609,0.652l0.363,0.078l0.178-0.099l-0.36-0.334l-0.011-0.183l-0.033,0.014
		l0.939,0.379l0.252-0.128l-0.692-0.568l0.239-0.379l-0.153-0.258l0.151-0.026l0.514,0.465l0.595,0.527l0.4,0.062L38.648,32
		l-0.024,0.01l0.437,0.188l0.875-0.107l0.147-0.252l0.254,0.134l0.974-0.435l0.057-0.396l0.172,0.094l0.18,0.021l0.018-0.17
		l-0.545-0.921l-0.17-0.097l-0.125-0.285l-0.217,0.107l-0.472-0.356l-0.61-0.646L39.04,28.67l0.446,0.641v0.183l0.037-0.013
		l-0.465-0.344l-0.547-0.555l-0.796-0.4l0.62,0.754l0.008,0.183l-0.589-0.528l-0.803-0.607l-0.247-0.168l-0.898-0.478l-0.676-0.146
		l-0.67-0.175l-1.154-0.325l-0.199-0.061l-0.488-0.02l-0.006,0.084l1.365,1.464l0.476,0.514l0.542,0.585l0.695,0.829l-0.086,0.204
		l-0.36-0.095l-0.294-0.543l-0.475-0.491l-0.455-0.53l-1.153-1.255l-0.584-0.547l-0.806-0.414l-0.117,0.017l0.308,0.346
		l-0.003,0.184l0.025-0.01l-0.987-0.706L29.73,25.76l-0.092,0.018l0.61,0.44l0.539,0.733l0.36,0.232l0.345,0.494l-0.028,0.095
		l0.026-0.01l-0.775-0.612l-0.825-0.728l-0.264-0.286l-0.902-0.474l-0.213-0.048l-0.283,0.109l0.367,0.35l0.006,0.184l0.025-0.01
		l-0.798-0.429l-1.589-0.789l-0.946-0.038l-0.977,0.043l0.471,0.365l0.58,0.412l0.268,0.058l0.838,0.67l0.196,0.266l0.171,0.105
		l0.601,0.519l0.148,0.133l0.859,0.967l0.025,0.188l-0.473-0.372l-0.467-0.521L26.9,27.19l-0.673-0.406l-0.19-0.261l-1.336-0.892
		l-0.283-0.035l-1.646-0.694l0.366,0.325l0.437,0.409l0.521,0.309l0.153,0.126l-0.001,0.18l0.028-0.011l-1.16-0.616l-1.633-0.796
		l-0.516,0.005l0.108,0.158l0.975,0.535l0.865,0.684l0.467,0.378l0.593,0.677l0.062,0.181l-0.121,0.137l-0.432-0.542l-0.461-0.384
		l-0.542-0.443l-0.5-0.455l-1.544-0.813l-0.215-0.053l-0.261,0.091l0.032,0.088l0.935,0.611l0.686,0.713l-1.088-0.575l-0.276-0.316
		l-1.03-0.541l-0.287-0.073l-0.04,0.046l0.461,0.376l0.183,0.253l0.963,0.541l0.169,0.249l0.234,0.185l0.658,0.613l0.329,0.495
		l-0.008,0.101l-0.468-0.363l-0.537-0.588l-0.393-0.302l-0.287-0.328l-2.392-1.243l-0.64,0.188l0.096,0.144l1.144,0.63l0.495,0.336
		l-0.001,0.178l0.025-0.01l-2.62-1.324l-0.7,0.169l0.012,0.295l1.33,0.77l0.266,0.347l0.726,0.383l0.596,0.854l-0.152,0.022
		l-0.803-0.831l-0.701-0.435l-0.222-0.287l-0.599-0.316l-0.721-0.368l-0.626-0.236l0.046,0.089l1.45,0.829l0.193,0.294l1.031,0.934
		l0.853,1.108l-0.256-0.021l-0.145-0.137l-0.556-0.707L16.7,27.178l-0.714-0.549l-0.065-0.076l-0.476-0.362l-0.531-0.293
		l-0.556-0.22l0.041,0.349l0.341,0.283l0.161,0.825l0.227,0.447l0.37-0.012l0.086,0.047l0.571,0.81l-0.002,0.194l-0.351-0.341
		l-0.132-0.13l-0.159,0.024l0.128,0.472l0.517,1.052l0.856,0.952l0.637,0.336l0.046,0.234L17.917,31.355L17.917,31.355z
		 M18.781,24.513l-0.35-0.094l0.336,0.057l0.277-0.086l0.163,0.086l0.564-0.155l0.152,0.093l0.302-0.081l0.453,0.008l0.256,0.125
		l0.086-0.024l-0.034-0.145l-0.298,0.081l-0.243-0.118l-0.212,0.105l-0.237-0.12l-0.218,0.104l-0.722,0.081L18.781,24.513
		L18.781,24.513z M42.816,30.564l0.01-0.172l-0.08,0.016l0.107,0.146l0.043,0.229l0.223,0.134l-0.002,0.171l0.074-0.016
		l-0.113-0.143L42.816,30.564L42.816,30.564z M22.149,23.771l-0.268-0.103l-0.152,0.255l0.284-0.051l0.125-0.133l0.166,0.003
		l-0.023-0.07L22.149,23.771L22.149,23.771z M42.203,30.902l-0.096,0.272l0.121,0.146l0.166-0.045l0.017-0.185l-0.226-0.184
		l-0.256-0.543l-0.129,0.038l0.11,0.347L42.203,30.902L42.203,30.902z M27.104,24.754l0.647,0.226l0.384,0.085l0.098-0.018
		l-0.02-0.141l-1.04-0.193l-0.06,0.077l-0.542-0.183l0.463,0.215L27.104,24.754L27.104,24.754z M25.394,24.571l-0.26-0.131
		l-0.574-0.073l-0.768-0.114l-0.879-0.02l-0.365,0.099L22.5,24.417l-0.361-0.108l0.353,0.072l0.18,0.086l1.374,0.217l1.095-0.005
		l0.242-0.147l0.363,0.097L25.394,24.571L25.394,24.571z M39.462,26.504l0.175-0.25l1.324-0.447l-0.271-0.464l-2.771,0.722
		l-0.296,0.28l-0.149-0.133l-0.537,0.391l0.078,0.167l0.814,0.437l0.361-0.125l0.494-0.338l0.637-0.284l0.188,0.028l-0.177,0.24
		l-0.578,0.386l0.129,0.44l1.279,0.643l0.521,0.094l0.424-0.012l0.225,0.342l2.416,1.215l1.046,0.307l-0.343-0.459l-0.333-0.703
		l-0.663-0.205L43.389,28.4l-0.16-0.107l-0.101,0.002l-0.254,0.111l-0.019,0.22l-0.229-0.239l0.232-0.441l-0.187-0.221l-0.797,0.172
		l-0.056-0.053l0.066-0.178l0.459-0.217l-0.229-0.168l-0.682,0.178l-0.104-0.148l0.367-0.28l0.001-0.209l-0.669,0.186l-0.729,0.32
		l0.042-0.254l1.176-0.521l0.071-0.213l-0.39-0.254l-0.297,0.053l-1.256,0.393L39.462,26.504L39.462,26.504z M40.238,28.52
		l-0.943-0.492l-0.182-0.067l-0.098,0.004l0.969,0.585L40.238,28.52L40.238,28.52z M43.762,30.678l-0.271,0.074l-0.033,0.061
		l0.054,0.076l0.262-0.037L43.762,30.678L43.762,30.678z M16.242,24.638l0.038,0.061l0.033-0.048L16.242,24.638L16.242,24.638z
		 M28.663,25.066l0.063-0.025l-0.063-0.044V25.066L28.663,25.066z M29.456,25.197l0.04,0.059l0.029-0.044L29.456,25.197
		L29.456,25.197z M30.352,25.456l-0.043-0.061l-0.029,0.043L30.352,25.456L30.352,25.456z M44.439,30.793l-0.062,0.025l0.06,0.043
		L44.439,30.793L44.439,30.793z M22.849,17.421l0.06-0.038l-0.046-0.033L22.849,17.421L22.849,17.421z"/>
	<polygon fill="#232734" points="24.727,17.548 24.48,17.851 23.351,18.495 22.761,18.872 21.989,19.504 21.247,20.167 
		20.711,20.752 20.179,21.343 19.927,21.423 19.938,21.453 20.33,20.709 20.674,20.469 21.048,19.957 22.004,19.092 23.054,18.328 
		23.404,18.076 23.933,17.861 24.454,17.57 24.734,17.57 	"/>
	<polygon fill="#232734" points="29.873,18.196 29.734,18.327 29.162,18.509 27.982,19.047 27.316,19.636 26.732,20.217 
		26.649,19.986 26.694,19.899 27.442,19.109 27.932,18.768 28.926,18.302 29.592,18.112 29.884,18.231 	"/>
	<polygon fill="#232734" points="33.828,19.836 33.773,19.917 33.125,20.136 31.706,20.8 31.357,20.983 31.178,20.961 31.18,20.968 
		31.348,20.732 32.23,20.134 33.562,19.73 33.835,19.857 	"/>
	<polygon fill="#232734" points="32.48,19.356 32.209,19.633 30.988,20.289 30.874,20.286 30.742,20.159 30.777,20.074 
		31.643,19.584 32.396,19.329 32.484,19.37 	"/>
	<polygon fill="#232734" points="24.588,19.533 24.069,20.249 23.302,21.023 22.946,21.119 22.985,20.937 24.216,19.786 
		24.418,19.571 24.6,19.564 	"/>
	<polygon fill="#232734" points="29.834,24.379 29.971,24.255 30.23,24.199 31.316,23.455 31.549,23.532 30.088,24.484 
		29.834,24.377 	"/>
	<polygon fill="#232734" points="28.848,20.206 29.025,19.867 29.855,19.363 30.223,19.326 30.213,19.298 30.062,19.55 
		28.932,20.19 28.835,20.17 	"/>
	<polygon fill="#232734" points="31.178,20.961 30.861,21.558 30.771,21.608 30.203,21.756 30.164,21.594 30.342,21.365 
		30.426,21.314 31.089,20.938 31.18,20.968 	"/>
	<polygon fill="#232734" points="37.936,22.455 37.877,22.536 36.736,22.897 36.667,22.867 36.723,22.69 37.668,22.372 
		37.945,22.493 	"/>
	<polygon fill="#232734" points="35.252,21.525 35.486,21.356 36.264,21.14 36.521,21.276 36.518,21.257 36.379,21.383 
		35.509,21.605 35.238,21.487 	"/>
	<polygon fill="#232734" points="25.437,22.275 25.285,22.523 24.609,22.915 24.427,22.891 24.433,22.907 24.524,22.739 
		25.169,22.315 25.444,22.3 	"/>
	<polygon fill="#232734" points="31.795,21.985 31.951,21.744 32.529,21.381 32.805,21.371 32.798,21.355 32.646,21.603 
		31.967,21.991 31.787,21.965 	"/>
	<polygon fill="#232734" points="25.803,18.597 25.939,18.338 26.453,18.139 26.718,18.165 26.707,18.132 26.445,18.417 
		25.976,18.588 25.79,18.564 	"/>
	<polygon fill="#232734" points="33.24,22.295 33.398,22.041 33.968,21.824 34.152,21.855 34.146,21.838 33.88,22.116 
		33.412,22.291 33.229,22.264 	"/>
	<polygon fill="#232734" points="26.906,17.322 26.751,17.563 26.285,17.845 26.111,17.73 26.737,17.32 26.915,17.35 	"/>
	<polygon fill="#232734" points="30.223,19.326 30.573,18.992 31.139,18.892 31.128,18.863 30.956,19.099 30.303,19.338 
		30.213,19.298 	"/>
	<polygon fill="#232734" points="36.229,22.267 36.678,21.921 37.049,22.015 37.041,21.99 36.921,22.117 36.393,22.281 
		36.223,22.246 	"/>
	<polygon fill="#232734" points="34.965,21.58 34.848,21.709 34.318,21.876 34.146,21.838 34.152,21.855 34.409,21.575 
		34.975,21.605 	"/>
	<polygon fill="#232734" points="25.062,19.118 25.263,18.738 25.803,18.597 25.79,18.564 25.557,18.871 25.234,19.093 
		25.054,19.094 	"/>
	<polygon fill="#232734" points="37.945,22.493 38.671,22.411 38.665,22.391 38.096,22.537 37.936,22.455 	"/>
	<polygon fill="#232734" points="34.745,23.774 35.221,23.396 35.387,23.431 35.377,23.399 35.113,23.683 34.736,23.751 	"/>
	<polygon fill="#232734" points="28.835,20.17 28.678,20.424 28.328,20.534 28.409,20.27 28.848,20.206 	"/>
	<polygon fill="#232734" points="31.414,22.223 31.245,22.49 30.887,22.609 30.889,22.408 31.43,22.26 	"/>
	<polygon fill="#232734" points="19.927,21.423 19.607,22.028 19.527,22.06 19.458,21.902 19.768,21.452 19.938,21.453 	"/>
	<polygon fill="#232734" points="39.975,24.69 39.427,24.859 39.43,24.87 39.979,24.7 	"/>
	<polygon fill="#232734" points="39.427,24.859 39.115,25.039 38.984,24.955 39.078,24.806 39.43,24.87 	"/>
	<polygon fill="#232734" points="25.054,19.094 24.832,19.495 24.588,19.533 24.6,19.564 24.816,19.148 25.062,19.118 	"/>
	<polygon fill="#232734" points="27.874,22.886 28.035,22.661 28.298,22.786 28.047,22.911 27.874,22.884 	"/>
	<polygon fill="#232734" points="33.805,26.003 33.559,26.091 33.131,25.906 33.463,25.831 	"/>
	<polygon fill="#232734" points="35.318,22.713 35.395,22.551 35.682,22.438 35.672,22.41 35.307,22.673 	"/>
	<polygon fill="#232734" points="36.064,23.223 36.046,23.068 36.189,23.021 36.211,23.11 	"/>
	<polygon fill="#232734" points="32.871,22.558 32.941,22.393 33.24,22.295 33.229,22.264 33.098,22.493 32.861,22.529 	"/>
	<polygon fill="#232734" points="31.43,22.26 31.505,22.094 31.795,21.985 31.787,21.965 31.711,22.122 31.414,22.223 	"/>
	<polygon fill="#232734" points="36.268,25.554 36.174,25.577 36.164,25.48 36.299,25.367 36.312,25.46 	"/>
	<path fill="#232734" d="M31.938,23.321l-0.268-0.148L31.938,23.321z"/>
	<polygon fill="#232734" points="27.102,21.346 27.251,21.108 27.338,21.072 27.089,21.305 	"/>
	<polygon fill="#232734" points="25.444,22.3 25.584,22.054 25.673,22.027 25.731,22.162 25.437,22.275 	"/>
	<polygon fill="#232734" points="23.349,22.797 23.478,22.706 23.496,22.771 23.341,22.772 	"/>
	<polygon fill="#232734" points="22.938,21.523 23.015,21.534 22.975,21.59 	"/>
	<polygon fill="#232734" points="33.344,25.447 33.273,25.463 33.332,25.376 	"/>
	<polygon fill="#232734" points="34.43,25.834 34.436,25.761 34.49,25.798 	"/>
	<polygon fill="#232734" points="24.773,20.716 24.788,20.644 24.835,20.678 	"/>
	<polygon fill="#232734" points="25.236,20.727 25.248,20.664 25.294,20.699 	"/>
	<polygon fill="#232734" points="27.089,21.305 26.94,21.428 26.917,21.348 27.102,21.346 	"/>
	<polygon fill="#232734" points="34.706,24.914 34.719,25.006 34.63,25.035 34.617,24.942 	"/>
	<polygon fill="#232734" points="29.268,21.459 29.188,21.453 29.227,21.392 	"/>
	<polygon fill="#232734" points="34.639,23.944 34.736,24.072 34.633,24.101 34.654,23.939 	"/>
	<polygon fill="#232734" points="34.736,23.751 34.639,23.944 34.654,23.939 34.535,23.814 34.745,23.774 	"/>
	<polygon fill="#232734" points="32.861,22.529 32.736,22.636 32.711,22.534 32.871,22.558 	"/>
	<polygon fill="#232734" points="35.387,23.431 35.536,23.324 35.559,23.403 35.377,23.399 	"/>
	<polygon fill="#232734" points="34.756,22.844 34.627,22.966 34.593,22.854 34.766,22.871 	"/>
	<polygon fill="#232734" points="34.766,22.871 35.04,22.794 35.027,22.757 34.756,22.844 	"/>
	<polygon fill="#232734" points="35.04,22.794 35.318,22.713 35.307,22.673 35.027,22.757 	"/>
	<polygon fill="#232734" points="35.682,22.438 35.954,22.354 35.945,22.327 35.672,22.41 	"/>
	<polygon fill="#232734" points="35.954,22.354 36.229,22.267 36.223,22.246 35.945,22.327 	"/>
	<polygon fill="#232734" points="35.238,21.487 34.965,21.58 34.975,21.605 35.252,21.525 	"/>
	<polygon fill="#232734" points="37.049,22.015 37.322,21.925 37.316,21.91 37.041,21.99 	"/>
	<polygon fill="#232734" points="31.404,18.784 31.128,18.863 31.139,18.892 31.411,18.805 	"/>
	<polygon fill="#232734" points="30.15,18.119 29.873,18.196 29.884,18.231 30.159,18.145 	"/>
	<polygon fill="#232734" points="31.682,18.71 31.404,18.784 31.411,18.805 31.684,18.712 	"/>
	<polygon fill="#232734" points="33.835,19.857 34.107,19.768 34.104,19.754 33.828,19.836 	"/>
	<polygon fill="#232734" points="36.607,28.885 36.971,29.076 37.607,30 37.659,30.357 37.693,30.344 37.52,30.247 37.445,30.182 
		36.604,28.966 36.639,28.873 	"/>
	<polygon fill="#232734" points="31.466,27.771 31.814,27.961 32.646,28.954 32.438,28.958 32.354,28.909 31.484,27.945 
		31.492,27.764 	"/>
	<polygon fill="#232734" points="38.594,29.445 38.751,29.559 39.488,30.684 39.486,30.868 39.325,30.764 38.58,29.631 	"/>
	<polygon fill="#232734" points="31.666,26.961 32.45,27.564 32.712,27.854 32.346,27.754 32.184,27.637 31.666,27.048 
		31.691,26.951 	"/>
	<polygon fill="#232734" points="29.691,27.268 28.917,26.682 28.624,26.423 28.628,26.248 28.602,26.258 29.375,26.847 
		29.67,27.104 29.659,27.28 	"/>
	<polygon fill="#232734" points="36.639,28.873 36.273,28.718 35.902,28.158 36.248,28.247 36.63,28.791 36.607,28.885 	"/>
	<polygon fill="#232734" points="38.225,31.082 37.9,30.863 37.688,30.527 37.693,30.344 37.659,30.357 38.072,30.575 
		38.189,31.092 	"/>
	<polygon fill="#232734" points="32.52,30.593 31.958,30.023 31.993,29.857 31.963,29.869 32.204,30.033 32.492,30.426 
		32.486,30.604 	"/>
	<polygon fill="#232734" points="32.37,32.493 32.189,32.454 31.848,31.984 32.1,32.016 	"/>
	<path fill="#232734" d="M39.732,31.193l0.365,0.684L39.732,31.193z"/>
	<polygon fill="#232734" points="38.648,32 38.301,31.359 38.27,31.369 38.624,32.01 	"/>
	<polygon fill="#232734" points="35.544,31.762 36.109,32.082 36.163,32.32 36.197,32.309 35.645,31.986 35.577,31.75 	"/>
	<polygon fill="#232734" points="32.752,30.975 33.148,31.197 33.195,31.438 33.227,31.426 32.826,31.205 32.783,30.963 	"/>
	<polygon fill="#232734" points="38.329,29.076 38.611,29.488 38.378,29.329 	"/>
	<polygon fill="#232734" points="39.468,30.823 39.751,31.234 39.512,31.08 	"/>
	<polygon fill="#232734" points="29.659,27.28 29.902,27.423 29.938,27.51 29.855,27.535 29.691,27.268 	"/>
	<polygon fill="#232734" points="31.698,29.502 31.922,29.635 31.963,29.869 31.993,29.857 31.756,29.729 31.734,29.49 	"/>
	<polygon fill="#232734" points="34.764,31.551 34.523,31.389 34.492,31.305 34.671,31.312 34.734,31.561 	"/>
	<polygon fill="#232734" points="35.021,31.92 34.789,31.79 34.764,31.551 34.734,31.561 34.904,31.631 35.003,31.928 	"/>
	<polygon fill="#232734" points="32.486,30.604 32.715,30.74 32.752,30.975 32.783,30.963 32.557,30.828 32.52,30.593 	"/>
	<polygon fill="#232734" points="32.831,33.048 32.551,32.802 32.799,33.061 	"/>
	<polygon fill="#232734" points="32.816,31.959 32.832,32.037 32.741,31.98 	"/>
	<polygon fill="#232734" points="32.316,31.291 32.262,31.324 32.219,31.232 32.294,31.215 	"/>
	<polygon fill="#232734" points="31.407,30.309 31.396,30.371 31.354,30.341 	"/>
	<polygon fill="#232734" points="35.577,31.75 35.464,31.633 35.566,31.602 35.544,31.762 	"/>
	<polygon fill="#232734" points="31.734,29.49 31.629,29.363 31.695,29.336 31.698,29.502 	"/>
	<polygon fill="#232734" points="38.301,31.359 38.225,31.082 38.189,31.092 38.27,31.369 	"/>
	<polygon fill="#232734" points="36.083,28.934 36.01,28.928 36.049,28.868 	"/>
	<polygon fill="#232734" points="21.867,27.715 22.251,27.954 23.934,30.333 23.993,30.703 23.698,30.452 22.916,29.322 
		21.875,27.896 	"/>
	<polygon fill="#232734" points="19.002,31.021 18.835,30.92 17.664,29.314 17.848,29.287 18.015,29.389 18.953,30.662 
		18.984,31.027 	"/>
	<polygon fill="#232734" points="22.702,32.275 22.449,32.123 21.623,30.538 21.649,30.354 21.622,30.363 21.863,30.521 
		22.642,32.005 22.666,32.287 	"/>
	<polygon fill="#232734" points="19.918,29.689 20.091,29.78 20.789,30.848 20.797,30.945 20.62,30.934 19.922,29.863 
		19.941,29.682 	"/>
	<polygon fill="#232734" points="20.744,28.984 21.104,29.176 21.578,30.002 21.646,30.184 21.622,30.363 21.649,30.354 
		21.342,30.109 20.756,29.07 20.777,28.975 	"/>
	<polygon fill="#232734" points="25.38,32.775 25.54,32.883 26.195,33.827 26.188,33.924 25.822,33.699 25.397,33.059 	"/>
	<polygon fill="#232734" points="19.677,29.312 19.431,29.166 18.993,28.657 18.977,28.48 18.943,28.492 19.51,28.792 
		19.683,29.152 19.65,29.322 	"/>
	<polygon fill="#232734" points="20.777,28.975 20.538,28.82 20.235,28.35 20.44,28.366 20.784,28.898 20.744,28.984 	"/>
	<polygon fill="#232734" points="23.39,33.561 23.004,33.006 23.037,32.924 23.021,32.93 23.397,33.492 23.356,33.574 	"/>
	<polygon fill="#232734" points="23.037,32.924 22.657,32.443 22.702,32.275 22.666,32.287 23.052,32.764 23.021,32.93 	"/>
	<polygon fill="#232734" points="24.768,31.766 25.132,32.45 24.744,31.941 	"/>
	<polygon fill="#232734" points="23.356,33.574 23.761,33.797 23.801,34.039 23.835,34.025 23.45,33.8 23.39,33.561 	"/>
	<polygon fill="#232734" points="18.901,26.405 19.342,26.746 18.927,26.57 18.927,26.396 	"/>
	<polygon fill="#232734" points="23.976,30.659 24.136,30.759 24.259,31.072 24.034,30.912 	"/>
	<polygon fill="#232734" points="18.977,28.48 18.741,28.337 18.703,28.256 18.83,28.211 18.943,28.492 	"/>
	<polygon fill="#232734" points="24.24,31.027 24.393,31.129 24.522,31.441 24.288,31.282 	"/>
	<polygon fill="#232734" points="24.504,31.396 24.732,31.557 24.786,31.811 24.548,31.652 	"/>
	<polygon fill="#232734" points="19.65,29.322 19.884,29.453 19.918,29.689 19.941,29.682 19.714,29.549 19.677,29.312 	"/>
	<polygon fill="#232734" points="25.115,32.408 25.398,32.82 25.245,32.718 	"/>
	<polygon fill="#232734" points="23.213,31.945 23.198,32.021 23.148,31.984 	"/>
	<polygon fill="#232734" points="24.249,26.253 24.522,26.375 25.195,26.798 25.68,27.29 26.084,27.723 26.184,28.078 26.089,28.09 
		25.761,27.727 25.479,27.452 24.942,26.873 24.359,26.493 24.277,26.242 	"/>
	<polygon fill="#232734" points="29.366,33.968 28.846,33.691 28.486,33.213 28.691,33.201 28.852,33.316 29.332,33.805 
		29.333,33.98 	"/>
	<polygon fill="#232734" points="27.902,34.568 27.508,34.343 27.458,34.107 27.43,34.117 27.833,34.342 27.869,34.582 	"/>
	<polygon fill="#232734" points="27.458,34.107 27.22,33.971 27.208,33.845 27.297,33.84 27.43,34.117 	"/>
	<polygon fill="#232734" points="26.76,33.467 26.733,33.389 26.812,33.377 26.844,33.453 	"/>
	<polygon fill="#232734" points="28.255,32.785 28.246,32.848 28.198,32.811 	"/>
	<polygon fill="#232734" points="27.407,31.453 27.334,31.445 27.375,31.387 	"/>
	<polygon fill="#232734" points="29.848,32.621 29.77,32.451 29.834,32.475 29.816,32.63 	"/>
	<polygon fill="#232734" points="28.241,30.992 28.303,30.998 28.266,31.05 	"/>
	<polygon fill="#232734" points="27.265,29.221 27.366,29.342 27.327,29.385 27.3,29.21 	"/>
	<polygon fill="#232734" points="27.3,29.21 27.191,29.076 27.264,29.043 27.265,29.221 	"/>
	<polygon fill="#232734" points="17.391,20.394 17.37,20.598 16.812,21.104 16.775,21.025 17.116,20.467 	"/>
	<polygon fill="#232734" points="17.808,19.747 17.729,19.768 17.717,19.69 17.794,19.664 	"/>
	<polygon fill="#232734" points="18.812,18.673 18.736,18.69 18.792,18.599 	"/>
	<polygon fill="#232734" points="43.863,29.396 43.775,29.415 43.752,29.33 	"/>
	<polygon fill="#232734" points="40.668,29.854 41.052,30.059 41.039,30.298 41.032,30.539 40.652,30.032 	"/>
	<path fill="#232734" d="M41.016,30.495l0.365,0.687L41.016,30.495z"/>
	<polygon fill="#232734" points="40.018,30.23 40.368,30.869 40.396,30.859 40.012,30.3 40.052,30.219 	"/>
	<polygon fill="#232734" points="40.451,31.145 40.693,31.303 40.582,31.586 40.479,31.137 	"/>
	<polygon fill="#232734" points="39.486,29.492 39.721,29.625 39.754,29.859 39.784,29.85 39.559,29.716 39.523,29.479 	"/>
	<polygon fill="#232734" points="39.754,29.859 39.906,29.939 40.018,30.23 40.052,30.219 39.822,30.086 39.784,29.85 	"/>
	<polygon fill="#232734" points="40.368,30.869 40.451,31.145 40.479,31.137 40.396,30.859 	"/>
</g>
</svg>
