<svg id="_ÎÓÈ_1" data-name="—ÎÓÈ_1" xmlns="http://www.w3.org/2000/svg" viewBox="0 0 25.46 28.05"><defs><style>.cls-1{fill:#232734;}</style></defs><title>leaf5</title><path class="cls-1" d="M159.18,283.36l-0.12.76-0.32.71-0.31.62-0.46.64-0.43.67-0.41.23-0.8.08-0.71-.88,0-.8,0.15-.29,0.07-.77,0.46-1.09,0.28-1.09,0.27-.6,0.34-.71,0.23-.64-0.39-.2-0.73.3-0.34.17-0.78.62-1.11.84-1.5,1.56-0.85,1.55-0.14.47-0.22,1.32,0.06,0.74-0.06.58,0.34,1.2v0.46l0.24,0.5,0.14,1,0.1,1.06-0.11.28v1l0.07,0.43-0.29,1.75-0.52,1-0.12.71-0.33.93-0.14.48-1.8,2-0.72.34-1.16-.13-0.44-.1-1.12-1.24-0.09-.82v-0.49l0.16-1.14-0.69-.3-0.32-.28-0.16-.48,0.17-.68,1.49-1.76,0.9-1.56,0-.2,0.1-.17,0.29-1.45-0.09-.43,0.1-.95v-0.39l0.16-1.16,0.07-.37,0.14-.26,0.05-.28-0.2-.5-0.95-.27-0.2-.22-0.13-.83,0.54-1,0.59-.78,1.06-.9,0.92-.76,0.36-.33,0.94-.54,0.7-.37,1.35-.63,0.32-.36-0.41-.8,0.19-.42,0.1-.36,0.22-.23,1.45-1,0.26-.13,1.21-.42,0.58-.13,1.25-.28,0.86-.18,1.65-.28,2.17-.59,1.26-.56,0.47-.16,1.65-.38,0.48,0,2.16,0.2,0.18,0.06,1,0.32,0.07,0.26,0.07,0.59-0.07.23-0.43.07-0.78.43-0.85-.14-0.94-.12-0.65-.11-2.45.53-1.79,1.24-0.68.71-0.64,1-1.07,1.91-0.39,2.33,0.06,0.62h0Zm-1.31-1.61-0.23.16-0.36-.21,0,0.67,0.38-.48,0.23-.17,0.24-.16,0.61-.21V280.9l-0.56.42,0,0.26-0.23.16h0Zm-9.45,1.06-0.16.05,0.05,0.05,0.08-.14,0.23-.17,0.28,0,0.54-.26,0.37,0.12-0.16.09-1.48.79-1,.76-0.21.33L147,284.7l3-1.8,0.2,0.15-0.83.53-1.05.54-0.08.05-1.12.82-0.09.14,0.18,0,1.15-.57,0.36-.15,1.06-.52,0.18-.06,0.2,0,0,0,0,0.1-0.82.54-0.61.31-0.7.36-0.08.17-0.16,0,0,0.06,0.1-.13,0.69,0.11,0.48-.26,0.28,0h0l-0.17.34-0.57.67,0,0.09,0.1,0.13,0.42-.22h0.29v0.08l-0.38.31-1,.76-0.06,1,0.63-.42,0.26,0.12-0.62.49-0.49.61,0,0.17,0.73-.31,0.19,0,0.18,0.1-1.09.82,0.06,0.46,1.33-.79,0.29-.52,0.21-.65,0.18-.35,0.47-1.29,0.24-.64,0.66-1.43,0.12-.27,1.31-1.76,1-.8,0.82-.7,1.33-1.11,1.29-.62,0.79-.41,0.19,0,0,0.54,0.41-.45,0.18,0,1-.76,0.1,0.15-0.1.16-1.59,1.33-0.16.24,0.06,0.15,1.07-.69,0.39,0,0.08-.07,0.62-1.1,0.62-1.11v-0.1l0.17,0,0-.07-0.12.14-0.28.07-1.65,1.23-0.35.14,0.09-.29,2.41-1.71,0.34,0,0.2-.19,1-.78,0.76-.39,0.79-.4,0.76-.2,0.68-.08,0.69-.1,1.17,0.15,1.17,0.2,0.2,0,0.19-.19-0.25-.53-1.2-.2-0.34.06-0.66-.2-0.49.07-0.48.09h-0.49l-0.74.26-0.59.14-0.5.28-1.43.88-1.61,1.16-0.18,0,0,0,0.06-.27,1.27-1-0.07-.15-0.53.15-1.43,1,0-.18,0.43-.39,0.15-.2-0.45,0-0.23.19-0.82.7-0.07,0,0-.09,0.37-.56-0.27-.06-1.06.23-1,.29-0.57.16-1.1.38-0.21.46-1,.76-0.21.2,0,0.19,0.26-.1,0.42-.26h0.28l-0.15.33-0.14.23-0.15,0,0.06,0.09,0.08-.13h0.27l0.74-.44,0.26,0h0l-0.1.16-0.56.41-0.06.18,0.14,0.26-0.32.39-1.76.53-0.9.39-0.79.4-1.72,1.18-0.49.48-0.24.17h0Zm8.08,2.34-0.16,0,0,0.06,0.09-.14,0.17-.06,0-.07-0.1.16h0Zm0.91,0.55-0.23.16-0.16.07,0.05,0,0.08-.15,0.23-.16,0.24-.16h0.1l0.28-.21,0.17-.5,0.26-.42,0.13-1,0-.12-0.24.09-0.53.44-0.42.41-0.51.43,0.17,0.09,0.36-.1h0l-0.06.4-0.23.16H157l-0.54.39,0.1,0.23,0.47-.35,0.06-.28,0.23-.16,0.35-.1,0.25,0.06-0.26.51-0.23.17h0Zm-11.59,9.18-0.15,0V295l0.13-.13,0.23-.16h0.1l0.54-.42,1.09-.84h0.09l0.13,0.1-1,.8-0.87.79-0.89.78-0.07.07-0.07.07-0.06.18,0.25,0.1,0.27-.27,0.39-.3,1.53-1.25,0.42-.24,0.17,0.07-0.71.67-0.81.71,0.26,0.25,0.52-.43,0.51-.47,0.18,0h0l-0.08.27-1.08,1-0.53.58,0,0.25,0.65-.58,0.73-.65,0.72-.52v0.25l-0.59.52-0.57.54-0.54.57-0.71.69-0.12.17,0,0.28,0,0.08h0.28l0.75-.78,0.6-.5h0.09l-0.09.27-0.68.71-0.71.81,0.05,0.28,0.68-.58,0.65-.6,0.72-.52,0.24,0.1-0.71.53-0.3.25-1.24,1.28,0.09,0.23,0.19,0,0.29-.26,0.6-.49h0.09l-0.12.35-0.19.42-0.23.16-0.15,0,0.06,0.08,0.08-.14,0.23-.16,0.25-.11,0.95-.83,0.18,0h0l-0.09.27-1.06,1-0.09.17,0,0.08,0.08,0,0.32-.22,1.46-1.31,0.08-.06,0.33,0.16,0.26-.09,0.26,0.25-0.23.16-0.23.16-0.48.53-0.23.16-0.15,0,0,0.05,0.09-.13,0.24-.16,0.48-.53,0.23-.16,0.24-.16,0.16-.08,0.19-.55,0.29-.73,0.19-.44-0.05-.24,0.23-.51,0.13-.48,0.14-.54,0.09-.5,0.12-.42v-0.59l0.12-1.08v-0.39l0-.69,0-.69,0-.29-0.34-.84,0-.49-0.23-.74-0.15-1.41,0-.95-0.08-.09-0.28,1.18-0.74,2.06-0.18.31-0.13,1.33-0.12.26,0.13,0.89,0.08,0.88-0.05.91,0.13,1.27-0.29.22-0.24-.33L149,293.8l0-.69,0-.69-0.24-.27-0.68.55-1.13,1-0.81.85,0,0.19-0.23.16h0Zm2.53,5.46-0.15,0v0.06l0.12-.14,0.13-.12-0.11.15h0Zm9.36-17.83,0.27-.1,0.18,0-0.09.29-1.6,1.59v0.19l0.16,0,0.68-.56,1.2-.83,0.16-.33-0.32-.45,0.25-.29v-0.28l-0.2.09-0.61.49-0.06.29h-0.09l0,0,0-.08h0Zm0-1.4h0.18l0.66-.51,0.43-.13,0.3-.49-0.07-.16-1.41,1-0.07.29-0.15.07,0,0.06,0.09-.15h0ZM147.6,291.88l0.58-.51,0.68-.38,0.21-.44,0.15-.56-0.08-.13-0.71.52-0.67.58-0.11.16-0.06.77h0Zm0.94,0.1,0.37-.11v-0.5l-0.18,0-0.6.48-0.51.45-0.15.12-0.26.61,0.16,0,0.38-.3,0.79-.67h0Zm8.31-5.68-0.05-.05,0,0.07,0.07,0h0Zm0.08-3.14,0.05-.06-0.07,0,0,0.08h0Z" transform="translate(-144.42 -273.23)"/><polygon class="cls-1" points="5.01 11.95 5.06 11.76 5.12 11.69 6.04 11.17 6.24 11.2 6.28 11.27 5.21 11.94 5.02 11.96 5.01 11.95 5.01 11.95"/><polygon class="cls-1" points="10.79 5.04 10.81 4.95 11.83 4.42 12.03 4.58 10.98 5.07 10.79 5.05 10.79 5.04 10.79 5.04"/><polygon class="cls-1" points="14.3 4.63 14.34 4.34 15.05 3.8 15.23 3.77 15.23 3.76 15.14 4.03 14.37 4.61 14.28 4.6 14.3 4.63 14.3 4.63"/><polygon class="cls-1" points="11.56 3.96 11.06 4.39 10.95 4.45 10.68 4.42 10.7 4.44 10.72 4.34 11.2 4.02 11.58 3.99 11.56 3.96 11.56 3.96"/><polygon class="cls-1" points="9.81 4.89 9.84 4.8 10.41 4.44 10.7 4.44 10.68 4.42 10.66 4.51 10.1 4.89 9.8 4.88 9.81 4.89 9.81 4.89"/><polygon class="cls-1" points="14.08 5.78 13.68 5.74 14.17 5.39 14.08 5.78 14.08 5.78"/><polygon class="cls-1" points="5.84 10.69 6.17 10.63 5.82 10.67 5.84 10.69 5.84 10.69"/><polygon class="cls-1" points="5.05 12.98 5.17 12.85 5.21 12.91 5.04 12.96 5.05 12.98 5.05 12.98"/><polygon class="cls-1" points="14.28 4.6 14.17 4.75 14.13 4.67 14.3 4.63 14.28 4.6 14.28 4.6"/><polygon class="cls-1" points="11.58 3.99 11.66 3.86 11.72 3.87 11.56 3.96 11.58 3.99 11.58 3.99"/><polygon class="cls-1" points="15.45 3.59 15.23 3.76 15.23 3.77 15.47 3.61 15.45 3.59 15.45 3.59"/><polygon class="cls-1" points="15.68 3.43 15.45 3.59 15.47 3.61 15.7 3.45 15.68 3.43 15.68 3.43"/><polygon class="cls-1" points="4.16 25.73 4.19 25.55 4.32 25.39 5.09 24.79 5.18 24.76 5.26 24.78 5.28 24.86 5.25 24.95 4.25 25.73 4.16 25.72 4.16 25.73 4.16 25.73"/><polygon class="cls-1" points="3.12 25.96 3.28 25.62 3.66 25.31 3.84 25.27 3.82 25.25 3.68 25.61 3.21 25.95 3.11 25.95 3.12 25.96 3.12 25.96"/><polygon class="cls-1" points="3.6 21.81 4.03 21.28 4.29 21.33 4.27 21.29 3.77 21.75 3.59 21.79 3.6 21.81 3.6 21.81"/><polygon class="cls-1" points="3.25 23.96 3.73 23.44 3.72 23.42 3.23 23.95 3.25 23.96 3.25 23.96"/><polygon class="cls-1" points="4.29 24.95 4.39 24.68 4.69 24.7 4.28 24.93 4.29 24.95 4.29 24.95"/><polygon class="cls-1" points="3.97 23.28 4.05 23.01 4.35 23.04 3.95 23.26 3.97 23.28 3.97 23.28"/><polygon class="cls-1" points="3.84 25.27 4.07 25.11 4.05 25.09 3.82 25.25 3.84 25.27 3.84 25.27"/><polygon class="cls-1" points="4.28 24.93 4.05 25.09 4.07 25.11 4.29 24.95 4.28 24.93 4.28 24.93"/><polygon class="cls-1" points="3.95 23.26 3.72 23.42 3.73 23.44 3.97 23.28 3.95 23.26 3.95 23.26"/><polygon class="cls-1" points="4.29 21.33 4.39 21.18 4.45 21.24 4.27 21.29 4.29 21.33 4.29 21.33"/><polygon class="cls-1" points="12.96 11.45 13.15 11.3 13.29 11.39 13.22 11.45 12.96 11.45 12.96 11.45 12.96 11.45"/><polygon class="cls-1" points="13.72 9.18 13.98 8.98 13.72 9.18 13.72 9.18"/></svg>