<?xml version="1.0" encoding="utf-8"?>
<!-- Generator: Adobe Illustrator 15.0.2, SVG Export Plug-In . SVG Version: 6.00 Build 0)  -->
<!DOCTYPE svg PUBLIC "-//W3C//DTD SVG 1.1//EN" "http://www.w3.org/Graphics/SVG/1.1/DTD/svg11.dtd">
<svg version="1.1" id="Layer_1" xmlns="http://www.w3.org/2000/svg" xmlns:xlink="http://www.w3.org/1999/xlink" x="0px" y="0px"
	 width="43.918px" height="43.918px" viewBox="0 0 43.918 43.918" enable-background="new 0 0 43.918 43.918" xml:space="preserve">
<g>
	<path fill="#232734" d="M12.376,22.169l-0.157-0.864l-1.129-1.812l-0.066-0.733l-0.38-1.397l-0.47-1.168l-0.036-0.458l0.462-1.795
		l0.026-1.055l-0.011-0.873l-0.214-0.184L8.05,10.887l-1.076-0.421l-0.996-0.35L5.462,9.877L5.386,9.439l0.287-0.582l0.306-0.203
		l0.145-0.016l1.9,0.603l1.039,0.503l1.093,0.597l0.213-0.104l0.009-0.325l0.287-0.539l0.226-0.205L11.1,9.09l1.136-0.199
		l0.209-0.009l0.719-0.126l0.521-0.093l2.225,0.643l2.15,1.109l0.455,0.268l1.082,0.381l1.042-0.073l1.567,0.701l0.703-0.247
		l0.204,0.004l1.243,0.254l1.01,0.54l1.051,0.871l0.174,0.114l0.871,0.584l0.445,0.28l0.762,0.559l0.803,0.827l0.63,0.705
		l0.63,0.707l0.393,0.349l0.444,0.782l0.685,0.448l0.375,0.564l0.201,0.367l0.569,1.354l0.207,0.482l0.972,1.5l0.098,0.421
		l0.731,1.188l0.216,0.688l0.354,0.872l0.368,1.64l0.215,0.922l0.204,1.994l0.124,0.822l0.056,0.307l0.535,1.146l0.19,0.373
		l0.391,0.651l-0.03,0.426l-0.319-0.074l-1.875-1.169l-0.086-0.062l-1.016-0.529l-0.768-0.346l-0.281-0.156l-0.818-0.075
		l-1.054-0.463l-0.94-0.126l-1.188-0.438l-0.41-0.094l-1.987-0.265l-0.41-0.103l-0.687-0.236l-0.799-0.241l-0.693-0.245L23.5,29.151
		l-1.199-0.406l-0.976-0.389l-0.794-0.257l-1.061-0.288l-0.377-0.301l-0.393-0.346l-0.595-0.588l-0.636-0.543l-0.687-0.48
		l-1.206-0.526l-0.964-0.89l-0.068-0.08L13.98,23.59l-0.505-0.377l-0.546-0.481L12.376,22.169L12.376,22.169z M8.962,10.25
		L8.82,10.144l-0.024,0.071l0.175-0.01l0.162,0.101l0.01-0.081L8.962,10.25L8.962,10.25z M7.847,9.714L7.555,9.653L7.379,9.387
		L6.493,9.099L6.309,9.543l1.055,0.108l0.197-0.034l0.294,0.056l0.16,0.114l0.021-0.081L7.847,9.714L7.847,9.714z M22.475,14.477
		l0.021-0.315l-0.081-0.041l-0.054,0.116l0.145,0.246l-0.086,0.256L22.561,15l0.168-0.003l-0.025-0.191L22.475,14.477L22.475,14.477
		z M30.018,18.112l0.413,0.938l0.146,0.269l0.194,0.084l0.134-0.225l-0.615-0.992l-0.278-0.026l-0.28-0.443l-0.45-0.388l0.532,1.124
		L30.018,18.112L30.018,18.112z M20.32,13.1l0.475,0.803l0.13,0.919l0.445,0.086l-0.135-1.117l-1.475-2.179l-0.094-0.037
		l-0.153,0.312l-0.147,0.477l0.089,0.192l0.314,0.545l0.188,0.594l0.129,0.502l0.207,0.216l0.263-0.042l-0.132-0.495L20.24,13.28
		L20.32,13.1L20.32,13.1z M24.605,13.086l-0.078-0.07l-0.396,0.006l-0.449-0.384l0.122,0.355l0.745,1.146l0.505,1.143l0.149,0.833
		l0.48,0.135l0.15-0.082L25.368,14.9l-0.146-0.519l-0.629-0.95l-0.059-0.194l0.077-0.189l1.166,1.809l0.058,0.363l0.303,0.886
		l0.146,0.273l0.232,0.161l0.072-0.415l-0.199-0.729l-1.451-2.159l-0.145-0.145L24.605,13.086L24.605,13.086z M15.561,10.159
		l1.406,2.188l0.052,0.355l0.493,0.67l-0.006-0.581l-0.712-1.167l-0.581-0.881l0.025-0.159l0.124,0.041l0.302,0.404l0.506,0.727
		l0.175,0.112l0.177,0.478l0.303,0.568l0.028,0.488l-0.339,0.435l0.246,0.177l0.394-0.2l0.192-0.602l-0.118-0.509L16.557,10.3
		l-0.63,0.003l-0.373-0.108l-0.142-0.111L15.36,10.13l0.028,0.07L15.561,10.159L15.561,10.159z M35.047,31.098l-1.405-2.096
		l-1.104-1.387L32.219,27.2l-0.438-0.49l0.043,0.595l0.651,1.1l0.183,0.573l0.312,0.548l0.165,0.54l0.436,0.654l0.55,0.49
		l0.479,0.142l0.084-0.199l0.374-0.09l0.675,0.953l0.387,0.101l-0.062-0.213l-0.6-0.582l-0.219-0.229L35.047,31.098L35.047,31.098z
		 M25.129,18.082l0.004-0.023l-0.871,0.597l-0.104,0.184l0.77,0.602l0.631-0.542l0.209,0.003l0.107,0.122l-0.623,0.546l0.004,0.099
		l0.701,0.448l0.448,0.521l0.414,0.109l1.175-0.778l0.373-0.196l0.104,0.004l-0.016,0.179l-1.113,0.739l-0.115,0.52l0.322,0.332
		l0.664-0.127l0.605-0.165l0.406,0.02l0.044,0.066l-0.038,0.094l-0.604,0.144l-0.356,0.24l-0.11,0.24l0.494,0.399l0.111,0.021
		l0.619-0.34l0.631-0.168l0.29-0.103l0.161,0.101l-0.106,0.132l-0.489,0.187l-0.6,0.182L29.19,22.53l-0.109,0.17l0.168,0.231
		l0.514-0.089l0.576-0.234l-0.047,0.16l-0.504,0.383l-0.094,0.178l0.348,0.332l0.405-0.111l1.062,0.471l-0.074,0.273l-0.487-0.172
		l-0.397-0.123l-0.075,0.172l0.499,0.326l1.47,0.83l0.71,0.438l0.557,0.299l1.42,0.686l0.203-0.015l-0.604-1.063l-1.732-1.004
		l-0.254-0.174l0.021-0.168l0.104-0.002l1.242,0.562l0.33,0.255l0.475,0.123l-0.291-0.548l-0.295-0.371l-0.615-0.403l-0.096-0.319
		l-1.295-0.649l-0.965-0.214l0.153-0.207l0.837,0.082l-0.014-0.198l-0.559-0.899l-0.628-0.703l-0.556-0.612l-1.047-0.443
		l-0.389-0.318l-0.439-0.859L28.4,18.224l-0.642-0.133l-0.694-0.239l-0.354-0.422l-0.594-0.174l-0.68-0.276l-0.719-0.169
		l-0.799-0.229l-0.834-0.445l-0.178-0.109l-0.291-0.047l-1.098,0.806l0.523,0.243l0.557-0.286l0.535-0.047l-0.057,0.188
		l-0.768,0.319l-0.086,0.161l0.29,0.108l0.296,0.052l1.635-0.397l0.083,0.249l-0.825,0.13l-0.545,0.362l-0.048,0.169l0.327,0.25
		l0.396,0.318l0.834-0.489L24.958,18L25.129,18.082L25.129,18.082z M20.952,22.887l0.136,0.275l-0.053,1.156l0.043,1.998
		l0.202,0.814l0.135,0.275l0.297,0.127l1.076,0.424l0.188,0.086l0.208-0.063l-0.145-1.244l0.043-0.306l0.172-0.021l0.441,1.604
		L24,28.584l0.543,0.281l0.317,0.012l-0.394-0.765l-0.246-2.007l-0.053-1.995l0.258-0.05l0.096,1.033l0.121,1.469l0.104,1.221
		l0.319,0.59l0.324,0.771l0.711,0.147l0.171-0.108l-0.154-0.708l-0.347-0.98l-0.216-0.811l-0.115-0.725l-0.078-0.83l0.045-0.322
		l0.166-1.043l0.133-0.122l0.117,0.144l-0.056,1.473l0.104,0.83l0.092,0.83l0.248,0.692l0.283,0.897l0.609,0.979l1.829,0.528
		l0.163-0.233l-0.697-1.535l0.085-0.17l-0.03-0.004l0.478,0.795l0.039,0.307l0.409,0.617l0.623-0.028L30,29.657l-0.586-0.979
		l-0.047-0.611l0.329,0.68l0.775,1.168l0.522,0.166l-0.33-0.646l-0.379-0.733l0.18,0.075l0.514,0.742l0.312,0.176l0.562,0.634
		l0.015-0.162l-0.73-1.164l-0.182-0.377l-0.209-0.703l-0.274-0.789l0.075-0.379l0.098,0.039l0.141,0.496l0.211,0.479l0.309,0.773
		l0.211,0.64l1.097,1.61l0.466,0.227l0.225-0.07l0.013-0.099l-0.608-1.104l-0.06-0.302l-0.569-0.985l-0.068-0.383l-0.248-0.422
		l-0.233-0.396l-0.073-0.377l-1.326-1.883L29.59,24.67l-0.072-0.367l-0.602-0.932l-0.271-0.316l-0.711-0.626l0.001,0.603L28,23.974
		l-0.114,0.157l0.012,0.002l-0.248-0.397l0.011-0.637l-0.234-0.468l-0.038-0.637l-0.438-0.225l-0.064,0.402l0.012,0.513l-0.12,0.152
		h0.003l-0.13-0.28l-0.122-1.047l-0.082-0.182l-0.447-0.191l-0.16,0.495l-0.166-0.1l-0.01-0.521l-0.299-0.49l-0.41,0.406l-0.103,0.3
		l-0.072,0.03l-0.144-0.149l0.105-0.957l-0.748-0.531l-0.347-0.201l-0.292,0.268l-0.175,0.022l-0.125-0.575l-1.356-1.01
		l-0.133,0.249l0.099,0.3l-0.007,1.052l-0.086,0.412l-0.25,0.101l-0.159-2.441l-0.255-0.29l-0.276-0.154l-0.957-0.647l-0.229-0.217
		l-0.273,0.022l-0.013,0.1l0.358,1.093l0.094,0.833l-0.091,0.16l-0.265-0.42L18.569,15.9l-0.627-0.371l-0.052,0.405l0.277,0.903
		l0.032,0.928l-0.207-0.152l-0.253-1.126L17.26,15.1l-0.215-0.337l-0.554-0.294l-0.059,0.421l0.2,0.921l-0.076,0.282l-0.174-0.117
		l-0.376-1.418l-0.436-0.866l-0.979-0.559l-0.319-0.011l0.393,0.746l0.276,1.271l-0.047,0.521l0.16,0.321l0.021,0.799l-0.115,0.161
		l0.004,0.001l-0.154-0.269l-0.186-1.138l-0.181-1.146l-0.231-0.805l-0.5-0.779l-0.725-0.057l0.373,0.719l0.076,0.558l-0.336-0.03
		l-0.303-1.03l-0.328-0.38l0.112,0.755l0.086,0.837l0.062,2.525l-0.024,0.316l0.033,1.261l0.144,1.15l0.277,1.229l0.583,1.338
		l0.066,0.081l0.099,0.034l0.023-0.155l-0.371-1.191l0.02-1.051l-0.012-0.842l-0.01-0.736l0.136-0.257l0.142,0.17l0.006,0.632
		l0.063,1.365l0.17,1.703l0.229,0.668l0.541,0.813l0.897,0.802l0.168-0.15l-0.374-1.625l-0.115-1.151l0.12-0.122l0.093,0.041
		l0.146,0.391l0.24,1.235l0.344,1.211l0.447,0.83l0.093,0.061l0.349-0.035l-0.073-0.192l-0.423-0.846l-0.27-1.122l-0.173-1.89
		l0.059-0.344l0.221,0.247l0.062,0.305l0.133,1.575l0.302,1.113l0.335,0.88l0.348,0.862l0.948,0.677l0.438,0.065l-0.26-1.539
		l0.038-0.205l0.249-0.11l0.097,0.731l0.093,0.732l0.18,0.711l0.433,0.76l0.519,0.273l0.228-0.033l0.007-0.589l-0.168-0.817
		l-0.033-1.215l0.183-0.648l0.147-1.143l0.078-0.07L20.952,22.887L20.952,22.887z M11.434,11.842l0.132,0.749l0.185,0.712
		l-0.043,0.183l-0.257,0.222l-0.271,1.12l-0.06,0.394l0.22,1.049l0.098,0.623l0.15,0.275l0.206-0.044l-0.031-1.806l0.189-0.089
		l0.079,0.396l0.053,1.363l-0.015,0.946l0.051,1.57l0.396,0.49l0.06-0.488l-0.211-1.449l0.008-2.524l-0.028-1.154l-0.13-1.151
		l-0.22-0.919l-0.087-0.181L11.434,11.842L11.434,11.842z M35.204,27.153l-1.234-0.619l-1.993-1.133l-0.38-0.078l0.016,0.1
		l0.457,0.422l0.387,0.473l1.516,0.893l0.429,0.514l0.738,0.578l0.685,0.789l0.288,0.002l0.041-0.53l-0.233-0.44l-0.17-0.414
		L35.204,27.153L35.204,27.153z M33.386,27.217l-0.021,0.072l0.822,1.207l0.547,0.633l1.072,1.514l0.554,0.309l-0.077-0.693
		l-0.812-1.221l-0.396-0.285l-0.748-0.729l-0.447-0.429L33.386,27.217L33.386,27.217z M24.784,16.207l0.094-0.316l-0.113-0.645
		l-0.439-0.776l-0.063-0.337l-0.269-0.442l-0.412-0.621l-0.734-0.57v0.194l0.627,0.966l0.537,1.24l0.154,0.814l0.072,0.225
		L24.784,16.207L24.784,16.207z M23.731,15.437l-0.079-0.722l-0.413-0.965l-0.632-0.952l-0.438-0.262l-0.105,0.158l0.49,0.823
		l0.065,0.329l0.35,0.621l0.562,1.062L23.731,15.437L23.731,15.437z M29.034,17.678l-0.283-1.406l-0.215-0.323l-0.166-0.266
		l-0.229-0.352l-0.301-0.276l-0.17,0.213l0.715,1.927l0.134,0.207L29.034,17.678L29.034,17.678z M20.375,15.771l-0.05-0.203
		l-1.038-0.687l-0.399,0.034l0.059,0.25l0.983,0.59l0.981,0.753l0.304,0.032l0.512-0.366l-0.042-0.067L20.375,15.771L20.375,15.771z
		 M21.235,13.071l0.087,0.366l0.327,1.192l0.069,0.494l0.399,0.013l-0.227-1.523l-1.111-1.637l-0.098-0.035l-0.011,0.093
		L21.235,13.071L21.235,13.071z M25.43,13.369l0.419,0.537l0.045,0.27l0.813,1.292l0.16,0.59l0.125,0.603l0.094,0.035l0.067-0.032
		l0.028-0.408l-0.409-1.415L26,13.678l-0.492-0.304L25.43,13.369L25.43,13.369z M18.551,12.839l0.044,0.262l0.18,0.702l0.241,0.13
		l0.104-0.26l-0.209-0.744l-0.673-1.004l-0.176-0.05L18.551,12.839L18.551,12.839z M27.952,17.097l-0.095-0.823l-0.53-0.867
		l0.273,1.424L27.952,17.097L27.952,17.097z M15.173,12.104l0.01-0.166l-1.176-1.737l-0.156-0.072l-0.002,0.107l1.225,1.825
		L15.173,12.104L15.173,12.104z M19.54,13.293l-0.751-1.118L19.54,13.293L19.54,13.293z M21.077,11.943l0.367,0.081l-0.018-0.285
		l-0.529-0.182L21.077,11.943L21.077,11.943z M16.62,13.16l0.028-0.138l-0.376-0.44L16.62,13.16L16.62,13.16z M32.854,21.755
		l0.061-0.19l-0.088-0.139l-0.141,0.106l0.027,0.188l0.074,0.062L32.854,21.755L32.854,21.755z M19.424,13.538l0.145,0.351
		l0.146,0.017l0.001-0.096l-0.152-0.248L19.424,13.538L19.424,13.538z M13.135,10.877l-0.225,0.121l0.149,0.23L13.135,10.877
		L13.135,10.877z M16.011,11.841l-0.044-0.191l-0.125-0.028l0.015,0.095L16.011,11.841L16.011,11.841z M11.895,11l-0.007-0.073
		l-0.046,0.021L11.895,11L11.895,11z M12.334,10.856l0.006,0.08l0.059-0.03L12.334,10.856L12.334,10.856z M12.491,10.379
		l0.021-0.075l-0.073-0.027l-0.018,0.075L12.491,10.379L12.491,10.379z M20.514,11.592l-0.08,0.002l0.034,0.065L20.514,11.592
		L20.514,11.592z"/>
	<polygon fill="#232734" points="14.958,16.938 15.074,17.109 15.145,18.557 15.082,18.754 15.017,18.792 14.936,18.743 
		14.879,18.548 14.846,17.094 14.961,16.939 	"/>
	<polygon fill="#232734" points="26.704,23.893 26.838,24.165 26.793,25.829 26.567,25.583 26.528,25.385 26.64,23.958 
		26.721,23.896 	"/>
	<polygon fill="#232734" points="19.292,20.953 19.575,20.844 19.268,22.41 19.066,22.21 	"/>
	<polygon fill="#232734" points="28.487,28.077 28.273,27.752 28.129,26.594 28.345,26.782 28.528,28 28.456,28.073 	"/>
	<polygon fill="#232734" points="22.793,22.75 22.967,22.64 23.094,22.659 23.208,23.256 22.944,23.586 22.761,23.586 	"/>
	<polygon fill="#232734" points="26.721,23.896 26.59,23.622 26.695,22.903 26.774,22.836 26.771,22.834 26.898,23.111 
		26.784,23.829 26.704,23.893 	"/>
	<polygon fill="#232734" points="27.881,24.129 27.959,24.812 27.809,24.704 27.815,24.2 27.894,24.131 	"/>
	<polygon fill="#232734" points="20.948,22.885 20.917,22.422 21.003,22.387 21.083,22.425 20.952,22.887 	"/>
	<polygon fill="#232734" points="18.566,19.464 18.6,19.529 18.466,19.659 18.365,19.632 18.396,19.533 	"/>
	<polygon fill="#232734" points="17.326,19.536 17.34,19.611 17.19,19.717 17.123,19.674 17.14,19.574 	"/>
	<polygon fill="#232734" points="18.243,21.249 18.185,21.281 18.059,21.144 18.175,21.075 	"/>
	<polygon fill="#232734" points="15.737,18.415 15.732,18.326 15.87,18.344 15.886,18.527 	"/>
	<polygon fill="#232734" points="16.443,18.203 16.351,18.178 16.467,18.112 	"/>
	<polygon fill="#232734" points="23.108,20.825 23.079,20.895 23.034,20.805 	"/>
	<polygon fill="#232734" points="25.129,18.082 25.564,18.034 25.602,18.112 25.561,18.177 25.189,18.139 25.133,18.058 	"/>
	<polygon fill="#232734" points="20.314,13.148 19.472,11.879 19.75,11.921 20.378,12.875 	"/>
</g>
</svg>
