<?xml version="1.0" encoding="utf-8"?>
<!-- Generator: Adobe Illustrator 15.0.2, SVG Export Plug-In . SVG Version: 6.00 Build 0)  -->
<!DOCTYPE svg PUBLIC "-//W3C//DTD SVG 1.1//EN" "http://www.w3.org/Graphics/SVG/1.1/DTD/svg11.dtd">
<svg version="1.1" id="Layer_1" xmlns="http://www.w3.org/2000/svg" xmlns:xlink="http://www.w3.org/1999/xlink" x="0px" y="0px"
	 width="62.666px" height="62.667px" viewBox="0 0 62.666 62.667" enable-background="new 0 0 62.666 62.667" xml:space="preserve">
<g id="mushroom2">
	<path fill="#232734" d="M16.252,12.934l1.346-0.38l1.559-0.636l0.795-0.264l1.08-0.264l1.378-0.191l1.407-0.05l1.549-0.031
		l0.69-0.102l1.51,0.018l0.268,0.078l1.251,0.138l1.102,0.182l0.697,0.214l1.092,0.076l0.68,0.155l0.544,0.117l1.085,0.261
		l2.353,0.898l0.495,0.264l1.223,0.66l0.718,0.431l1.399,0.636l0.366,0.199l0.603,0.356l1.463,0.823l1.396,0.929l1.182,0.747
		l0.243,0.137l1.844,1.51l0.901,0.662l2.191,2.853l1.294,1.512l1.021,1.506l0.346,0.609l0.259,0.492l0.64,1.079l0.381,1.197
		l0.257,0.94l0.353,0.912l0.512,1.739l0.26,1.657l0.162,0.822l-0.055,0.683l0.023,0.533l-0.115,0.546l-0.037,2.394l-0.066,1.264
		l-0.269,1.086l-0.396,0.886l-0.869,1.459l-1.254,1.316l-1.186,0.984l-2.784,2.133l-0.333,0.259l-2.176,1.268l-0.369,0.201
		l-1.246,0.627l-1.191,0.394l-0.255,0.11l-1.758,0.613h-0.989l-1.013,0.313l-0.276,0.034l-1.357,0.484l-2.212,0.032l-0.844,0.038
		l-0.629,0.173l-0.465-0.18l-0.454,0.106l-0.738-0.129l-3.085-0.062l-0.54-0.196l-0.977-0.113l-1.338-0.395l-2.268-0.706
		l-0.505-0.242l-1.241-0.611l-1.258-0.617l-0.888-0.323l-0.428-0.413l-0.729-0.659l-1.472-1.074l-3.486-2.814l-0.408-0.457
		l-0.227-0.817l-0.41-0.627l-1.352-2.282l-0.668-1.425l-0.604-0.701l-0.424-1.79l-0.279-1.506l-0.287-1.214l-0.209-0.46
		l-0.001-1.191l-0.177-0.817l-0.107-0.402l0.032-4.924l0.138-0.384L9.51,25.842l0.217-0.971l0.164-0.82l0.096-0.403l0.355-2.069
		l0.141-0.394l0.617-2.142l0.672-1.528l1.967-2.371l0.524-0.47l1.484-1.287L16.252,12.934L16.252,12.934z M35.359,13.982
		l-0.114-0.223l-0.073,0.083l0.229,0.098l0.09,0.206l0.076-0.065L35.359,13.982L35.359,13.982z M22.109,31.458L21.83,31.17
		l-0.123-0.477l0.15,0.447l0.287,0.282l0.286,0.278l0.097,0.242l0.084-0.074l-0.221-0.125L22.109,31.458L22.109,31.458z
		 M22.956,32.585l-0.098-0.23l-0.089,0.068l0.226,0.124l0.278,0.284l0.289,0.274l-0.008,0.604l-0.252-0.094l-0.978-1.188
		l-0.383-0.396h-0.956l-0.83,0.403l0.141,0.932l0.207,0.66l0.336,0.164l0.325-0.448l0.396-0.076l0.296-0.268l-0.021,0.021
		l0.396,0.017l0.157,0.317l-0.154,0.188l-0.906,0.527l-0.039,0.638l-0.131,0.03l-0.083,0.451l0.386-0.034l-0.185-0.458l0.428,0.044
		l0.637,1.038l0.415,0.093l0.604,0.763l1.045,0.656l0.199,0.153l0.164,0.5l0.978,0.611l0.062,0.67l-0.259,0.002l-0.215,0.11
		l0.082,0.078l0.241-0.021l0.122-0.198l0.363,0.188l0.376-0.1l0.285,0.409l-0.12,0.374l0.293,0.234l0.424,0.141l0.795,0.965
		l0.719,0.08l-0.041-0.04l-0.352,0.577l-0.057,0.209l0.895,0.309l0.623-0.059l0.205-0.41l0.41,0.031l-0.259,0.396l-0.053,0.391
		l0.028-0.03l-0.553,0.599l-0.279-0.006l-0.232,0.118l0.092,0.084l0.26-0.016l0.119-0.225l1.164,0.044l-0.041-0.042l0.146,0.211
		l0.718,0.342l0.868,0.333l-0.041-0.041l0.162,0.213l0.732,0.354h0.573l0.578,0.294h1.152l0.27-0.163l0.716,0.08l0.463,0.819
		l0.119-0.578l-0.237-0.359l-0.025-0.435l-0.224-0.385l0.16-0.324l0.547,0.06l-0.121,0.44l0.365,0.867l0.444,0.246l0.085,0.231
		l0.107-0.121l-0.228-0.074l-0.005-0.419l0.162-0.332l0.562,0.618l1.176-0.274l0.121-0.266l0.34-0.172l0.361,0.168l0.608-0.392
		l0.595,0.766l0.773-0.158l-0.421-0.545l-0.019-0.298l0.358-0.131l0.394,0.272h0.383l0.026,0.26l0.427,0.171l-0.487-0.398
		l0.435-0.288l0.355,0.127l0.158,0.629l0.334-0.425l0.695-0.35l0.638-0.003l0.122-0.058l0.296-0.462l0.397-0.024l0.388,0.218
		l0.561-0.739l0.446,0.327l-0.242,0.331l0.371,0.072l0.408-0.354l0.555-0.598l0.071-0.687l0.163-0.203l0.381,0.079l0.209,0.549
		l-0.463,0.601l0.776-0.369v-0.4l0.347-0.205l0.389,0.133l0.589-0.344l-0.404-0.112l-0.358-0.38l0.225-0.337l-0.723-0.887
		l0.133-0.375l0.711,0.064l0.115,0.118l0.2,1.217l0.634,0.493l0.662-0.292l-0.252-0.354l0.128-0.358l0.295-0.021l0.257,0.47
		l0.391-0.35l-0.236-0.475l0.395-0.413l0.373,0.094l0.107-0.561l0.429-0.324l-0.19-0.381l0.083-0.792l0.462-0.554l-0.023-0.157
		l-0.428-0.401l0.213-1.32l-0.199-0.341l0.171-0.502l-0.226-0.549l0.216-0.63l-0.424-0.31l0.116-0.66l-0.12-0.231l-0.397-0.102
		l0.043,0.05l0.235-0.637l0.004-0.296l-0.284-0.422L54.188,30.8l-1.051-0.951l0.284-0.574l-0.299-0.358l-0.281-0.292l-0.397-0.76
		l-0.358,0.113l-0.244-0.197l0.091-0.548l0.285-0.25l-0.625-0.829l-0.324,0.413l-0.736-0.253l-0.906-1.076l-0.99-1.102v-0.323
		l-0.025,0.026l0.462,0.277l1.298,1.043l0.168,0.222l0.132,0.532l0.445-0.237l-0.19-0.353l-0.131-0.813l-1.268-0.822l-0.54-0.67
		l-1.994-1.771l-0.081-0.254l0.129-0.05l0.084-0.444l-0.367-0.49l0.111,0.775l0.091,0.249l-0.444-0.042l-0.639-0.649l-0.082-0.474
		l0.506-0.124l-0.361-0.065l-0.123,0.211l-0.495-0.456l0.124-0.254l-0.341-0.084l-0.522,0.158l-0.35-0.215l-0.675-0.095
		l-0.257-0.322l0.148-0.259l-0.969-0.653l-0.357-0.65l-1.422-0.031l-0.832-0.276l0.043,0.045l0.178-0.325h0.66l0.445,0.166
		l-0.484-0.125l-0.135-0.208l-0.507-0.135l-0.621-0.722l-0.923-0.624h-1.475l-0.031-0.555l-0.385-0.317l-0.139,0.016l-0.088-0.209
		l-0.102,0.017l0.207,0.175l-0.113,0.254l0.041,0.364l0.082,0.256l-0.412-0.043l-1.164-0.457l-1.201-0.353l-1.338-0.377l-0.351-0.37
		l0.253-0.086l0.784,0.245l0.937,0.253l0.42-0.048l-1.426-0.74h-0.723l-0.506-0.284l-0.539,0.179l-0.75-0.034l-0.807-0.179
		l-1.109,0.047l-0.215,0.143l0.04,0.269l0.519-0.1l0.407,0.342l-1.724,0.043l0.115-0.63l-0.83-0.542l-0.575-0.568l-0.452,0.082
		l0.655,0.716l0.044,0.263l-0.352,0.215l-0.608-0.492L25.36,12.4l-0.228,0.339l-0.248,0.053l-0.184-0.171l-0.193-0.557l-0.598-0.33
		l-0.068,0.423l-0.054,0.412l-0.171,0.187l-0.248-0.062l-0.229-0.347l-0.256-0.014l-0.613,0.511l-0.729-0.598l-0.362-0.238
		l-1.23,0.708l-0.659,0.7v-0.669l-0.53-0.016v0.678l-0.973,0.498L17.505,13.9l-0.306-0.455h-0.293l-0.657,0.66l-0.06,0.439
		l0.037-0.04l-0.608,0.318l-0.144,0.217l0.246,0.451l0.686,0.314l-0.286,0.628l-0.376-0.038l-0.216-0.35l-0.085,0.044l-0.08,0.256
		l0.127,0.395l0.053,0.253l-0.12,0.253l0.104,0.303l0.37-0.208l0.533-0.099l0.696-1.503l1.657-1.661l-0.06-0.705l0.604,0.004
		l0.21,0.526l0.63,0.087l0.102,0.167l-1.157,0.352l-0.965,0.507l-0.266,0.467l0.091,0.386l0.783-0.208l-0.022-0.023L18.201,16.8
		l-0.068,1.825l-0.304,0.374l-0.431-0.361l0.491-0.666l-0.002-1.236l-0.043-0.13l-0.454-0.246l-0.529,1.111l0.158,1.1l-0.179,1.144
		l0.761,0.881l-0.285,0.625l0.027,0.276l0.519,1.285l0.596,1.232l-0.163,0.33l-0.414,0.065l0.025-0.424l-0.475-0.491l-0.08-0.247
		l-0.027,0.032l0.205-0.5l-0.621-0.473l-0.098-0.248l0.174-0.368l-0.131-0.249l-0.171-0.818l-0.243-0.796l-0.202-0.009l-0.032,1.051
		l-0.17,1.236l-0.412,0.058l-0.24,0.409l0.192,0.348l-0.11,0.521l0.436,0.285l0.441,0.641l0.262-0.162l1.312,0.171l-0.661,0.55
		l-0.521,0.303l-0.365,0.373l-0.135,0.214l-0.203,0.092l0.062,0.067l0.098-0.202l0.295,0.233l0.1,0.567l0.598-0.393l0.453,0.863
		l0.349,0.931l0.362,0.31l0.132,0.031l0.183,0.362l0.241,0.486l0.565,0.428l-0.154,0.697l0.201,0.461l-0.24,0.325l-0.396,0.263
		l0.361,0.207l0.456,0.221l1.209-0.816l-0.979-1.055l0.439-0.312l-0.16-0.341l-0.553-0.086l-0.239-0.121l-0.08-0.797l0.266-0.333
		l-0.02-0.141l-0.536-0.135l-0.303,0.465l-0.299,0.267v-0.988l0.469-0.271l-0.59-0.299l-0.416-1.085l0.178-0.169l0.244,0.072
		l0.284,0.439l0.718,0.045l-0.043-0.04l0.776,0.975l0.3,0.591l-0.15,0.515l1.072,1.479l0.021,0.149l-0.471-0.245l-0.023,0.363
		l0.343,0.061l0.112-0.226l0.134,0.025l0.651,0.683l0.809,1.097l0.834,1.082l0.399,0.543l0.028,0.275l-0.358-0.169l-0.24-0.114
		l-0.29-0.276L22.956,32.585L22.956,32.585z M18.48,30.007l0.165,0.217l0.014-0.098l-0.215-0.083l-0.12-0.502L18.48,30.007
		L18.48,30.007z M42.125,51.427l0.75-0.065l0.633-0.624l-0.146-0.082l-1.172,0.398l-0.03,0.409l-0.495,0.116L42.125,51.427
		L42.125,51.427z M46.387,46.634l-0.23,0.116l-0.881,1.418l-0.341,0.203l0.12-0.538l0.599-0.944l0.431-1.155l-0.196-0.207
		l-0.546,0.043l-0.811,0.201l-0.981,0.064l-0.413,0.062l-1.242,0.193l-0.692,0.066l-1.646,0.273L39.162,46.6l-0.414,0.065
		l-0.69,0.092l-0.167,0.199l0.039-0.037l-1.688-0.014l-0.693-0.062l-1.243-0.183l-0.961-0.181l-0.546-0.11l-2.12-0.642l-1.177-0.64
		l-1.239-1.013l-0.993-0.981l-0.797-0.978l-0.7-0.874l-0.356-0.428l-3.2-3.167l-0.213-0.183l-1.456-1.208l-0.738-1.112l-0.183-0.369
		l-0.358-0.906l-0.382-1.048l-0.306-0.628l-0.25-0.793l-0.588-1.414l-0.481-0.991l-1.679-2.735l-0.137-0.246l-0.899-2.19
		l-0.034-0.847l-0.25-1.108l-0.183-3.294l0.118-0.387l-0.353-0.778l-0.703,0.653l-0.018,0.138l-0.298,0.27l-0.459,0.044l-0.377,0.89
		l-0.002,0.294l0.467,0.638l-0.676,0.707l-0.584,1.103l-0.318,1.213l-0.331,2.437L10.389,26.8l0.35-0.057l0.053,0.253l-0.512,0.73
		l-0.242,0.638l0.027,2.06l0.519-0.107l-0.021-0.019l-0.165,0.948l-0.034,0.543l0.307,1.215l0.389-0.302l1.219-2.655l0.189-0.202
		l0.057,0.431l-0.101,0.253l-0.739,1.792l0.184,0.417l0.643-1.061l0.803-0.925l-0.051-0.13l0.258-0.257l0.412,0.87l-0.049,0.117
		l-0.432,0.274l0.148,0.829l-0.926,0.211l0.335,0.332l-1.456,0.175l-0.401,0.836l0.138,0.167l0.572-0.378l0.541,0.931l0.348-0.42
		l0.474-0.041l0.286,0.462l0.828,0.203l0.105,0.035l0.041,0.113l-0.404,0.784l-0.697,0.567l0.238,0.823l-0.722,0.236l0.562,0.158
		l0.179,0.344l-0.613,0.905l-0.23,0.148l-0.09,0.357l0.4,0.563l-0.203,0.367l0.318,0.622l0.234-0.368l0.23-0.12l-0.031-0.03
		l-0.131,0.987l0.7,1.278l1.068,1.458l3.16,3.163l1.492,0.991l0.783-0.546l0.476,0.137l-0.5-0.11l0.08-0.431l0.417-0.284
		l-0.348-0.244l0.388-0.821l0.338-0.193l-0.029-0.027l0.037,0.593l-0.229,0.093l0.066,0.077l0.121-0.21l0.754-0.23l0.734,0.007
		l0.413,0.17l0.698-0.668l0.25-0.085l-0.028-0.028l-0.139,0.523l-0.59,0.771l0.108,0.293l-2.104,0.246l0.638,0.141l0.79,0.277
		l0.646,0.17l0.393-0.144l-0.017-0.015v0.409l-1.377,1.159l-0.412,0.363l-0.062,0.232l1.322-0.08l0.529-0.111l0.016,0.017
		l-0.414,0.532l-0.085,0.208l0.203,0.208l0.852,0.423l0.726,0.076l0.859,0.06l-0.376,0.314l0.876,0.398l1.635,0.362l0.466,0.192
		l2.2-0.11l-0.526-0.133l-0.103-0.088l0.168-0.836l0.407-0.657l0.568-0.049l0.937,0.256l0.227,0.111l-0.128,0.504l0.12,0.13
		l0.412,0.079l-0.028-0.028L33.04,51.96l-0.941,0.484l0.56,0.111l1.387-0.028l0.876-0.685l1.37-1.344l0.27-0.316l0.24-0.124
		l-0.041-0.042l-0.027,0.411l-0.363,0.693l-1.207,1.011l0.891,0.116l0.361-0.178l1.237-0.885h0.278l-0.035-0.035l-0.083,0.25
		l-0.661,0.714l0.005,0.114l0.454,0.281l2.451-0.569l0.623-0.645l-0.191-0.537l0.904-0.195l0.302-0.483l0.813-0.062l0.396-0.502
		l0.445-0.089l0.342-0.451l0.561-0.095l0.479-0.453l0.246-0.105l-0.145,0.531l-0.163,0.346l0.211,0.541l-0.269,0.226l-0.391-0.173
		l-0.402,0.718l0.191,0.331l0.303,0.042l0.363-0.148l5.131-3.094l1.229-0.927L52.68,45.2l0.803-0.968l0.953-1.38l0.356-1.05
		l-0.058-0.117l-0.102-0.027l-0.605,0.344l-1.154,0.788l-1.109,0.597l-1.258,0.61l-1.311,0.469l-1.921,0.727l-0.851,0.18
		l0.074,0.633l-0.152,0.677L46.387,46.634L46.387,46.634z M12.256,35.825l-0.463-0.286l0.186-0.358l-0.492-0.606l-0.326,0.161
		l-0.005,0.417l0.245,0.491l0.17,0.513l0.121,0.055l0.277,0.011L12.256,35.825L12.256,35.825z M29.375,11.872l-0.088-0.082
		l-1.645-0.251l-0.105,0.059L27.5,11.86l1.176,0.407L29.375,11.872L29.375,11.872z M22.177,48.799l0.377,0.119l0.671-0.42
		l-1.053-0.315l0.448,0.301L22.177,48.799L22.177,48.799z M15.938,19.581l-0.377-0.209l-0.119,0.353l0.02,0.516l0.01,0.11
		l0.254,0.041l0.213-0.185V19.581L15.938,19.581z M32.016,51.971l0.203-0.315l-0.345-0.135l-0.339,0.219L31,51.83l0.073,0.141
		H32.016L32.016,51.971z M15.813,18.896l0.12-0.499L15.846,18.3l-0.086-0.016l-0.133,0.356L15.813,18.896L15.813,18.896z
		 M14.949,20.322l0.098-0.093l-0.004-0.128L14.973,20l-0.125,0.138L14.949,20.322L14.949,20.322z M15.6,21.129l-0.003-0.12
		l-0.126-0.147l-0.094,0.206l0.141,0.152L15.6,21.129L15.6,21.129z M13.064,36.119l-0.342-0.167l-0.104,0.176l0.088,0.091
		L13.064,36.119L13.064,36.119z M26.304,40.327l-0.431-0.004L26.304,40.327L26.304,40.327z M41.351,51.003l0.429,0.009
		L41.351,51.003L41.351,51.003z M33.896,45.953l-0.076-0.069l-0.009,0.129L33.896,45.953L33.896,45.953z M30.371,44.803l0.096,0.058
		l0.011-0.1L30.371,44.803L30.371,44.803z M27.614,42.362l0.058-0.096l-0.096-0.01L27.614,42.362L27.614,42.362z M17.219,26.992
		l-0.056,0.084l0.101,0.009L17.219,26.992L17.219,26.992z M15.49,24.586l0.05-0.076L15.46,24.5L15.49,24.586L15.49,24.586z
		 M49.13,22.265l-0.084-0.074l-0.087,0.064l0.121,0.079L49.13,22.265L49.13,22.265z M13.03,17.484l-0.084-0.055l-0.011,0.087
		L13.03,17.484L13.03,17.484z M14.039,16.648l0.067,0.056l0.013-0.087L14.039,16.648L14.039,16.648z M14.082,15.846l0.053-0.075
		l-0.086-0.013L14.082,15.846L14.082,15.846z M17.75,13.203l-0.056,0.061l0.087,0.013L17.75,13.203L17.75,13.203z M25.185,11.812
		l-0.083-0.069l-0.083,0.073l0.037,0.076L25.185,11.812L25.185,11.812z"/>
	<path fill="#232734" d="M21.302,26.626l-0.696,0.037l-0.37-0.148l0.017-0.287l0.433-0.305l-0.255-0.776l0.193-0.192l1.146-0.673
		l-0.345-0.948l-0.479,0.636l-0.143-0.023l-0.352-0.582l0.5-0.819l0.142-0.517l0.351-0.234l0.322-0.669l0.305,0.593l-0.129,0.282
		l0.932,0.532l0.039,0.15l-0.239,0.794l-0.679,1.545l-0.495,0.244l-0.517,0.615l0.285,0.775L21.302,26.626L21.302,26.626z
		 M21.42,22.194l-0.058,0.093l0.096,0.009L21.42,22.194L21.42,22.194z"/>
	<polygon fill="#232734" points="53.396,32.822 53.641,33.635 53.725,34.603 53.982,35.148 53.745,36.311 53.945,36.684 
		53.922,36.956 53.691,37.461 53.307,38.2 52.672,38.96 52.324,38.571 53.178,37.495 53.393,36.293 53.393,34.589 53.091,33.389 
		52.31,31.767 52.766,31.219 53.373,31.32 53.229,31.684 52.985,31.82 52.909,31.929 53.299,32.799 53.426,32.856 53.396,32.822 	
		"/>
	<polygon fill="#232734" points="36.523,43.256 36.481,43.575 36.516,43.536 35.484,43.397 35.623,43.152 35.236,42.8 33.422,42.02 
		33.239,41.701 33.533,41.65 34.685,42.147 35.609,42.443 36.412,42.658 38.615,43.028 38.885,43.1 39.047,43.585 39.014,43.865 
		39.054,43.815 38.664,43.792 37.691,43.295 36.484,43.295 36.386,43.09 36.302,43.156 36.523,43.256 	"/>
	<polygon fill="#232734" points="45.262,38.287 45.139,38.399 44.697,38.24 44.67,38.104 44.668,37.847 43.902,37.02 43.854,36.484 
		44.025,36.282 44.393,36.091 45.315,35.494 45.699,35.533 45.729,35.281 45.316,34.925 45.596,34.38 46.066,34.79 46.252,35.582 
		45.997,36.07 45.199,36.262 44.408,36.597 44.844,37.154 45.21,37.901 45.262,38.287 	"/>
	<polygon fill="#232734" points="33.211,25.357 33.482,25.073 34.074,25.42 34.182,25.401 34.395,25.056 34.648,24.956 
		35.266,24.507 34.926,23.953 35.479,23.865 35.922,24.65 35.922,25.55 35.576,26.023 34.98,25.767 33.891,26.044 33.211,25.357 	
		"/>
	<polygon fill="#232734" points="23.449,34.899 23.597,35.525 24.3,36.352 23.926,36.674 23.584,36.128 22.606,35.902 
		22.405,35.689 22.405,35.022 21.929,34.735 21.953,34.377 22.691,34.695 23.449,34.899 	"/>
	<polygon fill="#232734" points="23.794,33.954 24.073,33.628 24.08,33.383 24.216,33.405 24.329,33.47 25.729,34.961 25.354,35.18 
		25.533,35.49 25.779,35.957 25.809,35.928 25.41,35.928 23.794,33.954 	"/>
	<polygon fill="#232734" points="47.579,31.959 47.189,32.018 46.424,32.45 45.87,31.892 45.844,31.634 46.031,31.444 
		46.389,31.444 47.502,30.89 47.821,30.932 47.987,31.265 47.579,31.959 	"/>
	<polygon fill="#232734" points="34.23,29.166 34.27,29.874 34.783,30.469 34.798,30.603 34.828,30.57 34.061,30.423 33.805,30.508 
		33.25,29.701 32.818,29.441 32.855,29.478 32.847,28.714 33.144,28.356 33.098,28.316 33.58,28.989 33.541,29.37 33.916,29.392 
		34.267,29.198 34.23,29.166 	"/>
	<polygon fill="#232734" points="49.472,40.458 49.275,40.79 48.907,41.196 48.682,41.522 48.422,41.499 48.398,41.401 
		48.529,41.154 48.309,41.043 47.628,41.125 46.55,41.353 45.918,41.548 45.818,41.182 46.346,41.051 47.291,40.839 47.555,40.765 
		49.048,40.452 49.465,40.451 49.472,40.458 	"/>
	<polygon fill="#232734" points="28.305,36.767 28.376,37.158 30.08,38.427 30.449,38.841 30.43,38.94 30.307,38.979 29.223,38.356 
		27.916,37.298 27.771,36.784 27.762,36.795 28.352,36.814 28.305,36.767 	"/>
	<polygon fill="#232734" points="28.63,24.086 28.418,23.937 28.35,23.672 28.066,22.678 28.066,20.927 28.555,20.074 
		28.904,19.892 28.875,19.863 28.828,20.266 28.363,21.218 28.334,21.953 28.484,22.759 28.59,24.125 28.63,24.086 	"/>
	<polygon fill="#232734" points="32.818,29.441 32.818,29.836 32.092,30.49 31.613,30.246 31.677,29.728 31.744,29.288 
		32.084,29.167 32.465,29.437 32.855,29.478 32.818,29.441 	"/>
	<polygon fill="#232734" points="29.785,33.789 29.83,33.52 30.071,33.45 31.117,33.861 31.168,34.354 30.926,34.488 30.055,34.085 
		29.785,33.789 	"/>
	<polygon fill="#232734" points="38.745,32.296 40.115,32.408 40.493,32.411 41.588,32.295 41.559,32.263 41.48,32.49 
		40.855,32.767 39.806,32.664 38.884,32.483 38.771,32.267 38.745,32.296 	"/>
	<polygon fill="#232734" points="31.152,32.556 30.77,32.578 30.323,32.051 30.785,31.243 31.312,31.789 31.143,32.569 
		31.152,32.556 	"/>
	<polygon fill="#232734" points="47.281,29.293 47.75,29.048 47.826,28.765 48.541,28.764 48.302,29.369 47.842,29.648 
		47.61,29.969 47.279,29.67 47.281,29.293 	"/>
	<polygon fill="#232734" points="26.06,37.654 26.439,37.693 26.859,38.415 26.934,39.083 26.769,39.247 26.093,38.606 
		26.262,38.118 26.094,37.619 26.06,37.654 	"/>
	<polygon fill="#232734" points="41.871,22.398 41.6,22.381 39.537,21.392 40.07,21.31 41.762,22.194 41.837,22.434 41.871,22.398 	
		"/>
	<polygon fill="#232734" points="41.68,43.091 42.182,43.25 42.807,43.061 42.81,43.727 42.262,43.509 41.748,43.704 41.666,43.69 
		41.414,43.387 41.561,43.167 41.68,43.091 	"/>
	<polygon fill="#232734" points="37.076,31.706 36.506,31.706 35.014,30.896 34.828,30.57 34.798,30.603 35.073,30.62 
		37.037,31.595 37.055,31.73 37.076,31.706 	"/>
	<polygon fill="#232734" points="46.662,21.841 46.4,21.838 44.703,20.563 44.688,20.431 44.663,20.458 44.976,20.444 
		46.549,21.625 46.641,21.861 46.662,21.841 	"/>
	<polygon fill="#232734" points="37.336,27.785 38.294,27.86 39.374,28.077 39.466,28.242 39.341,28.331 38.291,28.331 
		37.393,27.892 37.361,27.758 37.336,27.785 	"/>
	<polygon fill="#232734" points="24.086,17.896 24.048,18.307 23.267,18.004 23.441,17.377 23.843,17.36 24.089,17.634 
		24.119,17.604 23.928,17.814 24.123,17.931 24.086,17.896 	"/>
	<polygon fill="#232734" points="21.857,33.397 20.872,33.397 20.718,33.036 21.436,32.637 21.844,32.877 21.836,33.418 
		21.857,33.397 	"/>
	<polygon fill="#232734" points="47.43,33.79 47.088,34.426 46.752,34.253 47.111,33.231 47.43,33.79 	"/>
	<polygon fill="#232734" points="23.045,20.84 23.463,21.2 23.015,21.267 22.279,20.947 22.432,20.291 22.527,20.196 22.811,20.232 
		23.045,20.84 	"/>
	<polygon fill="#232734" points="36.045,21.39 36.438,21.737 36.168,22.381 35.953,22.56 35.84,22.639 35.459,22.605 35.443,22.253 
		35.801,22.044 35.76,21.65 36.045,21.39 	"/>
	<polygon fill="#232734" points="20.025,24.675 19.658,24.536 19.779,23.986 19.664,23.741 19.705,23.362 19.818,23.3 
		20.158,23.464 20.025,24.675 	"/>
	<polygon fill="#232734" points="34.267,29.198 34.312,28.22 34.639,28.061 34.988,28.207 35.012,28.5 34.363,29.148 34.23,29.166 
		34.267,29.198 	"/>
	<polygon fill="#232734" points="37.055,31.73 38.718,32.165 38.745,32.296 38.771,32.267 37.107,31.836 37.076,31.706 
		37.055,31.73 	"/>
	<polygon fill="#232734" points="51.891,31.826 52.253,32.523 52.285,32.926 52.211,33.038 52.002,32.98 51.569,31.991 
		51.732,31.777 51.891,31.826 	"/>
	<polygon fill="#232734" points="31.143,32.569 31.515,32.403 32.217,32.742 31.965,33.119 31.695,33.107 31.152,32.556 
		31.143,32.569 	"/>
	<polygon fill="#232734" points="19.33,26.102 19.303,25.264 19.714,25.035 20.146,25.416 19.547,25.978 19.287,26.062 
		19.33,26.102 	"/>
	<polygon fill="#232734" points="24.85,27.928 24.803,27.795 25.078,27.581 25.477,28.43 25.375,28.537 25.109,28.582 
		24.889,28.413 24.85,27.928 	"/>
	<polygon fill="#232734" points="28.879,29.764 29.868,30.767 29.58,30.812 28.94,30.212 28.918,29.722 28.879,29.764 	"/>
	<polygon fill="#232734" points="25.812,27.468 25.571,27.391 25,26.328 25.055,26.213 25.148,26.205 25.781,27.23 25.779,27.5 
		25.812,27.468 	"/>
	<polygon fill="#232734" points="41.352,38.933 40.775,39.02 39.758,38.66 39.746,38.578 39.855,38.502 40.502,38.499 
		41.352,38.933 	"/>
	<polygon fill="#232734" points="46.668,43.116 46.75,42.848 46.855,42.775 47.43,43.383 46.938,43.411 46.668,43.116 	"/>
	<polygon fill="#232734" points="46.012,43.664 45.374,44.085 45.001,43.737 45.181,43.497 45.552,43.444 46.012,43.664 	"/>
	<polygon fill="#232734" points="39.014,43.865 39.498,43.608 39.844,43.788 39.875,44.056 39.478,44.335 39.054,43.815 
		39.014,43.865 	"/>
	<polygon fill="#232734" points="43.256,19.611 43.659,19.646 44.48,20.125 44.663,20.458 44.688,20.431 44.419,20.421 
		43.364,19.823 43.283,19.582 43.256,19.611 	"/>
	<polygon fill="#232734" points="28.352,36.814 28.511,36.347 29.413,36.948 29.375,37.205 29.271,37.244 28.819,36.935 
		28.305,36.767 28.352,36.814 	"/>
	<polygon fill="#232734" points="32.799,31.091 32.736,31.586 32.092,31.236 32.348,30.961 32.595,30.941 32.799,31.091 	"/>
	<polygon fill="#232734" points="30.166,35.832 29.867,35.914 29.496,35.537 29.545,35.176 29.919,35.224 30.166,35.832 	"/>
	<polygon fill="#232734" points="51.559,36.152 51.695,35.307 51.902,35.263 51.957,35.38 51.559,36.152 	"/>
	<polygon fill="#232734" points="30.857,35.392 32.154,35.788 32.002,35.949 31.865,35.957 31.595,35.899 30.89,35.507 
		30.878,35.369 30.857,35.392 	"/>
	<polygon fill="#232734" points="28.855,40.277 28.82,40.577 28.088,40.619 28.088,40.336 28.855,40.277 	"/>
	<polygon fill="#232734" points="49.465,40.451 49.482,40.318 50.294,39.647 50.527,39.736 49.858,40.389 49.472,40.458 
		49.465,40.451 	"/>
	<polygon fill="#232734" points="51.373,27.589 51.001,27.975 50.645,27.657 50.812,27.279 51.183,27.389 51.283,27.484 
		51.373,27.589 	"/>
	<polygon fill="#232734" points="33.144,28.356 32.879,27.912 32.914,27.55 33.278,27.523 33.588,27.938 33.098,28.316 
		33.144,28.356 	"/>
	<polygon fill="#232734" points="52.179,29.537 52.254,29.865 51.807,29.986 51.592,29.57 51.967,29.487 52.179,29.537 	"/>
	<polygon fill="#232734" points="54.242,32.54 53.854,33.062 53.396,32.822 53.426,32.856 53.81,32.386 54.285,32.59 54.242,32.54 	
		"/>
	<polygon fill="#232734" points="32.137,33.475 31.907,34.146 31.522,33.794 32.137,33.475 	"/>
	<polygon fill="#232734" points="30.018,34.722 29.594,34.742 29.163,34.407 29.287,34.02 29.646,34.259 30.018,34.722 	"/>
	<polygon fill="#232734" points="27.771,36.784 27.638,36.799 27.373,36.746 26.957,36.239 27.074,36.036 27.678,36.558 
		27.762,36.795 27.771,36.784 	"/>
	<polygon fill="#232734" points="28.5,39.328 28.119,39.054 28.348,38.815 28.669,39.012 28.73,39.22 28.5,39.328 	"/>
	<polygon fill="#232734" points="34.623,41.423 35.136,41.338 35.303,41.679 35.098,41.831 34.961,41.837 34.623,41.423 	"/>
	<polygon fill="#232734" points="32.105,43.104 32.629,43.037 32.727,43.133 32.766,43.388 32.545,43.511 32.105,43.104 	"/>
	<polygon fill="#232734" points="30.885,43.858 30.911,43.425 31.242,43.298 31.616,43.694 30.844,43.816 30.885,43.858 	"/>
	<polygon fill="#232734" points="32.576,44.703 32.551,44.3 32.676,43.935 33.102,44.273 32.804,44.646 32.535,44.662 
		32.576,44.703 	"/>
	<polygon fill="#232734" points="24.469,14.404 25.082,14.338 24.697,14.754 24.444,14.529 24.469,14.404 	"/>
	<polygon fill="#232734" points="31.102,14.614 30.422,14.333 30.812,14.273 31.102,14.614 	"/>
	<polygon fill="#232734" points="43.283,19.582 42.752,19.492 42.285,19.205 42.424,19.059 43.238,19.475 43.256,19.611 
		43.283,19.582 	"/>
	<polygon fill="#232734" points="33.139,26.797 33.507,26.625 33.875,27.022 33.664,27.202 33.273,27.179 33.18,27.083 
		33.139,26.797 	"/>
	<polygon fill="#232734" points="52.859,28.604 53.158,28.882 52.738,29.39 52.352,29.042 52.859,28.604 	"/>
	<polygon fill="#232734" points="45.529,33.231 45.529,32.942 45.906,32.889 46.066,33.218 45.758,33.366 45.637,33.316 
		45.529,33.231 	"/>
	<polygon fill="#232734" points="29.189,19.609 29.485,19.184 29.865,19.091 29.984,19.184 29.565,19.582 29.161,19.582 
		29.189,19.609 	"/>
	<polygon fill="#232734" points="36.792,20.585 37.32,20.595 37.202,20.944 36.811,20.717 36.792,20.585 	"/>
	<polygon fill="#232734" points="26.377,28.31 25.812,27.468 25.779,27.5 26.338,28.35 26.377,28.31 	"/>
	<polygon fill="#232734" points="51.612,29.127 51.473,28.903 51.559,28.66 51.926,28.717 51.754,29.126 51.612,29.127 	"/>
	<polygon fill="#232734" points="35.895,44.688 35.641,44.896 35.422,44.63 35.678,44.427 35.895,44.688 	"/>
	<polygon fill="#232734" points="40.709,43.84 40.953,44.086 40.693,44.332 40.454,44.069 40.709,43.84 	"/>
	<polygon fill="#232734" points="44.234,42.972 43.98,42.927 43.863,42.583 44.062,42.452 44.364,42.634 44.234,42.972 	"/>
	<polygon fill="#232734" points="40.9,42.61 40.658,42.705 40.267,42.35 40.271,42.238 40.513,42.139 40.898,42.491 40.9,42.61 	"/>
	<polygon fill="#232734" points="49.653,41.836 49.496,41.609 49.672,41.314 49.806,41.318 50.023,41.447 50.007,41.739 
		49.653,41.836 	"/>
	<polygon fill="#232734" points="28.914,41.884 28.914,41.49 29.141,41.353 29.447,41.513 29.277,41.829 28.873,41.845 
		28.914,41.884 	"/>
	<polygon fill="#232734" points="32.802,41.194 32.668,41.535 32.41,41.485 32.321,41.134 32.566,41.068 32.802,41.194 	"/>
	<polygon fill="#232734" points="30.522,41.168 30.52,41.334 30.377,41.53 30.059,41.399 30.084,41.153 30.182,41.075 
		30.522,41.168 	"/>
	<polygon fill="#232734" points="29.342,40.722 29.199,40.528 29.334,40.211 29.582,40.255 29.686,40.595 29.342,40.722 	"/>
	<polygon fill="#232734" points="44.463,39.978 45.107,40.003 45.09,40.123 44.473,40.096 44.463,39.978 	"/>
	<polygon fill="#232734" points="27.231,39.781 27.453,39.653 27.68,39.731 27.698,39.976 27.363,40.116 27.231,39.914 
		27.231,39.781 	"/>
	<polygon fill="#232734" points="52.852,39.469 52.941,39.389 53.283,39.407 53.354,39.64 53.082,39.85 52.852,39.614 
		52.852,39.469 	"/>
	<polygon fill="#232734" points="39.662,39.459 40.68,39.467 39.662,39.459 	"/>
	<polygon fill="#232734" points="25.598,13.25 26.014,13.329 25.943,13.561 25.831,13.543 25.725,13.471 25.598,13.25 	"/>
	<polygon fill="#232734" points="24.126,15.953 24.237,15.73 24.86,15.791 24.088,15.915 24.126,15.953 	"/>
	<polygon fill="#232734" points="25.174,16.498 25.053,16.672 24.934,16.628 24.848,16.536 24.816,16.322 25.139,16.38 
		25.174,16.498 	"/>
	<polygon fill="#232734" points="37.623,19.121 37.475,19.296 37.23,19.24 37.316,18.927 37.532,18.888 37.623,19.121 	"/>
	<polygon fill="#232734" points="46.641,21.861 47.207,22.422 47.219,22.41 46.662,21.841 46.641,21.861 	"/>
	<polygon fill="#232734" points="47.207,22.422 47.766,22.99 47.787,22.968 47.219,22.41 47.207,22.422 	"/>
	<polygon fill="#232734" points="37.637,35.655 37.012,35.626 36.809,35.359 36.771,35.401 37.405,35.415 37.623,35.671 
		37.637,35.655 	"/>
	<polygon fill="#232734" points="37.623,35.671 38.251,35.696 38.455,35.964 38.49,35.926 37.843,35.925 37.637,35.655 
		37.623,35.671 	"/>
	<polygon fill="#232734" points="34.371,43.914 34.689,44.11 34.706,44.332 34.477,44.417 34.371,43.914 	"/>
	<polygon fill="#232734" points="33.329,42.583 32.615,42.567 33.329,42.583 	"/>
	<polygon fill="#232734" points="31.305,41.975 31.363,42.333 31.267,42.418 30.93,42.308 31.305,41.975 	"/>
	<polygon fill="#232734" points="24.475,13.521 24.681,13.421 24.876,13.539 24.675,13.638 24.475,13.521 	"/>
	<polygon fill="#232734" points="23.686,14.35 24.012,14.343 24.018,14.427 23.701,14.433 23.686,14.35 	"/>
	<polygon fill="#232734" points="36.477,14.784 37.092,14.785 36.861,15.071 36.477,14.784 	"/>
	<polygon fill="#232734" points="39.867,16.754 39.753,16.974 39.428,16.926 39.91,16.799 39.867,16.754 	"/>
	<polygon fill="#232734" points="38.357,18.078 38.131,18.144 38.014,18.003 38.228,17.93 38.328,17.993 38.357,18.078 	"/>
	<polygon fill="#232734" points="22.956,18.798 22.807,18.93 22.725,18.83 22.83,18.598 22.926,18.669 22.956,18.798 	"/>
	<polygon fill="#232734" points="23.911,18.911 23.995,18.911 24.037,19.146 23.859,19.138 23.911,18.911 	"/>
	<polygon fill="#232734" points="24.689,20.742 24.707,20.33 24.797,20.232 24.916,20.438 24.647,20.702 24.689,20.742 	"/>
	<polygon fill="#232734" points="23.387,22.631 23.4,22.231 23.387,22.631 	"/>
	<polygon fill="#232734" points="28.59,24.125 28.85,24.322 28.871,24.689 28.91,24.649 28.654,24.448 28.63,24.086 28.59,24.125 	
		"/>
	<polygon fill="#232734" points="21.268,26.657 21.529,26.886 21.417,27.122 21.281,26.898 21.302,26.626 21.268,26.657 	"/>
	<polygon fill="#232734" points="20.471,27.054 20.791,26.933 20.883,27.01 20.788,27.168 20.471,27.054 	"/>
	<polygon fill="#232734" points="37.361,27.758 36.809,27.472 36.765,27.514 37.146,27.514 37.336,27.785 37.361,27.758 	"/>
	<polygon fill="#232734" points="41.588,32.295 41.84,32.033 42.047,32.14 41.952,32.225 41.559,32.263 41.588,32.295 	"/>
	<polygon fill="#232734" points="30.878,35.369 30.392,35.241 30.857,35.392 30.878,35.369 	"/>
	<polygon fill="#232734" points="36.809,35.359 36.405,35.328 36.303,35.25 36.51,35.145 36.771,35.401 36.809,35.359 	"/>
	<polygon fill="#232734" points="38.455,35.964 38.925,36.075 38.49,35.926 38.455,35.964 	"/>
	<polygon fill="#232734" points="31.621,36.379 31.217,36.355 31.621,36.379 	"/>
	<polygon fill="#232734" points="36.481,43.575 36.881,43.587 36.981,43.672 36.902,43.755 36.516,43.536 36.481,43.575 	"/>
	<polygon fill="#232734" points="30.286,43.288 30.514,43.368 30.41,43.483 30.314,43.258 30.286,43.288 	"/>
	<polygon fill="#232734" points="46.59,42.034 46.499,42.099 46.424,42.016 46.516,41.95 46.59,42.034 	"/>
	<polygon fill="#232734" points="29.306,39.833 29.227,39.735 29.316,39.655 29.406,39.747 29.306,39.833 	"/>
	<polygon fill="#232734" points="26.094,37.619 25.885,37.46 25.969,37.447 26.06,37.654 26.094,37.619 	"/>
	<polygon fill="#232734" points="26.337,36.529 26.564,36.627 26.493,36.724 26.369,36.497 26.337,36.529 	"/>
	<polygon fill="#232734" points="26.064,36.239 26.337,36.529 26.369,36.497 26.086,36.215 26.064,36.239 	"/>
	<polygon fill="#232734" points="25.779,35.957 26.064,36.239 26.086,36.215 25.809,35.928 25.779,35.957 	"/>
	<polygon fill="#232734" points="23.514,33.666 23.844,33.996 23.514,33.666 	"/>
	<polygon fill="#232734" points="28.918,29.722 28.686,29.637 28.749,29.549 28.879,29.765 28.918,29.722 	"/>
	<polygon fill="#232734" points="26.621,28.64 26.822,28.744 26.749,28.804 26.664,28.595 26.621,28.64 	"/>
	<polygon fill="#232734" points="26.664,28.595 26.377,28.31 26.338,28.35 26.621,28.64 26.664,28.595 	"/>
	<polygon fill="#232734" points="36.809,27.472 36.592,27.363 36.676,27.305 36.765,27.514 36.809,27.472 	"/>
	<polygon fill="#232734" points="43.105,26.61 43.029,26.509 43.121,26.42 43.2,26.521 43.105,26.61 	"/>
	<polygon fill="#232734" points="28.871,24.689 29.084,24.801 29.008,24.878 28.91,24.649 28.871,24.689 	"/>
	<polygon fill="#232734" points="48.331,23.553 48.609,23.839 48.635,23.813 48.352,23.534 48.331,23.553 	"/>
	<polygon fill="#232734" points="48.352,23.534 48.066,23.254 48.051,23.271 48.331,23.553 48.352,23.534 	"/>
	<polygon fill="#232734" points="47.766,22.99 48.051,23.271 48.066,23.254 47.787,22.968 47.766,22.99 	"/>
	<polygon fill="#232734" points="41.837,22.434 42.076,22.528 42.007,22.613 41.871,22.398 41.837,22.434 	"/>
	<polygon fill="#232734" points="39.197,21.101 39.233,21.181 39.144,21.167 39.197,21.101 	"/>
	<polygon fill="#232734" points="24.647,20.702 24.55,20.907 24.488,20.834 24.689,20.742 24.647,20.702 	"/>
	<polygon fill="#232734" points="18.328,20.931 18.291,20.827 18.389,20.839 18.328,20.931 	"/>
	<polygon fill="#232734" points="29.161,19.582 28.875,19.863 28.904,19.892 29.189,19.609 29.161,19.582 	"/>
	<polygon fill="#232734" points="22.502,19.663 22.587,19.666 22.538,19.849 22.463,19.754 22.502,19.663 	"/>
	<polygon fill="#232734" points="24.089,17.634 24.295,17.764 24.086,17.896 24.123,17.931 24.119,17.604 24.089,17.634 	"/>
	<polygon fill="#232734" points="23.806,16.203 23.729,16.422 23.613,16.309 23.832,16.229 23.806,16.203 	"/>
	<polygon fill="#232734" points="23.832,16.229 24.126,15.953 24.088,15.915 23.806,16.203 23.832,16.229 	"/>
	<polygon fill="#232734" points="19.012,15.355 18.734,15.639 18.757,15.662 19.043,15.386 19.012,15.355 	"/>
	<polygon fill="#232734" points="19.043,15.386 19.152,15.17 19.226,15.251 19.012,15.355 19.043,15.386 	"/>
	<polygon fill="#232734" points="23.633,13.185 23.764,13.278 23.673,13.356 23.588,13.269 23.633,13.185 	"/>
	<polygon fill="#232734" points="26.008,50.526 25.275,50.498 25.66,50.113 26.453,49.544 27.562,48.463 28.543,47.11 
		29.017,46.436 29.129,46.633 28.215,48.608 27.536,49.223 26.796,49.853 26.008,50.526 	"/>
	<polygon fill="#232734" points="28.903,51.457 28.961,51.205 29.662,50.536 30.133,50.027 30.449,49.583 30.523,50.114 
		29.285,51.38 28.886,51.438 28.903,51.457 	"/>
	<polygon fill="#232734" points="18.729,42.131 18.729,42.483 17.394,43.946 17.041,44.104 17.068,44.129 17.068,43.859 
		18.627,42.163 18.763,42.164 18.729,42.131 	"/>
	<polygon fill="#232734" points="24.094,49.747 24.104,49.613 25.185,48.584 25.396,48.476 25.441,48.728 24.498,49.74 
		24.109,49.764 24.094,49.747 	"/>
	<polygon fill="#232734" points="33.342,50.777 33.166,50.591 33.828,49.564 34.244,49.634 33.342,50.777 	"/>
	<polygon fill="#232734" points="13.693,33.705 13.717,33.328 14.693,32.343 14.721,32.666 13.792,33.661 13.656,33.669 
		13.693,33.705 	"/>
	<polygon fill="#232734" points="26.861,44.031 26.55,45.06 26.286,45.372 26.188,45.389 26.128,45.279 26.466,44.241 
		26.729,43.938 26.861,44.031 	"/>
	<polygon fill="#232734" points="16.281,32.986 16.894,32.288 17.186,32.351 17.071,32.665 16.525,33.076 16.281,32.986 	"/>
	<polygon fill="#232734" points="19.289,37.901 19.272,38.038 18.629,38.681 18.323,38.675 18.404,38.461 18.914,37.977 
		19.328,37.939 19.289,37.901 	"/>
	<polygon fill="#232734" points="35.223,49.644 35.558,48.697 35.811,48.697 35.223,49.644 	"/>
	<polygon fill="#232734" points="13.38,22.969 13.365,23.107 12.646,23.754 12.246,23.808 12.277,23.836 12.361,23.583 13,23.04 
		13.402,22.992 13.38,22.969 	"/>
	<polygon fill="#232734" points="13.412,27.504 13.438,27.085 13.775,26.706 14.178,27.009 13.374,27.467 13.412,27.504 	"/>
	<polygon fill="#232734" points="13.688,40.469 13.711,40.031 14.314,39.478 14.465,39.594 14.439,39.728 13.793,40.434 
		13.656,40.439 13.688,40.469 	"/>
	<polygon fill="#232734" points="15.475,35.925 15.414,35.542 15.751,35.094 16.189,35.196 15.475,35.925 	"/>
	<polygon fill="#232734" points="15.162,41.405 15.332,41.536 14.99,42.254 14.898,42.288 14.807,42.194 14.906,41.685 
		15.162,41.405 	"/>
	<polygon fill="#232734" points="20.981,42.128 20.966,42.266 20.283,42.956 20.146,42.978 20.178,43.011 20.301,42.498 
		20.614,42.201 21.019,42.166 20.981,42.128 	"/>
	<polygon fill="#232734" points="20.845,44.933 20.775,44.538 21.131,44.148 21.535,44.233 20.845,44.933 	"/>
	<polygon fill="#232734" points="17.729,45.659 18.266,45.078 18.364,45.087 18.422,45.197 18.078,45.737 17.729,45.659 	"/>
	<polygon fill="#232734" points="37.891,46.956 38.114,47.031 38.105,48.195 37.896,48.324 37.936,48.365 37.93,46.918 
		37.891,46.956 	"/>
	<polygon fill="#232734" points="40.998,49.462 40.979,49.893 40.584,50.248 40.261,50.172 40.896,49.491 41.029,49.49 
		40.998,49.462 	"/>
	<polygon fill="#232734" points="10.859,29.748 10.844,29.609 10.898,29.295 11.303,28.972 11.564,29.011 10.986,29.727 
		10.85,29.739 10.859,29.748 	"/>
	<polygon fill="#232734" points="12.828,18.471 13.094,18.169 13.607,18.317 13.479,18.545 13.131,18.715 12.828,18.471 	"/>
	<polygon fill="#232734" points="12.246,23.808 11.683,24.648 11.723,24.687 12.277,23.836 12.246,23.808 	"/>
	<polygon fill="#232734" points="13.975,28.631 14.801,28.052 14.801,28.053 14.189,28.597 13.935,28.593 13.975,28.631 	"/>
	<polygon fill="#232734" points="27.395,50.724 27.051,51.095 26.723,50.969 27.147,50.659 27.395,50.724 	"/>
	<polygon fill="#232734" points="30.688,47.325 30.753,47.936 30.525,48.024 30.438,47.818 30.688,47.325 	"/>
	<polygon fill="#232734" points="21.58,45.824 21.604,45.362 21.942,45.008 22.065,45.167 21.551,45.796 21.58,45.824 	"/>
	<polygon fill="#232734" points="23.664,43.455 23.573,43.351 23.918,42.804 24.012,42.835 24.062,42.95 23.664,43.455 	"/>
	<polygon fill="#232734" points="16.029,42.514 16.156,42.81 15.807,43.199 15.678,42.909 16.029,42.514 	"/>
	<polygon fill="#232734" points="17.781,40.633 17.415,40.991 17.184,40.913 17.199,40.812 17.479,40.539 17.781,40.633 	"/>
	<polygon fill="#232734" points="12.543,21.004 12.481,21.388 12.074,21.41 12.549,21.009 12.543,21.004 	"/>
	<polygon fill="#232734" points="13.531,23.899 13.62,24.255 13.381,24.344 13.262,24.184 13.531,23.899 	"/>
	<polygon fill="#232734" points="32.371,48.213 32.725,47.896 32.707,48.23 32.371,48.213 	"/>
	<polygon fill="#232734" points="18.523,35.484 18.85,35.24 18.943,35.271 18.969,35.388 18.702,35.626 18.523,35.484 	"/>
	<polygon fill="#232734" points="44.137,47.802 44.25,47.01 44.098,47.762 44.137,47.802 	"/>
	<polygon fill="#232734" points="15.776,38.107 15.881,37.695 16.004,37.659 16.071,37.851 15.987,37.951 15.776,38.107 	"/>
	<polygon fill="#232734" points="13.535,19.476 13.457,19.428 13.47,19.206 13.547,19.168 13.615,19.39 13.535,19.476 	"/>
	<polygon fill="#232734" points="12.846,20.741 13.312,20.6 12.812,20.708 12.846,20.741 	"/>
	<polygon fill="#232734" points="11.961,22.454 11.797,22.583 11.724,22.362 11.882,22.23 11.961,22.454 	"/>
	<polygon fill="#232734" points="12.432,26.266 12.332,26.339 12.112,26.29 12.189,26.118 12.41,26.181 12.432,26.266 	"/>
	<polygon fill="#232734" points="10.85,29.739 10.83,30.104 10.562,30.298 10.583,30.317 10.584,29.941 10.859,29.748 10.85,29.739 
			"/>
	<polygon fill="#232734" points="15.378,30.319 15.859,30.171 15.35,30.292 15.378,30.319 	"/>
	<polygon fill="#232734" points="21.762,40.602 21.34,40.594 21.762,40.602 	"/>
	<polygon fill="#232734" points="17.041,44.104 16.991,44.486 16.908,44.567 16.806,44.351 17.068,44.129 17.041,44.104 	"/>
	<polygon fill="#232734" points="27.303,46.514 27.386,46.519 27.422,46.761 27.249,46.753 27.303,46.514 	"/>
	<polygon fill="#232734" points="24.11,47.791 24.161,47.397 24.25,47.315 24.356,47.541 24.094,47.775 24.11,47.791 	"/>
	<polygon fill="#232734" points="35.115,48.364 35.117,47.979 35.271,47.872 35.346,47.972 35.078,48.327 35.115,48.364 	"/>
	<polygon fill="#232734" points="41.313,48.925 41.354,48.552 41.434,48.455 41.28,48.895 41.313,48.925 	"/>
	<polygon fill="#232734" points="39.585,48.894 39.548,49.287 39.459,49.37 39.366,49.279 39.619,48.928 39.585,48.894 	"/>
	<polygon fill="#232734" points="41.029,49.49 41.036,49.113 41.313,48.925 41.28,48.895 41.262,49.258 40.998,49.462 41.029,49.49 
			"/>
	<polygon fill="#232734" points="28.339,51.737 28.535,51.467 28.903,51.457 28.886,51.438 28.564,51.736 28.32,51.718 
		28.339,51.737 	"/>
	<polygon fill="#232734" points="28.32,51.718 28.239,51.929 28.12,51.823 28.339,51.737 28.32,51.718 	"/>
	<polygon fill="#232734" points="33.133,51.742 33.266,51.534 33.338,51.617 33.104,51.714 33.133,51.742 	"/>
	<polygon fill="#232734" points="37.93,51.185 38.031,50.951 38.115,51.027 37.895,51.15 37.93,51.185 	"/>
	<polygon fill="#232734" points="36.801,50.059 36.916,49.85 36.969,49.935 36.76,50.017 36.801,50.059 	"/>
	<polygon fill="#232734" points="39.619,48.928 39.727,48.715 39.8,48.792 39.585,48.894 39.619,48.928 	"/>
	<polygon fill="#232734" points="37.896,48.324 37.788,48.54 37.728,48.458 37.936,48.365 37.896,48.324 	"/>
	<polygon fill="#232734" points="35.078,48.327 34.973,48.536 34.915,48.453 35.115,48.364 35.078,48.327 	"/>
	<polygon fill="#232734" points="44.098,47.762 43.986,47.983 44.137,47.802 44.098,47.762 	"/>
	<polygon fill="#232734" points="41.803,46.808 41.716,46.899 41.645,46.801 41.803,46.808 	"/>
	<polygon fill="#232734" points="19.473,46.148 19.561,46.234 19.38,46.223 19.473,46.148 	"/>
	<polygon fill="#232734" points="24.396,45.542 24.682,45.267 24.643,45.229 24.368,45.514 24.396,45.542 	"/>
	<polygon fill="#232734" points="24.682,45.267 24.798,45.048 24.871,45.132 24.643,45.229 24.682,45.267 	"/>
	<polygon fill="#232734" points="19.854,43.255 19.753,43.482 19.667,43.406 19.891,43.293 19.854,43.255 	"/>
	<polygon fill="#232734" points="19.891,43.293 20.178,43.011 20.146,42.978 19.854,43.255 19.891,43.293 	"/>
	<polygon fill="#232734" points="21.019,42.166 21.125,41.952 21.198,42.028 20.981,42.128 21.019,42.166 	"/>
	<polygon fill="#232734" points="18.763,42.164 18.867,41.955 18.942,42.025 18.729,42.131 18.763,42.164 	"/>
	<polygon fill="#232734" points="19.328,37.939 19.434,37.724 19.509,37.796 19.289,37.901 19.328,37.939 	"/>
	<polygon fill="#232734" points="13.656,33.669 13.558,33.905 13.48,33.827 13.693,33.705 13.656,33.669 	"/>
	<polygon fill="#232734" points="15.35,30.292 15.268,30.514 15.146,30.41 15.378,30.319 15.35,30.292 	"/>
	<polygon fill="#232734" points="13.935,28.593 13.836,28.819 13.746,28.75 13.975,28.631 13.935,28.593 	"/>
	<polygon fill="#232734" points="14.801,28.052 14.895,27.849 15.008,27.961 14.801,28.053 14.801,28.052 	"/>
	<polygon fill="#232734" points="13.374,27.467 13.273,27.682 13.199,27.607 13.412,27.504 13.374,27.467 	"/>
	<polygon fill="#232734" points="11.229,27.625 11.314,27.598 11.301,27.676 11.229,27.625 	"/>
	<polygon fill="#232734" points="11.683,24.648 11.584,24.877 11.511,24.799 11.723,24.687 11.683,24.648 	"/>
	<polygon fill="#232734" points="13.402,22.992 13.488,22.789 13.592,22.808 13.38,22.969 13.402,22.992 	"/>
	<polygon fill="#232734" points="12.549,21.009 12.846,20.741 12.812,20.708 12.543,21.004 12.549,21.009 	"/>
	<polygon fill="#232734" points="48.644,47.516 48.895,46.687 48.975,45.479 49.384,45.333 49.451,45.458 49.417,46.147 
		49.1,47.055 48.604,47.478 48.644,47.516 	"/>
	<polygon fill="#232734" points="46.346,46.681 46.814,46.455 46.89,46.594 46.546,47.667 46.377,47.476 46.387,46.634 
		46.346,46.681 	"/>
	<polygon fill="#232734" points="52.213,44.609 51.605,44.86 51.495,44.537 52.099,44.217 52.207,44.237 52.283,44.474 
		52.213,44.609 	"/>
	<polygon fill="#232734" points="50.901,44.942 50.842,45.596 50.686,45.701 50.605,45.594 50.602,44.938 50.71,44.811 
		50.901,44.942 	"/>
	<polygon fill="#232734" points="48.604,47.478 48.51,47.711 48.432,47.637 48.644,47.516 48.604,47.478 	"/>
	<polygon fill="#232734" points="47.736,46.509 47.643,46.616 47.563,46.51 47.736,46.509 	"/>
	<polygon fill="#232734" points="16.189,14.544 16.945,14.354 16.702,14.988 16.227,14.505 16.189,14.544 	"/>
	<polygon fill="#232734" points="17.352,23.245 16.852,23.456 16.493,23.114 17.168,22.931 17.312,23.145 17.324,23.277 
		17.352,23.245 	"/>
</g>
</svg>
