<?xml version="1.0" encoding="utf-8"?>
<!-- Generator: Adobe Illustrator 15.0.2, SVG Export Plug-In . SVG Version: 6.00 Build 0)  -->
<!DOCTYPE svg PUBLIC "-//W3C//DTD SVG 1.1//EN" "http://www.w3.org/Graphics/SVG/1.1/DTD/svg11.dtd">
<svg version="1.1" id="Layer_1" xmlns="http://www.w3.org/2000/svg" xmlns:xlink="http://www.w3.org/1999/xlink" x="0px" y="0px"
	 width="66px" height="66px" viewBox="0 0 66 66" enable-background="new 0 0 66 66" xml:space="preserve">
<g>
	<polygon fill="#232734" points="30.043,46.424 29.643,46.605 29.557,46.702 29.987,46.917 30.114,46.662 29.993,46.426 
		30.043,46.424 	"/>
	<polygon fill="#232734" points="31.658,48.644 31.576,48.127 31.347,48.253 31.4,48.587 31.658,48.644 	"/>
	<polygon fill="#232734" points="32.989,48.237 33.121,48.236 32.96,47.956 32.831,47.957 32.989,48.237 	"/>
	<polygon fill="#232734" points="33.503,48.506 33.672,48.744 33.808,48.77 33.781,48.569 33.503,48.506 	"/>
	<polygon fill="#232734" points="46.609,10.118 46.21,10.641 46.13,11.93 46.552,11.714 46.701,10.372 46.562,10.122 46.609,10.118 
			"/>
	<polygon fill="#232734" points="45.486,10.023 45.208,10.69 44.965,11.205 45.061,11.472 45.07,11.943 45.45,11.607 45.637,10.439 
		45.486,10.023 	"/>
	<polygon fill="#232734" points="21.245,10.299 21.193,9.866 20.439,9.325 20.5,10.056 21.245,10.299 	"/>
	<polygon fill="#232734" points="58.108,32.897 58.823,32.556 60.14,30.823 60.013,30.392 59.764,30.565 59.616,31.13 
		58.828,32.166 58.108,32.897 	"/>
	<polygon fill="#232734" points="57.972,26.806 57.93,28.559 58.059,28.536 58.268,27.067 57.932,26.811 57.972,26.806 	"/>
	<polygon fill="#232734" points="51.045,42.933 50.981,43.066 51.135,44.078 51.611,44.044 51.34,43.178 50.989,42.939 
		51.045,42.933 	"/>
	<polygon fill="#232734" points="54.142,17.097 53.639,17.083 53.624,17.33 54.317,17.552 54.819,17.705 54.142,17.097 	"/>
	<polygon fill="#232734" points="44.287,44.708 44.576,44.329 44.498,43.782 44.154,43.593 44.248,44.591 44.344,44.7 
		44.287,44.708 	"/>
	<polygon fill="#232734" points="43.616,39.756 43.779,40.701 43.913,40.63 43.88,39.819 43.616,39.756 	"/>
	<polygon fill="#232734" points="56.012,18.611 55.604,18.198 55.203,17.996 55.808,18.619 56.012,18.611 	"/>
	<polygon fill="#232734" points="41.219,39.27 40.989,39.783 40.999,40.208 41.294,40.084 41.286,39.375 41.18,39.275 41.219,39.27 
			"/>
	<polygon fill="#232734" points="55.192,27.199 54.612,26.58 54.406,26.633 54.442,26.776 55.192,27.199 	"/>
	<polygon fill="#232734" points="58.245,24.378 58.357,23.985 58.049,23.521 57.904,23.52 57.883,23.805 57.979,24.127 
		58.298,24.372 58.245,24.378 	"/>
	<polygon fill="#232734" points="40.173,43.098 40.048,42.249 40.112,42.245 40.214,43.094 40.173,43.098 	"/>
	<polygon fill="#232734" points="45.374,39.792 45.26,38.94 45.284,38.935 45.402,39.788 45.374,39.792 	"/>
	<polygon fill="#232734" points="45.924,43.623 46.03,44.476 46.017,44.477 45.893,43.626 45.924,43.623 	"/>
	<polygon fill="#232734" points="44.868,48.407 44.679,48.057 44.548,48.068 44.583,48.567 44.793,48.526 44.868,48.407 	"/>
	<polygon fill="#232734" points="51.075,16.093 51.124,15.993 50.958,15.793 50.784,15.894 50.941,16.103 51.075,16.093 	"/>
	<polygon fill="#232734" points="41.114,38.846 41.071,38.471 40.843,38.435 40.874,38.562 41.172,38.84 41.114,38.846 	"/>
	<polygon fill="#232734" points="52.366,25.591 52.827,25.485 52.796,25.345 52.672,25.333 52.371,25.631 52.366,25.591 	"/>
	<polygon fill="#232734" points="40.238,41.571 40.112,42.245 40.048,42.249 40.213,42.043 40.184,41.575 40.238,41.571 	"/>
	<polygon fill="#232734" points="41.246,44.688 41.479,44.328 41.469,44.19 41.236,44.294 41.296,44.68 41.246,44.688 	"/>
	<polygon fill="#232734" points="48.494,40.951 48.627,40.946 48.633,40.849 48.467,40.647 48.337,40.658 48.494,40.951 	"/>
	<polygon fill="#232734" points="52.667,47.269 52.666,46.912 52.36,46.659 52.42,46.653 52.516,47.104 52.721,47.259 
		52.667,47.269 	"/>
	<polygon fill="#232734" points="39.328,38.223 39.398,37.994 39.342,37.897 39.186,38.021 39.311,38.225 39.328,38.223 	"/>
	<polygon fill="#232734" points="37.866,43.628 37.943,43.368 37.764,43.398 37.897,43.625 37.866,43.628 	"/>
	<polygon fill="#232734" points="52.371,25.631 52.137,25.59 52.149,25.692 52.366,25.591 52.371,25.631 	"/>
	<polygon fill="#232734" points="42.391,40.196 42.456,39.97 42.298,39.987 42.42,40.192 42.391,40.196 	"/>
	<polygon fill="#232734" points="41.317,45.115 41.246,44.688 41.296,44.68 41.36,45.109 41.317,45.115 	"/>
	<polygon fill="#232734" points="45.442,40.216 45.374,39.792 45.402,39.788 45.452,40.214 45.442,40.216 	"/>
	<polygon fill="#232734" points="45.496,40.643 45.442,40.216 45.452,40.214 45.513,40.64 45.496,40.643 	"/>
	<polygon fill="#232734" points="58.298,24.372 58.257,24.632 58.369,24.596 58.245,24.378 58.298,24.372 	"/>
	<polygon fill="#232734" points="57.854,25.952 57.915,26.377 57.87,26.384 57.815,25.958 57.854,25.952 	"/>
	<polygon fill="#232734" points="57.915,26.377 57.972,26.806 57.932,26.811 57.87,26.384 57.915,26.377 	"/>
	<polygon fill="#232734" points="44.344,44.7 44.305,44.948 44.287,44.708 44.344,44.7 	"/>
	<polygon fill="#232734" points="45.893,43.626 45.839,43.2 45.86,43.197 45.924,43.623 45.893,43.626 	"/>
	<polygon fill="#232734" points="46.064,44.905 46.017,44.477 46.03,44.476 46.098,44.9 46.064,44.905 	"/>
	<polygon fill="#232734" points="58.755,28.469 58.828,28.514 58.897,28.338 58.779,28.369 58.755,28.469 	"/>
	<polygon fill="#232734" points="46.098,44.9 46.148,45.328 46.129,45.33 46.064,44.905 46.098,44.9 	"/>
	<polygon fill="#232734" points="50.238,40.434 50.294,40.191 50.127,40.22 50.262,40.431 50.238,40.434 	"/>
	<polygon fill="#232734" points="46.148,45.328 46.22,45.75 46.169,45.755 46.129,45.33 46.148,45.328 	"/>
	<polygon fill="#232734" points="50.262,40.431 50.179,40.652 50.363,40.738 50.379,40.631 50.238,40.434 50.262,40.431 	"/>
	<polygon fill="#232734" points="46.233,46.186 46.169,45.755 46.22,45.75 46.281,46.179 46.233,46.186 	"/>
	<polygon fill="#232734" points="49.347,43.769 49.377,43.863 49.451,43.75 49.347,43.769 	"/>
	<polygon fill="#232734" points="50.989,42.939 51.052,42.695 50.933,42.688 51.045,42.933 50.989,42.939 	"/>
	<polygon fill="#232734" points="52.36,46.659 52.424,46.396 52.299,46.398 52.42,46.653 52.36,46.659 	"/>
	<polygon fill="#232734" points="34.922,40.938 34.946,40.815 34.748,40.704 34.463,40.892 34.922,40.938 	"/>
	<polygon fill="#232734" points="29.993,46.426 30.262,46.357 30.906,46.735 32.125,47.618 32.408,47.688 32.323,47.446 
		31.128,46.526 28.261,44.319 27.721,44.106 27.729,44.245 28.26,44.955 29.391,45.627 30.043,46.424 29.993,46.426 	"/>
	<polygon fill="#232734" points="24.364,43.433 24.437,43.689 25.44,44.804 26.133,45.026 27.153,45.747 27.313,45.756 
		27.249,45.549 24.647,43.467 24.364,43.433 	"/>
	<polygon fill="#232734" points="35.902,51.105 35.904,50.666 35.492,50.267 34.64,50.091 34.602,50.177 35.902,51.105 	"/>
	<polygon fill="#232734" points="26.16,42.522 25.745,42.586 26.982,43.601 27.009,43.397 26.16,42.522 	"/>
	<polygon fill="#232734" points="57.815,25.958 57.919,25.703 57.159,23.934 56.132,22.82 55.35,21.805 54.596,21.231 
		53.458,20.848 52.115,21.04 51.979,21.392 53.599,21.266 55.503,23 56.654,23.958 57.079,24.734 57.344,25.564 57.854,25.952 
		57.815,25.958 	"/>
	<polygon fill="#232734" points="60.036,24.573 60.102,24.154 59.703,23.185 59.126,22.133 58.498,21.118 58.036,20.315 
		57.236,19.491 56.221,19.167 56.804,19.802 57.48,20.361 58.482,21.886 58.66,22.119 59.806,24.39 60.038,24.573 60.036,24.573 	
		"/>
	<polygon fill="#232734" points="48.806,34.769 49.031,34.442 48.764,32.864 49.153,30.901 49.574,30.348 50.528,29.52 
		50.414,29.274 49.742,29.619 48.844,30.796 48.426,31.945 48.352,32.932 48.852,34.763 48.806,34.769 	"/>
	<polygon fill="#232734" points="60.038,24.573 59.945,24.837 60.196,26.318 60.414,27.792 60.757,27.504 60.331,24.892 
		60.036,24.573 60.038,24.573 	"/>
	<polygon fill="#232734" points="29.706,26.292 29.319,26.799 29.325,27.979 29.313,29.183 29.489,29.573 29.447,29.579 
		29.677,29.21 29.789,26.546 29.659,26.297 29.706,26.292 	"/>
	<polygon fill="#232734" points="37.554,21.64 39.23,21.751 40.059,22.139 40.185,21.881 40.13,21.749 38.277,21.163 37.84,21.248 
		37.554,21.64 	"/>
	<polygon fill="#232734" points="42.42,40.192 42.333,40.459 42.531,41.964 42.503,42.715 42.797,42.997 42.948,42.444 
		42.716,40.469 42.391,40.196 42.42,40.192 	"/>
	<polygon fill="#232734" points="47.313,31.964 47.542,31.939 47.697,31.694 48.001,30.113 47.778,30.183 47.595,30.411 
		47.375,30.948 47.313,31.964 	"/>
	<polygon fill="#232734" points="29.544,30.001 29.448,30.268 29.545,31.328 30.134,32.342 30.273,32.368 30.358,32.305 
		30.37,32.159 30.003,31.189 29.807,30.315 29.51,30.005 29.544,30.001 	"/>
	<polygon fill="#232734" points="32.687,30.233 32.333,30.415 32.266,31.065 32.589,32.158 32.894,32.005 32.687,30.233 	"/>
	<polygon fill="#232734" points="37.289,24.809 37.549,24.982 38.973,25.026 39.414,25.28 39.771,25.333 39.73,25.19 39.042,24.662 
		38.718,24.587 37.521,24.689 37.294,24.854 37.289,24.809 	"/>
	<polygon fill="#232734" points="29.726,25.202 30.168,24.447 30.3,23.87 30.669,22.915 30.711,22.648 29.997,23.414 29.653,24.952 
		29.765,25.198 29.726,25.202 	"/>
	<polygon fill="#232734" points="45.513,40.64 45.345,40.861 45.298,41.009 45.525,42.881 45.86,43.197 45.84,43.2 45.92,43.077 
		45.605,40.742 45.496,40.643 45.513,40.64 	"/>
	<polygon fill="#232734" points="47.886,21.443 48.053,21.208 48.346,19.645 48.128,19.437 47.975,19.619 47.754,21.215 
		47.908,21.441 47.886,21.443 	"/>
	<polygon fill="#232734" points="47.582,36.888 47.658,36.758 47.436,35.283 47.194,35.149 47.112,35.229 47.283,36.58 
		47.623,36.883 47.582,36.888 	"/>
	<polygon fill="#232734" points="34.493,29.617 34.274,30.483 34.525,30.437 34.693,30.197 34.904,29.5 35.253,28.854 
		35.246,28.732 34.493,29.617 	"/>
	<polygon fill="#232734" points="33.796,32.896 34.08,32.395 34.26,31.082 34.055,31.095 33.965,31.208 33.75,32.775 33.842,32.889 
		33.796,32.896 	"/>
	<polygon fill="#232734" points="44.222,19.206 44.041,18.207 43.755,18.066 43.806,19.226 43.968,19.406 44.222,19.206 	"/>
	<polygon fill="#232734" points="48.971,35.619 48.909,35.752 49.227,36.871 49.409,37.084 49.546,37.099 49.62,37.02 
		49.624,36.875 49.146,35.803 48.917,35.625 48.971,35.619 	"/>
	<polygon fill="#232734" points="47.908,21.441 47.648,21.817 47.785,22.819 48.042,22.694 47.992,21.542 47.886,21.443 
		47.908,21.441 	"/>
	<polygon fill="#232734" points="42.854,24.078 42.781,24.206 42.857,24.634 43.232,25.396 43.428,25.21 43.118,24.392 
		42.806,24.085 42.854,24.078 	"/>
	<polygon fill="#232734" points="45.26,38.94 45.43,38.706 45.267,37.421 45.321,37.414 45.058,37.757 45.142,38.689 45.284,38.935 
		45.26,38.94 	"/>
	<polygon fill="#232734" points="42.334,36.296 42.066,36.649 42.193,37.267 42.422,37.404 42.49,37.31 42.402,36.413 42.3,36.302 
		42.334,36.296 	"/>
	<polygon fill="#232734" points="48.875,15.02 48.729,15.032 48.753,15.556 49.284,15.442 48.875,15.02 	"/>
	<polygon fill="#232734" points="32.44,36.147 31.274,35.194 32.44,36.147 	"/>
	<polygon fill="#232734" points="33.373,18.744 33.612,18.867 33.881,18.599 33.756,18.373 33.415,18.485 33.373,18.744 	"/>
	<polygon fill="#232734" points="29.765,25.198 29.601,26.206 29.706,26.292 29.659,26.297 29.831,25.29 29.726,25.202 
		29.765,25.198 	"/>
	<polygon fill="#232734" points="40.402,30.1 40.359,29.85 39.619,29.399 40.402,30.1 	"/>
	<polygon fill="#232734" points="39.973,36.833 40.039,35.744 40.098,35.736 40.021,36.827 39.973,36.833 	"/>
	<polygon fill="#232734" points="43.528,34.183 43.697,33.227 43.564,33.258 43.562,34.178 43.528,34.183 	"/>
	<polygon fill="#232734" points="43.603,34.607 43.47,35.567 43.702,35.427 43.708,34.709 43.603,34.607 43.603,34.607 	"/>
	<polygon fill="#232734" points="45.271,35.471 45.187,36.56 45.135,36.568 45.207,35.48 45.271,35.471 	"/>
	<polygon fill="#232734" points="35.722,27.622 35.32,28.005 35.31,28.147 35.51,28.123 35.722,27.622 	"/>
	<polygon fill="#232734" points="40.158,38.111 40.036,37.26 40.082,37.254 39.996,37.356 40.189,38.106 40.158,38.111 	"/>
	<polygon fill="#232734" points="45.008,32.095 44.974,31.862 44.729,31.769 44.516,32.086 44.606,32.156 44.885,32.163 
		45.008,32.095 	"/>
	<polygon fill="#232734" points="42.212,35.447 42.334,36.296 42.3,36.302 42.186,35.45 42.212,35.447 	"/>
	<polygon fill="#232734" points="32.726,20.198 32.748,20.06 32.54,20.073 32.496,20.337 32.633,20.303 32.726,20.198 	"/>
	<polygon fill="#232734" points="40.286,17.021 40.436,17.26 40.661,17.208 40.525,16.973 40.286,17.021 	"/>
	<polygon fill="#232734" points="33.132,27.472 32.897,27.631 32.926,27.856 33.156,27.709 33.132,27.472 	"/>
	<polygon fill="#232734" points="42.806,24.085 42.821,23.722 42.497,23.476 42.554,23.47 42.648,23.924 42.854,24.078 
		42.806,24.085 	"/>
	<polygon fill="#232734" points="29.51,30.005 29.447,29.579 29.489,29.573 29.544,30.001 29.51,30.005 	"/>
	<polygon fill="#232734" points="41.238,15.346 41.144,15.407 41.231,15.456 41.238,15.346 	"/>
	<polygon fill="#232734" points="37.294,24.854 37.059,24.781 37.069,24.944 37.289,24.809 37.294,24.854 	"/>
	<polygon fill="#232734" points="46.845,15.415 46.846,15.577 46.973,15.559 46.943,15.433 46.845,15.415 	"/>
	<polygon fill="#232734" points="33.872,33.32 33.796,32.896 33.842,32.889 33.896,33.317 33.872,33.32 	"/>
	<polygon fill="#232734" points="33.896,33.317 33.968,33.74 33.918,33.745 33.872,33.32 33.896,33.317 	"/>
	<polygon fill="#232734" points="33.968,33.74 34.032,34.163 33.969,34.169 33.918,33.745 33.968,33.74 	"/>
	<polygon fill="#232734" points="42.497,23.476 42.583,23.256 42.5,23.196 42.554,23.47 42.497,23.476 	"/>
	<polygon fill="#232734" points="34.032,34.163 33.976,34.393 34.074,34.387 33.969,34.169 34.032,34.163 	"/>
	<polygon fill="#232734" points="47.072,24.458 47.011,24.314 46.927,24.36 46.952,24.478 47.072,24.458 	"/>
	<polygon fill="#232734" points="40.039,35.744 40.085,35.5 39.981,35.522 40.098,35.736 40.039,35.744 	"/>
	<polygon fill="#232734" points="40.021,36.827 40.082,37.254 40.036,37.26 39.973,36.833 40.021,36.827 	"/>
	<polygon fill="#232734" points="42.119,35.023 42.173,34.778 42.077,34.739 42.167,35.017 42.119,35.023 	"/>
	<polygon fill="#232734" points="42.167,35.017 42.212,35.447 42.186,35.45 42.119,35.023 42.167,35.017 	"/>
	<polygon fill="#232734" points="43.562,34.178 43.603,34.607 43.603,34.607 43.528,34.183 43.562,34.178 	"/>
	<polygon fill="#232734" points="41.172,38.84 41.219,39.27 41.18,39.275 41.114,38.846 41.172,38.84 	"/>
	<polygon fill="#232734" points="45.207,35.48 45.255,35.242 45.161,35.261 45.271,35.471 45.207,35.48 	"/>
	<polygon fill="#232734" points="45.201,36.992 45.135,36.568 45.187,36.56 45.254,36.986 45.201,36.992 	"/>
	<polygon fill="#232734" points="45.254,36.986 45.321,37.414 45.267,37.421 45.201,36.992 45.254,36.986 	"/>
	<polygon fill="#232734" points="48.856,35.196 48.806,34.769 48.852,34.763 48.91,35.189 48.856,35.196 	"/>
	<polygon fill="#232734" points="48.917,35.625 48.856,35.196 48.91,35.189 48.971,35.619 48.917,35.625 	"/>
	<polygon fill="#232734" points="47.623,36.883 47.538,37.121 47.706,37.114 47.582,36.888 47.623,36.883 	"/>
	<polygon fill="#232734" points="22.136,23.625 22.229,23.368 21.776,22.243 20.75,21.409 20.503,21.418 20.547,21.565 
		21.302,22.465 21.84,23.342 22.176,23.62 22.136,23.625 	"/>
	<polygon fill="#232734" points="15.245,35.189 16.242,33.942 17.114,33.632 17.204,33.375 16.17,33.536 15.187,34.802 
		15.274,35.186 15.245,35.189 	"/>
	<polygon fill="#232734" points="10.643,33.208 10.875,32.84 11.287,31.138 11.065,30.927 10.833,31.08 10.503,32.821 
		10.662,33.207 10.643,33.208 	"/>
	<polygon fill="#232734" points="15.533,37.321 15.61,37.196 15.351,35.291 15.245,35.189 15.274,35.186 15.007,35.576 
		15.208,37.007 15.565,37.316 15.533,37.321 	"/>
	<polygon fill="#232734" points="29.482,40.827 30.535,41.904 31.028,42.242 31.175,42.224 31.191,41.958 29.482,40.827 	"/>
	<polygon fill="#232734" points="22.359,13.592 21.294,14.302 21.083,14.704 22.297,13.903 22.359,13.592 	"/>
	<polygon fill="#232734" points="10.597,34.3 10.404,34.68 10.536,35.693 10.823,36.004 10.805,36.007 10.883,35.893 10.674,34.392 
		10.568,34.303 10.597,34.3 	"/>
	<polygon fill="#232734" points="28.92,15.619 29.102,15.408 28.88,15.066 28.051,14.783 27.906,14.785 27.941,14.989 28.92,15.619 
			"/>
	<polygon fill="#232734" points="8.189,27.602 7.925,27.477 7.788,28.579 7.872,28.642 7.998,28.584 8.189,27.602 	"/>
	<polygon fill="#232734" points="32.306,43.059 32.616,43.383 33.129,43.287 32.752,42.918 32.603,42.929 32.306,43.059 	"/>
	<polygon fill="#232734" points="11.018,22.915 10.417,23.479 10.423,23.756 11.018,22.915 	"/>
	<polygon fill="#232734" points="10.568,34.303 10.747,33.299 10.643,33.208 10.662,33.207 10.5,34.208 10.597,34.3 10.568,34.303 	
		"/>
	<polygon fill="#232734" points="11.996,28.901 12.419,28.135 11.943,28.648 12.049,28.894 11.996,28.901 	"/>
	<polygon fill="#232734" points="18.662,23.666 18.691,23.407 18.131,23.055 18.72,23.656 18.662,23.666 	"/>
	<polygon fill="#232734" points="24.819,14.767 25.244,14.974 25.341,14.729 25.235,14.681 24.819,14.767 	"/>
	<polygon fill="#232734" points="17.347,19.112 16.97,19.429 16.981,19.556 17.185,19.583 17.347,19.112 	"/>
	<polygon fill="#232734" points="17.614,29.129 17.628,29.265 17.848,29.228 17.903,28.989 17.691,29.034 17.614,29.129 	"/>
	<polygon fill="#232734" points="16.087,31.833 16.207,31.833 16.352,31.611 16.291,31.532 16.073,31.689 16.087,31.833 	"/>
	<polygon fill="#232734" points="18.153,31.115 18.251,31.137 18.422,30.929 18.378,30.827 18.145,30.974 18.153,31.115 	"/>
	<polygon fill="#232734" points="22.102,28.022 22.316,27.886 22.265,27.69 22.063,27.818 22.102,28.022 	"/>
	<polygon fill="#232734" points="21.69,29.789 21.199,29.576 21.685,29.738 21.69,29.789 	"/>
	<polygon fill="#232734" points="21.368,30.875 21.585,30.791 21.555,30.601 21.432,30.634 21.348,30.741 21.368,30.875 	"/>
	<polygon fill="#232734" points="13.606,18.458 13.67,18.543 13.712,18.466 13.606,18.458 	"/>
	<polygon fill="#232734" points="12.914,27.872 12.96,27.971 13.023,27.868 12.914,27.872 	"/>
	<polygon fill="#232734" points="12.049,28.894 11.981,29.165 12.101,29.143 11.996,28.901 12.049,28.894 	"/>
	<polygon fill="#232734" points="13.236,34.81 13.303,34.568 13.138,34.588 13.276,34.804 13.236,34.81 	"/>
	<polygon fill="#232734" points="13.276,34.804 13.206,35.055 13.374,35.031 13.236,34.81 13.276,34.804 	"/>
	<polygon fill="#232734" points="22.176,23.62 22.133,23.877 22.252,23.858 22.136,23.625 22.176,23.62 	"/>
	<path fill="#232734" d="M22.614,40.054l0.026-0.257l-0.56-0.359l0.594,0.606l-0.012,0.276l1.109,1.032l0.209,0.216l0.139,0.27
		l0.291,0.085l0.28,0.695l-2.337-1.89L21.833,40.5l-0.984-0.907l-0.221,0.165l0.051,0.264l2.855,2.268l0.393,0.478l-1.312-0.77
		l-0.554-0.178l-0.575-0.145l0.054,0.532l0.651,0.705l-0.224,0.013l-1.96-1.437l-0.873-0.587l-0.578,0.128l-1.658,0.95l-1.361,0.356
		l-2.248,0.124l-1.346-0.304l-0.795-0.36l0.094,0.242l1.889,1.531l0.009,0.195l-0.148-0.019l-1.104-0.808l-3.61-2.78l-1.07-0.846
		l-0.862-1.045l-0.42-0.624l-0.677-0.618l-0.127-0.58l-1.558-2.925l-0.187-0.408l-0.428-1.292l-0.313-1.47l-0.184-1.044l0.032-0.904
		L2.74,24.63l0.235-0.869l0.436-1.124l0.465-1.106l0.332-0.838l0.512-0.926l0.658-1.187l2.779-3.623l0.619-0.42l0.818-0.661
		l1.285-1.04l1.606-1.111l0.651-0.383l1.649-1.062l1.771-0.857l0.902-0.429l1.407-0.248l0.441-0.094l1.472-0.338l2.574-0.096
		l2.246,0.278l2.526,0.961l0.682,0.315l0.548,0.244l1.076,0.543l0.701,0.548l1.268,1.239l0.33-0.021l0.409-0.185l1.172-0.683
		l1.686-0.833L39.6,9.704l1.191-0.23l0.905-0.11l3.915-0.147l4.187,0.548l2.847,0.967l1.158,0.588l1.06,0.287l0.867,0.572
		l0.731,0.486l1.442,1.116l0.716,0.771l1.083,1.074l1.624,2.335l1.499,4.102l0.445,3.16l0.101,1.211l-0.185,4.07l-1.803,2.318
		l-2.613,1.752l-1.727,0.229l-0.569-0.228l-2.542,0.57l-0.24,0.353l-0.009,0.175l0.515,2.212l0.457,0.945l0.25,0.373l0.783,1.805
		l0.359,1.153l0.34,3.167L55.7,47.314l-0.493,0.767l-0.439,0.854l-1.968,1.161l-0.527,0.583l-1.503,0.199l-0.096,0.447l-0.722-0.069
		l-0.26-0.158L49.544,51.1l-0.038,0.221l0.564,0.482l-0.053,0.22l-0.733-0.164l-1.01-0.578l-0.229,0.303l0.144,0.261l-0.022,0.246
		l-0.144,0.001l-0.64-0.394l-0.438-0.075l-0.236,0.116l-0.363,0.511l-0.938-0.395l-0.515,0.807l0.058,0.454l-0.397-0.19l-1.83-1.357
		l-0.315-0.151l-1.158-0.049l0.038,0.155l1.112,1.011l0.229,0.693l-0.402-0.215l-3.314-2.418l-0.789-0.433l-1.216-0.826
		l-0.219-0.429l-0.776-0.642l-0.308-0.656l-2.169-1.584l-0.308-0.117l-0.44,0.106l0.281,0.371l0.556,0.51l1.282,1.261l4.558,3.548
		l0.408,0.438l-0.04,0.394l-0.148-0.02l-2.887-2.226l-0.388-0.434l-0.545-0.248l-1.318-1.005l-0.269-0.545l-1.458-1.111l-1.528-1.22
		l-0.131-0.456l-0.149-0.425l-0.54-0.271l-0.524,0.159l-3.337-2.541l-0.741-0.882l-1.11-0.797l-0.281-0.083l-0.687,0.326
		L22.614,40.054L22.614,40.054z M35.535,44.157l0.048-0.244l-0.111,0.015l0.126,0.222l-0.006,0.292l0.07-0.07L35.535,44.157
		L35.535,44.157z M33.047,38.39l0.252,0.064l-0.008-0.114l-0.237,0.108L32.805,38.4l0.025,0.11L33.047,38.39L33.047,38.39z
		 M14.6,41.545l0.227,0.061l0.037-0.081l-0.257,0.069l-0.252-0.055l0.003,0.127L14.6,41.545L14.6,41.545z M38.426,34.839
		l0.501,0.227l-0.496-0.167l-0.21-0.151l-0.458,0.034l-0.492-0.231l0.487,0.167l0.329,0.214L38.426,34.839L38.426,34.839z
		 M6.018,35.816l-0.233-0.047l0.009,0.104l0.218-0.11l0.355,0.008l0.252-0.312l0.276,0.026l0.396-0.152L7.465,35.6l0.241-0.26
		l-0.651-0.973l-0.264-0.041l0.086,0.743l-0.249,0.446l-0.361-0.019L6.018,35.816L6.018,35.816z M6.198,33.992l0.255,0.061
		l-0.01-0.106l-0.238,0.11l-0.412,0.062L5.6,34.349l-0.457,0.069l0.045,0.221l0.132-0.017l0.273-0.313l0.35-0.013L6.198,33.992
		L6.198,33.992z M13.689,12.187l0.129,0.45l0.136,0.012l0.016-0.194l-0.326-0.262l0.051-0.243l-0.112,0.016L13.689,12.187
		L13.689,12.187z M14.486,12.078l-0.009-0.383l-0.257-0.06l0.013,0.128l0.311,0.304l0.013,0.359l0.303,0.254l-0.12,0.56
		l-0.611,0.406l-0.475,0.349l-0.417,0.072l-0.285-0.544l0.025-0.401l0.408-0.031l0.293,0.43l-0.354-0.42l0.037-0.272l-0.462-0.388
		l-1.116,0.689l-0.481,0.351l-0.98,0.677l-0.93,0.756L8.98,15.346l-0.802,0.667l-0.475,0.912l-0.426,0.252L5.74,19.184l-0.646,1.66
		l-0.658,1.18l-0.911,2.835l-0.177,1.173l0.083,0.122l-0.186,1.149l0.183,0.373l-0.15,1.025l0.328,0.25l-0.293,0.385l0.086,0.572
		l1.322-0.192l0.572-0.109l0.096-0.254l-1.315-0.179L3.535,28.96l0.232-0.167l1.765-0.028l0.149-0.759l-0.706-0.199l-1.183-0.046
		l-0.427-0.075l0.317-0.316l0.429-0.096l1.79,0.152l0.07-0.455l-0.796-0.606L3.758,26.37l-0.393-0.204l0.347-0.336l0.854-0.113
		l1.317,0.422l0.142-0.304L5.49,25.481l-1.403-0.353l-0.03-0.181l0.169-0.229l1.459,0.324l0.181-0.213l-0.138-0.242l-1.284-0.423
		l-0.25-0.151L4.15,23.87l1.306,0.059l1.021,0.593l-0.079-0.547l-0.444-0.118l-1.095-0.49l-0.153-0.234l0.316-0.246l0.402,0.201
		l0.433,0.203l-0.842-1.027l0.896,0.115l0.559,0.425l0.188,0.748l0.095,0.067l0.136-0.043l0.72-1.485l0.975-1.688l1.378-1.815
		l1.086-1.031l0.217-0.209l0.902-0.797l0.426-0.424l0.505-0.562l1.459-1.467l1.443-0.898l0.548-0.24l0.42-0.157l2.982-1.427
		l1.162-0.318l1.111-0.243l1.555,0.078l0.116-0.094l0.232,0.179l0.282,0.081l1.137,0.247l0.966,0.355l2.028,0.729l0.693-0.597
		l0.134,0.054l0.464-0.587l-0.587,0.59l-0.272-0.029l-0.383,0.149l0.131-0.485l0.092-0.119l0.163-0.253l-0.441-0.324l-0.673,0.771
		l-0.174,0.05l-0.248-0.122l0.154-0.375l0.354-0.217l0.014-0.716l-0.973,0.932l-0.342-0.455l-1.12,0.209l-0.21-0.196l0.438-0.932
		l-0.099-0.058l-0.579,0.435l-0.09-1.017l-0.636-0.117l-0.379,0.186l-0.072,1.649l-0.318-0.321l-0.037-0.905l-0.296-0.675
		l-0.257,0.306l0.13,0.421l-0.111,0.284l-0.388-0.147l-0.203-0.719l-0.761,0.142l0.101,0.906l-0.553,0.198l-0.061-0.432l-0.036-0.7
		L20.669,9.17l-0.231,0.145l-0.124-0.083l-3.045,0.765l-2.086,0.873l-0.239,0.178l-0.08,0.414l0.242,0.153l0.531-0.204l0.397,0.092
		l0.641-0.672l0.2,0.227l0.231,0.525l-1.611,0.747l-0.168,0.255l-0.531,0.106l-0.094-0.464L14.486,12.078L14.486,12.078z
		 M62.365,25.99l-0.109-0.848l0.062-0.257l-0.124,0.002l0.111,0.249l0.121,0.845l-0.038,0.264l0.112-0.033L62.365,25.99
		L62.365,25.99z M54.493,33.324l0.25,0.055l-0.017-0.111L54.5,33.375l-0.552-0.392l-0.359,0.079l-0.605-0.403l-0.966-0.336
		l-0.525,0.104l0.049,0.138l1.812,0.583l0.231-0.134l0.557,0.398L54.493,33.324L54.493,33.324z M61.538,22.635l0.221,0.585
		l0.387-0.029l0.001-0.374l-0.103-0.098l-0.564-0.077l0.195-0.556L61.26,22.13L61.538,22.635L61.538,22.635z M5,31.549l0.246,0.071
		l-0.001-0.109l-0.239,0.102L3.9,31.63l0.16,0.736l-0.03,0.277l0.285,0.533l0.979-0.248l1.006-0.198l-0.368-0.45l-0.889,0.04
		l-1.039,0.051l0.693-0.517L5,31.549L5,31.549z M7.583,37.77l-0.223-0.056l-0.046,0.085l0.262-0.078l0.254,0.041l0.965-0.847
		l-0.409-0.178L7.583,37.77L7.583,37.77z M53.11,31.118l0.551,0.375l0.367-0.062l0.458,0.349l0.44,0.098l0.428,0.071l0.044-0.081
		l-0.295-0.296l-0.969-0.18l-0.103,0.101l-0.558-0.395l-0.359,0.079l-1.444-0.599l0.223,0.388L53,31.208L53.11,31.118L53.11,31.118z
		 M54.575,30.712l0.747,0.374l-0.633-0.423l-0.11,0.092l-0.709-0.54l-1.69-0.32l0.325,0.366l1.831,0.578L54.575,30.712
		L54.575,30.712z M24.712,28.268l0.252-0.139l1.856-0.462l0.264-0.114l-0.188-0.67l0.304-0.504l0.095-0.593l-0.127-0.24l0.345-0.483
		l0.34-0.991l0.403-0.953l0.48-1.095l0.711-0.975l0.344-0.497l-0.017-0.28l-0.777-0.431l0.322,0.461l0.065,0.271l-0.209,0.175
		l-0.457-0.309l-1.124-0.407l-0.169-0.225l1.12,0.092l-0.589-0.837l0.886,0.167l1.197,0.799l0.25-0.093l1.19-1.563l0.872-0.814
		l0.663-0.608l0.491-0.511l1.087-1.043l0.921-0.736l-0.067,0.01l0.139,0.054l0.662-0.288l3.618-1.312l2.783-0.536l0.581-0.06
		l-0.024,0.003l3.168-0.092l0.901,0.046l3.484,0.936l0.66,0.361l1.088,0.464l1.326,0.748l0.504,0.326l2.239,1.703l0.601,0.759
		l0.71,0.566l0.714,0.772l0.851,0.852l0.321,0.137l1.123-0.668l0.099-0.109l0.062-0.279l-0.218-0.128l-0.44,0.084l-0.688,0.305
		l-0.425-0.007l0.1-0.289l1.152-0.654L60.42,18.14l-0.564,0.179l-0.706,0.169l0.142-0.369l0.501-0.326l0.029-0.14l-0.068-0.074
		l-0.442,0.064L58.26,18.2l-0.227-0.216l0.187-0.368l0.523-0.303l0.418-0.178l0.222-0.199l0.062-0.274l-0.233-0.105l-0.638,0.368
		l-0.696,0.174l0.572-1.021l0.253,0.054l-0.002-0.122l-0.244,0.124l-0.276-0.024l-0.614,0.404l-0.211-0.185l0.646-0.746
		l-0.133-0.557l-1.157,0.673l-0.263-0.085l0.011-0.268l0.222-0.192l0.474-0.361l0.036-0.384l-0.406-0.022l-0.356,0.316l-0.692-0.097
		l-0.589,0.015l0.643-1.291l-0.26-0.137l-0.998,0.874l-0.146-0.438l0.393-0.998l-0.431,0.036l-0.421,0.174l-0.151-0.206l-0.077-0.44
		l-0.354-0.192l-0.364,1.114l-0.253,0.092l-0.213-0.172l0.082-0.427l-0.109-0.249l0.254-0.33l-0.051-0.199l-0.132,0.028
		l-0.071,0.118l0.062,0.38l-0.258,0.361l-0.241,0.16l-0.135,0.015l-0.006-0.853l-0.114-0.238l0.211-0.379l-0.038-0.124l-0.145,0.009
		l-0.021,0.493l-0.696,0.766l-0.104-0.201l0.177-0.886l-0.043-0.444l-0.353-0.2l-0.21,0.186l-0.29,1.272l-0.394,0.184l-0.118-0.268
		l-0.009-0.301l0.021-0.309l0.298-0.689l-0.177-0.43l-0.366,0.241l-0.22,1.062l-0.082,0.287l-0.358,0.156L48.721,12l0.378-1.425
		l-0.665-0.265l-0.109,0.102l-0.194,1.182l-0.445,0.362l0.136-0.995l-0.125-0.717l-0.12-0.098l-0.886-0.103l-0.128,0.077
		l0.047-0.004l-0.902-0.194l-0.215,0.151l-0.116-0.092l-0.635,0.12l0.174,0.998l0.105,0.102l-0.478,0.362l-0.28-1.599l-2.254,0.123
		l0.025-0.005l-1.077,0.357l0.064-0.005l-0.382-0.202L39.777,10.5l-0.88,0.147l-1.539,0.504l0.061-0.011l-0.283-0.048l-2.245,0.822
		l-1.952,1.12l-1.02,0.878l-0.685,0.802l-0.762,0.931l-0.667,0.5l-1.106,1.494l-0.011,0.148l0.495,0.106l1.046,0.797l0.016,0.239
		l-0.909-0.456l-0.998-0.259l-0.133,0.066L26.88,20.01l0.269,0.563l0.691,0.283l0.818,0.594l-1.087-0.225L27.182,21l-0.591-0.053
		l-0.216,0.172l-0.255-0.024l0.016,0.112l0.234-0.126l0.749,0.448l0.904,0.479l0.035,0.223l-1.253-0.416l-0.715-0.166l-0.223,0.17
		l-0.584,1.354l0.097,0.256l-0.005-0.06l-0.237,0.396L25.028,24.5l0.225,0.116l1.793-0.229l-0.024,0.371l-1.482,0.271l-0.557,0.038
		l0.047,0.631l1.222-0.326l0.959,0.172l-0.342,0.324l-2.223,0.184l-0.225,0.854l0.482,0.146l1.786-0.268l0.271,0.093l-0.289,0.331
		l-2.096,0.356l-0.045,0.51l0.233,0.186l0.178,0.877l2.082-0.488l-0.008-0.598l-1.965,0.402L24.712,28.268L24.712,28.268z
		 M11.824,40.236L11.555,40.2l-0.359,0.587l0.618-0.606l0.272,0.029l0.599-0.395l-0.021,0.271l-0.727,0.962l0.006,0.257l0.788-0.382
		l0.483-0.921l0.562,0.026l0.104-0.097l-0.035-0.374l-1.429-0.333l-0.261,0.508L11.824,40.236L11.824,40.236z M15.565,37.316
		l-0.032,0.005l0.511,0.757l0.784,0.598l1.283,0.08l1.675-0.636l0.032-0.111l-0.075-0.111l-1.335-0.314l-1.003-0.765l-0.331-0.756
		l0.105-0.857l0.815-1.069l0.926-0.389l1.543,0.081l2.173,1.866l0.973,0.898l0.403,0.44l0.606,0.667l1.054,1.079l0.43,0.42
		l0.705,0.578l0.555,0.513l0.963,1.151l0.912,1.001l0.739,0.748l1.191,0.96l0.587-0.054l0.301-0.061l1.187,0.084l0.12-0.085
		l0.968-1.376l-0.062-0.566l-1.134-1.067l0.256-0.006l1.227,0.886l0.278-0.009l0.431-0.413l0.678-0.592l0.547-0.823l0.47-0.346
		l0.147-0.308l0.133-0.782l-0.629,0.112l-1.309,0.364l-2.408,0.333l-0.442,0.002l-0.188-0.29l-1.734-0.372l-1.599-0.863l-0.846-0.64
		l-0.835-1.068l-0.806-0.947l-0.648-1.531L25.4,33.384l-0.072-0.462l-0.219-0.152l0.075-0.128l-0.349-0.971l-0.303-0.854
		l-0.33-0.999l-0.727-0.776l-0.622-0.658l0.577,0.086l0.402,0.171l0.082-0.095l0.099-2.825l0.385-1.45l0.737-2.126l0.591-1.381
		l0.509-0.919l2.799-3.775l1.128-1.163l0.019-0.328l-0.071-0.132l-2.391-1.844l-0.845-0.314l-3.052-0.799l-1.427-0.135l-3.416,0.914
		l-1.517,0.671l-1.298,0.76l-1.37,0.926l-0.497,0.293l-1.37,1.669l-1.016,0.878l-1.034,0.873l-0.755,0.949l-0.812,1.063l-0.4,0.252
		l-1.03,1.78l-0.32,0.9l-0.382,0.976l-0.553,1.866l-0.279,2.099l-0.103,1.505l0.238,1.485l0.119,0.437l1.606,3.522l0.265,0.367
		l0.075,0.133l0.819,0.34l1.009,0.735l0.356-0.133l0.09-0.611l-0.018,0.003l0.327,0.299l0.354,0.804l-0.481,0.348l0.066,0.249
		l1.176,0.904l1.641,0.353l0.197-0.259l-0.494-1.19l0.266,0.093l0.313,0.55l1.348,1.052l0.807-0.007l0.146-0.231l-0.076-0.096
		l-0.139-0.058l-0.742-1.086L15.565,37.316L15.565,37.316z M41.36,45.109l-0.043,0.006l0.104,0.106l0.062,1.188l-0.418,3.709
		l0.235,0.223l1.028-0.081l0.041-0.917l0.102-2.665l0.239-0.034l0.171,1.181l0.111,1.34l0.245,1.082l0.632,0.562l1.183-0.018
		l1.054-0.099l1.192-0.205l1.005-0.213l1.166-0.353l0.162-0.226l-0.049-0.442l-0.213-0.528l0.41-0.435l0.731,1.086l0.459,0.407
		l1.778-0.597l0.086-0.311l-0.196-1.346l0.083-0.271l-0.055,0.01l0.343,0.261l0.218,0.909l0.651,0.231l0.843-1.069l0.239-0.551
		l0.232-0.553l0.44-2.345l-0.891-3.504l-0.364-0.832l-1.431-4.283l-0.104-0.301l-1.252-0.771l-0.578-0.906l-0.242-1.696l0.224-1.098
		l0.361-1.149l0.56-0.35l2.693-0.02l1.215,0.979l0.173,1.08l0.141,1.219l-0.749,1.266l0.016,0.127l1.352-0.015l1.298,0.122
		l0.974-0.526l0.783-0.519l1.229-1.69l0.729-1.487l0.213-1.335l-0.339-3.133l-0.63-2.153l-0.773-1.469l-1.084-1.255l-0.596-0.677
		l-0.51-0.554l-0.72-0.771l-0.298-0.335l-3.267-2.474l-0.397-0.211l-0.802-0.415l-0.891-0.579l-1.537-0.607L49,13.448l-1.617-0.324
		l-3.475-0.095l-3.297,0.476l-0.725,0.206l-3.622,1.43l-0.392,0.225l-1.347,0.957l-1.201,1.129l-0.294,0.34l-0.528,0.323
		l-1.518,1.885l-1.382,1.811l-0.756,1.133l-0.595,1.381l-0.414,1.447l-0.272,2.242l0.107,2.113l0.499,2.364l0.209,1.063l0.705,1.344
		l3.473,2.704l3.541,0.481l0.683-0.128l0.482-0.778l-1.498-1.171l-0.514-0.561l-0.354-1.752l0.212-0.948l0.593-0.778l0.804-0.389
		l1.207-0.189l1.155,0.775l0.787,1.682l-0.046,1.309l-0.194,0.877l-0.364,1.582l-0.521,0.567l-0.226,0.394l-0.367,1.143l-0.17,0.569
		L37.37,41.09l-0.386,0.815l-0.302,0.852l-0.272,1.629l-0.001,2.571l-0.041,0.42l0.313,0.566l0.436-0.124l0.391,0.594l0.301,0.515
		l0.394,0.173l0.284-1.247l0.344-0.451l-0.008,0.001l0.146,0.238l-0.351,1.61l0.179,0.382l1.117,0.44l0.3,0.031l0.311-0.028
		l0.292-1.902l0.119-0.896l0.169-1.647L41.36,45.109L41.36,45.109z M25.818,30.078l1.12-0.285l-0.032-0.541l-1.935,0.409
		l-0.076,0.259l0.916,2.38l1.323,2.679l0.57,0.516l1.03-0.123l-0.085-0.226l-0.282-0.062h-0.451l-0.172-0.038l0.201-0.396
		l0.094-0.307l-0.518-0.166l-0.111-0.344l0.477-0.337l-0.021-0.301l-0.601-0.576l-0.273-0.085l0.474-0.485l-0.046-0.426
		l-0.865-0.127l-0.188-0.202l0.127-0.245l0.528-0.26l-0.02-0.383l-0.119-0.079l-0.9-0.022L25.818,30.078L25.818,30.078z M11,38.499
		l-0.233-0.178l-1.454,1.106L9.236,39.06l0.722-0.969l0.057-0.282l-0.467,0.323l-0.368,0.483l-0.624,0.413l0.01,0.25l0.802,0.61
		l0.472-0.109l0.81-0.666L11,38.499L11,38.499z M5.821,30.906l-0.169-0.668l-2.028,0.169l-0.071,0.13l0.214,0.458l1.624,0.003
		L5.821,30.906L5.821,30.906z M60.938,21.698l0.892-0.567l-0.207-0.299l-0.77,0.053l0.038-0.367l0.51-0.301l0.036-0.136
		l-0.202-0.129l-1.068,0.502l-0.047,0.273l0.298,0.327L60.938,21.698L60.938,21.698z M11.764,39.057l-0.225-0.172l-0.786,0.687
		l-0.726,0.567l0.225,0.396l0.554-0.093L11.764,39.057L11.764,39.057z M54.347,32.112l-1.705-0.355l0.304,0.382l1.264,0.432
		l0.693,0.268l0.209-0.056l-0.037-0.142L54.347,32.112L54.347,32.112z M8.052,38.858l0.256-0.086l0.989-1.306l-0.002-0.145
		l-0.209-0.004l-0.905,0.744l-0.338,0.601L8.052,38.858L8.052,38.858z M29.375,12.921l0.146-0.028l0.848-0.613l0.214-0.525
		l-0.248-0.142l-0.143,0.043l-0.873,1.036l-0.004,0.144L29.375,12.921L29.375,12.921z M14.874,39.885l-0.391-0.118l-0.312,0.851
		l-0.294,0.657L14.874,39.885L14.874,39.885z M29.836,13.148l0.029,0.158l0.346,0.148l0.759-0.669L30.856,12.4L29.836,13.148
		L29.836,13.148z M15.616,40.051l-0.478,1.03l0.657-0.697L15.616,40.051L15.616,40.051z M29.864,36.424l-0.833,0.331l0.259,0.296
		l0.812-0.319L29.864,36.424L29.864,36.424z M36.722,32.236l0.448,0.454l0.731,0.115l0.021-0.198l-0.527-0.26L36.722,32.236
		L36.722,32.236z M23.936,40.108l-1.093-0.956l-0.14-0.015l0.151,0.241L23.936,40.108L23.936,40.108z M6.823,37.452l0.252-0.074
		l0.599-0.985l-0.825,0.783L6.823,37.452L6.823,37.452z M27.467,42.387l0.045,0.139l0.734,0.625l0.259-0.017l-0.061-0.133
		l-0.7-0.548L27.467,42.387L27.467,42.387z M26.184,41.005l0.837,0.808l0.267,0.009L26.184,41.005L26.184,41.005z M28.324,36.135
		l0.129,0.251l0.379,0.01l0.314-0.485L28.324,36.135L28.324,36.135z M5.269,33.46l-0.432,0.03l0.015,0.538l0.425-0.314L5.269,33.46
		L5.269,33.46z M30.952,13.791l0.588-0.783l-0.589,0.634L30.952,13.791L30.952,13.791z M20.667,41.004l-0.618-0.595l-0.14-0.015
		l0.017,0.192l0.465,0.349L20.667,41.004L20.667,41.004z M22.674,38.094l0.258,0.014l0.082-0.255l-0.171-0.212l-0.301,0.213
		L22.674,38.094L22.674,38.094z M34.842,46.46l-0.634-0.605l-0.144-0.018l0.036,0.191L34.842,46.46L34.842,46.46z M6.307,36.674
		l0.271-0.376L6.307,36.674L6.307,36.674z M27.075,10.091l-0.001-0.133l-0.195,0.057l-0.035,0.229L27.075,10.091L27.075,10.091z
		 M13.392,40.908l0.215-0.16l0.028-0.127l-0.176,0.036L13.392,40.908L13.392,40.908z M21.791,38.257l-0.002,0.2l0.236-0.144
		l-0.021-0.137l-0.108-0.006L21.791,38.257L21.791,38.257z M21.34,38.867l0.375,0.271L21.34,38.867L21.34,38.867z M30.508,37.453
		l0.091,0.018l0.162-0.203l-0.035-0.093l-0.136,0.033L30.508,37.453L30.508,37.453z M31.114,38.04l0.201-0.016l-0.049-0.129
		l-0.257-0.074l0.007,0.122L31.114,38.04L31.114,38.04z M56.209,14.219l0.061,0.047l0.195-0.196l-0.135-0.094L56.209,14.219
		L56.209,14.219z M61.84,23.853l0.125,0.237l0.245,0.02l-0.098-0.23L61.84,23.853L61.84,23.853z M44.359,52.296l0.141,0.011
		l-0.074-0.193l-0.24-0.042L44.359,52.296L44.359,52.296z M61.38,31.562l0.092,0.007l0.173-0.225l-0.023-0.103l-0.137,0.054
		L61.38,31.562L61.38,31.562z M5.469,35.261l0.092-0.067l-0.079-0.045L5.469,35.261L5.469,35.261z M6.157,34.831l-0.099,0.078
		l0.071,0.044L6.157,34.831L6.157,34.831z M26.404,9.859L26.362,9.78l-0.049,0.087L26.404,9.859L26.404,9.859z M12.971,41.634
		l-0.038-0.136l-0.141,0.02l0.038,0.138L12.971,41.634L12.971,41.634z M16.586,39.828l-0.048-0.079l-0.044,0.077L16.586,39.828
		L16.586,39.828z M17.329,39.767l0.113-0.042l-0.123-0.078L17.329,39.767L17.329,39.767z M18.269,39.496l-0.091,0.074l0.07,0.041
		L18.269,39.496L18.269,39.496z M19.84,38.972l0.11-0.029l-0.129-0.083L19.84,38.972L19.84,38.972z M31.91,38.081l-0.002,0.15
		l0.118-0.015L32,38.099L31.91,38.081L31.91,38.081z M29.051,43.589l-0.041-0.106l-0.119,0.005l0.039,0.115L29.051,43.589
		L29.051,43.589z M36.684,33.736l0.045,0.108l0.118-0.006l-0.048-0.108L36.684,33.736L36.684,33.736z M37.462,33.875l-0.089,0.042
		l0.098,0.056L37.462,33.875L37.462,33.875z M53.99,29.777l0.083-0.041l-0.089-0.049L53.99,29.777L53.99,29.777z M53.025,34.35
		l0.041,0.132l0.096-0.14L53.025,34.35L53.025,34.35z M62.54,27.447l0.053,0.098l0.058-0.097L62.54,27.447L62.54,27.447z"/>
	<polygon fill="#232734" points="39.311,38.225 39.128,38.62 38.879,45.222 38.674,47.013 38.83,47.403 38.822,47.404 
		38.997,47.166 39.375,44.181 39.501,41.473 39.48,38.461 39.328,38.223 39.311,38.225 	"/>
	<polygon fill="#232734" points="40.182,44.616 40.012,44.86 39.74,46.498 39.192,49.13 39.459,49.308 39.768,49.039 40.35,45.005 
		40.186,44.616 40.182,44.616 	"/>
	<polygon fill="#232734" points="46.281,46.179 46.098,46.418 46.063,46.708 46.434,49.64 46.859,49.851 46.757,48.823 
		46.338,46.292 46.233,46.186 46.281,46.179 	"/>
	<polygon fill="#232734" points="40.189,38.106 39.973,38.483 40.065,41.347 40.238,41.571 40.184,41.575 40.389,41.271 
		40.362,39.987 40.376,38.79 40.328,38.343 40.158,38.111 40.189,38.106 	"/>
	<polygon fill="#232734" points="37.878,45.145 37.71,45.38 37.574,46.25 37.733,46.469 37.977,46.39 38.068,46.238 38.016,45.379 
		37.861,45.147 37.878,45.145 	"/>
	<polygon fill="#232734" points="37.861,45.147 38.091,44.616 38.019,43.867 37.866,43.628 37.897,43.625 37.658,44.109 
		37.712,44.943 37.878,45.145 37.861,45.147 	"/>
	<polygon fill="#232734" points="40.214,43.094 39.984,43.627 40.032,44.378 40.182,44.616 40.186,44.616 40.413,44.081 
		40.336,43.328 40.173,43.098 40.214,43.094 	"/>
	<polygon fill="#232734" points="22.305,33.349 21.815,33.241 20.433,32.332 19.807,32.416 20.884,33.179 22.059,33.832 
		23.428,34.935 23.764,35.497 24.526,36.179 24.667,36.482 25.831,37.846 26.395,38.06 26.364,37.846 25.545,36.875 25.001,36.17 
		24.375,35.289 23.437,34.495 23.133,33.98 22.305,33.349 	"/>
	<polygon fill="#232734" points="25.458,33.372 25.159,33.115 25.149,32.762 24.693,32.374 24.071,31.531 23.196,30.516 
		21.941,29.678 21.69,29.789 21.685,29.738 22.383,30.307 23.773,31.855 23.87,32.275 23.556,32.567 24.22,33.167 24.715,33.587 
		25.396,34.509 25.652,34.498 25.43,33.651 25.458,33.372 	"/>
	<polygon fill="#232734" points="30.645,40.742 33.106,42.583 33.257,42.56 33.226,42.165 33.016,41.904 30.185,39.694 
		29.719,39.649 29.514,39.785 29.572,39.914 29.943,40.154 30.645,40.742 	"/>
	<polygon fill="#232734" points="18.72,23.656 18.702,23.926 19.128,24.338 19.777,25.144 20.532,25.866 21.253,26.984 
		21.388,27.013 21.555,26.793 20.86,25.752 20.138,25.13 19.94,24.685 18.662,23.666 18.72,23.656 	"/>
	<polygon fill="#232734" points="31.116,18.315 31.612,17.739 31.473,17.017 30.78,16.447 30.267,16.58 31.191,17.692 
		30.047,17.416 29.768,17.351 29.553,17.522 29.621,17.774 30.318,18.019 30.982,18.34 31.116,18.315 	"/>
	<polygon fill="#232734" points="31.902,15.217 31.211,15.373 31.083,16.216 31.304,16.439 31.766,16.426 32.543,16.875 
		32.622,15.753 32.254,14.949 32.003,14.896 31.953,15.034 31.902,15.217 	"/>
	<polygon fill="#232734" points="25.376,23.37 25.799,23.75 26.279,23.774 27.434,23.686 27.532,23.279 26.504,23.243 
		25.495,23.336 25.381,23.429 25.376,23.37 	"/>
	<polygon fill="#232734" points="43.207,12.531 43.565,12.06 43.541,10.693 43.38,10.474 43.124,10.777 43.062,11.979 
		43.231,12.528 43.207,12.531 	"/>
	<polygon fill="#232734" points="42.034,10.084 42.028,10.945 42.029,11.824 42.198,12.041 42.442,11.95 42.524,11.821 
		42.339,10.367 42.008,10.089 42.034,10.084 	"/>
	<polygon fill="#232734" points="40.402,12.078 40.296,11.139 40.026,10.96 39.898,11.007 39.812,11.731 39.83,12.026 
		40.069,12.368 40.402,12.078 	"/>
	<polygon fill="#232734" points="33.735,13.54 34.147,15.04 34.511,14.898 34.491,14.609 33.979,13.563 33.735,13.54 	"/>
	<polygon fill="#232734" points="33.497,15.27 33.074,14.054 32.918,14.091 32.766,14.324 33.153,15.403 33.497,15.27 	"/>
	<polygon fill="#232734" points="35.448,14.669 35.073,13.202 34.801,13.138 35.172,14.362 35.515,14.66 35.448,14.669 	"/>
	<polygon fill="#232734" points="35.764,12.436 35.947,13.488 36.274,13.731 36.419,13.723 36.486,13.626 36.465,13.333 
		36.125,12.507 35.764,12.436 	"/>
	<polygon fill="#232734" points="37.004,12.988 37.154,12.252 36.901,11.636 36.553,11.775 36.667,12.779 37.004,12.988 	"/>
	<polygon fill="#232734" points="37.418,11.141 37.368,11.566 37.867,12.615 38.106,12.631 37.924,11.587 37.358,11.152 
		37.418,11.141 	"/>
	<polygon fill="#232734" points="38.795,12.533 39.194,12.742 39.201,11.532 38.696,11.531 38.795,12.533 	"/>
	<polygon fill="#232734" points="41.021,10.437 40.766,10.823 40.936,12.249 41.248,12.012 40.957,10.442 41.021,10.437 	"/>
	<polygon fill="#232734" points="7.719,17.971 7.405,17.989 7.939,19.066 7.112,18.875 6.958,19.113 7.786,19.926 8.115,19.917 
		8.559,19.333 8.246,18.429 7.719,17.971 	"/>
	<polygon fill="#232734" points="11.642,14.103 10.875,14.481 11.633,15.556 12.5,14.992 12.519,14.872 12.472,14.732 
		11.642,14.103 	"/>
	<polygon fill="#232734" points="19.97,10.733 19.981,10.217 19.64,9.948 19.331,10.266 19.089,10.412 18.796,10.15 18.603,10.339 
		18.867,11.124 19.42,10.682 19.97,10.733 	"/>
	<polygon fill="#232734" points="9.615,16.292 10.472,16.817 10.583,16.555 10.552,16.416 9.78,15.762 9.543,15.78 9.51,15.915 
		9.615,16.292 	"/>
	<polygon fill="#232734" points="9.314,18.253 8.954,17.458 8.039,17.211 8.058,17.362 9.047,18.246 9.314,18.253 	"/>
	<polygon fill="#232734" points="7.182,20.339 6.536,19.847 6.182,20.048 7.044,20.877 7.284,20.855 7.298,20.571 7.182,20.339 	"/>
	<polygon fill="#232734" points="11.112,15.64 10.351,15.211 10.377,15.612 11.01,16.265 11.242,16.188 11.112,15.64 	"/>
	<polygon fill="#232734" points="9.072,16.44 9.074,17.01 10.093,17.655 9.755,17.178 9.438,16.673 9.072,16.44 	"/>
	<polygon fill="#232734" points="17.486,10.273 18.099,11.21 17.486,10.273 	"/>
	<polygon fill="#232734" points="6.947,21.821 5.663,20.792 5.684,20.911 6.8,21.83 6.947,21.821 	"/>
	<polygon fill="#232734" points="12.432,13.595 12.142,14.095 12.446,14.368 12.717,14.341 12.432,13.595 	"/>
</g>
</svg>
