<?xml version="1.0" encoding="utf-8"?>
<!-- Generator: Adobe Illustrator 15.0.2, SVG Export Plug-In . SVG Version: 6.00 Build 0)  -->
<!DOCTYPE svg PUBLIC "-//W3C//DTD SVG 1.1//EN" "http://www.w3.org/Graphics/SVG/1.1/DTD/svg11.dtd">
<svg version="1.1" id="Layer_1" xmlns="http://www.w3.org/2000/svg" xmlns:xlink="http://www.w3.org/1999/xlink" x="0px" y="0px"
	 width="123px" height="123px" viewBox="0 0 123 123" enable-background="new 0 0 123 123" xml:space="preserve">
<g id="nectarina">
	<path fill="#232734" d="M29.739,87.124l3.979,3.506l4.616,3.555l4.602,3.189l1.405,0.59l1.248,0.186l2.044,1.146l0.637-0.131
		l0.755,0.332l1.12,0.139l0.786-0.043l1.738,0.217l0.769-0.188l1.184,0.053l1.973-0.078l1.799,0.062l1.924,0.129l0.645-0.177
		l2.534-0.37l0.574-0.127l0.985-0.064l1.924-0.41l0.745-0.234l2.361-0.941l1.621-0.674l1.441-0.594l1.96-0.863l1.97-0.852
		l1.322-0.792l6.717-5.134l1.664-1.784l2.348-3.147l0.414-0.619l0.996-1.772l0.608-1.336l0.406-0.817l0.521-1.367l0.478-1.192
		l0.546-1.558l0.498-1.57l0.207-1.078l0.447-1.771l0.176-0.896l0.256-2.19l0.117-0.723l0.492-2.128l-0.181-0.554l0.224-0.477
		l0.349-4.193l-0.204-0.532l0.078-1.837l0.004-0.548l-0.105-2.372l-0.129-1.453l-0.031-0.544l0.095-1.65l-0.076-3.292l-0.024-0.181
		l-0.144-2.671l-1.313-1.394l-1.008-0.901l-0.902-0.719l-1.203-0.97l-2.895-2.267l-0.475-0.33l-1.469-0.884L85.275,36.7
		l-1.446-0.988l-6.705-3.96l-0.597-0.569l-0.819-0.513l-0.527-0.249l-3.133-1.599l-2.033-0.742l-0.768-0.187l-1.127-0.175
		l-0.793-0.368l-3.205-0.377l-1.672-0.261l-0.784,0.073l-1.199-0.073L58.689,26.8l-2.171,0.179l-0.991,0.069l-0.188,0.06
		l-2.514,0.501l-0.766,0.183l-0.736,0.265l-5.26,1.621l-1.67,0.536l-1.292,0.456l-1.822,0.721l-1.692,0.929l-4.624,3.133
		l-2.329,1.707l-1.191,0.923l-1.615,1.346l-3.411,3.775l-2.149,2.828l-1.262,1.617l-1.18,1.893L20.45,51.98l-0.309,1.813l-0.3,0.556
		l-0.373,4.092l0.185,0.608l0.008,2.516l0.167,0.516l-0.008,0.566l-0.031,1.469l0.356,1.803l0.357,1.979l0.773,2.839l0.556,1.57
		l0.956,2.418l2.409,4.854l1.242,3.11l2.32,3.321L29.739,87.124L29.739,87.124z M74.743,56.477l0.203-0.262l0.088,0.114
		l-0.345,0.085l-0.433,0.33l0.656,0.801l0.51-0.165l0.496-0.474l1.14-0.833l-1.091-0.276l-0.141,0.248l-0.135-0.029l0.314-0.177
		l0.488-0.511l0.516-0.131l0.785,0.312l0.483-0.497l0.694,0.323l0.332-0.819l-0.598-0.492l0.523-0.144l0.787,0.105l0.627-0.353
		l-0.307-0.176l0.115-0.113l0.129,0.337l0.567,0.084l0.511,0.37l0.465-0.167l0.217-1.291l-0.862-0.081l-0.011,0.336l-0.033,0.164
		l-0.137,0.101l-0.221-0.169l0.014-0.166l0.443-0.209l0.625-0.567l0.118,0.637l0.56,0.025l0.49,0.355l0.203,0.001l0.311-0.182
		l0.336-0.401l0.959-0.191l-0.817-0.876l-1.015,0.604l-0.104-0.561l1.114-0.787l2.427-1.529l0.322,0.129l-0.047,0.512l-0.053-0.051
		l0.779,0.156l0.321,0.196l0.226,0.849l0.631-0.281l0.07-0.358l-0.375-0.34l0.123-0.287l0.125,0.013l0.098,0.142l-0.041,0.52
		l0.875,0.711l0.761,0.797l0.687-0.417l-1.104-1.221l0.085-0.928l0.053,0.069l-0.359-0.343l-0.262-0.793l-0.916-0.167l-0.433,0.336
		l0.241,0.659l-0.152,0.1l-0.34-0.158l-0.127-0.319l0.418-0.236l0.434-0.337l0.16-0.304l0.479-0.262l1.188,0.624l0.251-0.649
		L90.2,46.96l0.75-0.472l0.696-0.638l0.492,0.153l-0.472,0.491l-0.776-0.063L90.79,47.59l0.519-0.207l0.479-0.066l0.748,0.33
		l0.575-0.584l0.593,0.054l0.162-0.26l0.092,0.099l-0.304,0.106l-0.099,1.153l0.73-0.142l-0.203,1.578l-0.556-0.589l0.082-0.894
		l-0.575-0.006l-0.244,0.872l0.627,0.865l-0.168,0.978L92.6,51.654l1.124,0.18l0.233-0.563l-0.158-0.336l0.107-0.346l0.248-0.272
		l0.303-0.021l-0.283,2.31l-0.951-0.038l-0.982-0.083l-0.484-0.357l-0.536,0.533l0.504,0.46l1.216-0.114l1.285,1.35l-0.023,0.177
		l0.15,0.618l-0.129-0.633l-0.947-0.159l-0.404-0.61L91.5,55.063l-0.414,0.376l-0.074,0.85l0.668-0.567l0.705-0.518l0.354,0.179
		l0.358-0.146l0.588,0.312l0.161,0.647l0.564,0.367l-0.625,0.476l-0.513,0.713l-0.192,0.032l0.07-0.048l-0.005,0.592l0.543,0.725
		l-0.407,0.922l0.344,0.864l-0.068,0.739l-0.652,0.713l0.018,0.131l0.459,0.371l0.002,0.547l1.101,0.623l-0.502,1.09l-0.169,0.064
		l-0.48-0.566l0.114-1.254l-0.548-0.006l-0.388,0.567l0.032,0.521l-0.047-0.053l0.178,0.084l0.193,0.295l0.817,0.91l0.213,0.572
		l-0.247,0.285l0.073,0.166l-0.384,0.279l-0.236-0.69l-0.588-0.231l-0.9,0.668l-0.176,0.484l0.372,0.389l1.56,0.32l0.237,0.482
		l-1.517,0.072l-0.971,0.326l-0.07,0.139l0.527,0.931l1.396,0.132l0.146,0.122l-0.414,0.417l-0.148-0.066l-0.956,0.311l-0.356,0.633
		l0.106,1.055l0.019,0.365l-0.037-0.053l0.463-0.27l0.313-1.039l0.502,0.137l0.283,0.424l-0.397,0.173l-0.313,0.435l0.285,0.461
		l-0.612,0.549l-0.863,0.685l-0.062,0.14l0.123,0.35l-0.213,1.173l0.83,0.353l-0.549,0.293l-0.672,1.021l-0.088,1.529l-0.209,0.48
		l-1.354,0.949l-0.573,0.176l-0.035,0.387l0.695,0.908l-1.101,1.68l-1.537,0.392l-0.322,0.188l-0.188,1.252l0.334,0.481l-0.4,0.229
		l-0.284,0.734l-0.62,0.317l0.034-0.026l-0.718,1.047l-1.229,0.555l-0.938-0.911l0.013-0.603l0.055,0.068l-0.724,0.137l-0.071,0.334
		l0.601,0.687l0.687,0.846l-0.771,0.548l0.039-0.027l-0.91,0.693l0.051-0.039l-0.73,0.571l-0.73-0.621l-0.584-0.09l0.062-0.06
		l0.512,0.972l0.076,0.373l-0.58,0.487l-0.752-0.643l-0.441,0.137l0.55,0.744l-0.138,0.329l-1.299,0.813L74.45,94.51l0.061-0.045
		l-1.309,0.779l-1.068,0.459l-0.938-0.142l-0.512-0.261l-0.157,0.092l0.031,0.874l-2.288,0.813l-0.777-0.567l-0.182,0.008
		l-0.104,0.119l0.164,0.728l-0.613,0.409l-0.664,0.033l0.059-0.038l-0.115,0.146l-0.158,0.101l-1.148,0.244l-0.18-0.035
		l-0.274-0.076l-1.586,0.375l-1.647,0.272l-2.253-0.209l-0.633-0.715l-0.342,0.047l-0.286,0.716l-0.511,0.125l-3.094-0.16
		l-0.647,0.179l-5.397-0.537l-0.776-0.422l-3.223-3.347l-0.308-0.468l-0.673-1.168l-0.25-1.577l0.17-0.293l1.198,0.01l0.383,0.386
		l0.214,0.512l0.335,0.459l0.274,0.477l-0.352,0.656l0.713,0.252l0.394-0.33l1.88,0.217l0.361,1.1l-0.122,0.244l-1.328-0.754
		l-1.229-0.539l0.016,1.256l0.551,0.484l-0.14,0.463l0.355,0.127l0.719-0.271l0.547,0.086l0.01,0.527l-0.503-0.147l-0.064,0.841
		l0.369-0.059l0.9,0.266l0.497,0.277l0.393,0.074l0.952-1.054l1.101-0.724l0.03,1.061l-0.433,0.61l0.011,0.519l0.443,0.269
		l0.253-0.234l0.175-0.313l0.264-0.264l0.093-0.339l-0.177-0.894l0.936-0.163l0.312-0.411l0.333-0.146l-0.072,0.047l-0.533-0.451
		l-0.521,0.253L51.197,95.1l-1.109,0.35l-0.136-0.072l-0.007-0.346l1.179-0.642l0.332-0.364l-0.77-0.57l-0.826-0.074l-0.569,0.455
		l0.486,0.39l-0.497,0.485l-0.542-0.401l0.02-0.728l-0.042-0.149l-0.775-1.306l-0.366-0.008l-0.272,0.258l-0.478,0.111l-0.561,0.049
		l-0.332-0.565l0.94-0.089l0.792-0.541l1.223-0.479l-0.672-0.219l-1.522,0.299l-0.542,0.01l-1.945-0.352l-0.303-0.4l-1.067-0.119
		l-0.373-0.102l-0.359-1.557l0.267-0.824l0.957-0.005l-0.578-0.688l-0.387,0.078l0.252-3.751l0.806-0.368l0.893,0.674l0.236,0.021
		l0.253-0.521l-0.732-0.615l-0.854-0.588l2.188-3.633l0.263-1.367l0.955-0.701l0.153,0.119l0.785-0.301l-0.299-0.229l-0.293-0.221
		l-0.022-0.523l0.462-0.795l1.522-1.887l0.442-0.336l0.216,0.021l0.314,0.366l-0.841,1.393l0.238,0.295l0.386,0.084l0.371,0.606
		l-1.416,0.479l-0.606,0.522l-0.11,1.205l-0.043-0.05l1.296,0.425l0.268-0.229l0.245-1.304l0.784-0.747l0.869-0.557l0.281-0.398
		l-1.688-0.512l0.854-0.755l0.207-0.062l0.646,0.363l0.284-0.393L51.6,72.053l-0.384-0.403l-0.625-0.586l0.617,0.294l-0.048,0.336
		l0.371,0.408l0.564,0.111l0.221,0.324l0.819,0.385l-0.065,0.039l-0.04-1.104l-1.256-1.403l1.553-0.75l0.302,0.16l-0.258,0.271
		l-0.394,0.359l-0.019,0.215l0.534,0.353l0.373-0.172l0.666,0.34l0.707-0.168l0.125-0.664l0.842-0.517l0.819-0.452l0.275-0.813
		l0.343,0.191l0.608-0.378l-0.688-0.646l-0.248,0.286l-0.031-0.127l0.33-0.104l0.084-0.162l0.695-0.299l0.615-0.44l0.248,0.168
		l-0.041,0.521l-0.301,0.951l1.284-0.816l0.577,0.396l0.322,0.172l0.382-0.324l-0.373-0.877l-0.808-1.049l0.977-0.354l0.096,0.159
		l0.018,0.367l0.5,0.408l0.749-0.039l0.925,0.152l0.494-0.175l0.346-1.122l0.952-0.424l-0.193-1.065l-0.205-0.28l-0.588-0.107
		l0.33,0.672l-0.753,0.542l-0.823,0.97l-0.529-0.146l-0.236-0.829l0.775-0.39l0.945-0.635l0.358-0.125l0.962-0.562l0.157,0.048
		l0.231,0.508l0.656,0.382l0.578,0.486l0.43-0.367l-0.287-0.891L66.44,62.9l-0.175-0.422l0.817-0.695l0.612,0.219l0.238,0.506
		l0.787-0.254l0.135,0.055L69,62.437l0.521,0.136l0.146-0.473l-1.223-0.815l-0.068-0.403l1.187-0.896l1.381-0.999l0.861-0.725
		l0.925-0.086l0.404,0.6l0.384,0.129l0.787-0.18l0.25,0.174l0.692-0.017l-1.36-1.572l0.424-0.501L74.743,56.477L74.743,56.477z
		 M94.362,61.953l0.162-0.255l0.089,0.1l-0.288,0.112l0.012,0.331l-0.188,0.254l-0.124-0.05l0.013-0.435L94.362,61.953
		L94.362,61.953z M91.995,74.674l0.176-0.26l0.07,0.11l-0.295,0.095l-0.205,0.596L91.995,74.674L91.995,74.674z M34.778,70.512
		l-0.252,0.967l0.006-0.77l0.296-0.146l0.106-1.161l0.59-0.558l0.173,0.246L35.1,70.391l-0.129,0.102L34.778,70.512L34.778,70.512z
		 M30.06,69.348l-0.267,0.984v-0.804l0.304-0.144l0.758-2.372l0.785,0.922l-0.55,0.646l-0.366-0.166l-0.332,0.844L30.06,69.348
		L30.06,69.348z M23.661,65.058l-0.665-0.638l0.975-2.34l0.542-0.529l0.405,0.424l-0.007,0.179l-0.461,0.791l-0.737,1.459
		l-0.122,0.713l0.336-0.121l1.143-2.074l0.622-0.026l-0.559,1.142l-0.583,1.328l-0.486,1.143l-0.514-0.252L23.661,65.058
		L23.661,65.058z M22.577,63.114l-0.151,0.293l-0.103-0.103l0.303-0.136l-0.277-1.041l0.081-0.891l0.516-0.808l0.137-0.115
		l0.445-0.027l0.42,0.522l-0.025,0.238l-0.566,0.941l-0.585,1.106L22.577,63.114L22.577,63.114z M28.249,63.32l-0.534-0.049
		l-1.342-1.104l-1.145-1.183l0.005-0.577l0.061,0.059l-1.007-0.875l-0.158-0.337l-0.877-2.623l-0.302-2.35l-0.236-0.875l0.101-1.105
		l0.194-1.823l0.409-1.205l0.665-1.303l1.38-1.529l0.712-0.507l-0.249-0.694l0.678-0.565l0.77-0.092l-0.081-1.104l0.932-1.083
		l0.152-0.109l0.186-0.064L28.5,42.27l0.664-0.89l0.355-0.116l0.487,0.29l0.139-0.453l-0.133-0.775l1.101-0.882l0.342-0.139
		l0.403,0.184l0.304-0.833l1.054-0.709l0.345,0.198l0.48-0.951l2.027-1.487l0.374-0.139l0.779,0.017l0.345-0.38l-0.095-0.436
		l1.784-1.227l1.826-1.083l4.886-1.865l0.569,0.044l1.915-0.647l0.637,0.333l0.163-0.035l0.491-0.714l0.813-0.399l0.934-0.015
		l-0.071,0.053l0.06-0.173l0.677-0.314l0.815-0.43l1.042-0.065l3.217-0.691l1.821,0.009l1.173-0.113l2.773,0.012l0.356,0.103
		l0.961,0.219l2.959,0.323l1.033,0.57l-0.128,0.182l0.348,0.4l0.137-0.12l0.09-0.158l0.59-0.337l1.263,0.58l-0.089,0.467
		l0.521,0.098l1.108-0.077l3.47,1.801l0.182,0.309l-0.053-0.056l1.387,0.675l0.113,0.323l-0.307,0.445l0.484,0.127l0.345-0.422
		l0.159-0.031l0.693,0.387l0.396,0.641l0.854,0.161l2.336,1.507l0.074,0.167l-0.049-0.056l1.854,1.081l0.978,0.64l0.808,0.865
		l1.598,0.646l-0.141,0.308l-0.08,0.16l0.099,0.332l0.532,0.014l0.35-0.346l1.107,0.933l-0.201,0.314l0.414,0.468l0.859-0.108
		l0.772,0.694l1.036,0.861l0.248,0.462l-0.319,0.474l0.126,0.727l-2.206,1.755l-1.418,0.996l-2.442,1.546l-3.051,2.018l-0.326,0.206
		l-1.674,0.968l-1.673,0.97l-1.819,1.091l-1.877,1.007l-1.234,0.88l-0.309,0.225l-2.427,1.566l-0.642,0.425l-1.53,1.115
		l-0.575,0.489l-2.074,1.392l-2.203,1.544l-2.303,1.406l-0.186,0.066l-2.498,1.471l-4.017,2.318l-1.075,0.467l-4.233,1.537
		l-0.409,0.02l-0.867-0.801l-0.548,0.09l0.583,0.795l-0.14,0.473l-1.298,0.297l-0.665-0.658l-0.678,0.646l0.293,0.177l-0.128,0.084
		L46.5,70.477l-0.738,0.244l-0.358-0.108l-0.193-0.851l-0.616,0.38l0.122,0.353l-0.682-0.047l-0.757-0.203l-0.667-0.275l0.115-0.148
		l0.069-0.304l-0.346-0.095l-0.652,0.318l-2.499-0.297l-2.37-1.156l-0.734-0.274l-0.253-0.255l-0.076-0.586l-0.479-0.223
		l-0.537,0.494l-1.686-0.98l0.011-0.529l0.061,0.062l-1.131,0.047l-1.856-0.988l-1.724-1.174l-0.334-0.619L28.249,63.32
		L28.249,63.32z M26.734,64.01l0.402,0.084l0.153,0.312l-0.128,0.698l-0.805,1.62l-0.738,1.826l-0.54,0.234l-0.15-0.345l0.336-1.383
		l0.528-1.147l0.396-1.246L26.734,64.01L26.734,64.01z M27.781,70.545L27.4,69.643l0.23-0.529l0.555-1.732l0.089-0.354l0.686-1.284
		l0.224,0.18l-0.144,1.195l-0.336,0.5l-0.355,1.457L27.781,70.545L27.781,70.545z M26.694,69.627l-0.45-0.236l-0.061-0.52
		l0.829-2.029l0.819-1.619l0.356,0.304l-0.798,2.036l-0.586,1.915L26.694,69.627L26.694,69.627z M29.392,68.438l-0.223,1.249
		l-0.514,1.521l-0.134,0.131l-0.196-0.268l0.171-1.215l0.363-0.459l0.19-1.264l0.386-0.637l0.3-0.588l-0.021,1.07L29.392,68.438
		L29.392,68.438z M33.341,72.084l-0.005-1.799l0.458-1.379l0.244-0.121l0.098,0.156l-0.147,1.241l-0.371,0.53L33.341,72.084
		L33.341,72.084z M35.722,71.942l-0.194-0.423l0.806-1.978l0.132-0.127l0.319-0.017l0.07,0.153l-0.54,1.654L35.722,71.942
		L35.722,71.942z M30.507,70.938l0.103,0.188l-0.52,1.699l-0.554,0.457l-0.109-0.135l0.345-0.805l0.399-1.168L30.507,70.938
		L30.507,70.938z M54.163,69.536l0.207-0.316l1.452-0.483l0.193,0.021l0.138,0.129l0.013,0.138l-0.499,0.44l-0.811,0.041
		l-0.473,0.461L54.163,69.536L54.163,69.536z M23.025,59.026l-0.811,1.454l0.097-1.364l0.277-0.252L23.025,59.026L23.025,59.026z
		 M38.818,71.909l-0.419-0.541l0.003-0.904l0.303-0.125l0.42,0.984L38.818,71.909L38.818,71.909z M93.827,45.15l-0.17,0.42
		l-0.925-0.263l0.235-0.446L93.827,45.15L93.827,45.15z M37.38,75.008l0.491,0.601l-0.183,0.267l-0.338-0.074l-0.105-0.139
		L37.38,75.008L37.38,75.008z M37.325,71.768l-0.064-1.035l0.242-0.105l0.251,0.853L37.325,71.768L37.325,71.768z M42.605,71.333
		l0.096,0.338l-0.625,0.904l-0.173-0.275L42.605,71.333L42.605,71.333z M94.377,59.23l-0.109-0.152L94.32,58.2l0.123-0.136
		l0.175,0.194L94.377,59.23L94.377,59.23z M86.258,84.834l0.421-0.234l0.233,0.421l-0.308,0.155L86.258,84.834L86.258,84.834z
		 M21.92,57.466l0.074-0.336L22.111,57l0.201,0.172l0.011,0.337l-0.292,0.273L21.92,57.466L21.92,57.466z M36.831,72.659
		l0.101,0.795l-0.14,0.096l-0.226-0.176L36.831,72.659L36.831,72.659z M38.245,74.116l-0.33-0.123l-0.112-0.33l0.106-0.14
		l0.458,0.474L38.245,74.116L38.245,74.116z M38.834,76.678l-0.104-0.143l0.097-0.308l0.123-0.041l0.014,0.455L38.834,76.678
		L38.834,76.678z M34.885,74.672l0.146-0.301l0.113,0.309l-0.197,0.139L34.885,74.672L34.885,74.672z M36.106,74.736l0.047-0.146
		l0.115-0.062l0.085,0.287l-0.105,0.117L36.106,74.736L36.106,74.736z M39.754,75.708l-0.062-0.109l0.116-0.004L39.754,75.708
		L39.754,75.708z M48.887,76.066l0.107-0.118l0.091,0.127l-0.1,0.112L48.887,76.066L48.887,76.066z M32.538,74.249l0.098-0.104
		l0.098,0.1l-0.091,0.103L32.538,74.249L32.538,74.249z M39.831,74.825l0.057,0.084l-0.099,0.008L39.831,74.825L39.831,74.825z
		 M33.85,73.594l0.094-0.072l0.007,0.137L33.85,73.594L33.85,73.594z M25.968,72.568l-0.062-0.103l0.107-0.006L25.968,72.568
		L25.968,72.568z M40.036,71.566l0.103-0.11l-0.001,0.23L40.036,71.566L40.036,71.566z M32.523,70.523l0.097-0.058l0.009,0.104
		L32.523,70.523L32.523,70.523z M44.039,71.581l0.13-0.103l0.125,0.101L44.1,71.674L44.039,71.581L44.039,71.581z M40.578,71.006
		l-0.123-0.115l0.131-0.096l0.115,0.162L40.578,71.006L40.578,71.006z M32.813,68.438l-0.065-0.125l0.141,0.004L32.813,68.438
		L32.813,68.438z M24.968,65.888l-0.102-0.115l0.103-0.112l0.093,0.118L24.968,65.888L24.968,65.888z M92.713,69.083l-0.1-0.107
		l0.094-0.109l0.094,0.107L92.713,69.083L92.713,69.083z M21.644,58.496l-0.062-0.114l0.114-0.005L21.644,58.496L21.644,58.496z
		 M21.899,55.614l-0.062-0.128l0.126,0.001L21.899,55.614L21.899,55.614z M48.627,96.69l0.111-0.049l0.104,0.119l-0.111,0.109
		L48.627,96.69L48.627,96.69z M49.233,95.775l-0.125-0.097l0.122-0.09l0.121,0.091L49.233,95.775L49.233,95.775z M41.689,80.877
		l0.06,0.135l-0.11,0.003L41.689,80.877L41.689,80.877z M34.482,76.352l-0.094-0.113l0.093-0.111l0.089,0.113L34.482,76.352
		L34.482,76.352z"/>
	<path fill="#232734" d="M51.987,59.742l1.227,0.267l0.917-0.387l0.603-0.836l-0.06-0.385l-1.191-1.638l-0.387-0.078l-0.564,0.007
		l-0.803,0.817l-0.114,1.25L51.987,59.742L51.987,59.742z M52.621,59.196l-0.22-0.302l0.125-1.261l0.142-0.126l0.38-0.066
		l0.84,0.994l-0.5,0.763L52.621,59.196L52.621,59.196z"/>
	<path fill="#232734" d="M68.057,30.751l-1.068,0.783l-0.176,1.402l1.279,0.738l1.438-0.876l-0.148-0.706l-0.284-0.84L68.057,30.751
		L68.057,30.751z M67.85,32.753l0.057-0.878l0.559,0.505L67.85,32.753L67.85,32.753z"/>
	<path fill="#232734" d="M28.234,53.266l0.958-0.59l0.164-1.173l-1.25-1.111l-1.103,0.834l-0.152,0.478l-0.028,0.542l0.332,0.484
		L28.234,53.266L28.234,53.266z M28.767,51.754l-0.252,0.433l-0.582-0.04l-0.197-0.274l0.161-0.303L28.767,51.754L28.767,51.754z"/>
	<polygon fill="#232734" points="79.827,44.37 80.15,44.204 80.274,43.167 79.441,42.595 78.625,42.792 77.57,43.979 78.107,44.938 
		78.747,45.349 79.711,45.181 79.883,44.317 79.176,44.641 78.42,43.937 78.829,43.587 79.527,43.716 	"/>
	<path fill="#232734" d="M47.118,41.423l-0.194,0.021l-0.936,0.279l-0.573,1.059l0.705,0.881l0.99,0.147l0.745-1.415l-0.041-0.704
		L47.118,41.423L47.118,41.423z M46.305,42.638l0.203-0.212l0.412,0.245l-0.104,0.302l-0.298-0.057L46.305,42.638L46.305,42.638z"/>
	<path fill="#232734" d="M60.041,40.702l0.82,0.041l0.856-1.188l-0.278-0.426L60.88,38.65l-0.871,0.279l-0.574,0.837L60.041,40.702
		L60.041,40.702z M60.76,39.854l-0.317,0.071L60.32,39.81l0.399-0.068L60.76,39.854L60.76,39.854z"/>
	<path fill="#232734" d="M59.983,50.327l0.036-0.852l-1.22-0.158l-0.645,0.609l0.034,1.288l0.525,0.078L59.983,50.327L59.983,50.327
		z M58.889,49.998l0.134-0.112l0.116,0.125l-0.188,0.107L58.889,49.998L58.889,49.998z"/>
	<polygon fill="#232734" points="35.311,45.181 34.954,45.148 34.386,45.868 34.578,46.958 35.436,47.247 36.219,46.135 	"/>
	<polygon fill="#232734" points="53.736,34.311 53.627,33.151 52.383,33.364 51.904,33.866 52.001,34.245 52.734,34.768 
		52.975,34.789 	"/>
	<polygon fill="#232734" points="40.447,64.92 39.802,64.483 39.833,63.465 39.689,63.286 39.264,63.241 38.717,63.704 
		38.631,64.27 39.345,65.057 40.315,65.038 	"/>
	<polygon fill="#232734" points="55.254,43.399 54.919,42.639 53.844,42.597 53.773,43.468 54.202,44.043 54.559,44.05 	"/>
	<polygon fill="#232734" points="73.395,43.058 73.059,44.19 73.933,44.487 74.609,43.714 	"/>
	<polygon fill="#232734" points="38.771,39.416 39.325,39.466 39.626,39.216 39.652,38.707 38.988,38.438 38.573,38.762 	"/>
	<polygon fill="#232734" points="37.332,55.833 37.042,55.607 36.657,55.595 36.247,56.052 37.251,56.168 	"/>
	<polygon fill="#232734" points="79.534,36.438 80.469,36.118 80.486,35.636 79.445,35.939 	"/>
	<polygon fill="#232734" points="48.198,31.831 48.609,31.741 48.655,31.297 47.768,31.289 	"/>
	<polygon fill="#232734" points="60.347,29.85 60.471,30.31 61.008,30.236 61.141,30.108 61.211,29.834 61.051,29.741 	"/>
	<polygon fill="#232734" points="25.256,50.263 24.782,50.443 24.639,50.764 24.789,51.071 25.3,50.95 	"/>
	<polygon fill="#232734" points="35.044,65.763 35.421,65.704 34.694,64.715 34.505,65.217 	"/>
	<polygon fill="#232734" points="30.281,63.299 30.779,63.379 30.949,63.118 30.797,62.848 30.452,62.834 	"/>
	<polygon fill="#232734" points="33.446,63.318 33.843,63.064 33.555,62.702 33.144,62.938 	"/>
	<polygon fill="#232734" points="26.121,58.062 25.425,57.862 25.267,58.246 25.568,58.463 	"/>
	<polygon fill="#232734" points="29.755,61.093 30.271,61.28 30.618,61.177 30.57,60.894 30.298,60.646 	"/>
	<polygon fill="#232734" points="23.816,52.075 24.283,51.596 23.364,51.527 	"/>
	<polygon fill="#232734" points="24.394,48.689 24.669,48.9 25.006,48.836 25.003,48.382 24.509,48.376 	"/>
	<polygon fill="#232734" points="26.9,46.469 27.262,46.147 26.845,45.867 26.599,46.096 	"/>
	<polygon fill="#232734" points="28.803,46.574 28.376,46.063 28.163,46.676 28.561,46.826 	"/>
	<polygon fill="#232734" points="38.042,67.581 37.589,67.803 37.705,68.127 38.235,68.051 	"/>
	<polygon fill="#232734" points="28.431,44.15 28.809,44.396 29.069,44.012 28.777,43.849 	"/>
	<polygon fill="#232734" points="30.082,44.005 30.595,44.522 30.79,44.021 30.681,43.69 30.361,43.752 	"/>
	<polygon fill="#232734" points="25.05,56.425 24.906,56.529 24.896,56.966 25.387,56.969 25.386,56.53 	"/>
	<polygon fill="#232734" points="28.562,42.224 28.515,42.739 29.023,42.98 29.203,42.531 28.5,42.27 	"/>
	<polygon fill="#232734" points="67.223,30.228 67.125,29.59 66.792,29.661 66.868,30.131 	"/>
	<polygon fill="#232734" points="26.255,56.036 26.483,55.801 26.242,55.419 25.816,55.617 25.916,55.92 	"/>
	<polygon fill="#232734" points="51.488,29.161 51.441,29.675 51.572,29.851 51.935,29.933 52.135,29.672 51.988,29.359 
		51.417,29.213 	"/>
	<polygon fill="#232734" points="82.595,37.286 83.016,37.551 83.263,37.145 82.95,36.967 	"/>
	<polygon fill="#232734" points="73.762,32.387 74.159,32.662 74.438,32.263 73.932,32.096 	"/>
	<polygon fill="#232734" points="84.12,38.332 84.524,38.79 84.754,38.572 84.441,38.202 	"/>
	<polygon fill="#232734" points="26.043,48.043 26.411,48.333 26.716,48.006 26.362,47.696 	"/>
	<polygon fill="#232734" points="24.396,54.222 24.039,54.378 23.913,54.68 24.307,55.058 24.452,54.995 	"/>
	<polygon fill="#232734" points="61.612,28.921 61.895,28.585 61.486,28.364 61.311,28.767 	"/>
	<polygon fill="#232734" points="54.039,29.676 54.219,29.606 54.435,29.207 53.888,29.073 53.76,29.428 	"/>
	<polygon fill="#232734" points="82.279,35.727 81.708,35.689 81.485,36.105 81.771,36.294 81.959,36.293 82.23,35.671 	"/>
	<polygon fill="#232734" points="37.148,66.018 36.84,66.325 37.196,66.612 37.519,66.312 	"/>
	<polygon fill="#232734" points="33.088,40.226 33.059,39.9 32.753,39.764 32.457,39.905 32.475,40.216 32.778,40.354 	"/>
	<polygon fill="#232734" points="26.784,58.544 27.459,58.759 27.61,58.661 27.458,58.428 	"/>
	<polygon fill="#232734" points="25.232,60.408 25.96,59.895 25.294,60.101 25.293,60.467 	"/>
	<polygon fill="#232734" points="28.799,61.347 28.167,61.23 28.596,61.737 	"/>
	<polygon fill="#232734" points="31.932,64.084 31.772,64.368 32.067,64.692 32.375,64.583 	"/>
	<polygon fill="#232734" points="33.176,65.933 33.699,65.767 33.905,65.486 33.274,65.647 33.237,65.997 	"/>
	<polygon fill="#232734" points="42.178,67.311 41.83,67.172 41.561,67.352 41.634,67.688 41.966,67.605 42.092,67.473 	"/>
	<polygon fill="#232734" points="39.476,67.042 38.82,67.02 38.911,67.484 	"/>
	<polygon fill="#232734" points="44.089,68.149 43.659,68.473 43.602,68.62 43.905,68.784 44.24,68.477 	"/>
	<polygon fill="#232734" points="65.596,28.583 65.584,28.744 65.786,28.986 66.131,28.924 66.103,28.644 66.004,28.496 
		65.842,28.403 	"/>
	<polygon fill="#232734" points="72.862,31.039 72.997,30.565 72.475,30.503 	"/>
	<polygon fill="#232734" points="69.219,30.331 69.433,30.619 69.598,30.701 69.777,30.471 69.625,30.185 69.272,30.213 	"/>
	<polygon fill="#232734" points="57.516,29.532 58.031,30.021 58.187,29.725 57.85,29.41 	"/>
	<polygon fill="#232734" points="75.795,31.804 75.249,31.971 75.014,32.25 75.499,32.403 75.743,31.749 	"/>
	<polygon fill="#232734" points="52.739,30.205 53.106,30.688 53.328,30.503 53.238,30.218 52.897,30.127 	"/>
	<polygon fill="#232734" points="54.687,30.771 54.889,31.079 55.183,31.166 55.3,30.845 55.037,30.652 54.847,30.673 	"/>
	<polygon fill="#232734" points="50.571,30.988 50.743,31.263 51.096,31.242 50.933,30.828 50.762,30.752 	"/>
	<polygon fill="#232734" points="76.116,34.172 75.772,34.346 75.708,34.636 75.872,34.719 76.219,34.609 	"/>
	<polygon fill="#232734" points="46.04,32.965 46.21,32.564 45.905,32.402 45.734,32.46 45.739,32.741 	"/>
	<polygon fill="#232734" points="43.452,32.712 43.174,32.519 42.839,32.599 42.901,32.884 43.202,33.073 	"/>
	<polygon fill="#232734" points="41.329,34.188 41.389,33.848 41.251,33.558 40.938,33.663 40.714,33.934 41.352,34.172 	"/>
	<polygon fill="#232734" points="41.334,35.87 41.475,35.828 41.555,35.502 41.269,35.322 40.989,35.468 41.052,35.633 	"/>
	<polygon fill="#232734" points="37.991,37.062 38.23,36.873 38.113,36.549 37.928,36.508 37.639,36.649 37.696,36.822 	"/>
	<polygon fill="#232734" points="36.428,37.582 36.237,37.824 36.536,38.136 36.712,37.812 	"/>
	<polygon fill="#232734" points="90.973,43.896 90.861,44.5 91.181,44.415 91.374,44.137 	"/>
	<polygon fill="#232734" points="34.527,39.896 34.481,40.505 34.99,40.431 	"/>
	<polygon fill="#232734" points="32.752,42.28 32.32,42.453 32.471,42.752 32.76,42.849 32.896,42.562 	"/>
	<polygon fill="#232734" points="67.254,51.554 67.57,51.71 67.918,51.431 67.799,51.124 	"/>
	<polygon fill="#232734" points="49.883,53.552 49.321,53.916 49.398,54.043 49.757,54.112 49.992,53.699 	"/>
	<polygon fill="#232734" points="24.956,53.018 25.41,52.875 25.208,52.537 24.914,52.435 24.774,52.719 	"/>
	<polygon fill="#232734" points="28.009,60.421 27.525,60.266 27.402,60.372 27.523,60.615 	"/>
	<path fill="#232734" d="M39.995,69.036l0.026-0.556L39.995,69.036z"/>
	<polygon fill="#232734" points="46.887,68.434 46.56,68.288 46.374,68.502 46.693,68.645 	"/>
	<polygon fill="#232734" points="28.191,63.26 28.645,63.083 28.65,62.92 28.446,62.73 28.317,62.833 28.267,62.991 28.249,63.32 	
		"/>
	<polygon fill="#232734" points="30.557,42.638 31.032,42.853 31.176,42.743 31.05,42.486 	"/>
	<polygon fill="#232734" points="34.991,38.735 35.132,38.667 35.193,38.552 34.905,38.425 34.686,38.587 34.814,38.704 	"/>
	<polygon fill="#232734" points="89.463,42.969 89.668,42.566 89.443,42.422 89.312,42.536 	"/>
	<polygon fill="#232734" points="90.967,42.651 91.293,42.802 91.511,42.608 91.193,42.452 	"/>
	<polygon fill="#232734" points="39.459,35.699 39.339,35.688 39.25,35.995 39.504,36.01 	"/>
	<polygon fill="#232734" points="86.485,39.868 86.282,40.151 86.452,40.431 86.654,40.174 	"/>
	<polygon fill="#232734" points="41.352,34.172 41.337,34.661 41.437,34.796 41.654,34.647 41.329,34.188 	"/>
	<polygon fill="#232734" points="44.017,33.436 43.844,33.703 43.989,33.965 44.164,33.708 	"/>
	<polygon fill="#232734" points="41.823,32.797 41.612,32.971 41.941,33.112 42.081,32.992 42.001,32.857 	"/>
	<polygon fill="#232734" points="44.244,31.488 44.104,31.607 44.138,31.74 44.477,31.859 44.62,31.744 	"/>
	<polygon fill="#232734" points="77.999,34.78 78.299,34.92 78.517,34.749 78.227,34.597 	"/>
	<polygon fill="#232734" points="72.071,31.613 71.788,31.433 71.506,31.571 71.775,31.741 	"/>
	<polygon fill="#232734" points="55.676,28.7 56.011,28.858 56.201,28.646 55.883,28.485 55.727,28.568 	"/>
	<polygon fill="#232734" points="62.833,29.319 63.141,29.501 63.424,29.356 63.148,29.186 	"/>
	<polygon fill="#232734" points="64.402,28.863 64.315,29.38 64.434,29.509 64.577,29.524 64.729,29.245 64.344,28.908 	"/>
	<polygon fill="#232734" points="59.337,28.15 59.197,28.435 59.387,28.638 59.537,28.359 	"/>
	<polygon fill="#232734" points="87.861,41.612 87.993,41.68 88.143,41.573 88.014,41.444 	"/>
	<polygon fill="#232734" points="39.403,34.494 39.525,34.696 39.664,34.581 39.542,34.445 	"/>
	<polygon fill="#232734" points="58.469,29.042 58.606,28.87 58.49,28.804 58.363,28.913 	"/>
	<polygon fill="#232734" points="64.021,28.469 64.402,28.863 64.344,28.908 63.97,28.508 	"/>
	<polygon fill="#232734" points="63.97,28.508 63.85,28.214 63.734,28.309 64.021,28.469 	"/>
	<polygon fill="#232734" points="43.282,87.549 43.887,89.551 43.842,90.241 44.442,90.254 45.007,89.999 45.887,90.307 
		46.255,89.993 46.226,89.831 45.007,89.499 44.232,88.366 44.711,87.815 45.216,88.713 46.527,88.684 47.645,87.37 47.123,87.299 
		46.285,88.137 45.472,87.709 45.761,87.336 45.821,86.191 45.693,85.334 46.342,84.647 45.512,84.106 44.455,84.854 44.559,85.351 
		43.246,85.551 43.638,86.394 44.199,86.342 44.8,85.917 44.958,86.383 44.435,87.133 	"/>
	<polygon fill="#232734" points="56.297,88.254 55.529,88.07 55.033,88.355 54.572,89.157 54.897,89.918 56.102,90.122 
		57.215,88.504 56.845,87.861 	"/>
	<path fill="#232734" d="M64.471,80.241l0.691-0.31l0.969-0.83l0.103-0.593l-0.243-0.494l-0.437-0.479l-1.509,0.172l-0.528,0.891
		l0.336,1.091l0.679,0.608L64.471,80.241L64.471,80.241z M65.409,78.872l-0.146,0.226l-0.276,0.235l-0.479-0.06l-0.193-0.696
		l0.456-0.427L65.409,78.872L65.409,78.872z"/>
	<path fill="#232734" d="M86.991,60.489l0.674,0.112l1.56-0.766l0.081-1.145l-0.863-0.567l-1.253,0.306l-0.573,0.846l-0.018,0.236
		L86.991,60.489L86.991,60.489z M87.829,59.826l-0.418-0.277l0.768-0.683l0.311,0.372L87.829,59.826L87.829,59.826z"/>
	<polygon fill="#232734" points="46.478,78.963 47.133,79.435 47.658,79.297 47.985,79.184 48.993,79.168 49.165,79.023 
		49.279,78.689 49.34,78.062 48.993,77.762 47.802,77.672 47.875,77.618 47.573,78.627 47.126,77.987 46.62,78.114 46.537,79.023 	
		"/>
	<path fill="#232734" d="M77.488,65.659l0.046-0.494l-1.117-0.726l-0.365,0.097l-0.53,0.51l-0.362,0.6l0.448,1.133L77.488,65.659
		L77.488,65.659z M76.477,65.256l0.113,0.414l-0.418,0.354l-0.15,0.008l-0.088-0.318L76.477,65.256L76.477,65.256z"/>
	<path fill="#232734" d="M71.704,90.187L70.747,90.1l-0.57,0.29l-0.57,0.944l0.5,0.562l2.135-0.734L71.704,90.187L71.704,90.187z
		 M70.956,91.113l0.01-0.196l0.129,0.103L70.956,91.113L70.956,91.113z"/>
	<path fill="#232734" d="M55.13,76.934l0.125-1.641l-0.834-0.362l-0.726,0.579l-0.113,1.244l0.302,0.488l0.868,0.069L55.13,76.934
		L55.13,76.934z M54.577,76.678l-0.104-0.105l0.104-0.105l0.097,0.107L54.577,76.678L54.577,76.678z"/>
	<polygon fill="#232734" points="66.092,97.811 66.407,97.202 65.236,96.569 64.542,95.915 64.011,96.008 63.299,95.756 
		63.211,96.693 63.594,96.588 64.34,97.605 64.749,97.547 64.795,97.045 65.292,97.045 66.15,97.772 	"/>
	<polygon fill="#232734" points="46.029,81.577 46.52,81.928 47.079,81.82 47.676,81.672 48.049,80.129 47.48,79.875 47.185,80.368 
		47.022,80.698 46.169,81.098 45.686,80.779 44.995,80.997 45.067,81.401 	"/>
	<polygon fill="#232734" points="82.333,79.284 82.17,79.607 82.438,80.79 83.797,80.272 83.405,79.17 82.268,79.336 	"/>
	<polygon fill="#232734" points="71.564,79.23 71.806,80.077 72.747,80.217 73.434,79.435 72.088,78.823 	"/>
	<polygon fill="#232734" points="84.398,69.663 84.495,69.17 83.547,68.413 82.979,69.116 83.398,70.068 	"/>
	<polygon fill="#232734" points="70.145,60.105 69.596,61.013 70.105,61.256 71.004,60.933 71.625,60.915 71.793,60.356 
		71.641,60.242 	"/>
	<polygon fill="#232734" points="68.969,68.956 68.562,68.859 67.872,69.637 68.452,70.577 69.368,69.889 69.129,69.438 	"/>
	<polygon fill="#232734" points="48.411,84.319 49.123,84.17 49.451,84.374 49.727,83.243 49.464,82.987 48.209,83.518 
		48.465,84.381 	"/>
	<polygon fill="#232734" points="48.465,84.381 47.839,84.325 47.222,84.691 47.4,85.215 47.202,85.497 47.237,85.969 
		47.641,86.029 48.334,85.15 48.411,84.319 	"/>
	<polygon fill="#232734" points="58.758,93.167 58.106,94.018 58.557,94.491 59.529,94.064 	"/>
	<polygon fill="#232734" points="48.057,88.78 47.867,88.807 47.388,89.333 46.891,89.594 46.861,90.409 47.221,90.441 
		47.759,89.915 48.278,89.732 48.353,89.374 48,88.719 	"/>
	<polygon fill="#232734" points="54.577,96.708 55.021,97.805 56.453,97.84 56.484,97.486 56.168,97.288 55.258,96.98 
		54.522,96.752 	"/>
	<polygon fill="#232734" points="89.61,54.077 88.622,54.602 88.717,54.941 89.229,55.071 90.083,54.462 90.252,53.702 
		90.151,53.549 89.879,53.631 	"/>
	<polygon fill="#232734" points="90.229,49.324 90.697,49.596 91.752,49.662 91.829,49.337 91.5,48.712 91.547,48.764 
		91.017,48.669 90.282,49.393 	"/>
	<polygon fill="#232734" points="87.456,82.09 86.609,82.575 86.276,82.385 86.479,83.249 87.395,82.993 87.646,82.588 	"/>
	<polygon fill="#232734" points="46.537,79.023 45.7,79.454 44.851,79.799 44.819,80 45.16,80.32 46.398,79.833 46.478,78.963 	"/>
	<polygon fill="#232734" points="71.844,58.849 71.684,59.36 72.534,60.361 73.079,60.208 72.646,59.3 	"/>
	<polygon fill="#232734" points="91.614,60.796 91.646,61.162 92.545,61.355 93.113,60.93 92.194,60.399 	"/>
	<polygon fill="#232734" points="89.618,70.981 90.049,71.379 91.106,70.316 90.875,70.023 90.553,69.875 	"/>
	<polygon fill="#232734" points="81.93,87.372 83.322,88.12 83.743,87.654 82.985,87.443 82.28,86.85 81.984,87.439 	"/>
	<polygon fill="#232734" points="93.081,57.784 93.038,56.438 92.695,56.233 92.084,56.667 93.151,57.736 	"/>
	<polygon fill="#232734" points="48,88.719 48.526,88.527 48.888,87.948 48.62,87.114 48.447,87.034 48.18,87.188 48.057,88.78 	"/>
	<polygon fill="#232734" points="92.047,50.954 92.847,50.27 92.458,49.702 91.997,50.199 91.461,50.702 91.602,50.968 	"/>
	<polygon fill="#232734" points="70.704,74.467 70.649,75.523 71.211,75.502 71.092,75.159 71.387,74.715 71.34,74.385 
		70.84,74.344 	"/>
	<polygon fill="#232734" points="46.519,83.282 45.975,82.325 45.459,82.465 45.58,82.965 45.71,83.105 46.041,83.385 	"/>
	<polygon fill="#232734" points="56.531,94.465 56.162,94.581 56,94.489 55.588,94.602 55.691,94.917 56.923,95.303 57.037,94.977 	
		"/>
	<polygon fill="#232734" points="56.723,96.85 56.996,96.456 56.281,95.866 55.872,96.116 55.853,96.301 	"/>
	<polygon fill="#232734" points="54.522,96.752 54.586,95.978 54.646,96.038 53.409,95.545 53.481,95.499 53.409,96.29 
		54.018,96.711 54.577,96.708 	"/>
	<polygon fill="#232734" points="60.426,97.842 59.961,97.356 59.423,97.43 59.463,97.767 59.674,98.067 59.811,98.194 
		60.403,98.053 	"/>
	<polygon fill="#232734" points="79.301,86.683 79.232,87.088 79.679,87.534 79.768,86.53 	"/>
	<polygon fill="#232734" points="86.888,51.295 86.514,50.482 86.572,50.54 85.939,50.509 85.65,50.957 86.243,51.46 86.611,51.497 
		86.846,51.245 	"/>
	<polygon fill="#232734" points="88.668,76.435 89.151,76.907 89.723,76.473 89.301,75.936 	"/>
	<polygon fill="#232734" points="51.692,77.545 52.046,77.577 52.107,76.625 51.761,76.592 	"/>
	<polygon fill="#232734" points="76.836,92.771 77.124,92.362 76.98,91.991 76.354,91.945 76.322,92.316 	"/>
	<polygon fill="#232734" points="88.874,78.592 89.881,78.729 89.618,78.32 89.107,78.188 	"/>
	<polygon fill="#232734" points="62.709,92.088 63.113,92.316 63.827,91.586 63.741,91.435 	"/>
	<polygon fill="#232734" points="54.734,92.034 54.215,92.407 54.735,92.967 55.169,92.663 55.124,92.355 	"/>
	<polygon fill="#232734" points="52.255,92.647 52.893,92.168 52.755,91.844 52.234,91.956 	"/>
	<polygon fill="#232734" points="49.234,91.875 49.068,92.02 48.929,92.323 49.908,92.477 	"/>
	<polygon fill="#232734" points="67.651,95.118 68.635,95.231 68.104,94.719 67.67,94.941 	"/>
	<polygon fill="#232734" points="65.756,94.95 65.572,95.584 65.961,95.89 66.282,95.557 	"/>
	<polygon fill="#232734" points="62.01,95.967 61.653,96.059 61.646,96.521 62.008,96.726 62.482,96.551 	"/>
	<polygon fill="#232734" points="60.312,96.811 60.558,96.364 60.358,96.055 60.031,95.883 59.848,96.545 	"/>
	<polygon fill="#232734" points="91.979,58.984 92.562,58.551 92.515,58.227 92.178,58.128 	"/>
	<polygon fill="#232734" points="66.569,73.62 66.143,73.045 65.779,73.139 65.709,73.596 	"/>
	<polygon fill="#232734" points="80.967,89.189 80.956,88.681 80.004,88.564 80.438,89.097 81.018,89.149 	"/>
	<polygon fill="#232734" points="83.594,54.835 83.258,54.391 82.75,54.365 83.024,55.158 	"/>
	<polygon fill="#232734" points="67.011,83.209 66.293,82.945 66.268,83.292 66.402,83.624 66.752,83.469 	"/>
	<polygon fill="#232734" points="85.697,86.284 85.77,85.525 85.109,85.297 85.154,86.118 	"/>
	<polygon fill="#232734" points="87.514,75.331 87.465,76.045 87.668,76.329 88.081,75.965 87.836,75.4 87.456,75.374 	"/>
	<polygon fill="#232734" points="74.377,85.012 73.471,85.584 73.43,85.727 73.768,85.87 74.479,85.161 	"/>
	<polygon fill="#232734" points="65.1,67.918 64.488,68.36 64.814,68.721 65.465,68.301 	"/>
	<polygon fill="#232734" points="78.252,68.188 78.663,68.129 78.799,67.838 78.424,67.547 78.161,67.719 	"/>
	<polygon fill="#232734" points="79.984,77.344 79.361,77.352 79.329,77.667 79.784,77.874 	"/>
	<polygon fill="#232734" points="84.266,63.948 84.68,63.885 84.845,63.594 84.481,63.297 84.206,63.465 	"/>
	<polygon fill="#232734" points="84.355,57.729 84.575,57.978 84.995,57.729 84.879,57.427 84.508,57.439 	"/>
	<polygon fill="#232734" points="47.802,77.672 47.881,76.883 47.925,76.934 47.561,76.881 47.101,77.318 47.5,77.584 
		47.875,77.618 	"/>
	<polygon fill="#232734" points="55.541,78.881 56.345,79.038 56.371,78.9 55.662,78.73 	"/>
	<polygon fill="#232734" points="76.436,73.04 76.219,72.624 75.67,73.092 75.708,73.415 76.034,73.391 	"/>
	<polygon fill="#232734" points="80.734,55.721 80.284,55.501 80.083,55.787 80.323,56.152 80.713,55.921 	"/>
	<polygon fill="#232734" points="64.53,80.297 64.024,80.713 64.114,81.2 64.719,80.883 64.471,80.241 	"/>
	<polygon fill="#232734" points="81.956,82.82 81.452,82.661 81.273,82.946 81.479,83.206 81.829,83.143 	"/>
	<polygon fill="#232734" points="68.329,81.987 68.01,81.797 67.637,82.062 67.92,82.404 68.144,82.426 	"/>
	<polygon fill="#232734" points="85.607,52.497 85.609,52.669 85.999,52.935 86.227,52.708 85.938,52.384 	"/>
	<polygon fill="#232734" points="82.978,85.883 83.413,86.323 83.526,85.497 83.202,85.659 	"/>
	<polygon fill="#232734" points="56.301,84.179 56.885,83.79 56.846,83.452 56.547,83.454 56.195,83.854 	"/>
	<path fill="#232734" d="M71.62,85.483l-0.652-0.338L71.62,85.483z"/>
	<polygon fill="#232734" points="84.77,87.31 84.738,86.819 84.279,86.629 84.141,86.734 84.271,87.188 84.441,87.254 
		84.804,87.284 	"/>
	<polygon fill="#232734" points="69.247,85.661 69.084,85.2 68.56,85.499 68.913,85.803 	"/>
	<polygon fill="#232734" points="42.89,84.229 43.254,84.553 43.538,84.381 43.099,83.965 	"/>
	<polygon fill="#232734" points="75.395,88.15 75.267,88.023 74.779,88.049 74.709,88.368 75.178,88.575 	"/>
	<polygon fill="#232734" points="79.499,89.077 79.075,89.299 79.165,89.624 79.648,89.525 	"/>
	<polygon fill="#232734" points="58.014,69.334 57.825,69.318 57.443,69.598 57.905,70.016 58.169,69.812 	"/>
	<polygon fill="#232734" points="89.473,73.167 89.62,72.387 89.061,72.786 	"/>
	<polygon fill="#232734" points="80.834,90.654 80.866,90.297 80.519,89.93 80.168,90.025 80.305,90.512 80.495,90.568 
		80.885,90.616 	"/>
	<polygon fill="#232734" points="78.84,90.477 78.534,89.833 78.064,89.945 78.151,90.657 78.902,90.418 	"/>
	<polygon fill="#232734" points="91.5,48.712 92.077,48.72 92.34,48.309 91.929,48.068 91.754,48.122 91.547,48.764 	"/>
	<polygon fill="#232734" points="76.69,90.295 76.554,90.409 76.556,90.859 77.118,90.698 77.034,90.396 	"/>
	<polygon fill="#232734" points="57.949,96.532 58.113,96.846 58.434,96.971 58.812,96.616 58.748,96.482 58.406,96.333 	"/>
	<polygon fill="#232734" points="53.052,98.107 53.578,97.943 53.178,97.366 52.603,97.403 52.755,97.838 52.883,97.969 	"/>
	<polygon fill="#232734" points="85.532,76.228 86.131,75.864 85.691,75.308 	"/>
	<polygon fill="#232734" points="86.73,70.629 87.027,70.816 87.458,70.4 87.17,70.221 86.834,70.307 	"/>
	<polygon fill="#232734" points="61.834,72.887 61.215,72.713 60.866,73.096 61.399,73.229 	"/>
	<polygon fill="#232734" points="61.291,94.641 61.424,94.766 62.206,94.389 62.247,94.252 61.934,94.125 61.328,94.506 	"/>
	<polygon fill="#232734" points="44.357,92.654 43.84,92.188 43.759,92.982 	"/>
	<polygon fill="#232734" points="87.456,75.374 87.424,74.834 87.097,74.676 86.827,74.875 86.936,75.198 87.514,75.331 	"/>
	<polygon fill="#232734" points="61.365,93.148 61.363,93.327 61.916,93.625 62.023,93.165 61.696,93.02 	"/>
	<polygon fill="#232734" points="66.131,93.379 65.863,93.879 66.208,93.98 66.437,93.542 	"/>
	<polygon fill="#232734" points="71.125,94.116 71.309,94.118 71.605,93.776 71.234,93.482 70.974,93.831 	"/>
	<polygon fill="#232734" points="60.947,97.726 61.131,98.006 61.627,97.907 61.595,97.57 61.105,97.438 	"/>
	<polygon fill="#232734" points="74.447,94.51 74.417,93.971 73.929,93.418 73.801,93.887 74.506,94.465 	"/>
	<polygon fill="#232734" points="63.084,97.848 63.301,97.431 63.077,97.204 62.654,97.426 62.743,97.735 	"/>
	<polygon fill="#232734" points="50.404,91.432 50.046,90.902 49.573,91.342 	"/>
	<polygon fill="#232734" points="58.006,92.187 58.197,92.195 58.482,91.713 57.996,91.596 57.857,91.889 	"/>
	<polygon fill="#232734" points="72.114,68.443 72.495,68.713 72.713,68.313 72.258,68.153 	"/>
	<polygon fill="#232734" points="53.136,72.922 52.633,73.497 52.783,74.002 53.396,73.562 53.07,72.961 	"/>
	<polygon fill="#232734" points="74.659,92.637 75.28,93.445 75.622,93.379 75.584,93.084 75.224,92.723 74.62,92.668 	"/>
	<polygon fill="#232734" points="72.559,91.881 72.355,92.272 72.711,92.688 72.872,92.709 73.042,92.407 	"/>
	<polygon fill="#232734" points="74.62,92.668 74.6,92.138 74.092,91.977 73.917,92.271 74.083,92.561 74.659,92.637 	"/>
	<polygon fill="#232734" points="90.286,64.15 89.924,64.178 89.728,64.594 89.963,64.812 90.4,64.613 	"/>
	<polygon fill="#232734" points="92.543,64.377 91.974,64.327 91.784,64.905 92.42,64.854 92.497,64.325 	"/>
	<polygon fill="#232734" points="86.76,66.995 87.092,67.143 87.436,66.838 87.297,66.545 	"/>
	<polygon fill="#232734" points="79.805,68.616 80.012,68.895 80.172,68.973 80.353,68.756 80.209,68.477 79.87,68.499 	"/>
	<polygon fill="#232734" points="70.353,69.749 70.157,69.745 69.874,70.137 69.97,70.279 70.312,70.229 70.467,70.122 
		70.513,69.834 	"/>
	<polygon fill="#232734" points="74.116,70.596 73.607,70.528 73.565,71 	"/>
	<polygon fill="#232734" points="91.372,72.775 90.711,72.5 90.604,72.635 90.984,73.064 91.334,72.723 	"/>
	<polygon fill="#232734" points="85.629,73.297 86.334,72.811 85.766,73.004 85.689,73.357 	"/>
	<polygon fill="#232734" points="89.51,74.75 89.79,74.6 89.636,74.284 89.323,74.231 89.236,74.379 	"/>
	<polygon fill="#232734" points="56.885,72.667 57.047,72.896 57.455,72.633 57.446,72.467 57.145,72.422 	"/>
	<polygon fill="#232734" points="56.02,73.428 56.247,73.236 56.146,72.928 55.97,72.891 55.685,73.027 55.744,73.19 	"/>
	<polygon fill="#232734" points="85.308,76.648 85.066,76.815 85.543,77.209 85.659,77.084 	"/>
	<polygon fill="#232734" points="87.258,78.061 87.48,78.271 87.806,78.2 87.795,77.917 87.689,77.779 87.387,77.763 	"/>
	<polygon fill="#232734" points="82.268,79.336 81.777,78.68 81.786,79.193 82.333,79.284 	"/>
	<polygon fill="#232734" points="60.432,77.116 60.73,77.538 61.035,77.586 61.14,77.29 	"/>
	<polygon fill="#232734" points="85.938,80.98 86.107,80.563 85.788,80.4 85.618,80.461 85.637,80.752 85.768,80.89 	"/>
	<polygon fill="#232734" points="68.372,79.299 68.432,79.426 68.768,79.519 69.008,79.12 68.909,78.985 68.599,79.043 	"/>
	<polygon fill="#232734" points="80.23,81.189 80.407,81.336 80.893,80.969 80.842,80.805 80.536,80.806 	"/>
	<polygon fill="#232734" points="60.931,81.338 61.188,81.184 61.109,80.859 60.613,80.799 60.661,81.102 	"/>
	<path fill="#232734" d="M54.225,80.295l0.832,0.072L54.225,80.295z"/>
	<polygon fill="#232734" points="79.618,83.95 79.47,84.238 79.752,84.569 80.059,84.456 	"/>
	<polygon fill="#232734" points="52.781,84.206 52.311,83.686 52.136,84.118 	"/>
	<polygon fill="#232734" points="60.479,86.025 60.945,86.467 61.085,86.178 60.596,85.922 	"/>
	<polygon fill="#232734" points="50.12,85.086 50.788,85.288 50.959,85.088 50.815,84.982 	"/>
	<polygon fill="#232734" points="81.706,89.988 81.762,89.661 81.331,89.215 80.967,89.189 81.018,89.149 81.745,89.961 	"/>
	<polygon fill="#232734" points="71.84,89.663 72.176,89.803 72.458,89.424 72.356,89.277 	"/>
	<polygon fill="#232734" points="66.008,88.702 65.5,88.594 65.465,89.057 	"/>
	<polygon fill="#232734" points="52.264,88.859 51.72,89.323 52.206,89.422 	"/>
	<polygon fill="#232734" points="75.267,91.817 75.456,92.114 75.754,92.189 75.84,92.047 75.717,91.754 75.372,91.715 	"/>
	<polygon fill="#232734" points="49.313,89.879 49.856,89.454 49.371,89.305 49.186,89.573 	"/>
	<polygon fill="#232734" points="72.913,94.361 72.734,94.35 72.491,94.532 72.575,94.84 72.881,94.833 73.034,94.738 
		73.109,94.592 	"/>
	<polygon fill="#232734" points="54.148,93.9 54.589,94.045 54.744,93.77 54.676,93.618 54.377,93.643 54.237,93.752 	"/>
	<polygon fill="#232734" points="87.549,52.948 87.836,53.185 88.159,53.133 88.159,52.853 87.725,52.483 	"/>
	<polygon fill="#232734" points="77.208,57.242 77.553,57.375 77.842,56.999 77.749,56.85 77.411,56.943 	"/>
	<polygon fill="#232734" points="82.553,61.296 82.049,61.73 82.491,61.87 	"/>
	<path fill="#232734" d="M66.727,90.646l-0.592-0.043L66.727,90.646z"/>
	<polygon fill="#232734" points="47.8,74.495 48.248,74.694 48.378,74.592 48.257,74.355 	"/>
	<polygon fill="#232734" points="53.1,74.508 52.942,74.974 53.052,75.092 53.325,74.973 53.317,74.813 	"/>
	<polygon fill="#232734" points="52.017,87.801 51.713,87.616 51.43,87.764 51.701,87.938 	"/>
	<polygon fill="#232734" points="83.268,75.27 83.48,75.057 83.372,74.766 83.237,74.752 83.081,75.012 	"/>
	<polygon fill="#232734" points="63.979,86.297 64.086,86.409 64.301,86.247 64.204,85.971 64.006,86.137 	"/>
	<polygon fill="#232734" points="61.827,85.258 61.608,85.642 61.723,85.766 61.973,85.661 	"/>
	<polygon fill="#232734" points="78.116,87.282 78.359,87.129 78.249,86.825 78,86.971 	"/>
	<polygon fill="#232734" points="55.82,71.778 55.604,72.178 55.718,72.303 55.972,72.194 	"/>
	<polygon fill="#232734" points="63.193,72.645 63.299,72.967 63.556,72.657 63.438,72.52 	"/>
	<polygon fill="#232734" points="47.791,82.6 47.926,82.724 48.177,82.391 48.057,82.256 	"/>
	<polygon fill="#232734" points="85.689,73.357 85.368,73.51 85.314,73.829 85.433,73.933 85.62,73.657 85.629,73.297 	"/>
	<polygon fill="#232734" points="79.079,72.159 78.95,72.284 79.01,72.602 79.153,72.631 79.312,72.346 	"/>
	<polygon fill="#232734" points="88.377,72.143 88.136,72.579 88.4,72.725 88.547,72.613 	"/>
	<polygon fill="#232734" points="50.145,80.852 49.935,81.239 50.163,81.381 50.287,81.273 	"/>
	<polygon fill="#232734" points="52.501,80.85 52.353,81.161 52.453,81.297 52.726,81.202 52.629,80.875 	"/>
	<polygon fill="#232734" points="76.429,61.258 76.76,61.408 76.969,61.208 76.648,61.044 	"/>
	<polygon fill="#232734" points="79.605,61.54 79.891,61.719 80.17,61.581 79.913,61.417 	"/>
	<polygon fill="#232734" points="51.761,79.157 51.971,79.331 52.112,79.049 51.902,78.881 	"/>
	<polygon fill="#232734" points="54.586,95.978 55.012,95.702 54.93,95.413 54.792,95.417 54.668,95.525 54.646,96.038 	"/>
	<polygon fill="#232734" points="58.379,79.004 58.177,79.402 58.275,79.536 58.512,79.422 	"/>
	<polygon fill="#232734" points="45.978,78.18 46.191,77.782 46.076,77.654 45.826,77.77 	"/>
	<polygon fill="#232734" points="68.807,96.014 69.114,96.208 69.404,96.061 69.122,95.87 	"/>
	<polygon fill="#232734" points="52.945,93.771 53.114,93.993 53.451,93.907 53.281,93.684 	"/>
	<polygon fill="#232734" points="63.618,93.665 64.213,93.922 64.372,93.698 64.266,93.573 	"/>
	<polygon fill="#232734" points="69.504,93.646 69.31,94.191 69.418,94.308 69.672,94.209 	"/>
	<polygon fill="#232734" points="87.717,64.018 87.842,64.161 88.104,64.015 87.989,63.706 87.842,63.725 87.736,63.853 	"/>
	<polygon fill="#232734" points="76.182,78.081 75.918,78.482 76.043,78.607 76.32,78.523 	"/>
	<polygon fill="#232734" points="68.654,92.388 68.749,92.698 68.982,92.551 68.894,92.254 	"/>
	<polygon fill="#232734" points="86.846,51.245 87.393,51.29 87.522,51.18 87.488,51.058 87.168,50.942 86.888,51.295 	"/>
	<polygon fill="#232734" points="87.022,49.824 86.549,50.195 86.572,50.54 86.514,50.482 86.97,49.772 	"/>
	<polygon fill="#232734" points="61.064,89.213 60.947,89.312 61.042,89.542 61.159,89.441 	"/>
	<polygon fill="#232734" points="53.253,87.481 53.06,87.584 53.173,87.709 53.301,87.597 	"/>
	<polygon fill="#232734" points="67.036,88.086 67.146,88.2 67.393,88.114 67.284,88.002 	"/>
	<polygon fill="#232734" points="76.086,85.779 75.777,85.846 75.922,86.01 76.058,85.747 	"/>
	<polygon fill="#232734" points="76.058,85.747 76.368,85.633 76.264,85.527 76.086,85.779 	"/>
	<polygon fill="#232734" points="54.738,82.522 54.873,82.586 54.87,82.458 	"/>
	<polygon fill="#232734" points="83.857,84.434 84.092,84.557 84.221,84.461 83.983,84.338 	"/>
	<polygon fill="#232734" points="85.299,83.725 85.202,83.827 85.396,83.829 	"/>
	<polygon fill="#232734" points="58.572,80.221 58.689,80.409 58.816,80.299 58.7,80.174 	"/>
</g>
</svg>
