<?xml version="1.0" encoding="utf-8"?>
<!-- Generator: Adobe Illustrator 15.0.2, SVG Export Plug-In . SVG Version: 6.00 Build 0)  -->
<!DOCTYPE svg PUBLIC "-//W3C//DTD SVG 1.1//EN" "http://www.w3.org/Graphics/SVG/1.1/DTD/svg11.dtd">
<svg version="1.1" id="Layer_1" xmlns="http://www.w3.org/2000/svg" xmlns:xlink="http://www.w3.org/1999/xlink" x="0px" y="0px"
	 width="75.5px" height="75.5px" viewBox="0 0 75.5 75.5" enable-background="new 0 0 75.5 75.5" xml:space="preserve">
<g id="racimito1">
	<path fill="#232734" d="M26.156,45.458l-0.084,0.467l-0.463,0.597l-0.112,0.119l0.208,0.131l0.43,0.24l0.157,0.026l0.37-0.192
		l2.552-2.338l0.38-0.449l0.468-0.597l0.584-0.821l0.253-0.334l0.488-0.582l0.43-0.729l0.448-0.613l0.75-1.328l0.378-0.759
		l0.278-0.795l0.004-0.669l0.018-0.584l0.025-0.67l0.085-1.005l0.017-0.334l0.008-0.5l0.025-1.173l-0.003-0.25l0.082-1.006
		l0.171-1.248l-0.235-0.311l-2.026-1.004l-1.358-1.384l-0.48-0.784l-0.41-0.734l-0.244-0.724l-0.237-0.443l-0.259-1.145
		l-0.059-0.331l-0.205-1.243l-0.031-0.166l-0.104-0.582l-0.023-0.838l0.051-1.091l0.065-0.671l0.084-0.497l0.52-1.696l0.136-0.311
		l0.35-0.678l1.676-1.987l0.367-0.201l1.067-0.496l0.451-0.222l0.239-0.049l0.168,0.003l1.838-0.146l0.333,0.026l0.979,0.251
		l0.922,0.409l0.377,0.192l0.602,0.451l0.36,0.35l0.323,0.383l0.335,0.4l0.467-0.905l0.371-0.94l0.422-0.922l0.477-0.899l0.49-0.891
		l0.635-1.102l0.421-0.631l0.353-0.576l0.864-1.248l0.279-0.18l0.562,0.239l0.088,0.744l-0.34,1.564l-0.203,0.988l-0.237,1.068
		l-0.188,0.906l-0.15,0.829l-0.051,0.755l-0.078,0.664l-0.266,1.407L43.424,16.4l-0.049,0.585l-0.164,0.567l-0.038,0.418
		l-0.149,0.737l-0.082,0.323l-0.198,1.077l-0.277,1.578l-0.118,0.663l-0.189,0.644L42.018,23.3l-0.154,0.389l-0.416,1.19
		l-0.243,0.629l-0.248,0.626l-0.174,0.279l-0.087,0.322l-0.502,0.976l-0.443,1.004l-0.527,0.967L38.617,30.6l-0.193,0.277
		l-1.03,1.946l0.069,0.108l0.078-0.03l0.553-0.502l0.536-0.651l1.718-2.077l1.323-1.416l0.491-0.782l0.352-0.767l0.317-0.87
		l0.834-2.479l0.19-0.647l0.846-2.297l0.498-1.163l1.074-1.923l0.557-0.844l0.613-0.805l0.52-0.426l0.081,0.006l0.226,0.376
		l-0.301,0.697l-0.098,0.135l-0.225,0.444l-0.224,0.725l-0.356,0.322l-0.105-0.107l-0.04,0.146l-0.163,0.023l-0.115-0.13
		l0.176-0.372l0.354-0.324l0.113-0.111l0.044-0.639l0.1-0.105l-0.06-0.019l-0.011,0.139l-0.08,0.023l-0.815,1.046l-0.84,1.645
		l-0.281,0.412l-0.186,0.553l-0.289,0.696l-0.247,0.535l-0.081,0.409l0.062,0.04l0.334-0.185l0.297-0.959l0.051-0.066l0.07,0.007
		l0.192,0.155l0.052,0.148l-0.193,0.057l-0.199,0.556v0.33l0.018-0.029L44.93,22.11l-0.231,0.055l-0.236-0.083l-0.224,0.439
		l0.039,0.315l-0.108,0.098l0.056,0.039l0.03-0.149l0.152,0.047l0.22,0.243l-0.125,0.349l-0.212-0.071l-0.048-0.067l-0.186-0.009
		l-0.258,0.488l-0.088,0.4l-0.006,0.318l0.098,0.398l0.021-0.03l-0.429,0.359l-0.356,0.922l-0.3,0.664l-0.232,0.61l-0.025,0.077
		l0.059,0.241l-0.121,0.096l0.064,0.213h0.15l0.1-0.202l0.646-0.82l-0.006-0.082l-0.018,0.034l0.186-0.16l0.73-1.127l0.293-0.51
		L45.322,24l0.662-1.45l0.18-0.901l0.35-1.808l0.201-0.637l0.094-0.315l0.082-0.909l0.193-0.056l0.002,1.074l-0.508,2.125
		l-0.123,0.578l-0.146,0.916l-0.363,0.853l0.033,0.052l0.078,0.019l0.157-0.055l1.086-1.054l0.05-0.068l0.994-0.757l0.084-0.132
		l0.174-0.728l0.76-1.004l0.627-0.564l0.525-0.183l0.578-0.096l0.167,0.165l-0.006,0.083l-0.504,1.148l-0.494,0.576l-0.206,0.264
		l-0.314,0.271l-0.504,0.44l-0.556,0.383l-0.114,0.119l-0.672,0.621l-0.738,0.654l-0.521,0.767l-0.03,0.08l0.062,0.095l0.729-0.411
		l0.521-0.267l2.686-0.785l0.502-0.047l0.232-0.066l0.7-0.279l0.913-0.11l0.918-0.104l0.164,0.019l0.586,0.334l0.141,0.376
		l-0.186,0.27l-0.396,0.151l-0.681,0.324l-0.31,0.13l-0.832,0.395l-0.811,0.441l-0.967,0.513l-0.891,0.634l-0.615,0.441
		l-0.871,0.649l-1.24,1.012l-0.875,0.496l-2.371,0.863l-0.25,0.001l-1.052-0.286l-0.316,0.054l-0.173,0.183l-0.154,0.2l-1.104,1.146
		l-0.479,0.464l-0.171,0.183l-0.862,1.035l-0.188,0.165l-0.31,0.28l-0.346,0.562l-0.431,0.386l-0.56,0.734l-0.565,0.734
		l-0.658,0.979l-0.64,0.989l-0.409,0.741l0.039,0.122l0.079-0.005l0.342-0.239l0.374-0.191l0.208-0.142l0.53-0.249l0.334-0.482
		l0.91-0.994l0.574-0.498l0.209-0.136l0.483-0.331l0.474-0.349l0.502-0.302l0.209-0.135l0.483-0.335l0.534-0.248l0.652-0.378
		l0.834-0.396l0.705-0.277l0.529-0.253l0.409-0.111l1.073-0.199l0.494-0.104l0.586-0.056l0.836-0.07l0.839-0.036l0.666-0.084
		l0.583-0.064l0.921-0.043l3.989,0.545l1.279,0.624l0.354,0.234l0.435,0.264l0.371,0.34l0.397,0.312l1.035,0.729l0.133,0.104
		l2.179,2.233l0.692,0.846l0.617,0.899l0.375,0.654l0.053,0.24l-0.168,0.652l-0.327,0.164l-0.662-0.093l-0.49-0.116l-0.246-0.054
		l-0.757-0.379l-0.74-0.146l-0.783-0.312l-1.127-0.354l-1.151-0.246l-1.142-0.303L54.2,38.197l-1.528-0.475l-1.805-0.393
		l-0.336-0.024l-0.143,0.069L50.4,37.44l0.215,0.262l0.23,0.348l0.209,0.364l0.248,0.879l0.038,0.418l0.158,0.571l0.054,1.169
		l-0.054,0.334l-0.263,1.316l-0.225,0.549l-0.777,1.41l-1.018,1.236l-1.889,1.539l-0.064,0.055l-0.152,0.068l-0.901,0.447
		l-1.543,0.461l-0.411,0.086l-0.392,0.093l-0.58,0.084l-1.091,0.069l-1.59-0.182l-1.59-0.541l-0.809-0.463l-1.003-0.77l-0.562-0.621
		l-0.803-1.084l-0.224-0.355l-0.333-0.225l-1.082,0.091l-0.57,0.162l-0.335,0.009l-0.243,0.01l-1.952,0.564l-0.446,0.23l-0.223,0.11
		l-0.968,0.505l-0.499,0.307l-0.455,0.367l-0.279,0.178l-0.757,0.359l-0.644,0.39l-0.716,0.438l-0.594,0.469l-0.379,0.187
		l-0.056,0.062l0.116,0.056l0.495-0.117l0.582-0.076l0.578-0.108l0.579-0.127l0.673,0.019l0.837,0.081l1.994,0.646l1.685,0.978
		l1.89,1.123l0.512,0.3l0.283,0.305l0.914,1.408l0.13,0.215l0.872,1.329l0.136,0.212l0.166,0.288l0.159,0.909l0.138,0.295
		l0.068,0.235l0.053,0.233l0.166,0.637l0.007,0.252l0.073,0.668l0.035,0.672l0.029,0.585l0.018,0.503l0.037,0.752l-0.104,0.751
		l-0.05,0.586L37.88,64.15l-0.395,1.02l-0.153,0.393l-0.696,1.353l-0.143,0.209l-0.888,1.124l-0.297,0.135l-0.411-0.081
		l-0.344-0.356l-0.333-1.049l0.004-0.332l-0.071-0.994l-0.104-0.497l-0.034-0.837l-0.013-0.672l0.032-0.674l-0.041-0.332
		l-0.264-0.895l-0.368-1.217l-0.418-1.008l-0.203-0.557l-0.33-0.68l-0.105-0.229l-0.46-0.896l-0.354-0.57l-0.358-0.566l-0.284-0.412
		l-1.129-1.463l-0.819-0.961l-0.128-0.109l-2.041-1.184l-0.282-0.174l-0.785-0.307l-0.804-0.245l-0.395-0.136l-0.584-0.018
		l-0.923,0.036l-0.666,0.056l-2.117,0.606l-0.848,0.366l-0.795,0.268l-0.447,0.141l-0.805,0.266l-2.114,0.617l-0.971,0.301
		l-0.981,0.262l-0.69-0.201l-0.066-0.147l0.042-0.418l0.354-0.304l0.334,0.002l0.825-0.192l0.665-0.104l0.248-0.041l1.961-0.543
		l0.877-0.309l0.715-0.441l0.577-0.342l0.444-0.39l0.529-0.413l0.714-0.705l0.652-0.66l0.442-0.617l0.258-0.326l0.28-0.312
		l0.112-0.314l0.233-0.451l0.629-1.908l0.236-0.895l0.051-0.159l0.281-1.317l0.02-0.585l-0.01-0.673l-0.023-0.251l-0.159-0.824
		l-0.012-0.84L23.721,39l-0.076-0.75l-0.038-0.754l-0.278-1.153l-0.151-0.485l-0.069-0.498l-0.046-0.331l-0.227-0.904l-0.05-0.247
		l-0.136-0.996l-0.103-0.833l-0.219-0.818l-0.237-0.814L21.865,29.6l-0.12-0.492l-0.274-1.403l-0.097-0.751l-0.157-0.742
		l0.062-0.493l0.252-0.44l0.385-0.311l0.399-0.14l0.58,0.003l1.192,0.627l0.152,0.199l0.627,0.895l0.608,0.806l0.333,0.48
		l0.27,0.521l0.176,0.285l0.491,0.775l0.125,0.217l0.277,0.515l0.261,0.525l0.122,0.22l0.306,0.599l0.139,0.307l0.353,0.759
		l0.103,0.229l0.43,1.55l0.052,0.586l0.128,0.578l0.004,0.335l-0.035,1.091l0.029,0.247l0.03,0.25l-0.108,0.581l-0.028,0.584
		L28.86,39.34l-0.197,0.729l-0.253,0.803l-0.187,0.452l-0.294,0.782l-0.074,0.151l-0.471,1.177l-0.867,1.733l-0.377,0.319
		l0.212-0.538l0.543-1.038l0.466-1.066l0.058-0.156l-0.021-0.244l-0.018,0.033l0.128-0.096l0.358-0.855l0.646-2.01l0.246-1.49
		l0.032-0.837l-0.023-0.922l-0.08-0.917l-0.076-0.582l-0.032-0.249l-0.378-1.391l-0.407-0.825l-0.241-0.634l-0.316-0.592
		l-0.289-0.512l-0.256-0.627l-0.046-0.068l-0.32-0.586l-0.063-0.056l-0.065,0.107l0.291,0.885l0.355,0.759l0.384,0.741l0.362,0.662
		l0.266,0.804l0.299,1.06l0.068,0.33l0.094,0.916l-0.026,0.08l-0.114-0.087l-0.237-1.313l-0.192-0.737l-0.275-0.613l-0.265-0.618
		l-0.339-0.577l-0.222-0.45l-0.191-0.372l-0.215-0.643l-0.224-0.45L25.9,29.49l-0.418-0.82l-0.519-0.755l-0.137-0.204l-0.301-0.497
		l-0.41-0.53l-0.072,0.572l0.338,0.581l0.129-0.014l0.198,0.021l0.072,0.489L25,28.808l0.299,0.153l0.143,0.297l-0.104,0.208
		l-0.078,0.219l0.152,0.484l0.38,0.839l0.035,0.077l0.111,0.041l0.026-0.078l-0.011-0.329l0.14-0.055l0.072,0.029l0.097,0.31
		l-0.117,0.503l-0.117,0.267l0.176,0.38l0.071,0.226l0.007,0.252l-0.31,0.467l-0.076-0.015l-0.252-0.206l-0.218-0.642l-0.11-0.066
		l-0.031,0.077l0.312,1.142l0.083,0.655l0.244,0.708l0.085,0.389l-0.019,0.757l0.003,0.501l0.029,0.841l0.006,0.666l-0.217,0.412
		l0.016,0.008l-0.095-0.404l0.05-0.919l-0.046-0.838l-0.09-0.917l-0.005-0.166l-0.027-0.415l-0.671-2.36l-0.212-0.731l-0.679-2.27
		l-0.162-0.388L23.605,28.4l-0.321-0.493l-0.117-0.056l-0.03,0.078l0.085,0.413l-0.086,0.124l-0.202-0.091l-0.048-0.161
		l-0.012-0.583l-0.036-0.662l-0.101-0.225l-0.149-0.022l-0.101-0.119l-0.03,0.061l0.142,0.036l-0.444,0.683l0.009,0.234l0.219,0.129
		l0.272,0.407l0.024,0.165l-0.024,0.078l-0.078,0.005l-0.259-0.2l-0.123-0.048l-0.026,0.159l0.053,0.248l-0.059,0.562l-0.021,0.243
		l0.368,0.515l0.584,0.485l-0.108,0.232l-0.074,0.23l0.034,0.67l-0.055,0.562l0.024,0.225l0.333,0.379l0.152,0.482l0.166,0.567
		l0.129,1.072l-0.039,0.074l-0.065-0.047l-0.174-0.467l-0.219-0.632l-0.067-0.051l-0.025,0.078l0.123,1.077l0.424,1.367l0.054,0.038
		l0.021-0.082l-0.039-0.493l0.126-0.091l0.083,0.111l0.107,0.743l-0.094,0.096l-0.178-0.017l0.027,0.334l0.083,0.747l0.125,0.404
		l0.099,0.062l0.021-0.08l-0.12-0.573l0.035-0.071l0.129,0.059l0.262,0.979l0.026,0.832l-0.055,0.155l-0.127,0.039l-0.127-0.215
		l0.121-0.181l-0.157-0.545l-0.063-0.049l-0.069,0.081l0.186,0.7L24.02,39.27l0.057,0.41l-0.003,0.497l0.091,0.235l0.055,0.059
		l0.072,0.035l0.306,0.307l0.013-0.027l-0.085,0.129l-0.034,0.564l0.061,0.312l0.093,0.397l-0.101,0.553l-0.074,0.035l0.015,0.007
		l-0.093-0.233l-0.055-0.152l-0.062-0.054l-0.056,0.05l-0.083,0.232l-0.08,0.573l-0.331,1.204l-0.046,0.41l0.151,0.26l-0.142,0.3
		l-0.395,1.364l-0.204,0.457l-0.121,0.107l-0.112-0.104l-0.034,0.147l-0.108,0.106l0.153,0.033l0.098,0.346l-0.343,0.104
		l-0.113-0.108l-0.035,0.149l-0.111,0.211l-0.281,0.153L21.3,49.434l-1.298,1.041l-0.137,0.096l-0.469,0.354l-0.438,0.396
		l-0.423,0.27l-0.482,0.162l-0.224,0.111l-0.523,0.263l-2.199,0.627l-0.334,0.009l-0.23,0.086l-0.465,0.156l-0.742,0.135
		l-0.053,0.223l0.128,0.08l0.411-0.099l3.172-0.929l2.111-0.635l0.462-0.197l0.451-0.223l0.726-0.233l0.077-0.203l-0.153-0.198
		l0.069-0.275l0.64-0.217l0.394-0.639l0.352-0.475l0.145-0.208l0.052-0.239l0.016-0.497l0.106-0.215l0.195-0.058l0.042,0.156
		l0.101,0.104l0.055-0.057l0.107-0.287l0.308-0.271l0.181-0.175l0.156-0.029l0.022,0.124l-0.105,0.385l-0.107,0.088l0.05,0.037
		l0.028-0.141l0.399-0.095l0.343-0.419l0.086-0.311l0.056-0.059l0.108,0.09l0.076,0.146l-0.119,0.1l0.058,0.031l0.039-0.144
		l0.231-0.083l0.864-1.011L26.156,45.458L26.156,45.458z M56.357,33.969l-0.209-0.112l-0.205-0.126l-0.074-0.127l-0.514-0.047
		l-0.076-0.121l-0.506-0.06l-0.111-0.106l-0.035,0.062l0.161,0.016l0.028,0.068l0.551,0.117l0.582,0.188l0.213,0.107l0.212,0.108
		l0.213,0.122l0.583,0.519l0.148,0.172l-0.539-0.141l-0.543-0.389l-1.106-0.404l-0.948-0.327l0.008-0.132l0.129-0.104l-0.161-0.133
		l-0.82-0.179l-0.121,0.132l-0.303,0.11l-1.065-0.249l-0.904-0.208l-0.996-0.08l-1.254-0.127l-0.504-0.024l-1.252,0.155l-0.25,0.018
		l-0.47,0.081l-0.579,0.111l-0.41,0.104l-0.498,0.061l-0.502,0.059l-0.502,0.029l-0.295,0.128l-0.414,0.058l-0.729,0.226
		L42.2,33.621l0.073,0.036l0.662-0.016l1.309-0.352l0.163-0.005l0.106,0.115l-0.041,0.145l-1.533,0.471l-0.192-0.108l-1.532,0.451
		l-0.288,0.164l-0.874,0.175l-0.21,0.104l-0.137,0.212l-0.026,0.229h0.161l0.491-0.005l0.322-0.044l0.195,0.112l1.131-0.344
		l0.14-0.094l0.144-0.062l0.334-0.017l1.815-0.359l1.065-0.274l-0.031-0.016l0.13,0.09l0.499-0.048l0.664-0.057l0.246-0.014
		l0.496-0.035l0.162,0.01l0.053,0.041L47.659,34.2l-0.884,0.246l-1.166,0.042l-0.822,0.183l-0.83,0.094l-0.322,0.097L43.141,34.9
		l-0.164,0.01l-1.125,0.349l-0.06,0.061l0.155,0.025l0.814-0.218l0.243-0.033l0.662-0.076l0.499-0.04l0.415-0.041l0.33-0.036
		l0.5-0.03l0.33-0.045l0.582-0.036l0.415-0.016l1.08-0.079l0.164-0.015l0.58,0.049l0.75,0.097l0.088,0.122l0.008-0.019l-0.569,0.076
		l-1.661,0.036l-0.164,0.003l-0.734,0.116l-0.236-0.099l-0.05,0.052l0.075,0.066l0.225-0.048l0.043,0.071l0.562,0.099l0.668-0.012
		l0.664-0.017l0.752-0.009l1.076,0.126l0.207,0.123l0.02,0.08l-0.029,0.072L49.6,35.659l-0.916-0.086l-0.488,0.082l-0.18-0.093
		l-0.111,0.086l0.074,0.024l0.229-0.04l0.162,0.163l0.579,0.057l0.831,0.067l0.744,0.066l0.832,0.074l0.289-0.119l0.135-0.019
		l0.033,0.148l-0.153,0.193l0.043,0.119l0.553,0.175l0.037,0.13l-0.063,0.044l-0.662-0.024L51,36.777l-0.158-0.114l-0.219,0.05
		l-0.238-0.107l-0.293,0.087L49.9,36.592l-0.103,0.098l0.07,0.03l0.233-0.056l0.168,0.106l0.364-0.086l0.161,0.119l0.213-0.047
		l0.039,0.074l0.066,0.036l1.236,0.229l1.323,0.234l0.331-0.016l-0.033-0.018l0.125,0.096l0.971,0.197l0.225,0.103l0.068,0.139
		l-0.104,0.082l-0.812-0.154l-0.319,0.054l-0.156-0.124l-0.218,0.056l-0.143-0.055l0.158,0.023l0.207,0.103l0.164-0.032l0.262,0.188
		l0.729,0.191l0.983,0.197l0.086-0.175l0.178-0.131l0.398,0.273l0.197,0.247l0.797,0.251l0.127-0.08l0.053-0.242l0.648,0.216
		l0.043,0.144l-0.103,0.125l-0.088-0.102l-0.046,0.022l0.146,0.055l0.026,0.075l0.427,0.222l0.932,0.279l0.146-0.112l0.183-0.135
		l0.153,0.006l0.051,0.155l0.104,0.114l0.02-0.151l-0.029-0.161l0.16,0.016l0.441,0.248l0.131-0.027l-0.003-0.077l-0.781-0.759
		l-0.276-0.19l-0.002-0.132l0.078-0.021l0.231,0.078l0.717,0.582l0.052-0.01l0.018-0.08l-0.402-0.611l-0.43-0.5l-0.348-0.474
		l-0.521-0.417l-0.836-0.564l-0.138-0.098l-0.569-0.334l-0.451-0.227l-0.088-0.136l0.013-0.077l0.053-0.037l0.471,0.156l0.105,0.104
		l0.018-0.061l-0.139-0.012l-0.146-0.276l-0.466-0.323l-0.176-0.264l0.234,0.043l0.645,0.38l0.15-0.002l0.15,0.288l0.895,0.763
		l0.154,0.009l0.072,0.208l0.188,0.062l0.092,0.212l0.061,0.041l0.023-0.134l-0.191-0.09l-0.068-0.213l-0.186-0.071l-0.079-0.234
		l-0.958-0.811l-0.156-0.021l-0.378-0.47l-0.334-0.221l-0.348-0.204l-0.362-0.202l-0.314,0.026L56.357,33.969L56.357,33.969z
		 M52.27,32.695l-0.104-0.1l-0.025,0.056l0.146,0.012l0.104,0.104l0.032-0.056L52.27,32.695L52.27,32.695z M35.457,25.403
		l0.111-0.104l-0.06-0.037l-0.021,0.157l-0.12,0.207l-0.405-0.333l0.04-0.057l0.495-0.375l0.091,0.109l0.05-0.026l-0.153-0.06
		l0.142-0.439l0.118-0.117l0.074-0.015l0.142-0.172l-0.202-0.45l0.057-0.117l0.152-0.07l0.105,0.101l0.051-0.096l-0.146-0.024
		l-0.059-0.156l0.235-0.058l0.296-0.244l-0.055-0.191l-0.294-0.078l0.014-0.586l0.079-0.09l0.062,0.055l0.161,0.282l0.157,0.004
		l0.098-0.115l-0.274-0.596l0.071-0.106l0.249,0.016l0.075-0.106l-0.283-0.503l0.018-0.076l0.062-0.018l0.386,0.307l0.291-0.594
		l-0.015,0.026l0.196-0.611l-0.014,0.025l0.242-0.441l-0.011,0.019l0.059-0.054l0.346-0.968l0.107-0.092l-0.027-0.047l-0.051,0.154
		l-0.16,0.03l-0.154-0.106l0.035-0.239l0.014-0.077l0.199-0.096l0.33-0.165l0.023-0.159l-0.013,0.019l0.09-0.131l-0.01-0.246
		l0.043-0.149l0.396-0.602l-0.064-0.041l-0.329-0.048l-0.29,0.125l-0.215-0.026l-0.073-0.123l-0.087-0.271l-0.043-0.066l0.084-0.199
		l0.142,0.036l0.081,0.145l0.067,0.139l0.067,0.033l0.043-0.067l0.299-0.446l0.129,0.05l0.146,0.389l0.139,0.054l0.125-0.098
		l0.101-0.485l-0.017,0.025l0.111-0.216l-0.281-0.97l-0.043-0.071l-1.627-1.303l-1.348-0.481l-0.579-0.083l-0.502-0.022
		l-0.836,0.069l-0.082,0.016l-0.491,0.127l-0.753,0.358l-0.643,0.392l-0.858,0.67l-0.104,0.132l-0.082,0.228l0.018-0.032
		l-0.229,0.092l-1.165,1.604l-0.03,0.162l0.014-0.027l-0.061,0.053l-0.34,0.983l0.02,0.16l0.018-0.032l-0.111,0.103l-0.039,0.676
		l0.015-0.028l-0.098,0.124l-0.145,0.913l-0.007,1.164l0.016,0.25l0.043,0.583l0.037,0.248l0.066,1.171l0.385,1.295l0.408,0.241
		l0.162-0.039l0.109,0.074l-0.035,0.071l-0.007,0.171l0.148,0.058l-0.017,0.08l-0.044,0.666l0.01,0.165l0.399,0.919l0.152,0.296
		l0.369,0.56l0.111,0.123l0.572,0.496l1.079,0.622l-0.026-0.015l0.57,0.319v-0.245l0.029-0.156l0.131-0.067l0.059,0.113l0.127,0.449
		l0.167-0.448l0.034-0.47l-0.017,0.029l0.387-0.014l0.125-0.045l-0.135-0.355l-0.157-0.032l0.03,0.016l0.121-0.424v-0.231
		l-0.128-0.104l0.02-0.273l0.391-0.484l0.318-0.448l0.231,0.053l0.141-0.056l0.023-0.15L35.457,25.403L35.457,25.403z
		 M23.745,25.856l-0.211-0.116l-0.042-0.136l-0.212-0.141l-0.086-0.103l-0.043,0.021l0.146,0.05l0.057,0.157l0.198,0.118
		l0.209,0.122l0.136,0.094l-0.012-0.062L23.745,25.856L23.745,25.856z M30.837,50.65l-0.208-0.117l-0.104-0.35l0.225,0.03
		l0.112-0.055l-0.028-0.067l-0.12-0.084l-0.229,0.041l-0.058-0.156l-0.2-0.108l-0.164,0.032l-0.093-0.129l-0.227-0.104l-0.247-0.043
		l-0.271,0.217l0.085,0.209l0.489,0.079l0.212,0.115l0.212,0.119l0.421,0.222l0.208,0.117l0.215,0.12l0.04,0.067l0.769,0.555
		l0.079,0.004l0.093,0.326l-0.009,0.015L31.883,51.7l-0.229-0.079l0.029,0.015l-0.101-0.206l-0.607-0.315l0.031,0.017l-0.108-0.117
		l-0.933-0.524l-0.378-0.161l-0.234,0.041l-0.245-0.202l-0.57-0.151l-0.582-0.074l-0.492-0.074l-0.481,0.053l-0.013,0.075
		l0.025,0.078l0.57,0.095l0.364,0.146l0.23,0.053l0.324-0.075l0.096,0.104l0.13,0.155l0.646-0.186l-0.262,0.272l-0.062,0.047
		l0.065,0.092l0.604,0.259l0.234,0.062l-0.033-0.019l0.387,0.313l0.383,0.33l0.978,0.92l0.504,0.438l0.062,0.213l0.026,0.161
		l0.344,0.365l0.407,0.234l0.43,0.618l0.281,0.418l0.187,0.472l0.153,0.299l0.336,0.481l0.084,0.31l0.182,0.521l0.064,0.23
		l0.07,0.218l0.137,0.101l0.086,0.209l0.018,0.242l0.349,0.73l-0.03,0.076l-0.072-0.017l-0.188-0.157l0.185,0.758l0.193,0.14
		l0.139,0.078l0.131,0.478l0.049,0.497l0.034,0.503l0.023,0.332l0.193,0.737l0.041,0.331l0.169,0.9l-0.125,0.229l0.055,0.144
		l-0.07,0.041l0.004,0.898l-0.178,0.514l-0.12,0.36l-0.019,0.979l-0.083,0.32l0.029,0.072l0.117-0.045l0.218-0.452l0.33-0.769
		l0.133-0.082l-0.019-0.011L36.566,66l-0.111,0.316l0.033,0.123l0.136-0.07l0.122-0.221l0.593-1.479l0.25-0.533l-0.061-0.224
		l0.037-0.23l0.212-0.229l0.028-0.165l-0.107-0.372l-0.01-0.148l0.167-0.293l0.065-0.401l-0.025-0.669l0.02-0.838l-0.152-0.121
		l-0.286,0.156l-0.126,0.008l-0.007-0.153l0.426-0.386l0.137-0.381l-0.064-0.33l-0.021,0.031l0.088-0.132l0.023-0.499l0.003-0.164
		l-0.293-0.968l-0.126-0.086l-0.174-0.165l0.05-0.327l-0.322-1.282l-0.22-0.35l-0.433-0.711l-0.575-0.812L35.546,53.4l-0.476-0.781
		l-0.129-0.104l-0.134,0.021l-0.026,0.077l0.145,0.299l0.265,0.425l0.28,0.411l-0.024,0.232l-0.333,0.353l0.005,0.003l-0.28-0.404
		l-0.396-0.623l-0.321-0.373l-0.151-0.047L34,52.9l-0.403-0.515l-0.066,0.021l-0.137,0.065l-0.127-0.199l0.027-0.248l-0.059-0.139
		l-0.303-0.099l-0.187-0.112l-0.089-0.23l-0.285-0.145l-0.433,0.092l-0.021-0.166l0.032-0.49l-0.466-0.313l-0.139-0.077
		l-0.082,0.008l-0.026,0.123l0.083,0.131l-0.191,0.133l-0.078,0.031L30.837,50.65L30.837,50.65z M28.426,52.062l-0.091-0.117
		l-0.039,0.089l0.145,0.002l0.09,0.118l0.034-0.051L28.426,52.062L28.426,52.062z M27.443,51.109l-0.211-0.112l-0.583-0.179
		l-0.212-0.12l-0.178-0.101l-0.093,0.092l0.067,0.025l0.22-0.047l0.21,0.122l0.583,0.183l0.211,0.111l0.208,0.123l0.088,0.129
		l1.095,0.57l0.081-0.01l0.145,0.193l0.818,0.698l0.415,0.401l-0.034,0.07l-0.226,0.096l-0.209-0.123l-0.078-0.225l-0.504-0.402
		l-0.06-0.021l-0.031,0.073l0.078,0.222l0.523,0.361l0.078-0.021l0.219,0.104l0.1,0.318l0.548,0.744l0.219,0.249l0.367,0.56
		l0.422,0.625l0.19,0.271l0.542,1.044l0.358,0.756l0.307,0.967l0.151,0.298l0.055,0.403l0.346,1.222l0.384,0.409l0.049,0.133
		l-0.002,0.486l0.189,0.648l0.001,0.753l0.081,1.252l0.021,0.25l0.06,0.584l0.119,0.912l0.028,0.67l0.05,0.062l0.056-0.021
		l0.191-0.274l0.128,0.035l0.115,0.111l0.108-0.1l0.223-0.803l-0.014-0.169l-0.004,0.007l0.17-0.547l0.208-0.812l-0.015-0.15
		l-0.098-0.383l0.037-1.412l-0.121-0.461l-0.275-1.312l-0.684-2.443l-0.541-1.318l-0.434-0.812l-0.364-0.564l-0.37-0.653
		l-0.469-0.694l-0.535-0.751l-0.56-0.727l-0.152-0.043l-0.157,0.049l-0.054-0.228l-0.465-0.321l-0.096-0.222l-0.063-0.046
		l-0.144,0.023l0.035,0.119l0.285,0.097l0.083,0.229l0.348,0.339l0.081-0.005l0.064,0.244l0.382,0.649l0.102,0.132l0.332,0.399
		L31.76,54.34l-0.131,0.031l-0.069-0.143L31.418,53.8l-0.201,0.017l-0.02,0.312l0.213,0.253l0.342,0.573l0.35,0.57l0.345,0.576
		l0.018,0.084l-0.014,0.08l-0.128,0.006l-0.184-0.17l-0.392-0.646l-0.537-0.847l-0.427-0.619l-0.013-0.317l0.271-0.315l-0.055-0.131
		l-0.294,0.03l-0.064,0.009l-0.067-0.145l0.091-0.123l0.104-0.12l-0.05-0.151l-0.518-0.429l-0.058,0.058l-0.06,0.061l-0.225,0.02
		l-0.058-0.149l-0.111-0.343l-0.259-0.215l-0.202,0.045l-0.298,0.147l-0.152-0.47l-0.392-0.23l-0.483-0.031l-0.235,0.037
		L27.443,51.109L27.443,51.109z M26.624,51.355l-0.207-0.121l-0.21-0.115l-0.375-0.061l-0.078-0.107l-0.053,0.021l0.147,0.059
		l0.165,0.111l0.209-0.052l0.209,0.115l0.209,0.117l0.092,0.11l0.035-0.055L26.624,51.355L26.624,51.355z M25.246,50.876
		l-0.101-0.108l-0.04,0.06l0.157,0.019l0.115,0.106l0.031-0.063L25.246,50.876L25.246,50.876z M51.4,32.043l0.229,0.111l0.139-0.043
		l0.162,0.12l0.215-0.053l0.084,0.128l1.349,0.443l0.164,0.025l1.622,0.387l0.236-0.054l0.125,0.097l-0.002-0.052l-0.137-0.02
		l-0.035-0.075l-0.886-0.471l-1.299-0.315l-0.993-0.129l-0.241,0.061l-0.235-0.115l-0.141,0.05L51.6,32.016l-0.215,0.058l-0.1-0.099
		l-0.032,0.051L51.4,32.043L51.4,32.043z M51.545,32.53l0.189,0.103l0.096-0.094l-0.07-0.026l-0.232,0.05l-0.106-0.108l-0.037,0.058
		L51.545,32.53L51.545,32.53z M44.814,25.862l-0.113,0.096l0.057,0.031l0.024-0.145l0.202-0.076l0.08-0.178l0.533-0.353l0.229-0.347
		l0.367-0.45l0.474-0.684l0.169-0.366l-0.076-0.023l-0.373,0.315l-0.951,1.146l-0.35,0.466l0.003,0.31l-0.138,0.04L44.814,25.862
		L44.814,25.862z M41.318,33.937l0.16-0.042l0.113-0.105l-0.062-0.03l-0.145,0.049l-0.037,0.146l-0.224,0.082L41.076,34.1
		l0.066,0.027L41.318,33.937L41.318,33.937z M34.254,52.655l-0.077-0.202l-0.182-0.078l-0.062-0.156l-0.047-0.066l-0.049-0.006
		l0.024,0.15l0.152,0.046l0.08,0.197l0.177,0.083l0.125,0.1l-0.009-0.054L34.254,52.655L34.254,52.655z M48.051,32.164l-0.104-0.106
		l-0.471,0.13l-0.056,0.06l0.08,0.019l0.562-0.128l0.109,0.097l0.307-0.072l0.045-0.06l-0.078-0.023L48.051,32.164L48.051,32.164z
		 M38.98,36.213l0.158-0.04l0.11-0.103l-0.06-0.033l-0.142,0.049l-0.039,0.146l-0.393,0.013l-0.153,0.001l-0.104,0.104l0.135,0.171
		l0.447-0.167L38.98,36.213L38.98,36.213z M50.418,32.336l0.023,0.078l0.59,0.101l0.062-0.118l-0.059-0.052L50.41,32.35
		l-0.192-0.095l-0.122,0.098l0.078,0.028L50.418,32.336L50.418,32.336z M34.711,44.566l-0.047-0.156l-0.092-0.117l-0.221,0.057
		l-0.084,0.137l0.06,0.193l0.277-0.043l0.123-0.104l0.194,0.113l0.184-0.144l-0.032-0.207l-0.2,0.097L34.711,44.566L34.711,44.566z
		 M24.907,29.736l0.333,1.309l-0.08,0.225l0.074,0.479l0.505,0.536l-0.038-0.761l-0.557-1.493l-0.109-0.226l-0.146-0.042
		l-0.255-0.886l-0.469-0.783l-0.04,0.01l-0.017,0.081l0.585,1.469L24.907,29.736L24.907,29.736z M49.436,21.127l-0.016,0.03
		l0.229-0.101l1.203-1.482l-0.004-0.156l-0.133-0.068l-0.32,0.097l-0.644,0.362l-0.737,0.901l-0.16,0.295l-0.105,0.481l0.197,0.146
		l0.49-0.423V21.127L49.436,21.127z M46.682,26.886l0.008,0.082L46.096,27.4l-0.15,0.071l-0.641,0.387l-0.662,0.356l-0.141,0.088
		l-0.523,0.258l-1.232,0.108L42.66,28.77l0.013,0.082l0.729,0.268l0.248-0.003l0.373-0.147l0.232-0.066l0.248,0.026l1.393-0.552
		l0.693-0.467l0.197-0.153l0.406-0.414l0.38-0.236l0.665-0.517l0.662-0.515l0.146-0.081L49.7,25.62l0.122-0.209l0.324-0.2
		l0.311-0.062l0.215-0.13l0.283-0.293l0.589-0.349l0.779-0.269l0.044-0.153l-0.338-0.228l-0.082,0.017l-0.139-0.043l0.067-0.15
		l0.196-0.153l0.724-0.324l-0.258,0.005l-0.415,0.068l-0.91,0.139l-1.216,0.369l-0.767,0.334l-0.64,0.22l-1.312,0.55l-0.822,0.412
		l-0.973,0.646l-0.979,1.044l-0.264,0.327l-0.536,0.755l-0.021,0.081l0.039,0.061l0.149,0.073l0.313-0.175l0.576-0.524l0.077,0.029
		l0.011,0.053l-0.36,0.35l-0.058,0.059l-0.024,0.066l0.161,0.018l0.666-0.347l0.652-0.367l0.24-0.226l0.137-0.095L46.7,26.9
		L46.682,26.886L46.682,26.886z M30.312,45.146l-0.214,0.088l-0.044,0.059l0.138,0.02l0.093-0.184l0.915-0.404l0.233-0.096
		l0.675-0.33l0.73-0.172l0.331-0.036l0.898-0.243l0.993-0.171l0.177-0.163l0.029-0.25l0.05-0.753l0.127-0.823l0.104-0.576
		l0.281-0.881l0.107-0.229l1.215-1.566l-0.27,0.023l-0.723,0.423l-0.745,0.388l-0.681,0.494l-0.819,0.846l-0.349,0.363l-0.155,0.021
		l-0.017-0.127l0.487-0.68l0.833-0.758l0.552-0.384l0.053-0.062l0.015-0.075l-0.152-0.185l-0.223,0.006l-0.385-0.162l-0.115-0.213
		l-0.155-0.016l-0.194,0.262l-0.223,0.635l-0.292,0.06l-0.058-0.062l-0.193-0.012l-0.565,0.834l-0.054,0.153l-0.247,0.433
		l-0.152,0.2l-0.852,1.248l-0.209,0.263l-0.414,0.528l-0.08,0.142l-0.411,0.621l-0.243,0.231l-0.086,0.313l-0.284,0.394l-0.615,0.42
		l-0.068,0.146l-0.496,0.494l-0.207,0.135l-0.435,0.396l-1.344,1.139l-0.076,0.535l-0.119,0.106l0.066,0.021l0.028-0.141
		l0.455-0.184l1.159-0.963l0.91-0.737l0.87-0.897l0.906-0.986l0.163-0.459l0.008-0.16l0.121-0.092l0.426-0.156l0.112-0.123
		l0.736-1.018l0.223-0.248l0.485-0.576l0.129-0.033l0.057,0.143l-0.206,0.364l-0.964,1.153l-0.207,0.264l-0.522,0.646l-0.502,0.555
		l-0.097,0.135l-0.17,0.291l-0.264,0.311L30.312,45.146L30.312,45.146z M44.16,9.767l-0.018,0.031l0.209-0.352l0.205-0.99
		l0.143-0.571l-0.123-0.423l-0.049-0.147l0.127-0.402L44.615,6.86l-0.078-0.009L44.4,6.936l-0.285,0.513l-0.539,0.749L43.27,8.706
		l-0.521,0.757l-0.387,0.553l0.021,0.224l0.132,0.107l0.024,0.075l-0.117,0.196l-0.149-0.025l-0.268-0.003l-0.997,1.867
		l-0.065,0.155l-0.41,1.002l-0.196,0.555l-0.25,0.626l-0.729,1.614L39.3,16.567l-0.252,0.711l-0.289,0.607l-0.315,0.688
		l-0.133,0.312l-0.2,0.554l-0.235,0.629l-0.164,0.389l-0.371,0.662l-0.16,0.733l-0.184,0.377l-0.11,0.484l-0.179,0.468l-0.145,0.393
		l-0.198,0.452l-0.21,0.64l-0.231,0.716L35.648,26l-0.1,0.321l-0.24,0.721l-0.265,0.53l-0.225,0.633l-0.197,0.809l-0.184,0.989
		l-0.152,1.078l-0.069,0.751l-0.076,0.917l0.059,0.415l0.002,0.167l-0.098,0.665l0.015,0.668l0.007,0.25l-0.092,1.09l-0.051,0.585
		l0.093,0.907l-0.099,0.109l0.06,0.034l0.018-0.154l0.11-0.101l-0.025-0.248l0.353-0.641l-0.031-0.016l0.058,0.155l0.176,0.06
		l0.382-0.433l0.703-1.406l-0.014,0.024l0.313-0.382l0.334-0.565l0.226-0.443l0.447-0.7l0.417-0.808l0.363-0.65l0.203-0.365
		l0.014-0.325l-0.016,0.033l0.496-0.558l1.854-3.431l0.106-0.229l0.299-0.788l0.33-0.775l0.129-0.399l0.643-1.744l0.111-0.403
		l0.324-1.823l0.461-2.229l0.033-0.333l0.403-2.326l0.255-1.148l0.182-1.335l0.055-0.417l0.104-0.836l0.16-0.738l0.164-0.822
		L44.16,9.767L44.16,9.767z M36.426,40.695L36.35,40.73l-0.3,0.688l-0.271,0.886l-0.06,0.821l0.574,2.036l0.605,1.1l0.908,0.854
		l0.135,0.1l0.758,0.528l0.924,0.41l1.225,0.324l0.582,0.062l0.668,0.095l0.25,0.023l0.42,0.017l0.672-0.021l0.084,0.002
		l0.414-0.082l0.588-0.032l0.931-0.376l0.636-0.23l0.391-0.158l0.969-0.666l1.771-1.557l0.112-0.127l1.37-2.019l0.057-0.244
		l-0.043-0.156l-0.431-0.21l0.028,0.018l-0.051-0.248l0.032-0.075l0.218-0.015l0.264,0.164l0.216-0.233l0.213-1.316l-0.123-0.913
		l-0.297-1.147l-0.197-0.37l-0.493-0.777l-0.461-0.694l-0.293-0.305l-0.416-0.266l-1.066-0.483l-0.228-0.086l-0.524-0.246
		l-0.66-0.086l-1.422-0.114h-0.25l-1.332,0.175l-0.992,0.132L40.508,36.5l-0.297,0.154l-0.818,0.575L38.6,37.853l-1.573,1.636
		l-0.172,0.185l-0.348,0.572l0.035,0.24L36.426,40.695L36.426,40.695z M41.689,28.765l-0.064,0.039l-0.996,1.028l-0.496,0.574
		l-0.506,0.565l-0.425,0.515L38.314,32.5l-1.427,1.531l-0.379,0.558l-0.282,0.415l-0.204,0.361l-0.287,0.417l-0.414,0.631
		l-0.498,0.675l-0.425,0.809l0.082,0.122l0.081-0.004l0.077-0.027l0.649-0.88l0.797-1.396l0.145-0.204l0.418-0.521l0.45-0.61
		l1.112-1.253l0.262-0.328l0.424-0.514l0.338-0.373l0.666-0.755l0.354-0.357l0.86-0.909l0.703-0.723l0.094-0.139l0.021-0.079
		l-0.086-0.124L41.689,28.765L41.689,28.765z M32.386,44.7l-0.492,0.229l-0.437,0.221l-0.456,0.192l-0.021,0.056l0.074,0.035
		l0.645-0.178l0.494-0.072l0.412-0.028l0.651-0.169l0.714-0.236l0.055-0.141l-0.022-0.082l-0.119-0.111l-0.248,0.075l-0.324,0.086
		l-0.226-0.063l-0.277,0.17l-0.137,0.059L32.386,44.7L32.386,44.7z M23.845,49.408l0.046,0.035l0.702-0.234l0.285-0.175l0.801-0.455
		l0.48-0.337l0.02-0.307l-0.282-0.088l-0.147,0.078l-0.581,0.481l-0.553,0.36l-0.577,0.484l-0.144,0.086L23.845,49.408
		L23.845,49.408z M53.295,23.703l0.273-0.114l0.145-0.193l0.01-0.08l-0.078-0.021l-0.082-0.001l-0.812,0.084l-0.16,0.042
		l-0.135,0.269l0.244,0.188L53.295,23.703L53.295,23.703z M36.363,37.89l-0.9,0.49l0.011,0.313l0.215,0.078l0.274-0.181l0.124-0.306
		l0.213-0.221l0.082-0.019l0.082-0.021l0.129-0.093L36.363,37.89L36.363,37.89z M22.882,50.122l0.668-0.513l-0.017-0.127
		l-0.079-0.004l-0.573,0.326l-0.076,0.034l-0.116,0.119l-0.065,0.151L22.882,50.122L22.882,50.122z M24.868,27l-0.035,0.074
		l0.099,0.312l0.59,0.804l0.105,0.022l0.011-0.081l-0.13-0.302l-0.292-0.398l-0.283-0.404L24.868,27L24.868,27z M24.746,47.729
		l0.066,0.029l0.082,0.012l0.239,0.049l0.262-0.176l0.19-0.258l0.006-0.08l-0.145-0.043l-0.12,0.104l-0.257,0.079l-0.264,0.129
		L24.746,47.729L24.746,47.729z M24.439,47.952l-0.084,0.026l-0.163,0.356l0.164,0.132l0.22-0.097l-0.072-0.416L24.439,47.952
		L24.439,47.952z M47.623,22.618l0.029,0.05l0.078,0.018l0.332-0.207l0.153-0.287l-0.042-0.114l-0.076,0.009L47.623,22.618
		L47.623,22.618z M46.589,32.392l-0.003-0.01l0.48-0.143l0.052-0.065l-0.058-0.029l-0.951,0.278l-0.01,0.046l0.08,0.021
		L46.589,32.392L46.589,32.392z M45.225,32.454l-0.449,0.168l-0.057,0.058l0.078,0.023l0.936-0.254l0.052-0.063l-0.07-0.021
		L45.225,32.454L45.225,32.454z M38.925,35.896l0.343-0.151l0.045-0.055l-0.056-0.062l-0.368-0.02l-0.24,0.233l-0.014,0.061
		l0.078,0.025L38.925,35.896L38.925,35.896z M24.93,49.914l-0.083,0.025l-0.132,0.092l0.118,0.107l0.453-0.059l0.01-0.146
		l-0.053-0.053L24.93,49.914L24.93,49.914z M30.062,51.668l-0.044-0.139l-0.406-0.252l-0.12,0.053l0.008,0.075l0.527,0.333
		L30.062,51.668L30.062,51.668z M35.047,26.708l0.095-0.132l0.035-0.072l-0.094-0.266l-0.203-0.033l-0.009,0.153L35.047,26.708
		L35.047,26.708z M34.872,27.099l-0.181-0.122l-0.078-0.014l-0.061,0.121l0.05,0.155l0.159,0.095L34.872,27.099L34.872,27.099z
		 M35.103,53.729l-0.048-0.162l-0.031-0.078l-0.108-0.112l-0.029,0.16l0.02,0.082l0.052,0.159l0.096,0.131L35.103,53.729
		L35.103,53.729z M37.355,37.639l0.018,0.054l0.071,0.031l0.227-0.082l0.055-0.058l-0.095-0.059L37.355,37.639L37.355,37.639z
		 M41.411,35.521l-0.151,0.062l-0.058,0.058l0.108,0.04l0.155-0.044l0.099-0.096L41.411,35.521L41.411,35.521z M23.455,26.112
		l-0.097-0.126l-0.021,0.152l0.106,0.047L23.455,26.112L23.455,26.112z M37.501,36.91l0.03,0.043l0.137-0.003l0.017-0.104
		l-0.136,0.009L37.501,36.91L37.501,36.91z M50.074,36.237l-0.072-0.024l-0.127,0.073l0.029,0.034l0.143-0.03L50.074,36.237
		L50.074,36.237z M21.571,50.648l0.022-0.047l-0.057,0.008L21.571,50.648L21.571,50.648z M22.15,50.617l-0.065-0.03l-0.046,0.056
		l0.065,0.027L22.15,50.617L22.15,50.617z M24.775,50.708l-0.02,0.043l0.051-0.007L24.775,50.708L24.775,50.708z M28.96,49.505
		l0.06,0.025l-0.016-0.074L28.96,49.505L28.96,49.505z M22.183,26.241l0.016-0.048l-0.044,0.005L22.183,26.241L22.183,26.241z
		 M22.79,25.165l-0.057-0.019L22.74,25.2L22.79,25.165L22.79,25.165z M35.424,67.736l-0.022,0.055l0.059-0.009L35.424,67.736
		L35.424,67.736z M24.108,26.123l-0.028,0.062l0.05,0.048l0.025-0.062L24.108,26.123L24.108,26.123z M30.759,45.627l-0.071-0.01
		l0.009,0.046L30.759,45.627L30.759,45.627z M34.635,53.145l0.081-0.018l-0.052-0.049L34.635,53.145L34.635,53.145z M36.339,38.289
		l0.014,0.068l0.044-0.045L36.339,38.289L36.339,38.289z M38.477,37.134l0.016,0.072l0.044-0.046L38.477,37.134L38.477,37.134z
		 M48.904,32.17l-0.068-0.016l0.01,0.054L48.904,32.17L48.904,32.17z M50.424,36.274l0.021,0.09l0.043-0.057L50.424,36.274
		L50.424,36.274z M49.768,32.238l-0.022,0.048l0.058-0.008L49.768,32.238L49.768,32.238z M49.628,31.946l0.058,0.026l-0.017-0.075
		L49.628,31.946L49.628,31.946z M47.66,16.026l0.016,0.089l0.033-0.05L47.66,16.026L47.66,16.026z M60.779,37.694l-0.059-0.039
		l-0.033,0.061l0.078,0.033L60.779,37.694L60.779,37.694z M61.559,38.682l-0.016,0.051l0.044-0.004L61.559,38.682L61.559,38.682z
		 M61.975,39.523l0.008-0.07l-0.041,0.008L61.975,39.523L61.975,39.523z"/>
	<polygon fill="#232734" points="49.102,39.277 48.729,38.989 48.705,38.842 48.646,38.73 48.289,38.863 47.951,39.062 
		47.984,39.084 47.759,38.753 47.68,38.62 47.566,38.169 47.664,37.914 47.917,38.062 48.17,38.428 48.665,38.475 48.758,38.382 
		48.695,38.328 48.732,38.146 48.895,38.099 49.109,38.171 49.143,38.248 49.548,38.338 49.613,38.309 49.7,38.434 49.631,38.837 
		49.584,38.889 49.512,38.852 49.078,38.766 49.049,38.885 49.111,38.939 49.066,39.264 	"/>
	<polygon fill="#232734" points="41.076,38.453 41.053,38.056 40.923,37.805 40.84,37.791 40.59,37.739 40.412,38.023 
		40.287,38.127 40.137,38.122 40.082,37.981 40.361,37.486 40.656,37.375 40.736,37.396 41.439,37.628 41.846,38.292 41.746,38.406 
		41.777,38.421 41.443,38.391 41.266,38.553 41.289,38.566 41.047,38.436 	"/>
	<polygon fill="#232734" points="49.066,39.264 49.111,39.333 49.619,39.576 50.009,39.938 50.18,40.115 50.201,40.271 
		50.064,40.273 49.955,40.343 50,40.58 49.957,40.725 49.884,40.684 49.711,40.507 49.678,40.293 49.605,40.079 49.229,39.939 
		49.129,39.848 49.029,39.561 49.102,39.277 	"/>
	<polygon fill="#232734" points="44.453,37.287 44.014,36.818 43.99,36.758 44.123,36.687 44.357,36.768 44.59,36.854 
		44.833,36.502 45.089,36.56 45.143,36.719 45.059,36.915 44.65,37.172 44.422,37.269 	"/>
	<path fill="#232734" d="M44.936,37.446l0.097-0.312l0.143-0.059l0.353,0.413l-0.06,0.145l-0.495,0.301l-0.184-0.061l-0.096-0.318
		l0.158-0.113L44.936,37.446L44.936,37.446z M45.279,37.429l-0.031,0.057l0.051,0.041l0.028-0.057L45.279,37.429L45.279,37.429z"/>
	<polygon fill="#232734" points="38.656,40.863 38.387,40.919 38.242,40.939 38.112,40.841 38.14,40.561 38.287,40.484 
		38.413,40.291 38.432,39.97 38.572,39.902 38.639,39.947 38.672,40.259 38.76,40.551 	"/>
	<polygon fill="#232734" points="38.725,39.473 38.252,39.797 37.909,39.7 37.817,39.391 37.961,38.854 38.034,38.82 38.123,38.91 
		38.154,39.303 38.354,39.404 38.596,39.396 38.711,39.499 	"/>
	<polygon fill="#232734" points="37.335,41.309 37.371,41.752 37.254,41.836 37.116,41.773 36.993,41.672 36.875,41.75 
		36.812,41.798 36.713,41.68 36.952,41.348 37.106,41.236 37.141,41.079 37.266,40.994 37.348,41.104 	"/>
	<polygon fill="#232734" points="37.428,43.568 37.409,43.723 37.192,43.77 36.815,43.595 36.749,43.461 36.77,43.055 36.754,43.08 
		37.267,42.934 37.232,42.914 37.338,43.264 37.353,43.232 37.204,43.291 37.078,43.377 37.16,43.48 37.456,43.584 	"/>
	<polygon fill="#232734" points="36.597,44.365 36.796,44.439 36.924,44.814 37.345,45.025 37.316,45.009 37.321,45.089 
		37.001,45.441 36.854,45.477 36.762,45.357 36.746,44.805 36.616,44.336 	"/>
	<polygon fill="#232734" points="39.492,38.505 39.581,38.912 39.51,39.045 39.357,39.066 39.145,38.939 39.104,38.721 
		39.253,38.201 39.284,38.128 39.406,38.183 39.506,38.502 	"/>
	<polygon fill="#232734" points="41.266,38.553 41.225,38.698 40.604,38.9 40.529,38.871 40.551,38.799 40.699,38.467 
		40.641,38.145 40.672,38.072 40.802,38.117 40.873,38.354 41.076,38.453 41.047,38.436 41.289,38.566 	"/>
	<polygon fill="#232734" points="47.044,37.761 47.171,37.562 47.486,37.289 47.607,37.373 47.596,37.528 47.285,37.916 
		47.105,37.896 47.055,37.739 	"/>
	<polygon fill="#232734" points="37.6,41.477 37.844,41.251 38.016,41.309 38.152,41.854 38.123,41.925 38.043,41.917 	"/>
	<polygon fill="#232734" points="46.551,36.632 46.619,36.929 46.208,37.469 46.135,37.432 46.125,37.378 46.387,36.708 
		46.455,36.565 	"/>
	<polygon fill="#232734" points="38.711,39.499 39.059,39.287 39.232,39.376 39.338,39.932 39.309,39.988 39.238,39.945 
		38.871,39.646 38.725,39.473 	"/>
	<polygon fill="#232734" points="36.616,44.336 36.462,44.301 36.427,44.085 36.614,43.925 36.883,43.874 37.017,43.973 
		37.047,44.126 36.922,44.165 36.842,44.141 36.597,44.365 	"/>
	<polygon fill="#232734" points="47.951,39.062 47.861,39.604 47.721,39.655 47.662,39.536 47.671,39.217 47.822,39.068 
		47.984,39.084 	"/>
	<polygon fill="#232734" points="43.59,37.363 43.523,37.121 43.609,37.006 43.76,37.025 43.855,37.156 43.96,37.562 43.939,37.712 
		43.836,37.59 43.809,37.511 43.559,37.346 	"/>
	<polygon fill="#232734" points="42.662,36.551 43.021,36.695 43.041,36.924 42.9,36.938 42.744,36.894 42.664,36.878 
		42.523,36.701 	"/>
	<polygon fill="#232734" points="37.338,43.264 37.581,43.044 37.731,43.047 37.799,43.184 37.428,43.568 37.456,43.584 
		37.353,43.232 	"/>
	<polygon fill="#232734" points="42.771,37.695 42.795,37.843 42.632,38.12 42.407,38.348 42.285,38.348 42.242,38.195 
		42.271,38.122 42.705,37.652 	"/>
	<polygon fill="#232734" points="50.404,41.646 50.361,41.716 49.99,41.703 49.814,41.527 49.795,41.396 49.941,41.354 50.357,41.6 
			"/>
	<polygon fill="#232734" points="49.377,40.882 49.382,41.042 49.227,40.973 49.123,40.848 49.025,40.721 49.035,40.57 
		49.25,40.589 49.287,40.659 	"/>
	<polygon fill="#232734" points="38.473,38.693 38.549,38.665 38.834,38.832 38.82,39.051 38.668,39.059 38.438,38.818 	"/>
	<polygon fill="#232734" points="36.407,40.688 36.529,40.477 36.896,40.643 36.952,40.785 36.845,40.859 	"/>
	<polygon fill="#232734" points="40.002,40.174 40.29,40.281 40.342,40.34 40.244,40.443 40.005,40.46 39.893,40.279 	"/>
	<polygon fill="#232734" points="41.354,37.286 41.312,37.207 41.541,36.978 41.672,36.998 41.705,37.072 41.559,37.335 	"/>
	<polygon fill="#232734" points="42.32,37.213 42.486,37.326 42.443,37.566 42.338,37.688 42.236,37.57 42.213,37.325 	"/>
	<polygon fill="#232734" points="50.539,39.614 50.732,39.744 50.727,39.883 50.686,39.951 50.549,39.977 50.468,39.682 	"/>
	<polygon fill="#232734" points="37.504,44.958 37.316,45.009 37.345,45.025 37.144,44.676 37.185,44.57 37.266,44.562 
		37.333,44.607 37.491,44.98 	"/>
	<polygon fill="#232734" points="37.588,45.521 37.87,45.666 37.873,45.822 37.742,45.857 37.545,45.72 37.537,45.568 	"/>
	<polygon fill="#232734" points="36.598,42.459 36.715,42.085 36.771,42.085 36.822,42.145 36.718,42.51 36.657,42.512 	"/>
	<polygon fill="#232734" points="37.267,42.934 37.217,42.691 37.32,42.585 37.504,42.689 37.463,42.831 37.232,42.914 	"/>
	<polygon fill="#232734" points="37.596,40.516 37.563,40.659 37.424,40.721 37.259,40.566 37.25,40.408 37.28,40.336 
		37.353,40.361 37.616,40.525 	"/>
	<polygon fill="#232734" points="39.848,39.75 39.836,39.598 40.016,39.491 40.078,39.605 40.047,39.841 39.979,39.941 
		39.879,39.822 	"/>
	<polygon fill="#232734" points="40.15,38.902 40.188,38.438 40.314,38.412 40.369,38.559 40.123,38.886 	"/>
	<polygon fill="#232734" points="44.42,38.161 44.498,38.151 44.635,38.192 44.605,38.338 44.346,38.377 44.35,38.199 	"/>
	<polygon fill="#232734" points="48.068,45.827 48.133,45.85 48.021,46.236 47.959,46.188 	"/>
	<polygon fill="#232734" points="45.508,36.633 45.673,36.765 45.561,36.935 45.393,36.808 	"/>
	<polygon fill="#232734" points="46.332,37.777 46.514,37.842 46.507,38.059 46.252,37.981 	"/>
	<polygon fill="#232734" points="48.432,41.782 48.574,41.818 48.611,41.964 48.423,42.062 48.322,41.949 	"/>
	<polygon fill="#232734" points="47.967,37.317 48.316,37.213 48.289,37.196 48.333,37.354 48.221,37.542 48.033,37.448 
		47.986,37.29 	"/>
	<polygon fill="#232734" points="48.316,37.213 48.271,37.053 48.322,36.924 48.398,36.948 48.598,37.088 48.628,37.163 
		48.527,37.249 48.289,37.196 	"/>
	<polygon fill="#232734" points="36.394,41.777 36.527,41.812 36.514,41.893 36.419,42.021 36.307,41.979 	"/>
	<polygon fill="#232734" points="39.242,46.75 39.199,46.896 38.99,46.896 38.891,46.677 38.879,46.698 39.037,46.71 39.275,46.766 
			"/>
	<polygon fill="#232734" points="37.169,39.816 37.12,40.011 37.005,40.073 36.958,40.02 37.096,39.792 	"/>
	<polygon fill="#232734" points="38.857,38.092 38.975,37.854 39.05,37.874 38.924,38.137 	"/>
	<polygon fill="#232734" points="40.914,42.039 40.906,41.96 41.018,41.855 41.091,41.859 41.111,41.994 41.077,42.066 
		41.016,42.118 	"/>
	<polygon fill="#232734" points="43.559,37.346 43.604,37.498 43.598,37.643 43.459,37.644 43.391,37.605 43.32,37.485 43.436,37.4 
		43.59,37.363 	"/>
	<polygon fill="#232734" points="44.215,36.27 44.443,36.297 44.262,36.444 44.105,36.456 44.031,36.422 44.079,36.355 	"/>
	<polygon fill="#232734" points="45.909,36.857 45.98,36.662 46.13,36.662 46.152,36.79 46.07,36.924 46.01,36.971 	"/>
	<polygon fill="#232734" points="48.238,40.576 47.842,40.68 47.775,40.634 47.814,40.562 48.126,40.48 48.229,40.595 	"/>
	<polygon fill="#232734" points="48.543,39.816 48.688,39.841 48.678,40.035 48.531,39.979 48.482,39.859 	"/>
	<polygon fill="#232734" points="47.986,37.29 47.838,37.265 47.85,37.019 48.003,37.012 48.003,37.083 47.967,37.317 	"/>
	<polygon fill="#232734" points="49.512,41.518 49.49,41.579 49.346,41.624 49.247,41.509 49.252,41.432 49.384,41.416 	"/>
	<polygon fill="#232734" points="36.261,43.467 36.323,43.49 36.351,43.636 36.306,43.665 36.225,43.538 	"/>
	<polygon fill="#232734" points="36.172,42.896 36.284,42.945 36.167,43.051 36.1,43.007 36.11,42.941 	"/>
	<polygon fill="#232734" points="37.225,46.205 37.276,46.195 37.334,46.328 37.234,46.352 	"/>
	<polygon fill="#232734" points="36.77,43.055 36.561,42.923 36.625,42.823 36.685,42.861 36.754,43.08 	"/>
	<polygon fill="#232734" points="38.03,46.488 38.084,46.498 38.123,46.633 38.084,46.675 38.02,46.632 	"/>
	<polygon fill="#232734" points="37.465,44.114 37.533,44.145 37.474,44.242 37.349,44.204 37.389,44.139 	"/>
	<polygon fill="#232734" points="37.701,45.102 37.923,45.264 37.898,45.334 37.789,45.303 37.716,45.074 	"/>
	<polygon fill="#232734" points="38.461,45.922 38.434,46.062 38.34,45.951 38.369,45.816 	"/>
	<polygon fill="#232734" points="38.954,47.303 39.008,47.189 39.141,47.236 39.1,47.309 	"/>
	<polygon fill="#232734" points="38.045,44.182 38.095,44.176 38.147,44.305 38.115,44.373 38.029,44.251 	"/>
	<polygon fill="#232734" points="38.055,42.979 38.055,42.926 38.227,42.92 38.19,42.982 	"/>
	<polygon fill="#232734" points="39.275,46.766 39.223,46.531 39.252,46.461 39.35,46.559 39.242,46.75 	"/>
	<polygon fill="#232734" points="39.762,47.605 39.752,47.552 39.877,47.497 39.943,47.534 39.828,47.624 	"/>
	<polygon fill="#232734" points="39.197,45.38 39.18,45.455 39.07,45.412 39.098,45.262 39.166,45.307 	"/>
	<polygon fill="#232734" points="37.437,39.746 37.543,39.785 37.531,39.927 37.423,39.886 	"/>
	<polygon fill="#232734" points="38.66,42.033 38.749,42.125 38.713,42.232 38.654,42.184 38.626,42.109 	"/>
	<polygon fill="#232734" points="39.262,43.055 39.335,43.083 39.291,43.198 39.146,43.189 39.139,43.135 39.188,43.077 	"/>
	<polygon fill="#232734" points="39.54,43.932 39.588,43.916 39.646,44.041 39.553,44.064 	"/>
	<polygon fill="#232734" points="40.88,47.764 40.979,47.854 40.928,47.955 40.869,47.91 40.85,47.835 	"/>
	<polygon fill="#232734" points="39.407,41.482 39.324,41.585 39.223,41.531 39.266,41.47 39.339,41.443 	"/>
	<polygon fill="#232734" points="39.223,41.104 39.27,40.997 39.354,41.12 39.318,41.191 39.264,41.17 	"/>
	<polygon fill="#232734" points="39.688,41.916 39.785,41.998 39.74,42.111 39.68,42.064 39.652,41.988 	"/>
	<polygon fill="#232734" points="41.703,48.014 41.857,48.023 41.814,48.092 41.664,48.08 	"/>
	<polygon fill="#232734" points="39.777,38.012 39.875,38.071 39.863,38.202 39.764,38.151 	"/>
	<polygon fill="#232734" points="39.742,37.307 39.861,37.218 39.961,37.293 39.846,37.387 	"/>
	<polygon fill="#232734" points="43.342,47.354 43.436,47.402 43.32,47.479 43.256,47.443 43.277,47.387 	"/>
	<polygon fill="#232734" points="41.346,39.718 41.346,39.665 41.516,39.659 41.479,39.723 	"/>
	<polygon fill="#232734" points="42.9,42.176 42.971,42.207 42.961,42.264 42.823,42.309 42.782,42.264 	"/>
	<polygon fill="#232734" points="41.746,38.406 41.812,38.626 41.789,38.695 41.744,38.715 41.664,38.598 41.777,38.421 	"/>
	<polygon fill="#232734" points="42.283,39.956 42.346,39.852 42.477,39.896 42.436,39.964 42.355,39.986 	"/>
	<polygon fill="#232734" points="41.677,36.566 41.598,36.66 41.5,36.612 41.541,36.556 41.611,36.53 	"/>
	<polygon fill="#232734" points="42.96,40.545 43.025,40.562 43.064,40.611 42.951,40.698 42.852,40.641 42.891,40.574 	"/>
	<polygon fill="#232734" points="42.123,36.953 42.242,36.869 42.33,36.944 42.221,37.023 	"/>
	<polygon fill="#232734" points="43.289,39.234 43.355,39.266 43.298,39.364 43.173,39.325 	"/>
	<polygon fill="#232734" points="43.163,38.113 43.152,38.054 43.287,37.996 43.312,38.111 	"/>
	<polygon fill="#232734" points="43.434,38.343 43.52,38.46 43.454,38.555 43.373,38.447 	"/>
	<polygon fill="#232734" points="46.129,46.705 46.055,46.795 46,46.739 46.029,46.589 46.1,46.631 	"/>
	<polygon fill="#232734" points="45.355,43.109 45.307,43.098 45.268,42.968 45.305,42.932 45.361,42.973 	"/>
	<polygon fill="#232734" points="44.592,40.285 44.564,40.35 44.467,40.294 44.501,40.173 	"/>
	<polygon fill="#232734" points="44.703,39.557 44.664,39.673 44.512,39.662 44.553,39.545 	"/>
	<polygon fill="#232734" points="44.85,40.201 44.91,40.242 44.945,40.373 44.91,40.436 44.812,40.264 	"/>
	<polygon fill="#232734" points="44.422,37.269 44.323,37.451 44.193,37.431 44.238,37.37 44.453,37.287 	"/>
	<polygon fill="#232734" points="47.081,45.938 47.001,46.04 46.898,45.986 46.939,45.926 47.014,45.898 	"/>
	<polygon fill="#232734" points="44.855,38.488 44.907,38.479 44.973,38.614 44.869,38.639 	"/>
	<polygon fill="#232734" points="46.082,40.374 46.146,40.4 46.078,40.496 45.971,40.45 46.01,40.389 	"/>
	<polygon fill="#232734" points="44.844,35.996 44.936,36.085 44.893,36.186 44.837,36.138 44.812,36.065 	"/>
	<polygon fill="#232734" points="47.838,45.148 47.904,45.17 47.863,45.273 47.725,45.238 47.768,45.177 	"/>
	<polygon fill="#232734" points="46.002,38.686 45.943,38.673 45.898,38.532 45.945,38.49 46.016,38.532 	"/>
	<polygon fill="#232734" points="45.727,36.171 45.787,36.072 45.866,36.191 45.829,36.26 	"/>
	<polygon fill="#232734" points="48.592,44.448 48.504,44.55 48.398,44.495 48.441,44.434 48.52,44.41 	"/>
	<polygon fill="#232734" points="46.998,39.609 47.061,39.658 47.064,39.807 46.949,39.785 46.949,39.639 	"/>
	<polygon fill="#232734" points="46.814,38.72 46.941,38.762 46.848,38.859 46.71,38.818 	"/>
	<polygon fill="#232734" points="48.119,43 48.168,42.99 48.229,43.124 48.133,43.146 	"/>
	<polygon fill="#232734" points="46.814,36.395 46.877,36.618 46.843,36.683 46.729,36.651 46.713,36.577 46.846,36.41 	"/>
	<polygon fill="#232734" points="46.846,36.41 46.791,36.253 46.828,36.105 46.896,36.139 46.923,36.287 46.814,36.395 	"/>
	<polygon fill="#232734" points="49.436,43.953 49.539,44.021 49.427,44.104 49.323,44.042 	"/>
	<polygon fill="#232734" points="48.914,42.539 48.975,42.583 48.945,42.762 48.887,42.72 48.871,42.584 	"/>
	<polygon fill="#232734" points="49.293,43.372 49.205,43.254 49.281,43.172 49.359,43.277 	"/>
	<polygon fill="#232734" points="48.781,41.536 48.887,41.633 48.869,41.768 48.814,41.771 48.738,41.598 	"/>
	<polygon fill="#232734" points="49.77,42.777 49.566,42.703 49.568,42.562 49.618,42.54 49.682,42.582 49.756,42.803 	"/>
	<polygon fill="#232734" points="49.082,37.227 49.186,37.312 49.133,37.414 49.072,37.37 49.051,37.296 	"/>
	<polygon fill="#232734" points="50.695,40.273 50.758,40.287 50.751,40.471 50.688,40.424 50.658,40.348 	"/>
	<polygon fill="#232734" points="37.716,45.074 37.504,44.958 37.491,44.98 37.701,45.102 	"/>
	<polygon fill="#232734" points="38.396,46.916 38.355,46.982 38.293,46.938 38.326,46.867 	"/>
	<polygon fill="#232734" points="37.284,42.281 37.317,42.223 37.372,42.264 	"/>
	<polygon fill="#232734" points="38.891,46.677 38.758,46.674 38.721,46.628 38.814,46.582 38.879,46.698 	"/>
	<polygon fill="#232734" points="38.352,44.986 38.312,45.057 38.25,45.012 38.284,44.941 	"/>
	<polygon fill="#232734" points="38.705,45.807 38.669,45.75 38.719,45.742 	"/>
	<polygon fill="#232734" points="38.516,44.537 38.551,44.585 38.501,44.594 	"/>
	<polygon fill="#232734" points="37.616,40.525 37.73,40.314 37.711,40.305 37.596,40.516 	"/>
	<polygon fill="#232734" points="37.73,40.314 37.755,40.169 37.816,40.202 37.711,40.305 	"/>
	<polygon fill="#232734" points="39.998,46.082 40.045,46.041 40.055,46.104 	"/>
	<polygon fill="#232734" points="40.674,47.489 40.641,47.545 40.59,47.507 40.621,47.449 	"/>
	<polygon fill="#232734" points="40.111,45.35 40.15,45.288 40.207,45.329 	"/>
	<polygon fill="#232734" points="40.337,43.244 40.322,43.391 40.26,43.361 40.365,43.26 	"/>
	<polygon fill="#232734" points="40.365,43.26 40.389,43.126 40.436,43.159 40.337,43.244 	"/>
	<polygon fill="#232734" points="41.865,47.467 41.895,47.51 41.85,47.516 	"/>
	<polygon fill="#232734" points="42.572,48.109 42.626,48.148 42.537,48.166 	"/>
	<polygon fill="#232734" points="40.123,38.886 40.104,39.037 40.043,39.037 40.15,38.902 	"/>
	<polygon fill="#232734" points="41.561,43.445 41.613,43.492 41.533,43.506 	"/>
	<polygon fill="#232734" points="44.104,47.855 44.157,47.887 44.121,47.938 	"/>
	<polygon fill="#232734" points="43.254,44.271 43.21,44.312 43.199,44.252 	"/>
	<polygon fill="#232734" points="41.997,40.025 41.951,40.059 41.943,40.005 	"/>
	<polygon fill="#232734" points="40.996,36.738 41.059,36.774 41.021,36.832 40.955,36.8 	"/>
	<polygon fill="#232734" points="42.502,41.243 42.559,41.259 42.525,41.343 42.468,41.305 	"/>
	<polygon fill="#232734" points="44.494,47.26 44.443,47.303 44.432,47.241 	"/>
	<polygon fill="#232734" points="42.311,38.751 42.271,38.7 42.326,38.689 	"/>
	<polygon fill="#232734" points="45.486,47.667 45.434,47.706 45.424,47.646 	"/>
	<polygon fill="#232734" points="45.234,47.066 45.262,46.984 45.314,47.021 45.282,47.078 	"/>
	<polygon fill="#232734" points="42.867,37.288 42.908,37.222 42.932,37.331 	"/>
	<polygon fill="#232734" points="45.995,47.337 46.035,47.28 46.053,47.374 	"/>
	<polygon fill="#232734" points="44.713,41.713 44.762,41.676 44.771,41.73 	"/>
	<polygon fill="#232734" points="43.568,36.52 43.648,36.552 43.616,36.612 43.559,36.572 	"/>
	<polygon fill="#232734" points="44.672,39.09 44.701,39.01 44.76,39.041 44.723,39.098 	"/>
	<polygon fill="#232734" points="44.341,37.867 44.398,37.911 44.367,37.977 44.307,37.933 	"/>
	<polygon fill="#232734" points="47.131,46.771 47.191,46.816 47.1,46.836 	"/>
	<polygon fill="#232734" points="46.618,45.21 46.654,45.16 46.669,45.245 	"/>
	<polygon fill="#232734" points="47.775,45.768 47.736,45.814 47.684,45.784 47.721,45.729 	"/>
	<polygon fill="#232734" points="45.994,39.334 46.055,39.396 46.02,39.43 45.965,39.393 	"/>
	<polygon fill="#232734" points="46.995,41.906 46.982,41.96 46.896,41.932 46.932,41.873 	"/>
	<polygon fill="#232734" points="46.27,38.354 46.334,38.4 46.295,38.47 46.229,38.423 	"/>
	<polygon fill="#232734" points="47.445,41.081 47.409,41.131 47.359,41.1 47.391,41.044 	"/>
	<polygon fill="#232734" points="49.141,45.215 49.109,45.171 49.154,45.165 	"/>
	<polygon fill="#232734" points="48.725,43.914 48.753,43.829 48.807,43.868 48.773,43.927 	"/>
	<polygon fill="#232734" points="47.165,38.337 47.115,38.371 47.107,38.318 	"/>
	<polygon fill="#232734" points="47.055,37.739 46.908,37.729 46.951,37.64 47.044,37.761 	"/>
	<polygon fill="#232734" points="49.043,44.275 49.096,44.293 49.068,44.372 49.018,44.335 	"/>
	<polygon fill="#232734" points="46.938,37.118 46.988,37.131 46.96,37.209 46.906,37.176 	"/>
	<polygon fill="#232734" points="49.5,44.579 49.467,44.536 49.521,44.527 	"/>
	<polygon fill="#232734" points="48.229,40.595 48.359,40.602 48.32,40.684 48.238,40.576 	"/>
	<polygon fill="#232734" points="47.234,36.625 47.215,36.782 47.15,36.749 47.266,36.642 	"/>
	<polygon fill="#232734" points="47.266,36.642 47.288,36.479 47.352,36.514 47.234,36.625 	"/>
	<polygon fill="#232734" points="49.756,42.803 49.911,42.854 49.861,42.885 49.77,42.777 	"/>
	<polygon fill="#232734" points="50.432,43.382 50.42,43.441 50.334,43.406 50.367,43.339 	"/>
	<polygon fill="#232734" points="50.287,42.799 50.271,42.941 50.216,42.943 50.316,42.816 	"/>
	<polygon fill="#232734" points="50.023,42.256 50.07,42.221 50.079,42.273 	"/>
	<polygon fill="#232734" points="50.361,41.193 50.219,41.169 50.221,41.104 50.355,41.206 	"/>
	<polygon fill="#232734" points="50.355,41.206 50.5,41.212 50.459,41.305 50.361,41.193 	"/>
	<polygon fill="#232734" points="50.764,41.658 50.812,41.695 50.729,41.717 	"/>
	<polygon fill="#232734" points="50.42,40.521 50.475,40.559 50.441,40.611 50.382,40.579 	"/>
	<polygon fill="#232734" points="49.997,38.93 49.959,38.979 49.908,38.945 49.941,38.891 	"/>
	<polygon fill="#232734" points="50.281,39.016 50.324,38.949 50.35,39.055 	"/>
	<polygon fill="#232734" points="50.182,38.352 50.143,38.396 50.091,38.367 50.131,38.318 	"/>
	<polygon fill="#232734" points="43.516,9.435 43.525,9.76 43.215,10.626 42.93,11.412 42.691,12.035 42.572,12.074 42.537,12.003 
		42.648,11.434 42.932,10.648 43.268,9.619 43.521,9.437 	"/>
	<polygon fill="#232734" points="37.792,26.677 37.752,26.435 38.016,25.468 38.209,24.829 38.352,24.783 38.406,24.907 
		38.382,25.156 37.91,26.586 37.785,26.674 	"/>
	<polygon fill="#232734" points="42.338,12.646 42.488,12.669 42.512,12.748 42.512,12.828 42.139,13.834 42.014,13.859 
		41.977,13.794 42.002,13.55 42.27,12.683 	"/>
	<polygon fill="#232734" points="40.154,19.332 40.225,19.375 40.248,19.451 39.971,20.296 39.84,20.312 39.818,20.239 40.1,19.391 
			"/>
	<polygon fill="#232734" points="35.222,34.846 35.227,34.925 34.926,35.74 34.88,35.803 34.813,35.846 34.844,35.863 
		34.783,35.628 34.937,35.078 35.254,34.86 	"/>
	<polygon fill="#232734" points="37.785,26.674 37.82,26.988 37.608,27.52 37.552,27.513 37.457,27.302 37.719,26.711 
		37.792,26.677 	"/>
	<polygon fill="#232734" points="35.254,34.86 35.259,34.043 35.382,33.946 35.449,34.065 35.332,34.725 35.222,34.846 	"/>
	<polygon fill="#232734" points="36.32,31.341 36.286,31.099 36.5,30.646 36.629,30.636 36.658,30.707 36.341,31.352 	"/>
	<polygon fill="#232734" points="40.768,17.508 40.879,17.563 40.68,17.988 40.621,18.017 40.543,17.895 40.689,17.532 	"/>
	<polygon fill="#232734" points="43.852,8.799 43.875,8.872 43.588,9.405 43.516,9.435 43.521,9.437 43.598,8.97 43.873,8.811 	"/>
	<polygon fill="#232734" points="36.669,30.035 36.794,29.688 36.854,29.688 36.904,29.741 36.922,29.817 36.84,30.037 
		36.725,30.09 	"/>
	<polygon fill="#232734" points="37.235,28.124 37.301,28.142 37.343,28.203 37.24,28.5 37.184,28.543 37.098,28.415 	"/>
	<polygon fill="#232734" points="36.341,31.352 36.3,31.66 36.224,31.693 36.144,31.599 36.32,31.341 	"/>
	<polygon fill="#232734" points="39.255,22.007 39.318,21.675 39.438,21.708 39.241,22 	"/>
	<polygon fill="#232734" points="39.574,18.197 39.574,18.049 39.713,18.005 39.73,18.19 39.621,18.257 	"/>
	<polygon fill="#232734" points="40.671,15.656 40.615,15.863 40.562,15.913 40.461,15.834 40.588,15.621 	"/>
	<polygon fill="#232734" points="41.16,16.327 41.262,16.401 41.156,16.603 41.098,16.622 41.039,16.571 	"/>
	<polygon fill="#232734" points="41.631,14.811 41.693,14.826 41.75,14.973 41.645,15.081 41.564,15.08 41.542,14.947 	"/>
	<polygon fill="#232734" points="35.78,34.856 35.561,34.727 35.625,34.623 35.687,34.661 35.766,34.881 	"/>
	<polygon fill="#232734" points="37.748,29.253 37.764,29.193 37.907,29.153 37.945,29.199 37.902,29.268 	"/>
	<polygon fill="#232734" points="37.416,24.896 37.377,24.96 37.313,24.908 37.291,24.83 37.326,24.76 	"/>
	<polygon fill="#232734" points="38.98,27.784 38.953,27.85 38.855,27.79 38.891,27.669 38.955,27.711 	"/>
	<polygon fill="#232734" points="38.566,23.672 38.621,23.662 38.691,23.788 38.609,23.865 38.529,23.741 	"/>
	<polygon fill="#232734" points="38.945,22.817 39.08,22.849 38.977,22.944 38.848,22.911 	"/>
	<polygon fill="#232734" points="42.01,19.418 41.98,19.557 41.889,19.451 41.916,19.314 	"/>
	<polygon fill="#232734" points="41.378,15.619 41.458,15.743 41.393,15.838 41.311,15.722 41.332,15.649 	"/>
	<polygon fill="#232734" points="41.143,13.729 41.197,13.727 41.248,13.867 41.209,13.92 41.143,13.875 	"/>
	<polygon fill="#232734" points="41.971,12.345 41.904,12.305 41.884,12.1 41.936,12.086 42.02,12.201 	"/>
	<polygon fill="#232734" points="34.493,36.496 34.603,36.282 34.579,36.269 34.462,36.48 	"/>
	<polygon fill="#232734" points="34.695,36.062 34.579,36.269 34.603,36.282 34.724,36.076 	"/>
	<polygon fill="#232734" points="34.724,36.076 34.844,35.863 34.813,35.846 34.695,36.062 	"/>
	<polygon fill="#232734" points="34.376,32.323 34.425,32.31 34.427,32.418 34.369,32.379 	"/>
	<polygon fill="#232734" points="36.12,32.89 36.168,32.851 36.237,32.887 36.195,32.951 	"/>
	<polygon fill="#232734" points="35.562,28.973 35.603,29.027 35.544,29.037 	"/>
	<polygon fill="#232734" points="36.963,29.079 37.012,29.066 37.017,29.185 36.956,29.141 	"/>
	<polygon fill="#232734" points="36.621,26.742 36.661,26.707 36.67,26.761 	"/>
	<polygon fill="#232734" points="38.084,30.642 37.929,30.621 37.961,30.557 38.068,30.675 	"/>
	<polygon fill="#232734" points="39.504,26.213 39.559,26.227 39.525,26.306 39.466,26.272 	"/>
	<polygon fill="#232734" points="39.241,22 39.211,22.142 39.154,22.106 39.255,22.007 	"/>
	<polygon fill="#232734" points="40.044,23.452 40.088,23.393 40.15,23.432 40.107,23.496 	"/>
	<polygon fill="#232734" points="39.468,21.341 39.455,21.294 39.555,21.293 39.52,21.348 	"/>
	<polygon fill="#232734" points="40.768,24.433 40.822,24.467 40.787,24.52 	"/>
	<polygon fill="#232734" points="40.836,21.83 40.865,21.746 40.92,21.783 40.887,21.842 	"/>
	<polygon fill="#232734" points="42.402,17.387 42.465,17.433 42.365,17.455 	"/>
	<polygon fill="#232734" points="44.16,9.767 44.021,9.742 44.059,9.692 44.143,9.798 	"/>
	<polygon fill="#232734" points="43.873,8.811 43.904,8.675 43.957,8.706 43.852,8.799 	"/>
	<polygon fill="#232734" points="31.874,16.198 32.074,16.65 32.409,17.025 32.365,17.091 32.288,17.116 32.151,17.049 
		31.683,16.584 31.461,16.601 31.32,16.596 31.125,16.456 30.773,16.654 30.585,17.199 30.402,17.258 30.051,17.021 30.182,16.904 
		30.443,16.712 30.642,16.342 30.815,16.169 31.288,15.719 31.347,15.721 31.396,15.779 31.374,16.025 31.497,16.207 31.91,16.215 	
		"/>
	<polygon fill="#232734" points="31.91,16.215 31.798,16.089 31.75,15.872 31.765,15.709 31.406,15.445 31.272,15.257 
		31.381,15.143 31.459,15.116 31.822,15.01 31.979,15.009 32.234,15.227 32.244,15.367 32.167,15.391 32.084,15.394 31.881,15.45 
		32.043,15.784 32.281,15.861 32.321,16.01 32.279,16.079 31.874,16.198 	"/>
	<polygon fill="#232734" points="30.327,23.572 30.529,23.311 30.421,22.951 30.361,22.896 30.354,22.744 30.485,22.666 
		30.821,23.283 30.726,23.516 30.76,23.582 30.809,23.718 30.688,23.821 30.446,24.125 30.396,24.152 30.328,24.106 30.275,23.954 
		30.341,23.544 	"/>
	<polygon fill="#232734" points="34.958,14.057 34.983,14.138 34.943,14.426 34.786,14.695 34.707,14.774 34.436,14.468 
		34.259,14.055 34.087,13.882 34.141,13.643 34.125,13.562 34.304,13.479 34.479,13.813 34.454,13.968 34.584,14.069 34.99,14.074 	
		"/>
	<polygon fill="#232734" points="30.737,19.121 31.046,18.44 31.18,18.371 31.287,18.479 31.252,18.976 31.216,19.048 
		30.836,19.657 30.757,19.68 30.613,19.629 30.508,19.311 30.667,19.136 	"/>
	<polygon fill="#232734" points="35.879,14.696 35.869,14.614 35.989,14.324 36.502,14.488 36.697,14.607 37.058,15.154 
		37.119,15.39 37.133,15.364 37.051,15.375 36.53,15.117 36.486,14.832 36.099,14.666 35.852,14.68 	"/>
	<polygon fill="#232734" points="33.028,14.157 32.972,14.345 32.888,14.893 32.654,15.045 32.378,14.758 32.375,14.539 
		32.488,14.648 32.616,14.71 32.655,14.642 32.743,14.078 32.934,13.986 	"/>
	<polygon fill="#232734" points="33.078,14.76 33.214,14.595 33.449,14.645 33.688,14.629 33.989,14.677 34.181,15.022 
		34.151,15.099 34.09,15.101 33.648,14.965 33.107,14.837 	"/>
	<polygon fill="#232734" points="31.077,25.448 30.876,25.379 30.864,24.983 30.921,24.364 30.851,24.125 30.854,24.047 
		30.889,23.973 30.951,23.995 31.086,24.284 31.381,24.503 31.456,24.545 31.114,24.997 31.061,25.476 	"/>
	<polygon fill="#232734" points="29.832,19.472 29.975,19.19 30.012,19.116 30.113,19.223 30.624,20.355 30.643,20.435 
		30.605,20.582 30.531,20.544 30.475,20.482 30.179,19.99 30.076,19.674 29.846,19.447 	"/>
	<polygon fill="#232734" points="32.092,27.098 32.234,27.076 32.875,27.103 32.961,27.22 32.903,27.359 32.59,27.438 
		32.194,27.381 31.886,27.312 31.818,27.267 31.921,27.15 	"/>
	<polygon fill="#232734" points="38.533,15.306 38.007,15.819 37.791,15.782 37.805,15.554 38.107,15.177 38.366,15.149 
		38.52,15.334 	"/>
	<polygon fill="#232734" points="31.808,26.172 31.95,26.214 32.027,26.521 31.961,26.837 31.668,27.062 31.555,26.985 
		31.583,26.914 31.763,26.603 31.714,26.281 	"/>
	<polygon fill="#232734" points="33.03,27.874 33.014,27.814 33.282,27.302 33.436,27.273 33.538,27.39 33.546,27.469 
		33.356,27.931 33.224,28.01 	"/>
	<polygon fill="#232734" points="37.483,15.217 37.47,15.147 37.818,14.531 37.879,14.519 37.938,14.568 37.877,15.044 
		37.841,15.116 37.559,15.245 	"/>
	<polygon fill="#232734" points="31.061,25.476 31.583,25.215 31.648,25.226 31.712,25.369 31.326,25.729 31.128,25.607 
		31.077,25.448 	"/>
	<polygon fill="#232734" points="39.212,15.818 38.631,15.528 38.533,15.306 38.52,15.334 38.707,15.175 38.771,15.172 
		39.16,15.686 39.195,15.844 	"/>
	<polygon fill="#232734" points="33.056,16.018 32.961,15.986 32.761,15.49 32.742,15.335 32.94,15.356 33.064,15.467 
		33.232,15.648 33.222,15.859 	"/>
	<polygon fill="#232734" points="30.856,17.559 30.956,17.684 31.17,18.021 31.185,17.991 30.655,17.872 30.732,17.629 
		30.889,17.576 	"/>
	<polygon fill="#232734" points="33.363,26.875 32.981,26.818 32.883,26.705 32.926,26.564 33.144,26.466 33.331,26.564 	"/>
	<polygon fill="#232734" points="36.025,15.824 35.956,15.586 36.017,15.271 36.139,15.202 36.216,15.321 36.202,15.964 
		36.18,16.105 36.083,15.979 36.035,15.821 	"/>
	<polygon fill="#232734" points="32.073,24.481 32.223,24.676 31.991,25.109 31.927,25.124 31.874,25.068 31.972,24.513 	"/>
	<polygon fill="#232734" points="30.071,21.504 30.288,21.746 30.32,21.897 30.191,21.925 30.049,21.951 29.919,21.968 
		29.834,21.66 30.102,21.52 	"/>
	<polygon fill="#232734" points="37.096,16.432 36.711,16.162 36.747,16.044 36.977,15.963 37.143,16.16 37.077,16.466 	"/>
	<polygon fill="#232734" points="35.571,13.726 35.807,13.646 36.154,13.875 36.106,14.008 36.033,13.969 35.908,13.868 
		35.787,13.945 35.658,13.932 35.629,13.855 35.587,13.694 	"/>
	<polygon fill="#232734" points="35.031,14.914 35.16,15.305 34.874,15.657 34.798,15.627 34.827,15.563 34.96,15.294 
		34.962,15.053 35.058,14.931 	"/>
	<polygon fill="#232734" points="35.175,16.34 35.354,16.403 35.438,16.518 35.308,16.722 34.996,16.501 	"/>
	<polygon fill="#232734" points="34.844,17.312 34.921,17.29 35.039,17.381 35.012,17.525 34.8,17.63 34.601,17.546 34.688,17.357 
		34.844,17.311 	"/>
	<polygon fill="#232734" points="32.698,18.807 32.714,18.652 32.904,18.488 33.034,18.454 33.096,18.6 32.826,18.885 	"/>
	<polygon fill="#232734" points="31.529,16.854 31.73,16.915 31.663,17.125 31.589,17.156 31.512,17.177 31.312,17.096 
		31.385,16.905 	"/>
	<polygon fill="#232734" points="32.155,19.696 31.941,19.863 31.691,19.665 31.66,19.59 31.748,19.506 32.13,19.619 	"/>
	<polygon fill="#232734" points="31.181,20.47 31.144,21.093 31.097,21.111 31.042,21.053 30.949,20.739 31.062,20.55 
		31.214,20.486 	"/>
	<polygon fill="#232734" points="31.314,21.604 31.066,21.812 30.878,21.761 30.824,21.608 31.025,21.439 31.103,21.463 	"/>
	<polygon fill="#232734" points="32.75,17.436 32.69,17.611 32.575,17.709 32.437,17.538 32.504,17.316 32.646,17.285 	"/>
	<polygon fill="#232734" points="33.733,15.753 33.726,15.589 33.84,15.499 33.961,15.572 33.946,15.806 33.849,15.928 
		33.754,15.821 	"/>
	<polygon fill="#232734" points="37.312,19.047 37.503,19.128 37.664,19.648 37.675,19.63 37.37,19.553 37.326,19.416 
		37.326,19.018 	"/>
	<polygon fill="#232734" points="30.895,26.639 31.059,26.239 31.122,26.285 30.96,26.683 	"/>
	<polygon fill="#232734" points="30.341,23.544 30.263,23.564 29.916,23.282 29.948,23.21 30.009,23.217 30.327,23.572 	"/>
	<polygon fill="#232734" points="29.535,21.289 29.66,21.127 29.817,21.264 29.706,21.419 	"/>
	<polygon fill="#232734" points="29.793,20.545 30.028,20.495 30.169,20.657 30.102,20.779 29.887,20.744 29.808,20.519 	"/>
	<polygon fill="#232734" points="32.897,28.651 32.817,28.332 32.851,28.189 32.973,28.291 33.083,28.412 33.028,28.589 
		32.871,28.637 	"/>
	<polygon fill="#232734" points="31.592,22.872 31.663,22.902 31.641,23.223 31.542,23.295 31.475,23.252 31.464,22.948 	"/>
	<polygon fill="#232734" points="34.265,25.712 34.21,25.736 33.916,25.496 33.937,25.35 34.011,25.377 34.293,25.639 	"/>
	<polygon fill="#232734" points="35.836,22.993 35.93,23.336 35.678,23.35 35.565,23.236 35.604,23.093 	"/>
	<polygon fill="#232734" points="35.567,15.728 35.584,15.79 35.432,16.048 35.286,16.035 35.269,15.975 35.418,15.714 	"/>
	<polygon fill="#232734" points="35.545,14.77 35.031,14.914 35.058,14.931 35.292,14.511 35.265,14.496 35.502,14.625 
		35.482,14.615 35.533,14.792 	"/>
	<polygon fill="#232734" points="35.292,14.511 35.237,14.354 35.273,14.205 35.352,14.219 35.554,14.36 35.591,14.515 
		35.482,14.615 35.502,14.625 35.265,14.496 	"/>
	<polygon fill="#232734" points="35.587,13.694 35.081,13.848 35.099,13.857 35.212,13.507 35.351,13.505 35.571,13.726 	"/>
	<polygon fill="#232734" points="37.447,20.046 37.215,20.112 37.091,19.936 37.185,19.826 37.333,19.854 37.433,20.071 	"/>
	<polygon fill="#232734" points="36.518,16.98 36.364,17.009 36.26,16.942 36.306,16.879 36.678,16.748 36.772,16.827 
		36.737,16.894 	"/>
	<polygon fill="#232734" points="35.852,14.68 35.886,14.918 35.779,15.027 35.637,14.993 35.545,14.77 35.533,14.792 
		35.879,14.696 	"/>
	<polygon fill="#232734" points="37.619,17.391 37.68,17.41 37.724,17.557 37.467,17.739 37.392,17.731 37.397,17.624 	"/>
	<polygon fill="#232734" points="37.077,16.466 37.311,16.433 37.46,16.588 37.386,16.697 37.182,16.651 37.096,16.432 	"/>
	<polygon fill="#232734" points="37.119,15.39 37.523,15.576 37.496,15.728 37.418,15.721 37.133,15.364 	"/>
	<polygon fill="#232734" points="29.925,18.417 29.985,18.217 30.127,18.229 30.115,18.303 29.979,18.473 	"/>
	<polygon fill="#232734" points="31.91,23.476 31.982,23.488 31.992,23.61 31.84,23.705 31.802,23.565 31.837,23.499 	"/>
	<polygon fill="#232734" points="30.19,17.617 30.313,17.653 30.302,17.73 30.262,17.796 30.149,17.864 30.129,17.661 	"/>
	<polygon fill="#232734" points="31.214,20.486 31.163,20.253 31.242,20.131 31.386,20.117 31.403,20.246 31.181,20.47 	"/>
	<polygon fill="#232734" points="31.779,17.649 31.838,17.798 31.799,17.943 31.654,17.925 31.545,17.814 31.636,17.698 
		31.787,17.653 	"/>
	<polygon fill="#232734" points="33.345,18.068 33.36,17.927 33.504,17.898 33.502,18.083 33.388,18.13 	"/>
	<polygon fill="#232734" points="33.48,16.771 33.54,16.66 33.757,16.823 33.709,16.882 	"/>
	<polygon fill="#232734" points="33.762,13.915 33.838,13.942 33.772,14.218 33.623,14.206 33.638,14.126 	"/>
	<polygon fill="#232734" points="33.72,13.355 33.485,13.557 33.422,13.517 33.456,13.313 33.599,13.283 33.702,13.384 	"/>
	<polygon fill="#232734" points="36.206,17.349 36.078,17.423 35.952,17.259 35.979,17.188 	"/>
	<polygon fill="#232734" points="37.15,18.059 37.223,18.038 37.375,18.173 37.356,18.242 37.212,18.217 37.105,18.113 	"/>
	<polygon fill="#232734" points="38.385,17.83 38.108,17.74 38.086,17.621 38.156,17.595 38.336,17.699 38.373,17.849 	"/>
	<polygon fill="#232734" points="38.188,17.006 38.305,17.072 38.124,17.307 38.062,17.256 	"/>
	<polygon fill="#232734" points="37.797,14.081 37.773,14.231 37.705,14.222 37.561,14.16 37.5,14.109 37.606,14.015 	"/>
	<polygon fill="#232734" points="29.574,23.149 29.675,23.215 29.633,23.338 29.564,23.299 	"/>
	<polygon fill="#232734" points="30.564,25.457 30.631,25.476 30.591,25.578 30.449,25.548 	"/>
	<polygon fill="#232734" points="32.329,27.91 32.179,27.964 32.035,27.931 32.064,27.869 32.205,27.837 32.313,27.937 	"/>
	<polygon fill="#232734" points="29.302,17.683 29.5,17.766 29.474,17.907 29.414,17.864 29.32,17.65 	"/>
	<polygon fill="#232734" points="31.461,23.805 31.389,23.91 31.298,23.798 31.362,23.69 	"/>
	<polygon fill="#232734" points="30.094,18.753 30.051,18.859 29.916,18.848 29.956,18.736 	"/>
	<polygon fill="#232734" points="31.802,24.217 31.871,24.248 31.804,24.35 31.683,24.303 31.724,24.236 	"/>
	<polygon fill="#232734" points="31.385,22.038 31.482,22.142 31.449,22.283 31.346,22.174 	"/>
	<polygon fill="#232734" points="30.444,18.487 30.481,18.415 30.596,18.483 30.58,18.635 30.519,18.623 30.468,18.564 	"/>
	<polygon fill="#232734" points="32.535,24.078 32.479,24.074 32.474,23.888 32.541,23.93 	"/>
	<polygon fill="#232734" points="33.988,28.132 33.796,28.047 33.815,27.903 33.876,27.945 33.971,28.161 	"/>
	<polygon fill="#232734" points="33.217,25.636 33.264,25.701 33.243,25.845 33.188,25.86 33.104,25.747 33.152,25.604 	"/>
	<polygon fill="#232734" points="32.804,24.497 32.898,24.586 32.846,24.688 32.787,24.645 32.765,24.568 	"/>
	<polygon fill="#232734" points="31.724,20.356 31.791,20.387 31.778,20.439 31.647,20.481 31.609,20.437 	"/>
	<polygon fill="#232734" points="33.797,26.795 33.868,26.818 33.831,26.935 33.68,26.896 33.723,26.827 	"/>
	<polygon fill="#232734" points="32.048,21.355 32.102,21.354 32.151,21.488 32.115,21.538 32.021,21.423 	"/>
	<polygon fill="#232734" points="33.464,24.827 33.411,24.93 33.277,24.917 33.325,24.81 	"/>
	<polygon fill="#232734" points="34.338,25.97 34.398,26.016 34.409,26.157 34.302,26.144 34.294,26.004 	"/>
	<polygon fill="#232734" points="32.076,18.035 32.115,17.974 32.226,18.019 32.208,18.16 32.1,18.113 	"/>
	<polygon fill="#232734" points="31.075,14.688 31.267,14.779 31.246,14.915 31.188,14.869 31.093,14.656 	"/>
	<polygon fill="#232734" points="34.834,24.56 34.819,24.63 34.72,24.581 34.747,24.439 	"/>
	<polygon fill="#232734" points="32.59,16.5 32.487,16.394 32.5,16.249 32.551,16.242 32.636,16.359 	"/>
	<polygon fill="#232734" points="32.608,15.688 32.54,15.791 32.453,15.679 32.513,15.574 	"/>
	<polygon fill="#232734" points="33.74,19.275 33.79,19.268 33.845,19.396 33.812,19.465 33.725,19.344 	"/>
	<polygon fill="#232734" points="32.953,16.498 33.032,16.627 32.999,16.696 32.934,16.647 32.913,16.568 	"/>
	<polygon fill="#232734" points="33.834,17.229 33.905,17.267 33.775,17.409 33.704,17.372 	"/>
	<polygon fill="#232734" points="34.425,19.336 34.478,19.232 34.539,19.277 34.522,19.423 	"/>
	<polygon fill="#232734" points="36.113,22.738 35.962,22.966 35.818,23.021 	"/>
	<polygon fill="#232734" points="35.013,20.195 35.046,20.126 35.157,20.172 35.144,20.308 35.086,20.312 35.035,20.266 	"/>
	<polygon fill="#232734" points="34.453,17.085 34.467,16.94 34.517,16.938 34.593,17.06 34.559,17.125 34.506,17.131 	"/>
	<polygon fill="#232734" points="34.412,16.029 34.521,16.135 34.503,16.281 34.449,16.289 34.36,16.17 	"/>
	<polygon fill="#232734" points="34.21,15.429 34.261,15.424 34.312,15.549 34.278,15.615 34.194,15.497 	"/>
	<polygon fill="#232734" points="35.98,20.474 35.778,20.312 35.813,20.24 35.879,20.281 35.964,20.503 	"/>
	<polygon fill="#232734" points="35.501,19.281 35.556,19.28 35.628,19.401 35.601,19.467 35.464,19.345 	"/>
	<polygon fill="#232734" points="33.702,13.384 33.908,13.496 33.872,13.633 33.804,13.591 33.72,13.355 	"/>
	<polygon fill="#232734" points="35.678,17.999 35.771,18.089 35.723,18.188 35.667,18.143 35.647,18.068 	"/>
	<polygon fill="#232734" points="34.47,13.281 34.454,13.225 34.59,13.158 34.666,13.196 34.542,13.298 	"/>
	<polygon fill="#232734" points="36.409,18.434 36.35,18.516 36.305,18.461 36.323,18.316 	"/>
	<polygon fill="#232734" points="37.266,20.631 37.072,20.529 37.096,20.391 37.158,20.436 37.251,20.657 	"/>
	<polygon fill="#232734" points="35.022,13.003 35.114,13.072 35.057,13.125 34.907,13.098 34.95,13.031 	"/>
	<polygon fill="#232734" points="37.326,19.018 37.086,19.072 37.015,19.037 37.114,18.934 37.312,19.047 	"/>
	<polygon fill="#232734" points="36.751,17.352 36.809,17.479 36.774,17.545 36.711,17.504 36.702,17.367 	"/>
	<polygon fill="#232734" points="35.843,13.199 35.892,13.188 35.956,13.319 35.855,13.344 	"/>
	<polygon fill="#232734" points="36.703,13.897 36.466,13.965 36.394,13.93 36.436,13.812 36.689,13.926 	"/>
	<polygon fill="#232734" points="36.689,13.926 36.851,13.878 36.99,13.927 36.8,14.021 36.703,13.897 	"/>
	<polygon fill="#232734" points="37.151,14.297 37.193,14.53 37.156,14.591 37.048,14.484 37.178,14.312 	"/>
	<polygon fill="#232734" points="29.614,22.457 29.569,22.496 29.559,22.441 	"/>
	<polygon fill="#232734" points="30.997,25.934 30.954,26.002 30.891,25.954 30.924,25.882 	"/>
	<polygon fill="#232734" points="29.593,20.86 29.646,20.82 29.655,20.883 	"/>
	<polygon fill="#232734" points="29.808,20.519 29.673,20.507 29.664,20.453 29.793,20.545 	"/>
	<polygon fill="#232734" points="29.46,19.489 29.413,19.541 29.353,19.512 29.397,19.46 	"/>
	<polygon fill="#232734" points="30.102,21.52 30.213,21.307 30.185,21.291 30.071,21.504 	"/>
	<polygon fill="#232734" points="29.17,18.429 29.311,18.445 29.313,18.506 29.185,18.4 	"/>
	<polygon fill="#232734" points="31.618,25.946 31.647,25.855 31.709,25.893 31.674,25.956 	"/>
	<polygon fill="#232734" points="30.595,22.168 30.547,22.211 30.535,22.151 	"/>
	<polygon fill="#232734" points="30.213,21.307 30.236,21.166 30.287,21.203 30.185,21.291 	"/>
	<polygon fill="#232734" points="29.846,19.447 29.705,19.443 29.748,19.36 29.832,19.472 	"/>
	<polygon fill="#232734" points="32.313,27.937 32.463,27.954 32.41,28.031 32.329,27.91 	"/>
	<polygon fill="#232734" points="32.051,25.64 32.084,25.548 32.152,25.584 32.111,25.65 	"/>
	<polygon fill="#232734" points="31.227,22.484 31.215,22.543 31.127,22.511 31.161,22.443 	"/>
	<polygon fill="#232734" points="32.469,26.554 32.513,26.494 32.576,26.533 32.531,26.593 	"/>
	<polygon fill="#232734" points="29.669,16.514 29.813,16.546 29.779,16.603 29.683,16.486 	"/>
	<polygon fill="#232734" points="32.58,25.656 32.611,25.572 32.667,25.61 32.632,25.67 	"/>
	<polygon fill="#232734" points="32.893,26.012 32.968,26.077 32.926,26.115 32.865,26.075 	"/>
	<polygon fill="#232734" points="32.582,23.52 32.544,23.585 32.485,23.542 32.519,23.476 	"/>
	<polygon fill="#232734" points="30.889,17.576 30.92,17.422 30.978,17.46 30.856,17.559 	"/>
	<polygon fill="#232734" points="30.434,15.669 30.385,15.702 30.378,15.651 	"/>
	<polygon fill="#232734" points="34.191,27.715 34.179,27.868 34.116,27.845 34.221,27.73 	"/>
	<polygon fill="#232734" points="33.919,27.15 33.965,27.138 33.967,27.244 33.912,27.204 	"/>
	<polygon fill="#232734" points="31.17,18.021 31.325,18.07 31.277,18.1 31.185,17.991 	"/>
	<polygon fill="#232734" points="31.715,18.933 31.768,18.974 31.733,19.032 31.679,18.989 	"/>
	<polygon fill="#232734" points="31.302,17.481 31.361,17.516 31.322,17.571 	"/>
	<polygon fill="#232734" points="30.818,15.837 30.881,15.885 30.785,15.909 	"/>
	<polygon fill="#232734" points="32.324,20.354 32.388,20.396 32.345,20.455 32.281,20.417 	"/>
	<polygon fill="#232734" points="32.14,19.176 32.195,19.212 32.104,19.229 	"/>
	<polygon fill="#232734" points="31.966,18.738 32.015,18.696 32.026,18.756 	"/>
	<polygon fill="#232734" points="31.053,15.428 31.114,15.472 31.077,15.538 31.014,15.493 	"/>
	<polygon fill="#232734" points="32.684,20.422 32.741,20.463 32.648,20.481 	"/>
	<polygon fill="#232734" points="31.787,17.653 31.818,17.512 31.879,17.545 31.779,17.649 	"/>
	<polygon fill="#232734" points="32.497,19.28 32.536,19.246 32.59,19.282 32.56,19.339 	"/>
	<polygon fill="#232734" points="31.616,14.797 31.573,14.854 31.512,14.817 31.554,14.755 	"/>
	<polygon fill="#232734" points="33.669,21.383 33.718,21.418 33.688,21.471 33.633,21.437 	"/>
	<polygon fill="#232734" points="33.379,19.912 33.42,19.877 33.429,19.929 	"/>
	<polygon fill="#232734" points="34.285,22.273 34.323,22.329 34.266,22.338 	"/>
	<polygon fill="#232734" points="32.164,14.17 32.108,14.322 32.08,14.272 32.19,14.185 	"/>
	<polygon fill="#232734" points="32.19,14.185 32.21,14.047 32.259,14.041 32.164,14.17 	"/>
	<polygon fill="#232734" points="34.004,18.266 34.065,18.309 34.028,18.374 33.966,18.331 	"/>
	<polygon fill="#232734" points="33.4,16.371 33.436,16.309 33.497,16.346 	"/>
	<polygon fill="#232734" points="32.695,13.817 32.653,13.765 32.712,13.753 	"/>
	<polygon fill="#232734" points="34.014,17.748 34.061,17.764 34.035,17.845 33.983,17.808 	"/>
	<polygon fill="#232734" points="33.308,14.265 33.356,14.227 33.425,14.262 33.383,14.327 	"/>
	<polygon fill="#232734" points="34.852,18.257 34.898,18.227 34.904,18.274 	"/>
	<polygon fill="#232734" points="35.904,21.086 35.957,21.121 35.918,21.17 35.865,21.137 	"/>
	<polygon fill="#232734" points="35.964,20.503 36.112,20.536 36.08,20.595 35.98,20.474 	"/>
	<polygon fill="#232734" points="36.297,19.073 36.338,19.009 36.362,19.112 	"/>
	<polygon fill="#232734" points="36.224,17.976 36.286,18.014 36.185,18.038 	"/>
	<polygon fill="#232734" points="34.99,14.074 35.099,13.857 35.081,13.848 34.958,14.057 	"/>
	<polygon fill="#232734" points="36.576,18.814 36.629,18.771 36.641,18.832 	"/>
	<polygon fill="#232734" points="37.178,14.312 37.203,14.177 37.255,14.177 37.151,14.297 	"/>
	<polygon fill="#232734" points="27.037,32.814 27.102,33.108 27.25,33.403 27.331,33.919 27.279,34.24 27.376,34.793 
		27.298,35.538 27.504,36.267 27.531,36.434 27.377,36.599 27.267,36.488 27.271,36.077 27.14,35.503 26.778,34.294 26.89,33.929 
		26.947,33.696 26.756,33.051 26.739,32.72 26.653,32.414 26.512,32.115 26.548,31.98 26.626,31.996 26.861,32.215 	"/>
	<polygon fill="#232734" points="25.814,38.314 25.844,38.395 25.992,39.048 25.932,39.799 25.917,40.547 25.9,40.796 25.976,41.29 
		25.993,41.258 25.928,41.309 25.754,42.117 25.42,43.234 25.265,43.708 25.14,43.723 25.107,43.65 25.291,42.93 25.514,42.213 
		25.641,41.471 25.651,40.971 25.632,40.139 25.656,39.725 25.636,38.898 25.702,38.409 25.83,38.322 	"/>
	<polygon fill="#232734" points="24.597,40.812 24.687,40.684 24.708,40.011 24.679,39.423 24.604,38.761 24.65,38.698 
		24.803,38.691 24.86,38.749 24.91,38.909 24.952,39.662 24.97,40.413 24.945,41.17 24.975,41.587 24.86,41.896 24.802,41.913 
		24.734,41.865 24.697,41.703 24.61,40.784 	"/>
	<polygon fill="#232734" points="23.661,31.241 23.733,31.728 23.915,32.551 23.819,32.67 23.671,32.633 23.607,32.479 
		23.598,32.062 23.406,31.328 23.296,30.921 23.338,30.771 23.461,30.874 	"/>
	<polygon fill="#232734" points="26.397,35.49 26.593,36.206 26.6,36.448 26.604,36.94 26.5,37.049 26.523,37.06 26.39,36.09 
		26.312,35.601 26.419,35.501 	"/>
	<polygon fill="#232734" points="26.5,37.049 26.604,38.203 26.484,38.418 26.425,38.393 26.393,38.32 26.404,37.156 26.523,37.06 	
		"/>
	<polygon fill="#232734" points="23.599,28.97 23.651,29.273 23.552,29.393 23.409,29.353 23.247,28.714 23.289,28.654 
		23.44,28.654 	"/>
	<polygon fill="#232734" points="26.402,33.68 26.46,34.333 26.462,34.657 26.422,34.7 26.356,34.653 26.264,34.17 26.212,33.596 
		26.271,33.477 26.333,33.53 	"/>
	<polygon fill="#232734" points="27.391,37.673 27.425,38.382 27.37,38.516 27.253,38.412 27.048,38.307 27.064,38.312 
		27.023,38.154 27.052,38.003 27.412,37.685 	"/>
	<polygon fill="#232734" points="26.253,41.016 26.284,41.091 26.304,41.249 26.246,41.891 26.155,42.023 26.099,42.036 
		26.049,41.979 25.993,41.258 25.976,41.29 26.139,41.111 26.267,41.021 	"/>
	<polygon fill="#232734" points="22.978,29.227 23.016,29.422 22.957,29.538 22.877,29.527 22.643,29.138 22.736,29.023 
		22.88,29.051 	"/>
	<polygon fill="#232734" points="28.048,38.716 28.051,39.525 27.996,39.536 27.933,39.489 27.884,39.246 28.003,38.77 
		28.075,38.73 	"/>
	<polygon fill="#232734" points="24.47,42.775 24.463,43.65 24.391,43.688 24.391,43.688 24.413,42.818 24.485,42.782 	"/>
	<polygon fill="#232734" points="26.267,41.021 26.225,40.866 26.263,40.223 26.302,40.18 26.37,40.223 26.376,40.926 
		26.253,41.016 	"/>
	<polygon fill="#232734" points="27.048,38.307 27.083,38.378 27.11,38.532 26.96,38.967 26.896,38.927 26.989,38.34 27.064,38.312 
			"/>
	<polygon fill="#232734" points="27.625,40.807 27.572,40.573 27.678,40.111 27.804,40.477 27.599,40.793 	"/>
	<polygon fill="#232734" points="24.81,37.928 24.847,38.092 24.754,38.188 24.604,37.895 24.718,37.792 	"/>
	<polygon fill="#232734" points="24.556,35.248 24.563,35.374 24.538,35.449 24.475,35.412 24.325,35.05 24.364,34.906 
		24.477,34.992 	"/>
	<polygon fill="#232734" points="27.305,42.136 27.298,41.811 27.486,41.552 27.464,41.541 27.284,42.125 	"/>
	<polygon fill="#232734" points="25.028,45.663 25.097,45.698 25.055,45.857 24.942,45.952 24.9,45.738 	"/>
	<polygon fill="#232734" points="24.319,35.993 24.381,35.848 24.503,35.813 24.538,35.88 24.506,36.023 24.36,36.041 	"/>
	<polygon fill="#232734" points="23.886,30.436 23.905,30.589 23.874,30.657 23.764,30.62 23.709,30.477 23.735,30.332 	"/>
	<polygon fill="#232734" points="27.07,40.095 27.167,40.169 27.124,40.318 27.012,40.385 26.939,40.262 	"/>
	<polygon fill="#232734" points="28.158,36.991 28.204,36.837 28.324,36.787 28.371,36.848 28.349,36.996 28.207,37.035 	"/>
	<polygon fill="#232734" points="24.239,45.936 24.339,46.009 24.322,46.143 24.223,46.082 	"/>
	<polygon fill="#232734" points="24.654,45.284 24.69,45.357 24.654,45.506 24.554,45.396 24.588,45.253 	"/>
	<polygon fill="#232734" points="24.391,43.688 24.442,43.921 24.409,43.989 24.296,43.941 24.391,43.688 	"/>
	<polygon fill="#232734" points="24.993,44.41 25.059,44.439 24.947,44.573 24.883,44.536 	"/>
	<polygon fill="#232734" points="26.648,42.157 26.716,42.193 26.717,42.252 26.577,42.311 26.528,42.264 	"/>
	<polygon fill="#232734" points="24.084,33.781 24.146,33.833 24.149,33.984 24.03,33.96 24.034,33.805 	"/>
	<polygon fill="#232734" points="24.85,35.333 24.86,35.276 24.994,35.234 25.035,35.279 24.994,35.346 	"/>
	<polygon fill="#232734" points="24.737,33.879 24.804,33.909 24.688,34.043 24.623,34.006 	"/>
	<polygon fill="#232734" points="27.243,42.511 27.192,42.366 27.305,42.136 27.284,42.125 27.379,42.477 27.397,42.443 
		27.212,42.493 	"/>
	<polygon fill="#232734" points="24.454,32.748 24.556,32.849 24.541,32.989 24.489,32.995 24.405,32.885 	"/>
	<polygon fill="#232734" points="27.486,41.552 27.429,41.334 27.554,41.18 27.532,41.168 27.592,41.389 27.464,41.541 	"/>
	<polygon fill="#232734" points="27.554,41.18 27.501,40.963 27.625,40.807 27.599,40.793 27.652,41.01 27.532,41.168 	"/>
	<polygon fill="#232734" points="26.419,35.501 26.375,35.347 26.397,35.192 26.457,35.236 26.496,35.385 26.397,35.49 	"/>
	<polygon fill="#232734" points="28.146,37.643 28.209,37.661 28.249,37.711 28.138,37.799 28.035,37.74 28.076,37.676 	"/>
	<polygon fill="#232734" points="22.792,47.326 22.982,47.271 22.848,47.516 	"/>
	<polygon fill="#232734" points="23.927,47.074 23.912,47.132 23.832,47.104 23.867,47.049 	"/>
	<polygon fill="#232734" points="25.993,44.193 26.044,44.152 26.056,44.212 	"/>
	<polygon fill="#232734" points="25.813,42.992 25.85,42.939 25.868,43.027 	"/>
	<polygon fill="#232734" points="24.589,36.999 24.635,36.966 24.644,37.012 	"/>
	<polygon fill="#232734" points="26.75,43.337 26.739,43.482 26.676,43.465 26.776,43.354 	"/>
	<polygon fill="#232734" points="26.776,43.354 26.888,43.139 26.874,43.132 26.75,43.337 	"/>
	<polygon fill="#232734" points="26.984,42.92 26.874,43.132 26.888,43.139 27.009,42.934 	"/>
	<polygon fill="#232734" points="27.009,42.934 27.124,42.725 27.092,42.707 26.984,42.92 	"/>
	<polygon fill="#232734" points="27.212,42.493 27.092,42.707 27.124,42.725 27.243,42.511 	"/>
	<polygon fill="#232734" points="24.288,31.973 24.243,32.035 24.175,31.996 24.221,31.933 	"/>
	<polygon fill="#232734" points="24.042,31.296 24.08,31.341 24.023,31.35 	"/>
	<polygon fill="#232734" points="27.412,37.685 27.438,37.535 27.497,37.572 27.391,37.673 	"/>
	<polygon fill="#232734" points="28.075,38.73 28.125,38.589 28.148,38.637 28.048,38.716 	"/>
	<polygon fill="#232734" points="49.074,33.657 47.529,33.664 47.382,33.486 47.159,33.301 46.575,33.31 46.082,33.409 
		45.842,33.349 45.768,33.228 45.82,33.169 46.387,33.022 47.305,33.028 47.883,33.055 47.924,33.256 47.852,33.299 47.797,33.358 
		47.824,33.395 48.82,33.36 49.318,33.393 49.38,33.56 49.275,33.671 	"/>
	<polygon fill="#232734" points="52.799,33.781 52.738,33.539 52.766,33.465 53.656,33.666 54.83,34.119 55.834,34.532 
		56.588,34.897 56.62,35.046 56.494,35.127 55.887,34.854 55.295,34.536 54.986,34.409 53.725,33.977 53.008,33.739 52.762,33.764 	
		"/>
	<polygon fill="#232734" points="40.635,35.224 40.674,35.074 41.205,34.667 41.471,34.471 41.631,34.464 42.035,34.402 
		42.713,34.08 42.949,33.99 43.064,34.091 43.637,33.96 44.287,34.039 44.283,34.096 44.227,34.152 43.318,34.306 42.988,34.359 
		41.529,34.791 41.314,34.916 	"/>
	<polygon fill="#232734" points="56.514,36.224 57.07,36.402 57.148,36.427 57.078,36.576 56.915,36.587 55.188,35.971 
		54.154,35.649 54.098,35.545 54.154,35.491 54.396,35.466 55.574,35.888 	"/>
	<polygon fill="#232734" points="51.268,33.494 51.311,33.562 52.643,33.814 52.799,33.781 52.762,33.764 53.085,34.013 
		53.168,34.13 52.948,34.2 52.866,34.181 52.539,34.099 51.887,33.985 50.393,33.744 50.34,33.638 50.395,33.581 50.725,33.548 
		51.303,33.512 	"/>
	<polygon fill="#232734" points="51.303,33.512 51.189,33.403 49.547,33.113 49.475,33.014 49.527,32.956 49.688,32.919 
		50.764,33.028 51.492,33.198 51.542,33.345 51.504,33.414 51.427,33.444 51.268,33.494 	"/>
	<polygon fill="#232734" points="45.479,34.156 45.312,33.979 45.333,33.851 45.488,33.797 45.732,33.747 46.559,33.724 
		46.704,33.796 46.754,33.858 46.662,33.975 46.501,34.016 45.93,34.008 45.445,34.141 	"/>
	<polygon fill="#232734" points="54.007,37.314 53.829,37.156 53.281,36.975 53.232,36.908 53.279,36.844 53.512,36.775 
		54.562,37.053 54.604,37.119 54.555,37.236 53.975,37.297 	"/>
	<polygon fill="#232734" points="50.537,35.039 51.238,34.815 51.645,34.832 52.052,34.874 52.137,34.964 52.082,35.023 
		51.846,35.091 51.6,35.091 51.354,35.073 51.023,35.074 50.777,35.065 	"/>
	<polygon fill="#232734" points="50.023,34.215 49.779,34.283 48.799,34.217 48.73,34.172 48.822,34.065 49.059,33.995 
		50.035,34.061 50.148,34.125 	"/>
	<polygon fill="#232734" points="51.143,34.291 51.085,34.421 50.521,34.338 50.445,34.204 50.55,34.104 51.104,34.218 	"/>
	<polygon fill="#232734" points="58.202,36.332 58.266,36.318 58.939,36.749 58.953,36.819 58.919,36.89 58.193,36.408 	"/>
	<polygon fill="#232734" points="59.314,38.568 59.852,38.682 59.875,38.834 59.832,38.886 59.533,38.979 59.475,38.953 
		59.311,38.579 	"/>
	<polygon fill="#232734" points="49.4,34.947 49.588,34.793 50.218,34.893 50.275,34.947 50.178,35.052 49.455,34.996 
		49.409,34.929 	"/>
	<polygon fill="#232734" points="59.633,38.07 59.588,38.126 59.436,38.11 59.113,37.755 59.141,37.622 59.219,37.629 	"/>
	<polygon fill="#232734" points="53.121,35.159 53.113,35.225 53.059,35.275 52.588,35.188 52.547,35.144 52.669,35.043 	"/>
	<polygon fill="#232734" points="57.885,37.935 57.367,37.836 57.369,37.777 57.42,37.722 57.889,37.928 	"/>
	<polygon fill="#232734" points="57.906,36.988 57.859,37.046 57.492,36.912 57.493,36.85 57.546,36.798 57.898,36.923 	"/>
	<polygon fill="#232734" points="58.283,37.168 58.561,37.291 58.578,37.439 58.461,37.463 58.255,37.242 	"/>
	<polygon fill="#232734" points="51.525,35.402 51.594,35.433 51.527,35.531 51.41,35.489 51.451,35.423 	"/>
	<polygon fill="#232734" points="52.415,35.887 52.52,35.95 52.477,36.083 52.408,36.039 52.385,35.96 	"/>
	<polygon fill="#232734" points="53.338,35.95 53.436,36.049 53.396,36.189 53.302,36.078 	"/>
	<polygon fill="#232734" points="53.828,36.369 53.898,36.564 53.844,36.587 53.775,36.397 	"/>
	<polygon fill="#232734" points="54.717,34.677 54.832,34.592 54.924,34.667 54.812,34.751 	"/>
	<polygon fill="#232734" points="56.275,37.366 56.257,37.44 56.152,37.392 56.184,37.25 	"/>
	<polygon fill="#232734" points="56,36.88 56.055,36.775 56.115,36.819 56.1,36.963 	"/>
	<polygon fill="#232734" points="59.311,38.579 59.154,38.611 59.029,38.551 59.215,38.459 59.314,38.568 	"/>
	<polygon fill="#232734" points="54.979,36.568 54.966,36.621 54.887,36.59 54.92,36.53 	"/>
	<polygon fill="#232734" points="55.699,35.12 55.73,35.065 55.752,35.154 	"/>
	<polygon fill="#232734" points="56.789,35.722 56.758,35.669 56.805,35.662 	"/>
	<polygon fill="#232734" points="57.889,37.928 58.025,37.949 57.977,38.039 57.885,37.935 	"/>
	<polygon fill="#232734" points="60.596,39.271 60.404,39.325 60.441,39.195 	"/>
	<polygon fill="#232734" points="34.583,54.802 34.629,54.712 34.78,54.68 35.126,54.884 35.19,54.979 35.136,55.591 35.099,55.665 
		34.979,55.619 34.794,55.146 	"/>
	<polygon fill="#232734" points="36.149,63.924 36.272,63.768 36.215,63.55 36.318,63.441 36.303,63.121 36.336,63.052 
		36.455,63.105 36.471,63.91 36.277,64.014 	"/>
	<polygon fill="#232734" points="32.048,51.691 32.129,51.682 32.709,52.225 32.698,52.298 32.648,52.328 32.058,51.786 
		32.04,51.706 	"/>
	<polygon fill="#232734" points="36.489,62.166 36.412,62.156 36.369,62.092 36.366,61.523 36.403,61.451 36.509,61.557 
		36.589,61.956 	"/>
	<polygon fill="#232734" points="33.111,52.686 33.185,52.693 33.492,53.049 33.479,53.127 33.353,53.15 33.084,52.764 	"/>
	<polygon fill="#232734" points="33.901,53.264 34.041,53.734 34.006,53.875 33.937,53.831 33.71,53.495 33.778,53.332 
		33.933,53.277 	"/>
	<polygon fill="#232734" points="37.011,64.393 36.899,63.822 37.005,63.706 37.11,63.78 37.105,64.279 36.998,64.386 	"/>
	<polygon fill="#232734" points="30.976,51.113 31.017,51.357 30.901,51.455 30.77,51.391 30.785,51.239 31.007,51.13 	"/>
	<polygon fill="#232734" points="36.833,64.979 36.94,64.42 37.011,64.393 36.998,64.386 36.935,64.891 36.813,64.967 	"/>
	<polygon fill="#232734" points="34.868,56.357 34.892,56.21 35.097,56.268 35.071,56.417 	"/>
	<polygon fill="#232734" points="36.533,59.077 36.659,59.146 36.646,59.305 36.51,59.377 36.414,59.256 36.41,59.177 	"/>
	<polygon fill="#232734" points="36.983,58.469 37.062,58.492 37.145,58.747 37.02,58.801 36.968,58.739 36.932,58.499 	"/>
	<polygon fill="#232734" points="29.936,51.095 29.915,51.014 29.921,50.785 30.142,50.866 30.183,50.932 30.14,51 29.903,51.077 	
		"/>
	<polygon fill="#232734" points="36.412,60.616 36.474,60.837 36.396,60.927 36.337,60.875 36.296,60.636 36.331,60.561 	"/>
	<polygon fill="#232734" points="35.275,56.835 35.418,56.893 35.463,56.954 35.378,57.05 35.211,56.939 	"/>
	<polygon fill="#232734" points="35.344,55.721 35.362,55.57 35.521,55.677 35.554,55.836 35.52,55.908 35.402,55.874 	"/>
	<polygon fill="#232734" points="36.321,57.84 36.288,57.986 36.186,57.902 36.142,57.744 36.198,57.637 36.263,57.686 	"/>
	<polygon fill="#232734" points="35.731,56.461 35.875,56.486 35.968,56.783 35.938,56.857 35.868,56.816 35.743,56.439 	"/>
	<polygon fill="#232734" points="34.547,55.438 34.483,55.55 34.387,55.432 34.447,55.32 	"/>
	<polygon fill="#232734" points="33.971,52.889 34.025,53.104 33.901,53.264 33.933,53.277 33.889,53.137 34,52.9 	"/>
	<polygon fill="#232734" points="36.359,60.075 36.307,60.066 36.309,59.898 36.365,59.939 	"/>
	<polygon fill="#232734" points="36.053,59.074 36.113,59.076 36.16,59.22 36.117,59.271 36.021,59.146 	"/>
	<polygon fill="#232734" points="35.739,57.925 35.836,58.027 35.8,58.161 35.702,58.055 35.701,57.984 	"/>
	<polygon fill="#232734" points="37.486,61.292 37.456,61.361 37.359,61.307 37.395,61.169 	"/>
	<polygon fill="#232734" points="37.229,59.449 37.33,59.518 37.315,59.65 37.214,59.594 37.197,59.521 	"/>
	<polygon fill="#232734" points="36.374,55.809 36.299,55.908 36.185,55.863 36.229,55.802 36.303,55.771 	"/>
	<polygon fill="#232734" points="36.038,55.4 36.042,55.344 36.222,55.345 36.182,55.411 	"/>
	<polygon fill="#232734" points="37.841,59.359 37.644,59.259 37.656,59.117 37.713,59.117 37.77,59.161 37.82,59.393 	"/>
	<polygon fill="#232734" points="36.66,55.71 36.761,55.791 36.712,55.905 36.649,55.859 36.621,55.783 	"/>
	<polygon fill="#232734" points="37.547,58.082 37.639,58.186 37.605,58.32 37.514,58.215 	"/>
	<polygon fill="#232734" points="31.655,51.621 31.611,51.781 31.579,51.734 31.684,51.637 	"/>
	<polygon fill="#232734" points="32.131,52.335 32.099,52.291 32.146,52.283 	"/>
	<polygon fill="#232734" points="36.533,65.771 36.563,65.63 36.618,65.667 36.514,65.764 	"/>
	<polygon fill="#232734" points="32.938,53.254 32.977,53.307 32.916,53.316 	"/>
	<polygon fill="#232734" points="36.813,64.967 36.781,65.111 36.725,65.073 36.833,64.979 	"/>
	<polygon fill="#232734" points="33.872,54.451 33.83,54.509 33.768,54.473 33.811,54.408 	"/>
	<polygon fill="#232734" points="37.323,62.216 37.405,62.249 37.371,62.311 37.312,62.271 	"/>
	<polygon fill="#232734" points="35.743,56.439 35.601,56.412 35.631,56.352 35.731,56.461 	"/>
	<polygon fill="#232734" points="35.113,54.332 35.093,54.475 35.006,54.423 35.119,54.335 	"/>
	<polygon fill="#232734" points="35.733,54.673 35.712,54.809 35.659,54.777 35.762,54.688 	"/>
	<polygon fill="#232734" points="35.762,54.688 35.782,54.553 35.834,54.581 35.733,54.673 	"/>
	<polygon fill="#232734" points="37.011,57.913 36.999,57.973 36.913,57.939 36.945,57.873 	"/>
	<polygon fill="#232734" points="36.675,57.148 36.716,57.08 36.741,57.191 	"/>
	<polygon fill="#232734" points="36.53,56.434 36.585,56.477 36.501,56.497 	"/>
	<polygon fill="#232734" points="37.042,56.469 37.13,56.501 37.095,56.564 37.033,56.525 	"/>
	<polygon fill="#232734" points="34.279,58.699 34.343,59.031 34.318,59.109 34.201,59.049 33.968,58.165 33.996,58.087 
		34.113,58.146 	"/>
	<polygon fill="#232734" points="34.804,61.661 34.827,61.943 34.713,62.157 34.654,62.163 34.605,62.104 34.608,61.523 
		34.641,61.447 34.75,61.54 	"/>
	<polygon fill="#232734" points="34.876,65.217 34.942,65.266 34.93,65.798 34.876,65.855 34.771,65.761 34.834,65.285 	"/>
	<polygon fill="#232734" points="33.039,57.136 33.024,57.465 32.941,57.562 32.842,57.438 32.881,57.129 32.958,57.098 	"/>
	<polygon fill="#232734" points="35.178,63.135 35.088,63.325 34.917,63.232 34.996,63.041 	"/>
	<polygon fill="#232734" points="35.281,64.552 35.4,64.607 35.257,64.838 35.2,64.79 35.178,64.643 	"/>
	<polygon fill="#232734" points="35.165,61.771 35.238,61.77 35.272,61.884 35.236,61.953 35.127,62.016 35.082,61.957 
		35.104,61.812 	"/>
	<polygon fill="#232734" points="33.784,57.003 33.742,57.193 33.593,57.021 33.573,56.943 33.56,56.867 33.595,56.797 
		33.709,56.827 	"/>
	<polygon fill="#232734" points="34.091,60.328 34.162,60.359 34.04,60.452 33.968,60.419 	"/>
	<polygon fill="#232734" points="32.559,54.982 32.646,55.068 32.604,55.164 32.55,55.121 32.53,55.051 	"/>
	<polygon fill="#232734" points="33.319,56.38 33.323,56.32 33.462,56.273 33.506,56.318 33.466,56.391 	"/>
	<polygon fill="#232734" points="34.517,59.896 34.57,59.891 34.636,60.021 34.592,60.086 34.526,60.044 	"/>
	<polygon fill="#232734" points="34.805,64.229 34.793,64.288 34.705,64.254 34.739,64.186 	"/>
	<polygon fill="#232734" points="32.019,54.915 32.091,54.954 32.044,55.02 31.971,54.982 	"/>
	<polygon fill="#232734" points="35.454,65.725 35.313,65.708 35.363,65.619 35.45,65.73 	"/>
	<polygon fill="#232734" points="34.667,63.562 34.706,63.514 34.72,63.593 	"/>
	<polygon fill="#232734" points="33.726,59.535 33.781,59.58 33.747,59.643 33.692,59.598 	"/>
	<polygon fill="#232734" points="35.19,63.896 35.246,63.936 35.212,63.993 	"/>
	<polygon fill="#232734" points="33.781,59.219 33.822,59.184 33.829,59.236 	"/>
	<polygon fill="#232734" points="32.86,55.791 32.823,55.865 32.759,55.818 32.795,55.746 	"/>
	<polygon fill="#232734" points="35.112,62.51 35.158,62.501 35.156,62.602 35.103,62.562 	"/>
	<polygon fill="#232734" points="34.531,60.557 34.582,60.543 34.588,60.667 34.525,60.622 	"/>
	<polygon fill="#232734" points="35.108,61.258 35.182,61.327 35.14,61.364 35.08,61.323 	"/>
	<polygon fill="#232734" points="34.903,60.66 34.956,60.622 34.965,60.678 	"/>
	<polygon fill="#232734" points="34.904,59.805 34.858,59.843 34.848,59.788 	"/>
	<polygon fill="#232734" points="34.69,59.197 34.652,59.146 34.706,59.137 	"/>
	<polygon fill="#232734" points="34.516,58.607 34.58,58.646 34.476,58.672 	"/>
	<polygon fill="#232734" points="49.502,24.937 49.529,24.867 49.652,24.758 49.842,24.594 50.643,24.155 50.789,24.193 
		50.775,24.272 50.691,24.414 49.582,24.961 	"/>
	<polygon fill="#232734" points="48.707,25.407 48.855,25.456 48.818,25.53 48.352,25.864 48.273,25.86 48.254,25.749 
		48.557,25.466 	"/>
	<polygon fill="#232734" points="47.049,25.742 47.37,25.646 47.504,25.692 47.455,25.849 47.402,25.912 47.133,25.866 
		47.068,25.711 	"/>
	<polygon fill="#232734" points="45.729,26.656 45.889,26.608 46.051,26.625 46.008,26.771 45.898,26.895 45.746,26.928 
		45.718,26.795 45.744,26.63 	"/>
	<polygon fill="#232734" points="46.268,26.577 46.553,26.235 46.654,26.313 46.334,26.606 	"/>
	<polygon fill="#232734" points="47.15,26.596 47.145,26.518 47.414,26.235 47.543,26.235 47.555,26.384 47.505,26.445 
		47.125,26.58 	"/>
	<polygon fill="#232734" points="47.913,25.34 48.09,25.105 48.232,25.121 48.213,25.197 48.086,25.389 47.941,25.392 	"/>
	<polygon fill="#232734" points="46.703,26.899 46.783,26.709 47.15,26.596 47.125,26.58 47.041,26.769 46.682,26.886 	"/>
	<polygon fill="#232734" points="45.744,26.63 45.547,26.47 45.578,26.398 45.645,26.438 45.729,26.656 	"/>
	<polygon fill="#232734" points="47.068,25.711 46.857,25.546 46.896,25.474 46.965,25.515 47.049,25.742 	"/>
	<polygon fill="#232734" points="48.891,24.366 48.843,24.482 48.699,24.468 48.822,24.326 	"/>
	<polygon fill="#232734" points="49.021,24.64 49.143,24.688 49.096,24.752 48.947,24.743 48.957,24.681 	"/>
	<polygon fill="#232734" points="49.811,24.221 49.904,24.285 49.783,24.369 49.693,24.301 	"/>
	<polygon fill="#232734" points="50.316,23.949 50.434,23.862 50.525,23.931 50.417,24.013 	"/>
	<polygon fill="#232734" points="44.752,27.149 44.797,27.189 44.768,27.243 44.721,27.203 	"/>
	<polygon fill="#232734" points="46.139,26.072 46.178,26.008 46.24,26.052 	"/>
	<polygon fill="#232734" points="47.656,25.057 47.709,25.071 47.678,25.148 47.619,25.115 	"/>
	<polygon fill="#232734" points="45.73,19.601 45.898,19.705 45.883,19.948 45.709,20.014 45.618,19.756 	"/>
	<polygon fill="#232734" points="46.182,18.875 46.152,18.808 46.311,18.532 46.457,18.524 46.491,18.581 46.438,18.901 
		46.242,18.929 	"/>
	<polygon fill="#232734" points="43.561,25.867 43.691,25.922 43.652,25.996 43.477,26.172 43.352,26.207 43.311,26.061 	"/>
	<polygon fill="#232734" points="43.371,26.969 43.293,26.988 43.072,26.976 43.15,26.761 43.213,26.728 43.279,26.771 
		43.354,27.003 	"/>
	<polygon fill="#232734" points="43.803,24.921 43.999,25.086 43.965,25.151 43.9,25.11 43.822,24.891 	"/>
	<polygon fill="#232734" points="44.113,24.205 44.152,24.281 44.113,24.43 44.014,24.321 44.049,24.174 	"/>
	<polygon fill="#232734" points="44.749,23.918 44.811,24.136 44.781,24.203 44.677,24.161 44.771,23.93 	"/>
	<polygon fill="#232734" points="44.988,22.848 45,22.705 45.123,22.817 45.09,22.884 	"/>
	<polygon fill="#232734" points="45.203,21.86 45.348,21.858 45.398,22.056 45.357,22.091 45.262,21.98 45.221,21.831 	"/>
	<path fill="#232734" d="M42.752,27.883l-0.238-0.129L42.752,27.883z"/>
	<polygon fill="#232734" points="42.834,27.366 42.924,27.398 42.889,27.465 42.824,27.425 	"/>
	<polygon fill="#232734" points="44.771,23.93 44.799,23.797 44.848,23.829 44.749,23.918 	"/>
	<polygon fill="#232734" points="45.697,21.609 45.738,21.552 45.757,21.646 	"/>
	<polygon fill="#232734" points="49.436,21.127 49.301,21.1 49.336,21.053 49.42,21.157 	"/>
	<polygon fill="#232734" points="30.209,50.305 29.999,50.188 29.784,50.074 30.004,49.809 30.08,49.786 30.503,50.02 
		30.557,50.204 	"/>
</g>
</svg>
