<?xml version="1.0" encoding="utf-8"?>
<!-- Generator: Adobe Illustrator 15.0.2, SVG Export Plug-In . SVG Version: 6.00 Build 0)  -->
<!DOCTYPE svg PUBLIC "-//W3C//DTD SVG 1.1//EN" "http://www.w3.org/Graphics/SVG/1.1/DTD/svg11.dtd">
<svg version="1.1" id="Layer_1" xmlns="http://www.w3.org/2000/svg" xmlns:xlink="http://www.w3.org/1999/xlink" x="0px" y="0px"
	 width="75.5px" height="75.5px" viewBox="0 0 75.5 75.5" enable-background="new 0 0 75.5 75.5" xml:space="preserve">
<g id="racimito2">
	<path fill="#232734" d="M38.812,26.547l-0.256-0.326l-0.123-0.648l-0.013-0.142l-0.206,0.06l-0.407,0.143l-0.107,0.087
		l-0.088,0.354l0.051,3.023l0.074,0.509l0.119,0.651l0.199,0.859l0.072,0.359l0.097,0.656l0.229,0.704l0.142,0.648l0.434,1.26
		l0.277,0.686l0.36,0.642l0.435,0.391l0.371,0.35l0.424,0.404l0.609,0.638l0.207,0.204l0.323,0.294l0.753,0.696l0.165,0.144
		l0.61,0.636l0.717,0.836l0.34,0.024l1.83-0.744l1.691-0.086l0.791,0.14l0.719,0.157l0.613,0.26l0.428,0.102l0.897,0.494
		l0.251,0.152l0.932,0.587l0.127,0.075l0.44,0.27l0.562,0.471l0.686,0.664l0.4,0.433l0.275,0.343l0.811,1.322l0.124,0.268
		l0.241,0.622l0.328,2.247l-0.08,0.355l-0.293,0.986l-0.117,0.424l-0.106,0.185l-0.099,0.108l-0.969,1.287l-0.211,0.201l-0.73,0.496
		l-0.803,0.366l-0.344,0.135l-0.645,0.134l-0.438,0.032l-0.438-0.01l-0.457-0.013l0.323,0.828l0.398,0.789l0.358,0.81l0.313,0.832
		l0.297,0.837l0.354,1.053l0.169,0.641l0.174,0.563l0.314,1.289l-0.045,0.286l-0.48,0.229l-0.538-0.373l-0.825-1.127l-0.528-0.707
		l-0.562-0.772l-0.484-0.647l-0.455-0.58l-0.463-0.472l-0.391-0.435l-0.766-0.989l-0.387-0.535L47.464,54.3l-0.276-0.436
		l-0.252-0.267l-0.396-0.525l-0.164-0.24l-0.589-0.754l-0.872-1.096l-0.364-0.463l-0.312-0.496l-0.116-0.269l-0.165-0.325
		l-0.537-0.963l-0.271-0.523l-0.265-0.524l-0.083-0.274l-0.16-0.242l-0.348-0.896l-0.398-0.871l-0.326-0.905l-0.252-0.926
		l-0.069-0.287l-0.677-1.802l-0.11-0.018l-0.024,0.067l0.008,0.653l0.115,0.728l0.364,2.326l0.16,1.687l0.228,0.774l0.299,0.674
		l0.385,0.711l1.139,1.981l0.312,0.5l1.014,1.884l0.473,0.998L45.564,56l0.229,0.854l0.172,0.866l-0.021,0.587l-0.051,0.049
		l-0.377-0.069l-0.281-0.601l-0.032-0.143l-0.16-0.404l-0.347-0.564l-0.004-0.422l0.133-0.006l-0.073-0.111l0.08-0.12h0.151
		l0.142,0.331l0.008,0.418l0.007,0.139l0.394,0.399l0.011,0.126L45.59,57.3l-0.085-0.087l0.031-0.064l-0.212-1.141l-0.59-1.502
		l-0.105-0.422l-0.254-0.441l-0.289-0.594l-0.207-0.471l-0.221-0.29l-0.062,0.017l-0.072,0.325l0.455,0.75l0.016,0.071l-0.046,0.042
		l-0.214,0.036l-0.127-0.053l0.076-0.16l-0.248-0.451l-0.217-0.191l0.01,0.028l-0.016-0.353l0.1-0.184l0.19-0.105l-0.157-0.4
		l-0.229-0.157l-0.001-0.128l-0.059,0.014l0.082,0.106l-0.119,0.071l-0.287,0.004l-0.156-0.284l0.17-0.097l0.072,0.008l0.113-0.115
		L42.76,50.63l-0.21-0.29l-0.204-0.188l-0.318-0.166l0.01,0.029l0.013-0.488l-0.396-0.769l-0.262-0.579l-0.265-0.507l-0.035-0.062
		L40.9,47.51l0.008-0.135l-0.178-0.08l-0.088,0.1l0.075,0.183l0.162,0.896l0.058,0.045l-0.013-0.033L40.922,48.7l0.312,1.131
		l0.164,0.485l0.351,1.195l0.563,1.273l0.486,0.639l0.979,1.275l0.301,0.501l0.152,0.243l0.547,0.58l-0.075,0.158l-0.703-0.621
		l-1.097-1.562l-0.307-0.415l-0.516-0.625l-0.348-0.73l-0.055-0.01l-0.057,0.04l-0.057,0.136l0.062,1.32l0.017,0.072l-0.08,1.088
		l0.037,0.132l0.375,0.534l0.217,1.079l0.007,0.737l-0.185,0.447l-0.272,0.436l-0.205,0.014l-0.052-0.052l-0.459-0.995l-0.092-0.657
		l-0.053-0.286l0.006-0.363l0.004-0.586l0.07-0.582l-0.01-0.146l-0.018-0.799v-0.862l-0.201-0.782l-0.034-0.066L40.6,52.062
		l-0.152,0.713l-0.129,0.496l-1.041,2.211l-0.26,0.354l-0.093,0.19l-0.221,0.621l-0.458,0.662l-0.464,0.659l-0.105,0.097
		l-0.559,0.189l-0.326-0.126l-0.069-0.276l0.13-0.347l0.181-0.633l0.094-0.276l0.224-0.773l0.181-0.786l0.225-0.929l0.102-0.95
		l0.066-0.657l0.08-0.945l0.057-1.397l0.183-0.86l0.809-2.05l0.145-0.165l0.797-0.521l0.146-0.237l-0.02-0.22l-0.041-0.217
		l-0.109-1.388l-0.025-0.582l-0.021-0.217l-0.177-1.165l0.001-0.219l-0.004-0.364l-0.168-0.55l-0.003-0.506l-0.156-0.793
		l-0.153-0.795l-0.259-0.996l-0.276-0.992l-0.248-0.697l-0.102-0.045l-0.043,0.055l-0.041,0.362l-0.092,0.355l-0.028,0.218
		l-0.144,0.491l0.122,0.498l0.123,1.172l-0.006,0.664l-0.031,0.215l-0.064,0.509l-0.046,0.511l-0.093,0.504l-0.034,0.215l-0.06,0.51
		l-0.147,0.494l-0.131,0.646l-0.224,0.774l-0.227,0.621l-0.142,0.492l-0.164,0.332l-0.491,0.818l-0.218,0.385l-0.302,0.416
		l-0.438,0.587l-0.461,0.569l-0.332,0.484l-0.295,0.418l-0.505,0.627L31.2,52.816l-1.15,0.477l-0.357,0.096l-0.424,0.131
		l-0.438,0.045l-0.435,0.08l-1.076,0.254l-0.145,0.027l-2.722,0.133l-0.955-0.037l-0.945-0.116l-0.646-0.134l-0.187-0.105
		l-0.33-0.486l0.083-0.311l0.444-0.38l0.36-0.253l0.177-0.131l0.686-0.275l0.523-0.4l0.658-0.332l0.883-0.531l0.828-0.611
		l0.859-0.57l0.429-0.283l1.196-0.725l1.302-0.953l0.211-0.206l0.036-0.133l-0.05-0.03l-0.295-0.012l-0.361-0.052L29,46.916
		l-0.719-0.348l-0.295-0.217l-0.466-0.229l-0.796-0.643l-0.188-0.228l-0.709-0.937l-0.23-0.463l-0.471-1.326l-0.22-1.381
		l0.087-2.127l0.003-0.074l0.042-0.139l0.23-0.85l0.592-1.276l0.182-0.319l0.166-0.31l0.282-0.428l0.584-0.752l1.04-0.935
		l1.274-0.728l0.771-0.261l1.084-0.21l0.732-0.008l1.174,0.103l0.362,0.06l0.339-0.088l0.567-0.76l0.224-0.467l0.188-0.225
		l0.138-0.167l0.76-1.604l0.107-0.425l0.057-0.21l0.231-0.925l0.088-0.504l0.022-0.51l0.046-0.285l0.203-0.704l0.119-0.646
		l0.128-0.723l0.037-0.661l0.099-0.355l-0.009-0.073l-0.103,0.044l-0.209,0.391l-0.288,0.425l-0.263,0.441l-0.253,0.452l-0.401,0.43
		L34.8,26.245l-1.578,0.93l-1.616,0.537l-1.829,0.585l-0.493,0.162l-0.363,0.008l-1.45-0.218l-0.215-0.039l-1.375-0.2l-0.217-0.033
		l-0.286-0.059l-0.686-0.422l-0.273-0.081l-0.194-0.092l-0.183-0.101l-0.512-0.261l-0.169-0.141l-0.479-0.339l-0.459-0.367
		l-0.4-0.318l-0.339-0.28l-0.514-0.411l-0.431-0.503l-0.355-0.372l-0.592-0.841l-0.438-0.849l-0.168-0.327l-0.481-1.238
		l-0.054-0.214l-0.221-1.23l0.083-0.273l0.291-0.221l0.433-0.019l0.879,0.39l0.215,0.196l0.691,0.529l0.385,0.22l0.567,0.462
		l0.448,0.381l0.421,0.41l0.242,0.167l0.737,0.345l1.009,0.464l0.901,0.31l0.482,0.19l0.635,0.177l0.21,0.063l0.853,0.219
		l0.578,0.099l0.578,0.094l0.435,0.054l1.611,0.109l1.103,0.02l0.146-0.021l1.956-0.65l0.277-0.083l0.654-0.336l0.626-0.384
		l0.317-0.18l0.349-0.373l0.511-0.625l0.349-0.467l0.83-1.736l0.25-0.766l0.287-0.675l0.166-0.374l0.293-0.681l0.819-1.74
		l0.366-0.81l0.396-0.793l0.531-0.334l0.135,0.042l0.25,0.27l-0.006,0.407l-0.195,0.218l-0.353,0.651l-0.315,0.496l-0.116,0.186
		l-0.781,1.596l-0.306,0.752l-0.127,0.723l-0.108,0.576l-0.004,0.516l-0.035,0.585l0.048,0.876l0.055,0.809l0.146,0.646l0.064,0.359
		l0.041,0.364l0.142,0.256l0.161,0.414l0.884,1.516l0.447,0.672l0.075,0.126l0.699,0.947l0.371,0.352l0.445,0.383l0.178,0.13
		l0.631,0.374l0.558,0.478l0.116,0.085l0.535,0.385l0.517,0.412l0.916,0.485l0.405,0.183l0.365,0.243l0.242,0.161l0.723,0.376
		l0.19,0.11l0.729,0.488l0.604,0.415l0.662,0.331l0.67,0.316l0.665,0.326l0.393,0.206l1.076,0.634l0.547,0.372l0.577,0.327
		l0.286,0.327l0.143,0.42l-0.021,0.431l-0.141,0.343l-0.336,0.377l-1.102,0.417l-0.219-0.016l-0.948-0.107l-0.879-0.069
		l-0.508-0.061L50.036,36.4l-0.288-0.05l-0.791-0.128l-0.214-0.043l-0.497-0.117l-0.495-0.133l-0.215-0.048l-0.568-0.146
		l-0.28-0.087l-0.701-0.209l-0.209-0.065l-1.262-0.617l-0.414-0.306l-0.453-0.25l-0.222-0.192l-0.692-0.654l-0.178-0.125
		l-0.182-0.125l-0.318-0.407l-0.365-0.356l-0.449-0.482l-0.362-0.551l-0.379-0.63l-0.188-0.384l-0.342-0.646l-0.056-0.137
		l-0.496-0.988l-0.633-1.572l0.009-0.433l0.23,0.451l0.363,0.957l0.428,0.922l0.068,0.128l0.174,0.129l-0.013-0.032l-0.013,0.139
		l0.353,0.73l0.941,1.587l0.832,1.022l0.528,0.506l0.615,0.519l0.646,0.479l0.425,0.287l0.183,0.124l1.127,0.558l0.776,0.211
		l0.554,0.21l0.57,0.136l0.501,0.107l0.56,0.195l0.071,0.009l0.569,0.13l0.072-0.009l-0.032-0.105l-0.747-0.322l-0.702-0.207
		l-0.708-0.178l-0.643-0.147l-0.681-0.291l-0.866-0.418L44.725,34.2l-0.654-0.469l-0.036-0.063l0.122-0.024l0.996,0.605l0.595,0.301
		l0.56,0.175l0.56,0.185l0.573,0.112l0.424,0.115l0.354,0.091l0.545,0.231l0.424,0.114l0.213,0.052l0.778,0.201l0.796,0.098
		l0.213,0.028l0.498,0.091l0.584,0.039l-0.332-0.378l-0.576-0.115l-0.064,0.092l-0.129,0.118l-0.361-0.237l-0.438-0.128
		l-0.273,0.107l-0.276-0.079l-0.075-0.189l-0.099-0.177l-0.404-0.181l-0.771-0.238l-0.069-0.021l-0.092,0.049l0.036,0.063
		l0.222,0.184l-0.045,0.123l-0.062,0.03l-0.258-0.116l-0.262-0.368l-0.106-0.231l-0.351-0.104l-0.189-0.084l-0.169-0.141
		l-0.126-0.474l0.054-0.041l0.281-0.045l0.546,0.229l0.107-0.033l-0.032-0.065l-0.929-0.457l-0.478-0.326l-0.604-0.25l-0.303-0.169
		l-0.484-0.451l-0.33-0.288l-0.566-0.468l-0.439-0.382l-0.144-0.38l-0.014,0.006l0.319,0.171l0.571,0.565l0.575,0.455l0.65,0.472
		l0.111,0.093l0.287,0.223l1.934,0.927l0.602,0.286l1.878,0.87l0.349,0.118l0.502,0.109l0.508,0.076l0.104-0.044l-0.034-0.065
		l-0.318-0.183l-0.032-0.128l0.177-0.079l0.133,0.062l0.39,0.33l0.452,0.36l0.207,0.064l0.102-0.084l0.137,0.003l-0.022-0.055
		l-0.106,0.072L52.953,34.4l-0.159-0.13l-0.211,0.069l-0.424-0.058l-0.122-0.08L52,34.139l0.042-0.053l0.281-0.054l0.103-0.052
		l-0.09-0.11l-0.191-0.108l-0.334-0.364l-0.147-0.155l-0.55-0.057l-0.656,0.102l-0.089-0.205L50.259,32.9l-0.458-0.365l-0.336-0.362
		l-0.16-0.114l-0.441-0.002l-0.402-0.18l-0.468-0.221l-0.776-0.536l-0.025-0.068l0.067-0.016l0.406,0.157l0.54,0.223l0.07-0.015
		l-0.035-0.062l-0.775-0.542l-1.14-0.514l-0.058,0.013l0.041,0.061l0.346,0.26l-0.014,0.135l-0.121-0.009l-0.547-0.36l-0.01-0.117
		l0.114-0.107l-0.235-0.175l-0.535-0.379l-0.338-0.152l-0.098,0.029l0.04,0.06l0.444,0.253l0.025,0.064L45.27,29.91l-0.793-0.396
		l-0.56-0.465l-0.069-0.126l0.049-0.106l0.213,0.042l0.049,0.184l0.447,0.212l0.067-0.013l-0.014-0.092l-0.565-0.284l0.006-0.131
		l-0.302-0.2l-0.323-0.291l-0.207-0.076l-0.069,0.002l-0.064,0.026l-0.378,0.023l0.012,0.024l-0.035-0.13l-0.351-0.349l-0.239-0.142
		l-0.312-0.169l-0.303-0.386l0.02-0.068l-0.014,0.005l0.207,0.074l0.133,0.053l0.07-0.009l-0.002-0.066l-0.104-0.189l-0.328-0.384
		l-0.596-0.914L40.67,25.3l-0.257-0.051l-0.114-0.266l-0.664-1.048l-0.182-0.399v-0.141l0.134-0.013l-0.077-0.108l-0.008-0.133
		l-0.109,0.08l-0.283-0.135l0.132-0.285l0.137-0.011L39.3,22.681l-0.073-0.195l0.062-0.272l-0.263-1.145l0.07-1.452l0.018-0.145
		l0.041-0.512l-0.006-0.515l0.068-0.433l0.174-0.409l0.057-0.211l0.131-0.494l0.863-1.802l0.188-0.224l0.077-0.2l0.167-0.395
		l0.342-0.562L41.1,13.552l-0.125,0.037l-0.176,0.325l-1.229,2.613l-0.809,1.748l-0.138,0.417l-0.116,0.424l-0.269,0.61l0.088,0.168
		l0.219,0.015l0.142,0.206l-0.229,0.543l0.188,0.627l0.107,0.505l0.051,0.214l0.127,0.173l0.316,0.298l0.078,0.194l-0.075,0.16
		l-0.127-0.063l-0.125,0.007l0.005,0.069l0.125,0.235v0.36l0.01,0.219l-0.07,0.119l-0.096-0.057l-0.188-0.292l0.004-0.121
		l-0.054,0.011l0.076,0.1l-0.17,0.316l0.076,0.467l0.151,0.235l0.007,0.07l-0.121,0.019l-0.141-0.035l0.004-0.135l-0.055,0.019
		l0.069,0.109l-0.079,0.199l0.161,1.151L38.812,26.547L38.812,26.547z M28.837,52.958l0.196-0.072l0.2-0.062l0.127,0.025l0.327-0.31
		l0.123,0.021l0.333-0.297l0.134-0.011l-0.021-0.06l-0.104,0.097L30.09,52.27l-0.395,0.293l-0.46,0.271l-0.194,0.077l-0.194,0.076
		l-0.203,0.068l-0.676,0.08l-0.2-0.001l0.404-0.271l0.569-0.133l0.905-0.487l0.763-0.433l0.081,0.082l-0.006,0.146l0.181-0.029
		l0.592-0.433l-0.017-0.155l0.103-0.263l0.781-0.553l0.659-0.472l0.63-0.604l0.81-0.747l0.307-0.315l0.624-0.908l0.132-0.174
		l0.22-0.354l0.262-0.443l0.169-0.329l0.25-0.36l0.252-0.361l0.271-0.346l0.088-0.269l0.203-0.304l0.274-0.607l-0.012-0.113
		l-0.067,0.027l-0.373,0.441l-0.527,1.06l-0.091,0.109l-0.138,0.004l-0.071-0.11l0.58-1.274l0.182-0.064l0.593-1.264l0.06-0.283
		l0.391-0.673l0.053-0.197l-0.059-0.213l-0.135-0.15l-0.094,0.105l-0.281,0.324l-0.157,0.236l-0.187,0.062l-0.431,0.939
		l-0.019,0.145l-0.042,0.13l-0.182,0.229l-0.817,1.396l-0.438,0.854l0.028-0.01l-0.134,0.032l-0.257,0.354l-0.348,0.467l-0.134,0.17
		l-0.264,0.345l-0.101,0.101L33.75,47.2l-0.025-0.067l0.351-0.72l0.647-0.787l0.357-0.644l0.419-0.599l0.124-0.268l0.261-0.347
		l0.089-0.112l0.423-0.938l-0.005-0.072l-0.106,0.086l-0.329,0.66l-0.12,0.178L35.5,44.05L35.238,44.4l-0.213,0.295l-0.167,0.236
		l-0.27,0.344l-0.163,0.242l-0.313,0.401l-0.23,0.282l-0.573,0.751l-0.086,0.116l-0.368,0.352l-0.497,0.434l-0.131-0.014
		l0.007,0.018l0.28-0.418l0.938-1.106l0.094-0.108l0.35-0.549l0.201-0.097l-0.005-0.063l-0.088,0.012L33.906,45.7l-0.071-0.015
		l-0.391,0.312l-0.379,0.443l-0.374,0.443l-0.429,0.497l-0.707,0.632l-0.2,0.063l-0.063-0.034l-0.03-0.061l0.385-0.426l0.586-0.551
		l0.229-0.365l0.166-0.064l0.007-0.122l-0.058,0.034l-0.106,0.173l-0.201,0.011l-0.372,0.346l-0.525,0.506l-0.476,0.449l-0.53,0.5
		l-0.09,0.26l-0.066,0.099l-0.117-0.063l-0.037-0.213l-0.103-0.041l-0.435,0.26l-0.107-0.051l0.01-0.067l0.399-0.419l0.281-0.411
		l0.167-0.037l0.094-0.173l0.208-0.094l0.113-0.241l0.176-0.064l-0.005-0.123l-0.061,0.028l-0.099,0.186l-0.167,0.049l-0.155,0.287
		l-0.17,0.037l-0.093,0.166l-0.071-0.018l-0.062,0.023l-0.866,0.676l-0.919,0.729l-0.182,0.227l0.031-0.012l-0.135,0.026
		l-0.691,0.521l-0.196,0.088l-0.131-0.035l0.006-0.115l0.571-0.441l0.15-0.24l0.171-0.03l0.09-0.175l0.118-0.061l-0.107,0.09
		l-0.186,0.075l-0.074,0.126l-0.275,0.062l-0.547,0.365l-0.699,0.529l0.065,0.157l-0.017,0.192l-0.409,0.103l-0.276-0.015
		l-0.626,0.377l-0.021,0.129l0.129,0.175l-0.518,0.3l-0.118-0.056l-0.023-0.14l0.117,0.002l0.013-0.043l-0.121,0.064l-0.065-0.027
		l-0.392,0.151l-0.723,0.447l-0.01,0.159l-0.017,0.197L23,52.527l-0.131-0.057l-0.136,0.004l0.089,0.1l0.123,0.072l-0.102,0.098
		l-0.418,0.146l-0.058,0.101l0.052,0.043l0.95-0.071l0.285-0.07l0.087,0.074l-0.031,0.062l-0.186,0.106l-0.796,0.132l-0.022,0.039
		l0.042,0.059l0.632,0.092l0.577,0.008l0.511,0.049l0.573-0.1l0.854-0.221l0.143-0.032l0.548-0.181l0.41-0.164l0.14,0.021
		l0.044,0.053l-0.006,0.058l-0.375,0.217l-0.128,0.01l0.03,0.046l0.087-0.082l0.265,0.064l0.481-0.118l0.273,0.038l-0.164,0.129
		l-0.622,0.2l-0.086,0.103l-0.275-0.07l-1.017,0.144l-0.095,0.097l-0.179-0.072L25.22,53.74l-0.191-0.063l-0.062,0.017l0.074,0.094
		l0.17-0.074l0.179,0.079l0.154-0.08l0.199,0.083l1.085-0.156l0.105-0.091l0.526,0.025l0.337-0.091l0.335-0.108l0.342-0.12
		l0.166-0.222L28.837,52.958L28.837,52.958z M32.039,51.021l0.125-0.011l-0.021-0.049l-0.092,0.089l-0.13,0.008l0.018,0.055
		L32.039,51.021L32.039,51.021z M46.546,44.246l0.003,0.133l0.061-0.018l-0.092-0.104l-0.066-0.198l0.453-0.072l0.015,0.06
		l-0.042,0.541l-0.125-0.004L46.74,44.63l0.129-0.063l0.204,0.348l0.009,0.145l-0.033,0.058l0.03,0.192l0.412,0.129l0.043,0.104
		l-0.041,0.141l-0.128,0.01l0.033,0.09l0.101-0.081l0.138,0.052l-0.1,0.188l-0.012,0.336l0.156,0.074l0.223-0.146l0.375,0.348
		l0.013,0.104l-0.071,0.009l-0.277-0.058l-0.094,0.101l0.019,0.131l0.549,0.165l0.028,0.107l-0.154,0.154l0.025,0.109l0.494,0.107
		l0.039,0.056l-0.024,0.05L48.4,47.663l0.221,0.534l-0.008-0.025l0.285,0.482l-0.008-0.023l0.148,0.414l-0.007-0.02l0.002,0.069
		l0.433,0.786l-0.003,0.124l0.048,0.011l-0.072-0.123l0.072-0.123l0.159-0.039l0.138,0.162l0.041,0.053l-0.053,0.187l-0.083,0.312
		l0.091,0.107l-0.006-0.019l0.033,0.134l0.167,0.136l0.073,0.115l0.164,0.606l0.064-0.02l0.223-0.188l0.086-0.263l0.143-0.126
		l0.122,0.023l0.228,0.101l0.069,0.011l0.081,0.17l-0.105,0.071l-0.142-0.03l-0.13-0.035l-0.061,0.023l0.019,0.067l0.12,0.454
		l-0.107,0.055l-0.34-0.128l-0.115,0.06l-0.008,0.139l0.26,0.347l-0.009-0.024l0.077,0.196l0.797,0.378l0.072,0.014l1.795-0.311
		l1.096-0.604l0.389-0.33l0.308-0.315l0.438-0.587l0.037-0.062l0.2-0.396l0.202-0.7l0.116-0.646l0.06-0.95l-0.025-0.146
		l-0.103-0.185l0.013,0.03l0.071-0.203l-0.375-1.689l-0.088-0.113l0.009,0.023l0.002-0.07l-0.447-0.791l-0.115-0.08l0.01,0.031
		l-0.002-0.133l-0.419-0.417l0.009,0.026l-0.023-0.137l-0.514-0.623l-0.757-0.68l-0.173-0.135l-0.406-0.311l-0.185-0.119
		l-0.804-0.635l-1.07-0.498l-0.395,0.127l-0.067,0.129l-0.112,0.029l-0.025-0.064l-0.106-0.104l-0.124,0.062l-0.043-0.059
		l-0.409-0.414l-0.114-0.09L48.6,40.411l-0.281-0.071l-0.58-0.083l-0.145,0.001l-0.656,0.087l-1.03,0.347l0.024-0.01l-0.539,0.188
		l0.159,0.144l0.085,0.108l-0.031,0.125l-0.107-0.027l-0.367-0.177l0.197,0.368l0.287,0.295l-0.01-0.028l-0.215,0.262l-0.043,0.107
		l0.311,0.117l0.111-0.084l-0.026,0.011l0.206,0.324l0.152,0.135l0.142-0.022l0.168,0.171l0.091,0.536l0.107,0.468l-0.168,0.12
		l-0.045,0.125l0.086,0.103L46.546,44.246L46.546,44.246z M53.032,36.322l0.198-0.071l0.112,0.051l0.216-0.057l0.116,0.003
		l0.013-0.04l-0.119,0.066l-0.135-0.054l-0.191,0.062l-0.2,0.067L52.9,36.382l0.049,0.029L53.032,36.322L53.032,36.322z
		 M32.705,26.602l0.198-0.068l0.288,0.134l-0.149,0.13l-0.029,0.104l0.06,0.021l0.125-0.03l0.106-0.173l0.135,0.053l0.188-0.067
		L33.7,26.58l0.139,0.013l0.199-0.088l0.171-0.136l0.015-0.303L34.037,26l-0.335,0.274l-0.198,0.072l-0.201,0.069l-0.389,0.147
		l-0.198,0.068l-0.203,0.071l-0.068-0.014l-0.807,0.183l-0.048,0.049l-0.268-0.128l-0.005-0.015l0.095-0.099l0.184-0.104
		l-0.027,0.011l0.193,0.054l0.559-0.214l-0.029,0.011l0.14-0.002l0.883-0.307l0.324-0.154l0.109-0.177l0.274-0.043l0.43-0.284
		l0.386-0.337l0.333-0.279l0.245-0.345l-0.041-0.052l-0.066-0.028l-0.393,0.317l-0.307,0.153l-0.167,0.12l-0.138,0.256l-0.124,0.001
		l-0.177-0.005l-0.252,0.53l-0.027-0.33l0.005-0.068l-0.098-0.011l-0.519,0.246l-0.175,0.119l0.031-0.011l-0.43,0.071l-0.437,0.06
		l-1.169,0.106l-0.579,0.077l-0.175-0.083l-0.121-0.076l-0.438,0.014l-0.389,0.131l-0.654-0.077l-0.436-0.058l-0.417-0.15
		l-0.284-0.074l-0.51-0.059l-0.25-0.124l-0.447-0.183l-0.189-0.092l-0.183-0.08l-0.145,0.031l-0.187-0.063l-0.169-0.128l-0.68-0.195
		l-0.033-0.063l0.053-0.038l0.212-0.031l-0.603-0.318l-0.203,0.046l-0.132,0.045l-0.389-0.191l-0.354-0.256l-0.349-0.268
		L22.65,23.54l-0.594-0.301l-0.24-0.165l-0.687-0.411l-0.079-0.215l-0.125-0.046l0.013-0.071l-0.59-0.518l-0.233-0.414l-0.167-0.287
		l-0.629-0.58l-0.162-0.239l-0.064-0.023l-0.039,0.103l0.169,0.404l0.311,0.661l-0.023,0.135l0.018-0.006l-0.186-0.104L19.2,21.207
		l-0.099-0.049l-0.032,0.13l0.074,0.207l0.625,1.244l0.204,0.472l0.181,0.09l0.13,0.158l0.026,0.271l0.092,0.114l0.305,0.146
		l0.103,0.081l0.095,0.279l0.225,0.276l0.452,0.37l0.537,0.498l0.167-0.03l0.064-0.277l0.068-0.087l0.104,0.083l0.005,0.501
		l0.17,0.311l0.253,0.148l-0.009-0.031l0.036,0.134l0.313,0.304l0.106,0.097l0.802,0.369l0.13-0.033l0.208-0.018l0.185,0.222
		l1.025,0.532l0.356,0.058l0.715,0.129L27.681,28l0.495,0.091l0.787,0.142l0.143-0.024l0.065-0.1l-0.036-0.062l-0.279-0.078
		l-0.431-0.072l-0.432-0.055l-0.138-0.151l-0.038-0.422l-0.005,0.002l0.428,0.052l0.636,0.101l0.43,0.007l0.118-0.072l-0.026,0.011
		l0.57,0.034l0.025-0.055l0.036-0.128l0.205,0.033l0.146,0.161l0.125,0.042l0.24-0.141l0.181-0.058l0.203,0.075l0.259-0.103
		l0.191-0.335l0.121,0.083l0.301,0.304l0.476-0.123l0.131-0.046l0.042-0.058l-0.065-0.088l-0.134-0.021l0.024-0.203l0.025-0.068
		L32.705,26.602L32.705,26.602z M33.179,24.208l0.129,0.008l-0.035-0.077l-0.085,0.094l-0.129-0.01l0.014,0.052L33.179,24.208
		L33.179,24.208z M34.37,24.116l0.197-0.073l0.455-0.279l0.201-0.068l0.168-0.058l-0.006-0.114l-0.056,0.029l-0.097,0.171
		l-0.202,0.067l-0.456,0.276l-0.196,0.073l-0.201,0.065l-0.136-0.018l-1.007,0.386l-0.04,0.059l-0.211-0.019l-0.931,0.131
		l-0.503,0.039l-0.027-0.063l0.069-0.203l0.202-0.064l0.191,0.078l0.555-0.097l0.048-0.027l-0.029-0.062l-0.19-0.077l-0.54,0.132
		l-0.031,0.063l-0.194,0.083l-0.267-0.12l-0.804-0.072l-0.29-0.001l-0.579-0.084l-0.653-0.085l-0.287-0.033l-0.997-0.25
		l-0.701-0.203l-0.811-0.359l-0.282-0.073l-0.296-0.198l-0.999-0.48l-0.49,0.014l-0.115-0.045l-0.317-0.284l-0.534-0.251
		l-0.494-0.436l-0.865-0.672l-0.175-0.132l-0.417-0.299l-0.666-0.451l-0.455-0.37l-0.07-0.003l-0.018,0.048l0.069,0.285
		l-0.097,0.064l-0.141,0.01l0.002,0.129l0.396,0.611l0.118,0.088l-0.002-0.007l0.26,0.429l0.411,0.606l0.106,0.077l0.308,0.158
		l0.902,0.842l0.372,0.187l1.019,0.581l1.995,0.968l1.175,0.41l0.782,0.187l0.58,0.088l0.643,0.137l0.726,0.096l0.801,0.084
		l0.801,0.058l0.116-0.074l0.059-0.132l0.181,0.097l0.479-0.118l0.2,0.065l0.066-0.015l0.068-0.108l-0.099-0.047l-0.228,0.131
		l-0.198-0.079l-0.422,0.032L31.227,25.6l-0.196-0.099l-0.647-0.127l-0.145-0.009l-0.454-0.015l-0.028-0.282l0.055-0.104
		l0.134,0.038l0.362,0.154l0.105-0.141l-0.192-0.193l-0.289-0.007l-0.573-0.108l-0.576-0.102l-0.577-0.109l-0.064-0.036
		l-0.045-0.057l0.071-0.086l0.217-0.023l0.65,0.118l0.864,0.141l0.653,0.079l0.215,0.176l0.05,0.359l0.117,0.04l0.151-0.21
		l0.032-0.047l0.133,0.04l0.028,0.13l0.018,0.138l0.129,0.055l0.58-0.091L32,25.152l-0.004-0.074l0.119-0.158l0.131,0.048
		l0.289,0.126l0.291-0.044l0.087-0.158l0.075-0.281l0.395,0.172l0.378-0.122l0.298-0.299l0.112-0.175L34.37,24.116L34.37,24.116z
		 M34.685,23.438l0.199-0.065l0.197-0.071l0.256-0.21l0.116,0.011l0.018-0.046l-0.124,0.062l-0.168,0.043l-0.088,0.166L34.893,23.4
		l-0.197,0.069l-0.126-0.004l0.015,0.054L34.685,23.438L34.685,23.438z M35.796,22.814l0.13-0.002l-0.016-0.061l-0.104,0.091
		l-0.135,0.014l0.023,0.057L35.796,22.814L35.796,22.814z M32.969,50.83l-0.206,0.085l-0.052,0.116l-0.172,0.035l-0.089,0.17
		l-0.132-0.018l-1.071,0.625l-0.112,0.092l-1.192,0.838L29.84,52.96l-0.135,0.024l0.035,0.029l0.092-0.078l0.07,0.021l0.82-0.308
		l0.958-0.666l0.66-0.576l0.1-0.192l0.212-0.087l0.048-0.121l0.171-0.031l0.087-0.174l0.121-0.008l-0.014-0.05L32.969,50.83
		L32.969,50.83z M32.566,50.643l-0.177,0.064l0.006,0.117l0.058-0.031l0.103-0.182l0.133-0.006l-0.017-0.06L32.566,50.643
		L32.566,50.643z M40.826,50.102l0.002-0.129l-0.053,0.019l0.08,0.1l-0.067,0.177l0.069,0.155l-0.078,0.554l0.095,0.351l0.081,0.501
		l0.174,0.705l0.143,0.322l0.06-0.037l0.01-0.428l-0.196-1.283l-0.104-0.5l-0.204-0.176l0.055-0.113L40.826,50.102L40.826,50.102z
		 M37.568,43.139l-0.064,0.129l0.002,0.137l0.057-0.024l0.052-0.122l-0.074-0.109l0.075-0.192l-0.013-0.067l-0.056,0.026
		L37.568,43.139L37.568,43.139z M29.416,27.677l0.177,0.067l0.156-0.074l0.138,0.051l0.071,0.008L29.99,27.7l-0.113-0.072
		l-0.119,0.073l-0.175-0.062l-0.157,0.068l-0.138,0.023l0.041,0.025L29.416,27.677L29.416,27.677z M34.83,48.568l0.129-0.006
		l0.188-0.383l-0.007-0.07l-0.059,0.041l-0.241,0.44l-0.127,0.017l-0.13,0.242l0.013,0.062l0.06-0.037L34.83,48.568L34.83,48.568z
		 M37.434,40.291l-0.065,0.126l0.003,0.133l0.056-0.02l0.049-0.121L37.404,40.3l0.219-0.265l0.088-0.102l-0.008-0.129l-0.189-0.011
		l-0.148,0.39L37.434,40.291L37.434,40.291z M33.346,50.018l-0.064-0.029l-0.408,0.328l0.04,0.108l0.068-0.008l0.359-0.412
		l0.174-0.071l0.007-0.137l-0.064,0.034L33.346,50.018L33.346,50.018z M34.441,32.66l0.13,0.061l0.13,0.007l0.092-0.177
		l-0.042-0.135l-0.161-0.073l-0.133,0.206l-0.003,0.14l-0.187,0.061l-0.013,0.203l0.154,0.099l0.052-0.187L34.441,32.66
		L34.441,32.66z M49.82,34.835l-1.049-0.54l-0.102-0.182l-0.355-0.229l-0.645,0.02l0.52,0.416l1.301,0.5l0.211,0.06l0.111-0.072
		l0.727,0.346l0.785,0.147l0.017-0.032l-0.044-0.058l-1.299-0.467L49.82,34.835L49.82,34.835z M41.247,55.867l-0.011-0.028
		l-0.066,0.208l0.273,1.646l0.104,0.087l0.12-0.046l0.123-0.267l0.135-0.631l-0.161-1.005l-0.101-0.275l-0.254-0.348L41.2,55.253
		l-0.009,0.565L41.247,55.867L41.247,55.867z M39.075,50.729l-0.06-0.041l0.062-0.64l0.042-0.14l0.117-0.645l0.15-0.639l0.022-0.143
		l0.135-0.493l0.644-0.869l-0.017-0.115l-0.062-0.039l-0.598,0.322l-0.143,0.165l-0.119,0.329l-0.092,0.19l-0.162,0.146l-0.445,1.23
		l-0.096,0.724l-0.014,0.219l0.035,0.504l-0.064,0.386l-0.047,0.733l-0.049,0.733l-0.031,0.142l-0.133,0.646l0.066,0.2l-0.057,0.327
		l-0.139,0.239l-0.041,0.216l0.027,0.354L37.9,55.363l-0.276,0.664l0.075,0.119l0.345-0.09l0.036-0.063l0.107-0.063l0.06,0.129
		l-0.013,0.219l-0.207,0.66l0.146-0.17l0.196-0.312l0.436-0.676l0.463-1.01l0.226-0.693l0.228-0.546l0.399-1.177l0.207-0.776
		l0.141-1.011l-0.116-1.244L40.29,48.96l-0.185-0.787l-0.039-0.062l-0.062-0.01l-0.135,0.056l-0.068,0.308l0.011,0.68l-0.064,0.035
		l-0.04-0.023l-0.021-0.438l-0.006-0.071l-0.027-0.056l-0.105,0.097l-0.158,0.638l-0.139,0.639l0.01,0.288l-0.019,0.145
		l-0.188,0.343L39.075,50.729L39.075,50.729z M36.61,29.447l0.067-0.191l-0.013-0.063l-0.093,0.079l0.066,0.167l-0.265,0.833
		L36.3,30.479l-0.175,0.633l-0.311,0.577l-0.168,0.237l-0.36,0.729l-0.464,0.748l0.004,0.21l0.147,0.164l0.464,0.469l0.465,0.56
		l0.316,0.401l0.414,0.695l0.086,0.202l0.321,1.702l0.141-0.19l0.142-0.718l0.178-0.711l0.071-0.731l-0.079-1.026l-0.035-0.438
		l0.075-0.114l0.094,0.062l0.162,0.712l0.014,0.984l-0.07,0.582l0.011,0.071l0.04,0.053l0.209,0.007l0.125-0.149l0.328-0.159
		l0.207,0.049l0.1-0.093l-0.059-0.279l-0.285-0.513l0.13-0.225l0.073-0.003l0.119-0.12l-0.217-0.852l-0.07-0.125l-0.141-0.411
		l-0.044-0.216l-0.323-1.28l-0.05-0.288l-0.106-0.577l-0.046-0.134l-0.169-0.628l-0.011-0.293l-0.155-0.239l-0.092-0.413
		l0.081-0.645l-0.057-0.129l-0.036-0.61l0.031-0.213l-0.008-0.514l0.033-1.539l-0.306-0.359l-0.001-0.139l-0.052,0.03l0.076,0.1
		l-0.144,0.403l-0.041,1.316l-0.044,1.022l0.083,1.089l0.121,1.165l0.206,0.373l0.101,0.098l-0.011,0.132l-0.144,0.37l0.016,0.145
		l0.239,1.071l0.033,0.289l0.097,0.652l-0.053,0.104l-0.126-0.045l-0.119-0.346l-0.197-1.299l-0.052-0.287l-0.12-0.715l-0.072-0.65
		l-0.032-0.142l-0.092-0.28l-0.05-0.353L36.61,29.447L36.61,29.447z M51.732,58.994l-0.01-0.029l0.108,0.342l0.528,0.707
		l0.291,0.424L53,60.602l0.125,0.055l0.189,0.316l0.057,0.004l0.051-0.047l0.025-0.139l-0.172-0.482l-0.178-0.787l-0.154-0.494
		l-0.192-0.779l-0.138-0.572l-0.159-0.115l-0.146,0.023l-0.063-0.027l-0.062-0.189l0.104-0.084l0.155-0.172L51.8,55.375
		l-0.063-0.134l-0.418-0.849l-0.248-0.449l-0.266-0.525l-0.634-1.412L50.1,51.879l-0.318-0.577l-0.229-0.541l-0.267-0.604
		l-0.128-0.268l-0.247-0.451l-0.273-0.519l-0.16-0.333l-0.219-0.626l-0.387-0.528l-0.141-0.34l-0.252-0.353l-0.203-0.39l-0.172-0.32
		l-0.183-0.394l-0.296-0.508l-0.335-0.565l-0.246-0.537l-0.151-0.252l-0.332-0.574l-0.193-0.479l-0.284-0.515l-0.415-0.599
		l-0.541-0.692l-0.615-0.724l-0.453-0.479l-0.556-0.58l-0.305-0.202l-0.111-0.096l-0.378-0.449l-0.445-0.378l-0.168-0.139
		l-0.658-0.692l-0.354-0.372l-0.647-0.464l-0.015-0.128l-0.058,0.02l0.092,0.101l0.002,0.129l0.177,0.127l0.216,0.602l0.026-0.011
		l-0.135-0.053L39.6,37.208l0.062,0.5l0.513,1.272l-0.008-0.022l0.067,0.427l0.178,0.547l0.158,0.403l0.199,0.698l0.287,0.74
		l0.215,0.613l0.121,0.346l0.205,0.197l-0.013-0.031l0.077,0.648l1.17,3.2l0.088,0.203l0.344,0.651l0.314,0.664l0.188,0.315
		l0.77,1.43l0.199,0.308l1.004,1.269l1.191,1.593l0.197,0.215l1.289,1.611l0.604,0.83l0.769,0.893l0.241,0.277l0.486,0.553
		l0.392,0.531l0.44,0.584L51.732,58.994L51.732,58.994z M35.98,36.023l0.021-0.07l-0.276-0.595l-0.421-0.689L34.8,34.154
		l-1.664-0.804l-1.069-0.241l-1.085,0.099l-0.144,0.031l-0.784,0.188l-0.803,0.367l-0.921,0.613l-0.378,0.344l-0.449,0.382
		l-0.16,0.149l-0.254,0.266l-0.375,0.452l-0.049,0.054l-0.187,0.319l-0.318,0.403l-0.293,0.826l-0.217,0.55L25.525,38.5L25.4,39.52
		l-0.007,2.061l0.017,0.146l0.527,2.065l0.126,0.178l0.127,0.063l0.387-0.161l-0.029,0.01l0.192,0.11l0.031,0.064l-0.116,0.149
		l-0.262,0.078l0.03,0.274l0.737,0.902l0.669,0.449l0.922,0.47l0.356,0.086l0.795,0.127l0.721,0.101l0.369-0.014l0.415-0.119
		l0.934-0.418l0.189-0.1l0.465-0.2l0.438-0.382l0.898-0.863l0.145-0.164l0.657-0.974l0.489-0.726l0.742-1.612l0.071-0.283
		l0.098-0.87l0.05-0.879l-0.158-1.976l-0.022-0.22l-0.172-0.559l-0.177-0.117L35.98,36.023L35.98,36.023z M40.736,46.376
		l0.013-0.063l-0.097-1.248l-0.088-0.656l-0.076-0.658l-0.092-0.576l-0.148-1.168l-0.175-1.82l-0.146-0.569l-0.108-0.425
		l-0.117-0.344l-0.105-0.429l-0.174-0.637l-0.152-0.717l-0.283-0.746l-0.127-0.018l-0.045,0.055l-0.025,0.066l0.199,0.935
		l0.451,1.331L39.49,38.9l0.099,0.574l0.14,0.647l0.176,1.454l0.062,0.359l0.091,0.574l0.049,0.438l0.108,0.872l0.027,0.438
		l0.097,1.091l0.064,0.877l0.037,0.143l0.039,0.061l0.131,0.016L40.736,46.376L40.736,46.376z M35.701,31.062l0.135-0.454
		l0.108-0.414l0.138-0.41l-0.024-0.046l-0.066,0.029l-0.258,0.524l-0.238,0.366l-0.22,0.286l-0.267,0.523L34.75,32.07l0.06,0.117
		l0.065,0.032l0.143-0.012l0.094-0.206l0.131-0.261l0.173-0.111l0.049-0.28l0.042-0.123L35.701,31.062L35.701,31.062z
		 M37.567,22.748l-0.05,0.009l-0.252,0.596l-0.051,0.287l-0.167,0.788l-0.058,0.509l0.188,0.19l0.222-0.133l0.033-0.142l0.021-0.659
		l0.084-0.571l0.018-0.658l0.027-0.145L37.567,22.748L37.567,22.748z M37.327,56.898l-0.083,0.246l0.042,0.207l0.047,0.051
		l0.059-0.039l0.048-0.053l0.416-0.58l0.065-0.129l-0.099-0.244l-0.264,0.052L37.327,56.898L37.327,56.898z M37.853,37.607
		l0.2-0.872l-0.211-0.175l-0.177,0.095l-0.04,0.284l0.129,0.258l0.021,0.267l-0.036,0.064l-0.032,0.066l-0.015,0.138L37.853,37.607
		L37.853,37.607z M37.658,21.705l-0.053,0.733l0.093,0.063l0.05-0.049l0.117-0.564l0.021-0.069l-0.012-0.145l-0.061-0.13
		L37.658,21.705L37.658,21.705z M51.633,36.395l-0.027-0.066l-0.263-0.116l-0.866-0.08L50.4,36.189l0.045,0.054l0.272,0.089
		l0.431,0.04l0.43,0.05L51.633,36.395L51.633,36.395z M38.145,24.31l-0.059,0.026l-0.055,0.048l-0.17,0.128l-0.037,0.273
		l0.059,0.273l0.049,0.051l0.112-0.071l0.002-0.138l0.097-0.214l0.068-0.247L38.145,24.31L38.145,24.31z M38.176,23.98l0.031-0.071
		l-0.14-0.313l-0.181,0.03l-0.064,0.2l0.314,0.194L38.176,23.98L38.176,23.98z M41.322,53.816l-0.051-0.008l-0.058,0.039
		l-0.057,0.338l0.099,0.268l0.1,0.039l0.039-0.057L41.322,53.816L41.322,53.816z M35.527,47.48l0.008,0.004l-0.185,0.396
		l0.012,0.071l0.052-0.021l0.369-0.783l-0.024-0.033l-0.06,0.041L35.527,47.48L35.527,47.48z M36.277,46.552l0.149-0.391
		l-0.004-0.071l-0.061,0.038l-0.376,0.759l0.013,0.07l0.055-0.033L36.277,46.552L36.277,46.552z M37.673,40.438l-0.099,0.312
		l0.01,0.062l0.071-0.002l0.227-0.229l-0.015-0.292l-0.031-0.045l-0.062,0.038L37.673,40.438L37.673,40.438z M36.608,23.165
		l0.031-0.069l0.017-0.14l-0.139,0.015l-0.225,0.33l0.091,0.092l0.064-0.005L36.608,23.165L36.608,23.165z M32.489,25.507
		l0.116,0.051l0.4-0.12l0.035-0.109l-0.054-0.039l-0.523,0.152L32.489,25.507L32.489,25.507z M45.93,43.223l0.03,0.139l0.026,0.064
		l0.229,0.092l0.14-0.112l-0.096-0.095L45.93,43.223L45.93,43.223z M45.773,42.881l0.187-0.047l0.054-0.043l-0.043-0.109
		l-0.132-0.058l-0.153,0.05L45.773,42.881L45.773,42.881z M28.223,27.611l0.133,0.062l0.069,0.024l0.136-0.006l-0.087-0.112
		l-0.065-0.034l-0.135-0.059l-0.14-0.013L28.223,27.611L28.223,27.611z M37.442,38.402l-0.045-0.021l-0.061,0.028l-0.078,0.196
		l0.007,0.067l0.093-0.026L37.442,38.402L37.442,38.402z M36.478,42.281l0.047-0.135l-0.004-0.071l-0.088,0.049l-0.062,0.127
		l0.006,0.12L36.478,42.281L36.478,42.281z M53.032,35.984l0.139,0.009l-0.087-0.102l-0.093,0.042L53.032,35.984L53.032,35.984z
		 M37.834,38.919l-0.045-0.005l-0.078,0.092l0.059,0.07l0.072-0.094L37.834,38.919L37.834,38.919z M30.993,47.534l0.058-0.033
		l0.026-0.127h-0.04l-0.062,0.11L30.993,47.534L30.993,47.534z M38.072,20.542l0.02,0.042l0.027-0.042H38.072L38.072,20.542z
		 M37.758,20.939l0.059-0.025l-0.01-0.062l-0.057,0.027L37.758,20.939L37.758,20.939z M36.179,22.604l-0.017-0.038l-0.025,0.037
		L36.179,22.604L36.179,22.604z M34.542,26.038l-0.051,0.025l0.058,0.032L34.542,26.038L34.542,26.038z M53.686,35.078l0.021,0.038
		l0.021-0.032L53.686,35.078L53.686,35.078z M54.037,36.098l0.045-0.027l-0.039-0.026L54.037,36.098L54.037,36.098z M18.873,19.708
		l-0.023-0.045l-0.028,0.043L18.873,19.708L18.873,19.708z M52.646,36.405l-0.024-0.055l-0.06,0.005l0.024,0.053L52.646,36.405
		L52.646,36.405z M36.038,29.461l0.047-0.041l-0.035-0.021L36.038,29.461L36.038,29.461z M28.875,27.643l-0.035,0.063l0.062-0.006
		L28.875,27.643L28.875,27.643z M37.605,37.36l-0.053-0.03l0.004,0.054L37.605,37.36L37.605,37.36z M37.124,39.428l-0.057-0.031
		l0.004,0.056L37.124,39.428L37.124,39.428z M34.332,49.124l0.049-0.036l-0.041-0.025L34.332,49.124L34.332,49.124z M30.767,47.74
		l-0.071-0.037l0.011,0.061L30.767,47.74L30.767,47.74z M33.787,49.648l-0.019-0.043l-0.028,0.041L33.787,49.648L33.787,49.648z
		 M34.059,49.727l-0.05,0.022l0.058,0.032L34.059,49.727L34.059,49.727z M45.611,57.659l-0.067-0.041l0.015,0.05L45.611,57.659
		L45.611,57.659z M23.841,53.691l0.059-0.016l-0.021-0.057l-0.066,0.031L23.841,53.691L23.841,53.691z M22.744,53.631l-0.025-0.04
		l-0.022,0.032L22.744,53.631L22.744,53.631z M21.953,53.414l0.041,0.046l0.019-0.03L21.953,53.414L21.953,53.414z"/>
	<polygon fill="#232734" points="29.568,45.136 29.972,45.061 30.083,45.129 30.188,45.156 30.31,44.845 30.375,44.508 
		30.341,44.52 30.688,44.562 30.821,44.587 31.183,44.773 31.292,44.986 31.049,45.064 30.663,45.02 30.346,45.316 30.353,45.432 
		30.424,45.421 30.521,45.551 30.459,45.684 30.287,45.783 30.217,45.76 29.924,45.973 29.905,46.033 29.772,46.018 29.55,45.736 
		29.542,45.677 29.609,45.652 29.916,45.418 29.855,45.329 29.783,45.338 29.597,45.121 	"/>
	<polygon fill="#232734" points="34.755,40.364 35.028,40.579 35.268,40.641 35.324,40.593 35.503,40.459 35.42,40.18 
		35.425,40.037 35.515,39.939 35.639,39.986 35.801,40.457 35.703,40.714 35.643,40.755 35.084,41.081 34.415,40.961 34.398,40.829 
		34.369,40.842 34.582,40.641 34.58,40.432 34.557,40.438 34.783,40.354 	"/>
	<polygon fill="#232734" points="29.597,45.121 29.526,45.109 29.073,45.302 28.611,45.35 28.396,45.355 28.282,45.28 
		28.358,45.189 28.376,45.077 28.195,44.97 28.126,44.857 28.195,44.834 28.411,44.823 28.57,44.926 28.751,45.002 29.062,44.836 
		29.179,44.825 29.425,44.925 29.568,45.136 	"/>
	<polygon fill="#232734" points="33.562,43.249 34.124,43.23 34.176,43.252 34.146,43.38 33.957,43.486 33.766,43.59 33.855,43.952 
		33.669,44.086 33.534,44.029 33.455,43.859 33.523,43.443 33.592,43.239 	"/>
	<path fill="#232734" d="M33.178,43.473l0.149,0.242l-0.044,0.128l-0.474-0.009l-0.061-0.123l0.092-0.498l0.145-0.085l0.263,0.123
		L33.23,43.42L33.178,43.473L33.178,43.473z M32.991,43.707l-0.019-0.055l-0.056,0.011l0.021,0.051L32.991,43.707L32.991,43.707z"/>
	<polygon fill="#232734" points="34.58,37.386 34.7,37.176 34.769,37.07 34.91,37.043 35.077,37.222 35.041,37.363 35.095,37.558 
		35.295,37.756 35.256,37.886 35.188,37.904 34.966,37.746 34.724,37.634 	"/>
	<polygon fill="#232734" points="35.45,38.236 35.512,37.738 35.773,37.57 36.029,37.689 36.297,38.094 36.276,38.161 
		36.166,38.168 35.891,37.961 35.709,38.032 35.573,38.195 35.44,38.211 	"/>
	<polygon fill="#232734" points="35.054,36.263 34.743,36.03 34.755,35.905 34.876,35.851 35.014,35.83 35.031,35.707 
		35.036,35.638 35.171,35.642 35.25,35.991 35.232,36.155 35.316,36.269 35.299,36.4 35.181,36.392 	"/>
	<polygon fill="#232734" points="33.521,35.016 33.432,34.914 33.526,34.744 33.859,34.599 33.985,34.634 34.239,34.882 
		34.231,34.857 34.031,35.278 34.063,35.266 33.773,35.134 33.784,35.161 33.832,35.029 33.849,34.897 33.734,34.89 33.495,35.024 	
		"/>
	<polygon fill="#232734" points="33.481,34.011 33.317,34.098 32.998,33.963 32.617,34.118 32.644,34.108 32.588,34.064 
		32.542,33.65 32.606,33.535 32.736,33.543 33.107,33.853 33.489,34.04 	"/>
	<polygon fill="#232734" points="35.639,39.298 35.32,39.121 35.274,38.997 35.349,38.885 35.555,38.818 35.721,38.92 
		35.976,39.316 36.005,39.38 35.898,39.43 35.632,39.309 	"/>
	<polygon fill="#232734" points="34.58,40.432 34.509,40.318 34.734,39.796 34.798,39.766 34.833,39.82 34.964,40.109 
		35.209,40.258 35.238,40.32 35.133,40.379 34.937,40.288 34.755,40.364 34.783,40.354 34.557,40.438 	"/>
	<polygon fill="#232734" points="31.751,44.669 31.807,44.867 31.803,45.23 31.679,45.264 31.584,45.164 31.51,44.736 
		31.627,44.632 31.759,44.688 	"/>
	<polygon fill="#232734" points="34.791,36.34 34.796,36.63 34.66,36.709 34.223,36.482 34.194,36.421 34.246,36.375 	"/>
	<polygon fill="#232734" points="32.775,45.001 32.542,44.873 32.427,44.291 32.494,44.266 32.535,44.289 32.821,44.85 
		32.875,44.977 	"/>
	<polygon fill="#232734" points="35.44,38.211 35.377,38.562 35.218,38.624 34.794,38.371 34.774,38.318 34.842,38.299 35.25,38.23 
		35.45,38.236 	"/>
	<polygon fill="#232734" points="33.489,34.04 33.602,33.959 33.763,34.062 33.759,34.276 33.637,34.482 33.495,34.513 
		33.377,34.443 33.424,34.339 33.487,34.301 33.481,34.011 	"/>
	<polygon fill="#232734" points="30.375,44.508 30.071,44.137 30.12,44.016 30.232,44.046 30.437,44.236 30.445,44.421 
		30.341,44.52 	"/>
	<polygon fill="#232734" points="34.012,42.641 34.208,42.736 34.234,42.859 34.134,42.947 33.994,42.934 33.667,42.768 
		33.581,42.667 33.721,42.669 33.789,42.697 34.042,42.629 	"/>
	<polygon fill="#232734" points="35.081,42.504 34.777,42.656 34.617,42.536 34.689,42.436 34.809,42.357 34.865,42.314 
		35.062,42.325 	"/>
	<polygon fill="#232734" points="33.773,35.134 33.776,35.419 33.687,35.516 33.559,35.481 33.521,35.016 33.495,35.024 
		33.784,35.161 	"/>
	<polygon fill="#232734" points="34.269,41.912 34.159,41.842 34.071,41.574 34.053,41.297 34.124,41.217 34.248,41.275 
		34.278,41.338 34.335,41.895 	"/>
	<polygon fill="#232734" points="27.264,44.617 27.243,44.549 27.466,44.312 27.682,44.3 27.779,44.361 27.724,44.484 
		27.322,44.613 	"/>
	<polygon fill="#232734" points="28.359,44.387 28.251,44.298 28.388,44.236 28.529,44.242 28.668,44.251 28.76,44.344 
		28.624,44.475 28.556,44.458 	"/>
	<polygon fill="#232734" points="36.104,38.521 36.08,38.589 35.806,38.678 35.67,38.542 35.754,38.438 36.044,38.426 	"/>
	<polygon fill="#232734" points="35.998,36.017 36.064,36.217 35.744,36.363 35.618,36.316 35.63,36.203 	"/>
	<polygon fill="#232734" points="34.252,38.665 34.014,38.791 33.946,38.791 33.935,38.668 34.062,38.501 34.246,38.532 	"/>
	<polygon fill="#232734" points="35.357,41.223 35.434,41.24 35.451,41.521 35.361,41.598 35.293,41.576 35.208,41.327 	"/>
	<polygon fill="#232734" points="34.845,41.896 34.675,41.939 34.542,41.771 34.524,41.632 34.66,41.635 34.834,41.761 	"/>
	<polygon fill="#232734" points="28.515,45.882 28.318,45.934 28.23,45.85 28.21,45.782 28.272,45.68 28.513,45.797 	"/>
	<polygon fill="#232734" points="32.569,34.26 32.644,34.108 32.617,34.118 32.961,34.188 33.007,34.276 32.965,34.334 
		32.896,34.351 32.561,34.238 	"/>
	<polygon fill="#232734" points="32.151,33.989 31.893,34.09 31.789,34.001 31.841,33.895 32.046,33.846 32.15,33.928 	"/>
	<polygon fill="#232734" points="34.728,35.115 34.904,35.408 34.873,35.445 34.804,35.444 34.625,35.164 34.66,35.123 	"/>
	<polygon fill="#232734" points="34.031,35.278 34.217,35.385 34.227,35.514 34.052,35.573 33.983,35.466 34.063,35.266 	"/>
	<polygon fill="#232734" points="35.421,36.894 35.346,36.789 35.387,36.662 35.583,36.644 35.691,36.729 35.721,36.791 
		35.663,36.823 35.402,36.901 	"/>
	<polygon fill="#232734" points="34.618,38.811 34.725,38.891 34.69,39.07 34.579,39.044 34.443,38.887 34.417,38.783 
		34.553,38.788 	"/>
	<polygon fill="#232734" points="34.997,39.499 35.28,39.792 35.223,39.891 35.096,39.842 35.023,39.49 	"/>
	<polygon fill="#232734" points="33.009,42.721 32.971,42.777 32.864,42.843 32.786,42.739 32.911,42.548 33.024,42.652 	"/>
	<polygon fill="#232734" points="25.881,40.668 25.83,40.697 25.641,40.398 25.708,40.387 	"/>
	<polygon fill="#232734" points="33.379,44.316 33.197,44.35 33.151,44.177 33.332,44.141 	"/>
	<polygon fill="#232734" points="32.152,44.193 32.005,44.275 31.868,44.145 32.066,44.023 	"/>
	<polygon fill="#232734" points="28.317,43.248 28.21,43.318 28.094,43.26 28.14,43.08 28.271,43.079 	"/>
	<polygon fill="#232734" points="31.507,45.529 31.374,45.818 31.399,45.811 31.271,45.748 31.213,45.564 31.383,45.498 
		31.514,45.559 	"/>
	<polygon fill="#232734" points="31.374,45.818 31.503,45.882 31.559,45.99 31.498,46.025 31.292,46.075 31.225,46.052 
		31.227,45.936 31.399,45.811 	"/>
	<polygon fill="#232734" points="35.291,35.376 35.192,35.443 35.147,35.389 35.117,35.25 35.21,35.202 	"/>
	<polygon fill="#232734" points="30.389,34.36 30.318,34.247 30.439,34.109 30.641,34.172 30.634,34.152 30.535,34.249 
		30.36,34.373 	"/>
	<polygon fill="#232734" points="36.125,37.018 36.027,36.874 36.053,36.763 36.115,36.763 36.184,36.985 	"/>
	<polygon fill="#232734" points="36.276,39.122 36.364,39.336 36.307,39.374 36.208,39.141 	"/>
	<polygon fill="#232734" points="32.503,38.182 32.56,38.222 32.563,38.354 32.517,38.4 32.417,38.337 32.39,38.271 32.392,38.202 	
		"/>
	<polygon fill="#232734" points="34.042,42.629 33.916,42.57 33.825,42.482 33.905,42.393 33.969,42.368 34.088,42.393 
		34.077,42.518 34.012,42.641 	"/>
	<polygon fill="#232734" points="34.366,43.682 34.215,43.814 34.224,43.611 34.307,43.503 34.372,43.475 34.388,43.544 	"/>
	<polygon fill="#232734" points="33,44.449 33.086,44.609 33,44.707 32.902,44.646 32.863,44.518 32.867,44.45 	"/>
	<polygon fill="#232734" points="29.218,43.818 29.38,43.501 29.448,43.482 29.472,43.551 29.345,43.801 29.211,43.802 	"/>
	<polygon fill="#232734" points="29.539,44.459 29.439,44.539 29.318,44.42 29.439,44.357 29.545,44.395 	"/>
	<polygon fill="#232734" points="31.514,45.559 31.616,45.477 31.77,45.626 31.686,45.729 31.64,45.688 31.507,45.529 	"/>
	<polygon fill="#232734" points="27.866,44.107 27.837,44.059 27.891,43.938 28.024,43.939 28.071,43.986 28.005,44.083 	"/>
	<polygon fill="#232734" points="34.264,34.311 34.212,34.338 34.101,34.271 34.108,34.225 34.238,34.246 	"/>
	<polygon fill="#232734" points="34.688,34.583 34.591,34.627 34.59,34.49 34.658,34.472 34.694,34.516 	"/>
	<polygon fill="#232734" points="31.915,33.355 31.89,33.394 31.771,33.355 31.813,33.277 	"/>
	<polygon fill="#232734" points="34.239,34.882 34.446,34.821 34.474,34.921 34.414,34.939 34.231,34.857 	"/>
	<polygon fill="#232734" points="31.262,33.718 31.225,33.748 31.114,33.695 31.11,33.645 31.175,33.628 	"/>
	<polygon fill="#232734" points="33.143,34.724 33.084,34.751 33.054,34.655 33.151,34.595 33.171,34.66 	"/>
	<polygon fill="#232734" points="32.36,34.307 32.126,34.358 32.094,34.3 32.178,34.248 32.369,34.331 	"/>
	<polygon fill="#232734" points="31.383,34.328 31.309,34.229 31.435,34.232 31.505,34.329 	"/>
	<polygon fill="#232734" points="30.194,33.851 30.237,33.951 30.129,34.011 30.107,33.944 	"/>
	<polygon fill="#232734" points="32.763,35.063 32.738,35.1 32.623,35.06 32.598,34.999 32.727,35.014 	"/>
	<polygon fill="#232734" points="33.545,35.768 33.579,35.798 33.483,35.914 33.463,35.853 	"/>
	<polygon fill="#232734" points="30.36,34.373 30.544,34.473 30.573,34.533 30.453,34.541 30.389,34.36 	"/>
	<polygon fill="#232734" points="29.529,34.204 29.57,34.229 29.533,34.342 29.47,34.365 29.479,34.236 	"/>
	<polygon fill="#232734" points="31.312,35.124 31.273,35.069 31.364,35.021 31.446,35.127 31.378,35.146 	"/>
	<polygon fill="#232734" points="36.016,37.234 35.929,37.282 35.844,37.192 35.934,37.145 	"/>
	<polygon fill="#232734" points="33.812,36.71 33.7,36.715 33.65,36.629 33.716,36.62 33.781,36.644 	"/>
	<polygon fill="#232734" points="32.797,36.512 32.734,36.544 32.685,36.448 32.773,36.36 32.814,36.386 32.824,36.451 	"/>
	<polygon fill="#232734" points="32.062,36.187 32.043,36.226 31.928,36.192 31.966,36.118 	"/>
	<polygon fill="#232734" points="28.778,34.844 28.662,34.856 28.625,34.765 28.688,34.752 28.749,34.782 	"/>
	<polygon fill="#232734" points="33.74,37.519 33.72,37.404 33.814,37.369 33.83,37.433 33.805,37.496 	"/>
	<polygon fill="#232734" points="34.094,37.617 34.137,37.709 34.007,37.693 33.981,37.629 34.027,37.604 	"/>
	<polygon fill="#232734" points="33.294,37.45 33.183,37.468 33.136,37.372 33.201,37.359 33.267,37.386 	"/>
	<polygon fill="#232734" points="28.138,35.238 28.041,35.333 28.022,35.265 28.117,35.173 	"/>
	<polygon fill="#232734" points="35.795,39.771 35.7,39.8 35.621,39.716 35.712,39.682 	"/>
	<polygon fill="#232734" points="36.277,40.155 36.266,40.286 36.159,40.307 36.165,40.176 	"/>
	<polygon fill="#232734" points="27.621,36.692 27.534,36.726 27.552,36.606 27.611,36.583 27.635,36.631 	"/>
	<polygon fill="#232734" points="33.771,39.809 33.806,39.839 33.711,39.953 33.691,39.893 	"/>
	<polygon fill="#232734" points="31.263,39.402 31.202,39.43 31.171,39.391 31.221,39.273 31.274,39.273 	"/>
	<polygon fill="#232734" points="34.398,40.829 34.215,40.745 34.183,40.689 34.197,40.65 34.32,40.665 34.369,40.842 	"/>
	<polygon fill="#232734" points="33.072,40.284 33.105,40.386 33,40.445 32.98,40.378 33.01,40.312 	"/>
	<polygon fill="#232734" points="35.641,41.85 35.625,41.744 35.713,41.707 35.727,41.768 35.703,41.827 	"/>
	<polygon fill="#232734" points="32.295,40.386 32.246,40.417 32.192,40.415 32.2,40.29 32.297,40.259 32.317,40.322 	"/>
	<polygon fill="#232734" points="35.13,41.917 35.115,42.045 35.016,42.059 35.027,41.939 	"/>
	<polygon fill="#232734" points="32.962,41.357 32.903,41.385 32.872,41.29 32.97,41.23 	"/>
	<polygon fill="#232734" points="33.769,41.927 33.813,41.954 33.773,42.074 33.684,42.025 	"/>
	<polygon fill="#232734" points="33.462,41.971 33.335,41.959 33.312,41.861 33.429,41.87 	"/>
	<polygon fill="#232734" points="26.431,38.891 26.415,38.789 26.483,38.786 26.564,38.893 26.497,38.913 	"/>
	<polygon fill="#232734" points="29.229,40.467 29.267,40.441 29.374,40.491 29.377,40.537 29.317,40.552 	"/>
	<polygon fill="#232734" points="31.52,41.604 31.494,41.548 31.587,41.518 31.646,41.607 	"/>
	<polygon fill="#232734" points="31.933,42.098 31.879,42.004 31.975,41.911 32.027,42.006 	"/>
	<polygon fill="#232734" points="31.426,41.82 31.364,41.837 31.258,41.783 31.237,41.725 31.407,41.759 	"/>
	<polygon fill="#232734" points="33.592,43.239 33.53,43.068 33.619,42.995 33.631,43.061 33.562,43.249 	"/>
	<polygon fill="#232734" points="26.38,39.957 26.361,39.848 26.454,39.811 26.471,39.873 26.445,39.936 	"/>
	<polygon fill="#232734" points="32.542,42.816 32.519,42.854 32.393,42.818 32.437,42.738 	"/>
	<polygon fill="#232734" points="30.599,42.525 30.543,42.553 30.522,42.453 30.614,42.409 30.632,42.471 	"/>
	<polygon fill="#232734" points="34.18,44.252 34.069,44.26 34.028,44.174 34.091,44.165 34.152,44.191 	"/>
	<polygon fill="#232734" points="26.459,40.909 26.406,40.941 26.363,40.854 26.466,40.784 26.481,40.848 	"/>
	<polygon fill="#232734" points="31.75,43.451 31.792,43.421 31.91,43.475 31.91,43.527 31.842,43.549 	"/>
	<polygon fill="#232734" points="33.555,44.729 33.583,44.824 33.46,44.809 33.438,44.744 	"/>
	<polygon fill="#232734" points="26.48,41.809 26.465,41.691 26.562,41.655 26.578,41.72 26.548,41.783 	"/>
	<polygon fill="#232734" points="30.568,43.568 30.501,43.58 30.401,43.498 30.482,43.436 30.578,43.52 	"/>
	<polygon fill="#232734" points="31.257,43.965 31.156,44.021 31.146,43.904 31.252,43.838 	"/>
	<polygon fill="#232734" points="27.701,42.338 27.68,42.376 27.557,42.338 27.598,42.264 	"/>
	<polygon fill="#232734" points="32.778,45.311 32.596,45.223 32.573,45.161 32.66,45.105 32.718,45.139 32.75,45.322 	"/>
	<polygon fill="#232734" points="32.75,45.322 32.884,45.377 32.959,45.486 32.898,45.512 32.785,45.443 32.778,45.311 	"/>
	<polygon fill="#232734" points="26.316,42.646 26.212,42.676 26.223,42.555 26.322,42.521 	"/>
	<polygon fill="#232734" points="27.542,43.125 27.479,43.141 27.378,43.018 27.441,43.003 27.538,43.07 	"/>
	<polygon fill="#232734" points="26.778,42.891 26.906,42.9 26.917,42.999 26.801,42.989 	"/>
	<polygon fill="#232734" points="28.276,43.619 28.151,43.632 28.074,43.542 28.102,43.503 28.261,43.557 	"/>
	<polygon fill="#232734" points="26.892,43.547 27.058,43.457 27.149,43.54 27.134,43.585 27.07,43.604 26.883,43.523 	"/>
	<polygon fill="#232734" points="30.921,46.312 30.804,46.33 30.769,46.236 30.832,46.223 30.894,46.251 	"/>
	<polygon fill="#232734" points="27.992,45.602 27.947,45.636 27.832,45.523 27.899,45.51 27.966,45.535 	"/>
	<polygon fill="#232734" points="32.369,34.331 32.569,34.26 32.561,34.238 32.36,34.307 	"/>
	<polygon fill="#232734" points="30.771,33.71 30.75,33.645 30.815,33.63 30.843,33.692 	"/>
	<polygon fill="#232734" points="34.447,35.667 34.466,35.722 34.408,35.735 	"/>
	<polygon fill="#232734" points="30.641,34.172 30.72,34.086 30.771,34.089 30.747,34.177 30.634,34.152 	"/>
	<polygon fill="#232734" points="32.059,34.797 32.036,34.732 32.101,34.718 32.127,34.78 	"/>
	<polygon fill="#232734" points="31.318,34.555 31.375,34.564 31.352,34.602 	"/>
	<polygon fill="#232734" points="32.258,35.167 32.206,35.161 32.229,35.123 	"/>
	<polygon fill="#232734" points="35.402,36.901 35.474,37.098 35.492,37.091 35.421,36.894 	"/>
	<polygon fill="#232734" points="35.474,37.098 35.556,37.198 35.499,37.219 35.492,37.091 	"/>
	<polygon fill="#232734" points="30.389,35.24 30.389,35.295 30.341,35.265 	"/>
	<polygon fill="#232734" points="29.077,34.868 29.06,34.814 29.114,34.803 29.134,34.856 	"/>
	<polygon fill="#232734" points="30.802,35.74 30.819,35.8 30.76,35.814 	"/>
	<polygon fill="#232734" points="32.049,37.106 31.961,37.012 32.016,36.987 32.022,37.115 	"/>
	<polygon fill="#232734" points="32.022,37.115 32.097,37.208 32.048,37.219 32.049,37.106 	"/>
	<polygon fill="#232734" points="28.401,35.661 28.356,35.655 28.379,35.622 	"/>
	<polygon fill="#232734" points="27.571,35.75 27.515,35.763 27.556,35.694 	"/>
	<polygon fill="#232734" points="35.023,39.49 34.936,39.391 34.971,39.35 34.997,39.499 	"/>
	<polygon fill="#232734" points="31.208,37.789 31.147,37.797 31.185,37.737 	"/>
	<polygon fill="#232734" points="26.851,36.9 26.799,36.917 26.787,36.864 	"/>
	<polygon fill="#232734" points="29.688,38.419 29.686,38.367 29.731,38.395 	"/>
	<polygon fill="#232734" points="33.193,40.057 33.198,40.007 33.237,40.033 	"/>
	<polygon fill="#232734" points="35.923,41.307 35.863,41.325 35.847,41.268 35.906,41.243 	"/>
	<polygon fill="#232734" points="32.104,39.682 32.062,39.709 32.025,39.639 32.083,39.623 	"/>
	<polygon fill="#232734" points="27.015,37.5 27.016,37.441 27.063,37.469 	"/>
	<polygon fill="#232734" points="33.846,40.999 33.901,41.003 33.876,41.045 	"/>
	<polygon fill="#232734" points="26.173,37.913 26.178,37.856 26.222,37.884 	"/>
	<polygon fill="#232734" points="26.712,38.096 26.75,38.161 26.695,38.176 26.677,38.121 	"/>
	<polygon fill="#232734" points="34.48,42.21 34.499,42.275 34.414,42.229 	"/>
	<polygon fill="#232734" points="26.095,38.438 26.108,38.496 26.037,38.453 	"/>
	<polygon fill="#232734" points="30.516,40.855 30.513,40.908 30.471,40.883 	"/>
	<polygon fill="#232734" points="34.576,43.114 34.509,43.146 34.488,43.092 34.547,43.077 	"/>
	<polygon fill="#232734" points="32.256,42.348 32.292,42.413 32.237,42.434 32.221,42.377 	"/>
	<polygon fill="#232734" points="33.248,42.839 33.185,42.852 33.161,42.793 33.225,42.777 	"/>
	<polygon fill="#232734" points="25.807,39.507 25.743,39.521 25.782,39.45 	"/>
	<polygon fill="#232734" points="27.125,40.076 27.137,40.129 27.073,40.09 	"/>
	<polygon fill="#232734" points="26.091,40.511 26.081,40.458 26.133,40.439 26.147,40.496 	"/>
	<polygon fill="#232734" points="31.331,43.07 31.255,43.075 31.254,43.033 31.309,43.02 	"/>
	<polygon fill="#232734" points="29.068,42.236 29.04,42.195 29.109,42.157 29.126,42.215 	"/>
	<polygon fill="#232734" points="31.812,43.82 31.744,43.834 31.722,43.77 31.79,43.753 	"/>
	<polygon fill="#232734" points="29.347,43.009 29.335,42.956 29.385,42.941 29.403,42.994 	"/>
	<polygon fill="#232734" points="25.662,41.723 25.708,41.729 25.686,41.762 	"/>
	<polygon fill="#232734" points="26.753,42.204 26.792,42.271 26.735,42.285 26.716,42.229 	"/>
	<polygon fill="#232734" points="31.305,44.414 31.311,44.361 31.349,44.389 	"/>
	<polygon fill="#232734" points="31.759,44.688 31.851,44.598 31.884,44.68 31.751,44.669 	"/>
	<polygon fill="#232734" points="26.333,42.203 26.29,42.229 26.254,42.165 26.309,42.152 	"/>
	<polygon fill="#232734" points="32.233,44.973 32.196,44.997 32.161,44.934 32.214,44.918 	"/>
	<polygon fill="#232734" points="25.869,42.327 25.917,42.33 25.89,42.37 	"/>
	<polygon fill="#232734" points="29.211,43.802 29.132,43.885 29.1,43.812 29.218,43.818 	"/>
	<polygon fill="#232734" points="32.385,45.451 32.292,45.348 32.351,45.325 32.355,45.462 	"/>
	<polygon fill="#232734" points="32.355,45.462 32.449,45.57 32.389,45.593 32.385,45.451 	"/>
	<polygon fill="#232734" points="26.883,43.523 26.76,43.596 26.768,43.545 26.892,43.547 	"/>
	<polygon fill="#232734" points="26.113,43.63 26.08,43.586 26.153,43.552 26.178,43.613 	"/>
	<polygon fill="#232734" points="26.578,43.872 26.493,43.78 26.524,43.742 26.549,43.882 	"/>
	<polygon fill="#232734" points="27.085,44.016 27.081,44.066 27.041,44.04 	"/>
	<polygon fill="#232734" points="27.584,44.852 27.684,44.771 27.725,44.811 27.58,44.84 	"/>
	<polygon fill="#232734" points="27.58,44.84 27.492,44.932 27.456,44.852 27.584,44.852 	"/>
	<polygon fill="#232734" points="27.048,44.844 26.994,44.855 27.03,44.788 	"/>
	<polygon fill="#232734" points="27.99,45.279 27.936,45.292 27.919,45.24 27.975,45.22 	"/>
	<polygon fill="#232734" points="29.277,45.924 29.267,45.87 29.317,45.855 29.334,45.911 	"/>
	<polygon fill="#232734" points="29.056,46.061 29.075,46.126 28.991,46.083 	"/>
	<polygon fill="#232734" points="29.547,46.379 29.541,46.327 29.59,46.311 29.599,46.364 	"/>
	<polygon fill="#232734" points="52.323,58.766 52.105,58.583 51.719,57.878 51.37,57.236 51.1,56.721 51.145,56.62 51.211,56.639 
		51.52,57.04 51.869,57.68 52.348,58.496 52.32,58.768 	"/>
	<polygon fill="#232734" points="44.359,45.036 44.541,45.15 45.021,45.882 45.327,46.379 45.275,46.498 45.162,46.463 
		45.014,46.302 44.352,45.166 44.366,45.033 	"/>
	<polygon fill="#232734" points="50.904,56.136 50.803,56.221 50.738,56.188 50.688,56.145 50.244,55.316 50.301,55.22 
		50.363,55.232 50.509,55.393 50.921,56.068 	"/>
	<polygon fill="#232734" points="47.797,50.835 47.729,50.855 47.664,50.827 47.271,50.156 47.338,50.062 47.396,50.089 
		47.789,50.766 	"/>
	<polygon fill="#232734" points="40.504,38.624 40.45,38.581 40.091,37.912 40.077,37.846 40.087,37.777 40.059,37.787 
		40.247,37.884 40.518,38.303 40.477,38.637 	"/>
	<polygon fill="#232734" points="44.366,45.033 44.141,44.874 43.915,44.428 43.952,44.395 44.146,44.455 44.38,44.968 
		44.359,45.036 	"/>
	<polygon fill="#232734" points="40.477,38.637 41.008,39.111 41,39.249 40.884,39.225 40.52,38.766 40.504,38.624 	"/>
	<polygon fill="#232734" points="42.162,41.372 42.34,41.489 42.512,41.893 42.443,41.982 42.381,41.961 42.143,41.379 	"/>
	<polygon fill="#232734" points="48.634,52.293 48.533,52.334 48.37,51.957 48.387,51.902 48.512,51.921 48.663,52.229 	"/>
	<polygon fill="#232734" points="52.545,59.354 52.484,59.326 52.302,58.83 52.323,58.766 52.32,58.768 52.581,59.088 
		52.525,59.359 	"/>
	<polygon fill="#232734" points="42.814,42.355 42.969,42.641 42.934,42.678 42.869,42.682 42.811,42.646 42.713,42.467 
		42.746,42.359 	"/>
	<polygon fill="#232734" points="43.736,43.834 43.688,43.866 43.622,43.857 43.486,43.618 43.491,43.559 43.625,43.575 	"/>
	<polygon fill="#232734" points="42.143,41.379 41.964,41.174 41.986,41.105 42.096,41.107 42.162,41.372 	"/>
	<polygon fill="#232734" points="46.566,48.697 46.748,48.932 46.657,48.989 46.58,48.691 	"/>
	<polygon fill="#232734" points="48.875,51.111 48.971,51.198 48.92,51.314 48.789,51.219 48.809,51.109 	"/>
	<polygon fill="#232734" points="49.9,53.302 49.799,53.146 49.797,53.081 49.907,53.062 49.973,53.268 	"/>
	<polygon fill="#232734" points="49.18,53.232 49.072,53.256 49.002,53.07 49.023,53.021 49.09,53.014 	"/>
	<polygon fill="#232734" points="49.898,54.419 49.854,54.451 49.725,54.402 49.714,54.271 49.762,54.22 49.859,54.282 	"/>
	<polygon fill="#232734" points="40.174,38.982 40.387,38.915 40.417,39.018 40.355,39.035 40.166,38.959 	"/>
	<polygon fill="#232734" points="42.701,43.516 42.729,43.561 42.674,43.677 42.621,43.676 42.602,43.607 	"/>
	<polygon fill="#232734" points="45.742,45.82 45.725,45.759 45.794,45.747 45.857,45.777 45.884,45.841 	"/>
	<polygon fill="#232734" points="42.947,45.172 42.92,45.116 43.016,45.087 43.074,45.18 43.01,45.197 	"/>
	<polygon fill="#232734" points="45.877,47.283 45.852,47.324 45.729,47.298 45.727,47.199 45.854,47.219 	"/>
	<polygon fill="#232734" points="46.216,48.025 46.118,48.095 46.115,47.973 46.212,47.907 	"/>
	<polygon fill="#232734" points="46.665,51.999 46.592,51.9 46.715,51.898 46.788,51.998 	"/>
	<polygon fill="#232734" points="49.518,53.785 49.389,53.766 49.365,53.668 49.488,53.684 49.523,53.738 	"/>
	<polygon fill="#232734" points="50.891,54.727 50.859,54.764 50.736,54.716 50.727,54.658 50.794,54.641 	"/>
	<polygon fill="#232734" points="51.314,56.07 51.379,56.05 51.525,56.154 51.505,56.195 51.381,56.186 	"/>
	<polygon fill="#232734" points="39.848,37.191 39.924,37.387 39.945,37.379 39.875,37.181 	"/>
	<polygon fill="#232734" points="40.016,37.575 39.945,37.379 39.924,37.387 39.988,37.586 	"/>
	<polygon fill="#232734" points="39.988,37.586 40.059,37.787 40.087,37.777 40.016,37.575 	"/>
	<polygon fill="#232734" points="42.645,39.531 42.625,39.57 42.553,39.51 42.613,39.494 	"/>
	<polygon fill="#232734" points="41.266,40.345 41.262,40.398 41.198,40.423 41.18,40.357 	"/>
	<polygon fill="#232734" points="44.148,42.247 44.091,42.243 44.118,42.198 	"/>
	<polygon fill="#232734" points="43.27,43.104 43.248,43.143 43.168,43.076 43.232,43.062 	"/>
	<polygon fill="#232734" points="44.995,44.23 44.995,44.277 44.955,44.253 	"/>
	<polygon fill="#232734" points="41.598,42.932 41.701,42.841 41.725,42.898 41.585,42.9 	"/>
	<polygon fill="#232734" points="43.672,46.425 43.632,46.452 43.6,46.386 43.654,46.365 	"/>
	<polygon fill="#232734" points="46.58,48.691 46.505,48.591 46.562,48.574 46.566,48.697 	"/>
	<polygon fill="#232734" points="45.165,48.377 45.18,48.439 45.117,48.459 45.102,48.393 	"/>
	<polygon fill="#232734" points="46.88,49.223 46.918,49.241 46.859,49.307 46.846,49.251 	"/>
	<polygon fill="#232734" points="44.104,48.281 44.051,48.298 44.036,48.244 	"/>
	<polygon fill="#232734" points="45.768,49.835 45.807,49.902 45.75,49.916 45.73,49.859 	"/>
	<polygon fill="#232734" points="47.768,53.432 47.7,53.445 47.744,53.368 	"/>
	<polygon fill="#232734" points="51.732,58.994 51.83,58.919 51.842,58.971 51.725,58.965 	"/>
	<polygon fill="#232734" points="52.525,59.359 52.596,59.461 52.545,59.477 52.545,59.354 	"/>
	<polygon fill="#232734" points="54.643,47.232 54.23,47.104 53.791,47.104 53.773,47.038 53.802,46.973 53.925,46.922 54.5,46.885 
		54.617,46.73 54.702,46.641 54.907,46.594 54.98,46.249 54.732,45.811 54.802,45.657 55.159,45.564 55.16,45.717 55.134,46 
		55.262,46.344 55.273,46.559 55.295,47.127 55.26,47.165 55.191,47.163 55.044,47.006 54.854,46.98 54.609,47.247 	"/>
	<polygon fill="#232734" points="54.609,47.247 54.757,47.246 54.927,47.341 55.023,47.445 55.404,47.363 55.605,47.385 
		55.618,47.521 55.59,47.589 55.448,47.889 55.359,47.991 55.068,48.031 54.973,47.956 55,47.893 55.046,47.836 55.127,47.671 
		54.814,47.584 54.627,47.693 54.506,47.635 54.484,47.566 54.643,47.232 	"/>
	<polygon fill="#232734" points="50.714,41.951 50.77,42.234 51.064,42.372 51.137,42.364 51.24,42.447 51.215,42.578 
		50.617,42.441 50.521,42.244 50.456,42.229 50.34,42.182 50.342,42.043 50.283,41.709 50.295,41.66 50.363,41.643 50.494,41.695 
		50.725,41.977 	"/>
	<polygon fill="#232734" points="54.257,50.49 54.189,50.461 54.023,50.268 53.938,50.008 53.934,49.91 54.29,49.911 54.663,50.034 
		54.875,50.021 55,50.195 55.062,50.232 55.014,50.396 54.693,50.318 54.605,50.213 54.465,50.239 54.227,50.502 	"/>
	<polygon fill="#232734" points="53.389,44.796 53.654,45.395 53.622,45.521 53.488,45.527 53.186,45.218 53.158,45.152 
		52.98,44.551 53.012,44.486 53.128,44.421 53.396,44.537 53.419,44.742 	"/>
	<polygon fill="#232734" points="53.305,50.725 53.363,50.764 53.484,51.01 53.08,51.251 52.889,51.311 52.322,51.229 
		52.133,51.133 52.141,51.156 52.184,51.098 52.652,50.904 52.863,51.041 53.197,50.884 53.331,50.715 	"/>
	<polygon fill="#232734" points="55.309,49.17 55.219,49.023 54.909,48.652 54.943,48.411 55.292,48.396 55.438,48.521 55.3,48.532 
		55.186,48.58 55.207,48.646 55.525,49.029 55.475,49.207 	"/>
	<polygon fill="#232734" points="54.885,48.854 54.915,49.039 54.746,49.163 54.618,49.328 54.412,49.498 54.075,49.423 
		54.043,49.359 54.077,49.318 54.421,49.107 54.818,48.829 	"/>
	<polygon fill="#232734" points="49.053,41.354 49.214,41.264 49.48,41.484 49.854,41.881 50.049,41.973 50.1,42.021 50.126,42.086 
		50.076,42.114 49.809,42.035 49.494,42.102 49.425,42.126 49.326,41.641 49.044,41.329 	"/>
	<polygon fill="#232734" points="53.684,44.002 53.784,44.258 53.812,44.326 53.684,44.329 52.646,44.008 52.584,43.975 
		52.509,43.864 52.576,43.838 52.648,43.837 53.145,43.928 53.409,44.044 53.691,44.023 	"/>
	<polygon fill="#232734" points="47.387,41.062 47.316,41.169 46.93,41.572 46.803,41.562 46.745,41.443 46.874,41.191 
		47.143,40.967 47.365,40.805 47.434,40.787 47.45,40.922 	"/>
	<polygon fill="#232734" points="51.369,52.105 51.338,51.464 51.486,51.345 51.629,51.484 51.699,51.902 51.568,52.087 
		51.357,52.081 	"/>
	<polygon fill="#232734" points="48.154,41.414 48.046,41.482 47.801,41.355 47.632,41.129 47.654,40.809 47.771,40.777 
		47.801,40.837 47.9,41.135 48.139,41.289 	"/>
	<polygon fill="#232734" points="46.335,41.229 46.383,41.252 46.562,41.725 46.493,41.841 46.357,41.841 46.301,41.8 
		46.107,41.408 46.133,41.275 	"/>
	<polygon fill="#232734" points="52.036,51.471 52.088,51.502 52.29,52.087 52.264,52.134 52.195,52.145 51.921,51.828 
		51.895,51.764 51.973,51.504 	"/>
	<polygon fill="#232734" points="49.044,41.329 48.912,41.82 48.868,41.857 48.736,41.816 48.725,41.355 48.919,41.297 
		49.053,41.354 	"/>
	<polygon fill="#232734" points="50.641,52.253 51.167,52.04 51.369,52.105 51.357,52.081 51.354,52.296 51.318,52.339 
		50.758,52.296 50.633,52.229 	"/>
	<polygon fill="#232734" points="54.075,48.109 54.15,48.066 54.591,48.225 54.703,48.301 54.575,48.418 54.432,48.436 
		54.215,48.439 54.083,48.312 	"/>
	<polygon fill="#232734" points="54.341,45.779 54.201,45.771 53.857,45.717 53.867,45.744 54.253,45.467 54.367,45.658 
		54.312,45.791 	"/>
	<polygon fill="#232734" points="46.795,42.023 47.055,41.807 47.184,41.809 47.252,41.918 47.189,42.117 47.018,42.184 	"/>
	<polygon fill="#232734" points="52.482,50.165 52.678,50.258 52.85,50.48 52.823,50.6 52.701,50.581 52.289,50.2 52.209,50.104 
		52.348,50.113 52.479,50.173 	"/>
	<polygon fill="#232734" points="49.107,42.566 48.895,42.552 48.745,42.148 48.771,42.1 48.84,42.096 49.146,42.482 	"/>
	<polygon fill="#232734" points="52.216,42.98 51.932,42.982 51.812,42.916 51.87,42.816 51.936,42.708 52,42.613 52.25,42.734 
		52.188,42.992 	"/>
	<polygon fill="#232734" points="51.465,50.514 51.863,50.418 51.921,50.51 51.841,50.707 51.615,50.702 51.453,50.482 	"/>
	<polygon fill="#232734" points="54.118,51.084 54.033,51.283 53.684,51.378 53.624,51.271 53.691,51.245 53.83,51.223 
		53.85,51.098 53.934,51.021 53.999,51.047 54.129,51.111 	"/>
	<polygon fill="#232734" points="53.652,50.042 53.323,49.9 53.258,49.509 53.322,49.477 53.348,49.533 53.445,49.775 
		53.604,49.916 53.627,50.051 	"/>
	<polygon fill="#232734" points="52.637,49.311 52.492,49.391 52.369,49.379 52.311,49.176 52.635,49.1 	"/>
	<polygon fill="#232734" points="52.193,48.531 52.163,48.594 52.036,48.618 51.956,48.518 52.012,48.318 52.182,48.236 
		52.254,48.402 52.193,48.532 	"/>
	<polygon fill="#232734" points="52.458,46.261 52.551,46.361 52.547,46.581 52.494,46.686 52.363,46.643 52.334,46.3 	"/>
	<polygon fill="#232734" points="54.412,46.628 54.256,46.725 54.158,46.559 54.182,46.492 54.211,46.43 54.381,46.346 
		54.462,46.504 	"/>
	<polygon fill="#232734" points="52.189,45.391 52.205,45.155 52.479,45.105 52.547,45.129 52.551,45.234 52.256,45.42 	"/>
	<polygon fill="#232734" points="52.249,44.307 51.863,43.921 51.878,43.88 51.947,43.878 52.207,43.998 52.266,44.184 
		52.219,44.318 	"/>
	<polygon fill="#232734" points="51.432,43.736 51.438,43.454 51.58,43.359 51.711,43.413 51.704,43.643 51.645,43.68 	"/>
	<polygon fill="#232734" points="53.324,47.09 53.245,46.948 53.247,46.816 53.439,46.825 53.545,46.998 53.482,47.107 	"/>
	<polygon fill="#232734" points="53.855,48.707 53.968,48.797 53.961,48.925 53.842,48.961 53.698,48.816 53.675,48.682 
		53.799,48.682 	"/>
	<polygon fill="#232734" points="49.629,49.141 49.466,49.219 49.031,49.021 49.038,49.041 49.266,48.886 49.38,48.936 
		49.641,49.167 	"/>
	<polygon fill="#232734" points="48.38,40.547 48.545,40.885 48.479,40.898 48.312,40.562 	"/>
	<polygon fill="#232734" points="50.725,41.977 50.756,41.913 51.143,41.85 51.171,41.913 51.131,41.948 50.714,41.951 	"/>
	<polygon fill="#232734" points="52.667,42.755 52.699,42.932 52.52,42.954 52.482,42.791 	"/>
	<polygon fill="#232734" points="53.003,43.354 52.898,43.537 52.713,43.536 52.671,43.421 52.818,43.301 53.014,43.38 	"/>
	<polygon fill="#232734" points="45.902,40.691 46.158,40.823 46.23,40.928 46.096,40.949 45.952,40.951 45.868,40.812 
		45.928,40.682 	"/>
	<polygon fill="#232734" points="50.439,43.184 50.379,43.213 50.182,43.014 50.191,42.906 50.259,42.887 50.464,43.057 	"/>
	<polygon fill="#232734" points="47.033,43.287 47.05,43.238 47.377,43.184 47.461,43.282 47.4,43.314 47.064,43.35 	"/>
	<polygon fill="#232734" points="47.902,45.891 47.624,45.753 47.762,45.58 47.9,45.572 47.973,45.68 	"/>
	<polygon fill="#232734" points="52.811,49.922 52.76,49.896 52.68,49.646 52.771,49.561 52.822,49.583 52.906,49.832 	"/>
	<polygon fill="#232734" points="53.45,50.462 53.652,50.042 53.627,50.051 53.766,50.445 53.792,50.438 53.568,50.518 
		53.588,50.51 53.441,50.441 	"/>
	<polygon fill="#232734" points="53.766,50.445 53.9,50.502 53.977,50.611 53.922,50.654 53.713,50.705 53.59,50.641 53.588,50.51 
		53.568,50.518 53.792,50.438 	"/>
	<polygon fill="#232734" points="54.129,51.111 54.322,50.691 54.307,50.698 54.469,50.977 54.391,51.066 54.118,51.084 	"/>
	<polygon fill="#232734" points="48.896,48.65 48.988,48.46 49.176,48.48 49.191,48.605 49.089,48.688 48.889,48.627 	"/>
	<polygon fill="#232734" points="51.439,49.818 51.512,49.701 51.613,49.671 51.63,49.738 51.5,50.057 51.395,50.073 51.371,50.012 
			"/>
	<polygon fill="#232734" points="53.331,50.715 53.154,50.6 53.146,50.466 53.25,50.393 53.45,50.462 53.441,50.441 53.305,50.725 	
		"/>
	<polygon fill="#232734" points="50.535,50.301 50.486,50.328 50.365,50.273 50.395,49.999 50.443,49.954 50.51,50.021 	"/>
	<polygon fill="#232734" points="51.453,50.482 51.34,50.652 51.15,50.662 51.123,50.55 51.271,50.441 51.465,50.514 	"/>
	<polygon fill="#232734" points="52.133,51.133 51.777,51.288 51.693,51.184 51.743,51.136 52.141,51.156 	"/>
	<polygon fill="#232734" points="54.318,44.674 54.415,44.828 54.325,44.915 54.284,44.863 54.251,44.677 	"/>
	<polygon fill="#232734" points="49.859,43.043 49.811,43.082 49.725,43.018 49.751,42.863 49.863,42.919 49.889,42.98 	"/>
	<polygon fill="#232734" points="54.688,45.311 54.594,45.369 54.55,45.316 54.529,45.253 54.551,45.141 54.695,45.244 	"/>
	<polygon fill="#232734" points="52.219,44.318 52.4,44.42 52.436,44.542 52.359,44.645 52.268,44.581 52.249,44.307 	"/>
	<polygon fill="#232734" points="53.747,46.331 53.616,46.283 53.543,46.174 53.641,46.09 53.775,46.082 53.798,46.208 
		53.74,46.333 	"/>
	<polygon fill="#232734" points="52.566,47.111 52.65,47.204 52.586,47.314 52.466,47.207 52.501,47.105 	"/>
	<polygon fill="#232734" points="53.337,47.952 53.375,48.055 53.143,48.104 53.132,48.038 	"/>
	<polygon fill="#232734" points="55.042,49.79 54.98,49.824 54.838,49.622 54.934,49.531 54.977,49.587 	"/>
	<polygon fill="#232734" points="55.434,50.087 55.438,49.816 55.499,49.799 55.611,49.938 55.55,50.05 55.424,50.059 	"/>
	<polygon fill="#232734" points="51.38,49.4 51.406,49.273 51.586,49.286 51.617,49.346 	"/>
	<polygon fill="#232734" points="50.369,49.607 50.34,49.667 50.164,49.688 50.13,49.635 50.229,49.557 50.359,49.546 	"/>
	<polygon fill="#232734" points="49.805,50.548 50.021,50.418 50.113,50.473 50.09,50.534 49.918,50.591 49.798,50.529 	"/>
	<polygon fill="#232734" points="50.457,50.896 50.346,50.934 50.297,50.68 50.366,50.669 	"/>
	<polygon fill="#232734" points="52.598,52.333 52.512,52.23 52.559,52.191 52.682,52.133 52.75,52.123 52.75,52.247 	"/>
	<polygon fill="#232734" points="51.427,41.703 51.325,41.73 51.27,41.633 51.335,41.609 	"/>
	<polygon fill="#232734" points="49.344,41.016 49.293,41.048 49.249,40.962 49.352,40.887 	"/>
	<polygon fill="#232734" points="46.718,40.748 46.77,40.619 46.874,40.543 46.896,40.6 46.837,40.71 46.709,40.723 	"/>
	<polygon fill="#232734" points="55.16,44.691 54.991,44.771 54.913,44.673 54.977,44.658 55.17,44.723 	"/>
	<polygon fill="#232734" points="49.904,42.559 49.878,42.45 50.004,42.455 50.037,42.561 	"/>
	<polygon fill="#232734" points="54.001,44.59 53.957,44.5 54.043,44.418 54.092,44.509 	"/>
	<polygon fill="#232734" points="49.438,42.542 49.378,42.568 49.35,42.467 49.451,42.414 49.471,42.479 	"/>
	<polygon fill="#232734" points="51.104,43.531 50.98,43.535 50.907,43.432 51.038,43.427 	"/>
	<polygon fill="#232734" points="53.973,44.973 53.999,45.038 53.887,45.073 53.797,44.977 53.84,44.941 53.908,44.943 	"/>
	<polygon fill="#232734" points="49.104,43.102 49.141,43.066 49.266,43.172 49.198,43.191 	"/>
	<polygon fill="#232734" points="45.611,41.705 45.777,41.629 45.859,41.725 45.798,41.739 45.602,41.677 	"/>
	<polygon fill="#232734" points="47.689,42.646 47.62,42.639 47.539,42.542 47.561,42.497 47.684,42.508 47.749,42.622 	"/>
	<polygon fill="#232734" points="48.674,43.035 48.562,43.045 48.523,42.952 48.588,42.938 48.65,42.969 	"/>
	<polygon fill="#232734" points="52.009,44.727 51.95,44.753 51.923,44.714 51.973,44.604 52.021,44.605 	"/>
	<polygon fill="#232734" points="46.598,42.354 46.54,42.387 46.484,42.296 46.598,42.22 46.618,42.287 	"/>
	<polygon fill="#232734" points="51.167,44.359 51.139,44.396 51.021,44.352 51.009,44.298 51.139,44.305 	"/>
	<polygon fill="#232734" points="48.076,43.275 48.04,43.182 48.126,43.102 48.169,43.195 	"/>
	<polygon fill="#232734" points="46.823,43.188 46.758,43.199 46.659,43.124 46.729,43.062 46.826,43.139 	"/>
	<polygon fill="#232734" points="53.323,46.302 53.341,46.363 53.247,46.409 53.165,46.314 53.258,46.271 	"/>
	<polygon fill="#232734" points="56.092,47.585 55.922,47.658 55.846,47.564 55.908,47.555 56.104,47.615 	"/>
	<polygon fill="#232734" points="47.457,44.327 47.421,44.277 47.51,44.24 47.587,44.34 	"/>
	<polygon fill="#232734" points="54.029,47.527 54.159,47.521 54.246,47.613 54.221,47.65 54.096,47.639 	"/>
	<polygon fill="#232734" points="54.551,48.009 54.521,47.905 54.646,47.912 54.68,48.014 	"/>
	<polygon fill="#232734" points="51.548,46.672 51.523,46.709 51.408,46.67 51.383,46.609 51.512,46.622 	"/>
	<polygon fill="#232734" points="53.82,47.766 53.691,47.742 53.664,47.682 53.734,47.666 53.798,47.698 	"/>
	<polygon fill="#232734" points="52.832,47.918 52.768,47.943 52.749,47.775 52.814,47.75 	"/>
	<polygon fill="#232734" points="51.111,47.084 51.148,47.18 51.084,47.193 50.999,47.098 	"/>
	<polygon fill="#232734" points="47.908,46.219 47.848,45.988 47.895,45.861 	"/>
	<polygon fill="#232734" points="50.21,46.973 50.234,47.033 50.141,47.079 50.061,46.992 50.091,46.952 50.15,46.945 	"/>
	<polygon fill="#232734" points="52.568,48.407 52.654,48.499 52.627,48.533 52.504,48.514 52.48,48.452 52.508,48.415 	"/>
	<polygon fill="#232734" points="53.282,48.991 53.15,49.002 53.064,48.904 53.091,48.865 53.221,48.876 	"/>
	<polygon fill="#232734" points="53.792,49.207 53.766,49.243 53.654,49.204 53.631,49.145 53.757,49.157 	"/>
	<polygon fill="#232734" points="49.467,47.443 49.689,47.404 49.716,47.469 49.65,47.488 49.457,47.416 	"/>
	<polygon fill="#232734" points="50.523,47.82 50.493,47.855 50.372,47.834 50.346,47.777 50.504,47.759 	"/>
	<polygon fill="#232734" points="55.424,50.059 55.23,50.129 55.163,50.025 55.229,50.006 55.434,50.087 	"/>
	<polygon fill="#232734" points="51.262,48.68 51.148,48.688 51.111,48.6 51.174,48.588 51.232,48.618 	"/>
	<polygon fill="#232734" points="55.047,50.62 55.093,50.645 55.057,50.771 54.988,50.798 54.994,50.658 	"/>
	<polygon fill="#232734" points="50.555,48.905 50.533,48.818 50.596,48.82 50.68,48.917 	"/>
	<polygon fill="#232734" points="48.619,48.193 48.798,48.125 48.875,48.221 48.811,48.234 48.611,48.168 	"/>
	<polygon fill="#232734" points="54.909,51.143 54.811,51.163 54.809,51.095 54.913,51.014 54.932,51.079 	"/>
	<polygon fill="#232734" points="49.641,49.167 49.743,48.979 49.809,48.952 49.816,49.077 49.629,49.141 	"/>
	<polygon fill="#232734" points="51.062,49.756 50.947,49.72 50.923,49.659 50.986,49.643 51.081,49.715 	"/>
	<polygon fill="#232734" points="54.305,51.566 54.283,51.604 54.16,51.57 54.203,51.49 	"/>
	<polygon fill="#232734" points="53.35,51.725 53.443,51.53 53.508,51.504 53.562,51.6 53.34,51.699 	"/>
	<polygon fill="#232734" points="53.34,51.699 53.277,51.832 53.165,51.896 53.214,51.717 53.35,51.725 	"/>
	<polygon fill="#232734" points="52.829,51.786 52.652,51.68 52.635,51.619 52.768,51.609 52.805,51.795 	"/>
	<polygon fill="#232734" points="51.855,42.13 51.855,42.078 51.898,42.104 	"/>
	<polygon fill="#232734" points="48.781,41.021 48.762,40.954 48.829,40.939 48.857,41.004 	"/>
	<polygon fill="#232734" points="52.913,43.041 52.908,43.1 52.861,43.068 	"/>
	<polygon fill="#232734" points="53.014,43.38 53.098,43.298 53.139,43.323 53.003,43.354 	"/>
	<polygon fill="#232734" points="53.887,43.748 53.88,43.688 53.936,43.664 53.941,43.725 	"/>
	<polygon fill="#232734" points="52.188,42.992 52.262,43.188 52.288,43.18 52.216,42.98 	"/>
	<polygon fill="#232734" points="54.749,44.173 54.656,44.255 54.615,44.223 54.758,44.199 	"/>
	<polygon fill="#232734" points="48.414,41.42 48.455,41.492 48.396,41.511 48.375,41.451 	"/>
	<polygon fill="#232734" points="51.477,42.939 51.479,42.883 51.521,42.909 	"/>
	<polygon fill="#232734" points="52.262,43.188 52.34,43.285 52.287,43.296 52.288,43.18 	"/>
	<polygon fill="#232734" points="53.691,44.023 53.775,43.936 53.805,44.011 53.684,44.002 	"/>
	<polygon fill="#232734" points="46.709,40.723 46.609,40.811 46.591,40.73 46.718,40.748 	"/>
	<polygon fill="#232734" points="48.363,41.881 48.404,41.956 48.341,41.979 48.32,41.914 	"/>
	<polygon fill="#232734" points="50.904,43.169 50.873,43.128 50.943,43.089 50.969,43.15 	"/>
	<polygon fill="#232734" points="47.523,41.625 47.537,41.688 47.475,41.707 47.462,41.645 	"/>
	<polygon fill="#232734" points="55.713,45.607 55.607,45.684 55.591,45.629 55.723,45.633 	"/>
	<polygon fill="#232734" points="48.046,42.217 48.083,42.287 48.025,42.301 48.007,42.244 	"/>
	<polygon fill="#232734" points="47.633,42.216 47.546,42.229 47.546,42.18 47.605,42.161 	"/>
	<polygon fill="#232734" points="49.441,43.456 49.422,43.395 49.484,43.38 49.508,43.439 	"/>
	<polygon fill="#232734" points="54.312,45.791 54.395,45.9 54.335,45.917 54.341,45.779 	"/>
	<polygon fill="#232734" points="55.822,46.598 55.829,46.547 55.866,46.57 	"/>
	<polygon fill="#232734" points="45.766,42.079 45.673,41.982 45.727,41.955 45.738,42.09 	"/>
	<polygon fill="#232734" points="46.293,42.229 46.273,42.266 46.204,42.205 46.262,42.191 	"/>
	<polygon fill="#232734" points="53.857,45.717 53.734,45.79 53.743,45.742 53.867,45.744 	"/>
	<polygon fill="#232734" points="52.945,45.546 52.889,45.557 52.87,45.5 52.93,45.489 	"/>
	<polygon fill="#232734" points="54.133,46.116 54.077,46.135 54.062,46.077 	"/>
	<polygon fill="#232734" points="55.49,46.752 55.422,46.766 55.462,46.688 	"/>
	<polygon fill="#232734" points="51.662,45.121 51.6,45.139 51.585,45.076 51.646,45.057 	"/>
	<polygon fill="#232734" points="52.54,45.684 52.484,45.698 52.525,45.628 	"/>
	<polygon fill="#232734" points="52.927,45.823 52.926,45.878 52.881,45.852 	"/>
	<polygon fill="#232734" points="55.621,47.143 55.557,47.157 55.535,47.094 55.602,47.079 	"/>
	<polygon fill="#232734" points="51.41,45.316 51.352,45.331 51.393,45.259 	"/>
	<polygon fill="#232734" points="53.74,46.333 53.814,46.436 53.758,46.456 53.747,46.331 	"/>
	<polygon fill="#232734" points="52.266,45.855 52.266,45.9 52.21,45.916 52.189,45.863 	"/>
	<polygon fill="#232734" points="55.708,47.876 55.695,47.814 55.755,47.796 55.771,47.859 	"/>
	<polygon fill="#232734" points="50.211,45.404 50.16,45.416 50.143,45.366 50.195,45.352 	"/>
	<polygon fill="#232734" points="51.341,46.066 51.34,46.114 51.301,46.09 	"/>
	<polygon fill="#232734" points="49.271,45.292 49.213,45.284 49.24,45.242 	"/>
	<polygon fill="#232734" points="55.801,48.598 55.732,48.473 55.782,48.482 55.775,48.605 	"/>
	<polygon fill="#232734" points="55.775,48.605 55.854,48.699 55.83,48.734 55.801,48.598 	"/>
	<polygon fill="#232734" points="52.057,47.43 51.992,47.443 51.971,47.382 52.035,47.366 	"/>
	<polygon fill="#232734" points="53.646,48.131 53.665,48.189 53.605,48.209 	"/>
	<polygon fill="#232734" points="55.725,49.148 55.782,49.152 55.756,49.198 	"/>
	<polygon fill="#232734" points="52.389,47.734 52.352,47.757 52.312,47.693 52.368,47.682 	"/>
	<polygon fill="#232734" points="55.076,49.291 55.073,49.345 55.01,49.369 54.992,49.305 	"/>
	<polygon fill="#232734" points="51.57,47.988 51.562,48.037 51.527,48.014 	"/>
	<polygon fill="#232734" points="49.109,47.039 49.057,47.053 49.048,46.999 49.1,46.982 	"/>
	<polygon fill="#232734" points="49.457,47.416 49.352,47.493 49.33,47.438 49.467,47.443 	"/>
	<polygon fill="#232734" points="50.199,48.462 50.218,48.525 50.137,48.48 	"/>
	<polygon fill="#232734" points="50.96,49.049 50.898,49.068 50.941,48.986 	"/>
	<polygon fill="#232734" points="54.227,50.502 54.307,50.698 54.322,50.691 54.257,50.49 	"/>
	<polygon fill="#232734" points="50.208,48.794 50.205,48.854 50.158,48.826 	"/>
	<polygon fill="#232734" points="52.805,51.795 52.878,51.891 52.848,51.924 52.829,51.786 	"/>
	<polygon fill="#232734" points="46.573,34.446 46.344,34.318 46.064,34.245 45.682,33.999 45.501,33.779 45.083,33.522 
		44.641,33.04 44.045,32.752 43.92,32.674 43.9,32.477 44.037,32.469 44.305,32.709 44.755,32.956 45.756,33.42 45.93,33.705 
		46.049,33.876 46.581,34.125 46.809,34.307 47.059,34.427 47.335,34.508 47.402,34.609 47.348,34.651 47.066,34.678 	"/>
	<polygon fill="#232734" points="43.684,30.461 43.615,30.435 43.102,30.153 42.645,29.679 42.164,29.236 42.012,29.081 
		41.645,28.844 41.654,28.874 41.66,28.801 41.23,28.22 40.693,27.354 40.475,26.979 40.537,26.888 40.604,26.908 40.969,27.445 
		41.309,28.007 41.721,28.52 42.041,28.816 42.598,29.286 42.854,29.541 43.404,30.006 43.688,30.333 43.67,30.467 	"/>
	<polygon fill="#232734" points="42.755,28.219 42.787,28.353 43.216,28.755 43.616,29.077 44.093,29.411 44.107,29.477 
		44.021,29.581 43.952,29.585 43.818,29.525 43.301,29.117 42.8,28.693 42.32,28.239 42.029,28.017 41.893,27.762 41.916,27.715 
		41.986,27.698 42.113,27.768 42.766,28.243 	"/>
	<polygon fill="#232734" points="49.559,33.149 49.198,32.915 48.555,32.556 48.532,32.425 48.643,32.35 48.777,32.396 
		49.059,32.632 49.648,32.932 49.979,33.096 50.053,33.21 49.914,33.23 	"/>
	<polygon fill="#232734" points="45.193,32.478 44.611,32.191 44.449,32.056 44.125,31.774 44.113,31.643 44.096,31.651 
		44.807,32.125 45.17,32.358 45.174,32.486 	"/>
	<polygon fill="#232734" points="44.113,31.643 43.3,31.042 43.229,30.839 43.279,30.816 43.346,30.836 44.102,31.518 
		44.096,31.651 	"/>
	<polygon fill="#232734" points="51.08,34.424 50.852,34.282 50.83,34.148 50.939,34.078 51.451,34.341 51.466,34.404 
		51.378,34.503 	"/>
	<polygon fill="#232734" points="46.375,33.529 45.914,33.189 45.701,33.003 45.695,32.952 45.766,32.936 46.135,33.155 
		46.54,33.454 46.585,33.562 46.514,33.572 	"/>
	<polygon fill="#232734" points="43.191,31.864 42.707,31.476 42.65,31.362 42.787,31.346 42.975,31.273 42.961,31.279 
		43.088,31.344 43.171,31.452 43.171,31.871 	"/>
	<polygon fill="#232734" points="41.662,29.184 41.596,29.161 41.48,29.082 41.096,28.673 41.061,28.536 41.084,28.492 
		41.15,28.492 41.654,28.874 41.645,28.844 41.667,29.054 41.65,29.189 	"/>
	<polygon fill="#232734" points="51.271,33.868 51.121,33.78 51.08,33.674 51.133,33.629 51.523,33.702 51.544,33.828 
		51.443,33.907 	"/>
	<polygon fill="#232734" points="42.127,31.69 41.598,31.223 41.621,31.181 41.689,31.167 41.876,31.275 42.119,31.629 
		42.104,31.699 	"/>
	<polygon fill="#232734" points="41.545,26.999 40.977,26.487 40.992,26.418 40.993,26.417 41.549,26.936 41.531,27.004 	"/>
	<polygon fill="#232734" points="41.65,29.189 41.777,29.251 42.177,29.65 42.184,29.701 42.115,29.72 41.65,29.316 41.662,29.184 	
		"/>
	<polygon fill="#232734" points="42.975,31.273 42.908,31.254 42.791,31.183 42.594,30.833 42.658,30.814 42.986,31.215 
		42.961,31.279 	"/>
	<polygon fill="#232734" points="41.006,30.203 41.188,30.303 41.428,30.639 41.117,30.511 41.029,30.193 	"/>
	<polygon fill="#232734" points="44.52,30.028 44.391,29.958 44.38,29.841 44.659,29.913 44.661,30.047 	"/>
	<polygon fill="#232734" points="46.419,31.414 46.331,31.346 46.297,31.285 46.357,31.266 46.682,31.377 46.753,31.486 
		46.632,31.51 	"/>
	<polygon fill="#232734" points="40.32,29.224 40.537,29.407 40.598,29.68 40.617,29.672 40.341,29.216 	"/>
	<polygon fill="#232734" points="39.332,25.691 39.27,25.716 39.189,25.596 39.193,25.467 39.355,25.564 	"/>
	<polygon fill="#232734" points="46.068,30.828 46.127,30.952 46.079,31.052 46.016,31.036 45.939,30.932 46.014,30.827 	"/>
	<polygon fill="#232734" points="49.955,33.762 49.844,33.687 49.816,33.626 49.904,33.576 50.029,33.623 50.109,33.724 	"/>
	<polygon fill="#232734" points="41.792,30.251 41.688,30.272 41.613,30.157 41.637,30.045 41.758,30.069 	"/>
	<polygon fill="#232734" points="43.191,32.761 43.268,32.88 43.229,32.987 43.162,32.983 43.078,32.882 43.135,32.767 	"/>
	<polygon fill="#232734" points="39.611,25.017 39.505,25.041 39.428,24.952 39.523,24.921 	"/>
	<polygon fill="#232734" points="39.797,25.666 39.729,25.647 39.652,25.538 39.781,25.536 39.855,25.641 	"/>
	<polygon fill="#232734" points="40.992,26.418 40.812,26.316 40.786,26.255 40.883,26.209 40.993,26.417 	"/>
	<polygon fill="#232734" points="40.172,26.394 40.113,26.419 40.092,26.269 40.152,26.249 	"/>
	<polygon fill="#232734" points="40.688,28.781 40.625,28.805 40.585,28.771 40.629,28.646 40.688,28.642 	"/>
	<polygon fill="#232734" points="47.65,31.955 47.582,31.965 47.48,31.879 47.564,31.815 47.665,31.908 	"/>
	<polygon fill="#232734" points="46.193,31.557 46.225,31.596 46.174,31.708 46.12,31.709 46.102,31.644 	"/>
	<polygon fill="#232734" points="47.209,32.326 47.15,32.352 47.131,32.198 47.191,32.177 	"/>
	<polygon fill="#232734" points="40.111,28.966 40.234,29.016 40.32,29.224 40.341,29.216 40.055,29.074 40.066,29.106 
		40.141,28.955 	"/>
	<polygon fill="#232734" points="48.113,32.794 47.986,32.803 47.904,32.712 47.932,32.674 48.052,32.684 	"/>
	<polygon fill="#232734" points="40.598,29.68 40.773,29.768 40.803,29.94 40.822,29.932 40.645,29.845 40.617,29.672 	"/>
	<polygon fill="#232734" points="40.803,29.94 40.975,30.031 41.006,30.203 41.029,30.193 40.855,30.103 40.822,29.932 	"/>
	<polygon fill="#232734" points="45.174,32.486 45.301,32.546 45.389,32.651 45.326,32.664 45.205,32.604 45.193,32.478 	"/>
	<polygon fill="#232734" points="42.773,32.375 42.725,32.406 42.669,32.403 42.676,32.28 42.773,32.247 42.792,32.31 	"/>
	<polygon fill="#232734" points="39.539,23.266 39.465,23.421 39.383,23.192 	"/>
	<polygon fill="#232734" points="39.047,24.154 39.018,24.111 39.082,24.074 39.1,24.129 	"/>
	<polygon fill="#232734" points="39.734,27.173 39.73,27.23 39.688,27.204 	"/>
	<polygon fill="#232734" points="40.625,27.751 40.639,27.806 40.57,27.767 	"/>
	<polygon fill="#232734" points="45.255,30.421 45.249,30.471 45.214,30.45 	"/>
	<polygon fill="#232734" points="39.857,28.164 39.768,28.073 39.816,28.042 39.831,28.173 	"/>
	<polygon fill="#232734" points="39.831,28.173 39.906,28.369 39.919,28.364 39.857,28.164 	"/>
	<polygon fill="#232734" points="39.994,28.559 39.919,28.364 39.906,28.369 39.971,28.568 	"/>
	<polygon fill="#232734" points="39.971,28.568 40.041,28.765 40.07,28.753 39.994,28.559 	"/>
	<polygon fill="#232734" points="40.141,28.955 40.07,28.753 40.041,28.765 40.111,28.966 	"/>
	<polygon fill="#232734" points="48.717,33.135 48.702,33.069 48.766,33.048 48.781,33.114 	"/>
	<polygon fill="#232734" points="49.302,33.367 49.25,33.365 49.277,33.323 	"/>
	<polygon fill="#232734" points="43.171,31.871 43.254,31.974 43.195,31.992 43.191,31.864 	"/>
	<polygon fill="#232734" points="42.104,31.699 42.166,31.813 42.122,31.801 42.127,31.69 	"/>
	<polygon fill="#232734" points="33.26,48.374 34.15,47.357 34.352,47.365 34.602,47.327 34.935,46.939 35.155,46.561 
		35.333,46.438 35.456,46.459 35.464,46.527 35.231,46.982 34.696,47.58 34.344,47.943 34.188,47.854 34.203,47.781 34.195,47.711 
		34.156,47.708 33.601,48.38 33.292,48.688 33.147,48.63 33.135,48.497 	"/>
	<polygon fill="#232734" points="31.021,50.738 31.215,50.839 31.248,50.9 30.6,51.365 29.625,51.871 28.773,52.288 28.098,52.57 
		27.981,52.505 28.001,52.376 28.532,52.139 29.082,51.934 29.345,51.805 30.357,51.23 30.928,50.898 31.055,50.725 	"/>
	<polygon fill="#232734" points="37.123,41.945 37.198,42.059 37.156,42.643 37.131,42.93 37.043,43.038 36.85,43.338 
		36.667,43.967 36.589,44.174 36.458,44.191 36.211,44.643 35.782,45.021 35.748,44.984 35.743,44.916 36.169,44.232 36.325,43.986 
		36.887,42.782 36.93,42.568 	"/>
	<polygon fill="#232734" points="27.273,51.754 26.834,52.016 26.772,52.051 26.716,51.918 26.803,51.807 28.207,51.032 
		29.015,50.542 29.116,50.564 29.118,50.634 28.994,50.809 28.036,51.334 	"/>
	<polygon fill="#232734" points="32.097,49.902 32.028,49.893 31.091,50.616 31.021,50.738 31.055,50.725 30.705,50.791 
		30.58,50.777 30.661,50.594 30.722,50.551 30.965,50.385 31.417,50.023 32.44,49.186 32.54,49.212 32.545,49.281 32.375,49.518 
		32.064,49.916 	"/>
	<polygon fill="#232734" points="32.064,49.916 32.201,49.905 33.342,48.998 33.449,49.008 33.457,49.076 33.387,49.203 
		32.693,49.844 32.16,50.221 32.035,50.169 32.012,50.104 32.037,50.036 32.097,49.902 	"/>
	<polygon fill="#232734" points="35.016,45.73 35.228,45.727 35.3,45.814 35.245,45.947 35.137,46.135 34.674,46.689 34.542,46.742 
		34.472,46.739 34.449,46.611 34.516,46.482 34.852,46.113 35.044,45.721 	"/>
	<polygon fill="#232734" points="28.011,49.482 28.217,49.457 28.654,49.204 28.725,49.211 28.74,49.279 28.65,49.471 27.86,49.997 
		27.793,49.984 27.745,49.886 28.042,49.471 	"/>
	<polygon fill="#232734" points="31.508,48.53 31.249,49.119 31.003,49.374 30.739,49.616 30.632,49.62 30.625,49.55 30.717,49.355 
		30.86,49.195 31.013,49.045 31.204,48.828 31.353,48.672 	"/>
	<polygon fill="#232734" points="32.345,48.672 32.442,48.473 33.053,47.87 33.123,47.852 33.138,47.973 33.049,48.167 
		32.439,48.768 32.333,48.805 	"/>
	<polygon fill="#232734" points="31.648,49.359 31.596,49.247 31.976,48.927 32.108,48.954 32.113,49.08 31.717,49.377 	"/>
	<polygon fill="#232734" points="26.224,52.795 26.196,52.844 25.524,53.036 25.47,53.004 25.444,52.941 26.179,52.746 	"/>
	<polygon fill="#232734" points="24.116,52.229 23.732,52.514 23.619,52.439 23.609,52.383 23.722,52.134 23.772,52.109 
		24.112,52.219 	"/>
	<polygon fill="#232734" points="32.227,47.84 32.22,48.052 31.79,48.406 31.721,48.412 31.708,48.287 32.164,47.848 32.234,47.855 
			"/>
	<polygon fill="#232734" points="24.258,52.725 24.248,52.662 24.346,52.572 24.765,52.566 24.837,52.662 24.787,52.71 	"/>
	<polygon fill="#232734" points="29.934,50.15 29.896,50.107 29.895,50.043 30.224,49.786 30.276,49.784 30.271,49.922 	"/>
	<polygon fill="#232734" points="25.359,51.66 25.724,51.379 25.761,51.413 25.768,51.479 25.362,51.667 	"/>
	<polygon fill="#232734" points="25.967,52.223 25.956,52.157 26.255,51.995 26.296,52.032 26.299,52.098 26.013,52.255 	"/>
	<polygon fill="#232734" points="25.63,52.364 25.389,52.475 25.281,52.4 25.335,52.311 25.598,52.303 	"/>
	<polygon fill="#232734" points="30.698,48.967 30.64,48.993 30.613,48.893 30.709,48.841 30.729,48.905 	"/>
	<polygon fill="#232734" points="29.867,49.268 29.765,49.299 29.703,49.193 29.771,49.175 29.836,49.206 	"/>
	<polygon fill="#232734" points="29.291,49.835 29.17,49.841 29.101,49.734 29.228,49.736 	"/>
	<polygon fill="#232734" points="28.733,49.913 28.564,49.846 28.581,49.797 28.746,49.861 	"/>
	<polygon fill="#232734" points="29.325,51.475 29.314,51.6 29.211,51.615 29.222,51.493 	"/>
	<polygon fill="#232734" points="26.663,50.938 26.625,50.881 26.718,50.841 26.793,50.943 	"/>
	<polygon fill="#232734" points="27.142,51.037 27.178,51.134 27.114,51.146 27.029,51.055 	"/>
	<polygon fill="#232734" points="24.112,52.219 24.181,52.1 24.294,52.052 24.247,52.227 24.116,52.229 	"/>
	<polygon fill="#232734" points="27.936,50.55 27.909,50.511 27.976,50.477 27.995,50.533 	"/>
	<polygon fill="#232734" points="28.467,51.859 28.483,51.913 28.414,51.874 	"/>
	<polygon fill="#232734" points="27.441,52.225 27.494,52.234 27.471,52.27 	"/>
	<polygon fill="#232734" points="25.362,51.667 25.269,51.743 25.238,51.659 25.359,51.66 	"/>
	<polygon fill="#232734" points="22.915,52.658 22.991,52.502 23.054,52.602 	"/>
	<polygon fill="#232734" points="27.821,26.649 27.853,26.731 27.786,26.849 27.453,26.956 27.354,26.944 26.984,26.553 
		26.957,26.486 27.057,26.436 27.472,26.586 	"/>
	<polygon fill="#232734" points="20.946,22.391 20.979,22.562 21.153,22.65 21.165,22.781 21.382,22.956 21.409,23.018 
		21.305,23.064 20.77,22.609 20.814,22.422 	"/>
	<polygon fill="#232734" points="31.323,26.792 31.284,26.851 30.592,26.917 30.55,26.866 30.559,26.815 31.256,26.744 
		31.318,26.778 	"/>
	<polygon fill="#232734" points="21.899,23.631 21.951,23.586 22.018,23.595 22.392,23.922 22.417,23.989 22.287,23.998 
		21.979,23.818 	"/>
	<polygon fill="#232734" points="30.057,26.912 30.009,26.955 29.599,26.951 29.556,26.896 29.614,26.801 30.022,26.849 	"/>
	<polygon fill="#232734" points="29.222,27.094 28.833,26.913 28.762,26.808 28.83,26.788 29.181,26.835 29.248,26.973 
		29.193,27.106 	"/>
	<polygon fill="#232734" points="20.142,22.683 20.579,22.939 20.593,23.077 20.484,23.103 20.16,22.811 20.153,22.678 	"/>
	<polygon fill="#232734" points="32.322,26.425 32.139,26.31 32.142,26.178 32.261,26.13 32.351,26.228 32.293,26.436 	"/>
	<polygon fill="#232734" points="19.862,22.227 20.165,22.621 20.142,22.683 20.153,22.678 19.859,22.344 19.88,22.221 	"/>
	<polygon fill="#232734" points="26.638,25.934 26.721,26.035 26.564,26.136 26.481,26.033 	"/>
	<polygon fill="#232734" points="23.895,25.449 23.775,25.49 23.682,25.391 23.712,25.26 23.847,25.267 23.9,25.311 	"/>
	<polygon fill="#232734" points="24.032,26.095 23.971,26.134 23.756,26.04 23.793,25.927 23.864,25.929 24.042,26.044 	"/>
	<polygon fill="#232734" points="32.937,25.756 33.002,25.789 33.148,25.926 32.967,26.022 32.901,26.012 32.881,25.944 
		32.968,25.745 	"/>
	<polygon fill="#232734" points="22.958,24.478 22.778,24.39 22.764,24.288 22.833,24.279 23.012,24.391 23.042,24.457 	"/>
	<polygon fill="#232734" points="26.089,25.924 25.97,25.984 25.903,25.978 25.89,25.867 26.059,25.822 	"/>
	<polygon fill="#232734" points="26.778,26.614 26.867,26.713 26.705,26.756 26.582,26.685 26.555,26.621 26.645,26.563 	"/>
	<polygon fill="#232734" points="24.827,26.026 24.75,25.919 24.864,25.901 24.993,25.965 25.031,26.063 24.962,26.078 	"/>
	<polygon fill="#232734" points="26.07,26.439 25.97,26.518 25.722,26.407 25.691,26.345 25.758,26.322 26.077,26.459 	"/>
	<polygon fill="#232734" points="27.426,26.257 27.39,26.15 27.523,26.156 27.56,26.26 	"/>
	<polygon fill="#232734" points="29.427,27.357 29.254,27.267 29.222,27.094 29.193,27.106 29.312,27.16 29.401,27.368 	"/>
	<polygon fill="#232734" points="23.343,24.757 23.378,24.727 23.487,24.826 23.428,24.839 	"/>
	<polygon fill="#232734" points="24.175,25.136 24.139,25.174 24.018,25.122 24.009,25.064 24.145,25.073 	"/>
	<polygon fill="#232734" points="25.108,25.597 24.984,25.6 24.919,25.5 25.045,25.497 25.092,25.537 	"/>
	<polygon fill="#232734" points="21.894,24.79 21.866,24.729 21.958,24.698 22.027,24.8 	"/>
	<polygon fill="#232734" points="23.248,25.688 23.145,25.715 23.066,25.628 23.162,25.594 23.219,25.625 	"/>
	<polygon fill="#232734" points="26.125,27.237 26.104,27.13 26.199,27.082 26.213,27.146 26.19,27.211 	"/>
	<polygon fill="#232734" points="26.586,27.253 26.621,27.29 26.516,27.406 26.497,27.342 	"/>
	<polygon fill="#232734" points="22.952,26.14 23.133,26.07 23.218,26.16 23.186,26.197 23.124,26.209 22.943,26.109 	"/>
	<polygon fill="#232734" points="26.024,27.481 25.913,27.5 25.866,27.402 25.932,27.387 25.998,27.414 	"/>
	<polygon fill="#232734" points="23.958,26.688 23.837,26.688 23.768,26.588 23.891,26.589 	"/>
	<polygon fill="#232734" points="31.597,26.575 31.518,26.454 31.566,26.46 31.57,26.586 	"/>
	<polygon fill="#232734" points="30.854,26.474 30.902,26.478 30.879,26.513 	"/>
	<polygon fill="#232734" points="19.515,21.571 19.59,21.673 19.535,21.688 19.533,21.564 	"/>
	<polygon fill="#232734" points="29.786,26.469 29.729,26.464 29.758,26.419 	"/>
	<polygon fill="#232734" points="19.88,22.221 19.803,22.115 19.861,22.102 19.862,22.227 	"/>
	<polygon fill="#232734" points="28.462,26.387 28.449,26.326 28.509,26.307 28.525,26.371 	"/>
	<polygon fill="#232734" points="21.384,24.147 21.315,24.182 21.294,24.124 21.354,24.109 	"/>
	<polygon fill="#232734" points="26.077,26.459 26.178,26.382 26.201,26.438 26.07,26.439 	"/>
	<polygon fill="#232734" points="27.821,27.268 27.74,27.172 27.823,27.146 27.816,27.27 	"/>
	<polygon fill="#232734" points="27.239,27.476 27.163,27.383 27.213,27.367 27.212,27.485 	"/>
	<polygon fill="#232734" points="27.212,27.485 27.289,27.577 27.241,27.596 27.239,27.476 	"/>
	<polygon fill="#232734" points="24.38,26.435 24.348,26.393 24.419,26.355 24.444,26.416 	"/>
	<polygon fill="#232734" points="25.074,26.658 25.095,26.725 25.007,26.676 	"/>
	<polygon fill="#232734" points="25.625,26.977 25.566,26.989 25.601,26.922 	"/>
	<polygon fill="#232734" points="25.306,27.292 25.234,27.331 25.212,27.271 25.274,27.253 	"/>
	<polygon fill="#232734" points="25.447,24.193 25.193,24.042 25.155,23.98 25.264,23.939 25.977,24.299 26.012,24.362 
		25.904,24.403 	"/>
	<polygon fill="#232734" points="23.206,22.821 23.008,22.673 22.934,22.475 22.965,22.432 23.032,22.436 23.409,22.773 
		23.44,22.838 23.316,22.856 	"/>
	<polygon fill="#232734" points="20.838,20.81 20.769,20.825 20.427,20.507 20.42,20.439 20.543,20.426 20.818,20.742 	"/>
	<polygon fill="#232734" points="27.188,24.287 26.981,24.087 26.965,23.976 27.104,23.984 27.284,24.188 27.26,24.256 	"/>
	<polygon fill="#232734" points="22.025,22.212 21.952,22.043 22.113,21.985 22.191,22.147 	"/>
	<polygon fill="#232734" points="21.039,21.458 20.933,21.504 20.865,21.277 20.93,21.268 21.04,21.34 	"/>
	<polygon fill="#232734" points="22.924,22.993 22.884,23.042 22.789,22.998 22.764,22.935 22.788,22.828 22.851,22.831 
		22.933,22.929 	"/>
	<polygon fill="#232734" points="26.844,24.852 26.743,24.714 26.942,24.716 27.004,24.748 27.062,24.784 27.087,24.847 
		27.002,24.904 	"/>
	<polygon fill="#232734" points="24.49,23.126 24.43,23.155 24.439,23.021 24.502,22.994 	"/>
	<polygon fill="#232734" points="28.875,25.22 28.769,25.227 28.73,25.145 28.79,25.134 28.847,25.162 	"/>
	<polygon fill="#232734" points="27.521,24.908 27.557,24.945 27.507,25.063 27.452,25.065 27.428,24.999 	"/>
	<polygon fill="#232734" points="24.526,23.654 24.5,23.693 24.375,23.66 24.359,23.595 24.425,23.576 	"/>
	<polygon fill="#232734" points="21.526,21.335 21.494,21.292 21.567,21.255 21.593,21.317 	"/>
	<polygon fill="#232734" points="29.232,24.906 29.164,24.931 29.149,24.862 29.215,24.835 	"/>
	<polygon fill="#232734" points="20.171,20.893 20.264,20.811 20.292,20.895 20.169,20.886 	"/>
	<polygon fill="#232734" points="22.042,21.631 22.051,21.685 21.99,21.647 	"/>
	<polygon fill="#232734" points="25.221,23.348 25.16,23.357 25.138,23.298 25.2,23.289 	"/>
	<polygon fill="#232734" points="21.52,21.779 21.462,21.793 21.444,21.738 	"/>
	<polygon fill="#232734" points="25.396,23.567 25.395,23.613 25.356,23.587 	"/>
	<polygon fill="#232734" points="28.171,24.949 28.145,24.882 28.212,24.867 28.238,24.932 	"/>
	<polygon fill="#232734" points="22.472,22.531 22.452,22.566 22.386,22.506 22.442,22.494 	"/>
	<polygon fill="#232734" points="24.086,23.282 24.066,23.323 23.98,23.256 24.047,23.241 	"/>
	<polygon fill="#232734" points="23.294,23.253 23.205,23.261 23.206,23.212 23.268,23.197 	"/>
	<polygon fill="#232734" points="23.803,23.465 23.797,23.522 23.755,23.496 	"/>
	<polygon fill="#232734" points="24.362,23.961 24.364,23.909 24.405,23.935 	"/>
	<polygon fill="#232734" points="24.884,24.173 24.938,24.178 24.914,24.219 	"/>
	<polygon fill="#232734" points="25.37,24.401 25.307,24.419 25.352,24.337 	"/>
	<polygon fill="#232734" points="38.717,53.704 38.746,53.764 38.747,53.905 38.744,54.124 38.566,54.902 38.457,54.977 
		38.413,54.921 38.369,54.784 38.654,53.742 	"/>
	<polygon fill="#232734" points="38.869,52.911 38.751,52.98 38.725,52.913 38.775,52.414 38.824,52.365 38.908,52.417 
		38.918,52.777 	"/>
	<polygon fill="#232734" points="39.609,51.632 39.486,51.898 39.379,51.959 39.307,51.837 39.294,51.766 39.48,51.615 
		39.62,51.663 	"/>
	<polygon fill="#232734" points="39.777,50.24 39.715,50.372 39.611,50.469 39.541,50.355 39.521,50.213 39.589,50.094 
		39.693,50.152 39.785,50.266 	"/>
	<polygon fill="#232734" points="39.518,50.637 39.576,51.021 39.466,51.043 39.459,50.664 	"/>
	<polygon fill="#232734" points="38.993,51.205 39.049,51.246 39.076,51.586 39.001,51.67 38.898,51.591 38.887,51.523 
		39.018,51.197 	"/>
	<polygon fill="#232734" points="39.373,52.432 39.424,52.682 39.331,52.766 39.293,52.709 39.24,52.516 39.323,52.419 	"/>
	<polygon fill="#232734" points="39.055,50.736 39.133,50.898 38.993,51.205 39.018,51.197 38.943,51.033 39.075,50.729 	"/>
	<polygon fill="#232734" points="39.785,50.266 40.005,50.229 40.033,50.29 39.969,50.311 39.777,50.24 	"/>
	<polygon fill="#232734" points="39.62,51.663 39.85,51.621 39.875,51.688 39.809,51.71 39.609,51.632 	"/>
	<polygon fill="#232734" points="39.443,53.634 39.396,53.535 39.488,53.45 39.51,53.613 	"/>
	<polygon fill="#232734" points="39.189,53.562 39.088,53.613 39.072,53.545 39.165,53.453 39.199,53.495 	"/>
	<polygon fill="#232734" points="39.006,54.318 38.909,54.345 38.926,54.216 39.021,54.197 	"/>
	<polygon fill="#232734" points="38.891,54.809 38.881,54.936 38.781,54.956 38.791,54.838 	"/>
	<polygon fill="#232734" points="40.021,49.314 39.968,49.32 39.95,49.271 40.004,49.264 	"/>
	<polygon fill="#232734" points="39.922,50.846 39.941,50.908 39.877,50.925 	"/>
	<polygon fill="#232734" points="39.707,52.427 39.668,52.452 39.635,52.387 39.689,52.369 	"/>
	<polygon fill="#232734" points="44.391,54.327 44.227,54.376 44.076,54.227 44.134,54.074 44.354,54.163 	"/>
	<polygon fill="#232734" points="44.604,55.042 44.665,55.062 44.755,55.324 44.674,55.426 44.618,55.415 44.439,55.193 
		44.535,55.051 	"/>
	<polygon fill="#232734" points="41.549,49.277 41.438,49.332 41.41,49.266 41.398,49.047 41.447,48.943 41.566,49.002 	"/>
	<polygon fill="#232734" points="40.938,48.518 40.971,48.453 41.107,48.316 41.201,48.492 41.188,48.553 41.121,48.57 
		40.926,48.484 	"/>
	<polygon fill="#232734" points="42.027,49.984 41.807,50.018 41.783,49.958 41.848,49.938 42.036,50.016 	"/>
	<polygon fill="#232734" points="42.314,50.604 42.244,50.583 42.169,50.473 42.298,50.47 42.374,50.577 	"/>
	<polygon fill="#232734" points="42.137,51.186 41.957,51.1 41.93,51.04 42.018,50.996 42.113,51.191 	"/>
	<polygon fill="#232734" points="42.697,51.961 42.783,52.052 42.639,52.066 42.615,52.007 	"/>
	<polygon fill="#232734" points="43.219,52.673 43.137,52.768 42.977,52.688 42.979,52.643 43.105,52.643 43.229,52.701 	"/>
	<path fill="#232734" d="M40.699,47.582l0.223-0.082L40.699,47.582z"/>
	<polygon fill="#232734" points="40.988,47.936 40.916,47.975 40.893,47.913 40.957,47.895 	"/>
	<polygon fill="#232734" points="42.113,51.191 42.186,51.287 42.139,51.3 42.137,51.186 	"/>
	<polygon fill="#232734" points="43.098,53.143 43.111,53.202 43.038,53.159 	"/>
	<polygon fill="#232734" points="41.247,55.867 41.343,55.794 41.354,55.844 41.236,55.839 	"/>
	<polygon fill="#232734" points="33.295,26.392 33.494,26.321 33.692,26.248 33.739,26.545 33.709,26.608 33.312,26.75 
		33.16,26.678 	"/>
</g>
</svg>
