<?xml version="1.0" encoding="utf-8"?>
<!-- Generator: Adobe Illustrator 15.0.2, SVG Export Plug-In . SVG Version: 6.00 Build 0)  -->
<!DOCTYPE svg PUBLIC "-//W3C//DTD SVG 1.1//EN" "http://www.w3.org/Graphics/SVG/1.1/DTD/svg11.dtd">
<svg version="1.1" id="Layer_1" xmlns="http://www.w3.org/2000/svg" xmlns:xlink="http://www.w3.org/1999/xlink" x="0px" y="0px"
	 width="64.558px" height="64.558px" viewBox="0 0 64.558 64.558" enable-background="new 0 0 64.558 64.558" xml:space="preserve">
<g id="babyonion3">
	<path fill="#232734" d="M20.557,46.038l-0.633-0.807L18.72,43.69l-0.657-0.877l-0.617-0.759l-0.503-0.964l-0.363-0.9l-0.378-0.768
		l-0.223-0.693l-0.315-1.045l-0.269-1.312l-0.43-0.857l-0.048-1.487l0.173-0.698l-0.093-0.228l0.044-1.331l-0.021-0.345
		l-0.022-0.604l0.211-2.185l0.013-0.13l0.291-1.043l0.393-1.019l0.056-0.378l2.304-3.869l1.062-1.337l1.82-1.823l2.239-1.691
		l0.867-0.447l0.99-0.475l1-0.443l0.609-0.356l0.364,0.112l0.931-0.299l0.341-0.121l1.426-0.301l0.945-0.217l0.862-0.232
		l4.295-0.011l0.458,0.194l1.463,0.057l0.657,0.227l2.759,0.946l1.346,0.572l3.023,1.583l0.973,0.735l0.843,0.705l0.263,0.25
		l0.859,1.028l1.275,1.79l0.927,1.857l0.317,0.661l0.895,2.261l0.157,0.338l0.226,1.441l0.047,0.483l0.003,4.295l-0.137,0.841
		l-0.079,0.603l-0.171,0.833l-0.062,0.234l-0.255,1.188l-0.059,0.476l-0.461,1.008l-0.992,1.966l-1.223,1.83l-0.753,0.962
		l-0.765,0.797l-0.682,0.863l-0.718,0.664l-0.475,0.382l-1.754,1.32l-0.505,0.34l-0.874,0.423l-0.331,0.143l-0.992,0.451
		l-1.643,0.417l-1.351,0.415l-1.147,0.081l-2.428,0.208l-1.059,0.247l-2.698-0.046l-0.475-0.095l-0.355-0.084l-0.854-0.07
		l-0.942-0.236l-0.812-0.242l-0.938-0.255l-0.449-0.185l-1.231-0.517l-0.119-0.027L23.27,48.02L21.9,47L20.557,46.038L20.557,46.038
		z M23.028,45.486l0.18-0.101l0.063-0.202l-0.238-0.154l-0.249-0.251l0.066-0.359l0.564-0.213l-0.057-0.22l-0.936-0.965
		l-1.198-1.687l-1.152-2.288l-0.377-1.028l-0.081-0.353l-0.302-1.304l-0.316-1.169l-0.136-1.208l-0.083-0.508l-0.25-0.199
		l-0.548,0.275l0.093,0.46l-0.169,0.449l-0.176,0.077l0.01,0.068l0.133-0.177l0.671-0.113l0.005,0.222l-0.358,0.307l-0.101,0.452
		l-0.468,0.403l-0.181-0.444l-0.062-0.868l-0.463-0.555l-0.057-0.483L16.7,32.905l0.573-0.58l0.233-0.066l0.339,0.461l0.731,0.151
		l0.292-0.323l-0.001-0.772l-0.009-0.606l-0.059-0.746l0.5-0.471l0.276-1.162l0.33-1.276l0.386-0.622l0.084-0.549l0.702-1.238
		l1.093-1.75l0.509-0.686l1.289-1.127l1.724-1.367l0.194-0.149l1.744-1.269l0.956-0.359l0.222-0.367l0.441-0.033l0.792-0.415
		l0.25,0.107l0.225-0.1l0.577,0.045l-0.501-0.791l-0.406-0.18l0.253-0.55l0.667-0.207l0.037-0.237l-0.204-0.108l-0.607,0.025
		l-0.833,0.169l-0.469,0.117l-0.698,0.196l-0.805,0.278l-0.708,0.266l0.366,0.283l-0.316,0.172l-1.474,0.852l-0.313-0.06
		l0.617-0.744l-0.224-0.06l-0.947,0.549l-1.077,0.57l-0.988,0.708l-1.315,1.092l-0.072,0.22l-0.354,0.031l-0.773,0.755l-0.088,0.212
		l-0.217,0.09l-0.669,0.86l-1.12,1.87l-0.349,0.64l-1.029,2.068l-0.225,0.685L16,28.21l-0.095,0.594l-0.154,0.584l-0.26,1.303
		l-0.021,0.24l0.111,0.702l-0.117,0.341v1.994l0.168,0.55l0.089,0.727l0.293,0.177l0.321-0.11l0.087-0.38l-0.029,0.025l0.673,0.067
		l-0.082,0.397l-0.308,0.176v0.599l-0.396-0.261l-0.266,0.173l0.177,0.431l0.09,0.064l0.111-0.046l0.249-0.405l0.9-0.474
		l0.112-0.019L17.634,36l-0.648,0.711l0.151,0.732l0.23,0.683l-0.082,0.211l-0.353-0.452l-0.373-0.88l-0.26,0.313l0.373,1.396
		l0.729,1.399l0.862,1.309l0.108,0.219l0.036,0.485l0.686,0.986l0.285,0.203l-0.04-0.041l0.199,0.556l0.968,1.067l0.979,1.061h0.23
		l0.277-0.422l0.577-0.048l0.163,0.257L23.028,45.486L23.028,45.486z M24.012,46.47l0.233-0.208l-0.236-0.295l-0.627,0.138
		l0.424,0.16l0.241,0.238l-0.175,0.086l0.058,0.063L24.012,46.47L24.012,46.47z M21.558,26.576l0.109-0.034l0.625-0.982v-0.462
		l0.119-0.01l0.629-0.805l-0.329-0.517l-0.118-0.002l-0.471,0.514l-0.03,0.448l0.237,0.406h-0.566l-0.173,0.169l-0.244,0.532
		l0.235,0.451v0.318l-0.403-0.214l0.051,0.555l-0.563,0.551l0.227,0.276l0.196,0.298l-0.679,0.116l-0.025,0.232l0.381,0.743
		l-0.549,0.579l1.443,0.066l0.292,0.207l0.527,0.191l0.801-1.484l-0.138-0.19l-0.206-0.133l-0.466,0.787l-0.332-0.274l0.089-0.23
		l-0.338-0.243l-0.427,0.575l-0.116,0.013l-0.238-0.321l0.141-0.308l-0.177-0.341l0.112-0.032l0.365-0.979l0.039-0.233
		L21.558,26.576L21.558,26.576z M42.446,17.75l1.255-0.026v0.431l0.743,0.28l0.1-0.047l0.004-0.083l-0.25-0.249l-0.324-0.139
		l-0.307-0.161l-0.034-0.116l-1.618-0.835l-1.381-0.521l-0.35-0.03l-0.336-0.131l-1.406-0.392l-0.566-0.197l-0.625-0.001l-1.197-0.2
		L35.3,15.315l-0.098,0.062l-0.004,0.314l0.704,0.317l1.646,0.04l0.688,0.308l-0.005,0.246l-0.326,0.078l-0.709-0.169l-0.961-0.145
		l-0.34,0.053l-0.93-0.305L34.243,16.1l-0.037,0.075l0.088,0.226l-0.148,0.19l-0.324,0.033l-0.181,0.07l0.396,0.578l1.527,0.428
		l1.072,0.068l0.366,0.173l0.351,0.032l0.732,0.062l1.028,0.377l1.489,0.72l0.279,0.33l0.967,0.569l0.477,0.324l0.293-0.184
		l0.158-0.583l0.381-0.293l0.279-0.527l-0.07-0.215l-0.096,0.002l-0.487,0.348l-0.287-0.339l0.382-0.475l-0.326-0.151l-0.09-0.204
		L42.446,17.75L42.446,17.75z M49.071,27.343l0.798-0.289l0.06-0.379L49.7,26.762l-0.119,0.012l-0.192-0.243l0.327-0.507
		l0.084-0.221L49.69,25.47l0.545,0.053l0.261-0.274l-0.313-0.175l-0.275-0.521l-0.009-0.106l0.174-0.459l-0.517-0.931l-0.21-0.3
		l-1.452-1.947l-0.158-0.185l-0.594-0.587l-1.104-0.968L45.815,19l-0.42,0.213l-0.226-0.078l-0.218-0.096l-0.256,0.191l0.203,0.821
		l-0.135,0.282l-0.602-0.145l0.021,0.021l-0.137-0.182l-0.444-0.016l-0.105,0.098l-0.223,0.694l0.389,0.233l0.141,0.358l1.52,1.608
		l1.072,1.889l0.429,0.736l0.583,1.199l0.828,1.755l0.084,0.089l0.197,0.02l0.047-0.222l-0.188-0.289l0.226-0.436l0.455-0.324
		l0.049-0.111L49.071,27.343L49.071,27.343z M35.31,48.226l0.262,0.204L35.394,48.7l-0.211,0.106l0.126,0.46l-0.347,0.574
		l0.105,0.061l1.326-0.011l0.371-0.171l0.835-0.051l0.824-0.208l1.552-0.291l0.229-0.077l2.982-1.391l1.824-1.228l2.337-2.34
		l1.433-1.715l0.909-1.367l1.455-3.111l0.162-0.583l0.253-1.064l0.107-0.346l0.128-0.595l0.036-0.713l0.152-0.363l0.006-4.978
		l-0.182-0.625l-0.16-0.673l-0.441-0.268l-0.031-0.064l0.123-0.617l-0.143-0.128l-0.266,0.364l-1.016,0.136l0.445,0.317
		l-0.025,0.232l-0.533,0.292l-0.448-0.169l-0.172,0.11l0.466,0.346l0.486,0.012l0.172,0.269l-0.628,0.686l-0.562-0.215l-0.115-0.447
		l0.144,0.42l-0.144,0.439l0.48,0.314l0.336,0.085v0.248l-0.139,0.219l-0.723,0.624l0.117,2.016l-0.156,0.634l-0.078,1.22
		l-0.23,1.314L48.3,37.449l-0.307,0.922l-0.112,0.344l-0.321,1.042l-0.298,0.732l-1.704,2.218l-1.256,0.804l-0.389,0.069
		l-5.205,2.636l-0.688,0.189l-0.277,0.249l-0.328,0.498l-0.58-0.03l-0.453-0.328l-0.744,0.198l-0.665,0.234l-0.388-0.214
		l-1.124,0.141l-1.816-0.053l-0.72-0.121l-0.601-0.077l-0.954-0.177l-0.468-0.128l-1.775-0.38l-0.239-0.041l-1.166-0.619
		l-0.329,0.096l-0.645-0.373l-0.129-0.44l-0.25-0.056l-0.28,0.359l0.007,0.337l0.69-0.242l-0.172,0.818l-0.051,0.227l0.024,0.79
		l0.12,0.316L24.097,47.4l-0.456-0.355l-0.293,0.098l0.228,0.267l1.105,0.755l1.328,0.585l1.773,0.66l2.199,0.493l1.67,0.062
		l0.365-0.013l0.309-0.108l0.098-0.257l1.099-1.05l-0.104-0.223l0.442-0.1l-0.012-0.014l0.128,0.425l0.427-0.178l0.705-0.021
		l0.238-0.234L35.31,48.226L35.31,48.226z M24.014,36.924l-0.086-0.19l-0.063,0.062l0.181,0.097l-0.023,0.433l0.758,1.594
		l1.108,1.603l0.551,0.181l0.136-0.553l0.287-0.249l0.259-0.018l0.187,0.433l0.148,0.594l-0.188,0.303l1.067,0.525l1.034,0.355
		l1.029,0.424h1.267l0.42-0.168l2.271-0.065l0.926-0.415l0.992-0.486l0.031-0.338l0.154-0.136l0.428,0.161l0.521-0.307l0.25-0.574
		l0.632,0.128l0.782-0.47l0.883-0.514l1.209-1.112l0.812-1.377l0.674-1.562l0.031-0.117l0.237-0.939l0.042-2.935l-0.07-0.853
		l-0.306-0.924l-1.724-3.589l-0.146-0.058l-0.239-0.012l-0.447-0.128l-0.684-0.813l-0.142-0.024l-0.536,0.244l-0.328-0.117
		l0.167-0.521l-1.832-0.603l-0.883-0.219l-1.282-0.088l-1.442-0.189l-1.265-0.002l-0.906,0.228l-0.945,0.218l-0.91,0.35
		l-1.121,0.473l-1.578,0.908l-0.393,0.287l-0.611,0.594l-0.587,0.78l-0.249,0.413l-0.693,1.437l-0.047,0.476l0.033-0.038l-0.445,0.4
		L23.253,30.5l-0.205,0.562l0.003,2.687l0.078,0.597l0.195,1.162l0.204,0.469l0.238,0.424l0.335,0.022l0.114,0.375L24.014,36.924
		L24.014,36.924z M19.862,33.695l-0.272,0.198l-0.146,0.464l0.277,1.06l0.27,0.225l0.214,0.2l-0.104,0.065l-0.237,0.36l0.221,0.716
		l0.062,0.655l1.379,2.778l1.622,2.556l0.532,0.223l0.705,0.263l0.858,0.416l0.314,0.518l0.949,0.548l1.922,1.037l0.379,0.002
		l0.12,0.025l1.284,0.461l4.145,0.05l1.472-0.036l0.239-0.084l0.261-0.245l0.553,0.015l0.814-0.254l-0.248-0.555l-0.984,0.371
		l-1.193,0.219l-0.357-0.314l0.668-0.182l0.556-0.244l0.571-0.335l-0.01-1.051l0.283,0.12l0.128,0.8l0.245,0.185l0.67,0.05
		l0.096,0.938l1.099-0.503l1.235-0.515l0.199-0.141l1.102-0.505l1.162-0.665l0.238-0.053l0.758-0.385l1.961-1.661l0.704-0.995
		l0.745-1.536l0.189-0.577l0.315-1.171l0.229-1.071l0.068-0.729l0.215-0.825l0.207-1.064l-0.045-0.966l-0.164-0.709l-0.16-0.293
		l-0.662-0.074l-0.02-0.619l0.562-0.205l-0.019-0.259l-0.415-0.21l-0.498-0.286l0.255-0.236l0.1,0.07l0.297-0.371l-0.225-0.667
		l-0.395-0.607l-0.718-1.68l-1.029-2.21l-1.328-1.747l-0.883-0.286l-0.24,0.012l-0.254-0.216l-0.003-0.393l-0.361-0.304l-1.346-0.82
		l-1.511-0.77l-0.11-0.051l-2.881-0.933l-0.111-0.053l-0.588-0.136l-1.23-0.037l-0.535-0.187l-0.875,0.164l-0.835,0.063L31.994,18.9
		l-0.118,0.017l-0.215-0.085l-0.402-0.278l-1.058,0.27l-0.512,0.947l0.162,0.132l0.306-0.346l0.428-0.02l0.096,0.22l0.128,0.206
		l-0.074,0.418l-0.708,0.491l-0.875-0.062l-0.215,0.349l-0.396-0.103l-0.199,0.363l-0.69-0.006l-0.737,0.066l-0.314,0.189
		l-0.115-0.007l-0.179-0.357l0.302-0.346l0.717,0.166l0.59-0.705l-0.574-0.429l-0.11-0.016l-1.516,0.995l-1.462,1.102l-1.371,1.217
		l0.288,0.549h0.222l2.049-2.075l0.46-0.519l-0.026,1.049l-0.693,0.174l-1.605,1.829l-0.093,0.722l-0.718,0.516l-0.178,0.267
		l-0.503,0.973v0.609l0.837,0.171l0.102-0.296l-0.671-0.3l0.634-0.699l-0.13-0.325l0.173-0.2l0.437-0.19l0.488-0.409l0.84-0.03
		l0.228-0.249l-0.031,0.03l0.458-0.357l0.308-0.137l-0.029-0.028l0.057,0.238l0.382,0.186l0.511-0.475l-0.207-0.543l0.364-0.302
		l0.162,0.283l0.072,0.357l0.367-0.105l1.524-0.733l1.294-0.334L31.32,22.7l1.574,0.082l0.718,0.129l0.824,0.214l0.98,0.038
		l0.943,0.219l1.064,0.232l1.026,0.358l2.023,1.025l0.827,0.75l0.787,1.42l0.328,0.65l0.479,1.121l0.32,1.037l0.246,1.313
		l0.129,0.614l-0.118,0.342v0.837l-0.226,1.562l-0.055,0.484l-0.182,0.57l0.123,0.18l0.338,0.043l0.328,0.209l0.143-0.187
		l0.477-0.241l0.457,0.367l-0.168,0.446v0.476l0.4,0.243l-0.023,0.318l-0.215,0.092l-0.451,0.211l-0.131,0.481l-0.326-0.483
		l-0.08-0.347l-0.207-0.09l-0.123,0.249l0.048,0.126l-0.37,0.495l-0.053,0.348l0.04-0.034h-0.36l-0.322-0.515l-0.474-0.389
		l-0.087,0.237l0.221,0.777l-0.338,0.624l-0.323-0.07l0.029-0.808l-0.804,1.039l-0.016,0.118l-0.247,0.248l-0.239,0.012
		l-0.824,0.512l-0.379,0.301l-0.598,0.526l-1.348,0.714l-0.903,0.354l-1.284,0.38l-0.59,0.139l-1.928,0.271l-0.476,0.178
		l-2.161,0.009l-2.162-0.859l-0.383,0.412l-0.36,0.273l-0.233-0.068l-0.295-0.127l-0.358,0.179l-0.238-0.257l0.393-0.463
		l0.546,0.143l0.074-0.355l-0.284-0.32l-0.239-0.011l0.033,0.042l-0.083-0.422l-1.073-0.706l-1.027-1.024l-0.458-0.716l-0.268-0.674
		l-0.575-1.592l-0.511-2.229l-0.06-0.232l-0.143-0.834l0.023-1.865l0.195-0.784l-0.13-0.176l-0.626,0.591l-0.214,0.091l-0.152-0.18
		l-0.003,0.079l0.189,0.065l-0.489,0.666l-0.13,0.455l-0.308-0.001l-0.057-0.449l0.181-0.318l-0.099-0.997l-0.535,0.586l0.04,0.871
		l-0.014,0.098l0.183,0.428l-0.116,0.585l-0.173,0.572L19.862,33.695L19.862,33.695z M33.264,16.354l-1.199-0.044l-0.938,0.214
		l-0.138,0.138l0.534,0.791l0.298-0.049l0.502-0.9l0.129,0.059l0.086,0.646l0.234-0.047l0.26-0.233l-0.06-0.249l0.231-0.227
		L33.264,16.354L33.264,16.354z M43.146,37.273l0.051-0.448l-0.578-0.376l-0.33,0.936L43.146,37.273L43.146,37.273z M25.19,25.713
		l-0.294-0.33l-0.562,0.315l-0.076,0.319l0.317,0.27L25.19,25.713L25.19,25.713z M28.819,19.916l0.474-0.539l0.01-0.083
		l-0.211-0.079l-0.855,0.417l0.043,0.46l0.099,0.014L28.819,19.916L28.819,19.916z M33.125,49.797l0.558,0.111l0.404-0.554
		l-0.064-0.382l-0.293,0.398l-0.531,0.21L33.125,49.797L33.125,49.797z M24.054,27.132l-0.038-0.461l-0.328-0.261l-0.335,0.596
		l0.277,0.231L24.054,27.132L24.054,27.132z M50.716,25.636l-0.588,0.589l0.546,0.098L51.003,26L50.716,25.636L50.716,25.636z
		 M33.113,15.388l0.464,0.344l0.205-0.083l0.012-0.225L33.72,15.32l-0.438-0.171L33.113,15.388L33.113,15.388z M43.937,19.436
		l0.109-0.03l0.092-0.202l-0.051-0.098l-0.205,0.036l-0.133,0.19L43.937,19.436L43.937,19.436z M32.337,15.421l-0.356-0.004
		L32.337,15.421L32.337,15.421z M22.562,46.529l-0.143,0.086l0.18,0.074l0.082-0.059L22.562,46.529L22.562,46.529z M22.447,27.899
		l-0.049,0.062l0.083,0.012L22.447,27.899L22.447,27.899z"/>
	<polygon fill="#232734" points="45.634,34.924 45.856,34.845 46.302,34.664 47.005,34.782 46.881,35.478 46.834,36.209 
		46.243,37.093 46.146,36.87 46.282,36.41 46.399,35.695 46.287,35.496 46.046,35.491 45.751,35.686 45.516,35.637 45.202,35.457 
		44.962,35.447 44.735,35.338 44.907,34.911 44.902,34.672 44.839,34.562 44.374,34.857 44.267,34.871 44.191,34.664 44.581,33.914 
		45.013,33.764 45.148,33.956 45.618,34.204 46.065,33.987 46.134,34.351 45.771,34.529 45.666,34.959 45.311,35.002 45.237,35.078 
		45.437,35.179 45.634,34.924 	"/>
	<polygon fill="#232734" points="48.099,32.377 47.954,32.723 47.544,33.171 47.272,33.689 46.743,33.077 46.354,33.721 
		45.562,33.721 45.413,33.539 45.719,32.629 46.011,31.736 46.741,31.342 47.048,31.875 46.485,32.387 47.43,32.446 47.774,32.246 
		48.099,32.377 	"/>
	<polygon fill="#232734" points="39.024,43.062 38.563,43.413 38.884,44.197 39.459,43.807 39.671,43.899 39.487,44.397 
		38.909,44.927 38.354,44.919 38.528,44.47 38.087,43.91 38.034,43.46 37.826,43.145 38.125,42.576 38.55,42.525 38.978,42.28 
		39.562,42.322 39.692,42.721 39.35,43.489 39.134,43.489 38.998,43.034 39.198,42.972 39.112,42.858 39.024,43.062 	"/>
	<polygon fill="#232734" points="40.229,41.348 40.429,41.251 40.597,40.941 40.911,40.946 40.989,41.17 40.735,41.552 
		40.862,41.979 41.116,41.788 41.245,41.058 41.758,40.586 41.981,40.329 41.942,40.365 42.191,40.577 42.179,41.132 41.575,41.441 
		41.151,42.45 40.288,43.014 40.037,42.829 40.46,41.963 40.265,41.679 40.265,41.305 40.229,41.348 	"/>
	<polygon fill="#232734" points="28.705,22.227 27.903,23.115 27.557,22.525 27.465,22.874 26.993,23.013 26.774,22.744 
		27.132,21.992 27.812,21.778 28.092,22.084 28.582,21.914 28.705,22.227 	"/>
	<polygon fill="#232734" points="26.485,22.978 26.081,23.483 26.156,23.808 25.347,24.049 25.115,23.854 25.081,23.729 
		25.368,22.726 26.317,22.652 26.485,22.978 	"/>
	<polygon fill="#232734" points="25.757,42.793 26.007,43.035 26.173,43.468 25.903,43.725 25.41,43.536 24.343,42.665 
		24.509,42.459 24.774,42.437 25.537,42.745 25.757,42.793 	"/>
	<polygon fill="#232734" points="37.168,20.114 37.071,20.183 35.999,20.138 35.121,19.822 35.368,19.471 36.079,19.509 
		37.143,20.03 37.168,20.114 	"/>
	<polygon fill="#232734" points="40.819,24.28 41.444,23.727 41.481,23.393 41.882,22.97 42.126,23.221 41.416,24.764 40.819,24.28 
			"/>
	<polygon fill="#232734" points="29.569,45.419 29.014,45.716 28.806,45.684 28.009,45.131 27.635,44.822 27.556,44.625 
		27.77,44.566 28.655,44.969 29.453,45.265 29.569,45.419 	"/>
	<polygon fill="#232734" points="40.966,21.414 41.03,22.018 41.107,22.102 41.565,22.175 41.606,22.569 40.646,22.413 
		40.524,22.286 40.524,21.558 40.989,21.439 40.966,21.414 	"/>
	<polygon fill="#232734" points="42.964,39.87 42.724,39.399 42.964,38.975 43.217,38.602 43.177,38.636 43.367,38.757 
		43.641,39.255 42.927,39.836 42.964,39.87 	"/>
	<polygon fill="#232734" points="39.8,23.443 40.37,23.741 40.431,23.964 40.132,24.092 39.901,23.968 39.603,24.098 39.31,23.948 
		39.337,23.72 39.8,23.443 	"/>
	<polygon fill="#232734" points="26.226,41.805 25.998,42.066 25.141,42.066 25.026,41.753 25.834,41.623 26.259,41.847 
		26.226,41.805 	"/>
	<polygon fill="#232734" points="25.024,24.854 24.68,24.854 24.383,24.63 24.243,24.443 24.396,23.905 24.632,23.925 
		24.992,24.651 24.993,24.885 25.024,24.854 	"/>
	<polygon fill="#232734" points="39.694,21.1 39.442,21.336 38.69,20.968 38.644,20.774 38.743,20.711 38.98,20.694 39.694,21.1 	
		"/>
	<polygon fill="#232734" points="43.772,24.432 44.011,24.184 44.396,24.605 44.399,25.194 44.328,25.288 44.239,25.239 
		43.772,24.432 	"/>
	<polygon fill="#232734" points="40.477,39.845 40.724,39.595 41.192,39.981 41.192,40.201 40.564,40.237 40.477,39.845 	"/>
	<polygon fill="#232734" points="42.067,43.289 41.96,42.94 42.313,42.614 42.54,42.604 42.662,42.891 42.067,43.289 	"/>
	<polygon fill="#232734" points="41.981,40.329 41.751,40.312 41.496,39.958 41.772,39.652 42.112,39.949 41.942,40.365 
		41.981,40.329 	"/>
	<polygon fill="#232734" points="40.265,41.305 39.97,41.483 39.649,41.569 39.886,40.911 40.229,41.348 40.265,41.305 	"/>
	<polygon fill="#232734" points="42.408,21.814 42.2,21.898 41.842,21.863 41.714,21.566 42.226,21.526 42.302,21.612 
		42.408,21.814 	"/>
	<polygon fill="#232734" points="31.734,45.372 32.113,45.748 31.897,45.954 31.783,45.932 31.734,45.372 	"/>
	<polygon fill="#232734" points="42.602,22.901 42.376,22.854 42.286,22.551 42.482,22.449 42.765,22.616 42.805,22.807 
		42.602,22.901 	"/>
	<polygon fill="#232734" points="41.175,23.058 41.171,23.267 40.862,23.343 40.562,23.025 41.175,23.058 	"/>
	<polygon fill="#232734" points="46.966,30.933 46.703,30.715 46.73,30.399 47.018,30.523 46.966,30.933 	"/>
	<polygon fill="#232734" points="20.772,34.442 20.529,34.633 20.389,34.348 20.569,34.221 20.772,34.442 	"/>
	<polygon fill="#232734" points="45.757,36.388 45.645,36.388 45.442,36.191 45.733,35.937 45.868,36.203 45.757,36.388 	"/>
	<polygon fill="#232734" points="21.436,38.488 21.768,38.887 21.644,39.021 21.345,38.697 21.436,38.488 	"/>
	<polygon fill="#232734" points="26.369,43.821 26.484,43.83 26.662,44.064 26.415,44.235 26.255,44 26.369,43.821 	"/>
	<polygon fill="#232734" points="37.342,43.928 37.528,43.808 37.73,43.875 37.701,44.182 37.396,44.145 37.342,43.928 	"/>
	<polygon fill="#232734" points="31.41,19.694 31.066,19.647 30.942,19.475 31.093,19.231 31.393,19.494 31.38,19.726 31.41,19.694 
			"/>
	<polygon fill="#232734" points="45.257,26.632 45.385,26.925 44.981,26.937 44.938,26.715 45.257,26.632 	"/>
	<polygon fill="#232734" points="20.977,33.067 20.699,33.118 20.666,32.83 20.854,32.876 20.977,33.067 	"/>
	<polygon fill="#232734" points="29.331,21.818 28.999,21.564 29.047,21.482 29.267,21.439 29.402,21.725 29.331,21.818 	"/>
	<polygon fill="#232734" points="31.38,19.726 31.608,19.716 31.752,20.096 31.41,19.694 31.38,19.726 	"/>
	<polygon fill="#232734" points="42.927,39.836 42.931,40.184 42.877,40.276 42.57,40.287 42.582,40.091 42.964,39.87 
		42.927,39.836 	"/>
	<polygon fill="#232734" points="33.792,45.889 33.468,46.014 33.162,45.883 33.792,45.889 	"/>
	<polygon fill="#232734" points="32.838,19.761 32.777,19.849 32.642,19.744 32.755,19.562 32.828,19.647 32.838,19.761 	"/>
	<polygon fill="#232734" points="40.989,21.439 41.319,21.174 41.407,21.249 41.33,21.414 40.966,21.414 40.989,21.439 	"/>
	<polygon fill="#232734" points="45.806,27.912 45.687,28.058 45.483,27.977 45.603,27.828 45.806,27.912 	"/>
	<polygon fill="#232734" points="19.828,33.733 20.161,33.755 20.239,33.828 20.061,33.925 19.862,33.695 19.828,33.733 	"/>
	<polygon fill="#232734" points="19.958,34.56 20.032,34.597 20.042,34.812 19.959,34.852 19.876,34.768 19.958,34.56 	"/>
	<polygon fill="#232734" points="20.79,36.292 20.428,36.284 20.79,36.292 	"/>
	<polygon fill="#232734" points="22.445,40.174 22.543,40.358 22.432,40.53 22.333,40.341 22.362,40.241 22.445,40.174 	"/>
	<polygon fill="#232734" points="44.646,40.228 44.554,40.292 44.565,40.154 44.646,40.228 	"/>
	<polygon fill="#232734" points="44.984,39.228 45.077,39.198 45.066,39.278 44.984,39.228 	"/>
	<polygon fill="#232734" points="25.759,24.391 25.847,24.199 25.923,24.219 25.73,24.362 25.759,24.391 	"/>
	<polygon fill="#232734" points="33.264,19.663 33.192,19.628 33.268,19.531 33.343,19.598 33.264,19.663 	"/>
	<path fill="#232734" d="M38.264,27.067l0.327,0.298l0.148,0.303l-0.777,0.607l-0.334-0.198h-0.347l-0.083-0.205l-0.096,0.101
		l0.207,0.075l0.014,0.12l0.611,0.416l0.43,0.833l0.556,0.659l0.184,0.587l0.151,0.461l0.06,0.483l0.159,0.458l0.034,0.487
		l0.003,1.224l-0.02,0.248l-0.256,0.99l-0.547,1.1l-1.423,1.436l-1.071,0.513l-0.539,0.13l-0.453,0.341l-0.11,0.046l-1.981,0.277
		l-0.401-0.193l-0.817-0.074l-0.877-0.459l-0.302-0.206l-1.939-1.626l-0.681-1.306l-0.657-2.071l-0.102-0.476l-0.039-0.234
		l0.218-1.715l0.137-0.309l0.877-1.3l0.968-0.732l0.108-0.056l1.57-0.638l1.02-0.389l1.066-0.083l0.112-0.043l0.694,0.085
		l0.979,0.045l0.36,0.053l0.824,0.202l0.828,0.001l0.336,0.19l0.231-0.005l0.089-0.066l-0.1-0.229l0.438-0.374l-0.04-0.038
		l0.286,0.287L38.264,27.067L38.264,27.067z M31.905,33.938l0.601,0.667l-0.288-0.589l-0.35-0.039l0.076-0.217l0.299-0.229
		l0.307,0.182l0.272,0.228l0.213-0.073l-0.128-0.409v-0.901l0.314-0.331l0.271,0.029l0.5,0.683l0.458,0.053l0.084,0.086
		l-0.307,0.364l-0.438-0.159l-0.201,0.41l-0.094,0.933l-0.292,0.202l0.483,0.098l0.521-0.302l0.442-0.584l0.419-0.869l-0.021-0.335
		l-0.537-0.487l-0.853-0.481l0.252-0.262l0.599,0.046l-0.166-0.385l-0.161-0.459l-1.837,0.343l-0.368,0.375l0.002,0.452
		l-0.071,0.267l-0.28,0.195l0.043,1.266L31.905,33.938L31.905,33.938z M31.413,34.676l0.082,0.195l0.072-0.059l-0.187-0.103
		l-0.496-1.354l0.063-1.21l0.057-0.116l1.181-1.365l0.552-0.234l0.623-0.354l0.814,0.226l0.836,0.395l0.197-0.812l0.248-0.042
		l0.457,0.375l0.137,0.321l0.039-0.039l-0.355,0.063l-0.361,0.745l0.365,0.455l-0.146,0.596l-0.082,1.208l-0.754,1.101l-1.242,0.746
		h-1.202l-0.917-0.206l-0.102,0.062l0.081,0.149l0.464,0.119l0.528,0.281v0.606l0.04-0.037l-0.676-0.174l-0.724,0.591l0.344,0.324
		l0.5,0.48l1.3,0.301l0.59,0.136l0.572,0.057l2.609-1.468l1.549-1.855l0.084-0.568l0.417-1.048l-0.356-0.295l0.396-0.558
		l-0.252-1.092l-0.309-1.147l-0.668-0.698l-0.394-0.146l-0.359-0.455l-0.169-0.163l-0.703-0.636l-0.799-0.382l-1.564-0.03
		l-0.711,0.148l-1.042,0.317l-1.366,0.397l-0.384,0.342l-0.521,0.06l-0.699,0.474l-0.641,1.683l-0.382,1.397l0.185,1.271
		l0.842,2.022L30,36.545l0.246,0.063l0.301-0.353l0.544-0.24l-0.351-0.075l-0.36-0.05l-0.158-0.161l0.142-0.282l0.214-0.112
		l-0.619-0.896l-0.33-0.003l-0.106-0.363l0.325,0.049l0.483-0.107l0.393,0.392l0.349,0.433L31.413,34.676L31.413,34.676z
		 M35.02,32.129l-0.065-0.071l-0.079,0.058l0.066,0.067L35.02,32.129L35.02,32.129z"/>
	<polygon fill="#232734" points="28.452,40.595 28.293,41.255 28.082,41.219 27.53,40.019 27.607,39.669 27.006,39.616 
		26.371,39.068 25.614,38.117 24.854,36.762 25.169,36.706 25.408,36.98 25.795,37.595 27.323,39.312 27.675,39.016 27.836,38.679 
		28.158,38.755 28.032,39.227 28.191,39.55 28.062,39.914 28.447,40.59 28.452,40.595 	"/>
	<polygon fill="#232734" points="26.146,32.385 26.138,31.682 26.126,31.227 26.204,30.874 26.504,29.575 26.81,29.051 
		27.03,28.487 27.38,27.986 27.714,27.481 28.045,27.4 28.089,27.479 26.887,29.742 26.753,30.079 26.525,31.148 26.513,32.741 
		26.872,34.028 26.822,34.117 26.602,34.151 26.329,33.917 26.273,33.81 26.071,32.617 26.146,32.385 	"/>
	<polygon fill="#232734" points="38.05,26.85 37.836,26.604 36.868,26.178 36.991,25.891 37.607,25.883 38.069,26.253 38.29,26.324 
		38.392,26.51 38.452,26.439 38.257,26.358 38.786,25.868 38.753,25.835 39.177,26.36 39.644,26.149 39.86,26.19 39.884,26.508 
		39.741,26.697 39.194,26.803 38.883,26.631 38.612,27.025 38.264,27.067 38.296,27.099 38.01,26.812 38.05,26.85 	"/>
	<polygon fill="#232734" points="33.545,24.384 34.495,24.966 34.215,25.087 33.589,24.887 32.436,24.887 31.73,25.034 
		31.131,25.062 30.948,24.803 31.539,24.447 31.655,24.421 33.545,24.384 	"/>
	<polygon fill="#232734" points="23.764,29.559 23.944,29.414 24.583,28.171 25.018,28.24 24.276,30.043 24.234,30.457 
		23.915,30.688 23.839,30.595 23.796,29.521 23.764,29.559 	"/>
	<polygon fill="#232734" points="24.873,32.193 24.639,32.212 24.533,32.005 24.716,30.575 24.787,30.098 25.005,29.672 
		25.189,29.626 25.251,29.727 25.06,30.415 24.944,32.098 24.873,32.193 	"/>
	<polygon fill="#232734" points="31.315,41.693 31.34,41.918 31.134,42.029 30.295,41.986 29.601,41.784 29.241,41.479 
		29.506,41.372 30.07,41.384 30.423,41.372 30.86,41.569 31.315,41.693 	"/>
	<polygon fill="#232734" points="41.126,31.537 41.366,31.821 41.193,33.496 41.052,33.67 40.843,33.646 40.858,32.221 
		40.847,31.991 41.126,31.537 	"/>
	<polygon fill="#232734" points="28.961,37.906 28.961,37.543 29.13,37.416 29.345,37.461 29.527,37.768 30.167,38.283 
		30.088,38.501 29.26,38.527 29.18,38.222 28.925,37.869 28.961,37.906 	"/>
	<polygon fill="#232734" points="39.879,38.18 39.972,38.42 39.47,39.219 38.822,39.326 38.843,39.183 39.879,38.18 	"/>
	<polygon fill="#232734" points="29.356,38.978 29.064,39.348 28.489,38.97 28.527,38.699 28.738,38.639 28.849,38.678 
		29.356,38.978 	"/>
	<polygon fill="#232734" points="23.645,32.41 23.396,32.18 23.612,31.813 23.944,32.08 23.645,32.41 	"/>
	<polygon fill="#232734" points="27.137,26.477 26.581,26.984 26.739,26.502 27.137,26.477 	"/>
	<polygon fill="#232734" points="24.755,33.654 24.566,33.438 24.692,33.283 24.943,33.438 24.755,33.654 	"/>
	<polygon fill="#232734" points="23.976,33.702 23.868,33.899 23.589,33.749 23.747,33.492 23.976,33.702 	"/>
	<polygon fill="#232734" points="41.029,36.946 41.196,37.183 40.962,37.361 40.785,37.129 41.029,36.946 	"/>
	<polygon fill="#232734" points="28.925,37.869 28.708,38.287 28.274,38.257 28.561,37.94 28.961,37.906 28.925,37.869 	"/>
	<polygon fill="#232734" points="28.447,40.59 28.447,40.199 28.794,40.168 28.902,40.363 28.806,40.563 28.452,40.595 
		28.447,40.59 	"/>
	<polygon fill="#232734" points="35.045,41.337 34.771,41.5 34.661,41.2 34.978,41.131 35.045,41.337 	"/>
	<polygon fill="#232734" points="33.403,41.379 33.563,41.639 33.274,41.773 33.163,41.579 33.403,41.379 	"/>
	<polygon fill="#232734" points="27.875,25.393 28.142,25.551 27.949,25.782 27.756,25.679 27.875,25.393 	"/>
	<polygon fill="#232734" points="40.356,28.354 40.487,28.651 40.038,28.58 40.214,28.347 40.356,28.354 	"/>
	<polygon fill="#232734" points="23.619,35.044 23.936,35.018 23.938,35.333 23.741,35.249 23.619,35.044 	"/>
	<polygon fill="#232734" points="24.872,34.754 25.111,34.93 25.111,35.106 24.902,35.14 24.783,34.862 24.872,34.754 	"/>
	<polygon fill="#232734" points="25.589,28.172 25.891,27.839 25.885,28.231 25.589,28.172 	"/>
	<polygon fill="#232734" points="38.786,25.868 38.886,25.437 39.156,25.597 39.186,25.781 39.093,25.841 38.753,25.835 
		38.786,25.868 	"/>
	<polygon fill="#232734" points="25.16,38.217 25.243,38.416 25.099,38.524 25.013,38.334 25.16,38.217 	"/>
	<polygon fill="#232734" points="25.959,39.491 25.579,39.483 25.959,39.491 	"/>
	<polygon fill="#232734" points="51.423,30.048 51.512,32.54 51.421,32.766 51.364,32.874 51.157,33.942 51.058,33.585 
		51.205,31.416 51.19,31.308 51.423,30.048 	"/>
	<polygon fill="#232734" points="31.214,48.742 31.797,49.082 31.59,49.188 30.127,49.16 29.887,49.138 28.837,48.856 
		28.738,48.656 28.875,48.491 28.994,48.487 30.063,48.7 31.214,48.742 	"/>
	<polygon fill="#232734" points="38.81,49.162 38,49.162 37.827,48.895 37.993,48.752 39.194,48.593 40.344,48.215 40.895,48.046 
		40.86,48.356 39.056,49.036 38.81,49.162 	"/>
	<polygon fill="#232734" points="49.563,39.351 49.557,39.828 48.61,41.645 48.428,41.714 48.351,41.505 48.384,41.241 
		49.396,39.482 49.592,39.377 49.563,39.351 	"/>
	<polygon fill="#232734" points="49.592,39.377 49.592,38.904 49.906,38.263 50.205,38.23 50.076,38.783 49.772,39.285 
		49.563,39.351 49.592,39.377 	"/>
	<polygon fill="#232734" points="47.55,43.039 47.287,43.415 47.132,43.311 47.194,42.964 47.404,42.877 47.55,43.039 	"/>
	<polygon fill="#232734" points="50.721,35.228 50.831,35.228 50.999,35.343 50.882,35.628 50.677,35.611 50.608,35.413 
		50.721,35.228 	"/>
	<polygon fill="#232734" points="36.253,47.545 36.168,47.636 35.864,47.595 35.843,47.37 36.143,47.26 36.253,47.545 	"/>
	<polygon fill="#232734" points="35.347,48.193 35.069,47.893 35.155,47.57 35.527,47.829 35.31,48.226 35.347,48.193 	"/>
	<polygon fill="#232734" points="33.86,48.215 33.931,47.87 34.138,47.778 34.323,48.01 34.202,48.186 33.849,48.201 33.86,48.215 	
		"/>
	<polygon fill="#232734" points="36.222,48.334 36.024,48.426 35.832,48.328 35.894,48.108 36.083,48.139 36.222,48.334 	"/>
	<polygon fill="#232734" points="44.323,46.128 44.021,46.385 44.035,46.093 44.323,46.128 	"/>
	<polygon fill="#232734" points="50.456,36.473 50.447,36.833 50.456,36.473 	"/>
	<polygon fill="#232734" points="46.622,44.106 46.537,44.191 46.396,43.962 46.479,43.884 46.622,44.106 	"/>
	<polygon fill="#232734" points="42.583,46.988 42.663,47.076 42.526,47.221 42.325,47.124 42.369,47.037 42.472,46.99 
		42.583,46.988 	"/>
	<polygon fill="#232734" points="45.579,45.094 45.577,45.164 45.439,45.122 45.513,45.062 45.579,45.094 	"/>
	<polygon fill="#232734" points="27.088,48.179 27.027,48.097 27.101,48.022 27.167,48.106 27.088,48.179 	"/>
	<polygon fill="#232734" points="26.171,47.834 26.102,47.901 26.044,47.827 26.11,47.756 26.171,47.834 	"/>
	<polygon fill="#232734" points="17.373,26.324 17.385,26.931 17.523,27.479 17.293,27.601 16.921,28.248 16.886,29.06 
		17.122,29.486 17.123,29.603 16.926,29.638 16.495,29.452 16.584,29.13 16.494,28.906 16.591,28.684 16.814,27.748 17.146,26.847 
		17.296,26.405 17.409,26.361 17.373,26.324 	"/>
	<polygon fill="#232734" points="19.834,21.167 20.19,21.167 21.004,20.418 21.083,20.204 21.583,20.216 21.553,20.187 
		21.51,20.409 21.254,20.666 19.945,22.085 19.726,22.089 19.863,21.407 19.834,21.167 	"/>
	<polygon fill="#232734" points="19.887,24.12 19.529,25.21 19.214,25.537 19.146,25.09 19.887,24.12 	"/>
	<polygon fill="#232734" points="18.526,31.6 18.414,31.777 18.236,31.92 17.938,31.818 17.909,31.489 18.278,31.36 18.37,31.43 
		18.526,31.6 	"/>
	<polygon fill="#232734" points="28.926,16.778 29.318,16.8 29.427,17.104 29.193,17.398 28.855,17.455 28.731,17.149 28.96,16.741 
		28.926,16.778 	"/>
	<polygon fill="#232734" points="17.545,30.698 17.404,30.563 17.503,29.879 17.642,30.019 17.545,30.698 	"/>
	<polygon fill="#232734" points="16.424,34.931 16.24,34.817 16.297,34.281 16.395,34.956 16.424,34.931 	"/>
	<polygon fill="#232734" points="16.306,31.176 16.369,30.818 16.564,30.868 16.55,30.954 16.306,31.176 	"/>
	<polygon fill="#232734" points="18.062,29.188 17.947,29.262 17.737,29.22 17.705,28.93 17.887,28.946 18.062,29.188 	"/>
	<polygon fill="#232734" points="18.324,25.007 17.906,24.841 18.013,24.686 18.115,24.734 18.324,25.007 	"/>
	<polygon fill="#232734" points="28.96,16.741 28.621,16.726 28.542,16.646 28.575,16.562 28.864,16.57 28.926,16.778 28.96,16.741 
			"/>
	<polygon fill="#232734" points="22.953,19.028 23.019,19.216 22.902,19.338 22.822,19.153 22.953,19.028 	"/>
	<polygon fill="#232734" points="16.273,32.695 16.4,33.063 16.249,33.145 16.174,33.076 16.273,32.695 	"/>
	<polygon fill="#232734" points="17.002,31.445 16.94,31.364 17.016,31.295 17.085,31.378 17.002,31.445 	"/>
	<polygon fill="#232734" points="18.768,27.649 18.798,27.72 18.728,27.783 18.664,27.715 18.768,27.649 	"/>
	<polygon fill="#232734" points="17.409,26.361 17.503,26.167 17.559,26.245 17.373,26.324 17.409,26.361 	"/>
	<polygon fill="#232734" points="18.8,23.768 18.727,23.816 18.665,23.756 18.738,23.703 18.8,23.768 	"/>
	<polygon fill="#232734" points="21.583,20.216 21.672,20.039 21.728,20.104 21.553,20.187 21.583,20.216 	"/>
	<polygon fill="#232734" points="29.858,16.36 29.78,16.461 29.708,16.391 29.787,16.326 29.858,16.36 	"/>
	<polygon fill="#232734" points="48.718,23.558 47.459,21.564 47.767,21.529 48.767,23.035 48.718,23.558 	"/>
	<polygon fill="#232734" points="44.163,20.189 44.159,20.53 43.88,20.661 43.735,20.519 43.843,20.227 44.184,20.211 
		44.163,20.189 	"/>
	<polygon fill="#232734" points="46.06,19.834 45.694,19.768 45.757,19.569 45.845,19.592 46.06,19.834 	"/>
	<polygon fill="#232734" points="46.718,20.312 46.824,20.43 46.729,20.575 46.659,20.498 46.657,20.391 46.718,20.312 	"/>
	<polygon fill="#232734" points="49.47,24.73 49.419,24.803 49.216,24.786 49.196,24.712 49.392,24.652 49.47,24.73 	"/>
	<polygon fill="#232734" points="49.104,27.312 48.858,27.116 48.954,26.925 49.03,26.996 49.071,27.343 49.104,27.312 	"/>
	<polygon fill="#232734" points="17.882,37.127 17.882,36.347 17.978,36.233 18.05,36.28 18.354,37.183 18.654,38.098 
		18.896,39.026 19.093,39.578 18.883,39.796 18.751,39.774 18.409,38.765 18.179,37.958 17.882,37.127 	"/>
	<polygon fill="#232734" points="19.378,43.315 19.13,42.645 19.266,42.392 20.251,43.608 20.241,43.7 20.023,43.739 19.553,43.36 
		19.339,43.274 19.378,43.315 	"/>
	<polygon fill="#232734" points="22.816,44.748 23.06,45.002 23.062,45.524 22.54,45.521 22.141,44.922 22.816,44.748 	"/>
	<polygon fill="#232734" points="21.792,44.919 21.769,45.145 21.562,45.214 21.452,45.185 20.928,44.927 21.189,44.597 
		21.792,44.919 	"/>
	<polygon fill="#232734" points="19.729,40.404 20.042,40.725 19.904,41.03 19.609,40.749 19.616,40.63 19.729,40.404 	"/>
	<polygon fill="#232734" points="21.521,43.432 21.135,43.378 21.221,43.106 21.521,43.432 	"/>
	<polygon fill="#232734" points="20.575,41.833 20.992,42.203 20.589,42.047 20.6,41.81 20.575,41.833 	"/>
	<polygon fill="#232734" points="20.6,41.81 20.361,41.616 20.451,41.421 20.524,41.491 20.575,41.833 20.6,41.81 	"/>
	<polygon fill="#232734" points="18.581,40.954 18.496,41.029 18.504,40.871 18.581,40.954 	"/>
	<polygon fill="#232734" points="17.83,39.726 17.753,39.754 17.761,39.681 17.83,39.726 	"/>
	<polygon fill="#232734" points="42.088,19.68 42.011,19.364 42.315,19.261 42.427,19.56 42.343,19.643 42.088,19.68 	"/>
	<polygon fill="#232734" points="42.462,17.734 42.024,17.675 42.028,17.384 42.226,17.386 42.446,17.75 42.462,17.734 	"/>
	<polygon fill="#232734" points="40.166,16.597 40.077,16.729 39.884,16.66 39.982,16.532 40.166,16.597 	"/>
	<polygon fill="#232734" points="36.048,30.539 36.233,30.422 36.213,30.084 35.722,29.555 35.411,29.195 36.015,28.833 
		36.332,28.946 36.675,29.03 36.986,29.179 36.548,29.554 36.423,29.684 36.511,29.762 36.63,29.761 36.869,29.787 37.023,29.966 
		37.046,31.046 36.976,31.144 36.402,30.846 36.209,31.149 35.845,30.897 36.087,30.5 36.048,30.539 	"/>
	<polygon fill="#232734" points="29.933,30.014 29.72,30.098 29.514,30.396 29.288,31.166 29.769,31.117 29.872,31.534 
		29.592,31.711 29.271,31.58 29.035,31.646 28.956,30.502 29.535,29.643 29.937,29.376 30.323,29.145 30.371,29.372 30.156,29.792 
		30.19,29.763 29.903,30.051 29.933,30.014 	"/>
	<polygon fill="#232734" points="36.703,34.12 36.595,33.944 36.768,33.464 36.839,32.43 37.171,32.086 37.29,32.277 37.235,33.11 
		37.04,33.801 36.703,34.12 	"/>
	<polygon fill="#232734" points="28.966,32.843 28.966,32.62 29.531,32.521 29.881,32.809 29.897,33.104 29.576,33.173 
		28.966,32.843 	"/>
	<polygon fill="#232734" points="34.012,28.945 33.474,28.696 33.753,28.351 34.562,28.598 34.012,28.945 	"/>
	<polygon fill="#232734" points="35.378,36.882 35.036,36.878 34.921,36.74 35.599,36.416 35.69,36.482 35.663,36.674 
		35.581,36.757 35.378,36.882 	"/>
	<polygon fill="#232734" points="32.098,28.921 31.481,28.935 31.554,28.842 31.963,28.639 32.098,28.921 	"/>
	<polygon fill="#232734" points="32.605,36.927 32.962,36.949 33.089,37.121 32.886,37.346 32.769,37.335 32.642,36.895 
		32.605,36.927 	"/>
	<polygon fill="#232734" points="30.156,29.792 30.367,29.886 30.364,30.207 30.147,30.267 29.933,30.014 29.903,30.051 
		30.19,29.763 30.156,29.792 	"/>
	<polygon fill="#232734" points="32.642,36.895 32.399,36.609 32.403,36.39 32.364,36.427 32.605,36.927 32.642,36.895 	"/>
</g>
</svg>
