<?xml version="1.0" encoding="utf-8"?>
<!-- Generator: Adobe Illustrator 15.0.2, SVG Export Plug-In . SVG Version: 6.00 Build 0)  -->
<!DOCTYPE svg PUBLIC "-//W3C//DTD SVG 1.1//EN" "http://www.w3.org/Graphics/SVG/1.1/DTD/svg11.dtd">
<svg version="1.1" id="Layer_1" xmlns="http://www.w3.org/2000/svg" xmlns:xlink="http://www.w3.org/1999/xlink" x="0px" y="0px"
	 width="70.886px" height="70.886px" viewBox="0 0 70.886 70.886" enable-background="new 0 0 70.886 70.886" xml:space="preserve">
<g id="babyonion2">
	<path fill="#232734" d="M49.11,48.054l-0.803,0.638l-1.535,1.212l-0.873,0.662l-0.756,0.621l-0.961,0.509l-0.898,0.368
		l-0.765,0.382l-0.692,0.228l-1.043,0.321l-1.311,0.276l-0.855,0.435l-1.487,0.056l-0.699-0.169l-0.227,0.094l-1.332-0.036
		l-0.344,0.022l-0.604,0.025l-2.185-0.198l-0.13-0.013l-1.044-0.285l-1.021-0.387l-0.378-0.055l-3.882-2.282l-1.343-1.054
		l-1.833-1.81l-1.704-2.229l-0.452-0.865l-0.48-0.986l-0.449-0.998l-0.36-0.607l0.11-0.364l-0.304-0.93l-0.123-0.341l-0.309-1.423
		l-0.222-0.944l-0.238-0.861l-0.034-4.295l0.191-0.46l0.048-1.462l0.223-0.658l0.931-2.765l0.564-1.349l1.567-3.033l0.729-0.976
		l0.701-0.847l0.248-0.265l1.024-0.865l1.783-1.285l1.853-0.938l0.659-0.321l2.256-0.906l0.336-0.159l1.44-0.233l0.484-0.05
		l4.294-0.027l0.842,0.132l0.603,0.076l0.835,0.166l0.235,0.062l1.188,0.248l0.477,0.056l1.011,0.455l1.971,0.98l1.837,1.213
		l0.967,0.748l0.801,0.76l0.867,0.677l0.668,0.715l0.384,0.472l1.331,1.747l0.342,0.503l0.428,0.871l0.146,0.331l0.456,0.989
		l0.427,1.641l0.423,1.348l0.087,1.147l0.222,2.426l0.252,1.058l-0.03,2.698l-0.092,0.476l-0.082,0.355l-0.065,0.854l-0.23,0.943
		l-0.238,0.813l-0.25,0.939l-0.182,0.449l-0.51,1.234l-0.026,0.119l-0.889,1.457l-1.012,1.375L49.11,48.054L49.11,48.054z
		 M48.545,45.586l-0.103-0.18l-0.202-0.062l-0.152,0.239l-0.25,0.25l-0.36-0.064l-0.215-0.562l-0.221,0.059l-0.959,0.941
		l-1.68,1.207l-2.282,1.165l-1.026,0.383l-0.352,0.083l-1.302,0.309l-1.167,0.322l-1.207,0.144l-0.508,0.087l-0.197,0.251
		l0.277,0.547l0.461-0.097l0.449,0.167l0.078,0.176l0.068-0.011l-0.178-0.133l-0.116-0.67l0.222-0.007l0.309,0.357l0.451,0.098
		l0.406,0.466l-0.442,0.184l-0.868,0.066l-0.552,0.466l-0.483,0.06l-0.445,0.158l-0.583-0.569l-0.068-0.232l0.458-0.342l0.147-0.732
		l-0.324-0.29l-0.772,0.006l-0.607,0.012l-0.746,0.062l-0.474-0.497l-1.163-0.269l-1.278-0.322l-0.625-0.384l-0.548-0.081
		l-1.243-0.695l-1.756-1.082l-0.688-0.506l-1.134-1.282l-1.378-1.717l-0.15-0.193l-1.278-1.736l-0.365-0.954l-0.369-0.22
		l-0.035-0.441l-0.419-0.79l0.105-0.25l-0.101-0.224l0.042-0.577l-0.788,0.506l-0.178,0.407l-0.551-0.25l-0.211-0.666l-0.238-0.036
		l-0.107,0.205l0.029,0.606l0.174,0.831l0.121,0.469l0.2,0.697l0.283,0.804l0.27,0.707l0.282-0.367l0.173,0.315l0.86,1.469
		l-0.058,0.313l-0.748-0.612L20.102,43.3l0.554,0.943l0.576,1.074l0.714,0.984l1.1,1.309l0.22,0.07l0.034,0.354l0.759,0.77
		l0.213,0.086l0.091,0.217l0.864,0.664l1.876,1.109l0.641,0.346l2.074,1.017l0.686,0.221l0.805,0.247l0.595,0.092l0.584,0.15
		l1.305,0.253l0.241,0.02l0.701-0.115l0.342,0.115l1.995-0.012l0.548-0.172l0.727-0.093l0.175-0.294l-0.111-0.321l-0.381-0.085
		l0.025,0.028l0.064-0.673l0.396,0.08l0.178,0.307l0.6-0.004l-0.26,0.397l0.175,0.266l0.429-0.18l0.064-0.091l-0.046-0.11
		l-0.407-0.247l-0.479-0.897l-0.02-0.112l0.342,0.021l0.715,0.644l0.73-0.154l0.682-0.234l0.211,0.081l-0.45,0.354L40.1,52.102
		l0.314,0.258l1.394-0.381l1.396-0.736l1.304-0.869l0.218-0.108l0.485-0.04l0.982-0.69l0.201-0.287l-0.041,0.04l0.555-0.202
		l1.062-0.974l1.055-0.984l-0.001-0.23l-0.423-0.274l-0.052-0.577l0.257-0.163L48.545,45.586L48.545,45.586z M49.522,44.597
		l-0.209-0.231l-0.295,0.237l0.143,0.626l0.157-0.424l0.237-0.242l0.086,0.175l0.063-0.058L49.522,44.597L49.522,44.597z
		 M29.643,47.162l-0.035-0.109l-0.985-0.619l-0.462,0.002l-0.01-0.118l-0.808-0.624l-0.515,0.331l-0.001,0.118l0.517,0.468
		l0.448,0.027l0.405-0.239l0.003,0.566l0.169,0.172l0.534,0.241l0.45-0.238l0.318-0.001l-0.211,0.404l0.555-0.054l0.554,0.561
		l0.274-0.229l0.298-0.198l0.119,0.679l0.232,0.023l0.742-0.385l0.582,0.546l0.059-1.442l0.205-0.294l0.189-0.528l-1.488-0.792
		l-0.19,0.139l-0.132,0.207l0.791,0.461l-0.273,0.334l-0.231-0.088l-0.242,0.34l0.578,0.424l0.013,0.116l-0.319,0.239l-0.309-0.14
		l-0.339,0.18l-0.033-0.112l-0.981-0.359l-0.234-0.038L29.643,47.162L29.643,47.162z M20.7,26.322l-0.034-1.254l0.43-0.003
		l0.276-0.744l-0.048-0.099l-0.083-0.004l-0.248,0.251l-0.137,0.324l-0.16,0.309l-0.116,0.034l-0.826,1.623l-0.514,1.384
		l-0.027,0.351l-0.13,0.336l-0.383,1.408l-0.194,0.568l0.002,0.625l-0.193,1.197l-0.012,0.854l0.062,0.098l0.314,0.002l0.313-0.706
		l0.032-1.646l0.304-0.69l0.246,0.003l0.08,0.325l-0.165,0.711l-0.139,0.962l0.055,0.34l-0.299,0.931l-0.012,0.723l0.075,0.037
		l0.225-0.09l0.191,0.147l0.036,0.324l0.071,0.181l0.576-0.398l0.419-1.53l0.062-1.073l0.171-0.366l0.03-0.351l0.058-0.733
		l0.372-1.03l0.711-1.493l0.328-0.281l0.563-0.971l0.322-0.478l-0.185-0.291l-0.584-0.156l-0.295-0.379l-0.529-0.275l-0.214,0.07
		l0.002,0.096l0.351,0.485l-0.337,0.289l-0.477-0.379l-0.15,0.326l-0.204,0.092L20.7,26.322L20.7,26.322z M30.255,19.645
		l-0.292-0.796l-0.38-0.059l0.088,0.229l0.013,0.119l-0.242,0.194l-0.509-0.325l-0.221-0.082l-0.333,0.11l0.05-0.544l-0.275-0.26
		l-0.173,0.314l-0.521,0.278l-0.106,0.01l-0.459-0.172l-0.928,0.522l-0.298,0.211l-1.939,1.464l-0.184,0.159l-0.583,0.597
		l-0.962,1.109l-0.068,0.223l0.215,0.418l-0.078,0.227l-0.094,0.219l0.193,0.254l0.82-0.207l0.283,0.133l-0.141,0.603l0.021-0.021
		L22.97,24.71l-0.013,0.444l0.098,0.104l0.696,0.22l0.231-0.391l0.358-0.143l1.6-1.529l1.882-1.083l0.734-0.432l1.195-0.591
		l1.75-0.837l0.088-0.084l0.018-0.198l-0.222-0.045l-0.288,0.189l-0.437-0.224l-0.327-0.452l-0.112-0.049L30.255,19.645
		L30.255,19.645z M51.214,33.288l0.203-0.262l0.272,0.176l0.106,0.21l0.46-0.128l0.576,0.344l0.06-0.106l-0.018-1.326l-0.174-0.37
		l-0.055-0.834l-0.213-0.823l-0.299-1.55l-0.078-0.229l-1.408-2.975l-1.237-1.817l-2.354-2.323l-1.723-1.424l-1.373-0.901
		l-3.119-1.438l-0.583-0.158l-1.066-0.247L38.846,17l-0.595-0.124l-0.713-0.032l-0.365-0.149l-4.977,0.021l-0.625,0.186L30.9,17.064
		l-0.265,0.443l-0.064,0.031l-0.618-0.119l-0.127,0.143l0.366,0.264l0.142,1.015l0.314-0.446l0.232,0.023l0.295,0.532l-0.167,0.449
		l0.112,0.171l0.343-0.468l0.008-0.487l0.269-0.173l0.688,0.625l-0.212,0.562l-0.447,0.118l0.419-0.146l0.44,0.142l0.312-0.483
		l0.083-0.336l0.248-0.002l0.22,0.139l0.627,0.718l2.016-0.128l0.635,0.152l1.22,0.071l1.315,0.224l1.061,0.262l0.923,0.301
		l0.345,0.111l1.044,0.314l0.734,0.294l2.227,1.691l0.811,1.252l0.071,0.389l2.666,5.19l0.193,0.687l0.25,0.275l0.5,0.325
		l-0.027,0.581l-0.326,0.454l0.203,0.743l0.238,0.664l-0.212,0.389l0.147,1.123L50.11,36.96l-0.117,0.721l-0.073,0.601l-0.172,0.956
		l-0.125,0.469l-0.37,1.777l-0.04,0.239l-0.612,1.169l0.098,0.328l-0.369,0.647l-0.439,0.131l-0.055,0.25l0.36,0.278l0.337-0.009
		l-0.245-0.688l0.819,0.167l0.227,0.051l0.789-0.028l0.316-0.122l0.014,0.609L50.1,44.964l0.099,0.292l0.266-0.229l0.749-1.109
		l0.577-1.332l0.65-1.777l0.481-2.201l0.053-1.671l-0.015-0.365l-0.11-0.308l-0.257-0.097l-1.057-1.093l-0.223,0.105l-0.102-0.441
		l-0.013,0.013l0.424-0.132l-0.181-0.425l-0.024-0.705l-0.235-0.237L51.214,33.288L51.214,33.288z M39.978,44.647l-0.191,0.088
		l0.063,0.063l0.095-0.183l0.434,0.021l1.589-0.768l1.597-1.117l0.178-0.552l-0.553-0.133l-0.251-0.286l-0.02-0.259l0.433-0.188
		l0.592-0.151l0.305,0.187l0.52-1.07l0.349-1.036l0.418-1.031l-0.007-1.267l-0.171-0.419l-0.078-2.27l-0.42-0.925l-0.491-0.988
		l-0.338-0.03l-0.137-0.154l0.158-0.428l-0.309-0.521l-0.576-0.246l0.124-0.632l-0.474-0.779l-0.52-0.881l-1.119-1.203l-1.381-0.805
		l-1.565-0.664l-0.117-0.03l-0.94-0.232l-2.936-0.026l-0.852,0.075l-0.922,0.311l-3.58,1.745l-0.057,0.145l-0.01,0.24l-0.125,0.447
		l-0.81,0.688l-0.023,0.143l0.247,0.534l-0.115,0.329l-0.522-0.164l-0.592,1.836l-0.213,0.884l-0.081,1.283l-0.181,1.442
		l0.005,1.266l0.232,0.904l0.223,0.944l0.354,0.907l0.479,1.118l0.917,1.573l0.29,0.391l0.597,0.607l0.784,0.583l0.414,0.247
		l1.44,0.685l0.475,0.045l-0.038-0.032l0.403,0.442l0.581,0.095l0.562,0.202l2.687-0.019l0.596-0.081l1.161-0.202l0.468-0.206
		l0.423-0.241l0.02-0.334l0.375-0.116L39.978,44.647L39.978,44.647z M36.771,48.817l0.201,0.271l0.465,0.143l1.057-0.283
		l0.225-0.271l0.197-0.216l0.066,0.104l0.361,0.234l0.715-0.225l0.655-0.065l2.771-1.395l2.547-1.637l0.22-0.533l0.259-0.706
		l0.411-0.86l0.517-0.317l0.541-0.952l1.027-1.928l-0.001-0.38l0.024-0.119l0.455-1.287l0.026-4.145l-0.046-1.472l-0.084-0.238
		l-0.246-0.26l0.012-0.553l-0.26-0.813l-0.553,0.251l0.377,0.982l0.225,1.193l-0.312,0.357l-0.186-0.666l-0.247-0.555l-0.338-0.569
		l-1.051,0.016l0.118-0.284l0.799-0.132l0.184-0.246l0.047-0.67l0.937-0.101l-0.509-1.097l-0.521-1.232l-0.143-0.198l-0.51-1.099
		l-0.673-1.158l-0.054-0.238l-0.389-0.755l-1.672-1.952l-0.999-0.699l-1.541-0.735l-0.577-0.187l-1.173-0.309l-1.073-0.224
		l-0.729-0.064l-0.826-0.21l-1.065-0.202l-0.966,0.051l-0.708,0.168l-0.292,0.162l-0.071,0.663l-0.618,0.022l-0.208-0.561
		l-0.259,0.02l-0.208,0.416l-0.284,0.5l-0.238-0.253l0.07-0.101l-0.373-0.294l-0.666,0.228l-0.605,0.397l-1.676,0.728l-2.204,1.042
		l-1.74,1.338l-0.281,0.884l0.013,0.241l-0.215,0.255l-0.393,0.005l-0.302,0.362l-0.813,1.352l-0.76,1.515l-0.05,0.11l-0.917,2.886
		l-0.052,0.111l-0.132,0.589L21.455,34.2l-0.184,0.536l0.169,0.873l0.068,0.835l0.401,0.324l0.017,0.118l-0.083,0.216l-0.276,0.403
		l0.275,1.056l0.95,0.507l0.131-0.162l-0.348-0.304l-0.021-0.429l0.219-0.097l0.206-0.129l0.418,0.071l0.496,0.705l-0.057,0.876
		l0.35,0.213l-0.1,0.396l0.364,0.197l-0.002,0.69l0.07,0.736l0.191,0.312l-0.006,0.114l-0.356,0.182l-0.348-0.3l0.163-0.718
		l-0.708-0.587l-0.426,0.577l-0.015,0.11l1.003,1.51l1.109,1.456l1.225,1.364l0.547-0.291l-0.001-0.223l-2.086-2.037l-0.521-0.457
		l1.049,0.021l0.177,0.691l1.838,1.595l0.722,0.089l0.52,0.715l0.267,0.177l0.976,0.498l0.609-0.004l0.166-0.838l-0.296-0.101
		l-0.296,0.674l-0.703-0.631l-0.325,0.133l-0.201-0.173l-0.193-0.436l-0.412-0.485l-0.035-0.84l-0.25-0.228l0.031,0.031l-0.36-0.456
		l-0.138-0.308l-0.029,0.029l0.238-0.059l0.184-0.383l-0.478-0.508l-0.542,0.21L26.504,41.9l0.282-0.163l0.357-0.074l-0.107-0.366
		l-0.742-1.521l-0.342-1.292l-0.24-1.063l0.074-1.574l0.124-0.719l0.209-0.825l0.033-0.98l0.213-0.945l0.228-1.064l0.352-1.029
		l1.014-2.029l0.745-0.831l1.417-0.795l0.647-0.332l1.119-0.484l1.035-0.326l1.312-0.254l0.614-0.132l0.342,0.116l0.837-0.005
		l1.562,0.216l0.484,0.054l0.571,0.178l0.18-0.124l0.041-0.338l0.207-0.33l-0.188-0.142l-0.244-0.475l0.365-0.459l0.447,0.166
		l0.475-0.003l0.241-0.401l0.319,0.021l0.092,0.214l0.213,0.451l0.482,0.128l-0.48,0.329l-0.347,0.082l-0.089,0.208l0.25,0.121
		l0.126-0.049l0.497,0.367l0.348,0.051l-0.033-0.04l0.002,0.361l-0.514,0.324l-0.387,0.476l0.238,0.087l0.775-0.226l0.627,0.334
		l-0.068,0.324l-0.809-0.025l1.043,0.798l0.119,0.016l0.25,0.245l0.012,0.239l0.518,0.821l0.303,0.377l0.529,0.595l0.721,1.344
		l0.361,0.901l0.387,1.281l0.141,0.59l0.282,1.927l0.181,0.475l0.021,2.161l-0.847,2.166l0.414,0.381l0.275,0.359L46.055,42
		l-0.125,0.296l0.18,0.356l-0.255,0.239l-0.465-0.39l0.14-0.547l-0.356-0.072l-0.318,0.286l-0.01,0.239l0.043-0.033l-0.422,0.085
		l-0.701,1.077l-1.018,1.032l-0.713,0.462l-0.673,0.271l-1.589,0.584l-2.227,0.523l-0.232,0.062l-0.833,0.146l-1.865-0.013
		l-0.786-0.191l-0.174,0.131l0.594,0.623l0.093,0.215l-0.179,0.152l0.079,0.003l0.064-0.189l0.669,0.485l0.456,0.128l0,0.308
		l-0.449,0.059l-0.318-0.179l-0.997,0.104l0.589,0.531l0.871-0.044l0.098,0.013l0.427-0.185l0.585,0.112l0.574,0.17L36.771,48.817
		L36.771,48.817z M19.356,35.514l-0.039,1.199l0.22,0.938l0.138,0.137l0.789-0.538l-0.05-0.298l-0.904-0.497l0.058-0.13l0.646-0.09
		l-0.048-0.233l-0.234-0.259l-0.25,0.062l-0.228-0.23L19.356,35.514L19.356,35.514z M40.219,25.514l-0.448-0.048l-0.373,0.58
		l0.938,0.324L40.219,25.514L40.219,25.514z M28.76,43.535l-0.329,0.295l0.318,0.561l0.32,0.073l0.268-0.318L28.76,43.535
		L28.76,43.535z M22.942,39.938L22.4,39.467l-0.083-0.01l-0.078,0.212l0.422,0.854l0.459-0.046l0.014-0.099L22.942,39.938
		L22.942,39.938z M52.798,35.465l0.108-0.558l-0.556-0.402l-0.381,0.066l0.4,0.292l0.211,0.529L52.798,35.465L52.798,35.465z
		 M30.184,44.662l-0.46,0.04l-0.259,0.33l0.598,0.332l0.229-0.278L30.184,44.662L30.184,44.662z M28.539,18.009l0.592,0.585
		l0.095-0.546l-0.324-0.327L28.539,18.009L28.539,18.009z M18.389,35.669l0.342-0.466l-0.084-0.205l-0.224-0.01l-0.104,0.075
		l-0.168,0.438L18.389,35.669L18.389,35.669z M22.377,24.824l-0.031-0.11l-0.203-0.091l-0.097,0.052l0.038,0.205l0.191,0.132
		L22.377,24.824L22.377,24.824z M18.428,36.445l-0.002,0.356L18.428,36.445L18.428,36.445z M49.589,46.045l0.088,0.143l0.072-0.18
		l-0.058-0.081L49.589,46.045L49.589,46.045z M30.961,46.265l0.062,0.049l0.012-0.083L30.961,46.265L30.961,46.265z"/>
	<polygon fill="#232734" points="37.855,23.04 37.774,22.817 37.593,22.373 37.706,21.669 38.403,21.789 39.134,21.832 
		40.021,22.419 39.799,22.518 39.339,22.383 38.623,22.271 38.425,22.383 38.421,22.624 38.616,22.918 38.569,23.154 38.392,23.468 
		38.382,23.708 38.274,23.937 37.847,23.767 37.608,23.772 37.499,23.837 37.796,24.3 37.811,24.407 37.604,24.483 36.852,24.098 
		36.699,23.666 36.891,23.53 37.136,23.059 36.916,22.612 37.279,22.543 37.46,22.904 37.89,23.007 37.935,23.362 38.013,23.436 
		38.112,23.235 37.855,23.04 	"/>
	<polygon fill="#232734" points="35.294,20.589 35.641,20.731 36.092,21.14 36.612,21.408 36.003,21.941 36.648,22.326 
		36.653,23.118 36.472,23.269 35.56,22.967 34.666,22.68 34.268,21.952 34.799,21.643 35.313,22.202 35.368,21.258 35.166,20.914 
		35.294,20.589 	"/>
	<polygon fill="#232734" points="46.03,29.603 46.384,30.062 47.167,29.737 46.772,29.164 46.864,28.951 47.363,29.133 
		47.896,29.708 47.892,30.263 47.44,30.092 46.884,30.535 46.435,30.591 46.12,30.801 45.55,30.505 45.496,30.08 45.249,29.655 
		45.288,29.07 45.686,28.938 46.456,29.275 46.457,29.491 46.003,29.63 45.939,29.431 45.827,29.516 46.03,29.603 	"/>
	<polygon fill="#232734" points="44.31,28.408 44.212,28.209 43.901,28.042 43.904,27.729 44.128,27.649 44.511,27.9 44.938,27.771 
		44.745,27.52 44.014,27.394 43.54,26.884 43.281,26.662 43.317,26.7 43.528,26.45 44.083,26.459 44.396,27.062 45.407,27.479 
		45.975,28.34 45.792,28.592 44.924,28.174 44.641,28.371 44.267,28.373 44.31,28.408 	"/>
	<polygon fill="#232734" points="25.253,40.04 26.146,40.836 25.559,41.186 25.908,41.275 26.049,41.747 25.781,41.967 
		25.028,41.613 24.81,40.935 25.114,40.652 24.941,40.164 25.253,40.04 	"/>
	<polygon fill="#232734" points="26.017,42.255 26.524,42.656 26.848,42.579 27.094,43.388 26.901,43.62 26.776,43.654 
		25.771,43.373 25.692,42.424 26.017,42.255 	"/>
	<polygon fill="#232734" points="45.835,42.872 46.076,42.621 46.509,42.452 46.767,42.721 46.581,43.215 45.716,44.286 
		45.509,44.122 45.484,43.856 45.79,43.092 45.835,42.872 	"/>
	<polygon fill="#232734" points="23.093,31.588 23.163,31.685 23.124,32.758 22.813,33.637 22.46,33.392 22.494,32.681 
		23.009,31.614 23.093,31.588 	"/>
	<polygon fill="#232734" points="27.239,27.913 26.682,27.291 26.347,27.257 25.922,26.858 26.172,26.613 27.719,27.314 
		27.239,27.913 	"/>
	<polygon fill="#232734" points="48.44,39.046 48.741,39.599 48.71,39.808 48.161,40.606 47.854,40.983 47.657,41.062 47.598,40.85 
		47.995,39.962 48.287,39.162 48.44,39.046 	"/>
	<polygon fill="#232734" points="24.372,27.783 24.976,27.715 25.059,27.638 25.129,27.18 25.524,27.136 25.373,28.097 
		25.246,28.219 24.519,28.224 24.397,27.76 24.372,27.783 	"/>
	<polygon fill="#232734" points="42.816,25.682 42.347,25.924 41.921,25.687 41.548,25.436 41.581,25.476 41.701,25.284 
		42.198,25.009 42.783,25.719 42.816,25.682 	"/>
	<polygon fill="#232734" points="26.408,28.938 26.702,28.366 26.925,28.304 27.054,28.602 26.932,28.833 27.063,29.132 
		26.916,29.425 26.687,29.398 26.408,28.938 	"/>
	<polygon fill="#232734" points="44.845,42.408 45.108,42.635 45.112,43.492 44.8,43.608 44.665,42.802 44.888,42.375 
		44.845,42.408 	"/>
	<polygon fill="#232734" points="27.902,43.705 27.904,44.05 27.681,44.348 27.495,44.489 26.956,44.338 26.974,44.103 
		27.698,43.739 27.933,43.736 27.902,43.705 	"/>
	<polygon fill="#232734" points="24.065,29.057 24.302,29.308 23.939,30.062 23.746,30.109 23.681,30.01 23.664,29.772 
		24.065,29.057 	"/>
	<polygon fill="#232734" points="27.374,24.959 27.125,24.723 27.544,24.336 28.133,24.328 28.227,24.399 28.179,24.488 
		27.374,24.959 	"/>
	<polygon fill="#232734" points="42.806,28.169 42.554,27.924 42.938,27.453 43.157,27.452 43.196,28.079 42.806,28.169 	"/>
	<polygon fill="#232734" points="46.24,26.559 45.893,26.668 45.565,26.316 45.553,26.09 45.839,25.967 46.24,26.559 	"/>
	<polygon fill="#232734" points="43.281,26.662 43.266,26.893 42.913,27.148 42.606,26.875 42.901,26.532 43.317,26.7 
		43.281,26.662 	"/>
	<polygon fill="#232734" points="44.267,28.373 44.446,28.667 44.534,28.986 43.875,28.754 44.31,28.408 44.267,28.373 	"/>
	<polygon fill="#232734" points="24.764,26.339 24.85,26.546 24.816,26.904 24.52,27.034 24.477,26.522 24.563,26.445 
		24.764,26.339 	"/>
	<polygon fill="#232734" points="48.382,36.88 48.756,36.499 48.962,36.714 48.94,36.829 48.382,36.88 	"/>
	<polygon fill="#232734" points="25.85,26.139 25.804,26.364 25.502,26.456 25.399,26.261 25.564,25.977 25.754,25.937 
		25.85,26.139 	"/>
	<polygon fill="#232734" points="26.014,27.565 26.224,27.568 26.301,27.876 25.985,28.179 26.014,27.565 	"/>
	<polygon fill="#232734" points="33.857,21.729 33.64,21.993 33.325,21.969 33.448,21.681 33.857,21.729 	"/>
	<polygon fill="#232734" points="37.513,47.904 37.705,48.146 37.421,48.287 37.293,48.107 37.513,47.904 	"/>
	<polygon fill="#232734" points="39.318,22.908 39.319,23.021 39.124,23.225 38.867,22.935 39.134,22.798 39.318,22.908 	"/>
	<polygon fill="#232734" points="41.556,47.217 41.952,46.883 42.086,47.006 41.765,47.307 41.556,47.217 	"/>
	<polygon fill="#232734" points="46.86,42.254 46.869,42.14 47.103,41.96 47.274,42.206 47.04,42.367 46.86,42.254 	"/>
	<polygon fill="#232734" points="46.905,31.281 46.784,31.096 46.851,30.893 47.157,30.92 47.122,31.225 46.905,31.281 	"/>
	<polygon fill="#232734" points="22.706,37.349 22.661,37.692 22.489,37.817 22.245,37.668 22.506,37.366 22.737,37.378 
		22.706,37.349 	"/>
	<polygon fill="#232734" points="29.565,23.463 29.858,23.333 29.873,23.736 29.65,23.78 29.565,23.463 	"/>
	<polygon fill="#232734" points="36.138,47.706 36.189,47.983 35.901,48.019 35.946,47.83 36.138,47.706 	"/>
	<polygon fill="#232734" points="24.841,39.415 24.59,39.749 24.507,39.701 24.463,39.481 24.747,39.346 24.841,39.415 	"/>
	<polygon fill="#232734" points="22.737,37.378 22.727,37.149 23.105,37.004 22.706,37.349 22.737,37.378 	"/>
	<polygon fill="#232734" points="42.783,25.719 43.13,25.713 43.224,25.767 43.235,26.072 43.04,26.062 42.816,25.682 
		42.783,25.719 	"/>
	<polygon fill="#232734" points="48.887,34.82 49.014,35.143 48.884,35.45 48.887,34.82 	"/>
	<polygon fill="#232734" points="22.764,35.92 22.853,35.98 22.749,36.117 22.565,36.005 22.651,35.931 22.764,35.92 	"/>
	<polygon fill="#232734" points="24.397,27.76 24.13,27.431 24.204,27.342 24.37,27.419 24.372,27.783 24.397,27.76 	"/>
	<polygon fill="#232734" points="30.842,22.906 30.989,23.025 30.909,23.229 30.76,23.111 30.842,22.906 	"/>
	<polygon fill="#232734" points="36.81,48.852 36.829,48.519 36.901,48.44 36.999,48.618 36.771,48.817 36.81,48.852 	"/>
	<polygon fill="#232734" points="37.635,48.717 37.671,48.643 37.888,48.632 37.927,48.714 37.843,48.797 37.635,48.717 	"/>
	<polygon fill="#232734" points="39.362,47.875 39.356,48.237 39.362,47.875 	"/>
	<polygon fill="#232734" points="43.235,46.199 43.419,46.1 43.591,46.209 43.402,46.31 43.303,46.281 43.235,46.199 	"/>
	<polygon fill="#232734" points="43.165,23.997 43.229,24.09 43.093,24.079 43.165,23.997 	"/>
	<polygon fill="#232734" points="42.163,23.665 42.133,23.572 42.212,23.582 42.163,23.665 	"/>
	<polygon fill="#232734" points="27.434,42.973 27.242,42.886 27.261,42.81 27.405,43.002 27.434,42.973 	"/>
	<polygon fill="#232734" points="22.664,35.494 22.629,35.566 22.532,35.491 22.598,35.416 22.664,35.494 	"/>
	<path fill="#232734" d="M30.041,30.453l0.296-0.329l0.302-0.15l0.611,0.775l-0.196,0.334l0.002,0.347l-0.205,0.084l0.102,0.097
		l0.074-0.209l0.121-0.014l0.413-0.613l0.831-0.435l0.655-0.56l0.585-0.187l0.46-0.154l0.483-0.062l0.457-0.161l0.488-0.037
		l1.224-0.01l0.247,0.019l0.992,0.25l1.103,0.54l1.443,1.415l0.519,1.068L41.18,33l0.343,0.451l0.047,0.109l0.289,1.98l-0.191,0.402
		l-0.069,0.817l-0.454,0.88l-0.204,0.303l-1.616,1.949l-1.301,0.688l-2.068,0.669l-0.475,0.104l-0.234,0.041l-1.716-0.209
		l-0.309-0.135l-1.305-0.869l-0.738-0.964l-0.056-0.107l-0.646-1.567l-0.395-1.018l-0.088-1.065l-0.044-0.111l0.081-0.694l0.04-0.98
		l0.05-0.36l0.198-0.826l-0.004-0.828l0.189-0.336l-0.007-0.231l-0.066-0.089l-0.228,0.102l-0.376-0.437l-0.038,0.041l0.285-0.288
		L30.041,30.453L30.041,30.453z M36.946,36.774l0.663-0.604l-0.587,0.291l-0.037,0.351l-0.217-0.075l-0.232-0.298l0.182-0.308
		l0.225-0.273l-0.074-0.213l-0.408,0.131l-0.902,0.005l-0.332-0.312l0.028-0.271l0.68-0.504l0.05-0.458l0.086-0.085l0.365,0.305
		l-0.156,0.439l0.411,0.199l0.933,0.088l0.204,0.291l0.095-0.484l-0.305-0.519L37.03,34.03l-0.871-0.413l-0.335,0.022l-0.484,0.539
		l-0.477,0.855L34.6,34.783l0.043-0.598l-0.384,0.168l-0.458,0.163l0.353,1.835l0.376,0.366l0.453-0.005l0.267,0.07l0.196,0.278
		l1.266-0.05L36.946,36.774L36.946,36.774z M37.688,37.262l0.194-0.083l-0.059-0.071l-0.102,0.188l-1.352,0.504l-1.209-0.057
		l-0.116-0.056l-1.373-1.173l-0.237-0.552l-0.358-0.62l0.222-0.816l0.389-0.837l-0.812-0.192l-0.043-0.249l0.372-0.459l0.321-0.138
		l-0.04-0.039l0.065,0.354l0.747,0.356l0.454-0.367l0.596,0.144l1.208,0.075l1.105,0.747l0.752,1.238l0.007,1.202l-0.2,0.918
		l0.062,0.102l0.148-0.082l0.117-0.465l0.278-0.529l0.606-0.004l-0.037-0.039l-0.17,0.677l0.595,0.721l0.321-0.347l0.479-0.502
		l0.294-1.302l0.132-0.591l0.054-0.571l-1.483-2.602l-1.863-1.539l-0.568-0.081l-1.051-0.41l-0.293,0.357l-0.559-0.394l-1.091,0.259
		l-1.145,0.314l-0.695,0.672l-0.144,0.395l-0.453,0.362l-0.163,0.169l-0.631,0.707l-0.377,0.801l-0.021,1.565l0.153,0.71l0.323,1.04
		l0.404,1.364l0.344,0.382l0.062,0.521l0.478,0.695l1.686,0.632l1.4,0.374l1.271-0.192l2.018-0.854l0.863-0.93l0.062-0.246
		l-0.354-0.299l-0.244-0.544l-0.073,0.352l-0.048,0.361l-0.16,0.159l-0.283-0.142l-0.113-0.213l-0.893,0.623l-0.001,0.331
		l-0.362,0.107l0.047-0.325l-0.11-0.482l0.389-0.396l0.432-0.351L37.688,37.262L37.688,37.262z M35.12,33.669l-0.07,0.066
		l0.058,0.079l0.067-0.067L35.12,33.669L35.12,33.669z"/>
	<polygon fill="#232734" points="43.622,40.189 44.283,40.344 44.249,40.557 43.052,41.115 42.702,41.04 42.651,41.641 
		42.108,42.278 41.161,43.041 39.81,43.809 39.753,43.493 40.024,43.254 40.638,42.862 42.347,41.325 42.048,40.975 41.71,40.815 
		41.784,40.493 42.257,40.616 42.579,40.455 42.944,40.583 43.618,40.194 43.622,40.189 	"/>
	<polygon fill="#232734" points="35.425,42.541 34.722,42.554 34.267,42.567 33.915,42.492 32.614,42.199 32.088,41.896 
		31.523,41.679 31.021,41.331 30.514,41 30.431,40.67 30.51,40.625 32.779,41.814 33.117,41.946 34.188,42.169 35.78,42.172 
		37.065,41.806 37.154,41.855 37.19,42.076 36.957,42.35 36.85,42.406 35.658,42.615 35.425,42.541 	"/>
	<polygon fill="#232734" points="29.824,30.668 29.58,30.884 29.158,31.854 28.871,31.732 28.86,31.116 29.228,30.652 
		29.297,30.432 29.482,30.328 29.412,30.268 29.332,30.465 28.838,29.938 28.806,29.971 29.328,29.545 29.115,29.079 29.154,28.861 
		29.472,28.836 29.662,28.979 29.771,29.525 29.6,29.837 29.997,30.104 30.041,30.453 30.071,30.421 29.786,30.709 29.824,30.668 	
		"/>
	<polygon fill="#232734" points="27.383,35.188 27.959,34.234 28.082,34.514 27.886,35.14 27.892,36.294 28.044,36.998 
		28.075,37.597 27.816,37.782 27.458,37.193 27.431,37.077 27.383,35.188 	"/>
	<polygon fill="#232734" points="32.612,44.939 32.468,44.76 31.221,44.127 31.288,43.692 33.095,44.425 33.508,44.464 
		33.741,44.782 33.648,44.857 32.574,44.907 32.612,44.939 	"/>
	<polygon fill="#232734" points="35.242,43.816 35.262,44.05 35.055,44.156 33.625,43.981 33.146,43.913 32.719,43.697 
		32.672,43.514 32.772,43.45 33.462,43.639 35.146,43.744 35.242,43.816 	"/>
	<polygon fill="#232734" points="44.704,37.319 44.931,37.294 45.042,37.5 45.004,38.338 44.806,39.034 44.502,39.395 
		44.394,39.131 44.403,38.567 44.389,38.214 44.583,37.776 44.704,37.319 	"/>
	<polygon fill="#232734" points="34.494,27.566 34.776,27.325 36.453,27.487 36.628,27.629 36.605,27.838 35.179,27.83 
		34.95,27.843 34.494,27.566 	"/>
	<polygon fill="#232734" points="40.931,39.695 40.567,39.697 40.44,39.528 40.483,39.313 40.789,39.13 41.302,38.487 41.52,38.564 
		41.551,39.394 41.245,39.475 40.894,39.731 40.931,39.695 	"/>
	<polygon fill="#232734" points="41.144,28.776 41.384,28.682 42.185,29.18 42.296,29.826 42.151,29.806 41.144,28.776 	"/>
	<polygon fill="#232734" points="42.001,39.294 42.372,39.584 41.997,40.161 41.727,40.125 41.665,39.914 41.703,39.803 
		42.001,39.294 	"/>
	<polygon fill="#232734" points="35.465,45.042 35.236,45.292 34.869,45.078 35.133,44.745 35.465,45.042 	"/>
	<polygon fill="#232734" points="29.512,41.584 30.023,42.137 29.54,41.981 29.512,41.584 	"/>
	<polygon fill="#232734" points="36.703,43.925 36.487,44.115 36.332,43.99 36.485,43.737 36.703,43.925 	"/>
	<polygon fill="#232734" points="36.755,44.704 36.953,44.811 36.804,45.09 36.546,44.935 36.755,44.704 	"/>
	<polygon fill="#232734" points="39.904,27.633 40.14,27.465 40.319,27.698 40.088,27.876 39.904,27.633 	"/>
	<polygon fill="#232734" points="40.894,39.731 41.313,39.947 41.286,40.38 40.968,40.096 40.931,39.695 40.894,39.731 	"/>
	<polygon fill="#232734" points="43.618,40.194 43.228,40.196 43.193,39.85 43.389,39.74 43.589,39.835 43.622,40.189 
		43.618,40.194 	"/>
	<polygon fill="#232734" points="44.327,33.592 44.493,33.865 44.193,33.978 44.122,33.661 44.327,33.592 	"/>
	<polygon fill="#232734" points="44.378,35.234 44.638,35.071 44.774,35.361 44.58,35.473 44.378,35.234 	"/>
	<polygon fill="#232734" points="28.424,40.851 28.58,40.584 28.813,40.775 28.71,40.969 28.424,40.851 	"/>
	<polygon fill="#232734" points="31.314,28.354 31.612,28.221 31.543,28.67 31.309,28.496 31.314,28.354 	"/>
	<polygon fill="#232734" points="38.099,45.053 38.071,44.737 38.387,44.732 38.304,44.93 38.099,45.053 	"/>
	<polygon fill="#232734" points="37.802,43.802 37.976,43.562 38.153,43.561 38.188,43.77 37.911,43.891 37.802,43.802 	"/>
	<polygon fill="#232734" points="31.216,43.121 30.881,42.821 31.274,42.826 31.216,43.121 	"/>
	<polygon fill="#232734" points="28.838,29.938 28.407,29.84 28.565,29.569 28.749,29.539 28.809,29.631 28.806,29.971 
		28.838,29.938 	"/>
	<polygon fill="#232734" points="41.263,43.495 41.462,43.411 41.571,43.554 41.381,43.641 41.263,43.495 	"/>
	<polygon fill="#232734" points="42.533,42.688 42.528,43.068 42.533,42.688 	"/>
	<polygon fill="#232734" points="32.947,17.278 35.438,17.175 35.665,17.265 35.773,17.32 36.843,17.521 36.486,17.623 
		34.316,17.488 34.208,17.503 32.947,17.278 	"/>
	<polygon fill="#232734" points="51.755,37.382 52.091,36.797 52.198,37.003 52.179,38.466 52.157,38.707 51.882,39.758 
		51.683,39.857 51.517,39.723 51.513,39.603 51.718,38.532 51.755,37.382 	"/>
	<polygon fill="#232734" points="52.132,29.784 52.136,30.594 51.869,30.768 51.727,30.603 51.561,29.401 51.176,28.255 
		51.004,27.705 51.314,27.737 52.004,29.538 52.132,29.784 	"/>
	<polygon fill="#232734" points="42.261,19.084 42.737,19.089 44.56,20.024 44.63,20.207 44.421,20.286 44.157,20.254 
		42.393,19.253 42.286,19.057 42.261,19.084 	"/>
	<polygon fill="#232734" points="42.286,19.057 41.813,19.06 41.171,18.748 41.136,18.449 41.689,18.576 42.194,18.876 
		42.261,19.084 42.286,19.057 	"/>
	<polygon fill="#232734" points="45.96,21.078 46.337,21.339 46.233,21.494 45.887,21.435 45.798,21.225 45.96,21.078 	"/>
	<polygon fill="#232734" points="38.131,17.951 38.13,17.841 38.244,17.672 38.53,17.787 38.515,17.993 38.317,18.062 
		38.131,17.951 	"/>
	<polygon fill="#232734" points="50.528,32.35 50.62,32.434 50.581,32.737 50.356,32.76 50.245,32.462 50.528,32.35 	"/>
	<polygon fill="#232734" points="51.183,33.252 50.884,33.531 50.561,33.447 50.817,33.073 51.214,33.288 51.183,33.252 	"/>
	<polygon fill="#232734" points="51.212,34.738 50.866,34.67 50.774,34.464 51.005,34.276 51.182,34.396 51.199,34.751 
		51.212,34.738 	"/>
	<polygon fill="#232734" points="51.317,32.377 51.411,32.573 51.314,32.766 51.095,32.705 51.124,32.516 51.317,32.377 	"/>
	<polygon fill="#232734" points="49.067,24.287 49.325,24.588 49.033,24.575 49.067,24.287 	"/>
	<polygon fill="#232734" points="39.378,18.209 39.737,18.215 39.378,18.209 	"/>
	<polygon fill="#232734" points="47.032,22 47.118,22.084 46.89,22.228 46.81,22.144 47.032,22 	"/>
	<polygon fill="#232734" points="49.937,26.022 50.024,25.941 50.169,26.078 50.074,26.279 49.987,26.236 49.938,26.133 
		49.937,26.022 	"/>
	<polygon fill="#232734" points="48.026,23.037 48.096,23.038 48.055,23.177 47.995,23.104 48.026,23.037 	"/>
	<polygon fill="#232734" points="51.214,41.511 51.132,41.572 51.058,41.499 51.142,41.433 51.214,41.511 	"/>
	<polygon fill="#232734" points="50.875,42.43 50.942,42.499 50.868,42.557 50.796,42.491 50.875,42.43 	"/>
	<polygon fill="#232734" points="29.415,51.349 30.021,51.333 30.568,51.191 30.691,51.421 31.34,51.789 32.153,51.82 
		32.578,51.581 32.694,51.58 32.73,51.776 32.547,52.209 32.225,52.121 32.001,52.213 31.778,52.116 30.841,51.898 29.938,51.572 
		29.496,51.424 29.451,51.312 29.415,51.349 	"/>
	<polygon fill="#232734" points="24.243,48.916 24.241,48.56 23.487,47.75 23.273,47.673 23.282,47.173 23.253,47.202 
		23.477,47.244 23.734,47.498 25.16,48.8 25.166,49.019 24.483,48.885 24.243,48.916 	"/>
	<polygon fill="#232734" points="27.196,48.847 28.288,49.198 28.617,49.512 28.17,49.582 27.196,48.847 	"/>
	<polygon fill="#232734" points="34.684,50.165 34.862,50.276 35.004,50.454 34.905,50.753 34.576,50.783 34.446,50.414 
		34.515,50.322 34.684,50.165 	"/>
	<polygon fill="#232734" points="19.804,39.849 19.823,39.456 20.127,39.346 20.422,39.578 20.481,39.916 20.176,40.041 
		19.767,39.815 19.804,39.849 	"/>
	<polygon fill="#232734" points="33.787,51.151 33.654,51.294 32.968,51.198 33.107,51.059 33.787,51.151 	"/>
	<polygon fill="#232734" points="38.026,52.249 37.913,52.434 37.378,52.379 38.052,52.277 38.026,52.249 	"/>
	<polygon fill="#232734" points="34.272,52.388 33.914,52.327 33.962,52.131 34.049,52.146 34.272,52.388 	"/>
	<polygon fill="#232734" points="32.275,50.643 32.349,50.758 32.308,50.968 32.018,51.002 32.033,50.819 32.275,50.643 	"/>
	<polygon fill="#232734" points="28.092,50.404 27.928,50.823 27.772,50.718 27.82,50.615 28.092,50.404 	"/>
	<polygon fill="#232734" points="19.767,39.815 19.752,40.154 19.674,40.232 19.59,40.201 19.597,39.911 19.804,39.849 
		19.767,39.815 	"/>
	<polygon fill="#232734" points="22.087,45.81 22.275,45.742 22.397,45.858 22.212,45.939 22.087,45.81 	"/>
	<polygon fill="#232734" points="35.792,52.412 36.159,52.283 36.241,52.435 36.173,52.509 35.792,52.412 	"/>
	<polygon fill="#232734" points="34.538,51.69 34.457,51.753 34.387,51.677 34.47,51.607 34.538,51.69 	"/>
	<polygon fill="#232734" points="30.732,49.945 30.802,49.915 30.866,49.985 30.798,50.05 30.732,49.945 	"/>
	<polygon fill="#232734" points="29.451,51.312 29.256,51.219 29.334,51.162 29.415,51.349 29.451,51.312 	"/>
	<polygon fill="#232734" points="26.85,49.936 26.898,50.008 26.839,50.07 26.786,49.998 26.85,49.936 	"/>
	<polygon fill="#232734" points="23.282,47.172 23.105,47.084 23.171,47.027 23.253,47.202 23.282,47.172 	"/>
	<polygon fill="#232734" points="19.381,38.919 19.481,38.996 19.412,39.068 19.347,38.99 19.381,38.919 	"/>
	<polygon fill="#232734" points="26.472,20.019 24.486,21.289 24.449,20.981 25.95,19.974 26.472,20.019 	"/>
	<polygon fill="#232734" points="23.13,24.593 23.471,24.594 23.603,24.873 23.461,25.019 23.168,24.912 23.151,24.572 
		23.13,24.593 	"/>
	<polygon fill="#232734" points="22.763,22.698 22.699,23.063 22.5,23.003 22.522,22.914 22.763,22.698 	"/>
	<polygon fill="#232734" points="23.237,22.037 23.355,21.93 23.501,22.025 23.424,22.096 23.317,22.098 23.237,22.037 	"/>
	<polygon fill="#232734" points="27.641,19.261 27.713,19.312 27.698,19.514 27.624,19.534 27.563,19.34 27.641,19.261 	"/>
	<polygon fill="#232734" points="30.224,19.611 30.03,19.859 29.838,19.764 29.909,19.687 30.255,19.645 30.224,19.611 	"/>
	<polygon fill="#232734" points="40.214,50.778 39.434,50.783 39.319,50.688 39.366,50.615 40.267,50.306 41.181,50.001 
		42.107,49.755 42.659,49.554 42.877,49.763 42.856,49.895 41.849,50.242 41.043,50.478 40.214,50.778 	"/>
	<polygon fill="#232734" points="46.394,49.247 45.725,49.499 45.471,49.365 46.682,48.373 46.774,48.383 46.814,48.601 
		46.438,49.072 46.353,49.287 46.394,49.247 	"/>
	<polygon fill="#232734" points="47.808,45.802 48.06,45.557 48.583,45.553 48.583,46.073 47.985,46.476 47.808,45.802 	"/>
	<polygon fill="#232734" points="47.983,46.824 48.209,46.848 48.28,47.053 48.251,47.164 47.997,47.688 47.665,47.43 
		47.983,46.824 	"/>
	<polygon fill="#232734" points="43.48,48.913 43.8,48.599 44.106,48.734 43.825,49.031 43.708,49.025 43.48,48.913 	"/>
	<polygon fill="#232734" points="46.499,47.104 46.446,47.49 46.175,47.406 46.499,47.104 	"/>
	<polygon fill="#232734" points="44.905,48.06 45.272,47.641 45.119,48.044 44.881,48.034 44.905,48.06 	"/>
	<polygon fill="#232734" points="44.881,48.034 44.689,48.274 44.493,48.186 44.563,48.111 44.905,48.06 44.881,48.034 	"/>
	<polygon fill="#232734" points="44.036,50.059 44.112,50.144 43.954,50.136 44.036,50.059 	"/>
	<polygon fill="#232734" points="42.812,50.816 42.841,50.893 42.769,50.885 42.812,50.816 	"/>
	<polygon fill="#232734" points="22.631,26.671 22.316,26.749 22.211,26.445 22.509,26.333 22.593,26.417 22.631,26.671 	"/>
	<polygon fill="#232734" points="20.684,26.308 20.627,26.745 20.336,26.743 20.337,26.545 20.7,26.322 20.684,26.308 	"/>
	<polygon fill="#232734" points="19.559,28.61 19.692,28.698 19.625,28.891 19.496,28.794 19.559,28.61 	"/>
	<polygon fill="#232734" points="33.525,32.65 33.407,32.464 33.068,32.487 32.542,32.982 32.185,33.294 31.819,32.692 
		31.93,32.374 32.012,32.031 32.159,31.719 32.536,32.155 32.667,32.279 32.745,32.19 32.743,32.072 32.768,31.833 32.946,31.678 
		34.026,31.648 34.124,31.718 33.83,32.294 34.134,32.485 33.884,32.852 33.485,32.611 33.525,32.65 	"/>
	<polygon fill="#232734" points="33.033,38.768 33.119,38.979 33.418,39.185 34.189,39.406 34.138,38.926 34.555,38.82 
		34.733,39.099 34.604,39.421 34.671,39.656 33.527,39.742 32.665,39.167 32.396,38.768 32.162,38.383 32.39,38.333 32.811,38.546 
		32.781,38.512 33.07,38.797 33.033,38.768 	"/>
	<polygon fill="#232734" points="37.103,31.975 36.927,32.084 36.445,31.914 35.411,31.848 35.064,31.519 35.256,31.398 
		36.089,31.448 36.78,31.64 37.103,31.975 	"/>
	<polygon fill="#232734" points="35.868,39.719 35.646,39.72 35.542,39.156 35.829,38.804 36.124,38.786 36.194,39.106 
		35.868,39.719 	"/>
	<polygon fill="#232734" points="31.942,34.694 31.696,35.234 31.349,34.957 31.592,34.147 31.942,34.694 	"/>
	<polygon fill="#232734" points="39.87,33.284 39.869,33.626 39.731,33.742 39.403,33.065 39.47,32.974 39.661,33 39.745,33.082 
		39.87,33.284 	"/>
	<polygon fill="#232734" points="31.928,36.608 31.945,37.225 31.853,37.153 31.646,36.745 31.928,36.608 	"/>
	<polygon fill="#232734" points="39.931,36.057 39.952,35.699 40.122,35.571 40.349,35.773 40.339,35.891 39.898,36.021 
		39.931,36.057 	"/>
	<polygon fill="#232734" points="32.811,38.546 32.903,38.334 33.225,38.336 33.285,38.552 33.033,38.768 33.07,38.797 
		32.781,38.512 32.811,38.546 	"/>
	<polygon fill="#232734" points="39.898,36.021 39.615,36.265 39.396,36.262 39.433,36.301 39.931,36.057 39.898,36.021 	"/>
</g>
</svg>
