<?xml version="1.0" encoding="utf-8"?>
<!-- Generator: Adobe Illustrator 15.0.2, SVG Export Plug-In . SVG Version: 6.00 Build 0)  -->
<!DOCTYPE svg PUBLIC "-//W3C//DTD SVG 1.1//EN" "http://www.w3.org/Graphics/SVG/1.1/DTD/svg11.dtd">
<svg version="1.1" id="Layer_1" xmlns="http://www.w3.org/2000/svg" xmlns:xlink="http://www.w3.org/1999/xlink" x="0px" y="0px"
	 width="49px" height="49px" viewBox="0 0 49 49" enable-background="new 0 0 49 49" xml:space="preserve">
<g>
	<path fill="#232734" d="M31.113,32.68l-0.004,0.445l-0.645-0.174 M30.465,32.951l-0.166-0.125l-0.036-0.74l-0.533-0.711
		l-0.443-0.143l-1.021-0.652l-0.207,0.01l0.862,1.04l-0.717-0.142l-0.364-0.492l-1.524-0.686l-0.043,0.562l-0.124,0.21l-0.759-0.479
		l-0.784-0.482l-0.893-0.117l-0.293,0.072l0.705,0.721l0.874,0.822l-0.991-0.5l-1.112-0.795l-1.037-0.694l0.4,0.634l0.047,0.516
		L21.29,30.11l-0.321-0.491l-0.655,0.1l1.404,1.352l-0.182,0.238l-0.293-0.05l-0.508-0.327l-2.158-1.643l-0.66-0.211l-4.494-3.057
		l3.098,2.488l0.314,0.58l1.143,0.902l2.538,1.933l0.266,0.343l-0.188-0.014l-4.19-3.188l-0.355-0.585l-0.7-0.534l-2.514-1.965
		l-0.614-0.658l-0.925-0.751l-0.161-0.001l0.376,0.784l1.043,0.906l0.229,0.437l1.61,1.437l-2.237-1.549l-0.165-0.254l-0.753-0.734
		l-1.719-1.215l-0.082,0.044l0.579,0.818l-0.284-0.05l-1.409-1.338l-2.374-2.144l-0.56-1.772L5.33,19.667l0.143-0.716l0,0
		l2.044-2.255l1.621-1.092l0.264-0.144l3.43-1.587l0.988-0.378l1.292-0.418l1.453-0.402l2.598-0.811l2.929-0.758l2.061-0.477
		l4.575-0.601l2.322,0.426l3.358,0.876l2.66,1.382l0.928,0.785l0.282,0.349l0.76,0.93l0.133,3.447l-0.341,0.864l0.851,0.555
		l1.092,0.505l1.271,0.591l1.411,1.077l1.162,1.179l0.444,0.407l0.228,0.285l0.286,0.91l-0.319,1.721l-0.525,0.692L43.7,27.895
		l-1.577,1.072l-0.074,0.436l-1.201-0.059l-1.011,0.159l-0.219,0.239l-0.073,0.435l-0.797-0.418l-0.81,0.271l0.702,1.354
		l-0.383-0.154l-0.677-0.807l-0.813-0.309l-0.583,0.154l0.86,0.891l-0.014,0.21l-0.699-0.147l-1.072-0.614l-0.133,0.432l-1.216-0.66
		l-0.493,0.03l-0.183,0.428l-0.26,0.217l-0.766-0.489l-0.478,0.178l0.066,0.14l1.284,1.103l0.32,0.65l-0.046,0.087l-0.148-0.025
		l-0.772-0.584l-0.365-0.559l-1.864-1.048l-0.658,0.173l0.873,0.816l0.552,1.076l0.14,0.109 M30.523,24.569l0.272,0.054
		l-0.022-0.117l-0.242,0.128L30.107,24.7l-0.506-0.285l-1.613-0.183l-1.585,0.295l-0.435,0.068l-0.426,0.059l-0.252-0.046
		l0.026,0.109l0.218-0.128l0.428-0.058l0.431-0.063l0.377,0.288l2.617,0.023l0.71-0.141L30.523,24.569L30.523,24.569z
		 M14.596,23.912l0.433-0.064l0.25,0.169l0.413-0.038l0.431-0.048l0.391,0.206l2.573-0.022l1.356-0.061l1.359-0.118l2.265-0.134
		l2.257-0.313l1.175-0.284l1.325-0.322l0.734-0.181l1.44-0.45l0.846-0.326l1.648-0.753l2.604-1.456l2.099-1.696l0.562-1.825
		l-0.302-1.1l-0.192-0.27l-0.915-0.997l-1.551-1.219l-0.216,0.043l0.018,0.146l0.551,0.712l0.457,0.949l0.12,0.691l-0.347,1.28
		l-0.855,1.122l-4.204,2.134l-2.496,1.068l-3.15,1.068l-3.652,0.981l-2.813,0.606l-2.713,0.342l-0.368,0.21L15.7,24.038
		l-0.203-0.164l-0.461,0.034l-0.432,0.066l-0.251-0.083L14.358,24L14.596,23.912L14.596,23.912z M37.01,21.155l-0.507-0.229
		l0.501,0.165l0.723,0.404l-0.47-0.421L37.01,21.155L37.01,21.155z M24.955,26.443l-0.234,0.16l-2.544-0.007l-2.5-0.463
		l-1.408-0.494l-1.914-0.296l-0.236,0.151l-0.255-0.065l0.021,0.109l0.227-0.098l1.549,0.889l4.344,1.044l0.9,0.046l2.265-0.033
		l1.809-0.075l1.659,0.006l1.658-0.016l0.301-0.018l3.468-0.234l0.604-0.039l3.918-0.314l3.312-0.968l0.445-0.584l-0.009-1.409
		l-1.771-1.35l-1.106-0.353l0.397,0.513l0.452,0.396l0.325,0.659l-0.043,0.325l-0.272,0.681l-1.96,0.761l-6.306,0.859l-1.354,0.16
		l-1.805,0.089l-1.81,0.178l-0.898-0.037l-0.914,0.068l-0.384-0.233l0.232-0.169l1.66-0.118l1.354-0.056l3.016-0.354l1.359-0.046
		l5.715-0.783l1.373-0.371l0.466-0.937l-3.246-1.652l0.156,0.25l1.087,0.822l0.23,0.696l-0.467,0.312l-2.472,0.684l-3.921,0.463
		l-1.209,0.003l-4.08,0.057l-1.208,0.017l-1.36-0.033l-2.71-0.096l-1.054-0.005L19.39,25.27l-0.065,0.115l0.052,0.121l2.298,0.595
		l1.539,0.026l1.356,0.097L24.955,26.443L24.955,26.443z M35.467,13.508l-1.005-0.763l-1.19-0.628l-2.884-0.795l-0.755-0.048
		l-1.014-0.276l-0.811-0.213l-2.334,0.293l-1.616,0.375l-1.479,0.329l-0.873,0.24l-3.816,0.946l-2.762,0.799l-3.973,1.798
		l-1.633,0.84l-0.986,0.889l-0.362,0.264l-1.079,1.043l-0.157,0.263l0.509,1.69l0.486,0.839l0.901,0.714l0.854,0.595l2.225,0.53
		l1.656,0.098l1.815-0.038l0.757-0.048l1.36-0.078l1.809-0.196l1.934-0.36l1.905-0.488l1.317-0.339l2.275-0.801l1.172-0.302
		l3.234-1.266l1.395-0.579l1.617-0.789l1.447-0.887l0.492-0.646L35.467,13.508L35.467,13.508z M42.948,23.862l0.076,0.709
		l-0.262,0.955l-1.077,0.841l-1.64,0.488l-1.491,0.281l-2.718,0.31l-1.968,0.064l-1.965,0.12l-0.304,0.016l-2.119,0.094
		l-2.117,0.027l-3.025,0.146l-2.264,0.002l0.206,0.289l0.578,0.162l2.977,0.479l3.313,0.25l1.959,0.164l0.45,0.041l3.331-0.17
		l1.208-0.072l1.187-0.135l4.146-0.86l2.411-0.924l0.542-0.712l0.43-1.178l-0.182-1.229l-1.16-1.074l-0.538-0.525l-0.995-0.896
		L41.489,21.4l-1.274-0.87l-2.094-0.698L37.87,20.08l0.036,0.575l0.677,0.448l0.969,0.417l0.984,0.38l0.936,0.49l0.73,0.472
		l0.325,0.309L42.948,23.862L42.948,23.862z M30.995,23.162l-1.561,0.457l0.298,0.246l2.11,0.137l2.7-0.289l0.239-0.324l-0.163-0.24
		l-0.12-0.089l-0.134-0.071l-1.169-0.347l-0.429,0.048l-0.146,0.258l-0.12,0.388l-0.438,0.033L30.995,23.162L30.995,23.162z
		 M34.153,21.802l-0.513,0.408l1.494,0.555l0.224,0.245l0.151,0.426l-0.305,0.676l0.06,0.097l0.745-0.071l1.593-0.468l0.156-0.225
		l-0.154-0.231l-0.688-0.291l-1.042-0.596L34.153,21.802L34.153,21.802z M36.063,21.734l-0.16-0.223l-0.128-0.028l0.025,0.179
		L36.063,21.734L36.063,21.734z M32.197,22.708l0.117-0.02l-0.037-0.109L32.197,22.708L32.197,22.708z"/>
	<polygon fill="#232734" points="8.848,19.905 9.337,20.98 13.348,21.666 14.246,21.771 14.691,21.833 17.107,21.791 19.215,21.646 
		20.542,21.357 20.983,21.252 23.937,20.604 24.79,20.314 26.646,19.708 28.489,19.063 30.993,18.005 32.415,17.168 33.507,16.601 
		34.485,15.292 34.564,13.977 32.857,12.629 30.628,12.301 29.277,12.205 24.637,12.638 23.445,12.858 20.777,13.388 18.182,14.169 
		16.286,14.667 14.859,15.163 14.439,15.33 12.019,16.174 10.484,16.888 8.707,19.149 8.709,19.729 8.856,19.975 9.219,19.013 
		10.106,17.846 12.376,16.565 15.353,15.479 18.941,14.349 19.647,14.093 22.596,13.438 26.344,12.883 27.547,12.737 29.054,12.806 
		29.438,13.034 29.365,13.042 29.606,12.883 30.806,12.888 31.543,13.026 32.321,13.033 33.955,14.23 34.07,15.346 33.363,16.102 
		31.278,17.292 25.276,19.724 21.182,20.77 16.529,21.386 15.775,21.392 9.793,20.666 8.848,19.905 	"/>
	<path fill="#232734" d="M29.438,13.034l-0.073,0.008l0.404,0.2l1.633,0.309l0.285,0.093l0.757,0.768l-0.104,0.782l-1.072,1.296
		l-5.458,2.27l-2.196,0.552l-0.298,0.057l-6.616,0.897l-0.604,0.054l-2.87-0.034l-1.638-0.262L10.84,19.43l-0.015-0.537l0.82-1.077
		l2.567-1.271l2.59-0.841l1.154-0.354l1.312-0.354l1.451-0.402l4.112-0.992l1.799-0.283l1.805-0.085l0.89-0.101L29.438,13.034
		L29.438,13.034z M11.286,18.888l0.018,0.406l0.087,0.141l0.933,0.337l3.235,0.036l4.968-0.466l2.095-0.342l1.917-0.42l1.897-0.5
		l0.423-0.152l1.549-0.597l0.99-0.365l1.295-0.762l1.074-0.789l0.068-0.893l-0.902-0.506l-2.391-0.258l-1.361-0.016l-0.301,0.027
		l-1.177,0.18L24.522,14.2l-3.667,0.898l-0.146,0.043l-3.497,0.951l-0.438,0.118l-2.993,1.051l-0.699,0.285l-1.628,1.068
		L11.286,18.888L11.286,18.888z"/>
	<path fill="#232734" d="M14.774,18.293l1.704-0.861l1.719-0.576l2.326-0.657l0.579-0.172l2.466-0.717l2.492-0.648l1.646-0.358
		l2.207,0.25l0.205,0.222l-0.014,0.292l-0.528,0.737l-1.831,1.023l-1.879,0.544l-1.31,0.344l-1.462,0.364l-1.501,0.237l-1.491,0.261
		l-1.484,0.204l-1.792,0.216l-2.087-0.085L14.774,18.293L14.774,18.293z M25.352,16.804l0.433-0.058l0.275,0.067l2.527-0.953
		l0.379-0.241l0.537-0.46l-0.228-0.208l-0.451-0.018l-1.642,0.047l-1.637,0.275l-3.172,0.95l-1.461,0.367l-4.204,1.197l-1.181,0.605
		l0.211,0.228l0.903-0.037l5.242-0.787l0.299-0.33l0.248,0.084l0.009-0.117l-0.252,0.097l-0.588-0.079L21.436,17.2l0.052-0.111
		l0.132-0.068l2.37-0.417l1.02-0.329l0.386-0.341l0.931-0.166l0.232,0.228l-0.176,0.368l-0.269,0.132l-0.322,0.311l-0.434,0.061
		l-0.264-0.026l0.033,0.109L25.352,16.804L25.352,16.804z M24.313,17.165l0.258,0.041l-0.024-0.108l-0.226,0.132l-0.426,0.062
		l-0.256-0.043l0.019,0.114l0.229-0.135L24.313,17.165L24.313,17.165z"/>
</g>
</svg>
