<?xml version="1.0" encoding="utf-8"?>
<!-- Generator: Adobe Illustrator 15.0.2, SVG Export Plug-In . SVG Version: 6.00 Build 0)  -->
<!DOCTYPE svg PUBLIC "-//W3C//DTD SVG 1.1//EN" "http://www.w3.org/Graphics/SVG/1.1/DTD/svg11.dtd">
<svg version="1.1" id="Layer_1" xmlns="http://www.w3.org/2000/svg" xmlns:xlink="http://www.w3.org/1999/xlink" x="0px" y="0px"
	 width="64.558px" height="64.558px" viewBox="0 0 64.558 64.558" enable-background="new 0 0 64.558 64.558" xml:space="preserve">
<g id="babyonion4">
	<path fill="#232734" d="M18.891,19.698l0.785-0.657l1.503-1.252l0.856-0.685l0.739-0.64l0.947-0.533l0.889-0.392l0.755-0.401
		l0.687-0.245l1.034-0.348l1.304-0.31l0.844-0.456l1.485-0.095l0.703,0.151l0.224-0.101l1.332,0.003l0.344-0.031l0.604-0.042
		l2.189,0.143l0.13,0.01l1.052,0.258l1.03,0.36l0.38,0.045l3.939,2.182l1.369,1.02l1.88,1.762l1.76,2.185l0.475,0.854l0.505,0.974
		l0.476,0.986l0.375,0.598l-0.101,0.367l0.327,0.921l0.132,0.338l0.345,1.415l0.246,0.938l0.26,0.854l0.146,4.293l-0.18,0.465
		l-0.012,1.463l-0.205,0.664l-0.859,2.787l-0.529,1.363l-1.489,3.072l-0.704,0.994l-0.678,0.864l-0.242,0.271l-1.001,0.892
		l-1.749,1.331l-1.828,0.984l-0.65,0.338l-2.231,0.964l-0.333,0.168l-1.434,0.271l-0.481,0.062l-4.292,0.138l-0.845-0.11
		l-0.605-0.061l-0.838-0.145l-0.236-0.056l-1.195-0.218l-0.477-0.043l-1.022-0.429l-1.995-0.93l-1.867-1.166l-0.986-0.722
		l-0.819-0.739l-0.885-0.654l-0.686-0.697l-0.396-0.462l-1.375-1.712l-0.355-0.495l-0.45-0.859l-0.153-0.327l-0.481-0.978
		l-0.469-1.629l-0.457-1.336l-0.116-1.146l-0.284-2.419l-0.279-1.051l-0.039-2.698l0.08-0.478l0.072-0.357l0.044-0.855l0.206-0.949
		l0.217-0.819l0.226-0.945l0.171-0.454l0.478-1.247l0.023-0.12l0.851-1.479l0.977-1.4L18.891,19.698L18.891,19.698z M19.519,22.151
		l0.106,0.177l0.204,0.057l0.146-0.243l0.243-0.257l0.361,0.056l0.23,0.557l0.218-0.064l0.935-0.966l1.649-1.249l2.25-1.224
		l1.017-0.409l0.35-0.092l1.293-0.343l1.159-0.353l1.203-0.174l0.505-0.1l0.191-0.256l-0.292-0.539l-0.458,0.107l-0.454-0.155
		l-0.083-0.174l-0.067,0.013l0.181,0.128l0.134,0.668l-0.221,0.012l-0.317-0.35l-0.455-0.086l-0.418-0.455l0.438-0.195l0.865-0.089
		l0.54-0.479l0.481-0.072l0.441-0.169l0.598,0.554l0.073,0.231l-0.449,0.354l-0.129,0.735l0.332,0.281l0.772-0.025l0.605-0.027
		l0.744-0.082l0.486,0.484l1.17,0.239l1.286,0.29l0.634,0.366l0.551,0.067l1.26,0.663l1.784,1.037l0.7,0.487l1.167,1.253
		l1.421,1.681l0.155,0.189l1.322,1.703l0.389,0.944l0.375,0.21l0.046,0.44l0.439,0.778l-0.099,0.253l0.106,0.222l-0.026,0.578
		l0.774-0.526l0.168-0.411l0.557,0.235l0.228,0.66l0.238,0.03l0.103-0.207l-0.044-0.606l-0.195-0.826l-0.133-0.466l-0.218-0.691
		l-0.303-0.796l-0.288-0.7l-0.271,0.374l-0.182-0.311l-0.897-1.446l0.05-0.314l0.763,0.593l0.053-0.226l-0.578-0.929l-0.604-1.059
		l-0.738-0.966l-1.133-1.28l-0.222-0.064l-0.043-0.354l-0.778-0.749L43.7,18.224l-0.097-0.214l-0.881-0.642l-1.904-1.062
		l-0.649-0.328l-2.1-0.964l-0.691-0.203l-0.811-0.227l-0.597-0.076l-0.589-0.135l-1.311-0.22l-0.241-0.014l-0.697,0.134
		l-0.345-0.106l-1.994,0.062l-0.544,0.187l-0.724,0.111l-0.167,0.298l0.12,0.318l0.383,0.075l-0.026-0.027l-0.047,0.674
		l-0.399-0.069l-0.185-0.302l-0.599,0.019l0.248-0.404l-0.182-0.261l-0.424,0.191l-0.062,0.092l0.049,0.109l0.413,0.236l0.501,0.885
		l0.022,0.111l-0.342-0.011l-0.73-0.626l-0.728,0.174l-0.675,0.252l-0.214-0.075l0.441-0.366l0.867-0.4l-0.321-0.25l-1.383,0.416
		l-1.376,0.772l-1.281,0.902l-0.215,0.114l-0.484,0.052l-0.964,0.716l-0.194,0.292l0.04-0.041l-0.549,0.217l-1.037,1.001
		l-1.029,1.011l0.008,0.23l0.43,0.263l0.066,0.576l-0.253,0.17L19.519,22.151L19.519,22.151z M18.566,23.165l0.215,0.227
		l0.288-0.245l-0.157-0.623l-0.146,0.429L18.534,23.2l-0.091-0.173l-0.062,0.06L18.566,23.165L18.566,23.165z M38.374,20.09
		l0.037,0.108l1.002,0.594l0.461-0.015l0.014,0.118l0.824,0.604l0.506-0.345l-0.002-0.117l-0.528-0.455l-0.449-0.016l-0.398,0.249
		l-0.018-0.565l-0.174-0.168l-0.54-0.228l-0.443,0.25l-0.318,0.01l0.201-0.41l-0.553,0.068l-0.568-0.546l-0.269,0.234l-0.292,0.206
		l-0.137-0.676l-0.233-0.017l-0.731,0.403l-0.596-0.531l-0.021,1.444l-0.197,0.3l-0.175,0.532l1.508,0.754l0.187-0.145l0.127-0.21
		l-0.802-0.44l0.264-0.341l0.233,0.082l0.232-0.346l-0.589-0.409l-0.016-0.115l0.313-0.248l0.312,0.131l0.335-0.188l0.036,0.111
		l0.989,0.334l0.235,0.032L38.374,20.09L38.374,20.09z M47.849,40.692l0.066,1.253l-0.431,0.014l-0.257,0.751l0.051,0.098
		l0.082,0.002l0.242-0.257l0.128-0.328l0.151-0.312l0.115-0.038l0.783-1.644l0.479-1.396l0.019-0.352l0.121-0.34l0.348-1.417
		l0.179-0.573l-0.019-0.625l0.162-1.201l-0.009-0.854l-0.065-0.097l-0.313,0.007l-0.296,0.714l0.012,1.646L49.11,36.44l-0.246,0.003
		l-0.088-0.323l0.146-0.714l0.114-0.966l-0.063-0.339l0.275-0.938l-0.008-0.723l-0.075-0.036l-0.223,0.097l-0.195-0.143
		l-0.044-0.323l-0.075-0.179l-0.565,0.413l-0.38,1.54l-0.035,1.074l-0.161,0.371l-0.021,0.352l-0.039,0.734l-0.345,1.039
		l-0.673,1.511l-0.321,0.29l-0.538,0.984l-0.31,0.486l0.192,0.287l0.588,0.141l0.305,0.371l0.536,0.262l0.212-0.076l-0.005-0.096
		l-0.362-0.477l0.329-0.297l0.486,0.366l0.142-0.33l0.201-0.097L47.849,40.692L47.849,40.692z M38.469,47.614l0.313,0.788
		l0.381,0.048l-0.094-0.226l-0.016-0.119l0.237-0.2l0.517,0.312l0.223,0.077l0.33-0.119l-0.036,0.545l0.282,0.253l0.165-0.319
		l0.514-0.292l0.105-0.012l0.464,0.16l0.914-0.547l0.293-0.218l1.901-1.513l0.18-0.165l0.567-0.611l0.933-1.134l0.062-0.224
		l-0.227-0.413l0.072-0.229l0.089-0.221l-0.199-0.249l-0.815,0.229l-0.286-0.126l0.126-0.606l-0.021,0.021l0.177-0.143l0.001-0.444
		l-0.101-0.102l-0.701-0.201L44.6,42.012l-0.354,0.15l-1.56,1.57l-1.854,1.131l-0.723,0.451l-1.181,0.621l-1.728,0.882l-0.087,0.086
		l-0.013,0.198l0.223,0.039l0.283-0.196l0.442,0.212l0.338,0.444l0.113,0.045L38.469,47.614L38.469,47.614z M17.166,34.513
		L16.97,34.78l-0.276-0.169l-0.112-0.207l-0.456,0.14l-0.585-0.328l-0.057,0.107l0.052,1.325l0.183,0.365l0.076,0.833l0.233,0.817
		l0.34,1.541l0.084,0.227l1.484,2.938l1.283,1.785l2.412,2.262l1.759,1.38l1.396,0.865l3.155,1.356l0.587,0.144l1.072,0.22
		l0.35,0.098l0.598,0.108l0.714,0.015l0.368,0.14l4.975-0.149l0.619-0.202l0.668-0.18l0.253-0.45l0.063-0.033l0.621,0.104
		l0.123-0.146l-0.372-0.255l-0.167-1.011l-0.304,0.454l-0.233-0.018l-0.309-0.523l0.155-0.454l-0.116-0.167l-0.331,0.476
		l0.004,0.487l-0.264,0.18l-0.704-0.606l0.197-0.568l0.443-0.129l-0.415,0.156l-0.444-0.13l-0.299,0.491l-0.074,0.338l-0.248,0.008
		l-0.224-0.132l-0.646-0.702l-2.012,0.18l-0.638-0.136l-1.222-0.04l-1.321-0.189l-1.066-0.234l-0.931-0.277l-0.347-0.102
		l-1.053-0.288l-0.741-0.275l-2.27-1.634l-0.843-1.229l-0.081-0.387l-2.798-5.121l-0.211-0.682l-0.258-0.268l-0.508-0.313
		l0.012-0.581l0.314-0.463l-0.222-0.737l-0.255-0.657l0.201-0.395l-0.175-1.119l-0.005-1.816l0.098-0.724l0.059-0.603l0.147-0.959
		l0.113-0.472l0.324-1.787l0.034-0.24l0.581-1.185l-0.105-0.325l0.353-0.656l0.436-0.143l0.049-0.252l-0.368-0.269l-0.337,0.018
		l0.264,0.682l-0.823-0.146L18.77,23.71l-0.788,0.049l-0.312,0.13l-0.03-0.609l0.341-0.467l-0.106-0.289l-0.26,0.236l-0.72,1.127
		l-0.543,1.347l-0.604,1.793l-0.425,2.214l-0.01,1.671l0.024,0.364l0.117,0.306l0.26,0.09l1.084,1.065l0.22-0.111l0.113,0.439
		l0.013-0.014l-0.421,0.143l0.191,0.42l0.043,0.704l0.241,0.231L17.166,34.513L17.166,34.513z M28.107,22.869l0.188-0.093
		l-0.064-0.062l-0.09,0.185l-0.434-0.01l-1.569,0.808l-1.566,1.158l-0.164,0.557l0.557,0.118l0.258,0.279l0.025,0.259l-0.427,0.2
		l-0.588,0.166l-0.309-0.179l-0.492,1.084l-0.322,1.044l-0.392,1.042l0.04,1.267l0.181,0.414l0.137,2.267l0.443,0.914l0.518,0.975
		l0.338,0.021l0.141,0.15l-0.147,0.433l0.323,0.512l0.581,0.231l-0.108,0.636l0.494,0.767l0.542,0.866l1.149,1.175l1.401,0.769
		l1.582,0.624l0.118,0.027l0.946,0.208l2.935-0.05l0.85-0.097l0.914-0.334l3.533-1.836l0.054-0.146l0.004-0.24l0.113-0.451
		l0.792-0.708l0.02-0.143l-0.261-0.528l0.106-0.331l0.526,0.15l0.545-1.851l0.19-0.89l0.048-1.284l0.144-1.447l-0.037-1.265
		l-0.256-0.897l-0.247-0.938l-0.377-0.898l-0.508-1.104l-0.957-1.55l-0.3-0.383l-0.612-0.593l-0.799-0.562l-0.421-0.235
		l-1.457-0.648l-0.477-0.032l0.039,0.031l-0.414-0.432l-0.583-0.08l-0.567-0.188l-2.685,0.088l-0.594,0.097l-1.155,0.231
		l-0.463,0.218l-0.416,0.252l-0.012,0.335l-0.371,0.126L28.107,22.869L28.107,22.869z M31.205,18.618l-0.207-0.266l-0.469-0.131
		l-1.05,0.31l-0.217,0.277l-0.192,0.22l-0.068-0.102l-0.367-0.226l-0.709,0.243l-0.653,0.083l-2.734,1.465l-2.503,1.701
		l-0.206,0.539l-0.24,0.713l-0.39,0.871l-0.508,0.33l-0.517,0.966l-0.978,1.953l0.011,0.38l-0.021,0.12l-0.421,1.298l0.079,4.144
		l0.083,1.47l0.092,0.237l0.253,0.253l0.002,0.553l0.279,0.807l0.547-0.266l-0.401-0.973l-0.256-1.187l0.304-0.366l0.202,0.662
		l0.261,0.547l0.353,0.562l1.051-0.043l-0.112,0.287l-0.795,0.152l-0.177,0.251l-0.028,0.671l-0.935,0.125l0.537,1.082l0.553,1.219
		l0.147,0.195l0.538,1.085l0.702,1.141l0.061,0.236l0.408,0.745l1.721,1.909l1.017,0.672l1.56,0.696l0.582,0.171l1.18,0.279
		l1.078,0.196l0.73,0.045l0.832,0.189l1.07,0.174l0.964-0.075l0.703-0.187l0.288-0.17l0.054-0.663l0.617-0.039l0.224,0.555
		l0.258-0.026l0.197-0.422l0.271-0.507l0.244,0.247L36.034,46.1l0.38,0.285l0.659-0.245l0.596-0.413l1.656-0.771l2.177-1.099
		l1.705-1.382l0.258-0.891l-0.02-0.24l0.208-0.261l0.393-0.015l0.292-0.37l0.778-1.372l0.721-1.533l0.048-0.112l0.842-2.909
		l0.05-0.111l0.117-0.593l-0.002-1.231l0.17-0.541l-0.191-0.868l-0.089-0.833l-0.409-0.314l-0.021-0.117l0.078-0.218l0.266-0.41
		l-0.302-1.049l-0.963-0.482l-0.127,0.166l0.355,0.295l0.032,0.428l-0.216,0.103l-0.202,0.134l-0.42-0.061l-0.514-0.692l0.034-0.877
		l-0.355-0.203l0.09-0.399l-0.369-0.188l-0.016-0.69l-0.089-0.733l-0.199-0.309l0.003-0.114l0.352-0.191l0.355,0.291l-0.145,0.723
		l0.724,0.567l0.411-0.587l0.012-0.111l-1.042-1.483l-1.146-1.428l-1.26-1.331l-0.539,0.305l0.007,0.223l2.139,1.983l0.532,0.443
		l-1.05,0.006l-0.195-0.687l-1.878-1.547l-0.725-0.07l-0.537-0.701l-0.271-0.17l-0.989-0.473l-0.609,0.02l-0.144,0.842l0.299,0.093
		l0.278-0.682l0.719,0.612l0.321-0.141l0.205,0.168l0.204,0.431l0.424,0.475l0.057,0.839l0.257,0.221l-0.032-0.03l0.372,0.446
		l0.146,0.304l0.028-0.03l-0.237,0.064l-0.174,0.388l0.491,0.496l0.536-0.225l0.312,0.355l-0.277,0.17l-0.355,0.083l0.117,0.363
		l0.78,1.501l0.375,1.283l0.268,1.057l-0.033,1.576l-0.105,0.722l-0.188,0.83l-0.008,0.98l-0.188,0.95l-0.2,1.07l-0.326,1.038
		l-0.961,2.055l-0.724,0.85l-1.396,0.831l-0.639,0.35l-1.105,0.513l-1.026,0.353l-1.306,0.287l-0.61,0.147l-0.345-0.106
		l-0.837,0.025l-1.567-0.176l-0.486-0.04l-0.575-0.164l-0.176,0.129l-0.033,0.339L29.52,42.62l0.19,0.137l0.257,0.468l-0.354,0.469
		l-0.451-0.154l-0.475,0.016l-0.23,0.407l-0.319-0.013l-0.099-0.212l-0.225-0.445l-0.485-0.114l0.473-0.342l0.345-0.091l0.083-0.21
		l-0.253-0.115l-0.125,0.052l-0.506-0.354l-0.35-0.042l0.035,0.039l-0.011-0.36l0.504-0.338l0.375-0.485l-0.24-0.08l-0.771,0.245
		l-0.634-0.317l0.06-0.326l0.809,0.005l-1.063-0.771l-0.119-0.013l-0.256-0.239l-0.019-0.239l-0.538-0.807l-0.312-0.37l-0.546-0.58
		l-0.755-1.325l-0.384-0.892l-0.419-1.271l-0.157-0.585l-0.331-1.919l-0.192-0.471l-0.076-2.159l0.791-2.188l-0.424-0.37
		l-0.285-0.352l0.062-0.235l0.117-0.299l-0.188-0.352l0.248-0.246l0.475,0.378l-0.125,0.55l0.358,0.062l0.312-0.294l0.003-0.239
		l-0.042,0.034l0.42-0.096l0.672-1.095l0.992-1.059l0.7-0.479l0.666-0.288l1.573-0.625l2.212-0.58l0.23-0.067l0.829-0.169
		l1.865-0.035l0.79,0.172l0.171-0.136l-0.609-0.607l-0.098-0.212l0.175-0.157l-0.079-0.001l-0.06,0.191l-0.681-0.469l-0.46-0.116
		l-0.008-0.307l0.447-0.07l0.323,0.17l0.994-0.13l-0.603-0.517l-0.869,0.067l-0.098-0.011l-0.422,0.196l-0.589-0.098l-0.578-0.155
		L31.205,18.618L31.205,18.618z M48.956,31.47l0.008-1.199l-0.244-0.932l-0.142-0.134l-0.774,0.559l0.058,0.297l0.917,0.474
		l-0.055,0.131l-0.643,0.106l0.054,0.232l0.241,0.252l0.248-0.067l0.233,0.224L48.956,31.47L48.956,31.47z M28.357,42.003
		l0.449,0.036l0.357-0.589l-0.945-0.301L28.357,42.003L28.357,42.003z M39.35,23.693l0.321-0.305l-0.333-0.551l-0.322-0.065
		l-0.259,0.325L39.35,23.693L39.35,23.693z M45.258,27.14l0.554,0.456l0.083,0.008l0.073-0.214l-0.444-0.842l-0.458,0.058
		l-0.012,0.1L45.258,27.14L45.258,27.14z M15.526,32.378l-0.094,0.561l0.566,0.388l0.379-0.076l-0.407-0.281l-0.226-0.524
		L15.526,32.378L15.526,32.378z M37.896,22.603l0.46-0.052l0.25-0.336L38,21.898l-0.223,0.283L37.896,22.603L37.896,22.603z
		 M40.226,49.205l-0.606-0.57l-0.08,0.549l0.332,0.319L40.226,49.205L40.226,49.205z M49.919,31.289l-0.33,0.476l0.09,0.202
		l0.225,0.005l0.102-0.078l0.157-0.442L49.919,31.289L49.919,31.289z M46.211,42.233l0.034,0.109l0.205,0.086l0.096-0.055
		l-0.043-0.203l-0.194-0.128L46.211,42.233L46.211,42.233z M49.86,30.515l-0.008-0.356L49.86,30.515L49.86,30.515z M18.462,21.719
		l-0.091-0.141l-0.068,0.183l0.061,0.079L18.462,21.719L18.462,21.719z M37.078,21.021l-0.063-0.047l-0.009,0.083L37.078,21.021
		L37.078,21.021z"/>
	<polygon fill="#232734" points="30.783,44.415 30.87,44.636 31.063,45.075 30.969,45.781 30.269,45.68 29.536,45.655 
		28.635,45.092 28.854,44.987 29.318,45.11 30.036,45.204 30.231,45.086 30.229,44.845 30.026,44.557 30.067,44.319 30.237,44.001 
		30.24,43.76 30.342,43.529 30.773,43.688 31.012,43.677 31.12,43.609 30.811,43.153 30.794,43.047 30.999,42.966 31.76,43.331 
		31.923,43.759 31.735,43.9 31.503,44.378 31.733,44.818 31.372,44.897 31.182,44.541 30.75,44.449 30.695,44.095 30.617,44.023 
		30.522,44.226 30.783,44.415 	"/>
	<polygon fill="#232734" points="33.406,46.799 33.057,46.666 32.596,46.269 32.068,46.014 32.664,45.466 32.009,45.098 
		31.983,44.306 32.161,44.151 33.08,44.429 33.981,44.693 34.398,45.41 33.875,45.733 33.346,45.188 33.315,46.133 33.527,46.471 
		33.406,46.799 	"/>
	<polygon fill="#232734" points="22.443,38.064 22.077,37.614 21.303,37.959 21.712,38.521 21.625,38.736 21.122,38.568 
		20.575,38.007 20.565,37.452 21.02,37.612 21.565,37.154 22.014,37.087 22.322,36.869 22.9,37.149 22.964,37.573 23.223,37.992 
		23.199,38.578 22.805,38.721 22.026,38.402 22.02,38.187 22.47,38.037 22.538,38.234 22.648,38.146 22.443,38.064 	"/>
	<polygon fill="#232734" points="24.193,39.214 24.297,39.41 24.61,39.569 24.616,39.883 24.396,39.969 24.006,39.727 
		23.581,39.866 23.781,40.114 24.516,40.221 25.003,40.719 25.267,40.934 25.229,40.896 25.025,41.151 24.471,41.157 24.142,40.562 
		23.12,40.171 22.53,39.325 22.707,39.068 23.586,39.464 23.864,39.26 24.237,39.248 24.193,39.214 	"/>
	<polygon fill="#232734" points="42.944,27.097 42.031,26.323 42.609,25.959 42.259,25.878 42.104,25.411 42.367,25.184 
		43.13,25.518 43.365,26.19 43.067,26.48 43.253,26.965 42.944,27.097 	"/>
	<polygon fill="#232734" points="42.125,24.902 41.606,24.514 41.285,24.6 41.019,23.798 41.205,23.56 41.329,23.522 42.342,23.778 
		42.444,24.725 42.125,24.902 	"/>
	<polygon fill="#232734" points="22.296,24.795 22.062,25.052 21.635,25.231 21.369,24.97 21.542,24.471 22.38,23.378 
		22.591,23.537 22.622,23.801 22.337,24.573 22.296,24.795 	"/>
	<polygon fill="#232734" points="45.321,35.49 45.249,35.396 45.261,34.322 45.548,33.436 45.907,33.671 45.893,34.383 
		45.404,35.462 45.321,35.49 	"/>
	<polygon fill="#232734" points="41.271,39.271 41.845,39.878 42.18,39.903 42.614,40.291 42.371,40.542 40.807,39.882 
		41.271,39.271 	"/>
	<polygon fill="#232734" points="19.791,28.687 19.477,28.142 19.502,27.932 20.029,27.119 20.326,26.734 20.521,26.65 
		20.587,26.861 20.212,27.76 19.941,28.565 19.791,28.687 	"/>
	<polygon fill="#232734" points="44.141,39.327 43.539,39.41 43.458,39.49 43.399,39.949 43.006,40.004 43.133,39.039 
		43.255,38.913 43.982,38.891 44.115,39.351 44.141,39.327 	"/>
	<polygon fill="#232734" points="25.756,41.901 26.22,41.646 26.651,41.874 27.031,42.114 26.996,42.075 26.882,42.27 
		26.392,42.559 25.789,41.864 25.756,41.901 	"/>
	<polygon fill="#232734" points="42.075,38.225 41.796,38.804 41.575,38.871 41.438,38.577 41.555,38.343 41.415,38.048 
		41.556,37.751 41.785,37.771 42.075,38.225 	"/>
	<polygon fill="#232734" points="23.299,25.232 23.029,25.013 23.003,24.156 23.312,24.032 23.468,24.835 23.257,25.267 
		23.299,25.232 	"/>
	<polygon fill="#232734" points="40.203,23.501 40.192,23.156 40.407,22.853 40.59,22.707 41.132,22.844 41.12,23.079 
		40.405,23.462 40.171,23.471 40.203,23.501 	"/>
	<polygon fill="#232734" points="44.415,38.046 44.171,37.801 44.515,37.038 44.707,36.985 44.774,37.083 44.798,37.319 
		44.415,38.046 	"/>
	<polygon fill="#232734" points="41.213,42.227 41.468,42.457 41.058,42.854 40.47,42.877 40.374,42.809 40.419,42.719 
		41.213,42.227 	"/>
	<polygon fill="#232734" points="25.703,39.414 25.962,39.653 25.589,40.134 25.37,40.141 25.314,39.515 25.703,39.414 	"/>
	<polygon fill="#232734" points="22.312,41.112 22.656,40.994 22.992,41.338 23.011,41.564 22.728,41.694 22.312,41.112 	"/>
	<polygon fill="#232734" points="25.267,40.934 25.276,40.702 25.622,40.438 25.937,40.703 25.65,41.054 25.229,40.896 
		25.267,40.934 	"/>
	<polygon fill="#232734" points="24.237,39.248 24.05,38.959 23.954,38.643 24.619,38.857 24.193,39.214 24.237,39.248 	"/>
	<polygon fill="#232734" points="43.786,40.781 43.695,40.576 43.719,40.217 44.012,40.08 44.067,40.59 43.984,40.668 
		43.786,40.781 	"/>
	<polygon fill="#232734" points="19.905,30.85 19.541,31.24 19.329,31.031 19.348,30.915 19.905,30.85 	"/>
	<polygon fill="#232734" points="42.705,41.008 42.746,40.782 43.045,40.683 43.153,40.875 42.995,41.163 42.807,41.208 
		42.705,41.008 	"/>
	<polygon fill="#232734" points="42.505,39.587 42.295,39.59 42.21,39.283 42.518,38.974 42.505,39.587 	"/>
	<polygon fill="#232734" points="34.814,45.622 35.024,45.353 35.34,45.37 35.225,45.66 34.814,45.622 	"/>
	<polygon fill="#232734" points="30.486,19.551 30.288,19.314 30.569,19.165 30.701,19.341 30.486,19.551 	"/>
	<polygon fill="#232734" points="29.324,44.584 29.321,44.472 29.511,44.264 29.774,44.546 29.513,44.69 29.324,44.584 	"/>
	<polygon fill="#232734" points="26.463,20.341 26.075,20.686 25.938,20.565 26.252,20.257 26.463,20.341 	"/>
	<polygon fill="#232734" points="21.288,25.438 21.282,25.554 21.054,25.738 20.875,25.497 21.105,25.33 21.288,25.438 	"/>
	<polygon fill="#232734" points="21.524,36.409 21.65,36.592 21.589,36.796 21.282,36.776 21.31,36.471 21.524,36.409 	"/>
	<polygon fill="#232734" points="45.561,29.722 45.597,29.377 45.765,29.247 46.013,29.391 45.76,29.699 45.528,29.693 
		45.561,29.722 	"/>
	<polygon fill="#232734" points="39.06,43.779 38.771,43.916 38.746,43.514 38.967,43.464 39.06,43.779 	"/>
	<polygon fill="#232734" points="31.867,19.713 31.808,19.437 32.095,19.395 32.055,19.584 31.867,19.713 	"/>
	<polygon fill="#232734" points="43.372,27.71 43.615,27.37 43.699,27.416 43.749,27.635 43.469,27.778 43.372,27.71 	"/>
	<polygon fill="#232734" points="45.528,29.693 45.545,29.921 45.17,30.076 45.561,29.722 45.528,29.693 	"/>
	<polygon fill="#232734" points="25.789,41.864 25.442,41.879 25.348,41.827 25.327,41.521 25.523,41.526 25.756,41.901 
		25.789,41.864 	"/>
	<polygon fill="#232734" points="19.453,32.922 19.317,32.603 19.44,32.292 19.453,32.922 	"/>
	<polygon fill="#232734" points="45.539,31.151 45.449,31.093 45.549,30.954 45.735,31.062 45.651,31.138 45.539,31.151 	"/>
	<polygon fill="#232734" points="44.115,39.351 44.392,39.673 44.319,39.764 44.152,39.69 44.141,39.327 44.115,39.351 	"/>
	<polygon fill="#232734" points="37.798,44.368 37.647,44.253 37.723,44.048 37.875,44.161 37.798,44.368 	"/>
	<polygon fill="#232734" points="31.165,18.585 31.154,18.918 31.084,18.998 30.981,18.823 31.205,18.618 31.165,18.585 	"/>
	<polygon fill="#232734" points="30.344,18.74 30.31,18.816 30.094,18.833 30.052,18.751 30.134,18.666 30.344,18.74 	"/>
	<polygon fill="#232734" points="28.639,19.627 28.636,19.265 28.639,19.627 	"/>
	<polygon fill="#232734" points="24.811,21.402 24.629,21.506 24.454,21.4 24.641,21.295 24.74,21.321 24.811,21.402 	"/>
	<polygon fill="#232734" points="25.452,43.594 25.384,43.503 25.521,43.511 25.452,43.594 	"/>
	<polygon fill="#232734" points="26.461,43.9 26.494,43.992 26.414,43.984 26.461,43.9 	"/>
	<polygon fill="#232734" points="40.689,24.221 40.884,24.303 40.866,24.38 40.718,24.19 40.689,24.221 	"/>
	<polygon fill="#232734" points="45.649,31.574 45.683,31.501 45.782,31.574 45.718,31.651 45.649,31.574 	"/>
	<path fill="#232734" d="M38.405,36.803l-0.287,0.337l-0.298,0.158l-0.632-0.759l0.188-0.34l-0.011-0.347l0.203-0.089l-0.104-0.094
		l-0.069,0.211l-0.12,0.017l-0.396,0.624l-0.819,0.455l-0.641,0.576l-0.581,0.202l-0.456,0.166L33.9,37.995l-0.452,0.173
		l-0.486,0.051l-1.224,0.04l-0.248-0.011l-0.998-0.226l-1.116-0.511l-1.479-1.378l-0.545-1.055l-0.147-0.535l-0.354-0.442
		l-0.05-0.108l-0.339-1.972l0.181-0.408l0.049-0.818l0.431-0.891l0.196-0.309l1.565-1.99l1.283-0.722l2.05-0.722l0.473-0.116
		l0.232-0.047l1.721,0.165l0.312,0.127l1.327,0.835l0.763,0.945l0.059,0.105l0.687,1.55l0.421,1.007l0.115,1.063l0.047,0.11
		l-0.062,0.696l-0.015,0.98l-0.041,0.362l-0.177,0.83l0.025,0.828l-0.181,0.341l0.013,0.231l0.068,0.087l0.226-0.107l0.388,0.427
		l0.037-0.042l-0.277,0.295L38.405,36.803L38.405,36.803z M31.34,30.662l-0.648,0.621l0.58-0.306l0.027-0.352l0.22,0.068
		l0.239,0.293l-0.173,0.312l-0.219,0.279l0.08,0.211l0.405-0.141l0.901-0.028l0.34,0.304l-0.021,0.271l-0.667,0.521l-0.038,0.46
		l-0.083,0.086l-0.374-0.295l0.146-0.442l-0.416-0.189l-0.936-0.063l-0.211-0.286l-0.082,0.487l0.317,0.51l0.597,0.425l0.883,0.391
		l0.334-0.031l0.471-0.552l0.454-0.867l0.27,0.244l-0.027,0.599l0.379-0.178l0.454-0.175l-0.4-1.825l-0.386-0.356l-0.452,0.016
		l-0.27-0.062l-0.202-0.273l-1.265,0.082L31.34,30.662L31.34,30.662z M30.586,30.193l-0.192,0.088l0.061,0.07l0.098-0.19
		l1.337-0.538l1.211,0.025l0.118,0.053l1.401,1.137l0.251,0.545l0.375,0.611l-0.201,0.821l-0.367,0.848l0.816,0.171l0.05,0.248
		l-0.36,0.469l-0.317,0.146l0.041,0.038l-0.074-0.353l-0.756-0.338l-0.443,0.379l-0.601-0.127l-1.21-0.046l-1.124-0.718
		l-0.783-1.218l-0.038-1.202l0.177-0.923l-0.065-0.1l-0.146,0.085l-0.104,0.468l-0.266,0.537l-0.605,0.02l0.038,0.038l0.152-0.682
		l-0.613-0.704l-0.312,0.354l-0.465,0.515l-0.261,1.309l-0.116,0.595l-0.039,0.572l1.549,2.562l1.903,1.491l0.57,0.066l1.061,0.383
		l0.283-0.365l0.569,0.38l1.084-0.288l1.137-0.344l0.678-0.688l0.134-0.398l0.442-0.373l0.158-0.175l0.613-0.722l0.356-0.811
		l-0.019-1.565l-0.171-0.706l-0.35-1.031l-0.439-1.354l-0.354-0.373l-0.075-0.519l-0.496-0.684l-1.701-0.587l-1.409-0.339
		l-1.265,0.225l-1.995,0.905l-0.84,0.952l-0.056,0.248l0.361,0.289l0.257,0.537l0.065-0.353l0.038-0.362l0.156-0.163l0.286,0.133
		l0.119,0.211l0.877-0.646l-0.008-0.33l0.359-0.117l-0.039,0.326l0.123,0.479l-0.378,0.405l-0.423,0.362L30.586,30.193
		L30.586,30.193z M33.245,33.719l0.069-0.068l-0.061-0.076l-0.065,0.068L33.245,33.719L33.245,33.719z"/>
	<polygon fill="#232734" points="24.577,27.419 23.913,27.282 23.941,27.068 25.125,26.479 25.477,26.546 25.511,25.943 
		26.038,25.292 26.965,24.505 28.296,23.703 28.361,24.017 28.095,24.264 27.493,24.671 25.823,26.251 26.132,26.594 26.474,26.744 
		26.408,27.068 25.932,26.957 25.614,27.127 25.246,27.009 24.582,27.414 24.577,27.419 	"/>
	<polygon fill="#232734" points="32.712,24.857 33.414,24.827 33.868,24.802 34.223,24.868 35.531,25.127 36.064,25.416 
		36.635,25.619 37.146,25.954 37.661,26.271 37.753,26.6 37.675,26.646 35.376,25.516 35.034,25.393 33.959,25.198 32.366,25.235 
		31.091,25.635 31.001,25.588 30.96,25.368 31.186,25.088 31.292,25.029 32.477,24.79 32.712,24.857 	"/>
	<polygon fill="#232734" points="38.616,36.583 38.855,36.361 39.251,35.38 39.542,35.494 39.568,36.109 39.213,36.583 
		39.149,36.806 38.967,36.914 39.039,36.973 39.113,36.773 39.621,37.288 39.652,37.254 39.141,37.692 39.366,38.153 39.332,38.371 
		39.015,38.405 38.822,38.268 38.699,37.725 38.861,37.408 38.458,37.15 38.405,36.803 38.376,36.836 38.653,36.541 38.616,36.583 	
		"/>
	<polygon fill="#232734" points="40.94,32.003 40.389,32.97 40.259,32.693 40.439,32.062 40.402,30.909 40.233,30.209 
		40.187,29.611 40.44,29.42 40.814,29.999 40.844,30.114 40.94,32.003 	"/>
	<polygon fill="#232734" points="35.462,22.388 35.611,22.563 36.874,23.164 36.818,23.601 34.993,22.915 34.578,22.887 
		34.338,22.574 34.429,22.496 35.501,22.419 35.462,22.388 	"/>
	<polygon fill="#232734" points="32.862,23.579 32.837,23.346 33.041,23.233 34.475,23.371 34.955,23.428 35.388,23.633 
		35.438,23.814 35.34,23.881 34.646,23.711 32.96,23.647 32.862,23.579 	"/>
	<polygon fill="#232734" points="23.569,30.316 23.345,30.348 23.228,30.145 23.244,29.306 23.424,28.604 23.719,28.236 
		23.833,28.497 23.839,29.062 23.862,29.414 23.679,29.856 23.569,30.316 	"/>
	<polygon fill="#232734" points="34.027,39.804 33.751,40.052 32.071,39.933 31.894,39.796 31.91,39.586 33.336,39.558 
		33.564,39.539 34.027,39.804 	"/>
	<polygon fill="#232734" points="27.281,27.845 27.644,27.833 27.776,27.998 27.737,28.214 27.438,28.406 26.941,29.062 
		26.722,28.989 26.67,28.162 26.973,28.073 27.317,27.807 27.281,27.845 	"/>
	<polygon fill="#232734" points="27.349,38.766 27.111,38.865 26.298,38.389 26.17,37.745 26.314,37.762 27.349,38.766 	"/>
	<polygon fill="#232734" points="26.223,28.272 25.844,27.992 26.203,27.406 26.475,27.436 26.542,27.645 26.506,27.756 
		26.223,28.272 	"/>
	<polygon fill="#232734" points="32.607,22.358 32.83,22.103 33.203,22.308 32.947,22.647 32.607,22.358 	"/>
	<polygon fill="#232734" points="38.647,25.663 38.122,25.123 38.609,25.266 38.647,25.663 	"/>
	<polygon fill="#232734" points="31.398,23.507 31.61,23.312 31.768,23.433 31.622,23.688 31.398,23.507 	"/>
	<polygon fill="#232734" points="31.326,22.729 31.126,22.629 31.269,22.345 31.53,22.494 31.326,22.729 	"/>
	<polygon fill="#232734" points="28.617,39.877 28.387,40.051 28.201,39.821 28.428,39.638 28.617,39.877 	"/>
	<polygon fill="#232734" points="27.317,27.807 26.893,27.603 26.909,27.169 27.234,27.444 27.281,27.845 27.317,27.807 	"/>
	<polygon fill="#232734" points="24.582,27.414 24.973,27.402 25.016,27.748 24.823,27.862 24.62,27.772 24.577,27.419 
		24.582,27.414 	"/>
	<polygon fill="#232734" points="24.042,34.032 23.87,33.764 24.167,33.644 24.246,33.958 24.042,34.032 	"/>
	<polygon fill="#232734" points="23.949,32.393 23.694,32.562 23.551,32.275 23.741,32.159 23.949,32.393 	"/>
	<polygon fill="#232734" points="39.754,26.367 39.604,26.639 39.367,26.453 39.465,26.257 39.754,26.367 	"/>
	<polygon fill="#232734" points="37.186,38.935 36.892,39.075 36.948,38.624 37.188,38.792 37.186,38.935 	"/>
	<polygon fill="#232734" points="29.975,22.415 30.011,22.73 29.695,22.743 29.772,22.543 29.975,22.415 	"/>
	<polygon fill="#232734" points="30.304,23.658 30.136,23.903 29.958,23.908 29.919,23.7 30.192,23.573 30.304,23.658 	"/>
	<polygon fill="#232734" points="36.904,24.17 37.247,24.461 36.854,24.467 36.904,24.17 	"/>
	<polygon fill="#232734" points="39.621,37.288 40.055,37.374 39.903,37.649 39.72,37.684 39.657,37.594 39.652,37.254 
		39.621,37.288 	"/>
	<polygon fill="#232734" points="26.851,24.055 26.654,24.144 26.542,24.003 26.729,23.912 26.851,24.055 	"/>
	<polygon fill="#232734" points="25.603,24.894 25.599,24.514 25.603,24.894 	"/>
	<polygon fill="#232734" points="35.839,50.049 33.351,50.216 33.122,50.132 33.012,50.079 31.938,49.905 32.291,49.794 
		34.464,49.874 34.571,49.855 35.839,50.049 	"/>
	<polygon fill="#232734" points="16.521,30.436 16.199,31.028 16.086,30.825 16.069,29.362 16.084,29.121 16.332,28.062 
		16.529,27.958 16.698,28.089 16.705,28.209 16.527,29.284 16.521,30.436 	"/>
	<polygon fill="#232734" points="16.339,38.039 16.313,37.23 16.575,37.05 16.723,37.212 16.92,38.407 17.333,39.544 17.52,40.089 
		17.208,40.065 16.473,38.283 16.339,38.039 	"/>
	<polygon fill="#232734" points="26.481,48.482 26.004,48.49 24.159,47.602 24.084,47.421 24.291,47.336 24.556,47.362 
		26.346,48.317 26.457,48.511 26.481,48.482 	"/>
	<polygon fill="#232734" points="26.457,48.511 26.929,48.496 27.58,48.79 27.622,49.088 27.065,48.977 26.554,48.688 
		26.481,48.482 26.457,48.511 	"/>
	<polygon fill="#232734" points="22.731,46.585 22.348,46.333 22.447,46.176 22.796,46.227 22.89,46.434 22.731,46.585 	"/>
	<polygon fill="#232734" points="30.64,49.51 30.643,49.62 30.533,49.791 30.244,49.683 30.255,49.477 30.45,49.403 30.64,49.51 	
		"/>
	<polygon fill="#232734" points="17.875,35.435 17.781,35.353 17.812,35.048 18.036,35.02 18.156,35.314 17.875,35.435 	"/>
	<polygon fill="#232734" points="17.198,34.549 17.49,34.262 17.815,34.337 17.568,34.718 17.166,34.513 17.198,34.549 	"/>
	<polygon fill="#232734" points="17.131,33.064 17.478,33.124 17.575,33.327 17.35,33.521 17.17,33.405 17.144,33.051 
		17.131,33.064 	"/>
	<polygon fill="#232734" points="17.086,35.428 16.987,35.233 17.079,35.038 17.3,35.093 17.276,35.283 17.086,35.428 	"/>
	<polygon fill="#232734" points="19.544,43.456 19.277,43.162 19.57,43.167 19.544,43.456 	"/>
	<polygon fill="#232734" points="29.386,49.283 29.026,49.286 29.386,49.283 	"/>
	<polygon fill="#232734" points="21.637,45.69 21.549,45.608 21.773,45.459 21.854,45.541 21.637,45.69 	"/>
	<polygon fill="#232734" points="18.63,41.744 18.545,41.827 18.396,41.694 18.485,41.49 18.574,41.531 18.624,41.633 18.63,41.744 
			"/>
	<polygon fill="#232734" points="20.616,44.679 20.547,44.68 20.584,44.54 20.646,44.612 20.616,44.679 	"/>
	<polygon fill="#232734" points="16.954,26.293 17.035,26.229 17.111,26.302 17.029,26.37 16.954,26.293 	"/>
	<polygon fill="#232734" points="17.271,25.366 17.201,25.299 17.273,25.239 17.347,25.303 17.271,25.366 	"/>
	<polygon fill="#232734" points="38.494,15.899 37.888,15.93 37.345,16.086 37.217,15.859 36.558,15.508 35.745,15.498 
		35.325,15.747 35.21,15.752 35.168,15.557 35.34,15.119 35.665,15.198 35.887,15.101 36.111,15.191 37.054,15.386 37.965,15.688 
		38.41,15.825 38.459,15.936 38.494,15.899 	"/>
	<polygon fill="#232734" points="43.727,18.198 43.737,18.554 44.512,19.344 44.728,19.416 44.731,19.916 44.76,19.886 
		44.536,19.849 44.271,19.602 42.812,18.337 42.802,18.119 43.487,18.234 43.727,18.198 	"/>
	<polygon fill="#232734" points="40.775,18.343 39.676,18.02 39.339,17.715 39.783,17.633 40.775,18.343 	"/>
	<polygon fill="#232734" points="33.257,17.218 33.076,17.11 32.929,16.937 33.021,16.635 33.349,16.597 33.488,16.962 
		33.423,17.056 33.257,17.218 	"/>
	<polygon fill="#232734" points="48.397,27.148 48.389,27.54 48.087,27.658 47.786,27.434 47.719,27.099 48.02,26.965 
		48.435,27.181 48.397,27.148 	"/>
	<polygon fill="#232734" points="34.128,16.208 34.258,16.062 34.946,16.141 34.811,16.283 34.128,16.208 	"/>
	<polygon fill="#232734" points="29.862,15.22 29.97,15.032 30.508,15.073 29.836,15.192 29.862,15.22 	"/>
	<polygon fill="#232734" points="33.611,14.984 33.971,15.036 33.928,15.233 33.841,15.221 33.611,14.984 	"/>
	<polygon fill="#232734" points="35.653,16.678 35.576,16.564 35.611,16.354 35.9,16.312 35.89,16.495 35.653,16.678 	"/>
	<polygon fill="#232734" points="39.841,16.809 39.994,16.386 40.151,16.487 40.107,16.591 39.841,16.809 	"/>
	<polygon fill="#232734" points="48.435,27.181 48.44,26.841 48.518,26.761 48.602,26.79 48.603,27.08 48.397,27.148 48.435,27.181 
			"/>
	<polygon fill="#232734" points="45.961,21.248 45.775,21.32 45.65,21.207 45.833,21.121 45.961,21.248 	"/>
	<polygon fill="#232734" points="32.092,14.999 31.728,15.138 31.642,14.988 31.709,14.912 32.092,14.999 	"/>
	<polygon fill="#232734" points="33.364,15.688 33.443,15.624 33.515,15.698 33.434,15.77 33.364,15.688 	"/>
	<polygon fill="#232734" points="37.213,17.335 37.145,17.367 37.078,17.299 37.145,17.232 37.213,17.335 	"/>
	<polygon fill="#232734" points="38.459,15.936 38.655,16.024 38.579,16.083 38.494,15.899 38.459,15.936 	"/>
	<polygon fill="#232734" points="41.094,17.246 41.044,17.174 41.102,17.11 41.156,17.182 41.094,17.246 	"/>
	<polygon fill="#232734" points="44.731,19.916 44.911,20 44.847,20.058 44.76,19.886 44.731,19.916 	"/>
	<polygon fill="#232734" points="48.844,28.066 48.741,27.991 48.81,27.918 48.876,27.994 48.844,28.066 	"/>
	<polygon fill="#232734" points="42.241,47.143 44.193,45.821 44.238,46.128 42.764,47.175 42.241,47.143 	"/>
	<polygon fill="#232734" points="45.465,42.483 45.124,42.491 44.984,42.217 45.123,42.067 45.418,42.166 45.444,42.505 
		45.465,42.483 	"/>
	<polygon fill="#232734" points="45.88,44.368 45.935,44.002 46.135,44.058 46.115,44.146 45.88,44.368 	"/>
	<polygon fill="#232734" points="45.423,45.042 45.308,45.151 45.159,45.061 45.234,44.988 45.342,44.982 45.423,45.042 	"/>
	<polygon fill="#232734" points="41.092,47.931 41.018,47.882 41.028,47.679 41.102,47.657 41.167,47.85 41.092,47.931 	"/>
	<polygon fill="#232734" points="38.501,47.646 38.688,47.394 38.883,47.484 38.813,47.562 38.469,47.614 38.501,47.646 	"/>
	<polygon fill="#232734" points="27.713,16.746 28.493,16.722 28.608,16.813 28.564,16.888 27.672,17.22 26.767,17.548 
		25.847,17.818 25.301,18.033 25.077,17.83 25.094,17.698 26.093,17.324 26.892,17.068 27.713,16.746 	"/>
	<polygon fill="#232734" points="21.574,18.436 22.237,18.167 22.494,18.294 21.309,19.316 21.216,19.311 21.171,19.093 
		21.535,18.611 21.614,18.395 21.574,18.436 	"/>
	<polygon fill="#232734" points="20.25,21.916 20.004,22.168 19.481,22.186 19.468,21.665 20.056,21.247 20.25,21.916 	"/>
	<polygon fill="#232734" points="20.047,20.898 19.821,20.882 19.745,20.678 19.771,20.566 20.013,20.035 20.351,20.285 
		20.047,20.898 	"/>
	<polygon fill="#232734" points="24.495,18.694 24.185,19.017 23.874,18.89 24.147,18.586 24.266,18.589 24.495,18.694 	"/>
	<polygon fill="#232734" points="21.524,20.581 21.566,20.193 21.841,20.271 21.524,20.581 	"/>
	<polygon fill="#232734" points="23.094,19.585 22.736,20.014 22.88,19.605 23.118,19.609 23.094,19.585 	"/>
	<polygon fill="#232734" points="23.118,19.609 23.303,19.364 23.502,19.447 23.434,19.523 23.094,19.585 23.118,19.609 	"/>
	<polygon fill="#232734" points="23.91,17.564 23.832,17.481 23.99,17.485 23.91,17.564 	"/>
	<polygon fill="#232734" points="25.114,16.775 25.083,16.699 25.156,16.705 25.114,16.775 	"/>
	<polygon fill="#232734" points="45.909,40.394 46.223,40.308 46.335,40.608 46.04,40.729 45.954,40.646 45.909,40.394 	"/>
	<polygon fill="#232734" points="47.865,40.707 47.911,40.269 48.202,40.263 48.206,40.461 47.849,40.692 47.865,40.707 	"/>
	<polygon fill="#232734" points="48.931,38.376 48.796,38.291 48.858,38.097 48.989,38.19 48.931,38.376 	"/>
	<polygon fill="#232734" points="34.865,34.696 34.988,34.879 35.326,34.848 35.84,34.34 36.188,34.019 36.57,34.61 36.467,34.932 
		36.394,35.276 36.255,35.592 35.867,35.166 35.732,35.046 35.657,35.136 35.662,35.254 35.644,35.494 35.47,35.654 34.391,35.711 
		34.291,35.644 34.57,35.061 34.262,34.877 34.501,34.504 34.906,34.734 34.865,34.696 	"/>
	<polygon fill="#232734" points="35.2,28.568 35.109,28.358 34.805,28.161 34.027,27.96 34.092,28.438 33.678,28.555 33.492,28.281 
		33.613,27.956 33.54,27.722 34.681,27.607 35.559,28.159 35.837,28.552 36.081,28.931 35.854,28.986 35.429,28.784 35.459,28.817 
		35.162,28.54 35.2,28.568 	"/>
	<polygon fill="#232734" points="31.307,35.464 31.479,35.35 31.965,35.508 33.001,35.547 33.355,35.867 33.168,35.992 
		32.333,35.964 31.637,35.79 31.307,35.464 	"/>
	<polygon fill="#232734" points="32.342,27.69 32.564,27.684 32.682,28.245 32.404,28.604 32.109,28.63 32.031,28.311 32.342,27.69 
			"/>
	<polygon fill="#232734" points="36.396,32.612 36.628,32.066 36.981,32.334 36.76,33.15 36.396,32.612 	"/>
	<polygon fill="#232734" points="28.506,34.226 28.499,33.884 28.633,33.765 28.979,34.433 28.914,34.525 28.722,34.504 
		28.637,34.425 28.506,34.226 	"/>
	<polygon fill="#232734" points="36.36,30.698 36.327,30.083 36.422,30.152 36.638,30.555 36.36,30.698 	"/>
	<polygon fill="#232734" points="28.374,31.455 28.362,31.813 28.195,31.946 27.964,31.75 27.971,31.632 28.407,31.491 
		28.374,31.455 	"/>
	<polygon fill="#232734" points="35.429,28.784 35.341,28.998 35.02,29.005 34.954,28.791 35.2,28.568 35.162,28.54 35.459,28.817 
		35.429,28.784 	"/>
	<polygon fill="#232734" points="28.407,31.491 28.685,31.24 28.904,31.237 28.866,31.199 28.374,31.455 28.407,31.491 	"/>
</g>
</svg>
