<?xml version="1.0" encoding="utf-8"?>
<!-- Generator: Adobe Illustrator 15.0.2, SVG Export Plug-In . SVG Version: 6.00 Build 0)  -->
<!DOCTYPE svg PUBLIC "-//W3C//DTD SVG 1.1//EN" "http://www.w3.org/Graphics/SVG/1.1/DTD/svg11.dtd">
<svg version="1.1" id="Layer_1" xmlns="http://www.w3.org/2000/svg" xmlns:xlink="http://www.w3.org/1999/xlink" x="0px" y="0px"
	 width="77.5px" height="77.5px" viewBox="0 0 77.5 77.5" enable-background="new 0 0 77.5 77.5" xml:space="preserve">
<g>
	<polygon fill="#232734" points="36.278,29.56 35.636,29.868 36.097,29.757 36.278,29.56 	"/>
	<polygon fill="#232734" points="35.039,49.091 34.011,48.257 35.039,49.091 	"/>
	<polygon fill="#232734" points="36.558,52.299 36.62,52.725 36.559,52.737 36.498,52.31 36.558,52.299 	"/>
	<polygon fill="#232734" points="36.62,52.725 36.678,53.162 36.619,53.166 36.559,52.737 36.62,52.725 	"/>
	<polygon fill="#232734" points="45.303,49.783 45.149,50.036 45.112,50.329 45.313,52.412 45.369,52.543 45.47,52.653 45.623,52.4 
		45.402,49.893 45.303,49.783 	"/>
	<polygon fill="#232734" points="45.13,48.504 44.932,49.146 45.313,49.854 45.226,48.609 45.13,48.504 	"/>
	<polygon fill="#232734" points="42.472,33.037 42.414,33.313 42.738,33.525 42.869,33.28 42.601,32.996 42.472,33.037 	"/>
	<polygon fill="#232734" points="41.123,30.44 41.247,30.458 41.377,30.098 41.145,29.95 41.041,30.157 41.123,30.44 	"/>
	<polygon fill="#232734" points="46.28,42.775 46.749,42.661 46.447,42.453 46.28,42.775 	"/>
	<polygon fill="#232734" points="44.217,36.586 44.509,36.977 44.695,36.89 44.673,36.76 44.217,36.586 	"/>
	<polygon fill="#232734" points="45.772,40.368 45.723,40.46 45.917,40.634 46.036,40.602 45.896,40.357 45.772,40.368 	"/>
	<polygon fill="#232734" points="46.915,45.268 46.92,45.501 47.06,45.469 47.167,45.366 47.137,45.221 46.915,45.268 	"/>
	<polygon fill="#232734" points="47.396,48.681 47.602,48.629 47.569,48.497 47.3,48.44 47.303,48.571 47.396,48.681 	"/>
	<polygon fill="#232734" points="47.841,50.958 47.778,50.768 47.658,50.827 47.616,51.084 47.75,51.057 47.841,50.958 	"/>
	<polygon fill="#232734" points="47.402,54.056 47.614,54.056 47.479,53.834 47.347,53.853 47.326,53.957 47.402,54.056 	"/>
	<polygon fill="#232734" points="46.675,57.197 46.751,57.255 46.942,57.075 46.78,56.96 46.675,57.197 	"/>
	<polygon fill="#232734" points="45.698,59.61 45.999,59.407 45.92,59.223 45.789,59.251 45.708,59.357 45.698,59.61 	"/>
	<polygon fill="#232734" points="45.012,61.938 44.774,62.086 44.826,62.304 45.052,62.167 45.012,61.938 	"/>
	<polygon fill="#232734" points="53.872,42.584 53.792,42.711 54.145,44.942 54.485,45.142 54.523,44.999 54.158,42.914 
		53.875,42.584 53.872,42.584 	"/>
	<polygon fill="#232734" points="53.349,56.361 53.301,55.712 53.238,55.636 53.103,55.662 52.683,56.223 52.674,56.167 
		52.664,56.726 52.509,57.155 53.343,56.292 53.349,56.361 	"/>
	<polygon fill="#232734" points="50.238,62.666 51.02,61.856 51.027,61.589 50.246,62.376 50.238,62.666 	"/>
	<polygon fill="#232734" points="50.667,34.771 50.701,35.138 51.218,35.564 51.158,35.574 51.125,35.207 50.618,34.78 
		50.667,34.771 	"/>
	<polygon fill="#232734" points="54.301,47.661 54.268,48.037 54.425,48.21 54.617,48.031 54.483,47.65 54.301,47.661 	"/>
	<polygon fill="#232734" points="53.862,50.864 53.832,51.152 53.961,51.354 54.164,51.192 54.18,50.914 53.954,50.792 
		53.862,50.864 	"/>
	<polygon fill="#232734" points="51.218,35.564 51.202,35.922 51.519,36.174 51.46,36.181 51.452,35.83 51.158,35.574 
		51.218,35.564 	"/>
	<polygon fill="#232734" points="52.115,37.403 52.206,37.851 52.404,38.008 52.357,38.017 52.359,37.664 52.052,37.41 
		52.115,37.403 	"/>
	<polygon fill="#232734" points="52.675,38.625 52.675,38.262 52.357,38.017 52.404,38.008 52.39,38.369 52.698,38.621 
		52.675,38.625 	"/>
	<polygon fill="#232734" points="52.683,56.223 52.406,56.02 52.467,56.011 52.236,56.531 52.674,56.167 52.683,56.223 	"/>
	<polygon fill="#232734" points="51.519,36.174 51.459,36.398 51.543,36.447 51.46,36.181 51.519,36.174 	"/>
	<polygon fill="#232734" points="52.052,37.41 52.101,37.145 51.973,37.145 52.115,37.403 52.052,37.41 	"/>
	<polygon fill="#232734" points="52.406,56.02 52.409,55.745 52.342,55.815 52.467,56.011 52.406,56.02 	"/>
	<polygon fill="#232734" points="38.361,33.798 38.308,33.938 39.066,36.523 39.449,36.98 39.5,36.69 39.455,36.391 38.761,34.24 
		38.361,33.798 	"/>
	<polygon fill="#232734" points="37.348,31.116 37.277,31.38 37.437,31.938 38.022,33.419 38.375,33.869 38.466,33.602 
		38.337,32.879 37.672,31.41 37.348,31.116 	"/>
	<polygon fill="#232734" points="40.189,63.525 40.26,63.87 40.063,64.201 40.448,64.237 40.641,63.189 40.189,63.525 	"/>
	<polygon fill="#232734" points="37.438,34.669 37.553,35.023 37.802,34.973 37.783,34.607 37.438,34.669 	"/>
	<polygon fill="#232734" points="41.04,47.613 41.355,47.198 41.167,46.893 40.922,47.088 41.04,47.613 	"/>
	<polygon fill="#232734" points="40.56,45.287 40.838,45.299 41.003,45.145 40.938,45.027 40.692,44.96 40.54,45.166 40.56,45.287 	
		"/>
	<polygon fill="#232734" points="41.416,50.136 41.54,50.135 41.615,49.769 41.495,49.68 41.361,49.995 41.416,50.136 	"/>
	<polygon fill="#232734" points="41.664,56.792 41.652,57.085 41.804,57.267 41.926,57.199 41.999,56.932 41.664,56.792 	"/>
	<polygon fill="#232734" points="36.965,32.977 36.949,32.777 36.719,32.706 36.722,32.913 36.965,32.977 	"/>
	<polygon fill="#232734" points="38.951,39.578 39.174,39.568 39.138,39.43 39.031,39.329 38.887,39.352 38.951,39.578 	"/>
	<polygon fill="#232734" points="39.678,41.231 39.796,41.242 39.779,41.055 39.54,41.026 39.678,41.231 	"/>
	<polygon fill="#232734" points="40.311,43.534 40.513,43.483 40.515,43.266 40.381,43.289 40.311,43.534 	"/>
	<polygon fill="#232734" points="41.837,54.694 42.051,54.56 41.999,54.347 41.787,54.472 41.837,54.694 	"/>
	<polygon fill="#232734" points="41.173,60.795 41.007,61.036 40.998,61.291 41.268,61.022 41.119,60.801 41.173,60.795 	"/>
	<polygon fill="#232734" points="38.391,37.302 38.43,37.056 38.315,37.072 38.417,37.298 38.391,37.302 	"/>
	<polygon fill="#232734" points="38.417,37.298 38.332,37.525 38.522,37.609 38.543,37.497 38.391,37.302 38.417,37.298 	"/>
	<polygon fill="#232734" points="41.809,52.292 41.775,52.158 41.636,52.178 41.667,52.323 41.809,52.292 	"/>
	<polygon fill="#232734" points="41.653,58.818 41.763,58.837 41.769,58.664 41.628,58.676 41.653,58.818 	"/>
	<polygon fill="#232734" points="41.119,60.801 41.187,60.556 41.078,60.554 41.173,60.795 41.119,60.801 	"/>
	<g>
		<path fill="#232734" d="M36.678,53.162l-0.06,0.004l0.291,0.502l0.253,0.125l0.177-0.652l-0.362-1.123l-0.479,0.293l0.061-0.011
			l-0.267-1.162l0.245-0.385l0.271,0.215L36.72,51.21l0.178-0.011l-0.136-0.227l0.028-0.263l-0.249,0.104l-0.26-0.532l-0.849-0.866
			l0.21-0.048l0.41,0.195l0.396-0.197l-0.718-1.101l-0.946-0.779l0.041-0.201l1.618,0.997l0.021-0.319l-0.11-0.765l-1.323-1.028
			l-0.708-0.573v-0.188l1.771,1.127l0.122-0.027l-0.151-1.018l-0.581-0.65l0.477-0.311l-0.229-0.807l-1.848-1.479l-0.067-0.232
			l0.889,0.557l1.049,0.58l-0.404-1.238l-1.266-1.107l-0.051-0.142l0.283,0.057l0.753,0.512l0.281,0.013l0.132-0.257l-0.212-1.703
			l-0.624-1.285l-0.55-0.306l0.182-0.181l0.129-0.075l0.027-0.404l-2.36-1.914l-0.125-0.309l1.054,0.676l1.147,0.703l-0.106-1.101
			l-0.72-0.548l-0.37-0.56l-1.181-1.014l0.051-0.202l0.469,0.297l1.116,0.79l0.233-0.039l-0.135-0.889l-0.783-0.457l-0.328-0.63
			l0.758,0.074l-1.486-1.325l0.021-0.195l0.662,0.337l0.269,0.002l0.101-0.258l-0.677-2.165l-0.208-0.203l-0.303-0.029l-0.352-0.719
			l0.34-0.134l-0.434-0.776l-0.663-0.6L29.8,25.209l0.98-0.12l-1.127-1.029l-0.817-1.071l0.248-0.019l0.753,0.51l0.199-0.074
			l-0.742-1.632l-0.969-2.217l-0.81-1.447l-0.836-1.612l-0.823-1.438l-0.783-1.637l-0.351-0.834L24.27,11.81l-0.332-0.846
			l-0.715-1.328l-0.151-0.258l-1.027-3.634l-0.281-1.172l-0.104-0.912l0.864-0.947l0.242,0.191l0.698,1.675l0.36,0.658l0.926,1.375
			l1.092,1.568l0.71,0.646l0.784,0.911l1.115,1.42l0.698,0.789l0.663,0.812l0.758,0.935l1.469,1.516l0.222,0.206l1.583,1.18
			l0.819,0.378l0.517,0.313l1.363,0.959l1.62,0.86l0.576,0.156l1.151,0.7l1.325,0.718l0.403,0.2l1.085,0.53l1.113,0.465l0.825,0.354
			l0.877,0.602l1.099,0.774l2.122,1.238l0.562,0.177l2.413,1.839l0.324,0.478l2.142,1.741l0.539,0.522l1.014,1.314l1.12,1.414
			l2.086,2.956l0.972,1.512l0.805,1.627l0.603,1.867l0.393,1.303l0.233,0.718l0.495,3.457l0.007,1.358l-0.149,2.26l-0.345,1.783
			l-0.339,1.766l-0.482,1.572l-0.741,1.327l-0.589,1.052l-0.565,1.23l-0.571,1.237l-0.519,0.739l-0.665,1.183l-0.561,0.698
			l-0.653,0.623l-1.146,1.419l-0.439,0.407l-0.797,0.689L52.977,65.9l-1.218,1.123l-1.748,1.659l-0.922,0.771l-1.01,0.899
			l-0.78,0.91l-0.535,0.312l-0.796,0.692l-0.748,0.743l-1.268,1.074l-0.265,0.142l-1.36,0.663l-1.567,0.554l-2.286,0.033
			l-0.593-0.591l-0.718-0.275l0.155-1.258l0.025-0.884l-0.823-0.746l-0.381-0.744l0.596,0.009l-0.554-0.674l-1.157-1.183
			l-1.06-0.863l-0.156-0.288l0.436,0.171l1.953,1.446l0.386,0.161l0.039-0.859l-1.566-1.617l-1.759-1.611l0.423,0.229l2.412,1.849
			l0.403,0.462l0.414-0.056l-0.027-0.61l-0.39-0.549l1.021-0.029l-0.857-1.16l-0.771-0.596l-0.802-0.325l-0.059-0.299l0.148-0.192
			l1.007,0.64l1.007,0.66l-0.04-0.597l-1.403-1.278l1.516,0.779l0.066-0.378l-0.495-0.563l-1.376-1.182l0.491-0.055l-0.071-0.237
			l-0.427-0.614l-0.441-0.576l0.093-0.088l0.85,0.6l0.858,0.628l0.875,0.544l-0.061-0.684l-0.786-0.683l-0.241-0.381l-0.287-0.102
			l-0.253-0.414l-2.226-1.787l-0.202-0.218l-0.01-0.141l1.258,0.859l1.339,1l1.282,0.836l-0.003-0.466l-0.44-0.832l-1.027-0.85
			l-0.981-0.919l0.905,0.52l1.055,0.594l-0.794-0.847l-0.346-0.688l0.012-0.151l0.778,0.481l0.291-0.503l-1.313-1.241l0.27,0.018
			l0.51,0.329l0.279,0.021l0.161-0.273L36.5,55.38l-1.676-1.347l-0.081-0.236l0.284,0.088l1.239,0.878l0.292,0.006l0.256-0.368
			l0.229,0.86l0.35,0.237l-0.058-0.986l-0.52-0.049L36.534,53.9l-4.104-3.245l-0.073-0.127l0.01-0.084l0.147,0.022l1.212,0.89
			l2.544,1.873L36.678,53.162L36.678,53.162z M30.732,19.247l-0.3-0.439l0.342,0.433l-0.012,0.356l0.321,0.254l0.01,1.082
			l0.435,0.531l0.043,0.884l0.731,1.143l-0.05,0.558l0.331,0.993l0.321,0.824l0.425,0.9l-0.771-0.387l0.067-0.246l-0.09-0.046
			l0.08,0.284L32.54,26.5l0.422,1.896l0.802,2.755l0.03,0.148l1.475,4.912l0.26,1.186l0.455,1.097l0.363,1.04l-0.128,0.24
			l0.045,0.434l0.157,0.438l0.774-0.275l-0.292-1.129l-0.111-0.858l-0.508-2.338l0.005,0.051l-0.178-1.338l0.008,0.066l0.064-0.28
			l-0.598-2.097l0.004,0.065l0.065-0.132l-0.54-2.083L34.808,30.6l0.021,0.293l0.202,0.562l-0.239,0.027l-0.234-0.168l-0.076-0.125
			l-0.291-1.901l0.075-0.127l0.506,0.387l-0.062,0.234l0.101,0.053l-0.075-0.283l0.077-0.125l-0.177-0.689l-0.269-0.075
			l-0.087,0.564l-0.768-0.684l-0.098-0.999l0.717,0.631l0.213-0.179l-0.177-0.555L32.5,22.774l-1.065-2.485l-0.406-0.429v-0.355
			L30.732,19.247L30.732,19.247z M39.248,59.321l-0.175,0.237l0.193,0.506l0.282-0.258l-0.364-0.479l0.213-0.35l-0.086-0.357
			l-0.225-0.149l0.414-0.568l-0.02-0.26l-0.531-0.457l0.59-0.436l-0.091-0.834l-0.069-0.272l-0.357-0.354l-0.038-0.195l0.291-0.43
			l-0.432-1.104l0.248-0.326l-0.158-0.387l0.104-0.583l-0.067-1.486l-0.403-0.954l0.235-0.257l-0.8-0.526l-0.001,1.358l0.069,1.204
			l0.119,1.491l0.203,1.328l0.063,0.447l0.341,2.219l0.104,0.105l0.21,1.273l-0.108,0.231L39.248,59.321L39.248,59.321z
			 M39.261,64.305l-0.674,0.574l0.109,0.43l0.446-0.023l0.172-0.861l-0.098-0.112l-0.021-0.384l-0.355-0.253l-0.147,0.008
			l0.02,0.136L39.261,64.305L39.261,64.305z M37.834,44.534l0.084-0.124l-0.259-1.146l-0.208-0.963l-0.545,0.063l0.019,0.585
			l0.802,0.304l-0.521,0.233l-0.119,0.244l0.195,0.381l0.612,0.415l-0.242,0.378l0.07,0.587l0.359,0.166L37.834,44.534
			L37.834,44.534z M23.926,8.669l-0.053,0.139l0.451,0.936l0.854,1.417L26,12.602l0.703,1.504l0.67,1.521l0.72,1.141l0.729,1.314
			l0.168,0.414l0.515,1.731l0.635,1.533l0.654,1.524l0.382,0.454l-0.03,0.264l0.111-0.026l-0.141-0.229l0.088-0.268l-0.489-1.886
			l-0.203-0.56l-1.013-3.301l-0.86-1.917l-0.664-1.51l-0.201-0.397l-0.854-1.404l-0.947-1.154l-0.869-1.208l-0.471-0.875
			l-0.762-0.589l-0.288-0.451L23.926,8.669L23.926,8.669z M40.116,64.195l-0.186,0.229l-0.202,1.17l0.117,0.251l0.139-0.056
			l1.127-1.737l0.13-0.264l0.782-1.761l0.454-1.418l0.317-0.499l0.116,0.258l-0.149,0.737l-0.404,1.293l-0.891,2.064l-0.271,0.534
			l-0.263,0.541l-0.834,1.432l-0.614,1.535l-0.111,0.294l0.182,1.33l0.239-0.104l0.095-0.115l0.954-1.708l0.66-1.18l0.217-0.395
			l0.929-1.721l0.914-2.056l0.713-1.818l0.511-1.885l0.522-4.191l0.024-1.058l-0.076-0.921l0.208-0.391l0.155,0.245l0.138,1.507
			l-0.759,5.822l-0.747,2.436l-0.884,1.906l0.072,0.278l-0.14,0.574l-0.284,0.104l-0.506,0.729L42.5,66.338l0.212,0.852l-0.637,0.13
			l-0.514,0.5l-0.28,1.051l0.225,0.171l0.279-0.115l0.403-0.451l1.998-2.697l0.166-0.57l0.854-1.574l0.134-0.269l0.771-1.458
			l0.078-0.129l0.542-1.067l0.477-1.098l0.771-1.792l0.443-1.117l0.521-2.039l0.436-2.22l0.032-0.452l0.025-1.962L49.37,48.22
			l-0.021-0.751l-0.013-0.451l-0.669-3.254l-0.286-0.855l0.071-0.276l0.324,0.312l0.282,0.7l0.765,3.707l0.019,1.357l0.011,1.207
			l0.036,0.596l-0.054,1.809l-0.49,2.52l-0.397,1.289L48.6,57.283l-0.433,1.284l-0.702,1.499l-0.634,1.527l-0.223,0.559
			l-0.672,1.175l-0.558,1.238l-0.36,0.656l-1.521,2.088l-0.665,1.247l-0.562,0.347l-2.237,2.942l-0.032,0.171l0.759-0.269L41.8,70.9
			l1.993-2.495l0.411-0.445l0.461-0.282l1.973-2.597l0.471-0.767l0.47-0.733l0.378-0.646l0.933-1.315l0.125-0.522l0.666-1.026
			l0.225-0.687l0.638-1.531l0.469-1.431l0.231-0.716l0.604-2.338l0.3-1.635l0.192-3.617l-0.071-1.663l-0.279-2.105l-0.366-1.465
			l-0.878-2.729l-0.467-1.276l-2.313-5.58l-0.477-0.945l-1.582-2.561l-0.289-0.346l-0.872-1.037l-1.174-1.369l-0.912-1.193
			l-0.488-0.569l-1.144-0.956l-0.344-0.508l-1.798-1.134l-1.624-1.124l-0.449-0.178l1.125,1.339l1.244,1.121l0.331,0.496
			l0.759,0.931l0.723,0.961l1.194,1.918l0.864,1.411l0.776,1.468l1.42,2.662l0.5,1.262l0.651,1.362l0.471,1.277l0.917,2.238
			l0.763,2.605l-0.085,0.275l-0.298-0.333l-0.459-1.439l-0.569-1.555l-0.707-1.829l-0.553-1.403l-1.24-2.751l-0.762-1.468
			l-0.533-0.912l-0.409-0.81l-0.498-0.748l-0.705-1.154l-0.712-1.153l-0.639-1.018l-0.749-0.935l-1.015-1.099l-0.299-0.101
			l0.375,0.908l0.289,0.344l0.912,1.556l0.246,0.527l-0.193,0.242l-0.257-0.095l-0.076-0.127l-1.033-2.015l-0.591-0.864L37.41,23.6
			l-1.467-2.092l-0.831-1.063l-0.834-0.86l-0.314-0.321l-0.853-0.845l-0.908-0.687l-0.115,0.202l0.989,1.503l0.598,0.863l0.638,0.83
			l0.782,1.104l1.065,1.815l1.046,1.649l0.5,0.927l1.012,2.008l0.477,0.764l1.913,4.429l1.113,2.64l0.851,2.413l0.184,0.574
			l1.099,3.919l0.87,4.768l-0.084,0.429l-0.306-0.303l-0.467-2.86l-0.273-1.173l-0.134-0.588l-1.096-4.068l-0.072-0.131
			l-0.928-2.705l-0.993-2.521l-1.281-3.055l-0.599-1.038l-1.341-2.699l-1.505-2.587l-1.974-3.193l-0.082-0.182l-1.049-1.21
			l-0.494-0.749l-0.436-0.608l-0.647-0.615l-0.295-0.43l0.354,0.42l-0.06,0.135l0.362,0.803l0.819,1.427l0.956,1.69l1.84,3.768
			l0.629,1.344l0.538,1.236l0.579,1.22l0.264,1.012l-0.091,0.272l-0.355-0.432l-0.418-0.908l-0.318-0.277l0.088-0.259l-0.132-0.422
			l-0.601-1.194l-0.736,0.33l0.487,1.541l0.313,0.3l-0.089,0.119l0.073,0.589l0.776,0.021l-0.479,0.439l0.097,1.03l0.2,0.885
			l0.199,0.565l0.706,3.718l0.438,2.848l0.055,0.298l0.579,2.811l0.442,2.223l0.075,0.447l0.102,1.504l0.34,1.627l0.19,1.505
			l0.113,1.66l0.074,0.905l0.329,2.557l0.214,2.562l0.007,2.567l-0.096,0.901l0.035,1.652l0.174,0.229l-0.206,0.333L40.116,64.195
			L40.116,64.195z M53.349,56.361l0.942-2.041l1.017-4.702l0.116-3.017l-0.266-3.005l-0.249-1.023l-0.104-0.886l-0.227-1.165
			l-2.681-6.223l-1.071-1.635l-0.826-1.071l-0.439-0.606l-0.478-0.76l-1.055-1.279l-0.453-0.646l-1.126-0.946l-0.331-0.309
			l-1.656-1.522l-0.272-0.109l0.011,0.192l0.745,0.963l0.982,0.837l0.465,0.641l1.067,1.25l0.511,0.737l0.555,0.705l2.17,3.779
			l-0.079,0.26l0.05-0.009l-0.43-0.283l-0.34-0.614l-0.709-1.327l-0.664-1.177l-0.681-0.983L46.5,28.575l-0.91-0.773l-0.272-0.49
			l-0.512-0.429l-0.438-0.386l-0.329-0.546l-1.665-1.127l0.832,0.939l0.659,0.812l0.856,1.051l0.656,0.82l0.57,0.7l0.787,0.835
			l1.146,2.193l0.603,1.044l0.394,0.979l0.502,1.102l0.467,0.947l0.654,1.692l0.646,1.856l0.981,3.334l0.424,1.76l0.22,1.808
			l0.071,2.112l-0.349,3.302l-0.463,2.37l-0.418,1.602l-0.446,1.437l-0.112,0.275l-0.535,1.238l-0.4,0.971l-0.412,0.806
			l-0.235,0.552l-0.961,1.534l-0.963,1.533l-1.082,1.466l-1.108,1.447l-2.372,2.981l-1.5,1.496l-1.813,1.067l-0.125,0.664l0.1,0.073
			l2.161-1.039l1.262-0.822l1.194-1.151l0.417-0.431l2.039-2.646l1.399-1.798l0.262-0.132l-1.292,2.037l-0.205,0.622l-0.786,1.032
			l-0.657,0.618l-0.954,1.152l-0.018,0.156l0.766-0.455l0.867-0.48l0.746-0.85l0.552-0.513l0.836-1.054l0.402-0.807l0.786-1.457
			l0.552-1.069l0.479-0.936l0.993-1.859l0.651-1.351l0.446-1.28l0.4-0.812l0.269-0.861l0.206-1.019l-0.078-0.129L53.349,56.361
			L53.349,56.361z M55.625,60.319l-1.447,1.994l-0.168,0.576l-1.46,2.077l-0.01,0.15l0.104-0.005l2.074-1.975l0.622-0.452
			l1.002-1.322l0.764-1.296l0.388-0.646l0.64-1.194l0.78-1.271l0.33-0.852l0.518-1.083l0.589-0.884l0.919-3.811l0.369-2.082
			l0.004-2.117l-0.609-4.174l-0.501-1.744l-0.797-1.956l-2.406-3.998l-0.94-1.172l-1.007-1.316l-0.983-1.331l-1.271-1.12
			l-0.258-0.429l-5.334-4.05l-0.763-0.311l-1.708-0.956l-1.139-0.756l-0.465-0.182l0.94,1.214l1.236,0.94l0.549,0.178l0.862,0.657
			l0.692,0.721l0.8,0.693l2.319,1.8l0.214,0.35l0.922,1.192l0.822,1.073l1.206,1.347l0.998,1.319l0.85,1.422l1.63,3.887l0.045,0.145
			l0.843,2.412l0.371,2.397l-0.174,6.34l-0.112,0.746l-0.86,4.137l-0.706,1.66l-0.399,0.968l-0.27,0.532L55.625,60.319
			L55.625,60.319z M57.481,40.437l-0.372-0.819l-0.929-2.224l-0.409-0.974l-1.109-1.959l-0.738-0.946l-0.742-0.945l-0.212-0.214
			l-0.548-0.52l-0.617-0.857l-0.82-1.254l-1.167-1.016l-0.259-0.454l-3.186-2.429l-0.25-0.023l0.633,0.633l0.687,0.589l0.237,0.474
			l0.975,0.856l0.82,1.261l1.057,1.459l0.654,0.826l1.37,2.163l0.614,1.214l0.693,1.163l1.444,3.806l0.446,2.382l0.385,1.921
			l0.083,0.599l-0.014,3.179l-0.057,0.449l-0.177,1.649l-0.582,3.119l-0.579,1.869l-0.689,1.393l-0.546,1.989l-0.651,1.683
			l-0.659,1.354l-0.437,0.955l-0.477,0.771l-0.663,1.521l-0.169,0.416l-0.863,1.855l0.956-0.913l0.77-0.927l1.027-1.232l0.828-0.863
			l0.131-0.506l1.264-1.812l0.272-0.534l0.49-0.932l0.39-0.976l0.703-1.496l0.368-0.983l0.462-1.105l0.321-1.632l0.657-4.938
			l0.086-1.057l-0.345-4.965L57.481,40.437L57.481,40.437z M38.874,69.441l-0.336-0.405l0.02-0.993l-0.382-0.176l-0.511,1.897
			l0.09,1.926l0.16,0.212l0.535-0.493l0.489-0.361l-0.06-0.874L38.874,69.441L38.874,69.441z M39.916,74.731l1.281-0.199
			l0.971-0.465l1.92-1.13l0.204-0.514l-1.878,0.922l-2.697,1.126L39.916,74.731L39.916,74.731z M34.846,25.837l-0.655,0.026
			l0.007,0.208l0.033,0.145l0.435,1.229l0.682-0.274l-0.25-0.662L34.846,25.837L34.846,25.837z M33.949,25.186l0.519,0.145
			l-0.13-0.603l-0.527-1.051l-0.229-0.063l-0.122,0.242l0.09,0.43L33.949,25.186L33.949,25.186z M40.696,69.414l-0.5,0.824
			l0.069,0.42l0.109,0.02l0.696-0.934L40.696,69.414L40.696,69.414z M36.759,41.699l0.521-0.018l0.21-0.391l-0.098-0.447
			l-0.708,0.277L36.759,41.699L36.759,41.699z M37.936,47.25l0.38-0.225l-0.052-0.568l-0.583-0.014L37.936,47.25L37.936,47.25z
			 M37.49,20.744l1.455,1.131L37.49,20.744L37.49,20.744z M37.967,19.949l0.112,0.248l0.721,0.528l0.207-0.025l-0.042-0.14
			L37.967,19.949L37.967,19.949z M37.791,57.912l-0.293-0.137l-0.112,0.21l0.146,0.698l0.311-0.221L37.791,57.912L37.791,57.912z
			 M38.832,63.18l0.49-0.046l0.005-0.247l-0.243-0.124l-0.264,0.278L38.832,63.18L38.832,63.18z M38.433,48.006l-0.366-0.154
			l-0.079,0.259l0.112,0.4L38.433,48.006L38.433,48.006z M37.212,56.512l0.095,0.399l0.223,0.054l0.076-0.121l-0.268-0.395
			L37.212,56.512L37.212,56.512z M39.536,60.93l-0.034-0.17l-0.338-0.204l-0.067,0.255l0.108,0.321L39.536,60.93L39.536,60.93z
			 M33.221,22.86l-0.09-0.213h-0.202l0.04,0.129l0.104,0.096L33.221,22.86L33.221,22.86z M39.177,61.926l-0.065,0.262l0.101,0.027
			l0.2-0.168l-0.021-0.136l-0.1-0.039L39.177,61.926L39.177,61.926z M38.017,23.522l0.092-0.046l-0.093-0.055L38.017,23.522
			L38.017,23.522z M40.833,21.313l-0.086,0.04l0.097,0.055L40.833,21.313L40.833,21.313z M42.847,22.533l0.08,0.102l0.045-0.072
			L42.847,22.533L42.847,22.533z M42.996,24.481l-0.097,0.046L43,24.585L42.996,24.481L42.996,24.481z M37.705,59.577l0.082-0.044
			l-0.084-0.047L37.705,59.577L37.705,59.577z"/>
		<polygon fill="#232734" points="53.875,42.584 53.956,42.461 52.903,38.806 52.675,38.625 52.698,38.621 52.606,38.875 
			52.906,39.703 53.535,42.285 53.872,42.584 53.875,42.584 		"/>
		<polygon fill="#232734" points="39.435,36.911 39.35,37.185 39.5,37.923 40.286,40.203 40.65,41.507 41.074,42.792 41.414,44.102 
			41.959,46.452 42.377,48.362 42.667,50.307 42.868,52.263 43.022,56.787 42.733,59.177 42.66,59.922 42.798,60.174 43.134,59.697 
			43.472,56.083 43.461,53.52 43.396,52.767 42.646,47.211 42.263,45.599 41.868,43.989 40.842,40.357 39.812,37.367 39.435,36.911 
					"/>
		<polygon fill="#232734" points="56.367,39.667 56.162,39.651 56.104,39.783 56.388,40.916 56.613,40.943 56.694,40.823 
			56.691,40.393 56.367,39.667 		"/>
	</g>
	<polygon fill="#232734" points="57.394,47.321 57.118,47.514 57.16,48.064 57.394,47.321 	"/>
	<polygon fill="#232734" points="55.678,56.452 55.797,56.462 55.91,56.377 55.875,55.714 55.736,55.758 55.606,56.32 
		55.678,56.452 	"/>
	<polygon fill="#232734" points="56.762,51.129 57.156,50.774 57.149,50.636 56.917,50.648 56.762,51.129 	"/>
	<polygon fill="#232734" points="56.969,43.252 57.17,43.203 57.183,42.974 57.05,43.003 56.971,43.118 56.969,43.252 	"/>
	<polygon fill="#232734" points="57.316,45.101 57.248,45.363 57.332,45.405 57.526,45.115 57.437,45.064 57.316,45.101 	"/>
	<polygon fill="#232734" points="56.274,53.816 56.511,53.658 56.445,53.44 56.217,53.588 56.208,53.732 56.274,53.816 	"/>
	<polygon fill="#232734" points="55.625,37.659 55.641,37.557 55.48,37.551 55.496,37.68 55.625,37.659 	"/>
	<polygon fill="#232734" points="53.796,61.546 53.928,61.513 53.906,61.377 53.763,61.408 53.796,61.546 	"/>
	<polygon fill="#232734" points="36.119,34.825 35.778,34.54 35.612,34.333 35.581,34.165 35.05,33.38 35.406,34.933 35.645,35.081 
		36.111,34.758 36.119,34.825 	"/>
	<polygon fill="#232734" points="36.289,37.383 36.086,36.732 35.864,36.792 36.289,37.383 	"/>
	<polygon fill="#232734" points="36.452,38.897 36.847,38.38 36.61,38.212 36.134,38.291 35.935,38.502 36.452,38.897 	"/>
	<polygon fill="#232734" points="35.589,32.513 35.126,32.142 34.806,32.095 35.035,32.464 35.585,32.448 35.589,32.513 	"/>
	<polygon fill="#232734" points="36.289,36.096 35.952,35.868 35.819,35.89 35.79,35.997 36.19,36.148 36.284,36.045 36.289,36.096 
			"/>
	<polygon fill="#232734" points="36.962,39.231 36.442,38.836 36.36,39.26 36.297,39.544 36.962,39.231 	"/>
</g>
</svg>
