<?xml version="1.0" encoding="utf-8"?>
<!-- Generator: Adobe Illustrator 15.0.2, SVG Export Plug-In . SVG Version: 6.00 Build 0)  -->
<!DOCTYPE svg PUBLIC "-//W3C//DTD SVG 1.1//EN" "http://www.w3.org/Graphics/SVG/1.1/DTD/svg11.dtd">
<svg version="1.1" id="Layer_1" xmlns="http://www.w3.org/2000/svg" xmlns:xlink="http://www.w3.org/1999/xlink" x="0px" y="0px"
	 width="152.834px" height="152.834px" viewBox="0 0 152.834 152.834" enable-background="new 0 0 152.834 152.834"
	 xml:space="preserve">
<g id="peas">
	<polygon fill="#232734" points="126.828,103.632 126.266,103.694 126.301,103.864 128.531,105.681 128.732,106.053 129.033,106.14 
		130.045,106.994 129.392,105.99 127.67,104.564 127.434,104.092 126.828,103.632 	"/>
	<polygon fill="#232734" points="125.305,133.95 125.133,134.176 126.49,135.25 126.399,134.683 125.463,133.952 125.305,133.95 	
		"/>
	<polygon fill="#232734" points="126.416,118.912 126.375,119.177 127.772,120.299 127.923,120.308 127.633,119.627 
		127.047,119.441 126.363,118.921 126.416,118.912 	"/>
	<polygon fill="#232734" points="21.786,62.595 21.514,62.118 21.208,62.04 20.775,61.97 21.532,62.617 21.784,62.535 
		21.786,62.595 	"/>
	<polygon fill="#232734" points="129.721,105.242 129.848,105.502 130.792,106.199 131.008,106.148 130.979,106.013 
		129.952,105.199 129.721,105.242 	"/>
	<polygon fill="#232734" points="38.052,78.363 38.351,78.79 37.996,78.373 38.052,78.363 	"/>
	<polygon fill="#232734" points="135.166,92.376 134.954,92.197 134.701,92.153 134.713,92.27 134.93,92.412 135.162,92.322 
		135.166,92.376 	"/>
	<polygon fill="#232734" points="127.731,106.149 127.698,106.397 127.806,106.384 127.672,106.156 127.731,106.149 	"/>
	<polygon fill="#232734" points="91.247,113.744 91.172,113.648 91.128,113.724 91.247,113.744 	"/>
	<polygon fill="#232734" points="126.649,120.443 126.577,120.354 126.537,120.425 126.649,120.443 	"/>
	<polygon fill="#232734" points="93.756,123.383 93.87,123.373 93.719,123.275 93.756,123.383 	"/>
	<polygon fill="#232734" points="130.272,91.862 130.34,91.953 130.384,91.877 130.272,91.862 	"/>
	<polygon fill="#232734" points="80.37,57.608 80.281,57.656 80.367,57.706 80.37,57.608 	"/>
	<polygon fill="#232734" points="130.191,98.908 129.381,98.291 128.901,98.204 128.367,97.953 127.077,97.592 125.793,97.208 
		124.493,96.873 124.205,96.799 120.664,96.162 120.299,96.336 120.293,96.291 120.531,96.469 121.967,96.888 124.327,97.354 
		125.952,97.68 127.551,98.103 127.833,98.205 129.791,98.926 130.188,98.854 130.191,98.908 	"/>
	<polygon fill="#232734" points="56.81,73.597 55.671,72.729 54.816,72.18 54.267,71.965 53.834,71.799 53.903,72.08 56.324,73.896 
		56.608,73.915 56.81,73.597 	"/>
	<polygon fill="#232734" points="101.412,96.046 101.066,97.214 101.791,96.623 102.648,96.312 103.283,95.306 101.636,96.078 
		101.354,96.057 101.412,96.046 	"/>
	<polygon fill="#232734" points="127.536,100.048 128.424,100.205 128.683,100.721 129.334,100.352 129.32,99.945 129.222,99.828 
		129.075,99.815 128.043,99.719 127.295,99.425 126.979,99.815 127.085,100.208 127.536,100.048 	"/>
	<polygon fill="#232734" points="114.241,95.241 115.364,95.505 115.949,95.423 116.08,95.189 116.006,95.095 114.664,95.025 
		114.241,95.241 	"/>
	<polygon fill="#232734" points="41.648,58.022 41.374,57.922 40.952,58.527 41.127,58.869 41.385,58.766 41.648,58.022 	"/>
	<polygon fill="#232734" points="130.507,101.438 130.936,100.713 130.401,100.773 130.34,101.239 130.556,101.433 130.507,101.438 
			"/>
	<polygon fill="#232734" points="110.995,94.048 110.938,94.377 111.646,94.51 111.797,94.247 110.995,94.048 	"/>
	<polygon fill="#232734" points="50.271,67.675 50.575,67.354 50.458,66.869 50.271,67.675 	"/>
	<polygon fill="#232734" points="84.564,83.981 85.023,84.351 85.306,84.371 84.81,83.909 84.57,84.028 84.564,83.981 	"/>
	<polygon fill="#232734" points="107.518,93.418 107.79,93.47 107.95,93.259 107.751,93.131 107.473,93.195 107.518,93.418 	"/>
	<polygon fill="#232734" points="74.083,81.81 74.088,81.994 74.296,81.837 74.296,81.701 74.178,81.716 74.083,81.81 	"/>
	<polygon fill="#232734" points="76.502,83.414 76.142,83.165 76.502,83.414 	"/>
	<polygon fill="#232734" points="131.775,101.269 131.782,100.993 131.723,101.048 131.841,101.262 131.775,101.269 	"/>
	<polygon fill="#232734" points="89.318,90.282 89.581,90.321 89.56,90.204 89.324,90.328 89.318,90.282 	"/>
	<polygon fill="#232734" points="120.299,96.336 120.037,96.265 120.043,96.383 120.293,96.291 120.299,96.336 	"/>
	<polygon fill="#232734" points="46.859,63.727 46.914,63.487 46.809,63.505 46.92,63.719 46.859,63.727 	"/>
	<polygon fill="#232734" points="63.378,70.445 63.495,70.438 63.45,70.332 63.378,70.445 	"/>
	<polygon fill="#232734" points="29.004,64.604 29.267,65.136 29.846,65.577 30.368,65.703 32.68,67.341 33.354,67.558 
		36.656,70.073 40.742,73.214 41.459,73.772 42.121,74.38 42.729,74.971 43.508,75.62 44.13,75.809 45.871,77.017 46.156,77.084 
		46.273,76.999 46.247,76.775 45.695,76.55 41.375,73.228 41.002,72.76 40.638,72.536 39.451,71.687 39.283,71.435 38.993,71.354 
		38.735,71.201 37.284,70.104 36.656,69.464 35.215,68.405 34.92,68.102 34.506,67.949 33.818,67.426 33.062,66.932 32.332,66.39 
		31.615,65.845 30.938,65.66 29.402,64.563 29.005,64.634 29.004,64.604 	"/>
	<polygon fill="#232734" points="49.945,78.282 49.678,78.224 49.275,78.43 48.503,78.273 47.787,77.81 47.025,77.346 
		46.975,77.401 50.03,79.786 50.623,79.94 51.11,80.094 50.945,79.854 49.774,78.907 49.692,78.651 49.943,78.269 49.945,78.282 	
		"/>
	<polygon fill="#232734" points="29.533,58.889 31.092,59.769 32.312,60.349 33.323,61.015 33.825,61.355 34.004,61.382 34.022,61 
		33.209,60.312 32.786,60.161 31.152,59.391 30.441,59.17 29.779,58.812 29.536,58.93 29.533,58.889 	"/>
	<polygon fill="#232734" points="105.848,113.23 105.842,112.955 104.955,111.962 104.139,110.905 103.866,110.558 102.781,109.756 
		102.479,109.728 103.402,110.899 104.41,111.816 104.662,112.247 105.912,113.224 105.848,113.23 	"/>
	<polygon fill="#232734" points="106.689,114.207 106.651,114.474 107.927,115.938 108.234,116.448 108.476,116.589 
		108.592,116.378 108.582,116.228 108.141,115.383 106.637,114.217 106.689,114.207 	"/>
	<polygon fill="#232734" points="44.294,73.181 44.021,73.538 44.235,73.845 45.86,73.938 46.08,73.78 46.086,73.832 45.182,73.387 
		44.664,73.13 44.729,73.124 44.229,73.191 44.294,73.181 	"/>
	<polygon fill="#232734" points="40.106,64.908 40.406,64.915 40.532,64.837 40.535,64.719 39.721,64.07 38.576,63.708 
		40.106,64.908 	"/>
	<polygon fill="#232734" points="39.183,69.894 38.961,70.296 40.939,70.278 41.51,70.15 41.404,69.937 39.183,69.894 	"/>
	<polygon fill="#232734" points="49.371,77.055 48.536,77.33 48.606,77.556 48.739,77.606 50.743,77.554 50.467,77.161 
		49.75,77.003 49.803,76.994 49.315,77.061 49.371,77.055 	"/>
	<polygon fill="#232734" points="24.724,60.479 25.73,60.407 26.754,60.404 26.258,59.96 24.827,60.197 24.724,60.479 	"/>
	<polygon fill="#232734" points="57.95,84.994 58.734,85.576 58.787,85.317 58.338,84.886 57.95,84.994 	"/>
	<polygon fill="#232734" points="29.511,61.951 30.438,62.116 30.415,61.9 29.511,61.945 29.511,61.951 	"/>
	<polygon fill="#232734" points="92.683,105.027 93.029,104.9 92.833,104.556 92.582,104.663 92.683,105.027 	"/>
	<polygon fill="#232734" points="104.23,113.913 103.351,113.673 103.137,113.821 103.136,113.818 104.227,113.86 104.23,113.913 	
		"/>
	<polygon fill="#232734" points="66.257,89.472 66.516,89.517 66.588,89.145 66.233,89.109 66.257,89.472 	"/>
	<polygon fill="#232734" points="24.369,55.896 24.092,55.89 23.92,56.03 23.986,56.145 24.234,56.215 24.388,56.019 24.369,55.896 
			"/>
	<polygon fill="#232734" points="29.536,58.93 28.801,58.534 29.293,58.99 29.533,58.889 29.536,58.93 	"/>
	<polygon fill="#232734" points="77.706,99.005 77.267,99.063 77.24,99.338 77.545,99.57 77.785,99.271 77.706,99.005 	"/>
	<polygon fill="#232734" points="52.856,78.953 53.237,79.165 53.521,78.814 53.085,78.823 52.859,78.98 52.856,78.953 	"/>
	<polygon fill="#232734" points="90.112,102.963 90.223,102.993 90.404,102.795 90.281,102.557 90.047,102.557 90.011,102.694 
		90.112,102.963 	"/>
	<polygon fill="#232734" points="88.25,108.479 88.646,108.846 88.836,108.795 88.793,108.661 88.305,108.41 88.25,108.479 	"/>
	<polygon fill="#232734" points="89.309,106.362 89.197,105.924 88.988,105.964 89.015,106.099 89.347,106.355 89.309,106.362 	"/>
	<polygon fill="#232734" points="104.227,113.86 104.591,114.102 104.736,114.093 104.71,113.952 104.23,113.913 104.227,113.86 	
		"/>
	<polygon fill="#232734" points="106.637,114.217 106.319,113.775 106.689,114.207 106.637,114.217 	"/>
	<polygon fill="#232734" points="17.265,56.429 17.63,56.641 17.753,56.612 17.735,56.473 17.268,56.46 17.265,56.429 	"/>
	<polygon fill="#232734" points="28.934,59.823 28.962,59.96 29.282,60.012 29.256,59.875 29.036,59.763 28.934,59.823 	"/>
	<polygon fill="#232734" points="35.494,64.19 35.677,64.128 35.624,64.01 35.378,63.971 35.4,64.102 35.494,64.19 	"/>
	<polygon fill="#232734" points="40.212,66.945 40.225,66.817 40.018,66.812 39.968,67.084 40.212,66.945 	"/>
	<polygon fill="#232734" points="43.429,70.491 43.574,70.704 43.768,70.648 43.636,70.438 43.509,70.431 43.429,70.491 	"/>
	<polygon fill="#232734" points="111.033,119.479 110.728,119.04 111.091,119.471 111.033,119.479 	"/>
	<polygon fill="#232734" points="97.261,110.483 97.496,110.549 97.481,110.373 97.263,110.501 97.261,110.483 	"/>
	<polygon fill="#232734" points="105.912,113.224 105.869,113.472 105.848,113.23 105.912,113.224 	"/>
	<polygon fill="#232734" points="18.908,57.336 18.659,57.281 18.658,57.397 18.902,57.287 18.908,57.336 	"/>
	<polygon fill="#232734" points="31.929,63.787 32.152,63.84 32.128,63.683 31.93,63.795 31.929,63.787 	"/>
	<polygon fill="#232734" points="36.223,66.666 36.505,66.665 36.435,66.585 36.227,66.695 36.223,66.666 	"/>
	<polygon fill="#232734" points="46.08,73.78 46.312,73.832 46.306,73.728 46.086,73.832 46.08,73.78 	"/>
	<polygon fill="#232734" points="103.038,80.683 101.943,79.262 101.386,78.526 100.384,77.64 98.893,76.128 98.603,75.652 
		97.609,74.776 97.358,74.341 95.967,73.15 94.825,71.959 93.522,70.921 92.243,69.943 91.898,69.424 90.998,69.225 91.043,69.357 
		91.485,69.761 93.859,71.634 94.641,72.557 95.688,73.431 96.935,74.727 97.327,75.179 97.813,75.754 98.749,76.729 99.067,77.048 
		100.552,78.534 101.469,79.326 101.947,79.9 102.703,80.623 103.038,80.683 	"/>
	<polygon fill="#232734" points="78.339,67.069 77.802,66.919 73.412,63.674 72.648,63.453 71.869,62.863 71.096,62.394 
		70.046,61.945 70.186,62.306 70.798,62.744 73.097,64.169 73.505,64.445 74.041,64.613 74.443,65.034 75.108,65.383 79.585,68.78 
		80.736,69.95 81.426,70.545 81.705,70.579 81.336,69.766 80.533,69.08 79.361,67.917 78.339,67.069 	"/>
	<polygon fill="#232734" points="63.976,51.193 66.087,52.687 66.285,52.629 66.243,52.486 63.466,50.423 62.973,50.291 
		59.903,48.104 59.379,47.939 56.564,45.905 55.81,45.782 56.573,46.55 57.209,46.736 58.818,47.962 59.665,48.598 60.664,49.276 
		61.542,49.757 63.034,50.779 63.976,51.193 	"/>
	<polygon fill="#232734" points="91.018,71.123 91.067,71.401 92.26,72.311 92.597,72.866 94.309,74.273 94.934,75.113 
		95.69,76.043 96.405,76.777 96.592,76.446 95.456,75.061 94.801,74.25 94.02,73.541 91.303,71.177 91.018,71.123 	"/>
	<polygon fill="#232734" points="84.453,63.748 84.196,64.036 84.831,64.642 85.341,64.905 85.706,65.125 86.436,65.844 
		87.843,66.928 87.869,66.347 87.779,66.229 84.453,63.748 	"/>
	<polygon fill="#232734" points="91.645,77.188 91.681,76.925 91.134,76.417 90.572,75.622 88.387,73.87 87.535,73.074 
		87.166,73.226 88.441,74.33 89.716,75.351 89.973,75.811 91.696,77.181 91.645,77.188 	"/>
	<polygon fill="#232734" points="63.942,56.391 65.096,56.793 62.541,54.681 61.303,54.257 61.619,54.681 63.942,56.391 	"/>
	<polygon fill="#232734" points="78.338,65.703 78.957,66.661 81.201,68.431 81.35,68.443 81.373,68.232 80.741,67.402 
		79.801,66.642 78.578,65.75 78.338,65.703 	"/>
	<polygon fill="#232734" points="78.41,59.895 77.897,59.776 77.108,59.384 77.171,59.619 79.041,61.053 79.721,61.232 
		80.708,61.908 80.951,61.91 80.814,61.654 79.842,60.929 78.41,59.895 	"/>
	<polygon fill="#232734" points="48.187,42.618 48.226,42.932 50.497,44.637 50.755,44.778 51.987,45.312 50.626,44.073 
		50.15,43.971 48.187,42.618 	"/>
	<polygon fill="#232734" points="106.828,85.154 107.02,84.741 106.28,83.808 104.674,82.729 105.307,83.628 105.58,83.718 
		105.916,84.179 106.635,84.795 106.828,85.154 	"/>
	<polygon fill="#232734" points="50.785,42.817 52.863,44.468 52.98,44.457 52.868,43.89 51.998,43.359 50.785,42.817 	"/>
	<polygon fill="#232734" points="48.739,41.601 48.615,41.336 46.91,40.078 46.763,40.077 46.771,40.297 48.47,41.567 
		48.739,41.601 	"/>
	<polygon fill="#232734" points="70.783,55.33 70.721,55.155 69.735,54.494 69.439,54.479 69.271,54.677 70.783,55.33 	"/>
	<polygon fill="#232734" points="71.663,60.774 73.612,62.088 73.488,61.825 71.91,60.716 71.669,60.83 71.663,60.774 	"/>
	<polygon fill="#232734" points="101.671,82.675 102.057,83.401 102.277,83.247 102.021,82.51 101.671,82.675 	"/>
	<polygon fill="#232734" points="74.734,59.591 74.751,59.363 74.422,59.104 73.502,58.933 73.882,59.396 74.018,59.455 
		74.734,59.591 	"/>
	<polygon fill="#232734" points="74.36,57.676 74.271,57.397 73.225,56.819 74.064,57.657 74.36,57.676 	"/>
	<polygon fill="#232734" points="68.621,55.758 67.804,55.21 67.611,55.287 67.657,55.474 68.474,56.03 68.663,55.951 
		68.621,55.758 	"/>
	<polygon fill="#232734" points="58.815,49.256 59.311,49.717 59.533,49.571 59.413,49.358 58.815,49.256 	"/>
	<polygon fill="#232734" points="63.621,52.135 63.334,51.879 63.112,52 63.08,52.123 63.271,52.255 63.54,52.212 63.621,52.135 	
		"/>
	<polygon fill="#232734" points="84.619,66.59 84.383,66.856 84.673,67.09 84.619,66.59 	"/>
	<polygon fill="#232734" points="105.207,86.97 105.198,86.58 105.031,86.398 104.818,86.531 104.831,86.785 105.207,86.97 	"/>
	<polygon fill="#232734" points="81.437,64.254 81.662,64.159 81.633,63.961 81.506,63.999 81.428,64.114 81.437,64.254 	"/>
	<polygon fill="#232734" points="88.285,69.436 88.214,69.338 88.165,69.423 88.285,69.436 	"/>
	<polygon fill="#232734" points="91.696,77.181 91.659,77.433 91.771,77.414 91.645,77.188 91.696,77.181 	"/>
	<polygon fill="#232734" points="92.367,77.746 92.395,77.493 92.285,77.513 92.427,77.738 92.367,77.746 	"/>
	<polygon fill="#232734" points="71.669,60.83 71.415,60.755 71.428,60.865 71.663,60.774 71.669,60.83 	"/>
	<polygon fill="#232734" points="126.401,113.782 126.419,113.37 126.247,113.1 125.44,112.259 125.13,112.013 124.779,112.148 
		125.558,113.204 126.401,113.782 	"/>
	<polygon fill="#232734" points="117.027,110.66 117.457,110.612 117.707,110.188 117.449,109.852 115.636,110.083 115.435,110.476 
		116.648,110.444 117.027,110.66 	"/>
	<polygon fill="#232734" points="116.646,105.19 116.658,105.611 118.051,106.67 117.859,105.991 116.794,105.199 116.646,105.19 	
		"/>
	<polygon fill="#232734" points="106.217,101.85 107.219,102.475 107.475,102.828 108.181,102.979 108.15,102.737 106.79,101.791 
		106.217,101.85 	"/>
	<polygon fill="#232734" points="103.71,104.494 103.853,104.252 103.463,103.796 102.653,103.66 102.512,103.721 102.489,104.078 
		102.604,104.163 103.71,104.494 	"/>
	<polygon fill="#232734" points="120.133,108.242 120.247,108.514 121.45,109.418 121.598,109.406 121.601,109.182 120.268,108.229 
		120.133,108.242 	"/>
	<polygon fill="#232734" points="116.114,107.442 116.669,108.318 117.155,108.174 116.114,107.442 	"/>
	<polygon fill="#232734" points="76.261,91.24 75.639,90.801 76.261,91.24 	"/>
	<polygon fill="#232734" points="78.217,91.987 78.666,92.469 78.802,92.459 78.826,92.234 78.217,91.987 	"/>
	<polygon fill="#232734" points="84.386,94.342 84.739,94.673 84.783,94.417 84.684,94.165 84.386,94.342 	"/>
	<polygon fill="#232734" points="49.579,24.539 48.631,24.39 48.907,24.746 50.951,26.32 51.903,27.277 53.146,28.403 
		54.069,29.759 55.007,30.939 55.629,31.779 55.776,31.766 55.829,31.678 54.991,30.087 53.393,28.099 52.138,26.811 51.41,26.049 
		50.993,25.621 49.579,24.539 	"/>
	<polygon fill="#232734" points="47.099,23.147 47.038,23.013 44.96,21.33 44.531,21.173 44.593,21.475 45.155,21.957 
		45.693,22.409 46.403,23.142 47.099,23.147 	"/>
	<polygon fill="#232734" points="56.013,34.718 55.987,34.979 56.279,35.304 56.658,35.741 57.562,36.673 57.536,36.678 
		57.587,36.414 57.414,36.18 56.968,35.516 55.953,34.725 56.013,34.718 	"/>
	<polygon fill="#232734" points="53.397,31.037 53.088,30.25 52.723,30.188 53.024,30.861 53.397,31.037 	"/>
	<polygon fill="#232734" points="60.626,41.681 60.793,41.699 60.888,41.485 60.72,41.087 60.457,41.002 60.349,41.365 
		60.626,41.681 	"/>
	<polygon fill="#232734" points="60.29,45.776 60.297,46.028 60.695,46.291 61.241,46.234 61.28,46.007 61.014,45.892 60.29,45.776 
			"/>
	<polygon fill="#232734" points="46.213,24.755 45.99,24.839 45.93,24.959 46.064,25.188 46.192,25.228 46.293,25.026 
		46.213,24.755 	"/>
	<polygon fill="#232734" points="48.123,27.775 48.136,27.661 47.922,27.514 47.833,27.571 47.98,27.794 48.123,27.775 	"/>
	<polygon fill="#232734" points="50.164,30.53 50.354,30.523 50.425,30.288 50.229,30.29 50.164,30.53 	"/>
	<polygon fill="#232734" points="52.585,33.246 52.716,33.235 52.674,33.035 52.455,33.036 52.469,33.17 52.585,33.246 	"/>
	<polygon fill="#232734" points="57.562,36.673 57.862,37.107 57.536,36.678 57.562,36.673 	"/>
	<polygon fill="#232734" points="60.942,43.995 60.7,44.148 60.688,44.279 60.894,44.271 60.942,43.995 	"/>
	<polygon fill="#232734" points="63.637,45.835 63.777,45.83 63.789,45.728 63.576,45.56 63.48,45.603 63.637,45.835 	"/>
	<polygon fill="#232734" points="65.917,48.367 66.039,48.375 66.121,48.315 65.979,48.1 65.777,48.144 65.806,48.278 
		65.917,48.367 	"/>
	<polygon fill="#232734" points="51.341,28.041 51.431,27.982 51.355,27.936 51.341,28.041 	"/>
	<polygon fill="#232734" points="55.953,34.725 55.994,34.482 55.889,34.496 56.013,34.718 55.953,34.725 	"/>
	<polygon fill="#232734" points="56.215,38.076 56.165,38.145 56.334,38.212 56.306,38.098 56.215,38.076 	"/>
	<polygon fill="#232734" points="58.985,41.741 58.957,41.603 58.827,41.642 58.848,41.777 58.985,41.741 	"/>
	<polygon fill="#232734" points="28.822,27.765 28.578,28.086 28.685,28.433 28.646,28.437 28.81,28.232 28.765,27.772 
		28.822,27.765 	"/>
	<polygon fill="#232734" points="27.876,27.418 27.943,27.917 27.876,27.418 	"/>
	<polygon fill="#232734" points="27.935,27.846 28.001,28.343 27.935,27.846 	"/>
	<polygon fill="#232734" points="28.765,27.772 28.81,27.511 28.7,27.548 28.822,27.765 28.765,27.772 	"/>
	<polygon fill="#232734" points="27.992,28.271 28.059,28.771 27.992,28.271 	"/>
	<polygon fill="#232734" points="115.841,117.8 114.976,116.806 114.841,116.769 114.747,116.986 114.84,117.265 115.764,118.421 
		116.148,118.635 115.841,117.8 	"/>
	<polygon fill="#232734" points="122.292,123.637 121.936,122.893 121.563,122.839 121.596,123.238 122.292,123.637 	"/>
	<polygon fill="#232734" points="127.366,129.789 128.233,130.463 127.655,129.81 127.366,129.789 	"/>
	<polygon fill="#232734" points="125.256,129.058 125.567,128.895 125.354,128.602 125.128,128.728 125.256,129.058 	"/>
	<polygon fill="#232734" points="119.52,123.533 119.868,123.397 119.671,123.054 119.421,123.166 119.52,123.533 	"/>
	<polygon fill="#232734" points="117.792,121.131 117.734,120.94 117.612,121.001 117.566,121.26 117.702,121.232 117.792,121.131 	
		"/>
	<polygon fill="#232734" points="122.688,126.225 122.324,125.957 122.688,126.225 	"/>
	<polygon fill="#232734" points="73.951,67.862 73.922,68.147 74.245,68.312 73.888,67.872 73.951,67.862 	"/>
	<polygon fill="#232734" points="89.324,90.328 89.064,90.222 88.295,90.303 88.075,89.912 87.826,89.564 86.95,89.632 
		86.563,89.337 86.426,88.9 85.702,88.932 84.954,88.79 84.74,88.607 84.886,88.413 85.119,88.231 85.087,87.96 83.117,88.157 
		83.238,87.77 84.168,87.28 83.979,87.077 82.498,87.208 82.477,88.404 82.663,88.615 83.511,88.92 83.762,88.917 83.852,88.619 
		84.159,88.843 84.089,89.134 84.289,89.485 85.443,89.71 85.39,90.014 85.542,90.39 86.042,90.681 86.707,90.74 86.918,90.546 
		87.054,90.529 87.025,91.08 87.854,90.858 89.031,90.985 88.888,92.191 89.65,91.688 90.482,92.322 91,92.416 91.961,93.028 
		92.529,92.829 92.687,93.247 93.706,93.348 93.703,93.926 93.317,93.955 92.475,93.484 92.041,93.413 90.25,92.557 89.382,92.416 
		90.382,93.085 91.056,93.482 92.444,94.063 93.27,94.43 94.105,94.76 95.229,95.195 96.345,95.64 97.454,96.103 99.031,96.579 
		99.319,96.576 99.424,96.263 99.983,96.354 100.856,96.235 101.412,96.046 101.354,96.057 101.798,95.306 100.951,95.485 
		100.666,95.428 99.926,94.924 99.965,95.344 100.326,95.835 99.803,95.929 99.443,95.123 99.935,94.959 99.746,94.417 
		98.302,94.999 97.725,95.062 97.576,94.585 97.729,94.333 97.69,94.086 97.552,94.059 97.002,94.258 96.591,94.419 96.296,94.463 
		96.075,94.287 95.862,93.734 95.362,94.716 94.645,94.338 94.408,94.435 94.398,94.324 94.649,94.38 94.816,94.149 95.733,93.731 
		95.87,93.777 96.048,93.218 95.785,93.089 94.719,93.585 94.39,93.342 94.344,92.919 95.017,92.325 95.046,92.183 94.846,92.066 
		94.418,92.198 93.454,92.598 93.229,92.14 93.271,91.854 93.007,91.752 92.088,91.948 91.203,91.566 91.329,91.304 92.273,90.859 
		92.269,90.71 92.047,90.535 90.419,91.08 89.62,90.872 89.318,90.282 89.324,90.328 	"/>
	<polygon fill="#232734" points="63.905,76.219 63.953,75.644 63.674,75.517 63.444,75.68 63.308,76.084 62.783,75.8 62.792,75.224 
		62.586,75.023 62.043,75.23 61.61,74.666 60.752,74.709 60.977,76.173 61.115,76.118 61.438,75.8 62.325,76.333 62.265,76.79 
		62.752,77.245 63.36,76.872 63.643,76.937 64.759,77.722 65.82,78.528 66.301,78.636 66.1,78.956 65.632,78.92 66.873,79.727 
		68.129,80.673 69.821,81.652 71.203,82.59 72.093,82.763 72.124,82.249 72.539,81.704 72.48,81.076 72.237,81.183 71.772,81.777 
		70.957,81.586 71.324,80.623 71.16,80.398 71.021,80.4 70.822,80.605 70.763,80.902 70.198,81.014 69.945,79.845 69.135,80.555 
		67.957,80.077 67.926,79.903 68.223,79.396 68.332,78.979 67.801,79.133 67.75,79.431 67.562,79.65 66.689,79.044 67.225,78.991 
		66.967,78.285 66.419,78.202 65.901,77.614 65.522,77.752 64.433,77.028 64.69,76.336 64.496,76.194 63.905,76.219 	"/>
	<polygon fill="#232734" points="35.878,50.802 35.409,50.753 34.801,50.29 34.756,49.677 34.783,49.252 34.075,49.213 
		33.55,47.899 32.824,47.899 32.622,47.059 32.47,46.333 32.078,46.427 31.691,46.315 31.342,44.738 30.825,45.155 30.433,45.088 
		30.065,43.344 29.831,43.52 29.726,45.002 29.851,45.259 30.593,45.688 31.143,46.748 31.652,46.876 31.992,47.505 31.547,47.851 
		31.545,48.113 31.796,48.235 32.188,48.058 32.674,48.357 33.145,49.322 33.579,49.435 33.987,50.385 35.003,50.939 35.364,51.585 
		35.268,52.288 34.686,52.278 35.067,53.041 35.48,52.967 35.535,52.632 35.963,52.104 35.878,50.802 	"/>
	<polygon fill="#232734" points="46.92,63.719 46.779,64.295 46.43,64.482 45.341,63.672 45.195,63.675 45.16,63.893 45.466,64.223 
		46.222,65.145 46.896,65.657 48.934,67.605 49.233,68.132 50.729,69.27 51.348,69.278 51.455,68.749 51.709,68.377 51.821,68.103 
		51.82,67.952 51.357,67.916 51.198,68.17 51.087,68.615 50.848,68.604 47.725,66.289 47.163,65.284 47.224,64.738 47.433,63.848 
		46.859,63.727 46.92,63.719 	"/>
	<polygon fill="#232734" points="76.761,85.028 78.029,85.801 78.628,85.412 78.913,85.46 79.347,86.047 79.429,86.497 
		79.654,86.662 79.967,86.397 80.027,86.117 80.518,85.76 80.462,85.496 79.118,85.177 78.309,84.613 77.433,84.786 76.982,84.675 
		76.786,83.881 76.151,84.795 76.761,85.028 	"/>
	<polygon fill="#232734" points="38.49,56.144 39.232,56.161 39.446,55.881 39.355,55.161 39.189,54.947 38.405,54.479 
		38.361,53.521 38.119,53.374 37.699,53.522 37.652,52.683 37.51,52.151 37.093,52.546 37.026,53.787 37.868,54.631 37.866,55.179 
		38.702,55.835 38.498,56.212 38.49,56.144 	"/>
	<polygon fill="#232734" points="57.342,71.821 56.387,71.622 56.14,70.834 55.542,71.632 56.285,72.155 56.684,72.691 
		57.234,72.61 57.342,71.821 	"/>
	<polygon fill="#232734" points="81.229,87.303 81.525,86.964 82.739,86.269 80.91,86.372 80.786,86.444 80.545,86.756 
		80.805,87.29 81.229,87.303 	"/>
	<polygon fill="#232734" points="48.503,64.788 48.075,65.194 48.138,65.784 49.122,66.474 49.678,66.419 49.855,65.693 
		49.027,65.638 48.503,64.788 	"/>
	<polygon fill="#232734" points="40.982,56.734 40.54,56.947 40.113,57.305 40.618,58.13 40.955,57.943 40.982,56.734 	"/>
	<polygon fill="#232734" points="45.03,62.668 44.999,62.936 45.572,63.521 46.216,63.417 46.285,62.261 46.033,62.385 
		45.767,63.068 44.994,62.673 45.03,62.668 	"/>
	<polygon fill="#232734" points="43.934,62.443 43.957,62.034 43.308,61.415 42.65,61.493 43.934,62.443 	"/>
	<polygon fill="#232734" points="95.365,88.997 95.203,89.24 96.826,89.78 97.043,89.472 95.365,88.997 	"/>
	<polygon fill="#232734" points="100.868,91.25 100.932,91.421 102.006,91.851 102.441,91.888 102.585,91.83 102.557,91.593 
		102.443,91.504 100.868,91.25 	"/>
	<polygon fill="#232734" points="91.441,87.671 92.306,87.737 91.491,87.138 90.643,86.866 90.568,86.915 91.441,87.671 	"/>
	<polygon fill="#232734" points="51.06,61.625 50.158,61.446 51.549,62.65 51.69,62.663 51.756,62.604 51.724,62.464 51.06,61.625 	
		"/>
	<polygon fill="#232734" points="73.917,77.597 74,77.834 75.521,79.042 75.883,79.074 75.759,78.816 74.065,77.603 73.917,77.597 	
		"/>
	<polygon fill="#232734" points="73.925,83.367 73.771,82.334 73.312,82.642 72.885,82.997 73.359,83.388 73.925,83.367 	"/>
	<polygon fill="#232734" points="54.594,64.362 53.373,63.879 53.425,64.042 54.696,65.084 54.844,65.093 54.903,64.876 
		54.594,64.362 	"/>
	<polygon fill="#232734" points="88.291,85.909 87.985,85.478 87.151,85.358 87.714,85.94 88.291,85.909 	"/>
	<polygon fill="#232734" points="44.55,55.525 44.19,54.855 43.34,54.208 43.198,54.29 43.253,54.423 44.021,55.328 44.35,55.631 
		44.55,55.525 	"/>
	<polygon fill="#232734" points="71.508,75.584 70.985,75.549 70.854,75.614 70.881,75.854 71.761,76.42 71.837,76.368 
		71.508,75.584 	"/>
	<polygon fill="#232734" points="39.809,51.665 39.863,51.8 41.078,52.821 41.362,52.775 41.326,52.633 39.896,51.636 
		39.809,51.665 	"/>
	<polygon fill="#232734" points="58.451,67.289 58.474,67.554 59.586,68.313 59.707,68.294 59.744,68.158 59.664,67.873 
		58.451,67.289 	"/>
	<polygon fill="#232734" points="44.994,62.673 45.242,62.311 45.371,61.44 44.945,61.499 44.72,62.206 45.03,62.668 44.994,62.673 
			"/>
	<polygon fill="#232734" points="59.754,74.637 60.198,73.611 59.96,73.686 59.563,74.434 59.754,74.637 	"/>
	<polygon fill="#232734" points="78.424,80.809 78.677,80.549 78.55,80.303 77.579,79.938 77.445,79.965 78.424,80.809 	"/>
	<polygon fill="#232734" points="74.419,83.83 74.707,84.086 75.201,83.317 75.067,83.104 74.936,83.157 74.419,83.83 	"/>
	<polygon fill="#232734" points="27.197,38.188 27.149,38.049 26.324,37.419 25.899,37.19 27.197,38.188 	"/>
	<polygon fill="#232734" points="33.38,44.428 33.521,44.682 34.123,45.104 34.251,44.89 34.16,44.613 33.578,44.241 33.38,44.428 	
		"/>
	<polygon fill="#232734" points="40.32,58.914 40.74,59.782 40.964,59.71 40.32,58.914 	"/>
	<polygon fill="#232734" points="42.421,59.881 42.782,59.66 42.612,58.944 42.025,59.054 42.421,59.881 	"/>
	<polygon fill="#232734" points="58.821,73.617 58.787,72.854 58.21,73.491 58.222,73.729 58.359,73.755 58.821,73.617 	"/>
	<polygon fill="#232734" points="43.593,60.941 43.825,59.968 43.58,60.059 43.252,60.547 43.331,60.934 43.593,60.941 	"/>
	<polygon fill="#232734" points="54.464,69.816 54.028,70.557 54.649,70.479 54.788,69.934 54.464,69.816 	"/>
	<polygon fill="#232734" points="48.499,59.375 48.195,58.726 47.4,58.589 48.273,59.399 48.499,59.375 	"/>
	<polygon fill="#232734" points="37.39,49.027 36.526,48.349 37.009,49.066 37.39,49.027 	"/>
	<polygon fill="#232734" points="38.498,56.212 37.767,55.604 37.552,55.725 38.071,56.446 38.297,56.363 38.49,56.144 
		38.498,56.212 	"/>
	<polygon fill="#232734" points="52.608,69.339 52.615,69.485 52.768,69.708 53.018,69.661 53.002,68.937 52.608,69.339 	"/>
	<polygon fill="#232734" points="82.034,82.643 81.797,82.299 81.228,82.164 81.05,82.329 81.119,82.45 82.034,82.643 	"/>
	<polygon fill="#232734" points="30.752,41.666 29.875,41.031 30.752,41.666 	"/>
	<polygon fill="#232734" points="64.611,71.106 64.066,70.691 63.833,70.75 63.878,70.885 64.453,71.315 64.648,71.256 
		64.611,71.106 	"/>
	<polygon fill="#232734" points="67.717,73.399 68.087,73.394 68.154,73.283 67.982,73.145 67.658,73.284 67.717,73.399 	"/>
	<polygon fill="#232734" points="84.57,84.028 84.298,84.02 84.367,84.091 84.564,83.981 84.57,84.028 	"/>
	<polygon fill="#232734" points="24.478,38.978 24.439,39.244 24.551,39.211 24.419,38.985 24.478,38.978 	"/>
	<polygon fill="#232734" points="54.139,69.545 54.234,69.487 54.154,69.437 54.139,69.545 	"/>
	<polygon fill="#232734" points="49.943,78.269 51.521,79.45 52.114,79.702 53.233,80.56 53.378,80.605 53.639,80.759 
		55.452,82.138 55.512,82.275 55.422,82.329 54.372,82.289 54.277,82.166 54.192,82.043 52.232,80.955 52.285,81.19 53.771,82.373 
		53.967,82.724 54.943,82.9 55.817,82.927 55.835,83.804 57.837,83.676 57.082,84.201 57.235,84.482 58.87,84.377 60.627,85.34 
		61.296,85.943 61.369,86.071 61.656,86.114 61.863,85.968 61.114,85.219 59.752,84.251 59.371,84.002 56.699,82.294 55.488,81.378 
		54.382,80.655 53.896,80.357 54.107,80.19 54.165,80.077 53.988,79.863 53.1,79.845 52.362,79.301 52.856,78.953 52.859,78.98 
		52.585,78.771 51.286,78.769 51.731,78.321 51.484,77.992 50.179,78.119 49.945,78.282 49.943,78.269 	"/>
	<polygon fill="#232734" points="42.279,71.314 42.34,71.038 42.152,70.839 40.529,70.767 40.1,70.855 40,70.946 40.607,71.565 
		40.769,71.98 41.447,72.259 42.233,73.048 43.916,72.962 44.294,73.181 44.229,73.191 44.729,73.124 44.664,73.13 44.682,72.845 
		44.486,72.649 43.294,72.56 42.271,72.366 42.103,72.138 42.95,71.95 43.354,71.8 43.396,71.544 42.646,71.506 42.271,71.254 
		41.841,71.32 41.634,71.432 41.574,71.364 41.849,71.379 42.279,71.314 	"/>
	<polygon fill="#232734" points="49.75,77.003 49.794,76.73 49.591,76.537 48.1,76.39 47.819,76.105 48.542,75.925 48.416,75.611 
		46.794,75.402 46.702,75.295 46.718,75.187 47.097,74.956 47.115,74.707 44.739,74.816 44.677,74.912 44.871,75.147 46.051,75.069 
		46.257,75.876 47.104,76.157 47.35,76.34 47.495,76.779 49.037,76.877 49.371,77.055 49.315,77.061 49.803,76.994 49.75,77.003 	
		"/>
	<polygon fill="#232734" points="23.104,59.777 23.348,59.622 25.114,59.536 25.218,59.216 23.905,59.079 23.928,58.718 
		23.746,58.388 22.313,58.452 22.323,58.732 22.9,58.862 23.065,59.38 23.172,59.773 23.104,59.777 	"/>
	<polygon fill="#232734" points="18.902,57.287 20.658,57.321 20.623,57.188 19.177,56.983 18.908,57.336 18.902,57.287 	"/>
	<polygon fill="#232734" points="21.034,57.621 20.939,58.021 21.188,58.163 21.334,58.173 22.486,57.95 22.318,57.695 
		21.034,57.621 	"/>
	<path fill="#232734" d="M114.45,109.473l-0.107-0.486l-0.403-0.15l0.576,0.625l-0.843,0.099l-0.896-0.759l0.314-0.272l-0.806-0.492
		l-0.174-0.382l-0.828-0.354l-0.323-0.484l-0.268-0.118l-0.258,0.111l0.075,0.226l0.979,1.057l-0.074,0.058l-0.533-0.25
		l-1.039-0.582l-0.111-0.275l0.184-0.998l-0.374-0.149l-0.892,0.114l-0.74,0.006l0.658-0.547l-0.534-0.42l-0.94,0.223l0.87,0.737
		l-0.835,0.109l-1.1-0.479l-0.116-0.094l0.002-0.268l1.004-0.633l-0.3-0.279l-1.058,0.043l-0.289-0.12l-0.002-0.551l-0.851-0.321
		l-0.752,0.043l-0.321-0.51l-0.412-0.119l-0.897-0.192l-1.556-0.852l-1.138-0.725l-1.892-0.532l-0.792-0.435l-0.413-0.175
		l-0.846-0.314l-0.97-0.399l-1.371-0.325l-0.986-0.567l-1.131-0.495l-0.417,0.054l-0.189,0.203l0.171,0.196l0.795,0.427l0.984,0.381
		l0.819,0.377l0.995,0.339l1.646,0.735l0.401,0.199l1.082,0.529l1.103,0.476l0.841,0.317l0.769,0.489l0.436,0.124l0.39,0.227
		l0.063,0.24l-0.127,0.076l-0.299-0.006l-1.519-0.66l-1.092-0.494l-1.367-0.614l-1.609-0.813l-0.405-0.188l-1.294-0.406
		l-1.233-0.563l-0.852-0.299l-0.908-0.547l-1.5-0.7l-0.817-0.374l-1.213-0.601l-0.404-0.417l0.166-0.268l0.797,0.224l0.457-0.201
		l0.301-0.024l1.285,0.375l0.937,0.05l0.298,0.483l0.749-0.051l0.32,0.268l0.125,0.242l1.313-0.317l0.26,0.139l-0.199,0.313
		l-0.122,0.069l0.385,0.437l0.871,0.023l0.611,0.65l0.991,0.352l1.1,0.481l0.436,0.089l0.799,0.517l1.271,0.307l0.852,0.543
		l0.519,0.098l0.822,0.54l0.948,0.231l1.052,0.201l0.225,0.371l1.132,0.043l1.196-0.017l0.202,0.35l-0.714,0.165l0.064,0.25
		l0.867,0.222l1.18-0.111l-0.054,0.528l0.163,0.229l1.345-0.027l0.178,0.221l-0.483,0.509l0.693,0.195l1.784-0.232l-0.17-0.564
		l0.473,0.786l-0.206,0.205l-0.863,0.225l-0.064,0.262l0.247,0.216l0.878-0.074l1.356-0.154l0.224,0.114l-0.11,0.272l-1.168,0.203
		l0.27,0.373l0.967-0.163l1.004,0.03l-0.084,0.288l-1.25,0.311l0.234,0.25l1.329-0.173l0.439,0.04l0.122,0.085l-0.065,0.237
		l-1.03,0.219l0.194,0.293l1.631-0.157l0.22,0.249l-0.04,0.145l-1.009,0.211l-0.036,0.122l0.544,0.347l0.675-0.085l0.859-0.095
		l0.185,0.472l-2.211,0.182L114.45,109.473L114.45,109.473z M89.121,97.278l0.156,0.224l0.207-0.044l-0.146-0.217L89.121,97.278
		L89.121,97.278z"/>
	<polygon fill="#232734" points="80.848,93.086 80.356,93.228 80.417,93.382 81.868,94.396 83.175,95.099 83.746,95.009 
		82.857,94.246 81.433,93.463 80.848,93.086 	"/>
	<polygon fill="#232734" points="28.045,28.702 27.962,29.122 28.395,31.612 28.728,31.896 28.67,31.9 29.138,31.885 29.367,32.027 
		29.419,31.611 28.902,29.42 28.757,28.535 28.646,28.437 28.685,28.433 28.496,28.61 28.045,28.702 	"/>
	<polygon fill="#232734" points="36.434,36.871 36.875,37.681 38.051,39.046 38.703,39.866 39.224,40.597 39.757,40.892 
		39.392,40.101 38.441,38.939 37.827,38.092 37.274,37.388 36.728,36.873 36.434,36.871 	"/>
	<polygon fill="#232734" points="29.595,33.704 29.902,34.01 30.394,35.106 30.931,35.539 30.991,35.264 30.867,34.843 
		29.665,32.334 29.367,32.027 29.261,32.285 29.248,32.724 29.238,32.669 29.301,33.153 29.291,33.091 29.607,33.767 29.595,33.704 
			"/>
	<polygon fill="#232734" points="41.292,46.609 41.972,47.725 42.192,47.599 42.154,47.304 41.751,46.496 41.495,46.398 
		41.292,46.609 	"/>
	<polygon fill="#232734" points="41.005,42.555 40.776,42.706 40.97,43.519 41.293,43.995 41.51,44.086 41.612,43.839 
		41.577,43.702 41.005,42.555 	"/>
	<polygon fill="#232734" points="35.311,39.433 35.774,40.944 35.983,40.765 35.935,40.48 35.579,39.504 35.311,39.433 	"/>
	<polygon fill="#232734" points="31.327,32.227 31.555,32.064 31.186,31.136 30.929,31.115 31.327,32.227 	"/>
	<polygon fill="#232734" points="43.066,46.881 43.36,47.554 43.71,47.757 43.856,47.477 43.291,46.842 43.066,46.881 	"/>
	<polygon fill="#232734" points="35.157,34.494 35.193,34.859 35.433,34.914 35.399,34.786 35.096,34.504 35.157,34.494 	"/>
	<polygon fill="#232734" points="34.361,36.92 34.379,36.795 34.305,36.754 34.12,36.928 34.139,37.062 34.361,36.92 	"/>
	<polygon fill="#232734" points="39.466,42.378 39.564,42.838 39.692,42.845 39.739,42.646 39.424,42.383 39.466,42.378 	"/>
	<polygon fill="#232734" points="43.827,50.682 43.711,50.223 43.488,50.269 43.506,50.403 43.821,50.683 43.827,50.682 	"/>
	<polygon fill="#232734" points="29.56,26.791 29.501,27.053 29.619,27.047 29.501,26.798 29.56,26.791 	"/>
	<polygon fill="#232734" points="33.214,35.249 33.313,35.262 33.309,35.109 33.187,35.126 33.214,35.249 	"/>
	<polygon fill="#232734" points="39.424,42.383 39.489,42.146 39.394,42.094 39.466,42.378 39.424,42.383 	"/>
	<polygon fill="#232734" points="29.893,35.896 29.964,35.63 29.57,34.246 29.595,33.704 29.607,33.767 29.399,33.585 
		29.291,33.091 29.301,33.153 29.238,32.669 29.248,32.724 28.831,32.134 28.67,31.9 28.728,31.896 28.484,32.261 29.588,35.569 
		29.893,35.896 	"/>
	<path id="peas_1_" fill="#232734" d="M70.104,65.322l0.284,0.021l-0.068-0.082l-0.209,0.116l-0.266-0.05l0.021,0.117L70.104,65.322
		L70.104,65.322z M58.42,62.588l0.059-0.243l-0.11,0.008l0.117,0.227L58.44,62.85l0.118-0.027L58.42,62.588L58.42,62.588z
		 M54.923,59.155l0.039-0.244l-0.104,0.034l0.129,0.204l-0.055,0.255l0.123,0.002L54.923,59.155L54.923,59.155z M37.486,15.304
		l0.017-0.276l-0.073,0.053l0.115,0.214l-0.022,0.267l0.107-0.029L37.486,15.304L37.486,15.304z M96.276,111.245l0.242,0.062
		l-0.016-0.104l-0.22,0.102l-0.25-0.062l0.018,0.11L96.276,111.245L96.276,111.245z M99.314,87.184l0.499,0.232l-0.494-0.176
		l-0.366-0.202L98.83,87.05l0.129,0.222L99.314,87.184L99.314,87.184z M119.596,103.785l0.099,0.449l0.129,0.012l0.03-0.189
		l-0.312-0.265l0.038-0.268l-0.126,0.013L119.596,103.785L119.596,103.785z M87.896,81.598l-0.013-0.345L87.6,80.989l-0.307-0.417
		l0.367,0.408l-0.003,0.348l0.302,0.262l-0.035,0.265l0.113-0.021L87.896,81.598L87.896,81.598z M81.665,76.807l0.325,0.438
		l-0.38-0.432l0.046-0.258l-0.124,0.005L81.665,76.807L81.665,76.807z M123.04,106.793l0.056,0.397l0.253,0.024l-0.032-0.137
		l-0.34-0.279l-0.056-0.436l-0.07-0.403l-0.468-0.382l-0.292-0.44l0.354,0.431l0.073,0.403l0.467,0.386L123.04,106.793
		L123.04,106.793z M67.498,68.739l-0.305-0.432l0.367,0.422l-0.015,0.359l0.31,0.255l-0.066,0.133l0.685,1.473l0.518,0.216
		l0.006-0.297l-0.213-0.389l-0.846-1.05l-0.13-0.078l-0.003-0.353L67.498,68.739L67.498,68.739z M61.327,64.373l0.103,0.441
		l0.198,0.161l-0.046,0.271l0.119-0.021l-0.135-0.241l-0.012-0.349l-0.291-0.255l0.061-0.228l-0.079-0.049L61.327,64.373
		L61.327,64.373z M55.961,58.8l-0.308-0.606l0.26-0.342l-1.108-0.938l0.026,0.448l0.428,0.322l0.148,0.021l0.304,0.479l0.312,0.61
		l0.048,0.432l-0.096,0.27l-0.069,0.891l0.167,0.18l0.13-0.051l0.216-0.359l-0.396-0.924L55.961,58.8L55.961,58.8z M55.862,41.865
		l0.28,0.056l-0.271,0.007l-0.354-0.24h-0.137l0.088,0.215L55.862,41.865L55.862,41.865z M130.312,131.839l-0.155,0.232v0.253
		l0.269-0.259l-0.122-0.226l-0.06-0.426l0.081-0.127l-0.274-1.477l-1.114-2.646l-0.778-1.291l-0.877-1.407l-0.933-1.364
		l-1.075-1.264l-0.797-0.898l-0.911-0.805l-0.332-0.487l-2.022-1.625l-1.157-1.175l-1.028-0.926l-0.225-0.388l-0.09-0.106
		l-1.548-1.227l-1.109-0.751l0.597,1.059l1.05,0.952l0.815,1.073l0.519,0.725l-0.024,0.137l-0.954-0.946l-0.99-0.847l-0.56-0.755
		l-1.037-1.093l-0.754-0.708l-0.222-0.44l-0.591-0.45l-1.392-0.719l-0.824-0.154l-0.014,0.123l0.296,0.337l0.951,0.965l0.76,0.934
		l0.169,0.247l1.048,1.082l0.949,0.962l0.221,0.408l0.919,0.787l0.401,0.445l0.602,0.672l0.375,0.465l-0.226,0.036l-1.246-0.976
		l-0.287-0.556l-0.545-0.419l-1.15-1.188l-1.004-0.926l-0.825-0.73l0.167,0.428l-0.263,0.295l-0.931-1.177l-0.829-1.096l-1.764-1.39
		l0.033-0.262l-1.624-1.273l-0.146-0.011l0.059,0.135l1.726,1.402l-0.051,0.266l0.285,0.35l0.186,0.271l0.031,0.422l-0.564-0.529
		l-1.291-1.363l-2.245-1.588l1.085,1.051l0.344,0.529l1.098,1.238l0.943,1.176l0.825,1.07l1.065,1.452l1.169,1.374l1.072,1.45
		l1.274,1.484l1.065,1.451l1.646,1.761l0.503,0.66l1.217,1.019l0.628,0.65l0.533,0.529l1.5,1.256l0.272,0.459l4.631,3.585
		l0.647,0.377l1.241,0.545l0.713,0.117l0.193-0.288l-0.284-1.155l-1.475-2.622l-1.383-1.971l-0.137-0.267l-0.972-1.145l-0.95-1.161
		l-0.521-0.736l-0.688-0.596l-0.407-0.344l-0.493-0.657l-1.234-1.581l1.266,0.867l0.226,0.431l1.1,1.221l0.106,0.106l1.121,1.207
		l0.95,1.167l0.951,1.163l0.535,0.722l1.46,2.101l1.256,2.566l0.305,0.316L130.312,131.839L130.312,131.839z M49.422,32.754
		l0.122,0.047l0.125,0.006l-0.15-0.086l-0.088,0.098l-0.321-0.241l-0.348,0.087l-0.369-0.02l-0.021,0.339l0.244-0.097l0.145-0.237
		L49.422,32.754L49.422,32.754z M133.636,101.907l-0.271-0.005l0.069,0.074l0.196-0.118l0.498,0.225L133.636,101.907
		L133.636,101.907z M38.514,16.041l-0.01,0.355l0.3,0.251l-0.081,0.124l0.156,0.949l0.839,0.756l-0.241,0.318l0.612,0.557
		l-0.09-0.564l-0.344-0.303l0.037-0.135l-0.597-1.432l-0.325-0.263l-0.004-0.355l-0.312-0.25l0.037-0.255l-0.111,0.012
		L38.514,16.041L38.514,16.041z M131.395,136.896l-0.023-0.362l-0.513-0.43l0.08-0.124l-0.378-0.775l-0.539-0.504l0.04-0.254
		l-0.113,0.023l0.119,0.225l-0.078,0.125l0.911,1.277l0.043,0.362l0.514,0.429l-0.054,0.279l0.122-0.021L131.395,136.896
		L131.395,136.896z M121.54,104.167l-0.031-0.361l-0.507-0.428l-0.107-0.443l-0.13-0.02l-0.012,0.181l0.309,0.272l0.077,0.402
		l0.466,0.387l0.298,0.438L121.54,104.167L121.54,104.167z M65.802,67.018v0.368l0.554,0.422l-0.053,0.263l0.129,0.003l-0.14-0.259
		l-0.072-0.406l-0.458-0.384l0.011-0.356l-0.31-0.255l0.074-0.127l-0.133-0.57l-0.627-1.017l-0.688-0.315l0.501,0.872l0.4,0.769
		l0.504,0.383l-0.007,0.356L65.802,67.018L65.802,67.018z M49.708,37.954l0.014,0.37l0.554,0.421l-0.073,0.13l0.096,0.846
		l0.679,1.118l1.802,1.277l0.15,0.008l0.146-0.253l-0.274-0.858l-0.182-0.409L51.8,39.167l-0.81-1.264l-1.085-1.615l-1.007-1.495
		l-0.376-0.419l-0.493-0.012l-0.95-1.418l-0.775-0.604l0.008-0.364l-0.553-0.429l-0.3-0.443l0.361,0.435l0.075,0.405l0.465,0.388
		l-0.007,0.276l0.557,0.885l0.949,1.52l0.521,0.731l0.513,0.468l0.205,0.784l0.562-0.225l0.264,0.371l0.326,0.497l0.237,0.378
		l1.006,1.662l0.56,1.075l-0.156,0.206l-0.132-0.025l-0.578-0.87l-0.633-1.019l-0.336-0.292l-0.021-0.367l-0.514-0.431l0.073-0.229
		l-0.168,0.018L49.708,37.954L49.708,37.954z M42.922,27.806l-0.027,0.263l0.567,0.358l-0.585-0.613l-0.112-0.457l-0.21,0.044
		l0.029,0.138L42.922,27.806L42.922,27.806z M38.134,18.046l0.047,0.396l0.468,0.188l-0.579-0.579l0.071-0.236l-0.111-0.009
		L38.134,18.046L38.134,18.046z M55,53.095l-0.43,0.067l-0.285-0.081l-0.345-0.04l-0.301-0.532l-0.186-0.158L51.979,51.6
		l-0.285-0.035l-0.206,0.198l1.141,0.955l1.486,0.717l0.189,0.006l0.259-0.34l0.432-0.049l0.519,0.392l-0.502,0.273l0.687,0.591
		l1.191-0.385l-0.174-0.218l-0.733-0.04l-0.537-0.213l0.229-0.366l-0.599-0.112L55,53.095L55,53.095z M71.672,71.865l-0.093,0.118
		l0.114,0.706l0.779,0.41l-0.854-1.225l-0.324-0.439L71.672,71.865L71.672,71.865z M81.356,77.716l-0.011,0.276l0.511,0.544
		l0.387,0.63l0.244,0.168l0.152,0.006l-0.225-0.74l-1.117-0.875l-0.304-0.46L81.356,77.716L81.356,77.716z M25.36,50.36
		l-0.069,0.266l0.365,0.717l0.796,0.606l-0.007,0.272l0.801,0.772l0.255,0.467l1.217,1.021l0.203,0.467l2.304,1.751l0.56,0.113
		l0.639,0.413l0.148,0.016l0.001-0.096L32.5,57.019l-4.138-3.213l-0.22-0.515l-1.749-1.332l0.059-0.267l-0.42-0.773l-0.713-0.552
		l-0.011-0.369l-0.543-0.426l0.072-0.127l-0.767-1.204l-0.429-0.604L23.4,47.609l-0.028,0.312l0.454,0.842l0.99,0.8l0.028,0.365
		L25.36,50.36L25.36,50.36z M120.749,104.277l-0.072,0.129l0.006,0.133l0.428,1.091l0.8,0.455l-0.667-1.314l-0.545-0.484
		l-0.316-0.449L120.749,104.277L120.749,104.277z M59.157,61.195l0.052,0.726l0.584,1.238l0.57,0.469l-0.041,0.256l0.112-0.013
		L60.3,63.636l0.051-0.138l-0.912-2.021l-0.342-0.276l0.068-0.254L59.157,61.195L59.157,61.195z M40.65,31.804l-0.016,0.274
		l2.156,1.632l-0.015-0.185l-1.433-1.168l-0.227-0.407l-0.525-0.137l0.022-0.26l-1.273-0.908l0.064,0.132L40.65,31.804L40.65,31.804
		z M57.043,59.962l-0.085,0.266l0.193,1.646l0.657,0.583l-0.038,0.254l0.121-0.003l-0.127-0.246l0.086-0.254l-0.091-0.424
		l-0.529-1.592l-0.244-0.224l0.03-0.271L56.9,59.722L57.043,59.962L57.043,59.962z M62.539,65.29l-0.101,0.258l0.118,0.435
		l0.449,0.949l0.231,0.846l0.529,0.188l-0.386-1.132l-0.586-1.216L62.484,65.3l-0.291-0.428L62.539,65.29L62.539,65.29z
		 M47.759,49.066l-0.049,0.267l1.216,1.704l1.133,0.394l-0.397-0.486l-0.935-0.98l-1.023-0.888l0.016-0.269l-0.565-0.362
		L47.759,49.066L47.759,49.066z M106.516,116.377l0.435-0.067l0.436,0.332l0.609,0.169l0.11,0.679l0.559,0.228l0.362,0.633
		l0.439,0.369l0.189,0.447l0.758,0.577l0.3,0.639l0.419,0.699l0.675,0.514l0.177,0.741l0.752,1.048l0.391,0.327l1.628,1.758
		l0.685,0.788l0.544,0.711l0.489,0.298l-1.241-2.662l-0.679-0.59l-0.733-0.732l-1.101-1.417l-0.838-1.049l-0.811-1.07l0.021-0.274
		l-0.058,0.009l1.18,0.898l0.847,0.83l-0.85-1.548l-0.649-1.018l-0.526-0.73l-0.438-0.613l-1.048-1.473l-1.092-1.44l-0.318-0.508
		l-1.065-1.275l-1.45-1.529l-1.338-1.625l-0.432-0.421l-0.818-0.886l-0.761-0.733l-0.95-0.965l-0.091-0.119l-2.656-2.025
		l-1.233-0.562l-0.996-0.314l-0.082,0.046l0.059,0.14l1.393,1.176l0.763,0.729l0.609,0.394l0.494,0.567l0.57,0.502l0.366,0.318
		l0.405,0.736l-0.229,0.095l-1.052-0.866l-1.291-1.257l-1.765-1.441l-0.414-0.475l-0.409-0.136l-0.318-0.479l-0.624-0.396
		l-0.958-0.695l-1.102-0.479l-0.952-0.452l-1.094-0.509l-1.096-0.501l-0.953-0.455l-0.528-0.286l-1.22-0.583l-0.525-0.294
		l-0.717-0.252l-1.008-0.687l-0.568-0.157l-1.407-0.896l-1.608-0.621l-1.575-1.096l-0.424-0.127l-0.18-0.236l-1.715-0.775
		l-2.755-1.691l-2.262-1.6l-0.571-0.165l-2.486-1.789l-0.606-0.185l-3.483-2.552l-0.642-0.387l-0.6-0.409l-0.313-0.11l-1.548-1.182
		l-0.872-0.834l-0.555-0.509l-3.34-2.638l-0.734-0.757l-0.531-0.53l-1.488-1.23l-0.279-0.479l-0.651-0.563l-0.828-0.876
		l-0.199-0.226l-1.058-1.075l-0.822-1.074l-1.789-1.833l-3.344-2.636l-1.132-0.932l-0.02-0.463l0.429,0.205l2.329,1.701l0.148,0.005
		l-0.016-0.215l-0.936-0.982l-0.854-1.055l-0.416-0.432l-7.251-5.526l-1.69-0.982l-0.262-0.151l-1.187-0.658l-1.037-0.617
		l-0.559-0.228l-0.541-0.265l-0.943-0.469l-0.926-0.508l-0.979-0.379l-0.938-0.484L27.8,55.479l-1.953-0.892l-0.702-0.259
		l-0.668-0.354l-0.712-0.248l-0.446-0.01l-2.142-1.087l-1.812-0.068L17,52.114l-2.423-0.809l-0.878-0.325l-1.395-0.97l-1.421-0.318
		l-1.17,0.127l-0.111,0.562l0.21,0.396l0.748,1.161l0.431,0.183l0.287,0.488l1.069,0.407l0.943,0.106l0.108,0.22l-0.259,0.16
		l0.341,0.464l0.039,0.41l-0.435,0.064l-0.938-0.769l-0.953-0.431l-0.792-0.622l-0.69-0.781l-0.309-0.027l0.363,0.801l0.574,0.524
		l0.199,0.465l1.083,0.824l0.74-0.027l0.591,0.062l0.124-0.082l0.437-0.066l0.662,0.287l0.526,0.241l-0.242,0.142l-0.732-0.029
		l-0.88,0.014l-0.116,0.08l0.065,0.232l0.586,0.42l0.88-0.229l0.715-0.162l-0.348-0.461l0.253-0.107l1.241,0.495l0.259,0.343
		l-0.185,0.242l-0.9-0.014l-0.587,0.083l-0.118,0.261l0.701,0.264l1.648-0.171l0.325,0.218l-0.003-0.031l-0.098,0.11L16.451,56.7
		l0.122,0.312l0.701,0.232l1.338,0.629l1.229,0.508l1.501,0.622l1.421,0.812l0.408-0.042l-0.067,0.004l1.567,1.124l0.483,0.107
		l0.39,0.216l0.309,0.02l1.751-0.209l0.918,0.158l0.988,0.752v0.006l-0.099,0.11l-1.726-0.035l-0.174-0.401l-1.042,0.041
		l-0.006,0.228l1.156,0.686l0.837,0.409l2.64-0.168l0.159,0.214l-0.097,0.079l-1.478,0.236l-0.067,0.093l0.041,0.139l0.254,0.134
		l1.655-0.198l0.364,0.278l-0.001-0.008l-0.095,0.111l-1.023,0.148l-0.206,0.141l0.321,0.255l0.592-0.034l1.776,0.083l0.163,0.222
		l-0.689,0.172l-0.233,0.151l-0.254-0.058l0.025,0.111l0.222-0.105l0.335,0.255l0.88-0.038l0.403,0.243l-0.531,0.263l-0.108,0.262
		l0.862-0.084l-0.295-0.435l0.687-0.143l0.2,0.421l0.657,0.173l0.609,0.794l-0.004-0.029l-0.466,0.291l0.389,0.393l1.593,0.181
		l0.189,0.203l-0.427,0.329l-0.256-0.078l0.003,0.114L37.495,68l0.367,0.241l0.713,0.006l0.458,0.438l1.482,0.215l0.214,0.175
		l-0.146,0.189l-2.569-0.029l-0.45-0.058l0.093-0.586l-1.147,0.062l-0.824-0.76l-0.576-0.169l-0.267-0.411l-0.62-0.283l-1.693-1.158
		l-0.482-0.125l-1.334-0.922l-0.5-0.091l-1.776-1.177l-2.024-0.964l-1.991-1.439l-0.604-0.169l-0.995-0.638l-0.967-0.413
		l-0.605-0.467l-0.846-0.297l-0.984-0.359l-0.547-0.225l-0.053,0.065l0.052,0.139l1.192,0.913l0.299,0.107l2.052,0.916l0.892,0.336
		l1.558,1.097l0.479,0.131l2.03,1.416l1.632,0.928l-0.001-0.03l-0.233,0.143l-1.399-0.548l-0.147-0.022l0.004,0.202l1.184,0.951
		l2.773,2.127l1.216,1.109l1.357,0.88l0.236,0.36l0.715,0.37l2.803,2.084l1.366,0.965l0.643,0.2l1.896,1.416l0.86,0.627l0.996,0.693
		l0.886,0.477l1.48,1.058l2.094,1.512l0.926,0.501l0.645,0.387l3.867,2.944l2.07,1.542l0.998,0.631l1.776,1.127l1.438,0.83
		l0.878,0.797l0.446,0.138l1.766,1.234l0.537,0.171l1.209,0.932l0.827,0.874l1.912,1.5l4.116,3.121l5.427,4.157l0.889,0.678
		l0.289,0.504l1.552,1.583l1.824,1.389l1.208,0.221l0.233,0.598l2.515,1.858l0.75-0.104l1.157,1.164l0.445,0.104l0.232,0.44
		l1.299,0.982l1.678,1.014l0.633,0.411l1.961,1.389l0.48,0.116l1.275,0.772l-0.006-0.19l-2.938-2.245l-0.636-0.217l-0.261-0.437
		l-1.18-0.606l-0.687-0.294l0.12-0.321l1.249,0.414l3.334,2.456l0.915,0.521l0.515,0.308l1.655,0.937l-0.307,0.336l-0.646-0.191
		l0.676,0.573l1.09,0.514l1.096,0.497l0.906,0.549l0.427,0.125l1.268,0.854l1.074,0.537l1.018,0.662l0.967,0.42l0.94,0.469
		l0.66,0.357l1.226,0.899l1.93,1.48l1.06,0.863l0.727,0.956l0.967,1.346l0.415,0.432l0.434,0.418l1.262,1.292l0.81,1.267
		l0.745,0.467l-0.535-0.886l-0.6-0.854l-0.573-0.884l-0.602-0.865l-0.597-0.866l-0.786-0.913l-1.405-1.159l-0.223-0.201
		l-0.826-0.858l-0.551-0.147l-2.109-1.562l-1.981-1.508l-0.698-0.225l-2.457-1.739l-0.948-0.629l0.465-0.085l1.278,0.786
		l1.229-0.373l-0.412-0.445l-0.885,0.02l-0.201-0.371l-0.015-0.396l-0.89-0.307l-1.62,0.107l0.017-0.173l0.616-0.412l-0.088-0.263
		l-0.702,0.032l-0.572,0.167l0.132,0.305l-0.271,0.313l-0.518-0.5l-0.589-0.479l-0.551-0.421l-0.5-0.108l-0.138-0.278l-0.583-0.425
		l-0.714-0.273l-0.168-0.411l-1.449-0.468l-0.223-0.55l-1.553-0.867l-1.331-0.88l-0.666-0.205l-1.406-1.071l-1.187-0.251
		l0.046-0.478l-0.656-0.588l-1.222-0.155l-0.235-0.581l-1.525-1.177l-0.725-0.159l-0.245-0.533l-1.286-0.979l-0.541-0.166
		l-1.771-1.293l0.046-0.416l0.396-0.22l0.051-0.43l-0.385-0.149l-1.027-0.604l-0.24-0.18l-0.397,0.09l-0.437,0.061l-0.519-0.184
		l0.269-0.54l-0.07-0.27l-0.401-0.135l-0.278,0.089l-0.225,0.375l-0.412-0.225l0.031-0.5l0.354-0.199l-0.199-0.213L75.22,97.35
		l-0.591,0.021l-0.184-0.418l-1.056-0.055l-0.374-0.6l-5.833-4.576l-0.277-0.472l-1.549-1.18l-0.4-0.118l-1.6-1.131l-2.743-2.094
		l-0.041-0.145l0.849,0.23l0.755,0.017l0.59,0.118l0.159,0.233l-0.124,0.08l0.03,0.423l0.887-0.01l0.178,0.216l-0.283,0.282
		l0.061,0.138l3.977,3.013l1.818,0.068l0.001,0.265l-0.819,0.335l0.937,0.815l1.937,0.065l0.192,0.305l-1.179,0.291l0.26,0.295
		l1.232-0.041l-0.498,0.478l0.272,0.365l0.583-0.062l0.037-0.383l0.514-0.088l-0.386,1.046l0.352,0.614l0.895,0.681l1.1,0.19
		l0.532,0.228l0.177-0.406l1.856,1.304l1.828,1.39l3.012-0.141l0.015-0.146l-2.076-1.473l-0.326-0.098l-1.622-1.136l-0.047-0.27
		l2.578,1.317l0.486,0.129l1.331,0.93l1.293,0.693l0.351,0.82l-1.039-0.584L82.8,99.087l-0.537,0.252l-1.048,0.171l-0.439,0.092
		l0.177,0.326l0.602-0.024l1.056-0.058l0.039,0.123l-0.148,0.244l-0.73,0.179l0.226,0.316l1.208-0.08l0.205,0.188l-0.621,0.312
		l0.016,0.241l0.949,0.758l0.15,0.252l-0.709,0.017l-1.319-0.92l-0.637,0.064l0.121,0.247l1.332,1.009l0.662,0.355l0.985,0.504
		l1.003,0.088l0.85-0.017l-0.1,0.31l-0.729,0.189l0.195,0.303l1.159-0.198l0.148-0.059l0.556,0.351l-0.508,0.514l0.167,0.222
		l0.444,0.027l1.177-0.092l-0.001,0.394l-0.716,0.145l-0.008,0.26l0.585,0.477l0.425,0.098l0.36-0.309l-0.038,0.007l0.381,0.239
		l1.212-0.066l0.294,0.295l-2.024,0.424l0.657,0.571l2.234,0.251l1.655-0.168l0.221,0.282l-0.447,0.464l1.329-0.224l-0.359,0.923
		l1.603-0.02l-0.459,0.518l0.646,0.625l0.738-0.05l0.273,0.074l-0.002-0.018l-0.192,0.398l0.138,0.241l1.303,0.146l0.694,0.023
		l-0.486,0.46l0.218,0.298l1.028,0.11l0.296-0.008l0.344,0.216l-0.011,0.284l-0.257-0.068l0.033,0.176l0.222-0.124l0.367,0.205
		l1.446,0.173l-0.17,0.532l-0.352-0.22h-0.132l0.103,0.218l0.376-0.062l0.273,0.066l0.635,0.272l-0.001-0.003l-0.205,0.39
		l0.771,0.434l0.88,0.012l0.741,0.136l0.237,0.313l-0.245,0.394l-0.347-0.257l-0.141,0.019l-0.006,0.225l0.49-0.019l0.384,0.203
		l1.143,0.238l0.18,0.205l-0.06,0.264l-0.437,0.062l-0.341-0.26l-2.564,0.15l0.114,0.26l1.043,0.533l0.331-0.319l1.01-0.258
		L106.516,116.377L106.516,116.377z M26.762,51.039l-0.054,0.266l0.419,0.429l0.438,0.41l0.434,0.612l0.822,0.688l0.521,0.717
		l1.396,0.932l-0.042-0.201l-1.144-0.96l-0.314-0.547l-1.014-0.876l-0.232-0.483l-1.281-0.976l0.021-0.258l-0.54-0.348
		L26.762,51.039L26.762,51.039z M52.971,38.135l0.265,0.036l-0.04-0.107l-0.216,0.133l-0.522-0.237l-0.438,0.04l-0.165,0.256
		l0.727,1.135l0.862-0.1l0.851-0.02l-0.089-0.441l-0.884-0.15l-0.697-0.047l-0.031-0.262L52.971,38.135L52.971,38.135z
		 M109.243,113.861l-0.022,0.273l1.117,1.392l0.648,0.996l0.354,0.479l0.379,0.459l0.349,0.482l0.362,0.26l-0.066,0.133l0.092,0.265
		l1.718,2.808l0.307,0.33l0.491,0.677l1.207,0.972l0.233,0.503l0.785,0.665l0.296,0.53l4.366,3.31l-0.118-0.348l-1.269-1.076
		l-0.625-0.645l-0.759-0.724l-1.036-1.083l-0.427-0.421l-0.489-0.566l-0.268-0.359l-0.647-0.627l-0.535-0.469l-0.589-0.676
		l-1.253-1.49l-0.584-0.684l-0.514-0.736l-0.353-0.281l-0.011-0.688l-0.086-0.12l-0.749-0.719l-0.603-0.841l-0.327-0.489
		l-0.724-0.933l-0.703-0.55l0.056-0.262l-0.591-0.852l-0.526-0.716l-0.841-0.882l-0.207-0.402l-1.009-0.828l-0.24,0.052l0.047,0.143
		l0.778,0.706l0.393,0.623l0.316,0.315l0.932,1.156l0.817,0.857L109.243,113.861L109.243,113.861z M64.656,66.523l-0.079,0.129
		l0.002,0.135l0.582,1.387l0.573,1.407l0.938,0.209l-1.541-2.854l-0.529-0.403l-0.288-0.424L64.656,66.523L64.656,66.523z
		 M83.058,77.487l-0.062,0.134l0.451,0.92l0.842,1.215l0.763,1.097l0.604,0.422l0.123-0.192l-0.136-0.416l-1.395-1.933l-1.244-1.24
		l0.041-0.247l-0.119,0.002L83.058,77.487L83.058,77.487z M45.104,29.464l-0.042,0.259l0.394,0.441l0.427,0.409l0.986,1.336
		l0.521-0.167l0.391,0.408l0.434-0.32l0.265,0.08l-0.002-0.119l-0.257,0.097l-0.338-0.442l0.313-0.247l-0.617-0.631l-0.28-0.789
		l-0.742-0.024l-0.07-1.005l-0.826,0.09l0.058,0.587l-0.664,0.047l0.03-0.267l-0.659-0.777l-0.702-0.73l0.055-0.138l-0.451-1.097
		l0.239-0.309l0.428,0.105l0.465-0.21l-0.333-0.254l-0.149-0.022l-0.321-0.393l0.026-0.3l-0.459-0.314l-0.237-0.345l-0.77,0.071
		l-0.251-0.16l-1.024-1.476l-0.237-0.4l-0.384-0.176l-0.151-0.725l-0.324-0.354l-0.248-0.735l-0.369-0.403l-0.247-0.532
		l-0.291-0.094l0.026,0.415l0.556,1.223l0.396,0.811l0.667,1.327l0.76,1.285l0.945,1.161l0.611,0.847l0.56,0.694l0.564,0.488
		l-0.075,0.263l0.409,0.723L45.104,29.464L45.104,29.464z M31.923,52.726l0.013-0.279l-0.677-0.984l-1.418-1.337l-0.734-0.447
		l-1.395-0.896l-0.574-0.17l-1.316-0.859l-0.011,0.573l1.307,0.875l0.439,0.464l0.882,0.472l0.746,0.513l0.848,0.635l0.712,0.563
		l1.236,0.87l0.279,0.436L31.923,52.726L31.923,52.726z M29.881,35.833l0.423,0.371l0.801,1.49l0.654,1.005l0.412,0.429l0.419,0.616
		l0.497,0.305l-0.062-0.236l-0.549-0.889l-0.409-0.793L31.57,37.21l-0.496-1.077l-0.219-0.523l0.062-0.138l0.602,0.667l0.137,0.27
		l0.706,1.322l0.858,1.413l0.844,1.239l1.369,2.153l0.927,1.365l0.828,1.255l0.977,1.142l1.427,1.105l0.189,0.017l-1.038-2.168
		l-0.036-0.283l0.249-0.173l0.568,1.028l0.454,0.946l0.222,0.39l0.827,1.256l0.607,1.25l1.159,1.309l1.172,0.954l0.776,0.915
		l0.305,0.111l-0.287-0.672l-0.885-1.205l-0.053-0.396l0.006-0.001l1.62,1.758l0.59,0.867l0.697,0.863l0.277,0.806l0.202,0.224
		l1.052,1.071l0.936,0.771l1.431,0.979l-0.417-0.513L49.43,56.6l-0.758-0.928l-0.875-1.217l-0.718-1.148l-0.868-1.228l-0.678-1.501
		l0.189-0.195l0.883,1.353l0.998,1.5l1.185,1.741l0.673,0.997l0.732,0.756l1.473,1.501l1.585,1.604l2.833,2.48l0.403,0.191
		l0.02-0.12l-0.814-1.071l-0.771-0.927l-0.207-0.216l-1.008-0.919l-0.786-0.911l-0.342-0.563l-0.719-0.682l-0.924-1.381
		l-1.592-2.367l-0.199-0.407L48.2,51.406l-0.931-1.369l-0.901-1.201l-0.816-1.079l-0.265-0.359l-0.994-1.686l-0.61-0.852
		l-0.527-0.728l-0.511-0.556l-0.388-0.642l-0.738-0.939l-0.616-0.849L40.6,40.634l-0.714-0.967l-0.396-0.638l-0.36-0.661
		l-0.378-0.467l-0.426-0.62l-0.305-0.516l-1.027-1.476l-0.923-1.175l-0.65-0.824l-0.697-0.788l-1.24-1.062l-0.115,0.008l0.6,1.025
		l0.635,0.836l0.546,1.055l-0.052,0.14l0.062-0.01l-0.697-0.569l-0.669-0.988l-0.89-1.378l-0.891-1.381l-1.401-2.304l-0.681-1.125
		l-0.428,0.049l0.059-0.007l-0.286-0.217l-0.17-1.523l-0.242,0.137l-0.269,1.242l-0.704,1.046l-0.285-0.008l-0.178,0.215
		l-0.166,2.254l0.024,0.453l0.237,1.633l0.425,0.169l0.613,1.605l0.298,1.448l-0.14,0.716l0.475,1.252l0.271,0.094l0.133-0.385
		l0.467,0.512l0.562,0.497L30.55,38.06l0.074,0.545l0.955,0.751l0.063-0.188l-0.375-0.466l-0.693-0.763l0.055-0.261l-0.779-1.571
		L29.881,35.833L29.881,35.833z M105.258,99.03l-0.736-0.402L105,99.05l0.255-0.075l0.357,0.279l0.265,0.138l1.26,0.488l2.485,0.603
		l3.41,0.636l0.747,0.086l2.102,0.216l1.959,0.094l3.913,0.175l2.411,0.063l1.051,0.061l2.713-0.139l0.229-0.16l0.275,0.006
		l-0.061-0.071l-0.21,0.111l-0.235-0.185l-2.334-0.481l-3.154-0.275l-1.047-0.087l-0.855-0.248l-1.156,0.064l-0.885,0.157
		l-1.75,0.072l-2.15-0.347l-2.09-0.293l-2.56-0.207l-2.972-0.539l-1.48-0.304L105.258,99.03L105.258,99.03z M74.652,66.879
		l0.245,0.052l-0.019-0.105l-0.221,0.104l-0.856-0.604l-0.609,0.385l-0.688,0.293l-0.848-0.138l-1.252-0.891l-0.676-0.192
		l-3.23-2.356l-0.495-0.121l-4.681-3.46l-0.48-0.193l-0.983-0.93l-0.549-0.143L52.86,53.84l0.65,0.758l0.667,0.556l0.226,0.449
		l11.148,8.581l0.499,0.121l0.679,0.771l1.945,1.456l1.063,0.562l0.225,0.184l0.538,0.476l0.642,0.32l1.979,1.415l0.564,0.188
		l4.315,3.098l0.289,0.091l0.615,0.629l0.509,0.116l3.771,2.798l0.403,0.101l0.176,0.232l1.035,0.603l1.573,1.193l1.071,1.055
		l0.559,0.505l2.801,2.197l0.397,0.563l3.947,3.085l0.435,0.142l-0.387-0.794l-1.302-1.124l-0.266-0.479l-1.623-1.304l-1.051-1.067
		l-0.568-0.5l-5.163-3.997l-1.265-0.965l-0.422-0.63l-4.779-3.64l-1.822-1.369l-0.506-0.33l-0.38-0.198L75.5,68.982l0.05-0.28
		l0.626,0.43l0.867-0.196l1.218,0.019l1.237,0.538l0.97,0.704l1.005,0.714l0.332,0.592l1.204,0.976l0.727,0.241l0.074,0.15
		l0.631,0.573l0.444,0.112l0.234,0.552l0.534,0.252l-0.052-0.541l-0.536-0.53l-0.034-0.244l0.28,0.054l1.064,0.856l0.202,0.25
		l-0.358,0.225l0.016,0.411l0.839,0.735l0.394,0.099l0.714,0.671l0.068,0.158l1.571,1.144l0.148,0.007l0.014-0.212l-0.56-0.505
		l-0.088-0.582l0.126,0.008l1.072,0.747l0.254,0.444l0.312,0.318l0.702,0.471l0.689,0.589l0.719,0.56l1.042,0.875l0.616,0.913
		l-0.074,0.445l0.25,0.477l-0.11,0.419l1.479,0.136l0.758,0.577l0.727,1.036l-0.393,0.115l-1.195-0.171l0.299,0.711l2.09,0.323
		l1.193,0.729l0.606,1.049l1.211,1.518l0.261,0.151l0.276,0.009l0.118-0.245l-0.868-1.221l-0.958-1.155l-0.505-0.734l-1.335-1.425
		l-0.935-1.358l-2.101-1.742l-0.667-0.808l-2.489-1.99l-0.133-0.246l0.052-0.139l-0.06,0.008l0.616,0.14l0.568,0.433l0.231,0.412
		l0.221,0.198l2.021,1.605l0.956,0.96l0.318,0.317l1.246,1.306l0.218,0.208l1.383,1.584l0.756,0.926l0.789,0.904l0.279,0.351
		l0.535,0.727l0.54,0.721l0.554,0.707l1.184,0.266l1.137,0.395l1.016,0.24l0.373-0.548l0.829,0.57l0.247,0.419l1.013,0.319
		l-0.06-0.563l-1.045-1.282L107.452,88l-0.666-1l-0.459-0.59l0.057-0.207l0.179,0.007l0.696,0.63l0.662,1.123l0.733,0.95
		l0.864,1.035l0.748,0.945l0.667,0.573l0.925,0.159l-0.433-1.114l0.157-0.207l0.136,0.022l0.707,0.977l0.394,0.448l0.391,0.164
		l-0.101-0.595l-0.837-1.066l-0.502-0.749l-0.683-0.603l-0.464-0.59l-1.034-1.289l-0.988-1.13l-1.09-1.245l-0.405-0.442
		l-0.606-0.668l-1.221-1.329l-1.028-1.299l-0.249-0.371l-1.771-1.854l-0.755-0.938l-0.7-0.783l-0.546-0.519l-0.937-0.977
		l-0.308-0.329l-1.259-1.295l-0.808-0.692l-0.602-0.674l-0.412-0.435l-1.182-0.955l-0.347-0.294l-2.473-2.212l-4.312-3.364
		l-0.62-0.648l-0.845-0.606l-0.666-0.351l-2.682-1.932l-0.484-0.126l-1.368-0.946l-0.513-0.318l-1.075-0.539l-1.023-0.716
		l-1.659-0.632l-0.74-0.53l-3.967-2.916l-0.604-0.18l-1.409-1.014l-1.922-1.187l-0.633-0.413l-2.688-1.987l-0.952-0.443l-1.73-1.237
		l-0.639-0.409l-1.315-0.714l-1.186-0.661l-0.639-0.396l-1.599-1.159l-0.502-0.339l-2.807-1.724l-0.483-0.12l-1.146-0.805
		l-0.229-0.113l-0.439-0.049l-0.149-0.061l-0.663-0.503l-1.038-0.473l-0.23-0.471l-3.795-2.879l-0.969-0.452l-1.582-0.871
		l-0.257-0.159l-2.361-1.347l-1.389-0.569L38.333,34.5l0.653,0.308l2.071,1.49l0.549,0.13l2.5,1.854l0.097,0.269l-0.29-0.042
		l-0.625-0.431l-1.044-0.598l-0.644-0.386l-2.042-1.456L39.05,35.5l-1.767-1.164l-0.037,0.125l0.725,0.945l0.692,1.017l2.519,1.598
		l1.838,1.276l0.47,0.13l0.909,0.769l-0.117,0.232l-0.279-0.013l-0.76-0.503l-1.814-1.061l-0.887-0.589l-0.404-0.184l0.075,0.597
		l0.488,0.756l0.786,1.1l0.421,0.621l1.692,1.665l1.912,1.547l2.061,1.543l2.074,1.538l1.221,0.595l1.158,0.708l0.926,0.503
		l0.985,0.712l0.506,0.328l1.961,1.098l0.45,0.104l1.374,1.229l-1.11-0.399l-1.265-0.84l-0.139-0.066l-0.499-0.119l-1.742-1.251
		l-0.547-0.144l-1.606-1.117l-0.886-0.191l1.671,1.484l1.674,1.271l1.314,0.384l0.251,0.454l1.759,1.046l0.51,0.323l1.325,0.713
		l0.519,0.307l1.333,0.943l0.561,0.176l2.028,1.435l0.863,0.371l0.94,0.715l0.487,0.565l0.459,0.313l0.366,0.204l0.205,0.37
		l0.879,0.854l-0.257-0.01l-0.856-0.628l-3.886-2.916l-0.462-0.307l-0.496-0.124l-1.882-1.273l-0.271,0.074l-0.056,0.121
		l0.212,0.137l0.151,0.01l0.18,0.094l0.242,0.488l1.042,0.58l0.263,0.153l2.938,2.16l1.062,0.557l1.249,0.858l2.673,2.007l2.05,1.57
		l1.822,1.389l0.961,0.41l1.243,0.872l1.582,1.201l-0.096,0.464l-1.207,0.171l-0.221,0.177l-0.228-0.196l-0.007-0.483l0.796-0.273
		l-0.476-0.437l-1.439,0.201l-0.318,0.302l0.063-0.01l-0.267-0.095l-0.735,0.026l-0.174-0.212l0.776-0.381l1.007-0.21L74.652,66.879
		L74.652,66.879z M117.022,110.624l0.43-0.066l0.895,0.081l0.06,0.513l0.3-0.154l0.903,0.15l1.316,0.876l0.561,0.171l1.268,0.984
		l-0.059,0.388l-0.568,0.024l0.466,0.589l0.479,0.608l0.526,0.189l2.399,1.635l0.15,0.014l0.192-0.217l-0.85-0.837l-0.757-0.726
		l0.058-0.072l1.007,0.319l0.812,0.619l0.25,0.418l1.536,1.046l-0.121-0.887l-0.752-1.815l-0.357-0.664l-2.036-2.987l-0.628-0.652
		l-0.506-0.691l-1.285-1.334l-0.689-0.595l-0.634-0.812l-2.792-2.149l-2.05-1.27l-0.504-0.333l-1.118-0.779l-1.945-0.213
		l0.013,0.158l1.328,1.197l0.018,0.57l-1.102-0.766l-0.946-0.673l-0.767-0.242l-0.207-0.448l-0.865-0.096l-1.026-0.207l-0.888-0.156
		l-2.557-0.247l-0.146-0.038l-0.999,0.226l-0.588-0.141l-0.917-0.694l-0.854-0.281l-3.11-1.122l-1.643-0.759l-1.549-0.589
		l-1.953-0.798l-0.541-0.259l-0.95-0.462l-1.072-0.58l-1.274-0.396l-0.777-0.459l-0.586-0.479l-0.877-0.563l-0.798-0.218
		l-0.546,0.118l-1.236-0.478l-0.027-0.285l-0.188-0.515l-0.5-0.129l-2.191-1.205l-0.543,0.136l-0.194,0.011l-0.743-0.565
		L80.81,89.95l-0.616-0.38l-1.312-0.664l-0.78-0.07l-1.177-0.357l-0.211-0.568l-0.729-0.449l-0.829-0.359l-0.777-0.454l-0.175,0.358
		l-0.847-0.126l-0.158-0.519l-0.015-0.325l-0.607-0.397l-1.44-0.718l-0.796-0.008l-0.796-0.919l-1.372-0.954l-0.524-0.295
		l-1.67-1.02l-1.032-0.618l-0.658-0.365l-1.236-0.883l-1.053-0.584l-1.173-0.688l-0.274-0.047l0.479,0.537l0.39,0.607l0.967,0.441
		l0.142,0.429l0.866,0.475l-0.065,0.484l1.164,0.217l0.142,0.231l-0.327,0.244l0.63,0.604l0.898,0.038l0.189,0.408l0.055,0.279
		l1.19-0.05l0.419,0.407l-0.329,0.244l0.175,0.229l1.012,0.197l0.089,0.254l0.169,0.49l1.494,0.079l-0.033,0.302l0.306,0.478
		l0.151,0.01l0.463,0.496l0.255,0.109l0.745,0.652l2.389,1.529l0.854,0.356l1.634,1.335l-0.228-0.003l-1.002-0.688l-0.821-0.315
		l-1.636-1.119l-1.296-0.032l1.175,1.194l-0.888-0.105l-3.327-2.408l-0.245-0.072l-0.427-0.678l0.244-0.021l1.368,0.958l1.062,0.807
		l0.765,0.057l0.133-0.275l-0.937-0.566l-0.276-0.172l-1.286-0.712l-0.637-0.659l-0.721,0.006l-0.243-0.717l-1.031-0.161
		l-0.498-0.724l-1.062-0.172l-0.005-0.613l-0.811-0.276l-0.156-0.438l-1.023-0.59l-0.251-0.45l-2.035-1.55l-0.234-0.506
		l-0.446-0.116l-0.604-0.583l-0.076-0.158l-0.796-0.287l-0.217-0.512l-1.026-0.81l-1.195-0.928l-0.678-0.318l0.026,0.231
		l0.907,1.003l0.985,0.942l0.146,0.762l1.552,1.183l0.472,0.039l0.347,0.603l0.461,0.344l0.589-0.22l-0.206,0.665l1.812,1.58
		l0.579,0.089l0.297,0.521l0.2,0.209l1.195,0.938l0.671-0.06l0.148-0.028l0.208,0.481l0.052,0.417l0.1,0.114l3.781,2.807
		l0.823,0.318l1.805,1.283l0.547,0.134l1.555,0.865l1.021,0.653l1.062,0.569l0.271,0.128l1.395,0.916l1.331,0.705l0.392,0.227
		l1.076,0.534l1.583,0.864l2.128,1.144l0.833,0.328l0.977,0.396l0.954,0.446l0.408,0.184l1.091,0.509l0.269,0.137l1.073,0.546
		l0.656,0.367l0.946,0.46l0.277,0.113l1.921,0.866l0.42,0.163l1.217,0.597l0.908,0.549l0.743,0.012l0.28,0.126l0.616,0.444
		l1.256,0.851l1.533,0.621l0.945,0.468l0.959,0.436l0.396,0.217l1.617,0.611l0.946,0.641l0.807,0.4l0.927,0.499l1.467,0.765
		l1.228,0.575l1.066,0.557l0.396,0.216l1.589,0.852l0.258,0.157l1.186,0.662l1.172,0.686l0.836,0.343l0.979,0.391l0.96,0.438
		l0.28,0.106l1.595,0.851l1.509,1.016l0.704,0.258l1.365,0.961l1.018,0.637l0.944,0.462l0.998,0.324l0.268-0.273l-1.251-0.457
		l-1.258-0.491l-3.275-2.465l-1.677-1.006l-0.261-0.151l-1.082-0.519l-0.395-0.21l-1.192-0.648l-1.206-0.874l0.005-0.116
		l0.575-0.153L117.022,110.624L117.022,110.624z M104.512,96.925l0.717-0.005l3.678,0.389l0.528,0.253l-0.313,0.321l-0.072,0.603
		l0.546,0.358l0.604-0.393l-0.024-0.582l-0.811-0.299l0.236-0.158l0.6,0.017l3.884,0.465l1.497,0.153l1.499,0.137l1.952,0.166
		l0.898,0.098l0.082,0.216l-0.114,0.097l-0.137,0.049l-1.51-0.013l-0.445-0.071l-4.344-0.48l-0.899-0.095l-1.801-0.162l-0.034,0.715
		l0.099,0.292l0.43-0.012l0.252-0.183l0.182-0.24l0.271-0.148l0.176,0.714l0.888,0.155l0.191-0.536l0.324,0.187l-0.061,0.581
		l1.44,0.171l0.104-0.317l0.458,0.406l0.87,0.161l0.14-0.404l0.222-0.355l0.246,0.299l0.027,0.301l0.031,0.146l0.857,0.03
		l0.165-0.557l0.372,0.104l0.2,0.326l0.81-0.604l0.073,0.133l0.666,0.155l0.098-0.115l0.484-0.001l0.14,0.268l0.095,0.092
		l0.693-0.461l0.284,0.525l0.371,0.188l0.437-0.827l0.128,0.23l0.088,0.781l0.375-0.074l0.133-0.883l0.356-0.202l1.319,0.263
		l0.141,0.521l-0.008,0.145l0.184,0.209l0.26-0.069l0.133-0.261l0.575-0.266l-0.222,0.695l0.155,0.228l2.022,0.526l1.877,0.503
		l0.276-0.09l-0.049,0.006l1.113-0.034l0.221-0.143l-0.065,0.007l0.392,0.208l0.146-0.007l0.062-0.42l1.131-0.165l-0.245-0.704
		l-1.062-0.528l-1.231-0.204l-0.78-0.595l0.004,0.055l0.021-0.305l-0.943-0.725l-0.459-0.082l-1.119-0.738l-0.579-0.19l-1.514-0.661
		l-2.575-0.841l-2.565-0.873l-2.029-0.587l-0.891-0.176l-5.019-1.075l-0.749-0.185l-0.632-0.352l-1.203-0.201l-1.836-0.646
		l-0.436-0.112l-1.305-0.379l-2.183-0.591l-1.899-0.491l-0.414-0.177l-1.548-0.567l-1.322-0.154l-1.168-0.729l-1.251-0.515
		l-1.236-0.646l-1.322-0.264l-1.532-0.904l-1.208-0.615l-1.033-0.621l-0.943-0.47l-1.63-0.782l-1.762-0.855l-0.831-0.343
		l-1.006-0.682l-0.622-0.427l-1.632-0.784l-0.426-0.152l-1.177-0.679l-1.061-0.58l-0.674-0.334l-1.106-0.76l-0.631-0.591
		l-0.655-0.619l-0.715-0.565l-0.704-0.537l-0.641-0.377l-0.688-0.302l-0.99-0.704l-0.932-0.493l-0.408-0.192l-1.328-0.711
		l-0.639-0.4l-1.201-0.627l-0.779-0.46l-1.104-0.484l-0.883-0.588l-0.64-0.229l-3.977-2.928l-1.271-0.812l-0.513-0.531l-1.542-1.234
		l-2.6-2.05l-0.592-0.723l-1.801-1.393l-3.837-2.985l-0.856-0.849l-0.655-0.622l-1.136-1.199l-0.678-0.606l-1.071-1.061L42.9,51.845
		l-0.222-0.383l-0.266-0.108l-1.29-1.442l-0.529-0.48l-0.457-0.398l-0.315-0.324l-0.238-0.42l-1.722-1.433l-0.263-0.447l-1.23-1.056
		l-0.898-1.015l-0.938-0.771l-1.717-1.693l-0.293-0.341l-0.61-0.666l-0.55-0.517l-1.604-1.589l-2.258-1.527l-0.289-0.091
		l-0.768-0.68l-0.821-0.627l-0.927-0.472l-1.12-0.433l-1.104-0.517l0.218,0.771l-0.446-0.094l-1.582-0.433l-0.249,0.118
		l-0.272,0.017l0.076,0.062l0.189-0.126l0.598,0.457l0.271,0.126l0.987,0.353l0.295,0.019l0.462,0.657l0.543,0.413l0.51,0.06
		l0.218,0.332l0.127,0.271l0.352,0.275l0.45-0.01l0.112,0.088l0.362,1.001l0.325,0.276l0.728,0.145l0.167,0.722l0.409,0.199
		l0.879,2.032l0.137,0.022l0.573-0.791l0.227,1.301l-0.197,1.052l0.145,0.58l-0.188,0.184l-0.134-0.034l-0.473-0.748l0.135-0.556
		l-1.002-1.123l-0.438-0.087l-0.203-0.361L26.156,41.4l-1.512-1.591l0.406-0.21l-0.134-0.895l-0.498,0.28l0.059-0.008l-0.381-0.235
		l-0.702-0.184L23.176,37.6l0.355,0.228l0.141-0.001l-0.491-0.16l-0.57-0.435l-0.807,0.385l0.065,0.137l0.794,0.704l0.922,1.189
		l1.511,2.065l0.515,0.524l0.783,0.21l0.641,1.16l1.194,1.73l0.861,1.044l0.777,1.107l1.924,2.696l0.943,1.176l0.808,1.086
		l0.747,0.937l0.64,0.825l0.73,0.958l0.974,1.141l0.648,0.829l0.717,0.773l0.528,0.531l1.029,0.898l0.831,1.067l0.191,0.411
		l2.261,2.167l0.336,0.518l1.649,1.378l0.327,0.31l1.243,1.3l0.227,0.398l0.232,0.207l1.907,1.503l0.501,0.558l0.463,0.327
		l0.49,0.292l1.096,0.825l0.254,0.414l4.302,3.306l0.378,0.25l1.93,1.176l1.689,0.986l0.504,0.331l1.272,0.902l0.587,0.162
		l1.304,0.66l0.505,0.319l2.363,1.679l1.659,0.671l2.184,1.482l0.45,0.103l1.288,0.874l0.73,0.282l1.379,0.939L74.8,85.42
		l0.616,0.404l1.068,0.547l2.002,1.051l1.091,0.513l1.062,0.57l1.055,0.583l1.314,0.73l0.395,0.217l1.579,0.88l0.641,0.398
		l1.451,0.793l1.114,0.717l0.742,0.273l1.869,0.989l0.843,0.316l0.775,0.474l1.284,0.43l2.399,0.895l2.277,0.781l1.275,0.152
		l3.379,1.137l-0.429-1.086l0.107-0.278l1.46-0.25l0.396,0.265l-0.49,0.283l0.568,0.399L104.512,96.925L104.512,96.925z
		 M46.348,20.559l0.903,0.597l0.861,0.552l0.446,0.113l4.106,3.115l0.224,0.203l1.597,1.598l0.304,0.518l1.31,1.46l0.777,1.105
		l1.025,1.673l0.99,1.69l0.522,0.734l0.258,0.367l1.632,2.533l0.824,1.075l0.739,0.952l0.638,0.833l0.983,1.126l0.59,0.684
		l0.176,0.241l1.551,1.651l0.271,0.359l0.893,1.207l0.952,1.165l0.633,0.838l0.54,0.717l0.951,1.165l0.856,1.056l1.068,1.261
		l1.007,1.312l0.725,0.762l0.571,0.494l0.931,1.178l0.166,0.247l1.566,1.634l0.629,0.844l0.796,0.705l1.76,1.628l1.232,0.882
		l0.575,0.163l2.069,1.246l4.128,3.109l0.654,0.621l0.602,0.386l0.334,0.449l3.849,3.056l0.739,0.752l0.538,0.522l1.393,1.178
		l1.734,1.699l0.651,0.811l1.276,1.282l0.559,0.509l0.589,0.682l0.073,0.132l0.66,0.628l0.556,0.713l0.785,0.717l1.008,1.312
		l0.081,0.128l0.825,0.88l0.713,0.776l1.113,1.224l1.049,1.278l0.114,0.22l1.085,1.123l0.943,1.178l1.169,1.378l0.518,0.739
		l0.594,0.682l0.57,0.7l0.645,1.172l2.359,0.588l2.368,0.482l1.599,0.44l2.703,0.926l2.705,0.942l1.251,0.522l1.202,0.719
		l0.406,0.096l1.226,0.582l0.515,0.314l1.574,0.887l1.012,0.672l2.811,2.072l0.995,0.627l0.399,0.445l0.64,0.569l0.619,0.92
		l-0.014,0.416l-0.222,0.199l-0.293-0.023l-1.204-0.626l-1.255-0.495l-1.296-0.391l-1.321-0.29l-1.188-0.173l-1.801-0.168
		l-2.273-0.001l-0.754,0.058l-1.966-0.062l-1.04,0.104l-0.099,0.112l-0.355-0.271l-0.566,0.135l0.786,0.691l0.129-0.591l2.187,1.701
		l0.545,0.786l0.771,0.695l-0.025,0.266l0.06-0.007l-3.035-2.267l-0.415-0.176l0.616,0.689l0.689,0.582l0.271,0.513l0.768,0.704
		l-0.174,0.105l-1.504-1.154l-0.271-0.479l-2.115-1.716l0.25,0.87l0.414,0.087l0.927,1.185l-0.196,0.113l-0.295-0.071l0.053,0.532
		l1.534,2.407l0.521,0.916l0.522,0.786l0.249,1.547l1.285,2.111l0.704,1.328l0.282,0.697l0.575,2.332l0.081,0.344l2.178,1.769
		l0.556,0.734l0.609,0.556l0.156,0.668l-1.144,1.521l-0.637-1.182l-0.709-1.152l-0.788-1.129l-1.197-0.914l-0.551,0.17l-1.305-0.338
		l-0.272,0.083l0.053-0.009l-0.135-0.07l-0.77-0.479l-1.01-0.311l0.077,0.242l1.206,0.921l0.528,0.526l-0.036,0.278l-0.236,0.018
		l-0.171-0.232l-0.438,0.169l-0.734-0.249l0.29,0.694l0.224,0.239l1.051,1.078l0.917,1.188l1.303,1.846l0.903,1.567l0.739,1.487
		l0.918,2.559l0.183,1.67l-0.229,0.555l0.115,1.201l0.44,0.812l0.987,1.106l0.648,0.629l0.554,0.709l0.673,0.583l-0.642,1.148
		l-0.166,0.024l-0.797-0.146l-1.068-0.769l-0.685-0.6l-0.988-1.316l-0.654-1.001l-0.238-0.176l0.088-0.259l-0.151-0.566
		l-0.597-0.454l-0.393,0.296l0.053,0.137l1.028,0.842l-0.19,0.558l-1.181-1.05l-0.863-0.344l-0.603,0.167l-2.37-1.673l-0.854-0.19
		l-0.179,0.233l0.576,0.43l0.024,0.13l-0.367,0.584l-0.917,0.005l-0.55-1.04l-2.499-1.866l-0.266,0.014l0.009,0.389l0.338,0.305
		l1.194,0.937l1.066,0.853l0.172,0.291l-0.852-0.201l-0.162-0.267l-0.531,0.222l-0.519-0.395l-0.386-0.607l-0.37,0.054l-0.127,0.445
		l-0.718,0.464l-0.7,0.158l-0.783-0.909l-0.732-0.756l-0.88-0.955l-1.136-1.664l-0.435-0.618l-0.559-0.141l-0.672-0.799
		l-0.613-0.634l0.929,0.394v-0.21l-0.354-0.478l-0.589-0.875l-0.589-0.873l-0.435-0.083l-0.831-0.352l-0.196-0.209l0.02-0.285
		l0.008-0.179l-0.277-0.312l-3.125-2.412l-1.828-1.359l-0.625-0.432l-0.969-0.412l-0.887-0.555l-0.001,0.187l1.693,1.277
		l0.669,0.246l2.709,2.062l-0.005,0.57l0.17,0.234l1.309,1.039l0.131,0.262l-0.252,0.014l-2.037-1.456l-0.518-0.145l-1.22-0.93
		l-0.262-0.386l-0.884-0.456l-4.241-3.202l-0.284-0.183l-0.567-0.145l-0.995-0.698l-0.615-0.136l-4.928-3.652l-0.492-0.133
		l-3.054-1.884l-5.705-4.344l-3.648-2.727l-0.389-0.229l-1.429-0.83l-2.52-1.956l-0.553-0.502l-0.551-0.457l-0.459-0.33l-0.606-0.4
		l-0.357-0.482L70.917,97.9l-0.464-0.347l-0.613-0.605l-0.646-0.271l-1.293-0.888l-0.864-0.544l-0.881-0.489l-0.992-0.699
		l-0.845-0.646l-0.851-0.637L62.72,92.25l0.107,0.427l0.003,0.143l-0.237,0.035L61.02,91.65l0.054-0.579l-0.177-0.233l-2.424-1.826
		l-0.508-0.323l-1.418-0.85l-3.495-2.676l-0.354-0.345l1.992,1.282l1.953,1.277l-0.054-0.141l-6.598-5.104l-0.458-0.219l0.182,0.567
		l-0.578-0.373l-0.021-0.646l-1.337-0.692l-1.47-0.851l-0.199-0.195l-0.955-0.705l-0.137-0.051l-1.115-0.732l-3.896-2.906
		l-1.462-1.088l-0.379-0.244l-1.812-1.077l-2.876-2.172l-0.206-0.459l-0.293-0.047l-0.144-0.046l-2.432-1.817l-1.216-0.91
		l-0.505-0.335l-2.706-1.702l-0.44-0.109l-3.754-2.789l0.001,0.06l0.395-0.033l2.713,1.951l0.245,0.001l-0.042-0.149l-1.754-1.438
		l-0.251-0.416l-0.785-0.386L21.69,61.68l-1.398-0.903l-0.253,0.098l-0.27-0.063l0.014,0.116l0.248-0.11l0.383,0.803l-0.042,0.123
		l-3.06-2.231l-0.45-0.597l-0.265,0.043l-0.068,0.267l0.415,0.426l1.914,1.497l0.185,0.225l-1.444-0.856l-1.341-0.94l-1.03-1.234
		l-1.333-0.774l-1.068-0.549l-1.44-0.819l-1.607-1.276l-1.234-1.794l-0.383-2.678l0.18-0.763l0.073-0.133l1.041-0.763l1.681-0.008
		l1.275,0.511l1.337,0.682l1.078,0.748l1.196,0.248l0.292,0.183l1.153,0.202l0.85-0.106l2.139,0.449l1.525-2.055l0.017-2.121
		l-1.284-2.358l-0.123-0.524l0.582-0.678l1.387,0.178l1.33,0.422l1.023-0.063l0.467-0.326l-0.155-0.396l-0.496-0.563l-0.676-0.997
		l-0.765-0.93l-0.929-1.183l-1.554-1.625l-2.419-1.526l-0.257-0.16l-1.574-1.267l-0.074-0.546l1.142-0.965l1.02-0.353l0.444-0.069
		l1.354-0.064l1.809,0.066l0.443,0.09l2.422,0.801l0.725,0.252l1.226,0.868l0.205-0.018l-0.399-1.486l-0.543-1.888l-0.24-1.482
		l0.087-1.511l0.118-1.201l0.318-1.155l0.354-1.148l0.409-0.639l0.286-0.696l0.613-0.714l1.462,0.24l0.765,0.634l0.392,0.685
		l0.167,0.581l0.814,2.115l0.98,1.331l2.598,2.101l0.787-0.042l0.156-0.39l0.602-0.53l0.111-0.34l0.67-0.526l1.653-2.103l0.96-0.93
		l-0.141-0.621l-1.319-1.831l-0.341-0.486l-0.621-1.196l-0.469-1.272l-0.923-2.875l-0.164-1.5l-0.015-0.604l0.129-2.109l0.164-1.529
		l0.26-0.679l0.496-0.927l0.34-0.218l0.644,0.163l-0.004,1.019l0.162,1.021l0.858,1.795l0.921,1.562l0.953,1.164l1.277,1.078
		l1.233,0.865l1.126,0.458l0.589-0.04l0.12-0.085 M65.398,49.958l0.193,0.302l0.904,0.489l0.902,0.633l0.501,0.146l1.681,1.102
		l0.191,0.03l-0.691-1.042l-1.342-1.255l2.116,1.468l0.562,0.713l1.636,1.364l0.827,0.837l1.233,0.553l0.152-0.02l-1.081-1.296
		l-0.908-0.753l-0.419-0.431l-0.83-0.871L70.367,51.1l-1.038-0.907l-0.209-0.382l-1.302-1.456l-0.625-0.844l-0.742-0.947
		l-0.733-0.952l-0.697-0.977l-1.025-1.289l-0.516-0.737l-0.419-0.625l-0.632-0.84l-0.623-0.848l-0.628-0.842l-0.607-0.666
		l-0.585-0.873l-0.278-0.354l-1.268-1.384l-1.019-1.573l-0.091-0.579l0.261,0.076l0.252,0.37l0.69,0.982l0.736,0.95l0.103,0.11
		l1.182,1.356l1.063,1.456l0.734,0.949l0.705,0.975l0.41,0.631l0.431,0.616l0.154,0.253l0.844,1.052l0.784,1.104l0.243,0.378
		l0.95,1.171l0.962,1.159l0.948,1.17l0.231,0.398l0.91,0.797l1.572,1.819l0.438,0.413l0.556,0.511l1.498,1.483l0.251,0.222
		l0.277,0.466l1.035,1.129l0.427,0.423l0.904,1.003l0.525,0.244l0.142-0.252l-0.813-0.873l-0.782-0.913l-0.762-0.933l-0.759-0.903
		l-1.087-1.069l-0.933-1.183l-1.378-1.586l-0.209-0.215l-0.922-1.19l-0.771-1.113l-0.739-0.95l-1.182-1.369l-1.073-1.447
		l-0.191-0.231l-0.899-1.011L64.31,41.7l-0.559-0.707l-0.995-1.129l-0.968-1.15l-0.69-0.982l-0.841-1.249l-0.789-1.1l-0.772-1.289
		l-0.742-1.13l-1.256-2.057l-1.026-1.489l-0.675-0.806l-0.662-0.816l-0.995-1.131l-1.012-0.913l-0.545-0.711l-2.776-2.132
		l-1.066-0.557l-0.769-0.476l-0.885-0.589l-1.396-0.553l-0.95-0.457l-1.045-0.214l-0.166-0.247L41.8,19.128l-0.176-0.242
		l-1.417-1.141l-0.152-0.007l0.157,0.499l0.609,1.382l0.054,0.141l0.32,0.319l1.166,1.937l0.361,0.485l0.766,1.117l1.177,1.031
		l-0.02,0.557l1.259,1.843l0.198,0.228l0.313,0.512l0.646,0.572l0.594,1.059l1.021,0.961l0.573,1.062l0.986,1.136l0.521,0.543
		l0.421,0.618l0.279,0.343l0.501,0.735l-0.039,0.097l-0.895-0.066l-0.901,0.115l-0.23,0.338l0.188,0.199l0.143,0.016l2.351,0.126
		l0.166,0.23l-0.96,0.105l0.265,0.605l1.136,0.224l1.064,0.811l0.76,0.979l0.02,0.407l0.044,0.325l0.564,0.43l0.169,0.447
		l0.516,0.89l0.735,0.967l0.848,0.274l0.017,0.591l0.628,0.375l-0.338,0.226l0.096,0.572l1.299,0.284l0.35,0.482l-1.033-0.156
		l0.081,0.344l0.562,0.189l0.249,0.676l0.2,0.22l2.77,2.125l0.257,0.161L65.398,49.958L65.398,49.958z M81.247,71.789l-0.505-0.555
		l-1.136,0.063l-0.055-0.239l0.458-0.33l-0.448-0.403l-1.176,0.041l-0.09-0.068l0.106-0.256l0.405-0.197l-0.37-0.406l-1.489,0.127
		l1.396,1.271l1.68,1.295l1.567,1.19l1.676,1.299l1.542,1.176l0.493-0.035l0.584-0.129l-0.629-0.641l-0.896-0.016l0.039-0.598
		l-1.032-0.509l-0.2-0.708l-1.185-0.048l0.043-0.393l0.13-0.263l-0.202-0.14l-0.753,0.065l-0.226-0.07l0.104-0.272L81.247,71.789
		L81.247,71.789z M27.534,51.19l1.316,1.112l0.668,0.129l3.743,2.759l0.182,0.002l-0.269-0.36l-1.04-1.089l-0.313-0.323
		l-3.733-2.863l-0.279-0.111L27.534,51.19L27.534,51.19z M58.971,57.989l0.49,0.113l0.849,0.534l0.436-0.146l-0.002-0.147
		l-0.479-0.125l-0.305-0.513l-0.743-0.275l-3.424-2.511l-0.481-0.11l-1.269-0.792l-0.013,0.109L58.971,57.989L58.971,57.989z
		 M25.38,45.878l-1.104-0.407l-0.537,0.066l2.376,1.896l0.47,0.109l1.149,0.765l0.691-0.004l0.119-0.266l-0.64-0.61l-1.442-0.799
		L25.38,45.878L25.38,45.878z M89.096,79.38l0.929-0.637l-0.531-0.477l-1.013-0.141l0.096-0.572l-0.248-0.189l-1.02-0.149
		l-0.097-1.003l-1.348-0.024l-0.188,0.144l0.061,0.134l1.062,0.853l0.823,0.872l0.317,0.308L89.096,79.38L89.096,79.38z
		 M56.214,43.869l-0.589-0.867l-0.581-0.682l-0.668-0.8l-0.103-0.108l-0.709-1.134l-0.264-0.353l-0.374-0.057l1.018,2.796
		l0.51,0.382l0.818,0.363l0.774,0.45L56.214,43.869L56.214,43.869z M65.021,61.637l0.046,0.246l2.897,2.186l0.268,0.032
		l-0.071-0.578l-0.606-0.636l0.516-0.548l-0.25-0.29l-0.53,0.275l-0.874,0.126l-0.233-0.208l1.115-0.429l-0.384-0.427l-1.007,0.223
		L65.021,61.637L65.021,61.637z M78.187,76.703l0.224-0.257l-0.761-1.09l-1.271-1.766l-1.291-0.9l-0.112,0.002l0.691,1.14
		l0.881,1.207l0.898,1.2l0.345,0.284L78.187,76.703L78.187,76.703z M125.307,130.645l-1.416-0.283l-1.741-1.153l0.036,0.211
		l1.794,1.371l0.258,0.149l1.473,0.729l0.846,0.295l0.738,0.105l0.05-0.067l-0.553-0.481L125.307,130.645L125.307,130.645z
		 M80.766,78.272L79.99,76.74l-0.535-0.713l-0.516-0.729l-0.65-0.604l-0.245-0.023l0.11,0.567l0.893,1.195L80,77.767L80.766,78.272
		L80.766,78.272z M71.756,70.254l0.537,0.743l0.46,0.585l0.61,0.843l0.575,0.685l0.912,0.738l0.151-0.022l-1.354-1.967l-0.596-0.854
		l-0.97-0.706L71.756,70.254L71.756,70.254z M106.978,118.604l0.087-0.611l-0.447-0.047l-0.209-0.183l0.106-0.247l0.128-0.068
		l0.894-0.035l-0.035-0.223l-0.889-0.22l-1.438,0.252l-0.087,0.122l0.131,0.244l0.812,0.372l0.733,0.524L106.978,118.604
		L106.978,118.604z M131.767,122.143l0.531-0.131l-0.105-0.565l-0.769-0.905l-0.309-0.319l-1.204-0.892l-0.264-0.016l0.568,0.659
		l0.517,0.724l0.525,0.719L131.767,122.143L131.767,122.143z M85.784,79.231l-0.635-0.374l0.01,0.23l1.258,2.077l0.422,0.384
		l0.573,0.624l-0.03-0.423L85.784,79.231L85.784,79.231z M21.25,37.129l-0.199-0.302l-2.411-1.8l-0.273,0.01l-0.104,0.401
		l1.659,0.902L21.25,37.129L21.25,37.129z M35.252,43.295l-0.514-0.965l-0.594-0.855l-0.595-0.853l-0.258-0.044l0.04,0.446
		l0.369,0.788l0.798,0.888L35.252,43.295L35.252,43.295z M34.556,57.174l-0.144-0.25l-3.323-2.555l-0.137-0.038l-0.136,0.009
		l3.23,2.622L34.556,57.174L34.556,57.174z M52.886,73.068l0.367,0.799l0.783,0.697l0.548,0.698l0.557-0.014l0.045-0.104
		l-0.297-0.322l-1.48-1.462L52.886,73.068L52.886,73.068z M99.595,116.908l-0.522-0.127l-1.358-0.787l0.261,0.376l2.781,1.942
		l-0.615-0.627L99.595,116.908L99.595,116.908z M49.719,70.667l0.488,0.76l0.632,0.639l0.529,0.724l0.504,0.29l-0.881-1.315
		l-1.016-1.076L49.719,70.667L49.719,70.667z M70.62,63.938l-0.708,0.295l0.264,0.313l0.736-0.015l0.202,0.704l0.741-0.3
		l-0.247-0.323l-0.364-0.272l-0.246-0.178L70.62,63.938L70.62,63.938z M107.374,98.317l0.874,0.106l0.171-0.688l-0.069-0.103
		l-1.171-0.062l-0.14,0.485L107.374,98.317L107.374,98.317z M91.581,81.183l0.603-0.309l0.035-0.109l-0.052-0.135l-0.352-0.271
		l-0.874-0.067l-0.193,0.232L91.581,81.183L91.581,81.183z M131.485,135.532l0.376,0.895l0.558,0.851l0.227-0.069l-0.196-0.994
		L131.485,135.532L131.485,135.532z M41.987,34.185l0.049,0.139l2.116,1.59l0.128,0.006l-2.156-1.74L41.987,34.185L41.987,34.185z
		 M69.904,63.387L69.582,63.1l-0.869-0.196l-0.141,0.038l-0.119,0.372l0.349,0.276l0.437,0.06L69.904,63.387L69.904,63.387z
		 M64.322,60.07l0.29,0.304l0.426,0.105l0.308,0.08l0.449,0.336l0.469-0.219l-0.639-0.267l-0.604-0.429L64.322,60.07L64.322,60.07z
		 M119.589,112.455l0.052,0.137l0.391,0.303l1.289-0.002l-0.308-0.347L119.589,112.455L119.589,112.455z M93.193,80.908l0.537,0.155
		l0.188,0.376l0.069,0.124l0.253,0.121l0.202-0.162l-0.031-0.266l-1.031-0.851l-0.246,0.031l-0.048,0.133L93.193,80.908
		L93.193,80.908z M45.831,45.399l-0.358,0.169l0.601,0.637l0.687-0.044L45.831,45.399L45.831,45.399z M71.879,65.675l0.381,0.539
		l1.012-0.143l-0.357-0.495l-0.325-0.014L71.879,65.675L71.879,65.675z M44.932,27.714l-0.064,0.389l0.33,0.328l0.438-0.025
		l0.242-0.295l-0.089-0.282L44.932,27.714L44.932,27.714z M93.009,82.549L93.322,83l0.488-0.114l0.169-0.271l-0.195-0.321
		L93.009,82.549L93.009,82.549z M19.823,35.284l1.271,1.123l0.153,0.029l-0.072-0.667l-0.396-0.118l-0.283-0.081L19.823,35.284
		L19.823,35.284z M50.461,36.083l0.317,0.642l0.544-0.009l-0.259-0.728L50.461,36.083L50.461,36.083z M91.731,78.906l-0.823-0.791
		l-0.29,0.184l0.138,0.385L91.731,78.906L91.731,78.906z M89.574,79.587l0.525,0.458l0.633-0.281l0.04-0.105l-0.062-0.111
		L89.574,79.587L89.574,79.587z M68.622,64.445l0.641,0.591l0.262-0.052l0.027-0.388L68.622,64.445L68.622,64.445z M41.798,31.729
		l-1.372-1.032l0.058,0.138l1.037,0.856L41.798,31.729L41.798,31.729z M39.961,32.216l0.571,0.622l0.597,0.43l0.146,0.016
		l-0.026-0.112l-0.082-0.118L39.961,32.216L39.961,32.216z M44.284,27.216l0.928-0.176l-0.426-0.364L44.284,27.216L44.284,27.216z
		 M42.731,32.803l1.223,0.968l-0.15-0.244L42.731,32.803L42.731,32.803z M61.809,59.065l-0.59,0.059l0.302,0.428l0.694-0.034
		L61.809,59.065L61.809,59.065z M95.476,84.302l-0.37-0.009l-0.093,0.24l0.758,0.695L95.476,84.302L95.476,84.302z M57.118,43.344
		l-0.425,0.112l0.827,0.825l0.146,0.004l0.033-0.099l-0.043-0.136L57.118,43.344L57.118,43.344z M51.325,52.676l0.9,0.901
		l0.317,0.108l-0.271-0.337l-0.353-0.264l-0.234-0.176L51.325,52.676L51.325,52.676z M63.127,59.288l0.646,0.215l-0.028-0.458
		l-0.239-0.161L63.127,59.288L63.127,59.288z M106.308,98.018l0.124-0.249l-0.032-0.165l-0.226-0.17l-0.5,0.129L106.308,98.018
		L106.308,98.018z M98.776,113.194l0.299-0.017l0.283-0.1l-0.071-0.241l-0.54-0.215l-0.354,0.15l0.14,0.252L98.776,113.194
		L98.776,113.194z M124.645,100.15l0.076-0.395l-0.698,0.197l0.191,0.271L124.645,100.15L124.645,100.15z M41.921,23.125l0.865,0.64
		l-0.324-0.72L41.921,23.125L41.921,23.125z M92.383,81.92l0.291-0.012l0.28-0.083l-0.172-0.312l-0.726-0.074L92.383,81.92
		L92.383,81.92z M46.113,36.513l-1.092-0.822L46.113,36.513L46.113,36.513z M48.941,33.434l-0.11,0.243l0.331,0.154l0.674-0.236
		L48.941,33.434L48.941,33.434z M93.934,83.374l0.9,0.631l-0.297-0.737L93.934,83.374L93.934,83.374z M95.688,83.687l0.826,0.04
		l-1.076-0.395l0.04,0.138L95.688,83.687L95.688,83.687z M110.531,111.272l1.029,0.822l-0.297-0.424L110.531,111.272
		L110.531,111.272z M56.975,54.605l-0.467,0.137l0.097,0.23l0.81,0.231l0.106-0.054L56.975,54.605L56.975,54.605z M59.886,56.646
		l-0.216-0.324l-0.597,0.049l0.585,0.469L59.886,56.646L59.886,56.646z M92.672,79.712l-0.442-0.445l-0.245,0.128l0.116,0.365
		L92.672,79.712L92.672,79.712z M40.73,20.666l0.281,0.502l0.088-0.366l-0.229-0.142L40.73,20.666L40.73,20.666z M50.111,34.131
		l-0.59,0.045l-0.149,0.39L50.111,34.131L50.111,34.131z M51.835,37.327l-0.377-0.117l-0.107,0.142l0.001,0.261l0.373,0.128
		l0.122-0.248L51.835,37.327L51.835,37.327z M54.827,41.03l0.71,0.082l-0.573-0.427L54.827,41.03L54.827,41.03z M62.317,58.44
		l-0.781-0.178L62.317,58.44L62.317,58.44z M109.688,120.155l-0.133-0.255l-0.721,0.034l0.291,0.331L109.688,120.155
		L109.688,120.155z M59.653,78.266l0.553-0.042l-0.4-0.416l-0.143-0.027l-0.11,0.21L59.653,78.266L59.653,78.266z M75.145,74.267
		l0.315,0.728l0.233,0.031l0.058-0.135l-0.101-0.263L75.145,74.267L75.145,74.267z M80.081,100.614l0.053,0.226l0.104,0.096
		l0.543-0.055l0.036-0.103l-0.052-0.122L80.081,100.614L80.081,100.614z M95.949,115.604l0.259,0.076l-0.1-0.308l-0.237-0.153
		l-0.139-0.007l0.008,0.199L95.949,115.604L95.949,115.604z M48.985,47.567l0.382,0.422l0.197-0.058l-0.055-0.136L48.985,47.567
		L48.985,47.567z M48.723,48.446l0.28,0.432l0.242-0.021l-0.117-0.24L48.723,48.446L48.723,48.446z M50.108,49.538l0.405,0.247
		l0.122-0.241l-0.099-0.07l-0.146-0.017L50.108,49.538L50.108,49.538z M61.06,57.508l-0.416-0.197l-0.102,0.23l0.106,0.057
		l0.141,0.003L61.06,57.508L61.06,57.508z M58.142,76.7l0.394,0.415l0.143,0.016l-0.021-0.195L58.142,76.7L58.142,76.7z
		 M121.899,131.653l-0.258,0.111l-0.019,0.251l0.235,0.13l0.087-0.065L121.899,131.653L121.899,131.653z M123.773,107.918
		l0.385,0.488h0.138l0.02-0.201L123.773,107.918L123.773,107.918z M112.285,112.931l0.589,0.528L112.285,112.931L112.285,112.931z
		 M92.023,108.59l0.062,0.177l0.217,0.019L92.023,108.59L92.023,108.59z M103.942,98.55l-0.154-0.209l-0.123-0.026l0.029,0.167
		L103.942,98.55L103.942,98.55z M94.712,110.39l0.187-0.003l-0.156-0.209h-0.136l0.013,0.116L94.712,110.39L94.712,110.39z
		 M97.396,111.945l0.376,0.265L97.396,111.945L97.396,111.945z M40.567,20.167l-0.012-0.229l-0.264-0.072l0.006,0.233L40.567,20.167
		L40.567,20.167z M41.51,22.104l0.201,0.005l-0.147-0.213l-0.134,0.008l-0.005,0.103L41.51,22.104L41.51,22.104z M39.559,29.782
		l0.13,0.023l-0.027-0.182L39.41,29.57l0.046,0.126L39.559,29.782L39.559,29.782z M25.373,53.638l-0.102-0.231l-0.209,0.016
		l0.046,0.132l0.117,0.087L25.373,53.638L25.373,53.638z M44.037,29.37l0.13,0.027l-0.024-0.185l-0.259-0.068L44.037,29.37
		L44.037,29.37z M43.405,31.168l0.2,0.018l-0.161-0.228l-0.142-0.002l0.01,0.108L43.405,31.168L43.405,31.168z M122.242,117.143
		l-0.103-0.218l-0.196,0.012l0.044,0.127l0.113,0.086L122.242,117.143L122.242,117.143z M54.762,39.991l-0.229-0.099l-0.043,0.073
		l0.183,0.157l0.133-0.006L54.762,39.991L54.762,39.991z M56.137,42.701l0.141,0.22l0.208-0.043l-0.126-0.215L56.137,42.701
		L56.137,42.701z M51.05,51.161l0.005-0.13l-0.209,0.002l-0.062,0.116l0.037,0.132L51.05,51.161L51.05,51.161z M53.023,51.375
		l0.08,0.2l0.208,0.007l-0.03-0.126L53.023,51.375L53.023,51.375z M58.165,54.545l0.161,0.229l0.132,0.028l-0.024-0.184
		L58.165,54.545L58.165,54.545z M58.078,55.759l0.146-0.004l-0.048-0.21l-0.251-0.074l0.056,0.21L58.078,55.759L58.078,55.759z
		 M62.955,60.112l0.293,0.384l0.188-0.099l-0.016-0.131L62.955,60.112L62.955,60.112z M60.908,66.281l0.251,0.063l-0.044-0.132
		l-0.112-0.092l-0.145,0.021L60.908,66.281L60.908,66.281z M74.792,56.221l0.195,0.005l-0.154-0.229l-0.138,0.013l0.005,0.109
		L74.792,56.221L74.792,56.221z M69.765,71.412l0.365,0.269L69.765,71.412L69.765,71.412z M70.904,72.241l-0.124-0.236l-0.251-0.041
		l0.118,0.224L70.904,72.241L70.904,72.241z M118.72,111.85l-0.008-0.124l-0.2,0.053l-0.01,0.203l0.127-0.033L118.72,111.85
		L118.72,111.85z M61.978,91.788l0.062,0.199l0.23,0.028l-0.033-0.136l-0.12-0.082L61.978,91.788L61.978,91.788z M80.779,76.756
		l-0.058-0.195l-0.237-0.094l0.053,0.205L80.779,76.756L80.779,76.756z M82.523,78.167l0.187,0.01l-0.147-0.211l-0.133-0.001
		l0.01,0.103L82.523,78.167L82.523,78.167z M83.097,78.994l0.135,0.004l-0.07-0.188l-0.226-0.03L83.097,78.994L83.097,78.994z
		 M132.885,137.799l-0.2,0.051l-0.013,0.221l0.132-0.027l0.082-0.112L132.885,137.799L132.885,137.799z M107.827,119.261
		l0.216-0.033l-0.034-0.135l-0.27-0.062L107.827,119.261L107.827,119.261z M96.305,85.892l0.118,0.016l0.132-0.218l-0.062-0.081
		l-0.215,0.146L96.305,85.892L96.305,85.892z M97.158,86.659l0.131,0.004l-0.059-0.192l-0.22-0.027l0.037,0.131L97.158,86.659
		L97.158,86.659z M84.159,80.42l-0.046-0.102l-0.115,0.007l0.045,0.109L84.159,80.42L84.159,80.42z M27.849,26.744l-0.1,0.076
		l0.074,0.045L27.849,26.744L27.849,26.744z M91.481,84.13l0.066,0.082l0.037-0.069L91.481,84.13L91.481,84.13z M97.558,85.774
		l0.117-0.012l-0.035-0.105L97.558,85.774L97.558,85.774z M103.413,97.789l-0.057-0.098l-0.056,0.089L103.413,97.789L103.413,97.789
		z M105.268,109.142l0.071,0.087l0.039-0.067L105.268,109.142L105.268,109.142z M122.639,132.271l-0.072-0.104l-0.052,0.081
		L122.639,132.271L122.639,132.271z M101.592,118.962l0.076,0.099l0.044-0.071L101.592,118.962L101.592,118.962z M102.595,119.809
		l0.107-0.016l-0.142-0.086L102.595,119.809L102.595,119.809z M127.155,133.09l0.034,0.104l0.074-0.113L127.155,133.09
		L127.155,133.09z M117.238,129.653l-0.091,0.042l0.096,0.055L117.238,129.653L117.238,129.653z M124.337,132.055l-0.078-0.099
		l-0.044,0.07L124.337,132.055L124.337,132.055z M108.813,119.176l0.079-0.055l-0.072-0.04L108.813,119.176L108.813,119.176z
		 M37.817,16.504l0.036,0.114l0.086-0.133L37.817,16.504L37.817,16.504z M42.431,32.166l-0.096,0.051l0.098,0.056L42.431,32.166
		L42.431,32.166z M42.927,31.862l0.045,0.112l0.122-0.005l-0.047-0.113L42.927,31.862L42.927,31.862z M41.249,34.368l-0.066-0.088
		l-0.041,0.068L41.249,34.368L41.249,34.368z M44.674,30.127l0.065,0.083l0.038-0.066L44.674,30.127L44.674,30.127z M25.497,63.284
		l0.045,0.105l0.069-0.111L25.497,63.284L25.497,63.284z M26.24,63.85l0.071,0.092l0.042-0.071L26.24,63.85L26.24,63.85z
		 M45.052,44.914l-0.053-0.083l-0.044,0.078L45.052,44.914L45.052,44.914z M52.605,37.407l0.113-0.021l-0.031-0.108l-0.113,0.016
		L52.605,37.407L52.605,37.407z M120.087,103.238l0.069,0.083l0.036-0.063L120.087,103.238L120.087,103.238z M54.178,52.372
		l0.1,0.017l-0.008-0.15l-0.123,0.011L54.178,52.372L54.178,52.372z M53.147,57.278l0.083-0.053l-0.081-0.044L53.147,57.278
		L53.147,57.278z M134.237,101.018l-0.035-0.124l-0.131,0.011l0.032,0.13L134.237,101.018L134.237,101.018z M108.137,118.2
		l-0.07-0.104l-0.054,0.083L108.137,118.2L108.137,118.2z M124.706,132.422l0.114-0.009l-0.038-0.105L124.706,132.422
		L124.706,132.422z M56.512,58.368l0.111-0.029l-0.021-0.11l-0.119,0.018L56.512,58.368L56.512,58.368z M56.629,59.109l0.063,0.081
		l0.038-0.068L56.629,59.109L56.629,59.109z M57.249,58.816l0.051,0.069l0.033-0.065L57.249,58.816L57.249,58.816z M58.69,59.922
		l0.05,0.077l0.041-0.073L58.69,59.922L58.69,59.922z M58.335,63.526l0.096-0.057l-0.092-0.053L58.335,63.526L58.335,63.526z
		 M59.651,64.438l-0.032-0.104l-0.11,0.018l0.032,0.108L59.651,64.438L59.651,64.438z M60.904,63.511l0.074,0.1l0.048-0.079
		L60.904,63.511L60.904,63.511z M52.826,74.252l0.101-0.05l-0.103-0.062L52.826,74.252L52.826,74.252z M64.396,61.206l0.008-0.093
		l-0.151-0.005l0.025,0.113L64.396,61.206L64.396,61.206z M62.92,64.643l-0.072-0.104l-0.051,0.083L62.92,64.643L62.92,64.643z
		 M63.073,65.16l0.041,0.103l0.112-0.003l-0.044-0.104L63.073,65.16L63.073,65.16z M63.703,64.882l0.064,0.087l0.042-0.075
		L63.703,64.882L63.703,64.882z M62.309,66.788l-0.1,0.049l0.104,0.061L62.309,66.788L62.309,66.788z M63.486,65.759l-0.102,0.048
		l0.104,0.064L63.486,65.759L63.486,65.759z M63.716,66.493l0.121-0.01l-0.044-0.11L63.716,66.493L63.716,66.493z M121.26,116.734
		l0.072,0.103l0.052-0.084L121.26,116.734L121.26,116.734z M64.012,67.102l0.119-0.012L64.09,66.98L64.012,67.102L64.012,67.102z
		 M64.305,67.711l0.106-0.017l-0.142-0.086L64.305,67.711L64.305,67.711z M57.637,76.313l0.081,0.099l0.042-0.068L57.637,76.313
		L57.637,76.313z M66.902,69.221l0.062,0.087l0.043-0.079L66.902,69.221L66.902,69.221z M70.975,65.849l0.027,0.107l0.082-0.125
		L70.975,65.849L70.975,65.849z"/>
</g>
</svg>
