<?xml version="1.0" encoding="utf-8"?>
<!-- Generator: Adobe Illustrator 15.0.2, SVG Export Plug-In . SVG Version: 6.00 Build 0)  -->
<!DOCTYPE svg PUBLIC "-//W3C//DTD SVG 1.1//EN" "http://www.w3.org/Graphics/SVG/1.1/DTD/svg11.dtd">
<svg version="1.1" id="Layer_1" xmlns="http://www.w3.org/2000/svg" xmlns:xlink="http://www.w3.org/1999/xlink" x="0px" y="0px"
	 width="74.5px" height="74.5px" viewBox="0 0 74.5 74.5" enable-background="new 0 0 74.5 74.5" xml:space="preserve">
<g id="hojitas">
	<path fill="#232734" d="M23.501,16.288l0.112-0.276l0.028-0.189l0.027-1.928l-0.094-0.761l-0.09-0.956l-0.132-0.287l-0.071-0.883
		l-0.351-1.31l-0.303-0.44l0.221-0.122l0.345,0.199l1.294,0.991l1.633,0.804l0.878,0.364l0.603,0.074l1.916,1.037l0.981,0.604
		l0.601,0.478l0.911,0.875l0.712,0.121l1.257,0.733l0.316,0.216l0.881,0.489l0.463,0.423l0.76,0.584l1.667,1.292l0.345,0.339
		l0.786,0.698l0.582,0.831l0.109,0.324l0.656,0.407l0.74,1.322l0.654,1.793l0.213,0.734l0.136,0.653l0.12,0.559l0.091,0.859
		l0.259,0.521l0.135-0.254l1.262-1.674l0.544-0.464l1.266-0.599l0.628-0.227l0.641-0.187l0.646-0.164l0.842-0.183l0.771-0.034
		l0.34-0.13l2.718-0.035l1.419-0.544l0.664,0.045l0.205-0.071l0.788-0.344l1.263-0.671l1.024-0.707l0.599-0.625l0.387-0.566
		l0.42-0.941l0.242,0.009l0.104,0.172l-0.192,0.424l-0.217,0.632l-0.145,0.65l-0.17,0.844l-0.029,0.771L58.9,23.391l-0.18,0.717
		l-0.027,1.736l-0.15,0.747l-0.232,1.026l-0.067,0.907l-0.599,1.256l-0.922,1.053v1.268l0.123,0.971l-0.031,0.089l-0.182,0.741
		l-0.209,0.637l-0.497,1.143l-1.202,2.186l-0.472,0.667l-0.637,0.482l-0.585,0.324l-0.725,0.254l-0.658,0.336l-0.689,0.123
		l-1.404-0.041l-1.003,0.318l-0.616,0.234l0.062,0.229l1.229,0.882l0.928,1.228l0.562,1.422l0.017,2.75l-0.129,0.297l-0.082,0.666
		l-0.166,0.646l-0.153,0.647l-0.282,0.603l-0.312,0.592l-0.461,1.652l-0.478,1.454l-0.341,0.792l-0.34,0.688l-0.276,0.893
		l-1.085,0.777l-0.334,0.343l-0.684,1.793l-0.1,0.268l-0.203,0.188l-0.597-0.678l-0.159-0.926l-0.218-0.83l-0.315-1.002
		l-1.871-1.936l-0.908-0.709l-1.564-0.929l-2.412-1.39l-1.089-0.922l-0.222,0.021l-0.11,0.399l-0.467,0.56l-0.08,0.173l-0.194,0.54
		L34.062,53.2l-0.769,0.573l-0.741,0.438l-0.278,0.074l-1.14,0.504l-1.227,0.361l-0.73,0.047L28.35,55.43l-0.27,0.1l-0.945,0.152
		l-0.936,0.19l-1.057-0.011l-1.696-0.156l-0.302,0.113l-0.533-0.127l-0.673-0.043l-0.579,0.021l-0.954-0.174l-1.042-0.029
		l-1.446-0.039l-0.946-0.133l-0.827-0.229l-0.82-0.265l-0.723-0.251l-0.75-0.043l-0.169,0.005l-0.188-0.334l-0.997-0.521
		l-0.766-0.124l0.002-0.189l0.203-0.2l0.766-0.574l0.886-0.737l0.202-0.203l1.104-1.205l1.274-1.676l0.391-0.771l0.244-0.41
		l0.179-0.436l0.176-0.418l0.051-0.943l0.387-0.771l0.01-0.977l0.329-1.041l0.091-1.068l1.564-2.82l0.401-0.537l0.383-0.547
		l0.859-0.908l0.969-0.786l0.523-0.422l1.164-1.003l0.403-0.258l0.99-0.581l0.485-0.413l0.062-0.219l-0.406-0.646l-0.343-0.566
		l0.032-0.193l0.079-0.191l-0.58-0.748l-0.71-1.35l-0.285-0.915l-0.05-0.184l-0.161-0.847l-0.229-0.827l-0.208-1.128l-0.154-0.746
		l-0.015-0.67l-0.166-0.391l-0.017-1.004l0.195-0.303l0.037-0.533l0.056-0.376l0.105-0.657l0.037-1.446l0.168-1.23l0.07-0.769
		L23.501,16.288L23.501,16.288L23.501,16.288z M48.682,43.577l0.103,0.143l0.012-0.057l-0.138-0.062l-0.188-0.199l-0.226-0.195
		l-0.167,0.01l-0.186-0.203l-0.101-0.205L47.697,42.6l0.271,0.023l0.39,0.295l0.069-0.009l0.03-0.177l-1.081-1.051l-0.552,0.047
		l0.042,0.086l0.202,0.191l0.604,0.455l0.059,0.169l-0.34-0.093l-0.68-0.449l-0.35-0.057l0.002-0.34l0.264-0.223l0.014-0.168
		l-0.711-0.212l-0.763-0.067l-0.913-0.555l-1.414,0.03l-0.031,0.053l1.332,0.522l0.545,0.367l0.336,0.172l0.888,0.352l0.47,0.048
		l0.064,0.164l0.854,0.612l0.335,0.186l0.282,0.019l0.188,0.2l0.391,0.188L48.682,43.577L48.682,43.577L48.682,43.577z
		 M49.462,42.617l0.065,0.154l0.051-0.049l-0.145-0.076l-0.19-0.194l0.003-0.289l-0.393-0.397l-0.518-0.035l0.075,0.152l0.856,0.541
		L49.462,42.617L49.462,42.617L49.462,42.617z M19.343,41.348l0.195-0.188l0.199-0.187l0.552,0.098l-0.824,0.632l-0.75,0.754
		l-0.5,1.427l0.043,0.081l0.366-0.396l0.368-0.443l0.26-0.378L20,42.12l0.712-0.651l0.776-0.369l0.38-0.285l1.467-0.713l1.091-0.343
		l0.184-0.054l2.849,0.035l0.713,0.236l0.903,0.637l0.892,0.658l0.544-0.227l-1.128-1.023l-0.059-0.043l-0.472-0.229l-0.469-0.072
		l-0.645-0.522l-1.081-0.001l-0.744-0.156l-0.365-0.1l-0.769,0.026L23.746,39.1l-0.361,0.119l-0.564,0.063l-0.146-0.119l0.972-0.438
		l0.932-0.168l1.498,0.137l0.668,0.057l1.029,0.025l0.589,0.373l0.342,0.164l1.841,1.176l0.531,0.422l0.254-0.09l0.152-0.187
		l-0.437-0.901L30.21,38.93l-0.879-0.582l-0.258-0.271l0.452-0.017l1.201,0.784l0.766,0.976l0.405,0.758l0.154,0.021l0.016-0.771
		l-0.216-0.367l-1.079-0.988l-0.014-0.095l0.416-0.001l0.188,0.196l0.065,0.155l0.059-0.049l-0.153-0.078L31.148,38.4l-0.071-0.166
		l-1.661-1.204l-0.563-0.006l-0.14-0.187l-0.442-0.004l-0.168-0.181l-0.34,0.067l0.532,0.086l0.137,0.185l0.429,0.024l0.064,0.146
		l0.631,0.312l0.081,0.146l-0.729-0.193l-1.606-0.595l-0.943-0.211l-1.14,0.022l-0.151,0.066L24.9,36.961l-1.06,0.038l-0.121,0.078
		l0.185,0.06l0.96,0.043l1.616,0.114l0.256-0.061l1.077,0.421l0.005,0.06l-0.96-0.118l-1.783-0.017l-1.896-0.01l-0.467,0.164
		l-0.782,0.292l-0.019,0.092l-0.156,0.062l0.045,0.053l0.084-0.143l0.645-0.093l0.554-0.067l0.07,0.06l-0.012,0.062l-0.239,0.145
		l-0.145,0.238L22.059,38.7l-1.164,0.368l-0.678,0.336l-0.655,0.544l0.011,0.271L19.3,40.234l-0.046,0.291l0.296-0.332l0.739-0.416
		l0.414-0.234l0.161,0.016l0.019,0.086l-0.072,0.166l-0.45,0.35l-0.601,0.73l-0.01,0.096l-0.188,0.197l-0.191,0.191l-0.157,0.062
		l0.042,0.062L19.343,41.348L19.343,41.348L19.343,41.348z M41.381,40.412l0.191,0.197l0.093,0.15l0.515,0.234l0.521,0.227
		l0.511,0.247l0.512,0.255l1.176,0.6l0.174,0.072l0.423,0.207l0.332,0.18l0.491,0.271l0.631,0.646l0.451,0.269l1.256,1.539
		l0.289,0.363l0.08-0.359l0.156,0.088l0.141,0.278l0.044-0.451l-0.226-0.259l-0.092,0.371l-0.146-0.113l-0.329-0.685l-0.255-0.778
		l-0.865-0.631l-0.857-0.605l-0.66-0.351l-0.97-0.39l-1.004-0.547l-0.351-0.15l-1.42-0.535l-0.646-0.115l-0.188-0.201l-0.106-0.14
		l-0.008,0.062L41.381,40.412L41.381,40.412L41.381,40.412z M42.598,31.931l0.149-0.054l-0.041-0.057l-0.081,0.138l-0.143,0.068
		l0.055,0.04L42.598,31.931L42.598,31.931L42.598,31.931z M33.238,24.694l0.07,0.144l0.046-0.046l-0.146-0.068l-0.065-0.139
		l-0.046,0.044L33.238,24.694L33.238,24.694L33.238,24.694z M47.969,53.989l0.118-0.314l-0.09,0.341l-0.181,0.18l0.076,0.145
		l0.056-0.07L47.969,53.989L47.969,53.989L47.969,53.989z M19.845,51.421l-0.26-0.005L19.448,51.6l-0.415-0.004L17.79,52.21
		l-0.15,0.259l-0.635,0.586l-0.676,0.538l-0.77,0.572l-0.002,0.181l0.5,0.1l0.393-0.357l0.227-0.17l0.163,0.048l0.039,0.194
		l-0.283,0.377l0.095,0.301l0.787,0.014l0.485-0.265l0.161-0.233l0.244,0.031l0.021,0.178l-0.265,0.401l0.079,0.05L19.1,55.03
		l0.441-0.425l0.124-0.398l0.455-0.463l0.067,0.165l-0.339,0.685l-0.165,0.413l0.184,0.028l0.873-0.594l0.164-0.094l0.173,0.03
		l0.023,0.171l-0.447,0.457l0.18,0.055l0.865-0.045l0.746-0.584l0.292-0.246l0.449-0.438l0.532-0.849l0.44-0.848l0.203,0.042
		l-0.874,1.757l-0.633,0.758l-0.227,0.125l-0.263,0.272l0.752,0.082l0.414-0.198l1.024-0.882l0.751-0.573l0.219-0.041l0.049,0.246
		l-0.95,0.836l-0.346,0.332l-0.047,0.178l0.844,0.322l0.203-0.188l0.566-0.775l0.313-0.483l0.819-2.832l0.15-0.846l0.023-0.287
		l0.012-0.48l0.061-1.541l0.07-0.172l0.24,0.031l0.038,0.181l-0.02,2.106l-0.099,0.842l0.078,0.047l0.155,0.102l-0.078,1.124
		l-0.082,0.472l-0.183,0.541l-0.707,1.441L26.4,54.871l0.218,0.222l1.36-1.582l0.31-0.597l0.181-0.335l0.403-0.271l0.017-1.021
		l0.281,0.056l-0.061,0.704l-0.069,1.234l-0.134,0.312l-0.02,0.81l-0.329,0.115l-0.083-0.332l0.102-0.32l-0.051,0.074l-0.022,0.271
		l-0.091,0.016l-0.23,0.578l0.002,0.074l0.086,0.059l0.247-0.088l0.314-0.175l0.029-0.295l0.163-0.065l0.619-1.478l0.068-0.597
		l0.163-0.941l0.034-3.277l0.004-0.965l0.095-0.144l0.263,0.362l0.017,2.798l-0.06,1.638l-0.096,0.49l0.163,1.209l0.513-0.715
		l0.177-0.543l0.173-0.748L31.2,50.93l0.039-0.479l0.064-0.178l0.162-0.062l0.072,0.043l0.048,0.081l0.029,0.577l0.009,0.48
		l0.085,0.566l0.027,0.549l-0.088,0.365l0.087,0.146l0.166-0.062l0.044-0.083l0.279-1.699l0.132-0.429l0.039-1.377l-0.119-1.237
		l-0.036-0.284l0.009-1.156l0.095-0.178l0.246,0.114l0.026,0.978l0.147,0.943l0.002,0.192l-0.014,1.061l0.038,1.349l0.087,0.11
		l0.096-0.37l0.183-0.645l0.004-0.771l0.013-1.257l0.129-0.132l0.077,0.275l-0.039,2.507l0.044,0.276l0.271,0.146l0.083-0.283
		l0.04-1.06l0.133-0.106l0.161,0.063l0.07,0.271l-0.004,0.965l0.085,0.157l0.136-1.368l0.118-0.554l-0.23-0.504l-0.231,0.33
		l-0.242-0.628l-0.223-0.947l-0.514-0.652l-0.069-0.5l-0.153-0.142l-1.24-0.013l-0.124-0.262l-0.238-0.113l-0.097,0.332l0.16,0.843
		l0.049,0.282l0.122,1.233l-0.108,0.113l-0.241-0.28l-0.107-0.767l-0.105-0.563l-0.038-0.664l-0.135-0.363l-0.026-1.646l0.084-0.764
		l0.225-1.018l0.841-1.312l-0.142-0.053l-0.164,0.084l-0.41,0.529l-0.682,0.932l-0.264,0.512l-0.243,1.219l-0.045,0.67l-0.242,0.209
		l-0.099-0.267l0.024-0.994l0.169-0.517l0.22-0.73l0.54-0.898l-0.106-0.117L29.4,42.966l-0.582,1.021l-0.039,3.291l0.158,0.611
		l0.077,0.469l0.089,0.565l0.001,0.482l-0.022,0.964l-0.154,0.65l-0.015,0.289l-0.269-0.055l0.067-0.764l0.017-1.584l-0.091-0.561
		l-0.06-0.275l-0.136-0.741l-0.064-0.737l0.044-2.406l0.228-0.705l0.332-0.679l0.185-0.174l-0.075-0.142l-0.058,0.066l-0.026,0.271
		l-0.273-0.021l-0.536,0.562l-0.462,0.939l-0.168,1.236l-0.266,0.497l-0.093-0.159l0.019-1.061l-0.046-0.277l-0.281,0.268
		l-0.233,0.738l-0.172,1.029l-0.026,0.285l0.098,1.238l0.025,0.284l-0.004,1.64l-0.052,0.379l-0.163,0.65l-0.246,0.711l-0.187,0.049
		l-0.114-0.229l0.014-0.095l0.385-2.543l-0.021-1.42l0.013-0.834l0.089-1.479l0.476-0.817l-0.156-0.041l-0.711,0.611l-0.254,0.737
		l-0.357,0.682l-0.324,0.696l-0.253,0.752l-0.049,0.643l-0.064,0.377l-0.119,0.657l-0.05,0.962l-0.093,0.156l-0.232-0.094
		l0.022-1.442L24.174,49l0.183-1.13l0.064-0.604l-0.312,0.809l-0.072,0.275l-0.317,0.791l-0.042,0.883l-0.157,0.644l-0.272,1.019
		L23,52.21l-0.752,0.696l-0.072-0.188l0.294-0.373l0.217-0.312l0.373-0.884l0.121-0.56l0.129-0.313l0.057-1.221l0.482-1.209
		l-0.17-0.048l-0.683,0.627l-0.122,0.487l-0.795,1.208l-0.817,1.28l-0.176-0.051l-0.04-0.17l0.479-0.826l-0.05-0.256L20.9,50.615
		l-0.613,0.455l-0.013,0.074l0.1,0.166l-0.386,0.418l-0.467,0.481l-0.528,0.801l-0.216,0.272l-0.222-0.006l-0.035-0.254l0.136-0.256
		l0.726-1.01l0.054-0.174l0.381-0.191l0.159-0.074l-0.061-0.047L19.845,51.421L19.845,51.421L19.845,51.421z M37.781,50.441
		l-0.07-0.164l-0.049,0.059l0.146,0.079v0.26l0.051,0.066l0.058,0.002l0.048-0.151L37.781,50.441L37.781,50.441L37.781,50.441z
		 M45.314,49.746l-0.07-0.155l-0.045,0.06l0.143,0.068l-0.006,0.266l0.102,0.082l0.054-0.155L45.314,49.746L45.314,49.746
		L45.314,49.746z M50.82,39.543l0.181,0.01l0.156-0.072L51.1,39.426l-0.17,0.001l-0.082,0.144l-0.16,0.065l0.057,0.05L50.82,39.543
		L50.82,39.543L50.82,39.543z M53.752,38.249l-0.264,0.015l-0.065,0.057l0.097,0.101l0.211-0.192l0.158-0.069l-0.051-0.056
		L53.752,38.249L53.752,38.249L53.752,38.249z M48.762,33.54l0.35-0.086l-0.324,0.112l-0.159,0.059l0.047,0.055L48.762,33.54
		L48.762,33.54L48.762,33.54z M41.254,31.342l0.189-0.123l0.008-0.262l0.184-0.131l0.014-0.253l0.174-0.147l0.021-0.427l0.104-0.312
		l-0.074,0.34l-0.177,0.149L41.677,30.6l-0.196,0.217v0.166l-0.203,0.215v0.165l-0.207,0.219l0.011,0.168l-0.086,0.004l-0.306,0.571
		l-0.135,0.051l0.061,0.062l0.052-0.135l0.392-0.572l0.207-0.218L41.254,31.342L41.254,31.342L41.254,31.342z M40.29,31.136
		l0.106-0.301l-0.078,0.33l-0.139,0.058l0.004,0.059L40.29,31.136L40.29,31.136L40.29,31.136z M40.307,30.179l0.199-0.222
		l-0.013-0.17l0.2-0.19l0.177-0.191l0.021-0.191l0.1-0.311l-0.068,0.339l-0.186,0.132l-0.016,0.252l-0.203,0.187l-0.192,0.385
		l-0.209,0.178l-0.171-0.239l0.428-0.699l1.035-2.35l0.133-1.617l-0.004-0.097l0.016-0.092l0.135-0.276l0.002-0.365L41.4,24.274
		l-0.051,0.573l-0.06,0.862l-0.187,0.833l-0.279,0.905l-0.721,1.454l-0.274,0.252l-0.091-0.096l0.636-1.247l0.544-1.438l0.055-1.024
		l0.137-0.338l0.059-1.188l-0.062-0.855l-0.146-0.094l-0.071-0.146l-0.041,0.055l0.139,0.064l-0.082,1.248l-0.111,0.263l-0.07,1.043
		l-0.17,0.467l-0.074,0.374l-0.355,1.09l-0.15,0.241l-0.152,0.02l-0.035-0.081l0.15-0.449l0.226-0.729l0.182-0.421l0.193-0.746
		l-0.017-3.373l-0.113-0.155l-0.079-0.053l-0.113,0.098l-0.015,0.771l-0.083,0.172l-0.177-0.002l-0.09-0.167l-0.022-0.675
		l-0.214-0.833l-0.272-0.591l-0.094-0.013l-0.065-0.159l-0.054,0.052l0.144,0.084l0.097,0.839l0.222,0.916l-0.025,0.462
		l-0.058,0.031l-0.103-0.354l-0.17-0.634l-0.045-0.18l-0.147-0.092l-0.073-0.349l0.102,0.321l-0.037,0.573l-0.107,0.57l-0.23-0.104
		l-0.035-1.609l-0.18-0.577l-0.049-0.278l-0.143-0.1l-0.066-0.155l-0.05,0.052l0.144,0.076l-0.002,0.812l0.15,0.317l-0.02,2
		l-0.268,0.532l-0.097-0.166l0.169-0.935l0.004-0.283l-0.143-0.331l0.005-0.603l-0.052-0.767l-0.248-0.718l-0.102,0.747
		l-0.174,0.017l-0.028-0.662l-0.151-0.33l-0.073-0.498l-0.149-0.087l-0.011-0.265l-0.103-0.065l-0.044,0.073l0.18,0.236l-0.027,0.67
		l-0.062,0.072l-0.177,0.007l-0.104-0.144l-0.054-0.461l-0.353-0.699l-0.464-0.726l-0.081,0.353l0.532,1.362l-0.044,2.665
		l-0.05,0.28l-0.155,0.65l-0.309,0.697l-0.045,0.278l0.068,0.159l0.246,0.107l0.121,0.476l0.159-0.119l0.329-0.685l0.145-0.555
		l0.242-0.924l0.063-0.668l0.046-0.373l0.164-0.059l0.076,0.041l0.067,0.091l-0.032,0.941l-0.265,1.015l-0.061,0.646l0.237,0.171
		l-0.151,0.422l-0.449,0.943L36.505,26.4l-0.014,1.248l0.057,0.074l0.099-0.099l0.048-0.766l0.211-0.735l0.256-0.708l0.084-0.053
		l0.092-0.015l0.086,0.141l-0.44,1.558L36.9,27.882l0.523-0.054l0.112-0.149l0.126,0.622l0.116,0.15l0.154,0.081l0.285-0.601
		l0.231-0.518l0.348-0.992l0.233-1.118l0.054-0.078l0.163,0.073l0.059,0.074l-0.002,0.179l-0.074,0.372l-0.364,1.379l-0.321,0.694
		l-0.277,0.714l-0.007,0.174l0.911,0.854l0.555,0.776l0.082,0.362l0.313-0.504L40.307,30.179L40.307,30.179L40.307,30.179z
		 M48.07,27.741l0.078,0.151l0.062-0.053l-0.169-0.071l-0.326-0.104L48.07,27.741L48.07,27.741L48.07,27.741z M47.872,25.809
		l0.188-0.22l0.008-0.163l0.22,0.006l-0.099,0.548l-0.241,0.516l0.073,0.154l0.158,0.124l0.264-0.546l-0.03-0.678l-0.157-0.088
		l0.01-0.417l0.147-0.07l-0.048-0.052l-0.075,0.146l-0.201,0.211l0.009,0.172l-0.185,0.13L47.9,25.836l-0.113,0.311L47.872,25.809
		L47.872,25.809L47.872,25.809z M31.496,25.448l0.071,0.146l0.063-0.046l-0.164-0.073l-0.307-0.102L31.496,25.448L31.496,25.448
		L31.496,25.448z M31.719,22.363l0.192,0.202l0.099,0.149l0.336,0.165l0.066-0.028l0.017-0.082l-0.179-0.188l-0.368,0.012
		l-0.19-0.203l-0.135-0.181l-0.246-0.018l-0.125-0.188l-0.257-0.011l-0.131-0.185l-0.254-0.012l-0.071-0.158l-0.435,0.03
		l0.524,0.108l0.133,0.183l0.253,0.013l0.131,0.184l0.253,0.012l0.138,0.181L31.719,22.363L31.719,22.363L31.719,22.363z
		 M55.523,35.183l-0.426,0.022l-0.16,0.162l-0.273-0.139l-0.809,0.094l-0.942-0.121l-0.908-0.057l-0.946-0.009l-0.129-0.332
		l0.756,0.114l0.742,0.004l0.098-0.094l-0.565-0.111l-0.245-0.134l-0.736-0.126l-0.035-0.094l0.156-0.166l0.373,0.144l0.639,0.062
		l0.277,0.133l0.657,0.049l0.669,0.157l0.438-0.14l0.523-0.135l-0.074-0.061l-1.086-0.084l-0.511-0.139l-0.765-0.035L52.1,34.043
		l-0.086-0.426l-1.017-0.205l-1.052-0.073l-0.655,0.395l-0.079,0.147l0.126,0.141l0.604,0.451l0.858,0.598l0.282,0.036l0.079,0.15
		l0.623,0.206l0.754,0.065l1.901,0.001l0.373-0.052l0.099-0.141l0.353,0.01l0.229-0.194l0.153-0.065L55.6,35.026L55.523,35.183
		L55.523,35.183L55.523,35.183z M49.454,43.583l0.06,0.146l0.055-0.043l-0.141-0.076l-0.377-0.39l-0.078-0.153l-0.043,0.062
		l0.146,0.066L49.454,43.583L49.454,43.583L49.454,43.583z M27.721,54.777l-0.346,0.266l0.287-0.021l0.034-0.269l0.135-0.054
		l-0.005-0.062L27.721,54.777L27.721,54.777L27.721,54.777z M30.431,13.885l-0.082-0.344l0.106,0.321V14.3l0.183,0.146l0.022,1.033
		l0.14,0.314l-0.011,1.024l-0.062,0.078l-0.11-0.074l-0.037-0.729l-0.141-0.272l-0.07-0.87l-0.146-0.098l-0.067-0.532l-0.037,0.405
		l0.136,0.099l0.002,1.21l0.146,0.748l-0.218,0.12l-0.123-0.118l-0.183-1.018l-0.182-1.21l-0.104-0.454l-0.229-0.4l-0.09-0.021
		l0.01-0.36l-0.071-0.155l-0.116,0.076l0.018,0.266l0.185,0.15l-0.297,0.178l-0.194-0.302l-0.058,0.045l-0.041,0.082l0.093,1.814
		l-0.068,0.075l-0.516-0.195l-0.672-1.2l-0.014-2.07l-0.112-0.149l-0.274-0.02l-0.134,0.138l-0.022,0.191l-0.016,0.094l-0.13,0.118
		l-0.216-0.135l-0.052-0.486l-0.181-0.213l-0.36-0.097l-0.151,0.094l0.005,0.373l0.109,0.363l0.169,0.742l0.186,0.735l-0.074,0.144
		l-0.245-0.278l-0.097-0.362l-0.065-0.064l-0.285-0.043l-0.133-0.168l0.003-0.458l-0.029-0.464l-0.199-0.651l-0.22-0.305
		l-0.069-0.006l-0.051,0.075l0.15,0.445l0.177,0.541l-0.093,1.109l1.037,1.724l0.26,0.4l0.93,1.217l0.173,0.047l0.116,0.147
		l0.019-0.068l-0.142-0.073l-0.062-0.369l-0.338-0.992l-0.12-0.418l0.266-0.665l0.232,1.005l0.414,1.068l0.466,0.918l0.54,0.707
		l0.631,0.844l0.762,0.594l0.152-0.461l0.254,0.13l0.349,0.93l0.367,0.391l0.872,0.899l0.829,1.385l0.266,0.622l0.041,0.479
		l0.255,0.284l0.069-0.062l0.054-1.726l-0.033-0.188l-0.144-0.849l-0.086-0.369l-0.121-0.657l-0.254-0.699l0.232-0.292l-0.119-0.653
		l-0.03-0.285l-0.164-0.971l-0.154-0.315l-0.027-0.669l-0.147-0.321l-0.088-0.698l-0.107-0.158l-0.155-0.048l-0.058,0.071
		l0.153,1.218l0.205,0.635l-0.099,0.446l-0.236-0.034l-0.482-1.407l-0.26,0.054l-0.109-0.576l-0.109-0.562l0.138-0.247l-0.043-0.196
		l-0.4-0.247l0.062,0.714l0.05,0.651l0.148,0.369l-0.009,0.583l-0.051,0.078l-0.104-0.084l-0.188-0.639l-0.253-1.408l-0.15-0.084
		l-0.003-0.435L30.431,13.885L30.431,13.885L30.431,13.885z M39.836,38.107l-0.096-0.148l-0.016,0.059l0.133,0.069l0.291,0.748
		l0.088,0.028l0.021,0.337l0.243,0.221l-0.039-0.532l-0.251-0.003l0.005-0.44l-0.224-0.293L39.836,38.107L39.836,38.107
		L39.836,38.107z M36.089,26.654l0.143-0.083l0.026-0.729l-0.089-0.133l-0.054,0.97l-0.142,0.093l-0.017,0.552l0.056,0.063
		L36.089,26.654L36.089,26.654L36.089,26.654z M18.937,45.425l-0.188,0.009l-0.583,0.461l-0.011,0.094l-0.322,0.285l0.325,0.084
		l-0.19,0.3l-0.379,0.612l-0.02,0.264l-0.141,0.062l0.041,0.055l0.074-0.145l0.167-0.057l1.392-1.362l0.003-0.299l0.511,0.146
		l0.793-0.388l0.805-0.298l1.183-0.355l0.862-0.029l1.309-0.01l1.678-0.629l0.998-0.947l-0.364-0.131l-0.373-0.115l-2.957-0.018
		l-1.333,0.514l-0.443,0.175l-0.562,0.333l-0.803,0.671l-1.007,0.731l-0.275,0.369l-0.172,0.049L18.52,46l0.194-0.302l0.194-0.3
		l0.2-0.194l0.096-0.003l0.854-0.607l0.907-0.844l0.436-0.219l0.325-0.049l0.964-0.571l1.193-0.323l0.674-0.031l0.771,0.02
		l0.674,0.033l0.763,0.06l0.645,0.086l0.281-0.003l0.724-0.449l-0.03-0.182l-1.441-0.443l-0.175,0.068l-0.059-0.075l0.078-0.167
		l0.744-0.014l0.739,0.193l0.993,0.15l0.372-0.202l0.078-0.081l-0.34-0.381l-1.823-1.027l-0.834-0.144l-0.658-0.063l-0.366,0.034
		l-0.461,0.061l-1.216,0.241l-1.047,0.445l-0.173,0.073l-0.684,0.324l-0.384,0.428l-0.807,0.515l-1.617,1.361l-1.301,1.66
		l-0.037,0.184l0.051,0.076l0.071,0.008l0.284-0.255l0.979-0.927l0.356-0.102l0.008,0.01l-0.062,0.162l-0.646,0.662l0.127,0.332
		L18.937,45.425L18.937,45.425L18.937,45.425z M31.176,37.801l0.065,0.156l0.057-0.047l-0.147-0.085l-0.019-0.267l-0.935-0.512
		l-0.184-0.189l-0.143,0.078l0.071,0.056l0.282,0.024l0.126,0.231l0.733,0.551L31.176,37.801L31.176,37.801L31.176,37.801z
		 M45.835,57.077l-0.163,0.059l-0.4,0.731l-0.002,0.186l0.045,0.076l0.151-0.033l0.372-0.842l-0.013-0.186l0.093-0.021l0.059-0.059
		l-0.031-0.635l-0.055,0.065L45.835,57.077L45.835,57.077L45.835,57.077z M47.359,38.568l-0.032-0.262l-0.056-0.06l-0.07,0.147
		l0.178,0.154l0.285,0.739l0.354,0.179l0.284-0.225l-0.179-0.182l-0.672-0.485L47.359,38.568L47.359,38.568L47.359,38.568z
		 M49.346,35.117l-0.464-0.029l-0.304-0.265l-0.444-0.144l-0.241-0.147l-0.069,0.066l0.016,0.178l1.088,0.701l0.607,0.006
		l0.058,0.166l1.188,0.649l1.1,0.138l0.086-0.04l-0.238-0.256l-0.541-0.157l-0.638-0.15L50.1,35.491l0.344-0.103l-0.471-0.45
		l-0.38-0.038L49.346,35.117L49.346,35.117L49.346,35.117z M55.922,34.003l-0.173,0.193L55.1,34.264l0.559,0.185l0.137,0.273
		l0.294-0.437l0.007-0.278l0.152-0.079l0.068-0.347l-0.26-0.11l-0.754,0.342l-0.802-0.005l-0.882,0.095l0.293,0.079L55.922,34.003
		L55.922,34.003L55.922,34.003z M39.523,51.785l0.072,0.14l0.047-0.051L39.5,51.809v-0.281l-0.631-1.601l-0.1,0.117l-0.008,0.577
		l-0.008,0.646l0.521,0.514L39.523,51.785L39.523,51.785L39.523,51.785z M25.046,14.188l0.06,0.156l0.056-0.045l-0.143-0.085
		l-0.031-0.282l-0.85-1.924l-0.145-0.273l-0.076,0.771l0.548,1.096l0.486,0.579L25.046,14.188L25.046,14.188L25.046,14.188z
		 M36.649,29.004l-0.076-0.145l-0.038,0.058l0.14,0.061l0.057,0.754l0.077,0.469L36.8,31.157l-0.114,0.267l0.097,0.342l0.171,0.104
		l0.237-0.769l0.042-1.31l-0.223-0.506L36.649,29.004L36.649,29.004L36.649,29.004z M37.947,35.751l0.072,0.151l0.412,0.196
		l-0.043-0.3l-0.459-0.029l-0.062-0.168l-0.442-0.45l-0.49-1.678l-0.228-0.199l-0.078,0.163l0.165,1.226l0.255,0.613l0.614,0.473
		L37.947,35.751L37.947,35.751L37.947,35.751z M46.607,36.82l-0.146-0.089l0.16,0.075l0.001,0.095l1.075,0.93l0.524,0.214
		l1.006,0.549l0.367,0.174l0.23-0.072l-0.057-0.098l-1.145-0.686l-0.217-0.281l-0.698-0.364l-0.726-0.473L46.607,36.82L46.607,36.82
		L46.607,36.82z M39.997,43.125l-0.175,0.044l-0.896,0.868l-0.231,0.304l-0.271,0.609l-0.376,0.659l-0.398,1.006l-0.016,1.504
		l-0.166,0.189l0.264,0.307l0.035-0.184l-0.165-0.34l0.146-0.085l0.032-0.185l0.322-1.17l0.645-1.043l0.802-1.278l0.421-0.947
		l0.008-0.276l0.146-0.078l-0.051-0.061L39.997,43.125L39.997,43.125L39.997,43.125z M58.343,23.434l-0.157,0.072l-0.105,0.366
		l-0.859,2.127l0.03,0.073l0.437,0.15l-0.027,0.216l-1.232,0.864l-0.263,0.604l0.063,0.068l0.875-0.346l0.979-0.646l0.062-0.329
		l0.164-0.841l0.047-1.828l-0.033-0.575l0.137-0.078l-0.048-0.055L58.343,23.434L58.343,23.434L58.343,23.434z M46.604,55.521
		l0.189-0.166l0.01-2.021l-0.025-0.187l-0.131-0.295l0.008-0.799l-0.537-1.06l-0.531-0.661l-0.238,0.195l-0.002,0.182l0.152,0.389
		l0.043,1.006l0.105,0.293l0.024,1.045l0.197,0.552l0.043,0.282l0.149,0.087l0.068,1.704l0.051-0.082l0.014-1.527l-0.151-0.079
		l-0.131-1.114l-0.001-0.095l0.121-0.11l0.154,0.084l0.09,0.459l0.183,0.924l0.011,0.094l0.163,0.925l-0.18,0.174l-0.013,0.552
		l0.086,0.174L46.604,55.521L46.604,55.521L46.604,55.521z M32.801,27.614l-0.078-0.149l-0.051,0.054l0.154,0.071l0.643,0.91
		l0.729,0.614l0.224,0.18l1.163,1.057l0.586,0.908l0.249-0.201l0.012-1.084l-0.224-0.701l-0.572-0.645l-0.443-0.122l-0.542-0.169
		l-1.568-0.69L32.801,27.614L32.801,27.614L32.801,27.614z M47.258,50.516l0.082,0.354l-0.104-0.336l-0.012-0.84l-0.774-1.596
		l-1.029-1.242l-0.267-0.275l-0.53-0.544l-0.353-0.325l-0.812-0.676l-0.153-0.04l-0.02,0.174l0.281,0.501l0.598,1.096l0.396,0.975
		l0.424,0.961l0.646,0.719l0.786,1.319l0.498,1.034l0.124-0.182l-0.146-0.453l-0.064-0.465l-0.318-0.486l-0.13-0.467l-0.09-0.359
		l0.008-0.008l0.162,0.066l0.249,0.395l0.385,0.645L47.258,50.516L47.258,50.516L47.258,50.516z M56.305,32.662l0.174-0.173
		l-0.217-0.908l-0.158-0.061l-0.158,0.188l-0.551,0.084l0.502-0.018l0.025-0.092l0.133,0.295l-0.521,0.288l-1.515-0.17l-0.707,0.091
		l0.067-0.335l0.454,0.001l0.093-0.148l-0.26-0.356l0.003-0.098l0.119-0.124l0.669-0.021l0.069-0.062l-0.01-0.066l-0.24-0.146
		l-0.051-0.167l0.135-0.095l0.43,0.124l0.604,0.029l0.535,0.006l0.562-0.281l-0.183-0.08l-0.672-0.037l-0.384-0.122l-0.17,0.062
		l-0.667-0.284l-0.111,0.019l-0.756,0.558l-0.854,0.636l0.291,0.091l0.18,0.059l0.148,0.118l0.041,0.086l-0.104,0.117l-1.402,0.008
		l-1.656,1.008l-0.018,0.198l0.081,0.051l1.218,0.107l0.346-0.217l0.697,0.189l1.477,0.017l0.076-0.054l-0.03-0.158l-0.153-0.131
		l-0.847-0.066L52.659,32.6l-0.374-0.267l0.138-0.093l0.7,0.196l2.789,0.028l0.296-0.128l0.104,0.332l-0.545,0.282l0.506-0.031
		L56.305,32.662L56.305,32.662L56.305,32.662z M46.341,44.152l0.402-0.014l0.071,0.154l0.06-0.052l-0.151-0.084L46.7,43.91
		l-0.755-0.651l-0.674-0.344l-2.055-1.022l-1.562-0.705l-0.344-0.156l-0.078,0.046l0.938,1.22l1.47,0.786l0.906,0.537l0.414,0.237
		l0.77,0.569l0.217,0.188l0.525,0.561l0.535,0.674l0.566,0.768l0.384,0.416l0.056-0.276L47.2,45.102l-0.802-0.791l-0.041-0.174
		L46.341,44.152L46.341,44.152L46.341,44.152z M34.451,17.207l-0.068-0.159l-0.048,0.061l0.141,0.074l0.062,0.951l-0.046,0.242
		l-0.207,0.392l0.13,0.371l-0.31,0.269l-0.068-0.925l-0.115-0.273l-0.081-1.073l-0.304-1.103l-0.101-0.366l-0.201-0.191L33.12,15.62
		l0.145,1.516l0.023,0.189l0.241,1.311l0.13,0.841l0.042,0.669l0.216,0.829l0.141,0.848l0.142,0.418l-0.017,1.581l0.107,1.638
		l0.127-0.674l0.229-0.726l0.229,0.107l0.052,0.177l-0.143,0.465l0.017,1.711l0.253,0.282l0.048-0.078l0.106-1.857l0.145-0.515
		l0.327-1.191l0.252-0.543l0.021-2.961l-0.168-0.226l-0.088-0.04l-0.093,0.146l-0.031,0.864l-0.027,0.962l-0.202,0.93l-0.305,0.043
		l0.134-0.724l0.016-0.77l0.008-0.866l0.008-0.76l-0.196-0.649l-0.4-1.271L34.451,17.207L34.451,17.207L34.451,17.207z
		 M46.202,39.702l0.062,0.155l0.209,0.164l-0.018-0.264l-0.258-0.052l-0.043-0.274l-0.276-0.393l-0.709-1.623l-1.94-1.561
		l-0.776,0.019l0.286,0.956l-0.287,0.253l-0.631-1.265l-0.916,0.233l-0.381,0.233l0.404,0.822l-0.176,0.038l-0.77-0.711L39.87,36.76
		l0.271,0.756l0.807,0.841l0.332,0.838l0.635,0.43l0.174-0.041l-0.492-0.713l0.104-0.292l0.435,0.377l0.535,0.553l0.161,0.104
		l0.451,0.147l0.299,0.28l0.287-0.016l0.149-0.096l-0.019-0.174l-1.035-1.377l0.068-0.252l0.217,0.021l0.293,0.468l0.524,0.671
		l0.748,0.591l0.35,0.14l0.232-0.194l-0.51-0.567l-0.373-0.441l-0.211-0.426l-0.175-0.642l0.195-0.13l0.081,0.043l0.326,0.768
		l0.479,0.713l0.714,0.525L46.202,39.702L46.202,39.702L46.202,39.702z M17.535,48.28l0.869-0.021l0.913-0.508l0.719,0.11
		l-0.126,0.24l-0.623,0.033l-1.624,0.529L16.82,49.34l0.057,0.064l0.889,0.086l0.23,0.1l0.471,0.04l0.449-0.151l0.559-0.113
		l0.589-0.096l0.753-0.33l0.443-0.055l0.771-0.475l1.373-1.012l0.035-0.157l-0.708,0.153l-0.666-0.008l-0.646,0.18l-0.15-0.096
		l0.727-0.449l0.268,0.074l0.601-0.128l1.193-0.591l1.014-1.191l-0.529,0.062l-0.28,0.021l-0.577-0.009l-0.769-0.021l-1.403,0.265
		l-1.837,0.806l-0.302,0.147l-1.145,0.948l-0.465,0.479l-0.206,0.414l-0.158,0.076l0.055,0.057L17.535,48.28L17.535,48.28
		L17.535,48.28z M32.094,23.524l0.054,0.143l0.059-0.003l-0.141-0.111L31.97,23.4l-0.563-0.631l-0.14-0.156l-0.549-0.237
		l-0.525,0.182l-1.417-0.054l-0.304-0.124l-0.73-0.038l-0.481-0.008l-0.849-0.139L25.346,22.1L24.4,21.675l-0.892-0.741
		l-0.252,0.129l-0.05,2.139l0.044,0.185l0.667,0.532l0.887,0.343l1.023,0.244l0.303,0.121l0.447,0.006l1.224,0.175l1.053,0.028
		l0.083-0.049l-0.269-0.229l0.091-0.063l0.943,0.06l0.366,0.104l1.022,0.239l1.018,0.53l0.926,0.688l0.494,0.291l0.221-0.034
		l-0.666-0.674l-0.98-0.602l-1.589-0.643L29.8,24.212l-0.162-0.271l-0.357-0.062l-0.426-0.1l-0.213,0.063l-0.19-0.232l0.305-0.193
		l0.129-0.281l1.813,0.028l0.921,0.321L32.094,23.524L32.094,23.524L32.094,23.524z M37.073,43.648l0.346-0.278l0.229-0.94
		l0.021-0.386l-0.137-1.226l0.021-0.666l0.065-0.079l0.19,0.204l0.238,1.021l-0.115,1.328l-0.033,0.478l0.08,0.097l0.312-0.695
		l0.222-0.629l0.07-0.039l0.371,0.054l0.066-0.262l0.018-1.63l-0.165-0.556l-0.073-0.373l-0.215-0.633l-0.211-0.645l0.251-0.207
		l0.597,1.607l0.207,0.834l0.016,0.964l-0.047,0.804l-0.078,0.688l0.588-0.752l0.291-0.748l0.012-1.138l-0.355-0.665l-0.638-1.183
		l-0.337-0.69l-0.439-0.501l-0.525,0.387l-0.361,0.447l-0.033,0.683l-0.09,0.642l-0.27-0.251l-0.121-0.25l-0.211,0.228l-0.273,0.914
		l-0.195,0.561l-0.001,0.27l-0.267,1.399l-0.348,0.287l-0.233,0.147l-0.11,0.157l-0.906,1.222l-0.063,0.072l0.111,0.324
		l-0.468,0.357l-0.285-0.201l0.148-0.067l-0.049-0.052l-0.074,0.145l-0.188,0.002l-0.828,0.475l-0.305,0.363l0.428,0.113
		l0.529,0.148l0.897-0.36l0.415-0.225l0.387-0.433l0.254-0.925l0.263-0.257l0.036,0.764l-0.337,0.664l0.033,0.17l0.175,0.045
		l0.846-0.613l0.23-0.614l0.091-0.56l0.063-0.055l0.242,0.27l0.057,0.476l-0.143,0.093l-0.077,0.34l0.353,0.057l-0.119-0.238
		L37.073,43.648L37.073,43.648L37.073,43.648z M47.064,31.811l-0.729,0.067l0.545,0.334l0.375-0.038l0.193,0.34l0.851,0.404
		l0.246,0.053l0.543-0.26l0.07-0.08l0.033-0.291l0.179-0.317l1.017-2.157l0.445-1.05l0.085-0.029l0.179,0.155l-0.357,1.087
		l-0.262,0.616l-0.324,0.693l-0.086,0.245l-0.453,0.502l0.085,0.259l0.917-0.83l1.037-0.51l0.513-0.693l0.485-0.713l0.392-0.779
		l0.173-0.929l0.083-1.246l0.114-0.851l-0.023-0.81l-0.207,0.315l-0.26,0.768l-0.057,0.824l-0.252,0.519l-0.098-0.175l0.172-0.819
		l0.008-0.978l-0.055-0.078l-0.099,0.107l-0.065,0.473L52.3,26.682l-0.062,0.277l-0.131,0.653l-0.051,0.281l-0.15,0.084l0.021,0.02
		l0.011-1.115l0.168-0.376l0.055-0.668l0.136-0.276l-0.116-0.235l-0.166,0.028l-0.371,0.869l-0.229-0.28l0.098-0.269l0.004-1.053
		l-0.049-0.05l-0.212,0.312l-0.276,0.47l-0.049,1.664l-0.102,0.119l-0.188-0.439l0.008-0.372l0.113-1.035l-0.095-0.171l-0.093,0.777
		l-0.17,0.355l-0.217,0.412l-0.01,0.687l-0.08,0.747l-0.111-0.417l0.021-0.385l0.009-0.482l0.024-0.45l0.162-0.301l0.011-1.007
		l0.148-0.846l-0.11-0.048l-0.14,0.553l-0.125,0.655l-0.149,0.507l-0.04,0.784L49.4,27.124l-0.03,1.254l-0.054,0.081l-0.119-0.312
		l-0.038-0.281l-0.091-0.372l0.136-0.251l0.045-1.416l0.144-0.375l-0.074-0.173l-0.228,0.318l-0.181,0.546L48.835,26.6l0.149,0.282
		l-0.174,0.395l-0.017,1.55l-0.175,0.652l-0.102,0.366l-0.365,0.886l-0.238,0.303l-0.246-0.107l0.131-0.376l0.215-0.43l0.133-0.459
		l0.254-1.02l-0.271-0.461l-0.187-0.043l-0.287,0.011l-0.073-0.146l-0.054,0.051l0.15,0.071l0.107,0.332l-0.244,0.135l0.461,0.421
		l-0.283,0.191l0.039,0.403l-0.176-0.075l-0.423,0.105l-0.377-0.514l-0.207-0.012l-0.089,0.25l0.16,0.634l-0.024,0.178l-0.149,0.09
		l-0.172-0.543l-0.074-0.465l-0.158-0.437l-0.067-0.029l-0.063,0.067l-0.076,0.574l-0.26-0.277l0.08-0.174l-0.007-0.208
		l-0.475-0.422l0.218-0.519l0.033-0.623l-0.182,0.063l-0.221-0.26l-0.078,2.116l0.459,0.704l0.877,0.388l0.195,0.012l0.094,0.151
		l0.769,0.314l0.042,0.203l-0.062,0.062l-0.176-0.076l-1.145-0.442l-0.258,0.067l0.715,0.402l0.776,0.323l0.699,0.458l-0.218,0.092
		l-1.158-0.606l-0.305,0.029l-0.082,0.112l0.777,0.333L47.064,31.811L47.064,31.811L47.064,31.811z M31.27,28.345l0.075,0.141
		l0.04-0.055l-0.141-0.06l-0.287-0.339l-0.661-0.229l-0.933-0.035l-1.042-0.046l-0.931-0.007l-0.87-0.011l-0.178-0.062l-0.06-0.162
		l0.05-0.068l0.563-0.068l0.663-0.073l0.829,0.079l2.084,0.054l0.735,0.324l0.21-0.056l0.045-0.552l-0.202-0.185l-0.934-0.485
		l-0.921-0.237l-0.69-0.187l-0.339-0.005l-0.455-0.063l0.06-0.121l1.251,0.022l0.646,0.168l0.279,0.041l1.579,0.909l0.466-0.46
		l-0.013-0.209l-1.834-0.765l-0.809-0.281l-0.581-0.007L28.2,25.201l-1.326-0.173l-1.222-0.194l-0.189-0.028l-1.648-0.48
		l-0.153-0.116l-0.074-0.062l-0.165-0.092l-0.214,0.123l0.008,0.287l0.794,1.513l0.231,0.328l0.996,0.548L25.03,27.06l-0.603-0.179
		l-0.598-0.414l-0.38-0.456l-0.053,0.253l0.151,0.651l0.291,1.008l0.362,0.73l0.576,0.43l0.431,0.203l0.527,0.229l0.692,0.321
		l0.658,0.368l0.455,0.136l-0.385,0.247l-1.416-0.626l-1.354-0.658L24.3,29.579l0.489,1.037l0.121,0.149l0.974,0.773l0.88,0.419
		l1.918,0.033l0.089,0.026l0.077,0.057l-0.239,0.26l-0.379,0.046l-1.421-0.042L25.788,32l-0.146,0.087l-0.003,0.275l0.36,0.566
		l0.878,0.748l0.264,0.028l0.343,0.135l-0.092,0.343l0.091,0.148l2.323,1.298l1.437,0.044l0.992-0.409l0.586-0.319l0.47-0.324
		l0.066-0.223l-0.559-0.986l-0.364-0.058l-0.556-0.132l-0.674-0.025l-0.964-0.001l-0.384-0.023l-0.146-0.097l0.065-0.069
		l0.472-0.204l1.126-0.007l0.866,0.032l0.265-0.214l-0.178-0.183l-0.189-0.033l-0.116-0.232l0.121-0.241l-0.881-0.601l0.278-0.064
		l0.365-0.049l0.046-0.076l-0.049-0.184l-0.732-0.265l-1.113-0.012l-0.091-0.079l0.072-0.119l1.248-0.016l0.355-0.042l-0.897-0.415
		l0.054-0.213l0.732,0.245l0.025-0.328l-0.141-0.128l-1.041-0.394l-0.228,0.054l-0.349-0.246l0.082-0.055l0.848,0.103l0.535,0.102
		l0.099-0.078l0.038-0.178l-0.48-0.442L31.27,28.345L31.27,28.345L31.27,28.345z M27.125,18.102l-0.359-0.053l-1.417-0.192
		l-0.577,0.002l-0.129-0.121l0.495-0.222l1.059,0.011l0.881,0.083l-0.432-0.241l-0.635-0.163l-0.552-0.162l-0.577-0.216
		l-0.596-0.421l0.006-0.169l0.156-0.003l0.169,0.091l1.114,0.55l0.179-0.043l-0.246-0.26l-1.056-0.661l-0.113-0.139l-0.004-0.095
		l0.151-0.083l0.689,0.321l0.173-0.031l0.004-0.069l-1.255-1.327l-0.083-0.047l-0.07,0.029l-0.082,1.138l-0.114,0.266l-0.219,1.61
		l0.024,0.663l1.025,1.003l-0.576,0.024l-0.574-0.308l-0.129,0.916l0.632,1.269l1.071,0.661l0.574,0.056l0.611,0.112l0.617-0.322
		l0.542-0.18l0.667-0.088l-0.961-0.148l0.042-0.148l1.923,0.04l0.182,0.052l0.463,0.112l0.447,0.15l0.439-0.053l-0.521-0.251
		l-0.441-0.177l-0.496-0.228l-0.842-0.068l-0.321-0.147l-0.757-0.012l-0.154-0.092l0.138-0.102l0.961-0.009l0.204,0.033l0.339,0.15
		l0.608,0.043l1.697,0.764l0.067-0.187l-1.349-0.952l-1.309-0.208l-0.253-0.11l-0.697-0.291l-0.752,0.1l-0.279-0.245l0.541-0.167
		l0.938,0.098l0.847,0.023l0.078-0.052l-0.038-0.153l-0.563-0.359L27.125,18.102L27.125,18.102L27.125,18.102z M39.01,47.71
		l0.045,1.517l0.182,0.013l0.334-0.787l0.353-0.892l0.856-2.226l0.302,0.494l-0.651,1.485l-0.633,1.494l0.312,0.232l-0.008,0.882
		l0.053,0.833l0.13,0.182l0.163,0.072l0.188-0.171l-0.14-1.129l0.375-0.871l0.241-0.725l0.181-0.444l0.368-1.29l0.072-0.67
		l0.078-0.272l0.075-0.474l0.009-0.608l-0.19-0.614l-0.24-0.521l-0.075-0.002l-0.062,0.271l-0.262,0.201l-0.191-0.937l-0.212-0.187
		l-0.091,0.274l-0.598,1.408L39.34,45.33l-1.104,1.992l0.011,2.615l0.05,0.043l0.068-0.172l0.027-1.061l0.049-0.184l0.3-0.342
		l0.071-0.763l0.141-0.173l0.15-0.023l0.031,0.178L39.01,47.71L39.01,47.71L39.01,47.71z M15.839,51.352l-0.517-0.199l-0.539,0.027
		l-0.523,0.483l0.073,0.413l0.999,0.332l0.085,0.188l0.354-0.051l0.288-0.029l0.322-0.027l0.504-0.25l-0.264-0.145l-0.237-0.115
		l-0.565-0.129l0.139-0.108l1.807-0.149l0.36-0.124l0.605-0.106l0.63-0.354l0.341-0.173l1.134-0.701l1.096-1.074l-0.21-0.101
		l-0.393,0.276l-0.458,0.125l-0.624,0.234l-0.271,0.088l-1.204,0.299l-0.443,0.054l-0.41-0.168l-1.788-0.052l-0.83,0.896
		l0.775,0.355L15.839,51.352L15.839,51.352L15.839,51.352z M33.854,37.196l-0.946,2.219l0.018,1.612L33.2,40.83l0.113-0.568
		l0.396-0.761l0.47-0.469l0.749-0.569l0.903-0.344l0.245-0.074l0.418,0.003l0.213-0.042l0.557-0.742l0.809-0.648l-0.934-0.475
		l-1.992-0.036l-0.218,0.054L33.854,37.196L33.854,37.196L33.854,37.196z M33.256,42.836l-0.018,1.001l0.044,0.081l0.166,0.059
		l0.694-0.502l0.826-0.906l0.454-0.951l0.516-1.43l-0.08-0.188l-1.146,0.868l-0.079-0.193l0.41-0.432l0.862-1.021l0.312-0.212
		l0.138-0.139l0.021-0.302l-0.104-0.104l-0.688,0.082l-1.592,1.196l-0.338,0.78l-0.166,0.545l-0.153,0.649l0.054,0.142l0.169-0.062
		l0.177-0.223l0.204-0.062l0.069,0.234L33.256,42.836L33.256,42.836L33.256,42.836z M47.066,46.6l-0.409-0.51l-1.117-1.314
		l-1.403-0.988l-0.91-0.527l-1.134-0.484l-0.092,0.045l0.408,0.716l1.164,1.151l0.222,0.183l0.523,0.419l0.439,0.369l0.445,0.492
		l0.482,0.459l0.393,0.093l1.229,1.555l0.262,0.402l0.274,0.608l0.203,0.535l0.112,0.088l0.059-0.084l-0.097-0.658l-0.297-1.224
		L47.066,46.6L47.066,46.6L47.066,46.6z M54.393,29.255l0.045-0.216l0.211-0.923l0.033-0.187l0.158-1.133l0.014-1.539l-0.017-0.479
		l-0.082-0.162l-0.267,0.262l-0.057,0.853l-0.062,0.073l-0.108-0.106l-0.117-0.737l-0.185-0.013l-0.099,0.648l-0.157,0.674
		l-0.054,1.223L53.6,27.87l-0.176,0.923l-0.921,1.688l0.049,0.158l0.22,0.006l0.816-0.61L54.393,29.255L54.393,29.255L54.393,29.255
		z M43.154,45.713l-0.104,0.115l-0.028,0.577l-0.148,0.651l-0.297,1.402l-0.233,0.826l-0.135,0.833l-0.153,0.354l-0.018,1.705
		l0.24,0.77l0.807,0.923l-0.023-0.661l-0.207-0.18l-0.209-0.17l-0.028-0.877l0.14-0.127l0.211-0.22l0.039-0.643l0.042-0.38
		l0.156-0.952l0.183-0.731l0.043-1.445l0.008-0.933l0.123-0.219L43.154,45.713L43.154,45.713L43.154,45.713z M36.085,48.036
		l0.592,1.524l0.182,0.537l0.261,0.269l0.077-0.152l-0.081-0.37l-0.454-0.934l-0.042-0.462l-0.158-0.308l0.007-0.656l0.105-0.125
		l0.058,0.076l0.049,0.472l0.171,0.546l0.499,1.227l0.144,0.125l0.066-0.229l-0.319-1.666l0.032-1.304l0.159-0.396l0.726-1.441
		l-0.046-0.324l-1.207,0.524l-0.808,1.886L36.085,48.036L36.085,48.036L36.085,48.036z M43.354,35.256l0.768-0.363l0.188,0.005
		l0.142,0.104l-0.032,0.17l-0.234,0.16l-0.022,0.19l1.444,0.681l1.068,0.064l0.266,0.125l0.22-0.21l-0.511-0.413L46.062,35.3
		l-0.869-0.087l-0.065-0.07l0.284-0.258l0.581-0.006l0.174-0.062l0.002-0.073l-1.093-0.752l-0.166-0.084l-0.729-0.007l-0.811,0.283
		l-0.561,0.562l0.022,0.242L43.354,35.256L43.354,35.256L43.354,35.256z M36.562,35.457l-0.508-1.265l-0.006-1.511l-0.057-0.276
		l-0.153-0.092l-0.72,0.232l-0.595,0.299l-0.633,0.214l-0.152,0.106l0.125,0.436l0.803-0.017l0.568-0.053l-0.033,0.21l-0.51,0.221
		l-0.53,0.131l0.63,0.838l0.525-0.145l0.09,0.259l-0.303,0.214l0.025,0.176l0.159,0.092l0.284,0.008l0.423-0.138L36.562,35.457
		L36.562,35.457L36.562,35.457z M37.727,29.573l-0.199,0.214l0.078,0.24l-0.044,1.093l-0.284,1.098l0.728,0.4l0.702,0.697
		l0.696,0.883l0.248-0.293l-0.01-0.761l-0.763-2.149l-0.187-0.204l-0.145,0.208l-0.477,0.657l-0.059-0.178l0.148-0.549l0.145-0.753
		L37.727,29.573L37.727,29.573L37.727,29.573z M41.436,50.822l0.389-0.92l0.193-0.836l0.225-0.828l0.222-0.928l0.149-0.843
		l-0.027-0.762l-0.092-0.468l-0.042-0.575l-0.119-0.06l-0.069,0.445l-0.065,0.376l-0.093,0.468l-0.228,1.023l-0.31,0.904
		l-0.539,1.777l-0.311,0.422l0.375,1.379l0.244,0.4l0.094,0.014l0.146-0.094l-0.102-0.269L41.436,50.822L41.436,50.822
		L41.436,50.822z M44.338,54.961l0.206,0.52l0.271,0.336l0.008,0.455l-0.107,0.246l0.286,0.459l0.08-0.293l0.103-1.123l0.021-0.268
		l0.073-0.473l0.021-2.119l-0.006-0.771l-0.165-0.744l-0.063-0.572l-0.24-0.697l-0.12,1.57l-0.147,0.369l-0.031,0.559l-0.166,0.659
		L44.338,54.961L44.338,54.961L44.338,54.961z M43.971,52.938l0.182-0.701l0.059-0.471l0.152-0.938l0.012-1.823l-0.18-0.838
		l-0.301-0.686l-0.088,0.361l-0.179,1.512l-0.052,0.475l-0.062,0.375l-0.132,0.75l-0.087,0.855l-0.025,0.176l0.082,0.757
		l0.174,0.739l0.322,1.22L43.971,52.938L43.971,52.938L43.971,52.938z M33.744,31.061l0.196,0.034l1.431-0.016l0.077-0.153
		l-0.419-0.7l-0.478-0.378l-0.542-0.396l-0.43-0.385l-0.487-0.464l-0.424-0.316l-0.048,0.085l-0.027,2.018l0.085,0.265
		L33.744,31.061L33.744,31.061L33.744,31.061z M42.574,33.204l-0.037-0.188l-0.168-0.06l-0.363,0.103l-0.895,0.302l-0.668,0.92
		l-0.01,0.969l-0.314,0.459l0.376,0.045l0.764-0.81l0.396-0.653L42.574,33.204L42.574,33.204L42.574,33.204z M33.972,31.495
		l-0.485-0.209l-0.531-0.198l-0.08,0.028l-0.041,0.07l0.408,1.362l0.388,0.218l0.737-0.246l0.769-0.385l0.273-0.077l0.378-0.272
		l-0.241-0.27L33.972,31.495L33.972,31.495L33.972,31.495z M55.262,27.994l0.078-0.035l0.541-0.777l0.288-0.725l0.03-0.548
		l0.08-0.531l-0.288-0.223l0.002-0.562l-0.08-0.555l-0.078,0.166l-0.007,0.765l-0.043,0.378l-0.124,0.126l-0.236-0.1l-0.09-0.464
		l-0.069,0.335l-0.078,2.582L55.262,27.994L55.262,27.994L55.262,27.994z M32.23,41.678l-0.217,0.147l-0.679,0.938l-0.201,0.918
		l-0.202,0.903l0.27,0.483l0.928-1.442l0.312-0.584l-0.088-0.303l-0.263,0.396l-0.157,0.008l-0.049-0.078l0.019-0.306l0.498-0.592
		L32.23,41.678L32.23,41.678L32.23,41.678z M45.32,36.891l0.894,1.875l0.181,0.338l0.283,0.381l0.361,0.332l0.611,0.229l0.472,0.032
		l0.077-0.079l-0.961-0.532l-0.541-1.14l-0.413-0.641l-0.082-0.18l0.002-0.186l-0.78-0.485L45.32,36.891L45.32,36.891L45.32,36.891z
		 M34.436,35.86l-0.049-0.104l-0.795-0.813l-0.199,0.047l-0.813,0.508l-0.865,0.411l-0.073,0.057l-0.023,0.17l0.143,0.159
		l0.55-0.029l0.559-0.081l0.451-0.059l0.563-0.117L34.436,35.86L34.436,35.86L34.436,35.86z M44.616,26.738l0.139-0.303l-0.034-0.17
		l-0.145,0.049l-0.588,1.279l-0.174,0.543L43.7,28.808l0.965,0.57l0.091-0.137l-0.004-0.759L44.616,26.738L44.616,26.738
		L44.616,26.738z M44.457,33.426l-0.436-0.131l-0.629-0.11l-0.777,0.392l-1.119,1.752l0.398,0.052l0.39-0.229l0.063-0.074
		l0.074-0.311l0.477-0.633l0.912-0.527L44.457,33.426L44.457,33.426L44.457,33.426z M35.128,47.387l0.164,0.684l0.23,0.82
		l0.046,0.078l0.165,0.069l0.062-0.144l-0.094-0.226l0.019-1.892l0.371-1.084l-0.092-0.092l-0.614,0.076l-0.244,0.445L35.128,47.387
		L35.128,47.387L35.128,47.387z M38.07,35.35l0.449-0.111l0.004-0.437l-0.239-0.54l-0.3-0.697l-0.316-0.337l-0.241-0.144
		l-0.163,0.033l0.153,0.726l0.309,0.762l0.137,0.545L38.07,35.35L38.07,35.35L38.07,35.35z M57.335,28.557l-0.913,0.164
		l-0.494-0.128l-0.473,0.099l-0.236,0.38l0.236,0.102L55.718,29l1.513-0.042l0.422-0.242l0.229-0.728l-0.057-0.284l-0.412,0.297
		l-0.411,0.348L57.335,28.557L57.335,28.557L57.335,28.557z M28.418,15.165l0.053-0.816l-0.112-0.269l-0.055-1.006l-0.244-0.59
		l-0.28-0.128l0.007,1.181l0.181,0.952L28.418,15.165L28.418,15.165L28.418,15.165z M46.471,25.307l-0.257,0.229l-0.44,1.277
		l-0.004,0.735l0.319,0.36l0.138-0.734l0.166-0.735l0.284-0.723L46.471,25.307L46.471,25.307L46.471,25.307z M25.436,36.389
		l0.084-0.051l0.209-0.42l-1.031-0.02l-0.557,0.125l-0.635,0.192l-0.563,0.276l0.643-0.089l0.549-0.034l0.646-0.065l0.563,0.084
		L25.436,36.389L25.436,36.389L25.436,36.389z M50.189,45.186l-0.281-0.783l-0.331-0.329l-0.08,0.001l-0.06,0.074l-0.006,0.095
		l0.229,0.926l0.105,0.267l0.486,1.345l0.053,0.018l0.064-0.468l-0.141-0.323L50.189,45.186L50.189,45.186L50.189,45.186z
		 M13.764,52.307l-0.513,0.518l0.155,0.203l0.28,0.009l1.01-0.175l0.434-0.252l-0.73-0.131L13.764,52.307L13.764,52.307
		L13.764,52.307z M56.825,25.832l0.114-0.095l0.225-0.53l0.189-0.54l0.181-0.545l0.187-0.537l-0.031-0.084l-0.147,0.022L57.35,24.06
		L57,24.299l-0.216,0.857L56.825,25.832L56.825,25.832L56.825,25.832z M54.258,36.695l-0.188,0.286l-0.311,0.242l0.834,0.041
		l0.463-0.682l0.203-0.512l-0.053-0.052L54.258,36.695L54.258,36.695L54.258,36.695z M24.848,11.874l-0.657-1.278l-0.381-0.188
		l-0.056,0.068l0.253,0.608l0.746,1.328L24.848,11.874L24.848,11.874L24.848,11.874z M31.102,53.094l-0.443,0.487l-0.351,0.44
		l-0.397,0.504l0.351,0.059l0.433-0.238l0.472-1.086L31.102,53.094L31.102,53.094L31.102,53.094z M23.741,35.531l0.079,0.042
		l1.645-0.372l0.075-0.056l-0.26-0.279l-0.647-0.006L23.741,35.531L23.741,35.531L23.741,35.531z M40.012,51.359l0.057-0.17
		l-0.137-0.348l-0.115-0.648l-0.094-0.745l-0.111-0.107l-0.118,0.267l-0.138,0.326l0.387,1.187L40.012,51.359L40.012,51.359
		L40.012,51.359z M45.798,40.615l0.673,0.185l0.711,0.234l0.28-0.021l-0.247-0.51l-1.288,0.023L45.798,40.615L45.798,40.615
		L45.798,40.615z M56.616,30.024l0.388,0.096l0.398-0.582L57.4,29.462l-0.17-0.034l-1.029,0.429l-0.202,0.187L56.616,30.024
		L56.616,30.024L56.616,30.024z M40.43,31.887l0.324-0.328l0.686-1.34l-0.051-0.179l-0.296,0.352l-0.764,1.301l-0.017,0.092
		L40.43,31.887L40.43,31.887L40.43,31.887z M16.31,53.01l-0.174-0.068l-0.835,0.189l-0.141,0.153l0.045,0.45l0.056,0.08L16.31,53.01
		L16.31,53.01L16.31,53.01z M53.645,35.787l-0.274,0.097l-0.763,0.018l-0.125,0.104l0.076,0.056l0.565,0.055l1.213-0.086
		l0.144-0.159l-0.584-0.017L53.645,35.787L53.645,35.787L53.645,35.787z M14.978,53.339l-0.357-0.063l-0.38,0.024l-0.719,0.22
		l-0.019,0.059l0.493,0.244l0.741-0.198L14.978,53.339L14.978,53.339L14.978,53.339z M32.104,37.622l-0.314-0.374l-0.352,0.066
		l0.315,0.568l0.283,0.661l0.057-0.091L32.104,37.622L32.104,37.622L32.104,37.622z M47.023,27.079l-0.006-0.717l0.078-0.361
		l-0.084-0.137l-0.423,1.024L47.023,27.079L47.023,27.079L47.023,27.079z M47.104,32.858l0.545,0.463l0.336-0.089l-0.03-0.184
		L47.275,32.8L47.104,32.858L47.104,32.858L47.104,32.858z M26.416,35.367l0.174,0.068l0.959,0.025l0.094-0.13l-0.189-0.183
		l-0.441-0.012L26.416,35.367L26.416,35.367L26.416,35.367z M39.126,35.238l-0.038-0.44l-0.104-0.082l-0.053,0.075l0.002,0.652
		l0.221,0.436l0.062,0.002l0.065-0.368L39.126,35.238L39.126,35.238L39.126,35.238z M33.225,51.438l-0.092,0.465l-0.156,0.442
		l0.041,0.082l0.064,0.003l0.224-0.302L33.225,51.438L33.225,51.438L33.225,51.438z M48.116,51.171l-0.077,0.163l0.002,0.941
		l0.08,0.104L48.116,51.171L48.116,51.171L48.116,51.171z M35.638,24.407l-0.054,1.196l0.054,0.036l0.067-0.17l0.036-0.944
		L35.638,24.407L35.638,24.407L35.638,24.407z M35.414,26.974l0.089-0.118l-0.071-0.895L35.414,26.974L35.414,26.974L35.414,26.974z
		 M41.361,52.887l0.035-0.164l-0.416-0.47l-0.073,0.237L41.361,52.887L41.361,52.887L41.361,52.887z M31.186,21.473l0.546,0.485
		l0.081-0.035l-0.387-0.508L31.186,21.473L31.186,21.473L31.186,21.473z M53.701,36.796l-0.434-0.09l-0.629,0.087L53.701,36.796
		L53.701,36.796L53.701,36.796z M28.326,35.583l0.564,0.265l0.076-0.055l-0.019-0.061l-0.411-0.237L28.326,35.583L28.326,35.583
		L28.326,35.583z M32.714,52.197l0.001-0.098l-0.18-0.06l-0.1,0.581L32.714,52.197L32.714,52.197L32.714,52.197z M27.256,17.169
		l-0.388-0.355h-0.07l-0.049,0.158l0.396,0.319L27.256,17.169L27.256,17.169L27.256,17.169z M44.311,29.566l-0.522-0.279
		l-0.104,0.122l0.248,0.198L44.311,29.566L44.311,29.566L44.311,29.566z M46.7,33.43l0.286,0.216l0.191-0.253l-0.295-0.158
		L46.7,33.43L46.7,33.43L46.7,33.43z M49.307,39.421l0.338-0.146L49.307,39.421L49.307,39.421L49.307,39.421z M52.514,37.377
		l0.148-0.108l0.044-0.079l-0.112-0.097l-0.343,0.057L52.514,37.377L52.514,37.377L52.514,37.377z M26.679,53.927l0.19-0.468
		l-0.268,0.343L26.679,53.927L26.679,53.927L26.679,53.927z M27.253,52.402l0.04-0.637l-0.051,0.004L27.253,52.402L27.253,52.402
		L27.253,52.402z M28.681,53.402l-0.001-0.196l-0.108-0.082l-0.055,0.071l-0.018,0.183l0.114,0.173L28.681,53.402L28.681,53.402
		L28.681,53.402z M29.03,36.531l-0.528,0.015L29.03,36.531L29.03,36.531L29.03,36.531z M26.238,36.333l0.454-0.03l-0.306-0.038
		L26.238,36.333L26.238,36.333L26.238,36.333z M49.434,35.948l-0.068,0.043l0.074,0.231l0.183-0.024l-0.036-0.138L49.434,35.948
		L49.434,35.948L49.434,35.948z M46.84,27.671l-0.098-0.148l-0.069-0.063l-0.137,0.046l0.009,0.093L46.84,27.671L46.84,27.671
		L46.84,27.671z M49.688,47.9l-0.062,0.357l0.043,0.083l0.087-0.104L49.688,47.9L49.688,47.9L49.688,47.9z M56.098,31.022
		l-0.484,0.009L56.098,31.022L56.098,31.022L56.098,31.022z M53.441,24.132l0.039-0.28l-0.127-0.093l-0.16,0.058l0.021,0.143
		L53.441,24.132L53.441,24.132L53.441,24.132z M27.2,21.842l-0.074-0.054h-0.09l-0.077,0.042l0.097,0.071L27.2,21.842L27.2,21.842
		L27.2,21.842z M30.653,23.812l-0.082-0.047l-0.164,0.038l0.126,0.06L30.653,23.812L30.653,23.812L30.653,23.812z M50.95,24.707
		L50.93,24.62l-0.051-0.047l-0.062,0.162l0.049,0.071L50.95,24.707L50.95,24.707L50.95,24.707z M55.137,29.864l-0.312-0.011
		L55.137,29.864L55.137,29.864L55.137,29.864z M44.1,29.927l-0.065-0.056l-0.164,0.035l0.045,0.106l0.162-0.026L44.1,29.927
		L44.1,29.927L44.1,29.927z M46.158,33.055l0.22,0.004l-0.125-0.079L46.178,33L46.158,33.055L46.158,33.055L46.158,33.055z
		 M33.453,36.644l0.162-0.052l-0.064-0.062l-0.084-0.009l-0.086,0.083L33.453,36.644L33.453,36.644L33.453,36.644z M50.154,39.052
		l0.019,0.062l0.068,0.046l0.146-0.052l-0.074-0.104L50.154,39.052L50.154,39.052L50.154,39.052z M40.588,42.191l-0.113,0.072
		l0.141,0.065l0.061-0.049L40.588,42.191L40.588,42.191L40.588,42.191z M38.73,49.134l-0.047-0.166l-0.07,0.134l0.07,0.103
		L38.73,49.134L38.73,49.134L38.73,49.134z M35.469,49.975l-0.097-0.089l-0.059,0.068l0.091,0.187L35.469,49.975L35.469,49.975
		L35.469,49.975z M38.452,50.311l-0.048,0.073l0.051,0.179l0.054-0.051l-0.002-0.18L38.452,50.311L38.452,50.311L38.452,50.311z
		 M27.443,51.172l-0.051,0.078l-0.01,0.094l0.056,0.072l0.08-0.126L27.443,51.172L27.443,51.172L27.443,51.172z M34.016,52.175
		l-0.09,0.134l0.073,0.131l0.061-0.054L34.016,52.175L34.016,52.175L34.016,52.175z M48.285,53.357l0.048-0.069l-0.035-0.161
		l-0.046,0.023l-0.014,0.162L48.285,53.357L48.285,53.357L48.285,53.357z M32.627,53.404l0.101-0.104l-0.049-0.149l-0.103,0.092
		L32.627,53.404L32.627,53.404L32.627,53.404z M32.162,53.686l-0.064-0.162l-0.109,0.096l0.055,0.161L32.162,53.686L32.162,53.686
		L32.162,53.686z M29.757,53.677l-0.072,0.163l0.03,0.079l0.094-0.075L29.757,53.677L29.757,53.677L29.757,53.677z M23.768,55.396
		l-0.072-0.055l-0.089,0.001l-0.075,0.041l0.096,0.072L23.768,55.396L23.768,55.396L23.768,55.396z M45.561,55.833l0.049-0.069
		l-0.002-0.084l-0.037-0.074l-0.062,0.094L45.561,55.833L45.561,55.833L45.561,55.833z M28.424,12.452l0.035-0.061l-0.056-0.007
		L28.424,12.452L28.424,12.452L28.424,12.452z M28.624,13.111l-0.05,0.062l0.04,0.071l0.051-0.064L28.624,13.111L28.624,13.111
		L28.624,13.111z M29.764,13.441l0.054-0.051l-0.039-0.064l-0.047,0.058L29.764,13.441L29.764,13.441L29.764,13.441z M31.906,15.147
		l-0.051-0.041l-0.01,0.065L31.906,15.147L31.906,15.147L31.906,15.147z M38.025,19.01l-0.037,0.068l0.06,0.006L38.025,19.01
		L38.025,19.01L38.025,19.01z M29.375,19.367l-0.07-0.035l-0.007,0.055L29.375,19.367L29.375,19.367L29.375,19.367z M38.781,19.593
		l-0.057,0.052l0.104,0.01L38.781,19.593L38.781,19.593L38.781,19.593z M29.69,21.451l-0.046,0.05l0.078,0.01L29.69,21.451
		L29.69,21.451L29.69,21.451z M58.047,22.607l0.032-0.074l-0.05-0.005L58.047,22.607L58.047,22.607L58.047,22.607z M53.992,23.539
		l0.062-0.05L54,23.429l-0.053,0.053L53.992,23.539L53.992,23.539L53.992,23.539z M54.764,23.435l-0.039,0.062l0.064,0.008
		L54.764,23.435L54.764,23.435L54.764,23.435z M29.854,23.648l0.041-0.042l-0.071-0.011L29.854,23.648L29.854,23.648L29.854,23.648z
		 M51.104,23.977l-0.008,0.098l0.061-0.044L51.104,23.977L51.104,23.977L51.104,23.977z M31.156,24.007l0.068,0.034l0.006-0.051
		L31.156,24.007L31.156,24.007L31.156,24.007z M32.176,23.979l-0.039,0.053l0.064,0.009L32.176,23.979L32.176,23.979L32.176,23.979z
		 M48.236,24.351l-0.059-0.023l-0.062,0.041l0.116,0.031L48.236,24.351L48.236,24.351L48.236,24.351z M32.541,26.699l-0.035,0.047
		l0.055,0.01L32.541,26.699L32.541,26.699L32.541,26.699z M33.348,26.748l-0.062-0.037l-0.008,0.061L33.348,26.748L33.348,26.748
		L33.348,26.748z M47.598,26.84l-0.037,0.063l0.058,0.008L47.598,26.84L47.598,26.84L47.598,26.84z M42.047,27.016l-0.044-0.06
		l-0.05,0.052l0.041,0.055L42.047,27.016L42.047,27.016L42.047,27.016z M46.834,28.244l-0.061-0.038l-0.008,0.062L46.834,28.244
		L46.834,28.244L46.834,28.244z M52.48,33.873l0.071,0.034l0.007-0.053L52.48,33.873L52.48,33.873L52.48,33.873z M52.913,33.928
		l0.044-0.049L52.88,33.87L52.913,33.928L52.913,33.928L52.913,33.928z M48.496,35.584l-0.057-0.038l-0.008,0.059L48.496,35.584
		L48.496,35.584L48.496,35.584z M29.536,36.701l-0.046,0.046l0.078,0.011L29.536,36.701L29.536,36.701L29.536,36.701z
		 M22.725,37.241l0.07,0.037l0.008-0.059L22.725,37.241L22.725,37.241L22.725,37.241z M22.231,37.439l-0.059-0.033l-0.008,0.049
		L22.231,37.439L22.231,37.439L22.231,37.439z M21.579,37.62l0.053,0.034l0.009-0.051L21.579,37.62L21.579,37.62L21.579,37.62z
		 M51.514,39.329l0.039-0.06l-0.068-0.006L51.514,39.329L51.514,39.329L51.514,39.329z M50.348,39.701l0.006-0.098l-0.067,0.043
		L50.348,39.701L50.348,39.701L50.348,39.701z M49.92,43.366l0.035-0.063l-0.057-0.006L49.92,43.366L49.92,43.366L49.92,43.366z
		 M50.121,43.648l-0.033,0.062l0.053,0.007L50.121,43.648L50.121,43.648L50.121,43.648z M48.596,47.169l-0.045-0.062l-0.011,0.119
		L48.596,47.169L48.596,47.169L48.596,47.169z M48.145,48.07l-0.035,0.072l0.057,0.006L48.145,48.07L48.145,48.07L48.145,48.07z
		 M48.366,48.512l-0.052-0.044l-0.012,0.071L48.366,48.512L48.366,48.512L48.366,48.512z M16.85,48.807l0.062-0.041l-0.052-0.054
		l-0.06,0.04L16.85,48.807L16.85,48.807L16.85,48.807z M49.438,49.488l0.056,0.046l0.011-0.075L49.438,49.488L49.438,49.488
		L49.438,49.488z M27.086,52.934l-0.041-0.039l-0.011,0.067L27.086,52.934L27.086,52.934L27.086,52.934z M25.933,55.047
		l-0.117-0.008l0.054,0.074L25.933,55.047L25.933,55.047L25.933,55.047z"/>
	<polygon fill="#232734" points="38.754,22.956 38.695,22.918 38.711,22.748 38.77,22.726 38.816,22.889 38.754,22.956 	"/>
	<polygon fill="#232734" points="47.229,32.201 47.168,32.028 47.035,31.785 47.227,31.805 48.236,32.317 48.338,32.475 
		48.193,32.549 47.49,32.204 47.229,32.201 	"/>
	<polygon fill="#232734" points="51.906,27.978 51.898,28.243 51.792,28.308 51.747,28.235 51.928,27.997 51.906,27.978 	"/>
	<polygon fill="#232734" points="29.99,37.789 30.268,37.836 30.73,38.245 30.789,38.405 29.99,37.789 	"/>
	<polygon fill="#232734" points="29.604,37.591 30.023,37.816 29.762,37.779 29.604,37.591 	"/>
	<polygon fill="#232734" points="19.708,44.062 19.753,43.791 20.791,43.119 20.968,43.156 21.016,43.221 20.905,43.371 
		20.424,43.658 19.983,44.016 19.716,44.072 19.708,44.062 	"/>
	<polygon fill="#232734" points="23.362,42.146 23.143,41.986 23.113,41.844 23.194,41.802 24.063,42.037 24.088,42.109 
		23.362,42.146 	"/>
	<polygon fill="#232734" points="36.604,41.005 36.836,41.007 36.896,42.197 36.652,42.268 36.604,41.005 	"/>
	<polygon fill="#232734" points="38.527,40.754 38.296,40.245 38.279,39.773 38.348,39.688 38.648,39.771 38.811,40.518 
		38.725,40.762 38.527,40.754 	"/>
	<polygon fill="#232734" points="35.276,37.372 36.003,37.288 36.076,37.349 36.004,37.461 35.439,37.462 35.276,37.372 	"/>
	<polygon fill="#232734" points="33.928,38.303 34.089,38.243 34.171,38.35 34.02,38.406 33.928,38.303 	"/>
	<polygon fill="#232734" points="46.355,44.137 46.208,44.061 46.262,44 46.341,44.152 46.355,44.137 	"/>
	<polygon fill="#232734" points="46.291,49.359 46.199,49.35 45.243,48.33 45.236,48.257 45.406,48.227 46.277,49.08 46.299,49.354 
		46.291,49.359 	"/>
	<polygon fill="#232734" points="38.441,31.815 38.715,32.162 38.499,32.275 38.385,32.161 38.441,31.815 	"/>
	<polygon fill="#232734" points="49.318,35.089 50.068,35.423 50.111,35.504 49.516,35.503 49.411,35.301 49.318,35.089 	"/>
	<polygon fill="#232734" points="18.131,46.384 18.139,45.973 18.551,45.973 18.131,46.384 	"/>
	<polygon fill="#232734" points="56.111,34.023 55.893,34.027 55.999,33.891 56.111,34.023 	"/>
</g>
</svg>
