<?xml version="1.0" encoding="utf-8"?>
<!-- Generator: Adobe Illustrator 15.0.2, SVG Export Plug-In . SVG Version: 6.00 Build 0)  -->
<!DOCTYPE svg PUBLIC "-//W3C//DTD SVG 1.1//EN" "http://www.w3.org/Graphics/SVG/1.1/DTD/svg11.dtd">
<svg version="1.1" id="Layer_1" xmlns="http://www.w3.org/2000/svg" xmlns:xlink="http://www.w3.org/1999/xlink" x="0px" y="0px"
	 width="62.666px" height="62.667px" viewBox="0 0 62.666 62.667" enable-background="new 0 0 62.666 62.667" xml:space="preserve">
<g id="potato-slice">
	<path fill="#232734" d="M30.681,9.856l1.456,0.435l1.299,0.314l0.81,0.263l0.692,0.232l0.455,0.164l1.192,0.249l1.063,0.244
		l1.172,0.327l0.81,0.251l0.886,0.408l0.588,0.069l1.345,0.893l1.183,0.86l0.365,0.324l1.408,1.175l0.729,0.655l2.085,2.404
		l1.462,2.667l0.389,0.896l0.402,1.021l0.171,0.705l0.065,0.479l0.35,1.289l0.109,1.465l-0.002,1.104l0.188,0.771l-0.004,3.248
		l-0.084,0.603l-0.088,0.354l-0.293,1.558l-0.463,1.636l-0.59,1.601l-0.822,1.631l-0.556,1.104l-0.051,0.478l-1.341,2.452
		l-1.652,1.96l-0.455,0.567l-0.786,0.937l-1.472,1.479l-1.223,1.013l-0.387,0.298l-1.402,1.182l-1.234,0.783l-1.383,0.783
		l-1.463,0.593l-1.297,0.334l-0.412,0.162l-2.383,0.019l-1.199-0.183l-0.361-0.05l-1.549-0.318l-1.356-0.545l-0.552-0.259
		l-1.377-0.767l-2.152-1.396l-2.166-1.37l-0.514-0.326l-1.801-1.619l-0.358-0.492l-1.645-2.27l-2.098-3.151l-0.496-0.614
		l-0.511-1.181l-0.599-1.461l-0.214-0.436l-0.412-0.606l-0.395-1.532l-0.344-1.396l0.053-0.354l-0.156-0.584l-0.146-0.836
		l-0.083-0.478l-0.149-0.959l0.112-0.464l-0.142-0.364l-0.029-2.296l0.181-0.391l0.024-1.419l0.379-1.902l0.086-0.227l0.378-1.41
		l0.402-1.4l0.111-0.347l0.572-1.348l0.298-0.527l0.223-0.427l0.646-1.159l1.112-1.142l0.732-0.51l1.379-1.501l0.789-0.747
		l0.752-0.625l0.285-0.232l2.008-1.157l2.745-0.968l0.696-0.21l1.066-0.255l0.981-0.021l0.563-0.001l0.471-0.188L30.681,9.856
		L30.681,9.856z M17.215,16.198l0.426-0.369l-0.519-0.293l-0.138,0.282l0.258,0.408l-0.185,0.135l0.073,0.02L17.215,16.198
		L17.215,16.198z M42.52,14.512l-0.25-0.254l-0.434-0.271l-1.049,0.42l-0.178-0.182l0.185-0.484l0.208-0.092l-0.07-0.068
		l-0.102,0.195l-0.738-0.131l-0.2-0.257l0.12-0.252l-0.641-0.353h-1.523l-0.442-0.271h-0.858l-0.959-0.226l-0.955-0.436
		l-0.344,0.115l-1.016-0.438l-0.593-0.006l-0.241-0.239l0.182-0.095l-0.059-0.068l-0.087,0.198l-0.425,0.151l-1.141-0.188
		l-0.216-0.2l-0.372,0.18l-1.074-0.435l-0.061-0.186l-0.079-0.001l0.175,0.153l-0.07,0.352l-0.205,0.085l-0.238-0.234l-0.143-0.374
		l-1.039,0.449l-0.414-0.192l-0.375,0.165l-0.449-0.221l-0.205,0.093l0.35,0.479l-0.262,0.175l-0.551-0.173l-0.191,0.283
		l-0.738-0.357l-0.531,0.396l-0.506-0.381l-0.229,0.041l0.054,0.334l-0.538,0.193l-0.041,0.551l-0.582-0.199l-0.251-0.209
		l-0.068-0.189l-0.107,0.094l0.2,0.071l-0.02,0.364l-0.473-0.029l-0.113-0.213l-0.564,0.307l0.883,0.397l-0.144,0.179l-0.851-0.038
		l-0.21-0.123l-0.098-0.073l-0.358,0.175l-0.139,0.442l-0.471-0.114l-0.131,0.082l0.082,0.86h-0.219l-0.562-0.401l-1.13,1.111
		l-0.064,0.191l0.535,0.282l0.529-0.295l-0.18-0.318l0.148-0.297l0.23,0.007l0.309,0.177l0.126-0.008l0.322-0.209l0.341,0.017
		l-0.01-0.01l-0.014,0.119l-0.351,0.329l-2.099,1.669l-0.6,0.559l-0.327-0.315l0.188-0.302l-0.183-0.271l-0.4,0.212l-0.058,0.107
		l-0.122,0.845l-0.36,0.489l-0.452-0.153l0.102,0.529l-0.382,0.27l-0.3-0.07l-0.448,0.525l0.359,0.277l-0.127,0.457l0.38,0.293
		v0.689l-0.357,0.293l0.118-0.516l-0.339-0.338l-0.302,0.435l-0.46,0.063l-0.278,0.546l0.446,0.167l0.164,0.158l-0.15,0.29
		l-0.224,0.14l0.091,0.533l-0.471,0.097l-0.107,0.053l-0.261,0.391l0.072,0.168l0.378-0.089l0.242,0.219l-0.01,0.239l0.021-0.023
		l-0.289,0.366l-0.197,0.281l-0.436,0.195l0.081,0.548l0.559-0.365l0.411,0.284l-0.236,0.204l-0.208,0.124l-0.269,0.25l-0.322-0.057
		l0.021,0.541l0.215-0.109l0.112-0.038l0.121,0.008l0.15,0.279l-0.877,0.8l0.003,0.233l0.056,0.045l0.342-0.131l0.215,0.077
		l-0.064,0.312l-0.562,0.187l0.329,0.487l0.018,0.35l-0.068,0.228l0.104,0.445l-0.374,0.278l0.028,0.723l0.587,0.406l-0.103,0.229
		l-0.306,0.193l-0.135,0.479l0.101,0.311l-0.142,0.349l0.545,0.472l-0.553,0.486l0.57,0.424l-0.159,0.448l-0.235,0.174l0.225,0.301
		l-0.018,0.353l0.709,0.96l-0.373,0.271l-0.031,0.233l0.58,0.389l0.316-0.101l-0.145-1.302l-0.262-2.228v-1.549l0.166-0.417
		l0.04-1.651l0.069-0.227l0.07-0.057l0.098,0.213l0.012,0.855l0.023,4.517l0.187,0.464l0.042,0.898l0.389,1.221l-0.217,0.056
		l-0.299-0.364L13.629,37.1l-0.477,0.098l0.676,0.625l0.119,0.025l0.12,0.026l0.171,0.283l-0.281,0.18l-0.334,0.044l0.029,0.352
		l0.777,0.405l0.557,1.301l0.051,0.36l-0.116,0.006l-0.021,0.16l0.064-0.092l0.037-0.11l0.73,0.022l0.184,0.123l-0.447,0.362
		l-0.349,0.067l0.253,0.382l0.326-0.168l0.976,0.357l-0.028,0.465l-0.581-0.36l-0.465,0.106l0.632,0.647l0.895,0.004l0.222,0.077
		l-0.096,0.384l-0.595,0.036l-0.117,0.184l0.347,0.438l0.253-0.107l1,0.293v0.265l-0.325,0.14l-0.362-0.008l-0.091,0.072
		l0.103,0.141l0.973,0.08l0.204,0.113l-0.11,0.535l-0.23-0.031l-0.213-0.116l-0.323,0.085l0.062,0.223l0.322,0.137l1.092,0.002
		l-0.004,0.463l-0.705,0.121l0.283,0.347l1.113,0.068l0.194,0.13l0.078,0.435l0.683,0.314l-0.15,0.437l0.304,0.074l0.325-0.149
		l0.277,0.305l-0.145,0.291l0.239,0.053l0.217-0.104l0.434,0.234l0.079,0.439l0.924-0.268l-0.039-0.038l-0.109,0.414l0.615,0.441
		l0.688,0.472l0.119,0.352l0.365,0.285l0.25,0.025l0.325,0.173v0.332l-0.188,0.087l0.057,0.059l0.095-0.181h0.343l0.313-0.174
		l0.22,0.018l0.123,0.289l-0.229,0.397l-0.199,0.135l0.086,0.024l0.083-0.19l1.256,0.033l-0.033-0.036l0.222,0.262l0.299,0.132
		l0.049,0.485l0.701,0.494l0.408-0.027l0.078-0.361l-0.03,0.03l0.52,0.004l-0.034-0.036l0.04,0.39l0.282,0.112l0.613-0.331
		l0.229-0.351l0.469-0.074l0.568-0.167l0.22,0.219l-0.016,0.111l-0.374,0.264l0.25,0.507l0.331-0.019l-0.042-0.343l0.259-0.229
		l0.64-0.329l0.09,0.189l0.076-0.06l-0.188-0.107l0.586-0.216l0.212,0.121l0.261,0.033l0.209-0.261l0.32-0.115l0.162,0.431
		l0.131,0.374l0.236-0.493l-0.1-0.361l0.24-0.204l0.316,0.16l0.324-0.06l-0.099-0.339l0.291-0.259l0.322,0.312l0.024,0.168
		l0.002,0.471l0.159,0.129l0.081-0.088l0.013-0.363l0.374-0.18l0.203,0.137l0.244,0.057l0.384-0.414l-0.114-0.433l0.777,0.059
		l0.318-0.479l0.121-0.314l0.461,0.139l0.448-0.434l0.302-0.91l0.209-0.09l0.576,0.124l0.299-0.492l-0.112-0.339l0.247-0.241
		l0.237,0.079l0.394-0.121l0.198-0.415l-0.146-0.201l-0.003-0.233l0.315-0.113l0.309,0.165l0.356-0.607l0.32-0.31l0.12-0.025
		l0.202-0.446l-0.03-0.214l0.782-0.244l0.1-1.346l0.255-0.16l0.405,0.179l0.299-0.32l-0.3-0.377l-0.18-0.277l-0.027,0.03
		l0.393-0.219l0.262,0.118l0.514-0.477l-0.051-0.349l0.702-0.138l0.173-0.44l0.162-0.401l-0.136-0.213l-0.022-0.369l-0.045,0.035
		l0.684,0.09l-0.067-0.456l0.135-0.952l-0.3-0.351l-0.797,0.096l0.039-0.316l-0.466-0.103l-0.323-0.328l0.54-0.312L46.5,37.889
		l0.209-0.212l0.514,0.14l-0.242,0.44l0.607,0.554l0.748,0.33l-0.115,0.328l0.329,0.102l0.321-0.368l-0.004-0.49l-0.094-0.115
		l-0.564-0.039l-0.735-0.395l-0.287-0.318l0.046-0.386l0.316-0.141l0.395-0.569v-0.238l-0.414-1.002l0.301-0.354l0.576-0.42
		l-0.234-0.356l0.029,0.037l0.128-0.436l-0.095-0.218l0.348-0.36l0.324,0.156l-0.02,0.699l-0.195,0.314l0.072,0.714l0.664-0.176
		v0.385l-0.512,0.508l-0.435,0.249l1.089,0.219l-0.211,0.274l-0.346-0.049l-0.467,0.341l-0.27-0.126l-0.091,0.313l0.863,0.425
		l-0.318,0.603l0.677-0.139l0.038-0.898l0.403-0.263l0.002-0.776l-0.09-0.265l0.404-0.427l-0.035-0.367l0.117-0.029l0.086-0.313
		l-0.205-0.099l-0.241-0.025l0.033-0.521l-0.036,0.036l0.404-0.044l0.316-0.312v-0.745l-0.127-0.199l-0.428-0.428l-0.654-0.519
		l0.041,0.04v-0.331l-0.24-0.319l0.164-0.299l0.468-0.122l-0.117-0.339l0.154-0.186l0.318-0.003l0.212,0.427l0.26-0.024v-0.868
		L50.08,29.51l-0.237-0.044l-0.14-0.173l0.182-0.258l0.121-0.019l0.326,0.16l0.283-0.164l0.027-0.381l-0.504-0.31l-0.416-0.409
		l-0.052-0.294l0.306-0.087l0.508,0.39l0.134-0.165l-0.345-2.164l-0.695-0.072l-0.043-0.614l0.451,0.146l0.088-0.422l-0.215-0.092
		l-0.209-0.121l-0.16-0.182l-0.295-0.527l-0.53-0.502l0.028-0.866l-0.041,0.035l0.44,0.128l0.148,0.815l0.53,0.182l-0.17-0.657
		l-0.348-0.766l-0.273-0.663l-0.448-0.131l-0.292-0.368l-0.445-0.394l0.393-0.378l-0.629-0.417l-0.56-0.229l0.075-0.302l0.385-0.052
		l0.079,0.184l0.067-0.013l-0.178-0.137l-0.094-0.2l-0.53-0.236l-0.534,0.323l-0.26-0.241l0.326-0.372l0.396-0.041l0.093-0.069
		l-0.112-0.139l-0.457-0.168l-0.162-0.552L46,17.728l-0.152,0.437l-0.786,0.65l0.403,0.245l-0.173,0.55l-0.536-0.211l-0.701-0.113
		l-0.037-0.235l0.228-0.313l-0.131-0.312l-4.099-3.226l-1.426-0.678l-0.917-0.306l-0.897-0.37l-0.908-0.344l-0.183-0.132
		l-0.018-0.118l-0.025,0.026h0.665l1.424,0.552l1.693,0.688l0.994,0.457l1.059,0.601l1.279,0.929l0.262,0.257l1.373,1.211
		l0.21,0.124l0.783-0.256l-0.067-0.562l0.312-0.181l-0.273-0.347l-0.32,0.186l-0.633-0.028l-0.193-0.3l0.275-0.564l-0.582-0.532
		l-0.525,0.033l-0.123,0.192l0.033-0.033l-0.433-0.234l-0.432,0.17l-0.388-0.416l0.232-0.261l0.314,0.175l0.32,0.073l0.246-0.38
		L42.52,14.512L42.52,14.512z M33.379,53.092l-0.309,0.207l0.088,0.284l1.177-0.12l-0.411-0.166L33.379,53.092L33.379,53.092z
		 M35.754,52.373l-0.012,0.578l0.549-0.285L35.754,52.373L35.754,52.373z M31.161,53.138l-0.349,0.314l0.053,0.107l0.286,0.129
		l0.075-0.215L31.161,53.138L31.161,53.138z M19.473,47.623l0.189-0.233l-0.227-0.183l-0.193,0.218L19.473,47.623L19.473,47.623z
		 M50.521,31.916l0.077-0.323l-0.074-0.087l-0.32,0.043l0.168,0.357L50.521,31.916L50.521,31.916z M25.131,10.937l0.174,0.105
		l0.182-0.094l-0.175-0.104L25.131,10.937L25.131,10.937z M20.135,48.141l0.117-0.002l0.086-0.072l-0.108-0.115l-0.21,0.062
		L20.135,48.141L20.135,48.141z M22.108,49.155l-0.112-0.151l-0.089,0.072l0.068,0.197L22.108,49.155L22.108,49.155z M22.844,49.686
		l0.002-0.121l-0.074-0.09l-0.107,0.162l0.109,0.139L22.844,49.686L22.844,49.686z M27.122,52.357l-0.103,0.001l-0.116,0.108
		l0.191,0.069l0.124-0.111L27.122,52.357L27.122,52.357z M24.987,51.155l-0.051,0.079l0.093,0.008L24.987,51.155L24.987,51.155z
		 M24.246,50.668l-0.051,0.077l0.093,0.008L24.246,50.668L24.246,50.668z M23.294,50.009l-0.071-0.042l-0.009,0.064L23.294,50.009
		L23.294,50.009z M21.125,48.54l-0.072-0.075l-0.012,0.14L21.125,48.54L21.125,48.54z M45.352,44.645l0.052-0.079l-0.084-0.011
		L45.352,44.645L45.352,44.645z M14.49,40.176l-0.069-0.062l-0.012,0.115L14.49,40.176L14.49,40.176z"/>
	<polygon fill="#232734" points="46.941,22.126 47.059,22.146 47.805,23.379 47.941,23.714 48.431,24.987 48.596,25.915 
		48.886,26.955 48.934,29.411 48.936,31.745 49.438,31.958 49.396,31.918 49.393,32.895 49.252,33.062 48.764,32.744 47.981,32.784 
		47.981,32.547 48.381,32.276 48.594,31.331 48.646,30.852 48.648,28.927 48.486,28.544 48.226,26.496 48.129,25.649 47.887,24.716 
		47.608,23.91 46.989,22.613 46.973,22.094 46.941,22.126 	"/>
	<polygon fill="#232734" points="47.544,30.417 47.422,29.173 47.254,28.781 47.209,27.99 47.041,27.162 46.737,25.994 
		46.611,25.529 46.24,24.637 45.766,23.656 45.439,22.745 44.638,21.68 44.24,21.221 42.094,19.038 42.18,18.753 43.086,19.353 
		43.594,19.882 44.693,21.181 45.478,22.261 45.896,22.995 46.577,24.54 46.795,25.234 47.092,26.028 47.238,26.74 47.432,27.306 
		47.485,27.788 47.693,29.225 47.658,30.201 47.544,30.417 	"/>
	<polygon fill="#232734" points="36.643,50.125 36.652,50.006 37.268,49.432 38.574,48.178 39.12,47.526 40.687,45.985 
		42.795,43.475 42.969,43.313 43.023,43.67 41.549,45.761 40.934,46.35 39.951,47.253 39.434,47.746 39.255,47.907 36.953,50.111 
		36.631,50.111 36.643,50.125 	"/>
	<polygon fill="#232734" points="27.286,13.004 27.186,13.196 26.218,13.302 24.826,13.543 24.336,13.737 22.73,14.295 21.83,14.65 
		19.521,16.001 19.209,16.171 19.031,16.063 20.023,15.191 21.508,14.346 21.615,14.291 22.977,13.775 23.787,13.508 24.396,13.3 
		24.967,13.264 26.031,13.031 26.965,12.872 27.311,13.031 27.286,13.004 	"/>
	<polygon fill="#232734" points="22.874,46.189 23.111,46.189 23.775,46.726 24.438,47.331 25.908,48.309 26.499,48.524 
		27.518,48.924 28.455,49.184 29.519,49.42 29.645,49.539 29.547,49.609 29.303,49.631 28.342,49.598 27.057,49.166 26.307,48.788 
		26.1,48.664 25.534,48.449 23.93,47.335 22.893,46.304 22.881,46.184 22.874,46.189 	"/>
	<polygon fill="#232734" points="35.391,48.872 35.391,48.991 35.148,49.245 32.229,50.384 30.506,50.628 30.01,50.809 
		29.486,50.807 29.143,50.762 29.266,50.414 30.364,50.375 31.178,50.35 31.91,50.122 33.635,49.627 35.179,48.92 35.419,48.903 
		35.391,48.872 	"/>
	<polygon fill="#232734" points="20.424,14.25 20.625,13.848 20.535,13.339 21.046,13.707 21.785,13.321 22.592,13.07 
		23.277,12.823 24.089,12.569 24.775,12.321 25.541,12.389 23.802,13.012 22.872,13.283 21.656,13.826 21.016,14.177 20.418,14.243 
		20.424,14.25 	"/>
	<polygon fill="#232734" points="19.271,44.509 18.877,44.23 17.938,42.55 16.775,40.727 16.254,40.074 16.248,39.955 16.43,39.89 
		16.53,39.956 17.777,41.438 17.966,41.747 19.271,44.509 	"/>
	<polygon fill="#232734" points="41.228,28.983 41.697,29.071 41.755,29.164 41.686,29.377 41.469,29.465 40.529,29.52 
		39.926,30.149 39.821,29.86 40.023,29.635 39.924,29.335 40.719,29.163 40.557,28.59 40.692,28.348 41.059,28.681 41.143,28.9 
		41.228,28.983 	"/>
	<polygon fill="#232734" points="47.219,40.768 46.785,40.545 46.36,40.73 46.129,40.745 46.002,40.437 46.168,40.121 
		46.043,39.664 46.746,39.748 46.79,40.178 46.865,40.184 47.297,39.854 47.408,40.383 47.174,40.803 47.219,40.768 	"/>
	<polygon fill="#232734" points="14.248,31.914 14.123,31.588 14.358,30.755 14.506,30.933 14.533,33.052 14.742,33.959 
		14.596,34.054 14.297,33.442 14.248,31.914 	"/>
	<polygon fill="#232734" points="24.107,49.133 24.568,49.243 26.227,50.686 26.229,50.77 26.004,50.792 24.119,49.257 
		24.104,49.137 24.107,49.133 	"/>
	<polygon fill="#232734" points="38.444,28.442 38.268,28.286 37.185,26.592 37.25,26.381 38.258,27.354 38.539,28.164 
		38.444,28.442 	"/>
	<polygon fill="#232734" points="33.949,51.358 34.043,51.169 35.135,50.733 36.188,50.19 36.643,50.125 36.631,50.111 
		36.475,50.412 35.746,50.839 34.639,51.33 33.92,51.33 33.949,51.358 	"/>
	<polygon fill="#232734" points="42.905,40.791 42.765,41.4 42.523,41.813 42.167,42.294 41.908,42.678 41.604,42.58 42.905,40.791 
			"/>
	<polygon fill="#232734" points="49.921,34.129 49.493,34.343 49.164,34.293 49.181,34.025 49.802,33.25 50.314,33.307 
		49.885,34.165 49.921,34.129 	"/>
	<polygon fill="#232734" points="46.312,42.019 45.283,41.889 45.261,41.652 45.715,41.315 46.278,41.451 46.312,42.019 	"/>
	<polygon fill="#232734" points="20.617,43.283 21.311,43.601 20.748,43.808 20.297,44.146 19.984,43.818 20.617,43.283 	"/>
	<polygon fill="#232734" points="21.391,44.727 21.83,44.844 22.076,45.1 22.833,45.823 22.874,46.189 22.881,46.184 22.676,46.184 
		22.029,45.655 21.422,44.815 21.418,44.699 21.391,44.727 	"/>
	<polygon fill="#232734" points="27.314,44.45 26.959,44.436 25.619,43.267 25.709,43.057 26.061,43.375 27.004,44.117 
		27.287,44.479 27.314,44.45 	"/>
	<polygon fill="#232734" points="37.567,38.915 37.268,39.052 36.738,38.805 35.988,38.272 35.979,38.172 36.186,38.083 
		36.398,38.168 37.335,38.676 37.567,38.915 	"/>
	<polygon fill="#232734" points="27.103,24.66 27.479,24.554 28.115,24.867 28.248,25.059 28.15,25.494 27.931,25.494 
		27.357,24.933 27.103,24.66 	"/>
	<polygon fill="#232734" points="35.482,42.031 35.635,42.334 35.449,42.479 34.607,42.479 34.31,42.273 34.27,42.166 
		34.399,42.019 35.482,42.031 	"/>
	<polygon fill="#232734" points="42.305,14.224 42.553,14.479 42.402,14.792 42.301,15 42.047,15.237 41.652,15.158 41.36,14.87 
		41.569,14.565 42.305,14.224 	"/>
	<polygon fill="#232734" points="29.91,21.822 29.339,21.215 29.832,20.929 29.92,21.011 30.205,21.53 29.91,21.822 	"/>
	<polygon fill="#232734" points="23.797,14.886 23.51,15.121 22.272,15.621 22.2,15.536 22.21,15.417 22.689,15.075 23.607,14.785 
		23.797,14.886 	"/>
	<polygon fill="#232734" points="35.091,44.46 34.949,44.292 34.674,43.652 34.678,43.536 34.783,43.314 35.07,43.495 
		35.134,43.592 35.394,44.229 35.206,44.459 35.091,44.46 	"/>
	<polygon fill="#232734" points="29.111,34.51 29.079,34.034 29.608,33.746 29.865,33.947 29.837,34.148 29.549,34.368 
		29.111,34.51 	"/>
	<polygon fill="#232734" points="30.1,19.438 30.865,19.986 30.641,20.325 29.872,19.81 29.977,19.449 30.1,19.438 	"/>
	<polygon fill="#232734" points="27.572,11.946 28.5,11.799 29.572,11.863 29.649,11.931 29.557,12.005 27.572,11.946 	"/>
	<polygon fill="#232734" points="38.277,50.841 38.13,50.539 38.157,50.305 38.499,50.18 38.809,50.503 38.277,50.841 	"/>
	<polygon fill="#232734" points="18.719,21.396 19.164,20.918 19.632,21.29 19.581,21.513 19.254,21.555 18.689,21.357 
		18.719,21.396 	"/>
	<polygon fill="#232734" points="44.408,22.479 44.086,22.518 43.561,21.725 43.89,21.687 44.225,22.029 44.408,22.479 	"/>
	<polygon fill="#232734" points="28.999,22.333 29.182,22.634 29.261,22.971 28.695,23.093 28.522,22.93 28.67,22.397 
		29.035,22.373 28.999,22.333 	"/>
	<polygon fill="#232734" points="38.898,31.548 39.167,31.234 39.273,31.278 39.787,31.747 39.828,31.871 39.736,32.077 
		39.634,32.073 38.898,31.548 	"/>
	<polygon fill="#232734" points="30.895,18.031 31.133,18.228 31.173,18.329 31.031,18.512 30.828,18.626 30.074,18.274 
		30.895,18.031 	"/>
	<polygon fill="#232734" points="29.703,39.408 28.768,39.794 28.668,39.729 28.702,39.535 29.703,39.408 	"/>
	<polygon fill="#232734" points="37.341,40.893 37.111,41.146 36.528,41.287 36.258,41.1 36.473,40.856 37.341,40.893 	"/>
	<polygon fill="#232734" points="18.691,22.84 18.701,23.385 18.627,23.47 18.426,23.439 18.199,23.04 18.374,22.654 18.691,22.84 	
		"/>
	<polygon fill="#232734" points="19.792,42.354 20.238,42.281 20.656,42.881 20.295,42.971 19.792,42.354 	"/>
	<polygon fill="#232734" points="22.775,39.729 22.584,39.601 22.176,38.864 22.267,38.64 22.852,39.638 22.775,39.729 	"/>
	<polygon fill="#232734" points="37.597,51.278 36.949,51.449 36.998,51.124 37.471,51.091 37.597,51.278 	"/>
	<polygon fill="#232734" points="17.381,22.81 17.246,22.549 17.768,22.395 17.917,22.677 17.381,22.81 	"/>
	<polygon fill="#232734" points="24.104,49.137 23.658,49.029 23.348,48.864 23.387,48.902 23.203,48.604 23.132,48.39 
		23.112,48.408 23.537,48.484 24.098,49.022 24.107,49.133 24.104,49.137 	"/>
	<polygon fill="#232734" points="28.691,23.354 29.214,23.665 28.578,23.653 28.691,23.354 	"/>
	<polygon fill="#232734" points="17.419,23.92 16.795,23.939 17.047,23.619 17.279,23.618 17.379,23.699 17.419,23.92 	"/>
	<polygon fill="#232734" points="37.275,39.948 37.265,39.355 37.765,39.451 37.275,39.948 	"/>
	<polygon fill="#232734" points="36.33,39.938 36.049,40.208 35.674,39.938 35.729,39.618 36.045,39.596 36.133,39.673 
		36.33,39.938 	"/>
	<polygon fill="#232734" points="12.553,34.398 12.541,33.887 13.027,33.886 13.234,34.255 12.916,34.391 12.553,34.398 	"/>
	<polygon fill="#232734" points="33.995,45.188 33.76,45.186 33.523,44.849 34.061,44.788 34.094,45.102 33.995,45.188 	"/>
	<polygon fill="#232734" points="19.199,42.002 18.9,41.862 18.555,41.132 18.763,41.095 19.191,41.784 19.185,42.017 
		19.199,42.002 	"/>
	<polygon fill="#232734" points="20.801,42.138 20.305,41.908 20.234,41.701 20.506,41.549 20.868,41.826 20.801,42.138 	"/>
	<polygon fill="#232734" points="29.283,52.804 29.039,52.794 28.896,52.76 28.652,52.519 28.626,52.398 28.886,52.147 
		29.162,52.331 29.253,52.834 29.283,52.804 	"/>
	<polygon fill="#232734" points="32.381,12.098 32.643,12.383 32.445,12.472 32.018,12.295 31.574,12.176 32.381,12.098 	"/>
	<polygon fill="#232734" points="27.311,13.031 27.422,12.855 28.365,12.821 28.715,12.887 28.585,12.96 27.286,13.004 
		27.311,13.031 	"/>
	<polygon fill="#232734" points="43.254,15.737 43.645,15.737 43.957,16.042 43.586,16.382 43.254,16.089 43.287,15.704 
		43.254,15.737 	"/>
	<polygon fill="#232734" points="44.555,20.227 44.793,19.999 45.18,20.243 45.178,20.476 44.859,20.584 44.555,20.227 	"/>
	<polygon fill="#232734" points="24.826,31.92 24.779,32.263 24.167,32.265 24.193,32.046 24.395,31.945 24.862,31.955 
		24.826,31.92 	"/>
	<polygon fill="#232734" points="41.572,30.765 41.691,30.488 41.895,31.098 41.572,30.765 	"/>
	<polygon fill="#232734" points="21.061,29.309 20.947,29.461 20.603,29.434 20.519,29.129 20.719,29.018 21.061,29.309 	"/>
	<polygon fill="#232734" points="42.799,26.756 42.32,26.763 42.097,26.532 42.415,26.333 42.759,26.795 42.799,26.756 	"/>
	<polygon fill="#232734" points="15.797,26.398 16.37,26.392 16.432,26.697 16.221,26.773 16.01,26.685 15.797,26.398 	"/>
	<polygon fill="#232734" points="46.975,36.869 46.789,36.466 47.013,36.352 47.236,36.364 47.403,36.501 47.173,36.824 
		46.943,36.835 46.975,36.869 	"/>
	<polygon fill="#232734" points="21.289,16.152 20.964,16.211 20.735,15.993 20.932,15.773 21.289,16.152 	"/>
	<polygon fill="#232734" points="31.283,16.312 31.648,16.204 31.909,16.386 31.744,16.643 31.592,16.661 31.283,16.312 	"/>
	<polygon fill="#232734" points="20.398,17.175 20.438,17.532 20.309,17.88 19.932,17.568 19.983,17.31 20.436,17.215 
		20.398,17.175 	"/>
	<polygon fill="#232734" points="31.264,17.173 31.463,17.313 31.227,17.533 30.661,17.43 30.584,17.352 30.701,17.217 
		31.264,17.173 	"/>
	<polygon fill="#232734" points="19.197,18.303 19.495,18.22 19.565,18.826 19.197,18.303 	"/>
	<polygon fill="#232734" points="18.689,21.357 18.494,21.615 18.06,21.502 18.203,21.158 18.324,21.147 18.719,21.396 
		18.689,21.357 	"/>
	<polygon fill="#232734" points="28.244,22.503 27.598,22.47 27.693,22.161 28.035,22.211 28.119,22.298 28.244,22.503 	"/>
	<polygon fill="#232734" points="42.418,23.644 42.736,23.965 42.357,24.24 42.138,24.049 42.418,23.644 	"/>
	<polygon fill="#232734" points="42.371,24.669 42.814,24.604 42.947,24.896 42.756,25.012 42.371,24.669 	"/>
	<polygon fill="#232734" points="29.17,25.148 28.598,25.148 28.732,24.866 29.051,24.948 29.17,25.148 	"/>
	<polygon fill="#232734" points="41.916,25.495 41.572,25.172 42.002,24.894 42.197,25.1 41.916,25.495 	"/>
	<polygon fill="#232734" points="45.051,40.169 45.223,40.25 44.895,40.966 44.779,40.809 44.79,40.69 45.051,40.169 	"/>
	<polygon fill="#232734" points="34.822,40.771 34.754,40.691 34.768,40.392 35.082,40.375 35.172,40.444 35.307,40.631 
		34.822,40.771 	"/>
	<polygon fill="#232734" points="21.979,43.202 21.729,42.989 22.014,42.584 22.207,42.721 22.171,43.077 21.979,43.202 	"/>
	<polygon fill="#232734" points="33.102,44.564 32.938,44.836 32.604,44.862 32.534,44.55 33.102,44.564 	"/>
	<polygon fill="#232734" points="33.324,46.009 33.621,46.339 33.476,46.522 33.172,46.521 33.027,46.335 33.324,46.009 	"/>
	<polygon fill="#232734" points="47.17,35.779 47.059,36.078 46.544,35.723 47.17,35.779 	"/>
	<polygon fill="#232734" points="34.904,47.648 34.852,47.855 34.506,48.119 34.027,48.055 34.694,47.679 34.925,47.67 
		34.904,47.648 	"/>
	<polygon fill="#232734" points="46.943,36.835 46.844,37.046 46.594,37.28 46.402,36.826 46.975,36.869 46.943,36.835 	"/>
	<polygon fill="#232734" points="27.56,51.855 27.664,51.657 28.365,51.63 28.502,51.925 28.426,52.001 27.526,51.819 27.56,51.855 
			"/>
	<polygon fill="#232734" points="49.92,34.615 50.011,34.828 50.168,35.145 49.943,35.221 49.613,35.231 49.391,35.145 
		49.92,34.615 	"/>
	<polygon fill="#232734" points="48.172,34.379 47.948,34.613 47.651,34.617 47.495,34.398 47.811,34.16 48.201,34.416 
		48.172,34.379 	"/>
	<polygon fill="#232734" points="37.089,36.931 36.596,36.898 36.494,36.68 36.84,36.616 37.089,36.931 	"/>
	<polygon fill="#232734" points="24.299,33.561 24.16,33.843 23.935,33.808 23.752,33.658 23.703,33.55 24.299,33.561 	"/>
	<polygon fill="#232734" points="40.408,32.35 40.137,32.103 40.686,31.792 40.73,32.182 40.408,32.35 	"/>
	<polygon fill="#232734" points="37.804,37.346 37.687,37.521 37.406,37.259 37.578,37.142 37.804,37.346 	"/>
	<polygon fill="#232734" points="19.888,41.401 19.854,41.628 19.652,41.7 19.457,41.454 19.58,41.292 19.804,41.326 19.888,41.401 
			"/>
	<polygon fill="#232734" points="21.477,41.139 21.758,41.021 22.065,41.154 21.835,41.434 21.477,41.139 	"/>
	<polygon fill="#232734" points="25.436,34.007 25.654,33.765 25.987,34.029 25.436,34.007 	"/>
	<polygon fill="#232734" points="29.772,52.838 29.813,52.461 30.117,52.375 30.246,52.537 30.184,52.742 29.738,52.802 
		29.772,52.838 	"/>
	<polygon fill="#232734" points="25.231,33.314 24.79,33.413 24.719,33.148 24.918,33.017 25.231,33.314 	"/>
	<polygon fill="#232734" points="24.1,35.86 24.072,36.21 23.884,36.311 23.662,36.101 23.766,35.915 24.112,35.874 24.1,35.86 	"/>
	<polygon fill="#232734" points="36.383,42.492 36.197,42.732 35.921,42.575 36.047,42.28 36.383,42.492 	"/>
	<polygon fill="#232734" points="43.013,25.555 43.219,25.765 43,25.974 42.793,25.747 43.013,25.555 	"/>
	<polygon fill="#232734" points="16.4,25.624 16.094,25.96 15.9,25.813 15.864,25.618 16.069,25.524 16.4,25.624 	"/>
	<polygon fill="#232734" points="44.67,42.218 44.574,42.128 44.627,41.816 44.861,41.797 44.971,42.109 44.67,42.218 	"/>
	<polygon fill="#232734" points="23.132,48.39 22.688,47.829 22.766,47.757 23.112,48.408 23.132,48.39 	"/>
	<polygon fill="#232734" points="20.9,40.437 20.672,40.74 20.471,40.52 20.705,40.329 20.9,40.437 	"/>
	<polygon fill="#232734" points="43.749,25.115 43.508,25.291 43.316,25.06 43.559,24.861 43.749,25.115 	"/>
	<polygon fill="#232734" points="16.83,24.674 16.961,24.836 16.892,25.165 16.588,25.075 16.615,24.783 16.83,24.674 	"/>
	<polygon fill="#232734" points="17.911,24.619 17.666,24.772 17.497,24.542 17.733,24.376 17.911,24.619 	"/>
	<polygon fill="#232734" points="43.764,24.432 43.67,24.506 43.357,24.436 43.357,24.215 43.664,24.109 43.764,24.432 	"/>
	<polygon fill="#232734" points="27.838,23.746 28.256,23.956 27.838,23.746 	"/>
	<polygon fill="#232734" points="14.918,32.281 15.176,32.797 14.796,32.678 14.799,32.441 14.918,32.281 	"/>
	<polygon fill="#232734" points="26.702,22.683 26.95,22.924 26.571,23.074 26.502,22.83 26.702,22.683 	"/>
	<polygon fill="#232734" points="43.377,22.134 43.498,22.423 43.209,22.54 43.078,22.251 43.377,22.134 	"/>
	<polygon fill="#232734" points="48.693,22.34 48.293,22.116 48.283,21.917 48.375,21.849 48.81,21.958 48.652,22.375 48.693,22.34 
			"/>
	<polygon fill="#232734" points="37.956,35.182 38.04,35.266 38.089,35.481 37.793,35.583 37.668,35.299 37.842,35.185 
		37.956,35.182 	"/>
	<polygon fill="#232734" points="28.439,21.547 28.118,21.208 28.455,21.112 28.665,21.205 28.629,21.402 28.439,21.547 	"/>
	<polygon fill="#232734" points="43.746,44.234 44.09,44.281 44.223,44.449 44.082,44.694 43.867,44.643 43.774,44.207 
		43.746,44.234 	"/>
	<polygon fill="#232734" points="29.168,19.945 29.382,19.995 29.436,20.292 29.232,20.355 29.084,20.023 29.168,19.945 	"/>
	<polygon fill="#232734" points="18.369,19.938 18.666,20.082 18.649,20.303 18.328,20.324 18.24,20.117 18.369,19.938 	"/>
	<polygon fill="#232734" points="23.133,37.688 23.582,37.485 23.133,37.688 	"/>
	<polygon fill="#232734" points="19.543,19.499 19.899,19.911 19.863,20.018 19.664,20.015 19.467,19.594 19.543,19.499 	"/>
	<polygon fill="#232734" points="24.862,31.955 24.862,31.559 25.186,31.506 25.295,31.699 25.189,31.895 24.826,31.92 
		24.862,31.955 	"/>
	<polygon fill="#232734" points="43.774,44.207 43.426,44.209 43.3,43.927 43.443,43.774 43.739,43.886 43.746,44.234 
		43.774,44.207 	"/>
	<polygon fill="#232734" points="29.678,19.15 29.544,18.842 29.839,18.736 29.923,18.812 29.969,19.058 29.678,19.15 	"/>
	<polygon fill="#232734" points="20.557,19.045 20.18,18.591 20.332,18.488 20.607,18.838 20.557,19.045 	"/>
	<polygon fill="#232734" points="20.436,17.215 20.777,16.771 21.062,17.099 20.398,17.175 20.436,17.215 	"/>
	<polygon fill="#232734" points="39.82,49.972 39.739,50.064 39.424,50.052 39.392,49.735 39.477,49.653 39.82,49.972 	"/>
	<polygon fill="#232734" points="32.104,15.443 32.023,15.365 32.053,15.08 32.262,15.052 32.395,15.322 32.104,15.443 	"/>
	<polygon fill="#232734" points="25.11,30.356 25.174,30.115 25.372,30.047 25.539,30.297 25.41,30.44 25.11,30.356 	"/>
	<polygon fill="#232734" points="35.803,43.72 35.69,43.527 35.893,43.294 36.115,43.49 35.922,43.719 35.803,43.72 	"/>
	<polygon fill="#232734" points="41.85,28.378 42.149,28.236 42.205,28.646 41.982,28.687 41.85,28.378 	"/>
	<polygon fill="#232734" points="33.604,43.46 33.506,43.368 33.52,43.066 33.832,43.054 33.918,43.129 33.906,43.378 33.604,43.46 
			"/>
	<polygon fill="#232734" points="41.705,27.461 41.588,27.271 41.678,27.076 41.998,27.119 41.931,27.422 41.705,27.461 	"/>
	<polygon fill="#232734" points="42.759,26.795 43.121,26.826 43.227,27.022 43.111,27.211 42.877,27.203 42.799,26.756 
		42.759,26.795 	"/>
	<polygon fill="#232734" points="35.221,26.924 35.789,27.086 35.789,27.178 35.693,27.236 35.47,27.184 35.221,26.924 	"/>
	<polygon fill="#232734" points="49.92,26.514 49.562,26.488 49.447,26.3 49.545,26.094 49.859,26.187 49.887,26.545 49.92,26.514 	
		"/>
	<polygon fill="#232734" points="45.25,43.225 44.776,43.247 44.573,43.142 44.883,42.814 45.223,43.254 45.25,43.225 	"/>
	<polygon fill="#232734" points="41.488,26.206 41.39,26.271 40.916,25.997 40.911,25.899 41.123,25.826 41.481,26.116 
		41.488,26.206 	"/>
	<polygon fill="#232734" points="26.766,23.861 27.011,24.058 26.988,24.169 26.788,24.188 26.66,23.909 26.766,23.861 	"/>
	<polygon fill="#232734" points="26.09,32.322 25.986,32.618 25.771,32.52 25.684,32.256 25.888,32.206 26.09,32.322 	"/>
	<polygon fill="#232734" points="21.547,32.087 21.467,32.034 21.645,31.74 21.748,31.771 21.727,31.95 21.547,32.087 	"/>
	<polygon fill="#232734" points="25.945,31.599 25.612,31.291 25.813,31.194 26.035,31.391 25.945,31.599 	"/>
	<polygon fill="#232734" points="15.51,18.275 15.721,18.165 15.971,18.326 15.92,18.535 15.729,18.528 15.51,18.275 	"/>
	<polygon fill="#232734" points="39.859,30.685 40.007,30.563 40.209,30.687 40.247,30.884 40.035,30.945 39.859,30.685 	"/>
	<polygon fill="#232734" points="26.445,30.309 26.572,30.586 26.373,30.703 26.173,30.634 26.226,30.447 26.445,30.309 	"/>
	<polygon fill="#232734" points="43.844,42.852 44.082,42.581 44.175,42.571 44.244,42.668 43.844,42.852 	"/>
	<polygon fill="#232734" points="36.807,42.243 36.643,42.115 36.772,41.846 36.96,41.967 37.009,42.165 36.807,42.243 	"/>
	<polygon fill="#232734" points="24.85,34.176 24.961,34.225 24.956,34.418 24.875,34.501 24.676,34.537 24.604,34.336 
		24.743,34.179 24.85,34.176 	"/>
	<polygon fill="#232734" points="23.264,34.542 22.935,34.257 23.117,34.153 23.352,34.334 23.264,34.542 	"/>
	<polygon fill="#232734" points="34.925,47.67 34.943,47.557 35.264,47.223 35.244,47.604 34.904,47.648 34.925,47.67 	"/>
	<polygon fill="#232734" points="32.512,14.601 32.832,14.587 32.838,14.898 32.512,14.601 	"/>
	<polygon fill="#232734" points="31.107,51.489 30.775,51.196 31.099,51.187 31.107,51.489 	"/>
	<polygon fill="#232734" points="49.887,26.545 50.352,26.938 50.027,26.984 49.92,26.514 49.887,26.545 	"/>
	<polygon fill="#232734" points="37.994,36.77 37.67,36.462 37.967,36.367 38.048,36.453 37.994,36.77 	"/>
	<polygon fill="#232734" points="39.215,13.467 39.088,13.19 39.169,13.113 39.328,13.193 39.215,13.467 	"/>
	<polygon fill="#232734" points="19.934,14.497 20.1,14.26 20.424,14.25 20.418,14.243 20.247,14.477 19.924,14.487 19.934,14.497 	
		"/>
	<polygon fill="#232734" points="43.105,21.818 42.988,21.823 42.895,21.694 42.994,21.652 43.203,21.749 43.105,21.818 	"/>
	<polygon fill="#232734" points="29.035,22.373 29.058,22.265 29.479,22.221 29.331,22.351 28.999,22.333 29.035,22.373 	"/>
	<polygon fill="#232734" points="43.068,23.095 43.157,23.173 43.05,23.325 42.855,23.251 42.955,23.097 43.068,23.095 	"/>
	<polygon fill="#232734" points="13.283,23.595 13.62,23.625 13.699,23.698 13.516,23.791 13.305,23.571 13.283,23.595 	"/>
	<polygon fill="#232734" points="43.963,23.716 43.684,23.846 43.609,23.764 43.688,23.606 43.963,23.716 	"/>
	<polygon fill="#232734" points="26.352,29.583 26.639,29.508 26.715,29.576 26.635,29.731 26.352,29.583 	"/>
	<polygon fill="#232734" points="24.112,35.874 24.273,35.617 24.515,35.768 24.328,35.879 24.1,35.86 24.112,35.874 	"/>
	<polygon fill="#232734" points="21.694,41.89 21.296,41.992 21.221,41.919 21.307,41.77 21.694,41.89 	"/>
	<polygon fill="#232734" points="27.287,44.479 27.52,44.496 27.682,44.617 27.383,44.651 27.314,44.45 27.287,44.479 	"/>
	<polygon fill="#232734" points="35.419,48.903 35.548,48.719 35.77,48.746 35.741,48.821 35.633,48.866 35.391,48.872 
		35.419,48.903 	"/>
	<polygon fill="#232734" points="33.92,51.33 33.827,51.507 33.764,51.445 33.949,51.358 33.92,51.33 	"/>
	<polygon fill="#232734" points="21.418,44.699 21.249,44.562 21.321,44.553 21.391,44.727 21.418,44.699 	"/>
	<polygon fill="#232734" points="19.185,42.017 19.356,42.094 19.342,42.175 19.199,42.002 19.185,42.017 	"/>
	<polygon fill="#232734" points="15.951,27.158 15.864,27.221 15.789,27.146 15.875,27.08 15.951,27.158 	"/>
	<polygon fill="#232734" points="33.812,26.34 33.886,26.42 33.734,26.413 33.812,26.34 	"/>
	<polygon fill="#232734" points="14.488,26.42 14.411,26.476 14.424,26.352 14.488,26.42 	"/>
	<polygon fill="#232734" points="15.211,25.923 15.128,25.991 15.135,25.855 15.211,25.923 	"/>
	<polygon fill="#232734" points="15.176,25.421 15.104,25.445 15.115,25.374 15.176,25.421 	"/>
	<polygon fill="#232734" points="14.467,25.175 14.379,25.21 14.387,25.123 14.467,25.175 	"/>
	<polygon fill="#232734" points="14.884,24.739 14.854,24.647 14.936,24.658 14.884,24.739 	"/>
	<polygon fill="#232734" points="19.562,23.647 19.626,23.721 19.492,23.715 19.562,23.647 	"/>
	<polygon fill="#232734" points="15.227,23.214 15.141,23.288 15.15,23.131 15.227,23.214 	"/>
	<polygon fill="#232734" points="14.699,22.736 14.623,22.782 14.561,22.722 14.637,22.672 14.699,22.736 	"/>
	<polygon fill="#232734" points="46.973,22.094 46.781,21.999 46.849,21.931 46.941,22.126 46.973,22.094 	"/>
	<polygon fill="#232734" points="16.931,22.002 16.846,22.068 16.771,21.989 16.857,21.915 16.931,22.002 	"/>
	<polygon fill="#232734" points="17.838,18.708 17.909,18.789 17.756,18.777 17.838,18.708 	"/>
	<polygon fill="#232734" points="16.445,18.785 16.36,18.858 16.367,18.705 16.445,18.785 	"/>
	<polygon fill="#232734" points="35.667,13.252 35.478,13.163 35.546,13.103 35.642,13.278 35.667,13.252 	"/>
</g>
</svg>
