<svg id="_ÎÓÈ_1" data-name="—ÎÓÈ_1" xmlns="http://www.w3.org/2000/svg" viewBox="0 0 73.1 70.63"><defs><style>.cls-1{fill:#232734;}</style></defs><title>slice-cheese</title><path class="cls-1" d="M119.19,302.35l-0.45.39-0.47,1.19-0.54,1.71-0.23,1-0.08.64,0,1.25,0.57,1.47,0.58,1.14,0.54,1.16,0.57,0.85,0.78,0.7-0.2,1.08,0,1-0.29,3.89,0.16,2.24,0.47,2.27,0.29,0.42,0.23,0.46,0.34,0.2,0.05,0.36,0.28,0.84,0.67,2.49,0.07,1.15-0.22,1.4-0.08.64-0.1,1.58,0.31,1.21,0.42,1.21,0.35,1.24,0.31,0.64,0.54,0.43,1.4,1.56,3.86,1.79,1.1,1.21,0.43,1,0,1-0.43,1.48L130,347.77l-0.41.3-0.89.24-0.84,1.54-0.72,1.49-0.5,1.31,0.17,0.34-0.16,1.08-0.4.65-0.92,1.67-0.66,2.28,0,1,0.64,2,0.92,0.48,1.42,0.57,1.33,0.48,3.69,1.13,5.24,1.29,2,0.62,2.11,0.58,1.37,0.36,4.84,1.35,1.75,0.42,1.63,0.37,1.64,0.34,1.75,0.38,1.37,0.33,1.24,0.33L159,371l0.74,0.16,0.74,0.17,0.76,0.12,0.75,0.17,0.74,0.17,0.86,0.13,3.32,0.45,0.51,0.07,3.58,0.31,0.76,0h0.64l0.77,0.05,0.52,0.14,0.59-.13,0.24-.12,1.28-1.07,0.53-.71,0.72-1,0.75-.7,0.54-.47,0.27-.5,1.3-.87,1.35-1.17,0.21-.45,0.26-.26,1.05-.94,0.39-.5,0.82-1.13,0.51-.57,0.43-.78,0.62-1.11,0.65-.94,0.85-1.11,0.52-.8,0.12-1.13,0.06-.21,1.23-3.63,0.47-2.92,0.13-1.8,0.24-1.65,0.2-2.44v-1.92l0.12-2.45,0.27-1.25L190.3,337l0.13-.76,0.05-1,0-.9-0.08-1.9-0.38-1-0.9-2.93-0.4-.54-0.57-.85-0.53-.73-0.6-1-0.35-.54-0.31-.67-1-1.39-0.5-.7-0.41-.3-0.71-.75-0.79-.66-0.87-.76-1.23-1.13-0.9-.72-0.1-.08-1.06-.93-1.06-1L177,315.4l-1.41-.88-0.69-.35-0.35-.15-1-.35-1.49-.75-1.58-.54-2.7-.84-1.5-.36-1.36-.38-1.21-.26-2.39-.65-2.13-.68-3.21-.72-4-1.06-0.25-.06-3.51-.78-1.38-.3-1.89-.38-1.12-.29-1-.17-1.14-.21-1-.26-0.5-.13-1.25-.26-1.28-.14-1.14-.21-0.12,0-1-.13-1-.22-1.52-.27-1.29-.11-4.63-.35h-1.28l-0.38,0-2.16-.3-1.15-.16-1-.14-1.85-.1h0Zm53.46,63.38,0.07,0.21h-0.1l0.08-.22,0-.22,0.09,0-0.11.19h0Zm-4.18,2.64,0.37,0,0.29-.23L170,368l0.73,0.33-0.08.47,0.21,0.18,1.22-.31,0.3-.22,0-.25-0.2-.14-0.4,0,0.26-.41,0.39-.63,0.6-.27,1-.76,0.88-.19,0.18-.37,1.31-1.13,0.37,0.11,0.24,0,0.31-.21,0.14-.41,0.88-.8,0.55,0.14,0.28-.25,0-.22-0.2-.13-0.47-.05,0.79-1.07,1-.88,1.09-1,0.23-.44,0.91-.85,0.62-.8,0.93-1.21,0.25-.43,0.3-.51,0.12-.68,0.24-.72,0.68-1.07,0.65-1.09,0.3-1,0.29-1.11,0.09-1,0.46-2.11,0.35-.7,0-.37-0.09-.22,0.18-1.26,0.19-1.53,0.07-.25,0.1,0,0.24-.08v-0.45l-0.35-.16,0.12-1,0.06-.89,0-1,0.18-.75-0.35-.51-0.18-1-0.14-1.17,0.47-.18,0-.42-0.45.21-0.11,0-0.31-.74-0.32-2-0.36-1.49,0.29-.22,0.06-.25-0.24-.17-0.24,0-0.51-1.18-0.48-.76-0.4-.95-0.12-.23-0.78-1.89-0.24-.86-0.46-1.58,0.08-.1-0.36-.35-0.39-.27,0.17-.2,0.6,0.6-0.07.22,0.67,0.34,0.58,0.69-0.06.57,0.54,0.15,0.43,0.7,0.61,0.84,0.6,1,0.65,1,0.75,1,0.23,0.46,0.85,2.42,0.45,1.76,0,1.54,0,1.8-0.12.76,0.06,0.76-0.11.89-0.28,2.8,0,1.54-0.22,3-0.08.64L189,348.39l-0.12,1.67-0.3,1.77-0.24,1-0.71,2-0.6,1.3-0.16,1.33-0.69,1-0.58.83-0.65.95-0.53.87-0.45,1-0.64.72-0.55.7-0.52.74-1.3,1.18-0.22.46-1,.86-2.16,1.75-0.28.23-0.47.4-0.36.52-0.52.72-0.53.71-0.34.14-1,.87-1-.26-1.48,0-0.27.27h-0.57l-0.09-.35-0.76,0-0.26.44-0.55-.06-0.23-.46-0.72.35-0.78-.05,0-.61-0.5,0-0.12.07-0.17.32-0.21,0-0.2-.43-0.68.4-1.32-.27L164,371l-0.78-.17-0.19-.17H163l-0.63.42-0.74-.14-0.07-.25-0.83.09-0.87-.23-0.09-.36-0.57,0-0.29.25-0.34-.27,0.47-.3L159,369.8l-0.75-.06-0.11.23-0.85-.17-0.86-.15-0.23-.41-0.32.11,0,0.44-1-.46-0.9,0-0.87-.19-0.81-.3-0.05-.34L152,368.2H152l-0.17.34-0.25.28-1.47-.39h0l-1.11-.23,0.09-.45-0.26.11-0.32.18-0.15-.34-1-.26-0.54.21-0.51-.21-0.15-.3-0.9.08-1.62-.38-1.35-.4-0.28-.25-0.36-.05-0.37,0-0.53-.23-0.3,0-0.07-.29,0.05-.1-0.33-.78-0.37,0-0.2.45-0.49-.1-0.31-.31-0.52.07-1.14-.46-0.1-.23h0.84l1,0.25,0.94,0.34,0.37,0,0.23-.08,2.49,0.54,0.86,0.24,1.13,0.22,1.25,0.28,2.79,0.37,0.14-.41-0.11.06-1.76-.18-0.75-.14-0.86-.22-1.87-.37-2-.55-0.26-.26-0.37,0-0.1.07-1.25-.09-0.47-.12-0.17-.2-0.37,0-0.9-.26-0.22.08-1.52-.14-0.25-.26-0.21.09L134,363l-0.1-.07-0.16-.18-0.1.06-0.8-.33-0.37,0-0.2,0v-0.09l0.19,0.09,0.37,0,0.9,0.25,0.21-.1,1.79,0.44,0.16,0.18,0.21-.1,1.51,0.19,0.26,0.26,0.9,0.25h0.37l0.1-.07,1.5,0.14,0.23,0.09,0.17,0.19,0.37,0,0.23-.07,2.25,0.37,0.12,0,3.34,0.74,1.35,0.36L149,366h0.34l1.56,0.76,0.61,0.14,2.48,0.47,0.22-.08v0L154,367l-1.19-.24-0.17-.2-0.37,0h-0.57l0.3-.21,0.27,0.24,0.37,0,0.1-.07,1.62,0.16,1.49,0.23,1.47,0.32,0.23,0.3,0.35,0-0.22-.41,0.58,0.08,0.37,0,0.49-.08,1.67,0.08h0.51l2.81,0.3,2.66,0.38,1.13,0.21,0.17,0.2,0.36,0h0Zm19.09-28.25,0.08,0.2-0.14,0,0.1-.17-0.19-.21-0.29.22-0.41.11,0,0.3,0.51,0.47-0.28.52L187,342l-0.47.41v0l0.21,0.1,0.72-.06v0.38l-0.58.37,0.1,0.5,0.43,0.29-0.34.17-0.49-.3-0.26,1,0.5,0.09,0.22,0.13,0,0.2-0.35.14v-0.05l0.15,0.6-0.47.33-0.53-.09-0.62.58,0.57-.09,0.24,0.07,0.29,0.24,0,0.33-0.23,0-0.3-.24-0.24,0-0.33.51,0.46,0.23-0.12.45,0.12,0.21,0.2,0.16,0.35,0.15,0,0.41h-0.22l-0.66-.61h-0.15l-0.18.16,0.1,0.62-0.13.34v-0.06l0.61,0.14,0.2,0.1,0.07,0.62-0.39.33-0.32-.5-0.12,0-0.21.22v0.86l0.09,0.74-0.22.17H184l-0.19.37,0.08,0.11,0.62,0.12,0,0.09-0.67.52-0.22.1-0.06.63-0.13.82,0.32-.2,0.22,0.1v0.22l-0.22.07-0.3-.24-0.5.39-0.3.11,0,0.9-0.6.4-0.36-.14-0.4.65-0.78.43-0.12.61-0.22-.1L180,358l-0.49-.2,0,0.47,0.3,0.45-0.07.51-0.38.67-0.72.62-0.72.23-0.55-.08,0,0.55,0.58,0.09,0.16,0.19-0.21.24-0.36-.12-0.94.44-0.19.68-0.26.22,0.22,0.57-0.81,0h0.06l-0.63.33,0-.59-0.23-.06-0.35,0-0.24.46-0.17.34-0.28.42-0.28.49-1-.06-0.18.45-0.38.06-0.3.24-0.1.57-0.06.18-0.12,0-0.27-.16-0.4.1-0.32-.26L170,366l-0.39.1-0.16-.19v-0.65l-0.2-.05-0.29.27-0.15.78-0.83.26-0.12,0-0.27-.41-0.16-.48-0.31-.17-0.18.27,0.24,0.11,0.18,0.58-0.06.13-0.48-.1-0.07-.46-0.21-.22-0.7-.12-0.79-.72H165l-0.16.2,0.21,1-0.59-.15-0.73-.24-0.36.08-0.12-.22-0.74-.26-0.24-.06-0.44.63h-0.48l-0.08-.1,0-.25-0.16-.18-0.3.18-0.09.24h-0.87l-0.14-.48-0.35-.13-0.16-.48-0.34-.11-0.07-.24-0.41.18v0l0.31,0.4,0.16,0.44,0.29,0.09-0.1.48-0.34,0-0.6-.36-0.53.24-0.33-.47-0.5.07-0.47.16-0.33-.65h0.06l-0.18.16-0.65-.21-0.11-.21h0l-0.44.33,0.22,0.29v0.12h-0.11l-0.06-.4-0.37-.66h-0.35l-0.39.9-0.64,0,0.4-.58-0.74-.19-0.32.19v0.26l-0.18-.11-0.19.06,0-.07,0.23,0.05,0.22-.19-0.39-.4h0.05l-0.31.23-0.59-.16-0.34.24-0.55-.14-0.45.28-0.18-.35-0.88-.11-0.51-.69-0.54.61-0.68-.28,0.48-.32-0.19-.29-0.46,0-0.4.29-1.88-.13-0.39-.17-0.68,0-0.2-.44H143l-0.12.22-0.64,0-0.74.07-0.31-.27-0.46-.14-0.27-.28-1.13-.46-1.08.09-0.9-.1-0.5.09-1.22-.46-0.29-.36-0.41-.29-0.23.08-0.37.63,0,0.25-0.07-.06,0.1-.2-0.07-.35-0.07-.49-0.19-.13-0.12.2-0.83.36-0.35-.13L132,361l0.11-.47-1,.21-0.24,0h0.05l-1-.33,0-.41-0.31-.11-0.89.55,0-.17,0.28-.43-0.47.08H128l-0.14.25-0.47.13-0.76,0-0.32-.34,0.13-.75-0.31.11-0.06.41-0.56.28-0.08-.7,0.25,0-0.06-.7,0.28-1.63,0.11-.23,0.35-.38,0-.46,0.74-1.43,0.67-.65,0.53-.8v0l-0.24-.31,0.33-1,0.23-.09,0.24-.6,0.17-.72v0.06l0-.35,0.67-.77,0.6-.62,0.45-.17,0.11-.66,0.1-1.25,0.36-2.11L131,343.32l-0.11-.89-0.25-.72-1.23-1-1-.41-0.81-.39-0.22-.12-0.73-.72-1.19-.78-0.11-.21L125,337.5l-0.92-1.06-0.63-.46-0.14-.35-0.27-1,0-.25,0.12-1.24,0.22-2.14-0.28-1-0.36-2.54,0.46-.45,0.59,0.07,0.37-.49-0.3-.18-1.14-.35-0.65-.76-0.37-.67-0.4-.94-0.18-1,0.1-1.53,0-.51L121.09,319l-0.29-1.47v-0.3l0-1.67v-0.13l0.21-1.26,0.19-.33,0.17-.43-0.18-.53-1-1.13-0.65-.75-0.31-.41-0.75-1.17-0.1-.37-0.24-.16,0-.88L118,307.1l1.21-3.33,0.23,0.1,0.42-.13,0.06-.24,0.84-.33-0.19.48,0.24,0.95,0.24-.12,0.21-.57,0.42,0.06,0.13,0.22,0.7,0.3,0.33-.19-0.09-.21,0.1-.74,0.29,0.16,0.27,0.68,0.35,0,0.24,0.28,0.35-.09,0.17-.33,0.4,0.27,0,0.25,0,0.12,0.15,0.19,0.3-.19,0-1.16,1.32,0.16h0.72l0.76,0.14,0.76,0,0.88,0.15,0.88,0.06h0l0.38,0,1.66,0.16,0,0.22-0.1.23,0.11,0.31,0.23-.09,0.15-.46,0.27-.06,3.31,0.47,2.54,0.37,0.34,0.09,0.31,0.48-0.17.56v0.25l0.22,0-0.07.21,0.3,0.23,0.25,0,0.87-.68,0.94,0.15,0.59-.37,0.07,0-0.3.93,0.15,0.21,0.86-.12,0.24-.05,0.12-.2-0.1-.22-0.68-.21,0-.11,0.09-.09,1.08,0.22,0,0.71,0.85,0.28,0.27-.05-0.62-.4,0.1-.45,1.43,0.42,0,0.12-0.07.07h-0.65l-0.27.23,0.09,0.08,0.49,0.05,0.55,0.18,0.47-.6,0.48,0-0.1.34,0.06,0.24h0l0.5-.17,0.22,0.44,0.4-.08,0.56,0.26v0.68l0.27,0.2,0.16-.64h0.86l0.89,0,0.57,0.23,0.59,0.62h0.9l0.47,0.16,0.46-.59h0.49l0.42,1.06,0.33-.15,0.44,0.18,0.21,0.46,0.35,0.13,0.3-.21-0.21-.31,0.45-.39-0.21.59-0.08.1,0.33,0.3,1,0.08,0.47,0.36,0.38-.41,0.1,0.24h0.59v0L160,310l0.39,0.3,0.23,1,0.38,0.12,0.42-.37,0-.23-0.21-.31-0.22,0,0-.09,0.19,0.1,0.1-.07,1,0.15,0.91,0.85,0.06-.12,0-.12,0.45-.05v0.63l0.69,0.51,0.34,0.16,0.53-.37v-0.34l0.39,0v0.13l-0.45.16,0.27,0.26h0.57l0.79,0.62,0.91-.79,0.22,0,0.17,0.36,0.26,0.06,0.48-.1,0.72,0.28h0.43l0.69,0.27,0.27,0.25,0.22-.05v0.11l-0.22-.11-0.27.4,0.65,0.33,0.4,0,0.72,0.31,0.06,0.32-0.45.66,0.14,0.2,0.23-.07,0.81-.63,0.23-.38-0.28.38,0.56,0.44,0.12,0,0.43,0.1,0.2,0.32-0.21,1.13,0.07,0.1h0.32l0.2-.44,0.33-.28,0.46,0,0.22,0.35,0.49,0.09,0.19,0.45,0.54,0.29,0,0.25-0.3.24,0.07,0.34h0l0.34-.21,0.33,0.14,0.48-.1,0.22,0.63,1,0.47,0.53,0.84,0.13,0,0.24-.06,0.32,0.15-0.32.61,0.53,0.41,0.55,0.54,0.23,0.09,0.37-.07,0.18,0.28-0.25.06-0.2.29-0.27.1,0.18,0.29,0.5-.12,0.42,0.8,0.33,0.82,0.3-.2,0.27,0.26-0.24,0H183l-0.2-.12-0.28.24,0.11,0.73,0.34-.09,0.36-.18,0,0.66,0,0.25-0.34.49h0.62l0.22-.39-0.26.38,0.26,0.25,0.08,0.36,0.57,0.22-0.31.54,0.1,0.25-0.21.7,0.31,0.3,0.33-.36,0.6,0.19,0.21,0.28-0.29.07-0.2.44v-0.06l0.23,0.08,0.41-.08-0.19.47-0.1.5-0.34.18-0.05.62,0.07,0.24,0.31,0.09,0.26-.42,0.24,0.23-0.08,1.15,0,0.12-0.28.24,0.2,0.4,0.47,0.05,0.52-.16-0.64.61,0,0.37,0.16,0.43,0.31,0.18,0.13,0.62,0.17,0.71,0.44-.2-0.07-.19,0.06,0,0,0.23,0.21,0.3-0.26.43-0.24.42L187,337l0.64,0.14v0.36l-0.22,0-0.36-.1-0.28,0-0.26.32,0.93,0.92,0.29,0.22-0.31.43V340l0.21,0-0.06.21h0ZM153.44,365.9l-0.2.06v-0.09l0.19,0.09,0.21-.05V366l-0.2-.1h0Zm-17.79-2.08-0.36,0-0.21,0,0-.09,0.19,0.11,0.36,0,0.23,0,0,0.1-0.21-.11h0Zm-1.26-.28-0.36,0-0.1.06-0.61,0-1.29-.36-0.16-.18-0.76-.14v-0.14l0.77,0.31,0.58-.07,0.71,0.22,0.68,0.17,0.19,0.22,0.36,0,0.22,0v0.1l-0.21-.1h0Zm-1.16-1.73-0.2.06,0-.12,0.17,0.1,0.19-.07,0.05,0.07-0.24,0h0Zm-2,.38-0.36,0-0.36,0-0.2.06,0-.07,0.23,0.06,0.36,0,0.36,0,0.23,0,0,0.1-0.21-.11h0Zm-1.58-1-0.36,0-0.21.05,0-.09,0.18,0.09,0.36,0,0.21,0v0.09l-0.19-.1h0Zm-2-.34-0.19.06v-0.09l0.19,0.08,0.21,0v0.09l-0.2-.11h0Zm-1.62-.3-0.21,0v-0.1l0.21,0.1,0.2-.08v0.14l-0.19-.11h0Zm8.54,3.62,0.53,0.22,0.1-.07,0.48,0-0.29.25-0.28-.24-0.39-.05-0.14-.18-0.2.07,0-.1,0.22,0.09h0Zm48.68-8.23,0.41-.19-0.4.15-0.2.05v-0.09l0.19,0.08h0Zm-61.59-52.66h-0.31l-0.06-.2h0.11l0.26,0.23h0.24l-0.06.07-0.18-.1h0Zm18.61,2.91,0.12-.77,0.38,0.29-0.29.49h-0.21Zm37.24,56.2,0.17,0.31-0.56.49H177l0.29-.38,0.19-.41h0Zm-11,4.57-0.49-.33v-0.12l0.18-.1,0.52,0.31-0.21.25h0Zm-42.58-63.12-0.08-.23,0.13-.2,0.28,0.19-0.11.21-0.22,0h0Zm0.85,34.42-0.3,0,0.09-.3,0.21,0v0.31h0Zm33-28.8h0.11l0.19,0.13-0.08.2-0.3,0,0-.31,0.09-.08h0Zm7.09,1.81v0.45l-0.43-.08,0.44-.37h0Zm2.2,1-0.49,0V312l0.24-.13,0.25,0.44h0Zm2,54.65-0.08-.22,0.29-.12,0.11,0.31-0.33,0h0Zm13.2-9.3-0.18.25h-0.25l-0.06-.32,0.48,0.06h0Zm-62.7-54.44-0.09-.22,0.1,0h0.13l0.19,0.21-0.22.1-0.11,0h0Zm31,4.47-0.43.11,0-.1,0.15-.1,0.32,0.09h0Zm-6.19,56.52H144l-0.11,0-0.07-.16,0.1-.05,0.31,0.22h0Zm14.47,2.34,0-.18,0.18,0.09v0.11l-0.17,0h0ZM184,354.37l0-.08,0.12-.16h0.11l-0.09.24H184Zm-3,3.91,0.18,0.14-0.11.1-0.12-.19,0.05-.05h0Zm-27.78-50-0.25.35h-0.12l0-.19,0.41-.15h0Zm2.16,0.85,0-.12,0.2-.09-0.1.19-0.12,0h0ZM126.84,340H127v0.12l-0.2.07V340h0Zm1.06,0.57,0.17,0.12-0.1.1-0.12-.17,0-.05h0Zm51-22.3,0.09,0,0.11,0,0.08,0.22H179l-0.09-.22h0Zm-54.26-14.75,0.09,0-0.06.06,0-.09h0Zm34,6.31,0-.09,0.06,0.06-0.09,0h0Zm-29.31,31.64-0.08,0,0-.05,0,0.07h0Zm0.7,0.36,0,0.08-0.06,0,0.07,0h0Zm-2.56,10.85h-0.07l0-.05,0,0.07h0Zm48-37.25,0.07,0,0,0.05,0-.07h0Zm-48.72,46.38v-0.13l0.12,0v0.12h-0.12Zm1.61-.64-0.08,0,0.05-.06,0,0.08h0Zm2.64,0.4,0-.08,0.06,0-0.07,0h0Zm1.25,0.28v-0.1l0.09,0v0.09h-0.09Zm48.82-41.17H181v-0.1h0.09l0,0.09h0ZM134.72,362.2h-0.11v-0.11h0.1v0.11h0Zm1.71,0.4,0.09,0-0.06.06,0-.08h0ZM136.3,364h0.11v0.11h-0.11V364h0Zm-0.19.65v-0.08l0.07,0.06-0.08,0h0Zm3.6,1v-0.08l0.06,0.05-0.07,0h0Zm44.83-38.13v-0.11l0.11,0.11h-0.11Zm-36.08,37.53h-0.11v-0.11h0.11v0.11h0Zm2.38,1.27,0-.07,0.06,0-0.07,0h0Zm1-.49-0.08,0,0-.05,0,0.08h0Zm2.64,0.39v-0.07l0.06,0-0.07,0h0Zm5.18,0.39-0.09,0,0.06-.07,0,0.09h0Zm3.74,0.15v-0.09l0.09,0.09h-0.09Zm19.11-9.38,0-.09,0.05,0-0.09,0h0Zm-3.62,3.55-0.07-.07,0.09,0,0,0.09h0Z" transform="translate(-117.38 -302.35)"/><path class="cls-1" d="M143.12,320.68l0.39-.34,0.2-.82-0.24-.78-0.54-.37-1.35-.68-1.82-.42-0.61.06-2.74-.11-0.63.59-0.05.47,0.14,0.27,2.51,1.95,1.61,0.71,1-.09,1.23-.31,0.87-.15h0ZM142,318.54l-0.23.05,0-.1,0.21,0.1,0.22-.06v0.1l-0.22-.1h0Zm-1.74,1.91-0.22.07-0.74-.33h-0.19l-0.54-.31-0.79-.39-0.82-.57-0.48-.57,0.08-.21,0.05-.23-0.1.22,0.42,0.26,0.47,0.09,0.18,0.39,0.49-.35,0.41,0,0.21,0.33,0.48,0,0.7,0.3h0.48l-0.2-.46,0.11-.33,0.47,0.35-0.12.88,0.37-.1,0.48,0.16,0.11-.07,0.11-.21,0.11-.16,0.16,0.18-0.09.46,0.2,0.37,0.46-.4,0.18,0.06,0,0.12-0.28.24-0.33-.06-1.43.39-0.45-.14h0.06Zm-3.33-2.65,0.82-.12-0.15.41-0.67-.29h0Zm5.53,1.11,0.36,0,0.08,0.19-0.1.06-0.34-.28h0Zm-3.75-.78,0-.1,0.21-.08v0.12l-0.17.12-0.07-.05h0Zm2.26,0.21-0.08,0,0.06-.06,0,0.08h0Z" transform="translate(-117.38 -302.35)"/><path class="cls-1" d="M164,352.51l2,0,0.75-.18,0.86-.5,0.61-.79,0.14-.52,0.22-.59,0-.73-1.28-1.49-0.33-.19-1.37-.84-0.43-.05-0.38,0-0.93.68-0.81.44-0.59,1.62,0.08,1.37,0.61,1.09,0.91,0.69h0Zm-0.41-4.28L164,348l0.27,0.53-0.68-.35-0.21,0,0.2,0.09h0Zm-0.29,1.57-0.23,0,0.08-.21v-1l0.79,0.55,0.85-.45,0.43-.25-0.25-.45,0.49,0-0.3.41,0.4,0.39h0l0.43-.33-0.05-.2H166l-0.08.19,0.24,0.55,0.72-.18,0.15,0.32,0.59-.23,0,0.57,0.09,0.07,0.24,0.09-0.4,1.16-0.86.6-0.68.35-1,.16-0.86-.11-0.86-1,0.06-.76,0-.37h0Zm1.76-2.44h0.1l-0.1.09v-0.09h0Z" transform="translate(-117.38 -302.35)"/><path class="cls-1" d="M140.76,351.4l-0.6-.74-1.62-.08-0.88.21-0.83.77-0.58.85-0.5.86,0.15,1,0.91,1.06,0.89,0.09,0.61-.45,0.64-.42,1.24-.91,0.56-2.26h0Zm-1.8,1.33-0.23.4,0.44,0.25,0,0.26-0.71.54-0.7.31-0.61.17-0.27-.05-0.38-.49V354l0.54-.69-0.31-.15,0.21-.23,1.15,0.21,0.13-.32,0.31-.19,0.47,0.15,0.29-.22,0.28,0.17-0.07.21-0.23,0-0.26-.24h0Zm-1.66-.33,0-.12,0.17-.12,0.36,0.1,0.1,0.32-0.33.08-0.28-.26h0Zm1.39-.56-0.21-.21,0.22-.22v0.43h0Zm0.67-.4h0.11l-0.13.13v-0.12h0Zm0.41,0.78,0,0.08-0.05,0,0.08,0h0Z" transform="translate(-117.38 -302.35)"/><path class="cls-1" d="M160.71,324.94l-0.47.17-0.13,2.11,0.84,0.54,1.42-.15,1.07-.91,0.15-.76-0.32-.82-0.23-.29-1.31-.6-0.71.16-0.32.54h0ZM163,326.3l-0.15.44-0.45.38-0.87.14-0.81-.22,0-.5,0.34-.09-0.09-.24,0.17-.39h0.14l0.51,0.51,1.25,0h0Z" transform="translate(-117.38 -302.35)"/><path class="cls-1" d="M149.32,345.43l0.79,0.9,0.41,0,0.6-.42,0.16-1.72-0.13-.23-0.41-.44-0.69,0-0.25.25-0.31.56-0.16,1.1h0Zm0.63-.75,0.71-.23,0.09,0.05,0.11,0.63-0.17.15-0.38-.11-0.45,0,0.09-.48h0Z" transform="translate(-117.38 -302.35)"/><path class="cls-1" d="M172.24,326.92l0.64-.89,0-.42-0.54-.6-1.22-.06-0.29.25-0.07,1,0.44,0.19,0.37,0.31,0.7,0.21h0Zm-0.15-.89-0.39-.39,0-.08,0.12,0,0.24,0.45h0Z" transform="translate(-117.38 -302.35)"/><path class="cls-1" d="M138.84,326.49l0,0.46,1.14,0.84,0.75-.55,0.12-.41-0.15-.77-0.41-.33-1,.43-0.4.34h0Zm1.38,0.31-0.33.34-0.34-.09,0.12-.46,0.55,0.22h0Z" transform="translate(-117.38 -302.35)"/><path class="cls-1" d="M125.91,315.72l-0.15.92,0.33,0.38,0.58,0.24,0.46-.17,0.28-.73-0.41-1-0.65,0-0.43.37h0Zm0.72,0.4,0-.2h0.08l-0.07.18,0.17,0.16,0,0.23-0.08,0-0.22-.23,0.12-.18h0Z" transform="translate(-117.38 -302.35)"/><path class="cls-1" d="M146.39,333.22l0-.84-0.6-.71-0.25,0-0.66.55,0,1,0.74,0.56,0.68-.53h0Zm-1-.74,0.1-.08,0.31,0.09,0,0.38-0.34.23-0.11-.62h0Z" transform="translate(-117.38 -302.35)"/><polygon class="cls-1" points="10.77 2.16 10.53 2.12 9.79 2.32 9.6 2.8 9.41 3.23 9.79 3.29 9.94 2.95 10.45 2.65 10.64 2.83 11 2.79 11.05 2.68 12.04 2.7 12.44 2.21 12.27 2.03 11.42 2.09 11.33 1.81 11.01 1.9 10.73 2.16 10.73 2.39 10.68 2.34 10.77 2.16 10.77 2.16"/><polygon class="cls-1" points="62.35 39.31 63.17 40.01 63.4 39.87 63.74 39.19 63.73 39.06 63.42 38.35 63.1 38.24 62.47 38.68 62.35 39.31 62.35 39.31"/><polygon class="cls-1" points="59.93 51.94 59.24 51.54 58.58 51.97 58.59 52.62 58.84 52.91 59.19 53 59.63 52.77 59.93 51.94 59.93 51.94"/><polygon class="cls-1" points="50.14 11.74 50.35 11.73 50.84 11.18 51.18 10.88 51.08 10.65 50.38 10.45 50.04 10.78 50.27 11.02 50.14 11.74 50.14 11.74"/><polygon class="cls-1" points="9.36 1.32 8.88 1.75 8.67 2.31 8.61 2.55 8.8 2.97 9.13 2.81 9.17 2.45 9.2 2.21 9.35 2.02 9.55 1.59 9.32 1.32 9.36 1.32 9.36 1.32"/><polygon class="cls-1" points="62.05 56.69 61.78 56.49 61.63 56.73 60.73 57.47 60.92 57.64 62.05 56.69 62.05 56.69"/><polygon class="cls-1" points="56.8 60.05 56.54 59.76 55.85 59.85 55.29 59.66 55.13 59.97 55.31 60.12 55.91 60.34 56.33 60.14 56.8 59.99 56.8 60.05 56.8 60.05"/><polygon class="cls-1" points="67.63 26.99 67.36 26.69 67.03 26.79 66.89 27.21 66.45 27.39 66.65 27.68 67 27.58 67.34 27.51 67.46 27.41 67.63 26.93 67.63 26.99 67.63 26.99"/><polygon class="cls-1" points="52.15 11.68 52.28 11.97 52.91 11.6 53.05 11.13 52.93 10.81 52.62 10.89 52.44 11.57 52.15 11.68 52.15 11.68"/><polygon class="cls-1" points="53.27 13.07 53.8 13.14 53.88 12.9 54.49 12.55 54.51 12.33 54.31 12.22 53.27 13.07 53.27 13.07"/><polygon class="cls-1" points="69.31 36.57 69.22 36.8 68.72 36.75 69.24 37.38 69.45 37.32 69.76 36.66 69.31 36.57 69.31 36.57"/><polygon class="cls-1" points="7.66 5.38 7.01 5.94 7.59 6.17 7.77 5.87 7.66 5.38 7.66 5.38"/><polygon class="cls-1" points="13.36 1.63 13.04 2 12.85 2.57 13.02 2.76 13.31 2.58 13.58 2.03 13.58 1.91 13.33 1.63 13.36 1.63 13.36 1.63"/><polygon class="cls-1" points="20.78 36.5 20.57 36.31 20.06 36.62 20.05 36.87 20.21 37.07 20.71 36.98 20.78 36.5 20.78 36.5"/><polygon class="cls-1" points="46.44 13.9 46.11 13.77 45.74 14.21 46.21 14.57 46.44 13.9 46.44 13.9"/><polygon class="cls-1" points="61.96 17.3 61.71 17.33 61.29 17.9 62.04 17.98 61.96 17.3 61.96 17.3"/><polygon class="cls-1" points="56.2 61.02 55.38 61.33 55.22 61.51 55.38 61.79 56.2 61.51 56.2 61.02 56.2 61.02"/><polygon class="cls-1" points="68.59 34.96 68.65 34.6 68.46 34.44 68.01 34.28 68.12 34.9 68.59 34.96 68.59 34.96"/><polygon class="cls-1" points="55.5 13.2 55.54 13.83 56.15 13.92 56.28 13.72 56.25 13.62 55.62 13.22 55.5 13.2 55.5 13.2"/><polygon class="cls-1" points="2.08 3.14 2.36 3.4 2.67 3.33 2.74 3.11 2.72 2.87 2.69 2.73 2.47 2.45 2.52 2.46 2.11 2.81 2.11 2.76 2.08 3.19 2.08 3.14 2.08 3.14"/><polygon class="cls-1" points="18.8 2.87 18.63 2.67 18.14 2.98 18.5 3.54 18.8 2.87 18.8 2.87"/><polygon class="cls-1" points="30.14 5.27 29.84 5.56 29.84 6.04 30.32 6.07 30.42 5.65 30.09 5.27 30.14 5.27 30.14 5.27"/><polygon class="cls-1" points="68.56 42.99 68.1 42.83 67.88 42.89 67.81 43.22 67.96 43.41 68.38 43.38 68.56 42.94 68.56 42.99 68.56 42.99"/><polygon class="cls-1" points="10.36 52.72 10.03 52.56 9.77 53.28 10.09 53.41 10.26 53.24 10.3 53.12 10.36 52.72 10.36 52.72"/><polygon class="cls-1" points="53.25 63.41 53.55 63.18 53.94 63.17 54.15 62.89 53.41 62.65 53.13 62.87 53.13 62.84 53.2 63.2 53.3 63.41 53.25 63.41 53.25 63.41"/><polygon class="cls-1" points="44.11 9.12 44.94 8.71 44.76 8.55 44.14 8.9 44.11 9.12 44.11 9.12"/><polygon class="cls-1" points="2.47 2.45 2.94 2.27 2.96 1.88 2.42 1.86 2.23 2.16 2.52 2.46 2.47 2.45 2.47 2.45"/><polygon class="cls-1" points="3.97 3.22 3.95 2.99 3.77 2.82 3.36 2.83 3.56 3.26 3.77 3.35 3.97 3.22 3.97 3.22"/><polygon class="cls-1" points="20.13 3.49 20.28 3.69 20.76 3.36 20.64 3.03 20.13 3.49 20.13 3.49"/><polygon class="cls-1" points="22.03 3.58 21.86 3.3 21.14 3.44 21.05 3.53 21.02 3.65 21.07 3.73 21.31 3.79 21.44 3.78 22.03 3.58 22.03 3.58"/><polygon class="cls-1" points="9.01 55.91 9.36 55.58 9.08 55.29 8.75 55.36 9.01 55.91 9.01 55.91"/><polygon class="cls-1" points="11.21 55.72 11.53 55.6 11.44 55.26 11.24 55.11 11.12 55.1 10.99 55.29 11.05 55.53 11.21 55.72 11.21 55.72"/><polygon class="cls-1" points="13.51 58.4 13.82 58.13 13.74 57.82 13.22 57.72 12.98 57.96 13.56 58.4 13.51 58.4 13.51 58.4"/><polygon class="cls-1" points="68.62 31.62 68.64 31.25 68.02 31.5 67.95 31.74 67.98 32 68.62 31.62 68.62 31.62"/><polygon class="cls-1" points="56.8 59.99 57.08 60.27 57.77 60.14 57.07 59.83 56.8 60.05 56.8 59.99 56.8 59.99"/><polygon class="cls-1" points="27.89 60.01 27.99 60.48 28.26 60.67 28.32 59.8 28.06 59.58 27.88 60.06 27.89 60.01 27.89 60.01"/><polygon class="cls-1" points="66.84 32.7 67.22 33.01 67.21 32.47 66.99 32.4 66.84 32.57 66.84 32.7 66.84 32.7"/><polygon class="cls-1" points="6.02 1.78 5.46 1.95 5.92 2.36 6.15 2.3 6.22 2.09 6.02 1.78 6.02 1.78"/><polygon class="cls-1" points="65.26 52.37 65.27 51.87 64.78 52.24 64.94 52.51 65.26 52.37 65.26 52.37"/><polygon class="cls-1" points="66.9 46.33 67.11 46.18 66.96 45.58 66.71 45.77 66.9 46.33 66.9 46.33"/><polygon class="cls-1" points="37.44 61.67 37.88 61.28 37.82 60.94 37.52 60.97 37.49 61.67 37.44 61.67 37.44 61.67"/><polygon class="cls-1" points="19.14 3.65 19.45 3.85 19.55 3 19.28 3.05 19.14 3.65 19.14 3.65"/><polygon class="cls-1" points="16.36 3.12 16.85 3.22 17.13 2.59 16.9 2.64 16.35 3.17 16.36 3.12 16.36 3.12"/><polygon class="cls-1" points="15.66 3.68 15.72 3.21 15.18 3.15 15.66 3.68 15.66 3.68"/><polygon class="cls-1" points="14.17 2.6 14.65 2.49 14.65 2.06 14.19 2.37 14.21 2.61 14.17 2.6 14.17 2.6"/><polygon class="cls-1" points="2.29 4.33 2.38 4.25 2.44 4.04 2.16 3.87 2 4.04 2.08 4.25 2.29 4.33 2.29 4.33"/><polygon class="cls-1" points="4.4 2.99 4.63 2.96 4.71 2.67 4.41 2.6 4.3 2.79 4.4 2.99 4.4 2.99"/><polygon class="cls-1" points="14.21 2.61 13.97 2.88 14.02 3.1 14.24 3.17 14.4 2.89 14.17 2.6 14.21 2.61 14.21 2.61"/><polygon class="cls-1" points="12.68 4.71 12.99 4.61 12.93 4.38 12.71 4.29 12.68 4.71 12.68 4.71"/><polygon class="cls-1" points="16.35 3.17 16.26 2.7 15.79 2.71 16.36 3.12 16.35 3.17 16.35 3.17"/><polygon class="cls-1" points="21.07 4.69 20.88 4.57 20.68 4.64 20.64 4.85 20.92 4.97 21.07 4.69 21.07 4.69"/><polygon class="cls-1" points="35.44 10.93 35.75 10.93 35.7 10.63 35.48 10.64 35.44 10.93 35.44 10.93"/><polygon class="cls-1" points="32.31 18.82 32.54 18.87 31.96 18.2 32.31 18.82 32.31 18.82"/><polygon class="cls-1" points="48.53 11.24 48.72 11.08 48.64 10.69 48.52 10.66 48.43 11.05 48.59 11.24 48.53 11.24 48.53 11.24"/><polygon class="cls-1" points="50.71 13.54 50.7 14.05 50.96 14.24 50.71 13.54 50.71 13.54"/><polygon class="cls-1" points="52.62 14.29 52.93 14.24 52.83 13.93 52.54 14.07 52.62 14.29 52.62 14.29"/><polygon class="cls-1" points="10.79 52.23 10.79 52.35 11.16 52.51 11.26 52.3 10.98 52.1 10.79 52.23 10.79 52.23"/><polygon class="cls-1" points="9.43 54.18 9.02 54.43 9.01 54.64 9.24 54.7 9.51 54.48 9.43 54.18 9.43 54.18"/><polygon class="cls-1" points="56.2 15.32 56.42 15.37 56.43 14.95 56.2 14.99 56.2 15.32 56.2 15.32"/><polygon class="cls-1" points="58.38 15.68 58.41 15.19 58.13 14.99 58.38 15.68 58.38 15.68"/><polygon class="cls-1" points="13.57 55.21 13.88 55.29 13.91 55 13.6 55 13.57 55.21 13.57 55.21"/><polygon class="cls-1" points="59.63 15.74 59.33 16 59.34 16.45 59.68 16.21 59.59 15.73 59.63 15.74 59.63 15.74"/><polygon class="cls-1" points="13.85 56.44 13.59 56.19 13.29 56.31 13.35 56.53 13.44 56.6 13.85 56.39 13.85 56.44 13.85 56.44"/><polygon class="cls-1" points="20.77 57.01 20.78 57.24 20.99 57.33 21.18 57.06 20.86 56.94 20.77 57.01 20.77 57.01"/><polygon class="cls-1" points="24.17 56.44 24.28 56.48 24.5 56.38 24.39 56.07 24.16 56.13 24.08 56.35 24.17 56.44 24.17 56.44"/><polygon class="cls-1" points="46.38 40.64 46.08 40.57 45.98 40.77 46.27 40.94 46.38 40.64 46.38 40.64"/><polygon class="cls-1" points="29.08 58.42 29.48 58.93 29.66 58.66 29.08 58.42 29.08 58.42"/><polygon class="cls-1" points="39.5 50.45 39.71 50.86 40.08 50.68 39.74 50.52 39.5 50.45 39.5 50.45"/><polygon class="cls-1" points="29 59.84 29.01 60.06 29.23 60.15 29.42 59.88 29 59.84 29 59.84"/><polygon class="cls-1" points="64.51 32.01 64.51 31.7 64.18 31.74 64.19 31.96 64.51 32.01 64.51 32.01"/><polygon class="cls-1" points="34.51 61.81 34.75 61.55 34.62 61.25 34.41 61.32 34.34 61.42 34.56 61.82 34.51 61.81 34.51 61.81"/><polygon class="cls-1" points="66.84 35.28 67.29 35.38 67.28 34.94 66.84 35.28 66.84 35.28"/><polygon class="cls-1" points="40.92 62.14 40.8 61.68 40.5 61.52 40.48 61.95 40.92 62.1 40.92 62.14 40.92 62.14"/><polygon class="cls-1" points="67.49 38.61 67.27 38.66 67.21 38.97 67.41 39.07 67.6 38.81 67.49 38.61 67.49 38.61"/><polygon class="cls-1" points="62.7 43.2 62.65 42.89 62.33 42.97 62.38 43.2 62.7 43.2 62.7 43.2"/><polygon class="cls-1" points="40.05 62.72 40.37 62.88 40.4 62.39 40.11 62.24 40.05 62.72 40.05 62.72"/><polygon class="cls-1" points="43.19 62.36 42.9 62.18 42.89 62.78 43.07 62.9 43.19 62.74 43.19 62.36 43.19 62.36"/><polygon class="cls-1" points="44.43 62.17 44.63 62.25 44.76 61.97 44.59 61.84 44.41 61.95 44.43 62.17 44.43 62.17"/><polygon class="cls-1" points="58.98 49.86 59.19 49.95 59.29 49.66 59.07 49.57 58.98 49.86 58.98 49.86"/><polygon class="cls-1" points="45.95 61.99 46.09 62.01 46.3 61.77 45.95 61.6 45.83 61.69 45.95 61.99 45.95 61.99"/><polygon class="cls-1" points="67.54 47.31 67.38 47.11 67.07 47.02 67.03 47.45 67.25 47.49 67.54 47.25 67.54 47.31 67.54 47.31"/><polygon class="cls-1" points="65.03 49.04 65.34 49.12 65.45 48.91 65.16 48.73 65.03 49.04 65.03 49.04"/><polygon class="cls-1" points="56.68 56.05 56.77 56.36 57.07 56.23 56.99 56.01 56.68 56.05 56.68 56.05"/><polygon class="cls-1" points="55.54 58.08 55.86 58.01 55.74 57.7 55.52 57.74 55.54 58.08 55.54 58.08"/><polygon class="cls-1" points="57.97 57.25 57.97 57.13 57.76 56.59 57.55 56.73 57.97 57.25 57.97 57.25"/><polygon class="cls-1" points="63.65 52.07 63.53 52.28 63.65 52.48 63.95 52.35 63.96 52.22 63.65 52.07 63.65 52.07"/><polygon class="cls-1" points="60.87 54.84 61.17 54.79 61.1 54.49 60.81 54.62 60.87 54.84 60.87 54.84"/><polygon class="cls-1" points="64.14 52.83 64.02 52.84 63.84 53.1 64.12 53.23 64.21 52.93 64.14 52.83 64.14 52.83"/><polygon class="cls-1" points="53.13 62.87 52.83 62.64 52.6 62.7 52.52 62.91 52.83 63.06 52.93 63 53.13 62.84 53.13 62.87 53.13 62.87"/><polygon class="cls-1" points="63.29 54.46 63.61 54.41 63.52 54.09 63.22 54.24 63.29 54.46 63.29 54.46"/><polygon class="cls-1" points="58.75 59.52 58.66 59.42 58.35 59.41 58.29 59.74 58.36 59.84 58.75 59.52 58.75 59.52"/><polygon class="cls-1" points="58.15 61.22 58.39 60.95 58.32 60.65 58.02 60.72 57.98 60.83 58.21 61.23 58.15 61.22 58.15 61.22"/><polygon class="cls-1" points="2.11 2.81 1.77 2.79 1.64 2.98 1.86 3.2 2.08 3.14 2.08 3.19 2.11 2.76 2.11 2.81 2.11 2.81"/><polygon class="cls-1" points="65.54 43.98 65.47 44.22 65.57 44.4 65.78 44.29 65.76 44.08 65.66 44.01 65.54 43.98 65.54 43.98"/><polygon class="cls-1" points="10.66 3.49 10.65 3.27 10.36 3.2 10.25 3.39 10.31 3.46 10.66 3.49 10.66 3.49"/><polygon class="cls-1" points="45.97 32.6 46.17 32.72 46.41 32.53 46.25 32.4 46.02 32.41 45.97 32.6 45.97 32.6"/><polygon class="cls-1" points="37.62 40.49 37.64 40.4 37.5 40.23 37.29 40.29 37.24 40.39 37.39 40.51 37.62 40.49 37.62 40.49"/><polygon class="cls-1" points="22.52 4.33 22.33 4.12 22.12 4.41 22.32 4.75 22.52 4.33 22.52 4.33"/><polygon class="cls-1" points="63.66 47.37 63.88 47.32 63.87 47.02 63.63 47.13 63.66 47.37 63.66 47.37"/><polygon class="cls-1" points="49.47 59.31 49.43 59.54 49.47 59.65 49.66 59.61 49.73 59.41 49.56 59.27 49.47 59.31 49.47 59.31"/><polygon class="cls-1" points="69.29 43.04 68.56 42.99 68.56 42.94 68.73 43.11 69.22 43.08 69.29 42.99 69.29 43.04 69.29 43.04"/><polygon class="cls-1" points="18.96 59.05 19.18 58.97 19.2 58.68 18.99 58.59 18.96 59.05 18.96 59.05"/><polygon class="cls-1" points="62.88 21.25 62.82 21.68 63.11 21.57 63.12 21.46 62.88 21.25 62.88 21.25"/><polygon class="cls-1" points="46.13 62.94 46.34 62.87 46.35 62.56 46.16 62.5 46.1 62.6 46.08 62.72 46.13 62.94 46.13 62.94"/><polygon class="cls-1" points="23.66 5.05 23.89 5.39 23.95 4.93 23.66 5.05 23.66 5.05"/><polygon class="cls-1" points="62.77 23.46 62.35 23.45 62.55 23.68 62.77 23.46 62.77 23.46"/><polygon class="cls-1" points="48.08 62.09 48.39 62.12 48.45 62.01 48.3 61.87 48.06 61.89 48.08 62.09 48.08 62.09"/><polygon class="cls-1" points="23.82 57.67 24.02 57.78 24.25 57.57 24.07 57.44 23.95 57.43 23.8 57.55 23.82 57.67 23.82 57.67"/><polygon class="cls-1" points="25.83 57.13 26.11 57.06 26.11 56.85 25.93 56.74 25.83 57.13 25.83 57.13"/><polygon class="cls-1" points="23.39 58.91 23.34 59 23.58 59.23 23.81 59 23.63 58.88 23.39 58.91 23.39 58.91"/><polygon class="cls-1" points="27.82 55.84 27.8 55.43 27.57 55.65 27.82 55.84 27.82 55.84"/><polygon class="cls-1" points="25.57 59.1 25.54 59.2 25.68 59.39 25.89 59.31 25.92 59.12 25.81 59.07 25.57 59.1 25.57 59.1"/><polygon class="cls-1" points="28.4 8.61 28.34 8.84 28.44 9.01 28.54 8.97 28.64 8.78 28.5 8.62 28.4 8.61 28.4 8.61"/><polygon class="cls-1" points="66.11 25.43 66.22 25.48 66.54 25.41 66.34 25.15 66.08 25.34 66.11 25.43 66.11 25.43"/><polygon class="cls-1" points="49.76 62.4 49.98 62.41 50.06 62.23 49.83 62.16 49.69 62.3 49.76 62.4 49.76 62.4"/><polygon class="cls-1" points="31.75 7.46 32.14 7.49 32.2 7.32 31.93 7.16 31.75 7.46 31.75 7.46"/><polygon class="cls-1" points="34.21 6.89 34.05 6.71 33.77 6.61 33.68 7.01 33.64 7 34 6.92 34.22 6.83 34.21 6.89 34.21 6.89"/><polygon class="cls-1" points="28.71 58.77 28.5 58.85 28.48 59.13 28.69 59.22 28.71 58.77 28.71 58.77"/><polygon class="cls-1" points="33.68 7.01 33.44 7.41 33.81 7.43 33.64 7 33.68 7.01 33.68 7.01"/><polygon class="cls-1" points="27.88 60.06 27.74 59.86 27.32 60.01 27.89 60.01 27.88 60.06 27.88 60.06"/><polygon class="cls-1" points="34.22 6.83 34.36 7.27 34.58 7.04 34.44 6.87 34.21 6.89 34.22 6.83 34.22 6.83"/><polygon class="cls-1" points="66.83 28.18 66.44 28.18 66.65 28.4 66.83 28.18 66.83 28.18"/><polygon class="cls-1" points="30.59 60.37 30.64 60.27 30.49 60.14 30.24 60.27 30.38 60.44 30.59 60.37 30.59 60.37"/><polygon class="cls-1" points="37.13 7.44 37.34 7.46 37.33 7.03 37.21 7.04 37.13 7.44 37.13 7.44"/><polygon class="cls-1" points="66.78 29.22 66.51 29.52 66.68 29.67 66.83 29.55 66.85 29.43 66.78 29.22 66.78 29.22"/><polygon class="cls-1" points="36.4 8.85 36.58 8.87 36.64 8.56 36.55 8.49 36.4 8.61 36.4 8.85 36.4 8.85"/><polygon class="cls-1" points="38.33 7.91 38.27 8.15 38.38 8.32 38.49 8.28 38.59 8.07 38.33 7.91 38.33 7.91"/><polygon class="cls-1" points="65.88 30.33 65.83 30.58 65.87 30.7 66.08 30.66 66.07 30.34 65.88 30.33 65.88 30.33"/><polygon class="cls-1" points="37.29 55.44 37.39 55.47 37.56 55.33 37.51 55.11 37.41 55.06 37.28 55.2 37.29 55.44 37.29 55.44"/><polygon class="cls-1" points="34.94 58.23 35.19 58.03 34.99 57.79 34.94 58.23 34.94 58.23"/><polygon class="cls-1" points="65.67 50.04 65.62 50.48 65.9 50.35 65.91 50.24 65.67 50.04 65.67 50.04"/><polygon class="cls-1" points="42.35 8.37 42.52 8.82 42.64 8.81 42.68 8.43 42.35 8.42 42.35 8.37 42.35 8.37"/><polygon class="cls-1" points="40.89 10.48 41.09 10.48 41.2 10.27 41.14 10.18 40.93 10.12 40.88 10.23 40.89 10.48 40.89 10.48"/><polygon class="cls-1" points="55.96 40.96 56.17 40.99 56.29 40.71 56.07 40.64 55.88 40.74 55.96 40.96 55.96 40.96"/><polygon class="cls-1" points="50.82 63.66 51.1 63.34 50.9 63.22 50.83 63.3 50.82 63.66 50.82 63.66"/><polygon class="cls-1" points="32.95 61.34 32.95 60.92 32.73 61.13 32.95 61.34 32.95 61.34"/><polygon class="cls-1" points="39.57 55.56 39.3 55.88 39.5 56 39.56 55.92 39.57 55.56 39.57 55.56"/><polygon class="cls-1" points="61.98 54.43 62.04 54.1 61.91 53.95 61.74 54.09 61.98 54.43 61.98 54.43"/><polygon class="cls-1" points="68.63 33.03 68.59 33.57 68.91 33.35 68.63 33.03 68.63 33.03"/><polygon class="cls-1" points="44.8 10.99 44.52 10.69 44.35 10.96 44.8 10.99 44.8 10.99"/><polygon class="cls-1" points="43.8 54.71 44.04 54.77 44.23 54.68 44.01 54.44 43.79 54.51 43.8 54.71 43.8 54.71"/><polygon class="cls-1" points="60.77 56.08 60.33 56.07 60.55 56.32 60.77 56.08 60.77 56.08"/><polygon class="cls-1" points="59.54 57.16 59.76 57.09 59.76 56.76 59.55 56.68 59.54 57.16 59.54 57.16"/><polygon class="cls-1" points="37.78 60.07 37.69 60.27 37.95 60.43 38.01 60.2 37.78 60.07 37.78 60.07"/><polygon class="cls-1" points="41.99 57.34 42.04 57.21 41.77 57.01 41.6 57.16 41.64 57.26 41.99 57.34 41.99 57.34"/><polygon class="cls-1" points="45.99 11.93 45.54 11.89 45.6 12.11 45.9 12.14 45.99 11.93 45.99 11.93"/><polygon class="cls-1" points="69 33.74 68.91 34.2 69.1 34.25 69.25 33.96 69 33.74 69 33.74"/><polygon class="cls-1" points="59.9 57.41 59.78 57.73 59.91 57.89 60.12 57.65 59.9 57.41 59.9 57.41"/><polygon class="cls-1" points="48.59 11.24 48.52 11.83 48.81 11.64 48.53 11.24 48.59 11.24 48.59 11.24"/><polygon class="cls-1" points="54.25 62.57 54.52 62.48 54.53 62.36 54.44 62.18 54.23 62.26 54.25 62.57 54.25 62.57"/><polygon class="cls-1" points="49.96 12.24 49.73 12.54 49.93 12.65 49.99 12.56 50.01 12.45 49.96 12.24 49.96 12.24"/><polygon class="cls-1" points="51.73 11.1 51.51 11.13 51.5 11.45 51.61 11.51 51.74 11.35 51.73 11.1 51.73 11.1"/><polygon class="cls-1" points="58.89 58.87 59.05 59.07 59.27 59.11 59.31 58.75 59.21 58.72 58.89 58.92 58.89 58.87 58.89 58.87"/><polygon class="cls-1" points="51.92 12.39 51.73 12.38 51.76 12.79 51.87 12.77 51.92 12.39 51.92 12.39"/><polygon class="cls-1" points="53.44 12.19 53.3 11.75 53.06 11.82 53.1 12.13 53.44 12.14 53.44 12.19 53.44 12.19"/><polygon class="cls-1" points="66.55 39.67 66.51 40.02 66.56 40.11 66.68 40.09 66.55 39.67 66.55 39.67"/><polygon class="cls-1" points="11.68 47.98 12.05 48.23 12.07 47.8 11.68 48.03 11.68 47.98 11.68 47.98"/><polygon class="cls-1" points="67.85 39.58 67.79 39.82 67.88 40 68.11 39.78 68.06 39.68 67.85 39.58 67.85 39.58"/><polygon class="cls-1" points="65.5 41.64 65.44 41.87 65.55 42.03 65.66 42 65.74 41.8 65.6 41.63 65.5 41.64 65.5 41.64"/><polygon class="cls-1" points="54.16 15.29 54.36 15.4 54.52 15.14 54.29 15.07 54.16 15.29 54.16 15.29"/><polygon class="cls-1" points="9.97 56.67 10.01 56.33 9.71 56.25 9.59 56.48 10.02 56.67 9.97 56.67 9.97 56.67"/><polygon class="cls-1" points="10.02 56.67 10.05 57.11 10.41 56.87 9.97 56.67 10.02 56.67 10.02 56.67"/><polygon class="cls-1" points="9.58 57.16 9.57 57.6 9.78 57.53 9.79 57.25 9.58 57.16 9.58 57.16"/><polygon class="cls-1" points="47.52 58.18 47.59 58.39 47.96 58.33 47.96 58.22 47.52 58.18 47.52 58.18"/><polygon class="cls-1" points="11.64 56.83 11.62 56.61 11.41 56.52 11.31 56.61 11.28 56.81 11.39 56.87 11.64 56.83 11.64 56.83"/><polygon class="cls-1" points="45.13 60.38 44.85 60.65 45.02 60.79 45.09 60.73 45.13 60.38 45.13 60.38"/><polygon class="cls-1" points="12.46 56.41 12.34 56.41 12.19 56.68 12.42 56.74 12.54 56.51 12.46 56.41 12.46 56.41"/><polygon class="cls-1" points="67.02 41.72 66.6 41.96 66.58 42.08 66.77 42.12 67.02 41.72 67.02 41.72"/><polygon class="cls-1" points="14.95 55.95 14.89 56.19 15 56.35 15.11 56.31 15.21 56.11 14.95 55.95 14.95 55.95"/><polygon class="cls-1" points="59.26 18.36 59.37 18.2 59.27 17.89 59.16 17.91 59.14 18.33 59.26 18.36 59.26 18.36"/><polygon class="cls-1" points="54.34 53.46 54.35 53.02 54.11 53.24 54.34 53.46 54.34 53.46"/><polygon class="cls-1" points="64.16 45.23 64.44 45.08 64.37 44.86 64.26 44.82 64.18 44.87 64.14 44.99 64.16 45.23 64.16 45.23"/><polygon class="cls-1" points="35.84 61.24 36.05 61.14 36.06 60.97 35.86 61.05 35.84 61.24 35.84 61.24"/><polygon class="cls-1" points="39.31 59.06 39.52 59.11 39.49 58.89 39.27 58.84 39.31 59.06 39.31 59.06"/><polygon class="cls-1" points="66.22 36.18 66.3 36.38 66.47 36.39 66.4 36.18 66.31 36.15 66.22 36.18 66.22 36.18"/><polygon class="cls-1" points="67.78 35.65 67.97 35.57 67.97 35.4 67.78 35.47 67.78 35.65 67.78 35.65"/><polygon class="cls-1" points="37.6 62.23 37.65 61.93 37.44 61.67 37.49 61.67 37.49 62.07 37.64 62.23 37.6 62.23 37.6 62.23"/><polygon class="cls-1" points="38.49 62.48 38.42 62.07 38.31 62.07 38.3 62.19 38.55 62.49 38.49 62.48 38.49 62.48"/><polygon class="cls-1" points="69.15 36.05 69.32 36.11 69.42 35.9 69.25 35.86 69.15 36.05 69.15 36.05"/><polygon class="cls-1" points="39.65 62.12 39.68 62.01 39.51 61.99 39.43 62.2 39.65 62.12 39.65 62.12"/><polygon class="cls-1" points="44.88 58.23 44.83 58.01 44.63 57.96 44.68 58.17 44.88 58.23 44.88 58.23"/><polygon class="cls-1" points="58.08 46.71 57.86 46.8 57.87 46.98 58.07 46.91 58.08 46.71 58.08 46.71"/><polygon class="cls-1" points="42.9 60.22 42.67 60.28 42.61 60.49 42.82 60.44 42.9 60.22 42.9 60.22"/><polygon class="cls-1" points="68.95 38.68 69.07 38.68 69 38.4 68.88 38.39 68.95 38.68 68.95 38.68"/><polygon class="cls-1" points="48.99 55.97 48.99 56.09 49.18 56.22 49.26 56.16 49.19 55.95 48.99 55.97 48.99 55.97"/><polygon class="cls-1" points="69.16 39.6 69.22 39.43 69.02 39.33 68.97 39.5 69.16 39.6 69.16 39.6"/><polygon class="cls-1" points="51.33 55.47 51.3 55.25 51.09 55.16 51.03 55.21 51.11 55.41 51.33 55.47 51.33 55.47"/><polygon class="cls-1" points="43.65 61.67 43.85 61.59 43.88 61.41 43.67 61.48 43.63 61.58 43.65 61.67 43.65 61.67"/><polygon class="cls-1" points="68.07 41.82 68.25 41.81 68.33 41.64 68.16 41.62 68.07 41.82 68.07 41.82"/><polygon class="cls-1" points="56.27 52.33 56.46 52.32 56.39 52.13 56.22 52.12 56.27 52.33 56.27 52.33"/><polygon class="cls-1" points="44.01 62.7 44.01 62.89 44.2 62.92 44.22 62.8 44.01 62.7 44.01 62.7"/><polygon class="cls-1" points="53.63 55.41 53.63 55.22 53.44 55.14 53.42 55.32 53.63 55.41 53.63 55.41"/><polygon class="cls-1" points="47.13 60.68 46.82 60.96 47.13 60.68 47.13 60.68"/><polygon class="cls-1" points="55.83 54.79 55.89 55 56.09 55.07 56.03 54.86 55.83 54.79 55.83 54.79"/><polygon class="cls-1" points="49.88 60.28 49.98 60.31 50.08 60.27 50.01 60.06 49.82 60.05 49.82 60.17 49.88 60.28 49.88 60.28"/><polygon class="cls-1" points="66.15 47.51 66.03 47.68 66.08 47.73 66.25 47.62 66.26 47.51 66.15 47.51 66.15 47.51"/><polygon class="cls-1" points="53.63 58.83 53.41 58.88 53.33 59.09 53.55 59.05 53.63 58.83 53.63 58.83"/><polygon class="cls-1" points="52.19 60.05 52.26 60.1 52.45 59.99 52.4 59.84 52.2 59.93 52.19 60.05 52.19 60.05"/><polygon class="cls-1" points="51.45 61.51 51.42 61.29 51.23 61.19 51.17 61.25 51.24 61.47 51.45 61.51 51.45 61.51"/><polygon class="cls-1" points="58.78 55.16 58.78 54.99 58.59 55.06 58.59 55.23 58.78 55.16 58.78 55.16"/><polygon class="cls-1" points="53.71 60.19 53.83 60.17 53.94 59.99 53.78 59.93 53.67 60.12 53.71 60.19 53.71 60.19"/><polygon class="cls-1" points="51.47 62.76 51.69 62.71 51.75 62.51 51.54 62.55 51.47 62.76 51.47 62.76"/><polygon class="cls-1" points="65.69 51.1 65.4 51.35 65.69 51.1 65.69 51.1"/><polygon class="cls-1" points="58.39 57.34 58.44 57.58 58.65 57.63 58.61 57.41 58.39 57.34 58.39 57.34"/><polygon class="cls-1" points="57.52 58.74 57.41 58.95 57.47 59 57.68 58.91 57.63 58.73 57.52 58.74 57.52 58.74"/><polygon class="cls-1" points="54.49 61.47 54.67 61.47 54.75 61.28 54.58 61.28 54.49 61.47 54.49 61.47"/><polygon class="cls-1" points="3.21 3.86 3.1 3.56 2.98 3.54 2.93 3.71 3.21 3.86 3.21 3.86"/><polygon class="cls-1" points="6.53 2.78 6.72 2.77 6.64 2.55 6.46 2.56 6.53 2.78 6.53 2.78"/><polygon class="cls-1" points="6.15 3.18 5.83 3.34 5.83 3.46 6.01 3.51 6.09 3.43 6.15 3.18 6.15 3.18"/><polygon class="cls-1" points="3.73 5.25 3.78 5.47 3.97 5.52 3.93 5.31 3.73 5.25 3.73 5.25"/><polygon class="cls-1" points="5.01 5.21 5.2 5.24 5.29 5.04 5.11 5.01 5.01 5.21 5.01 5.21"/><polygon class="cls-1" points="7.86 3.48 8.16 3.38 8.16 3.27 7.99 3.19 7.86 3.48 7.86 3.48"/><polygon class="cls-1" points="17.72 2.64 17.63 2.73 17.62 2.85 17.81 2.9 17.91 2.7 17.84 2.63 17.72 2.64 17.72 2.64"/><polygon class="cls-1" points="14.7 5.34 14.72 5.57 14.92 5.66 14.98 5.59 14.92 5.38 14.7 5.34 14.7 5.34"/><polygon class="cls-1" points="17.36 6.5 17.44 6.73 17.63 6.71 17.56 6.5 17.36 6.5 17.36 6.5"/><polygon class="cls-1" points="19.89 6.97 19.88 7.09 20.16 7.03 20.16 6.92 19.89 6.97 19.89 6.97"/><polygon class="cls-1" points="24.3 4.71 24.36 4.52 24.15 4.42 24.1 4.61 24.3 4.71 24.3 4.71"/><polygon class="cls-1" points="22.62 6.21 22.52 5.92 22.34 5.96 22.34 6.08 22.62 6.21 22.62 6.21"/><polygon class="cls-1" points="25.58 5.6 25.28 5.71 25.27 5.83 25.45 5.89 25.58 5.6 25.58 5.6"/><polygon class="cls-1" points="26.47 6.5 26.57 6.51 26.6 6.33 26.41 6.23 26.37 6.3 26.39 6.41 26.47 6.5 26.47 6.5"/><polygon class="cls-1" points="27.65 5.83 27.82 5.88 27.93 5.67 27.75 5.64 27.65 5.83 27.65 5.83"/><polygon class="cls-1" points="29.43 6.24 29.55 6.55 29.67 6.57 29.72 6.39 29.43 6.24 29.43 6.24"/><polygon class="cls-1" points="29.97 7.08 30.02 6.87 29.8 6.91 29.74 7.13 29.97 7.08 29.97 7.08"/><polygon class="cls-1" points="30.91 6.8 31.1 6.81 31.19 6.62 31.01 6.6 30.91 6.8 30.91 6.8"/><polygon class="cls-1" points="28.98 8.64 29.2 8.71 29.15 8.48 28.94 8.43 28.98 8.64 28.98 8.64"/><polygon class="cls-1" points="32.94 6.83 32.99 6.67 32.8 6.57 32.75 6.74 32.94 6.83 32.94 6.83"/><polygon class="cls-1" points="32.56 8.07 32.67 8.08 32.62 7.8 32.51 7.8 32.56 8.07 32.56 8.07"/><polygon class="cls-1" points="30.61 9.47 30.4 9.54 30.34 9.73 30.54 9.69 30.61 9.47 30.61 9.47"/><polygon class="cls-1" points="31.11 9.37 31.3 9.37 31.39 9.19 31.2 9.17 31.11 9.37 31.11 9.37"/><polygon class="cls-1" points="35.05 7.25 35.15 7.54 35.33 7.49 35.34 7.38 35.05 7.25 35.05 7.25"/><polygon class="cls-1" points="11.72 28.23 11.81 28.26 11.96 28.11 11.92 28.03 11.73 28.12 11.72 28.23 11.72 28.23"/><polygon class="cls-1" points="33.02 10.44 33.08 10.49 33.26 10.37 33.27 10.25 33.05 10.33 33.02 10.44 33.02 10.44"/><polygon class="cls-1" points="21.81 21.07 21.73 21.16 21.77 21.33 21.98 21.25 21.92 21.07 21.81 21.07 21.81 21.07"/><polygon class="cls-1" points="38.56 10.46 38.34 10.52 38.28 10.72 38.49 10.67 38.56 10.46 38.56 10.46"/><polygon class="cls-1" points="42.91 10.14 43.2 10.04 43.21 9.93 43.04 9.87 42.91 10.14 42.91 10.14"/><polygon class="cls-1" points="45.52 9.24 45.13 9.42 45.14 9.53 45.32 9.61 45.52 9.24 45.52 9.24"/><polygon class="cls-1" points="20.26 33.17 19.93 33.31 19.93 33.42 20.1 33.49 20.26 33.17 20.26 33.17"/><polygon class="cls-1" points="47.25 12.29 47.2 12.09 47.01 12.04 47.06 12.24 47.25 12.29 47.25 12.29"/><polygon class="cls-1" points="52.31 10.43 52.21 10.5 52.01 10.65 52.04 10.84 52.3 10.65 52.26 10.42 52.31 10.43 52.31 10.43"/><polygon class="cls-1" points="13.05 46.8 13.1 46.6 12.9 46.65 12.84 46.84 13.05 46.8 13.05 46.8"/><polygon class="cls-1" points="53.44 12.14 53.83 12.14 53.82 11.96 53.7 11.96 53.44 12.19 53.44 12.14 53.44 12.14"/><polygon class="cls-1" points="37.82 27.02 37.83 26.84 37.64 26.91 37.62 27.09 37.82 27.02 37.82 27.02"/><polygon class="cls-1" points="16.28 45.45 16.25 45.62 16.46 45.55 16.46 45.44 16.28 45.45 16.28 45.45"/><polygon class="cls-1" points="11.33 50.2 11.34 50.01 11.16 49.93 11.13 50.12 11.33 50.2 11.33 50.2"/><polygon class="cls-1" points="10.01 54.05 9.95 54.12 10.06 54.31 10.19 54.32 10.18 54.19 10.01 54.05 10.01 54.05"/><polygon class="cls-1" points="15.31 50.59 15.39 50.67 15.5 50.7 15.46 50.44 15.35 50.43 15.31 50.59 15.31 50.59"/><polygon class="cls-1" points="9.87 55.59 10.1 55.53 10.16 55.32 9.94 55.37 9.87 55.59 9.87 55.59"/><polygon class="cls-1" points="57.23 15.55 57.33 15.57 57.47 15.4 57.43 15.34 57.24 15.43 57.23 15.55 57.23 15.55"/><polygon class="cls-1" points="14.77 53 14.95 53.05 15.05 52.85 14.87 52.82 14.77 53 14.77 53"/><polygon class="cls-1" points="25.08 44.65 25.03 44.86 25.24 44.82 25.3 44.6 25.08 44.65 25.08 44.65"/><polygon class="cls-1" points="15.63 53.98 15.8 53.99 15.89 53.81 15.72 53.79 15.63 53.98 15.63 53.98"/><polygon class="cls-1" points="60.51 16.14 60.29 16.22 60.3 16.4 60.51 16.33 60.51 16.14 60.51 16.14"/><polygon class="cls-1" points="13.85 56.39 14.08 56.45 14.29 56.23 14.1 56.18 13.85 56.44 13.85 56.39 13.85 56.39"/><polygon class="cls-1" points="59.85 17.03 59.91 17.24 60.1 17.3 60.06 17.1 59.85 17.03 59.85 17.03"/><polygon class="cls-1" points="16.31 55.68 16.48 55.67 16.4 55.47 16.23 55.49 16.31 55.68 16.31 55.68"/><polygon class="cls-1" points="15.56 57.85 15.84 57.59 15.56 57.85 15.56 57.85"/><polygon class="cls-1" points="19.37 56.78 19.37 56.58 19.16 56.65 19.15 56.84 19.37 56.78 19.37 56.78"/><polygon class="cls-1" points="62.99 19.23 63.07 19.32 63.19 19.34 63.22 19.16 63.03 19.06 62.98 19.12 62.99 19.23 62.99 19.23"/><polygon class="cls-1" points="21.92 54.97 21.92 55.09 22.19 55.19 22.13 54.98 21.92 54.97 21.92 54.97"/><polygon class="cls-1" points="25.22 52.44 25.21 52.56 25.4 52.56 25.5 52.36 25.3 52.37 25.22 52.44 25.22 52.44"/><polygon class="cls-1" points="42.57 38.31 42.52 38.1 42.32 38.04 42.38 38.25 42.57 38.31 42.57 38.31"/><polygon class="cls-1" points="62.88 20.53 62.93 20.76 63.15 20.82 63.1 20.59 63 20.53 62.88 20.53 62.88 20.53"/><polygon class="cls-1" points="20.04 57.73 19.74 57.82 19.74 57.93 19.9 58 20.04 57.73 20.04 57.73"/><polygon class="cls-1" points="19.48 59.22 19.67 59.25 19.77 59.04 19.58 59.01 19.48 59.22 19.48 59.22"/><polygon class="cls-1" points="64.34 21.43 64.55 21.39 64.56 21.21 64.44 21.21 64.35 21.3 64.34 21.43 64.34 21.43"/><polygon class="cls-1" points="21.57 59.03 21.75 59.02 21.68 58.81 21.51 58.83 21.57 59.03 21.57 59.03"/><polygon class="cls-1" points="22.38 59.35 22.36 59.47 22.56 59.48 22.65 59.28 22.46 59.28 22.38 59.35 22.38 59.35"/><polygon class="cls-1" points="64.93 23.28 65.13 23.29 65.21 23.1 65.02 23.08 64.93 23.28 64.93 23.28"/><polygon class="cls-1" points="58.43 29.62 58.05 29.78 58.09 29.95 58.2 29.96 58.43 29.62 58.43 29.62"/><polygon class="cls-1" points="24.2 59.99 24.5 59.71 24.2 59.99 24.2 59.99"/><polygon class="cls-1" points="65.83 24.22 65.61 24.29 65.53 24.5 65.75 24.44 65.83 24.22 65.83 24.22"/><polygon class="cls-1" points="27.14 57.73 26.94 57.81 26.94 57.99 27.14 57.92 27.14 57.73 27.14 57.73"/><polygon class="cls-1" points="25.36 59.7 25.4 59.54 25.21 59.44 25.17 59.61 25.36 59.7 25.36 59.7"/><polygon class="cls-1" points="65.32 25.38 65.55 25.33 65.6 25.11 65.39 25.15 65.32 25.38 65.32 25.38"/><polygon class="cls-1" points="31.16 55.35 31.1 55.14 30.91 55.08 30.96 55.28 31.16 55.35 31.16 55.35"/><polygon class="cls-1" points="26.61 59.16 26.66 59.37 26.87 59.44 26.82 59.23 26.61 59.16 26.61 59.16"/><polygon class="cls-1" points="29.41 57.04 29.36 57.22 29.57 57.14 29.58 57.03 29.5 56.99 29.41 57.04 29.41 57.04"/><polygon class="cls-1" points="26.64 59.91 26.41 59.96 26.36 60.16 26.57 60.13 26.64 59.91 26.64 59.91"/><polygon class="cls-1" points="66.22 26.7 65.94 26.41 66.22 26.7 66.22 26.7"/><polygon class="cls-1" points="30.49 59.28 30.27 59.35 30.3 59.54 30.51 59.47 30.49 59.28 30.49 59.28"/><polygon class="cls-1" points="31.95 58.7 32.15 58.69 32.18 58.5 32.06 58.5 31.96 58.57 31.95 58.7 31.95 58.7"/><polygon class="cls-1" points="32.03 59.99 32.23 60 32.27 59.8 32.16 59.81 32.05 59.88 32.03 59.99 32.03 59.99"/><polygon class="cls-1" points="67.26 29.9 67.47 29.81 67.45 29.64 67.25 29.71 67.22 29.82 67.26 29.9 67.26 29.9"/><polygon class="cls-1" points="33.19 59.28 33.44 59.56 33.19 59.28 33.19 59.28"/><polygon class="cls-1" points="31.52 60.87 31.71 60.79 31.69 60.62 31.5 60.7 31.48 60.8 31.52 60.87 31.52 60.87"/><polygon class="cls-1" points="32.09 61.03 31.86 61.09 31.8 61.29 32.02 61.25 32.09 61.03 32.09 61.03"/><polygon class="cls-1" points="67.6 30.93 67.29 31.03 67.28 31.15 67.46 31.22 67.6 30.93 67.6 30.93"/><polygon class="cls-1" points="34.24 60.15 34.31 60.2 34.49 60.1 34.45 59.95 34.25 60.04 34.24 60.15 34.24 60.15"/><polygon class="cls-1" points="19.29 4.8 19.32 4.89 19.43 4.91 19.35 4.75 19.29 4.8 19.29 4.8"/><polygon class="cls-1" points="34.37 8.8 34.41 8.97 34.52 8.97 34.48 8.81 34.37 8.8 34.37 8.8"/><polygon class="cls-1" points="46.4 10.45 46.36 10.6 46.47 10.59 46.48 10.47 46.4 10.45 46.4 10.45"/><polygon class="cls-1" points="47.82 10.7 47.94 10.7 47.95 10.58 47.82 10.7 47.82 10.7"/><polygon class="cls-1" points="12.58 47.42 12.69 47.41 12.69 47.3 12.59 47.32 12.58 47.42 12.58 47.42"/><polygon class="cls-1" points="34.54 28.96 34.5 29.12 34.63 29.13 34.63 29 34.54 28.96 34.54 28.96"/><polygon class="cls-1" points="10.95 50.67 11.12 50.79 11.21 50.78 11.13 50.63 10.95 50.72 10.95 50.67 10.95 50.67"/><polygon class="cls-1" points="56.8 13.47 56.83 13.56 56.89 13.49 56.8 13.47 56.8 13.47"/><polygon class="cls-1" points="57.99 17.33 58.11 17.32 58.12 17.2 58 17.21 57.99 17.33 57.99 17.33"/><polygon class="cls-1" points="60.75 17 60.85 16.99 60.86 16.88 60.75 16.89 60.75 17 60.75 17"/><polygon class="cls-1" points="14.62 57.58 14.76 57.61 14.77 57.5 14.65 57.5 14.62 57.58 14.62 57.58"/><polygon class="cls-1" points="60.62 18.73 60.65 18.82 60.77 18.83 60.77 18.72 60.62 18.73 60.62 18.73"/><polygon class="cls-1" points="19.01 54.82 19.15 54.85 19.15 54.74 19.04 54.73 19.01 54.82 19.01 54.82"/><polygon class="cls-1" points="16.73 57.12 16.7 57.25 16.8 57.25 16.8 57.15 16.73 57.12 16.73 57.12"/><polygon class="cls-1" points="18.24 58.24 18.38 58.27 18.39 58.16 18.28 58.16 18.24 58.24 18.24 58.24"/><polygon class="cls-1" points="21.55 57.78 21.64 57.81 21.67 57.67 21.55 57.66 21.55 57.78 21.55 57.78"/><polygon class="cls-1" points="24.78 58.77 24.9 58.76 24.91 58.65 24.78 58.64 24.78 58.77 24.78 58.77"/><polygon class="cls-1" points="54.08 34.28 54.08 34.41 54.2 34.41 54.2 34.28 54.08 34.28 54.08 34.28"/><polygon class="cls-1" points="27.82 57.49 27.94 57.51 27.95 57.41 27.85 57.41 27.82 57.49 27.82 57.49"/><polygon class="cls-1" points="65.54 27.82 65.47 27.98 65.58 27.99 65.65 27.83 65.54 27.82 65.54 27.82"/><polygon class="cls-1" points="32.34 57.11 32.34 57 32.24 57.01 32.23 57.12 32.34 57.11 32.34 57.11"/><polygon class="cls-1" points="30.69 58.82 30.76 58.8 30.71 58.75 30.69 58.82 30.69 58.82"/><polygon class="cls-1" points="33.68 57.83 33.66 57.96 33.76 57.97 33.75 57.86 33.68 57.83 33.68 57.83"/><polygon class="cls-1" points="36.14 59.48 36.08 59.53 36.22 59.62 36.22 59.51 36.14 59.48 36.14 59.48"/><polygon class="cls-1" points="35.1 60.42 35.25 60.45 35.25 60.34 35.13 60.33 35.1 60.42 35.1 60.42"/><polygon class="cls-1" points="44.6 52.54 44.68 52.57 44.71 52.44 44.6 52.43 44.6 52.54 44.6 52.54"/><polygon class="cls-1" points="39.66 60.59 39.8 60.57 39.77 60.49 39.67 60.49 39.66 60.59 39.66 60.59"/><polygon class="cls-1" points="41.42 60.57 41.45 60.49 41.33 60.47 41.31 60.57 41.42 60.57 41.42 60.57"/><polygon class="cls-1" points="68.59 37.75 68.62 37.66 68.48 37.62 68.48 37.73 68.59 37.75 68.59 37.75"/><polygon class="cls-1" points="42.17 61.5 42.23 61.56 42.32 61.42 42.21 61.42 42.17 61.5 42.17 61.5"/><polygon class="cls-1" points="69.12 40.09 68.95 40.01 68.9 40.07 69.13 40.06 69.12 40.09 69.12 40.09"/><polygon class="cls-1" points="62.06 46.99 62.03 47.12 62.13 47.12 62.13 47.02 62.06 46.99 62.06 46.99"/><polygon class="cls-1" points="67.19 44.02 67.28 44.01 67.29 43.91 67.19 43.92 67.19 44.02 67.19 44.02"/><polygon class="cls-1" points="61.28 49.74 61.4 49.77 61.4 49.68 61.3 49.67 61.28 49.74 61.28 49.74"/><polygon class="cls-1" points="51.68 58.24 51.67 58.12 51.55 58.11 51.55 58.24 51.68 58.24 51.68 58.24"/><polygon class="cls-1" points="65.22 47.15 65.19 47.06 65.14 47.12 65.22 47.15 65.22 47.15"/><polygon class="cls-1" points="60.45 51.8 60.41 51.94 60.52 51.94 60.53 51.83 60.45 51.8 60.45 51.8"/><polygon class="cls-1" points="63.25 50.13 63.4 50.09 63.37 50.01 63.26 50.01 63.25 50.13 63.25 50.13"/><polygon class="cls-1" points="66.98 48.03 67.02 47.94 66.88 47.92 66.87 48.03 66.98 48.03 66.98 48.03"/><polygon class="cls-1" points="62.43 52.26 62.52 52.23 62.45 52.17 62.43 52.26 62.43 52.26"/><polygon class="cls-1" points="54.6 58.89 54.6 58.99 54.71 58.88 54.6 58.89 54.6 58.89"/><polygon class="cls-1" points="66.68 48.77 66.65 48.92 66.76 48.92 66.77 48.8 66.68 48.77 66.68 48.77"/><polygon class="cls-1" points="64.31 50.82 64.31 50.94 64.42 50.93 64.31 50.82 64.31 50.82"/><polygon class="cls-1" points="52.65 61.33 52.69 61.42 52.74 61.35 52.65 61.33 52.65 61.33"/><polygon class="cls-1" points="58.1 58.69 58.19 58.72 58.22 58.58 58.11 58.58 58.1 58.69 58.1 58.69"/><polygon class="cls-1" points="64.64 53.74 64.81 53.7 64.81 53.59 64.7 53.58 64.64 53.74 64.64 53.74"/><polygon class="cls-1" points="58.89 58.92 58.64 58.88 58.69 58.94 58.89 58.87 58.89 58.92 58.89 58.92"/><polygon class="cls-1" points="53.3 63.41 53.2 63.61 53.26 63.66 53.25 63.41 53.3 63.41 53.3 63.41"/><path class="cls-1" d="M171.28,370l0.11,0.45,1-.13,0.78-.38-0.39.49-0.08.34,0.44,0.05,0.36-.15-0.1.4,0.2,0.28H174l0.64-.14,0.13-.58-0.72,0,0.07-.33,0.13-.22-0.17-.46-0.43.23,0.43-.18,0.25-.29,0-1.12,0.31-.52-0.13-.61-0.61.34v-0.06l0,0.35-1.06.93-0.22.13-0.93.41-0.64.22-0.36-.07-2.65.09h-0.51l-0.13,0,0.07,0.3,2.67,0.18,1-.08,0.19,0.13,0.41-.22-0.41.18h0Zm2.26-.94-0.61.37,0.4-.4,0.2,0.08,0.21-.08v0.1l-0.21-.07h0Z" transform="translate(-117.38 -302.35)"/><polygon class="cls-1" points="24.34 63.81 24.7 63.81 24.8 63.74 25.56 63.8 29.34 64.47 30.7 64.83 31.58 64.96 31.81 64.69 30.32 64.35 28.7 64.02 27.57 63.8 26.19 63.57 24.8 63.35 23.42 63.06 23.07 63.15 23.44 63.56 23.74 63.54 23.97 63.79 24.34 63.81 24.34 63.81"/><polygon class="cls-1" points="51.45 66.01 51.09 65.97 50.72 65.95 49.76 66.21 49.79 66.41 50.02 66.5 51.03 66.53 51.77 66.65 52.52 66.66 52.71 66.53 52.54 66.24 52.16 66.18 51.54 66.1 51.45 66.01 51.45 66.01"/><polygon class="cls-1" points="61.1 63.62 60.36 64.17 60.14 64.63 59.9 64.87 59.13 65.54 59.12 65.74 59.34 65.81 59.56 65.71 60.87 64.33 61.18 63.94 61.1 63.62 61.1 63.62"/><polygon class="cls-1" points="63.8 60.88 63.98 61.16 64.11 61.15 64.48 60.84 65.3 59.44 65.28 59.33 65.15 59.34 64.85 59.55 64.59 59.82 63.8 60.88 63.8 60.88"/><polygon class="cls-1" points="63.4 58.45 63.58 59.08 64.2 58.76 64.31 57.76 63.4 58.45 63.4 58.45"/><polygon class="cls-1" points="70.76 49.16 70.89 47.41 70.85 47.29 70.63 47.36 70.34 48.82 70.64 49.19 70.76 49.16 70.76 49.16"/><polygon class="cls-1" points="48.07 67.25 47.68 66.98 45.94 66.83 46.01 67.17 47.87 67.33 48.08 67.22 48.07 67.25 48.07 67.25"/><polygon class="cls-1" points="49.07 68.24 49.27 68.51 50.9 68.64 51.12 68.57 51.02 68.36 50.79 68.28 49.16 68.19 49.07 68.24 49.07 68.24"/><polygon class="cls-1" points="66.86 54.91 66.72 54.68 66.4 54.83 65.83 55.78 65.96 56.02 66.37 55.79 66.86 54.91 66.86 54.91"/><polygon class="cls-1" points="70.3 50.88 70.11 50.74 70.02 50.77 69.6 51.81 69.62 51.93 69.69 52.03 69.9 52.03 70.3 50.88 70.3 50.88"/><polygon class="cls-1" points="44.26 65.61 43.38 65.54 43.2 65.8 44.44 66.05 44.52 66.02 44.45 65.78 44.26 65.61 44.26 65.61"/><polygon class="cls-1" points="66.06 58.09 66.36 58.26 66.83 57.79 66.86 57.67 66.75 57.46 66.64 57.44 66.06 58.09 66.06 58.09"/><polygon class="cls-1" points="36.89 64.93 37.06 65.11 38.28 65.31 38.4 65.27 38.22 64.99 36.99 64.84 36.89 64.91 36.89 64.93 36.89 64.93"/><polygon class="cls-1" points="45.6 68.33 45.66 68.03 45.55 67.9 44.51 67.77 44.73 68.04 45.2 68.19 45.66 68.33 45.6 68.33 45.6 68.33"/><polygon class="cls-1" points="62.59 62.87 63.07 62.33 62.62 62.26 62.29 62.61 62.36 62.83 62.59 62.87 62.59 62.87"/><polygon class="cls-1" points="34.6 65.85 35.34 65.76 35.25 65.47 34.26 65.24 34.66 65.86 34.6 65.85 34.6 65.85"/><polygon class="cls-1" points="46.5 66.2 46.59 66.29 47.81 66.37 47.64 66.05 46.81 65.97 46.5 66.19 46.5 66.2 46.5 66.2"/><polygon class="cls-1" points="52.55 68.83 52.79 69.08 53.53 68.97 53.83 68.77 53.83 68.77 53.74 68.68 52.54 68.87 52.55 68.83 52.55 68.83"/><polygon class="cls-1" points="48.08 68.11 47.21 68.07 47.07 68.26 47.89 68.39 48.07 68.23 48.08 68.11 48.08 68.11"/><polygon class="cls-1" points="42.86 67.81 43.7 67.88 43.56 67.59 42.95 67.6 42.86 67.81 42.86 67.81"/><polygon class="cls-1" points="69.17 53.62 68.97 53.61 68.69 54.02 68.98 54.19 69.13 54 69.19 53.75 69.17 53.62 69.17 53.62"/><polygon class="cls-1" points="41.28 64.86 40.92 64.83 40.5 65.2 41.44 65.31 41.28 64.86 41.28 64.86"/><polygon class="cls-1" points="53.83 68.77 53.92 68.86 54.75 68.84 54.64 68.64 53.83 68.77 53.83 68.77 53.83 68.77"/><polygon class="cls-1" points="68.43 24.31 68.65 24.31 68.61 23.9 68.38 23.97 68.43 24.31 68.43 24.31"/><polygon class="cls-1" points="32.77 66.08 33.39 65.46 33.41 65.34 32.75 65.85 32.79 66.08 32.77 66.08 32.77 66.08"/><polygon class="cls-1" points="43.04 66.62 42.56 66.62 42.42 66.8 43.04 66.62 43.04 66.62"/><polygon class="cls-1" points="56.45 65.15 56.34 64.7 55.88 65.1 56.46 65.1 56.45 65.15 56.45 65.15"/><polygon class="cls-1" points="61.53 61.57 61.37 61.39 61.16 61.46 61.11 61.76 61.41 61.77 61.53 61.57 61.53 61.57"/><polygon class="cls-1" points="59.9 63.35 59.43 63.69 59.9 63.72 59.9 63.35 59.9 63.35"/><polygon class="cls-1" points="57.65 63.9 57.24 64.09 57.26 64.29 57.38 64.28 57.65 63.9 57.65 63.9"/><polygon class="cls-1" points="39.67 66.47 40.02 66.54 40.16 66.41 40.11 66.32 39.67 66.47 39.67 66.47"/><polygon class="cls-1" points="71.62 41.23 71.64 41.13 71.28 41.02 71.22 41.12 71.37 41.25 71.62 41.23 71.62 41.23"/><polygon class="cls-1" points="70.36 43.09 70.33 43.47 70.56 43.54 70.78 43.31 70.59 43.05 70.36 43.09 70.36 43.09"/><polygon class="cls-1" points="57.66 66.83 57.88 66.89 58.04 66.71 57.87 66.58 57.75 66.58 57.6 66.73 57.66 66.83 57.66 66.83"/><polygon class="cls-1" points="70.69 30.34 70.67 30.12 70.35 30.13 70.33 30.33 70.44 30.37 70.69 30.34 70.69 30.34"/><polygon class="cls-1" points="71.76 36.94 71.32 36.95 71.55 37.18 71.76 36.94 71.76 36.94"/><polygon class="cls-1" points="68.27 52.24 68.22 52.7 68.5 52.57 68.51 52.45 68.27 52.24 68.27 52.24"/><polygon class="cls-1" points="32.45 64.71 32.51 64.93 32.72 65 32.67 64.78 32.45 64.71 32.45 64.71"/><polygon class="cls-1" points="71.59 33.71 71.7 33.69 71.82 33.52 71.66 33.46 71.55 33.64 71.59 33.71 71.59 33.71"/><polygon class="cls-1" points="37.93 66.31 37.87 66.1 37.67 66.05 37.71 66.25 37.93 66.31 37.93 66.31"/><polygon class="cls-1" points="70.85 44.55 70.84 44.73 71.03 44.78 71.04 44.67 70.96 44.57 70.85 44.55 70.85 44.55"/><polygon class="cls-1" points="46.5 66.19 46.33 66.02 46.12 65.99 46.28 66.26 46.5 66.2 46.5 66.19 46.5 66.19"/><polygon class="cls-1" points="70.24 47.18 70.55 47.07 70.55 46.95 70.37 46.88 70.24 47.18 70.24 47.18"/><polygon class="cls-1" points="67.62 55.96 67.86 55.94 67.96 55.73 67.91 55.66 67.69 55.73 67.62 55.96 67.62 55.96"/><polygon class="cls-1" points="69.37 25.33 69.49 25.34 69.59 25.07 69.46 25.06 69.33 25.24 69.37 25.33 69.37 25.33"/><polygon class="cls-1" points="70.9 27.9 70.89 27.71 70.67 27.77 70.68 27.96 70.9 27.9 70.9 27.9"/><polygon class="cls-1" points="71.67 30.27 71.7 30.18 71.55 30.14 71.55 30.26 71.67 30.27 71.67 30.27"/><polygon class="cls-1" points="48.08 67.22 48.26 67.29 48.27 67.2 48.07 67.25 48.08 67.22 48.08 67.22"/><polygon class="cls-1" points="69.39 50.37 69.35 50.28 69.3 50.34 69.39 50.37 69.39 50.37"/><polygon class="cls-1" points="52.54 68.87 52.35 68.79 52.35 68.88 52.55 68.83 52.54 68.87 52.54 68.87"/><polygon class="cls-1" points="58.36 64.77 58.38 64.69 58.24 64.65 58.25 64.76 58.36 64.77 58.36 64.77"/><polygon class="cls-1" points="21.51 16.89 21.41 17.09 21.55 17.27 21.73 17.03 21.63 16.85 21.51 16.89 21.51 16.89"/><polygon class="cls-1" points="21.93 17.84 22.2 17.6 22.18 17.42 22.07 17.42 21.97 17.84 21.93 17.84 21.93 17.84"/><polygon class="cls-1" points="22.82 18.09 22.89 17.77 22.72 17.66 22.65 17.71 22.66 17.82 22.73 17.91 22.88 18.09 22.82 18.09 22.82 18.09"/><polygon class="cls-1" points="20.7 16.59 20.7 16.7 20.82 16.59 20.7 16.59 20.7 16.59"/><polygon class="cls-1" points="47.1 47.17 47.41 47.14 47.33 46.83 47.03 46.96 47.1 47.17 47.1 47.17"/><polygon class="cls-1" points="45.74 47.28 45.93 47.51 46.17 47.24 46.14 47.07 46.02 47.07 45.74 47.28 45.74 47.28"/><polygon class="cls-1" points="48.22 46.55 47.95 46.81 47.95 46.93 48.07 46.95 48.17 46.55 48.22 46.55 48.22 46.55"/><polygon class="cls-1" points="46.59 48.12 46.8 48.05 46.85 47.87 46.66 47.9 46.59 48.12 46.59 48.12"/><polygon class="cls-1" points="47.67 48.53 47.86 48.5 47.87 48.33 47.76 48.34 47.67 48.41 47.67 48.53 47.67 48.53"/><polygon class="cls-1" points="46.54 47.6 46.53 47.49 46.42 47.48 46.42 47.6 46.54 47.6 46.54 47.6"/><polygon class="cls-1" points="48.11 47.38 48.09 47.51 48.19 47.51 48.19 47.41 48.11 47.38 48.11 47.38"/><polygon class="cls-1" points="49.08 47.42 49.12 47.33 48.98 47.3 48.97 47.41 49.08 47.42 49.08 47.42"/><polygon class="cls-1" points="49.81 47.47 49.85 47.38 49.71 47.36 49.7 47.47 49.81 47.47 49.81 47.47"/><polygon class="cls-1" points="48.93 48.49 49.04 48.49 48.94 48.39 48.93 48.49 48.93 48.49"/></svg>