<?xml version="1.0" encoding="utf-8"?>
<!-- Generator: Adobe Illustrator 15.0.2, SVG Export Plug-In . SVG Version: 6.00 Build 0)  -->
<!DOCTYPE svg PUBLIC "-//W3C//DTD SVG 1.1//EN" "http://www.w3.org/Graphics/SVG/1.1/DTD/svg11.dtd">
<svg version="1.1" id="Layer_1" xmlns="http://www.w3.org/2000/svg" xmlns:xlink="http://www.w3.org/1999/xlink" x="0px" y="0px"
	 width="62.666px" height="62.667px" viewBox="0 0 62.666 62.667" enable-background="new 0 0 62.666 62.667" xml:space="preserve">
<g id="tomato">
	<path fill="#232734" d="M55.318,26.707l0.146,0.354l0.045,4.968l-0.155,0.404l-0.071,0.824l-0.061,0.771l-0.51,1.32l-0.643,1.333
		l0.129,0.673l-0.186,1.625l-0.977,1.773l-0.32,0.369l-1.32,1.282l-0.91,0.963l-0.581,1.243l-0.501,1.187l-0.821,1.132l-1.192,1.22
		l-0.974,0.733l-1.052,0.832l-0.876,0.859l-0.296,0.268l-1.487,0.782l-1.247,0.487l-0.231,0.069l-2.099,0.593L38.67,52.93
		l-0.945,0.234l-1.053,0.301l-0.337,0.13l-1.415,0.532l-1.053,0.06l-1.42,0.467h-0.705l-0.859-0.006l-0.735,0.008l-0.827,0.153
		l-0.703,0.017l-0.969-0.144l-1.305-0.631l-0.379-0.312l-1.118-0.749l-1.479-0.562l-1.621-0.504l-1.1-0.521l-0.75-0.396l-2.25-1.417
		l-1.299-1.112l-1.232-1.005l-1.485-1.458l-0.966-1.206l-0.772-1.436l-0.697-1.288l-0.837-2.148l-0.053-0.487l-0.203-0.871
		l-0.062-2.62l-0.176-0.439l-0.021-3.123l0.148-0.96l0.073-0.479l0.259-1.309l0.232-0.814l0.23-0.688l0.145-0.463l0.961-2.242
		l1.045-1.493l2.076-2.085l0.951-1.264l0.225-0.693l0.408-1.141l1.229-1.668l1.476-1.28l0.194-0.147l1.311-0.657l1.295-0.764
		l0.584-0.519l0.806-0.352l1.79-1.273l0.441-0.193l0.344-0.119l2.854-1.049l1.185-0.274l1.123-0.046l0.433-0.181l1.98-0.253h1.625
		l1.781,0.555l0.71,0.16l0.735,0.007l0.963,0.143l0.603,0.083l0.834,0.206l0.818,0.04l0.255,0.097l1.467,0.595l3.684,1.609
		l1.951,1.253l0.459,0.405l1.731,1.552l0.175,0.171l1.034,1.204l0.411,0.605l0.57,1.083l0.297,0.531l0.678,1.425l0.278,0.933
		l0.247,0.939l0.057,0.358l0.231,1.439L55.318,26.707L55.318,26.707z M52.07,26.912l-0.252-0.242l0.127-0.435l1.343,1.397l0.89,0.98
		l0.119,0.003l-0.014,0.121l0.644,1.514l0.019-0.581l-0.178-0.821L55,28.61l-0.096-0.732l-0.498-0.442l-0.373-0.031l-0.26-0.386
		l-1.027-1.979l-0.824-1.062l-0.996-1.047l-0.061-0.096l-0.006-0.119l-0.014,0.015l0.312,0.03l0.514,0.388l0.157-0.113l0.005-0.376
		l-2.103-2.11l-1.778-0.866l-0.504-0.3l-0.02-0.116L47.4,19.299h0.526l1.69,0.839l0.283-0.024l0.385-0.477l-0.537,0.054
		l-0.051-0.305l0.209-0.109l0.181-0.283l-0.231-0.217l0.031,0.032l-0.348-0.403l-0.572-0.233l0.123-0.229l-0.795-1.616l-0.411-1.003
		l-0.159-0.179l-0.486-0.243l-1.252-0.246l-0.479-0.066l-1.221-0.013l-0.22-0.084l0.694-0.105l0.867-0.119l-0.6-0.34l-1.226-0.063
		l-1.354,0.043l-1.175,0.237l-1.466,0.692l-0.898,0.215l-0.598,0.045l0.02,0.021l0.021-0.114l0.833-0.397l0.786-0.254l0.754-0.336
		l0.751-0.282l0.024-0.115l1.21-0.024l0.284-0.115l-1.496-0.076l0.235-0.23l1.988-0.004l1.379,0.142l0.01-0.08l-0.633-0.327
		l-4.191,0.014l-0.43,0.178l-0.441,0.104l-0.18,0.342l-0.623,0.326l-0.977-0.081l0.535-0.446l0.561-0.388l-2.423-0.096l-1.437-0.954
		l0.029,0.031l-0.053-0.108l-0.686-0.491l-0.245-0.028l-1.474,1.535l-0.398,0.755l-0.201-0.412l-0.414,0.191l0.033,0.035
		l0.027-0.345l0.357-0.314l0.197,0.061l0.528-0.674l0.942-0.95l0.047-0.235l-0.834,0.044l-0.561,0.416l0.029,0.029l-0.034-0.37
		l-0.424-0.141L31.4,11.053l-0.711,0.107l0.03,0.029l-0.124-0.175l-0.323,0.026l-0.354,0.295l-0.212,0.069l0.032,0.031l-0.271-0.229
		l-0.525,0.181l-0.635,0.297L27.5,12.149l0.022,0.021l-0.374-0.19l-0.457,0.373L26.35,12.24l-0.856,0.435l-0.479,0.526l-0.219,0.685
		l-0.062,0.354l-0.188,0.112l0.034,0.03l-0.144-0.95l-0.854,0.564l-0.224,0.655l0.211,0.496v0.951l0.029-0.026l-0.242-0.193
		l-0.199-0.691l-0.114-0.706l-0.075-0.093l-0.121,0.008l-0.209,0.231l0.167,0.571l-0.052,0.334l-0.491-0.59l-1.572,0.788
		l-0.177,0.526l-1.023,0.218l0.092,0.08l0.107,0.055l0.16,0.287l-0.277,0.114l-0.449-0.224l-0.345,0.141l-0.856,1.153V18.8
		l0.023-0.021l-0.387-0.191l-0.319,0.36l0.188,0.84l0.025-0.025l-0.2-0.103l-0.175-0.316l-0.357,0.785l0.042,0.258l0.39,0.255
		l-0.028,0.223l-0.098,0.015l-0.457-0.051l-0.235,0.271l0.034,0.086l0.221,0.094l0.229,0.068l0.078,0.204l-0.173,0.128l-0.448-0.092
		l-0.646,0.596l0.596,0.067l-0.029-0.033l-0.119,0.187l-1.241,0.421l-1.746,2.006l-0.241,0.49l0.098,0.312l-0.586,0.377l0.136,0.311
		l-0.432,0.249l-0.018,0.341l-0.178,0.101l0.067,0.06l0.088-0.182l0.514,0.026l-0.027-0.03l-0.049,0.212l-0.66,0.638l0.32,0.38
		l0.645-0.459h0.266l-0.031-0.031l-0.011,0.12l-1.081,0.964l-0.35,0.324l0.004,0.258l0.195,0.693l0.015,0.853l0.03,0.731
		l0.136,0.154l0.112-0.033l0.492-0.538l0.529-0.666l0.439-0.14l-0.006-0.007l-0.133,0.305l-0.564,0.728l-0.058,0.214l0.039-0.036
		l-0.302,0.165l-0.398,0.69l-0.069,1.122l-0.44,1.165l-0.12,0.963l-0.62,1.081v0.56l0.199,0.437l0.117,1.104l0.146-0.4l0.252-0.219
		l-0.029-0.026l0.02,1.081l-0.002,1.677l1.053,2.039l0.189,0.115l0.146,0.175l0.007-0.081l-0.185-0.062l-0.201-0.945l-0.058-0.847
		l-0.159-0.396v-0.859l0.17-0.376l0.188-2.169l0.048,2.301l0.022,2.006l0.183,0.403l0.596,1.454l0.32,0.342l0.096-0.235
		l-0.176-0.429l0.041-4.778l0.078-0.127l0.09,0.36l0.031,3.79l0.047,0.359l0.188,0.118l-0.028,0.975l0.224,0.938l0.611,1.52
		l0.85,0.793l0.201,0.104l0.076-0.087l-0.239-0.804l0.501,0.486l1.395,1.485l0.766,0.575l0.314,0.151l0.102,0.197l0.062-0.072
		l-0.197-0.091l0.031-0.518l-0.025,0.024l0.215,0.067l1.379,1.159l0.275,0.22l0.119,0.003l0.145,0.176l0.014-0.082l-0.178-0.073
		l-0.348-0.769L19.91,49.15l-0.234-0.291l-0.053-0.36l0.286,0.003L20,48.696l0.067-0.067l-0.194-0.09l-0.002-0.212l-0.234-0.287
		l-0.246-0.484l-0.147-0.178l-0.004,0.086l0.185,0.057l-0.014,0.22l0.259,0.27l-0.007,0.529l-0.307-0.159l-0.34-0.639l-0.797-1.642
		l-0.249-0.68l-0.747-2.078l-0.063-1.734l-0.214-0.448l0.033-2.709l0.188-0.428l0.105-1.402l0.185-0.117l-0.036-0.031l-0.02,1.787
		l-0.203,0.386l0.001,0.34l0.181,1.924l0.018,0.363l0.065,0.882l0.196,0.41l0.951,2.61l1.141,2.137l0.354,0.636l1.475,2.496
		l1.139,1.231l0.256-0.021l0.062-0.085l-0.676-0.84v-0.248l-0.016,0.016l0.212,0.088l1.435,1.36h0.344l0.066,0.191l0.094-0.011
		l-0.192-0.149l-0.103-0.205l-2.266-3.043l-0.061-0.462l-0.025,0.024l0.301,0.153l0.209,0.074v0.387l0.873,0.811l0.117,0.02
		l0.246,0.25l0.238,0.253l0.028,0.329l0.872,1.108l0.393,0.225l0.236,0.043l0.127-0.163l-0.221-0.262l-1.327-1.261l-0.12-0.008
		l-0.253-0.237l-0.249-0.245v-0.522l0.647,0.527l1.372,1.379l0.223,0.056l0.083,0.196l0.071-0.059l-0.188-0.104l0.001-0.521
		l0.277-0.002l0.25,0.247l0.073,0.176l0.142-0.178l0.111,0.046l0.735,1.081l0.949,0.573l0.794,0.714l0.729,0.221l0.604,0.047
		l0.185-0.1l-0.325-0.165l-0.096-0.201l0.46-0.151l-0.271-0.208l-0.428-0.114l-0.074-0.2l-0.58-0.687l0.432-0.122l0.247,0.25
		l0.247,0.246l0.1,0.188l0.111-0.191l1.515,0.759l0.647-0.115l-0.054-0.314l0.112-0.025l0.763,0.631v0.33l-1.161-0.224l-0.84-0.021
		l-0.102-0.194l-0.073,0.068l0.21,0.091l0.023,0.113l1.484,0.612l0.417-0.141v-0.345l0.965,0.025l0.292-0.143l-0.902-0.638
		l-0.082-0.213l-0.015,0.015l0.442,0.111l0.91,0.564l0.344-0.023l-1.4-1.227l-0.025-0.311l0.312-0.071l0.42,0.197l0.244,0.25
		l0.012,0.118l0.545,0.581l0.37-0.074l0.028-0.238l-0.625-0.343l-0.354-0.021l-0.248-0.245l0.029-0.521l-0.023,0.025l0.521,0.372
		l1.118,0.554l0.658,0.65l0.093,0.065l0.322-0.288l-0.67-0.656l-0.068-0.216l0.002-0.002l0.348,0.062l0.574,0.449l0.496-0.004
		L38,52.133l-0.246-0.345l-2.359-2.049l-0.015-0.242l-0.016,0.015l0.12,0.009l0.873,0.847l1.239,0.987l0.638,0.322l0.979-0.03
		l0.19-0.368l-0.654-0.094l-0.562-0.376l-0.828-0.7l-0.014-0.12l-0.016,0.016l0.346,0.053l1.768,0.931l0.885-0.006l0.158-0.148
		l-0.325-0.165l-0.107-0.194l-0.024,0.027l0.701,0.085l0.331,0.118l0.366-0.121l-1.538-1.125l-0.081-0.211l-0.027,0.026l0.442,0.08
		l0.982,0.563l0.236-0.254l-0.163-0.414l-0.023,0.023l0.358,0.02l1.29,0.65l0.709-0.035L43.5,49.753l-0.863-0.452l-1.303-0.876
		l0.225-0.099l1.303,0.65l0.543,0.168l0.007-0.229l-0.691-0.664L41.74,47.76l-2.34-1.735l-0.091-0.212l-0.011,0.012l0.342,0.056
		l1.26,0.902l1.513,0.949l0.31-0.111v-0.35l0.303,0.163l0.363,0.249l0.03-0.221l-0.566-0.597l-0.078,0.091l-0.012,0.357l-0.118-0.02
		l-1.209-0.778l-1.438-1.095l-0.485-0.354l-0.701-0.474l-1.381-1.353l-0.035-0.112l0.084-0.19l1.258,0.72l0.095,0.207l-0.2,0.103
		l0.082,0.056l0.081-0.192l0.942,0.403l1.205,1.054l1.334,0.778l0.236-0.021l0.088,0.175l0.065-0.055l-0.185-0.088l-0.023-0.34
		l-0.564-0.596l-0.135-0.305l0.006-0.005l0.408-0.132l-0.584-0.895l-0.092-0.212l0.254-0.249l0.531,0.476l0.918,1.13l0.23,0.297
		l0.076,0.349l-0.287-0.004l-0.245-0.246l-0.126-0.191l-0.015,0.071l0.175,0.086l0.242,0.248l0.02,0.312l0.227,0.173l0.137,0.188
		l0.012-0.078l-0.183-0.075l0.007-0.522l0.309,0.143l0.412-0.151l0.039-0.231l-0.024,0.023l0.21,0.072l0.27,0.396l0.473,0.836
		l0.297,0.15l0.068,0.198l0.158-0.207l0.305,0.173l0.326,0.043l0.008-1.416l-0.347-0.902l-0.02-0.353l-0.028,0.029l0.311,0.146
		l0.213,0.064l0.092,0.446l-0.127-0.414l-0.077-0.466l-0.588-1.173l-0.046-0.348l-0.021,0.021l0.383,0.241l0.42,0.863l0.236,0.264
		l0.174-0.08l-0.228-0.801l-0.826-1.61l-0.933-1.268l-0.568-0.631l-1.035-1.021l0.123-0.326l-0.899-0.8l-0.749-0.753l-0.033,0.032
		l0.352,0.025l1.261,0.938l0.665,0.521l0.455,0.399l0.948,0.967l0.043,0.341l-0.28,0.004l-0.25-0.241l-0.246-0.246l-0.244-0.246
		l-0.242-0.25l-0.246-0.245l-0.107-0.187l-0.057,0.071l0.2,0.076l0.245,0.246l0.242,0.25l0.246,0.246l0.245,0.246l0.25,0.24
		l0.099,0.197l0.107-0.2l0.521,0.008l0.244,0.488l0.246,0.252l0.371,0.684l0.092-0.443l0.411,0.201l0.037-0.33l-0.44-0.339v-0.343
		l-0.338-0.387l-2.15-1.943l-0.191-0.293l-0.035,0.033l0.46,0.107l0.745,0.239l1.365,1.122l0.258,0.26l0.855,1.186l0.9,1.455
		l0.36,0.021l0.114,0.44l-0.133-0.424l-0.021-0.478l-0.335-0.747l-1.286-1.328l0.098-0.333l-0.068-0.219l0.322-0.02l0.534,0.65
		l0.646,0.703l0.065-0.094l-0.008-0.232l-1-1.363l-0.133-0.203l-0.048-0.54l-0.239-0.354l-1.138-1.229l-0.563-0.617l-0.033,0.031
		l0.672,0.152l0.231-0.141l0.344,0.298l1.185,1.326l0.214-0.045l0.022-0.531l0.037-0.112l0.283-0.001l0.092,0.183l0.057-0.067
		l-0.186-0.075l-0.242-0.252l-0.245-0.248l-0.229-0.265l0.011-0.501l-0.026,0.026l0.212,0.053l0.816,0.853l0.724,1.059l-0.202,0.104
		l0.074,0.068l0.093-0.206l0.435,0.38l0.43,0.868l0.473,0.452l0.39-0.24l-0.001-0.471l0.17,0.151l0.121,0.592l0.148,0.206
		l0.46-0.037l-0.145-0.537L52,37.531l-0.183-0.821l0.284,0.294l0.242,0.196l0.012,0.555l0.234,0.183l0.105,0.699l0.047-0.547
		l-0.189-0.119l-0.016-0.549l-0.231-0.186v-0.53l-0.075-0.123l-0.405-0.338l0.018-0.233L51.3,35.099l-0.212-0.08l-0.245-0.246
		l-0.238-0.255l-0.229-0.38l-0.247-0.37L50.1,33.796l0.319,0.006l1.178,1.135l0.698,1.141l0.307,0.655l0.445,1.259l0.041,0.979
		l0.07,0.096l0.132-0.118l-0.172-1.683l-0.088-0.602l-0.976-1.696l-0.214-0.298l-1.009-1.228l-1.082-1.168l-0.686-0.503
		l-1.358-0.847l-0.036-0.349l-0.022,0.021l0.239,0.002l1.574,0.917l1.814,1.508h0.328l0.102,0.173l0.115-0.173l0.211,0.088
		l0.493,0.524l0.221,0.139h0.416l0.235,0.146l0.142-0.258l-0.383-0.848l-0.111-0.038l0.04,0.042l-0.045-0.358l-0.479-0.975
		l-1.236-1.782l-1.38-1.365l-0.073-0.212l-0.005,0.006l0.377,0.028l2.374,2.756l1.172,2.515l0.354,0.763l0.332-0.326l-0.238-1.194
		l-1.109-1.994l-0.05-0.352l-0.028,0.03l0.461,0.328l0.3,0.137l-0.015,0.211l0.264,0.272l0.137,0.177l0.006-0.073l-0.176-0.069
		l0.02-0.221l-0.253-0.281l-0.09-0.452l-0.165-0.557l0.354,0.273l0.718,1.595l0.188,0.099l0.082,0.198l0.064-0.064l-0.18-0.1
		l-0.035-1.041l-0.457-1.052l-0.748-1.254l-0.998-1.229l-0.209-0.096L52.07,26.912L52.07,26.912z M45.921,40.927l-0.075-0.206
		l-0.074,0.058l0.188,0.11l0.143,0.115L45.921,40.927L45.921,40.927z M43.957,46.82l-0.084-0.208l-0.072,0.062l0.189,0.113
		l0.243,0.248l0.093,0.188l0.061-0.071l-0.189-0.081L43.957,46.82L43.957,46.82z M25.53,52.719l-0.108-0.188l-0.066,0.066
		l0.213,0.083l0.087,0.179l0.059-0.062L25.53,52.719L25.53,52.719z M35.604,11.935L35.52,11.75l-0.061,0.059l0.182,0.089
		l0.279,0.245l0.206,0.001l0.246,0.248l0.122,0.188l1.188,0.014l0.118-0.088l-1.462-0.082l-0.24-0.254l-0.187-0.205L35.604,11.935
		L35.604,11.935z M37.322,11.895l0.132-0.409l-0.097,0.443l-0.191,0.091l0.066,0.069L37.322,11.895L37.322,11.895z M27.033,53.42
		l0.068,0.189l0.098-0.091l-0.193-0.071l-0.205-0.222l-0.185,0.088l0.083,0.07L27.033,53.42L27.033,53.42z M41.526,11.899
		l0.423,0.127L41.5,11.929l-0.104-0.184l-0.548,0.058L41.526,11.899L41.526,11.899z M47.916,42.606l0.086,0.196l0.058-0.065
		l-0.177-0.095l-0.109-0.694l-0.205,0.211l0.234,0.414L47.916,42.606L47.916,42.606z M50.359,20.265l0.656-0.367l-0.094-0.072
		l-0.426,0.142l-0.134,0.302l-0.2,0.076l0.1,0.112L50.359,20.265L50.359,20.265z M20.4,50.468l0.098,0.179l0.066-0.061l-0.197-0.084
		l-0.014-0.117l-0.914-0.28l0.725,0.376L20.4,50.468L20.4,50.468z M13.248,44.365l-0.088-0.193l-0.062,0.062l0.186,0.094v0.343
		l0.785,0.806l0.09,0.002l0.049-0.104l-0.004-0.121L13.248,44.365L13.248,44.365z M48.628,37.974l-0.099-0.192l-0.057,0.073
		l0.189,0.084l0.048,0.351l0.812,0.88l0.119-0.003l0.029,0.329l0.066,0.082l0.086-0.166l-0.214-0.215l-0.03-0.389l-0.736-0.751
		L48.628,37.974L48.628,37.974z M11.035,33.549l-0.041-1.074l-0.148-0.231L10.6,33.625l0.081,0.572l0.146-0.442l0.239-0.24
		l-0.048,0.816l-0.438,0.871l0.094,0.723l0.469-1.099l0.362-1.272l0.052-1.095l-0.041-1.582l-0.116-0.244l-0.079,0.371l-0.046,2.312
		L11.035,33.549L11.035,33.549z M49.467,17.732l0.105-0.144l-0.842-1.972l-0.164-0.167l-0.093-0.017l-0.075,0.089v0.233l0.889,1.819
		L49.467,17.732L49.467,17.732z M52.507,21.131l0.018-0.952L52.306,19l-0.134-0.13l-0.073,0.095l0.011,1.813l0.05,0.117
		L52.507,21.131L52.507,21.131z M49.847,16.401l0.896,2.103l0.024-0.57l-0.175-0.822l-0.074-0.226L49.847,16.401L49.847,16.401z
		 M54.43,24.539l-0.07,1.731l0.358,0.527l-0.06-1.079l-0.125-0.713L54.43,24.539L54.43,24.539z M51.116,17.671v0.445l0.009,0.12
		l0.012,0.118l0.315,0.91l0.263,0.19l0.078-0.224l-0.168-0.803l-0.059-0.469l-0.318-0.333L51.116,17.671L51.116,17.671z
		 M52.918,20.094l-0.023,2.239l0.062,0.046l0.082-2.132L52.918,20.094L52.918,20.094z M53.916,24.669l0.139-1.932l-0.166-0.45
		l-0.104,1.188L53.916,24.669L53.916,24.669z M47.719,43.437l0.045,0.345l0.107,0.342l0.032,0.361l0.149,0.358l0.119-0.403
		l-0.114-0.716L47.719,43.437L47.719,43.437z M36.18,10.97l0.069,0.677l0.28-0.093l-0.065-0.584H36.18L36.18,10.97z M51.562,20.618
		l-0.344-0.321l-0.194,0.325l-0.362,0.269l0.452,0.125L51.562,20.618L51.562,20.618z M47.286,45.283l0.136-0.812l-0.117-0.348
		l-0.129,0.22L47.286,45.283L47.286,45.283z M52.414,24.07l0.134-0.248l-0.206-0.417l-0.189-0.053l-0.064,0.22L52.414,24.07
		L52.414,24.07z M35.459,11.323l0.389-0.091l0.018-0.239l-0.088-0.215l-0.16,0.115L35.459,11.323L35.459,11.323z M40.268,11.905
		l-0.192-0.231l-0.233,0.206l0.196,0.233L40.268,11.905L40.268,11.905z M38.806,11.596l0.024,0.353l0.07,0.091l0.129-0.11
		l0.025-0.234l-0.089-0.192L38.806,11.596L38.806,11.596z M39.414,12.057l0.107-0.408l-0.13-0.099l-0.065,0.082L39.414,12.057
		L39.414,12.057z M39.701,12.542l-0.562,0.002L39.701,12.542L39.701,12.542z M51.459,21.658l0.051-0.305l-0.289-0.029l0.024,0.185
		L51.459,21.658L51.459,21.658z M52.441,22.085l-0.067,0.088l-0.007,0.334l0.055,0.097l0.104-0.121L52.441,22.085L52.441,22.085z
		 M46.771,46.06l0.011-0.653l-0.08,0.211L46.771,46.06L46.771,46.06z M42.915,50.351l-0.522-0.096l-0.074,0.083l0.029,0.074
		l0.198,0.087L42.915,50.351L42.915,50.351z M11.16,29.208l-0.041,0.209l0.056,0.096l0.076-0.08l-0.026-0.208L11.16,29.208
		L11.16,29.208z M50.329,38.757l-0.012-0.114l-0.072-0.085l-0.103,0.144l0.115,0.134L50.329,38.757L50.329,38.757z M51.035,40.712
		l-0.051-0.208l-0.072,0.161l0.072,0.139L51.035,40.712L51.035,40.712z M46.793,46.888l-0.062,0.095l0.064,0.219l0.098-0.18
		l-0.027-0.104L46.793,46.888L46.793,46.888z M25.887,52.33l0.213,0.089l0.092-0.073L25.887,52.33L25.887,52.33z M36.115,52.716
		l-0.111,0.028l-0.055,0.075l0.212,0.078l0.093-0.067L36.115,52.716L36.115,52.716z M37.986,11.511l-0.119,0.12l0.062,0.196
		l0.117-0.112L37.986,11.511L37.986,11.511z M38.549,11.628l-0.127-0.108l-0.068,0.187l0.121,0.123L38.549,11.628L38.549,11.628z
		 M41.152,12.241L40.945,12.2l-0.008,0.146l0.215-0.033V12.241L41.152,12.241z M53.473,21.333l-0.068,0.028l-0.047,0.088
		l0.059,0.196l0.107-0.119L53.473,21.333L53.473,21.333z M26.908,52.532l-0.047,0.063l0.074,0.011L26.908,52.532L26.908,52.532z
		 M25.014,52.334l-0.083-0.063l-0.006,0.12L25.014,52.334L25.014,52.334z M45.514,48.625l0.071,0.052l0.01-0.091L45.514,48.625
		L45.514,48.625z M45.252,47.663l0.072,0.047l0.008-0.081L45.252,47.663L45.252,47.663z M19.094,46.933l-0.119-0.01l0.053,0.081
		L19.094,46.933L19.094,46.933z M18.601,45.946l-0.113-0.008l0.05,0.079L18.601,45.946L18.601,45.946z M49.783,42.011l-0.055-0.054
		l-0.014,0.087L49.783,42.011L49.783,42.011z M53.629,34.638l0.059,0.055l0.012-0.093L53.629,34.638L53.629,34.638z M52.498,34.397
		l-0.062-0.05l-0.011,0.082L52.498,34.397L52.498,34.397z M53.42,22.175l0.063-0.062l-0.045-0.078l-0.056,0.068L53.42,22.175
		L53.42,22.175z M49.509,16.391l-0.046,0.091l0.076,0.007L49.509,16.391L49.509,16.391z M34.766,10.719l-0.076,0.062l0.139,0.016
		L34.766,10.719L34.766,10.719z"/>
	<path fill="#232734" d="M28.718,21.272l0.425-0.401l0.58-0.6l0.445-0.567l0.598-0.604l0.315-0.245l0.423-0.034l0.375,0.582
		l-0.388,0.755l0.396,0.24L31.39,20.93l-0.213,0.095l0.012-0.338l-0.331,0.022l-0.062,0.2l0.191,0.081l0.23-0.005l-0.221,0.65
		l0.289,0.811l0.414,0.044l-0.021-0.021l-0.062,0.228l-0.576,0.908l0.118,0.077l3.046-0.021l0.694-0.181l-0.036-0.037l-0.3,0.688
		l-2.319,0.996l-2.068,0.669l-0.318,0.282l0.51,0.309l0.751,0.145l-0.56,0.214l0.164,0.885l0.557,1.143l1.285,1.006l0.424,0.103
		l0.588,0.578L32.978,30.4l-1.325-0.109l-2.008-1.169l-2.277-0.001l-0.682,0.268l-1.065,0.795l-1.2,1.362l-0.406,0.604l-0.588,0.612
		l-0.705,0.478l-0.512-0.252l-0.034-0.104l0.25-0.683l0.363-1.031l0.022-0.359l-0.229-0.242l0.031,0.031l0.227-0.486l0.32-1.605
		l0.357-0.767l-0.571-0.311h-0.888l-0.971,1.119l-0.221,0.059l0.022,0.022l0.04-0.35l0.424-0.579l0.389-1.559l0.354-0.311
		l1.575-0.917l0.676-0.271l0.385-0.314l-0.224-0.24l-2.977-1.345l-0.831-0.387l0.005-0.287l0.464-0.714l0.73-1.117l0.188-0.206
		l0.549-0.025l0.186,0.204l0.062,0.632l1.32,1.4l0.408,0.261l0.934,0.468l0.543-0.512l1.341-0.583l1.299-0.245l0.028-0.397
		L28.718,21.272L28.718,21.272z M31.18,29.38l-0.247-0.255l-0.808-1.674l-0.562-0.602l-0.682-0.205l-1.014,0.337l-0.754,0.675
		l-0.242,0.55l0.647,0.386l1.11-0.45l1.982,0.928l0.357,0.021l0.246,0.253l0.089,0.189l0.077-0.063L31.18,29.38L31.18,29.38z
		 M28.258,25.683l-0.248,0.181l0.168,0.29l0.463-0.102l-0.403-0.389l0.181-0.088l-0.062-0.062L28.258,25.683L28.258,25.683z
		 M23.196,32.252l0.671-0.763l1.262-1.438l0.307-0.358l0.406-0.254l0.357-0.473l-0.141-0.626l0.395-0.854l-0.227-0.229l-0.265-0.055
		l-0.858,0.388l-0.904,0.361l-0.604,0.907l-0.08,0.85l-0.17,1.066l-0.195,0.943L23.196,32.252L23.196,32.252z M26.081,25.968
		l-0.792-1.035l-0.57,0.082l-2.037,1.032l-0.022,0.141l0.31,0.67l0.449,0.082l1.443,0.185l0.969-0.46l0.596-0.105L26.081,25.968
		L26.081,25.968z M27.442,23.83l-0.163,0.318l0.289,0.673l0.08,0.091l0.782-0.275l0.28-2.019l-0.193-0.251l-0.198-0.111h-0.386
		l-0.637,0.312l-0.244,0.303v0.458L27.442,23.83L27.442,23.83z M29.577,25.319l0.239,0.04l0.693-0.226l0.689-0.228l1.045-0.267
		l0.553-0.364l-0.229-0.076l-1.359,0.01l-0.974,0.455L29.577,25.319L29.577,25.319z M29.581,21.291l-0.103,0.357l0.006,1.595
		l0.072,0.097l0.135-0.104l-0.033-1.828L29.581,21.291L29.581,21.291z M30.703,22.412l-0.371-0.617l-0.094,0.514l0.316,0.617
		L30.703,22.412L30.703,22.412z M26.764,22.717l-0.128,0.908l0.128-0.12V22.717L26.764,22.717z M26.627,25.083l0.32,0.23
		l-0.044-0.537L26.627,25.083L26.627,25.083z M24.743,23.3l-0.136,0.121l0.211,0.242l0.107-0.02l0.002-0.19L24.743,23.3L24.743,23.3
		z M28.689,28.839l0.113-0.007l0.088-0.072l-0.191-0.099l-0.107,0.123L28.689,28.839L28.689,28.839z M22.563,22.288l-0.07-0.206
		l-0.064,0.051l0.008,0.209l0.065,0.025L22.563,22.288L22.563,22.288z M24.031,22.985l-0.027-0.1l-0.065-0.051l-0.071,0.073
		l0.067,0.188L24.031,22.985L24.031,22.985z M26.17,24.503l-0.044,0.074l0.073,0.008L26.17,24.503L26.17,24.503z M29.361,24.26
		l-0.043,0.067l0.07,0.008L29.361,24.26L29.361,24.26z M25.492,23.83l-0.072-0.047l-0.008,0.08L25.492,23.83L25.492,23.83z"/>
	<path fill="#232734" d="M29.954,47.531l0.325,0.658l0.807,0.42L30.714,49l-0.821-0.641l-0.891-0.965l-0.035-0.113l0.199-0.098
		l-0.068-0.066l-0.096,0.197l-0.362-0.297l-1.67-3.007l-0.877-1.015l-0.075-0.632l0.191-0.094l-0.062-0.074l-0.094,0.202
		l-0.286-0.201l-0.33-0.507l-0.382-0.888L24.787,40l-0.031-0.362l-0.191-1.797l0.111-0.335l0.18,1.011l0.477,0.774l0.077,0.094
		l1.544,1.874l0.962,1.396l0.073,0.473l0.029-0.027l-0.275,0.034l-0.094-0.185l-0.062,0.063l0.189,0.087v0.577l0.356,0.627
		l0.135-0.711l-0.034,0.033l0.115,0.025l0.376,0.865l0.243,0.936l0.282,0.913l0.294,0.529l0.409,0.409l0.034-0.033l-0.163,0.098
		l0.161,0.191L29.954,47.531L29.954,47.531z M26.273,41.162l-0.088-0.181l-0.064,0.062l0.172,0.098l0.242,0.249l0.137,0.644
		l0.109-0.45l-0.26-0.18L26.273,41.162L26.273,41.162z M27.111,42.812l0.246-0.191l0.047-0.203l-0.244-0.24L27.111,42.812
		L27.111,42.812z"/>
	<path fill="#232734" d="M47.908,22.473l-0.355-0.025l-0.894-0.636l-0.737-0.743l-0.859-0.232l-0.936-0.299l-1.205-0.087
		l-1.23-0.386l-0.369,0.194l-1.029-0.452l-1.064-0.069l-0.147-0.534l0.194-0.135l0.828-0.181l0.806-0.263l0.474-0.007l0.117,0.188
		l0.029-0.031l-1.021,0.292l-0.098,0.063l0.004,0.067l0.885,0.326l1.386-0.127l-0.317-0.18l-0.099-0.197l-0.027,0.034l0.929,0.202
		l0.6,0.058l0.912,0.412l0.313-0.113l0.71-0.028l1.182,0.573l0.025,0.116l0.016-0.017l-1.021-0.209l-0.217,0.122l-0.145,0.19
		l0.614,0.525l1.659,1.387l0.08,0.209L47.908,22.473L47.908,22.473z M43.045,20.157l0.621-0.01L43.045,20.157L43.045,20.157z
		 M42.517,19.827l-0.114,0.021l-0.062,0.07L42.554,20l0.095-0.064L42.517,19.827L42.517,19.827z"/>
	<polygon fill="#232734" points="30.447,43.374 30.566,43.392 30.736,43.556 31.604,44.875 32.467,46.047 33.096,46.94 
		33.604,47.908 34.104,49.018 34.029,49.935 33.857,49.207 33.157,47.83 32.42,46.717 30.478,44.162 30.472,43.351 30.447,43.374 	
		"/>
	<polygon fill="#232734" points="16.184,42.846 16.193,43.209 16.242,44.178 16.519,44.969 16.768,45.772 17,46.196 17.082,46.251 
		17.337,46.143 17.637,46.493 17.943,47.15 18.299,47.805 18.867,48.423 18.898,48.782 18.924,48.757 18.71,48.674 18.047,48.005 
		17.317,46.604 17.193,46.871 17.108,46.954 16.781,46.651 16.238,45.308 15.986,44.375 15.945,43.537 15.723,42.867 15.713,42.875 
		16.221,42.885 16.184,42.846 	"/>
	<polygon fill="#232734" points="44.855,17.421 44.707,17.54 43.629,17.411 42.115,16.983 41.793,16.855 39.797,16.82 39.325,17.04 
		38.28,17.037 38.174,16.969 38.332,16.863 38.818,16.833 39.609,16.61 42.23,16.61 43.354,16.999 43.949,17.096 44.855,17.421 	"/>
	<polygon fill="#232734" points="20.861,39.666 21.012,39.989 21.014,40.105 20.882,40.367 20.883,41.153 20.914,41.708 
		21.079,42.074 21.135,42.912 21.59,44.026 22.111,45.146 22.092,45.589 22.124,45.554 22.011,45.519 21.375,44.366 20.93,43.25 
		20.84,42.536 20.654,42.167 20.658,39.91 20.895,39.695 20.861,39.666 	"/>
	<polygon fill="#232734" points="27.5,12.149 27.443,12.496 27.039,13.33 26.965,16.153 26.761,16.839 26.785,16.815 26.545,16.613 
		26.553,14.625 26.732,14.196 26.802,13.167 27.311,12.238 27.522,12.169 27.5,12.149 	"/>
	<polygon fill="#232734" points="27.982,32.292 28.005,36.016 28.205,36.412 28.25,37.231 28.174,37.34 28.039,37.25 28,36.715 
		27.816,36.305 27.785,35.955 27.791,32.542 28.018,32.322 27.982,32.292 	"/>
	<polygon fill="#232734" points="16.432,35.482 16.293,36.536 16.172,37.359 16.045,37.857 16.18,38.366 16.191,39.445 
		16.228,39.412 15.98,39.099 15.701,38.676 15.734,38.707 15.766,37.648 15.96,37.241 16.286,35.643 16.469,35.515 16.432,35.482 	
		"/>
	<polygon fill="#232734" points="40.021,40.68 40.381,40.71 42.73,43.005 42.73,43.375 42.758,43.346 42.641,43.33 40.163,40.855 
		40.054,40.649 40.021,40.68 	"/>
	<polygon fill="#232734" points="25.287,49.98 25.318,50.509 25.104,50.426 23.711,48.992 23.131,47.885 23.094,47.534 
		23.084,47.543 23.294,47.619 23.658,48.22 25.066,49.764 25.035,49.732 25.316,50.011 25.287,49.98 	"/>
	<polygon fill="#232734" points="15.49,45.595 15.385,45.537 14.489,43.316 14.231,43.126 14.246,42.409 14.365,42.244 
		14.719,42.988 15.43,45.021 15.49,45.595 	"/>
	<polygon fill="#232734" points="39.048,41.901 39.255,41.542 39.154,41.232 39.414,41.167 39.661,41.41 40.029,42.145 
		40.055,42.119 39.848,42.467 39.976,42.766 39.769,42.855 39.566,42.748 39.074,42.223 39.074,41.875 39.048,41.901 	"/>
	<polygon fill="#232734" points="16.957,28.141 17.055,27.947 17.855,27.681 18.723,27.407 20.381,27.41 20.484,27.466 
		20.396,27.604 18.926,27.644 17.67,28.092 16.938,28.119 16.957,28.141 	"/>
	<polygon fill="#232734" points="20.86,45.306 20.895,45.834 21.267,46.662 21.604,47.549 21.615,47.785 21.615,47.785 
		21.498,47.772 21.215,47.407 20.723,46.197 20.436,45.416 20.398,44.824 20.373,44.851 20.619,45.026 20.893,45.343 20.86,45.306 	
		"/>
	<polygon fill="#232734" points="13.367,33.552 13.466,34.76 13.127,35.656 13.062,35.553 13.059,33.708 13.367,33.552 	"/>
	<polygon fill="#232734" points="24.301,47.556 24.416,47.57 24.869,48.39 25.259,48.687 25.3,49.013 25.3,49.013 25.043,49.268 
		25.062,49.25 24.842,49.188 24.16,48.152 24.329,47.868 24.329,47.53 24.301,47.556 	"/>
	<polygon fill="#232734" points="15.701,38.676 15.67,39.991 15.492,40.352 15.326,41.536 15.267,41.43 15.264,39.701 
		15.541,38.803 15.734,38.707 15.701,38.676 	"/>
	<polygon fill="#232734" points="14.844,40.065 14.777,38.253 15.113,37.264 15.262,37.079 15.357,37.008 15.419,37.113 
		15.421,37.225 14.99,38.384 14.961,39.905 14.844,40.065 	"/>
	<polygon fill="#232734" points="50.859,22.716 50.419,22.624 49.939,22.266 49.607,22.217 49.647,22.254 49.274,21.838 
		48.787,21.538 48.644,21.247 48.638,21.252 48.873,21.255 50.77,22.519 50.846,22.731 50.859,22.716 	"/>
	<polygon fill="#232734" points="18.891,36.958 18.854,38.049 18.687,38.373 18.592,40.005 18.445,39.955 18.449,38.206 
		18.635,37.815 18.742,37.107 18.927,36.99 18.891,36.958 	"/>
	<polygon fill="#232734" points="29.707,51.976 29.461,51.731 29.221,51.347 28.512,50.579 28.512,50.226 28.478,50.262 
		28.59,50.295 30.176,51.851 30.232,52.226 29.951,52.224 29.707,51.976 	"/>
	<polygon fill="#232734" points="20.125,36.226 20.135,36.711 20.093,37.27 19.885,37.677 19.885,38.936 19.732,39.076 
		19.66,38.982 19.657,37.53 19.868,37.04 19.969,36.363 20.157,36.253 20.125,36.226 	"/>
	<polygon fill="#232734" points="29.252,52.717 29.015,52.698 28.809,52.582 27.521,51.319 27.488,51.205 27.85,51.267 
		29.174,52.503 29.252,52.717 	"/>
	<polygon fill="#232734" points="45.464,34.496 45.12,34.477 43.775,33.359 43.836,33.073 44.639,33.618 45.428,34.532 
		45.464,34.496 	"/>
	<polygon fill="#232734" points="18.68,43.348 18.49,43.256 18.227,42.104 18.215,41.749 18.256,41.276 18.438,41.169 
		18.404,41.139 18.441,41.476 18.643,41.814 18.652,43.374 18.68,43.348 	"/>
	<polygon fill="#232734" points="38.369,25.493 38.721,25.458 40.21,26.208 40.064,26.361 38.711,25.831 38.369,25.493 	"/>
	<polygon fill="#232734" points="22.725,38.769 22.783,38.874 22.741,41.284 22.625,41.143 22.626,38.96 22.725,38.769 	"/>
	<polygon fill="#232734" points="39.31,45.813 39.082,45.801 37.654,44.789 37.598,44.578 37.573,44.605 37.806,44.609 
		37.918,44.644 38.984,45.374 39.297,45.708 39.299,45.825 39.31,45.813 	"/>
	<polygon fill="#232734" points="44.697,42.638 44.904,42.713 45.354,43.25 45.9,44.036 45.924,44.361 45.952,44.332 45.837,44.327 
		45.357,43.828 44.764,42.954 44.722,42.613 44.697,42.638 	"/>
	<polygon fill="#232734" points="12.541,29.619 12.541,29.259 13.649,28.145 14.013,28.145 13.985,28.119 13.965,28.234 
		12.627,29.573 12.511,29.587 12.541,29.619 	"/>
	<polygon fill="#232734" points="25.523,14.353 25.526,17.087 25.562,17.053 25.379,16.932 25.378,14.512 25.559,14.385 
		25.523,14.353 	"/>
	<polygon fill="#232734" points="21.505,40.962 21.632,42.18 22.016,43.006 21.699,43.021 21.408,42.427 21.382,41.178 
		21.505,40.962 	"/>
	<polygon fill="#232734" points="23.814,19.05 23.932,19.069 24.757,20.513 24.67,20.689 24.574,20.616 23.838,19.54 23.838,19.028 
		23.814,19.05 	"/>
	<polygon fill="#232734" points="48.644,21.247 48.414,21.24 48.205,21.147 47.508,20.735 46.942,20.373 46.928,20.258 
		46.912,20.275 47.361,20.275 48.412,20.869 48.501,20.947 48.638,21.252 48.644,21.247 	"/>
	<polygon fill="#232734" points="50.615,23.452 50.385,23.452 50.168,23.32 49.209,22.383 49.647,22.254 49.607,22.217 
		49.756,22.523 50.527,23.255 50.599,23.468 50.615,23.452 	"/>
	<polygon fill="#232734" points="20.369,38.925 20.402,41.159 20.223,41.309 20.146,41.218 20.165,39.167 20.4,38.957 
		20.369,38.925 	"/>
	<polygon fill="#232734" points="44.969,41.625 44.761,41.534 43.745,40.489 43.745,40.151 43.715,40.183 43.928,40.266 
		44.937,41.286 44.937,41.659 44.969,41.625 	"/>
	<polygon fill="#232734" points="43.957,29.868 44.193,29.852 45.346,30.447 45.39,30.66 45.202,30.688 44.074,30.042 43.99,29.834 
		43.957,29.868 	"/>
	<polygon fill="#232734" points="19.914,18.773 19.553,18.753 18.707,17.936 18.75,17.69 18.84,17.692 19.854,18.69 19.878,18.806 
		19.914,18.773 	"/>
	<polygon fill="#232734" points="38.07,46.07 38.309,46.085 39.33,46.735 39.476,46.925 39.256,46.993 38.322,46.442 38.084,46.179 
		38.082,46.059 38.07,46.07 	"/>
	<polygon fill="#232734" points="22.367,45.589 22.381,44.766 22.453,44.671 22.747,45.408 23.043,46.043 22.988,46.257 
		22.583,46.049 22.616,46.083 22.576,45.749 22.336,45.556 22.367,45.589 	"/>
	<polygon fill="#232734" points="29.492,33.272 29.492,33.984 29.662,34.441 29.581,34.683 29.288,34.394 29.26,33.257 
		29.403,33.165 29.492,33.272 	"/>
	<polygon fill="#232734" points="47.898,26.661 48.24,26.719 49.113,27.532 49.12,27.65 49.141,27.627 48.85,27.611 48.335,27.187 
		47.92,26.767 47.908,26.65 47.898,26.661 	"/>
	<polygon fill="#232734" points="19.633,41.384 19.67,41.732 19.864,42.082 19.887,42.669 19.727,42.769 19.419,42.11 19.484,41.53 
		19.668,41.414 19.633,41.384 	"/>
	<polygon fill="#232734" points="20.513,43.547 20.178,42.658 20.266,41.988 20.582,42.742 20.641,43.329 20.513,43.547 	"/>
	<polygon fill="#232734" points="41.035,49 40.685,49 39.918,48.229 40.026,48.06 40.184,48.042 41.002,48.903 41.013,49.023 
		41.035,49 	"/>
	<polygon fill="#232734" points="33.908,50.724 33.791,50.708 33.168,49.613 33.174,49.495 33.145,49.522 33.352,49.596 
		33.887,50.505 33.892,50.74 33.908,50.724 	"/>
	<polygon fill="#232734" points="20.398,44.824 19.971,44.779 19.686,44.487 19.67,44.074 19.73,43.973 19.924,44.014 20.063,44.21 
		20.373,44.851 20.398,44.824 	"/>
	<polygon fill="#232734" points="30.203,50.251 30.323,50.259 31.122,51.103 30.881,51.178 30.262,50.603 30.223,50.233 
		30.203,50.251 	"/>
	<polygon fill="#232734" points="19.285,44.432 19.474,44.991 19.805,45.457 19.478,45.481 19.192,45.158 19.285,44.432 	"/>
	<polygon fill="#232734" points="43.486,41.39 43.048,41.265 42.539,40.751 42.52,40.395 42.486,40.43 43.467,41.284 43.475,41.403 
		43.486,41.39 	"/>
	<polygon fill="#232734" points="14.744,31.823 14.795,31.482 15.365,30.868 15.73,30.845 15.702,30.818 15.688,30.937 
		14.846,31.793 14.728,31.807 14.744,31.823 	"/>
	<polygon fill="#232734" points="23.107,49.035 22.646,48.676 22.346,48.527 22.368,47.77 22.338,47.798 22.449,47.829 
		22.752,48.318 23.038,48.693 23.107,49.035 	"/>
	<polygon fill="#232734" points="47.152,32.391 47.338,32.393 48.082,32.986 48.039,33.207 47.152,32.391 	"/>
	<polygon fill="#232734" points="26.721,36.373 26.68,34.796 26.762,35.178 26.76,35.662 26.754,36.024 26.721,36.373 	"/>
	<polygon fill="#232734" points="14.747,24.702 14.773,24.587 16.221,24.212 16.194,24.183 16.095,24.371 15.193,24.65 
		14.723,24.676 14.747,24.702 	"/>
	<polygon fill="#232734" points="29.71,12.393 29.33,13.593 29.217,13.62 29.244,13.644 29.621,12.446 29.733,12.417 29.71,12.393 	
		"/>
	<polygon fill="#232734" points="44.197,44.818 44.204,45.341 44.229,45.318 44.11,45.303 43.603,44.792 43.487,44.339 
		43.474,44.352 43.774,44.504 44.236,44.857 44.197,44.818 	"/>
	<polygon fill="#232734" points="24.545,14.352 24.518,15.654 24.449,15.75 24.386,15.667 24.398,14.494 24.579,14.382 
		24.545,14.352 	"/>
	<polygon fill="#232734" points="42.97,14.602 42.83,14.779 41.502,14.846 41.53,14.876 41.636,14.695 41.854,14.636 43.008,14.638 
		42.97,14.602 	"/>
	<polygon fill="#232734" points="35.111,15.586 35.088,15.703 34.549,16.3 34.262,16.236 34.82,15.619 35.145,15.619 35.111,15.586 
			"/>
	<polygon fill="#232734" points="33.639,45.835 33.756,45.847 34.32,46.464 34.383,46.808 34.398,46.792 34.195,46.751 
		33.686,46.158 33.666,45.808 33.639,45.835 	"/>
	<polygon fill="#232734" points="22.854,47.28 22.744,47.245 22.367,46.052 22.334,46.082 22.616,46.083 22.583,46.049 
		22.674,46.509 22.827,47.309 22.854,47.28 	"/>
	<polygon fill="#232734" points="31.701,48.263 31.586,48.237 31.24,47.499 31.25,47.157 31.354,47.172 31.675,47.803 
		31.675,48.288 31.701,48.263 	"/>
	<polygon fill="#232734" points="35.385,48.017 35.18,47.952 34.655,47.354 34.655,47.029 34.623,47.063 35.353,47.81 
		35.361,48.042 35.385,48.017 	"/>
	<polygon fill="#232734" points="44.723,22.215 43.41,22.171 43.307,22.113 43.392,22.051 44.571,22.07 44.691,22.25 44.723,22.215 
			"/>
	<polygon fill="#232734" points="28.358,48.348 28.953,49.025 28.924,49.126 28.843,49.165 28.296,48.561 28.358,48.348 	"/>
	<polygon fill="#232734" points="34.635,48.523 34.746,48.531 35.338,49.186 35.364,49.512 35.38,49.498 35.26,49.489 
		34.688,48.872 34.638,48.52 34.635,48.523 	"/>
	<polygon fill="#232734" points="48.875,23.229 49.219,23.274 49.85,23.966 49.886,23.931 49.543,23.931 48.956,23.404 48.9,23.204 
		48.875,23.229 	"/>
	<polygon fill="#232734" points="16.027,26.875 16.983,26.71 17.16,26.967 17.074,27.046 16.75,26.91 16.027,26.875 	"/>
	<polygon fill="#232734" points="51.603,28.359 51.242,28.359 50.677,27.768 50.771,27.672 51.004,27.693 51.506,28.176 
		51.575,28.386 51.603,28.359 	"/>
	<polygon fill="#232734" points="50.607,34.515 50.863,34.751 51.113,34.997 50.66,35.137 50.346,34.991 50.383,35.027 
		50.099,34.743 50.135,34.782 50.131,34.498 50.104,34.531 50.607,34.515 	"/>
	<polygon fill="#232734" points="44.449,31.583 44.899,31.683 45.406,32.202 45.43,32.319 45.464,32.286 45.1,32.286 44.537,31.764 
		44.473,31.561 44.449,31.583 	"/>
	<polygon fill="#232734" points="45.933,36.98 46.289,36.998 46.852,37.575 46.525,37.649 45.949,37.084 45.943,36.968 
		45.933,36.98 	"/>
	<polygon fill="#232734" points="20.895,39.695 20.914,38.419 21.076,38.445 21.043,39.542 20.861,39.666 20.895,39.695 	"/>
	<polygon fill="#232734" points="51.854,33.062 51.572,33.058 51.203,32.49 51.106,32.051 51.089,32.069 51.201,32.078 
		51.803,32.73 51.854,33.062 	"/>
	<polygon fill="#232734" points="46.414,40.675 46.164,40.432 46.168,39.903 46.721,40.332 46.93,40.406 46.937,40.925 46.6,40.709 
		46.414,40.675 	"/>
	<polygon fill="#232734" points="25.633,44.205 26.012,44.896 25.879,45.021 25.633,44.205 	"/>
	<polygon fill="#232734" points="20.893,45.343 21.036,44.726 21.269,45.503 20.86,45.306 20.893,45.343 	"/>
	<polygon fill="#232734" points="28.512,13.156 28.529,12.67 28.997,12.175 28.962,12.14 28.865,12.595 28.671,13.024 
		28.479,13.124 28.512,13.156 	"/>
	<polygon fill="#232734" points="32.655,16.325 32.643,16.442 32.045,17.007 31.996,16.706 32.332,16.355 32.687,16.355 
		32.655,16.325 	"/>
	<polygon fill="#232734" points="17.674,20.033 17.791,20.048 18.307,20.659 18.078,20.702 17.693,20.011 17.674,20.033 	"/>
	<polygon fill="#232734" points="32.652,48.542 33.121,49.036 33.145,49.522 33.174,49.495 33.061,49.468 32.729,48.86 
		32.689,48.507 32.652,48.542 	"/>
	<polygon fill="#232734" points="44.691,22.25 45.669,22.278 45.916,22.498 45.951,22.458 44.919,22.445 44.723,22.215 
		44.691,22.25 	"/>
	<polygon fill="#232734" points="27.529,51.246 26.752,50.469 27.344,50.736 27.529,51.246 	"/>
	<polygon fill="#232734" points="33.666,26.146 32.618,26.107 32.521,26.043 32.611,25.978 33.527,25.999 33.635,26.181 
		33.666,26.146 	"/>
	<polygon fill="#232734" points="54.061,27.375 54.114,27.595 54.311,28.151 54.103,28.064 53.645,27.533 54.061,27.375 	"/>
	<polygon fill="#232734" points="53.045,28.843 53.154,28.892 53.573,29.871 53.09,29.297 53.045,28.843 	"/>
	<polygon fill="#232734" points="27.742,31.068 27.735,31.303 27.345,32.026 27.291,31.668 27.657,31.098 27.775,31.096 
		27.742,31.068 	"/>
	<polygon fill="#232734" points="53.044,32.777 52.957,33.475 52.627,32.89 52.588,32.54 52.553,32.571 52.816,32.69 53.084,32.819 
		53.044,32.777 	"/>
	<polygon fill="#232734" points="12.191,35.625 12.1,35.578 12.112,34.917 12.403,34.872 12.191,35.625 	"/>
	<polygon fill="#232734" points="17.456,36.502 17.504,35.444 17.644,35.501 17.6,36.347 17.42,36.471 17.456,36.502 	"/>
	<polygon fill="#232734" points="33.669,36.219 33.559,36.18 33.193,35.458 33.293,35.3 33.633,36.253 33.669,36.219 	"/>
	<polygon fill="#232734" points="19.137,35.73 19.111,36.75 18.891,36.958 18.927,36.99 18.953,35.969 19.172,35.761 19.137,35.73 	
		"/>
	<polygon fill="#232734" points="37.004,39.519 36.734,39.623 36.416,39.328 36.538,39.034 37.004,39.519 	"/>
	<polygon fill="#232734" points="31.18,39.694 31.295,39.711 31.675,40.431 31.676,40.669 31.701,40.646 31.502,40.594 
		31.234,40.229 31.211,39.665 31.18,39.694 	"/>
	<polygon fill="#232734" points="41.445,40.494 41.156,40.601 40.822,40.303 40.936,40 41.445,40.494 	"/>
	<polygon fill="#232734" points="19.668,41.414 19.457,40.644 19.516,40.536 19.854,41.076 19.824,41.289 19.633,41.384 
		19.668,41.414 	"/>
	<polygon fill="#232734" points="23.972,41.22 24.229,41.743 24.145,41.945 23.961,42.062 23.826,41.931 23.823,41.355 
		23.972,41.22 	"/>
	<polygon fill="#232734" points="16.473,42.853 16.184,42.846 16.221,42.885 16.323,41.696 16.387,41.799 16.439,42.884 
		16.473,42.853 	"/>
	<polygon fill="#232734" points="43.721,41.648 44.25,41.859 44.451,42.391 44.474,42.368 44.271,42.304 43.791,41.839 
		43.732,41.637 43.721,41.648 	"/>
	<polygon fill="#232734" points="29.71,41.907 29.814,41.952 30.164,42.54 30.203,42.879 30.232,42.852 30.029,42.8 29.745,42.443 
		29.745,41.868 29.71,41.907 	"/>
	<polygon fill="#232734" points="42.979,43.62 43.474,44.352 43.487,44.339 43.379,44.327 43.004,43.594 42.979,43.62 	"/>
	<polygon fill="#232734" points="37.104,44.329 36.387,43.958 36.376,43.837 36.343,43.872 37.064,44.255 37.072,44.364 
		37.104,44.329 	"/>
	<polygon fill="#232734" points="33.145,12.882 32.653,13.616 32.687,13.645 32.975,12.974 33.176,12.913 33.145,12.882 	"/>
	<polygon fill="#232734" points="34.621,14.356 34.17,14.834 33.938,14.699 34.223,14.414 34.648,14.385 34.621,14.356 	"/>
	<polygon fill="#232734" points="19.878,18.806 20.346,19.274 20.24,19.461 19.932,19.13 19.914,18.773 19.878,18.806 	"/>
	<polygon fill="#232734" points="25.285,46.574 25.779,47.304 25.805,47.28 25.318,46.541 25.285,46.574 	"/>
	<polygon fill="#232734" points="26.295,48.013 25.805,47.28 25.779,47.304 25.891,47.307 26.262,48.048 26.295,48.013 	"/>
	<polygon fill="#232734" points="17.209,22.003 17.312,21.823 18.092,21.878 17.182,21.975 17.209,22.003 	"/>
	<polygon fill="#232734" points="16.223,22.25 16.416,22.02 17.209,22.003 17.182,21.975 16.988,22.204 16.193,22.216 16.223,22.25 
			"/>
	<polygon fill="#232734" points="21.143,48.501 21.033,48.496 20.648,47.771 20.617,47.801 20.813,47.856 21.107,48.534 
		21.143,48.501 	"/>
	<polygon fill="#232734" points="34.137,47.792 34.246,47.798 34.635,48.523 34.638,48.52 34.149,47.998 34.152,47.778 
		34.137,47.792 	"/>
	<polygon fill="#232734" points="47.898,22.483 48.629,22.979 48.656,22.952 47.908,22.473 47.898,22.483 	"/>
	<polygon fill="#232734" points="37.268,22.856 36.568,22.935 36.467,22.88 36.578,22.777 37.268,22.856 	"/>
	<polygon fill="#232734" points="16.221,24.212 16.33,24.025 17.035,23.993 17.134,24.068 16.194,24.183 16.221,24.212 	"/>
	<polygon fill="#232734" points="25.564,50.014 25.287,49.98 25.316,50.011 25.035,49.732 25.066,49.764 25.062,49.25 
		25.043,49.268 25.311,49.269 25.289,49.248 25.562,49.519 25.534,49.491 25.564,50.014 	"/>
	<polygon fill="#232734" points="14.723,24.676 14.718,24.796 14.248,25.124 14.143,25.085 14.133,25.001 14.747,24.702 
		14.723,24.676 	"/>
	<polygon fill="#232734" points="22.107,50.241 21.627,49.494 21.599,49.521 22.105,50.243 22.107,50.241 	"/>
	<polygon fill="#232734" points="15.979,26.179 16.082,25.989 16.896,26.043 15.951,26.149 15.979,26.179 	"/>
	<polygon fill="#232734" points="39.562,50.227 38.824,49.741 38.794,49.77 39.537,50.254 39.562,50.227 	"/>
	<polygon fill="#232734" points="47.154,26.178 47.89,26.55 47.898,26.661 47.908,26.65 47.18,26.15 47.154,26.178 	"/>
	<polygon fill="#232734" points="39.561,27.13 39.121,27.132 38.826,26.747 38.834,26.635 38.801,26.672 39.44,26.967 
		39.533,27.163 39.561,27.13 	"/>
	<polygon fill="#232734" points="51.816,26.881 52.094,26.885 52.342,27.132 52.343,27.657 51.816,26.881 	"/>
	<polygon fill="#232734" points="14.506,27.651 15.021,27.167 15.242,27.166 15.208,27.129 14.474,27.62 14.506,27.651 	"/>
	<polygon fill="#232734" points="42.754,27.871 42.395,27.836 42.058,27.521 42.392,27.468 42.727,27.901 42.754,27.871 	"/>
	<polygon fill="#232734" points="49.12,27.65 49.866,28.132 49.871,28.126 49.141,27.627 49.12,27.65 	"/>
	<polygon fill="#232734" points="42.727,27.901 43.092,27.901 43.358,28.105 43.416,28.292 43.215,28.348 42.754,27.871 
		42.727,27.901 	"/>
	<polygon fill="#232734" points="52.555,28.111 53.057,28.661 53.082,28.886 52.586,28.335 52.555,28.111 	"/>
	<polygon fill="#232734" points="54.802,28.888 54.543,28.754 54.287,28.625 54.273,28.107 54.802,28.888 	"/>
	<polygon fill="#232734" points="14.384,30.78 14.274,30.526 14.571,30.182 14.68,30.427 14.384,30.78 	"/>
	<polygon fill="#232734" points="28.23,31.31 28.198,32.085 27.982,32.292 28.018,32.322 28.053,31.547 28.266,31.341 28.23,31.31 	
		"/>
	<polygon fill="#232734" points="52.338,32.048 51.848,31.532 51.848,31.312 51.818,31.341 52.312,31.852 52.316,32.069 
		52.338,32.048 	"/>
	<polygon fill="#232734" points="20.123,33.523 20.103,33.896 19.787,34.233 19.717,34.129 20.159,33.555 20.123,33.523 	"/>
	<polygon fill="#232734" points="49.878,34.747 49.764,34.708 49.639,34.514 49.625,34.273 49.744,34.088 50.104,34.531 
		50.131,34.498 49.846,34.781 49.878,34.747 	"/>
	<polygon fill="#232734" points="44.475,35.732 43.747,35.351 43.744,35.24 43.714,35.271 44.449,35.649 44.448,35.759 
		44.475,35.732 	"/>
	<polygon fill="#232734" points="50.343,35.48 50.869,36.254 50.592,36.22 50.627,36.256 50.34,35.973 50.377,36.003 50.343,35.48 	
		"/>
	<polygon fill="#232734" points="48.146,35.748 48.412,35.976 48.413,36.256 47.745,35.883 48.146,35.748 	"/>
	<polygon fill="#232734" points="50.592,36.22 50.472,36.648 50.157,36.312 50.181,36.094 50.377,36.003 50.34,35.973 
		50.627,36.256 50.592,36.22 	"/>
	<polygon fill="#232734" points="33.878,36.75 33.996,36.753 34.333,37.208 34.269,37.443 33.949,37.087 33.91,36.72 33.878,36.75 	
		"/>
	<polygon fill="#232734" points="14.225,36.959 14.117,37.899 14.047,37.804 14.071,37.101 14.26,36.99 14.225,36.959 	"/>
	<polygon fill="#232734" points="45.184,41.909 45.68,42.637 45.701,42.617 45.22,42.094 45.216,41.875 45.184,41.909 	"/>
	<polygon fill="#232734" points="41.78,43.379 41.501,43.349 41.529,43.375 41.253,43.097 41.285,43.134 41.291,42.606 
		41.258,42.642 41.78,43.379 	"/>
	<polygon fill="#232734" points="29.728,52.693 29.785,52.914 29.991,53.208 29.282,52.885 29.209,52.679 29.728,52.693 	"/>
	<polygon fill="#232734" points="33.67,12.418 33.914,12.195 34.402,12.176 34.369,12.14 34.195,12.375 33.635,12.385 33.67,12.418 
			"/>
	<polygon fill="#232734" points="29.217,13.62 29.114,14.333 29.062,13.737 29.244,13.644 29.217,13.62 	"/>
	<polygon fill="#232734" points="41.502,14.846 41.479,14.963 41.404,15.04 41.057,15.101 40.856,14.998 41.53,14.876 
		41.502,14.846 	"/>
	<polygon fill="#232734" points="30.441,15.094 30.388,15.676 30.254,15.59 30.283,15.232 30.475,15.125 30.441,15.094 	"/>
	<polygon fill="#232734" points="23.84,16.808 23.609,16.625 23.598,16.073 23.568,16.099 23.787,16.299 23.807,16.843 
		23.84,16.808 	"/>
	<polygon fill="#232734" points="25.526,17.087 25.703,17.206 25.668,17.738 25.562,17.053 25.526,17.087 	"/>
	<polygon fill="#232734" points="41.5,18.807 42.044,18.83 42.241,19.055 42.269,19.021 41.719,18.999 41.529,18.776 41.5,18.807 	
		"/>
	<polygon fill="#232734" points="24.881,19.388 25.186,19.384 25.197,19.691 24.881,19.388 	"/>
	<polygon fill="#232734" points="26.709,21.385 26.396,21.42 26.301,21.223 26.414,21.069 26.521,21.109 26.605,21.183 
		26.709,21.385 	"/>
	<polygon fill="#232734" points="45.916,22.498 46.584,22.604 46.063,22.637 45.951,22.458 45.916,22.498 	"/>
	<polygon fill="#232734" points="35.397,23.236 35.514,23.06 36.029,23.094 35.361,23.199 35.397,23.236 	"/>
	<polygon fill="#232734" points="19.907,23.69 19.246,23.564 19.79,23.533 19.875,23.723 19.907,23.69 	"/>
	<polygon fill="#232734" points="51.582,24.451 51.105,23.945 51.088,23.962 51.596,24.438 51.582,24.451 	"/>
	<polygon fill="#232734" points="51.596,24.438 52.025,24.802 51.75,24.875 51.582,24.451 51.596,24.438 	"/>
	<polygon fill="#232734" points="48.295,24.764 48.55,24.995 48.559,25.086 48.463,25.15 48.295,24.764 	"/>
	<polygon fill="#232734" points="48.402,25.91 48.07,25.858 48.049,25.516 48.316,25.727 48.386,25.927 48.402,25.91 	"/>
	<polygon fill="#232734" points="18.566,26.512 18.752,26.634 18.783,26.806 18.573,26.833 18.484,26.562 18.566,26.512 	"/>
	<polygon fill="#232734" points="39.533,27.163 40.234,27.269 39.598,27.246 39.561,27.13 39.533,27.163 	"/>
	<polygon fill="#232734" points="16.938,28.119 16.748,28.346 16.193,28.357 16.226,28.388 16.419,28.167 16.957,28.141 
		16.938,28.119 	"/>
	<polygon fill="#232734" points="46.354,28.46 46.529,28.6 46.529,28.781 46.318,28.778 46.268,28.493 46.354,28.46 	"/>
	<polygon fill="#232734" points="43.962,31.089 44.449,31.583 44.473,31.561 43.983,31.175 43.984,31.067 43.962,31.089 	"/>
	<polygon fill="#232734" points="12.749,31.583 12.983,31.821 12.873,32.23 12.788,31.547 12.749,31.583 	"/>
	<polygon fill="#232734" points="14.728,31.807 14.672,32.154 14.591,32.236 14.375,32.245 14.365,32.051 14.744,31.823 
		14.728,31.807 	"/>
	<polygon fill="#232734" points="27.166,32.393 27.153,32.952 27.166,32.393 	"/>
	<polygon fill="#232734" points="20.857,34.009 20.854,34.569 20.619,34.75 20.646,34.774 20.665,34.288 20.894,34.046 
		20.857,34.009 	"/>
	<polygon fill="#232734" points="20.402,35.513 20.416,34.959 20.646,34.774 20.619,34.75 20.6,35.298 20.374,35.488 20.402,35.513 
			"/>
	<polygon fill="#232734" points="19.385,34.995 19.363,35.542 19.137,35.73 19.172,35.761 19.204,35.226 19.421,35.028 
		19.385,34.995 	"/>
	<polygon fill="#232734" points="47.277,35.043 47.593,35.342 47.322,35.456 47.277,35.043 	"/>
	<polygon fill="#232734" points="14.718,35.485 14.7,36.032 14.473,36.218 14.508,36.25 14.533,35.715 14.75,35.516 14.718,35.485 	
		"/>
	<polygon fill="#232734" points="20.157,36.253 20.165,35.691 20.402,35.513 20.374,35.488 20.357,36.042 20.125,36.226 
		20.157,36.253 	"/>
	<polygon fill="#232734" points="30.355,36.342 30.202,36.445 30.016,36.245 30.048,36.144 30.216,36.172 30.355,36.342 	"/>
	<polygon fill="#232734" points="14.473,36.218 14.457,36.772 14.225,36.959 14.26,36.99 14.281,36.443 14.508,36.25 14.473,36.218 
			"/>
	<polygon fill="#232734" points="11.801,37.477 11.908,36.807 11.957,37.347 11.771,37.451 11.801,37.477 	"/>
	<polygon fill="#232734" points="26.889,37.407 26.792,36.95 26.854,36.852 26.979,36.959 26.889,37.407 	"/>
	<polygon fill="#232734" points="51.085,36.712 51.297,36.94 51.358,37.485 51.112,37.16 51.085,36.712 	"/>
	<polygon fill="#232734" points="23.473,37.636 23.386,37.212 23.49,37.075 23.553,37.178 23.473,37.636 	"/>
	<polygon fill="#232734" points="11.771,37.451 11.769,38.018 11.523,38.188 11.553,38.214 11.571,37.663 11.801,37.477 
		11.771,37.451 	"/>
	<polygon fill="#232734" points="51.326,37.446 51.547,37.665 51.602,38.218 51.389,37.993 51.326,37.446 	"/>
	<polygon fill="#232734" points="27.281,38.431 27.098,38.326 27.137,37.786 27.248,38.462 27.281,38.431 	"/>
	<polygon fill="#232734" points="16.191,39.445 16.302,39.484 16.324,40.097 16.228,39.412 16.191,39.445 	"/>
	<polygon fill="#232734" points="31.676,40.669 32.098,41.025 31.743,40.984 31.701,40.646 31.676,40.669 	"/>
	<polygon fill="#232734" points="15.723,42.867 15.527,42.756 15.582,42.185 15.713,42.875 15.723,42.867 	"/>
	<polygon fill="#232734" points="33.172,42.861 32.742,42.542 32.731,42.456 32.938,42.412 33.152,42.879 33.172,42.861 	"/>
	<polygon fill="#232734" points="42.977,42.397 43.184,42.458 43.402,42.725 43.039,42.706 43.008,42.365 42.977,42.397 	"/>
	<polygon fill="#232734" points="16.439,42.884 16.67,43.069 16.684,43.621 16.718,43.589 16.479,43.411 16.473,42.853 
		16.439,42.884 	"/>
	<polygon fill="#232734" points="41.281,43.349 40.795,42.856 40.768,42.884 40.984,42.956 41.285,43.134 41.253,43.097 
		41.257,43.375 41.281,43.349 	"/>
	<polygon fill="#232734" points="44.588,43.816 44.289,43.496 44.594,43.418 44.588,43.816 	"/>
	<polygon fill="#232734" points="16.684,43.621 16.792,43.658 16.876,44.31 16.718,43.589 16.684,43.621 	"/>
	<polygon fill="#232734" points="44.236,44.857 44.314,44.417 44.621,44.713 44.197,44.818 44.236,44.857 	"/>
	<polygon fill="#232734" points="36.102,45.828 36.588,46.322 36.616,46.295 36.377,46.286 36.131,46.047 36.12,45.81 
		36.102,45.828 	"/>
	<polygon fill="#232734" points="37.568,47.311 37.807,47.309 37.972,47.672 37.596,47.285 37.568,47.311 	"/>
	<polygon fill="#232734" points="25.811,49.523 25.534,49.491 25.562,49.519 25.289,49.248 25.311,49.269 25.3,49.013 25.3,49.013 
		25.811,49.523 	"/>
	<polygon fill="#232734" points="36.848,49.503 36.368,49.001 36.345,49.026 36.847,49.504 36.848,49.503 	"/>
	<polygon fill="#232734" points="38.582,49.487 38.253,49.452 38.204,49.118 38.551,49.518 38.582,49.487 	"/>
	<polygon fill="#232734" points="35.857,51.232 36.357,51.714 36.355,51.716 35.873,51.215 35.857,51.232 	"/>
	<polygon fill="#232734" points="34.404,51.209 33.908,50.724 33.892,50.74 34.381,51.235 34.404,51.209 	"/>
	<polygon fill="#232734" points="41.035,24.179 40.612,24.081 41,24.219 41.035,24.179 	"/>
	<polygon fill="#232734" points="41,24.219 41.438,24.307 41.035,24.179 41,24.219 	"/>
	<polygon fill="#232734" points="43.987,25.652 43.744,25.633 43.502,25.41 43.465,25.448 43.773,25.472 43.95,25.69 43.987,25.652 
			"/>
	<polygon fill="#232734" points="17.52,25.719 17.604,25.779 17.475,25.889 17.289,25.822 17.408,25.722 17.52,25.719 	"/>
	<polygon fill="#232734" points="51.113,26.144 50.869,25.865 50.869,25.658 50.835,25.694 51.082,25.972 51.081,26.178 
		51.113,26.144 	"/>
	<polygon fill="#232734" points="47.18,26.15 46.842,26.099 46.776,26.027 46.971,25.939 47.154,26.178 47.18,26.15 	"/>
	<polygon fill="#232734" points="48.386,25.927 48.729,25.94 48.809,26.017 48.703,26.155 48.402,25.91 48.386,25.927 	"/>
	<polygon fill="#232734" points="15.951,26.149 15.777,26.385 15.453,26.388 15.488,26.42 15.77,26.168 15.979,26.179 
		15.951,26.149 	"/>
	<polygon fill="#232734" points="33.635,26.181 34.079,26.279 33.666,26.146 33.635,26.181 	"/>
	<polygon fill="#232734" points="50.272,26.568 50.141,26.458 50.207,26.272 50.359,26.491 50.272,26.568 	"/>
	<polygon fill="#232734" points="12.535,26.915 12.957,26.792 12.508,26.884 12.535,26.915 	"/>
	<polygon fill="#232734" points="15.242,27.166 15.651,27.013 15.208,27.129 15.242,27.166 	"/>
	<polygon fill="#232734" points="41.035,27.621 40.59,27.513 41.002,27.658 41.035,27.621 	"/>
	<polygon fill="#232734" points="41.002,27.658 41.325,27.672 41.492,27.904 41.526,27.865 41.283,27.846 41.035,27.621 
		41.002,27.658 	"/>
	<polygon fill="#232734" points="52.309,27.617 52.565,27.931 52.589,28.152 52.309,27.617 	"/>
	<polygon fill="#232734" points="20.152,28.142 20.23,27.954 20.444,27.922 20.359,28.109 20.131,28.119 20.152,28.142 	"/>
	<polygon fill="#232734" points="41.492,27.904 41.838,27.932 41.936,27.992 41.526,27.865 41.492,27.904 	"/>
	<polygon fill="#232734" points="20.131,28.119 19.957,28.35 19.637,28.361 19.663,28.389 19.83,28.151 20.152,28.142 
		20.131,28.119 	"/>
	<polygon fill="#232734" points="19.637,28.361 19.254,28.498 19.663,28.389 19.637,28.361 	"/>
	<polygon fill="#232734" points="19.383,29.585 19.391,29.793 19.143,30.076 19.178,30.111 19.175,29.905 19.417,29.621 
		19.383,29.585 	"/>
	<polygon fill="#232734" points="16.719,30.109 16.939,29.889 17.115,29.982 17.027,30.048 16.683,30.075 16.719,30.109 	"/>
	<polygon fill="#232734" points="16.434,30.324 15.947,30.569 15.979,30.599 16.258,30.355 16.469,30.357 16.434,30.324 	"/>
	<polygon fill="#232734" points="18.687,30.849 18.685,30.64 18.924,30.356 18.889,30.322 18.891,30.527 18.65,30.813 
		18.687,30.849 	"/>
	<polygon fill="#232734" points="27.775,31.096 27.804,30.767 27.871,30.686 27.959,30.856 27.742,31.068 27.775,31.096 	"/>
	<polygon fill="#232734" points="28.266,31.341 28.275,31.005 28.418,30.928 28.477,31.014 28.23,31.31 28.266,31.341 	"/>
	<polygon fill="#232734" points="52.588,32.54 52.338,32.048 52.316,32.069 52.549,32.243 52.553,32.571 52.588,32.54 	"/>
	<polygon fill="#232734" points="20.159,33.555 20.257,33.132 20.123,33.523 20.159,33.555 	"/>
	<polygon fill="#232734" points="26.936,33.349 26.995,33.562 26.883,33.692 26.812,33.485 26.936,33.349 	"/>
	<polygon fill="#232734" points="26.918,34.088 26.964,34.297 26.871,34.418 26.807,34.226 26.918,34.088 	"/>
	<polygon fill="#232734" points="19.421,35.028 19.53,34.594 19.385,34.995 19.421,35.028 	"/>
	<polygon fill="#232734" points="14.75,35.516 14.764,35.196 14.995,35.026 14.963,34.994 14.961,35.325 14.718,35.485 
		14.75,35.516 	"/>
	<polygon fill="#232734" points="16.682,34.996 16.66,35.315 16.432,35.482 16.469,35.515 16.496,35.201 16.719,35.03 
		16.682,34.996 	"/>
	<polygon fill="#232734" points="50.346,34.991 50.377,35.519 50.127,35.213 50.135,34.992 50.098,35.026 50.383,35.027 
		50.346,34.991 	"/>
	<polygon fill="#232734" points="39.564,35.477 39.136,35.375 39.529,35.517 39.564,35.477 	"/>
	<polygon fill="#232734" points="40.055,35.729 39.564,35.477 39.529,35.517 39.847,35.539 40.023,35.762 40.055,35.729 	"/>
	<polygon fill="#232734" points="40.023,35.762 40.332,35.784 40.516,36.006 40.549,35.973 40.223,35.964 40.055,35.729 
		40.023,35.762 	"/>
	<polygon fill="#232734" points="33.633,36.253 33.869,36.422 33.878,36.75 33.91,36.72 33.696,36.529 33.669,36.219 33.633,36.253 
			"/>
	<polygon fill="#232734" points="41.533,36.461 41.086,36.364 41.5,36.495 41.533,36.461 	"/>
	<polygon fill="#232734" points="50.836,36.218 51.081,36.527 51.11,36.744 50.893,36.534 50.836,36.218 	"/>
	<polygon fill="#232734" points="34.623,37.975 34.839,38.208 34.743,38.371 34.676,38.284 34.658,37.937 34.623,37.975 	"/>
	<polygon fill="#232734" points="27.248,38.462 27.47,38.635 27.492,38.953 27.531,38.917 27.307,38.746 27.281,38.431 
		27.248,38.462 	"/>
	<polygon fill="#232734" points="27.492,38.953 27.618,39.348 27.531,38.917 27.492,38.953 	"/>
	<polygon fill="#232734" points="31.211,39.665 31.088,39.27 31.18,39.694 31.211,39.665 	"/>
	<polygon fill="#232734" points="18.438,41.169 18.42,40.93 18.52,40.727 18.612,40.912 18.404,41.139 18.438,41.169 	"/>
	<polygon fill="#232734" points="30.472,43.351 30.231,43.185 30.232,42.852 30.203,42.879 30.431,43.06 30.447,43.374 
		30.472,43.351 	"/>
	<polygon fill="#232734" points="33.152,42.879 33.389,43.173 33.332,43.259 33.186,43.19 33.172,42.861 33.152,42.879 	"/>
	<polygon fill="#232734" points="27.988,43.127 28.217,43.302 28.232,43.626 28.267,43.593 28.014,43.312 28.018,43.1 
		27.988,43.127 	"/>
	<polygon fill="#232734" points="18.652,43.374 18.854,43.699 18.779,43.779 18.703,43.693 18.68,43.348 18.652,43.374 	"/>
	<polygon fill="#232734" points="37.072,44.364 37.394,44.377 37.573,44.605 37.598,44.578 37.387,44.58 37.104,44.329 
		37.072,44.364 	"/>
	<polygon fill="#232734" points="33.148,45.102 33.389,45.591 33.42,45.558 33.188,45.271 33.184,45.064 33.148,45.102 	"/>
	<polygon fill="#232734" points="15.734,46.085 15.479,45.773 15.455,45.555 15.702,45.745 15.734,46.085 	"/>
	<polygon fill="#232734" points="22.367,46.052 22.139,45.874 22.124,45.554 22.092,45.589 22.367,45.589 22.336,45.556 
		22.334,46.082 22.367,46.052 	"/>
	<polygon fill="#232734" points="45.463,46.293 45.232,46.096 45.322,45.907 45.395,45.986 45.434,46.322 45.463,46.293 	"/>
	<polygon fill="#232734" points="15.98,46.576 15.757,46.369 15.699,46.044 15.928,46.247 15.98,46.576 	"/>
	<polygon fill="#232734" points="45.709,46.821 45.439,46.808 45.463,46.293 45.434,46.322 45.678,46.488 45.709,46.821 	"/>
	<polygon fill="#232734" points="24.09,47.027 23.951,46.619 24.053,47.062 24.09,47.027 	"/>
	<polygon fill="#232734" points="35.997,46.912 35.939,46.983 35.736,46.964 35.721,46.891 35.916,46.836 35.997,46.912 	"/>
	<polygon fill="#232734" points="24.053,47.062 24.279,47.242 24.301,47.556 24.329,47.53 24.109,47.344 24.09,47.027 
		24.053,47.062 	"/>
	<polygon fill="#232734" points="22.368,47.77 22.113,47.487 22.245,47.376 22.32,47.458 22.338,47.798 22.368,47.77 	"/>
	<polygon fill="#232734" points="32.195,47.764 31.975,47.537 32.068,47.366 32.135,47.454 32.162,47.799 32.195,47.764 	"/>
	<polygon fill="#232734" points="34.152,47.778 33.918,47.604 33.918,47.276 33.885,47.311 34.118,47.482 34.137,47.792 
		34.152,47.778 	"/>
	<polygon fill="#232734" points="21.873,48.264 21.632,48.103 21.615,47.785 21.615,47.785 21.851,47.958 21.848,48.289 
		21.873,48.264 	"/>
	<polygon fill="#232734" points="32.689,48.507 32.438,48.224 32.442,48.014 32.412,48.045 32.639,48.223 32.652,48.542 
		32.689,48.507 	"/>
	<polygon fill="#232734" points="31.675,48.288 31.914,48.453 31.921,48.779 31.943,48.756 31.707,48.584 31.701,48.263 
		31.675,48.288 	"/>
	<polygon fill="#232734" points="21.107,48.534 21.354,48.817 21.354,49.026 21.387,48.995 21.152,48.828 21.143,48.501 
		21.107,48.534 	"/>
	<polygon fill="#232734" points="21.354,49.026 21.578,49.207 21.599,49.521 21.627,49.494 21.395,49.323 21.387,48.995 
		21.354,49.026 	"/>
	<polygon fill="#232734" points="30.223,50.233 29.984,50.043 30.074,49.855 30.152,49.918 30.203,50.251 30.223,50.233 	"/>
	<polygon fill="#232734" points="40.054,50.474 39.732,50.461 39.562,50.227 39.537,50.254 39.865,50.261 40.029,50.501 
		40.054,50.474 	"/>
	<polygon fill="#232734" points="34.402,12.176 34.902,11.932 34.873,11.901 34.582,12.142 34.369,12.14 34.402,12.176 	"/>
	<polygon fill="#232734" points="41.534,13.37 41.531,13.649 41.088,13.502 41.534,13.37 	"/>
	<polygon fill="#232734" points="31.18,13.62 31.182,13.83 30.939,14.112 30.973,14.142 30.981,13.825 31.211,13.65 31.18,13.62 	
		"/>
	<polygon fill="#232734" points="32.653,13.616 32.553,14.055 32.687,13.645 32.653,13.616 	"/>
	<polygon fill="#232734" points="25.533,13.892 25.763,14.069 25.709,14.274 25.523,14.353 25.559,14.385 25.559,13.868 
		25.533,13.892 	"/>
	<polygon fill="#232734" points="30.725,14.633 30.732,14.306 30.973,14.142 30.939,14.112 30.906,14.417 30.693,14.604 
		30.725,14.633 	"/>
	<polygon fill="#232734" points="34.648,14.385 34.939,14.154 35.027,14.209 34.951,14.345 34.621,14.356 34.648,14.385 	"/>
	<polygon fill="#232734" points="30.475,15.125 30.479,14.788 30.725,14.633 30.693,14.604 30.669,14.919 30.441,15.094 
		30.475,15.125 	"/>
	<polygon fill="#232734" points="38.312,15.097 38.145,15.329 37.822,15.342 37.85,15.373 38,15.125 38.332,15.118 38.312,15.097 	
		"/>
	<polygon fill="#232734" points="37.354,15.612 37.522,15.377 37.85,15.373 37.822,15.342 37.325,15.583 37.354,15.612 	"/>
	<polygon fill="#232734" points="43.646,15.802 43.555,15.737 43.676,15.633 43.865,15.73 43.646,15.802 	"/>
	<polygon fill="#232734" points="46.146,16.867 46.078,16.948 45.975,16.817 46.084,16.681 46.161,16.756 46.146,16.867 	"/>
	<polygon fill="#232734" points="28.229,17.13 28.162,17.219 28.059,17.087 28.154,16.923 28.229,17.012 28.229,17.13 	"/>
	<polygon fill="#232734" points="37.077,17.551 36.656,17.679 37.108,17.582 37.077,17.551 	"/>
	<polygon fill="#232734" points="22.975,18.217 22.775,18.277 22.676,18.145 22.867,18.08 22.955,18.139 22.975,18.217 	"/>
	<polygon fill="#232734" points="48.604,18.324 48.489,18.447 48.426,18.361 48.51,18.164 48.587,18.218 48.604,18.324 	"/>
	<polygon fill="#232734" points="18.188,19.271 17.959,19.094 17.943,18.779 17.92,18.8 18.143,18.982 18.161,19.297 18.188,19.271 
			"/>
	<polygon fill="#232734" points="47.43,19.267 46.983,19.171 47.4,19.299 47.43,19.267 	"/>
	<polygon fill="#232734" points="23.802,20.539 23.949,20.643 23.743,20.721 23.66,20.643 23.699,20.566 23.802,20.539 	"/>
	<polygon fill="#232734" points="28.758,21.237 28.521,21.018 28.508,20.907 28.586,20.833 28.73,20.932 28.718,21.272 
		28.758,21.237 	"/>
	<polygon fill="#232734" points="19.659,21.237 19.326,21.193 19.256,21.123 19.451,21.036 19.634,21.265 19.659,21.237 	"/>
	<polygon fill="#232734" points="19.634,21.265 20.062,21.371 19.659,21.237 19.634,21.265 	"/>
	<polygon fill="#232734" points="25.152,22.105 25.225,22.136 25.229,22.344 25.156,22.383 25.08,22.3 25.152,22.105 	"/>
	<polygon fill="#232734" points="34.897,23.481 35.082,23.264 35.397,23.236 35.361,23.199 35.178,23.418 34.861,23.444 
		34.897,23.481 	"/>
	<polygon fill="#232734" points="38.718,23.332 38.574,23.409 38.412,23.324 38.617,23.268 38.718,23.332 	"/>
	<polygon fill="#232734" points="39.145,23.593 39.292,23.517 39.461,23.599 39.25,23.657 39.145,23.593 	"/>
	<polygon fill="#232734" points="18.078,23.824 18.039,23.882 17.816,23.883 17.761,23.821 17.861,23.764 18.078,23.824 	"/>
	<polygon fill="#232734" points="33.158,52.21 33.399,52.46 33.414,52.446 33.166,52.204 33.158,52.21 	"/>
	<polygon fill="#232734" points="32.907,51.97 33.158,52.21 33.166,52.204 32.924,51.955 32.907,51.97 	"/>
	<polygon fill="#232734" points="32.656,51.731 32.907,51.97 32.924,51.955 32.684,51.704 32.656,51.731 	"/>
	<polygon fill="#232734" points="32.684,51.704 32.5,51.616 32.522,51.535 32.656,51.731 32.684,51.704 	"/>
	<polygon fill="#232734" points="35.873,51.215 35.631,50.968 35.604,50.997 35.857,51.232 35.873,51.215 	"/>
	<polygon fill="#232734" points="32.236,51.107 32.32,51.07 32.312,51.161 32.236,51.107 	"/>
	<polygon fill="#232734" points="35.359,50.75 35.604,50.997 35.631,50.968 35.391,50.718 35.359,50.75 	"/>
	<polygon fill="#232734" points="35.391,50.718 35.146,50.472 35.11,50.508 35.359,50.75 35.391,50.718 	"/>
	<polygon fill="#232734" points="25.279,50.466 25.566,50.753 25.279,50.466 	"/>
	<polygon fill="#232734" points="26.795,50.509 26.507,50.219 26.795,50.509 	"/>
	<polygon fill="#232734" points="22.359,50.479 22.107,50.241 22.105,50.243 22.344,50.495 22.359,50.479 	"/>
	<polygon fill="#232734" points="28.235,50.012 28.478,50.262 28.512,50.226 28.269,49.978 28.235,50.012 	"/>
	<polygon fill="#232734" points="26.549,50.261 26.262,49.974 26.549,50.261 	"/>
	<polygon fill="#232734" points="37.092,49.75 37.33,50.004 37.346,49.989 37.094,49.749 37.092,49.75 	"/>
	<polygon fill="#232734" points="28.269,49.978 28.02,49.737 27.986,49.771 28.235,50.012 28.269,49.978 	"/>
	<polygon fill="#232734" points="26.304,50.016 26.016,49.729 26.304,50.016 	"/>
	<polygon fill="#232734" points="38.551,49.518 38.794,49.77 38.824,49.741 38.582,49.487 38.551,49.518 	"/>
	<polygon fill="#232734" points="36.847,49.504 37.092,49.75 37.094,49.749 36.848,49.503 36.847,49.504 	"/>
	<polygon fill="#232734" points="27.74,49.526 27.986,49.771 28.02,49.737 27.773,49.49 27.74,49.526 	"/>
	<polygon fill="#232734" points="26.059,49.771 25.77,49.483 26.059,49.771 	"/>
	<polygon fill="#232734" points="32.363,49.37 32.297,49.44 32.242,49.364 32.304,49.29 32.363,49.37 	"/>
	<polygon fill="#232734" points="27.499,49.274 27.74,49.526 27.773,49.49 27.529,49.242 27.499,49.274 	"/>
	<polygon fill="#232734" points="41.013,49.023 41.256,49.273 41.279,49.25 41.035,49 41.013,49.023 	"/>
	<polygon fill="#232734" points="39.809,49.248 39.627,49.161 39.648,49.081 39.781,49.274 39.809,49.248 	"/>
	<polygon fill="#232734" points="27.529,49.242 27.281,49 27.249,49.034 27.499,49.274 27.529,49.242 	"/>
	<polygon fill="#232734" points="23.354,49.278 23.066,48.993 23.354,49.278 	"/>
	<polygon fill="#232734" points="36.098,48.78 36.345,49.026 36.368,49.001 36.12,48.758 36.098,48.78 	"/>
	<polygon fill="#232734" points="31.921,48.779 32.111,48.853 32.096,48.946 31.943,48.756 31.921,48.779 	"/>
	<polygon fill="#232734" points="27.006,48.786 27.249,49.034 27.281,49 27.039,48.75 27.006,48.786 	"/>
	<polygon fill="#232734" points="35.854,48.533 36.098,48.78 36.12,48.758 35.875,48.512 35.854,48.533 	"/>
	<polygon fill="#232734" points="27.039,48.75 26.793,48.505 26.758,48.541 27.006,48.786 27.039,48.75 	"/>
	<polygon fill="#232734" points="35.875,48.512 35.629,48.266 35.607,48.288 35.854,48.533 35.875,48.512 	"/>
	<polygon fill="#232734" points="26.793,48.505 26.541,48.266 26.51,48.297 26.758,48.541 26.793,48.505 	"/>
	<polygon fill="#232734" points="35.629,48.266 35.385,48.017 35.361,48.042 35.607,48.288 35.629,48.266 	"/>
	<polygon fill="#232734" points="26.262,48.048 26.51,48.297 26.541,48.266 26.295,48.013 26.262,48.048 	"/>
	<polygon fill="#232734" points="32.442,48.014 32.195,47.764 32.162,47.799 32.412,48.045 32.442,48.014 	"/>
	<polygon fill="#232734" points="20.648,47.771 20.458,47.658 20.53,47.591 20.617,47.801 20.648,47.771 	"/>
	<polygon fill="#232734" points="29.952,47.304 30.148,47.415 29.954,47.531 29.984,47.56 29.986,47.271 29.952,47.304 	"/>
	<polygon fill="#232734" points="22.827,47.309 23.084,47.543 23.094,47.534 22.854,47.28 22.827,47.309 	"/>
	<polygon fill="#232734" points="37.32,47.066 37.568,47.311 37.596,47.285 37.35,47.039 37.32,47.066 	"/>
	<polygon fill="#232734" points="33.918,47.276 33.744,47.205 33.752,47.129 33.885,47.311 33.918,47.276 	"/>
	<polygon fill="#232734" points="37.082,46.813 37.32,47.066 37.35,47.039 37.103,46.793 37.082,46.813 	"/>
	<polygon fill="#232734" points="34.655,47.029 34.398,46.792 34.383,46.808 34.623,47.063 34.655,47.029 	"/>
	<polygon fill="#232734" points="36.84,46.564 37.082,46.813 37.103,46.793 36.856,46.547 36.84,46.564 	"/>
	<polygon fill="#232734" points="33.526,46.732 33.505,46.658 33.566,46.667 33.526,46.732 	"/>
	<polygon fill="#232734" points="36.588,46.322 36.84,46.564 36.856,46.547 36.616,46.295 36.588,46.322 	"/>
	<polygon fill="#232734" points="25.318,46.541 25.137,46.453 25.197,46.392 25.285,46.574 25.318,46.541 	"/>
	<polygon fill="#232734" points="38.082,46.059 37.893,45.988 37.984,45.887 38.07,46.07 38.082,46.059 	"/>
	<polygon fill="#232734" points="36.12,45.81 35.871,45.566 35.857,45.581 36.102,45.828 36.12,45.81 	"/>
	<polygon fill="#232734" points="33.389,45.591 33.639,45.835 33.666,45.808 33.42,45.558 33.389,45.591 	"/>
	<polygon fill="#232734" points="35.608,45.339 35.857,45.581 35.871,45.566 35.629,45.319 35.608,45.339 	"/>
	<polygon fill="#232734" points="34.621,45.347 34.817,45.437 34.652,45.313 34.621,45.347 	"/>
	<polygon fill="#232734" points="35.361,45.096 35.608,45.339 35.629,45.319 35.387,45.07 35.361,45.096 	"/>
	<polygon fill="#232734" points="34.375,45.101 34.621,45.347 34.652,45.313 34.409,45.067 34.375,45.101 	"/>
	<polygon fill="#232734" points="35.387,45.07 35.145,44.826 35.107,44.862 35.361,45.096 35.387,45.07 	"/>
	<polygon fill="#232734" points="34.409,45.067 34.229,44.977 34.297,44.92 34.375,45.101 34.409,45.067 	"/>
	<polygon fill="#232734" points="33.184,45.064 32.99,44.964 33.055,44.892 33.148,45.102 33.184,45.064 	"/>
	<polygon fill="#232734" points="41.758,44.838 41.523,44.583 41.508,44.599 41.764,44.833 41.758,44.838 	"/>
	<polygon fill="#232734" points="34.865,44.611 35.107,44.862 35.145,44.826 34.9,44.575 34.865,44.611 	"/>
	<polygon fill="#232734" points="41.523,44.583 41.346,44.5 41.367,44.42 41.508,44.599 41.523,44.583 	"/>
	<polygon fill="#232734" points="34.9,44.575 34.725,44.5 34.736,44.431 34.865,44.611 34.9,44.575 	"/>
	<polygon fill="#232734" points="32.844,44.47 32.77,44.51 32.781,44.414 32.844,44.47 	"/>
	<polygon fill="#232734" points="36.376,43.837 36.164,43.756 36.229,43.685 36.343,43.872 36.376,43.837 	"/>
	<polygon fill="#232734" points="43.004,43.594 42.758,43.346 42.73,43.375 42.979,43.62 43.004,43.594 	"/>
	<polygon fill="#232734" points="41.501,43.349 41.533,43.628 41.281,43.349 41.257,43.375 41.529,43.375 41.501,43.349 	"/>
	<polygon fill="#232734" points="40.795,42.856 40.55,42.61 40.52,42.641 40.768,42.884 40.795,42.856 	"/>
	<polygon fill="#232734" points="44.451,42.391 44.697,42.638 44.722,42.613 44.474,42.368 44.451,42.391 	"/>
	<polygon fill="#232734" points="41.291,42.606 41.113,42.55 41.113,42.471 41.258,42.642 41.291,42.606 	"/>
	<polygon fill="#232734" points="40.55,42.61 40.303,42.365 40.273,42.395 40.52,42.641 40.55,42.61 	"/>
	<polygon fill="#232734" points="43.008,42.365 42.832,42.282 42.892,42.224 42.977,42.397 43.008,42.365 	"/>
	<polygon fill="#232734" points="40.303,42.365 40.055,42.119 40.029,42.145 40.273,42.395 40.303,42.365 	"/>
	<polygon fill="#232734" points="44.937,41.659 45.184,41.909 45.216,41.875 44.969,41.625 44.937,41.659 	"/>
	<polygon fill="#232734" points="39.074,41.875 38.887,41.789 38.947,41.716 39.048,41.901 39.074,41.875 	"/>
	<polygon fill="#232734" points="29.745,41.868 29.562,41.784 29.613,41.707 29.71,41.907 29.745,41.868 	"/>
	<polygon fill="#232734" points="43.475,41.403 43.721,41.648 43.732,41.637 43.486,41.39 43.475,41.403 	"/>
	<polygon fill="#232734" points="29.359,41.342 29.309,41.262 29.366,41.197 29.418,41.271 29.359,41.342 	"/>
	<polygon fill="#232734" points="39.786,40.424 40.021,40.68 40.054,40.649 39.807,40.404 39.786,40.424 	"/>
	<polygon fill="#232734" points="42.52,40.395 42.314,40.323 42.367,40.249 42.486,40.43 42.52,40.395 	"/>
	<polygon fill="#232734" points="35.146,50.472 34.952,50.36 35.027,50.301 35.11,50.508 35.146,50.472 	"/>
	<polygon fill="#232734" points="39.807,40.404 39.564,40.155 39.538,40.181 39.786,40.424 39.807,40.404 	"/>
	<polygon fill="#232734" points="43.745,40.151 43.496,39.908 43.47,39.935 43.715,40.183 43.745,40.151 	"/>
	<polygon fill="#232734" points="39.564,40.155 39.379,40.019 39.46,40.002 39.538,40.181 39.564,40.155 	"/>
	<polygon fill="#232734" points="46.203,39.938 45.922,39.936 46.023,39.774 46.203,39.938 	"/>
	<polygon fill="#232734" points="43.496,39.908 43.248,39.667 43.219,39.696 43.47,39.935 43.496,39.908 	"/>
	<polygon fill="#232734" points="42.975,39.447 43.219,39.696 43.248,39.667 43.004,39.417 42.975,39.447 	"/>
	<polygon fill="#232734" points="43.004,39.417 42.759,39.172 42.729,39.203 42.975,39.447 43.004,39.417 	"/>
	<polygon fill="#232734" points="42.759,39.172 42.516,38.925 42.482,38.958 42.729,39.203 42.759,39.172 	"/>
	<polygon fill="#232734" points="42.516,38.925 42.271,38.678 42.237,38.713 42.482,38.958 42.516,38.925 	"/>
	<polygon fill="#232734" points="20.4,38.957 20.489,38.756 20.551,38.829 20.369,38.925 20.4,38.957 	"/>
	<polygon fill="#232734" points="42.271,38.678 42.072,38.582 42.143,38.516 42.237,38.713 42.271,38.678 	"/>
	<polygon fill="#232734" points="38.951,37.779 38.984,37.854 38.904,37.844 38.951,37.779 	"/>
	<polygon fill="#232734" points="34.658,37.937 34.479,37.875 34.481,37.794 34.623,37.975 34.658,37.937 	"/>
	<polygon fill="#232734" points="28.414,37.826 28.348,37.852 28.359,37.777 28.414,37.826 	"/>
	<polygon fill="#232734" points="43.952,37.243 44.197,37.489 44.232,37.456 43.986,37.209 43.952,37.243 	"/>
	<polygon fill="#232734" points="43.711,36.994 43.952,37.243 43.986,37.209 43.746,36.958 43.711,36.994 	"/>
	<polygon fill="#232734" points="45.943,36.968 45.764,36.889 45.859,36.796 45.933,36.98 45.943,36.968 	"/>
	<polygon fill="#232734" points="43.746,36.958 43.551,36.864 43.618,36.799 43.711,36.994 43.746,36.958 	"/>
	<polygon fill="#232734" points="41.777,36.715 41.533,36.461 41.5,36.495 41.744,36.748 41.777,36.715 	"/>
	<polygon fill="#232734" points="48.373,36.218 48.658,36.218 48.658,36.504 48.373,36.218 	"/>
	<polygon fill="#232734" points="40.516,36.006 40.71,36.147 40.621,36.161 40.549,35.973 40.516,36.006 	"/>
	<polygon fill="#232734" points="44.448,35.759 44.626,35.842 44.57,35.908 44.475,35.732 44.448,35.759 	"/>
	<polygon fill="#232734" points="45.679,35.272 45.916,35.522 45.949,35.491 45.711,35.239 45.679,35.272 	"/>
	<polygon fill="#232734" points="48.162,35.243 47.986,35.159 48.004,35.081 48.136,35.269 48.162,35.243 	"/>
	<polygon fill="#232734" points="45.711,35.239 45.521,35.132 45.589,35.06 45.679,35.272 45.711,35.239 	"/>
	<polygon fill="#232734" points="43.744,35.24 43.569,35.158 43.629,35.099 43.714,35.271 43.744,35.24 	"/>
	<polygon fill="#232734" points="50.135,34.992 49.878,34.747 49.846,34.781 50.135,34.782 50.099,34.743 50.098,35.026 
		50.135,34.992 	"/>
	<polygon fill="#232734" points="16.719,35.03 16.794,34.821 16.866,34.882 16.682,34.996 16.719,35.03 	"/>
	<polygon fill="#232734" points="14.995,35.026 15.084,34.811 15.152,34.888 14.963,34.994 14.995,35.026 	"/>
	<polygon fill="#232734" points="45.428,34.532 45.608,34.649 45.538,34.702 45.464,34.496 45.428,34.532 	"/>
	<polygon fill="#232734" points="17.172,34.258 17.076,34.462 17.013,34.383 17.21,34.293 17.172,34.258 	"/>
	<polygon fill="#232734" points="17.21,34.293 17.287,34.1 17.355,34.158 17.172,34.258 17.21,34.293 	"/>
	<polygon fill="#232734" points="20.894,34.046 20.984,33.832 21.049,33.91 20.857,34.009 20.894,34.046 	"/>
	<polygon fill="#232734" points="50.129,33.768 49.881,33.525 49.851,33.554 50.1,33.796 50.129,33.768 	"/>
	<polygon fill="#232734" points="49.604,33.31 49.851,33.554 49.881,33.525 49.635,33.28 49.604,33.31 	"/>
	<polygon fill="#232734" points="49.36,33.062 49.604,33.31 49.635,33.28 49.39,33.033 49.36,33.062 	"/>
	<polygon fill="#232734" points="49.114,32.819 49.36,33.062 49.39,33.033 49.146,32.785 49.114,32.819 	"/>
	<polygon fill="#232734" points="38.307,32.819 38.51,32.897 38.445,32.97 38.343,32.782 38.307,32.819 	"/>
	<polygon fill="#232734" points="48.871,32.57 49.114,32.819 49.146,32.785 48.904,32.537 48.871,32.57 	"/>
	<polygon fill="#232734" points="38.343,32.782 38.098,32.536 38.06,32.573 38.307,32.819 38.343,32.782 	"/>
	<polygon fill="#232734" points="48.904,32.537 48.728,32.397 48.799,32.39 48.871,32.57 48.904,32.537 	"/>
	<polygon fill="#232734" points="45.43,32.319 45.624,32.42 45.464,32.286 45.43,32.319 	"/>
	<polygon fill="#232734" points="38.098,32.536 37.853,32.288 37.816,32.326 38.06,32.573 38.098,32.536 	"/>
	<polygon fill="#232734" points="37.853,32.288 37.64,32.21 37.703,32.132 37.816,32.326 37.853,32.288 	"/>
	<polygon fill="#232734" points="51.106,32.051 50.857,31.809 50.846,31.821 51.089,32.069 51.106,32.051 	"/>
	<polygon fill="#232734" points="37.078,31.834 37.295,31.921 37.219,31.995 37.113,31.797 37.078,31.834 	"/>
	<polygon fill="#232734" points="50.857,31.809 50.614,31.561 50.597,31.579 50.846,31.821 50.857,31.809 	"/>
	<polygon fill="#232734" points="37.113,31.797 36.926,31.67 36.998,31.66 37.078,31.834 37.113,31.797 	"/>
	<polygon fill="#232734" points="50.614,31.561 50.367,31.316 50.352,31.333 50.597,31.579 50.614,31.561 	"/>
	<polygon fill="#232734" points="51.576,31.095 51.818,31.341 51.848,31.312 51.608,31.061 51.576,31.095 	"/>
	<polygon fill="#232734" points="50.102,31.091 50.352,31.333 50.367,31.316 50.124,31.069 50.102,31.091 	"/>
	<polygon fill="#232734" points="18.396,31.057 18.326,31.251 18.258,31.198 18.434,31.094 18.396,31.057 	"/>
	<polygon fill="#232734" points="51.608,31.061 51.365,30.815 51.328,30.852 51.576,31.095 51.608,31.061 	"/>
	<polygon fill="#232734" points="49.855,30.847 50.102,31.091 50.124,31.069 49.883,30.82 49.855,30.847 	"/>
	<polygon fill="#232734" points="43.984,31.067 43.813,30.978 43.874,30.92 43.962,31.089 43.984,31.067 	"/>
	<polygon fill="#232734" points="18.65,30.813 18.396,31.057 18.434,31.094 18.687,30.849 18.65,30.813 	"/>
	<polygon fill="#232734" points="51.365,30.815 51.174,30.729 51.236,30.665 51.328,30.852 51.365,30.815 	"/>
	<polygon fill="#232734" points="49.883,30.82 49.702,30.745 49.792,30.666 49.855,30.847 49.883,30.82 	"/>
	<polygon fill="#232734" points="22.582,30.569 22.517,30.754 22.437,30.742 22.426,30.667 22.613,30.6 22.582,30.569 	"/>
	<polygon fill="#232734" points="15.947,30.569 15.702,30.818 15.73,30.845 15.979,30.599 15.947,30.569 	"/>
	<polygon fill="#232734" points="47.67,30.576 47.432,30.325 47.398,30.359 47.647,30.597 47.67,30.576 	"/>
	<polygon fill="#232734" points="28.693,30.483 28.619,30.55 28.564,30.469 28.633,30.4 28.693,30.483 	"/>
	<polygon fill="#232734" points="52.803,30.113 53.049,30.358 53.077,30.328 52.834,30.082 52.803,30.113 	"/>
	<polygon fill="#232734" points="47.432,30.325 47.254,30.243 47.314,30.185 47.398,30.359 47.432,30.325 	"/>
	<polygon fill="#232734" points="19.143,30.076 18.889,30.322 18.924,30.356 19.179,30.111 19.143,30.076 	"/>
	<polygon fill="#232734" points="16.683,30.075 16.434,30.324 16.469,30.357 16.719,30.109 16.683,30.075 	"/>
	<polygon fill="#232734" points="13.51,30.344 13.758,30.1 13.746,30.089 13.504,30.337 13.51,30.344 	"/>
	<polygon fill="#232734" points="52.834,30.082 52.66,29.996 52.678,29.922 52.803,30.113 52.834,30.082 	"/>
	<polygon fill="#232734" points="13.758,30.1 14.01,29.863 13.981,29.834 13.746,30.089 13.758,30.1 	"/>
	<polygon fill="#232734" points="43.99,29.834 43.803,29.747 43.872,29.691 43.957,29.868 43.99,29.834 	"/>
	<polygon fill="#232734" points="14.01,29.863 14.09,29.687 14.159,29.704 13.981,29.834 14.01,29.863 	"/>
	<polygon fill="#232734" points="12.511,29.587 12.407,29.782 12.346,29.706 12.541,29.619 12.511,29.587 	"/>
	<polygon fill="#232734" points="52.451,29.434 52.477,29.52 52.404,29.509 52.451,29.434 	"/>
	<polygon fill="#232734" points="19.417,29.621 19.664,29.377 19.628,29.341 19.383,29.585 19.417,29.621 	"/>
	<polygon fill="#232734" points="19.664,29.377 19.776,29.189 19.836,29.264 19.628,29.341 19.664,29.377 	"/>
	<polygon fill="#232734" points="20.246,29.045 20.205,28.959 20.3,28.97 20.246,29.045 	"/>
	<polygon fill="#232734" points="20.867,28.609 20.766,28.793 20.701,28.722 20.89,28.631 20.867,28.609 	"/>
	<polygon fill="#232734" points="51.575,28.386 51.764,28.485 51.603,28.359 51.575,28.386 	"/>
	<polygon fill="#232734" points="44.68,28.5 44.593,28.567 44.513,28.491 44.6,28.419 44.68,28.5 	"/>
	<polygon fill="#232734" points="16.193,28.357 16.13,28.53 16.053,28.522 16.226,28.388 16.193,28.357 	"/>
	<polygon fill="#232734" points="42.362,28.313 42.291,28.246 42.372,28.195 42.362,28.313 	"/>
	<polygon fill="#232734" points="14.013,28.145 14.254,27.897 14.223,27.866 13.985,28.119 14.013,28.145 	"/>
	<polygon fill="#232734" points="14.474,27.62 14.223,27.866 14.254,27.897 14.506,27.651 14.474,27.62 	"/>
	<polygon fill="#232734" points="13.029,27.655 13.131,27.461 13.199,27.533 12.998,27.624 13.029,27.655 	"/>
	<polygon fill="#232734" points="51.853,26.637 51.852,26.918 51.602,26.644 51.576,26.67 51.853,26.637 	"/>
	<polygon fill="#232734" points="51.33,26.424 51.576,26.67 51.602,26.644 51.357,26.396 51.33,26.424 	"/>
	<polygon fill="#232734" points="38.834,26.635 38.64,26.562 38.692,26.481 38.801,26.672 38.834,26.635 	"/>
	<polygon fill="#232734" points="15.453,26.388 15.393,26.564 15.318,26.563 15.488,26.42 15.453,26.388 	"/>
	<polygon fill="#232734" points="51.357,26.396 51.113,26.144 51.081,26.178 51.33,26.424 51.357,26.396 	"/>
	<polygon fill="#232734" points="41.9,26.218 41.94,26.306 41.85,26.298 41.9,26.218 	"/>
	<polygon fill="#232734" points="43.95,25.69 44.166,25.772 44.098,25.842 43.987,25.652 43.95,25.69 	"/>
	<polygon fill="#232734" points="20.247,25.852 20.216,25.776 20.292,25.785 20.247,25.852 	"/>
	<polygon fill="#232734" points="50.592,25.445 50.835,25.694 50.869,25.658 50.625,25.41 50.592,25.445 	"/>
	<polygon fill="#232734" points="50.625,25.41 50.376,25.169 50.343,25.203 50.592,25.445 50.625,25.41 	"/>
	<polygon fill="#232734" points="43.502,25.41 43.297,25.324 43.366,25.261 43.465,25.448 43.502,25.41 	"/>
	<polygon fill="#232734" points="19.955,25.3 20.049,25.269 20.039,25.351 19.955,25.3 	"/>
	<polygon fill="#232734" points="50.101,24.956 50.343,25.203 50.376,25.169 50.137,24.918 50.101,24.956 	"/>
	<polygon fill="#232734" points="42.858,25.104 42.819,25.034 42.911,25.045 42.858,25.104 	"/>
	<polygon fill="#232734" points="50.137,24.918 49.892,24.672 49.855,24.71 50.101,24.956 50.137,24.918 	"/>
	<polygon fill="#232734" points="42.371,24.874 42.299,24.808 42.379,24.755 42.371,24.874 	"/>
	<polygon fill="#232734" points="49.892,24.672 49.703,24.591 49.76,24.529 49.855,24.71 49.892,24.672 	"/>
	<polygon fill="#232734" points="41.974,24.571 41.885,24.625 41.803,24.559 41.893,24.505 41.974,24.571 	"/>
	<polygon fill="#232734" points="49.85,23.966 50.027,24.063 49.957,24.111 49.886,23.931 49.85,23.966 	"/>
	<polygon fill="#232734" points="50.85,23.709 51.088,23.962 51.105,23.945 50.854,23.705 50.85,23.709 	"/>
	<polygon fill="#232734" points="39.859,23.823 39.949,23.802 39.94,23.863 39.859,23.823 	"/>
	<polygon fill="#232734" points="19.875,23.723 20.061,23.803 20.002,23.87 19.907,23.69 19.875,23.723 	"/>
	<polygon fill="#232734" points="50.854,23.705 50.615,23.452 50.599,23.468 50.85,23.709 50.854,23.705 	"/>
	<polygon fill="#232734" points="48.9,23.204 48.656,22.952 48.629,22.979 48.875,23.229 48.9,23.204 	"/>
	<polygon fill="#232734" points="37.885,23.085 37.982,23.063 37.977,23.126 37.885,23.085 	"/>
	<polygon fill="#232734" points="31.699,22.491 31.943,22.243 31.924,22.223 31.678,22.469 31.699,22.491 	"/>
	<polygon fill="#232734" points="31.943,22.243 32.191,22 32.165,21.974 31.924,22.223 31.943,22.243 	"/>
	<polygon fill="#232734" points="32.191,22 32.436,21.754 32.404,21.724 32.165,21.974 32.191,22 	"/>
	<polygon fill="#232734" points="32.65,21.481 32.404,21.724 32.436,21.754 32.688,21.517 32.65,21.481 	"/>
	<polygon fill="#232734" points="32.688,21.517 32.779,21.333 32.838,21.397 32.65,21.481 32.688,21.517 	"/>
	<polygon fill="#232734" points="26.76,19.795 26.945,19.884 26.875,19.942 26.797,19.757 26.76,19.795 	"/>
	<polygon fill="#232734" points="17.425,19.788 17.674,20.033 17.693,20.011 17.45,19.762 17.425,19.788 	"/>
	<polygon fill="#232734" points="26.797,19.757 26.549,19.513 26.514,19.548 26.76,19.795 26.797,19.757 	"/>
	<polygon fill="#232734" points="18.408,19.543 18.582,19.625 18.563,19.699 18.434,19.518 18.408,19.543 	"/>
	<polygon fill="#232734" points="26.549,19.513 26.352,19.408 26.422,19.333 26.514,19.548 26.549,19.513 	"/>
	<polygon fill="#232734" points="18.161,19.297 18.408,19.543 18.434,19.518 18.188,19.271 18.161,19.297 	"/>
	<polygon fill="#232734" points="49.33,19.16 49.245,19.235 49.252,19.079 49.33,19.16 	"/>
	<polygon fill="#232734" points="29.62,19.101 29.688,19.172 29.608,19.234 29.62,19.101 	"/>
	<polygon fill="#232734" points="49.855,18.777 49.771,18.975 49.683,18.951 49.887,18.809 49.855,18.777 	"/>
	<polygon fill="#232734" points="35.107,18.779 35.013,18.964 34.953,18.895 35.146,18.816 35.107,18.779 	"/>
	<polygon fill="#232734" points="26.152,18.99 26.123,18.892 26.197,18.899 26.152,18.99 	"/>
	<polygon fill="#232734" points="23.838,19.028 23.657,18.958 23.748,18.868 23.814,19.05 23.838,19.028 	"/>
	<polygon fill="#232734" points="35.146,18.816 35.391,18.568 35.353,18.532 35.107,18.779 35.146,18.816 	"/>
	<polygon fill="#232734" points="35.391,18.568 35.47,18.393 35.541,18.404 35.353,18.532 35.391,18.568 	"/>
	<polygon fill="#232734" points="25.871,18.419 25.938,18.384 25.926,18.47 25.871,18.419 	"/>
	<polygon fill="#232734" points="36.091,18.041 35.992,18.22 35.928,18.155 36.127,18.076 36.091,18.041 	"/>
	<polygon fill="#232734" points="36.127,18.076 36.203,17.898 36.279,17.91 36.091,18.041 36.127,18.076 	"/>
	<polygon fill="#232734" points="48.268,17.518 48.237,17.432 48.312,17.438 48.268,17.518 	"/>
	<polygon fill="#232734" points="47.262,17.517 47.192,17.441 47.275,17.387 47.347,17.458 47.262,17.517 	"/>
	<polygon fill="#232734" points="37.108,17.582 37.203,17.388 37.279,17.455 37.077,17.551 37.108,17.582 	"/>
	<polygon fill="#232734" points="37.708,17.137 37.777,17.199 37.698,17.245 37.708,17.137 	"/>
	<polygon fill="#232734" points="26.761,16.839 26.939,16.915 26.924,16.999 26.785,16.815 26.761,16.839 	"/>
	<polygon fill="#232734" points="23.807,16.843 23.982,16.926 23.922,16.984 23.84,16.808 23.807,16.843 	"/>
	<polygon fill="#232734" points="20.814,16.908 20.812,16.983 20.654,16.94 20.736,16.873 20.814,16.908 	"/>
	<polygon fill="#232734" points="32.687,16.355 32.766,16.175 32.84,16.229 32.655,16.325 32.687,16.355 	"/>
	<polygon fill="#232734" points="37.325,15.583 37.254,15.764 37.176,15.751 37.354,15.612 37.325,15.583 	"/>
	<polygon fill="#232734" points="47.055,15.432 47.082,15.517 47.008,15.506 47.055,15.432 	"/>
	<polygon fill="#232734" points="35.145,15.619 35.2,15.442 35.275,15.443 35.111,15.586 35.145,15.619 	"/>
	<polygon fill="#232734" points="43.008,14.638 43.088,14.458 43.156,14.511 42.97,14.602 43.008,14.638 	"/>
	<polygon fill="#232734" points="25.559,13.868 25.368,13.79 25.387,13.701 25.533,13.892 25.559,13.868 	"/>
	<polygon fill="#232734" points="31.211,13.65 31.465,13.409 31.432,13.374 31.18,13.62 31.211,13.65 	"/>
	<polygon fill="#232734" points="36.811,13.271 36.73,13.336 36.744,13.193 36.811,13.271 	"/>
	<polygon fill="#232734" points="28.479,13.124 28.397,13.333 28.331,13.263 28.512,13.156 28.479,13.124 	"/>
	<polygon fill="#232734" points="33.176,12.913 33.421,12.666 33.388,12.634 33.145,12.882 33.176,12.913 	"/>
	<polygon fill="#232734" points="33.635,12.385 33.388,12.634 33.421,12.666 33.67,12.418 33.635,12.385 	"/>
	<polygon fill="#232734" points="29.733,12.417 29.803,12.215 29.9,12.32 29.71,12.393 29.733,12.417 	"/>
	<polygon fill="#232734" points="29.213,11.899 28.962,12.14 28.997,12.175 29.246,11.932 29.213,11.899 	"/>
	<polygon fill="#232734" points="31.914,11.652 31.835,11.836 31.768,11.776 31.949,11.687 31.914,11.652 	"/>
	<polygon fill="#232734" points="30.2,11.656 30.055,11.847 30.036,11.76 30.224,11.679 30.2,11.656 	"/>
	<polygon fill="#232734" points="29.246,11.932 29.49,11.684 29.455,11.65 29.213,11.899 29.246,11.932 	"/>
	<polygon fill="#232734" points="31.949,11.687 32.199,11.44 32.17,11.411 31.914,11.652 31.949,11.687 	"/>
	<polygon fill="#232734" points="30.449,11.413 30.2,11.656 30.224,11.679 30.467,11.431 30.449,11.413 	"/>
	<polygon fill="#232734" points="29.707,11.406 29.455,11.65 29.49,11.684 29.739,11.437 29.707,11.406 	"/>
	<polygon fill="#232734" points="30.689,11.161 30.449,11.413 30.467,11.431 30.72,11.19 30.689,11.161 	"/>
	<polygon fill="#232734" points="26.021,50.996 25.773,50.75 25.773,50.219 26.301,50.996 26.021,50.996 	"/>
	<polygon fill="#232734" points="25.812,50.261 25.525,49.975 25.812,50.261 	"/>
	<polygon fill="#232734" points="51.844,36.225 51.852,36.751 51.623,36.551 51.844,36.225 	"/>
</g>
</svg>
