<?xml version="1.0" encoding="utf-8"?>
<!-- Generator: Adobe Illustrator 15.0.2, SVG Export Plug-In . SVG Version: 6.00 Build 0)  -->
<!DOCTYPE svg PUBLIC "-//W3C//DTD SVG 1.1//EN" "http://www.w3.org/Graphics/SVG/1.1/DTD/svg11.dtd">
<svg version="1.1" id="Layer_1" xmlns="http://www.w3.org/2000/svg" xmlns:xlink="http://www.w3.org/1999/xlink" x="0px" y="0px"
	 width="49px" height="49px" viewBox="0 0 49 49" enable-background="new 0 0 49 49" xml:space="preserve">
<g>
	<path fill="#232734" d="M14.792,34.059l0.006,0.046l-0.036-0.445l-0.972-0.747l-0.149-0.243l0.055-0.418l-0.546-0.546l-0.571-0.634
		l0.697,0.194l0.07-0.042l-0.18-0.234l-0.236-0.36l0.357-0.293l-1.456-1.316l0.272-0.062l0.618,0.233l-1.4-1.325l0.182-0.165
		l0.566,0.155l0.403,0.024l-0.923-1.033l-0.025-0.373l0.783,0.091l-0.317-0.317l-0.518-0.533l-0.016-0.178l0.395-0.604l0.451-0.239
		l-0.046-0.723l-0.045-1.058l0.206-1.95l0.752-2.436l0.466-1.106l0.614-1.203l2.101-2.683l1.183-0.809l0.353-0.279l1.015-0.633
		l2.405-1.024l1.306-0.205l2.868-0.162l1.933,0.326l1.078,0.216l1.45,0.717l0.765,0.482l0.972,0.402l2.394,1.858l1.074,1.255
		l1.635,2.706l0.578,1.869l0.161,1.049L37.735,24l-0.497,3.117l-0.476,1.117l-0.567,1.061l-0.08,0.301l-0.748,1.115l-0.161,0.562
		l-0.758,0.995l-1.28,1.263l-1.264,0.825l-1.804,1.188l-0.633,0.739l-1.343,0.387l0.376,0.787l-1.127-0.59l-0.483,0.188l0.139,0.264
		l0.002,0.156l-0.896-0.383l-0.602,0.07l0.271,0.352l0.178,0.234l-0.066,0.266l-0.245-0.008l-0.182-0.227l-0.43-0.137l-0.258-0.158
		l-0.408-0.184l-0.089,0.045l0.25,0.693l-0.256,0.172l-0.657-0.479l-0.876-0.451l0.173,0.576l-1.745-1.084l-0.274,0.629
		l-0.138-0.016l-1.088-0.734l-0.205-0.458l-0.54-0.075l0.055-0.006l-0.573-0.088l-1.055-0.591l-0.026,0.067l0.858,1.015
		l-0.701-0.232l-0.265,0.348l-0.75-0.493l-0.841-0.638l-0.739-0.417l0.462-0.391L14.792,34.059L14.792,34.059z M16.812,31.399
		l0.261,0.022l-0.1-0.242l-0.006-0.229l-0.024,0.109l0.097,0.113l-0.218,0.287l-0.257-0.056l0.004,0.124L16.812,31.399
		L16.812,31.399z M15.174,22.499l0.272,0.052l-0.03-0.116l-0.233,0.13l-0.229-0.061l0.003,0.103L15.174,22.499L15.174,22.499z
		 M21.888,33.769l0.226-0.326l-0.101-0.341l0.527-1.062l0.743-1.114l-0.012-0.166l-0.154-0.235l-0.444-0.059l0.383-0.575l0.556-0.09
		l0.287,0.724l-0.618,1.15l-0.627,1.828l0.496,0.397l1.625-0.155l0.128,0.273l0.252,0.105l0.617,0.048l0.485-0.558l-0.05,0.009
		l1.473,0.012l0.649-0.732l-0.053,0.009l1.182,0.233L28.9,34.172l0.075,1.012l0.104,0.051l0.996-0.617l-0.044,0.008l0.15,0.02
		l0.142-0.034l1.752-1.168l0.107-0.105l0.176-0.296l-0.15-0.575l-0.574-0.212l-0.368-0.686l0.496,0.071l0.098-0.021l0.622-0.395
		l0.077,0.406l-0.223,0.223l-0.089,0.104l0.638,0.603l0.285-0.063l0.467-0.38l0.738-1.09l0.925-1.384l0.634-1.312l-0.417-0.573
		l-0.15-0.024l-0.426-0.138l-0.963-0.414l-0.837-0.312l-0.275-0.102l-1.102-0.459l-1.185-0.183l-0.278-0.106l-0.16-0.348
		l0.141-0.054l1.323,0.241l1.098,0.462l0.699,0.236l1.403,0.523l1.327,0.281l0.142-0.049l0.302-0.985l-1.027-0.213l-0.383-0.236
		l0.004,0.055l0.217-0.155l0.729,0.027l0.549-0.028l0.22-0.239l0.133-1.309l-0.196-0.54l0.006,0.059l0.265-0.412l-0.203-1.731
		l-0.892-0.127l-0.178-0.229l0.858-0.527l-0.01-0.328l-0.396-0.368l-0.256-0.1l0.24-0.573l-0.028-0.41l-0.112-0.273l-0.69-0.977
		l-0.129-0.099l-0.439-0.068l0.069-0.737l-0.933-0.945l-0.289-0.009l-1.173,0.693l0.788-1.312l-0.667-0.752l-0.15,0.003
		l-1.365,0.695l-0.484,0.531l-0.492,0.262l-1.245,1.59l-1.388,1.798l-0.248,0.088l-0.031-0.146l0.221-0.762L28,17.833l0.566-0.649
		l1.037-1.071l0.895-0.789l0.235-0.18l0.929-0.753l0.252-0.32l-0.132-0.306l-1.565-0.854l-0.853-0.53l-0.703,0.333l-0.34-0.793
		l-1.829-0.502l-0.287,0.299l-0.458,0.92l0.055-0.008l-0.118-0.248l0.07-0.743l-0.375-0.429l-0.73-0.005l-0.24,0.188l-0.244,0.349
		l-0.104,0.31l-0.369,2.681l-0.22,0.384l0.058-0.008l-0.17-1.296l0.239-2.08l-0.083-0.4l-0.732,0.018l-0.887,0.165l-0.729,0.171
		l-0.136,0.448l-0.256,0.528l0.028-0.003l-0.251-0.52l-0.261-0.103l-1.415,0.615l-0.638,0.838l-0.907,0.756l0.256,2.046l0.331,0.311
		l0.448,0.033l0.48,0.103l-0.122-0.615l-0.337-1.152l0.097-0.261l-0.044,0.006l0.245,0.187l0.578,2.113l-1.207,0.409l-0.772-0.895
		l-0.151-0.021l-0.419,0.117l0.199,0.849l-0.022,0.269l0.053-0.01l-0.709-0.562l-0.106-0.269l0.83-0.832l-0.333-1.1l-0.103-0.062
		l-0.414,0.581l-0.27,0.692l-0.133,0.516l-0.602-0.117l-0.242,0.367l0.399,0.979l0.553-0.077l0.382,0.594l0.118,0.957l-0.543-0.028
		l0.876,0.854l0.043,0.143l-0.067,0.071l-1.009-0.247l-0.388-0.117l-0.096,0.435l1.311,1.01l1.084,0.505l0.429,0.107l0.023,0.141
		l-0.209,0.188l-0.735-0.147l-2.253-1.598l-0.114-0.954l0.146-0.714l0.392-0.233l-0.47-0.792l-0.37-0.216l-0.221,0.99l-0.594,0.93
		l-0.107,0.509l0.704,0.854l-0.783,0.366l-0.045,0.39l0.675,0.514l0.164-0.022l0.383-0.855l0.307-0.207l0.591,0.652l0.448,0.006
		l0.337,0.625l0.795,0.36l-0.151,0.829l-0.277,0.176l-1.521,0.331l-0.264,0.308l-0.312-0.238l-1.014,0.62l0.133,0.039l0.143-0.008
		l1.046-0.461l0.377,0.237l0.58-0.201l2.206-0.494l0.156,0.004l0.884,0.759l-0.879,0.249l-0.669-0.359l-2.402,0.604l0.162,0.245
		l0.926,0.052l0.356,0.232l-0.006-0.03l-0.808,0.372l-0.456-0.011l0.021,0.888l0.379,0.651l0.802-0.228l0.055,0.375l-0.158,0.259
		l0.043,0.285l0.104,0.426l-0.021,0.296l0.18,0.226l0.596,0.459l0.776,0.853l0.673-0.448l-0.083,0.748l0.095,0.662l0.396,0.658
		l0.306-0.318l-0.029-0.752l0.648-0.272l-0.165,0.717l0.191,0.285l1.773-0.825l0.241,0.184l-0.089,0.424l-0.9,0.769l0.112,0.543
		l-0.36,0.275l0.028,0.386l-0.055,0.256l0.111-0.032l-0.114-0.216l0.867-0.557l0.41-0.048l-0.237,0.331l0.116,0.336l-0.235,0.504
		L21.888,33.769L21.888,33.769z M13.99,26.563l0.243,0.062l-0.237-0.004l-0.394,0.038l-0.21,0.48L13.99,26.563L13.99,26.563z
		 M15.121,23.657l-0.251-0.058l0.009,0.113l0.235-0.115l0.126,0.074l1.115-0.248l0.045-0.246l-1.167-0.07L15.121,23.657
		L15.121,23.657z M23.113,36.25l-0.145-0.251l-0.126-0.708l-0.41-0.141l-0.131,0.262l-0.013,0.15l0.031,0.434l0.79,0.188l0.22,0.167
		l1.353,0.178l-0.127-1.364l-0.487-0.403l-0.692,0.252l-0.048,0.859L23.113,36.25L23.113,36.25z M26.744,36.221l0.131-0.269
		l0.284-0.305l0.576-0.045l0.61-0.988l-0.693-0.227l-0.515,0.462l-0.705-0.247l-0.542,0.454l-0.41,0.153l-0.156,0.386l0.508,0.732
		L26.744,36.221L26.744,36.221z M19.88,35.265l0.312,0.264l0.408-0.024l-0.007-1.171l-0.236-0.183l-0.34,0.203l-0.154,0.729
		L19.88,35.265L19.88,35.265z M18.674,32.961l-0.329-0.251l-0.995,0.646l0.049,0.374l0.134,0.082L18.674,32.961L18.674,32.961z
		 M18.178,34.242l0.319,0.278l0.802-0.998l-0.517-0.049L18.178,34.242L18.178,34.242z M13.124,23.979l0.882-0.386l0.015-0.393
		L13.77,23.08l-0.145,0.001l-0.416,0.091L13.124,23.979L13.124,23.979z M15.221,31.016l0.074,0.605l0.242-0.05l0.473-0.558
		l0.038-0.385l-0.419,0.041L15.221,31.016L15.221,31.016z M14.917,27.888l-0.413-0.174l-0.54,0.454l0.038,0.224L14.917,27.888
		L14.917,27.888z M14.145,25.884l-0.062-0.267l-0.834,0.167l0.037,0.535L14.145,25.884L14.145,25.884z M15.984,32.189l0.273,0.328
		l0.469-0.266L15.984,32.189L15.984,32.189z M16.702,34.949l-0.624-0.586l-0.139-0.02l0.024,0.189L16.702,34.949L16.702,34.949z
		 M21.42,35.283l0.357,0.085l0.123-0.234l-0.177-0.136l-0.336,0.153L21.42,35.283L21.42,35.283z M19.389,34.181l0.001,0.194
		l0.124-0.05l0.081-0.252l-0.109,0.013L19.389,34.181L19.389,34.181z M21.599,35.991l-0.138-0.219l-0.114-0.015l0.009,0.181
		L21.599,35.991L21.599,35.991z M14.651,29.477l-0.087,0.061l0.072,0.042L14.651,29.477L14.651,29.477z M19.198,35.057l0.108-0.033
		l-0.117-0.075L19.198,35.057L19.198,35.057z"/>
	<path fill="#232734" d="M26.048,22.358l-0.068,0.015l0.877,0.038l1.935-0.123l0.566-0.058l0.063,0.549l-0.284,0.218l-0.562,1.185
		l0.063,1.192l-0.611,0.802l-0.828,0.447l-0.271,0.213l0.619,0.838l0.647,1.011l0.16,0.415l-0.139,0.403l-0.404,0.003l0.019-0.285
		l-1.175-1.746l-0.753-0.126l-1.274,0.347L24.554,28l0.348,0.742l1.375,1.039l1.023-0.328l0.299-0.042l0.281,0.078l-0.093,0.119
		l-1.508,0.63l-0.445-0.022l-0.781-0.596l-0.851-1.342l-0.807-0.276l-1.254,0.52l-0.382-0.925l-0.341-0.492l0.556-0.031l0.101-0.836
		L19.6,24.993l1.493-0.845l-0.785-1.339l0.116-0.987l0.077-0.091l0.266,0.096l0.247,0.58l1.495,1.34l0.199-0.205l-0.316-0.856
		l-1.51-1.149l-0.505-1.123l-0.627-0.693l0.595-0.002l0.424-1.425l0.577-0.104l0.663,1.852l1.624,1.281l0.711,2.026l1.358-0.696
		L26.048,22.358L26.048,22.358z M22.518,25.427l0.513,0.225l-0.269-0.297l-0.242,0.103l-0.686-0.574L20.9,25.148l0.504,0.476
		l1.02-0.081L22.518,25.427L22.518,25.427z M25.213,23.393l-0.434,0.57l-0.227,0.856l-0.618-0.053l-0.018,0.461l0.622,0.67
		l0.298,0.824l0.257,0.126l1.247-0.53l1.147-0.351l0.6-0.788l0.081-1.146l0.329-1.164l-1.656-0.021L25.213,23.393L25.213,23.393z
		 M23.076,21.334l-0.764-0.586l-0.742-0.654l-0.341-0.559l-0.134-0.021l-0.077,0.083l0.07,1.137l0.435,0.843l1.538,1.298
		l0.278,1.104l0.255-0.029l0.204-0.786l-0.047-0.377L23.076,21.334L23.076,21.334z M22.348,27.87l0.92-0.446l-0.004-0.392
		l-0.322-0.146L22.348,27.87L22.348,27.87z M24.042,26.935l0.218,0.004l-0.155-0.227l-0.147,0.006l-0.001,0.104L24.042,26.935
		L24.042,26.935z M21.294,23.191l0.058,0.079l0.039-0.07L21.294,23.191L21.294,23.191z M23.372,25.917l0.048,0.104l0.117,0.003
		l-0.052-0.104L23.372,25.917L23.372,25.917z"/>
	<polygon fill="#232734" points="25.979,22.373 26.471,21.82 26.971,21.517 26.972,21.29 26.444,21.084 26.379,20.564 
		25.285,21.977 25.437,22.325 26.048,22.358 25.979,22.373 	"/>
	<polygon fill="#232734" points="26.207,33.624 26.323,33.071 26.537,32.527 25.959,32.288 25.489,31.19 25.01,30.917 
		24.854,31.449 24.84,31.381 25.215,31.84 25.916,33.334 26.257,33.615 26.207,33.624 	"/>
	<polygon fill="#232734" points="17.781,28.69 17.539,29.044 17.979,29.552 18.522,29.506 18.68,29.02 19.188,28.745 19.273,28.4 
		18.146,28.689 17.718,28.698 17.781,28.69 	"/>
	<polygon fill="#232734" points="30.035,32.676 29.985,33.385 31.044,33.737 31.092,32.469 29.971,32.682 30.035,32.676 	"/>
	<polygon fill="#232734" points="32.98,28.546 33.851,28.94 32.438,27.716 31.682,28.058 31.749,28.221 32.98,28.546 	"/>
	<polygon fill="#232734" points="22.728,17.171 22.506,17.519 22.93,18.821 23.209,18.866 23.156,18.425 22.974,18.012 
		22.862,17.572 22.68,17.178 22.728,17.171 	"/>
	<polygon fill="#232734" points="16.945,17.733 16.913,17.991 18.271,19.107 18.461,19.034 18.412,18.83 16.893,17.743 
		16.945,17.733 	"/>
	<polygon fill="#232734" points="20.4,28.702 20.414,28.375 20.145,27.92 19.784,28.119 20.095,28.912 20.4,28.702 	"/>
	<polygon fill="#232734" points="29.01,19.169 29.913,18.688 29.992,18.291 29.565,18.353 29.01,19.169 	"/>
	<polygon fill="#232734" points="24.854,31.449 24.45,31.457 24.267,32.367 24.598,32.198 24.743,31.796 24.84,31.381 
		24.854,31.449 	"/>
	<polygon fill="#232734" points="19.479,26.612 19.091,26.526 18.772,26.989 18.931,27.218 19.212,27.266 19.479,26.612 	"/>
	<polygon fill="#232734" points="28.451,14.433 27.774,15.207 28.013,15.278 28.491,14.986 28.451,14.433 	"/>
	<polygon fill="#232734" points="20.653,15.479 20.864,16.486 21.202,16.569 20.877,15.465 20.653,15.479 	"/>
	<polygon fill="#232734" points="20.805,12.658 20.618,12.902 20.713,14.022 20.934,13.893 20.879,12.76 20.776,12.661 
		20.805,12.658 	"/>
	<polygon fill="#232734" points="29.398,29.68 28.891,29.776 29.734,30.578 30.045,30.528 29.398,29.68 	"/>
	<polygon fill="#232734" points="21.216,29.669 21.139,29.921 21.363,29.994 21.738,29.836 21.784,29.577 21.422,29.477 
		21.216,29.669 	"/>
	<polygon fill="#232734" points="25.583,18.906 26.293,17.734 26.026,17.797 25.583,18.906 	"/>
	<polygon fill="#232734" points="17.718,28.698 17.93,28.193 17.211,28.01 16.99,28.333 17.781,28.69 17.718,28.698 	"/>
	<polygon fill="#232734" points="18.712,23.098 18.943,23.395 19.604,23.157 19.634,23.024 19.561,22.942 18.712,23.098 	"/>
	<polygon fill="#232734" points="23.656,15.961 23.576,16.084 23.619,16.659 24.203,16.579 23.598,15.97 23.656,15.961 	"/>
	<polygon fill="#232734" points="28.732,31.171 28.396,30.709 28.157,30.723 28.128,30.86 28.32,31.213 28.732,31.171 	"/>
	<polygon fill="#232734" points="18.189,20.336 18.076,20.865 18.221,20.865 18.28,20.758 18.189,20.336 	"/>
	<polygon fill="#232734" points="20.657,29.383 21.018,28.659 20.57,29.009 20.675,29.38 20.657,29.383 	"/>
	<polygon fill="#232734" points="31.87,19.429 32.152,19.46 32.33,19.293 32.247,19.179 31.977,19.167 31.87,19.429 	"/>
	<polygon fill="#232734" points="34.693,19.738 35.123,19.738 35.245,19.663 35.165,19.426 34.693,19.738 	"/>
	<polygon fill="#232734" points="31.836,23.723 32.216,23.931 32.5,23.611 31.934,23.664 31.843,23.778 31.836,23.723 	"/>
	<polygon fill="#232734" points="32.759,30.535 33.334,30.973 33.528,30.911 33.4,30.682 33.014,30.508 32.767,30.597 
		32.759,30.535 	"/>
	<polygon fill="#232734" points="20.154,12.885 20.17,12.761 19.979,12.775 19.938,13.029 20.154,12.885 	"/>
	<polygon fill="#232734" points="16.493,25.81 16.955,25.724 16.903,25.498 16.767,25.51 16.499,25.84 16.493,25.81 	"/>
	<polygon fill="#232734" points="16.419,26.766 16.355,26.531 16.129,26.538 16.166,26.675 16.275,26.776 16.419,26.766 	"/>
	<polygon fill="#232734" points="17.1,27.309 17.145,27.444 17.252,27.544 17.392,27.539 17.437,27.313 17.173,27.231 17.1,27.309 	
		"/>
	<polygon fill="#232734" points="25.885,16.249 25.61,16.631 25.885,16.249 	"/>
	<polygon fill="#232734" points="24.316,20.913 24.528,20.778 24.463,20.575 24.247,20.702 24.316,20.913 	"/>
	<polygon fill="#232734" points="20.811,30.493 20.733,30.253 20.521,30.292 20.664,30.518 20.811,30.493 	"/>
	<polygon fill="#232734" points="31.871,20.502 31.764,20.269 31.532,20.265 31.621,20.477 31.871,20.502 	"/>
	<polygon fill="#232734" points="30.027,23.272 29.802,23.425 29.855,23.634 30.076,23.49 30.087,23.354 30.027,23.272 	"/>
	<polygon fill="#232734" points="33.576,22.23 33.578,22.111 33.362,21.983 33.287,22.05 33.438,22.249 33.576,22.23 	"/>
	<polygon fill="#232734" points="28.276,32.912 27.988,32.488 28.329,32.903 28.276,32.912 	"/>
	<polygon fill="#232734" points="36.153,23.568 36.36,23.748 36.821,23.69 36.827,23.749 36.623,23.588 36.161,23.624 
		36.153,23.568 	"/>
	<polygon fill="#232734" points="35.17,25.934 34.968,25.78 34.505,25.806 34.496,25.742 34.705,25.89 35.166,25.879 35.17,25.934 	
		"/>
	<polygon fill="#232734" points="30.032,34.625 29.89,34.169 29.756,34.167 29.744,34.369 30.076,34.618 30.032,34.625 	"/>
	<polygon fill="#232734" points="15.609,17.343 15.629,17.242 15.476,17.248 15.484,17.374 15.609,17.343 	"/>
	<polygon fill="#232734" points="18.442,14.714 18.503,14.484 18.422,14.444 18.486,14.708 18.442,14.714 	"/>
	<polygon fill="#232734" points="22.555,16.323 22.611,16.095 22.511,16.102 22.617,16.315 22.555,16.323 	"/>
	<polygon fill="#232734" points="23.535,15.54 23.472,15.115 23.529,15.107 23.588,15.534 23.535,15.54 	"/>
	<polygon fill="#232734" points="22.617,16.315 22.666,16.743 22.61,16.75 22.555,16.323 22.617,16.315 	"/>
	<polygon fill="#232734" points="25.802,12.629 25.749,12.887 25.86,12.856 25.747,12.637 25.802,12.629 	"/>
	<polygon fill="#232734" points="23.598,15.97 23.535,15.54 23.588,15.534 23.656,15.961 23.598,15.97 	"/>
	<polygon fill="#232734" points="22.68,17.178 22.61,16.75 22.666,16.743 22.728,17.171 22.68,17.178 	"/>
	<polygon fill="#232734" points="26.81,13.505 26.704,13.559 26.8,13.621 26.81,13.505 	"/>
	<polygon fill="#232734" points="24.067,17.853 24.151,17.61 23.989,17.628 24.124,17.846 24.067,17.853 	"/>
	<polygon fill="#232734" points="17.32,26.666 17.309,26.518 17.17,26.548 17.184,26.694 17.32,26.666 	"/>
	<polygon fill="#232734" points="24.124,17.846 24.069,18.1 24.179,18.079 24.067,17.853 24.124,17.846 	"/>
	<polygon fill="#232734" points="19.422,30.257 19.552,30.231 19.394,30.121 19.422,30.257 	"/>
	<polygon fill="#232734" points="20.675,29.38 20.608,29.636 20.792,29.615 20.657,29.383 20.675,29.38 	"/>
	<polygon fill="#232734" points="31.843,23.778 31.598,23.718 31.605,23.824 31.836,23.723 31.843,23.778 	"/>
	<polygon fill="#232734" points="30.663,24.914 30.663,25.08 30.794,25.063 30.766,24.933 30.663,24.914 	"/>
	<polygon fill="#232734" points="29.071,27.51 29.068,27.672 29.188,27.648 29.168,27.526 29.071,27.51 	"/>
	<polygon fill="#232734" points="33.557,25.648 33.622,25.746 33.673,25.659 33.557,25.648 	"/>
	<polygon fill="#232734" points="36.161,23.624 35.891,23.635 35.962,23.696 36.153,23.568 36.161,23.624 	"/>
	<polygon fill="#232734" points="34.505,25.806 34.227,25.731 34.252,25.853 34.496,25.742 34.505,25.806 	"/>
	<polygon fill="#232734" points="29.971,32.682 30.032,32.45 29.927,32.452 30.035,32.676 29.971,32.682 	"/>
	<polygon fill="#232734" points="32.767,30.597 32.528,30.547 32.55,30.649 32.759,30.535 32.767,30.597 	"/>
</g>
</svg>
