<?xml version="1.0" encoding="utf-8"?>
<!-- Generator: Adobe Illustrator 15.0.2, SVG Export Plug-In . SVG Version: 6.00 Build 0)  -->
<!DOCTYPE svg PUBLIC "-//W3C//DTD SVG 1.1//EN" "http://www.w3.org/Graphics/SVG/1.1/DTD/svg11.dtd">
<svg version="1.1" id="Layer_1" xmlns="http://www.w3.org/2000/svg" xmlns:xlink="http://www.w3.org/1999/xlink" x="0px" y="0px"
	 width="49px" height="49px" viewBox="0 0 49 49" enable-background="new 0 0 49 49" xml:space="preserve">
<g>
	<polygon fill="#232734" points="21.608,35.322 19.03,33.475 18.594,33.367 17.592,32.368 16.849,32.194 16.81,32.444 
		19.053,34.161 19.521,34.219 19.636,34.519 20.303,34.771 21.034,35.306 22.482,36.086 23.143,36.409 23.16,36.21 22.202,35.471 
		21.608,35.322 	"/>
	<polygon fill="#232734" points="20.324,37.225 19.252,36.189 19.201,35.896 19.438,35.526 20.048,35.168 20.016,35.04 
		18.848,34.375 18.044,33.987 17.882,34.238 19.128,35.018 19.198,35.25 18.923,35.397 18.793,36.115 18.842,36.254 20.031,37.193 
		20.324,37.225 	"/>
	<polygon fill="#232734" points="18.997,27.668 18.638,27.448 18.34,27.757 18.991,27.601 18.997,27.668 	"/>
	<polygon fill="#232734" points="29.718,30.085 29.952,29.742 29.945,29.604 29.734,29.628 29.753,30.082 29.718,30.085 	"/>
	<polygon fill="#232734" points="28.548,29.594 28.725,29.352 28.727,29.124 28.604,29.185 28.535,29.311 28.604,29.59 
		28.548,29.594 	"/>
	<path fill="#232734" d="M14.982,28.266l-0.067-0.577l-0.908-2.877l-0.116-0.897l-0.001-1.513l0.246-1.49l0.054-0.599l0.379-1.441
		l0.228-0.555l1.021-2.166l0.292-0.52l0.425-0.794l0.966-1.269l0.877-0.711l0.688-0.583l0.726-0.604l1.776-0.714l1.3-0.366
		l0.434-0.121l1.96-0.092l1.354,0.09l1.509,0.025l1.498,0.127l2.462,0.641l0.963,0.415l1.04,0.623l0.535,0.182l1.113,0.848
		l1.132,1.209l0.194,0.229l1.341,1.818l1.248,2.403l0.573,3.262l-0.152,1.957l-0.255,1.177l-0.334,0.999l-0.568,1.389l-0.764,1.296
		l-0.586,0.85l-0.2,0.601l-0.487,0.568l-1.855,1.512l-0.922,0.517l-2.236,1.237l-0.407,0.201l-0.094,0.101l-0.115,0.266
		l-0.893,0.021l-0.209,0.546l-0.946-0.222l-0.27,0.077l0.321,0.789l-1.374-0.477l-0.145,0.412l-0.897-0.472l-0.673-0.104
		l-0.355,0.632l-1.325-0.786l-0.889-0.167l0.288,0.376l1.06,0.548l0.189,0.333l0.741,0.312l-0.001,0.224l-0.76-0.154l-1.863-1.289
		l-0.561-0.152l-1.857-1.314l-0.508-0.325l-1.551-0.929L17.28,31.75l-1.549-0.916l-0.011-0.25l0.699-0.165l-0.38-0.462l-2.533-1.935
		l-0.18-0.386L14.982,28.266L14.982,28.266z M15.689,25.477l0.069,0.426l-0.085,0.245l0.117,0.007l-0.095-0.243l-0.063-0.427
		l-0.065-0.429l0.193-0.226l0.097-0.28l0.267-1.623l0.46-1.582l0.876-1.207l0.435-0.399l0.042,0.073l-0.036,0.14l-1.407,3.424
		l-0.189,0.875l0.118,0.254l0.003,0.279l0.072-0.077l-0.129-0.195l0.68-1.154l0.39-1.164l1.318-1.817l1.416-1.772l1.525-0.645
		l0.187-0.234l-0.275-0.525l-0.447-1.886l0.473-0.435l0.748,1.133l0.551,0.217l0.435,0.171l1.907-0.193l0.246-0.524l1.489-0.179
		l-0.105-1.187l0.218-0.365l1.243-0.184l0.2,0.339l0.036,0.629l-0.546,1.897l-0.341,0.208l0.219,0.798l0.562-0.116l0.804-0.852
		l1.4-0.357l0.912,0.694l0.139,0.244l1.175,2.562l1.324,0.383l0.116,0.275l-0.369,0.188l-0.94-0.018l-0.799-0.607L30.986,18.8
		l-0.619,0.105l0.646,1.132l0.117,0.472l-0.181,0.928l-0.719,0.944l0.069,1.141l0.312,1.772l-0.193,0.189l-0.165-0.188l-0.06-0.449
		l-0.188-0.729l-0.568-0.87L29.04,21.24l-0.754-1.007l-0.602,0.578l-0.507,0.564l-0.524,0.141l-0.521-0.57l-0.203-0.216
		l-1.188-0.939l-0.225-0.396l0.613-0.875l0.244,0.045l-0.004-0.105l-0.233,0.125l-0.281,0.003l-0.901,0.517l-0.545,0.246
		l-2.261,1.166l-0.333,0.208l-0.771,1.02l-0.565,1.061l-0.13,0.27l-0.655,1.35l-0.297,0.521l-0.209,1.239l-0.418,0.548l0.485,2.175
		l0.44-0.212l0.441,0.039l0.011-0.884l-0.156-0.249l0.006,0.067l0.231-0.531l0.294-1.126l0.144-0.072l0.269,0.479l-0.151,0.207
		l0.028,0.458l0.069,0.431l-0.154,0.203l0.021,0.458l0.063,0.435l0.061,0.424l-0.083,0.243l0.109,0.005l-0.091-0.239l-0.059-0.426
		l-0.066-0.434l0.17-0.251l-0.032-0.41l-0.069-0.431l0.244-0.329l-0.12-0.34l0.286-0.376l-0.036-0.772l0.549-1.149l0.267,0.083
		l0.181,1.018l-0.288,0.146l-0.479,3.216l0.163,1.328l0.113,0.096l-0.058,0.235l0.146-0.029l-0.123-0.202l0.248-0.368l0.247-1.176
		l0.299-0.092l0.001,0.425l-0.167,2.406l-0.036,0.219l0.448,1.211l0.264,0.09l0.538-3.428l0.312-0.274l0.195,0.259l-0.563,3.08
		l0.104,1.052l0.327,0.479l0.584-0.085l0.811-1.93l0.137-0.046l0.083,0.081l-0.018,0.586l-0.312,1.149l0.059,0.073l1.396-1.936
		l0.309-0.512l0.26-0.053l0.149,0.223l-0.163,0.412l-0.801,1.628l0.4,0.166l-0.481,0.492l0.179,0.205l1.041-0.108l0.693-0.334
		l1.927-2.505l0.104-0.536l0.586-0.789l-0.035,0.003l0.107,0.255l-0.417,1.123l-0.42,0.961l-0.911,1.316l-0.663,0.448l0.112,0.189
		l0.465-0.079l0.792-0.881l0.469-0.242l0.818-1.013l0.934-1.188l0.143-0.041l0.038,0.226l-0.779,1.117l-0.822,1.086l-0.036,0.241
		l1.148-0.696l0.483-0.355l0.508-0.905l0.235-0.371l0.664-1.013l0.907-2.541l0.344-0.175l0.013,0.578l-0.86,2.234l-0.077,0.129
		l-1.694,2.659l-0.351,0.49l-0.232-0.064l-0.055,0.1l0.283-0.07l0.424,0.06l1.001-0.454l0.741-0.913l0.677-0.968l0.668-1.698
		l0.134-0.036l-0.1,1.336l-0.385,0.63l0.083,0.592l0.937-1.077l0.538-0.936l0.078,0.502l1.812-2.224l0.201-1.633l0.015-0.755
		l-0.163-1.045l-1.186-3.063l0.487,0.197l0.505,0.92l0.847,3.056l0.181,0.216l-0.06,0.264l0.119-0.015l-0.1-0.244l0.187-0.227
		l0.274-2.212l-0.854-2.5l-0.044-0.241l0.287,0.065l0.542,0.688l0.41,0.414l-0.04,0.257l0.109-0.026l-0.118-0.225l0.125-0.258
		l-0.215-2.407l-0.552-1.053l-0.385-0.841l-0.638-0.553l-0.328-0.109l-1.807-0.103L35.066,16.8l1.111-0.263l1.053-0.003
		l-0.047-0.224l-1.36-1.419l-0.83,0.056l0.476-0.611l-1.912-1.492l-1.387-0.683l-0.383,0.145l-1.143,0.975l-0.204-0.02l0.002-0.15
		l0.453-0.685l-0.029-0.224l-0.708-0.443l-0.903,0.01l-0.406-0.25l-0.711-0.154l-3.562,0.567l-0.423-0.65l0.255,0.053l-0.005-0.121
		l-0.244,0.119l-0.271-0.092l-1.189,0.208l-1.998,0.683l-0.76,0.473l-1.908,1.684l-1.263,1.8l0.196,0.084l0.428-0.428l0.87-0.593
		l0.784-0.439l0.432-0.029l-0.002,0.174l-0.21,0.197l-1.481,1.005l-0.543,0.323l-0.807,1.065l-0.604,1.201l-0.836,2.397l-0.263,0.7
		l0.012,0.587l0.339,0.229l0.212-0.177l0.526-2.014l1.525-2.006l-0.854,1.522l-0.425,1.207l-0.295,1.164l-0.256,1.325l-0.025,1.207
		l0.129,0.258L15.689,25.477L15.689,25.477z M16.942,28.348l0.066,0.425l0.284,0.408l-0.349-0.402l-0.062-0.425l0.056-0.234
		l-0.105-0.004L16.942,28.348L16.942,28.348z M14.785,24.074l0.242-0.492l-0.178,0.483l-0.048,0.252l0.104-0.03L14.785,24.074
		L14.785,24.074z M16.54,27.311l0.216-0.371l-0.084-1.039l-0.378-0.288l0.07-0.258l-0.11,0.008l0.104,0.244l0.104,1.603l0.111,0.096
		l-0.041,0.243l0.1,0.038L16.54,27.311L16.54,27.311z M26.691,18.564l-0.508,0.268l0.483,1.242l0.552,0.42l0.281-0.12l0.386-0.972
		l-0.065-0.291l-1.193-0.537l-0.296-0.439L26.691,18.564L26.691,18.564z M17.155,25.491l0.287-0.51l0.323-0.683l0.573-0.306
		l0.367-0.56l0.201-1.644l0.782-1.027l0.807-0.21l0.272-0.643l0.606-0.458l0.576-0.757l-0.23-0.216l-0.517,0.047l-0.949,0.482
		l-0.058,0.053l-1.538,2.017l-0.447,0.996l-0.501,0.7l-0.303,0.896l-0.397,1.433l0.191,0.382l-0.059,0.241l0.082,0.039
		L17.155,25.491L17.155,25.491z M31.409,18.236l-0.047-0.549l-0.9-0.811l-0.459-0.01l-0.494,0.291l-0.374,0.217l-0.595,1.024
		l1.284,0.226l0.848-0.288L31.409,18.236L31.409,18.236z M25.008,16.718l-1.615,0.226l-0.095,0.08l0.562,1.33l1.85-0.656
		L25.008,16.718L25.008,16.718z M29.79,21.7l0.698-0.682l-0.499-1.705l-0.555,0.053l-0.322,0.496l0.031,0.345l0.532,1.392
		L29.79,21.7L29.79,21.7z M26.081,16.35l0.296,0.809l0.466-0.317l0.009-0.424L26.081,16.35L26.081,16.35z M27.82,14.226
		l-0.289,0.242l0.213,0.974l0.201-0.198L27.82,14.226L27.82,14.226z M25.189,19.533l0.879,0.709l-0.328-0.779l-0.225-0.163
		L25.189,19.533L25.189,19.533z M19.212,30.287l0.14-0.312l-0.29-0.7l-0.356,0.2L19.212,30.287L19.212,30.287z M22.997,18.604
		l-0.423,0.337l0.051,0.207l0.141-0.041L22.997,18.604L22.997,18.604z M20.106,30.901l-0.083,0.047l0.084,0.046L20.106,30.901
		L20.106,30.901z"/>
	<polygon fill="#232734" points="28.604,29.59 28.258,30.081 27.7,31.31 27.546,31.897 27.008,32.604 27.065,32.861 27.21,32.823 
		28.081,31.752 28.6,30.53 28.727,29.801 28.548,29.594 28.604,29.59 	"/>
	<polygon fill="#232734" points="33.463,23.756 33.772,23.577 33.191,22.071 32.954,22.065 32.95,22.215 32.974,22.363 
		33.463,23.756 	"/>
	<polygon fill="#232734" points="19.604,18.08 20.171,17.938 20.875,17.406 20.839,17.268 20.716,17.193 19.69,17.724 19.604,18.08 
			"/>
	<polygon fill="#232734" points="36.023,27.042 35.812,27.236 35.951,28.551 36.049,28.614 36.176,28.556 36.256,28.434 
		36.023,27.042 	"/>
	<polygon fill="#232734" points="24.396,22.821 25.147,21.933 24.943,21.608 24.808,21.638 24.717,21.749 24.396,22.821 	"/>
	<polygon fill="#232734" points="22.577,23.196 21.862,23.079 21.927,23.61 22.577,23.196 	"/>
	<polygon fill="#232734" points="23.574,25.862 22.949,26.549 23.162,26.859 23.264,26.804 23.578,26.007 23.574,25.862 	"/>
	<polygon fill="#232734" points="25.729,29.248 26.092,29.218 26.145,28.804 26.021,28.611 25.783,28.749 25.649,28.999 
		25.729,29.248 	"/>
	<polygon fill="#232734" points="23.86,30.468 24.17,30.264 24.113,29.69 23.789,29.895 23.86,30.468 	"/>
	<polygon fill="#232734" points="27.289,25.85 27.613,25.719 27.449,25.395 27.22,25.5 27.289,25.85 	"/>
	<polygon fill="#232734" points="31.785,29.122 31.851,29.604 32.091,29.315 31.785,29.122 	"/>
	<polygon fill="#232734" points="32.287,14.927 31.761,15.035 32.09,15.247 32.287,14.927 	"/>
	<polygon fill="#232734" points="18.742,26.117 18.846,26.143 19.032,25.955 18.921,25.728 18.691,25.72 18.66,25.853 
		18.742,26.117 	"/>
	<polygon fill="#232734" points="21.579,21.385 21.561,21.669 21.699,21.877 21.911,21.701 21.843,21.456 21.724,21.383 
		21.579,21.385 	"/>
	<polygon fill="#232734" points="23.3,32.223 23.07,32.366 23.135,32.568 23.345,32.438 23.3,32.223 	"/>
	<polygon fill="#232734" points="24.939,28.52 25.009,28.573 25.189,28.396 25.043,28.294 24.939,28.52 	"/>
	<polygon fill="#232734" points="32.859,17.364 32.479,17.089 32.859,17.364 	"/>
	<polygon fill="#232734" points="25.082,26.436 25.293,26.298 25.263,26.094 25.051,26.216 25.082,26.436 	"/>
	<polygon fill="#232734" points="33.178,13.414 33.481,13.787 33.662,13.705 33.637,13.578 33.178,13.414 	"/>
	<polygon fill="#232734" points="30.026,14.808 29.988,14.903 30.195,15.074 30.312,15.043 30.167,14.806 30.026,14.808 	"/>
	<polygon fill="#232734" points="20.066,24.061 19.959,23.838 19.71,23.81 19.812,24.031 20.066,24.061 	"/>
	<polygon fill="#232734" points="32.507,26.65 32.723,26.583 32.716,26.358 32.574,26.376 32.509,26.506 32.507,26.65 	"/>
	<polygon fill="#232734" points="27.908,24.73 27.981,24.678 27.911,24.642 27.908,24.73 	"/>
	<polygon fill="#232734" points="22.89,13.719 23.041,13.707 23.006,13.568 22.89,13.719 	"/>
	<polygon fill="#232734" points="27.087,28.353 27.189,28.294 27.177,28.146 27.032,28.175 27.087,28.353 	"/>
</g>
</svg>
