<svg id="_ÎÓÈ_1" data-name="—ÎÓÈ_1" xmlns="http://www.w3.org/2000/svg" viewBox="0 0 136.1 110.95"><defs><style>.cls-1{fill:#232734;}</style></defs><title>wine-glass</title><path class="cls-1" d="M94,177.18l-1.39-.56-2.49-1.26-0.4-.23-1.87-1-1-.63-1.39-.85-0.7-.41-0.67-.18-1.86.12-0.36,0-0.55-.12-2.6.62-1.08.43-1,.35-0.36.08-1.42.9-0.45.1-0.75.48-0.53.24-0.42.2-1.54,1.07-0.33.33-1,.6-3,2.1-0.57.11-5.67,3.85-0.37.08-0.46.49-1,.65-0.23.06-0.21.26-0.1.07-1,.53-1.53,1.06-0.21.3-0.23.07-0.7.42L52,189.34l-0.27.39-2.52,1.78-1.06.74-1.65,1.13-0.29.2-2.6,1.82L43,196l-2.65,1.92-2.12,1.48-0.26.5,0.07,0.21,2.08,3.13,0.16,0.31L40.58,204l0.23,0.53,0.48,0.81,0.39,1.1,0.5,1.3,0.26,0.77,0.33,0.62,0,0.11,0.48,1.44,0.46,1.44,0.09,0.45L44,213.5l0.06,0.81L44.27,215l0,1.29-0.07.46-0.16.44-0.12.45-0.14.44-0.35.33-0.3.21-0.69.1-1.25-.3-1-.24-1-.38-1.25-.63-2.21-1.3-0.88-.56-0.71-.6-0.71-.6-0.91-1-0.5-.32-0.67-.89-0.57-.43-0.47-.5-0.39-.41L29.42,210l-0.37-.53-0.67-.85-0.57-.61-2-2.73-0.68-.89-0.37-.72-1.47-2.13-1.24-1.85-0.12-.2L21.16,198l-0.09-.45-0.51-.74L19.84,195l-0.06-.1-0.67-1.48-0.33-1-0.33-1.12-0.24-1-0.28-1.37-0.25-1.26,0-.34-0.12-1.23,0.07-.64v-0.74l0.42-1,0.9-.59,1,0,1,0.17,0.77,0.27,0.53,0.24,1.37,0.66,2.13,1.6,0.77,0.7,0.79,0.69L28,188.11l0.79,0.68,1,1,1.31,1.13,0.58,0.57L32,191.93l1.32,1.8,0.48,0.51,0.31,0.34,0.39,0.57h0.29l0.75-.52,1.23-.65,0.3-.17,2.49-1.72,0.23-.29,0.34-.12,0.32-.32,0.33-.12,0.6-.6,0.42-.11,0.1,0,2-1.38,1.92-1.34,0.86-.62,0.4-.42,0.42-.17,0.65-.54,0.27-.07,2.27-1.57,0.19-.26,0.17-.23,3.53-2.45,3.85-2.7,0.65-.5,0.65-.45,0.37-.25,0.21-.31,0.18-.15,3.92-2.79,0.36-.29,1.24-1.06,1-.77,1.59-1.38,0.5-.49,0.62-.53,1.5-1.29,0.27-.22,0.65-.67,1.25-1.22L74,166l0.56-.74,1.08-1.93,0.27-.38,0.64-2.41-0.27-1.45,0-.23L76,157.58l-0.26-1.25-0.2-.79,0-.34-0.08-.57-0.16-.91-0.13-1.4-0.06-1.51V148l0.09-1.52,0-1.4,0.12-1L76,140.21l0.35-1.67,0.51-1.24L77.61,135l0.49-1.31,0.42-.83,0.61-1.12L80.31,130l1.14-1.62,0.55-.59,0.53-.77,0.88-.94,0.31-.35,0.4-.42,0.77-.66,0.57-.8,1-.75,0.28-.21,0.64-.67,0.77-.54,0.75-.56,0.17-.15,0.22-.32,1.63-1.13,0.31-.09L92,119l0.42-.29,0.58-.4,0.69-.45,0.63-.29,0.6-.32,0.49-.32,0.59-.39,0.2-.12,0.47-.12,1.36-.87,0.47-.11,1.17-.52,1.29-.54,1.22-.4,1.87-.66,3.8-1.12,1.48-.31,1.24-.31,1.12-.32,1.26-.22,0.44-.13,0.68-.16,0.68-.15,1.27-.22,1.25-.26,1.95-.38,2-.27,1.16-.18,1.63-.16,1.16-.13,0.58,0,0.34,0,0.91-.19,0.93-.08,0.34-.06,1-.15,1.15-.12,3.12-.45,0.55,0.18,1.43,1,0.74,0.57,0.76,0.72,0.72,0.92,0.72,0.76,0.24,0.26,0.59,0.56,0.48,0.51,0.49,0.48,0.57,0.71,0.56,0.75,0.75,0.73,0.62,0.85,0.63,0.85,0.6,0.87,0.61,0.79,0.36,0.3,2.25,3.3,0.38,0.55L148,124l0.12,0.45,0.88,1.7,1.41,2.13,0.11,0.48,0.67,1,0.46,0.94,0.09,0.21,0.49,0.8,0.36,0.86,0.46,1.06,0.23,0.78,0.34,0.58-0.4,1.35L152,138.1l-0.82,1.27-0.76,1.31-0.7,1.21-0.79,1.16-0.07.09-1.28,2.09-0.68,1.09-0.66,1-0.94,1.47-0.59,1-0.54,1-0.78,1.44-0.46.8-0.51.78-1.47,2-0.74,1.19-0.64,1-0.82,1.27-0.66,1-1.54,2.19-1.46,2-0.78.86-0.78.86-0.83,1-0.7.78-0.69.63-0.36.3-1,1-0.4.42-1.22,1.08-0.28.21-1.38,1.06-0.4.45-3.77,2.6-0.34.11-1.1.79-1,.53-0.45.12-1.28.55-0.33.1-1.22.41-0.33.1-1.45.42-2,.51-1.25.27-2.44.22-0.47,0-1.63,0-0.7,0-3.5-.28-1.74-.23-0.23-.05-0.91-.23-2.95-.76-1.24-.35-0.66-.23L94,177.18h0ZM41.5,216.26l0.33,0.05,0.78,0.32,0.36,0,0.17-.12,0.36,0v-0.27l0.09-.07,0.1-.44-0.23-2-0.13-.18v-0.36l-0.09,0,0,0.14,0.17,0.27-0.39.69-0.39.67-1.1.38-0.13-.26,0.38-.08,0.67-.46,0.31-.93-0.4.33-0.89.23-0.57.52-0.56,0-1.61-.29-0.22,0,0-.32,0.14-.21-1-.37-1-.27v-0.1l0.18-.13,0.81,0.12,0.22-.06,0.33,0.06,0.23,0.26,0.9,0.34,0.32,0,1.25,0.21,1-.24,0.26-.17,0.19-1.15,0.32-.37-0.24-.83-0.52-1,0-.1,0.42-.18-0.29-1-0.25-.17,0,0.34-0.25-.15-0.3-1,0-.25-0.53-.89-0.21-.87,0.47,0.18-0.6-1-0.11-.47-1-1.56-0.42-.2-1.2-1.67-0.62-.29-0.37.47,1.23,1.88-0.17.42,0.5,0.92-0.35.06,0,0.34,0.13,0.92-0.07.34L37.56,206l-0.18-1.41L37,203.89l-0.1-.7,0.49-.18-0.09-.22-0.5-.73-0.26-.13L36.1,202l-0.34.74-0.22.54-0.28.64-0.42.16,0.22,0.42-0.06.22-0.63.44-2.19-.36-0.2-.12-0.08,0,0.31,0.53,0.63,0.33,1.85,0.16,0.63-.22,0.92-1h0.21l0.07,0.2-1.35,1.3-0.62.2,0,0.1,0,0.06,0.65,0.11-0.33.29-0.93-.11-1.67-.83-0.21-.11-0.5-.14-0.39-.5-0.7-.39-0.65-.49-1.32-1.31-0.74-1.06-0.4-.94-0.4-.33-0.23-.86-0.14-.85-0.32-.71-0.34-.61L25.55,197l-0.08-.48-0.08-.42,0.82,1.08,0.1,0.45,0.58,0.9,0.5,1.05,0.12,0.2,0.58,0.88,0.18,0.14,0.35,0.05L28.84,201l0.29,1-0.13.28-0.2-.12-0.17,0v0.12l0.65,0.89,0.81,0.64L30,203.16l0.17-.15,0.55-.09,0.18-.27-0.42-.85-0.31-1L29.44,200l-0.19-.58L29,199.31l0,0.55,0.09,0.22-0.15.28-0.18-.12-0.18-.55-0.29-1,0.14-1.31-0.46-.66,0.34-1,1.27-.84,0.26,0.24-0.35.09-0.92.7v0.37l0.83-.37L29.86,196l0.64,0.36,0.11,0.3-0.29.25-0.17-.25-0.56-.11-0.11.24,0.85,0.07,0.09,0.07,0.68-.08,0.76-.28,0.89-.25,0.3-.17,0.06-.25-1.29-1.79-0.7-.8,0.51,0.12L32,193.91l0.68,0.61,0.9,1.24,0.11,0,0.16-.36L33.66,195l-1.1-1.51-0.35-.23-0.69-.86-0.26-.18-0.46,0-0.32-.06h0L30,191.49l-0.68-.63-0.15-.18-0.69-.61-0.77-.52H27.2l-0.55-.1L26,188.76l-0.61,0L25,188.41l-2.24-1.25-0.56-.08-1.08.69H21l-0.07,0,0.75-.76-0.17-.54,0.71,0,0.21-.56-0.92-.31-0.9.39,0,0.67-0.26,1.12v0.46l-0.12.18h0L20,188.13l-0.1-.81-0.23-.19-0.12.8,0.19,1.36-0.09.81L20,190.64l0.17,0.55,0.37,0.6,0.21,0.5,0.48,0h0l0.55,0.89v0.11l-0.41.17,0,0.09,0.27,0.86,1,1.57-0.13.5,0.23,0.4L24.13,199l0.09,0.2,0,0.38L25.87,202v0.12l-0.23,0L24.15,200l-0.38-.23-0.59-1-0.3-.63-1-1.74-0.24-.4-0.59-.88-0.1-.21,0-.36-0.4-.64-0.09-.49-0.22-.32-0.51-1.17L19.46,191l-0.31-1-0.28-.87-0.22.2,0.18,1.27,0.24,1,0.21,0.66L19.47,193l0.11,0.33,0.52,1.51,1.17,1.81,0.29,0.87,0.5,1,0.47,0.67,0.93,1.36,0.39,0.93,1.2,1.79,0.38,0.59,0.19,0.53L26,204.67l1.81,2.52,0.55,0.47,0.39,0.56,1.13,1.5,1,1L31,210.88l0.84,0.8,0.82,0.83,0.3,0.18,0.15,0.18,0.75,0.89,0.78,0.7,1,0.64,1.12,0.62,1.18,0.75,2,1.11,1.41,0.29h1.51l0.49-.47-0.15-.16-2.07-.33L38.85,216l-1.22-.66-1.47-1-0.91-.72-0.33-.33-0.73-.75-0.83-.7-0.77-1-0.9-.91-0.36-.29-0.45-.8-0.28-.21-0.87-1.26L28.84,206l-0.07-.1-0.53-.46-0.05-.67h0.22l0.26,0.12L29.55,206l1.19,1.43,0.53,0.63L32,208.72l0.56,0.59,0,0.46L33,209.92l1.16,0.83,0.21-.26,0.3-.35h0l0.08,0.2-0.06.49L34.92,211l0.4,0.24,1,0.91-0.11,0-0.7-.39-0.79-.48L35,211.91v0H34.81L34,211.21,33.86,211l-0.43-.38L33,210.3H32.9v0.11l0.17,0.3,0.67,0.8,0.83,0.8L35.24,213,36,213.48l0.71,0.14,0.75,0.31,0.3,0.16,0.62,0.29,0.11,0,0.21,0.27,1,0.51,1,0.43,1,0.14,0.94-.44-0.15.79,0.67,0.12,0.31,0.13-0.4.29-0.52.07-0.78-.31-0.33-.06-0.22-.08,0,0.08,0.19,0h0Zm67.5-99-0.16-.1-0.06.06H109l0.16,0.09v-0.08l-0.18,0h0ZM78.72,144.48l-0.1.17,0.09,0,0-.2,0.1-.16H78.67l0.05,0.18h0ZM105,175.42l0.33,0.06,0.22,0.24,0.29-.15-0.53,0-0.33-.06-0.19-.09v0.09l0.2,0h0Zm-3.23-5.48,0.33,0.06,0.17,0.12,0-.08h-0.2l-0.33-.06-0.17-.1,0,0.08,0.2,0h0Zm1.11,0.37,0.33,0.06,0.17,0.12,0-.08h-0.2l-0.33-.06-0.2-.08,0,0.06,0.18,0h0Zm26.33-59.37-0.33-.06,0.18-.42,0.89,0.12,0.25-.35,0.51,0,0.37-.25,0.39-.13,0.11,0.43,1.18-.08,0.38-.27,0.07-.18-0.3-.79-0.13-.09-1,.14-0.74.4-1.43.24-1.39.06-0.79.31-0.75-.07-0.45.16-0.81.05h-0.32l-0.47.29-1.07.18-0.17.27-0.84.06-0.81.08-1.12.23-1.28,0-0.73.41-0.45-.13-0.64.27-0.93.14-0.53.28h-0.68l-1,.41-0.2.28-0.7,0h-0.84l-1,.46-0.89.22h-0.46l-0.22.07-0.59.54-0.52-.11-0.93.52-0.45-.14-0.84.58-0.5.07-1,.66-0.52.06-0.47.39-0.48.5-0.53,0-0.56.22-0.15-.44-1,1-0.27-.09,0.47-.79-0.59.51-1,.75-0.5.06-0.48.33-0.52.22,0-.29,0.27-.26-0.63.11-0.28.37-0.52.47-0.44.53-0.36.25H96.22l-1,.75-0.31-.1,0.44-.3,0.19-.36,0.67-.62-0.16,0-0.83.62-0.31.6,0,0.11-0.87.6-0.69.44H93.11l0.56-.47,0.56-.59,0.47-.52-0.8.13-0.63.78-0.6.86L92,122.4l-0.76.31-0.48.83-0.49,0,0.44-.68,0.42-.56,0.42-.7,0.59-.86,0.44-.38H92.8l-0.17.31,0,0.22-0.44.31v0.29l-0.46.46,0.45-.26,0-.2,0.43-.31v-0.28l0.44-.37,1-.94,0.82-.48,0.91-.45,0.23-.06,0.32-.05,0.62-.55,0.45-.34,0.6,0.08,0.46-.32,0.39-.25h0.22l0.31,0.15,1.14-.79,0.86-.35,0.06-.1,0.35-.4,1-.25,0.88-.28,0.69-.59,1-.28,0.31-.18,0-.46,0.78-.22,0.89-.28,0.51-.28,0.06-.17-0.58.06-2.23.67-1,.3-0.66.22-1,.37-1,.33-0.44.14-1.07.45-0.65.25-0.73.36-0.11,0-1,.5-0.38.24-0.47.12-2,1.28-0.31.16-1,.53L91,120.19l-0.4.1-1,.7-0.57.61-1.51,1.28-0.27.22-1,.77-0.64.66-0.69.78-0.71.76-0.77.87-1.46,1.65-0.42.71-0.55.6L80.23,131l-0.7,1.12L79.61,133l0.2,0.24-0.12,1,0.47,0.89-0.19.63-0.17-.14L79.74,135l-0.42-.23-0.25.34h0l-0.13-.43,0.15-1L79,133.38l0.05-.21-0.06,0,0,0.17-0.41.25-1,3.1-0.24.66-0.46,1.32-0.45,1.69-0.65,3.7-0.09,1.16v1.17l-0.1,1.75-0.05,1.86,0,1.63,0.34,3.14L76.27,156l0.21-.08,0-1.19,0.08-.66,0.06-.69,0.13-.54-0.13-.82,0-.92,0-1,0.15-1.16,0.12-.45,0.3-1,0.13-.32,0.2-.54,0.13-.49,0.35-.37-0.22-.32,0.35-1L78,143.44l-0.41-.29,0.08-.3-0.13-2.32-0.08-.81,0.11-.19h0l0.3,0.71,0.2,0.39-0.09.18,0.09,0,0-.21,0.08-.07,0.12-.78v-2.17l0.15-1.13,0.07-.06,0.11,0,0.2,0.27-0.08.07,0.1,0.78-0.06.33v0.84l-0.11.18,0.09,0,0-.21,0-.84,0.07-.33,0-.85,0.22-.39,0.31-.08,0,1.13,0.2-.09,0.12-.79,0.21-.12,0.27,0.75-0.15.95-0.25,1.32L80,139.56l0.42-.71-0.17-.56,0-.12L81,137l1-1.39,0.46-.09,1-.74,1.18-1.58,0.42,0.17L86,132.28l0.82-1.19,0.89-.62,0.85-.58,0.52-.45-0.43.14-0.27-.16,0-.21,0.27-.23,1.72-1.19,0.18-.63,0.51-.41,0.3,0,0.44-.42,0.43-.59L94,124.6l0.46-.52,0.87-.54,0.24-.44,0.29-.2,1.07-.45,0.57-.15,0.43-.56,0.51-.66L98.9,121l0.43-.18,0.65-.25,0.49-.59,1-.71,1.29-.39,0.21-.39,0.77-.35,1-.27,0.63-.44,2.37-.79,0.57-.11,0.89-.54,0.09,0.28,0.25,0.06,0.36-.07,0.34-.46,0.54-.45,0.1-.05H111v0.18l-0.3.35,0.16,0.25L111,116l0.52-.36,0.27-.1,0.31-.43,0.41-.19-0.06.55,0.58,0,0.75-.7,0.43,0.13,0.6,0,1.06-.74,0.31,0.09-0.28.31,0.24-.32,0.29-.15h0.39l0.86-.6,0.3,0.08-0.36.26v0.37l0.22,0.06,0.22,0,0.16-.13V114l-0.25-.37,1-.15,0.34-.19,0.38,0.23,0.59-.1,0.33-.38h0.62l0.92-.56,0.58,0.07,0.51-.46,0.46-.09,0.21,0.07,1.16-.72,0.23,0.07-0.68.61,0.11,0.22,0.42,0,0.33-.59-0.21-.27H126l0.61-.28,0.13,0.31,0.26-.21,0.35-.35,0.74,0.08,0.78-.09,0.33,0.05L129.4,111l0-.08h-0.2Zm-28,54.88-0.19-.09v0.21h-0.68l-0.8,0-0.3.12,0.12,0.29,1.78,0.84,1,0.17h0.58l0.19,0.11-0.17.13-0.06.35,0.12,0.18-0.22,0-0.54-.2-0.78-.15,0.05,0.2,0.71,0.38,0.32,0.32-0.44,0-1.7-.75L99.3,168l-0.11.18,0.06,0.09,1.25,0.61,0.95,0.41,1.1,0.37,1,0.19,0.91,0.51,1.77,0.59,0.56,0.14,0.9,0.23,1.58,0.38h0.23l0.66-.2,0.17-.18-0.87-.25-0.88-.29-1-.24-0.89-.28-0.88-.28-0.15-.19,0.18-.12,0.12-.15-0.14-.12-0.4,0-0.13-.17-0.9-.27-0.09.06-0.22-.26-1-.41-0.35-.29,0.22,0,1.4,0.55,1.12,0.31,3.07,0.29,0.29-.18,0.17,0.09V169l-0.19,0-0.16-.15-0.45-.33,2.1,0.43,0.83-.21,0.49-.3,0.17,0.09,0-.08-0.19,0-0.16-.15-0.56-.15-0.22-.24,0.8,0,1.22,0.23,1.1-.43v-0.29l0.22-.06,0.5,0.08,0.54-.09,0.3-.16,0.08-.2-0.81-.17-0.19-.12,0.31-.15,0.47,0,1.69-.19,0.05-.1,0-.07-0.79-.16-0.19-.11,0.32-.16h1.61l1.61-.12,1-.16,0.25,0H121l0.19-.12-0.05-.31-1.87.15-1-.2-0.07-.09v0l0.28-.17,0.7,0,0.73-.57-0.2-.05-2,.05-0.43-.13,0.3-.15,0.79,0,0.91-.06,0.29-.17,0.07,0.09,1.25,0v-0.3l-1.22.11-0.09.07-0.18-.12-1.51.05-0.23,0-0.3.17,0,0.31-1.82.21-0.47-.48-1.64-.43-0.18-.21,0.22-.06,1.92,0.36,0.37,0.27,0.8-.06-0.22-.52-1.45-.3-0.8,0-0.44-.11,0.13-.54v0l0.1-.06,0.57,0.1,0.56-.12,0.3-.17,0.07-.19-0.46-.12-0.41-.19-0.55.08-1,.46-0.42.19-0.53.21,0.07,0.22,0.64,0.18,0.23,0.27-0.9-.14-0.34-.31L111,163l-0.3.18,0,0.3,0.32,0.11,0.55-.13,0.31,0.11,0,0.45h0l-0.1.05-0.57,0-0.84.26-0.11.29h0l-0.21.06-0.49-.08-1.21.23,0,0.1,1.09,0.3,1.15,0.16,1.59,0.13,1-.3,1-.28-0.73.74,0.37,0.24-0.3.15-1.23-.16-0.71.18,0,0.19,2.73,0.39,0.23,0.23-1,0-3-.5h-0.29l-0.43.3-0.17-.09,0,0.08,0.2,0,0.16,0.14,3.08,0.54,0.18,0.13-0.31.16-1.15-.2-3-.53-0.78-.09-0.32.16,0,0.33-0.21,0-1-.2-0.82.15-0.2.11-0.05.18,1,0.33,0.16,0.18-0.1,0-1.67-.39-1.46-.18-0.41-.14,0.42-.17,1.36-.19,0.55-.1,0-.1,0-.07-1.3-.43-0.55,0-0.1-.06,0.19-.11,0.1-.26-0.27-.12-0.14.23,0.18,0.27-0.22,0-0.55-.05-0.11.24-0.43-.07-0.24-.27,0.22-.16,0.19,0.12,0-.1-0.21,0-0.14-.18-0.31-.07-0.33-.06h0Zm5.14,6.13,0.33,0.06,0.18,0.09V172l-0.19.05-0.33-.07-0.33-.06-0.2-.25-4.15-1.26-0.5.29-0.33-.06-0.12-.18-0.67-.13-0.19-.24-0.28,0-0.33-.32-0.24-.4-1.54-.76-2.54-1.18-0.53-.24-0.21.05L93.95,167l-0.6-.27-0.1,0-0.19-.25H92.78l-0.95-.74-0.11,0-0.19-.24H91.26l-0.32-.3,0.33,0.25,0.19,0.25h0.27l0.33,0.48,0.62,0.25,0.11,0L93,166.68l0.28,0L93.46,167l0.71,0.22,0.64,0.85,1,0.51,2,0.59-0.18.22-0.76-.14L97,169.65l1,0.18,0.1,0,0.16-.17,0.62,0.31,0.43,0.17,0.21-.06,0.19,0.24,0.28,0,0.13,0.16,0.66,0.14,0.33,0.06,0.28,0.18,0.65,0.24,0.89,0.25,0.88,0.26,1.94,0.35,0.21-.06,0.33,0.06h0Zm-0.53-.78,0.17,0.12,0-.09-0.21,0-0.18-.1v0.09l0.2,0h0Zm4.31,4.16,0.18,0.1,0-.09-0.21,0-0.33-.07,0.26-.49,0.07,0.09h0.54l0.16-.21-0.49-.07-0.28.19-0.08-.08-1.12-.19-0.17.15,0.06,0.57,0.37,0.21-0.54.13-0.41.06,0.1,0.19,1,0.33,1.26,0.53,0.19,0.41-1-.29-0.2.08-0.11-.17L109,176.7l-0.13-.16-0.66-.15-0.11-.17-0.35-.09-0.21-.06,0,0.07,0.18-.05,0.18,0.25h0.28l0.29,0.28,0.5,0,0.18,0.24,0.28,0,0.52,0.53,0.52,0.1,0.71,0.15,0.36-.25,1.5-.18,1.51-.15,1.47-.2,0.66-.31,1.25-.28,1-.28,1.63-.63,0.18-.53,1.15-.08,0.36-.14H123l0.54-.51-1.39.18,0.48-.45,0.68,0,0.16-.37,0-.23,1.57-.38,0.43-.18,0.38,0,0-.1h-0.12l-0.29.19-0.53-.21-0.13-.13,0.07-.08,0.45-.1,1.34-.37,0.44-.36-0.53-.16-0.16-.15v0l0.41-.2,1.79-.78,0-.2-0.55.17-0.15-.17,0.21-.23,0.56-.17,0.21,0h0.48l0.2-.29,0.31-.34-0.35-.24v0l0.62-.49,0-.37,0.06-.08,1.85-1-0.35.05-0.67.19-0.21-.27,1.29-.42,1.31-.91,0.37-.52,0.64-.83,0.69-.79,0.61-.85,1.19-1.58,1.19-1.73,0.46-.67,0.48-.8,0.49-.65,0.52-.78,0.31-.61,0-.11,0.45-.37,0.35-.47,0.48-.66,0.73-1.05,0.06-.1,0.17-.31,0.79-1.56,0.13-.19,0.59-1,0.59-1.14h-0.1l-0.86.34-0.21.09-1.06.73-0.07.18,0.75-.27,0.16,0.15-0.74.46-1.25,1h0.12L142,151l0.65,0-0.85.57-1.48.9,0,0.17,0.55-.09,0.64-.31v0.35l-0.85.42-1,.41-0.41.21-1,.71-0.17.16-0.59.85h0.21l1.26-.85,0.2-.1,0.35,0,1.39-.51,0,0.11-0.92.62-0.38.09-0.8.51-0.36.3-0.16.52,0.95-.43,1-.34,0.23,0.26-0.51.08-0.55.33-0.42.2-0.74.33-0.54.2-0.63.48,0.33,0.1,0.74-.32,0.19,0.16-0.2.25-0.37.07-0.58.35-0.76.28-0.36.25-0.33.68,0.87-.36,0.87-.31,0.86-.31,0,0.11-0.77.48-0.74.33-0.63.3-0.91.48-0.26.63,0.64-.27,0.78-.23,0.19,0.09v0l-1.23.62-0.74.43-0.85.39-0.31.59,1.09-.45,1.11-.26v0.18l-0.65.23-0.72.4-1.21.42-0.32.14-1,.75-0.06.13,0.69-.08,1.48-.65,0.19,0.16-0.07.19-0.75.3-0.77.26-0.77.25-0.76.27-0.31.56,0.11,0.19,0.22,0,0.5-.28h0.11v0.21l-1,.67-0.27.05-1.09.39-0.21.11-0.32.32,0.9-.09,1-.3,0.1,0.2-0.21.25-0.34.08-0.91.22-2,.56-0.67.55,0.87-.14,1-.08,0,0.07-0.06.09-0.66.21-1.47.35-0.46.08-0.11,0-0.09-.07,0.48-.47-0.16-.18-0.45,0-0.45-.08-0.12-.18,1-.71,0.31-.16,0.36-.09,1.25-.86,0.26-.58-0.2-.13,0.09-.17,0.55-.16,0.64-.2,0.39-.44,0.34-.43-0.19-.14,0.26-.32h0l0.37,0,0.17-.13,0.2,0.08,0.85-.25,1.43-1.06-0.75.08-0.4.24-0.47.08-0.18.13-0.13.18-0.55.58-0.17-.37,1.27-1,0.26-.38,1-.78,0.31-.48,0.6-.34,0.92-.13,0.55-.38,0.11-.2-0.09-.21-0.78-.08,0.31-.31,0.44-.08,1.1-.88-0.35.11-0.68.46H135l-0.08-.2,0.31-.34,0.41-.42,0.15-.56,0.81-.56,0.8-1.08,0.88-1.08,0.73-.54,0.35-.26,0.22-.06,0-.41-0.46,0-0.62.29v-0.08l0.43-.54,0.66-.61,0.27-.41,0.89-1.07,0.82-1,0.24-.25,1-1.43,0.33-.07,0.72-.57-0.42,0,0-.18,0.94-.7,0.15-.23-0.66.33-0.17-.08,0.15-.28,0.19-.29L145,144l0.8-.86,0.46-.66,0.52-.71,0.15-.46,0.56-.63,0.47-.51,0.34-.32,0.08-.32H148.2l-0.19.29-0.49.28,0-.36,0.49-.49,0.44-.69,0.46-.67,0.77-1.16,0.13-.32,0.23-.41-0.49-.71-0.75-.27-0.48.45-0.22.27-1,1.11-0.84.79-0.38.06-0.62.8h0.21l0.58-.39,0.22,0-0.37.68-0.54.45-0.82,1-0.75.89-0.88.92-0.79.85-0.67.8-0.68.94-0.58.4h-0.12l0.07-.17,0.65-.81,0.66-.8,0.12-.2,0.66-.81,0.57-.57,0.56-.59v-0.22l0.61-.44,0-.29,0.6-.44,0-.29,0.49-.47-0.47.28,0,0.21-0.62.44,0,0.28-0.62.44,0,0.28-0.84.62-0.18.32-0.62.5-0.12.21-0.22.26-0.34.32-1,.92H140l0-.18,0.31-.45,0.81-.72,0.65-.66,0.23-.26,0.56-.59V141l-0.26-.07-1.41.23-0.13-.3-0.2.11-0.11.2-0.5.48-0.43.54-0.19.13H139l0.11-.45,0.8-.65,0.18-.31,0.77-.86,0.89-.92,0.34-.47,0.59-.54v-0.21l0.48-.47-0.47.37,0,0.11-0.68.45-0.69.76-1.66,1.15-0.15.28-0.41.17-0.6.52h-0.54v0.46l-0.51.42-0.15.34-0.63.49-0.82.8-0.22,0,0.06-.44,0.36-.46L135,143l-0.5.28-0.26-.07-0.26.16-0.39.11,0.39-.16,0.36,0,0.17-.11,0,0.31-0.43.21-1.23.26-1.37.19-0.45,0-0.22-.13,0.08-.29,0.16,0.1,0.06-.06h-0.22l-0.31-.26,0.16-.14,1.59-.13,1.24-.21,0.56-.39,0.26,0.09,0.26-.17,0.18,0.09v-0.09l-0.2,0-0.26-.08-0.26.15-0.08-.08h-0.8l-0.3-.12,0.16-.18,0.92-.11,0.8-.1,0.78,0.06,0.37-.34-0.34,0-0.13-.27-0.34,0-0.33-.07,0.39-.35L137,141l0.54-.38,0.6,0.1,0.09-.17-0.69.11-0.18-.12-0.66-.05,0.31-.31,1.29-.19,0.8-.17,0.53-.24,0.59,0,0.26-.23,0-.2-0.17-.11-1.25.35,0-.36,1.1-.38,0.1-.19-0.05-.35,0.63-.33,1.32-.47,0.24-.19,0-.15,0.24-.46,1-.54,0.64-1,0.72-.7,0.84-1.11,0.21-.28,0.42-.7,0.05-.34-0.72-1-0.39-.26-0.88-1.14-0.2-.1-0.21.07-1.13,1-0.43.31-0.62.1,0,0,0.35-.64,0.63-.46,0.47-.5,0.53-.67-1.09-1.74v-0.12h0.41l0.47,0.67,0.61,0.86,0.11,0,0.06-.16,0-.11-1.85-2.57,0-.05-0.37-.28-0.22-.43-0.2-.27-0.49-.92-0.17,0,0,0.33-0.46-.12-1.5-2.21v-0.12l0.18-.16,0.25,0.22,1.19,1.61,0.17,0v-0.11l-0.5-1.05-0.29-.36-0.42-.4-0.38-.54-0.11-.37-0.86-1-0.08-.42-0.74-1.43-0.34-.07-0.37.42-0.32-.15-0.26.32-0.39.26h0L135.7,118l-0.76.2-0.48.29-0.18-.09,0,0.09,0.2,0-0.26.45-1.42.42-0.95.38-1,.34-0.56.08L130.1,120l0.79-.56,0.18,0.1,1-.34,1-.43,0.15-.39,0.38-.21,0.44-.13,0.15-.3,0.29-.2,0.25-.28-1.51.17-2.15.39-0.8.1L130,117.8v0l0.49-.28,0.91-.15,3.76-.52,0.58,0,0.21,0,0.38-.27,0.53,0.15,0.14-.17-0.07-.2-0.38-.25v0l0-.41-1.23.15-0.77.18-0.77.1-0.08-.08v0l0.73-.32,0.66-.2,0.69-.11,0.29-.15V115l-0.3-.14-0.8,0-0.17-.13v0l0.28-.19,0.23,0,0.3-.26-0.52-.76-0.53-.08-0.17-.13h0l0.41-.19,0.16-.11-0.06-.46-0.18-.12-0.25,0-0.73.32-0.35-.32-1.25.06-1.39.13-1.29.14-0.55.6-0.43,0,0.08-.41-0.57.18-1.32-.07-0.5.57-0.7.38v-0.1l0.44-.53,0.32-.33,0.22-.27-0.11-.07-0.23,0-1.26,1-0.54.09-0.81.51h-0.12v-0.37l0.17-.16,0-.19-0.52,0-0.58.65-0.7.67-0.41-.07-0.09-.07,0.68-.58h-0.11l-0.53.39v0.21l-1,.62-0.17,0,0.27-.47h-0.12l-0.86.59-0.4.23h-0.11v-0.18l0.28-.34-0.1-.06-0.37.15-0.14.19-0.87.54-0.11-.29-0.14-.16-0.16.12-0.19.38,0.31,0.38-0.7,0-0.68.12-0.1,0-1,.14-0.16.15-0.5,0,0.36-.45-0.35-.07-0.5.48-0.5.62-0.88.6-0.18,0,0-.12,0.44-.37,0.3-.5,0-.21,0.45,0,0.15-.25-0.71.11-0.16-.1,0,0.08,0.2,0,0.15,0.21-0.74.22-0.52.5-0.83.6-0.19-.1-0.07-.33-0.47.28-0.4.45-0.65.08-0.79.11-0.83.57-1,.19-0.68-.17-0.73.72-1,.57,0.1-.2,0.41-.4,0-.07-0.54,0-0.59.65-0.74.49h-0.23l0.23-.28,0.22-.4,0-.11-0.18,0-0.52.45-0.54.76-0.69.39,0.16-.31,0-.22,0.25-.2,0-.1-0.18,0-0.05.28-0.8.58-0.74.75H99.23l0.49-.47-0.49.37,0,0.11-0.44.37-0.64.8L98,123.46l0.36-.44,0.36-.45v-0.16H98.61l-0.79.55-0.6.82-0.51.92L96.5,125l-0.29.08,0.46-1.18-0.66.38-0.5.92-0.74,1.56-0.26.22-0.15-.08,0.47-1.17H94.72l-0.93.6-0.41.9-0.64,1.5-0.39.21-0.15-.3-0.36.23-0.45,1-0.4,1-0.2.06,0-.19,0.18-.43,0.09-.45h-0.1l-0.89.56-0.28,1-0.42.55-0.25,0-0.33.58-0.18.8-1.16,1.13,0,0.47-0.32.87-0.36.71-0.2-.48-0.48.27-0.32,1.07-0.74.52-0.41.64v0.13l0.17,0.18,0.74-.71h0.11v0.18L85,139l-0.11.41-0.34.58,0.27,0.41-0.52.61,0.19,0.41-0.52.76-0.49.64-0.49.78,0.54-.34,0.08-.22,0.52-.62h0.21l0.06,0.21,0,0.1-0.45.52,0.1,0.57L83.14,145l0.76-.28v0.1l-0.29.36-0.33.47-0.4.69,0,0.11-0.1.18h0.09l0-.2,0.56-.57,0.33-.31,0.17,0.06,0.33,0.54,0,0.1-0.63.82-0.39.7,0,0.11-0.11.18h0.09l0-.2,0.36-.23,0.45-.29h0v0.29L84,148l-0.57.73,0.06,0.19-0.27.3,0.23-.31,0.26-.22,0.29-.6,0-.1,0.38,0.16-0.39.81,0,0.21-0.24.19,0,0.27-0.12.19h0.1l0-.21,0.24-.19,0-.27,0.58-.38,0.19,0-0.4.7-0.69,1.2,0,0.32,0.4-.2,0.46-.8,0.16-.17h0.29l-1,1.84v0.67l-0.68.57,0.63-.38v-0.21l0.32-.33L85,150.82l0.4-.15,0-.35,0.26-.36h0l0.14,0.42,0.09,2,0.24,1-0.56.81-0.49,1,0.65-.48L86,154.3l0.24-.06v0.35l-0.75.7-0.28.52h0.2l0.36-.44,0.15-.2,0.31-.08-0.38.84,0.62,0.26,0.08,0.11-0.13.29-0.06.46,0.14,0.18,0.18-.26L87,157.31l0.37,1.58,0.26,0.84,0.61,1,0.38,1.07-0.16.18-0.31.06-0.26.42,0,0.21v0.2l0-.21,0.49-.34,0.41,0.23,0.16-.33,0.43-.05,0.46-.19,0.49,0.22,0.7,0,3-.44,0.92-.1,0.12,0,0.11,0.14-0.07.08-0.37.2,0.3,0.48-0.22,0-0.71-.36-0.29-.07-0.82.1-0.22.28,0.65,0.63-0.54.16-0.11.15L93,163.8l-0.22,0-1.39-.55-0.4-.22-0.64-.3-0.9-.1,0,0.23,0.89,0.51L91.27,164l2.42,0.62,0.29-.2,0.19,0.09v-0.21l0.54,0.08,0.44,0.36,0.73,0,0.43,0.47,0.56,0.17,0.35,0.36,0.33,0.07,0.8-.13,0-.1-0.14-.14-1.37-.62-0.24-.24,0.21-.06,0.87,0.3L98.5,165l0.42-.38-1.1-.6-0.34-.3,0.07-.08,0-.28H97.23L97,163.16l-0.09,0,0,0.2,0.29,0,0.29,0.41H97.19l-0.84-.4-0.79-.15-0.69.1-0.19.13-0.17-.09v0.08l0.19,0L95,163.74l0.45,0.33H95.11l-1.76-.89,0.41-.15,1.21-.1,0.06-.19,0-.1,0.82,0L96,162.3l1.15,0.44-0.09-.29-0.77-.51-0.62-.68,0.23-.14,0.19,0.29,0.77,0.51,0.66,0.62,1.22-.07L98.59,162l-0.86-.77-0.65-.38H96.32l-0.37.25-0.18-.08v0.2H95.56l-0.76-.19-1.5.19-0.92-.05-0.1-.28,2.44-.18v-0.22l-1-1.39-0.71.07-0.52.29-0.67.08-0.1-.25,0.88-.22,0.85-.35,0.05-.34-0.38-.55-0.54-.1-0.55.34-0.31.17-0.29-.1,0-.2,0.83-.4,0.25-.35,0-.23-0.43-.7-0.4-.69V154.8l0-.94-0.63-1.35-0.64-1.07-0.39-.71-0.16.78L90,152.35l-0.46.43-0.09,1,0,0.93-0.1.45-0.09.07h0L89.14,155,89,153.38l0.47-2.27L89.34,150l-0.2,0-0.16.65-0.19.91-0.37.83h0L88.28,152l0.24-1.14L88.29,148l0.08-1.4-0.08-1.41,0.45-2.14,0.14-.17,0.12,0,0.12,0.2-0.07.69-0.14.91L88.79,146l0,1.4L88.48,149l0.06,0.59,0.24,0.13,0.54-2,0.13-.69,0.29-.72L89.81,144l-0.07-.79-0.22-.12,0.64-2.24,1.17-2.54,0.45-.82,1.06-1.81,0.58-1,0.64-1,0.19-.29,1.15-1.47,0.12-.2,0.43-.4,0.26-.38,1-.76,0.64-.54L98,129.87l-0.93,1-0.62.7-0.59.72-0.68.95-0.7,1.07-0.66,1.1-0.7,1.08-0.61,1.12-0.19.29-0.43.69-1.39,3.09-0.25.66,0,0.45-0.12,1.4v1l0.23,0.57,0.1,0.81,0.22,2.2v0.12l-0.26.08-0.15-.9-0.37-1-0.17.44,0,2,0.53-.15,0.08,0.18,0.06,0.22-0.14.15,0,0.45,0.41,0.68,0.1,0L91,151v-0.33l-0.56-.86,0.39-.14,0.57,0.65-0.1.17,0.09,0,0-.2,0.1-.19-0.16-.43-0.14-.56L91,148l0.32-.36L91.27,147l-0.07-.77H91.09l-0.22,0-0.14-.17,0.3-1-0.12-.78-0.21-.88,0.48-.56,0.15,0.79,0.29-.12,0.06-.45,0.26-1.47,0.2-.55,0.34-.61,0.28-.18,0.17,0.4-0.23.18v0.28l-0.06.33-0.25.18v0.28l-0.24.22v0.1l0.2,0,0-.29,0.24-.46,0.06-.33,0.26-.18v-0.28l0.27-.22,0.46-.81,0.72-1.06,0.74-.38-0.12.19-0.58.73-0.12.2-2.2,4.38L91.52,145l0.13,0.72,0.17,0.13,0.36-.86L93,143.22l0.45-.68,1-1.69,0.85-1.25,0.39-.22-0.14.51-0.48.65-0.51.78L94.1,142l-0.85,1.53-0.85,2-0.27.7-0.35.34-0.06.63,0.06,0.46,0,0.57H91.65l-0.19.07,0.13,1,0.11,0,0.22-.54,0.64-1.24,0.32-.75,0.48-.8,0.49-.65,0.5-.64,0.4-.57,0.08-.08,0.24-.4,0.58-.73,0.62-.69,0.6-.71,0.89-.92,0.14-.18,0.74-.9,0.81-.83,0.23-.06,0.29-.34,0.81-.83,0.49-.3,0.08,0,0,0.11-0.08.26-0.67.6-0.85.8-0.52.37-1,1.24-0.81.84-0.85,1-0.79,1-1.75,2.32-0.91,1.49-0.81,1.68-0.38,1.43,0.51,1.07,0.09,0.21,0.36,0.61,0.25,0.65,0.24,0.22,0.78-.74,0.77-.61,0.21-.36,0.83-.63,0.46-.53L98,149.13l0.19-.29,0.21-.07,0.89-.74,1.11-.77,0.22-1,0.14-.17h0l0.17,0.3,0.05,0.31,0.58-.08,0-.31-0.45-.94-0.28-.36-0.3-.36,0.18-.88,0.48-2.05,0.51-1.92,0-.19h-0.12l-0.66.49-1.39,1.23-0.25.38-0.81.64-0.47.85-0.6.86-0.65,1-0.53.77-0.16.17-0.31.11,0.11-.47,1.39-2.07,0.45-.47,0.92-1.2,0.55-.6,0.51-.48,0.49-.49,1.46-1.08,0.25-.37,0.93-.7,0.21-.4,0.47-.93,0.55-.88,0.09-.08,0.11,0,0.08,0.16-0.5,1,1.44-.89,1.55-1.06,1.46-1,1.5-1,0.55-.14,1.14-.75,1.23-.65,0.41-.23,0.88-.55,0.47-.13,1.47-1,0.62-.32,0.18,0.11v0.1l-1.24.84-0.73.37-1.19.75-1.64.89-0.78.5-0.5.14-4,2.78-0.51.07-1,.71-0.21.31-0.26.23L103,138.28l-0.79,1.9-0.49.38-0.26,1-0.17,1,0,1-0.43.94,0.48,0.7,0.51,0.79,0.3,0.19,5-3.34,0.36-.08,0.14-.18,0.91-.51,1.76-1.18,0.69-.45,0.21-.09,0.2,0.08v0.2l-0.9.46-0.24.3-0.64.27-2.82,1.9-0.71.25-3.71,2.57-0.05.24,0.44,0.64,0.39,0.16,0.2,0.25,0.32,0.28,0.08,0.35,0.44,0.56,0.32,0.13,0.24,0h0.45l0.51,0.29,0.87,0.59,1.09,0.42,0.33,0.12,0.18,0.15,0.29,0.13,0.53-.44-0.5-.27-1.49-.68-0.06-.29,0.79,0.19,1,0.55,0.78,0.22,0.67-.16,3.15-2.1,0.5-.13,6.34-4.42,0.29-.39,3.1-2.22,1-.73,0.16-.3,1.59-1.15,0.25-.4,2-1.38,1.16-.8,0.23,0-1.28,1-0.28.39-2.89,2.1-0.25.35-2.7,2-0.3.41L111.7,149.3l-0.43.09-1,.69-0.05.11,0.13,0.15,0.34,0.31v0.2l-1-.29-0.83.28-0.79.52-0.06.13,0.25,0.18,0.11,0.18-0.17.09-0.79-.1-0.5.12,0.14,0.31,0.18,0.14,1.23,0.68,1.06,0.47,1.48,0.7,0.91,0.22,0.23,0,0.16-.15-0.05-.21-0.73-.37L109,152.61l-0.17-.15,0-.11,0.16-.09,1,0.39,0.52,0.26,1.7,0.76,0.66,0.24,0.21-.22-0.16-.16-0.22-.08-1.33-.71-0.14-.37,1.92,0.85,0.72,0.37,0,0.18-0.34.14,0,0.29,0.43,0.11,0.56-.57,0-.42-0.41-.22-1-.31-0.23-.26,0-.2,1.11,0.36,1.1,0.38,0.23,0,0.22-.22-0.11-.32,0.14-.37,0.29,0.15,0.64,0,0.18-.29,0.7-.64-0.13-.27-2-.58,0.08-.42,0.84,0.44,1.68,0.3,0.57-.52-1.42-.47,0-.32,1.93,0.34,1.25-.92,0.18-.3,0.1-.06,0.21,0,0,0.29-0.89.92,0,0.22,0.84,0.06,0.5-.43,0.15-.49h0.56l0.13-.07,0.1-.19-0.16-.15-0.35,0-0.15-.19,0.27-.52,1.19-1.09,0.41-.34,0.44-.38,0.44-.39,1.15-1,0.22,0-0.39.54-1.32,1.14-0.52.75,1.89,0.19,1,0,1,0h1.87l1.93-.11,0.46-.42-0.34-.09-1.4,0H127l-1.4,0-0.91-.14-0.08-.2,0.07-.06h2l1.05,0,2.33,0h0.23l1.85-.11,0.84-.73-1.06,0-1.28.07-1.4.07-2.11.05-0.8-.15-0.13-.3,2.43,0.1,1.28-.08,1.4-.09,2.56-.28,0.43-.17h0l0.06,0.1-0.11.44-0.64.48-2.95,2.16-0.09.16-0.16.2-1.28.94-0.3.42-0.37.26-0.75.31L127,151l-0.22,0-0.17-.18,0.94-.85-0.16-.12h-0.7l-0.7,0-1.28-.08-1.28-.08-0.33-.09L123,149.5l0.3-.16,2.33,0.18h1.86l0.7,0.09,0.92-.68-0.46-.11-2.32.11-0.81-.06-0.18-.12,0.31-.18,3.35-.21,0.47,0.13,0.67-.6-0.34-.07h-2.92l-3.62-.1-0.1-.07-0.09-.08-0.39-.07-0.67.8,0,0.07,0.11,0,2.45,0.16,0.77,0.19-0.32.14-1.63-.06-1,0v0.43l0.45,0.09,0.19,0.12-0.43.13-0.91,0-0.38.6,0.42,0,1.49,0.11,1,0.14,0.07,0.09v0l-0.54.15-3.1-.16-0.51.48,0.79,0.18,0.17,0.13v0l-0.27.19-1.23-.15-0.33.46V152l-0.43.06-0.73.57,0.15,0.12,1,0.1,1.14,0.12,0.17,0.14h0l-0.31.15-2.1-.14-0.42,0-0.49.49,1.62,0.06,0.09,0.18L119,154h-0.58l-1.75.06-0.29.44,0,0.11,0.83-.27-1.09.87-0.28-.07-0.44.28-0.08-.08-0.44,0-0.46,0-1.37.21-0.33,0-0.63-.13-0.28-.27-0.32.09-0.81.65L111,156l0.92,0,0.92,0.05h0.35l2-.31,0.18-.33,0.28,0.08,0.44-.29,0.08,0.08,0.1,0,1.19-.45,0.33-.09,1.11-.34,0.65-.24,0.62-.29,0,0.43-1,.44-1,.28-0.33.11-2.09.71-0.15.17-3.23.33-1.4,0-1.19.07-0.94.41-0.38,0,0.18-.26,0.14-.29-1-.43-0.3-.27-1.41-.53-0.12-.1-0.14-.29,0.33-.08v-0.11L105.5,154l-0.58,0-0.85-.63-0.44-.52-1.28-.85-0.47-.51-0.09-.07-1.08-.89-0.28-.39,0.17-.42,0-.68,0.22-.05,0.2-.34-0.36-1-0.26,0-2.9,2-0.24.37-1.39,1-1.23,1.17-0.32.57,0.29,0.91,1.7,2.45L97,156.7l0.41,0,0.72-.42,0.37-.07,1.29-.79,0.35-.06,1.32-.73-0.17.31-1.58,1-0.61.23-1,.62-0.58.19-0.16.28,0.34,0.49,0.75,0.73,0.29,0.19,0.1,0.17-0.28.11-0.66-.48-0.64-.82-0.61-.54-2.27-3.28-0.21-.28-0.2-.09-0.18.16,0,0.45-0.23.11L93,153.91l-0.15-.82-0.29-.5-0.2-.07,0,0.47,0,0.47-0.15.13L92,153.43l0.07-.67-0.74-1.06-0.1-.06-0.1,0-0.06.3,0.51,0.95L92.11,154l0.29,0.76,0.46,0.68,0.06,0.1,0,0.1V156l1,0.76,1.85,2.51,0.32,0.2,0.66,0.82,0.24,0.16,0.53,0,0.79-.19,0.21-.1,0.16-.19-0.6-.65v0l0.11,0,0.86,0.39,0.91,0,0.3-.15,1.12-.3,1.11-.37,1.1-.34,0.42-.18,0.75-.32,0.42-.19,0.58-.36,0.68-.22,0.15,0.07,0,0.11-0.84.56-0.42.08-0.77.45-0.78.29-0.66.22-0.67.2-0.7.23-0.25.48,0.51,0.3,0.88-.22,0.88-.26,1-.36,0.87-.3,0.15,0.16-0.12.19-1.22.37-1.2.43-0.45.12-0.26.26,0.68,0.25,0.58,0.39,0.3,0.17,0.84,0.41,2.11,0.63,0.23,0,0.46,0.08,1.6,0.26L110,163l0.58-.08,0.64-.29,0.54-.2,1.06-.47,0.63-.29,0.65-.26,0.53-.23,1-.31,0.17-.23,0.48-.21,1-.56,0.93-.47,1.82-1.19,0.45-.12,0.73-.5,0.84-.41,0,0.36-0.33.11-0.14.17,0.07,0.21,0.33,0.09,1.15,0.17,2.19-1.54,0.3-.4,0.94-.69h0.22L127,156l-0.76.51-0.13.19,0.75,0.21,0.3,0.14-0.3.16-0.36,0-0.75-.27-0.75.67,2.41,0,0.38-.29-0.39-.15-0.3-.15,0.32-.13,1-.13,0.44-.46-0.81,0-0.8,0-0.24-.26,1.15-.05,1.08,0,0.46-.43-1-.08-0.17-.14h0l0.3-.17,1.05-.06,0.22,0,0.05-.16-0.55-.16,0.17-.24,0.81-.09,0.27-.08,0.3-.25,0-.47,0.7-.12,0.53-.23,0.14-.29-0.39-.12-0.21.09-0.26-.17,0-.11L133,151.4l0.68-.63,0.49,0,0.25-.38V150l1.09-1.06,1.22-1.25,0.67-.8,0.85-.8,0.16-.17,0.36-.46,0.49-.51,0.39,0.13-0.83.89L137.81,147l-0.89.91-0.08.08-0.52.62-0.62.69-0.69.92-0.12.79-0.4.32-0.14.56-0.64.81-0.68.8-0.19.29-0.3.5-0.64.83-0.41.29-0.63.93-0.56.74-0.76,1-0.9.91-0.53.65-0.72.54-0.27.4-0.6.55-0.53.61-1,1-0.42.5L123,164.44l-0.36.3-1,.86-1.81,1.31-0.22.33-3,2-0.43.11-1.21.78-0.95.42-0.25.41-0.93.11-1,.35-0.9.25-1.13.27-1.14.24-1.26.22-0.93.11-1.51.11-0.46-.07-0.51-.32-1.83-.27-0.13,0,0.15,0.3,1,0.53,0.58,0.08,1.17,0.56,1,0,0.39,0.29,0.66,0.13h0.15l0.84,0.28,1.15-.17,1.36,0.24,0.63-.08,0.1-.05,0.26-.48,1.11-.08h0.12l2.44-.42,0.72-.5,1.41-.16,0.35-.45,0.09-.06,0.91-.16,0.55-.44-0.24-.2,0.15-.2,0.33-.09,1.72-.21,0.77-.55,0-.12-1.5.12-0.14-.2,1.83-.28,1.13-.2,0.72-.58-0.56-.06-0.45.13-0.29-.06,0.2-.27,2.31-.37,0.21,0.07-1,.71-0.06.1,0.32,0.25h0l-0.51.27-1,.15-0.61.59,0.59-.07,0.54-.11-0.06.33-1.08.67h0.42l0.13,0.27-2.13.47-0.45.47,1.46-.19,0.13,0.2-0.23.21-0.92.13-1.39.13-1.53.19-0.55.38-0.34-.46-1.59.38-0.28.21-0.17-.09,0,0.08,0.2,0,0.08,0.08,1.94,0,0.19-.12,0.19,0.09,1.84-.26,0.05,0.06,0,0.11-0.3.18-1.27.18L118,174l-0.33.46-0.21.1-2.32.22-1.06,0v0.46l-0.65.44-1.3.12-1.28,0h-0.58l-1-.13L109,175.5l0.43-.13,0.32-.09,0.33,0.05h0Zm0.85,0,0.33,0.07,0.19,0.08v-0.09l-0.2.06-0.32-.07-0.19-.09,0,0.1,0.22-.05h0Zm-29.5-5,0.3,0.05,0.09-.17H81.73l-0.29.18-0.26-.07-0.26.14-0.25-.6-0.32.28-0.67.25-0.47-.09,0.89-.72,0.05-.21-0.77.14-0.92.59-0.36-.16,0.3-.46-0.1,0-0.94.52-0.47,0-2.56,1.77-0.61.08-0.1-.32-0.36,0-0.2.55-0.52.6-0.64.44-0.2.22-0.42.05-1.43,1-1.43,1-0.34.31-0.69.63L65,178l-0.51.29-1,.49-0.55.36L62.43,179l0.58-.24,0.92-.59,1.06-.73,0.42-.08,0.11-.1,0.27-.54-0.92.17-2.2,1.53-0.17-.06,0-.11,1.43-1,1.92-1.33,0.19-.3,0.47-.28L67,175l2.42-1.52L71.52,172l0.29-.57,0-.23,0.2-.26,0.39-.06,0.78-.58,0.33-.53,0.65-.16,0.23-.64,0.54-.36,0.65,0v-0.14l-0.12-.19L75.38,168l0.64-.72,0.32,0,0.19-.24L76,167l-1.48,1L74,168l-0.75.52-0.52.12-0.6.51-0.59.56-1.13.83L70,171l-3.59,2.58-0.87.59-1.45,1-0.51.48-0.65.47-0.59.32-0.54.39-1.16,1-6.21,4.33-0.24.33-2.54,1.64-0.28.38-1.25.88-0.69.38-0.73.57-1,.68-3.17,2.22-1.83,1.28L38,193.84l-0.25.24L38,195.41l0.69-.21,0.26-.35,1.19-.77,0.34-.08,0.71-.4h0l0,0.21L41,194l-1.34.95,0,0.39,0.22,0,1.27-.84,3-2.06,0.22,0-0.26.35-3.76,2.61-0.87.6H39.21L39,195.53l-0.51.29-0.1.46h0.43L39,196.77l0.62,0.39,0,0.44-0.26.15L39,197.7l-0.41-.38-0.11,0-0.78.18-0.85.38-0.69.44-0.71.6-0.58.57-0.23.52v0.36l-0.13.17-0.2,0-0.16-.17-0.45.08-0.09.12-0.29-.09-0.44,0-0.47-.32-0.35.4,1.25,2,0.15,0.18,0.19,0.14,0.71,0.13,0.26-.62,0.29-.5,0.88-.93,0.34-.31,0.74-.75,0.57-.6,0.43-.1,0.2-.12,1-.66,0.86-.61,0.85-.79,0.1-.07,0.42-.19,0.33-.33L43.27,195l6.18-4.28,1-.69,0.42-.4,0.52-.47,1.54-1.08,1.18-.77,0.51-.19,0.26-.37,4.65-3.22,0.45-.09,0.92-.63,1.92-1.36,2.92-2,4.88-3.43,0.3-.39,0.85-.39L73.76,174l1.13-.6,0.4-.23,1.09-.68,0.38-.09,1.25-.76,0.58-.19,1-.39,1-.37,0.38-.27,0.26,0.07,0.26-.15h0ZM84.55,157l-0.06.33-0.29.18-0.24-.2-0.21-1.48-0.39-.33,0.11-.76-0.24-.17L82.86,154l-0.22-.57L82.36,153l-0.19-1.36-0.44-.76,0.1-.58,0.17-.54-0.51-1.28-0.11-1-0.1-.69-0.16-1.86,0.22-.65-0.17-.15L80.09,146l0.37,0.32-0.87,2.25,0.4,0.28-0.15.89,0.08,0.2-0.1.18,0.09,0,0-.21,0.39-.24,0.2,0-0.1,1.17,0,1,0,1.14,0.54,0.78,0.56,0.89,0.27,0.76L81.89,156l0.75,1,0,0.11L83,157.49,83.51,158l0.21,0.57,0.44,0.28,0.21-.13,0-.22,0-.11,0.06-.88v-0.22l0.07-.33,0.24-.22,0-.1-0.2,0,0,0.29h0Zm14.89,13.71-0.32-.29,0.32,0.25,0.18,0.12v-0.09l-0.2,0h0Zm-16.71-25-0.1.17h0.08l0-.19,0.3-.31-0.25.32h0Zm-3.28-5.16-0.28.31,0.23-.32,0.28-.31-0.23.32h0Zm19,23.37,0.19,0.24h0.27l0.16,0.11,0-.23,0.56,0,1,0.28,0.28-.17,0-.31,0.21-.06,0.52,0.08,0.38-.09,0.12-.3-0.59-.25-0.18.28-0.57-.06,0.18,0.41-0.11,0-0.86-.53,0.22-.15,0.21,0.06,0-.07-0.17,0-0.18-.25H99.82l-0.21-.3-0.45,0-1.23.24-0.23.11,0.07,0.28,0.91,0.48-0.22.15-0.16-.11V164l0.18-.05h0Zm25.32-2.66,0.38-.11h-0.11l-0.28.16-0.26-.09-0.26.16-0.08-.08-1.11.13-0.24.08-0.22.27,1.27-.19,0.39-.27,0.26,0.08,0.26-.15h0Zm-19.61-42.72-0.4.11h0.11l0.3-.16,0.15,0.1,0.05-.05h-0.21Zm11-7.67,0.35,0,0-.16h-0.1l-0.27.16-0.18-.08v0.08l0.19-.05h0Zm13-1.86,0.38-.11-0.38.16L128,109l0,0.09,0.21,0h0Zm2.93-.31,0.38-.12-0.39.16-0.17-.1,0,0.08,0.2,0h0Zm-7.25,51.94-0.09-.07-0.52.35,0.61-.31,0.26,0.1,0.26-.17,0.08,0.08,0.75-.13,0.08-.16h-0.54l-0.37.25-0.26-.09-0.26.17h0Zm-22,12,0.32,0.4,0.28,0,0.24,0.73,0.63,0.83,1.25,0.19,0.81,0.07,1.5,0.22,0.13-.23-0.57-.18L106,174l-1.48-.29-0.82-.43-1-.19-0.09.07-0.32-.42-0.28,0-0.13-.19-0.21,0,0.14,0.16,0.2,0h0ZM86.78,134.29l0.11-.17-0.08,0,0,0.2-0.5.53,0.5-.44,0-.1h0Zm64.81,0.62-0.12.17,0.08,0v-0.2l0.48-.47-0.47.27,0,0.2h0Zm-1.41-2.45-0.11.18,0.09,0,0-.2,0.47-.45-0.45.26v0.2h0Zm-68.87,9.62,0.12-.17-0.08,0v0.21l-0.3.34,0.23,0.19,0-.54h0Zm20.46,23.3,0.22,0.24,0.29-.18-0.32-.09-0.19.07-0.17-.09v0.09l0.19,0h0ZM91.65,151.22l0.09-.16-0.08,0,0,0.19-0.09.18L92,151.83l-0.31-.6h0Zm16.58,14.86-0.79-.31-0.33-.07-0.22-.25-0.81-.18-0.2.22,1,0.26,0.2-.07,0.33,0.05,0.79,0.31,0.06,0.09,0.6,0,0.08,0.08,1.21-.14,0.47-.3h0.21l-0.22,0-0.07-.08-2-.4-0.21.06-0.2-.25-0.81-.14-0.17.18,1.09,0.25,0.1-.06,0.32,0.29,0.43,0.13,0.07,0.06-0.11.18-0.18.13-0.66-.11h0Zm-4.64,10.65-0.65-.37-0.2.38-0.18-.09,0,0.09,0.21,0,0.15,0.13,0.7-.15,0.2,0.08,0-.07-0.18,0h0Zm12,0.79,0.3,0.12,0.88-.13,0.06-.1-0.17-.07-0.78.06-0.29.17-0.18-.1,0,0.09,0.21,0h0Zm15.77-66.36-0.07-.09-0.8-.11-0.09.06-0.07.19,0.16,0.13,0.58,0,0.3-.17,0.16,0.09,0.06-.06h-0.22Zm-2,46.25,0.28-.3-0.25.31-0.92.69v0.36l0.22-.09,0.55-.59,0.15-.17,0-.2h0Zm-44-4.11,0.19-.13,0.09-.19H85.53l-0.17.14,0,0.2-0.29.19-0.52.88,0,0.2,0.21-.06,0.57-1.11,0-.1h0Zm13.91,15.56-0.13-.18-0.83-.37-0.22,0-0.14.16,1.13,0.45,0.2-.08,0.2,0.08,0-.07-0.18,0h0ZM83.73,135.25l0.87-.67,0.08-.25-0.08-.16H84.49l-0.17.14-0.56.82,0,0.11-0.19.14-0.53.75,0.07,0.19,0.3,0,0.35-.85-0.06-.21h0Zm32.16-19.69,0,0.46,0.41,0,0.4-.4-0.05-.1-0.18-.11-0.34,0-0.29.18-0.28-.17-0.86.49,0.47,0.08,0.68-.44h0Zm-3.58,59.66,0.18,0.12,1.13-.28,0.12-.15-0.21-.15-0.66.06-0.57.44-0.4.13,0.41-.18h0Zm4.08-1.07L116.1,174H115l-0.29.15-0.08-.09-1-.21-1.25.2-0.26.18-0.16-.1,0,0.08,0.2,0,0.42,0.13h1.81l0.3-.14,0.07,0.09,1.34,0,0.29-.17,0.15,0.11,0.06-.05h-0.22ZM79.31,146.62l0.11-.19H79.32l0,0.2-0.36.24-0.4,0,0.63-1.08,0.07-.22L79,145.2l-0.27.18-0.22,1.17,0.17,0.28-0.07.09,0.09,0.8L78.88,148l0.15,0,0.31-1.19,0-.11h0ZM105.21,165l-0.13-.23-1-.37-0.23.1-0.12.38-0.73,0-0.51.12,0.06,0.22,1.13,0.2,0.2-.25-0.2-.29,1.25,0.27,0.29-.17,0.19,0.08v-0.2l0.46,0,0.81-.07,0.29-.32,0.44,0.15,1.13-.19,0.1-.2-0.49-.24-1,.12,0.18-.32,0-.44,1.12,0.14h0.12l0.15-.21-1.94-.42-1.47-.36-0.47.5,0.06,0.3,0.56,0.11,0.61-.3,0.36,0.11-0.25.27-0.2.41-0.66,0-0.56.45,0.36,0.26,0.3,0.35-0.23.15h0Zm-1.82-1h-0.77l-0.09.06,0.06,0.35L103,164.5l0.3-.21,0-.3h0.79l0.54-.45-0.82-.15-0.44.31,0,0.31h0Zm36.23-48-0.09-.07-1.72.21-0.1.06-0.07.19,0.16,0.18,1.11-.25,0.71-.36,0.14,0.1,0.06,0h-0.21Zm-32.77,60.4,0.21,0.27,1.11,0.62,0.56,0-0.1-.31-1.6-.64-0.2.07-0.17-.1,0,0.08,0.2,0h0ZM85.27,151.92l0.05-.71-0.21,0-0.35.63,0.55,0.05-0.1.06-0.59.71-0.06.1,0,0.11-0.25.78,0.32-.16,0.76-.87,0.1-.48-0.18-.26h0ZM74.29,167l-0.3.33,0.26-.34,0.63-.25,0.38-.67,0.66-.55,0.26-.57-0.06-.5H75.94l-0.61,1-0.75,1-0.32.46,0,0.11h0ZM24.44,186.66l-0.52-.13,0,0.29,0.6,0.24-0.17-.41,0.19-.13,0-.25-0.21-.1-1.93-1.31-1.3-.39-0.69.08-0.15.16,0,0.07,1.22,0.29,0.67,0.16,1.91,1,0.28,0.41h0Zm55.08-15,0.08,0.08,0.67-.07,2.38-.24,0.43-.13,1.18,0.1,0.05-.18-0.91-.39-0.48,0-1.25.16-0.68.15-0.89.13-0.6.41-0.39.12,0.39-.16h0ZM141.71,140l-0.29.31,0.24-.32,0.76-.53,0.25-.41,0.52-.63,0.69-.78,0.66-.81,0.84-1.11,0.54-.37,0.38,0,0.11-.06,0.88-.93,0-.11-0.34-.08-0.75.72-1.36,1-0.42.53-0.52.62-0.65.81-0.75,1-0.82,1V140h0Zm-38,9.13,0.19,0.3v0.35l1.16,0.72,2,0.7,0.46,0.05,0.49-.36-0.52-.26-1-.42-0.92-.5-0.09-.07-0.88-.06-0.68-.43-0.21,0-0.64-.84-0.36-.13-0.63.38,0.22,0.53,0.95,0.34,0.47-.33h0Zm4.73,20.46,0.08,0.08,1.56,0.47,2.43,0.38,0.57,0.11,0.89-.29,0.17-.25-0.1-.06-3.57-.68-0.7,0-1,.13-0.29.19-0.19,0,0.2,0h0Zm-0.74-15.49h0l0.21,0,1.8,0.82L110,155l0.55,0.18,0.57-.14,0-.32-2.65-1.24-2.35-1.11-1,.34-0.41.37,0.54,0.45,0.71,0.4,1,0.57L108,155l1.11,0.37,0.23,0,0.18-.08-0.08-.2-0.89-.23-0.41-.23-0.47-.5h0Zm11.43,7-0.31.14-0.55,0,0,0.21,0.2,0.11,0.92,0.1,0.15,0.25-2.07-.14-0.24.21,0.17,0.11,1.57,0.23,0.41,0.25,0.24-.09,1.16-.78-0.06-.22-1.31-.21-0.3-.15,0.34-.15L120.9,161l1.27-.09,2.76-1.95,0-.1-0.17-.14-1.16-.06-0.25,0-0.19.3,1,0.1-0.35.35-0.82-.06-1.74-.18-0.18-.13,0.3-.15,0.94,0.1,0.09-.45-0.88-.18-0.65-.24-0.72.64L121,159l0.19,0.12-0.25.12-1.48-.08-1.06.46-0.47.32-1.34.69-1.09.65-0.54.31,0.86,0.31,0.25,0,0.33-.55,0-.28,1,0.29,0.22-.07,0.11-.2,0.23-.26,0.56-.08,0.56,0,0.1,0.43h0ZM31.21,201.4l-0.38-.55-0.15-1v-0.34l0.12-.92,0.49-.61,0,0.42,0,0.35,0.06,0.49,0.3,0.48L32,199.87l0.51-.58,0-.9,0.37-.94,0.48,0.12L33.46,198l0.17,0.3-0.12.16,0.13,0,0-.2,0.27-.18h0.35l0.19-.54h0.49l0.47-.26L36.1,197l0.69-.54,0.1-.15,0-1.4h0.44v0.2l0-.2-0.17-.39-1.85,1.24-0.46.08-1.1.64-1.77.57-0.79.17-1.38.11-0.44,0,0.3,1,0.32,0.17L30,198.84l0.3,1.36L30.48,201l0.34,0.86,0.85,1.37,0.67,0.64L33,204.3h0.92l0.2-1.08-1.53-.62-0.43-.5-0.6-.8-0.1-.05-0.31.14h0ZM88.55,174l0.13,0.18,0.92,0.49,1,0.57,1,0.57,2.59,1,1.31,0.49,1.36,0.34,0.43,0.16,0.56,0.12,2.37,0.63,1.15,0.23,1.16,0.18,1.14,0.13,1.16,0.15H105l2.56,0.09,0.23,0,2.33-.11,0.23,0,1.35-.32,0.18-.14,0.61,0.11,0.13-.18-0.45-.06-0.3.17-0.3-.15-2-.19-2.9-.35h-0.47l-2.44-.16-0.58,0-0.69-.1-2.39-.53L98.6,177l-1.47-.37-2-.63-0.72-.3-0.28-.25L92.07,175l-2-.77-1.47-.31-0.1.06L88,173.44l-0.24,0,0,0.22L88.45,174l0.1,0h0Zm10.32,1.75-0.18-.13-2.51-1.21-0.51-.28-1.82-1-2.57-1.8-1-.79-1.87-1.58-1.51-1L86.23,167l-0.93-1-0.44-.38-1.26-1.2-0.72-.76-0.3-.35L82,162.45l-0.51-.3H81l-0.1.27,0.18,0.75L81.44,164l1,1.3L82.88,166l0.34,0.44L83.65,167,85,168.81l1.46,1.27,1.15,0.53L89,171.69l0.65,0.49,1.75,0.9,0.54,0.22,1,0.39,2,1.13L95.2,175l0.72-.08,0.61,0.32,0.62,0.15,0.39,0.34,1.05,0.18,0.3-.21,0.22,0.29,0.33,0,0.08,0,0-.1-0.63-.15h0ZM92.73,168l-0.9-.84-0.63-.51-1-.81-1.72-1.38-0.28-.2-0.66-.42-0.49-.56-0.79-.68-0.83-.81-0.7-.77-1.14-1.64-0.82-.79-0.61-1.12-0.44-.05,0.14,0.32,1.88,2.7,0.72,0.74,0.14,0.48,1,1.48,0.89,0.66,0.35,0.57,0.29,0.48L88,165.05,88.67,166l0.11,0.41,0.84,0.54,0.78,0.79,0.69,0.79,0.4,0.3,0.57,0.68,0.56,0.13,0.5,0.5,0.57,0.58,0.86,0.78,0.64,0.27,0.59,0.34,0.79,1.05L97,173.25l0.45,0.11,0.9,0.37,0.74,0.69L100,175l1,0.34,0.25-.29,2.24,1.1,0.4-.06,0.64,0.26,2.48,1,0.27-.16-1.79-1-0.64-.29-2-.58-0.16-.11,0.13-.31-1.88-.55-0.6-.37-0.33-.39-1.37-.83-1.21-.91-0.67-.46-1.22-.89-0.94-.68-0.47-.66-0.44-.55-0.16-.15L92.73,168h0Zm50.83-45.85-0.57.15-1.14.79v0.25l0.75,1.19,1.5,2.1,0.69,0.91,0.35,0,0.29-.38,0.53-.45,0.94-.87,0.56-.42,0.27-.49-0.14-.57-0.3-.5-0.17-.07,0.16,0.47-0.09.42-0.13,0-0.46-.68,0.12-.42-0.91-.65-0.9-1.28-0.3-.19-1.09.68h0ZM79,163.39v-0.24l-1.33-1.93-0.19-.11-0.39.29-0.25,1-0.37,1,0.14,0.79,1.12,1.33,0.07,0.38,0.74,0.72,0.7,0.94,2.58,1.61,0.3,0.18,0.84,0.4,0.37,0.44,0.52,0.12-0.58-.68-0.18-.54-0.43-.27-0.32-.46L80,165l-0.26-.39L79.56,164l-0.82-.12-0.28.22-0.19.87H78.06L78,164.79l0.31-1.11,0.11-.1,0.3-.09,0.32-.09h0Zm61.47-42.34,0.56,1,0.31,0.49,0.21,0.09,1.13-.49,1.1-.68,0.69-.29,0-.17-1-1.38-1-1.41-0.65-.52L141,118l-0.73.35-0.86.35-0.35,0-0.16.16V119l0.54,0.75,0.4,0.54,0.66,0.78h0Zm7.76,21.46-0.75.64-0.72.53-0.59,1v0.13l-0.21.47-0.53.22v0.31l0.29,0.18-0.26.26-1,.69-0.08.17,0.44-.15,0.11,0v0.19l-1.62,1.16,0,0.05-0.06.27,0,0.11h0.1l1.07-.62,0.7-.27,0.18-.12,1-1.33,0.47-.81,0.57-.88,0.51-.92,0.54-.9,0.59-.86,0.46-.67,0.61-1.12,1.31-2.21-0.05-.2-0.2,0-1.55,1.07-0.11.18h0.48l0,0.32-1.74,1.24-0.08.08,0,0.11h0.19l1-.64,0.22,0,0,0.11-0.14.17-0.38.39,0.21,0.17-0.2.25-1.27.83-1.06.68-0.4.42-0.07.18,1.26-.58,0.09-.06,0.07-.09,0.09-.09,0.6-.08h0ZM80.78,139.9l0.1-.27,0.79-1.43,1.1-1.76-0.31-.24-0.1.07-0.63,1-0.54.9-0.55,1-0.15.32-1.05,2-0.21.49,0,1.22,0,0.82,0,0.82L79.47,145l0.19-.1,0.09-.75L81,141.68l0.15-.77,0.21-.75,0.3,0.16,0.07,0,0.31-1.6L82,138.6l-0.19.11-0.61,1.13L81,140l-0.22-.1h0Zm21.53,10.54,0.87,0.55,0.31,0.37,1.68,0.81,0.21,0.08,0.73-.26-0.11-.21-1.78-.87-0.95-.68-1.07-.71-0.08-.08-0.58-.35-0.23.1-0.12.88,0.88,1.23,0.68,0.24,0.43,0.56,1.08,0.66h0.35l0.17-.16,0-.21L104,152l-1.57-1-0.71-.6,0-.21,0.1-.21,0.49,0.44h0Zm-24.1-.3-0.51-.48-0.29.07-0.1.8-0.21.81,0.3,2.45-0.07.63,0.2,0.67,0.23,0.24,0.31-.54-0.36-.74,0.12-.33,0.36,0.3,0.46,0.45-0.16-.77-0.27-.85,0.11-.49,0-.69,0.3-.13-0.43-1.43h0Zm2.12,9.44,0.12-.56-0.09-.54-0.86-.28-0.41.54-0.8-.17,0,0.35,0.07,0.32L79,160.17l0,1.2,0.84,1.2,0.2,0.1,0.17-.27-0.54-.87,0-.22,0.5-.61,0.35-.8-0.16-.31h0Zm19.14,12-0.33-.28-0.69-.42-0.88-.54-1-.5-0.62-.26L96,169.79l0.77,1.1,1.09,0.76L99,172.53l1.57,1,0.08,0,0-.11-0.49-.43-0.13-.42-0.55-.45-0.06-.49h0Zm-5.31-12.32,0.22,0.39,0.36,0.42,0.67,0.63,0.11,0,0.68-.1,0.1-.19-0.79-.8L94.32,158l-0.41-.31-0.12-.32L93.42,157l-0.55-.76-0.73-.91H92.06l0,0.48,1.78,2.58h0.5l-0.14.83h0Zm53.13-28.59,1-1.09-0.4,0,0.94-.9,0-.23v-0.12l-0.52-.58-1.1.85-0.76.72-0.1.22,0.15,0.3,0.73,0.88h0ZM93.75,165.95l-1.65-1-1-.44L90.21,164l-0.67-.47-0.33,0-0.1.32V164l1.48,1.09,0.32-.16H91L93,166l1.74,0.92,0.44-.08-0.1-.3-0.71-.34h-0.5l-0.09-.24h0Zm54.62-40.08h-0.22l-0.82.63-0.57.57-1.08,1-0.06.21,0.55,0.59,1.27-.95,0.63-.68,0.06-.22-0.14-.32,0.16-.27,0.46,0.3,0-.06-0.3-.86h0Zm-11.1-10,0.35,0,2.18-.3,0.16-.3-1.25-.64H137.9l-1.26.14,0,0,0.59,0.66,0.05,0.37h0Zm-25.91,53.34,1,0.25,0.92,0.16,1,0.09,1.07,0,0.61-.49v-0.09l-1-.16-1.15-.12-0.94-.14-1.43.36-0.07.11h0Zm24.41-55.56,0.15,0.28,0.86,0.47,1.62-.08,0.44-.09-0.47-.78-0.89-.19-1.49.2-0.21.18h0Zm-54.5,46.33v0.23l0,0.46,0.53,0.77,0.23,0.26,1,1,0.22,0.16,0.41,0.07,0.16-.11,0-.11-0.46-.51-0.24-.2-0.06-.45-0.45-.58L82,160.36l-0.48-.5-0.28.09h0Zm35,2.32-0.71.31-0.14.14,0.14,0.16,1.25,0.25,0.61,0.26,0.58-.11,0.6-.36,0.12-.18-0.14-.13-1.72-.21-0.59-.12h0Zm10.32-2.55-0.47.85-0.76.75-0.25.24-0.06.21,0.13,0.2,0.3-.14,0.37-.45,0.67-.65,0.78-.71,0.85-1v-0.42l-1.57,1.08h0Zm-3.9,2.81-1.64.2-1.49.1-0.68.48-0.06.15,2.94-.18,0.94-.76h0ZM117.57,168l-1.24,0-1.25-.12-0.6.12-0.45.44,0.57,0.13,1,0.06h1l0.22-.06,0.65-.58h0Zm-13.41-2.19,1.2,0.43,1.27,0.52,0.78-.23,0.07-.19-0.41-.24-0.78-.19-0.88-.3-0.57-.12-0.35,0-0.33.3h0Zm8,5.07-0.45-.1-4-.93-0.54-.2-0.35,0-0.15.14,0,0.08,1.55,0.48,0.68,0.18,2.49,0.58H112l0.12-.2h0ZM86.79,159.49v1.1l-0.25.23,0,0.19,0.32-.18,0.42-.15L87.37,161l0.22-.1-0.11-.79L87.06,159l-0.29-1.11-0.16-.17-0.49.58,0.16,0.28,0.34,0-0.18.73,0.35,0.22h0Zm52.87-41.77,1.8-.39-0.18-.39-0.54.08-0.65.21-0.54.17-0.65.24-0.51.17,0.09,0.58,0.42,0.11,0.2-.14,0.12-.36,0.44-.27h0ZM124.1,158.3l0.16,0.1,2.31,0,1.34-.27L128,158l0-.07-0.45,0-2,0-0.68-.12-0.23,0-0.5.46h0Zm-28.54,7-2.5-.33,0.05,0.27,1.38,0.64,1.14,0,0-.1-0.11-.45h0Zm5.58-3.69,0.8,0.16,0.86-.28,0.08-.21-1.23-.53-0.77.22-0.06.07v0.14l0.32,0.41h0Zm3.82,0.75-0.65-.35-0.73-.33-0.78.2-0.29.18,0,0.11,0.06,0.08,0.88,0.16,1,0.32,0.52-.36h0Zm11.55,4.85-0.5.51,0.68,0h0.8l0.66,0.07,0.71-.64-2.35.05h0ZM84.4,164l0.07,0.29L85,164.7,85.42,165l0.76,1,0.89,0.32,0.11,0,0.1-.06V166l-1.17-.72-0.24-.18-0.47-.67L84.51,164l-0.11,0h0Zm15.43-3.45-0.51-.14-0.33,0-0.09.27,0.44,0.36,1.41,0.94,0-.42-0.53-.44-0.42-.61h0ZM147,131.42l0-.22-1-1.43-0.75-1-0.36.08,0,0.15L146,130.5l0.58,0.47,0.27,0.38,0.2,0.07h0Zm-31.78,22.39-1.3,1,0.33,0.09,0.91,0,0.41-.41,0.45-.49-0.8-.14h0ZM135.51,113l0.23,0.08,1.72-.14,0.08-.28-0.08-.11-1.25-.14-0.87.17v0.12l0.17,0.29h0Zm-33.15,34.72-0.64-.75-0.6.37,0,0.55,0.28,0.49h0.25l0.74-.68h0Zm29.72,13.67,0.94-.21,0.92-.31,0.61-.78-0.4-.11-0.62.32-1.45,1.09h0Zm-32.15.7-0.69-.55-0.53-.44-0.65-.43-0.23.28,0.24,0.34L99,161.93l0.74,0.3,0.21-.2h0Zm19.22,4.91,1.1-.79-2.08.19-0.48.46h1.24l0.21,0.15h0Zm21.1-50.52-0.84.17-1,.27-0.25.33,0.18,0.16,1-.28,0.37-.19,1.05-.19,0.2-.27-0.34-.21-0.36.2h0Zm-17.53,47.82-1.64.11-0.63.56h0.34l0.92,0.14,1-.79h0ZM103,163.35l0.16-.06,0-.37-1.48-.66-0.23,0-0.24.2,0.1,0.19,0.72,0.39,0.93,0.34h0Zm42.8-25.95,0.17-.65,0.09-.18h-0.12l-0.28.2-0.69.78-0.64.8,0.15,0.18h0.22l0.44-.36,0.68-.74h0Zm4.42-3.63,0.47,0.5,0.52-.57,0.26-.61-0.15-.17-0.22,0-0.65.2-0.08.06-0.16.55h0ZM143.61,139l-0.61.68-0.43.66,0.07,0.19,0.2,0.07,0.48-.48,0.52-.5,0.23-.49,0-.09-0.44,0h0Zm-46,28.51,1.59,0.12,0-.1L98.1,167l-0.54.16-0.1.19,0.14,0.18h0Zm-1.77-1.42-0.13.07v0.29l1.07,0.42h0.34l0.11,0,0.16-.15-0.1-.31-1.45-.26h0Zm55-30.42,0-.24-0.8-1.14-0.19-.11-0.22,0-0.08.09,0,0.4,0.31,0.19,0.65,0.81,0.32,0h0ZM123,164l0.87-.89-0.74.15-0.75.14-0.37.42,1,0.18h0Zm-22.41,3.39-1.1-.62-1.23-.6-0.21.23L99,167l1.17,0.5,0.35-.07h0Zm29.66-3-0.67.19-0.69.4-0.74.72-0.12.19,0.06,0,0.33-.11,1.85-1.43h0ZM25.65,187.81L25.72,188l0.52,0.43,0.85,0.58-0.08-.7-0.66-.44-0.69-.11h0Zm10.23,10.25H36l1.29-.86,0-.18-0.19-.16-0.22,0-0.77.52-0.25.23v0.42h0Zm59.76-30.73,1.57,0.79,0.2-.07-0.08-.3-0.8-.44-0.23-.09-0.66.1h0Zm35.75-55.73-0.78.11-0.34.44,0.06,0.21,0.79-.13,0.3-.07,0-.56h0Zm14.85,10.88,0-.08,0-.11L144.65,120l-0.19-.13v0.2l1.08,1.64,0.49,0.65,0.19,0.12h0Zm3.68,8-0.2,0-0.34.45-0.67.91,0,0.1,0.27,0.08,0.55-.86,0.45-.5-0.08-.2h0Zm2.36,4.35-0.45.52,0.08,0.34,0.76,0.13,0.17-.28-0.56-.72h0Zm-28.59,27.43-0.53.43,0.49,0.09,0.52-.28,0.31,0.11,0.32-.06,0.11-.44-1.21.15h0Zm-14.13,1.94,0.74-.17,0.1-.06,0.09-.07,0.06-.11-0.72-.21-0.36.07-0.32.09,0,0.3,0.38,0.15h0ZM142,116.77l0,0.18,0.86,1.24,0.61,0.86,0.18,0.09L142,116.77h0ZM141.16,150l0.73-.31,0.55-.43,0.16-.17,0.06-.43-0.22,0-0.55.42-0.72.87h0Zm-25.33,3.54,0.89,0,0.16-.54-0.74-.08-0.33.23,0,0.33h0Zm1.89-.9,0.27-.21-0.06-.33-0.48-.07-0.72.58,1,0h0Zm32.85-22.24,0-.44-0.75-1.19-0.19-.1,0,0.18,0.47,1.06,0.44,0.49h0Zm1.42,2.39-0.35-.94-0.55-.87-0.11,0-0.07.15,0.27,0.5,0.63,1.21,0.18,0h0Zm-5.14,2.61-0.59.74v0.08l0.67-.05,0.51-.5-0.14-.2-0.45-.06h0Zm3.65,2.44,0.74-.3,0.32,0.14,0.28-.47v-0.11l-0.17-.13-1.14.76,0,0.1h0Zm-31.58,13.57-0.51-.24h-0.13l-0.45.32v0.21l1,0.13,0.13-.41h0Zm2.29,19.73-0.73.61,0.74-.08,0.66-.61-0.67.08h0Zm-2.37-20.27,0.78,0.12,0.2-.33,0-.11-0.66-.13-0.3.14,0,0.31h0Zm-0.53,21.82,0.55,0,0.88-.28,0.06-.09-0.14-.11-0.91.11-0.45.4h0ZM19.47,185l-0.22,1.11,0.54-.73,0.08-.58-0.4.2h0Zm116.77-28.12,0.91-.28,0.34-.6-1.25.88h0Zm-50.65-.59-0.34.3-0.12.42v0.38l0.31-.14,0.27-.84-0.12-.12h0Zm42-44.16-0.08.17,0.15,0.32H128l0.53-.46-0.93,0h0Zm-26.32,52.53,0.57,0.3H102l0.19-.11v-0.37l-0.88.2h0ZM139.5,152l0.2,0.08,0.81-.52-0.26-.17-0.75.61h0ZM92.44,162.9l-0.12-.26-0.77-.13-0.16.14v0.11l1.06,0.14h0Zm47.22-48.7-0.77-1.08-0.18.25,0.84,0.8,0.11,0h0ZM84,139.31H83.74l-0.54.75,0.07,0.22,0.21-.05,0.39-.58,0.09-.35h0Zm21.26-20.9,0.06,0.3h0.32l0.67-.7-0.87.24-0.17.14h0Zm-17,12.49,0.61-.42,0-.21-0.19,0-0.46.34,0,0.11,0.11,0.24h0ZM85.47,134l0.67-.46v-0.38l-0.64.49,0,0.36h0Zm15.44,26.56,0.19-.22-0.14-.2-0.54,0-0.14.16,0.16,0.25,0.22,0h0.25ZM101,162.7l-0.31-.12-0.33,0-0.14.1,0.12,0.17,0.83,0.32,0-.16-0.2-.27h0Zm24.23-53.16,0.67-.09,0.26-.32-0.91.14-0.16.1,0.14,0.17h0Zm15.65,40.79-0.33.71,0.82-.61-0.49-.1h0Zm-39.58,21-0.63-.19,0.68,0.49-0.05-.31h0ZM82.11,141.42l0.71-.5-0.07-.28-0.2.08-0.44.7h0ZM120.39,114l-0.44-.07-0.31.31,0.5,0.07,0.24-.31h0Zm13.54,37.24-1,.77,1-.59,0-.18h0Zm-3.07,4.3,0.18-.28-0.47,0-0.55.43,0.38-.12h0.46Zm-18.37-1,0,0.12,0.2,0.21,0.41-.16-0.08-.29h-0.31l-0.18.12h0Zm19.7-.89-0.68.44,0.56-.06,0.1,0,0.12-.17-0.1-.17h0ZM37.26,200.44l0.31,0.28,0.4,0.41,0.06,0L38,200.89l-0.43-.54-0.28.09h0ZM149.73,138l-0.68.41-0.07.42,0.21-.08,0.13-.19,0.21-.27,0.2-.29h0Zm-68.89,5.72,0.29-.16,0.25-.52-0.2,0-0.33.69h0Zm68.32-16.39-0.09,0-0.06.15,0.25,0.61,0.1,0,0.13-.16v-0.13l-0.31-.45h0Zm-20.74-15.68,0.64-.14,0.09-.18-0.41-.06-0.32.37h0Zm-46,27.23,0.62-.39,0-.2-0.18,0-0.41.55h0Zm0.31-1.27-0.06-.06-0.11,0-0.31.48,0,0.14,0.11,0,0.34-.56h0Zm20.44-18.26,0.55,0.06,0.27-.32-0.82.26h0ZM67.39,175.32l-0.84.55,0.09,0.1,0.75-.64h0Zm22.11-45.91,0.14,0,0.34-.64-0.41.25-0.08.4h0Zm-12,36.92-0.26-.16-0.17.14-0.07.22,0,0.11,0.2,0,0.28-.34h0ZM20.13,185.78l0.49-.39-0.25-.17-0.25.32v0.25h0Zm88.29-68.05-0.41.17,0,0.1,0.14,0.13,0.36-.29,0-.11h0ZM81.26,157.47L81,156.88l-0.1,0,0,0.15,0.43,0.48h0Zm-3.53,9.59,0.59,0.21-0.17-.38L78,166.8l-0.23.26h0Zm59.17-55.78,0.34,0.43,0.17,0v-0.11l-0.33-.48-0.11,0-0.08.18h0Zm-2.35-1.54-0.2-.34-0.33,0,0.22,0.37h0.31ZM99.7,165.58l-0.07-.26-0.34-.08-0.09,0,0.05,0.2,0.44,0.11h0Zm50.87-28.68-0.59.3,0,0.14h0.11l0.5-.43h0ZM87,132.56l-0.53.38,0.24,0.13,0.29-.51h0ZM67.74,175.11l0.61-.44-0.61.44h0Zm35.65-58.77,0,0,0.58-.46-0.63.41h0ZM83.3,142.28l0.42-.3-0.42.3h0ZM143,147.94l0.22,0.06,0.15-.11-0.12-.17-0.28.15,0,0.08h0ZM87.54,133.62l0.47-.33-0.47.33h0ZM119.27,114l-0.17-.06-0.28.19,0,0.11,0,0.06,0.42-.3h0Zm8.15-2.47,0.32,0,0.08-.05-0.07-.19-0.36.12,0,0.1h0Zm-18.2,6.22,0.15,0.26,0.26-.18-0.41-.08h0ZM127.07,112l-0.5.33,0.5-.33h0ZM85.69,157.83h0.14l0.16-.14,0-.2-0.08-.06-0.15.1,0,0.31h0Zm-10,8.94,0.43-.32-0.43.32h0Zm-0.71,3.07,0-.09-0.22-.16-0.15.14,0.13,0.11h0.21Zm70.5-25.28,0.19-.14v-0.16h-0.11l-0.19.12-0.09.23,0.2,0h0ZM111,117l0.13,0.24,0.28-.19L111,117h0ZM88.52,163.31V163.2l-0.28-.13-0.15.14,0.12,0.15,0.29,0h0Zm-8.56-8,0-.1-0.25-.15-0.13.1,0.13,0.17,0.21,0h0Zm58.44-42.5-0.33-.48,0.33,0.48h0Zm-7.18,50.7-0.13-.25-0.28.21,0.4,0h0Zm16.65-32.43,0.4-.25v-0.07h-0.1l-0.28.33h0Zm-57.12-2.79h0.11l0.27-.18,0-.1L91,128l-0.28.31h0Zm6.53-9.65-0.43.29,0.43-.29h0ZM28.4,201.19l-0.27.07,0.18,0.32,0.1-.4h0Zm106.24-91-0.05-.05-0.19.06,0,0.16,0.18-.07,0-.1h0Zm16.56,24.22-0.2,0-0.07.06,0,0.1,0.18,0,0.11-.16h0Zm-2.11-.85-0.17.07,0,0.09,0.1,0,0.14-.13,0-.06h0Zm-0.78-.84-0.18,0-0.11.18,0.17,0,0.12-.18h0Zm-15.22-21.16,0.09-.05,0-.1-0.17,0-0.07.14h0.1Zm13.84,20.92-0.18.07,0,0.09,0.07,0,0.16-.11v-0.07h0Zm0.26,0.73-0.07,0H147l-0.12.16,0.16,0,0.13-.16h0Zm0.49,1.43,0.08-.08,0-.08h-0.11l-0.14.16h0.15ZM126.14,112l-0.18.08L126,112.2l0.15-.14,0-.05h0Zm-1,.71v0.1l0.06,0.09,0.1,0v-0.18l-0.16,0h0Zm-1.69-.16,0.12-.18-0.21,0,0,0.16h0.1Zm0.29,0.48,0,0.1h0.1L124,113l0-.06-0.19.07h0Zm-1.63.68h0.11l0.09-.07,0-.1h-0.16l-0.08.17h0Zm-1.37-.13,0.11-.16-0.2,0,0,0.15h0.11ZM121.2,114l-0.37.15v0.16h0.11l0.25-.32h0Zm-14.69,3.6,0.2,0,0-.14-0.1,0-0.13.16h0Zm17.92,56h0.1l0.13-.15V173.4l-0.24.14,0,0.06h0ZM87.58,131l-0.21.06,0,0.1,0.18,0,0.07-.15h0Zm-3.14,5.32-0.31.2,0.31-.2h0ZM100.88,165l-0.24-.11,0,0.1,0.17,0.12,0.07,0,0-.1h0ZM82.44,139.71l-0.19.09,0,0.1h0.11l0.16-.15,0-.06h0Zm0.69,3-0.2.05,0,0.14,0.1,0,0.13-.17h0Zm0.44,3.71h0.11l0.08-.06,0-.15-0.18.06,0,0.15h0Zm-3.92,11.11,0.11-.14-0.12-.09-0.12.15,0,0.07,0.1,0h0Zm31.53-45.13,0.3-.19-0.3.19h0ZM77.52,169.29l0.1-.06,0-.11H77.46l0,0.15h0.11Zm-1.25.35,0,0.11h0.11l0.15-.14,0-.06-0.2.08h0Zm-1.27,1L75,170.5H74.79l0.05,0.18H75ZM25.14,187.43l-0.09-.19-0.11,0,0,0.11,0.15,0.15,0.06,0h0ZM33,199.7l0,0.21,0.11,0v-0.18l-0.15,0h0Zm85.09-84.55,0.12-.15L118,115l0,0.13h0.1ZM141.33,116l-0.08-.07-0.1,0V116l0.17,0.13,0-.15h0Zm7.62,14.55,0.21,0,0-.14-0.1,0-0.13.17h0Zm-26-17.49v0.08l0.06,0-0.07,0h0Zm-9.79,65.48H113l0,0.06,0.06-.08h0Zm-3.79-64.81v-0.07l-0.07,0,0.07,0h0Zm-2.94,57.66v0.08l0.07,0-0.07,0h0Zm22.77-59.2v0.08l0.07,0-0.07,0h0Zm-1.59-3.08-0.05-.09,0,0.08h0.09Zm-17.94,68.63v0.08l0.07,0-0.07,0h0Zm20.08-65.88h0.08l0-.06,0,0.06h0Zm-45.8,29.7H84l0-.08H83.94l0,0.08h0Zm15.72,22.87-0.08,0,0.07,0.12,0-.09h0Zm32.59-52.86h-0.08l0,0.05,0.05-.06h0ZM147.41,132l0-.08-0.12.07h0.09Zm0.39,0.18v0.08l0.07,0-0.06,0h0Zm0.47-.61v0.08l0.07,0-0.07,0h0Zm1.44,1.29v0.08l0.08,0-0.07,0h0Zm-1-1.78,0-.07-0.12.07h0.08Zm2.86,2.88,0-.08,0,0.08h0.09ZM136.3,110.47l-0.09.05,0.08,0v-0.09h0Zm3.77,4.32V114.7l-0.07,0,0.07,0.05h0Zm0.65,0.6h0.07l0-.07,0,0.06h0ZM83.41,146.8H83.31l0,0.09h0.1l0-.09h0Zm-1.09.74,0.09,0,0-.09-0.09,0,0,0.09h0Zm-4.12-5.72H78.12l0,0.07,0-.07h0ZM79.65,146H79.57l0,0.06,0.05-.06h0Zm15.66,24h0.08l0-.07,0,0.07h0ZM79.53,147.52v-0.07l-0.07,0,0.06,0h0Zm4.16,5.93H83.61l0,0.06,0.05-.06h0Zm9.25-27.55H92.85l0,0.06,0.06-.08h0Zm-8.37,30.16,0-.09-0.12.07,0.09,0h0Zm-5.63-7.62,0.1-.06-0.08,0,0,0.09h0Zm6,9.38v-0.09l-0.08,0,0.08,0h0ZM87.47,162h0.09l0-.06-0.06.07h0Zm-2.29-2.69H85.09l0,0.06,0.05-.07h0Zm41.32,7.77,0-.09,0,0.08h0.09ZM123,162l0-.09,0,0.08H123Zm-12.38-49.55h0.09l0-.09h-0.09l0,0.08h0ZM79,157.09V157l-0.09,0v0.1l0.09,0h0Zm53.61-13.43v-0.08l-0.08,0,0.07,0h0Zm-54,14.09v0.1l0.07,0-0.08-.06h0Zm54.48-14.24v0.08l0.08,0-0.07,0h0Zm-54.2,24.95v0.07l0.06,0-0.06,0h0Zm-0.56-.34,0-.09-0.09,0,0,0.09,0.09,0h0ZM107.21,118h-0.09l0.06,0.09,0-.08h0Zm-30.14,49.5v-0.08l-0.07,0,0.06,0h0ZM92.57,128l-0.06-.11,0,0.09,0.09,0h0ZM73.88,170.34v-0.08l-0.07,0,0.07,0h0ZM74.36,171v0.07l0.06,0-0.06,0h0Zm49.59,2.68-0.06-.1,0,0.09h0.1Zm-57.64,3H66.22l0,0.06,0.06-.07h0Zm43.25-20.87v0.09l0.08,0-0.08,0h0Zm19.05,1.51v-0.08l-0.09,0,0.07,0h0Zm-26.2-37.7,0.09,0,0-.08h-0.09l0,0.08h0Zm4.12,35.12v0.09l0.06,0-0.07-.05h0Zm31.18-13.17v-0.08l-0.08,0,0.07,0h0ZM87.33,132h0.07l0-.06,0,0.06h0Zm34.2-18.43,0-.1h-0.11l0,0.1h0.11Zm-2.1-2.92h0.08l0-.06,0,0.06h0ZM35.53,198.26H35.43l0,0.07,0.06-.07h0Zm-2.6.62,0.1,0,0-.1-0.09,0,0,0.1h0Z" transform="translate(-17.51 -107.76)"/><polygon class="cls-1" points="113.37 11.76 113.06 11.72 112.46 12.1 112.29 12 111.12 12.37 110.13 12.86 109.98 12.77 109.93 12.82 110.14 12.82 110.14 13.04 109.6 13.43 108.58 13.93 108.18 14.06 108.59 13.89 108.78 13.98 109.1 13.84 109.29 13.87 109.3 14.1 109.25 14.2 107.36 14.79 105.75 15.55 105.11 15.71 104.66 15.55 103.84 15.95 103.19 16.19 102.02 16.71 101.36 16.93 100.74 17.24 100.2 17.45 99.14 17.92 97.98 18.46 96.96 19.07 96.51 19.17 95.62 19.71 94.99 20.01 94.47 20.27 93.17 21.09 92.83 21.17 92.63 21.27 89.57 23.39 89 24.01 87.83 25.13 87.03 26.13 86.41 26.96 86.21 26.98 86.31 26.54 87.19 25.31 88.03 24.17 89.48 23.1 89.7 22.76 90.26 22.55 93.81 20.16 94.21 20.09 95.66 19.14 96.03 19.09 96.72 18.69 97.13 18.45 97.89 18.15 98.47 17.81 99.15 17.58 100.01 17.25 100.81 16.75 101.23 16.57 101.91 16 101.99 15.92 101.95 15.91 102.16 15.99 102.72 15.94 103.6 15.59 104.98 14.96 105.41 14.78 106.33 14.3 106.37 14.2 106.21 14.17 105.34 14.49 104.73 14.81 104.75 14.39 105.56 13.97 105.6 13.87 105.42 13.85 104.31 14.2 103.75 14.23 103.87 14.03 104.7 13.62 105.8 13.26 106.89 12.85 107.64 12.56 108.3 12.34 108.83 12.09 109.28 12.14 109.21 12.33 108.91 12.52 108.25 12.73 107.6 12.99 107.28 13.11 106.63 13.36 105.99 13.85 106.77 13.63 107.53 13.37 107.19 13.86 107.95 13.67 108.58 13.36 109.13 13.19 109.29 13.03 109.09 12.8 109.42 12.48 109.63 12.39 110.55 12.21 111.42 11.91 112.31 11.62 113.4 11.22 113.84 11.28 113.37 11.76 113.37 11.76"/><polygon class="cls-1" points="87.44 26.98 87.18 26.57 87.22 26.46 88.22 25.65 89.16 24.78 90 23.99 90.85 23.36 91.07 23.35 91.14 23.56 90.46 24.19 90.3 24.5 89.45 25.33 89.67 25.27 90.45 24.76 91.95 23.88 92.64 23.48 93.33 23.04 94.02 22.62 94.46 22.5 95.57 21.8 96.7 21.22 97.89 20.47 98.92 19.95 99.33 19.73 101.37 18.36 101.79 18.27 102.75 17.75 102.85 17.75 101.18 18.98 100.79 19.07 99.98 19.63 99.72 20.01 99.51 20.16 99.01 20.3 96.33 22.09 93.72 23.86 93 23.68 92.72 23.79 90.56 25.21 89.63 25.66 88.92 26.08 88.31 26.07 87.44 26.98 87.44 26.98"/><path class="cls-1" d="M133.37,119.76l-0.72.35-0.94.27-1.34.58,0,0.5-0.74.31-0.53.22-0.33.12-0.85.37-0.75.3-0.25,0-0.67.41-0.47.11-0.79.49-0.45.1-1.37.87-0.91.29-0.33-.08-0.11-.29-0.37,0,0.06-.2,1.05-.47,0.9-.52,1-.4,1.52-.25,1.13-.5L128,122l-0.24-.2,0.14-.2,0.53-.22,1.51-.59,1.19-.45,0.54-.2,1.1-.35,0.56,0,0.08,0.09v0h0Zm-11.09,5,0.66-.4,0-.05-0.63.46h0Zm6.09-2.79,0.21,0,0.18-.12,0-.14h-0.11l-0.32.3h0Z" transform="translate(-17.51 -107.76)"/><path class="cls-1" d="M137.45,134.42l-1.14.79-0.21.35-2,1.25,0.59-.55,0.53-.4,0.57-.57,0.56-.43,0.62-.43,0.21-.38,1-.77,0.71-.74,0.54-.6,1.06-.82,0.41-.5,0.44,0.06-0.14.42,0.1,0.24-0.56.71-0.69.63-0.57.57-0.74.57-1.6,1.38-0.25.39-1,.76-0.47.52-0.45,0,0.07-.18,1.32-1,0.18-.15,1.27-1.18L138,134l0.93-.76-1.21.69-0.27.45h0Zm1.81-1.37,0.2-.36,0.61-.43V132.1h-0.13l-0.82.62,0.14,0.32h0Z" transform="translate(-17.51 -107.76)"/><polygon class="cls-1" points="101.99 15.92 101.79 15.85 100.71 16.26 99.78 16.83 98.7 17.13 97.72 17.48 96.67 17.98 96.64 18.44 96.17 18.77 95.75 18.85 94.5 19.64 94.07 19.72 93.17 20.27 92.31 20.61 91.56 20.93 90.93 21.2 90.69 20.99 91.09 20.84 91.49 20.6 92.14 20.39 93.07 19.85 93.46 19.77 94.41 19.18 95.04 18.9 95.53 18.62 95.78 18.2 95.95 18.05 97.15 17.31 98.02 16.99 99.16 16.7 99.88 16.41 100.17 16.02 101.25 15.62 102.22 15.21 103.24 14.79 103.73 14.87 103.19 15.3 101.95 15.91 101.99 15.92 101.99 15.92"/><polygon class="cls-1" points="96.59 12.37 96.49 12.56 95.97 12.82 95.11 13.15 94.26 13.52 93.4 13.87 92.54 14.2 91.06 14.87 90.35 15.13 89.41 15.73 89 15.95 87.77 16.59 86.02 17.79 85.73 17.63 85.82 17.4 87.94 15.94 88.25 15.78 89.1 15.42 89.5 15.34 89.85 14.95 90.59 14.64 91.22 14.36 91.55 14.24 93.19 13.66 93.49 13.48 94.3 13.01 95.17 12.68 96.03 12.35 96.59 12.37 96.59 12.37"/><polygon class="cls-1" points="89.21 17.08 89.44 17.32 88.61 17.91 87.67 18.39 86.11 19.42 84.7 20.21 84.3 20.46 83.3 21.14 83.06 21.5 81.6 22.67 80.4 23.91 80.05 23.81 80.17 23.61 80.96 22.77 81.78 22.11 82.71 21.24 83.56 20.45 84.14 20.08 84.97 19.66 86.92 18.36 88.25 17.66 89.21 17.08 89.21 17.08"/><polygon class="cls-1" points="105.87 48.4 106.14 48.18 109.69 45.72 109.97 45.31 111.11 44.48 112.14 43.55 113.16 42.71 113.33 42.45 113.95 41.76 114.56 41.06 115.38 40.23 115.56 40.18 115.62 40.38 114.71 41.43 113.67 42.67 113.12 43.11 112.03 44.15 111.1 45.03 110.05 45.78 109.11 46.47 108.05 47.21 107.95 47.28 107.74 47.56 107.11 48.03 106.17 48.46 105.87 48.38 105.87 48.4 105.87 48.4"/><polygon class="cls-1" points="107.23 36.29 107.43 35.98 107.66 35.91 107.86 35.6 109.81 34.2 110.03 33.82 112.19 32.26 112.43 31.89 113.23 31.43 113.35 31.61 110.76 33.6 110.52 33.96 109.65 34.61 108.75 35.28 108.52 35.63 106.99 36.77 106.72 37.16 105.75 37.9 105.17 38.47 104.26 39.17 104.15 39.16 104.47 38.51 105.84 37.5 105.85 37.49 106.05 37.16 107.23 36.29 107.23 36.29"/><polygon class="cls-1" points="104.35 11.96 104.36 12.18 104.2 12.32 102.62 12.74 102.3 12.85 101.32 13.23 99.83 13.89 99.5 13.96 98.02 14.69 97.63 14.93 96.38 15.55 95.5 16.13 95.08 16.35 94.96 16.34 95.01 16.17 96.84 14.9 97.81 14.5 98.75 14.04 98.97 13.96 99.78 13.5 100.64 13.13 101.71 12.68 102.69 12.33 103.82 12.05 104.4 11.97 104.35 11.96 104.35 11.96"/><polygon class="cls-1" points="99.67 18.36 98.05 19.27 97.54 19.61 97.35 19.92 96.32 20.36 93.81 21.84 92.65 22.64 92.41 22.68 92.46 22.36 94.74 20.69 95.14 20.58 96.97 19.43 98.71 18.49 98.91 18.38 99.48 18.26 99.66 18.38 99.67 18.36 99.67 18.36"/><polygon class="cls-1" points="117.97 18.6 118.18 18.8 118.07 18.99 117.86 19.06 117.66 19.11 115.87 20.28 115.14 20.63 114.72 20.83 113.97 21.29 113.47 21.41 111.1 22.97 110.43 23.06 112.31 21.68 112.73 21.58 113.97 20.8 114.39 20.71 115.38 20.1 116.41 19.56 116.82 19.33 117.97 18.6 117.97 18.6"/><polygon class="cls-1" points="106.53 8.35 106.66 8.09 107.44 7.86 108.44 7.58 111.02 6.9 111.59 6.81 114.26 6.52 114.83 6.55 114.8 6.73 113.55 6.95 112.05 7.15 109.53 7.63 109.21 7.76 108.78 7.91 106.98 8.39 106.53 8.35 106.53 8.35"/><polygon class="cls-1" points="82.92 23.97 82.72 24.29 81.88 25.24 81.11 26.11 80.68 26.65 80.17 27.28 79.74 27.81 78.99 29.11 78.91 29.16 78.72 28.92 78.82 28.59 79.34 27.82 80.45 26.34 81.37 25.3 82.22 24.36 82.41 24.07 83.05 23.56 83.25 23.21 84.44 22.36 84.58 22.43 83.98 22.97 83.72 23.37 82.92 23.97 82.92 23.97"/><polygon class="cls-1" points="119.1 40.94 119.45 40.95 119.66 40.87 120.37 40.11 121.91 38.22 122.06 38.44 120.7 40.33 120.45 40.56 120.02 41.11 119.16 41.89 118.47 42.67 117.95 43.13 117.76 43.13 117.73 43.02 118.18 42.11 118.82 41.14 119.1 40.94 119.1 40.94"/><polygon class="cls-1" points="92.52 16.77 93.3 16.5 93.42 16.72 91.76 17.77 91.33 17.88 89.86 18.9 89.18 19.53 88.83 19.83 87.98 20.46 87.14 21.26 86.72 21.66 86.44 22.02 86.23 22.07 86.14 21.86 86.67 21.27 87.32 20.61 87.99 20.15 88.2 19.85 88.49 19.72 89.24 19.01 92.52 16.77 92.52 16.77"/><polygon class="cls-1" points="102.04 20.17 103.49 19.2 104.13 18.95 104.75 18.63 105.69 18.2 106.33 17.95 106.65 17.82 107.62 17.43 108.77 16.91 109.84 16.48 110.13 16.58 110.13 16.54 109.1 17.02 108.32 17.51 107.79 17.74 107.47 17.86 106.29 18.33 105.25 18.8 104.48 19.08 104.1 19.32 103.06 19.82 102.23 20.23 102.05 20.14 102.04 20.17 102.04 20.17"/><polygon class="cls-1" points="97.78 13.13 96.73 13.76 95.85 14.03 95.63 14 95.66 13.78 96.2 13.59 96.69 13.27 97.21 13.01 97.76 12.83 98.3 12.61 98.84 12.44 100.06 12.06 101.25 11.62 102.13 11.35 102.46 11.38 102.33 11.66 101.25 12.08 100.27 12.43 97.93 13.1 97.78 13.13 97.78 13.13"/><polygon class="cls-1" points="103.69 43.62 104.49 43.54 107.5 43.87 107.68 44.01 107.68 43.97 107.06 44.17 104.63 45.78 104.07 45.72 104.2 45.53 105.86 44.43 106.12 44.2 106.29 44.28 106.31 44.2 106.12 44.23 105.95 44.09 104.14 43.89 103.9 43.83 103.7 43.58 103.69 43.62 103.69 43.62"/><polygon class="cls-1" points="75.85 30.56 75.27 30.96 74.78 31.78 74.24 32.8 73.93 33.8 73.66 33.57 74.26 31.95 74.58 31.36 74.94 30.67 75.46 30.54 76.65 28.43 77.5 27.19 77.61 27.18 77.67 27.25 77.65 27.48 76.78 28.84 75.85 30.56 75.85 30.56"/><polygon class="cls-1" points="111.96 9.27 111.47 9.57 109.57 10.1 107.8 10.64 106.93 10.95 106.15 11.17 105.26 11.43 104.35 11.96 104.4 11.97 104.23 11.69 104.52 11.33 105.6 10.95 106.6 10.68 107.69 10.32 108.46 10.09 109.11 9.86 110.01 9.66 110.9 9.41 111.79 9.18 111.95 9.3 111.96 9.27 111.96 9.27"/><polygon class="cls-1" points="97.22 11.88 97.13 11.69 97.34 11.43 97.56 11.36 98.34 11.15 98.97 10.88 100.95 10.22 101.94 9.91 102.93 9.58 103.55 9.43 103.62 9.61 103.01 9.94 101.47 10.44 100.05 10.93 99.6 11.05 98.51 11.44 97.44 11.88 97.22 11.88 97.22 11.88"/><polygon class="cls-1" points="114.99 25.76 114.51 25.62 115.26 25.07 115.56 24.88 116.76 24.03 117.61 23.4 120.01 21.72 120.61 21.36 120.77 21.38 120.74 21.49 118.83 22.84 118.07 23.39 116.56 24.67 114.99 25.76 114.99 25.76"/><polygon class="cls-1" points="105.49 12.22 105.55 12.04 106.42 11.73 107.19 11.48 108.17 11.29 108.67 11.05 109.37 11.03 111.22 10.48 112.14 10.43 112.23 10.72 110.39 10.99 109.28 11.35 107.6 11.76 105.94 12.28 105.49 12.22 105.49 12.22"/><polygon class="cls-1" points="69.67 38.81 69.55 38.9 69.34 38.91 69.26 38.71 69.63 37.35 70.32 35.37 71.16 33.84 71.38 33.8 71.13 34.67 70.89 35.07 70.31 36.47 69.86 38.04 69.67 38.81 69.67 38.81"/><polygon class="cls-1" points="119.54 35.44 119.75 35.07 120.38 34.58 120.63 34.19 120.82 34.21 120.8 34.44 120.02 35.43 119.55 35.78 119.16 36.05 118.41 37.08 117.72 37.85 116.99 38.43 116.47 39.03 116.36 39.02 116.33 38.94 116.68 38.35 117.11 37.8 117.75 37.3 118.05 37.06 118.59 36.16 119.54 35.44 119.54 35.44"/><polygon class="cls-1" points="102.25 13.93 101.99 14.14 100.92 14.57 99.86 15.04 98.6 15.62 98.14 15.73 97.05 16.4 96.49 16.5 96.39 16.47 96.43 16.36 97.62 15.68 98.14 15.43 98.7 15.28 99.28 14.91 100.03 14.6 100.88 14.26 101.6 13.89 102.25 13.93 102.25 13.93"/><polygon class="cls-1" points="81.38 27.04 81.32 26.84 81.43 26.53 82.19 25.78 82.87 24.99 83.41 24.38 83.98 23.8 84.36 23.36 85.22 22.78 85.11 23.25 84.29 23.91 84.09 24.23 83.56 24.69 83.11 25.22 82.13 26.35 81.35 27.04 81.38 27.04 81.38 27.04"/><polygon class="cls-1" points="82.73 34.16 82.95 34.06 83.01 34.26 82.71 35.51 82.5 36.64 82.48 38.74 82.38 39.42 82.17 39.29 82.09 38.48 82.1 37.55 82.12 36.62 82.28 35.71 82.73 34.16 82.73 34.16"/><polygon class="cls-1" points="100.22 29 100.3 28.8 103.18 26.83 103.8 26.61 105.34 25.64 105.73 25.65 105.72 25.85 105.08 26.1 103.29 27.26 102.8 27.39 100.65 28.86 100.22 29 100.22 29"/><polygon class="cls-1" points="119.98 37.8 120.51 37.37 121.19 36.64 121.4 36.66 120.99 37.23 120.58 37.64 120.06 38.26 119.62 38.79 119.08 39.39 118.23 40.34 117.7 40.49 117.61 40.43 117.66 40.25 117.84 40.11 118.39 39.67 119.14 38.8 119.61 38.29 119.98 37.8 119.98 37.8"/><polygon class="cls-1" points="93.07 17.82 93.66 17.76 93.65 17.92 92.95 18.17 89.68 20.44 88.74 21.35 88.42 21.48 88.66 20.91 90.67 19.43 93.07 17.82 93.07 17.82"/><polygon class="cls-1" points="116.42 41.1 116.66 41.34 116.19 41.98 115.97 42.24 114.97 43.35 114.85 43.54 113.24 44.67 113.12 44.67 113.2 44.48 114.01 43.67 114.83 43.02 114.99 42.86 115.73 41.98 116.42 41.1 116.42 41.1"/><polygon class="cls-1" points="98.26 31.86 98.08 31.68 98.16 31.47 99.76 30.37 100.13 30.3 101.21 29.63 101.51 29.76 101.32 30.02 101.2 30.05 100.92 30.1 98.26 31.86 98.26 31.86"/><polygon class="cls-1" points="112.77 14.87 113.48 14.51 114.18 14.08 115.49 13.65 116.39 13.14 116.87 13.18 116.79 13.36 116.29 13.64 115.53 13.94 115.11 14.13 114.47 14.4 113.97 14.71 112.99 15.07 112.77 14.87 112.77 14.87"/><polygon class="cls-1" points="85.86 24.54 85.33 25.17 84.88 25.7 84.4 26.28 84.17 25.98 84.27 25.71 84.97 25.02 85.72 24.29 85.92 24.01 86.57 23.57 86.73 23.7 86.72 23.8 86.58 23.98 85.86 24.54 85.86 24.54"/><polygon class="cls-1" points="89.64 53.78 89.7 53.59 90.55 52.97 91.48 52.32 91.72 51.94 93.56 50.61 93.84 50.59 93.24 51.13 92.61 51.59 92.39 51.95 89.76 53.79 89.64 53.78 89.64 53.78"/><polygon class="cls-1" points="79.88 51.15 79.03 50.55 78.08 49.69 77.1 48.88 76.96 48.7 77.03 48.16 77.28 48.38 77.77 49.03 78.32 49.48 78.93 50.01 79.55 50.53 79.92 50.97 79.88 51.15 79.88 51.15"/><polygon class="cls-1" points="112.73 33.33 113.14 32.83 113.64 32.88 112.76 33.6 111.85 34.26 111.52 34.73 110.34 35.55 110.23 35.54 110.22 35.37 110.76 34.77 111.5 34.21 112.16 33.73 112.73 33.33 112.73 33.33"/><polygon class="cls-1" points="88.93 53.3 88.73 53.58 88.55 53.47 88.58 53.26 89.61 52.43 89.82 52.11 91.19 51.08 91.42 50.73 92.04 50.4 91.75 50.96 91.14 51.43 90.53 51.9 90.3 52.26 88.93 53.3 88.93 53.3"/><polygon class="cls-1" points="113.69 36.98 115.28 36.77 116.88 36.6 117.34 36.58 117.47 36.79 117.06 36.94 116.67 37.17 116.71 37.18 116.17 37.03 113.9 37.23 113.69 36.95 113.69 36.98 113.69 36.98"/><polygon class="cls-1" points="99.66 18.38 100.89 17.75 102.38 17.08 103.16 16.96 102.86 17.3 102.1 17.57 101.47 17.87 100.42 18.37 99.85 18.47 99.67 18.36 99.66 18.38 99.66 18.38"/><polygon class="cls-1" points="119.14 10.59 119.34 10.66 119.78 10.48 120.04 10.66 119.93 10.86 119.38 11.03 118.41 11.37 117.45 11.73 116.47 11.99 116.38 11.93 116.37 11.97 116.83 11.62 117.22 11.41 117.59 11.37 118.27 10.94 118.22 10.93 118.62 10.95 119.18 10.6 119.14 10.59 119.14 10.59"/><polygon class="cls-1" points="70.86 44.9 70.99 45.21 70.85 48.1 70.71 48.64 70.54 48.51 70.52 46.2 70.56 45.49 70.84 44.9 70.86 44.9 70.86 44.9"/><polygon class="cls-1" points="109.48 8.54 109.39 8.31 111.63 7.84 112.3 7.67 112.59 7.78 112.43 8.04 111.41 8.25 109.59 8.57 109.48 8.54 109.48 8.54"/><polygon class="cls-1" points="75.47 42.91 75.08 43.02 76.23 40.38 76.42 40.31 76.48 40.5 76.47 40.62 76.35 40.94 75.47 42.91 75.47 42.91"/><polygon class="cls-1" points="101.88 44.29 102.15 44.14 103.57 44.27 104.95 44.31 105.12 44.45 105.04 44.64 104.94 44.69 102.17 44.45 101.88 44.28 101.88 44.29 101.88 44.29"/><polygon class="cls-1" points="118.06 29.76 117.68 30.21 117.27 30.5 116.95 30.95 115.55 31.95 115.44 31.94 115.44 31.77 116.34 30.88 117.74 29.85 118.06 29.76 118.06 29.76"/><polygon class="cls-1" points="70 40.14 70.19 40.25 70.21 40.36 70.17 40.71 69.96 41.74 69.96 42.78 69.65 42.99 69.57 42.06 70 40.14 70 40.14"/><polygon class="cls-1" points="104.32 10.11 104.58 9.86 105.57 9.55 106.01 9.41 106.89 9.18 107.06 9.43 105.87 9.82 104.73 10.26 104.32 10.11 104.32 10.11"/><polygon class="cls-1" points="121.93 35.29 122.75 34.62 123.12 34.18 123.34 34.16 123.47 34.33 123.44 34.44 122.58 35.38 122.29 35.59 122.05 35.66 121.94 35.24 121.93 35.29 121.93 35.29"/><polygon class="cls-1" points="96.8 43.18 95.75 42.91 94.78 42.54 95.13 42.18 96.65 42.98 96.8 43.18 96.8 43.18"/><polygon class="cls-1" points="119.74 37.48 119.57 37.77 118.83 38.49 118.65 38.64 118.44 38.67 118.29 38.52 118.4 38.33 119.2 37.49 119.6 37.31 119.74 37.48 119.74 37.48"/><polygon class="cls-1" points="116.19 8.35 115.81 8.6 114.35 8.93 114.27 8.87 114.31 8.58 116.1 8.29 116.18 8.38 116.19 8.35 116.19 8.35"/><polygon class="cls-1" points="81.35 27.04 81.39 27.14 80.95 27.8 80.54 28.47 80.3 28.55 80.22 28.52 80.53 27.71 81.38 27.04 81.35 27.04 81.35 27.04"/><polygon class="cls-1" points="120.16 11.71 120.12 11.84 119.38 12.35 118.96 12.22 119.88 11.55 120.16 11.71 120.16 11.71"/><polygon class="cls-1" points="119.92 35.87 120.52 36.16 120.72 36.63 120.53 36.73 120.09 36.41 119.66 36.44 119.92 35.87 119.92 35.87"/><polygon class="cls-1" points="118.27 10.94 118.07 10.87 117.63 11.04 117.39 10.88 117.4 10.77 118.39 10.29 118.35 10.28 118.74 10.34 119.02 10.42 119.03 10.38 118.22 10.93 118.27 10.94 118.27 10.94"/><polygon class="cls-1" points="94.92 43.49 95.77 43.81 95.87 44.02 95.7 44.09 94.83 43.91 94.73 43.79 94.92 43.49 94.92 43.49"/><polygon class="cls-1" points="121.94 35.24 121.15 35.69 121.14 35.6 121.87 34.74 122.06 34.75 121.93 35.29 121.94 35.24 121.94 35.24"/><polygon class="cls-1" points="108.38 42.92 108.19 43.05 107.74 43.07 107.05 42.97 106.88 42.84 106.88 42.82 107.3 42.69 108.3 42.86 108.38 42.94 108.38 42.92 108.38 42.92"/><polygon class="cls-1" points="92.23 44.16 92.57 44.22 93 44.34 92.86 44.71 92.36 44.47 92.23 44.16 92.23 44.16"/><polygon class="cls-1" points="84.05 48.59 83.78 48.75 83.51 48.63 83.56 48.44 83.84 48.26 84.03 48.29 84.09 48.47 84.05 48.59 84.05 48.59"/><polygon class="cls-1" points="83.83 19.2 83.16 19.77 83.05 19.76 83.06 19.59 83.83 19.2 83.83 19.2"/><polygon class="cls-1" points="111.2 37.06 111.48 36.87 111.92 36.9 112 37.15 111.2 37.06 111.2 37.06"/><polygon class="cls-1" points="93.41 49.56 92.66 50.07 92.52 50.02 92.55 49.91 93.41 49.56 93.41 49.56"/><polygon class="cls-1" points="98.45 43.61 98.37 44 97.89 43.72 98.12 43.53 98.45 43.61 98.45 43.61"/><polygon class="cls-1" points="116 5.64 116.78 5.54 116.85 5.62 116.85 5.61 116.07 5.69 116.01 5.6 116 5.64 116 5.64"/><polygon class="cls-1" points="116.01 5.6 115.72 5.81 115.31 5.71 115.39 5.54 116 5.64 116.01 5.6 116.01 5.6"/><polygon class="cls-1" points="120.6 18.57 120.45 18.81 120.02 18.71 120.14 18.53 120.6 18.57 120.6 18.57"/><polygon class="cls-1" points="115.85 12.04 116.11 11.88 116.37 11.97 116.38 11.93 116.12 12.07 115.86 12 115.85 12.04 115.85 12.04"/><polygon class="cls-1" points="110.13 16.58 110.52 16.41 110.13 16.54 110.13 16.58 110.13 16.58"/><polygon class="cls-1" points="107.68 44.01 108.06 43.85 107.68 43.97 107.68 44.01 107.68 44.01"/><polygon class="cls-1" points="103.2 45.38 103.59 45.26 103.21 45.37 103.2 45.38 103.2 45.38"/><polygon class="cls-1" points="105.87 48.38 105.48 48.52 105.87 48.4 105.87 48.38 105.87 48.38"/><polygon class="cls-1" points="80.63 51.56 80.28 51.45 80.28 51.35 80.42 51.34 80.62 51.59 80.63 51.56 80.63 51.56"/><polygon class="cls-1" points="113.69 36.95 113.4 37.11 113.29 37.1 113.38 36.92 113.69 36.98 113.69 36.95 113.69 36.95"/><polygon class="cls-1" points="112.47 12.06 112.62 12.28 112.39 12.27 112.47 12.06 112.47 12.06"/><polygon class="cls-1" points="112.5 10.04 112.31 10.06 112.33 9.98 112.49 10.08 112.5 10.04 112.5 10.04"/><polygon class="cls-1" points="111.95 9.3 112.15 9.27 112.13 9.35 111.96 9.27 111.95 9.3 111.95 9.3"/><polygon class="cls-1" points="112.85 36.27 112.8 36.33 112.77 36.28 112.85 36.27 112.85 36.27"/><polygon class="cls-1" points="117.28 13.16 117.34 13.1 117.37 13.15 117.28 13.16 117.28 13.16"/><polygon class="cls-1" points="102.05 20.14 101.84 20.13 101.89 20.08 102.04 20.17 102.05 20.14 102.05 20.14"/><polygon class="cls-1" points="119.02 10.42 119.25 10.44 119.14 10.59 119.18 10.6 119.03 10.38 119.02 10.42 119.02 10.42"/><polygon class="cls-1" points="117.27 7.02 117.07 7.06 117.08 6.97 117.27 7.06 117.27 7.02 117.27 7.02"/><polygon class="cls-1" points="119.06 8.36 118.85 8.34 118.91 8.29 119.05 8.4 119.06 8.36 119.06 8.36"/><polygon class="cls-1" points="70.84 44.9 70.92 44.57 70.91 44.57 70.86 44.9 70.84 44.9 70.84 44.9"/><polygon class="cls-1" points="66.61 39.57 66.58 39.38 66.66 39.4 66.56 39.56 66.61 39.57 66.61 39.57"/><polygon class="cls-1" points="68.14 42.21 68.1 42.03 68.22 42.05 68.12 42.21 68.14 42.21 68.14 42.21"/><polygon class="cls-1" points="71.73 47.42 71.77 47.6 71.66 47.58 71.75 47.43 71.73 47.42 71.73 47.42"/><polygon class="cls-1" points="112.41 55.33 112.38 55.13 112.47 55.15 112.36 55.32 112.41 55.33 112.41 55.33"/><polygon class="cls-1" points="102.89 13.76 102.82 13.73 102.9 13.69 102.89 13.76 102.89 13.76"/><polygon class="cls-1" points="85.87 39.58 85.8 39.53 85.87 39.49 85.87 39.58 85.87 39.58"/><polygon class="cls-1" points="110.94 47.45 110.76 47.48 110.73 47.4 110.94 47.46 110.94 47.45 110.94 47.45"/><polygon class="cls-1" points="108.38 42.94 108.56 42.9 108.53 43.03 108.38 42.92 108.38 42.94 108.38 42.94"/><polygon class="cls-1" points="83.2 38.36 83.23 38.15 83.28 38.21 83.18 38.35 83.2 38.36 83.2 38.36"/><polygon class="cls-1" points="64.61 22.65 64.34 22.83 64.17 23.5 64.18 23.73 64.25 24.05 64.18 24.3 63.67 24.72 63.36 24.62 63.42 24.28 63.48 23.96 63.59 23.8 63.51 23.78 63.53 23.96 63.47 24.29 63.4 24.63 63.08 25.23 62.85 26.01 62.77 26.07 62.62 25.92 62.88 24.68 63 24.35 63.8 22.38 64.24 22.04 64.39 21.73 64.79 21.54 65.17 20.85 65.77 19.58 66.06 19.43 66 19.91 65.45 21.19 65.46 21.31 65.64 21.34 65.83 21.21 66.25 20.25 66.51 19.6 66.99 18.7 67.4 18.41 67.71 18.49 67.72 18.45 67.5 18.68 67.45 18.97 67.47 18.91 67.07 19.22 66.78 19.95 66.43 20.69 66.44 20.8 66.45 20.77 66.07 21.83 65.28 21.92 65.2 22 65 22.62 64.57 22.64 64.63 22.31 64.73 22.14 64.64 22.13 64.68 22.32 64.61 22.65 64.61 22.65"/><polygon class="cls-1" points="70.74 15.79 70.34 16.1 69.4 17.93 68.77 19.17 68.36 19.29 69.42 17.09 70.22 15.68 70.62 15.43 70.73 15.84 70.74 15.79 70.74 15.79"/><polygon class="cls-1" points="71.3 16.94 71.38 16.61 72.01 15.49 72.68 14.42 73.1 13.73 73.35 13.49 73.71 13.59 73.67 13.7 72.77 14.9 71.59 16.89 71.3 16.94 71.3 16.94"/><polygon class="cls-1" points="70.73 15.84 71.09 15.55 71.56 14.75 71.99 14.36 72.25 14.34 71.66 15.2 71.13 16.09 70.57 17.1 70.19 17.82 69.99 17.89 69.82 17.73 70.75 16.01 70.74 15.79 70.73 15.84 70.73 15.84"/><polygon class="cls-1" points="67.71 18.49 67.95 18.25 68.37 17.57 68.53 17.82 66.97 20.92 66.45 20.77 66.44 20.8 66.85 20.48 67.21 19.73 67.5 19.02 67.47 18.91 67.45 18.97 67.67 18.74 67.72 18.45 67.71 18.49 67.71 18.49"/><polygon class="cls-1" points="61.55 27.33 61.58 27.81 61.33 27.76 61.31 27.56 61.53 27.32 61.55 27.33 61.55 27.33"/><polygon class="cls-1" points="60.05 31.79 59.85 31.5 59.97 31.05 60.17 31.16 60.15 31.71 60.06 31.79 60.05 31.79 60.05 31.79"/><polygon class="cls-1" points="9.99 87.06 9.95 86.86 10.27 86.32 11.19 85.9 11.4 85.98 11.37 85.91 11.19 85.94 11 85.81 9.37 85.8 9.11 86.14 8.79 86.02 9.5 85.41 10.47 85.28 12.44 85.77 13.86 86.55 14.61 87.58 14.6 87.73 14.55 87.82 14.35 87.86 13.82 87.24 12.9 86.37 12.46 86.25 12.48 86.48 12.94 86.82 12.93 86.93 12.85 86.97 12.62 86.93 10.98 86.48 10.32 86.78 9.95 87.05 9.99 87.06 9.99 87.06"/><polygon class="cls-1" points="5.65 86.61 5.79 86.92 6.01 88.34 6.61 88.55 6.79 88.68 8.11 90.59 8.21 91.04 8.74 91.97 8.73 92.08 7.89 91 7.81 90.67 7.62 90.54 7.54 90.14 6.67 88.97 6.54 88.92 6.6 89.6 7.15 90.49 7.23 90.89 8.17 92.38 8.03 92.62 7.83 92.55 6.99 91.42 6.94 90.96 6.58 90.11 6.18 89.41 5.96 88.72 4.83 86.99 5.15 87.06 5.5 86.89 5.67 86.61 5.65 86.61 5.65 86.61"/><path class="cls-1" d="M29.26,192.62l-0.27.11-1.15-.95-0.13.2-0.43,0-0.92-.62-2-.3-1.29.82H23l0-.07,0.46-.66,0.39-.28,1.48-.07L26.65,191l-0.14-.48-0.36-.18-0.33-.42,0-.18,0.76,0.51,0.8,0.66,0.79,0.67,0.67,0.64,0.4,0.39h0Zm-2.1-1.35v-0.09l-0.08,0v0.09l0.08,0h0Z" transform="translate(-17.51 -107.76)"/><polygon class="cls-1" points="21.04 101.4 21.01 101.7 20.64 101.98 20.54 102.17 21.72 102.06 22.47 101.61 22.59 101.79 22.47 102.09 21.55 102.49 18.84 102.22 18.05 101.74 16.93 101.14 16.84 100.92 17.18 100.95 17.92 101.29 19.95 101.77 21.06 101.4 21.04 101.4 21.04 101.4"/><polygon class="cls-1" points="20.66 105.41 20.33 105.35 19.99 105.05 19.03 104.62 18.79 104.37 19.12 104.33 20.3 104.82 21.2 105.12 22.28 105.06 23.07 104.8 23.25 104.6 23.75 104.12 23.94 103.7 23.69 102.69 23.73 102.53 23.84 102.56 24.27 103.25 24.06 104.42 22.86 105.27 21.8 105.37 20.77 105.36 20.66 105.41 20.66 105.41"/><polygon class="cls-1" points="18 102.38 18.21 102.36 18.3 102.41 19.32 103.32 19.95 103.78 21.44 104.01 21.4 104 21.72 104.05 22.15 103.9 22.07 104.32 21.51 104.44 18.29 103.5 18.31 102.79 18 102.35 18 102.38 18 102.38"/><polygon class="cls-1" points="22.57 99.48 22.72 99.66 22.9 99.95 23.26 101.4 23.23 101.98 23.11 102.14 22.96 101.99 22.76 100.62 22.5 100.27 22.4 100.27 21.66 101.14 21.04 101.4 21.06 101.4 21.05 101.2 21.19 101.03 21.86 100.57 22.22 100.02 22.59 99.48 22.57 99.48 22.57 99.48"/><path class="cls-1" d="M24.05,188.59l-0.21.05-1.09-.18-0.63.1-0.55.34-0.28-.18,0.15-.83,0.73-.17,0.1,0.3,1.57,0.34L24,188.63v0h0Zm-2.19-.34,0.09,0,0-.06-0.06.07h0Z" transform="translate(-17.51 -107.76)"/><polygon class="cls-1" points="4.45 84.02 4.28 83.73 4.43 83.4 4.68 82.88 4.69 82.53 4.94 82 5.42 81.66 6.51 81.67 6.58 81.87 6.51 81.92 6.28 81.92 5.96 81.9 5.17 82.42 5.4 82.68 5 83.03 4.42 84.02 4.45 84.02 4.45 84.02"/><polygon class="cls-1" points="12.97 84.39 13.38 85.19 13.07 85.15 12.42 84.44 12.32 84.39 10.74 83.2 10.68 82.89 11 82.96 11.93 83.64 12.7 84.34 13.01 84.4 12.97 84.39 12.97 84.39"/><polygon class="cls-1" points="18 102.35 17.8 102.42 17.12 102.37 17.17 102.39 16.7 101.9 15.11 100.98 15.04 100.78 15.22 100.65 15.84 100.91 16.04 101.2 17.68 102.06 18 102.38 18 102.35 18 102.35"/><polygon class="cls-1" points="17.57 99.95 17.59 99.56 18.22 99.6 18.98 99.16 19.64 98.71 19.6 99.21 18.8 99.7 17.57 99.95 17.57 99.95"/><polygon class="cls-1" points="7.18 85.11 7.03 85.88 6.8 85.7 7.03 84.56 7.49 84.24 7.61 84.22 8.39 84.41 8.46 84.6 8.38 84.64 7.82 84.59 7.18 85.11 7.18 85.11"/><polygon class="cls-1" points="21.44 104.01 21.29 103.72 21.41 103.51 21.94 103.31 23.23 102.81 23.49 102.97 23.01 103.48 22.7 103.38 22.45 103.32 21.4 104 21.44 104.01 21.44 104.01"/><polygon class="cls-1" points="21.27 99.25 21.34 99.34 21.49 100.23 21.42 100.44 20.98 100.17 20.13 100.27 20.09 100.07 20.9 99.67 21.28 99.25 21.27 99.25 21.27 99.25"/><polygon class="cls-1" points="9.74 89.16 10.02 89.72 9.98 90.1 9.73 90.27 9.66 90.09 9.73 89.63 9.44 89.15 9.37 88.23 9.53 87.95 9.64 87.93 9.7 87.99 9.74 89.16 9.74 89.16"/><polygon class="cls-1" points="5.67 86.61 5.53 86.41 5.54 86.08 5.7 85.2 6.01 84.97 6.12 84.96 6.19 85.13 5.9 85.71 5.78 86.43 5.65 86.61 5.67 86.61 5.67 86.61"/><polygon class="cls-1" points="21.69 96.52 20.95 95.44 20.68 94.96 20.84 94.93 21.74 96.12 22.1 96.4 22.13 96.5 21.98 96.59 21.69 96.52 21.69 96.52"/><polygon class="cls-1" points="22.59 99.48 22.05 98.62 21.84 97.77 21.95 97.81 22.53 98.63 22.68 99.31 22.57 99.48 22.59 99.48 22.59 99.48"/><polygon class="cls-1" points="15.54 100.08 15.64 100.02 17.11 100.28 17.18 100.37 17.18 100.35 16.89 100.56 15.77 100.34 15.55 100.05 15.54 100.08 15.54 100.08"/><polygon class="cls-1" points="7.19 87.56 7.13 87.36 7.6 86.45 7.78 86.5 7.26 87.5 7.16 87.56 7.19 87.56 7.19 87.56"/><polygon class="cls-1" points="2.99 81.9 2.63 80.75 2.71 80.66 2.67 80.66 3.02 81.81 2.94 81.89 2.99 81.9 2.99 81.9"/><polygon class="cls-1" points="21.28 99.25 21.02 98.75 21.23 98.54 21.34 99.16 21.27 99.25 21.28 99.25 21.28 99.25"/><polygon class="cls-1" points="4.5 85.28 4.58 85.09 4.78 85.04 4.82 85.22 4.64 85.43 4.5 85.28 4.5 85.28"/><polygon class="cls-1" points="15.09 99.8 14.98 99.85 14.88 99.83 14.6 99.48 14.61 99.36 15.08 99.82 15.09 99.8 15.09 99.8"/><polygon class="cls-1" points="2.94 81.89 3.11 82.19 3.11 82.3 2.99 81.9 2.94 81.89 2.94 81.89"/><polygon class="cls-1" points="3.63 83.08 3.43 82.78 3.63 83.08 3.63 83.08"/><polygon class="cls-1" points="4.42 84.02 4.57 84.31 4.54 84.4 4.43 84.38 4.45 84.02 4.42 84.02 4.42 84.02"/><polygon class="cls-1" points="15.55 100.05 15.27 100.05 15.09 99.8 15.08 99.82 15.36 99.83 15.54 100.08 15.55 100.05 15.55 100.05"/><polygon class="cls-1" points="6.53 80.88 6.73 80.85 6.72 80.94 6.54 80.84 6.53 80.88 6.53 80.88"/><polygon class="cls-1" points="9.95 87.05 9.98 87.23 9.9 87.22 9.99 87.06 9.95 87.05 9.95 87.05"/><polygon class="cls-1" points="17.18 100.37 17.37 100.32 17.34 100.46 17.18 100.35 17.18 100.37 17.18 100.37"/><polygon class="cls-1" points="7.16 87.56 7.2 87.73 7.09 87.71 7.19 87.56 7.16 87.56 7.16 87.56"/><polygon class="cls-1" points="3.67 83.71 3.63 83.51 3.72 83.52 3.63 83.7 3.67 83.71 3.67 83.71"/><polygon class="cls-1" points="3.63 83.7 3.62 83.92 3.56 83.87 3.67 83.71 3.63 83.7 3.63 83.7"/><polygon class="cls-1" points="3.68 84.56 3.69 84.34 3.75 84.4 3.65 84.56 3.68 84.56 3.68 84.56"/><polygon class="cls-1" points="32.38 79.81 32.69 79.9 33.63 79.42 33.78 79.27 34.12 78.96 37.15 76.79 37.55 76.33 37.96 76.43 37.26 77.04 36.6 77.53 35.88 78.11 36.31 77.95 37.68 77.05 37.82 77.11 37.69 77.29 36.57 78.3 35.89 78.77 35.09 79.3 34.12 79.48 32.79 80.4 32.28 80.44 27.23 83.95 27.3 83.65 27.77 83.29 29.51 81.94 29.98 81.63 30.41 81.29 31.59 80.65 31.8 80.27 32.43 79.82 32.38 79.81 32.38 79.81"/><polygon class="cls-1" points="42.28 73.85 42.51 73.45 45.04 71.76 44.94 72.19 45.37 71.97 46.93 70.92 49.7 68.95 50.13 68.82 50.11 68.93 49.86 69.17 46.86 71.22 45.43 72.25 45.13 72.44 44.62 72.36 42.85 73.47 42.58 73.84 42.28 73.82 42.28 73.85 42.28 73.85"/><polygon class="cls-1" points="41.41 73.3 41.14 73.71 39.22 75.11 38.94 75.46 38.71 75.52 38.54 75.81 38.26 76 38.06 75.92 38.05 75.7 38.4 75.4 40.19 74.11 40.42 73.73 44.39 70.99 44.5 71 44.49 71.09 44.24 71.33 41.41 73.3 41.41 73.3"/><polygon class="cls-1" points="32.43 79.82 32.24 79.54 32.34 79.32 35.6 77 36.23 76.42 36.33 76.45 36.39 76.65 36.16 76.9 34.55 78.07 34.09 78.39 33.61 78.92 32.38 79.81 32.43 79.82 32.43 79.82"/><polygon class="cls-1" points="28.39 83.93 28.47 83.49 29.55 82.88 29.71 82.59 30.49 82.22 31.11 81.6 31.77 81.53 31.75 81.61 28.39 83.93 28.39 83.93"/><polygon class="cls-1" points="42.28 73.82 41.78 74.42 40.62 75.22 39.55 75.71 39.38 76 38.57 76.25 38.67 76.03 40.32 74.95 40.95 74.66 41.42 74.18 41.99 73.77 42.28 73.85 42.28 73.82 42.28 73.82"/><polygon class="cls-1" points="28.83 81.58 28.91 81.4 31.09 79.86 31.48 79.73 31.26 80.04 29.05 81.55 28.83 81.58 28.83 81.58"/><polygon class="cls-1" points="28.57 81.77 28.46 81.97 26.34 83.44 26.12 83.45 26.21 83.25 28.34 81.79 28.57 81.77 28.57 81.77"/><polygon class="cls-1" points="23.73 85.84 23.81 85.55 24.22 85.43 25.66 84.57 25.57 84.8 24.18 85.77 23.68 85.83 23.73 85.84 23.73 85.84"/><polygon class="cls-1" points="36.72 76.29 36.92 76.21 36.96 76.26 36.8 76.4 36.68 76.4 36.72 76.29 36.72 76.29"/><polygon class="cls-1" points="107.34 61.67 107.52 61.53 107.95 61.38 109.17 61.15 108.76 61.52 107.42 61.74 107.34 61.66 107.34 61.67 107.34 61.67"/><polygon class="cls-1" points="119.04 52.15 119.48 51.83 119.59 51.85 119.6 52.02 119.22 52.22 119.04 52.12 119.04 52.15 119.04 52.15"/><polygon class="cls-1" points="108.88 63.45 108.7 63.48 108.7 63.4 108.87 63.48 108.88 63.45 108.88 63.45"/><polygon class="cls-1" points="112.03 60.98 111.84 61.01 111.86 60.92 112.02 61.01 112.03 60.98 112.03 60.98"/><polygon class="cls-1" points="127.83 15.02 127.06 15.44 126.27 15.92 126.11 15.87 126.14 15.77 127.59 14.82 127.83 15.02 127.83 15.02"/><polygon class="cls-1" points="13.65 93.64 14.74 95.15 14.75 95.37 14.66 95.36 13.64 93.95 13.69 93.64 13.65 93.64 13.65 93.64"/><polygon class="cls-1" points="59.77 56.45 59.87 56.04 60.09 56.04 60.17 56.28 59.77 56.45 59.77 56.45"/><polygon class="cls-1" points="60.69 55.59 60.53 55.26 60.71 55.19 60.76 55.27 60.69 55.59 60.69 55.59"/><polygon class="cls-1" points="60.99 58.09 61.33 58.56 61.25 58.58 60.99 58.09 60.99 58.09"/><polygon class="cls-1" points="94.46 56.29 94.66 56.22 95.99 56.55 96.09 56.73 96.03 56.79 94.6 56.46 94.47 56.28 94.46 56.29 94.46 56.29"/><polygon class="cls-1" points="100.68 57.4 100.49 57.54 98.99 57.27 99.14 57.13 100.61 57.34 100.68 57.42 100.68 57.4 100.68 57.4"/><polygon class="cls-1" points="94.29 57.27 94.19 57.32 93.08 57.08 92.84 56.84 92.84 56.83 92.94 56.78 93.95 56.97 94.28 57.27 94.29 57.27 94.29 57.27"/><polygon class="cls-1" points="97.98 58.45 97.28 58.32 97.98 58.45 97.98 58.45"/><polygon class="cls-1" points="94.28 57.27 94.78 57.2 94.85 57.39 94.77 57.43 94.29 57.27 94.28 57.27 94.28 57.27"/><polygon class="cls-1" points="97.33 58.33 96.62 58.2 97.33 58.33 97.33 58.33"/><polygon class="cls-1" points="98.51 58.37 97.94 58.44 98.12 58.33 98.51 58.37 98.51 58.37"/><polygon class="cls-1" points="95.4 55.61 95.79 55.68 95.4 55.61 95.4 55.61"/><polygon class="cls-1" points="96.68 58.21 96.29 58.14 96.68 58.21 96.68 58.21"/><polygon class="cls-1" points="101.63 51.99 102.31 52.05 103.93 52.2 104.83 52.35 104.79 52.54 104.68 52.58 102.14 52.36 101.71 52.2 101.63 51.99 101.63 51.99"/><polygon class="cls-1" points="87.91 61.66 88.2 62.08 87.99 62.13 87.1 61.91 85 61.18 84.8 60.95 85.02 60.89 86.47 61.31 86.8 61.3 87.02 61.58 87.69 61.7 87.91 61.66 87.91 61.66"/><polygon class="cls-1" points="90.18 46.38 89.87 46.41 88.25 45.58 88.59 45.34 89.99 46.1 90.18 46.38 90.18 46.38 90.18 46.38"/><polygon class="cls-1" points="88.88 56.67 88.77 56.61 88.8 56.55 88.89 56.58 88.88 56.67 88.88 56.67"/><polygon class="cls-1" points="83.45 58.17 83.67 58.02 84 58.08 84.29 58.49 83.59 58.34 83.45 58.17 83.45 58.17"/><polygon class="cls-1" points="17.5 104.16 17.71 104.14 18.1 104.78 17.51 104.11 17.5 104.16 17.5 104.16"/><polygon class="cls-1" points="90.79 60.85 90.57 60.91 89.21 60.61 88.97 60.35 89.18 60.3 90.51 60.58 90.79 60.85 90.79 60.85"/><polygon class="cls-1" points="90.46 59.61 91.59 59.77 91.72 59.81 91.95 60.05 90.81 59.89 90.68 59.84 90.46 59.61 90.46 59.61"/><polygon class="cls-1" points="90.12 59.55 90.5 59.62 90.12 59.55 90.12 59.55"/><polygon class="cls-1" points="92.88 60.22 93.25 60.29 92.88 60.22 92.88 60.22"/><polygon class="cls-1" points="92.55 60.16 92.93 60.23 92.55 60.16 92.55 60.16"/><polygon class="cls-1" points="92.22 60.1 92.6 60.17 92.22 60.1 92.22 60.1"/><polygon class="cls-1" points="91.9 60.04 92.28 60.11 91.9 60.04 91.9 60.04"/><polygon class="cls-1" points="96.27 54.73 96.08 54.76 96.09 54.67 96.26 54.77 96.27 54.73 96.27 54.73"/><polygon class="cls-1" points="96 59.77 96.38 59.84 96 59.77 96 59.77"/><polygon class="cls-1" points="95.67 59.71 96.05 59.78 95.67 59.71 95.67 59.71"/><polygon class="cls-1" points="77.87 56.31 77.98 56.27 79.18 56.89 79.07 56.93 78.52 56.78 77.87 56.31 77.87 56.31"/><polygon class="cls-1" points="76.69 56.6 76.47 56.75 76.31 56.61 75.72 56.09 75.94 56.07 76.69 56.6 76.69 56.6"/><polygon class="cls-1" points="75.77 56.1 75.39 56.03 75.77 56.1 75.77 56.1"/><polygon class="cls-1" points="82.32 55.24 82.61 55.65 82.32 55.63 82.32 55.24 82.32 55.24"/><polygon class="cls-1" points="81.64 56.32 81.42 56.47 81.13 56.05 81.5 56.16 81.64 56.32 81.64 56.32"/></svg>