<?xml version="1.0" encoding="utf-8"?>
<!-- Generator: Adobe Illustrator 15.0.2, SVG Export Plug-In . SVG Version: 6.00 Build 0)  -->
<!DOCTYPE svg PUBLIC "-//W3C//DTD SVG 1.1//EN" "http://www.w3.org/Graphics/SVG/1.1/DTD/svg11.dtd">
<svg version="1.1" id="Layer_1" xmlns="http://www.w3.org/2000/svg" xmlns:xlink="http://www.w3.org/1999/xlink" x="0px" y="0px"
	 width="379.5px" height="379.5px" viewBox="0 0 379.5 379.5" enable-background="new 0 0 379.5 379.5" xml:space="preserve">
<g id="wood_1_">
	<polygon fill="#232734" points="278.717,146.034 278.327,145.762 278.717,146.034 	"/>
	<polygon fill="#232734" points="173.858,293.65 173.952,293.597 173.862,293.544 173.858,293.65 	"/>
	<polygon fill="#232734" points="227.818,290.355 227.844,290.475 227.937,290.33 227.818,290.355 	"/>
	<polygon fill="#232734" points="273.147,283.137 273.048,283.196 273.141,283.25 273.147,283.137 	"/>
	<polygon fill="#232734" points="280.447,289.363 280.488,289.111 280.374,289.125 280.504,289.354 280.447,289.363 	"/>
	<polygon fill="#232734" points="204.903,289.339 204.927,289.461 205.046,289.434 204.903,289.339 	"/>
	<polygon fill="#232734" points="207.434,291.455 207.214,291.398 207.168,291.486 207.428,291.411 207.434,291.455 	"/>
	<polygon fill="#232734" points="193.383,313.275 192.834,313.17 186.724,308.58 186.1,308.404 182.417,305.712 182.274,305.671 
		182.271,305.849 184.544,307.616 186.212,308.828 186.827,309 193.157,313.737 193.739,313.894 199.361,318.093 199.867,318.274 
		200.838,319.206 201.506,319.399 203.729,321.085 206.197,322.815 199.836,317.836 199.319,317.713 193.383,313.275 	"/>
	<polygon fill="#232734" points="213.204,241.585 215.881,243.624 216.237,244.193 221.762,248.207 222.211,248.765 
		222.616,248.787 222.608,248.396 222.385,248.193 221.07,247.175 213.631,241.479 213.373,241.334 213.23,241.347 213.204,241.585 
			"/>
	<polygon fill="#232734" points="298.462,173.088 298.312,172.634 297.001,171.61 293.732,169.12 293.452,168.614 287.214,163.87 
		287.119,163.902 287.178,164.041 287.285,164.143 291.805,167.693 292.07,168.152 298.462,173.088 	"/>
	<polygon fill="#232734" points="216.165,241.872 215.889,242.279 216.137,242.604 216.941,242.925 219.548,244.827 
		221.102,245.742 221.735,246.146 223.558,247.511 223.846,247.606 223.787,247.389 219.445,244.073 219.169,243.963 
		218.738,243.562 217.482,242.808 216.098,241.878 216.165,241.872 	"/>
	<polygon fill="#232734" points="296.062,184.625 296.041,184.895 297.061,185.787 299.05,187.333 299.293,187.802 302.947,190.7 
		303.206,191.169 304.206,191.956 304.448,191.951 303.755,190.956 301.137,188.86 300.813,188.325 297.649,185.841 
		296.943,185.271 296.454,184.733 296.014,184.637 296.062,184.625 	"/>
	<polygon fill="#232734" points="180.176,229.986 180.295,230.248 181.111,230.92 181.515,231.41 182.143,231.705 182.52,232.15 
		183.058,232.402 183.803,232.919 187.035,235.4 190.151,237.797 190.406,237.954 190.681,237.962 190.574,237.69 190.238,237.391 
		187.084,235.044 186.709,234.792 181.682,230.918 180.456,230.034 180.176,229.986 	"/>
	<polygon fill="#232734" points="304.463,216.683 304.484,216.405 304.397,216.287 296.734,210.388 296.11,209.979 295.961,209.979 
		298.909,212.483 299.899,213.324 300.721,213.936 301.984,214.795 302.369,215.289 302.783,215.38 304.526,216.675 
		304.463,216.683 	"/>
	<polygon fill="#232734" points="255.972,252.924 256.035,253.136 258.897,255.32 259.244,255.83 259.554,255.896 259.688,255.958 
		261.491,257.345 261.883,257.836 262.316,257.953 262.624,258.45 263.53,259.153 263.774,258.819 263.575,258.601 256.212,252.99 
		255.972,252.924 	"/>
	<polygon fill="#232734" points="242.644,118.766 242.37,118.233 241.573,117.853 241.314,117.705 236.731,114.248 235.379,113.282 
		235.064,113.198 235.38,113.554 237.543,115.201 241.88,118.486 242.386,118.809 242.637,118.715 242.644,118.766 	"/>
	<polygon fill="#232734" points="234.353,342.865 234.654,343.441 235.316,343.64 237.984,345.67 241.642,348.379 242.037,348.337 
		242.041,348.394 234.996,343.059 234.611,342.835 234.357,342.923 234.353,342.865 	"/>
	<polygon fill="#232734" points="288.728,147.026 288.309,146.911 287.584,146.435 287.371,146.077 286.914,145.711 
		285.925,145.391 286.653,146.105 289.104,147.878 289.461,147.967 290.535,148.696 291.651,149.456 291.709,149.379 
		288.728,147.026 	"/>
	<polygon fill="#232734" points="272.081,134.259 272.319,134.751 273.773,135.912 275.318,137.121 276.756,138.223 
		278.405,139.406 276.072,137.295 273.543,135.367 273.23,134.854 272.705,134.642 272.332,134.204 272.086,134.312 
		272.081,134.259 	"/>
	<polygon fill="#232734" points="271.809,134.104 271.851,133.84 271.646,133.623 266.866,129.979 266.368,129.869 264.844,128.892 
		264.868,129.143 265.946,129.974 266.453,130.292 268.114,131.287 271.86,134.095 271.809,134.104 	"/>
	<polygon fill="#232734" points="320.493,222.929 320.571,223.186 322.143,224.374 325.513,226.96 326.872,227.925 327.016,227.961 
		327.083,227.915 326.796,227.58 322.338,224.174 320.778,222.972 320.493,222.929 	"/>
	<polygon fill="#232734" points="296.014,184.637 296.061,184.372 295.739,184.061 293.31,182.149 293.066,181.68 290.136,179.541 
		290.155,179.643 290.474,179.959 292.604,181.629 292.881,182.148 295.615,184.537 296.062,184.625 296.014,184.637 	"/>
	<polygon fill="#232734" points="174.313,263.723 176.396,265.529 176.629,265.911 177.411,266.569 178.58,267.2 180.021,268.304 
		180.282,268.248 180.166,267.985 179.693,267.606 174.74,263.854 174.313,263.723 	"/>
	<polygon fill="#232734" points="280.879,247.821 280.911,247.961 287.167,252.692 287.311,252.693 287.274,252.548 
		286.964,252.237 281.551,248.089 280.879,247.821 	"/>
	<polygon fill="#232734" points="209.876,256.634 209.666,256.232 208.757,255.78 205.266,253.164 204.734,252.926 204.673,253.299 
		205.045,253.589 205.475,253.679 205.717,253.829 208.86,256.158 209.608,256.652 209.871,256.574 209.876,256.634 	"/>
	<polygon fill="#232734" points="308.608,162.075 309.19,162.558 309.604,163.096 309.994,163.356 310.166,163.598 313.05,165.8 
		313.294,165.825 313.249,165.677 311.018,163.909 310.761,163.426 308.871,162.046 308.613,162.134 308.608,162.075 	"/>
	<polygon fill="#232734" points="233.871,342.555 232.2,341.262 228.445,338.468 228.021,338.229 228.207,338.527 228.778,339.021 
		233.482,342.558 233.866,342.501 233.871,342.555 	"/>
	<polygon fill="#232734" points="317.011,238.539 316.511,238.668 320.506,241.67 319.665,240.835 318.771,240.152 317.955,239.42 
		317.735,239.091 317.011,238.539 	"/>
	<polygon fill="#232734" points="198.823,312.574 198.699,312.332 194.376,309.046 194.166,309.104 194.197,309.247 
		194.413,309.456 198.297,312.323 198.823,312.574 	"/>
	<polygon fill="#232734" points="219.959,308.41 219.796,308.161 217.21,306.38 217.118,306.263 216.739,306.439 216.876,306.692 
		218.121,307.542 218.513,307.757 219.707,308.383 219.959,308.41 	"/>
	<polygon fill="#232734" points="222.8,298.098 222.663,297.828 221.625,296.965 221.319,296.876 223.24,298.587 223.382,298.884 
		223.479,298.996 224.343,299.573 224.406,299.522 223.907,298.982 223.469,298.386 222.8,298.098 	"/>
	<polygon fill="#232734" points="248.037,117.353 248.658,117.982 252.459,120.701 252.456,120.612 248.14,117.333 248.037,117.353 
			"/>
	<polygon fill="#232734" points="314.229,166.379 314.026,166.071 313.63,166.13 313.787,166.376 317.23,169.022 317.687,169.22 
		315.955,167.708 314.229,166.379 	"/>
	<polygon fill="#232734" points="301.588,249.446 301.439,249.204 297.456,246.25 297.467,246.438 301.308,249.357 301.588,249.446 
			"/>
	<polygon fill="#232734" points="222.455,304.974 222.497,305.411 224.38,306.927 224.517,306.926 224.55,306.779 224.516,306.487 
		222.455,304.974 	"/>
	<polygon fill="#232734" points="279.334,146.532 279.378,146.68 283.091,149.505 283.244,149.528 283.021,148.922 282.781,148.78 
		282.121,148.437 279.578,146.556 279.334,146.532 	"/>
	<polygon fill="#232734" points="215.379,253.295 215.467,253.172 215.446,252.895 214.637,252.279 214.162,252.174 
		213.301,251.602 212.669,251.63 212.777,251.849 213.302,252.017 215.23,253.292 215.379,253.295 	"/>
	<polygon fill="#232734" points="227.035,120.907 226.879,120.632 226.428,120.521 225.18,119.718 225.222,119.879 225.547,120.182 
		228.446,122.392 228.642,122.361 228.605,122.217 227.599,121.385 227.346,120.986 227.035,120.907 	"/>
	<polygon fill="#232734" points="324.917,244.644 326.013,245.354 326.225,245.763 327.498,246.744 327.764,246.718 327.766,246.34 
		327.532,246.155 327.26,246.045 326.474,245.45 325.918,244.984 324.917,244.644 	"/>
	<polygon fill="#232734" points="297.217,153.608 297.274,153.747 300.725,156.46 300.939,156.425 300.76,156.177 297.498,153.7 
		297.217,153.608 	"/>
	<polygon fill="#232734" points="246.711,304.726 247.315,305.369 248.05,305.899 248.65,306.357 249.38,306.894 250.177,307.466 
		250.091,307.151 246.981,304.756 246.711,304.726 	"/>
	<polygon fill="#232734" points="209.871,256.574 213.332,259.196 213.535,259.154 213.488,259.015 210.263,256.584 
		209.876,256.634 209.871,256.574 	"/>
	<polygon fill="#232734" points="257.959,141.342 261.344,144.005 261.492,144.001 261.4,143.741 261.186,143.532 260.467,142.987 
		258.263,141.413 257.959,141.342 	"/>
	<polygon fill="#232734" points="256.782,324.638 256.843,324.782 260.1,327.257 260.255,327.277 260.183,327.047 257.031,324.669 
		256.782,324.638 	"/>
	<polygon fill="#232734" points="266.42,157.433 266.524,157.225 265.974,156.735 265.775,156.341 265.666,156.219 265.554,156.12 
		263.883,154.859 263.624,154.731 263.634,154.912 265.279,156.226 265.577,156.791 266.42,157.433 	"/>
	<polygon fill="#232734" points="251.141,331.958 252.41,332.442 252.427,332.235 251.076,331.276 250.019,330.732 249.808,330.836 
		249.836,330.981 251.141,331.958 	"/>
	<polygon fill="#232734" points="203.458,315.359 203.511,315.5 205.163,316.824 206.674,317.93 206.668,317.619 203.735,315.451 
		203.458,315.359 	"/>
	<polygon fill="#232734" points="226.85,301.591 227.787,301.796 226.462,300.981 224.982,299.86 224.837,299.86 224.81,299.942 
		224.867,300.077 226.85,301.591 	"/>
	<polygon fill="#232734" points="202.815,315.083 199.55,312.678 199.401,312.657 199.437,312.79 202.557,315.114 202.809,315.025 
		202.815,315.083 	"/>
	<polygon fill="#232734" points="197.342,247.646 197.404,247.779 200.392,250.068 200.54,250.086 200.544,249.987 197.448,247.632 
		197.342,247.646 	"/>
	<polygon fill="#232734" points="262.38,316.254 262.408,316.376 265.474,318.744 265.621,318.761 262.662,316.309 262.38,316.254 	
		"/>
	<polygon fill="#232734" points="219.741,295.867 219.252,295.154 216.968,293.419 216.824,293.391 216.806,293.581 
		218.799,295.159 219.483,295.904 219.737,295.812 219.741,295.867 	"/>
	<polygon fill="#232734" points="302.432,236.06 303.317,236.238 301.597,234.844 301.459,234.878 301.497,235.272 302.432,236.06 	
		"/>
	<polygon fill="#232734" points="207.393,243.965 207.249,243.564 205.264,242.01 204.782,241.419 204.751,241.801 204.917,242.047 
		207.393,243.965 	"/>
	<polygon fill="#232734" points="237.715,109.856 240.41,112.039 240.688,112.1 238.387,110.161 237.715,109.856 	"/>
	<polygon fill="#232734" points="295.188,244.59 293.928,243.486 293.46,243.385 293.084,243.092 292.833,242.743 292.65,243.173 
		294.192,244.071 295.188,244.59 	"/>
	<polygon fill="#232734" points="332.628,226.103 333.479,226.935 334.157,227.685 334.666,227.573 332.628,226.103 	"/>
	<polygon fill="#232734" points="172.473,260.634 171.207,259.792 171.239,260.342 172.399,261.29 172.549,261.306 172.473,260.634 
			"/>
	<polygon fill="#232734" points="231.093,304.658 231.444,305.099 233.863,306.776 233.815,306.638 231.238,304.66 231.093,304.658 
			"/>
	<polygon fill="#232734" points="203.405,238.83 203.357,238.681 200.819,236.782 200.665,236.769 200.757,237.003 203.174,238.823 
		203.405,238.83 	"/>
	<polygon fill="#232734" points="215.986,330.217 213.127,327.948 212.987,327.952 213.136,328.205 215.986,330.217 	"/>
	<polygon fill="#232734" points="303.096,227.96 301.751,226.749 301.152,226.17 300.96,226.422 301.105,226.688 302.146,227.557 
		302.551,228.03 303.096,227.96 	"/>
	<polygon fill="#232734" points="236.327,308.246 236.407,308.504 238.944,310.42 239.094,310.428 239.084,310.321 236.327,308.246 
			"/>
	<polygon fill="#232734" points="280.818,172.063 280.889,172.242 280.982,172.355 283.265,174.094 283.55,174.205 283.483,173.996 
		281.227,172.225 280.818,172.063 	"/>
	<polygon fill="#232734" points="284.546,282.543 284.544,282.086 283.181,281.121 282.826,281.335 283.313,281.907 
		284.546,282.543 	"/>
	<polygon fill="#232734" points="257.901,319.847 258.163,319.538 256.836,318.369 256.547,318.35 257.333,319.431 257.901,319.847 
			"/>
	<polygon fill="#232734" points="264.215,259.588 264.488,259.924 266.768,261.545 266.642,261.307 264.403,259.596 
		264.215,259.588 	"/>
	<polygon fill="#232734" points="201.51,265.246 200.451,264.565 200.35,264.952 201.405,265.773 201.554,265.792 201.51,265.246 	
		"/>
	<polygon fill="#232734" points="242.207,343.01 241.282,342.419 239.976,341.601 240.054,341.778 241.603,343.018 242.207,343.01 	
		"/>
	<polygon fill="#232734" points="260.737,294.792 260.827,295.063 262.447,296.166 262.598,296.171 262.575,295.679 
		262.455,295.588 261.012,294.786 260.737,294.792 	"/>
	<polygon fill="#232734" points="240.612,257.205 240.543,257.076 238.785,255.722 238.599,255.799 239.458,256.569 
		240.032,257.233 240.27,257.368 240.612,257.205 	"/>
	<polygon fill="#232734" points="245.754,309.687 245.704,309.544 244.636,308.716 244.368,308.746 244.265,308.998 
		244.926,309.591 245.754,309.687 	"/>
	<polygon fill="#232734" points="255.559,310.7 255.719,310.942 257.365,312.223 257.508,312.24 257.494,312.053 255.834,310.791 
		255.559,310.7 	"/>
	<polygon fill="#232734" points="289.729,288.619 289.046,287.908 288.525,288.07 289.398,288.835 289.729,288.619 	"/>
	<polygon fill="#232734" points="230.338,109.936 232.302,111.473 232.309,111.282 230.486,109.952 230.338,109.936 	"/>
	<polygon fill="#232734" points="268.921,154.424 268.733,154.417 268.505,154.577 268.761,154.847 269.52,155.515 269.655,155.494 
		269.762,155.221 268.921,154.424 	"/>
	<polygon fill="#232734" points="175.262,276.695 177.097,278.266 177.295,278.238 177.247,278.045 175.509,276.685 
		175.262,276.695 	"/>
	<polygon fill="#232734" points="251.142,136.568 251.011,135.876 250.508,135.589 249.931,135.504 249.933,135.714 
		251.142,136.568 	"/>
	<polygon fill="#232734" points="256.882,124.049 254.914,122.472 254.915,122.662 256.458,123.833 256.882,124.049 	"/>
	<polygon fill="#232734" points="324.82,180.715 324.805,180.812 326.679,182.245 326.793,182.236 326.743,182.097 324.82,180.715 	
		"/>
	<polygon fill="#232734" points="301.646,263.262 302.893,264.223 302.822,263.639 301.771,263.229 301.646,263.262 	"/>
	<polygon fill="#232734" points="242.596,343.271 242.649,343.408 244.15,344.614 244.418,344.632 244.378,344.491 242.596,343.271 
			"/>
	<polygon fill="#232734" points="200.048,258.089 200.144,258.328 201.561,259.388 201.837,259.47 201.732,259.232 200.194,258.104 
		200.048,258.089 	"/>
	<polygon fill="#232734" points="205.885,247.63 205.872,247.224 205.072,246.567 205.107,247.152 205.885,247.63 	"/>
	<polygon fill="#232734" points="192.473,236.658 192.436,236.228 191.643,235.842 191.002,235.496 190.964,235.575 
		192.473,236.658 	"/>
	<polygon fill="#232734" points="198.684,252.879 198.547,253.154 198.588,253.291 199.388,253.934 199.532,253.952 199.59,253.882 
		199.07,253.023 198.684,252.879 	"/>
	<polygon fill="#232734" points="194.614,237.165 195.209,237.559 195.677,238.132 195.942,238.111 195.597,237.363 
		194.614,237.165 	"/>
	<polygon fill="#232734" points="219.737,295.812 220.184,296.403 220.622,296.801 220.881,296.774 220.931,296.516 
		219.996,295.776 219.741,295.867 219.737,295.812 	"/>
	<polygon fill="#232734" points="207.562,318.042 207.587,318.27 209.044,319.361 209.324,319.433 209.271,319.292 208.83,318.886 
		207.562,318.042 	"/>
	<polygon fill="#232734" points="215.846,245.704 215.146,245.034 214.892,245.104 214.801,245.223 215.657,245.914 
		215.846,245.704 	"/>
	<polygon fill="#232734" points="174.039,266.192 174.514,267.06 175.057,266.999 174.039,266.192 	"/>
	<polygon fill="#232734" points="274.816,143.451 275.589,144.152 276.213,144.569 276.332,144.565 274.816,143.451 	"/>
	<polygon fill="#232734" points="175.982,281.868 175.938,281.637 175.581,281.401 174.896,281.263 174.805,281.353 
		175.361,281.907 175.982,281.868 	"/>
	<polygon fill="#232734" points="296.133,207.454 296.428,207.479 296.556,207.407 296.539,207.165 295.454,206.392 
		295.311,206.398 295.323,206.62 296.133,207.454 	"/>
	<polygon fill="#232734" points="222.117,137.915 221.776,138.175 222.051,138.472 222.502,138.778 222.729,138.809 
		222.788,138.551 222.638,138.317 222.117,137.915 	"/>
	<polygon fill="#232734" points="252.896,121.053 254.434,122.171 253.93,121.645 253.452,121.279 252.896,121.053 	"/>
	<polygon fill="#232734" points="173.982,225.603 173.99,225.716 175.304,226.697 175.297,226.353 175.064,226.072 173.982,225.603 
			"/>
	<polygon fill="#232734" points="185.184,262.077 185.184,262.479 185.617,262.939 185.858,262.913 185.889,262.768 
		185.184,262.077 	"/>
	<polygon fill="#232734" points="229.641,303.688 230.686,304.392 230.637,304.163 229.951,303.431 229.72,303.368 229.641,303.688 
			"/>
	<polygon fill="#232734" points="216.48,330.303 217.845,331.504 217.771,331.108 216.812,330.386 216.48,330.303 	"/>
	<polygon fill="#232734" points="295.744,272.194 296.199,271.992 295.324,271.269 295.162,271.479 295.576,271.888 
		295.744,272.194 	"/>
	<polygon fill="#232734" points="278.438,287.633 279.556,288.63 279.699,288.636 279.684,288.438 278.743,287.713 278.438,287.633 
			"/>
	<polygon fill="#232734" points="258.485,303.348 259.471,304.189 259.584,304.127 259.215,303.485 258.485,303.348 	"/>
	<polygon fill="#232734" points="227.458,249.975 227.614,249.667 227.457,249.444 227.319,249.397 226.744,249.296 
		226.674,249.371 227.458,249.975 	"/>
	<polygon fill="#232734" points="250.243,253.311 250.215,253.565 251.106,254.284 251.289,254.287 250.195,253.319 
		250.243,253.311 	"/>
	<polygon fill="#232734" points="174.119,230.055 174.034,229.407 173.679,229.475 173.63,229.598 173.756,229.844 174.119,230.055 
			"/>
	<polygon fill="#232734" points="210.915,244.004 210.982,243.826 210.081,243.098 209.941,243.095 210.915,244.004 	"/>
	<polygon fill="#232734" points="234.736,112.904 233.664,112.13 234.736,112.904 	"/>
	<polygon fill="#232734" points="175.571,228.009 176.41,228.818 176.687,228.82 176.598,228.549 175.571,228.009 	"/>
	<polygon fill="#232734" points="201.434,250.695 201.514,250.881 202.248,251.507 202.494,251.494 202.442,251.359 
		201.434,250.695 	"/>
	<polygon fill="#232734" points="233.514,251.86 232.278,250.948 233.514,251.86 	"/>
	<polygon fill="#232734" points="313.636,243.896 312.62,243.375 313.486,244.123 313.636,243.896 	"/>
	<polygon fill="#232734" points="221.302,249.609 221.734,250.021 222.086,250.449 222.261,250.093 221.561,249.578 
		221.307,249.669 221.302,249.609 	"/>
	<polygon fill="#232734" points="228.106,302.034 228.158,302.468 228.482,302.722 228.61,302.693 228.688,302.444 228.106,302.034 
			"/>
	<polygon fill="#232734" points="266.756,250.033 266.189,249.181 266.058,249.204 265.95,249.453 266.008,249.584 266.756,250.033 
			"/>
	<polygon fill="#232734" points="230.566,252.104 230.753,251.852 230.008,251.466 230.013,251.673 230.566,252.104 	"/>
	<polygon fill="#232734" points="237.015,253.294 236.453,253.398 236.721,253.758 237.099,253.817 237.107,253.529 
		237.015,253.294 	"/>
	<polygon fill="#232734" points="209.504,314.573 208.938,313.935 208.683,314.021 209.279,314.605 209.504,314.573 	"/>
	<polygon fill="#232734" points="240.304,311.336 239.557,310.708 239.5,310.757 240.304,311.336 	"/>
	<polygon fill="#232734" points="272.236,283.002 272.63,283.042 272.68,282.778 272.298,282.614 272.236,283.002 	"/>
	<polygon fill="#232734" points="249.717,318.676 250.277,319.103 250.485,319.031 249.871,318.449 249.717,318.676 	"/>
	<polygon fill="#232734" points="238.573,340.554 239.17,341.145 239.309,341.159 239.293,340.961 238.573,340.554 	"/>
	<polygon fill="#232734" points="260.431,314.6 260.999,315.032 261.145,315.027 261.14,314.835 260.567,314.403 260.427,314.388 
		260.431,314.6 	"/>
	<polygon fill="#232734" points="249.09,333.475 248.725,333.818 249.425,333.992 249.09,333.475 	"/>
	<polygon fill="#232734" points="259.47,132.12 258.724,131.508 258.669,131.563 259.47,132.12 	"/>
	<polygon fill="#232734" points="196.962,247.328 196.354,246.747 196.217,246.732 196.251,246.919 196.962,247.328 	"/>
	<polygon fill="#232734" points="243.763,119.425 244.371,120.036 244.514,120.046 244.509,119.849 244.032,119.496 
		243.763,119.425 	"/>
	<polygon fill="#232734" points="233.909,123.023 233.896,122.477 233.546,122.299 233.909,123.023 	"/>
	<polygon fill="#232734" points="221.307,249.669 220.475,249.086 220.327,249.071 221.053,249.691 221.302,249.609 
		221.307,249.669 	"/>
	<polygon fill="#232734" points="210.048,246.326 210.421,246.271 210.417,246.045 210.279,246.006 209.973,246.215 
		210.048,246.326 	"/>
	<polygon fill="#232734" points="172.895,231.476 172.935,231.856 173.174,231.863 173.211,231.72 173.014,231.398 172.895,231.476 
			"/>
	<polygon fill="#232734" points="208.896,243.444 208.943,243.88 209.029,243.966 209.161,243.916 208.896,243.444 	"/>
	<polygon fill="#232734" points="212.419,241.702 212.865,242.071 213.136,242.111 213.146,241.856 212.79,241.622 212.425,241.748 
		212.419,241.702 	"/>
	<polygon fill="#232734" points="220.742,252.099 221.101,252.519 221.241,252.521 221.228,252.321 220.742,252.099 	"/>
	<polygon fill="#232734" points="262.94,127.876 263.425,128.307 263.497,128.267 263.451,128.13 262.94,127.876 	"/>
	<polygon fill="#232734" points="262.54,127.588 261.988,127.193 262.54,127.588 	"/>
	<polygon fill="#232734" points="255,251.167 255.123,251.177 255.111,250.979 254.783,250.724 254.646,250.715 254.66,250.902 
		255,251.167 	"/>
	<polygon fill="#232734" points="272.414,254.322 272.63,254.637 273.013,254.853 272.414,254.322 	"/>
	<polygon fill="#232734" points="234.261,307.067 234.609,307.464 234.81,307.453 234.763,307.319 234.405,307.073 234.261,307.067 
			"/>
	<polygon fill="#232734" points="293.057,238.366 293.662,238.815 293.057,238.366 	"/>
	<polygon fill="#232734" points="336.62,183.649 337.268,184.124 336.62,183.649 	"/>
	<polygon fill="#232734" points="269.705,273.301 269.592,272.774 269.323,273.039 269.35,273.179 269.705,273.301 	"/>
	<polygon fill="#232734" points="258.497,312.989 257.964,312.564 258.497,312.989 	"/>
	<polygon fill="#232734" points="334.354,215.538 334.293,215.113 334.058,215.05 333.977,215.302 334.354,215.538 	"/>
	<polygon fill="#232734" points="268.395,321.231 268.315,320.79 268.078,320.733 268.001,320.86 268.395,321.231 	"/>
	<polygon fill="#232734" points="252.647,126.894 252.708,127.088 252.926,127.116 252.781,126.9 252.647,126.894 	"/>
	<polygon fill="#232734" points="203.528,252.438 203.71,252.443 203.555,252.234 203.421,252.232 203.438,252.341 203.528,252.438 
			"/>
	<polygon fill="#232734" points="191.528,241.363 191.762,241.211 191.713,240.993 191.488,241.135 191.528,241.363 	"/>
	<polygon fill="#232734" points="215.958,248.834 216.164,248.748 216.142,248.559 216.023,248.593 215.948,248.702 
		215.958,248.834 	"/>
	<polygon fill="#232734" points="277.164,168.973 277.376,168.9 277.369,168.688 277.241,168.725 277.152,168.832 277.164,168.973 	
		"/>
	<polygon fill="#232734" points="205.539,269.272 205.483,269.064 205.273,269.192 205.319,269.403 205.539,269.272 	"/>
	<polygon fill="#232734" points="224.906,248.506 225.042,248.51 224.972,248.316 224.746,248.281 224.906,248.506 	"/>
	<polygon fill="#232734" points="204.508,278.854 204.64,278.843 204.683,278.747 204.483,278.571 204.373,278.61 204.508,278.854 	
		"/>
	<polygon fill="#232734" points="284.153,174.744 284.281,174.753 284.211,174.57 283.992,174.53 284.153,174.744 	"/>
	<polygon fill="#232734" points="280.114,182.715 280.156,182.835 280.382,182.923 280.415,182.728 280.179,182.649 
		280.114,182.715 	"/>
	<polygon fill="#232734" points="228.952,253.32 228.828,253.361 228.727,253.587 228.914,253.626 229.008,253.396 228.952,253.32 	
		"/>
	<polygon fill="#232734" points="200.238,235.342 200.461,235.286 200.426,235.064 200.293,235.087 200.238,235.342 	"/>
	<polygon fill="#232734" points="206.864,245.1 206.988,245.109 206.992,244.906 206.729,244.865 206.864,245.1 	"/>
	<polygon fill="#232734" points="201.079,235.931 200.695,235.654 201.079,235.931 	"/>
	<polygon fill="#232734" points="308.613,162.134 308.122,161.893 308.608,162.075 308.613,162.134 	"/>
	<polygon fill="#232734" points="213.171,248.353 213.312,248.345 213.25,248.117 213.021,248.128 213.046,248.272 213.171,248.353 
			"/>
	<polygon fill="#232734" points="196.52,243.285 196.798,242.903 196.52,243.285 	"/>
	<polygon fill="#232734" points="215.848,241.256 215.971,241.705 216.165,241.872 216.098,241.878 216.311,241.621 
		216.315,241.646 215.794,241.264 215.848,241.256 	"/>
	<polygon fill="#232734" points="313.994,172.838 313.95,172.913 314.131,173.108 314.235,172.953 314.13,172.865 313.994,172.838 	
		"/>
	<polygon fill="#232734" points="178.357,233.321 178.49,233.318 178.428,233.118 178.212,233.109 178.24,233.244 178.357,233.321 	
		"/>
	<polygon fill="#232734" points="206.425,322.978 206.584,323.202 206.711,323.231 206.686,323.053 206.425,322.978 	"/>
	<polygon fill="#232734" points="263.747,249.065 263.973,249.244 264.238,249.312 264.22,249.192 264,249.033 263.751,249.124 
		263.747,249.065 	"/>
	<polygon fill="#232734" points="294.937,208.843 295.01,208.885 295.187,208.705 295.178,208.571 294.96,208.719 294.937,208.843 	
		"/>
	<polygon fill="#232734" points="268.758,251.671 268.892,251.677 268.825,251.48 268.604,251.457 268.758,251.671 	"/>
	<polygon fill="#232734" points="214.27,322.656 214.291,322.865 214.513,322.72 214.492,322.583 214.27,322.656 	"/>
	<polygon fill="#232734" points="271.986,253.676 271.865,253.466 271.673,253.458 271.725,253.585 271.836,253.674 
		271.986,253.676 	"/>
	<polygon fill="#232734" points="333.039,180.732 332.558,180.53 333.035,180.683 333.039,180.732 	"/>
	<polygon fill="#232734" points="333.035,180.683 333.247,180.87 333.512,180.902 333.394,180.671 333.039,180.732 333.035,180.683 
			"/>
	<polygon fill="#232734" points="175.846,232.14 175.969,232.146 176.013,232.061 175.839,231.887 175.707,231.915 175.846,232.14 	
		"/>
	<polygon fill="#232734" points="224.118,336.822 224.309,337.145 224.444,337.127 224.475,336.915 224.118,336.822 	"/>
	<polygon fill="#232734" points="296.703,245.709 296.698,245.794 296.902,245.949 296.994,245.928 296.941,245.805 
		296.703,245.709 	"/>
	<polygon fill="#232734" points="260.479,298.866 260.609,298.835 260.662,298.522 260.534,298.551 260.428,298.771 
		260.479,298.866 	"/>
	<polygon fill="#232734" points="307.3,261.369 307.09,261.523 307.12,261.715 307.326,261.58 307.3,261.369 	"/>
	<polygon fill="#232734" points="316.407,250.046 316.618,249.915 316.554,249.72 316.352,249.845 316.407,250.046 	"/>
	<polygon fill="#232734" points="304.432,268.026 304.617,268.361 304.818,268.267 304.799,268.131 304.432,268.026 	"/>
	<polygon fill="#232734" points="267.27,320.219 266.97,319.803 267.327,320.209 267.27,320.219 	"/>
	<polygon fill="#232734" points="267.327,320.209 267.398,320.582 267.647,320.634 267.515,320.386 267.27,320.219 267.327,320.209 
			"/>
	<polygon fill="#232734" points="274.086,313.067 274.342,312.706 274.086,313.067 	"/>
	<polygon fill="#232734" points="295.889,152.59 295.815,152.501 295.777,152.565 295.889,152.59 	"/>
	<polygon fill="#232734" points="224.24,247.884 224.283,247.984 224.395,247.983 224.348,247.883 224.24,247.884 	"/>
	<polygon fill="#232734" points="227.634,252.1 227.736,252.069 227.725,251.959 227.609,251.984 227.634,252.1 	"/>
	<polygon fill="#232734" points="289.693,179.157 289.613,179.198 289.7,179.247 289.693,179.157 	"/>
	<polygon fill="#232734" points="238.79,120.753 239.027,120.797 239.017,120.689 238.796,120.806 238.79,120.753 	"/>
	<polygon fill="#232734" points="242.637,118.715 242.899,118.782 242.88,118.66 242.644,118.766 242.637,118.715 	"/>
	<polygon fill="#232734" points="243.293,119.158 243.412,119.145 243.372,119.035 243.293,119.158 	"/>
	<polygon fill="#232734" points="245.108,120.441 245.075,120.32 244.948,120.332 244.979,120.459 245.108,120.441 	"/>
	<polygon fill="#232734" points="307.637,161.631 307.756,161.62 307.717,161.51 307.637,161.631 	"/>
	<polygon fill="#232734" points="199.352,237.672 199.28,237.583 199.24,237.651 199.352,237.672 	"/>
	<polygon fill="#232734" points="225.668,125.242 225.803,125.208 225.781,125.071 225.639,125.1 225.668,125.242 	"/>
	<polygon fill="#232734" points="203.927,239.236 203.878,239.128 203.769,239.139 203.812,239.241 203.927,239.236 	"/>
	<polygon fill="#232734" points="204.251,239.511 204.317,239.602 204.361,239.528 204.251,239.511 	"/>
	<polygon fill="#232734" points="276.955,145.064 277.03,145.157 277.07,145.088 276.955,145.064 	"/>
	<polygon fill="#232734" points="204.217,241.047 204.255,241.162 204.337,241.04 204.217,241.047 	"/>
	<polygon fill="#232734" points="273.02,152.796 273.062,152.874 273.105,152.793 273.02,152.796 	"/>
	<polygon fill="#232734" points="272.086,134.312 271.809,134.104 271.86,134.095 271.841,134.352 272.081,134.259 272.086,134.312 
			"/>
	<polygon fill="#232734" points="200.989,250.482 201.09,250.434 200.985,250.372 200.989,250.482 	"/>
	<polygon fill="#232734" points="202.809,315.025 203.063,315.103 203.051,314.987 202.815,315.083 202.809,315.025 	"/>
	<polygon fill="#232734" points="212.425,241.748 212.187,241.7 212.201,241.802 212.419,241.702 212.425,241.748 	"/>
	<polygon fill="#232734" points="256.316,249.094 256.444,249.075 256.404,248.955 256.316,249.094 	"/>
	<polygon fill="#232734" points="255.454,252.874 255.406,252.765 255.287,252.773 255.333,252.886 255.454,252.874 	"/>
	<polygon fill="#232734" points="318.722,170.007 318.796,170.1 318.836,170.032 318.722,170.007 	"/>
	<polygon fill="#232734" points="213.784,308.452 213.926,308.437 213.886,308.306 213.745,308.315 213.784,308.452 	"/>
	<polygon fill="#232734" points="199.977,240.858 199.99,240.759 199.842,240.767 199.857,240.886 199.977,240.858 	"/>
	<polygon fill="#232734" points="214.077,244.699 214.147,244.793 214.192,244.715 214.077,244.699 	"/>
	<polygon fill="#232734" points="215.507,311.087 215.502,311.258 215.635,311.243 215.607,311.109 215.507,311.087 	"/>
	<polygon fill="#232734" points="209.675,319.706 209.754,319.805 209.798,319.732 209.675,319.706 	"/>
	<polygon fill="#232734" points="214.782,317.171 214.866,317.102 214.797,317.063 214.782,317.171 	"/>
	<polygon fill="#232734" points="267.256,250.396 267.186,250.297 267.137,250.376 267.256,250.396 	"/>
	<polygon fill="#232734" points="268.218,251.131 268.162,251.042 268.116,251.121 268.218,251.131 	"/>
	<polygon fill="#232734" points="228.928,303.106 229.049,303.089 229.014,302.975 228.891,302.982 228.928,303.106 	"/>
	<polygon fill="#232734" points="324.342,180.327 324.257,180.376 324.345,180.425 324.342,180.327 	"/>
	<polygon fill="#232734" points="269.536,252.164 269.613,252.264 269.659,252.187 269.536,252.164 	"/>
	<polygon fill="#232734" points="207.938,258.305 207.929,258.462 208.043,258.437 208.025,258.318 207.938,258.305 	"/>
	<polygon fill="#232734" points="267.461,262.433 267.53,262.521 267.57,262.449 267.461,262.433 	"/>
	<polygon fill="#232734" points="273.688,255.392 273.784,255.347 273.681,255.287 273.688,255.392 	"/>
	<polygon fill="#232734" points="274.271,255.75 274.193,255.652 274.15,255.722 274.271,255.75 	"/>
	<polygon fill="#232734" points="304.526,216.675 304.489,216.933 304.602,216.916 304.463,216.683 304.526,216.675 	"/>
	<polygon fill="#232734" points="235.547,307.969 235.458,308.018 235.545,308.07 235.547,307.969 	"/>
	<polygon fill="#232734" points="218.186,247.943 218.289,247.882 218.194,247.823 218.186,247.943 	"/>
	<polygon fill="#232734" points="233.306,111.831 233.23,111.729 233.183,111.808 233.306,111.831 	"/>
	<polygon fill="#232734" points="223.048,334.688 222.797,334.639 222.814,334.749 223.042,334.643 223.048,334.688 	"/>
	<polygon fill="#232734" points="202.45,271.767 202.395,271.677 202.347,271.755 202.45,271.767 	"/>
	<polygon fill="#232734" points="303.668,236.597 303.789,236.572 303.753,236.456 303.628,236.464 303.668,236.597 	"/>
	<polygon fill="#232734" points="227.253,336.697 227.207,336.945 227.321,336.938 227.198,336.703 227.253,336.697 	"/>
	<polygon fill="#232734" points="251.616,308.079 251.54,307.981 251.496,308.054 251.616,308.079 	"/>
	<polygon fill="#232734" points="251.963,308.358 252.038,308.446 252.074,308.384 251.963,308.358 	"/>
	<polygon fill="#232734" points="302.38,243.295 302.493,243.26 302.481,243.139 302.361,243.172 302.38,243.295 	"/>
	<polygon fill="#232734" points="252.44,308.719 252.518,308.816 252.561,308.746 252.44,308.719 	"/>
	<polygon fill="#232734" points="338.646,200.196 338.766,200.179 338.608,200.083 338.646,200.196 	"/>
	<polygon fill="#232734" points="302.072,249.797 302.009,249.718 301.973,249.786 302.072,249.797 	"/>
	<polygon fill="#232734" points="272.268,148.874 272.394,148.834 272.378,148.703 272.249,148.742 272.268,148.874 	"/>
	<polygon fill="#232734" points="233.866,342.501 234.139,342.708 234.083,342.718 234.113,342.466 233.871,342.555 
		233.866,342.501 	"/>
	<polygon fill="#232734" points="234.139,342.708 234.114,342.963 234.353,342.865 234.357,342.923 234.083,342.718 
		234.139,342.708 	"/>
	<polygon fill="#232734" points="259.012,313.273 258.918,313.323 259.018,313.379 259.012,313.273 	"/>
	<polygon fill="#232734" points="259.429,313.757 259.549,313.745 259.502,313.636 259.429,313.757 	"/>
	<polygon fill="#232734" points="259.915,314.123 260.027,314.112 259.985,314.011 259.871,314.015 259.915,314.123 	"/>
	<polygon fill="#232734" points="280.729,289.573 280.447,289.363 280.504,289.354 280.479,289.613 280.723,289.516 
		280.729,289.573 	"/>
	<polygon fill="#232734" points="261.557,315.609 261.51,315.511 261.399,315.519 261.445,315.62 261.557,315.609 	"/>
	<polygon fill="#232734" points="268.307,313.639 268.431,313.603 268.3,313.511 268.307,313.639 	"/>
	<polygon fill="#232734" points="266.085,319.039 265.99,319.081 266.097,319.142 266.085,319.039 	"/>
	<polygon fill="#232734" points="301.774,276.339 301.7,276.246 301.658,276.317 301.774,276.339 	"/>
	<polygon fill="#232734" points="335.156,233.752 335.224,233.843 335.267,233.771 335.156,233.752 	"/>
	<polygon fill="#232734" points="260.157,155.646 260.388,155.636 260.459,155.378 260.226,155.381 260.157,155.646 	"/>
	<polygon fill="#232734" points="224.168,240.39 223.947,239.809 223.562,239.704 223.528,240.26 223.764,240.43 224.168,240.329 
		224.168,240.39 	"/>
	<polygon fill="#232734" points="270.829,246.568 270.598,246.679 270.575,246.927 270.805,246.82 270.829,246.568 	"/>
	<polygon fill="#232734" points="265.414,161.494 265.052,161.235 265.414,161.494 	"/>
	<polygon fill="#232734" points="189.325,249.003 189.053,248.944 189.086,249.063 189.316,248.94 189.325,249.003 	"/>
	<polygon fill="#232734" points="207.832,302.427 208.051,302.493 208.033,302.341 207.836,302.459 207.832,302.427 	"/>
	<polygon fill="#232734" points="209.542,302.227 209.296,302.19 209.312,302.303 209.538,302.198 209.542,302.227 	"/>
	<polygon fill="#232734" points="197.728,304.7 197.482,304.652 197.499,304.761 197.723,304.659 197.728,304.7 	"/>
	<polygon fill="#232734" points="349.275,193.078 349.512,193.541 351.35,194.937 351.498,194.958 351.68,194.757 351.528,194.518 
		350.97,194.331 349.963,193.627 349.689,193.072 340.938,186.448 345.134,189.922 349.275,193.078 	"/>
	<polygon fill="#232734" points="352.905,195.843 352.659,195.436 351.892,195.292 352.309,195.71 354.685,197.513 354.836,197.529 
		354.303,196.918 353.597,196.37 352.905,195.843 	"/>
	<polygon fill="#232734" points="342.46,212.261 341.727,211.594 341.727,212.052 342.461,212.771 343.004,213.472 343.125,213.557 
		343.4,213.616 343.6,213.413 342.46,212.261 	"/>
	<polygon fill="#232734" points="344.334,209.362 343.326,208.13 342.554,208.043 344.334,209.362 	"/>
	<polygon fill="#232734" points="350.87,214.377 350.088,213.725 350.416,214.464 350.67,214.563 350.87,214.377 	"/>
	<polygon fill="#232734" points="349.498,213.7 348.389,212.906 349.498,213.7 	"/>
	<polygon fill="#232734" points="348.751,200.935 349.552,201.52 348.953,200.925 348.751,200.935 	"/>
	<polygon fill="#232734" points="341.182,194.312 341.135,194.385 341.315,194.56 341.41,194.416 341.182,194.312 	"/>
	<polygon fill="#232734" points="345.818,198.282 345.805,198.384 346.005,198.536 346.099,198.493 346.067,198.363 
		345.818,198.282 	"/>
	<polygon fill="#232734" points="355.159,206.638 355.276,206.63 355.231,206.524 355.159,206.638 	"/>
	<polygon fill="#232734" points="356.122,207.375 356.236,207.366 356.189,207.264 356.122,207.375 	"/>
	<polygon fill="#232734" points="201.033,122.176 200.695,121.619 193.386,116.051 193.237,116.034 193.299,116.568 
		193.609,116.678 194.744,117.489 195.001,117.909 195.11,118.015 195.225,118.114 202.342,123.529 202.512,123.566 202.21,122.84 
		201.033,122.176 	"/>
	<polygon fill="#232734" points="187.171,100.395 187.733,101.271 188.65,102.055 191.165,103.974 191.869,104.805 192.326,104.893 
		192.623,105.359 193.295,105.964 193.534,106.15 197.142,108.911 197.569,109.114 196.29,107.866 194.852,106.771 194.494,106.215 
		193.885,106.011 193.519,105.505 188.468,101.505 188.167,101.032 187.171,100.395 	"/>
	<path fill="#232734" d="M286.269,191.734l5.063,3.879l1.918,1.49l0.401,0.501l0.369,0.085l0.833,0.826l1.024,0.888l2.263,1.723
		l2.225,1.997l-1.388-0.943l-5.88-4.556l-0.85-0.829l-1.356-0.86l-0.374-0.528l-1.371-1.015l-0.312-0.094l-0.264-0.402l-2.163-1.64
		l-0.245-0.013"/>
	<polygon fill="#232734" points="78.411,116.884 78.082,115.751 77.562,115.865 77.427,116.504 78.411,116.884 	"/>
	<polygon fill="#232734" points="76.218,118.736 76.195,118.524 74.314,117.074 74.037,117.013 74.188,117.255 76.062,118.715 
		76.218,118.736 	"/>
	<polygon fill="#232734" points="85.802,101.148 84.821,100.185 84.382,100.323 84.44,100.582 84.553,100.676 85.639,101.152 
		85.802,101.148 	"/>
	<polygon fill="#232734" points="76.051,111.354 76.598,111.333 76.579,111.206 76.226,111.016 76.051,111.354 	"/>
	<polygon fill="#232734" points="128.385,64.408 128.326,64.227 126.344,62.595 126.148,62.292 125.537,61.981 124.261,61.018 
		123.529,60.22 123.067,60.109 122.874,59.886 121.863,59.04 120.907,58.354 120.442,58.052 119.528,57.364 119.264,56.921 
		114.267,53.08 114.316,53.809 118.812,57.274 126.036,62.815 127.981,64.268 128.385,64.408 	"/>
	<polygon fill="#232734" points="161.346,61.4 161.111,61.001 160.87,61.252 161.147,61.599 163.54,63.473 170.437,68.714 
		175.492,72.605 176.848,73.583 177.135,73.626 177.059,73.362 176.833,73.162 170.896,68.67 162.916,62.596 161.346,61.4 	"/>
	<polygon fill="#232734" points="89.528,103.608 89.449,104.025 93.412,107.083 93.666,107.025 93.709,106.747 93.634,106.621 
		93.523,106.517 89.916,103.737 89.528,103.608 	"/>
	<polygon fill="#232734" points="192.053,76.621 191.378,75.875 190.822,75.197 190.063,74.54 189.354,73.976 188.518,73.329 
		187.876,72.839 187.572,72.858 187.615,73 188.569,73.954 188.871,74.283 191.637,76.388 192.053,76.621 	"/>
	<polygon fill="#232734" points="119.779,68.314 119.401,67.728 118.352,66.987 118.204,66.988 118.19,67.487 119,68.15 
		119.764,68.732 120.126,69.316 120.862,69.894 121.215,69.809 121.272,69.684 121.132,69.435 119.779,68.314 	"/>
	<polygon fill="#232734" points="158.209,48.917 157.201,47.954 156.131,47.117 155.18,46.371 154.1,45.546 152.957,44.864 
		153.098,45.141 154.403,46.17 157.774,48.726 158.209,48.917 	"/>
	<polygon fill="#232734" points="168.543,77.402 168.268,76.759 165.934,74.607 165.733,74.954 166.255,75.488 166.98,76.246 
		168.364,77.389 168.543,77.402 	"/>
	<polygon fill="#232734" points="137.242,70.978 136.566,70.376 136.228,70.08 134.223,68.286 134.074,68.285 134.07,68.492 
		135.183,69.704 136.847,71.008 136.988,71.044 137.235,70.926 137.242,70.978 	"/>
	<polygon fill="#232734" points="97.815,100.717 97.948,100.99 98.61,101.771 99.624,103.039 100.24,103.338 99.849,102.528 
		99.096,101.86 98.896,101.444 97.815,100.717 	"/>
	<polygon fill="#232734" points="202.296,92.787 202.212,92.536 199.055,90.17 198.82,90.172 198.869,90.322 202.146,92.766 
		202.296,92.787 	"/>
	<polygon fill="#232734" points="205.591,86.084 205.659,86.25 207.034,87.405 207.296,87.537 207.438,87.542 207.112,86.789 
		205.955,85.908 205.591,86.084 	"/>
	<polygon fill="#232734" points="106.028,75.882 106.82,76.656 106.801,76.252 106.642,76.001 104.967,74.705 104.751,74.729 
		104.793,74.869 106.028,75.882 	"/>
	<polygon fill="#232734" points="205.895,94.908 203.707,93.394 203.563,93.384 203.608,93.525 205.997,95.287 206.143,95.302 
		206.253,95.205 206.201,94.976 205.895,94.908 	"/>
	<polygon fill="#232734" points="205.279,85.874 205.231,85.727 202.565,83.783 203.298,84.528 204.263,85.257 205.279,85.874 	"/>
	<polygon fill="#232734" points="90.829,94.754 90.809,94.497 90.439,93.875 89.421,93.012 89.275,93.003 89.246,93.213 
		89.693,93.795 90.829,94.754 	"/>
	<polygon fill="#232734" points="176.75,64.525 176.423,63.757 175.322,62.968 175.18,62.965 175.31,63.22 175.982,63.99 
		176.75,64.525 	"/>
	<polygon fill="#232734" points="165.772,55.036 167.181,56.503 167.32,56.444 167.323,55.768 166.756,55.385 165.772,55.036 	"/>
	<polygon fill="#232734" points="132.322,40.987 132.318,41.094 133.812,42.323 134.052,42.299 134.021,42.153 132.471,40.987 
		132.322,40.987 	"/>
	<polygon fill="#232734" points="95.623,94.245 96.27,94.768 96.415,94.775 96.467,94.562 96.162,94.055 95.796,93.898 
		95.623,94.245 	"/>
	<polygon fill="#232734" points="89.362,122.012 89.655,121.647 89.475,121.44 88.823,121.286 88.745,121.533 89.362,122.012 	"/>
	<polygon fill="#232734" points="152.263,44.516 152.033,43.725 151.492,43.781 152.263,44.516 	"/>
	<polygon fill="#232734" points="220.592,96.732 219.635,96.42 220.257,97.021 220.592,96.732 	"/>
	<polygon fill="#232734" points="96.573,99.417 97.429,100.237 97.581,100.235 97.615,100.167 96.573,99.417 	"/>
	<polygon fill="#232734" points="150.111,42.781 151.213,43.54 150.157,42.697 150.111,42.781 	"/>
	<polygon fill="#232734" points="134.32,66.308 134.384,66.794 134.76,67.004 134.32,66.308 	"/>
	<polygon fill="#232734" points="206.648,95.375 207.518,96.165 207.722,96.118 207.665,95.981 206.802,95.388 206.648,95.375 	"/>
	<polygon fill="#232734" points="114.575,64.574 115.031,65.1 115.172,65.101 115.217,64.898 114.871,64.404 114.575,64.574 	"/>
	<polygon fill="#232734" points="225.48,100.823 225.484,101.344 226.021,101.258 225.48,100.823 	"/>
	<polygon fill="#232734" points="149.301,42.218 149.524,42.384 149.661,42.397 149.639,42.197 149.429,42.016 149.176,41.94 
		149.301,42.218 	"/>
	<polygon fill="#232734" points="213.962,92.312 214.182,92.225 214.068,91.988 213.812,91.854 213.596,91.886 213.643,92.023 
		213.962,92.312 	"/>
	<polygon fill="#232734" points="195.488,87.534 195.438,87.612 195.613,87.791 195.746,87.775 195.61,87.55 195.488,87.534 	"/>
	<polygon fill="#232734" points="203.012,93.097 203.151,93.102 203.088,92.909 202.857,92.877 202.892,93.014 203.012,93.097 	"/>
	<polygon fill="#232734" points="107.272,73.92 107.173,73.899 107.024,74.091 107.074,74.185 107.206,74.162 107.272,73.92 	"/>
	<polygon fill="#232734" points="112.611,68.25 112.83,68.18 112.693,67.945 112.481,68.011 112.611,68.25 	"/>
	<polygon fill="#232734" points="148.924,41.449 148.555,41.191 148.924,41.449 	"/>
	<polygon fill="#232734" points="186.535,72.343 186.463,72.239 186.412,72.322 186.535,72.343 	"/>
	<polygon fill="#232734" points="187.073,72.523 187.189,72.511 187.154,72.403 187.036,72.412 187.073,72.523 	"/>
	<polygon fill="#232734" points="137.235,70.926 137.474,70.976 137.453,70.873 137.242,70.978 137.235,70.926 	"/>
	<path fill="#232734" d="M144.363,66.43l4.375,3.396l0.356,0.56l2.928,2.339l0.293,0.496l14.67,11.235l0.104,0.106l0.055,0.15
		l-0.229,0.004l-2.938-2.159l-4.584-3.51l-2.528-1.946l-5.791-4.435l-1.658-1.535l-0.342-0.297l-4.082-3.165l-1.277-0.969"/>
	<polygon fill="#232734" points="182.443,97.306 183.157,97.243 182.137,96.487 182.443,97.306 	"/>
	<polygon fill="#232734" points="116.764,194.521 111.506,190.432 111.246,189.965 107.565,187.094 105.884,185.795 
		104.938,184.832 104.501,184.423 103.318,183.472 102.732,182.988 102.087,182.364 101.543,181.892 101.003,181.376 
		97.168,178.396 95.858,177.172 95.397,176.827 94.943,176.68 94.648,176.187 93.139,174.734 92.832,174.728 92.704,174.794 
		92.747,175.041 93.099,175.325 93.429,175.577 93.819,176.188 98.914,180.183 99.06,180.464 99.431,180.646 99.61,180.972 
		102.767,183.487 103.09,184.012 107.908,187.791 108.225,188.295 111.041,190.484 113.801,192.621 116.764,194.521 	"/>
	<polygon fill="#232734" points="71.763,147.51 72.272,147.643 74.375,149.136 74.841,149.214 77,150.73 77.092,150.55 
		74.865,148.845 73.826,148.411 71.54,146.7 70.938,146.539 69.346,145.424 68.831,145.302 66.545,143.68 66.058,143.562 
		64.522,142.609 64.5,142.801 66.45,144.243 66.697,144.415 68.938,145.748 69.508,145.896 71.763,147.51 	"/>
	<polygon fill="#232734" points="87.606,170.396 87.769,170.714 88.3,170.94 88.526,171.308 88.733,170.979 87.138,169.63 
		85.629,168.473 85.264,167.877 83.287,166.282 83.029,165.797 82.126,165.112 81.853,164.981 82.082,165.698 84.382,167.529 
		84.645,168.021 87.606,170.396 	"/>
	<polygon fill="#232734" points="75.509,155.219 75.814,155.956 77.061,156.949 79.827,159.017 80.084,158.944 80.174,158.827 
		80.049,158.562 79.348,157.997 76.037,155.399 75.509,155.219 	"/>
	<polygon fill="#232734" points="88.191,176.352 88.083,176.083 86.903,175.119 86.604,174.637 84.349,172.817 83.904,172.687 
		84.716,173.808 87.912,176.346 88.191,176.352 	"/>
	<polygon fill="#232734" points="108.454,192.659 108.972,192.771 111.551,194.608 108.933,192.399 108.793,192.346 
		108.495,192.295 107.92,191.913 105.59,190.244 105.432,190.215 105.502,190.42 106.199,190.998 108.454,192.659 	"/>
	<polygon fill="#232734" points="140.272,210.569 140.467,211.191 140.608,211.226 141.239,211.787 143.176,213.432 
		143.325,213.428 142.995,212.613 140.272,210.569 	"/>
	<polygon fill="#232734" points="151.207,216.401 151.77,216.337 151.271,215.808 147.671,213.141 147.532,213.146 148.52,214.052 
		149.688,214.991 150.728,215.785 151.207,216.401 	"/>
	<polygon fill="#232734" points="118.501,204.757 118.473,204.605 116.088,202.687 115.533,202.027 114.972,201.874 
		114.841,201.943 114.879,202.188 118.245,204.772 118.501,204.757 	"/>
	<polygon fill="#232734" points="151.532,213.907 151.58,214.048 155.262,216.863 155.771,217.093 155.271,216.571 151.663,213.91 
		151.532,213.907 	"/>
	<polygon fill="#232734" points="139.753,227.858 139.85,228.403 141.679,229.674 141.838,229.433 141.341,228.893 140.858,228.529 
		140.273,228.055 139.753,227.858 	"/>
	<polygon fill="#232734" points="70.626,137.235 70.021,137.291 70.077,137.417 71.63,138.604 72.771,139.015 71.646,137.998 
		71.038,137.815 70.626,137.235 	"/>
	<polygon fill="#232734" points="135.741,224.743 135.137,224.091 134.649,223.583 134.369,223.731 133.853,224.185 134.5,224.818 
		135.234,224.744 135.741,224.743 	"/>
	<polygon fill="#232734" points="142.52,206.661 143.334,207.53 143.698,208.152 144.32,208.366 144.488,208.552 144.736,208.601 
		144.789,208.463 144.719,208.188 142.671,206.671 142.52,206.661 	"/>
	<polygon fill="#232734" points="57.108,138.083 56.697,137.637 55.115,136.536 54.684,136.462 54.558,136.532 54.588,136.77 
		54.703,136.863 55.866,137.494 57.108,138.083 	"/>
	<polygon fill="#232734" points="131.707,209.477 131.536,209.237 128.649,207.064 128.502,207.045 128.602,207.286 
		131.345,209.406 131.707,209.477 	"/>
	<polygon fill="#232734" points="82.795,136.456 82.003,135.854 81.75,135.942 81.783,136.081 83.589,137.435 83.859,137.419 
		83.896,137.026 83.783,136.924 82.795,136.456 	"/>
	<polygon fill="#232734" points="133.411,243.263 135.895,245.352 136.17,245.368 136.055,245.106 133.688,243.283 133.411,243.263 
			"/>
	<polygon fill="#232734" points="139.678,249.293 140.332,249.579 141.04,250.309 141.352,250.105 141.218,249.852 139.921,248.875 
		139.772,248.873 139.647,249.125 139.678,249.293 	"/>
	<polygon fill="#232734" points="137.87,208.357 136.58,207.413 136.552,207.518 137.246,208.47 137.93,209.049 138.164,209.037 
		138.146,208.889 137.87,208.357 	"/>
	<polygon fill="#232734" points="115.937,197.52 113.478,195.615 113.59,195.869 115.937,197.52 	"/>
	<polygon fill="#232734" points="137.301,210.859 137.507,211.279 138.646,212.055 138.773,211.814 138.615,211.577 
		137.545,210.815 137.305,210.913 137.301,210.859 	"/>
	<polygon fill="#232734" points="65.721,147.638 65.255,147.604 65.132,147.674 65.153,147.922 66.231,148.808 66.443,149.123 
		66.741,148.869 66.158,148.219 65.721,147.638 	"/>
	<polygon fill="#232734" points="166.801,225.117 164.546,223.425 166.801,225.117 	"/>
	<polygon fill="#232734" points="140.602,216.346 140.906,216.657 142.703,217.993 142.851,218.002 140.602,216.346 	"/>
	<polygon fill="#232734" points="149.017,211.969 147.021,210.411 147.075,210.615 148.732,211.918 149.017,211.969 	"/>
	<polygon fill="#232734" points="72.824,158.969 72.775,158.806 70.914,157.341 70.766,157.332 72.408,158.801 72.824,158.969 	"/>
	<polygon fill="#232734" points="138.946,212.302 139.953,213.16 139.656,212.369 139.428,212.195 138.946,212.302 	"/>
	<polygon fill="#232734" points="77.403,167.783 78.415,168.605 77.956,167.659 77.403,167.783 	"/>
	<polygon fill="#232734" points="151.194,213.664 151.125,213.49 149.731,212.438 149.601,212.433 149.95,212.879 151.194,213.664 	
		"/>
	<polygon fill="#232734" points="113.072,195.327 112.738,194.924 111.891,194.737 112.216,195.146 112.35,195.202 113.072,195.327 
			"/>
	<polygon fill="#232734" points="154.266,224.038 154.236,223.792 154.14,223.686 153.169,223.045 153.025,223.028 153.029,223.125 
		154.117,224.051 154.266,224.038 	"/>
	<polygon fill="#232734" points="82.651,163.424 82.962,164.096 83.081,164.186 83.223,164.206 83.307,164.134 82.762,163.365 
		82.651,163.424 	"/>
	<polygon fill="#232734" points="102.294,188.272 103.609,189.235 103.559,189.085 102.294,188.272 	"/>
	<polygon fill="#232734" points="169.63,296.843 170.332,297.793 169.63,296.843 	"/>
	<polygon fill="#232734" points="134.611,235.693 133.596,234.986 134.611,235.693 	"/>
	<polygon fill="#232734" points="136.186,232.703 135.651,232.81 136.268,233.402 136.488,233.35 136.186,232.703 	"/>
	<polygon fill="#232734" points="164.496,293.083 165.683,293.882 164.496,293.083 	"/>
	<polygon fill="#232734" points="69.19,160.287 69.28,159.912 68.722,159.745 68.594,159.815 68.644,160.053 69.19,160.287 	"/>
	<polygon fill="#232734" points="59.795,144.341 59.265,144.394 59.635,144.828 59.773,144.84 59.879,144.619 59.795,144.341 	"/>
	<polygon fill="#232734" points="71.237,140.293 71.519,140.424 71.737,140.279 71.634,139.926 71.393,139.942 71.237,140.293 	"/>
	<polygon fill="#232734" points="73.619,159.899 73.567,159.474 73.483,159.365 73.026,159.495 73.619,159.899 	"/>
	<polygon fill="#232734" points="130.448,229.306 130.832,229.347 130.897,229.076 130.523,228.925 130.448,229.306 	"/>
	<polygon fill="#232734" points="134.385,227.57 133.996,227.165 133.855,227.149 133.887,227.344 134.385,227.57 	"/>
	<polygon fill="#232734" points="60.782,137.538 60.694,137.021 60.465,137.321 60.782,137.538 	"/>
	<polygon fill="#232734" points="147.775,227.077 147.668,226.562 147.45,226.875 147.775,227.077 	"/>
	<polygon fill="#232734" points="163.198,222.384 162.805,221.971 162.661,221.948 162.711,222.156 163.198,222.384 	"/>
	<polygon fill="#232734" points="147.414,253.012 147.184,253.532 147.416,253.637 147.529,253.42 147.414,253.012 	"/>
	<polygon fill="#232734" points="160.007,219.938 160.527,220.356 160.007,219.938 	"/>
	<polygon fill="#232734" points="156.729,217.837 156.13,217.446 156.462,217.751 156.729,217.837 	"/>
	<polygon fill="#232734" points="93.921,181.086 93.992,181.352 94.333,181.574 94.53,181.502 94.514,181.364 93.921,181.086 	"/>
	<polygon fill="#232734" points="159.371,218.159 159.585,218.075 159.47,217.845 159.226,217.7 159.022,217.751 159.05,217.887 
		159.371,218.159 	"/>
	<polygon fill="#232734" points="139.76,253.56 140.277,253.49 140.059,253.206 139.76,253.56 	"/>
	<polygon fill="#232734" points="164.188,223.131 163.624,222.69 164.188,223.131 	"/>
	<polygon fill="#232734" points="153.853,212.52 153.462,212.479 153.29,212.636 153.353,212.76 153.612,212.854 153.853,212.52 	
		"/>
	<polygon fill="#232734" points="135.992,250.628 135.684,250.179 135.446,250.214 135.587,250.461 135.992,250.628 	"/>
	<polygon fill="#232734" points="156.698,220.671 156.909,220.634 156.782,220.434 156.582,220.454 156.698,220.671 	"/>
	<polygon fill="#232734" points="77.589,138.169 77.557,137.964 77.357,138.095 77.375,138.293 77.589,138.169 	"/>
	<polygon fill="#232734" points="143.438,225.501 143.654,225.447 143.521,225.223 143.311,225.272 143.438,225.501 	"/>
	<polygon fill="#232734" points="77.846,151.27 77.739,151.045 77.529,151.044 77.583,151.175 77.698,151.266 77.846,151.27 	"/>
	<polygon fill="#232734" points="84.473,160.352 84.059,160.411 84.027,160.656 84.165,160.62 84.462,160.286 84.473,160.352 	"/>
	<polygon fill="#232734" points="81.447,164.708 81.079,164.438 81.447,164.708 	"/>
	<polygon fill="#232734" points="161.805,221.473 161.952,221.479 161.893,221.292 161.662,221.255 161.699,221.388 
		161.805,221.473 	"/>
	<polygon fill="#232734" points="101.803,187.875 101.973,188.098 102.104,188.131 102.066,187.955 101.803,187.875 	"/>
	<polygon fill="#232734" points="104.731,189.649 104.636,189.698 104.737,189.757 104.731,189.649 	"/>
	<polygon fill="#232734" points="140.041,230.729 140.004,230.623 139.893,230.636 139.928,230.748 140.041,230.729 	"/>
	<polygon fill="#232734" points="121.002,206.435 121.144,206.365 121.102,206.285 120.987,206.315 121.002,206.435 	"/>
	<polygon fill="#232734" points="168.22,288.973 168.305,288.934 168.211,288.88 168.22,288.973 	"/>
	<polygon fill="#232734" points="63.089,148.528 63.189,148.469 63.099,148.414 63.089,148.528 	"/>
	<polygon fill="#232734" points="143.258,218.373 143.347,218.331 143.253,218.276 143.258,218.373 	"/>
	<polygon fill="#232734" points="147.857,218.565 147.922,218.313 147.797,218.322 147.911,218.558 147.857,218.565 	"/>
	<polygon fill="#232734" points="80.592,155.272 80.565,155.166 80.459,155.187 80.476,155.302 80.592,155.272 	"/>
	<polygon fill="#232734" points="80.826,160.335 80.747,160.387 80.821,160.428 80.826,160.335 	"/>
	<polygon fill="#232734" points="152.472,217.771 152.57,217.783 152.575,217.625 152.45,217.643 152.472,217.771 	"/>
	<polygon fill="#232734" points="83.536,161.269 83.449,161.337 83.524,161.378 83.536,161.269 	"/>
	<polygon fill="#232734" points="147.911,218.558 147.867,218.8 147.97,218.777 147.857,218.565 147.911,218.558 	"/>
	<polygon fill="#232734" points="155.008,235.24 154.981,235.097 154.846,235.134 154.864,235.274 155.008,235.24 	"/>
	<polygon fill="#232734" points="159.521,237.687 159.638,237.652 159.617,237.536 159.521,237.687 	"/>
	<polygon fill="#232734" points="148.204,232.781 148.229,232.9 148.322,232.75 148.204,232.781 	"/>
	<polygon fill="#232734" points="154.229,231.238 154.189,231.111 154.058,231.119 154.095,231.25 154.229,231.238 	"/>
	<polygon fill="#232734" points="149.761,230.676 149.711,230.94 149.838,230.922 149.724,230.681 149.761,230.676 	"/>
	<polygon fill="#232734" points="150.383,230.975 150.409,231.08 150.488,230.956 150.383,230.975 	"/>
	<polygon fill="#232734" points="129.054,265.998 130.075,266.907 131.158,267.735 132.233,268.572 133.331,269.382 
		134.413,270.211 135.497,271.039 136.588,271.857 137.671,272.686 138.754,273.514 139.852,274.322 140.931,275.156 
		142.018,275.98 143.107,276.8 144.279,277.508 143.95,277.111 140.336,274.354 130.546,266.952 129.33,266.047 129.054,265.998 	
		"/>
	<polygon fill="#232734" points="154.445,285.287 154.135,284.873 151.592,282.958 150.389,282.04 146.903,279.362 144.972,277.899 
		144.468,277.674 144.803,278.089 146.611,279.466 152.756,284.152 153.952,285.081 154.445,285.287 	"/>
	<polygon fill="#232734" points="145.607,272.031 145.559,271.89 139.4,267.232 139.246,267.208 139.35,267.442 145.513,272.066 
		145.607,272.031 	"/>
	<polygon fill="#232734" points="148.033,279.248 148.076,279.432 149.122,280.373 150.413,281.32 152.163,282.463 152.181,282.356 
		150.658,280.991 150.44,280.556 149.615,280.181 148.43,279.338 148.033,279.248 	"/>
	<polygon fill="#232734" points="133.384,266.195 133.658,266.615 134.849,267.53 135.921,268.353 136.245,268.656 137.523,269.903 
		137.756,269.841 137.784,269.698 137.685,269.417 137.314,269.222 136.596,268.468 133.863,266.354 133.384,266.195 	"/>
	<polygon fill="#232734" points="126.386,257.423 126.437,257.563 126.992,258.059 131.328,261.335 131.609,261.401 
		131.556,261.263 126.531,257.433 126.386,257.423 	"/>
	<polygon fill="#232734" points="162.695,225.831 163.45,226.573 164.159,227.124 164.99,227.759 165.733,228.123 165.603,227.864 
		164.591,226.785 164.362,226.597 164.236,226.521 163.658,226.142 162.695,225.831 	"/>
	<polygon fill="#232734" points="166.724,221.225 166.029,220.876 165.413,220.463 165.207,220.547 165.233,220.692 
		165.685,221.077 167.362,222.353 167.963,222.806 168.309,223.237 168.551,222.993 168.215,222.348 166.724,221.225 	"/>
	<polygon fill="#232734" points="125.586,259.534 125.461,259.778 127.162,261.13 127.095,260.789 126.881,260.378 125.867,259.555 
		125.586,259.534 	"/>
	<polygon fill="#232734" points="165.017,232.888 164.61,232.888 164.389,233.244 166.352,234.542 166.596,234.477 166.479,234.221 
		165.426,233.37 165.017,232.888 	"/>
	<polygon fill="#232734" points="156.278,286.659 154.768,285.501 154.768,285.594 156.033,286.64 156.173,286.678 156.278,286.659 
			"/>
	<polygon fill="#232734" points="119.88,255.267 121.62,256.472 121.52,256.208 119.88,255.267 	"/>
	<polygon fill="#232734" points="131.928,261.545 132.038,261.821 132.234,262.034 133.191,262.683 133.25,262.615 131.928,261.545 
			"/>
	<polygon fill="#232734" points="165.83,287.027 165.813,287.147 167.096,288.042 166.932,287.804 165.83,287.027 	"/>
	<polygon fill="#232734" points="156.483,286.871 157.691,287.885 157.97,287.964 157.915,287.824 157.825,287.712 156.993,287.075 
		156.483,286.871 	"/>
	<polygon fill="#232734" points="164.327,285.949 165.391,286.69 164.327,285.949 	"/>
	<polygon fill="#232734" points="142.8,256.624 142.76,256.416 142.401,256.466 142.404,256.683 142.538,256.716 142.8,256.624 	"/>
	<polygon fill="#232734" points="158.837,288.644 159.207,289.031 159.339,289.052 159.311,288.869 158.837,288.644 	"/>
	<polygon fill="#232734" points="166.118,238.91 166.25,238.92 166.307,238.832 166.122,238.637 165.974,238.662 166.118,238.91 	
		"/>
	<polygon fill="#232734" points="167.199,225.43 167.571,225.691 167.199,225.43 	"/>
	<polygon fill="#232734" points="138.585,266.745 138.473,266.532 138.271,266.529 138.317,266.658 138.433,266.746 
		138.585,266.745 	"/>
	<polygon fill="#232734" points="122.573,261.006 122.672,261.198 122.895,261.244 122.839,261.115 122.573,261.006 	"/>
	<polygon fill="#232734" points="171.525,278.198 171.645,278.274 171.781,278.278 171.68,277.959 171.542,277.984 171.525,278.198 
			"/>
	<polygon fill="#232734" points="171.351,225.148 171.422,225.36 171.646,225.354 171.621,225.216 171.351,225.148 	"/>
	<polygon fill="#232734" points="128.607,265.717 128.711,265.671 128.608,265.605 128.607,265.717 	"/>
	<polygon fill="#232734" points="133.75,262.958 133.655,263.008 133.756,263.065 133.75,262.958 	"/>
	<polygon fill="#232734" points="134.853,263.899 134.924,263.999 134.972,263.921 134.853,263.899 	"/>
	<polygon fill="#232734" points="137.213,265.941 137.114,265.987 137.212,266.049 137.213,265.941 	"/>
	<polygon fill="#232734" points="121.951,260.532 121.871,260.432 121.826,260.506 121.951,260.532 	"/>
	<polygon fill="#232734" points="119.732,258.784 119.646,258.82 119.745,258.876 119.732,258.784 	"/>
	<polygon fill="#232734" points="120.697,259.523 120.613,259.558 120.713,259.614 120.697,259.523 	"/>
	<path fill="#232734" d="M84.62,148.269l-0.644-0.368l-0.952-0.699l-0.627-0.555l-1.391-0.879l-0.257-0.385l-0.409-0.126
		l-4.522-3.541l0.626,0.108l0.084,0.113l0.801,0.396l4.464,3.402l2.576,1.876l0.375,0.154"/>
	<polygon fill="#232734" points="60.405,213.232 59.29,212.564 51.385,206.66 50.838,206.533 40.628,198.747 40.345,198.27 
		39.598,197.677 36.113,194.982 35.752,194.952 36.089,195.644 36.812,196.194 37.074,196.3 37.97,197.018 38.441,197.153 
		38.761,197.69 39.276,197.857 39.506,198.235 40.684,199.194 49.15,205.623 50.966,207 51.766,207.408 52.032,207.719 
		52.552,207.873 55.512,210.126 59.402,213.042 59.917,213.351 60.405,213.232 	"/>
	<polygon fill="#232734" points="52.006,202.466 52.001,202.864 52.807,203.752 53.358,204.261 56.234,206.454 56.493,206.977 
		57.08,207.131 58.146,207.673 58.776,208.27 58.962,208.494 59.488,208.586 60.267,209.178 61.238,209.899 62.139,210.443 
		61.851,209.664 60.19,208.399 59.232,207.954 56.246,205.802 55.854,205.69 55.685,205.458 54.426,204.654 54.141,204.177 
		51.958,202.474 52.006,202.466 	"/>
	<polygon fill="#232734" points="81.053,229.933 80.781,229.441 74.648,224.77 74.498,224.767 80.187,229.282 80.408,229.767 
		81.512,230.666 82.824,231.702 84.021,232.615 84.304,233.079 85.179,233.791 85.599,233.916 86.676,234.859 86.158,233.935 
		81.053,229.933 	"/>
	<polygon fill="#232734" points="99.756,238.499 100.817,239.099 99.171,237.722 98.66,237.586 88.943,230.282 89.001,230.609 
		90.633,231.967 91.268,232.584 91.663,232.785 91.874,233.077 92.482,233.36 95.636,235.73 99.119,238.354 99.756,238.499 	"/>
	<polygon fill="#232734" points="105.64,241.229 105.583,241.089 104.55,240.202 102.119,238.387 99.831,236.646 99.52,236.062 
		97.265,234.335 97.021,234.324 97.773,235.246 98.353,236.109 99.078,236.788 99.904,237.465 100.471,237.539 103.996,240.216 
		105.513,241.215 105.64,241.229 	"/>
	<polygon fill="#232734" points="84.743,227.597 84.625,227.335 82.948,226.044 75.329,220.325 74.933,220.135 75.533,220.814 
		75.765,221.275 76.313,221.496 76.555,221.873 77.217,222.078 79.628,223.913 82.172,225.815 84.743,227.597 	"/>
	<polygon fill="#232734" points="73.491,221.461 73.984,221.606 76.129,223.108 76.213,222.886 75.161,222.018 70.347,218.332 
		69.482,217.717 69.192,217.649 69.261,217.889 69.819,218.397 70.445,219.048 70.893,219.433 71.463,219.857 71.912,220.188 
		73.135,221.036 73.491,221.461 	"/>
	<polygon fill="#232734" points="52.559,204.922 52.057,205.006 52.91,205.82 53.967,206.673 54.931,207.401 55.85,208.184 
		55.823,208.757 56.045,208.949 56.306,208.841 56.694,208.751 57.796,209.542 58.208,209.733 57.879,208.91 57.323,208.601 
		56.988,208.356 55.932,207.546 54.773,206.868 53.392,205.814 52.559,204.922 	"/>
	<polygon fill="#232734" points="51.958,202.474 51.998,202.196 51.614,201.484 47.581,198.394 47.585,199.02 48.158,199.509 
		52.006,202.466 51.958,202.474 	"/>
	<polygon fill="#232734" points="73.744,218.091 74.729,219.019 81.112,223.833 81.648,224.095 80.665,223.188 79.471,222.266 
		78.38,221.458 77.291,220.646 76.212,219.821 75.018,218.9 73.744,218.091 	"/>
	<polygon fill="#232734" points="92.221,234.877 92.144,234.294 89.673,232.372 88.532,231.983 88.509,232.083 88.693,232.312 
		91.811,234.701 92.221,234.877 	"/>
	<polygon fill="#232734" points="90.786,230.656 90.735,230.51 85.389,226.542 85.694,227.291 86.437,227.577 87.241,228.188 
		88.101,228.813 89.066,229.549 89.924,230.175 90.786,230.656 	"/>
	<polygon fill="#232734" points="82.569,227.786 83.611,228.688 83.257,227.938 80.518,225.866 80.774,226.579 81.247,226.887 
		82.279,227.719 82.569,227.786 	"/>
	<polygon fill="#232734" points="62.884,212.868 64.666,214.472 64.959,214.938 65.911,215.608 65.863,215.06 62.884,212.868 	"/>
	<polygon fill="#232734" points="89.065,234.597 90.133,235.499 90.145,235.074 86.884,232.648 86.872,232.73 87.524,233.344 
		89.065,234.597 	"/>
	<polygon fill="#232734" points="44.441,198.435 44.526,198.62 48.242,201.452 48.396,201.477 48.303,201.259 44.821,198.607 
		44.441,198.435 	"/>
	<polygon fill="#232734" points="36.237,191.392 35.084,190.403 34.152,189.688 33.1,188.698 32.959,188.937 33.123,189.175 
		35.947,191.386 36.237,191.392 	"/>
	<polygon fill="#232734" points="46.22,204.54 45.79,203.922 45.162,203.959 46.009,204.797 46.951,205.522 47.836,206.534 
		48.24,206.712 47.639,206.036 47.426,205.556 46.22,204.54 	"/>
	<polygon fill="#232734" points="91.543,238.493 91.578,238.613 95.363,241.521 95.511,241.537 95.395,241.282 91.69,238.497 
		91.543,238.493 	"/>
	<polygon fill="#232734" points="35.78,189.709 35.535,190.039 35.558,190.185 36.337,190.604 39.002,192.579 39.417,192.738 
		39.393,192.569 35.78,189.709 	"/>
	<polygon fill="#232734" points="40.135,196.91 40.154,196.641 39.727,196.227 39.233,195.678 38.715,195.219 37.706,194.376 
		37.596,194.406 37.553,194.548 37.824,195.061 40.19,196.9 40.135,196.91 	"/>
	<polygon fill="#232734" points="36.436,191.973 36.496,192.109 36.605,192.211 37.19,192.69 39.957,194.8 40.101,194.802 
		40.02,194.576 36.799,192.064 36.436,191.973 	"/>
	<polygon fill="#232734" points="44.458,196.16 44.108,195.685 42.268,194.381 42.117,194.388 41.966,194.636 42.116,194.89 
		43.657,195.812 44.171,196.127 44.458,196.16 	"/>
	<polygon fill="#232734" points="62.22,214.705 64.062,216.063 64.1,215.921 64.048,215.607 62.672,214.519 62.391,214.495 
		62.22,214.705 	"/>
	<polygon fill="#232734" points="67.077,218.393 67.147,218.525 69.668,220.448 69.823,220.47 69.73,220.249 69.26,219.87 
		68.005,218.595 67.65,218.328 67.077,218.393 	"/>
	<polygon fill="#232734" points="74.533,219.83 74.474,219.687 71.241,217.233 71.088,217.21 71.171,217.439 74.285,219.807 
		74.533,219.83 	"/>
	<polygon fill="#232734" points="101.568,237.364 104.729,239.834 104.784,239.778 104.726,239.642 103.214,238.393 
		101.717,237.384 101.568,237.364 	"/>
	<polygon fill="#232734" points="88.954,236.446 89.096,236.695 89.33,236.691 89.35,236.423 88.581,235.745 87.928,235.575 
		87.149,234.982 86.971,234.983 87.019,235.202 88.039,235.987 88.581,236.271 88.954,236.446 	"/>
	<polygon fill="#232734" points="45.848,198.364 45.729,198.097 43.306,196.275 43.103,196.33 43.15,196.469 45.561,198.314 
		45.848,198.364 	"/>
	<polygon fill="#232734" points="31.039,193.419 30.479,192.916 29.877,192.202 29.043,192.09 29.216,192.363 30.896,193.644 
		31.043,193.641 31.039,193.419 	"/>
	<polygon fill="#232734" points="83.178,229.872 83.218,230.017 85.876,231.958 85.909,231.889 83.459,229.902 83.178,229.872 	"/>
	<polygon fill="#232734" points="54.387,211.006 54.422,211.149 56.898,213.051 57.167,213.097 57.114,212.957 54.658,211.029 
		54.387,211.006 	"/>
	<polygon fill="#232734" points="76.138,224.824 75.759,224.094 75.188,223.745 74.344,223.488 74.375,223.631 75.876,224.85 
		76.138,224.824 	"/>
	<polygon fill="#232734" points="41.546,196.251 44.041,198.166 43.955,197.945 41.8,196.282 41.546,196.251 	"/>
	<polygon fill="#232734" points="91.202,238.223 91.261,237.842 90.665,237.378 89.975,237.192 89.829,237.215 89.974,237.447 
		91.058,238.207 91.202,238.223 	"/>
	<polygon fill="#232734" points="68.561,222.148 68.51,222.008 66.506,220.427 66.356,220.425 66.366,220.633 68.275,222.111 
		68.561,222.148 	"/>
	<polygon fill="#232734" points="45.176,201.287 44.824,200.464 44.257,200.08 43.976,200.018 43.843,200.262 43.893,200.401 
		43.988,200.51 44.917,201.244 45.176,201.287 	"/>
	<polygon fill="#232734" points="112.438,246.434 112.29,246.133 110.739,244.977 110.188,245.073 110.262,245.24 111.179,245.686 
		112.03,246.273 112.438,246.434 	"/>
	<polygon fill="#232734" points="106.619,241.154 106.995,241.613 108.172,242.207 108.315,242.189 108.299,241.895 107,240.987 
		106.619,241.154 	"/>
	<polygon fill="#232734" points="80.801,228.479 80.509,227.926 80.341,227.552 79.535,227.142 79.379,227.347 79.537,227.6 
		80.801,228.479 	"/>
	<polygon fill="#232734" points="111.653,248.926 111.38,248.216 110.321,247.69 110.181,247.703 110.191,247.933 111.377,248.833 
		111.653,248.926 	"/>
	<polygon fill="#232734" points="23.792,187.386 23.867,187.829 24.552,188.479 24.716,188.848 25.063,189.098 24.934,188.495 
		24.004,187.382 23.792,187.386 	"/>
	<polygon fill="#232734" points="101.686,242.347 101.4,241.714 100.648,241.164 100.416,241.295 100.399,241.432 101.47,242.427 
		101.686,242.347 	"/>
	<polygon fill="#232734" points="34.585,196.262 35.333,197.376 35.699,197.232 35.736,197.062 34.585,196.262 	"/>
	<polygon fill="#232734" points="48.368,202.87 48.095,203.133 49.166,203.947 48.81,203.163 48.368,202.87 	"/>
	<polygon fill="#232734" points="108.668,244.301 108.541,244.041 107.341,243.121 107.193,243.119 107.204,243.325 108.39,244.262 
		108.668,244.301 	"/>
	<polygon fill="#232734" points="24.338,182.308 24.308,182.396 25.659,183.506 24.836,182.592 24.338,182.308 	"/>
	<polygon fill="#232734" points="69.987,215.477 70.864,215.963 70.996,215.912 70.403,215.119 70.07,215.102 69.987,215.477 	"/>
	<polygon fill="#232734" points="52.988,201.893 54.294,202.882 52.988,201.893 	"/>
	<polygon fill="#232734" points="111.57,253.788 111.876,254.432 112.4,254.419 111.57,253.788 	"/>
	<polygon fill="#232734" points="31.782,191.398 31.805,191.902 32.074,192.034 32.632,192.121 31.782,191.398 	"/>
	<polygon fill="#232734" points="83.162,225.331 81.952,224.246 83.162,225.331 	"/>
	<polygon fill="#232734" points="96.425,234.383 96.422,234.133 95.686,233.426 95.383,233.429 96.425,234.383 	"/>
	<polygon fill="#232734" points="106.276,240.941 105.254,240.133 105.218,240.199 106.004,240.878 106.276,240.941 	"/>
	<polygon fill="#232734" points="108.006,250.698 107.302,250.082 107.284,250.272 107.724,250.662 108.006,250.698 	"/>
	<polygon fill="#232734" points="104.895,245.107 104.628,244.999 104.324,245.247 104.629,245.503 104.922,245.253 
		104.895,245.107 	"/>
	<polygon fill="#232734" points="60.524,210.872 60.887,210.801 60.801,210.434 60.424,210.504 60.524,210.872 	"/>
	<polygon fill="#232734" points="67.042,213.372 67.119,213.657 67.714,214.039 67.855,214.036 67.866,213.827 67.341,213.358 
		67.042,213.372 	"/>
	<polygon fill="#232734" points="72.791,224.561 72.273,224.681 72.825,225.089 72.791,224.561 	"/>
	<polygon fill="#232734" points="115.844,252.16 116.113,252.125 116.209,251.868 115.848,251.701 115.688,251.93 115.844,252.16 	
		"/>
	<polygon fill="#232734" points="123.5,252.93 123.154,252.521 122.948,252.532 123.01,252.663 123.356,252.924 123.5,252.93 	"/>
	<polygon fill="#232734" points="98.855,242.022 98.568,242.409 98.855,242.022 	"/>
	<polygon fill="#232734" points="121.38,252.16 121.515,252.124 121.573,251.801 121.441,251.837 121.328,252.064 121.38,252.16 	
		"/>
	<polygon fill="#232734" points="52.635,201.736 52.769,201.746 52.704,201.558 52.466,201.512 52.635,201.736 	"/>
	<polygon fill="#232734" points="64.2,212.335 63.812,212.064 64.2,212.335 	"/>
	<polygon fill="#232734" points="70.461,216.887 70.668,216.882 70.617,216.753 70.357,216.668 70.368,216.781 70.461,216.887 	"/>
	<polygon fill="#232734" points="83.652,225.739 83.794,225.746 83.725,225.548 83.48,225.51 83.652,225.739 	"/>
	<polygon fill="#232734" points="61.138,213.431 61.08,213.326 61.022,213.417 61.138,213.431 	"/>
	<polygon fill="#232734" points="61.322,215.569 61.405,215.508 61.331,215.468 61.322,215.569 	"/>
	<polygon fill="#232734" points="66.643,214.185 66.586,214.102 66.545,214.176 66.643,214.185 	"/>
	<polygon fill="#232734" points="72.494,216.894 72.66,216.83 72.615,216.741 72.488,216.769 72.494,216.894 	"/>
	<polygon fill="#232734" points="84.171,226.02 84.212,226.14 84.336,226.131 84.171,226.02 	"/>
	<polygon fill="#232734" points="97.817,244.946 97.946,244.912 97.92,244.788 97.786,244.811 97.817,244.946 	"/>
	<polygon fill="#232734" points="41.08,195.964 41.201,195.958 41.159,195.845 41.08,195.964 	"/>
	<polygon fill="#232734" points="102.536,246.875 102.5,246.753 102.375,246.771 102.409,246.896 102.536,246.875 	"/>
	<polygon fill="#232734" points="59.012,210.007 59.084,210.052 59.148,209.883 59.033,209.91 59.012,210.007 	"/>
	<polygon fill="#232734" points="125.204,256.494 126.034,257.173 125.204,256.494 	"/>
	<path id="wood" fill="#232734" d="M21.661,189.797l-0.221-0.203l-2.145-1.389l-1.208-0.919l-1.528-1.554l-0.725-1.069l-0.602-1.186
		l-0.193-1.391l-0.013-0.723l0.242-0.592l0.59-1.547l0.695-0.996l0.83-1.093l5.21-6.9l1.525-2.055l2.932-5.146l11.326-13.187
		l0.156-0.39l0.602-0.53l0.111-0.34l0.67-0.526l1.653-2.103l0.96-0.93l5.156-6.766l0.12-0.085l1.073-1.473l0.061-0.111l0.149-0.522
		l0.928-1.218l0.551-0.395l0.365-0.468l0.165-0.539l0.828-1.088l0.737-0.78l0.427-0.797l0.987-1.3l0.437-0.25l1.179-1.284
		l1.231-0.047l0.876,0.233l0.292-0.028l-1.097-1.431l0.025-0.499l0.34-0.271l0.684-0.589l2.202-2.993l0.119-0.61l2.183-2.963
		l0.126-0.539l1.37-1.531l0.137-0.514l0.964-1.266l3.116-4.119l2.692-3.484l0.441-0.405l0.838-1.032l0.362-0.608l1.174-1.643
		l1.573-0.117l0.195-0.218l-0.059-0.888l0.204-0.261l0.663-0.45l1.415-1.858l0.189-0.642l1.19-1.558l0.957-0.955l0.56-0.869
		l0.624-1.014l0.486-0.293l2.468-3.139l0.479-0.929l0.614-0.999l0.623-0.859l0.521-1.087l0.664-0.595l0.176-0.557l4.007-5.261
		l0.927-0.691l0.157-0.555l0.85-1.003l0.478-0.941l0.845-1.114l0.223-0.656l0.82-0.722l0.932-1.198l1.228-1.547l0.837-0.741
		l4.986-6.382l0.43-0.283l1.673-1.946l1.271-0.801l0.273-0.305l-0.044-1.39l0.421-0.657l0.316-0.512l0.71-1.326l0.206-0.4
		l0.474-0.939l1.062-1.482l4.827-6.254l0.623-0.656l0.196-0.2l0.536-0.91l2.219-2.668l0.471-0.729l0.907-0.966l0.619-0.812
		l0.147-0.47l0.097-0.13l0.633-0.777l0.256-0.164l2.363-2.879l1.855-1.528l-0.072-0.919l0.58-0.763l0.54-0.735l0.423-0.778
		l0.263-0.17l0.383-0.807l0.626-0.834l0.407-0.248l1.083-0.807l1.201-0.91l0.985-0.694l0.912-0.839l1.464-0.49l1.584,0.312
		l0.612,0.396l0.839,0.369l0.251,0.346l0.434,0.148l1.249,0.864l0.926,0.494l1.001,0.609l3.019,2.303l0.896,0.979l0.631,0.413
		l0.312,0.324l1.905,1.729l0.256,0.134l0.643,0.393l0.619,0.649l0.941,0.48l0.987,0.707l3.378,2.585l1.168,0.691l1.055,0.827
		l0.663,0.385l3.317,2.526l0.264,0.479l0.536,0.224l0.159,0.242l1.262,1.009l3.105,2.411l4.439,3.449l0.64,0.638l1.855,1.54
		l0.43,0.14l0.212,0.156l0.35,0.459l0.605,0.179l4.537,3.38l1.448,1.105l1.546,1.23l1.276,1.282l0.924,0.782l0.3,0.542l1.936,1.57
		l0.309,0.51l2.443,1.964l0.886,0.818l0.244,0.14l1.134,1.034l1.394,1.062l1.446,1.106l3.163,2.41l0.717,0.243l1.28,0.975
		l0.962,0.742l1.073,1.054l1.277,1.049l1.161,0.854l1.086,0.881l0.988,0.706l1.05,0.795l0.787,0.329l1.374,1.259l0.505,0.158
		l4.776,3.635l3.782,2.809l0.789,0.44l0.525,0.287l1.351,0.984l1.354,0.98l1.44,0.818l0.986,0.709l4.279,3.158l0.671,0.333
		l0.592,0.392l8.812,6.58l0.986,0.57l0.989,0.917l0.625,0.206l6.131,4.669l5.802,4.421l0.827,0.668l0.428,0.55l0.538,0.163
		l1.793,1.334l12.498,9.427l0.622,0.427l1.531,0.964l3.609,2.74l0.229,0.332l0.715,0.393l1.981,1.678l0.447,0.163l3.468,2.634
		l0.739,0.733l1.272,0.806l7.139,5.42l6.437,4.84l1.615,1.173l1.545,1.127l0.487,0.162l10.942,8.333l1.015,1.05l0.536,0.167
		l0.421,0.562l0.705,0.577l1.452,1.103l6.027,4.627l5.934,4.499l2.791,2.104l5.632,4.238l1.126,0.857l3.787,3.029l0.662,0.614
		l0.76,0.73l2.854,2.175l0.389,0.151l0.589,0.597l3.477,2.706l5.323,4.048l2.177,1.654l0.77,0.472l1.458,0.882l0.38,1.088
		l0.36,0.993l-0.014,3.44l-0.79,0.539l-1.662,2.271l-0.963,1.234l-0.352,0.92l-5.497,7.211l-0.919,1l-0.255,0.348l-0.303,0.52
		l-4.863,6.523l-0.686,0.414l-0.114,0.635l-2.657,3.491l-2.627,3.514l-0.154,0.511l-1.345,1.767l-0.488,0.335l-7.433,9.714
		l-0.459,1.055l-0.591,0.883l-0.824,1.433l-2.253,2.929l-1.97,2.041l-0.508,0.334l-2.202,2.89l-2.593,3.374l-1.388,1.155
		l-0.226,0.077l-0.511-0.001l-1.063-0.401l0.468,1.643l-2.058,2.723l-1.915,2.553l-1.74,2.304l-1.439,1.96l-0.224,0.39l-0.515,0.918
		l-4.478,5.95l-2.771,3.621l-1.126,1.434l-0.653,0.624l-0.63,0.833l-0.988,1.297l-0.598,0.68l-0.588,0.806l-0.151,0.502l-0.987,1.29
		l-0.841,0.86l-0.224,0.558l-0.827,1.084l-0.563,1.203l-2.198,2.782l-1.12,0.262l0.273,0.558l-0.029,0.452l-0.979,1.286
		l-0.297,0.184l-0.115,0.087l-0.646,0.797l-0.986,1.295l-0.146,0.48l-6.884,9.044l-0.85,0.85l-0.982,1.697l-0.502,1.054l-0.671,0.87
		l-0.769,0.715l-0.148,0.471l-0.621,0.816l-1.45,1.528l-1.826,2.307l-0.666,0.527l-0.365,0.637l-0.622,0.656l-1.967,2.515
		l-1.007,1.332l-1.947,2.486l-1.24,0.621l0.136,0.921l0.012,0.82l-0.63,1.135l-1.156,1.553l-0.521,0.542l-2.497,3.273l-0.436,0.937
		l-0.783,0.688l-1.835,2.239l-0.654,0.624l-0.422,0.428l-1.403,1.797l-1.223,1.523l-1.39,0.543l-0.066,0.084l0.157,1.098
		l-1.479,1.976l-2.346,1.395l-2.321,1.145l-1.627,0.311l-3.304,0.072l-0.151-0.011l-3.162-0.696l-0.979-0.656l-0.601-0.166
		l-2.22-1.601l-0.583-0.168l-6.481-4.927l-0.726-0.553l-4.011-3.003l-0.71-0.765l-0.27-0.105l-0.27-0.402l-6.007-4.622l-2.553-1.914
		l-2.729-1.9l-0.179-0.232l-0.964-0.528l-0.978-1.062l-7.056-5.437l-0.38-0.575l-0.825-0.627l-1.577-1.187l-0.522-0.263
		l-0.886-0.817l-0.959-0.746l-0.862-0.623l-0.922-0.724l-0.956-0.748l-0.994-0.696l-0.674-0.549l-3.018-2.305l-0.404-0.199
		l-0.33-0.276l-0.935-0.766l-1.313-0.729l-3.54-2.691l-0.281-0.419l-0.583-0.293l-2.079-1.531l-4.462-3.323l-0.525-0.107
		l-4.425-3.28l-0.624-0.199l-0.291-0.412l-0.801-0.399l-2.564-1.9l-2.544-1.926l-1.08-0.534l-1.688-1.293l-0.506-0.538l-1.159-0.697
		l-9.142-6.962l-0.78-0.72l-0.345-0.458l-13.057-9.899l-0.518-0.141l-2.564-1.838l-0.576-0.19l-7.928-6.005l-0.427-0.602
		l-0.604-0.208l-0.388-0.543l-0.799-0.35l-1.749-1.332l-0.414-0.562l-0.74-0.419l-1.014-0.861l-0.502-0.162l-4.078-3.06
		l-1.659-1.043l-0.864-0.542l-0.988-0.708l-3.964-3.069l-3.142-2.393l-3.163-2.363l-0.871-0.664l-0.791-0.269l-0.32-0.392
		l-1.074-0.784l-0.734-0.682l-4.983-3.817l-0.795-0.357l-2.444-1.806l-1.374-0.943l-0.828-0.575l-1.016-0.628l-0.59-0.451
		l-0.315-0.503l-0.72-0.29l-0.64-0.633l-0.539-0.524l-4.344-3.324l-3.373-2.591l-0.958-0.957l-0.697-0.496l-0.943-0.721l-1.07-0.788
		l-0.788-0.668l-0.914-0.723l-0.931-0.705l-1.109-0.744l-0.333-0.272l-0.525-0.497l-1.341-0.939l-0.523-0.54l-3.959-3.078
		l-8.371-6.315l-1.659-1.035l-0.253-0.164l-1.734-1.32l-0.421-0.559l-0.675-0.322l-0.476-0.582l-1.499-1.015l-0.893-0.556
		l-0.406-0.441l-0.524-0.263l-0.505-0.528l-0.549-0.27l-6.574-4.909l-5.096-3.835l-0.248-0.165l-0.43-0.119l-0.246-0.192
		l-1.287-1.271l-4.334-3.334l-0.336-0.285L21.661,189.797L21.661,189.797z M18.736,177.494l-0.068,0.267l0.415,0.426l1.914,1.497
		l0.185,0.225l-1.444-0.856l-1.341-0.94l-1.264,1.518l0.04,0.393l0.207,0.254l3.556,2.807l0.283,0.499l1.117,0.893l1.322,1.021
		l1.198,0.935l1.334,1.009l1.121,0.868l-0.16,0.163l-1.366-0.961l-0.908-0.497l-0.179-0.321l-4.368-3.408l-0.343-0.587l-2.996-2.254
		l-0.396,0.223l0.391,3.821l0.997,1.128l0.297,0.337l1.414,1.354l0.538,0.231l1.736,1.226l0.933,0.743l0.224,0.427l0.364,0.097
		l0.797,0.58l0.673,0.515l0.88,0.67l0.204,0.347l0.921,0.495l0.688,0.796l0.312,0.083l0.589,0.643l0.583,0.486l2.262,1.672
		l0.64,0.216l0.938,0.97l0.953,0.746l1.095,0.814l1.442,1.111l1.157,0.7l0.582,0.411l1.408,1.053l0.835,0.567l0.742,0.528
		l0.792,0.602l0.278,0.503l0.367,0.167l0.536,0.27l0.62,0.624l0.66,0.357l0.737,0.531l1.473,1.071l2.39,1.896l0.234,0.365
		l0.934,0.476l2.033,1.581l0.82,0.368l0.75,0.729l0.382,0.172l0.621,0.396l1.41,1.357l3.533,2.619l3.242,2.505l0.545,0.523
		l0.251,0.436l0.537,0.173l0.251,0.163l0.405,0.478l0.434,0.134l0.287,0.391l1.089,0.656l1.081,0.776l0.215,0.441l0.237,0.175
		l0.395,0.11l5.143,3.89l0.325,0.456l0.243,0.076l0.408,0.493l1.781,1.414l1.623,0.901l0.324,0.527l1.452,1.106l0.379,0.12
		l0.273,0.33l1.281,1.06l3.223,2.404l0.597,0.16l3.951,2.927l0.468,0.126l0.977,0.97l0.592,0.114l3.422,2.683l0.22,0.206
		l1.546,1.429l0.655,0.363l0.989,0.893l0.988,0.752l0.586,0.134l1.292,1.184l1.413,1.074l0.447,0.112l4.445,3.396l0.194,0.345
		l0.582,0.263l1.934,1.468l0.979,0.688l0.523,0.091l3.006,2.225l1.601,1.153l0.413,0.18l0.738,0.439l0.248,0.448l0.478,0.119
		l0.932,0.712l0.334,0.303l1.555,1.418l6.135,4.732l3.515,2.656l2.826,2.099l0.689,0.211l3.121,2.118l0.177,0.235l0.201,0.243
		l0.491,0.102l0.338,0.449l0.269,0.083l0.277,0.43l5.745,4.372l0.911,0.535l0.744,0.717l0.832,0.657l2.268,1.777l2.307,1.731
		l3.025,2.286l4.033,3.128l0.194,0.322l1.011,0.571l4.714,3.575l1.14,0.521l3.94,2.927l0.659,0.216l1.45,1.26l0.26,0.111
		l0.734,0.428l0.343,0.577l0.695,0.261l0.631,0.419l0.732,0.541l0.779,0.429l0.205,0.293l0.594,0.236l0.433,0.537l0.588,0.216
		l0.337,0.51l0.172,0.176l1.93,1.173l0.992,0.699l3.141,2.394l4.854,3.644l4.223,3.229l3.146,2.383l3.86,2.954l3.953,3.085
		l0.987,0.931l0.899,0.807l3.988,3.04l3.396,2.56l1.17,0.649l0.277,0.43l2.388,1.812l0.413,0.182l0.742,0.503l0.643,0.582
		l0.601,0.41l2.165,1.869l2.233,1.769l0.286,0.477l1.898,1.119l1.582,1.533l0.505,0.146l0.844,0.643l0.961,0.985l0.729,0.244
		l0.985,0.751l0.285,0.499l0.6,0.181l1.283,0.928l0.443,0.127l0.156,0.279l0.459,0.114l1.494,1.036l1.2,0.536l1.189,0.479
		l1.114,0.117l0.301,0.041l2.971-0.179l1.039-0.234l0.17-0.223l-0.482-0.577l-2.196-1.624l-0.589-0.48l0.004,0.057l0,0l0.255-0.091
		l1.861,1.301l1.678,1.225l0.905-0.12l2.774-1.651l1.305-1.746l-0.114-0.308l-0.97-0.951l-0.854-0.913l-0.115-0.558l0.812-0.398
		l0.329,0.018l0.146,0.038l1.378,0.913l0.784,0.188l0.362-0.22l0.545-0.519l0.964-1.322l0.456-0.583l0.662-0.616l1.056-1.296
		l0.96-0.952l1.077-1.272l4.787-6.285l0.538-0.706l0.224-0.954l-0.423-1.038l-0.365-0.333l-1.44-1.119l-0.278-0.27l0.144-0.161
		l1.036,0.084l0.7,0.368l1.591,0.239l0.737-0.534l0.484-0.533l0.566-0.714l0.282-0.53l1.094-1.399l0.836-1.007l2.34-2.982
		l1.057-1.294l0.432-0.415l0.653-0.626l3.691-4.827l0.9-1.562l0.58-0.89l2.226-2.849l0.38-0.263l0.203-0.418l1.709-1.915
		l1.266-1.709l0.434-0.793l0.448-0.786l-0.025-0.334l-2.21-1.683l-0.391-0.627l-7.212-5.493l-0.588-0.156l-10.259-7.817
		l-0.045-0.144l0.279,0.041l1.333,1.006l5.677,4.33l1.938,1.462l0.771,0.285l3.718,2.766l3.621,2.768l3.728,2.829l0.306-0.065
		l3.392-4.453l-0.073-0.326l-0.97-1.152l-0.965-1.493l-0.713-0.543l-0.55-0.137l-5.167-3.886l0.006,0.058l0.257-0.094l0.513,0.314
		l2.797,2.095l1.1,0.519l2.457,1.766l1.856,0.608l0.825,0.224l0.297-0.177l1.478-1.926l0.308-0.521l1.098-1.793l3.79-5.061
		l-0.141-0.466l-2.509-1.969l-0.712-0.569l-0.125-0.247l0.15,0.021l0.135,0.063l3.446,2.54l0.29-0.039l5.988-7.784l0.501-0.305
		l0.984-1.293l0.136-0.492l0.589-0.448l0.188-0.608l5.829-7.813l0.19-0.571l1.209-1.628l0.501-0.567l0.686-0.581l0.548-0.726
		l0.24-0.743l-0.219-0.68l-1.085-1.646l-2.389-1.849l-2.424-1.804l-0.608-0.182l-1.684-1.283l-0.509-0.554l-0.381-0.214
		l-0.142-0.249l-0.293-0.059l-0.252-0.16l-0.053-0.551l0.146,0.038l1.35,0.985l4.621,3.459l0.918,0.486l0.988,0.632l0.855,0.627
		l0.138,0.052l0.757,0.006l1.659,0.685l0.744,0.153l0.274-0.127l0.516-0.555l0.585-0.654l0.564-0.492l0.463-0.603l0.56-0.72
		l0.451-0.609l0.737-1.112l0.805-0.903l1.861-2.318l0.553-0.342l1.317-1.633l0.55-0.369l0.954-1.533l0.335-0.502l1.091-1.554
		l0.2-0.633l1.229-1.76l0.688-1.165l0.237-0.382l3.866-5.066l0.735-0.641l-0.33-0.831l0.542,0.271l0.274-0.097l2.075-2.618
		l4.937-6.553l0.607-0.835l-0.627-1.595l-2.92-2.224l-0.285-0.474l-2.689-2.224l-0.082-0.177l0.412,0.192l3.753,2.842l2.384,1.763
		l1.267,0.162l0.243-0.17l2.939-3.853l0.21-0.648l2.084-2.736l1.205-1.565l1.241-1.307l0.647-0.852l0.13-0.424l0.214-0.207
		l0.764-1.181l1.307-1.716l-0.062-0.817l0.531,0.066l0.232-0.178l1.097-1.456l0.65-1.189l0.42-0.622l0.364-0.266l0.517-1.08
		l-0.119-0.262l-2.228-1.835l-0.206-0.242l0.706,0.378l0.735,0.537l0.736,0.535l0.802,0.353l0.258-0.338l-0.823-3.27l-0.623-0.561
		l-0.533-0.666l-1.86-1.416l-1.18-0.914l-1.533-1.167l-0.377-0.253l-2.513-1.669l-0.36-0.279l-0.744-0.746l-0.701-0.562
		l-0.891-0.505l-0.354-0.264l-1.059-1.068l-2.775-2.124l-3.589-2.81l-0.229-0.198l-3.214-2.752l-3.781-2.807l-0.708-0.389
		l-0.276-0.403l-1.979-1.506l-1.111-0.794l-0.707-0.287l-6.231-4.746l-0.325-0.523l-0.407-0.311l-0.823-0.627l-0.393-0.141
		l-0.566-0.578l-3.621-2.771l-0.729-0.549l-7.077-5.505l-11.179-8.394l-0.254-0.15l-0.487-0.148l-3.848-2.902l-4.458-3.427
		l-0.645-0.726l-0.532-0.171l-10.272-7.792l-11.518-8.706l-1.306-0.747l-1.262-0.96l-1.124-0.843l-1.041-0.793l-0.3-0.435
		l-1.234-0.787l-0.269-0.392l-1.198-0.912l-0.907-0.536l-0.644-0.389l-3.384-2.58l-0.229-0.198l-2.035-1.798l-1.518-0.97
		l-0.702-0.514l-0.807-0.663l-0.266-0.318l-0.482-0.151l-5.826-4.371l-6.323-4.74l-1.293-0.773l-0.381-0.245l-7.305-5.458
		l-0.227-0.172l-0.971-0.454l-2.584-1.873l-0.879-0.39l-4.842-3.582l-0.918-0.52l-0.643-0.391l-1.53-1.174l-1.459-1.092l-1.584-1.18
		l-1.451-1.106l-4.846-3.67l-3.411-2.638l-0.328-0.509l-2.008-1.249l-5.802-4.422l-3.85-2.972l-0.618-0.657l-0.3-0.337l-0.354-0.286
		l-1.4-1.368l-1.402-1.164l-3.145-2.446l-0.321-0.481l-1.395-1.163l-1.646-1.545l-1.654-1.335l-0.621-0.439l-0.8-0.413l-0.594-0.413
		l-0.764-0.702l-0.696-0.379l-2.03-1.546l-0.34-0.513l-2.474-1.934l-4.822-3.696l-2.291-1.757l-0.422-0.427l-0.191-0.215
		l-1.875-1.273l-1.938-1.468l-1.811-1.385l-4.395-3.258l-1.277-0.972l-0.494-0.151l-0.284-0.417l-0.54-0.152l-0.935-0.98
		l-1.062-0.861l-1.062-0.861l-0.171-0.146l-2.187-1.971l-0.717-0.257l-0.538-0.479l-0.896-0.556l-1.85-1.333l-1.086-0.512
		l-0.748-0.568l-2.463-0.058l-0.487,0.705l0.161,0.243l2.979,2.35l6.897,5.236l4.208,3.25l0.394,0.443l-0.246-0.002l-2.304-1.741
		l-5.672-4.336l-6.294-4.772l-0.852-0.253l-1.37,0.761l-0.274,0.274l-1.062,0.841l-0.979,0.94l-0.331,0.493l-0.247,0.354
		l-0.634,1.019l-0.354,0.251l-0.335,0.845l0.057,0.266l0.884,1.458l0.94,0.785l-0.116,0.451l-0.763-0.127l-1.494-0.979l-0.808,0.367
		l-1.11,1.026l-0.412,0.437l-1.357,1.638l-0.496,0.422l-0.361,0.572l-0.197,0.203l-0.999,1.294l-0.585,0.647l-0.532,1.044
		l-0.568,0.371l-9.248,12.102l-0.145,0.595l-0.482,0.686l-0.635,0.854l-0.396,0.978l-0.244,0.443l0.493,1.799l0.459,0.776
		l0.818,1.262l0.278,0.115l0.03,0.526l-0.588-0.009l-1.631-1.183l-0.48-0.7l-0.479-0.049l-0.814,0.487l-0.884,0.992l-0.567,0.356
		l-3.192,4.188l-1.787,2.267l-0.755,0.598l-3.062,3.893l-1.047,1.013l-0.137,0.497l-0.703,1.067l-0.341,1.058l0.133,0.286
		l0.551,0.521l0.34,0.296l0.881,1.032l0.184,0.431l1.245,1.082l0.056,0.137l-0.288-0.063l-0.497-0.347l-1.438-0.82l-1.394-0.949
		l-1.291-0.096l-0.27,0.185l-1.65,2.18l-0.499,0.923l-0.28,0.193l-1.397,1.728l-0.67,1.39l-1.567,2.058l-0.968,1.308l-1.879,2.468
		l-4.05,5.322l-0.64,1.154l-0.8,1.077l-0.598,0.448l-0.168,0.248l0.062,0.59l1.149,1.457l0.291,0.884l3.949,3.002l0.414,0.111
		l1.068,0.751l2.25,1.714l0.254,0.471l1.268,1.032l5.065,3.877l0.055,0.139l-3.634-2.544l-3.599-2.739l-0.329-0.598l-0.596-0.153
		l-6.919-5.165l-0.554,0.131l-1.291-0.375l-1.15-0.448l-0.333,0.226l-2.506,3.249l-1.308,1.678l-0.771,0.721l-0.848,1.218
		l-2.272,2.781l-0.375,0.84l-3.621,4.883l-0.511,0.921l-0.299,0.52l-0.792,1.153l-0.168,0.58l-2.236,3.009l0.577,1.058l0.552,0.714
		l0.494,0.567l0.516,0.743l0.412,0.648l0.626,0.561l0.598,1.109l0.73,0.301l3.48,2.644l-0.668,0.152l-0.551,0.225l-0.15-0.006
		l-0.171-0.037l-0.279-0.281l0.155-0.892l-0.062-0.127l-1.256-0.96l-0.587-0.137l-1.296-0.961l-0.956-0.751l-3.322-1.72
		l-1.311,0.002l-0.926,1.017l-0.861,0.805l-0.186,0.609l-0.923,0.979l-0.707,1.094l-1.236,1.512l-0.127,0.076l-0.463,0.554
		l-0.327,0.72l-1.842,2.203l0.034,0.552 M44.87,151.34L44.87,151.34 M45.065,150.399L45.065,150.399l0.045,0.112"/>
</g>
</svg>
