<?xml version="1.0" encoding="UTF-8" standalone="no"?>
<svg width="141px" height="33px" viewBox="0 0 141 33" version="1.1" xmlns="http://www.w3.org/2000/svg" xmlns:xlink="http://www.w3.org/1999/xlink">
    <!-- Generator: Sketch 49 (51002) - http://www.bohemiancoding.com/sketch -->
    <title>baya-baya</title>
    <desc>Created with Sketch.</desc>
    <defs></defs>
    <g id="Page-1" stroke="none" stroke-width="1" fill="none" fill-rule="evenodd">
        <g id="Artboard" transform="translate(-360.000000, -350.000000)" fill="#000000">
            <g id="baya-baya" transform="translate(359.000000, 350.000000)">
                <path fill-opacity="0" stroke="#ffffff" stroke-width="0.2" d="M0.952,22.762 C0.952,22.592 1.088,22.456 1.258,22.456 C1.428,22.456 1.734,22.524 1.972,22.524 C3.468,22.524 4.182,21.3 4.182,20.348 L4.182,2.77 C4.182,1.818 3.468,0.594 1.972,0.594 C1.734,0.594 1.428,0.662 1.258,0.662 C1.088,0.662 0.952,0.526 0.952,0.356 C0.952,0.152 1.088,0.05 1.496,0.05 C1.7,0.05 4.182,0.118 7.548,0.118 C8.33,0.118 9.18,0.016 10.71,0.016 C14.348,0.016 18.496,1.206 18.496,5.626 C18.496,8.754 15.912,10.114 12.954,10.692 C16.762,11.032 20.434,12.528 20.434,16.37 C20.434,22.456 15.3,23.068 10.506,23.068 C9.962,23.068 8.194,23 7.514,23 C3.468,23 1.734,23.068 1.496,23.068 C1.088,23.068 0.952,22.966 0.952,22.762 Z M7.514,19.804 C7.514,21.368 8.194,22.082 11.22,22.082 C14.586,22.082 16.626,20.552 16.626,16.472 C16.626,12.426 12.92,11.27 7.514,11.27 L7.514,19.804 Z M7.514,9.434 C7.548,10.25 7.684,10.352 9.35,10.352 C12.954,10.352 14.688,9.468 14.688,5.728 C14.688,2.362 13.09,1.002 9.724,1.002 C8.16,1.002 7.514,1.172 7.514,2.056 L7.514,9.434 Z" id="Combined-Shape"></path>
                <path fill-opacity="0" stroke="#ffffff" stroke-width="0.2" d="M23.222,19.532 C23.222,16.132 31.552,15.554 31.824,15.554 L31.824,13.072 C31.824,10.964 31.586,8.992 29.444,8.992 C27.404,8.992 26.86,9.842 26.86,10.522 C26.86,11.304 27.336,11.746 27.336,12.324 C27.336,12.902 26.86,13.48 25.976,13.48 C24.956,13.48 24.276,12.8 24.276,11.576 C24.276,9.74 26.962,8.244 29.41,8.244 C33.966,8.244 34.748,10.624 34.748,13.072 L34.748,19.906 C34.748,21.028 34.884,21.878 36.04,21.878 C36.618,21.878 36.72,21.64 36.856,21.64 C36.992,21.64 37.094,21.742 37.094,21.878 C37.094,22.218 35.156,23.272 33.558,23.272 C31.926,23.272 31.824,22.184 31.824,21.028 C31.586,21.368 29.784,23.272 27.37,23.272 C24.548,23.272 23.222,21.64 23.222,19.532 Z M26.18,19.192 C26.18,20.96 27.37,21.742 28.356,21.742 C30.158,21.742 31.62,20.518 31.824,20.246 L31.824,16.302 C31.552,16.302 26.18,16.608 26.18,19.192 Z" id="Combined-Shape"></path>
                <path fill-opacity="0" stroke="#ffffff" stroke-width="0.2" d="M35.734,31.058 C35.734,30.446 36.21,29.902 36.754,29.902 C37.842,29.902 37.468,31.228 38.726,31.228 C39.712,31.228 40.426,29.698 41.344,27.862 C42.16,26.23 42.874,24.666 43.656,23 L38.726,10.488 C38.216,9.23 37.978,8.924 36.856,8.924 L36.516,8.924 C36.38,8.924 36.278,8.822 36.278,8.686 C36.278,8.55 36.38,8.448 36.516,8.448 C37.57,8.482 38.76,8.516 39.95,8.516 C41.276,8.516 42.602,8.516 43.826,8.448 C43.962,8.448 44.064,8.55 44.064,8.686 C44.064,8.822 43.962,8.924 43.826,8.924 L43.52,8.924 C41.548,8.924 41.446,9.23 41.922,10.488 L45.254,19.192 L48.96,10.182 C49.232,9.332 49.028,8.924 47.328,8.924 L46.988,8.924 C46.852,8.924 46.75,8.822 46.75,8.686 C46.75,8.55 46.852,8.448 47.022,8.448 C48.076,8.516 48.62,8.516 49.164,8.516 C49.708,8.516 50.286,8.482 51.442,8.448 C51.578,8.448 51.68,8.55 51.68,8.686 C51.68,8.822 51.578,8.924 51.442,8.924 L51.136,8.924 C50.456,8.924 50.116,9.468 49.674,10.488 L44.268,23.476 L42.874,26.366 C41.378,29.46 40.12,32.928 37.706,32.928 C36.448,32.928 35.734,31.908 35.734,31.058 Z" id="Path"></path>
                <path fill-opacity="0" stroke="#ffffff" stroke-width="0.2" d="M52.462,19.532 C52.462,16.132 60.792,15.554 61.064,15.554 L61.064,13.072 C61.064,10.964 60.826,8.992 58.684,8.992 C56.644,8.992 56.1,9.842 56.1,10.522 C56.1,11.304 56.576,11.746 56.576,12.324 C56.576,12.902 56.1,13.48 55.216,13.48 C54.196,13.48 53.516,12.8 53.516,11.576 C53.516,9.74 56.202,8.244 58.65,8.244 C63.206,8.244 63.988,10.624 63.988,13.072 L63.988,19.906 C63.988,21.028 64.124,21.878 65.28,21.878 C65.858,21.878 65.96,21.64 66.096,21.64 C66.232,21.64 66.334,21.742 66.334,21.878 C66.334,22.218 64.396,23.272 62.798,23.272 C61.166,23.272 61.064,22.184 61.064,21.028 C60.826,21.368 59.024,23.272 56.61,23.272 C53.788,23.272 52.462,21.64 52.462,19.532 Z M55.42,19.192 C55.42,20.96 56.61,21.742 57.596,21.742 C59.398,21.742 60.86,20.518 61.064,20.246 L61.064,16.302 C60.792,16.302 55.42,16.608 55.42,19.192 Z" id="Combined-Shape"></path>
                <path fill-opacity="0" stroke="#ffffff" stroke-width="0.2" d="M76.466,22.762 C76.466,22.592 76.602,22.456 76.772,22.456 C76.942,22.456 77.248,22.524 77.486,22.524 C78.982,22.524 79.696,21.3 79.696,20.348 L79.696,2.77 C79.696,1.818 78.982,0.594 77.486,0.594 C77.248,0.594 76.942,0.662 76.772,0.662 C76.602,0.662 76.466,0.526 76.466,0.356 C76.466,0.152 76.602,0.05 77.01,0.05 C77.214,0.05 79.696,0.118 83.062,0.118 C83.844,0.118 84.694,0.016 86.224,0.016 C89.862,0.016 94.01,1.206 94.01,5.626 C94.01,8.754 91.426,10.114 88.468,10.692 C92.276,11.032 95.948,12.528 95.948,16.37 C95.948,22.456 90.814,23.068 86.02,23.068 C85.476,23.068 83.708,23 83.028,23 C78.982,23 77.248,23.068 77.01,23.068 C76.602,23.068 76.466,22.966 76.466,22.762 Z M83.028,19.804 C83.028,21.368 83.708,22.082 86.734,22.082 C90.1,22.082 92.14,20.552 92.14,16.472 C92.14,12.426 88.434,11.27 83.028,11.27 L83.028,19.804 Z M83.028,9.434 C83.062,10.25 83.198,10.352 84.864,10.352 C88.468,10.352 90.202,9.468 90.202,5.728 C90.202,2.362 88.604,1.002 85.238,1.002 C83.674,1.002 83.028,1.172 83.028,2.056 L83.028,9.434 Z" id="Combined-Shape"></path>
                <path fill-opacity="0" stroke="#ffffff" stroke-width="0.2" d="M98.736,19.532 C98.736,16.132 107.066,15.554 107.338,15.554 L107.338,13.072 C107.338,10.964 107.1,8.992 104.958,8.992 C102.918,8.992 102.374,9.842 102.374,10.522 C102.374,11.304 102.85,11.746 102.85,12.324 C102.85,12.902 102.374,13.48 101.49,13.48 C100.47,13.48 99.79,12.8 99.79,11.576 C99.79,9.74 102.476,8.244 104.924,8.244 C109.48,8.244 110.262,10.624 110.262,13.072 L110.262,19.906 C110.262,21.028 110.398,21.878 111.554,21.878 C112.132,21.878 112.234,21.64 112.37,21.64 C112.506,21.64 112.608,21.742 112.608,21.878 C112.608,22.218 110.67,23.272 109.072,23.272 C107.44,23.272 107.338,22.184 107.338,21.028 C107.1,21.368 105.298,23.272 102.884,23.272 C100.062,23.272 98.736,21.64 98.736,19.532 Z M101.694,19.192 C101.694,20.96 102.884,21.742 103.87,21.742 C105.672,21.742 107.134,20.518 107.338,20.246 L107.338,16.302 C107.066,16.302 101.694,16.608 101.694,19.192 Z" id="Combined-Shape"></path>
                <path fill-opacity="0" stroke="#ffffff" stroke-width="0.2" d="M111.248,31.058 C111.248,30.446 111.724,29.902 112.268,29.902 C113.356,29.902 112.982,31.228 114.24,31.228 C115.226,31.228 115.94,29.698 116.858,27.862 C117.674,26.23 118.388,24.666 119.17,23 L114.24,10.488 C113.73,9.23 113.492,8.924 112.37,8.924 L112.03,8.924 C111.894,8.924 111.792,8.822 111.792,8.686 C111.792,8.55 111.894,8.448 112.03,8.448 C113.084,8.482 114.274,8.516 115.464,8.516 C116.79,8.516 118.116,8.516 119.34,8.448 C119.476,8.448 119.578,8.55 119.578,8.686 C119.578,8.822 119.476,8.924 119.34,8.924 L119.034,8.924 C117.062,8.924 116.96,9.23 117.436,10.488 L120.768,19.192 L124.474,10.182 C124.746,9.332 124.542,8.924 122.842,8.924 L122.502,8.924 C122.366,8.924 122.264,8.822 122.264,8.686 C122.264,8.55 122.366,8.448 122.536,8.448 C123.59,8.516 124.134,8.516 124.678,8.516 C125.222,8.516 125.8,8.482 126.956,8.448 C127.092,8.448 127.194,8.55 127.194,8.686 C127.194,8.822 127.092,8.924 126.956,8.924 L126.65,8.924 C125.97,8.924 125.63,9.468 125.188,10.488 L119.782,23.476 L118.388,26.366 C116.892,29.46 115.634,32.928 113.22,32.928 C111.962,32.928 111.248,31.908 111.248,31.058 Z" id="Path"></path>
                <path fill-opacity="0" stroke="#ffffff" stroke-width="0.2" d="M127.976,19.532 C127.976,16.132 136.306,15.554 136.578,15.554 L136.578,13.072 C136.578,10.964 136.34,8.992 134.198,8.992 C132.158,8.992 131.614,9.842 131.614,10.522 C131.614,11.304 132.09,11.746 132.09,12.324 C132.09,12.902 131.614,13.48 130.73,13.48 C129.71,13.48 129.03,12.8 129.03,11.576 C129.03,9.74 131.716,8.244 134.164,8.244 C138.72,8.244 139.502,10.624 139.502,13.072 L139.502,19.906 C139.502,21.028 139.638,21.878 140.794,21.878 C141.372,21.878 141.474,21.64 141.61,21.64 C141.746,21.64 141.848,21.742 141.848,21.878 C141.848,22.218 139.91,23.272 138.312,23.272 C136.68,23.272 136.578,22.184 136.578,21.028 C136.34,21.368 134.538,23.272 132.124,23.272 C129.302,23.272 127.976,21.64 127.976,19.532 Z M130.934,19.192 C130.934,20.96 132.124,21.742 133.11,21.742 C134.912,21.742 136.374,20.518 136.578,20.246 L136.578,16.302 C136.306,16.302 130.934,16.608 130.934,19.192 Z" id="Combined-Shape"></path>
            </g>
        </g>
    </g>
</svg>