<?xml version="1.0" encoding="UTF-8" standalone="no"?>
<svg width="151px" height="32px" viewBox="0 0 151 32" version="1.1" xmlns="http://www.w3.org/2000/svg" xmlns:xlink="http://www.w3.org/1999/xlink">
    <!-- Generator: Sketch 49 (51002) - http://www.bohemiancoding.com/sketch -->
    <title>BayaBaya</title>
    <desc>Created with Sketch.</desc>
    <defs></defs>
    <g id="Page-1" stroke="none" stroke-width="1" fill="none" fill-rule="evenodd">
        <g id="Artboard" transform="translate(-37.000000, -264.000000)" fill="#000000" fill-rule="nonzero">
            <g id="BayaBaya" transform="translate(37.000000, 264.000000)">
                <path d="M17.054,14.443 C15.989,13.343 14.209,12.624 11.716,12.284 L11.716,12.216 C13.507,11.672 14.816,10.879 15.643,9.836 C16.47,8.793 16.884,7.615 16.884,6.3 C16.884,4.691 16.266,3.399 15.031,2.424 C13.796,1.449 12.022,0.962 9.71,0.962 C9.166,0.962 8.679,0.973 8.248,0.996 L4.576,1.03 C2.763,1.03 1.38,0.996 0.428,0.927 L0.428,1.607 C1.244,1.653 1.839,1.744 2.213,1.879 C2.587,2.014 2.842,2.276 2.978,2.661 C3.114,3.046 3.182,3.67 3.182,4.531 L3.182,21.395 C3.182,22.256 3.114,22.879 2.978,23.264 C2.842,23.65 2.587,23.91 2.213,24.046 C1.839,24.182 1.244,24.273 0.428,24.318 L0.428,25 C1.38,24.932 2.785,24.898 4.644,24.898 C6.049,24.898 7.477,24.92 8.928,24.965 C9.359,24.988 9.88,25 10.492,25 C12.169,25 13.62,24.723 14.844,24.167 C16.068,23.611 17.009,22.836 17.666,21.838 C18.323,20.841 18.652,19.695 18.652,18.404 C18.652,16.863 18.119,15.543 17.054,14.443 Z M6.344,4.532 C6.344,3.716 6.412,3.103 6.548,2.695 C6.684,2.288 6.928,2.005 7.279,1.845 C7.631,1.687 8.157,1.607 8.86,1.607 C10.537,1.607 11.75,2.027 12.498,2.866 C13.246,3.705 13.62,4.974 13.62,6.674 C13.62,8.352 13.251,9.695 12.515,10.703 C11.778,11.712 10.48,12.216 8.622,12.216 L6.344,12.216 L6.344,4.532 Z M8.894,24.218 C8.168,24.218 7.63,24.145 7.279,23.997 C6.928,23.85 6.684,23.584 6.548,23.198 C6.412,22.812 6.344,22.212 6.344,21.396 L6.344,12.793 L9.2,12.793 C11.308,12.793 12.844,13.258 13.807,14.187 C14.77,15.117 15.252,16.477 15.252,18.267 C15.252,22.234 13.133,24.218 8.894,24.218 Z" id="Shape"></path>
                <path d="M36.706,23.402 C36.434,23.629 36.179,23.804 35.941,23.929 C35.703,24.053 35.448,24.116 35.176,24.116 C34.791,24.116 34.519,23.991 34.36,23.742 C34.201,23.492 34.122,23.084 34.122,22.517 L34.122,13.066 C34.122,11.865 34.026,10.895 33.833,10.159 C33.64,9.422 33.261,8.793 32.694,8.271 C31.787,7.433 30.45,7.013 28.682,7.013 C27.684,7.013 26.766,7.138 25.928,7.388 C25.089,7.636 24.398,7.954 23.854,8.339 C23.333,8.702 22.942,9.065 22.681,9.427 C22.42,9.79 22.29,10.243 22.29,10.787 C22.29,11.353 22.449,11.835 22.766,12.231 C23.083,12.628 23.559,12.827 24.194,12.827 C24.761,12.827 25.225,12.663 25.588,12.334 C25.951,12.005 26.132,11.558 26.132,10.991 C26.132,10.447 25.979,9.993 25.673,9.631 C25.367,9.269 24.987,9.03 24.534,8.917 C25.191,8.101 26.313,7.692 27.9,7.692 C28.898,7.692 29.674,7.936 30.229,8.423 C30.784,8.91 31.062,9.812 31.062,11.126 L31.062,13.234 C31.062,13.845 30.756,14.334 30.144,14.696 C29.532,15.058 28.591,15.455 27.322,15.886 C26.075,16.316 25.072,16.724 24.313,17.109 C23.554,17.495 22.896,18.016 22.341,18.673 C21.786,19.331 21.508,20.169 21.508,21.189 C21.508,22.459 21.854,23.451 22.545,24.165 C23.236,24.879 24.296,25.236 25.724,25.236 C26.834,25.236 27.832,25.015 28.716,24.573 C29.6,24.131 30.382,23.344 31.062,22.21 C31.062,23.14 31.277,23.876 31.708,24.42 C32.139,24.964 32.898,25.236 33.986,25.236 C34.621,25.236 35.148,25.139 35.567,24.947 C35.986,24.754 36.491,24.431 37.08,23.978 L36.706,23.402 Z M31.062,21.294 C29.997,23.017 28.716,23.878 27.22,23.878 C26.404,23.878 25.746,23.617 25.248,23.096 C24.75,22.575 24.5,21.805 24.5,20.784 C24.5,19.9 24.693,19.175 25.078,18.607 C25.463,18.041 25.922,17.593 26.455,17.265 C26.988,16.936 27.684,16.59 28.546,16.228 C29.294,15.888 29.849,15.616 30.212,15.412 C30.575,15.208 30.858,14.947 31.062,14.63 L31.062,21.294 Z" id="Shape"></path>
                <path d="M53.706,7.49 L53.706,8.17 C53.252,8.215 52.851,8.42 52.499,8.782 C52.147,9.144 51.813,9.734 51.496,10.55 L45.92,25.17 L44.764,28.128 C44.333,29.238 43.846,30.032 43.302,30.508 C42.962,30.825 42.554,31.052 42.078,31.188 C41.602,31.325 41.126,31.393 40.65,31.393 C39.97,31.393 39.415,31.211 38.984,30.848 C38.553,30.486 38.338,29.987 38.338,29.352 C38.338,28.809 38.497,28.372 38.814,28.043 C39.131,27.714 39.573,27.55 40.14,27.55 C40.639,27.55 41.052,27.692 41.381,27.975 C41.71,28.258 41.874,28.65 41.874,29.149 C41.874,29.829 41.568,30.338 40.956,30.678 C41.001,30.701 41.069,30.712 41.16,30.712 C42.407,30.712 43.37,29.828 44.05,28.061 L45.24,24.966 L39.086,10.108 C38.701,9.338 38.315,8.828 37.93,8.579 C37.544,8.329 37.159,8.205 36.774,8.205 L36.774,7.491 C37.749,7.627 38.859,7.694 40.106,7.694 C41.239,7.694 42.713,7.627 44.526,7.491 L44.526,8.205 C43.71,8.205 43.115,8.272 42.741,8.409 C42.367,8.545 42.18,8.874 42.18,9.395 C42.18,9.871 42.316,10.426 42.588,11.061 L46.668,21.192 L50.442,11.367 C50.692,10.686 50.816,10.165 50.816,9.803 C50.816,9.282 50.612,8.897 50.204,8.648 C49.796,8.398 49.15,8.24 48.266,8.171 L48.266,7.491 C49.467,7.559 50.419,7.593 51.122,7.593 C52.119,7.592 52.98,7.559 53.706,7.49 Z" id="Path_5_"></path>
                <path d="M70.366,23.402 C70.094,23.629 69.839,23.804 69.601,23.929 C69.363,24.053 69.108,24.116 68.836,24.116 C68.451,24.116 68.179,23.991 68.02,23.742 C67.861,23.492 67.782,23.084 67.782,22.517 L67.782,13.066 C67.782,11.865 67.685,10.895 67.493,10.159 C67.3,9.422 66.921,8.793 66.354,8.271 C65.447,7.433 64.11,7.013 62.342,7.013 C61.345,7.013 60.427,7.138 59.588,7.388 C58.75,7.636 58.058,7.954 57.514,8.339 C56.993,8.702 56.601,9.065 56.341,9.427 C56.081,9.79 55.95,10.243 55.95,10.787 C55.95,11.353 56.109,11.835 56.426,12.231 C56.743,12.628 57.219,12.827 57.854,12.827 C58.421,12.827 58.885,12.663 59.248,12.334 C59.611,12.005 59.792,11.558 59.792,10.991 C59.792,10.447 59.639,9.993 59.333,9.631 C59.027,9.269 58.647,9.03 58.194,8.917 C58.852,8.101 59.973,7.692 61.56,7.692 C62.557,7.692 63.333,7.936 63.889,8.423 C64.444,8.91 64.722,9.812 64.722,11.126 L64.722,13.234 C64.722,13.845 64.416,14.334 63.804,14.696 C63.192,15.058 62.251,15.455 60.982,15.886 C59.735,16.316 58.732,16.724 57.973,17.109 C57.214,17.495 56.556,18.016 56.001,18.673 C55.446,19.331 55.168,20.169 55.168,21.189 C55.168,22.459 55.514,23.451 56.205,24.165 C56.896,24.879 57.956,25.236 59.384,25.236 C60.495,25.236 61.492,25.015 62.376,24.573 C63.26,24.131 64.042,23.344 64.722,22.21 C64.722,23.14 64.937,23.876 65.368,24.42 C65.799,24.964 66.558,25.236 67.646,25.236 C68.281,25.236 68.808,25.139 69.227,24.947 C69.646,24.754 70.151,24.431 70.74,23.978 L70.366,23.402 Z M64.722,21.294 C63.657,23.017 62.376,23.878 60.88,23.878 C60.064,23.878 59.407,23.617 58.908,23.096 C58.409,22.575 58.16,21.805 58.16,20.784 C58.16,19.9 58.352,19.175 58.738,18.607 C59.124,18.041 59.583,17.593 60.115,17.265 C60.647,16.936 61.344,16.59 62.206,16.228 C62.954,15.888 63.509,15.616 63.872,15.412 C64.235,15.208 64.518,14.947 64.722,14.63 L64.722,21.294 Z" id="Shape"></path>
                <path d="M96.886,14.443 C95.821,13.343 94.041,12.624 91.548,12.284 L91.548,12.216 C93.339,11.672 94.648,10.879 95.475,9.836 C96.302,8.793 96.716,7.615 96.716,6.3 C96.716,4.691 96.098,3.399 94.863,2.424 C93.628,1.449 91.854,0.962 89.542,0.962 C88.998,0.962 88.511,0.973 88.08,0.996 L84.408,1.03 C82.595,1.03 81.212,0.996 80.26,0.927 L80.26,1.607 C81.076,1.653 81.671,1.744 82.045,1.879 C82.419,2.014 82.674,2.276 82.81,2.661 C82.946,3.046 83.014,3.67 83.014,4.531 L83.014,21.395 C83.014,22.256 82.946,22.879 82.81,23.264 C82.674,23.65 82.419,23.91 82.045,24.046 C81.671,24.182 81.076,24.273 80.26,24.318 L80.26,25 C81.212,24.932 82.617,24.898 84.476,24.898 C85.881,24.898 87.309,24.92 88.76,24.965 C89.191,24.987 89.712,24.999 90.324,24.999 C92.001,24.999 93.452,24.722 94.676,24.166 C95.9,23.61 96.841,22.835 97.498,21.837 C98.155,20.84 98.484,19.694 98.484,18.403 C98.484,16.863 97.951,15.543 96.886,14.443 Z M86.176,4.532 C86.176,3.716 86.244,3.103 86.38,2.695 C86.516,2.288 86.76,2.005 87.111,1.845 C87.463,1.687 87.989,1.607 88.692,1.607 C90.369,1.607 91.582,2.027 92.33,2.866 C93.078,3.705 93.452,4.974 93.452,6.674 C93.452,8.352 93.083,9.695 92.347,10.703 C91.61,11.712 90.312,12.216 88.454,12.216 L86.176,12.216 L86.176,4.532 Z M88.726,24.218 C88,24.218 87.462,24.145 87.111,23.997 C86.76,23.85 86.516,23.584 86.38,23.198 C86.244,22.812 86.176,22.212 86.176,21.396 L86.176,12.793 L89.032,12.793 C91.14,12.793 92.676,13.258 93.639,14.187 C94.602,15.117 95.084,16.477 95.084,18.267 C95.084,22.234 92.965,24.218 88.726,24.218 Z" id="Shape"></path>
                <path d="M116.538,23.402 C116.266,23.629 116.011,23.804 115.773,23.929 C115.535,24.053 115.28,24.116 115.008,24.116 C114.623,24.116 114.351,23.991 114.192,23.742 C114.033,23.492 113.954,23.084 113.954,22.517 L113.954,13.066 C113.954,11.865 113.857,10.895 113.665,10.159 C113.472,9.422 113.093,8.793 112.526,8.271 C111.619,7.433 110.282,7.013 108.514,7.013 C107.516,7.013 106.598,7.138 105.76,7.388 C104.922,7.636 104.23,7.954 103.686,8.339 C103.165,8.702 102.773,9.065 102.513,9.427 C102.252,9.79 102.122,10.243 102.122,10.787 C102.122,11.353 102.281,11.835 102.598,12.231 C102.915,12.628 103.391,12.827 104.026,12.827 C104.593,12.827 105.057,12.663 105.42,12.334 C105.783,12.005 105.964,11.558 105.964,10.991 C105.964,10.447 105.811,9.993 105.505,9.631 C105.199,9.269 104.819,9.03 104.366,8.917 C105.023,8.101 106.145,7.692 107.732,7.692 C108.73,7.692 109.506,7.936 110.061,8.423 C110.616,8.91 110.894,9.812 110.894,11.126 L110.894,13.234 C110.894,13.845 110.588,14.334 109.976,14.696 C109.364,15.058 108.423,15.455 107.154,15.886 C105.907,16.316 104.904,16.724 104.145,17.109 C103.386,17.495 102.728,18.016 102.173,18.673 C101.618,19.331 101.34,20.169 101.34,21.189 C101.34,22.459 101.686,23.451 102.377,24.165 C103.068,24.879 104.128,25.236 105.556,25.236 C106.666,25.236 107.664,25.015 108.548,24.573 C109.432,24.131 110.214,23.344 110.894,22.21 C110.894,23.14 111.109,23.876 111.54,24.42 C111.971,24.964 112.73,25.236 113.818,25.236 C114.453,25.236 114.98,25.139 115.399,24.947 C115.818,24.754 116.323,24.431 116.912,23.978 L116.538,23.402 Z M110.894,21.294 C109.829,23.017 108.548,23.878 107.052,23.878 C106.236,23.878 105.579,23.617 105.08,23.096 C104.581,22.575 104.332,21.805 104.332,20.784 C104.332,19.9 104.524,19.175 104.91,18.607 C105.295,18.041 105.754,17.593 106.287,17.265 C106.82,16.936 107.516,16.59 108.378,16.228 C109.126,15.888 109.681,15.616 110.044,15.412 C110.407,15.208 110.69,14.947 110.894,14.63 L110.894,21.294 Z" id="Shape"></path>
                <path d="M133.538,7.49 L133.538,8.17 C133.084,8.215 132.682,8.42 132.331,8.782 C131.979,9.144 131.645,9.734 131.328,10.55 L125.752,25.17 L124.596,28.128 C124.166,29.238 123.678,30.032 123.134,30.508 C122.794,30.825 122.387,31.052 121.91,31.188 C121.433,31.325 120.958,31.393 120.482,31.393 C119.801,31.393 119.246,31.211 118.815,30.848 C118.384,30.486 118.169,29.987 118.169,29.352 C118.169,28.809 118.328,28.372 118.645,28.043 C118.962,27.714 119.404,27.55 119.972,27.55 C120.47,27.55 120.884,27.692 121.212,27.975 C121.54,28.258 121.705,28.65 121.705,29.149 C121.705,29.829 121.399,30.338 120.787,30.678 C120.833,30.701 120.9,30.712 120.991,30.712 C122.237,30.712 123.201,29.828 123.881,28.061 L125.071,24.966 L118.917,10.108 C118.532,9.338 118.146,8.828 117.761,8.579 C117.375,8.329 116.99,8.205 116.605,8.205 L116.605,7.491 C117.58,7.627 118.69,7.694 119.937,7.694 C121.071,7.694 122.544,7.627 124.357,7.491 L124.357,8.205 C123.542,8.205 122.947,8.272 122.573,8.409 C122.199,8.545 122.011,8.874 122.011,9.395 C122.011,9.871 122.148,10.426 122.419,11.061 L126.499,21.192 L130.272,11.367 C130.522,10.686 130.647,10.165 130.647,9.803 C130.647,9.282 130.442,8.897 130.035,8.648 C129.627,8.398 128.981,8.24 128.097,8.171 L128.097,7.491 C129.298,7.559 130.251,7.593 130.953,7.593 C131.951,7.592 132.812,7.559 133.538,7.49 Z" id="Path_13_"></path>
                <path d="M150.198,23.402 C149.926,23.629 149.671,23.804 149.433,23.929 C149.195,24.053 148.939,24.116 148.667,24.116 C148.282,24.116 148.01,23.991 147.851,23.742 C147.693,23.492 147.613,23.084 147.613,22.517 L147.613,13.066 C147.613,11.865 147.517,10.895 147.325,10.159 C147.133,9.422 146.752,8.793 146.185,8.271 C145.279,7.433 143.941,7.013 142.173,7.013 C141.176,7.013 140.258,7.138 139.419,7.388 C138.581,7.636 137.89,7.954 137.345,8.339 C136.824,8.702 136.433,9.065 136.172,9.427 C135.911,9.79 135.781,10.243 135.781,10.787 C135.781,11.353 135.939,11.835 136.257,12.231 C136.574,12.628 137.05,12.827 137.685,12.827 C138.251,12.827 138.716,12.663 139.08,12.334 C139.444,12.005 139.624,11.558 139.624,10.991 C139.624,10.447 139.471,9.993 139.165,9.631 C138.859,9.269 138.479,9.03 138.025,8.917 C138.683,8.101 139.804,7.692 141.392,7.692 C142.388,7.692 143.165,7.936 143.72,8.423 C144.276,8.91 144.554,9.812 144.554,11.126 L144.554,13.234 C144.554,13.845 144.247,14.334 143.636,14.696 C143.023,15.058 142.083,15.455 140.814,15.886 C139.567,16.316 138.564,16.724 137.804,17.109 C137.045,17.495 136.388,18.016 135.832,18.673 C135.276,19.331 134.999,20.169 134.999,21.189 C134.999,22.459 135.345,23.451 136.036,24.165 C136.727,24.879 137.787,25.236 139.215,25.236 C140.325,25.236 141.323,25.015 142.207,24.573 C143.091,24.131 143.873,23.344 144.554,22.21 C144.554,23.14 144.769,23.876 145.2,24.42 C145.631,24.964 146.39,25.236 147.478,25.236 C148.113,25.236 148.639,25.139 149.058,24.947 C149.478,24.754 149.982,24.431 150.572,23.978 L150.198,23.402 Z M144.555,21.294 C143.489,23.017 142.208,23.878 140.712,23.878 C139.897,23.878 139.238,23.617 138.74,23.096 C138.241,22.575 137.992,21.805 137.992,20.784 C137.992,19.9 138.184,19.175 138.57,18.607 C138.955,18.041 139.414,17.593 139.947,17.265 C140.479,16.936 141.176,16.59 142.038,16.228 C142.786,15.888 143.342,15.616 143.704,15.412 C144.066,15.208 144.35,14.947 144.555,14.63 L144.555,21.294 Z" id="Shape"></path>
            </g>
        </g>
    </g>
</svg>