<?xml version="1.0" encoding="UTF-8" standalone="no"?>
<svg width="141px" height="28px" viewBox="0 0 141 28" version="1.1" xmlns="http://www.w3.org/2000/svg" xmlns:xlink="http://www.w3.org/1999/xlink">
    <!-- Generator: Sketch 49 (51002) - http://www.bohemiancoding.com/sketch -->
    <title>Cabernet</title>
    <desc>Created with Sketch.</desc>
    <defs></defs>
    <g id="Page-1" stroke="none" stroke-width="1" fill="none" fill-rule="evenodd">
        <g id="Artboard" transform="translate(-37.000000, -62.000000)" fill="#000000" fill-rule="nonzero">
            <g id="Cabernet" transform="translate(37.000000, 62.000000)">
                <path d="M15.082,3.03 C16.034,3.415 16.963,3.959 17.87,4.662 C18.119,4.866 18.334,4.968 18.516,4.968 C18.969,4.968 19.264,4.288 19.4,2.928 L20.182,2.928 C20.091,4.402 20.046,7.008 20.046,10.748 L19.264,10.748 C19.014,9.274 18.788,8.215 18.584,7.569 C18.38,6.923 18.04,6.305 17.564,5.716 C16.884,4.832 16.017,4.169 14.963,3.727 C13.909,3.285 12.77,3.064 11.546,3.064 C10.073,3.064 8.786,3.551 7.687,4.526 C6.588,5.501 5.732,6.889 5.12,8.691 C4.508,10.493 4.202,12.607 4.202,15.032 C4.202,17.503 4.531,19.622 5.188,21.39 C5.845,23.158 6.758,24.501 7.925,25.419 C9.092,26.337 10.413,26.796 11.886,26.796 C13.019,26.796 14.118,26.581 15.184,26.15 C16.25,25.719 17.088,25.073 17.7,24.212 C18.153,23.577 18.482,22.898 18.686,22.172 C18.89,21.447 19.082,20.336 19.264,18.84 L20.046,18.84 C20.046,22.739 20.091,25.459 20.182,27 L19.4,27 C19.332,26.274 19.236,25.759 19.111,25.453 C18.986,25.147 18.811,24.994 18.584,24.994 C18.403,24.994 18.165,25.084 17.87,25.266 C16.85,25.991 15.875,26.541 14.946,26.915 C14.017,27.289 12.895,27.476 11.58,27.476 C9.427,27.476 7.539,26.989 5.919,26.014 C4.298,25.039 3.041,23.628 2.145,21.781 C1.249,19.933 0.802,17.729 0.802,15.168 C0.802,12.675 1.261,10.465 2.179,8.538 C3.097,6.611 4.377,5.115 6.021,4.05 C7.665,2.985 9.529,2.452 11.614,2.452 C12.974,2.452 14.13,2.645 15.082,3.03 Z" id="Path_16_"></path>
                <path d="M38.916,25.402 C38.644,25.629 38.389,25.804 38.151,25.929 C37.913,26.054 37.658,26.116 37.386,26.116 C37,26.116 36.728,25.991 36.57,25.742 C36.411,25.492 36.332,25.084 36.332,24.518 L36.332,15.066 C36.332,13.865 36.236,12.896 36.043,12.159 C35.85,11.422 35.471,10.793 34.904,10.272 C33.998,9.434 32.66,9.014 30.892,9.014 C29.894,9.014 28.976,9.139 28.138,9.388 C27.299,9.637 26.608,9.954 26.064,10.34 C25.543,10.703 25.152,11.066 24.891,11.428 C24.63,11.791 24.5,12.244 24.5,12.788 C24.5,13.354 24.659,13.836 24.976,14.233 C25.293,14.63 25.769,14.828 26.404,14.828 C26.971,14.828 27.436,14.663 27.798,14.335 C28.161,14.006 28.342,13.559 28.342,12.992 C28.342,12.448 28.189,11.994 27.883,11.632 C27.577,11.27 27.197,11.031 26.744,10.918 C27.401,10.102 28.523,9.694 30.11,9.694 C31.108,9.694 31.884,9.938 32.439,10.425 C32.994,10.912 33.272,11.814 33.272,13.128 L33.272,15.236 C33.272,15.848 32.966,16.336 32.354,16.698 C31.742,17.06 30.801,17.457 29.532,17.888 C28.285,18.319 27.282,18.726 26.523,19.112 C25.764,19.498 25.106,20.019 24.551,20.676 C23.996,21.334 23.718,22.172 23.718,23.192 C23.718,24.462 24.064,25.453 24.755,26.167 C25.446,26.881 26.506,27.238 27.934,27.238 C29.044,27.238 30.042,27.017 30.926,26.575 C31.81,26.133 32.592,25.345 33.272,24.212 C33.272,25.142 33.487,25.878 33.918,26.422 C34.349,26.966 35.108,27.238 36.196,27.238 C36.831,27.238 37.358,27.142 37.777,26.949 C38.196,26.756 38.701,26.433 39.29,25.98 L38.916,25.402 Z M33.272,23.294 C32.207,25.017 30.926,25.878 29.43,25.878 C28.614,25.878 27.956,25.617 27.458,25.096 C26.959,24.575 26.71,23.804 26.71,22.784 C26.71,21.9 26.903,21.175 27.288,20.608 C27.673,20.042 28.132,19.594 28.665,19.265 C29.198,18.936 29.894,18.591 30.756,18.228 C31.504,17.888 32.06,17.616 32.422,17.412 C32.785,17.208 33.068,16.947 33.272,16.63 L33.272,23.294 Z" id="Shape"></path>
                <path d="M55.083,11.394 C53.893,9.807 52.334,9.014 50.408,9.014 C49.252,9.014 48.203,9.331 47.263,9.966 C46.322,10.601 45.602,11.496 45.104,12.652 L45.104,0.378 C44.175,0.695 42.996,0.854 41.568,0.854 C40.888,0.854 40.186,0.82 39.46,0.752 L39.46,1.466 C40.412,1.466 41.081,1.704 41.466,2.18 C41.852,2.656 42.044,3.415 42.044,4.458 L42.044,25.334 C42.044,26.082 41.965,26.739 41.806,27.306 L42.384,27.544 L44.798,25.504 C45.387,26.139 46.073,26.626 46.855,26.966 C47.637,27.306 48.447,27.476 49.286,27.476 C50.691,27.476 51.966,27.124 53.111,26.422 C54.256,25.719 55.168,24.677 55.848,23.294 C56.528,21.911 56.868,20.234 56.868,18.262 C56.868,15.27 56.273,12.98 55.083,11.394 Z M52.431,24.637 C51.672,26.008 50.533,26.694 49.014,26.694 C48.288,26.694 47.586,26.552 46.906,26.269 C46.226,25.986 45.625,25.572 45.104,25.028 L45.104,14.25 C45.444,12.913 46.011,11.875 46.804,11.139 C47.597,10.402 48.47,10.034 49.422,10.034 C50.827,10.034 51.87,10.714 52.55,12.074 C53.23,13.434 53.57,15.496 53.57,18.262 C53.57,21.141 53.19,23.266 52.431,24.637 Z" id="Shape"></path>
                <path d="M73.528,22.648 C72.962,23.872 72.259,24.745 71.42,25.266 C70.582,25.787 69.618,26.048 68.53,26.048 C67.646,26.048 66.802,25.748 65.997,25.147 C65.192,24.546 64.546,23.69 64.059,22.58 C63.572,21.469 63.328,20.166 63.328,18.67 C63.328,17.854 63.362,17.129 63.43,16.494 L74.072,16.494 C74.072,13.978 73.523,12.102 72.423,10.867 C71.324,9.632 69.754,9.014 67.714,9.014 C66.173,9.014 64.824,9.405 63.668,10.187 C62.512,10.969 61.617,12.085 60.982,13.536 C60.347,14.987 60.03,16.698 60.03,18.67 C60.03,20.416 60.342,21.951 60.965,23.277 C61.589,24.603 62.489,25.634 63.668,26.371 C64.847,27.107 66.241,27.476 67.85,27.476 C69.436,27.476 70.791,27.028 71.913,26.133 C73.035,25.238 73.8,24.167 74.208,22.92 L73.528,22.648 Z M64.824,11.224 C65.595,10.181 66.512,9.66 67.578,9.66 C68.666,9.66 69.488,10.249 70.043,11.428 C70.598,12.607 70.854,14.08 70.808,15.848 L63.396,15.848 C63.577,13.808 64.053,12.267 64.824,11.224 Z" id="Shape"></path>
                <path d="M89.457,9.796 C90.035,10.317 90.324,10.952 90.324,11.7 C90.324,12.289 90.148,12.793 89.797,13.213 C89.446,13.632 88.976,13.842 88.386,13.842 C87.887,13.842 87.462,13.684 87.111,13.366 C86.76,13.049 86.584,12.618 86.584,12.074 C86.584,11.326 86.969,10.714 87.74,10.238 C87.581,10.011 87.343,9.898 87.026,9.898 C86.142,9.898 85.338,10.244 84.612,10.935 C83.887,11.626 83.32,12.471 82.912,13.468 C82.504,14.466 82.3,15.406 82.3,16.29 L82.3,23.498 C82.3,24.54 82.6,25.266 83.201,25.674 C83.802,26.082 84.702,26.286 85.904,26.286 L85.904,27 L85.088,26.966 C82.776,26.898 81.303,26.864 80.668,26.864 C80.079,26.864 78.741,26.909 76.656,27 L76.656,26.286 C77.608,26.286 78.277,26.11 78.662,25.759 C79.047,25.408 79.24,24.768 79.24,23.838 L79.24,13.196 C79.24,12.154 79.047,11.394 78.662,10.918 C78.277,10.442 77.608,10.204 76.656,10.204 L76.656,9.49 C77.381,9.558 78.084,9.592 78.764,9.592 C80.192,9.592 81.37,9.434 82.3,9.116 L82.3,13.366 C82.708,12.232 83.36,11.224 84.255,10.34 C85.151,9.456 86.142,9.014 87.23,9.014 C88.137,9.014 88.879,9.274 89.457,9.796 Z" id="Path_23_"></path>
                <path d="M106.814,10.306 C107.245,10.759 107.551,11.326 107.732,12.006 C107.913,12.686 108.004,13.604 108.004,14.76 L108.004,23.838 C108.004,24.768 108.197,25.408 108.582,25.759 C108.967,26.111 109.636,26.286 110.588,26.286 L110.588,27 C108.503,26.909 107.143,26.864 106.508,26.864 C105.874,26.864 104.604,26.909 102.7,27 L102.7,26.286 C103.538,26.286 104.122,26.11 104.451,25.759 C104.78,25.408 104.944,24.768 104.944,23.838 L104.944,14.012 C104.944,12.742 104.763,11.773 104.4,11.105 C104.037,10.437 103.301,10.102 102.19,10.102 C101.261,10.102 100.433,10.374 99.708,10.918 C98.982,11.462 98.422,12.204 98.025,13.145 C97.629,14.086 97.43,15.134 97.43,16.29 L97.43,23.838 C97.43,24.768 97.594,25.408 97.923,25.759 C98.252,26.111 98.836,26.286 99.674,26.286 L99.674,27 C97.77,26.909 96.501,26.864 95.866,26.864 C95.231,26.864 93.871,26.909 91.786,27 L91.786,26.286 C92.738,26.286 93.407,26.11 93.792,25.759 C94.177,25.408 94.37,24.768 94.37,23.838 L94.37,13.196 C94.37,12.154 94.177,11.394 93.792,10.918 C93.407,10.442 92.738,10.204 91.786,10.204 L91.786,9.49 C92.511,9.558 93.214,9.592 93.894,9.592 C95.322,9.592 96.5,9.434 97.43,9.116 L97.43,13.128 C97.996,11.677 98.784,10.629 99.793,9.983 C100.802,9.337 101.94,9.014 103.21,9.014 C104.797,9.014 105.998,9.445 106.814,10.306 Z" id="Path_24_"></path>
                <path d="M126.16,22.648 C125.594,23.872 124.89,24.745 124.052,25.266 C123.213,25.787 122.25,26.048 121.162,26.048 C120.277,26.048 119.433,25.748 118.629,25.147 C117.825,24.546 117.178,23.69 116.691,22.58 C116.204,21.469 115.96,20.166 115.96,18.67 C115.96,17.854 115.994,17.129 116.062,16.494 L126.704,16.494 C126.704,13.978 126.154,12.102 125.055,10.867 C123.956,9.632 122.387,9.014 120.346,9.014 C118.805,9.014 117.456,9.405 116.3,10.187 C115.144,10.969 114.249,12.085 113.614,13.536 C112.98,14.987 112.662,16.698 112.662,18.67 C112.662,20.416 112.974,21.951 113.597,23.277 C114.22,24.603 115.121,25.634 116.3,26.371 C117.479,27.107 118.873,27.476 120.483,27.476 C122.069,27.476 123.423,27.028 124.545,26.133 C125.667,25.238 126.432,24.167 126.84,22.92 L126.16,22.648 Z M117.456,11.224 C118.227,10.181 119.144,9.66 120.21,9.66 C121.298,9.66 122.119,10.249 122.675,11.428 C123.231,12.607 123.486,14.08 123.44,15.848 L116.028,15.848 C116.209,13.808 116.686,12.267 117.456,11.224 Z" id="Shape"></path>
                <path d="M134.762,9.524 L139.794,9.524 L139.794,10.204 L134.762,10.204 L134.762,23.362 C134.762,24.382 134.95,25.119 135.324,25.572 C135.698,26.025 136.236,26.252 136.938,26.252 C137.641,26.252 138.242,25.969 138.741,25.402 C139.239,24.836 139.659,23.906 139.999,22.614 L140.679,22.784 C140.113,25.912 138.64,27.476 136.259,27.476 C135.488,27.476 134.854,27.385 134.355,27.204 C133.857,27.022 133.415,26.739 133.029,26.354 C132.531,25.855 132.185,25.243 131.993,24.518 C131.801,23.792 131.704,22.818 131.704,21.594 L131.704,10.204 L128.439,10.204 L128.439,9.524 L131.704,9.524 L131.704,4.322 C132.973,4.277 133.993,4.118 134.764,3.846 L134.764,9.524 L134.762,9.524 Z" id="Path_27_"></path>
            </g>
        </g>
    </g>
</svg>