<?xml version="1.0" encoding="UTF-8" standalone="no"?>
<svg width="129px" height="26px" viewBox="0 0 129 26" version="1.1" xmlns="http://www.w3.org/2000/svg" xmlns:xlink="http://www.w3.org/1999/xlink">
    <!-- Generator: Sketch 49 (51002) - http://www.bohemiancoding.com/sketch -->
    <title>cabernet</title>
    <desc>Created with Sketch.</desc>
    <defs></defs>
    <g id="Page-1" stroke="none" stroke-width="1" fill="none" fill-rule="evenodd">
        <g id="Artboard" transform="translate(-359.000000, -433.000000)" fill="#000000">
            <g id="cabernet" transform="translate(359.000000, 433.000000)">
                <path d="M0.952,13.406 C0.952,7.456 5.406,1.846 12.274,1.846 C16.048,1.846 18.19,4.26 18.394,4.26 C18.632,4.26 18.768,3.478 18.768,3.07 C18.768,2.9 18.904,2.662 19.108,2.662 C19.312,2.662 19.448,2.798 19.448,3.07 L19.448,5.688 C19.448,6.504 19.686,7.626 19.686,8.714 C19.686,9.122 19.516,9.36 19.244,9.36 C19.04,9.36 18.836,9.19 18.836,8.884 C18.836,6.164 15.538,2.798 12.274,2.798 C6.29,2.798 4.76,9.19 4.76,13.406 C4.76,19.73 7.82,23.81 12.138,23.81 C17.102,23.81 18.734,19.526 19.312,19.526 C19.618,19.526 19.788,19.798 19.788,20.036 C19.788,20.682 18.326,22.518 16.864,23.538 C15.368,24.558 13.77,25.272 11.288,25.272 C5.27,25.272 0.952,19.424 0.952,13.406 Z" id="Path"></path>
                <path d="M22.746,21.532 C22.746,18.132 31.076,17.554 31.348,17.554 L31.348,15.072 C31.348,12.964 31.11,10.992 28.968,10.992 C26.928,10.992 26.384,11.842 26.384,12.522 C26.384,13.304 26.86,13.746 26.86,14.324 C26.86,14.902 26.384,15.48 25.5,15.48 C24.48,15.48 23.8,14.8 23.8,13.576 C23.8,11.74 26.486,10.244 28.934,10.244 C33.49,10.244 34.272,12.624 34.272,15.072 L34.272,21.906 C34.272,23.028 34.408,23.878 35.564,23.878 C36.142,23.878 36.244,23.64 36.38,23.64 C36.516,23.64 36.618,23.742 36.618,23.878 C36.618,24.218 34.68,25.272 33.082,25.272 C31.45,25.272 31.348,24.184 31.348,23.028 C31.11,23.368 29.308,25.272 26.894,25.272 C24.072,25.272 22.746,23.64 22.746,21.532 Z M25.704,21.192 C25.704,22.96 26.894,23.742 27.88,23.742 C29.682,23.742 31.144,22.518 31.348,22.246 L31.348,18.302 C31.076,18.302 25.704,18.608 25.704,21.192 Z" id="Combined-Shape"></path>
                <path d="M46.648,10.244 C49.572,10.244 52.972,12.148 52.938,17.758 C52.904,22.552 48.79,25.272 45.934,25.272 C44.132,25.272 42.874,24.218 42.126,23.028 C41.208,23.028 40.834,25 39.202,25 L39.202,4.056 C39.202,2.526 38.692,1.676 37.468,1.676 C37.332,1.676 37.23,1.574 37.23,1.438 C37.23,1.302 37.332,1.2 37.468,1.2 C39.372,1.2 41.548,0.554 41.99,0.554 C42.126,0.554 42.228,0.656 42.228,0.792 C42.228,1.03 42.126,1.302 42.126,1.948 L42.126,12.896 C43.112,11.196 44.914,10.244 46.648,10.244 Z M45.798,24.524 C48.45,24.524 50.014,21.736 50.014,17.86 C50.014,12.624 47.702,10.992 46.07,10.992 C44.268,10.992 42.126,12.828 42.126,15.548 L42.126,19.526 C42.126,23.232 43.894,24.524 45.798,24.524 Z" id="Combined-Shape"></path>
                <path d="M55.59,17.758 C55.59,13.542 58.446,10.244 62.832,10.244 C66.334,10.244 68.918,13.202 68.918,16.568 C68.918,16.704 68.816,16.84 68.68,16.84 L58.548,16.84 C58.548,17.01 58.514,17.316 58.514,17.758 C58.514,21.158 60.52,23.912 63.41,23.912 C67.014,23.912 67.456,22.382 68.034,22.382 C68.238,22.382 68.408,22.552 68.408,22.756 C68.408,23.164 66.538,25.238 62.9,25.272 C58.684,25.306 55.59,22.144 55.59,17.758 Z M58.582,16.296 L64.77,16.092 C65.178,16.092 65.246,15.82 65.246,15.174 C65.246,13.372 64.736,10.992 62.56,10.992 C60.044,10.992 58.582,13.916 58.582,16.296 Z" id="Combined-Shape"></path>
                <path d="M70.788,24.83 C70.788,24.694 70.89,24.592 71.026,24.592 C71.162,24.592 71.332,24.626 71.502,24.626 C72.658,24.626 72.964,23.98 72.964,23.028 L72.964,13.746 C72.964,12.216 72.454,11.366 71.23,11.366 C71.094,11.366 70.992,11.264 70.992,11.128 C70.992,10.992 71.094,10.89 71.23,10.89 C73.134,10.89 75.106,10.244 75.548,10.244 C75.684,10.244 75.786,10.38 75.786,10.516 C75.786,10.754 75.684,11.06 75.684,11.468 L75.684,13.032 C76.126,11.876 77.452,10.244 79.56,10.244 C81.94,10.244 82.756,11.332 82.756,12.318 C82.756,13.202 82.212,13.814 81.294,13.814 C79.118,13.814 80.75,11.026 79.186,11.026 C78.098,11.026 76.942,12.148 76.398,13.406 C75.752,14.834 75.888,16.806 75.888,17.588 L75.888,23.028 C75.888,23.98 76.194,24.626 77.35,24.626 C77.52,24.626 77.69,24.592 77.826,24.592 C77.962,24.592 78.064,24.694 78.064,24.83 C78.064,24.966 77.962,25.068 77.826,25.068 C76.67,25.068 75.548,25 74.426,25 C73.304,25 72.148,25.068 71.026,25.068 C70.89,25.068 70.788,24.966 70.788,24.83 Z" id="Path"></path>
                <path d="M84.592,24.83 C84.592,24.694 84.694,24.592 84.83,24.592 C84.966,24.592 85.136,24.626 85.306,24.626 C86.462,24.626 86.768,23.98 86.768,23.028 L86.768,13.746 C86.768,12.216 86.258,11.366 85.034,11.366 C84.898,11.366 84.796,11.264 84.796,11.128 C84.796,10.992 84.898,10.89 85.034,10.89 C86.938,10.89 89.114,10.244 89.556,10.244 C89.692,10.244 89.794,10.346 89.794,10.482 C89.794,10.72 89.692,10.788 89.692,11.094 L89.692,13.134 C90.678,11.604 92.582,10.244 94.792,10.244 C99.348,10.244 99.45,12.76 99.45,15.072 L99.45,23.028 C99.45,23.98 99.756,24.626 100.912,24.626 C101.082,24.626 101.252,24.592 101.388,24.592 C101.524,24.592 101.626,24.694 101.626,24.83 C101.626,24.966 101.524,25.068 101.388,25.068 C100.232,25.068 99.11,25 97.988,25 C96.866,25 95.71,25.068 94.588,25.068 C94.452,25.068 94.35,24.966 94.35,24.83 C94.35,24.694 94.452,24.592 94.588,24.592 C94.724,24.592 94.894,24.626 95.064,24.626 C96.22,24.626 96.526,23.98 96.526,23.028 L96.526,15.072 C96.526,13.1 96.458,10.992 94.282,10.992 C92.14,10.992 89.692,13.372 89.692,15.412 L89.692,23.028 C89.692,23.98 89.998,24.626 91.154,24.626 C91.324,24.626 91.494,24.592 91.63,24.592 C91.766,24.592 91.868,24.694 91.868,24.83 C91.868,24.966 91.766,25.068 91.63,25.068 C90.474,25.068 89.352,25 88.23,25 C87.108,25 85.952,25.068 84.83,25.068 C84.694,25.068 84.592,24.966 84.592,24.83 Z" id="Path"></path>
                <path d="M103.36,17.758 C103.36,13.542 106.216,10.244 110.602,10.244 C114.104,10.244 116.688,13.202 116.688,16.568 C116.688,16.704 116.586,16.84 116.45,16.84 L106.318,16.84 C106.318,17.01 106.284,17.316 106.284,17.758 C106.284,21.158 108.29,23.912 111.18,23.912 C114.784,23.912 115.226,22.382 115.804,22.382 C116.008,22.382 116.178,22.552 116.178,22.756 C116.178,23.164 114.308,25.238 110.67,25.272 C106.454,25.306 103.36,22.144 103.36,17.758 Z M106.352,16.296 L112.54,16.092 C112.948,16.092 113.016,15.82 113.016,15.174 C113.016,13.372 112.506,10.992 110.33,10.992 C107.814,10.992 106.352,13.916 106.352,16.296 Z" id="Combined-Shape"></path>
                <path d="M118.864,10.788 C118.864,10.652 118.966,10.448 119.238,10.448 C119.51,10.448 120.02,10.516 120.258,10.516 C121.89,10.516 122.808,8.816 122.808,7.558 C122.808,7.252 122.774,6.912 122.774,6.708 C122.774,6.504 122.978,6.334 123.182,6.334 C123.386,6.334 123.59,6.504 123.59,6.708 C123.59,7.116 123.522,7.388 123.522,8.136 L123.522,10.516 L127.058,10.448 C127.296,10.448 127.364,10.652 127.364,10.822 C127.364,10.992 127.296,11.196 127.058,11.196 L123.522,11.128 L123.522,22.11 C123.522,23.946 123.998,24.422 125.018,24.422 C126.718,24.422 127.262,23.13 127.704,23.13 C127.908,23.13 128.078,23.3 128.078,23.504 C128.078,23.878 127.024,25.272 124.134,25.272 C121.822,25.272 120.598,24.286 120.598,22.11 L120.598,11.808 C120.598,11.162 120.598,11.128 120.462,11.128 C120.326,11.128 119.544,11.196 119.272,11.196 C119,11.196 118.864,11.026 118.864,10.788 Z" id="Path"></path>
            </g>
        </g>
    </g>
</svg>