<?xml version="1.0" encoding="UTF-8" standalone="no"?>
<svg width="198px" height="28px" viewBox="0 0 198 28" version="1.1" xmlns="http://www.w3.org/2000/svg" xmlns:xlink="http://www.w3.org/1999/xlink">
    <!-- Generator: Sketch 49 (51002) - http://www.bohemiancoding.com/sketch -->
    <title>Confabulario</title>
    <desc>Created with Sketch.</desc>
    <defs></defs>
    <g id="Page-1" stroke="none" stroke-width="1" fill="none" fill-rule="evenodd">
        <g id="Artboard" transform="translate(-37.000000, -102.000000)" fill="#000000" fill-rule="nonzero">
            <g id="Confabulario" transform="translate(37.000000, 102.000000)">
                <path d="M15.082,3.03 C16.034,3.415 16.963,3.959 17.87,4.662 C18.119,4.866 18.334,4.968 18.516,4.968 C18.969,4.968 19.264,4.288 19.4,2.928 L20.182,2.928 C20.091,4.402 20.046,7.008 20.046,10.748 L19.264,10.748 C19.014,9.274 18.788,8.215 18.584,7.569 C18.38,6.923 18.04,6.305 17.564,5.716 C16.884,4.832 16.017,4.169 14.963,3.727 C13.909,3.285 12.77,3.064 11.546,3.064 C10.073,3.064 8.786,3.551 7.687,4.526 C6.588,5.501 5.732,6.889 5.12,8.691 C4.508,10.493 4.202,12.607 4.202,15.032 C4.202,17.503 4.531,19.622 5.188,21.39 C5.845,23.158 6.758,24.501 7.925,25.419 C9.092,26.337 10.413,26.796 11.886,26.796 C13.019,26.796 14.118,26.581 15.184,26.15 C16.25,25.719 17.088,25.073 17.7,24.212 C18.153,23.577 18.482,22.898 18.686,22.172 C18.89,21.447 19.082,20.336 19.264,18.84 L20.046,18.84 C20.046,22.739 20.091,25.459 20.182,27 L19.4,27 C19.332,26.274 19.236,25.759 19.111,25.453 C18.986,25.147 18.811,24.994 18.584,24.994 C18.403,24.994 18.165,25.084 17.87,25.266 C16.85,25.991 15.875,26.541 14.946,26.915 C14.017,27.289 12.895,27.476 11.58,27.476 C9.427,27.476 7.539,26.989 5.919,26.014 C4.298,25.039 3.041,23.628 2.145,21.781 C1.249,19.933 0.802,17.729 0.802,15.168 C0.802,12.675 1.261,10.465 2.179,8.538 C3.097,6.611 4.377,5.115 6.021,4.05 C7.665,2.985 9.529,2.452 11.614,2.452 C12.974,2.452 14.13,2.645 15.082,3.03 Z" id="Path_28_"></path>
                <path d="M37.301,11.309 C35.884,9.779 34.02,9.014 31.708,9.014 C29.396,9.014 27.532,9.779 26.115,11.309 C24.698,12.839 23.99,15.157 23.99,18.262 C23.99,21.367 24.698,23.679 26.115,25.198 C27.532,26.717 29.396,27.476 31.708,27.476 C34.02,27.476 35.884,26.717 37.301,25.198 C38.718,23.679 39.426,21.367 39.426,18.262 C39.426,15.157 38.718,12.839 37.301,11.309 Z M34.938,24.722 C34.145,26.104 33.068,26.796 31.708,26.796 C30.348,26.796 29.271,26.105 28.478,24.722 C27.685,23.339 27.288,21.186 27.288,18.262 C27.288,15.338 27.684,13.179 28.478,11.785 C29.272,10.391 30.348,9.694 31.708,9.694 C33.068,9.694 34.145,10.391 34.938,11.785 C35.731,13.179 36.128,15.338 36.128,18.262 C36.128,21.186 35.731,23.339 34.938,24.722 Z" id="Shape"></path>
                <path d="M57.038,10.306 C57.469,10.759 57.774,11.326 57.956,12.006 C58.137,12.686 58.228,13.604 58.228,14.76 L58.228,23.838 C58.228,24.768 58.421,25.408 58.806,25.759 C59.191,26.111 59.86,26.286 60.812,26.286 L60.812,27 C58.727,26.909 57.367,26.864 56.732,26.864 C56.097,26.864 54.828,26.909 52.924,27 L52.924,26.286 C53.763,26.286 54.346,26.11 54.675,25.759 C55.004,25.408 55.168,24.768 55.168,23.838 L55.168,14.012 C55.168,12.742 54.987,11.773 54.624,11.105 C54.261,10.437 53.525,10.102 52.414,10.102 C51.485,10.102 50.657,10.374 49.932,10.918 C49.206,11.462 48.645,12.204 48.249,13.145 C47.853,14.086 47.654,15.134 47.654,16.29 L47.654,23.838 C47.654,24.768 47.819,25.408 48.147,25.759 C48.476,26.111 49.06,26.286 49.898,26.286 L49.898,27 C47.994,26.909 46.725,26.864 46.09,26.864 C45.455,26.864 44.095,26.909 42.01,27 L42.01,26.286 C42.962,26.286 43.631,26.11 44.016,25.759 C44.401,25.408 44.594,24.768 44.594,23.838 L44.594,13.196 C44.594,12.154 44.402,11.394 44.016,10.918 C43.63,10.442 42.962,10.204 42.01,10.204 L42.01,9.49 C42.736,9.558 43.438,9.592 44.118,9.592 C45.546,9.592 46.724,9.434 47.654,9.116 L47.654,13.128 C48.221,11.677 49.008,10.629 50.017,9.983 C51.026,9.337 52.164,9.014 53.434,9.014 C55.021,9.014 56.222,9.445 57.038,10.306 Z" id="Path_31_"></path>
                <path d="M73.664,1.33 C74.367,1.896 74.718,2.599 74.718,3.438 C74.718,3.959 74.548,4.39 74.208,4.73 C73.868,5.07 73.437,5.24 72.916,5.24 C72.395,5.24 71.953,5.075 71.59,4.747 C71.228,4.418 71.046,3.971 71.046,3.404 C71.046,2.928 71.176,2.543 71.437,2.248 C71.698,1.953 72.043,1.761 72.474,1.67 C72.406,1.443 72.224,1.262 71.93,1.126 C71.635,0.99 71.261,0.922 70.808,0.922 C70.309,0.922 69.867,1.035 69.482,1.262 C69.097,1.489 68.802,1.795 68.598,2.18 C68.348,2.633 68.184,3.302 68.105,4.186 C68.026,5.07 67.986,6.555 67.986,8.64 L67.986,9.524 L71.624,9.524 L71.624,10.204 L67.986,10.204 L67.986,23.498 C67.986,24.54 68.286,25.266 68.887,25.674 C69.488,26.082 70.388,26.286 71.59,26.286 L71.59,27 L70.774,26.966 C68.462,26.898 66.989,26.864 66.354,26.864 C65.765,26.864 64.427,26.909 62.342,27 L62.342,26.286 C63.294,26.286 63.963,26.11 64.348,25.759 C64.733,25.408 64.926,24.768 64.926,23.838 L64.926,10.204 L62.206,10.204 L62.206,9.524 L64.926,9.524 C64.926,7.529 65.051,5.988 65.3,4.9 C65.55,3.812 66.003,2.883 66.66,2.112 C67.113,1.591 67.691,1.177 68.394,0.871 C69.097,0.565 69.867,0.412 70.706,0.412 C71.885,0.412 72.871,0.718 73.664,1.33 Z" id="Path_32_"></path>
                <path d="M89.134,25.402 C88.862,25.629 88.607,25.804 88.369,25.929 C88.131,26.054 87.876,26.116 87.604,26.116 C87.219,26.116 86.947,25.991 86.788,25.742 C86.629,25.492 86.55,25.084 86.55,24.518 L86.55,15.066 C86.55,13.865 86.454,12.896 86.261,12.159 C86.068,11.422 85.688,10.793 85.122,10.272 C84.215,9.434 82.878,9.014 81.11,9.014 C80.113,9.014 79.195,9.139 78.356,9.388 C77.518,9.637 76.826,9.954 76.282,10.34 C75.761,10.703 75.369,11.066 75.109,11.428 C74.848,11.791 74.718,12.244 74.718,12.788 C74.718,13.354 74.877,13.836 75.194,14.233 C75.511,14.63 75.987,14.828 76.622,14.828 C77.188,14.828 77.653,14.663 78.016,14.335 C78.379,14.007 78.56,13.559 78.56,12.992 C78.56,12.448 78.407,11.994 78.101,11.632 C77.795,11.27 77.415,11.031 76.962,10.918 C77.619,10.102 78.741,9.694 80.328,9.694 C81.325,9.694 82.101,9.938 82.657,10.425 C83.212,10.912 83.49,11.814 83.49,13.128 L83.49,15.236 C83.49,15.848 83.184,16.336 82.572,16.698 C81.96,17.06 81.02,17.457 79.75,17.888 C78.503,18.319 77.5,18.726 76.741,19.112 C75.981,19.497 75.324,20.019 74.769,20.676 C74.214,21.334 73.936,22.172 73.936,23.192 C73.936,24.462 74.282,25.453 74.973,26.167 C75.664,26.881 76.724,27.238 78.152,27.238 C79.263,27.238 80.26,27.017 81.144,26.575 C82.028,26.133 82.81,25.345 83.49,24.212 C83.49,25.142 83.705,25.878 84.136,26.422 C84.567,26.966 85.326,27.238 86.414,27.238 C87.049,27.238 87.576,27.142 87.995,26.949 C88.414,26.756 88.918,26.433 89.508,25.98 L89.134,25.402 Z M83.49,23.294 C82.425,25.017 81.144,25.878 79.648,25.878 C78.832,25.878 78.175,25.617 77.676,25.096 C77.177,24.575 76.928,23.804 76.928,22.784 C76.928,21.9 77.12,21.175 77.506,20.608 C77.891,20.042 78.351,19.594 78.883,19.265 C79.416,18.936 80.113,18.591 80.974,18.228 C81.722,17.888 82.277,17.616 82.64,17.412 C83.002,17.208 83.286,16.947 83.49,16.63 L83.49,23.294 Z" id="Shape"></path>
                <path d="M105.301,11.394 C104.111,9.807 102.553,9.014 100.626,9.014 C99.47,9.014 98.422,9.331 97.481,9.966 C96.541,10.601 95.821,11.496 95.322,12.652 L95.322,0.378 C94.393,0.695 93.214,0.854 91.786,0.854 C91.106,0.854 90.403,0.82 89.678,0.752 L89.678,1.466 C90.63,1.466 91.299,1.704 91.684,2.18 C92.069,2.656 92.262,3.415 92.262,4.458 L92.262,25.334 C92.262,26.082 92.182,26.739 92.024,27.306 L92.602,27.544 L95.016,25.504 C95.605,26.139 96.291,26.626 97.073,26.966 C97.855,27.306 98.665,27.476 99.504,27.476 C100.909,27.476 102.185,27.124 103.329,26.422 C104.473,25.72 105.386,24.677 106.066,23.294 C106.746,21.911 107.086,20.234 107.086,18.262 C107.086,15.27 106.491,12.98 105.301,11.394 Z M102.649,24.637 C101.89,26.008 100.751,26.694 99.232,26.694 C98.507,26.694 97.804,26.552 97.124,26.269 C96.444,25.986 95.843,25.572 95.322,25.028 L95.322,14.25 C95.662,12.913 96.229,11.875 97.022,11.139 C97.815,10.402 98.688,10.034 99.64,10.034 C101.045,10.034 102.088,10.714 102.768,12.074 C103.448,13.434 103.788,15.496 103.788,18.262 C103.788,21.141 103.408,23.266 102.649,24.637 Z" id="Shape"></path>
                <path d="M125.105,23.328 C125.105,24.37 125.298,25.13 125.683,25.606 C126.069,26.082 126.738,26.32 127.689,26.32 L127.689,27.034 C126.987,26.966 126.285,26.932 125.582,26.932 C124.154,26.932 122.976,27.091 122.046,27.408 L122.046,23.396 C121.502,24.801 120.732,25.833 119.734,26.49 C118.736,27.147 117.648,27.476 116.47,27.476 C114.928,27.476 113.75,27.045 112.934,26.184 C112.526,25.73 112.237,25.153 112.067,24.45 C111.897,23.747 111.812,22.841 111.812,21.73 L111.812,13.196 C111.812,12.154 111.619,11.394 111.234,10.918 C110.849,10.442 110.18,10.204 109.228,10.204 L109.228,9.49 C109.931,9.558 110.633,9.592 111.336,9.592 C112.764,9.592 113.943,9.434 114.872,9.116 L114.872,22.478 C114.872,23.339 114.923,24.036 115.025,24.569 C115.127,25.102 115.365,25.538 115.739,25.878 C116.113,26.218 116.686,26.388 117.456,26.388 C118.317,26.388 119.099,26.116 119.802,25.572 C120.505,25.028 121.055,24.285 121.451,23.344 C121.847,22.404 122.046,21.366 122.046,20.233 L122.046,13.195 C122.046,12.153 121.854,11.393 121.468,10.917 C121.082,10.441 120.414,10.203 119.462,10.203 L119.462,9.49 C120.164,9.558 120.867,9.592 121.57,9.592 C122.998,9.592 124.176,9.434 125.105,9.116 L125.105,23.328 Z" id="Path_37_"></path>
                <path d="M134.83,23.838 C134.83,24.768 135.022,25.408 135.408,25.759 C135.793,26.111 136.462,26.286 137.414,26.286 L137.414,27 C135.328,26.909 133.957,26.864 133.3,26.864 C132.643,26.864 131.272,26.909 129.186,27 L129.186,26.286 C130.139,26.286 130.807,26.11 131.192,25.759 C131.578,25.408 131.77,24.768 131.77,23.838 L131.77,4.424 C131.77,3.382 131.578,2.622 131.192,2.146 C130.807,1.67 130.139,1.432 129.186,1.432 L129.186,0.718 C129.889,0.786 130.592,0.82 131.294,0.82 C132.723,0.82 133.9,0.661 134.83,0.344 L134.83,23.838 Z" id="Path_38_"></path>
                <path d="M154.686,25.402 C154.415,25.629 154.16,25.804 153.921,25.929 C153.684,26.054 153.428,26.116 153.156,26.116 C152.77,26.116 152.498,25.991 152.34,25.742 C152.182,25.492 152.102,25.084 152.102,24.518 L152.102,15.066 C152.102,13.865 152.006,12.896 151.813,12.159 C151.621,11.422 151.241,10.793 150.674,10.272 C149.768,9.434 148.43,9.014 146.662,9.014 C145.664,9.014 144.746,9.139 143.908,9.388 C143.069,9.637 142.378,9.954 141.834,10.34 C141.313,10.703 140.922,11.066 140.661,11.428 C140.4,11.791 140.269,12.244 140.269,12.788 C140.269,13.354 140.428,13.836 140.746,14.233 C141.063,14.63 141.539,14.828 142.174,14.828 C142.74,14.828 143.205,14.663 143.569,14.335 C143.931,14.006 144.112,13.559 144.112,12.992 C144.112,12.448 143.96,11.994 143.653,11.632 C143.348,11.27 142.967,11.031 142.514,10.918 C143.172,10.102 144.293,9.694 145.88,9.694 C146.877,9.694 147.654,9.938 148.209,10.425 C148.764,10.912 149.042,11.814 149.042,13.128 L149.042,15.236 C149.042,15.848 148.736,16.336 148.124,16.698 C147.512,17.06 146.571,17.457 145.302,17.888 C144.055,18.319 143.053,18.726 142.293,19.112 C141.533,19.498 140.877,20.019 140.32,20.676 C139.765,21.334 139.488,22.172 139.488,23.192 C139.488,24.462 139.834,25.453 140.525,26.167 C141.216,26.881 142.275,27.238 143.704,27.238 C144.814,27.238 145.812,27.017 146.695,26.575 C147.58,26.133 148.361,25.345 149.042,24.212 C149.042,25.142 149.258,25.878 149.688,26.422 C150.12,26.966 150.878,27.238 151.966,27.238 C152.601,27.238 153.127,27.142 153.547,26.949 C153.967,26.756 154.471,26.433 155.061,25.98 L154.686,25.402 Z M149.042,23.294 C147.977,25.017 146.695,25.878 145.2,25.878 C144.384,25.878 143.726,25.617 143.228,25.096 C142.729,24.575 142.48,23.804 142.48,22.784 C142.48,21.9 142.672,21.175 143.058,20.608 C143.443,20.042 143.902,19.594 144.435,19.265 C144.967,18.936 145.664,18.591 146.525,18.228 C147.273,17.888 147.829,17.616 148.191,17.412 C148.554,17.208 148.837,16.947 149.042,16.63 L149.042,23.294 Z" id="Shape"></path>
                <path d="M168.881,9.796 C169.459,10.317 169.748,10.952 169.748,11.7 C169.748,12.289 169.572,12.793 169.221,13.213 C168.87,13.633 168.4,13.842 167.811,13.842 C167.312,13.842 166.887,13.684 166.536,13.366 C166.185,13.048 166.009,12.618 166.009,12.074 C166.009,11.326 166.395,10.714 167.165,10.238 C167.007,10.011 166.769,9.898 166.451,9.898 C165.567,9.898 164.763,10.244 164.037,10.935 C163.311,11.626 162.745,12.471 162.337,13.468 C161.929,14.466 161.726,15.406 161.726,16.29 L161.726,23.498 C161.726,24.54 162.026,25.266 162.626,25.674 C163.227,26.082 164.128,26.286 165.329,26.286 L165.329,27 L164.513,26.966 C162.201,26.898 160.728,26.864 160.093,26.864 C159.503,26.864 158.167,26.909 156.081,27 L156.081,26.286 C157.033,26.286 157.702,26.11 158.087,25.759 C158.472,25.408 158.665,24.768 158.665,23.838 L158.665,13.196 C158.665,12.154 158.472,11.394 158.087,10.918 C157.702,10.442 157.033,10.204 156.081,10.204 L156.081,9.49 C156.806,9.558 157.509,9.592 158.188,9.592 C159.617,9.592 160.795,9.434 161.725,9.116 L161.725,13.366 C162.132,12.232 162.784,11.224 163.68,10.34 C164.575,9.456 165.567,9.014 166.655,9.014 C167.561,9.014 168.303,9.274 168.881,9.796 Z" id="Path_41_"></path>
                <path d="M176.616,1.636 C177.047,2.067 177.262,2.577 177.262,3.166 C177.262,3.755 177.047,4.265 176.616,4.696 C176.185,5.127 175.676,5.342 175.086,5.342 C174.496,5.342 173.986,5.127 173.557,4.696 C173.125,4.265 172.911,3.756 172.911,3.166 C172.911,2.576 173.126,2.066 173.557,1.636 C173.987,1.205 174.496,0.99 175.086,0.99 C175.676,0.99 176.186,1.205 176.616,1.636 Z M176.854,23.838 C176.854,24.768 177.047,25.408 177.432,25.759 C177.818,26.111 178.487,26.286 179.438,26.286 L179.438,27 C177.353,26.909 175.982,26.864 175.325,26.864 C174.667,26.864 173.296,26.909 171.211,27 L171.211,26.286 C172.163,26.286 172.831,26.11 173.217,25.759 C173.603,25.408 173.795,24.768 173.795,23.838 L173.795,13.196 C173.795,12.154 173.603,11.394 173.217,10.918 C172.831,10.442 172.163,10.204 171.211,10.204 L171.211,9.49 C171.937,9.558 172.64,9.592 173.319,9.592 C174.747,9.592 175.925,9.434 176.854,9.116 L176.854,23.838 Z" id="Combined-Shape"></path>
                <path d="M195.096,11.309 C193.678,9.779 191.815,9.014 189.502,9.014 C187.189,9.014 185.326,9.779 183.909,11.309 C182.492,12.839 181.784,15.157 181.784,18.262 C181.784,21.367 182.492,23.679 183.909,25.198 C185.326,26.717 187.189,27.476 189.502,27.476 C191.815,27.476 193.678,26.717 195.096,25.198 C196.512,23.679 197.221,21.367 197.221,18.262 C197.221,15.157 196.512,12.839 195.096,11.309 Z M192.732,24.722 C191.938,26.104 190.861,26.796 189.502,26.796 C188.143,26.796 187.065,26.105 186.272,24.722 C185.479,23.339 185.083,21.186 185.083,18.262 C185.083,15.338 185.479,13.179 186.272,11.785 C187.066,10.391 188.143,9.694 189.502,9.694 C190.861,9.694 191.939,10.391 192.732,11.785 C193.525,13.179 193.921,15.338 193.921,18.262 C193.922,21.186 193.525,23.339 192.732,24.722 Z" id="Shape"></path>
            </g>
        </g>
    </g>
</svg>