<?xml version="1.0" encoding="UTF-8" standalone="no"?>
<svg width="177px" height="26px" viewBox="0 0 177 26" version="1.1" xmlns="http://www.w3.org/2000/svg" xmlns:xlink="http://www.w3.org/1999/xlink">
    <!-- Generator: Sketch 49 (51002) - http://www.bohemiancoding.com/sketch -->
    <title>elixir-cordis</title>
    <desc>Created with Sketch.</desc>
    <defs></defs>
    <g id="Page-1" stroke="none" stroke-width="1" fill="none" fill-rule="evenodd">
        <g id="Artboard" transform="translate(-360.000000, -139.000000)" fill="#000000">
            <g id="elixir-cordis" transform="translate(359.000000, 139.000000)">
                <path d="M0.952,24.762 C0.952,24.592 1.088,24.456 1.258,24.456 C1.428,24.456 1.734,24.524 1.972,24.524 C3.468,24.524 4.182,23.3 4.182,22.348 L4.182,4.77 C4.182,3.818 3.468,2.594 1.972,2.594 C1.734,2.594 1.428,2.662 1.258,2.662 C1.088,2.662 0.952,2.526 0.952,2.356 C0.952,2.152 1.088,2.05 1.496,2.05 C1.734,2.05 5.44,2.118 7.514,2.118 L15.64,2.118 C16.558,2.118 17.204,2.016 17.238,2.016 C17.442,2.016 17.612,2.186 17.612,2.39 L17.612,3.138 C17.612,5.246 17.85,7.252 17.85,8 C17.85,8.204 17.68,8.374 17.476,8.374 C17.272,8.374 17.102,8.238 17.102,8 C17.102,6.912 16.49,4.804 14.79,3.75 C13.838,3.172 12.75,3.07 11.662,3.07 L7.514,3.07 L7.514,12.726 L11.186,12.726 C12.138,12.726 13.362,11.91 13.362,10.414 C13.362,10.176 13.294,9.87 13.294,9.7 C13.294,9.53 13.43,9.394 13.6,9.394 C13.804,9.394 13.906,9.53 13.906,9.904 C13.906,10.176 13.838,11.604 13.838,13.236 C13.838,14.902 13.906,16.228 13.906,16.466 C13.906,16.874 13.804,17.01 13.6,17.01 C13.43,17.01 13.294,16.874 13.294,16.704 C13.294,16.534 13.362,16.228 13.362,15.99 C13.362,14.494 12.138,13.678 11.186,13.678 L7.514,13.678 L7.514,21.634 C7.514,23.742 8.194,24.048 10.37,24.048 L12.92,24.048 C14.008,24.048 15.096,23.946 16.048,23.368 C17.748,22.314 18.36,20.206 18.36,19.118 C18.36,18.88 18.53,18.744 18.734,18.744 C18.938,18.744 19.108,18.914 19.108,19.118 C19.108,19.866 18.87,21.872 18.87,23.98 L18.87,24.728 C18.87,24.932 18.7,25.102 18.496,25.102 C18.258,25.102 17.816,25 16.898,25 L7.514,25 C5.44,25 1.734,25.068 1.496,25.068 C1.088,25.068 0.952,24.966 0.952,24.762 Z" id="Path"></path>
                <path d="M20.842,24.83 C20.842,24.694 20.944,24.592 21.08,24.592 C21.216,24.592 21.386,24.626 21.556,24.626 C22.712,24.626 23.018,23.98 23.018,23.028 L23.018,4.056 C23.018,2.526 22.508,1.676 21.284,1.676 C21.148,1.676 21.046,1.574 21.046,1.438 C21.046,1.302 21.148,1.2 21.284,1.2 C23.188,1.2 25.364,0.554 25.806,0.554 C25.942,0.554 26.044,0.656 26.044,0.792 C26.044,1.03 25.942,1.098 25.942,1.404 L25.942,23.028 C25.942,23.98 26.248,24.626 27.404,24.626 C27.574,24.626 27.744,24.592 27.88,24.592 C28.016,24.592 28.118,24.694 28.118,24.83 C28.118,24.966 28.016,25.068 27.88,25.068 C26.724,25.068 25.602,25 24.48,25 C23.358,25 22.202,25.068 21.08,25.068 C20.944,25.068 20.842,24.966 20.842,24.83 Z" id="Path"></path>
                <path d="M32.98,5.586 C31.96,5.586 31.11,4.736 31.11,3.716 C31.11,2.696 31.96,1.846 32.98,1.846 C34,1.846 34.85,2.696 34.85,3.716 C34.85,4.736 34,5.586 32.98,5.586 Z M29.682,24.83 C29.682,24.694 29.784,24.592 29.92,24.592 C30.056,24.592 30.226,24.626 30.396,24.626 C31.552,24.626 31.858,23.98 31.858,23.028 L31.858,13.678 C31.858,12.148 31.348,11.298 30.124,11.298 C29.988,11.298 29.886,11.196 29.886,11.06 C29.886,10.924 29.988,10.822 30.124,10.822 C32.028,10.822 34.204,10.176 34.646,10.176 C34.782,10.176 34.884,10.278 34.884,10.414 C34.884,10.652 34.782,10.72 34.782,11.026 L34.782,23.028 C34.782,23.98 35.088,24.626 36.244,24.626 C36.414,24.626 36.584,24.592 36.72,24.592 C36.856,24.592 36.958,24.694 36.958,24.83 C36.958,24.966 36.856,25.068 36.72,25.068 C35.564,25.068 34.442,25 33.32,25 C32.198,25 31.042,25.068 29.92,25.068 C29.784,25.068 29.682,24.966 29.682,24.83 Z" id="Combined-Shape"></path>
                <path d="M38.25,10.686 C38.25,10.55 38.352,10.448 38.488,10.448 C39.542,10.448 40.698,10.516 41.888,10.516 C43.214,10.516 44.54,10.448 45.798,10.448 C45.934,10.448 46.036,10.55 46.036,10.686 C46.036,10.822 45.934,10.924 45.798,10.924 C43.996,10.924 43.996,11.4 44.744,12.488 L47.192,15.99 L49.844,12.25 C50.116,11.842 50.422,10.924 48.756,10.924 C48.62,10.924 48.518,10.822 48.518,10.686 C48.518,10.55 48.62,10.448 48.79,10.448 C49.878,10.448 50.422,10.516 50.966,10.516 C51.51,10.516 52.088,10.448 53.21,10.448 C53.346,10.448 53.448,10.55 53.448,10.686 C53.448,10.822 53.346,10.924 53.21,10.924 C52.122,10.924 51.204,11.74 50.864,12.216 L47.668,16.704 L51.85,22.926 C52.666,24.15 53.006,24.592 54.4,24.592 C54.536,24.592 54.638,24.694 54.638,24.83 C54.638,24.966 54.536,25.068 54.4,25.068 C53.244,25.034 52.088,25 50.932,25 C49.606,25 48.28,25.034 46.954,25.068 C46.818,25.068 46.716,24.966 46.716,24.83 C46.716,24.694 46.818,24.592 46.954,24.592 C49.164,24.592 49.164,24.15 48.314,22.926 L45.628,19.016 L42.568,23.198 C41.854,24.184 42.058,24.592 43.452,24.592 C43.588,24.592 43.69,24.694 43.69,24.83 C43.69,24.966 43.588,25.068 43.452,25.068 C42.67,25.068 41.922,25 41.14,25 C40.426,25 39.712,25.068 38.998,25.068 C38.862,25.068 38.76,24.966 38.76,24.83 C38.76,24.694 38.862,24.592 38.998,24.592 C40.222,24.592 40.834,24.184 41.752,22.926 L45.152,18.302 L40.97,12.148 C40.324,11.298 39.78,10.924 38.488,10.924 C38.352,10.924 38.25,10.822 38.25,10.686 Z" id="Path"></path>
                <path d="M59.228,5.586 C58.208,5.586 57.358,4.736 57.358,3.716 C57.358,2.696 58.208,1.846 59.228,1.846 C60.248,1.846 61.098,2.696 61.098,3.716 C61.098,4.736 60.248,5.586 59.228,5.586 Z M55.93,24.83 C55.93,24.694 56.032,24.592 56.168,24.592 C56.304,24.592 56.474,24.626 56.644,24.626 C57.8,24.626 58.106,23.98 58.106,23.028 L58.106,13.678 C58.106,12.148 57.596,11.298 56.372,11.298 C56.236,11.298 56.134,11.196 56.134,11.06 C56.134,10.924 56.236,10.822 56.372,10.822 C58.276,10.822 60.452,10.176 60.894,10.176 C61.03,10.176 61.132,10.278 61.132,10.414 C61.132,10.652 61.03,10.72 61.03,11.026 L61.03,23.028 C61.03,23.98 61.336,24.626 62.492,24.626 C62.662,24.626 62.832,24.592 62.968,24.592 C63.104,24.592 63.206,24.694 63.206,24.83 C63.206,24.966 63.104,25.068 62.968,25.068 C61.812,25.068 60.69,25 59.568,25 C58.446,25 57.29,25.068 56.168,25.068 C56.032,25.068 55.93,24.966 55.93,24.83 Z" id="Combined-Shape"></path>
                <path d="M64.94,24.83 C64.94,24.694 65.042,24.592 65.178,24.592 C65.314,24.592 65.484,24.626 65.654,24.626 C66.81,24.626 67.116,23.98 67.116,23.028 L67.116,13.746 C67.116,12.216 66.606,11.366 65.382,11.366 C65.246,11.366 65.144,11.264 65.144,11.128 C65.144,10.992 65.246,10.89 65.382,10.89 C67.286,10.89 69.258,10.244 69.7,10.244 C69.836,10.244 69.938,10.38 69.938,10.516 C69.938,10.754 69.836,11.06 69.836,11.468 L69.836,13.032 C70.278,11.876 71.604,10.244 73.712,10.244 C76.092,10.244 76.908,11.332 76.908,12.318 C76.908,13.202 76.364,13.814 75.446,13.814 C73.27,13.814 74.902,11.026 73.338,11.026 C72.25,11.026 71.094,12.148 70.55,13.406 C69.904,14.834 70.04,16.806 70.04,17.588 L70.04,23.028 C70.04,23.98 70.346,24.626 71.502,24.626 C71.672,24.626 71.842,24.592 71.978,24.592 C72.114,24.592 72.216,24.694 72.216,24.83 C72.216,24.966 72.114,25.068 71.978,25.068 C70.822,25.068 69.7,25 68.578,25 C67.456,25 66.3,25.068 65.178,25.068 C65.042,25.068 64.94,24.966 64.94,24.83 Z" id="Path"></path>
                <path d="M87.924,13.406 C87.924,7.456 92.378,1.846 99.246,1.846 C103.02,1.846 105.162,4.26 105.366,4.26 C105.604,4.26 105.74,3.478 105.74,3.07 C105.74,2.9 105.876,2.662 106.08,2.662 C106.284,2.662 106.42,2.798 106.42,3.07 L106.42,5.688 C106.42,6.504 106.658,7.626 106.658,8.714 C106.658,9.122 106.488,9.36 106.216,9.36 C106.012,9.36 105.808,9.19 105.808,8.884 C105.808,6.164 102.51,2.798 99.246,2.798 C93.262,2.798 91.732,9.19 91.732,13.406 C91.732,19.73 94.792,23.81 99.11,23.81 C104.074,23.81 105.706,19.526 106.284,19.526 C106.59,19.526 106.76,19.798 106.76,20.036 C106.76,20.682 105.298,22.518 103.836,23.538 C102.34,24.558 100.742,25.272 98.26,25.272 C92.242,25.272 87.924,19.424 87.924,13.406 Z" id="Path"></path>
                <path d="M116.994,25.272 C112.744,25.272 109.514,21.94 109.514,17.758 C109.514,13.576 112.744,10.244 116.994,10.244 C121.244,10.244 124.44,13.576 124.474,17.758 C124.44,21.94 121.244,25.272 116.994,25.272 Z M116.994,10.992 C114.376,10.992 112.438,13.984 112.438,17.758 C112.438,21.532 114.376,24.524 116.994,24.524 C119.646,24.524 121.55,21.566 121.55,17.758 C121.55,13.95 119.646,10.992 116.994,10.992 Z" id="Combined-Shape"></path>
                <path d="M126.106,24.83 C126.106,24.694 126.208,24.592 126.344,24.592 C126.48,24.592 126.65,24.626 126.82,24.626 C127.976,24.626 128.282,23.98 128.282,23.028 L128.282,13.746 C128.282,12.216 127.772,11.366 126.548,11.366 C126.412,11.366 126.31,11.264 126.31,11.128 C126.31,10.992 126.412,10.89 126.548,10.89 C128.452,10.89 130.424,10.244 130.866,10.244 C131.002,10.244 131.104,10.38 131.104,10.516 C131.104,10.754 131.002,11.06 131.002,11.468 L131.002,13.032 C131.444,11.876 132.77,10.244 134.878,10.244 C137.258,10.244 138.074,11.332 138.074,12.318 C138.074,13.202 137.53,13.814 136.612,13.814 C134.436,13.814 136.068,11.026 134.504,11.026 C133.416,11.026 132.26,12.148 131.716,13.406 C131.07,14.834 131.206,16.806 131.206,17.588 L131.206,23.028 C131.206,23.98 131.512,24.626 132.668,24.626 C132.838,24.626 133.008,24.592 133.144,24.592 C133.28,24.592 133.382,24.694 133.382,24.83 C133.382,24.966 133.28,25.068 133.144,25.068 C131.988,25.068 130.866,25 129.744,25 C128.622,25 127.466,25.068 126.344,25.068 C126.208,25.068 126.106,24.966 126.106,24.83 Z" id="Path"></path>
                <path d="M139.74,17.758 C139.706,12.148 143.344,10.244 146.268,10.244 C147.968,10.244 149.634,10.856 150.552,12.284 L150.552,4.056 C150.552,2.526 150.042,1.676 148.818,1.676 C148.682,1.676 148.58,1.574 148.58,1.438 C148.58,1.302 148.682,1.2 148.818,1.2 C150.722,1.2 152.898,0.554 153.34,0.554 C153.476,0.554 153.578,0.656 153.578,0.792 C153.578,1.03 153.476,1.336 153.476,1.744 L153.476,21.26 C153.476,22.654 154.19,23.198 155.584,23.198 C155.72,23.198 155.822,23.3 155.822,23.436 C155.822,23.572 155.72,23.674 155.584,23.674 C153.782,23.674 152.082,25.136 150.994,25.136 C150.654,25.136 150.552,24.796 150.552,23.198 C149.736,24.32 148.274,25.272 146.404,25.272 C143.208,25.272 139.774,22.552 139.74,17.758 Z M142.664,17.86 C142.664,21.736 143.888,24.524 146.54,24.524 C148.444,24.524 150.552,23.232 150.552,20.206 L150.552,15.208 C150.552,12.318 148.648,10.992 146.846,10.992 C145.214,10.992 142.664,12.624 142.664,17.86 Z" id="Combined-Shape"></path>
                <path d="M160.378,5.586 C159.358,5.586 158.508,4.736 158.508,3.716 C158.508,2.696 159.358,1.846 160.378,1.846 C161.398,1.846 162.248,2.696 162.248,3.716 C162.248,4.736 161.398,5.586 160.378,5.586 Z M157.08,24.83 C157.08,24.694 157.182,24.592 157.318,24.592 C157.454,24.592 157.624,24.626 157.794,24.626 C158.95,24.626 159.256,23.98 159.256,23.028 L159.256,13.678 C159.256,12.148 158.746,11.298 157.522,11.298 C157.386,11.298 157.284,11.196 157.284,11.06 C157.284,10.924 157.386,10.822 157.522,10.822 C159.426,10.822 161.602,10.176 162.044,10.176 C162.18,10.176 162.282,10.278 162.282,10.414 C162.282,10.652 162.18,10.72 162.18,11.026 L162.18,23.028 C162.18,23.98 162.486,24.626 163.642,24.626 C163.812,24.626 163.982,24.592 164.118,24.592 C164.254,24.592 164.356,24.694 164.356,24.83 C164.356,24.966 164.254,25.068 164.118,25.068 C162.962,25.068 161.84,25 160.718,25 C159.596,25 158.44,25.068 157.318,25.068 C157.182,25.068 157.08,24.966 157.08,24.83 Z" id="Combined-Shape"></path>
                <path d="M166.94,20.342 C166.94,20.206 167.11,20.104 167.246,20.104 C167.416,20.104 167.518,20.206 167.518,20.342 C167.518,20.444 167.484,20.512 167.484,20.75 C167.484,22.416 169.592,24.524 171.802,24.524 C174.08,24.524 175.474,23.402 175.474,21.668 C175.474,20.104 173.434,19.288 171.972,18.54 C170.068,17.554 166.974,16.432 166.974,13.95 C166.974,11.638 169.184,10.244 172.142,10.244 C173.298,10.244 174.692,10.516 175.202,10.516 C175.712,10.516 175.95,10.244 176.154,10.244 C176.324,10.244 176.426,10.346 176.426,10.482 C176.426,10.754 176.052,11.128 176.052,11.91 C176.052,12.386 176.12,13.032 176.12,13.406 C176.12,13.712 175.984,13.848 175.78,13.848 C175.576,13.848 175.474,13.678 175.474,13.542 C175.474,13.406 175.542,13.27 175.542,13.1 C175.542,11.57 173.502,10.992 172.142,10.992 C170.544,10.992 168.776,11.808 168.776,13.134 C168.776,14.732 171.768,15.616 173.06,16.228 C175.406,17.35 177.684,17.894 177.684,20.92 C177.684,23.98 174.726,25.272 171.802,25.272 C169.388,25.272 168.946,24.49 168.164,24.49 C167.756,24.49 167.416,24.728 167.212,24.728 C167.076,24.728 166.974,24.626 166.974,24.49 C166.974,24.388 167.042,23.368 167.042,22.45 C167.042,21.702 166.94,20.954 166.94,20.342 Z" id="Path"></path>
            </g>
        </g>
    </g>
</svg>