<?xml version="1.0" encoding="UTF-8" standalone="no"?>
<svg width="190px" height="28px" viewBox="0 0 190 28" version="1.1" xmlns="http://www.w3.org/2000/svg" xmlns:xlink="http://www.w3.org/1999/xlink">
    <!-- Generator: Sketch 49 (51002) - http://www.bohemiancoding.com/sketch -->
    <title>ElixirCordis</title>
    <desc>Created with Sketch.</desc>
    <defs></defs>
    <g id="Page-1" stroke="none" stroke-width="1" fill="none" fill-rule="evenodd">
        <g id="Artboard" transform="translate(-37.000000, -420.000000)" fill="#000000" fill-rule="nonzero">
            <g id="ElixirCordis" transform="translate(37.000000, 420.000000)">
                <path d="M18.074,27 C16.532,26.932 13.937,26.898 10.288,26.898 C5.936,26.898 2.649,26.931 0.428,27 L0.428,26.32 C1.244,26.274 1.839,26.183 2.213,26.048 C2.587,25.913 2.842,25.652 2.978,25.266 C3.114,24.881 3.182,24.258 3.182,23.397 L3.182,6.533 C3.182,5.672 3.114,5.048 2.978,4.663 C2.842,4.278 2.587,4.017 2.213,3.881 C1.839,3.745 1.244,3.654 0.428,3.609 L0.428,2.929 C2.649,2.997 5.936,3.031 10.288,3.031 C13.62,3.031 15.989,2.998 17.394,2.929 C17.235,4.425 17.156,5.763 17.156,6.941 C17.156,7.826 17.19,8.529 17.258,9.049 L16.476,9.049 C16.317,7.575 16.113,6.482 15.864,5.769 C15.615,5.054 15.196,4.533 14.606,4.205 C14.016,3.877 13.121,3.712 11.92,3.712 L9.098,3.712 C8.282,3.712 7.687,3.774 7.313,3.899 C6.939,4.024 6.684,4.28 6.548,4.665 C6.412,5.05 6.344,5.674 6.344,6.535 L6.344,14.559 L8.588,14.559 C9.381,14.559 9.993,14.371 10.424,13.997 C10.855,13.623 11.144,13.182 11.291,12.671 C11.438,12.161 11.557,11.521 11.648,10.75 L11.75,10.07 L12.532,10.07 C12.464,11.021 12.43,12.088 12.43,13.265 L12.43,14.898 C12.43,16.053 12.498,17.663 12.634,19.726 L11.852,19.726 C11.829,19.567 11.761,19.017 11.648,18.077 C11.535,17.137 11.223,16.428 10.713,15.952 C10.203,15.476 9.495,15.238 8.588,15.238 L6.344,15.238 L6.344,23.398 C6.344,24.259 6.412,24.882 6.548,25.267 C6.684,25.653 6.939,25.908 7.313,26.033 C7.687,26.158 8.282,26.22 9.098,26.22 L11.58,26.22 C12.985,26.22 14.056,26.033 14.793,25.659 C15.53,25.285 16.068,24.683 16.408,23.857 C16.748,23.029 16.997,21.811 17.156,20.202 L17.938,20.202 C17.87,20.814 17.836,21.63 17.836,22.65 C17.836,23.939 17.916,25.391 18.074,27 Z" id="Path_46_"></path>
                <path d="M26.098,23.838 C26.098,24.768 26.29,25.408 26.676,25.759 C27.062,26.111 27.73,26.286 28.682,26.286 L28.682,27 C26.597,26.909 25.225,26.864 24.568,26.864 C23.911,26.864 22.54,26.909 20.454,27 L20.454,26.286 C21.406,26.286 22.075,26.11 22.46,25.759 C22.845,25.408 23.038,24.768 23.038,23.838 L23.038,4.424 C23.038,3.381 22.845,2.622 22.46,2.147 C22.075,1.67 21.406,1.432 20.454,1.432 L20.454,0.718 C21.157,0.786 21.859,0.821 22.562,0.821 C23.99,0.821 25.168,0.662 26.098,0.344 L26.098,23.838 Z" id="Path_47_"></path>
                <path d="M35.822,1.636 C36.253,2.067 36.468,2.576 36.468,3.166 C36.468,3.756 36.253,4.266 35.822,4.695 C35.391,5.127 34.882,5.341 34.292,5.341 C33.702,5.341 33.193,5.126 32.762,4.695 C32.331,4.265 32.116,3.756 32.116,3.166 C32.116,2.576 32.331,2.066 32.762,1.636 C33.193,1.206 33.702,0.99 34.292,0.99 C34.882,0.99 35.391,1.205 35.822,1.636 Z M36.06,23.838 C36.06,24.768 36.252,25.408 36.638,25.759 C37.023,26.111 37.692,26.286 38.644,26.286 L38.644,27 C36.559,26.909 35.187,26.864 34.53,26.864 C33.873,26.864 32.502,26.909 30.416,27 L30.416,26.286 C31.368,26.286 32.037,26.11 32.422,25.759 C32.807,25.408 33,24.768 33,23.838 L33,13.195 C33,12.153 32.807,11.394 32.422,10.918 C32.037,10.442 31.368,10.204 30.416,10.204 L30.416,9.49 C31.141,9.558 31.844,9.592 32.524,9.592 C33.952,9.592 35.131,9.434 36.06,9.116 L36.06,23.838 Z" id="Combined-Shape"></path>
                <path d="M55.525,25.793 C55.808,26.031 56.166,26.195 56.596,26.286 L56.596,27 C55.417,26.909 54.613,26.864 54.182,26.864 C53.411,26.864 52.074,26.909 50.17,27 L50.17,26.286 C50.533,26.286 50.844,26.218 51.105,26.082 C51.366,25.945 51.496,25.765 51.496,25.538 C51.496,25.379 51.451,25.243 51.36,25.13 L47.484,19.486 L45.002,22.715 C44.367,23.554 44.05,24.234 44.05,24.755 C44.05,25.232 44.271,25.6 44.713,25.86 C45.155,26.12 45.773,26.273 46.566,26.319 L46.566,27 C45.387,26.932 44.095,26.898 42.69,26.898 C41.693,26.898 40.832,26.931 40.106,27 L40.106,26.32 C40.56,26.274 41.019,26.07 41.483,25.708 C41.948,25.346 42.486,24.756 43.098,23.939 L47.008,18.806 L42.282,11.904 C41.828,11.246 41.466,10.81 41.194,10.595 C40.922,10.379 40.582,10.249 40.174,10.203 L40.174,9.489 C41.353,9.579 42.157,9.625 42.588,9.625 C43.359,9.625 44.696,9.579 46.6,9.489 L46.6,10.203 C46.237,10.203 45.926,10.27 45.665,10.407 C45.404,10.543 45.274,10.724 45.274,10.951 C45.274,11.11 45.319,11.245 45.41,11.358 L49.048,16.663 L51.394,13.365 C52.074,12.389 52.414,11.677 52.414,11.223 C52.414,10.905 52.261,10.661 51.955,10.492 C51.649,10.323 51.156,10.214 50.476,10.169 L50.476,9.489 C51.655,9.557 52.606,9.591 53.332,9.591 C54.329,9.591 55.19,9.558 55.916,9.489 L55.916,10.169 C54.987,10.282 53.989,11.075 52.924,12.549 L49.49,17.31 L54.488,24.585 C54.896,25.152 55.242,25.555 55.525,25.793 Z" id="Path_50_"></path>
                <path d="M63.43,1.636 C63.861,2.067 64.076,2.576 64.076,3.166 C64.076,3.756 63.861,4.266 63.43,4.695 C62.999,5.127 62.489,5.341 61.9,5.341 C61.311,5.341 60.801,5.126 60.37,4.695 C59.939,4.265 59.724,3.756 59.724,3.166 C59.724,2.576 59.939,2.066 60.37,1.636 C60.801,1.206 61.31,0.99 61.9,0.99 C62.49,0.99 63,1.205 63.43,1.636 Z M63.668,23.838 C63.668,24.768 63.861,25.408 64.246,25.759 C64.631,26.111 65.3,26.286 66.252,26.286 L66.252,27 C64.167,26.909 62.795,26.864 62.138,26.864 C61.48,26.864 60.109,26.909 58.024,27 L58.024,26.286 C58.976,26.286 59.645,26.11 60.03,25.759 C60.416,25.408 60.608,24.768 60.608,23.838 L60.608,13.195 C60.608,12.153 60.416,11.394 60.03,10.918 C59.645,10.441 58.976,10.204 58.024,10.204 L58.024,9.49 C58.75,9.558 59.452,9.592 60.132,9.592 C61.56,9.592 62.739,9.434 63.668,9.116 L63.668,23.838 Z" id="Combined-Shape"></path>
                <path d="M80.787,9.796 C81.365,10.317 81.654,10.952 81.654,11.7 C81.654,12.289 81.479,12.793 81.127,13.213 C80.776,13.633 80.305,13.842 79.716,13.842 C79.217,13.842 78.793,13.684 78.441,13.366 C78.09,13.049 77.914,12.618 77.914,12.074 C77.914,11.326 78.299,10.714 79.07,10.238 C78.911,10.011 78.674,9.898 78.356,9.898 C77.472,9.898 76.668,10.244 75.942,10.935 C75.217,11.626 74.65,12.47 74.242,13.467 C73.834,14.464 73.63,15.405 73.63,16.289 L73.63,23.497 C73.63,24.54 73.93,25.265 74.531,25.673 C75.132,26.081 76.032,26.285 77.234,26.285 L77.234,27 L76.418,26.966 C74.106,26.899 72.633,26.864 71.998,26.864 C71.409,26.864 70.071,26.909 67.986,27 L67.986,26.286 C68.938,26.286 69.607,26.11 69.992,25.759 C70.377,25.408 70.57,24.768 70.57,23.838 L70.57,13.195 C70.57,12.153 70.378,11.394 69.992,10.918 C69.606,10.441 68.938,10.204 67.986,10.204 L67.986,9.49 C68.712,9.558 69.414,9.592 70.094,9.592 C71.522,9.592 72.701,9.434 73.63,9.116 L73.63,13.366 C74.038,12.232 74.69,11.224 75.585,10.34 C76.481,9.456 77.472,9.014 78.56,9.014 C79.467,9.014 80.209,9.274 80.787,9.796 Z" id="Path_53_"></path>
                <path d="M105.964,3.029 C106.916,3.416 107.845,3.959 108.752,4.662 C109.002,4.866 109.217,4.968 109.398,4.968 C109.852,4.968 110.146,4.288 110.282,2.928 L111.064,2.928 C110.973,4.402 110.928,7.008 110.928,10.748 L110.146,10.748 C109.896,9.274 109.67,8.215 109.466,7.568 C109.262,6.922 108.922,6.304 108.446,5.715 C107.766,4.831 106.899,4.168 105.845,3.726 C104.791,3.285 103.652,3.064 102.428,3.064 C100.954,3.064 99.668,3.55 98.569,4.525 C97.47,5.5 96.614,6.888 96.002,8.691 C95.39,10.493 95.084,12.606 95.084,15.032 C95.084,17.503 95.413,19.622 96.07,21.39 C96.728,23.158 97.64,24.5 98.807,25.418 C99.974,26.336 101.294,26.795 102.768,26.795 C103.901,26.795 105,26.579 106.066,26.149 C107.131,25.717 107.97,25.072 108.582,24.211 C109.035,23.576 109.364,22.897 109.568,22.171 C109.772,21.446 109.965,20.335 110.146,18.839 L110.928,18.839 C110.928,22.737 110.973,25.458 111.064,26.999 L110.282,26.999 C110.214,26.273 110.117,25.758 109.993,25.452 C109.868,25.145 109.693,24.993 109.466,24.993 C109.285,24.993 109.047,25.083 108.752,25.264 C107.732,25.99 106.757,26.539 105.828,26.913 C104.898,27.287 103.777,27.475 102.462,27.475 C100.309,27.475 98.422,26.987 96.801,26.012 C95.18,25.037 93.923,23.627 93.027,21.78 C92.132,19.932 91.684,17.728 91.684,15.167 C91.684,12.674 92.143,10.464 93.061,8.537 C93.979,6.61 95.26,5.114 96.903,4.049 C98.547,2.984 100.411,2.451 102.496,2.451 C103.856,2.452 105.012,2.645 105.964,3.029 Z" id="Path_54_"></path>
                <path d="M128.184,11.309 C126.766,9.78 124.903,9.014 122.59,9.014 C120.277,9.014 118.414,9.78 116.997,11.309 C115.58,12.839 114.872,15.157 114.872,18.262 C114.872,21.367 115.58,23.68 116.997,25.199 C118.414,26.718 120.277,27.477 122.59,27.477 C124.903,27.477 126.766,26.717 128.184,25.199 C129.6,23.68 130.309,21.368 130.309,18.262 C130.309,15.156 129.6,12.839 128.184,11.309 Z M125.82,24.723 C125.027,26.105 123.95,26.796 122.59,26.796 C121.231,26.796 120.153,26.105 119.36,24.723 C118.567,23.34 118.17,21.186 118.17,18.262 C118.17,15.338 118.567,13.18 119.36,11.785 C120.153,10.39 121.231,9.693 122.59,9.693 C123.95,9.693 125.028,10.39 125.82,11.785 C126.612,13.18 127.009,15.338 127.009,18.262 C127.009,21.186 126.613,23.34 125.82,24.723 Z" id="Shape"></path>
                <path d="M145.693,9.796 C146.271,10.317 146.56,10.952 146.56,11.7 C146.56,12.289 146.384,12.793 146.033,13.213 C145.682,13.633 145.211,13.842 144.622,13.842 C144.123,13.842 143.698,13.684 143.348,13.366 C142.996,13.049 142.821,12.618 142.821,12.074 C142.821,11.326 143.206,10.714 143.977,10.238 C143.818,10.011 143.58,9.898 143.262,9.898 C142.378,9.898 141.574,10.244 140.848,10.935 C140.123,11.626 139.557,12.47 139.149,13.467 C138.741,14.464 138.537,15.405 138.537,16.289 L138.537,23.497 C138.537,24.54 138.837,25.265 139.438,25.673 C140.038,26.081 140.939,26.285 142.141,26.285 L142.141,27 L141.325,26.966 C139.013,26.899 137.54,26.864 136.905,26.864 C136.315,26.864 134.978,26.909 132.893,27 L132.893,26.286 C133.844,26.286 134.513,26.11 134.899,25.759 C135.284,25.408 135.477,24.768 135.477,23.838 L135.477,13.195 C135.477,12.153 135.284,11.394 134.899,10.918 C134.513,10.441 133.844,10.204 132.893,10.204 L132.893,9.49 C133.618,9.558 134.321,9.592 135,9.592 C136.428,9.592 137.606,9.434 138.536,9.116 L138.536,13.366 C138.943,12.232 139.596,11.224 140.491,10.34 C141.387,9.456 142.378,9.014 143.466,9.014 C144.373,9.014 145.115,9.274 145.693,9.796 Z" id="Path_57_"></path>
                <path d="M163.391,25.572 C163.005,25.095 162.813,24.337 162.813,23.294 L162.813,0.344 C161.883,0.661 160.705,0.821 159.276,0.821 C158.596,0.821 157.894,0.787 157.169,0.718 L157.169,1.432 C158.121,1.432 158.79,1.67 159.175,2.147 C159.561,2.623 159.753,3.381 159.753,4.424 L159.753,11.02 C159.322,10.34 158.75,9.836 158.036,9.507 C157.321,9.178 156.534,9.014 155.673,9.014 C154.268,9.014 152.982,9.366 151.814,10.069 C150.647,10.771 149.718,11.819 149.027,13.214 C148.336,14.609 147.99,16.291 147.99,18.263 C147.967,21.279 148.574,23.568 149.808,25.131 C151.044,26.694 152.749,27.478 154.925,27.478 C156.104,27.478 157.101,27.21 157.917,26.678 C158.733,26.146 159.345,25.369 159.753,24.349 L159.753,27.375 C160.683,27.058 161.86,26.899 163.289,26.899 C163.991,26.899 164.694,26.932 165.397,27.001 L165.397,26.287 C164.443,26.286 163.775,26.048 163.391,25.572 Z M159.752,22.546 C159.481,23.793 158.992,24.756 158.29,25.436 C157.588,26.117 156.794,26.457 155.91,26.457 C154.39,26.457 153.235,25.771 152.441,24.399 C151.648,23.028 151.263,20.983 151.286,18.262 C151.264,15.496 151.682,13.395 152.544,11.955 C153.406,10.515 154.539,9.796 155.943,9.796 C157.871,9.796 159.14,10.668 159.752,12.414 L159.752,22.546 Z" id="Shape"></path>
                <path d="M172.502,1.636 C172.933,2.067 173.148,2.576 173.148,3.166 C173.148,3.756 172.932,4.266 172.502,4.695 C172.071,5.127 171.562,5.341 170.973,5.341 C170.383,5.341 169.873,5.126 169.442,4.695 C169.012,4.265 168.796,3.756 168.796,3.166 C168.796,2.576 169.012,2.066 169.442,1.636 C169.874,1.205 170.383,0.99 170.973,0.99 C171.562,0.99 172.071,1.205 172.502,1.636 Z M172.74,23.838 C172.74,24.768 172.932,25.408 173.318,25.759 C173.703,26.111 174.372,26.286 175.324,26.286 L175.324,27 C173.238,26.909 171.867,26.864 171.21,26.864 C170.553,26.864 169.182,26.909 167.096,27 L167.096,26.286 C168.048,26.286 168.717,26.11 169.102,25.759 C169.488,25.408 169.68,24.768 169.68,23.838 L169.68,13.195 C169.68,12.153 169.488,11.394 169.102,10.918 C168.717,10.441 168.048,10.204 167.096,10.204 L167.096,9.49 C167.822,9.558 168.524,9.592 169.204,9.592 C170.632,9.592 171.81,9.434 172.74,9.116 L172.74,23.838 Z" id="Combined-Shape"></path>
                <path d="M185.32,9.389 C185.955,9.637 186.465,9.932 186.849,10.272 C187.099,10.454 187.302,10.544 187.461,10.544 C187.869,10.544 188.118,10.045 188.209,9.048 L188.991,9.048 C188.9,10.158 188.854,12.086 188.854,14.828 L188.073,14.828 C187.823,13.332 187.342,12.097 186.628,11.122 C185.914,10.147 184.855,9.66 183.449,9.66 C182.633,9.66 181.964,9.892 181.442,10.357 C180.921,10.822 180.661,11.461 180.661,12.277 C180.661,13.071 180.932,13.734 181.477,14.267 C182.02,14.799 182.893,15.439 184.094,16.187 C184.298,16.3 184.604,16.494 185.012,16.765 C186.055,17.445 186.894,18.046 187.528,18.568 C188.163,19.089 188.678,19.689 189.076,20.37 C189.472,21.05 189.671,21.832 189.671,22.716 C189.671,24.212 189.11,25.379 187.988,26.218 C186.866,27.057 185.489,27.477 183.856,27.477 C182.836,27.477 181.942,27.318 181.17,27 C180.672,26.75 180.207,26.445 179.775,26.082 C179.685,25.991 179.584,25.945 179.47,25.945 C179.311,25.945 179.169,26.059 179.044,26.286 C178.919,26.513 178.823,26.83 178.755,27.238 L177.974,27.238 C178.064,25.945 178.109,23.679 178.109,20.437 L178.892,20.437 C179.141,22.568 179.594,24.161 180.251,25.214 C180.908,26.269 182.03,26.795 183.617,26.795 C184.41,26.795 185.113,26.534 185.725,26.013 C186.336,25.492 186.643,24.676 186.643,23.566 C186.643,22.681 186.342,21.933 185.742,21.322 C185.141,20.71 184.161,19.972 182.802,19.111 C181.691,18.409 180.835,17.832 180.234,17.378 C179.634,16.925 179.13,16.369 178.722,15.712 C178.314,15.055 178.109,14.284 178.109,13.4 C178.109,11.972 178.586,10.883 179.538,10.135 C180.49,9.388 181.691,9.013 183.142,9.013 C183.96,9.014 184.686,9.139 185.32,9.389 Z" id="Path_62_"></path>
            </g>
        </g>
    </g>
</svg>