<?xml version="1.0" encoding="UTF-8" standalone="no"?>
<svg width="238px" height="28px" viewBox="0 0 238 28" version="1.1" xmlns="http://www.w3.org/2000/svg" xmlns:xlink="http://www.w3.org/1999/xlink">
    <!-- Generator: Sketch 49 (51002) - http://www.bohemiancoding.com/sketch -->
    <title>LaVinaEnRosa</title>
    <desc>Created with Sketch.</desc>
    <defs></defs>
    <g id="Page-1" stroke="none" stroke-width="1" fill="none" fill-rule="evenodd">
        <g id="Artboard" transform="translate(-37.000000, -145.000000)" fill="#000000" fill-rule="nonzero">
            <g id="LaVinaEnRosa" transform="translate(37.000000, 145.000000)">
                <path d="M9.098,3.608 C8.282,3.653 7.687,3.744 7.313,3.88 C6.939,4.016 6.684,4.277 6.548,4.662 C6.412,5.047 6.344,5.671 6.344,6.532 L6.344,23.396 C6.344,24.257 6.412,24.881 6.548,25.266 C6.684,25.651 6.939,25.906 7.313,26.031 C7.687,26.156 8.282,26.218 9.098,26.218 L11.58,26.218 C12.985,26.218 14.056,26.02 14.793,25.623 C15.53,25.226 16.068,24.586 16.408,23.702 C16.748,22.818 16.997,21.537 17.156,19.86 L17.938,19.86 C17.87,20.563 17.836,21.492 17.836,22.648 C17.836,23.94 17.916,25.391 18.074,27 C16.532,26.932 13.937,26.898 10.288,26.898 C5.936,26.898 2.649,26.932 0.428,27 L0.428,26.32 C1.244,26.275 1.839,26.184 2.213,26.048 C2.587,25.912 2.842,25.652 2.978,25.266 C3.114,24.881 3.182,24.257 3.182,23.396 L3.182,6.532 C3.182,5.671 3.114,5.047 2.978,4.662 C2.842,4.277 2.587,4.016 2.213,3.88 C1.839,3.744 1.244,3.653 0.428,3.608 L0.428,2.928 C1.38,2.996 2.831,3.03 4.78,3.03 C6.593,3.03 8.033,2.996 9.098,2.927 L9.098,3.608 Z" id="Path_63_"></path>
                <path d="M35.516,25.402 C35.244,25.629 34.989,25.804 34.751,25.929 C34.513,26.054 34.258,26.116 33.986,26.116 C33.601,26.116 33.329,25.991 33.17,25.742 C33.011,25.492 32.932,25.084 32.932,24.518 L32.932,15.066 C32.932,13.865 32.835,12.896 32.643,12.159 C32.45,11.422 32.071,10.793 31.504,10.272 C30.597,9.434 29.26,9.014 27.492,9.014 C26.494,9.014 25.576,9.139 24.738,9.388 C23.9,9.637 23.208,9.954 22.664,10.34 C22.143,10.703 21.751,11.066 21.491,11.428 C21.23,11.791 21.1,12.244 21.1,12.788 C21.1,13.354 21.259,13.836 21.576,14.233 C21.893,14.63 22.369,14.828 23.004,14.828 C23.571,14.828 24.035,14.663 24.398,14.335 C24.761,14.007 24.942,13.559 24.942,12.992 C24.942,12.448 24.789,11.994 24.483,11.632 C24.177,11.27 23.797,11.031 23.344,10.918 C24.001,10.102 25.123,9.694 26.71,9.694 C27.708,9.694 28.484,9.938 29.039,10.425 C29.594,10.912 29.872,11.814 29.872,13.128 L29.872,15.236 C29.872,15.848 29.566,16.336 28.954,16.698 C28.342,17.06 27.401,17.457 26.132,17.888 C24.885,18.319 23.882,18.726 23.123,19.112 C22.364,19.498 21.706,20.019 21.151,20.676 C20.596,21.334 20.318,22.172 20.318,23.192 C20.318,24.462 20.664,25.453 21.355,26.167 C22.046,26.881 23.106,27.238 24.534,27.238 C25.644,27.238 26.642,27.017 27.526,26.575 C28.41,26.133 29.192,25.345 29.872,24.212 C29.872,25.142 30.087,25.878 30.518,26.422 C30.949,26.966 31.708,27.238 32.796,27.238 C33.431,27.238 33.958,27.142 34.377,26.949 C34.796,26.756 35.301,26.433 35.89,25.98 L35.516,25.402 Z M29.872,23.294 C28.807,25.017 27.526,25.878 26.03,25.878 C25.214,25.878 24.557,25.617 24.058,25.096 C23.559,24.575 23.31,23.804 23.31,22.784 C23.31,21.9 23.502,21.175 23.888,20.608 C24.273,20.042 24.732,19.594 25.265,19.265 C25.798,18.936 26.494,18.591 27.356,18.228 C28.104,17.888 28.659,17.616 29.022,17.412 C29.385,17.208 29.668,16.947 29.872,16.63 L29.872,23.294 Z" id="Shape"></path>
                <path d="M64.484,2.928 L64.484,3.608 C63.351,3.88 62.456,4.866 61.798,6.566 L53.808,27.17 L53.264,27.17 L44.968,5.784 C44.424,4.379 43.642,3.653 42.622,3.608 L42.622,2.928 C43.529,2.996 44.741,3.031 46.26,3.031 C48.21,3.031 49.66,2.997 50.612,2.928 L50.612,3.608 C49.751,3.653 49.133,3.761 48.759,3.931 C48.385,4.101 48.198,4.412 48.198,4.866 C48.198,5.251 48.334,5.784 48.606,6.464 L54.76,22.818 L60.302,8.436 C60.756,7.212 60.982,6.283 60.982,5.648 C60.982,4.945 60.738,4.436 60.251,4.118 C59.764,3.8 59.022,3.631 58.024,3.608 L58.024,2.928 C59.316,2.996 60.619,3.031 61.934,3.031 C62.954,3.03 63.804,2.996 64.484,2.928 Z" id="Path_66_"></path>
                <path d="M69.686,1.636 C70.117,2.067 70.332,2.577 70.332,3.166 C70.332,3.755 70.117,4.265 69.686,4.696 C69.255,5.127 68.745,5.342 68.156,5.342 C67.567,5.342 67.056,5.127 66.626,4.696 C66.196,4.265 65.98,3.756 65.98,3.166 C65.98,2.576 66.195,2.066 66.626,1.636 C67.057,1.206 67.567,0.99 68.156,0.99 C68.745,0.99 69.255,1.205 69.686,1.636 Z M69.924,23.838 C69.924,24.768 70.117,25.408 70.502,25.759 C70.887,26.111 71.556,26.286 72.508,26.286 L72.508,27 C70.423,26.909 69.051,26.864 68.394,26.864 C67.737,26.864 66.365,26.909 64.28,27 L64.28,26.286 C65.232,26.286 65.901,26.11 66.286,25.759 C66.671,25.408 66.864,24.768 66.864,23.838 L66.864,13.196 C66.864,12.154 66.672,11.394 66.286,10.918 C65.9,10.442 65.232,10.204 64.28,10.204 L64.28,9.49 C65.006,9.558 65.708,9.592 66.388,9.592 C67.816,9.592 68.994,9.434 69.924,9.116 L69.924,23.838 Z" id="Combined-Shape"></path>
                <path d="M89.27,10.306 C89.701,10.759 90.007,11.326 90.188,12.006 C90.369,12.686 90.46,13.604 90.46,14.76 L90.46,23.838 C90.46,24.768 90.653,25.408 91.038,25.759 C91.423,26.111 92.092,26.286 93.044,26.286 L93.044,27 C90.959,26.909 89.599,26.864 88.964,26.864 C88.329,26.864 87.06,26.909 85.156,27 L85.156,26.286 C85.994,26.286 86.578,26.11 86.907,25.759 C87.236,25.408 87.4,24.768 87.4,23.838 L87.4,14.012 C87.4,12.742 87.219,11.773 86.856,11.105 C86.493,10.437 85.757,10.102 84.646,10.102 C83.717,10.102 82.889,10.374 82.164,10.918 C81.438,11.462 80.877,12.204 80.481,13.145 C80.085,14.086 79.886,15.134 79.886,16.29 L79.886,23.838 C79.886,24.768 80.05,25.408 80.379,25.759 C80.708,26.111 81.292,26.286 82.13,26.286 L82.13,27 C80.226,26.909 78.957,26.864 78.322,26.864 C77.688,26.864 76.327,26.909 74.242,27 L74.242,26.286 C75.194,26.286 75.863,26.11 76.248,25.759 C76.633,25.408 76.826,24.768 76.826,23.838 L76.826,13.196 C76.826,12.154 76.633,11.394 76.248,10.918 C75.863,10.442 75.194,10.204 74.242,10.204 L74.242,9.49 C74.967,9.558 75.67,9.592 76.35,9.592 C77.778,9.592 78.956,9.434 79.886,9.116 L79.886,13.128 C80.452,11.677 81.24,10.629 82.249,9.983 C83.258,9.337 84.396,9.014 85.666,9.014 C87.253,9.014 88.454,9.445 89.27,10.306 Z M82.64,1.211 C83.071,1.426 83.524,1.727 84,2.112 C84.453,2.452 84.844,2.707 85.173,2.877 C85.502,3.047 85.87,3.132 86.278,3.132 C87.298,3.132 88.171,2.531 88.896,1.33 L89.372,1.568 C89.032,2.77 88.505,3.653 87.791,4.22 C87.077,4.787 86.267,5.07 85.36,5.07 C84.771,5.07 84.272,4.968 83.864,4.764 C83.456,4.56 82.991,4.254 82.47,3.846 C81.994,3.483 81.597,3.217 81.28,3.047 C80.963,2.877 80.6,2.792 80.192,2.792 C79.195,2.792 78.322,3.404 77.574,4.628 L77.098,4.39 C77.438,3.188 77.965,2.305 78.679,1.738 C79.393,1.172 80.215,0.888 81.144,0.888 C81.71,0.888 82.209,0.996 82.64,1.211 Z" id="Combined-Shape"></path>
                <path d="M110.078,25.402 C109.806,25.629 109.551,25.804 109.313,25.929 C109.075,26.054 108.82,26.116 108.548,26.116 C108.163,26.116 107.891,25.991 107.732,25.742 C107.573,25.492 107.494,25.084 107.494,24.518 L107.494,15.066 C107.494,13.865 107.397,12.896 107.205,12.159 C107.012,11.422 106.633,10.793 106.066,10.272 C105.159,9.434 103.822,9.014 102.054,9.014 C101.056,9.014 100.138,9.139 99.3,9.388 C98.462,9.637 97.77,9.954 97.226,10.34 C96.705,10.703 96.313,11.066 96.053,11.428 C95.792,11.791 95.662,12.244 95.662,12.788 C95.662,13.354 95.821,13.836 96.138,14.233 C96.455,14.63 96.931,14.828 97.566,14.828 C98.133,14.828 98.597,14.663 98.96,14.335 C99.323,14.007 99.504,13.559 99.504,12.992 C99.504,12.448 99.351,11.994 99.045,11.632 C98.739,11.27 98.359,11.031 97.906,10.918 C98.563,10.102 99.685,9.694 101.272,9.694 C102.27,9.694 103.046,9.938 103.601,10.425 C104.156,10.912 104.434,11.814 104.434,13.128 L104.434,15.236 C104.434,15.848 104.128,16.336 103.516,16.698 C102.904,17.06 101.963,17.457 100.694,17.888 C99.447,18.319 98.444,18.726 97.685,19.112 C96.926,19.498 96.268,20.019 95.713,20.676 C95.158,21.334 94.88,22.172 94.88,23.192 C94.88,24.462 95.226,25.453 95.917,26.167 C96.608,26.881 97.668,27.238 99.096,27.238 C100.206,27.238 101.204,27.017 102.088,26.575 C102.972,26.133 103.754,25.345 104.434,24.212 C104.434,25.142 104.649,25.878 105.08,26.422 C105.511,26.966 106.27,27.238 107.358,27.238 C107.993,27.238 108.52,27.142 108.939,26.949 C109.358,26.756 109.863,26.433 110.452,25.98 L110.078,25.402 Z M104.434,23.294 C103.369,25.017 102.088,25.878 100.592,25.878 C99.776,25.878 99.119,25.617 98.62,25.096 C98.121,24.575 97.872,23.804 97.872,22.784 C97.872,21.9 98.064,21.175 98.45,20.608 C98.835,20.042 99.294,19.594 99.827,19.265 C100.36,18.936 101.056,18.591 101.918,18.228 C102.666,17.888 103.221,17.616 103.584,17.412 C103.947,17.208 104.23,16.947 104.434,16.63 L104.434,23.294 Z" id="Shape"></path>
                <path d="M133.605,22.648 C133.039,23.872 132.336,24.745 131.498,25.266 C130.659,25.787 129.695,26.048 128.607,26.048 C127.724,26.048 126.879,25.748 126.075,25.147 C125.271,24.546 124.625,23.69 124.137,22.58 C123.65,21.469 123.407,20.166 123.407,18.67 C123.407,17.854 123.44,17.129 123.509,16.494 L134.152,16.494 C134.152,13.978 133.602,12.102 132.503,10.867 C131.404,9.632 129.834,9.014 127.794,9.014 C126.252,9.014 124.904,9.405 123.748,10.187 C122.592,10.969 121.697,12.085 121.062,13.536 C120.427,14.987 120.109,16.698 120.109,18.67 C120.109,20.416 120.421,21.951 121.045,23.277 C121.668,24.603 122.569,25.634 123.748,26.371 C124.927,27.107 126.32,27.476 127.93,27.476 C129.517,27.476 130.871,27.028 131.993,26.133 C133.115,25.238 133.88,24.167 134.288,22.92 L133.605,22.648 Z M124.902,11.224 C125.673,10.181 126.59,9.66 127.656,9.66 C128.744,9.66 129.565,10.249 130.121,11.428 C130.676,12.607 130.932,14.08 130.887,15.848 L123.475,15.848 C123.655,13.808 124.131,12.267 124.902,11.224 Z" id="Shape"></path>
                <path d="M151.762,10.306 C152.194,10.759 152.498,11.326 152.68,12.006 C152.862,12.686 152.952,13.604 152.952,14.76 L152.952,23.838 C152.952,24.768 153.144,25.408 153.529,25.759 C153.916,26.111 154.584,26.286 155.536,26.286 L155.536,27 C153.451,26.909 152.091,26.864 151.456,26.864 C150.821,26.864 149.553,26.909 147.648,27 L147.648,26.286 C148.486,26.286 149.07,26.11 149.398,25.759 C149.727,25.408 149.892,24.768 149.892,23.838 L149.892,14.012 C149.892,12.742 149.71,11.773 149.347,11.105 C148.985,10.437 148.247,10.102 147.138,10.102 C146.208,10.102 145.38,10.374 144.656,10.918 C143.93,11.462 143.369,12.204 142.972,13.145 C142.575,14.086 142.377,15.134 142.377,16.29 L142.377,23.838 C142.377,24.768 142.542,25.408 142.87,25.759 C143.198,26.111 143.782,26.286 144.621,26.286 L144.621,27 C142.717,26.909 141.448,26.864 140.813,26.864 C140.178,26.864 138.818,26.909 136.733,27 L136.733,26.286 C137.684,26.286 138.353,26.11 138.739,25.759 C139.124,25.408 139.317,24.768 139.317,23.838 L139.317,13.196 C139.317,12.154 139.124,11.394 138.739,10.918 C138.353,10.442 137.684,10.204 136.733,10.204 L136.733,9.49 C137.458,9.558 138.161,9.592 138.84,9.592 C140.268,9.592 141.447,9.434 142.376,9.116 L142.376,13.128 C142.943,11.677 143.73,10.629 144.739,9.983 C145.748,9.337 146.886,9.014 148.156,9.014 C149.744,9.014 150.945,9.445 151.762,10.306 Z" id="Path_75_"></path>
                <path d="M186.441,24.926 C186.101,25.38 185.801,25.708 185.541,25.912 C185.281,26.116 184.957,26.218 184.572,26.218 C184.14,26.218 183.801,26.014 183.551,25.606 C183.302,25.198 183.064,24.473 182.837,23.43 L181.987,19.962 C181.67,18.534 181.171,17.491 180.491,16.834 C179.811,16.177 178.723,15.723 177.227,15.474 L176.819,15.406 C178.405,15.156 179.692,14.675 180.678,13.961 C181.663,13.247 182.366,12.442 182.785,11.547 C183.205,10.652 183.414,9.762 183.414,8.878 C183.414,7.133 182.705,5.711 181.289,4.611 C179.873,3.512 177.85,2.962 175.221,2.962 C174.676,2.962 174.189,2.973 173.758,2.996 L170.086,3.03 C168.273,3.03 166.891,2.996 165.938,2.927 L165.938,3.607 C166.754,3.652 167.35,3.743 167.723,3.879 C168.098,4.015 168.352,4.276 168.489,4.661 C168.625,5.046 168.692,5.67 168.692,6.531 L168.692,23.395 C168.692,24.256 168.625,24.88 168.489,25.265 C168.352,25.65 168.098,25.911 167.723,26.047 C167.35,26.183 166.754,26.274 165.938,26.319 L165.938,27 C166.891,26.932 168.341,26.898 170.291,26.898 C172.127,26.898 173.566,26.932 174.608,27 L174.608,26.32 C173.793,26.275 173.198,26.184 172.824,26.048 C172.45,25.912 172.194,25.652 172.059,25.266 C171.922,24.881 171.854,24.257 171.854,23.396 L171.854,15.576 L175.084,15.576 C175.945,15.576 176.614,15.768 177.09,16.154 C177.567,16.539 177.923,17.05 178.161,17.684 C178.398,18.319 178.654,19.226 178.926,20.404 L179.674,23.804 C179.969,25.164 180.416,26.116 181.018,26.66 C181.618,27.204 182.383,27.476 183.313,27.476 C184.174,27.476 184.866,27.306 185.387,26.966 C185.908,26.626 186.429,26.071 186.95,25.3 L186.441,24.926 Z M174.134,14.896 L171.856,14.896 L171.856,6.532 C171.856,5.716 171.924,5.104 172.061,4.696 C172.196,4.288 172.44,4.005 172.791,3.846 C173.142,3.687 173.67,3.608 174.372,3.608 C176.367,3.608 177.807,4.084 178.689,5.036 C179.574,5.988 180.015,7.393 180.015,9.252 C180.015,11.02 179.596,12.403 178.757,13.4 C177.92,14.397 176.378,14.896 174.134,14.896 Z" id="Shape"></path>
                <path d="M201.453,11.309 C200.036,9.779 198.172,9.014 195.859,9.014 C193.547,9.014 191.683,9.779 190.267,11.309 C188.85,12.839 188.142,15.157 188.142,18.262 C188.142,21.367 188.85,23.679 190.267,25.198 C191.683,26.717 193.547,27.476 195.859,27.476 C198.171,27.476 200.036,26.717 201.453,25.198 C202.869,23.679 203.578,21.367 203.578,18.262 C203.578,15.157 202.869,12.839 201.453,11.309 Z M199.09,24.722 C198.297,26.104 197.221,26.796 195.86,26.796 C194.501,26.796 193.424,26.105 192.631,24.722 C191.838,23.339 191.441,21.186 191.441,18.262 C191.441,15.338 191.838,13.179 192.631,11.785 C193.425,10.391 194.501,9.694 195.86,9.694 C197.221,9.694 198.298,10.391 199.09,11.785 C199.882,13.179 200.279,15.338 200.279,18.262 C200.279,21.186 199.883,23.339 199.09,24.722 Z" id="Shape"></path>
                <path d="M214.424,9.388 C215.059,9.637 215.569,9.932 215.954,10.272 C216.203,10.453 216.407,10.544 216.566,10.544 C216.974,10.544 217.222,10.045 217.314,9.048 L218.095,9.048 C218.005,10.159 217.959,12.086 217.959,14.828 L217.177,14.828 C216.928,13.332 216.447,12.097 215.732,11.122 C215.019,10.147 213.959,9.66 212.554,9.66 C211.738,9.66 211.069,9.892 210.547,10.357 C210.026,10.822 209.765,11.462 209.765,12.278 C209.765,13.071 210.037,13.735 210.581,14.267 C211.125,14.799 211.997,15.44 213.199,16.188 C213.403,16.301 213.709,16.494 214.117,16.766 C215.159,17.446 215.999,18.047 216.633,18.568 C217.268,19.089 217.783,19.69 218.181,20.37 C218.577,21.05 218.775,21.832 218.775,22.716 C218.775,24.212 218.214,25.38 217.092,26.218 C215.97,27.057 214.593,27.476 212.961,27.476 C211.94,27.476 211.046,27.317 210.274,27 C209.776,26.75 209.311,26.445 208.88,26.082 C208.789,25.991 208.688,25.946 208.574,25.946 C208.416,25.946 208.273,26.06 208.148,26.286 C208.024,26.513 207.927,26.83 207.859,27.238 L207.078,27.238 C207.169,25.946 207.214,23.679 207.214,20.438 L207.996,20.438 C208.245,22.569 208.699,24.161 209.355,25.215 C210.013,26.269 211.134,26.796 212.722,26.796 C213.515,26.796 214.218,26.535 214.829,26.014 C215.44,25.493 215.747,24.677 215.747,23.566 C215.747,22.682 215.446,21.934 214.847,21.322 C214.245,20.71 213.265,19.973 211.906,19.112 C210.795,18.409 209.939,17.832 209.339,17.378 C208.738,16.925 208.235,16.369 207.826,15.712 C207.417,15.055 207.214,14.284 207.214,13.4 C207.214,11.972 207.69,10.884 208.643,10.136 C209.594,9.388 210.795,9.014 212.247,9.014 C213.064,9.014 213.789,9.139 214.424,9.388 Z" id="Path_80_"></path>
                <path d="M236.898,25.402 C236.626,25.629 236.371,25.804 236.132,25.929 C235.894,26.054 235.64,26.116 235.367,26.116 C234.981,26.116 234.71,25.991 234.551,25.742 C234.393,25.492 234.314,25.084 234.314,24.518 L234.314,15.066 C234.314,13.865 234.217,12.896 234.025,12.159 C233.832,11.422 233.453,10.793 232.885,10.272 C231.979,9.434 230.642,9.014 228.873,9.014 C227.876,9.014 226.958,9.139 226.119,9.388 C225.28,9.637 224.589,9.954 224.045,10.34 C223.524,10.703 223.133,11.066 222.872,11.428 C222.611,11.791 222.481,12.244 222.481,12.788 C222.481,13.354 222.639,13.836 222.957,14.233 C223.274,14.63 223.751,14.828 224.385,14.828 C224.952,14.828 225.417,14.663 225.779,14.335 C226.142,14.006 226.324,13.559 226.324,12.992 C226.324,12.448 226.171,11.994 225.865,11.632 C225.558,11.27 225.179,11.031 224.726,10.918 C225.382,10.102 226.505,9.694 228.091,9.694 C229.089,9.694 229.864,9.938 230.42,10.425 C230.976,10.912 231.253,11.814 231.253,13.128 L231.253,15.236 C231.253,15.848 230.947,16.336 230.335,16.698 C229.724,17.06 228.782,17.457 227.513,17.888 C226.267,18.319 225.263,18.726 224.504,19.112 C223.745,19.498 223.087,20.019 222.532,20.676 C221.976,21.334 221.699,22.172 221.699,23.192 C221.699,24.462 222.045,25.453 222.735,26.167 C223.426,26.881 224.487,27.238 225.915,27.238 C227.026,27.238 228.022,27.017 228.907,26.575 C229.791,26.133 230.573,25.345 231.253,24.212 C231.253,25.142 231.468,25.878 231.899,26.422 C232.329,26.966 233.088,27.238 234.176,27.238 C234.811,27.238 235.338,27.142 235.757,26.949 C236.176,26.756 236.681,26.433 237.27,25.98 L236.898,25.402 Z M231.254,23.294 C230.189,25.017 228.908,25.878 227.412,25.878 C226.596,25.878 225.938,25.617 225.439,25.096 C224.941,24.575 224.691,23.804 224.691,22.784 C224.691,21.9 224.884,21.175 225.269,20.608 C225.655,20.042 226.114,19.594 226.646,19.265 C227.179,18.936 227.876,18.591 228.738,18.228 C229.486,17.888 230.041,17.616 230.404,17.412 C230.766,17.208 231.05,16.947 231.254,16.63 L231.254,23.294 Z" id="Shape"></path>
            </g>
        </g>
    </g>
</svg>