<?xml version="1.0" encoding="UTF-8" standalone="no"?>
<svg width="165px" height="29px" viewBox="0 0 165 29" version="1.1" xmlns="http://www.w3.org/2000/svg" xmlns:xlink="http://www.w3.org/1999/xlink">
    <!-- Generator: Sketch 49 (51002) - http://www.bohemiancoding.com/sketch -->
    <title>Mourvedre</title>
    <desc>Created with Sketch.</desc>
    <defs></defs>
    <g id="Page-1" stroke="none" stroke-width="1" fill="none" fill-rule="evenodd">
        <g id="Artboard" transform="translate(-37.000000, -301.000000)" fill="#000000" fill-rule="nonzero">
            <g id="Mourvedre" transform="translate(37.000000, 301.000000)">
                <path d="M25.401,4.88 C25.027,5.016 24.772,5.277 24.636,5.662 C24.5,6.047 24.432,6.671 24.432,7.532 L24.432,24.396 C24.432,25.257 24.5,25.88 24.636,26.265 C24.772,26.651 25.027,26.911 25.401,27.047 C25.775,27.183 26.37,27.274 27.186,27.319 L27.186,28 C26.144,27.932 24.704,27.898 22.868,27.898 C20.918,27.898 19.468,27.931 18.516,28 L18.516,27.32 C19.332,27.274 19.927,27.183 20.301,27.048 C20.675,26.913 20.93,26.652 21.066,26.266 C21.202,25.881 21.27,25.258 21.27,24.397 L21.27,6.172 L13.076,28.17 L12.532,28.17 L3.964,6.104 L3.964,24.057 C3.964,24.94 4.038,25.598 4.185,26.028 C4.332,26.46 4.621,26.771 5.052,26.964 C5.483,27.157 6.152,27.276 7.058,27.321 L7.058,28 C6.242,27.932 5.086,27.898 3.59,27.898 C2.23,27.898 1.176,27.931 0.428,28 L0.428,27.32 C1.221,27.274 1.81,27.156 2.196,26.963 C2.582,26.771 2.842,26.453 2.978,26.011 C3.114,25.569 3.182,24.918 3.182,24.057 L3.182,7.533 C3.182,6.672 3.114,6.048 2.978,5.663 C2.842,5.278 2.587,5.017 2.213,4.881 C1.839,4.745 1.244,4.654 0.428,4.609 L0.428,3.929 C1.176,3.997 2.23,4.032 3.59,4.032 C4.769,4.032 5.732,3.998 6.48,3.929 L13.96,23.616 L21.27,4.032 L22.868,4.032 C24.704,4.032 26.143,3.998 27.186,3.929 L27.186,4.609 C26.37,4.653 25.775,4.744 25.401,4.88 Z" id="Path_83_"></path>
                <path d="M42.911,12.309 C41.494,10.78 39.63,10.014 37.318,10.014 C35.006,10.014 33.142,10.78 31.725,12.309 C30.308,13.839 29.6,16.157 29.6,19.262 C29.6,22.367 30.308,24.68 31.725,26.199 C33.142,27.718 35.006,28.477 37.318,28.477 C39.63,28.477 41.494,27.717 42.911,26.199 C44.328,24.68 45.036,22.368 45.036,19.262 C45.036,16.156 44.328,13.839 42.911,12.309 Z M40.548,25.723 C39.755,27.105 38.678,27.796 37.318,27.796 C35.958,27.796 34.881,27.105 34.088,25.723 C33.295,24.34 32.898,22.186 32.898,19.262 C32.898,16.338 33.294,14.18 34.088,12.785 C34.882,11.39 35.958,10.693 37.318,10.693 C38.678,10.693 39.755,11.39 40.548,12.785 C41.341,14.18 41.738,16.338 41.738,19.262 C41.738,22.186 41.341,24.34 40.548,25.723 Z" id="Shape"></path>
                <path d="M63.056,24.328 C63.056,25.371 63.248,26.13 63.634,26.605 C64.02,27.082 64.688,27.32 65.64,27.32 L65.64,28.034 C64.937,27.966 64.235,27.931 63.532,27.931 C62.104,27.931 60.925,28.09 59.996,28.408 L59.996,24.396 C59.452,25.8 58.681,26.832 57.684,27.49 C56.686,28.147 55.599,28.476 54.42,28.476 C52.879,28.476 51.7,28.044 50.884,27.183 C50.476,26.73 50.187,26.152 50.017,25.45 C49.847,24.747 49.762,23.841 49.762,22.73 L49.762,14.195 C49.762,13.153 49.569,12.394 49.184,11.918 C48.799,11.442 48.13,11.204 47.178,11.204 L47.178,10.49 C47.881,10.558 48.583,10.592 49.286,10.592 C50.714,10.592 51.892,10.434 52.822,10.116 L52.822,23.478 C52.822,24.339 52.873,25.036 52.975,25.568 C53.077,26.101 53.315,26.538 53.689,26.878 C54.063,27.218 54.635,27.389 55.406,27.389 C56.267,27.389 57.049,27.117 57.752,26.573 C58.455,26.028 59.004,25.286 59.401,24.345 C59.798,23.405 59.996,22.367 59.996,21.235 L59.996,14.196 C59.996,13.154 59.803,12.395 59.418,11.919 C59.033,11.443 58.364,11.205 57.412,11.205 L57.412,10.491 C58.115,10.559 58.817,10.593 59.52,10.593 C60.948,10.593 62.126,10.435 63.056,10.117 L63.056,24.328 Z" id="Path_86_"></path>
                <path d="M80.175,10.796 C80.753,11.317 81.042,11.952 81.042,12.7 C81.042,13.289 80.866,13.794 80.515,14.213 C80.163,14.633 79.693,14.842 79.104,14.842 C78.605,14.842 78.18,14.684 77.829,14.366 C77.477,14.049 77.302,13.618 77.302,13.074 C77.302,12.326 77.688,11.714 78.458,11.238 C78.299,11.011 78.062,10.898 77.744,10.898 C76.86,10.898 76.055,11.244 75.33,11.935 C74.604,12.626 74.038,13.47 73.63,14.467 C73.222,15.464 73.018,16.405 73.018,17.289 L73.018,24.497 C73.018,25.54 73.318,26.265 73.919,26.673 C74.52,27.081 75.421,27.285 76.622,27.285 L76.622,28 L75.806,27.966 C73.494,27.899 72.02,27.864 71.386,27.864 C70.797,27.864 69.459,27.909 67.374,28 L67.374,27.286 C68.326,27.286 68.995,27.11 69.38,26.759 C69.765,26.408 69.958,25.768 69.958,24.838 L69.958,14.195 C69.958,13.153 69.765,12.394 69.38,11.918 C68.995,11.442 68.326,11.204 67.374,11.204 L67.374,10.49 C68.099,10.558 68.802,10.592 69.482,10.592 C70.91,10.592 72.089,10.434 73.018,10.116 L73.018,14.366 C73.426,13.232 74.078,12.224 74.973,11.34 C75.868,10.456 76.86,10.014 77.948,10.014 C78.854,10.014 79.597,10.274 80.175,10.796 Z" id="Path_87_"></path>
                <path d="M98.042,10.49 L98.042,11.17 C97.589,11.215 97.187,11.42 96.835,11.782 C96.484,12.144 96.149,12.734 95.832,13.55 L90.256,28.17 L89.678,28.17 L83.422,13.108 C83.082,12.338 82.754,11.828 82.436,11.579 C82.119,11.329 81.79,11.205 81.45,11.205 L81.45,10.491 C82.629,10.581 83.626,10.627 84.442,10.627 C86.188,10.627 87.661,10.581 88.862,10.491 L88.862,11.205 C88.024,11.205 87.411,11.267 87.026,11.392 C86.641,11.517 86.448,11.84 86.448,12.361 C86.448,12.679 86.573,13.177 86.822,13.857 L91.004,24.193 L94.744,14.368 C94.993,13.687 95.118,13.155 95.118,12.769 C95.118,12.248 94.92,11.869 94.523,11.63 C94.127,11.392 93.486,11.239 92.602,11.171 L92.602,10.491 C93.781,10.559 94.732,10.593 95.458,10.593 C96.456,10.592 97.317,10.559 98.042,10.49 Z" id="Path_88_"></path>
                <path d="M112.9,23.648 C112.334,24.872 111.631,25.744 110.792,26.265 C109.953,26.786 108.99,27.047 107.902,27.047 C107.018,27.047 106.174,26.747 105.369,26.146 C104.564,25.546 103.918,24.69 103.431,23.58 C102.944,22.469 102.7,21.166 102.7,19.67 C102.7,18.854 102.734,18.129 102.802,17.494 L113.444,17.494 C113.444,14.978 112.895,13.102 111.795,11.867 C110.696,10.632 109.126,10.013 107.086,10.013 C105.544,10.013 104.196,10.405 103.04,11.187 C101.884,11.968 100.989,13.085 100.354,14.536 C99.719,15.987 99.402,17.698 99.402,19.67 C99.402,21.416 99.714,22.951 100.337,24.277 C100.961,25.603 101.861,26.634 103.04,27.371 C104.219,28.108 105.613,28.476 107.222,28.476 C108.808,28.476 110.163,28.028 111.285,27.132 C112.407,26.237 113.172,25.165 113.58,23.919 L112.9,23.648 Z M104.196,12.225 C104.967,11.182 105.885,10.661 106.95,10.661 C108.038,10.661 108.86,11.251 109.415,12.429 C109.97,13.608 110.226,15.081 110.18,16.849 L102.768,16.849 C102.949,14.809 103.425,13.267 104.196,12.225 Z M103.618,0.12 C104.094,0.12 104.524,0.369 104.91,0.868 C105.295,1.389 105.748,2.172 106.27,3.214 C106.995,4.619 107.777,5.99 108.616,7.328 L108.242,7.634 C107.449,6.819 106.718,6.098 106.049,5.475 C105.381,4.852 104.967,4.473 104.808,4.336 C103.969,3.656 103.323,3.033 102.87,2.466 C102.553,2.035 102.394,1.651 102.394,1.311 C102.394,0.948 102.553,0.63 102.87,0.358 C103.051,0.199 103.301,0.12 103.618,0.12 Z" id="Combined-Shape"></path>
                <path d="M132.076,26.572 C131.69,26.095 131.498,25.337 131.498,24.294 L131.498,1.344 C130.568,1.661 129.391,1.821 127.962,1.821 C127.282,1.821 126.579,1.787 125.854,1.718 L125.854,2.432 C126.807,2.432 127.475,2.67 127.86,3.147 C128.246,3.623 128.438,4.381 128.438,5.424 L128.438,12.02 C128.008,11.34 127.436,10.836 126.721,10.507 C126.007,10.178 125.219,10.014 124.358,10.014 C122.954,10.014 121.667,10.366 120.5,11.069 C119.333,11.771 118.403,12.819 117.712,14.214 C117.021,15.609 116.675,17.291 116.675,19.263 C116.653,22.279 117.259,24.568 118.494,26.131 C119.729,27.694 121.434,28.478 123.61,28.478 C124.79,28.478 125.787,28.21 126.602,27.678 C127.418,27.146 128.03,26.369 128.438,25.349 L128.438,28.375 C129.368,28.058 130.546,27.899 131.975,27.899 C132.677,27.899 133.379,27.932 134.082,28.001 L134.082,27.287 C133.13,27.286 132.461,27.048 132.076,26.572 Z M128.438,23.546 C128.167,24.793 127.679,25.756 126.977,26.436 C126.274,27.117 125.481,27.457 124.596,27.457 C123.077,27.457 121.922,26.771 121.128,25.399 C120.334,24.028 119.949,21.983 119.973,19.262 C119.95,16.496 120.369,14.395 121.231,12.955 C122.093,11.515 123.225,10.796 124.63,10.796 C126.557,10.796 127.826,11.668 128.438,13.414 L128.438,23.546 Z" id="Shape"></path>
                <path d="M148.583,10.796 C149.161,11.317 149.45,11.952 149.45,12.7 C149.45,13.289 149.274,13.794 148.923,14.213 C148.572,14.633 148.102,14.842 147.512,14.842 C147.014,14.842 146.588,14.684 146.237,14.366 C145.886,14.049 145.711,13.618 145.711,13.074 C145.711,12.326 146.097,11.714 146.867,11.238 C146.708,11.011 146.47,10.898 146.153,10.898 C145.268,10.898 144.464,11.244 143.739,11.935 C143.013,12.626 142.446,13.47 142.039,14.467 C141.631,15.464 141.427,16.405 141.427,17.289 L141.427,24.497 C141.427,25.54 141.728,26.265 142.328,26.673 C142.928,27.081 143.829,27.285 145.03,27.285 L145.03,28 L144.215,27.966 C141.903,27.899 140.43,27.864 139.795,27.864 C139.206,27.864 137.868,27.909 135.783,28 L135.783,27.286 C136.735,27.286 137.403,27.11 137.789,26.759 C138.175,26.408 138.367,25.768 138.367,24.838 L138.367,14.195 C138.367,13.153 138.175,12.394 137.789,11.918 C137.403,11.442 136.735,11.204 135.783,11.204 L135.783,10.49 C136.509,10.558 137.211,10.592 137.891,10.592 C139.319,10.592 140.496,10.434 141.426,10.116 L141.426,14.366 C141.834,13.232 142.487,12.224 143.381,11.34 C144.277,10.456 145.268,10.014 146.356,10.014 C147.263,10.014 148.005,10.274 148.583,10.796 Z" id="Path_94_"></path>
                <path d="M164.309,23.648 C163.742,24.872 163.039,25.744 162.201,26.265 C161.363,26.786 160.399,27.047 159.311,27.047 C158.426,27.047 157.582,26.747 156.778,26.146 C155.973,25.546 155.327,24.69 154.84,23.58 C154.353,22.469 154.109,21.166 154.109,19.67 C154.109,18.854 154.144,18.129 154.212,17.494 L164.854,17.494 C164.854,14.978 164.305,13.102 163.206,11.867 C162.107,10.632 160.537,10.013 158.497,10.013 C156.956,10.013 155.606,10.405 154.451,11.187 C153.295,11.968 152.399,13.085 151.764,14.536 C151.129,15.987 150.813,17.698 150.813,19.67 C150.813,21.416 151.124,22.951 151.748,24.277 C152.371,25.603 153.272,26.634 154.451,27.371 C155.63,28.108 157.023,28.476 158.633,28.476 C160.22,28.476 161.573,28.028 162.696,27.132 C163.817,26.237 164.583,25.165 164.991,23.919 L164.309,23.648 Z M155.604,12.225 C156.375,11.182 157.293,10.661 158.358,10.661 C159.446,10.661 160.268,11.251 160.824,12.429 C161.38,13.608 161.634,15.081 161.589,16.849 L154.177,16.849 C154.357,14.809 154.834,13.267 155.604,12.225 Z" id="Shape"></path>
            </g>
        </g>
    </g>
</svg>