<?xml version="1.0" encoding="UTF-8" standalone="no"?>
<svg width="153px" height="28px" viewBox="0 0 153 28" version="1.1" xmlns="http://www.w3.org/2000/svg" xmlns:xlink="http://www.w3.org/1999/xlink">
    <!-- Generator: Sketch 49 (51002) - http://www.bohemiancoding.com/sketch -->
    <title>NobleCru</title>
    <desc>Created with Sketch.</desc>
    <defs></defs>
    <g id="Page-1" stroke="none" stroke-width="1" fill="none" fill-rule="evenodd">
        <g id="Artboard" transform="translate(-37.000000, -343.000000)" fill="#000000" fill-rule="nonzero">
            <g id="NobleCru" transform="translate(37.000000, 343.000000)">
                <path d="M21.78,3.607 C20.987,3.653 20.398,3.772 20.012,3.964 C19.626,4.157 19.366,4.474 19.23,4.916 C19.094,5.358 19.026,6.01 19.026,6.871 L19.026,27.169 L18.244,27.169 L3.964,5.103 L3.964,23.056 C3.964,23.939 4.038,24.597 4.185,25.027 C4.332,25.459 4.621,25.77 5.052,25.963 C5.483,26.156 6.152,26.275 7.058,26.32 L7.058,27 C6.242,26.932 5.086,26.898 3.59,26.898 C2.23,26.898 1.176,26.931 0.428,27 L0.428,26.32 C1.221,26.274 1.81,26.156 2.196,25.963 C2.582,25.771 2.842,25.453 2.978,25.011 C3.114,24.569 3.182,23.918 3.182,23.057 L3.182,6.533 C3.182,5.672 3.114,5.048 2.978,4.663 C2.842,4.278 2.587,4.017 2.213,3.881 C1.839,3.745 1.244,3.654 0.428,3.609 L0.428,2.929 C1.176,2.997 2.23,3.031 3.59,3.031 C4.61,3.031 5.494,2.998 6.242,2.929 L18.244,21.425 L18.244,6.873 C18.244,5.989 18.17,5.331 18.023,4.901 C17.876,4.469 17.587,4.159 17.156,3.965 C16.725,3.773 16.057,3.653 15.15,3.608 L15.15,2.928 C15.966,2.996 17.122,3.03 18.618,3.03 C19.978,3.03 21.032,2.997 21.78,2.928 L21.78,3.607 Z" id="Path_97_"></path>
                <path d="M37.301,11.309 C35.884,9.78 34.02,9.014 31.708,9.014 C29.396,9.014 27.532,9.78 26.115,11.309 C24.698,12.839 23.99,15.157 23.99,18.262 C23.99,21.367 24.698,23.68 26.115,25.199 C27.532,26.718 29.396,27.477 31.708,27.477 C34.02,27.477 35.884,26.717 37.301,25.199 C38.718,23.68 39.426,21.368 39.426,18.262 C39.426,15.156 38.718,12.839 37.301,11.309 Z M34.938,24.723 C34.145,26.105 33.068,26.796 31.708,26.796 C30.348,26.796 29.271,26.105 28.478,24.723 C27.685,23.34 27.288,21.186 27.288,18.262 C27.288,15.338 27.684,13.18 28.478,11.785 C29.272,10.39 30.348,9.693 31.708,9.693 C33.068,9.693 34.145,10.39 34.938,11.785 C35.731,13.18 36.128,15.338 36.128,18.262 C36.128,21.186 35.731,23.34 34.938,24.723 Z" id="Shape"></path>
                <path d="M56.783,11.395 C55.593,9.807 54.034,9.014 52.108,9.014 C50.952,9.014 49.904,9.332 48.963,9.966 C48.023,10.601 47.303,11.496 46.804,12.653 L46.804,0.379 C45.874,0.696 44.696,0.855 43.268,0.855 C42.588,0.855 41.885,0.822 41.16,0.753 L41.16,1.467 C42.112,1.467 42.781,1.705 43.166,2.181 C43.551,2.658 43.744,3.417 43.744,4.459 L43.744,25.335 C43.744,26.083 43.664,26.74 43.506,27.308 L44.084,27.545 L46.498,25.505 C47.087,26.14 47.773,26.627 48.555,26.967 C49.337,27.308 50.147,27.478 50.986,27.478 C52.391,27.478 53.667,27.126 54.811,26.423 C55.955,25.72 56.868,24.678 57.548,23.295 C58.228,21.912 58.568,20.235 58.568,18.263 C58.568,15.27 57.973,12.98 56.783,11.395 Z M54.131,24.637 C53.372,26.008 52.233,26.694 50.714,26.694 C49.989,26.694 49.286,26.553 48.606,26.27 C47.926,25.987 47.325,25.573 46.804,25.028 L46.804,14.25 C47.144,12.912 47.71,11.875 48.504,11.139 C49.298,10.403 50.17,10.035 51.122,10.035 C52.527,10.035 53.57,10.715 54.25,12.075 C54.93,13.434 55.27,15.497 55.27,18.263 C55.27,21.141 54.89,23.266 54.131,24.637 Z" id="Shape"></path>
                <path d="M66.218,23.838 C66.218,24.768 66.411,25.408 66.796,25.759 C67.181,26.111 67.85,26.286 68.802,26.286 L68.802,27 C66.717,26.909 65.345,26.864 64.688,26.864 C64.031,26.864 62.659,26.909 60.574,27 L60.574,26.286 C61.526,26.286 62.195,26.11 62.58,25.759 C62.965,25.408 63.158,24.768 63.158,23.838 L63.158,4.424 C63.158,3.381 62.965,2.622 62.58,2.147 C62.195,1.67 61.526,1.432 60.574,1.432 L60.574,0.718 C61.277,0.786 61.979,0.821 62.682,0.821 C64.11,0.821 65.288,0.662 66.218,0.344 L66.218,23.838 Z" id="Path_102_"></path>
                <path d="M84.272,22.648 C83.705,23.872 83.002,24.744 82.164,25.265 C81.325,25.786 80.362,26.047 79.274,26.047 C78.39,26.047 77.546,25.747 76.741,25.146 C75.936,24.546 75.29,23.69 74.803,22.58 C74.315,21.469 74.072,20.166 74.072,18.67 C74.072,17.854 74.106,17.129 74.174,16.494 L84.816,16.494 C84.816,13.978 84.266,12.102 83.167,10.867 C82.068,9.632 80.498,9.013 78.458,9.013 C76.916,9.013 75.568,9.404 74.412,10.187 C73.256,10.968 72.361,12.085 71.726,13.536 C71.091,14.987 70.774,16.698 70.774,18.67 C70.774,20.416 71.086,21.951 71.709,23.277 C72.332,24.603 73.233,25.634 74.412,26.371 C75.591,27.108 76.985,27.476 78.594,27.476 C80.181,27.476 81.535,27.028 82.657,26.132 C83.779,25.237 84.544,24.165 84.952,22.919 L84.272,22.648 Z M75.568,11.225 C76.339,10.182 77.257,9.661 78.322,9.661 C79.41,9.661 80.232,10.251 80.787,11.429 C81.342,12.608 81.597,14.081 81.552,15.849 L74.14,15.849 C74.321,13.809 74.797,12.267 75.568,11.225 Z" id="Shape"></path>
                <path d="M110.962,3.029 C111.914,3.416 112.843,3.959 113.75,4.662 C114,4.866 114.215,4.968 114.396,4.968 C114.849,4.968 115.144,4.288 115.28,2.928 L116.062,2.928 C115.971,4.402 115.926,7.008 115.926,10.748 L115.144,10.748 C114.894,9.274 114.668,8.215 114.464,7.568 C114.26,6.922 113.92,6.304 113.444,5.715 C112.764,4.831 111.897,4.168 110.843,3.726 C109.789,3.285 108.65,3.064 107.426,3.064 C105.953,3.064 104.667,3.55 103.567,4.525 C102.468,5.5 101.612,6.888 101,8.691 C100.388,10.493 100.082,12.606 100.082,15.032 C100.082,17.503 100.411,19.622 101.068,21.39 C101.726,23.158 102.638,24.5 103.805,25.418 C104.972,26.336 106.292,26.795 107.766,26.795 C108.899,26.795 109.998,26.579 111.064,26.149 C112.129,25.717 112.968,25.072 113.58,24.211 C114.033,23.576 114.362,22.897 114.566,22.171 C114.77,21.446 114.963,20.335 115.144,18.839 L115.926,18.839 C115.926,22.737 115.971,25.458 116.062,26.999 L115.28,26.999 C115.212,26.273 115.116,25.758 114.991,25.452 C114.866,25.145 114.69,24.993 114.464,24.993 C114.283,24.993 114.045,25.083 113.75,25.264 C112.73,25.99 111.755,26.539 110.826,26.913 C109.896,27.287 108.775,27.475 107.46,27.475 C105.307,27.475 103.42,26.987 101.799,26.012 C100.178,25.037 98.921,23.627 98.025,21.78 C97.13,19.932 96.682,17.728 96.682,15.167 C96.682,12.674 97.141,10.464 98.059,8.537 C98.977,6.61 100.258,5.114 101.901,4.049 C103.545,2.984 105.409,2.451 107.494,2.451 C108.854,2.452 110.01,2.645 110.962,3.029 Z" id="Path_105_"></path>
                <path d="M132.059,9.796 C132.637,10.317 132.926,10.952 132.926,11.7 C132.926,12.289 132.75,12.793 132.399,13.213 C132.048,13.633 131.578,13.842 130.989,13.842 C130.49,13.842 130.065,13.684 129.714,13.366 C129.363,13.048 129.187,12.618 129.187,12.074 C129.187,11.326 129.573,10.714 130.343,10.238 C130.185,10.011 129.947,9.898 129.629,9.898 C128.745,9.898 127.941,10.244 127.215,10.935 C126.489,11.626 125.923,12.47 125.515,13.467 C125.107,14.464 124.904,15.405 124.904,16.289 L124.904,23.497 C124.904,24.54 125.204,25.265 125.804,25.673 C126.406,26.081 127.306,26.285 128.507,26.285 L128.507,27 L127.691,26.966 C125.379,26.899 123.906,26.864 123.271,26.864 C122.682,26.864 121.345,26.909 119.259,27 L119.259,26.286 C120.211,26.286 120.88,26.11 121.265,25.759 C121.651,25.408 121.843,24.768 121.843,23.838 L121.843,13.195 C121.843,12.153 121.651,11.394 121.265,10.918 C120.88,10.441 120.211,10.204 119.259,10.204 L119.259,9.49 C119.985,9.558 120.687,9.592 121.367,9.592 C122.795,9.592 123.973,9.434 124.903,9.116 L124.903,13.366 C125.311,12.232 125.963,11.224 126.858,10.34 C127.753,9.456 128.745,9.014 129.833,9.014 C130.738,9.014 131.48,9.274 132.059,9.796 Z" id="Path_106_"></path>
                <path d="M149.824,23.328 C149.824,24.371 150.016,25.13 150.402,25.605 C150.787,26.082 151.456,26.32 152.408,26.32 L152.408,27.034 C151.705,26.966 151.002,26.931 150.3,26.931 C148.872,26.931 147.694,27.09 146.764,27.408 L146.764,23.396 C146.221,24.8 145.45,25.832 144.452,26.49 C143.455,27.147 142.367,27.476 141.187,27.476 C139.646,27.476 138.467,27.044 137.652,26.183 C137.244,25.73 136.955,25.152 136.785,24.45 C136.615,23.748 136.529,22.841 136.529,21.73 L136.529,13.195 C136.529,12.153 136.338,11.394 135.952,10.918 C135.566,10.442 134.898,10.204 133.945,10.204 L133.945,9.49 C134.648,9.558 135.351,9.592 136.054,9.592 C137.482,9.592 138.659,9.434 139.589,9.116 L139.589,22.478 C139.589,23.339 139.64,24.036 139.742,24.568 C139.845,25.101 140.082,25.538 140.456,25.878 C140.83,26.218 141.402,26.389 142.173,26.389 C143.034,26.389 143.817,26.117 144.519,25.573 C145.222,25.028 145.772,24.286 146.168,23.346 C146.564,22.405 146.763,21.367 146.763,20.235 L146.763,13.196 C146.763,12.154 146.571,11.395 146.185,10.919 C145.8,10.442 145.131,10.205 144.179,10.205 L144.179,9.491 C144.882,9.559 145.585,9.593 146.287,9.593 C147.715,9.593 148.893,9.435 149.823,9.117 L149.823,23.328 L149.824,23.328 Z" id="Path_107_"></path>
            </g>
        </g>
    </g>
</svg>