<?xml version="1.0" encoding="UTF-8" standalone="no"?>
<svg width="152px" height="27px" viewBox="0 0 152 27" version="1.1" xmlns="http://www.w3.org/2000/svg" xmlns:xlink="http://www.w3.org/1999/xlink">
    <!-- Generator: Sketch 49 (51002) - http://www.bohemiancoding.com/sketch -->
    <title>OPositivo</title>
    <desc>Created with Sketch.</desc>
    <defs></defs>
    <g id="Page-1" stroke="none" stroke-width="1" fill="none" fill-rule="evenodd">
        <g id="Artboard" transform="translate(-37.000000, -183.000000)" fill="#000000" fill-rule="nonzero">
            <g id="OPositivo" transform="translate(37.000000, 182.000000)">
                <path d="M21.049,8.147 C20.154,6.3 18.896,4.889 17.275,3.914 C15.654,2.939 13.768,2.452 11.614,2.452 C9.529,2.452 7.665,2.985 6.021,4.05 C4.377,5.115 3.097,6.612 2.179,8.538 C1.261,10.464 0.802,12.675 0.802,15.168 C0.802,17.73 1.25,19.934 2.145,21.781 C3.041,23.628 4.298,25.039 5.919,26.014 C7.54,26.989 9.427,27.476 11.58,27.476 C13.665,27.476 15.53,26.943 17.173,25.878 C18.817,24.813 20.097,23.316 21.015,21.39 C21.933,19.463 22.392,17.253 22.392,14.76 C22.392,12.199 21.944,9.994 21.049,8.147 Z M18.091,21.118 C17.49,22.931 16.64,24.342 15.541,25.351 C14.442,26.36 13.166,26.864 11.716,26.864 C10.311,26.864 9.042,26.377 7.908,25.402 C6.774,24.427 5.873,23.045 5.205,21.254 C4.536,19.463 4.202,17.389 4.202,15.032 C4.202,12.697 4.502,10.623 5.103,8.81 C5.704,6.997 6.554,5.586 7.653,4.577 C8.753,3.568 10.028,3.064 11.478,3.064 C12.883,3.064 14.153,3.551 15.286,4.526 C16.419,5.501 17.32,6.883 17.989,8.674 C18.658,10.465 18.992,12.539 18.992,14.896 C18.992,17.23 18.692,19.305 18.091,21.118 Z" id="Shape"></path>
                <path d="M49.456,4.781 C48.051,3.568 46.022,2.962 43.37,2.962 C42.826,2.962 42.339,2.973 41.908,2.996 L38.236,3.03 C36.423,3.03 35.04,2.996 34.088,2.927 L34.088,3.607 C34.904,3.652 35.499,3.743 35.873,3.879 C36.247,4.015 36.502,4.276 36.638,4.661 C36.774,5.046 36.842,5.67 36.842,6.531 L36.842,23.395 C36.842,24.256 36.774,24.88 36.638,25.265 C36.502,25.65 36.247,25.911 35.873,26.047 C35.499,26.183 34.904,26.274 34.088,26.319 L34.088,27 C35.04,26.932 36.491,26.898 38.44,26.898 C40.593,26.898 42.259,26.932 43.438,27 L43.438,26.32 C42.418,26.275 41.681,26.184 41.228,26.048 C40.774,25.912 40.457,25.652 40.276,25.266 C40.095,24.881 40.004,24.257 40.004,23.396 L40.004,17.276 L42.622,17.276 C44.821,17.276 46.583,16.891 47.909,16.12 C49.235,15.349 50.176,14.391 50.731,13.247 C51.286,12.103 51.564,10.907 51.564,9.66 C51.564,7.62 50.861,5.994 49.456,4.781 Z M46.889,14.811 C46.039,16.001 44.503,16.596 42.282,16.596 L40.004,16.596 L40.004,6.532 C40.004,5.716 40.072,5.104 40.208,4.696 C40.344,4.288 40.588,4.005 40.939,3.846 C41.291,3.687 41.817,3.608 42.52,3.608 C44.537,3.608 45.982,4.129 46.855,5.172 C47.728,6.215 48.164,7.836 48.164,10.034 C48.164,12.029 47.739,13.621 46.889,14.811 Z" id="Shape"></path>
                <path d="M67.085,11.309 C65.668,9.779 63.804,9.014 61.492,9.014 C59.18,9.014 57.315,9.779 55.899,11.309 C54.482,12.839 53.774,15.157 53.774,18.262 C53.774,21.367 54.482,23.679 55.899,25.199 C57.316,26.718 59.18,27.477 61.492,27.477 C63.804,27.477 65.668,26.718 67.085,25.199 C68.502,23.68 69.21,21.368 69.21,18.262 C69.21,15.157 68.501,12.839 67.085,11.309 Z M64.722,24.722 C63.929,26.104 62.852,26.796 61.492,26.796 C60.132,26.796 59.055,26.105 58.262,24.722 C57.469,23.339 57.072,21.186 57.072,18.262 C57.072,15.338 57.469,13.179 58.262,11.785 C59.055,10.391 60.132,9.694 61.492,9.694 C62.852,9.694 63.929,10.391 64.722,11.785 C65.515,13.179 65.912,15.338 65.912,18.262 C65.912,21.186 65.515,23.339 64.722,24.722 Z" id="Shape"></path>
                <path d="M80.056,9.388 C80.69,9.637 81.201,9.932 81.586,10.272 C81.836,10.453 82.04,10.544 82.198,10.544 C82.606,10.544 82.855,10.045 82.946,9.048 L83.728,9.048 C83.637,10.159 83.592,12.086 83.592,14.828 L82.81,14.828 C82.56,13.332 82.079,12.097 81.365,11.122 C80.651,10.147 79.591,9.66 78.186,9.66 C77.37,9.66 76.701,9.892 76.18,10.357 C75.659,10.822 75.398,11.462 75.398,12.278 C75.398,13.071 75.67,13.735 76.214,14.267 C76.758,14.799 77.631,15.44 78.832,16.188 C79.036,16.301 79.342,16.494 79.75,16.766 C80.792,17.446 81.631,18.047 82.266,18.568 C82.901,19.089 83.416,19.69 83.813,20.37 C84.209,21.05 84.408,21.832 84.408,22.716 C84.408,24.212 83.847,25.38 82.725,26.218 C81.603,27.057 80.226,27.476 78.594,27.476 C77.574,27.476 76.679,27.317 75.908,27 C75.409,26.75 74.945,26.445 74.514,26.082 C74.423,25.991 74.321,25.946 74.208,25.946 C74.049,25.946 73.908,26.06 73.783,26.286 C73.658,26.513 73.562,26.83 73.494,27.238 L72.712,27.238 C72.803,25.946 72.848,23.679 72.848,20.438 L73.63,20.438 C73.88,22.569 74.333,24.161 74.99,25.215 C75.647,26.269 76.769,26.796 78.356,26.796 C79.149,26.796 79.852,26.535 80.464,26.014 C81.076,25.493 81.382,24.677 81.382,23.566 C81.382,22.682 81.082,21.934 80.481,21.322 C79.88,20.71 78.9,19.973 77.54,19.112 C76.429,18.409 75.574,17.831 74.973,17.378 C74.372,16.925 73.868,16.369 73.46,15.712 C73.052,15.055 72.848,14.284 72.848,13.4 C72.848,11.972 73.324,10.884 74.276,10.136 C75.228,9.388 76.429,9.014 77.88,9.014 C78.696,9.014 79.421,9.139 80.056,9.388 Z" id="Path_114_"></path>
                <path d="M92.398,1.636 C92.829,2.067 93.044,2.577 93.044,3.166 C93.044,3.755 92.829,4.265 92.398,4.696 C91.967,5.127 91.458,5.342 90.868,5.342 C90.278,5.342 89.768,5.127 89.338,4.696 C88.908,4.265 88.692,3.756 88.692,3.166 C88.692,2.576 88.907,2.066 89.338,1.636 C89.769,1.206 90.279,0.99 90.868,0.99 C91.457,0.99 91.967,1.205 92.398,1.636 Z M92.636,23.838 C92.636,24.768 92.828,25.408 93.214,25.759 C93.599,26.111 94.268,26.286 95.22,26.286 L95.22,27 C93.135,26.909 91.763,26.864 91.106,26.864 C90.449,26.864 89.077,26.909 86.992,27 L86.992,26.286 C87.944,26.286 88.613,26.11 88.998,25.759 C89.383,25.408 89.576,24.768 89.576,23.838 L89.576,13.196 C89.576,12.154 89.383,11.394 88.998,10.918 C88.613,10.442 87.944,10.204 86.992,10.204 L86.992,9.49 C87.717,9.558 88.42,9.592 89.1,9.592 C90.528,9.592 91.706,9.434 92.636,9.116 L92.636,23.838 Z" id="Combined-Shape"></path>
                <path d="M102.428,9.524 L107.46,9.524 L107.46,10.204 L102.428,10.204 L102.428,23.362 C102.428,24.382 102.615,25.119 102.989,25.572 C103.363,26.025 103.902,26.252 104.604,26.252 C105.306,26.252 105.907,25.969 106.406,25.402 C106.905,24.836 107.324,23.906 107.664,22.614 L108.344,22.784 C107.778,25.912 106.304,27.476 103.924,27.476 C103.153,27.476 102.519,27.385 102.02,27.204 C101.521,27.022 101.079,26.739 100.694,26.354 C100.195,25.855 99.85,25.243 99.657,24.518 C99.464,23.792 99.368,22.818 99.368,21.594 L99.368,10.204 L96.104,10.204 L96.104,9.524 L99.368,9.524 L99.368,4.322 C100.637,4.277 101.657,4.118 102.428,3.846 L102.428,9.524 Z" id="Path_117_"></path>
                <path d="M114.396,1.636 C114.827,2.067 115.042,2.577 115.042,3.166 C115.042,3.755 114.827,4.265 114.396,4.696 C113.965,5.127 113.456,5.342 112.866,5.342 C112.276,5.342 111.766,5.127 111.336,4.696 C110.906,4.265 110.69,3.756 110.69,3.166 C110.69,2.576 110.905,2.066 111.336,1.636 C111.767,1.206 112.277,0.99 112.866,0.99 C113.455,0.99 113.965,1.205 114.396,1.636 Z M114.634,23.838 C114.634,24.768 114.827,25.408 115.212,25.759 C115.597,26.111 116.266,26.286 117.218,26.286 L117.218,27 C115.133,26.909 113.761,26.864 113.104,26.864 C112.447,26.864 111.075,26.909 108.99,27 L108.99,26.286 C109.942,26.286 110.611,26.11 110.996,25.759 C111.381,25.408 111.574,24.768 111.574,23.838 L111.574,13.196 C111.574,12.154 111.381,11.394 110.996,10.918 C110.611,10.442 109.942,10.204 108.99,10.204 L108.99,9.49 C109.715,9.558 110.418,9.592 111.098,9.592 C112.526,9.592 113.704,9.434 114.634,9.116 L114.634,23.838 Z" id="Combined-Shape"></path>
                <path d="M134.49,9.49 L134.49,10.17 C134.037,10.215 133.635,10.42 133.283,10.782 C132.931,11.144 132.597,11.734 132.279,12.55 L126.704,27.17 L126.126,27.17 L119.87,12.108 C119.529,11.337 119.201,10.827 118.884,10.578 C118.567,10.328 118.238,10.204 117.898,10.204 L117.898,9.49 C119.077,9.58 120.074,9.626 120.891,9.626 C122.635,9.626 124.11,9.581 125.311,9.49 L125.311,10.204 C124.471,10.204 123.86,10.266 123.475,10.391 C123.089,10.516 122.897,10.839 122.897,11.36 C122.897,11.677 123.021,12.176 123.27,12.856 L127.453,23.192 L131.192,13.366 C131.442,12.686 131.567,12.153 131.567,11.768 C131.567,11.247 131.368,10.867 130.971,10.629 C130.575,10.391 129.934,10.238 129.05,10.17 L129.05,9.49 C130.229,9.558 131.181,9.592 131.906,9.592 C132.903,9.592 133.765,9.558 134.49,9.49 Z" id="Path_120_"></path>
                <path d="M149.195,11.309 C147.778,9.779 145.914,9.014 143.601,9.014 C141.289,9.014 139.425,9.779 138.008,11.309 C136.591,12.839 135.883,15.157 135.883,18.262 C135.883,21.367 136.591,23.679 138.008,25.199 C139.425,26.718 141.289,27.477 143.601,27.477 C145.913,27.477 147.778,26.718 149.195,25.199 C150.611,23.68 151.32,21.368 151.32,18.262 C151.32,15.157 150.611,12.839 149.195,11.309 Z M146.832,24.722 C146.039,26.104 144.962,26.796 143.602,26.796 C142.243,26.796 141.166,26.105 140.373,24.722 C139.579,23.339 139.183,21.186 139.183,18.262 C139.183,15.338 139.579,13.179 140.373,11.785 C141.167,10.391 142.243,9.694 143.602,9.694 C144.962,9.694 146.04,10.391 146.832,11.785 C147.624,13.179 148.021,15.338 148.021,18.262 C148.021,21.186 147.625,23.339 146.832,24.722 Z" id="Shape"></path>
            </g>
        </g>
    </g>
</svg>