<?xml version="1.0" encoding="UTF-8" standalone="no"?>
<svg width="179px" height="28px" viewBox="0 0 179 28" version="1.1" xmlns="http://www.w3.org/2000/svg" xmlns:xlink="http://www.w3.org/1999/xlink">
    <!-- Generator: Sketch 49 (51002) - http://www.bohemiancoding.com/sketch -->
    <title>PetitVerdot</title>
    <desc>Created with Sketch.</desc>
    <defs></defs>
    <g id="Page-1" stroke="none" stroke-width="1" fill="none" fill-rule="evenodd">
        <g id="Artboard" transform="translate(-37.000000, -380.000000)" fill="#000000" fill-rule="nonzero">
            <g id="PetitVerdot" transform="translate(37.000000, 380.000000)">
                <path d="M15.796,4.781 C14.391,3.568 12.362,2.962 9.71,2.962 C9.166,2.962 8.679,2.973 8.248,2.996 L4.576,3.029 C2.763,3.029 1.38,2.996 0.428,2.927 L0.428,3.607 C1.244,3.653 1.839,3.744 2.213,3.879 C2.587,4.014 2.842,4.276 2.978,4.661 C3.114,5.046 3.182,5.67 3.182,6.531 L3.182,23.395 C3.182,24.256 3.114,24.879 2.978,25.264 C2.842,25.65 2.587,25.91 2.213,26.046 C1.839,26.182 1.244,26.273 0.428,26.318 L0.428,27 C1.38,26.932 2.83,26.898 4.78,26.898 C6.933,26.898 8.599,26.931 9.778,27 L9.778,26.32 C8.758,26.274 8.022,26.183 7.568,26.048 C7.115,25.912 6.797,25.652 6.616,25.266 C6.434,24.881 6.344,24.258 6.344,23.397 L6.344,17.276 L8.962,17.276 C11.161,17.276 12.923,16.891 14.249,16.121 C15.575,15.351 16.516,14.392 17.071,13.248 C17.627,12.103 17.904,10.907 17.904,9.661 C17.904,7.62 17.201,5.994 15.796,4.781 Z M13.229,14.811 C12.379,16.001 10.843,16.596 8.622,16.596 L6.344,16.596 L6.344,6.533 C6.344,5.717 6.412,5.104 6.548,4.696 C6.684,4.289 6.928,4.006 7.279,3.846 C7.631,3.688 8.157,3.608 8.86,3.608 C10.878,3.608 12.322,4.129 13.195,5.172 C14.068,6.215 14.504,7.836 14.504,10.034 C14.504,12.029 14.079,13.621 13.229,14.811 Z" id="Shape"></path>
                <path d="M33.578,22.648 C33.011,23.872 32.308,24.744 31.47,25.265 C30.631,25.786 29.668,26.047 28.58,26.047 C27.696,26.047 26.851,25.747 26.047,25.146 C25.242,24.546 24.596,23.69 24.109,22.58 C23.622,21.469 23.378,20.166 23.378,18.67 C23.378,17.854 23.412,17.129 23.48,16.494 L34.122,16.494 C34.122,13.978 33.572,12.102 32.473,10.867 C31.373,9.632 29.804,9.013 27.764,9.013 C26.222,9.013 24.874,9.404 23.718,10.187 C22.562,10.968 21.667,12.085 21.032,13.536 C20.397,14.986 20.08,16.698 20.08,18.67 C20.08,20.416 20.392,21.951 21.015,23.277 C21.638,24.603 22.539,25.634 23.718,26.371 C24.897,27.107 26.291,27.476 27.9,27.476 C29.487,27.476 30.841,27.028 31.963,26.132 C33.085,25.237 33.85,24.165 34.258,22.919 L33.578,22.648 Z M24.874,11.225 C25.645,10.182 26.562,9.661 27.628,9.661 C28.716,9.661 29.538,10.251 30.093,11.429 C30.649,12.608 30.904,14.081 30.858,15.849 L23.446,15.849 C23.627,13.809 24.104,12.267 24.874,11.225 Z" id="Shape"></path>
                <path d="M42.18,9.523 L47.212,9.523 L47.212,10.204 L42.18,10.204 L42.18,23.361 C42.18,24.382 42.367,25.119 42.741,25.572 C43.115,26.025 43.653,26.252 44.356,26.252 C45.059,26.252 45.659,25.969 46.158,25.402 C46.657,24.836 47.076,23.906 47.416,22.614 L48.096,22.784 C47.529,25.912 46.056,27.476 43.676,27.476 C42.905,27.476 42.271,27.384 41.772,27.204 C41.273,27.022 40.832,26.739 40.446,26.353 C39.947,25.855 39.602,25.243 39.409,24.517 C39.216,23.792 39.12,22.818 39.12,21.593 L39.12,10.203 L35.856,10.203 L35.856,9.522 L39.12,9.522 L39.12,4.321 C40.389,4.276 41.409,4.117 42.18,3.844 L42.18,9.523 Z" id="Path_127_"></path>
                <path d="M54.148,1.636 C54.579,2.067 54.794,2.576 54.794,3.166 C54.794,3.756 54.579,4.266 54.148,4.695 C53.717,5.127 53.208,5.341 52.618,5.341 C52.028,5.341 51.518,5.126 51.088,4.695 C50.657,4.265 50.442,3.756 50.442,3.166 C50.442,2.576 50.657,2.066 51.088,1.636 C51.519,1.206 52.029,0.99 52.618,0.99 C53.207,0.99 53.717,1.205 54.148,1.636 Z M54.386,23.838 C54.386,24.768 54.578,25.408 54.964,25.759 C55.349,26.111 56.018,26.286 56.97,26.286 L56.97,27 C54.885,26.909 53.513,26.864 52.856,26.864 C52.199,26.864 50.827,26.909 48.742,27 L48.742,26.286 C49.694,26.286 50.363,26.11 50.748,25.759 C51.133,25.408 51.326,24.768 51.326,23.838 L51.326,13.195 C51.326,12.153 51.133,11.394 50.748,10.918 C50.363,10.442 49.694,10.204 48.742,10.204 L48.742,9.49 C49.467,9.558 50.17,9.592 50.85,9.592 C52.278,9.592 53.456,9.434 54.386,9.116 L54.386,23.838 Z" id="Combined-Shape"></path>
                <path d="M64.178,9.523 L69.21,9.523 L69.21,10.204 L64.178,10.204 L64.178,23.361 C64.178,24.382 64.365,25.119 64.739,25.572 C65.113,26.025 65.652,26.252 66.354,26.252 C67.056,26.252 67.657,25.969 68.156,25.402 C68.655,24.836 69.074,23.906 69.414,22.614 L70.094,22.784 C69.528,25.912 68.054,27.476 65.674,27.476 C64.903,27.476 64.269,27.384 63.77,27.204 C63.271,27.022 62.829,26.739 62.444,26.353 C61.945,25.855 61.6,25.243 61.407,24.517 C61.214,23.792 61.118,22.818 61.118,21.593 L61.118,10.203 L57.854,10.203 L57.854,9.522 L61.118,9.522 L61.118,4.321 C62.387,4.276 63.407,4.117 64.178,3.844 L64.178,9.523 Z" id="Path_130_"></path>
                <path d="M98.144,2.928 L98.144,3.608 C97.011,3.88 96.115,4.867 95.458,6.567 L87.468,27.171 L86.924,27.171 L78.628,5.785 C78.084,4.38 77.302,3.654 76.282,3.608 L76.282,2.928 C77.188,2.996 78.401,3.03 79.92,3.03 C81.869,3.03 83.32,2.997 84.272,2.928 L84.272,3.608 C83.411,3.654 82.793,3.761 82.419,3.932 C82.045,4.102 81.858,4.412 81.858,4.867 C81.858,5.253 81.994,5.785 82.266,6.465 L88.42,22.819 L93.962,8.436 C94.416,7.212 94.642,6.284 94.642,5.649 C94.642,4.946 94.398,4.436 93.911,4.119 C93.424,3.802 92.681,3.632 91.684,3.608 L91.684,2.928 C92.976,2.996 94.279,3.03 95.594,3.03 C96.614,3.029 97.464,2.996 98.144,2.928 Z" id="Path_131_"></path>
                <path d="M110.928,22.648 C110.361,23.872 109.658,24.744 108.82,25.265 C107.982,25.786 107.018,26.047 105.93,26.047 C105.046,26.047 104.201,25.747 103.397,25.146 C102.592,24.546 101.946,23.69 101.459,22.58 C100.972,21.469 100.728,20.166 100.728,18.67 C100.728,17.854 100.762,17.129 100.83,16.494 L111.472,16.494 C111.472,13.978 110.922,12.102 109.823,10.867 C108.723,9.632 107.154,9.013 105.114,9.013 C103.573,9.013 102.224,9.404 101.068,10.187 C99.912,10.968 99.017,12.085 98.382,13.536 C97.748,14.986 97.43,16.698 97.43,18.67 C97.43,20.416 97.742,21.951 98.365,23.277 C98.988,24.603 99.889,25.634 101.068,26.371 C102.247,27.108 103.641,27.476 105.25,27.476 C106.837,27.476 108.191,27.028 109.313,26.132 C110.435,25.237 111.2,24.165 111.608,22.919 L110.928,22.648 Z M102.224,11.225 C102.995,10.182 103.912,9.661 104.978,9.661 C106.066,9.661 106.888,10.251 107.443,11.429 C107.999,12.608 108.254,14.081 108.208,15.849 L100.796,15.849 C100.978,13.809 101.453,12.267 102.224,11.225 Z" id="Shape"></path>
                <path d="M126.857,9.796 C127.435,10.317 127.724,10.952 127.724,11.7 C127.724,12.289 127.548,12.793 127.197,13.213 C126.846,13.633 126.375,13.842 125.786,13.842 C125.287,13.842 124.862,13.684 124.512,13.366 C124.16,13.049 123.985,12.618 123.985,12.074 C123.985,11.326 124.37,10.714 125.141,10.238 C124.982,10.011 124.744,9.898 124.426,9.898 C123.542,9.898 122.738,10.244 122.012,10.935 C121.287,11.626 120.721,12.47 120.313,13.467 C119.905,14.464 119.701,15.405 119.701,16.289 L119.701,23.497 C119.701,24.54 120.001,25.265 120.602,25.673 C121.202,26.081 122.103,26.285 123.305,26.285 L123.305,27 L122.489,26.966 C120.177,26.899 118.703,26.864 118.069,26.864 C117.48,26.864 116.142,26.909 114.057,27 L114.057,26.286 C115.009,26.286 115.678,26.11 116.063,25.759 C116.448,25.408 116.641,24.768 116.641,23.838 L116.641,13.195 C116.641,12.153 116.448,11.394 116.063,10.918 C115.678,10.442 115.009,10.204 114.057,10.204 L114.057,9.49 C114.782,9.558 115.485,9.592 116.165,9.592 C117.593,9.592 118.771,9.434 119.701,9.116 L119.701,13.366 C120.108,12.232 120.761,11.224 121.655,10.34 C122.551,9.456 123.543,9.014 124.631,9.014 C125.537,9.014 126.279,9.274 126.857,9.796 Z" id="Path_134_"></path>
                <path d="M144.555,25.572 C144.168,25.095 143.977,24.337 143.977,23.294 L143.977,0.344 C143.047,0.661 141.869,0.821 140.44,0.821 C139.76,0.821 139.057,0.787 138.333,0.718 L138.333,1.432 C139.285,1.432 139.954,1.67 140.339,2.147 C140.724,2.623 140.917,3.381 140.917,4.424 L140.917,11.02 C140.486,10.34 139.914,9.836 139.2,9.507 C138.485,9.178 137.698,9.014 136.837,9.014 C135.432,9.014 134.146,9.366 132.978,10.069 C131.811,10.771 130.882,11.819 130.191,13.214 C129.5,14.609 129.154,16.291 129.154,18.263 C129.131,21.279 129.738,23.568 130.972,25.131 C132.208,26.694 133.913,27.478 136.089,27.478 C137.268,27.478 138.265,27.21 139.081,26.678 C139.897,26.146 140.509,25.369 140.917,24.349 L140.917,27.375 C141.847,27.058 143.024,26.899 144.453,26.899 C145.155,26.899 145.858,26.932 146.561,27.001 L146.561,26.287 C145.607,26.286 144.939,26.048 144.555,25.572 Z M140.916,22.546 C140.645,23.793 140.156,24.756 139.454,25.436 C138.752,26.117 137.958,26.457 137.074,26.457 C135.554,26.457 134.399,25.771 133.605,24.399 C132.812,23.028 132.427,20.983 132.45,18.262 C132.428,15.496 132.846,13.395 133.708,11.955 C134.57,10.515 135.703,9.796 137.107,9.796 C139.035,9.796 140.304,10.668 140.916,12.414 L140.916,22.546 Z" id="Shape"></path>
                <path d="M162.184,11.309 C160.766,9.78 158.903,9.014 156.59,9.014 C154.277,9.014 152.414,9.78 150.997,11.309 C149.58,12.839 148.872,15.157 148.872,18.262 C148.872,21.367 149.58,23.68 150.997,25.199 C152.414,26.718 154.277,27.477 156.59,27.477 C158.903,27.477 160.766,26.717 162.184,25.199 C163.6,23.68 164.309,21.368 164.309,18.262 C164.309,15.156 163.6,12.839 162.184,11.309 Z M159.82,24.723 C159.027,26.105 157.95,26.796 156.59,26.796 C155.231,26.796 154.153,26.105 153.36,24.723 C152.567,23.34 152.171,21.186 152.171,18.262 C152.171,15.338 152.567,13.18 153.36,11.785 C154.154,10.39 155.231,9.693 156.59,9.693 C157.95,9.693 159.028,10.39 159.82,11.785 C160.612,13.18 161.009,15.338 161.009,18.262 C161.009,21.186 160.613,23.34 159.82,24.723 Z" id="Shape"></path>
                <path d="M172.366,9.523 L177.398,9.523 L177.398,10.204 L172.366,10.204 L172.366,23.361 C172.366,24.382 172.553,25.119 172.927,25.572 C173.301,26.025 173.84,26.252 174.542,26.252 C175.244,26.252 175.846,25.969 176.344,25.402 C176.843,24.836 177.262,23.906 177.602,22.614 L178.283,22.784 C177.716,25.912 176.243,27.476 173.862,27.476 C173.092,27.476 172.458,27.384 171.959,27.204 C171.46,27.022 171.019,26.739 170.633,26.353 C170.134,25.855 169.788,25.243 169.597,24.517 C169.404,23.792 169.308,22.818 169.308,21.593 L169.308,10.203 L166.043,10.203 L166.043,9.522 L169.308,9.522 L169.308,4.321 C170.577,4.276 171.597,4.117 172.368,3.844 L172.368,9.523 L172.366,9.523 Z" id="Path_139_"></path>
            </g>
        </g>
    </g>
</svg>