<?xml version="1.0" encoding="UTF-8" standalone="no"?>
<svg width="80px" height="35px" viewBox="0 0 80 35" version="1.1" xmlns="http://www.w3.org/2000/svg" xmlns:xlink="http://www.w3.org/1999/xlink">
    <!-- Generator: Sketch 49 (51002) - http://www.bohemiancoding.com/sketch -->
    <title>syrah</title>
    <desc>Created with Sketch.</desc>
    <defs></defs>
    <g id="Page-1" stroke="none" stroke-width="1" fill="none" fill-rule="evenodd">
        <g id="Artboard" transform="translate(-359.000000, -390.000000)" fill="#000000">
            <g id="syrah" transform="translate(359.000000, 390.000000)">
                <path d="M0.952,16.874 C0.952,16.67 1.224,16.5 1.428,16.5 C1.7,16.5 1.87,16.67 1.87,16.874 C1.87,17.044 1.802,17.146 1.802,17.52 C1.802,20.138 5.44,24.32 8.398,24.32 C11.424,24.32 14.11,22.552 14.11,20.036 C14.11,17.384 9.962,15.276 7.65,13.984 C4.658,12.318 1.02,10.72 1.02,7.286 C1.02,3.682 4.556,1.846 8.126,1.846 C9.962,1.846 12.172,2.492 12.988,2.492 C13.6,2.492 14.144,2.118 14.484,2.118 C14.688,2.118 14.824,2.288 14.824,2.492 C14.824,2.662 14.314,3.308 14.314,4.736 C14.314,5.892 14.348,6.402 14.348,7.354 C14.348,7.558 14.144,7.728 13.838,7.728 C13.6,7.728 13.464,7.558 13.464,7.354 C13.464,7.184 13.498,7.082 13.498,6.708 C13.498,4.26 10.846,2.798 8.194,2.798 C5.95,2.798 3.706,3.988 3.706,5.892 C3.706,8.374 7.276,9.904 9.316,10.992 C12.852,12.862 16.728,14.8 16.728,18.574 C16.728,22.824 12.92,25.272 8.942,25.272 C5.1,25.272 4.114,23.368 2.89,23.368 C2.244,23.368 1.7,23.742 1.394,23.742 C1.19,23.742 1.02,23.572 1.02,23.368 C1.02,23.198 1.122,21.6 1.122,20.172 C1.122,19.016 0.952,17.826 0.952,16.874 Z" id="Path"></path>
                <path d="M16.49,33.058 C16.49,32.446 16.966,31.902 17.51,31.902 C18.598,31.902 18.224,33.228 19.482,33.228 C20.468,33.228 21.182,31.698 22.1,29.862 C22.916,28.23 23.63,26.666 24.412,25 L19.482,12.488 C18.972,11.23 18.734,10.924 17.612,10.924 L17.272,10.924 C17.136,10.924 17.034,10.822 17.034,10.686 C17.034,10.55 17.136,10.448 17.272,10.448 C18.326,10.482 19.516,10.516 20.706,10.516 C22.032,10.516 23.358,10.516 24.582,10.448 C24.718,10.448 24.82,10.55 24.82,10.686 C24.82,10.822 24.718,10.924 24.582,10.924 L24.276,10.924 C22.304,10.924 22.202,11.23 22.678,12.488 L26.01,21.192 L29.716,12.182 C29.988,11.332 29.784,10.924 28.084,10.924 L27.744,10.924 C27.608,10.924 27.506,10.822 27.506,10.686 C27.506,10.55 27.608,10.448 27.778,10.448 C28.832,10.516 29.376,10.516 29.92,10.516 C30.464,10.516 31.042,10.482 32.198,10.448 C32.334,10.448 32.436,10.55 32.436,10.686 C32.436,10.822 32.334,10.924 32.198,10.924 L31.892,10.924 C31.212,10.924 30.872,11.468 30.43,12.488 L25.024,25.476 L23.63,28.366 C22.134,31.46 20.876,34.928 18.462,34.928 C17.204,34.928 16.49,33.908 16.49,33.058 Z" id="Path"></path>
                <path d="M33.014,24.83 C33.014,24.694 33.116,24.592 33.252,24.592 C33.388,24.592 33.558,24.626 33.728,24.626 C34.884,24.626 35.19,23.98 35.19,23.028 L35.19,13.746 C35.19,12.216 34.68,11.366 33.456,11.366 C33.32,11.366 33.218,11.264 33.218,11.128 C33.218,10.992 33.32,10.89 33.456,10.89 C35.36,10.89 37.332,10.244 37.774,10.244 C37.91,10.244 38.012,10.38 38.012,10.516 C38.012,10.754 37.91,11.06 37.91,11.468 L37.91,13.032 C38.352,11.876 39.678,10.244 41.786,10.244 C44.166,10.244 44.982,11.332 44.982,12.318 C44.982,13.202 44.438,13.814 43.52,13.814 C41.344,13.814 42.976,11.026 41.412,11.026 C40.324,11.026 39.168,12.148 38.624,13.406 C37.978,14.834 38.114,16.806 38.114,17.588 L38.114,23.028 C38.114,23.98 38.42,24.626 39.576,24.626 C39.746,24.626 39.916,24.592 40.052,24.592 C40.188,24.592 40.29,24.694 40.29,24.83 C40.29,24.966 40.188,25.068 40.052,25.068 C38.896,25.068 37.774,25 36.652,25 C35.53,25 34.374,25.068 33.252,25.068 C33.116,25.068 33.014,24.966 33.014,24.83 Z" id="Path"></path>
                <path d="M46.852,21.532 C46.852,18.132 55.182,17.554 55.454,17.554 L55.454,15.072 C55.454,12.964 55.216,10.992 53.074,10.992 C51.034,10.992 50.49,11.842 50.49,12.522 C50.49,13.304 50.966,13.746 50.966,14.324 C50.966,14.902 50.49,15.48 49.606,15.48 C48.586,15.48 47.906,14.8 47.906,13.576 C47.906,11.74 50.592,10.244 53.04,10.244 C57.596,10.244 58.378,12.624 58.378,15.072 L58.378,21.906 C58.378,23.028 58.514,23.878 59.67,23.878 C60.248,23.878 60.35,23.64 60.486,23.64 C60.622,23.64 60.724,23.742 60.724,23.878 C60.724,24.218 58.786,25.272 57.188,25.272 C55.556,25.272 55.454,24.184 55.454,23.028 C55.216,23.368 53.414,25.272 51,25.272 C48.178,25.272 46.852,23.64 46.852,21.532 Z M49.81,21.192 C49.81,22.96 51,23.742 51.986,23.742 C53.788,23.742 55.25,22.518 55.454,22.246 L55.454,18.302 C55.182,18.302 49.81,18.608 49.81,21.192 Z" id="Combined-Shape"></path>
                <path d="M62.254,24.83 C62.254,24.694 62.356,24.592 62.492,24.592 C62.628,24.592 62.798,24.626 62.968,24.626 C64.124,24.626 64.43,23.98 64.43,23.028 L64.43,4.056 C64.43,2.526 63.92,1.676 62.696,1.676 C62.56,1.676 62.458,1.574 62.458,1.438 C62.458,1.302 62.56,1.2 62.696,1.2 C64.6,1.2 66.776,0.554 67.218,0.554 C67.354,0.554 67.456,0.656 67.456,0.792 C67.456,1.03 67.354,1.098 67.354,1.404 L67.354,13.134 C68.34,11.604 70.244,10.244 72.454,10.244 C77.01,10.244 77.112,12.76 77.112,15.072 L77.112,23.028 C77.112,23.98 77.418,24.626 78.574,24.626 C78.744,24.626 78.914,24.592 79.05,24.592 C79.186,24.592 79.288,24.694 79.288,24.83 C79.288,24.966 79.186,25.068 79.05,25.068 C77.894,25.068 76.772,25 75.65,25 C74.528,25 73.372,25.068 72.25,25.068 C72.114,25.068 72.012,24.966 72.012,24.83 C72.012,24.694 72.114,24.592 72.25,24.592 C72.386,24.592 72.556,24.626 72.726,24.626 C73.882,24.626 74.188,23.98 74.188,23.028 L74.188,15.072 C74.188,13.1 74.12,10.992 71.944,10.992 C69.802,10.992 67.354,13.372 67.354,15.412 L67.354,23.028 C67.354,23.98 67.66,24.626 68.816,24.626 C68.986,24.626 69.156,24.592 69.292,24.592 C69.428,24.592 69.53,24.694 69.53,24.83 C69.53,24.966 69.428,25.068 69.292,25.068 C68.136,25.068 67.014,25 65.892,25 C64.77,25 63.614,25.068 62.492,25.068 C62.356,25.068 62.254,24.966 62.254,24.83 Z" id="Path"></path>
            </g>
        </g>
    </g>
</svg>