<?xml version="1.0" encoding="UTF-8" standalone="no"?>
<svg width="86px" height="34px" viewBox="0 0 86 34" version="1.1" xmlns="http://www.w3.org/2000/svg" xmlns:xlink="http://www.w3.org/1999/xlink">
    <!-- Generator: Sketch 49 (51002) - http://www.bohemiancoding.com/sketch -->
    <title>Syrah</title>
    <desc>Created with Sketch.</desc>
    <defs></defs>
    <g id="Page-1" stroke="none" stroke-width="1" fill="none" fill-rule="evenodd">
        <g id="Artboard" transform="translate(-37.000000, -224.000000)" fill="#000000" fill-rule="nonzero">
            <g id="Syrah" transform="translate(37.000000, 224.000000)">
                <path d="M9.067,2.877 C9.645,3.092 10.24,3.404 10.852,3.812 C11.351,4.129 11.736,4.288 12.008,4.288 C12.212,4.288 12.371,4.169 12.484,3.931 C12.597,3.693 12.688,3.313 12.756,2.792 L13.538,2.792 C13.425,4.106 13.368,6.418 13.368,9.728 L12.586,9.728 C12.45,7.892 11.923,6.345 11.005,5.087 C10.087,3.829 8.755,3.2 7.01,3.2 C5.786,3.2 4.789,3.568 4.018,4.305 C3.247,5.041 2.862,5.988 2.862,7.144 C2.862,8.005 3.061,8.753 3.457,9.388 C3.853,10.022 4.358,10.566 4.97,11.02 C5.582,11.473 6.454,12.051 7.588,12.754 L8.574,13.366 C10.002,14.25 11.13,15.026 11.957,15.695 C12.784,16.364 13.447,17.129 13.946,17.99 C14.445,18.851 14.694,19.86 14.694,21.016 C14.694,23.078 14.014,24.671 12.654,25.793 C11.294,26.915 9.571,27.476 7.486,27.476 C6.398,27.476 5.508,27.363 4.817,27.136 C4.126,26.909 3.463,26.604 2.828,26.218 C2.329,25.901 1.944,25.742 1.672,25.742 C1.468,25.742 1.31,25.861 1.196,26.099 C1.083,26.337 0.992,26.717 0.924,27.238 L0.142,27.238 C0.232,25.991 0.278,23.271 0.278,19.078 L1.06,19.078 C1.219,21.367 1.785,23.226 2.76,24.654 C3.735,26.082 5.231,26.796 7.248,26.796 C8.472,26.796 9.515,26.417 10.376,25.657 C11.237,24.897 11.668,23.77 11.668,22.274 C11.668,21.005 11.243,19.928 10.393,19.044 C9.543,18.16 8.2,17.163 6.364,16.052 C5.027,15.236 3.945,14.511 3.117,13.876 C2.289,13.241 1.615,12.477 1.094,11.581 C0.573,10.685 0.312,9.637 0.312,8.436 C0.312,6.532 0.924,5.076 2.148,4.067 C3.372,3.059 4.891,2.554 6.704,2.554 C7.701,2.554 8.489,2.662 9.067,2.877 Z" id="Path_140_"></path>
                <path d="M33.156,9.49 L33.156,10.17 C32.703,10.215 32.301,10.42 31.949,10.782 C31.597,11.144 31.263,11.734 30.946,12.55 L25.37,27.17 L24.214,30.128 C23.783,31.239 23.296,32.032 22.752,32.508 C22.412,32.825 22.004,33.052 21.528,33.188 C21.052,33.325 20.576,33.393 20.1,33.393 C19.42,33.393 18.865,33.211 18.434,32.848 C18.003,32.486 17.788,31.987 17.788,31.352 C17.788,30.808 17.947,30.372 18.264,30.043 C18.581,29.714 19.023,29.55 19.59,29.55 C20.089,29.55 20.503,29.692 20.831,29.975 C21.16,30.258 21.324,30.649 21.324,31.148 C21.324,31.828 21.018,32.338 20.406,32.678 C20.451,32.701 20.52,32.712 20.61,32.712 C21.857,32.712 22.82,31.828 23.5,30.06 L24.69,26.966 L18.536,12.108 C18.151,11.337 17.765,10.827 17.38,10.578 C16.995,10.328 16.609,10.204 16.224,10.204 L16.224,9.49 C17.199,9.626 18.309,9.694 19.556,9.694 C20.689,9.694 22.162,9.626 23.976,9.49 L23.976,10.204 C23.16,10.204 22.565,10.272 22.191,10.408 C21.817,10.544 21.63,10.872 21.63,11.394 C21.63,11.87 21.766,12.425 22.038,13.06 L26.118,23.192 L29.892,13.366 C30.141,12.686 30.266,12.164 30.266,11.802 C30.266,11.281 30.062,10.896 29.654,10.646 C29.246,10.396 28.6,10.238 27.716,10.17 L27.716,9.49 C28.918,9.558 29.869,9.592 30.572,9.592 C31.569,9.592 32.431,9.558 33.156,9.49 Z" id="Path_141_"></path>
                <path d="M47.283,9.796 C47.861,10.317 48.15,10.952 48.15,11.7 C48.15,12.289 47.974,12.794 47.623,13.213 C47.271,13.632 46.801,13.842 46.212,13.842 C45.713,13.842 45.288,13.684 44.937,13.366 C44.585,13.049 44.41,12.618 44.41,12.074 C44.41,11.326 44.795,10.714 45.566,10.238 C45.407,10.011 45.17,9.898 44.852,9.898 C43.968,9.898 43.163,10.244 42.438,10.935 C41.713,11.626 41.146,12.471 40.738,13.468 C40.33,14.466 40.126,15.406 40.126,16.29 L40.126,23.498 C40.126,24.54 40.426,25.266 41.027,25.674 C41.628,26.082 42.529,26.286 43.73,26.286 L43.73,27 L42.914,26.966 C40.602,26.898 39.129,26.864 38.494,26.864 C37.905,26.864 36.567,26.909 34.482,27 L34.482,26.286 C35.434,26.286 36.103,26.11 36.488,25.759 C36.874,25.408 37.066,24.768 37.066,23.838 L37.066,13.196 C37.066,12.154 36.874,11.394 36.488,10.918 C36.103,10.442 35.434,10.204 34.482,10.204 L34.482,9.49 C35.208,9.558 35.91,9.592 36.59,9.592 C38.018,9.592 39.197,9.434 40.126,9.116 L40.126,13.366 C40.534,12.232 41.186,11.224 42.081,10.34 C42.977,9.456 43.968,9.014 45.056,9.014 C45.963,9.014 46.705,9.274 47.283,9.796 Z" id="Path_142_"></path>
                <path d="M65.15,25.402 C64.878,25.629 64.623,25.804 64.385,25.929 C64.147,26.054 63.892,26.116 63.62,26.116 C63.235,26.116 62.963,25.991 62.804,25.742 C62.645,25.492 62.566,25.084 62.566,24.518 L62.566,15.066 C62.566,13.865 62.47,12.896 62.277,12.159 C62.085,11.422 61.705,10.793 61.138,10.272 C60.231,9.434 58.894,9.014 57.126,9.014 C56.129,9.014 55.21,9.139 54.372,9.388 C53.533,9.637 52.842,9.954 52.298,10.34 C51.777,10.703 51.386,11.066 51.125,11.428 C50.864,11.791 50.734,12.244 50.734,12.788 C50.734,13.354 50.893,13.836 51.21,14.233 C51.527,14.63 52.003,14.828 52.638,14.828 C53.204,14.828 53.669,14.663 54.032,14.335 C54.394,14.006 54.576,13.559 54.576,12.992 C54.576,12.448 54.423,11.994 54.117,11.632 C53.811,11.27 53.431,11.031 52.978,10.918 C53.635,10.102 54.757,9.694 56.344,9.694 C57.342,9.694 58.118,9.938 58.673,10.425 C59.229,10.912 59.506,11.814 59.506,13.128 L59.506,15.236 C59.506,15.848 59.2,16.336 58.588,16.698 C57.976,17.06 57.035,17.457 55.766,17.888 C54.519,18.319 53.516,18.726 52.757,19.112 C51.998,19.498 51.34,20.019 50.785,20.676 C50.229,21.334 49.952,22.172 49.952,23.192 C49.952,24.462 50.298,25.453 50.989,26.167 C51.68,26.881 52.74,27.238 54.168,27.238 C55.279,27.238 56.276,27.017 57.16,26.575 C58.044,26.133 58.826,25.345 59.506,24.212 C59.506,25.142 59.721,25.878 60.152,26.422 C60.583,26.966 61.342,27.238 62.43,27.238 C63.064,27.238 63.592,27.141 64.011,26.949 C64.43,26.756 64.934,26.433 65.524,25.98 L65.15,25.402 Z M59.506,23.294 C58.441,25.017 57.16,25.878 55.664,25.878 C54.848,25.878 54.19,25.617 53.692,25.096 C53.193,24.575 52.944,23.804 52.944,22.784 C52.944,21.9 53.137,21.175 53.522,20.608 C53.907,20.042 54.366,19.594 54.899,19.265 C55.432,18.936 56.129,18.591 56.99,18.228 C57.738,17.888 58.293,17.616 58.656,17.412 C59.018,17.208 59.302,16.947 59.506,16.63 L59.506,23.294 Z" id="Shape"></path>
                <path d="M71.882,13.094 C72.449,11.666 73.236,10.629 74.245,9.983 C75.254,9.337 76.392,9.014 77.662,9.014 C79.248,9.014 80.45,9.445 81.266,10.306 C81.697,10.759 82.002,11.326 82.184,12.006 C82.365,12.686 82.456,13.604 82.456,14.76 L82.456,23.838 C82.456,24.768 82.648,25.408 83.034,25.759 C83.419,26.111 84.088,26.286 85.04,26.286 L85.04,27 C82.955,26.909 81.595,26.864 80.96,26.864 C80.325,26.864 79.056,26.909 77.152,27 L77.152,26.286 C77.991,26.286 78.574,26.11 78.903,25.759 C79.232,25.408 79.396,24.768 79.396,23.838 L79.396,14.012 C79.396,12.743 79.215,11.774 78.852,11.105 C78.489,10.436 77.752,10.102 76.642,10.102 C75.713,10.102 74.891,10.363 74.177,10.884 C73.463,11.405 72.902,12.136 72.494,13.077 C72.086,14.017 71.882,15.077 71.882,16.256 L71.882,23.838 C71.882,24.768 72.047,25.408 72.375,25.759 C72.704,26.111 73.287,26.286 74.126,26.286 L74.126,27 C72.222,26.909 70.953,26.864 70.318,26.864 C69.683,26.864 68.323,26.909 66.238,27 L66.238,26.286 C67.19,26.286 67.859,26.11 68.244,25.759 C68.629,25.408 68.822,24.768 68.822,23.838 L68.822,4.458 C68.822,3.416 68.63,2.656 68.244,2.18 C67.858,1.704 67.19,1.466 66.238,1.466 L66.238,0.752 C66.964,0.82 67.666,0.854 68.346,0.854 C69.774,0.854 70.952,0.695 71.882,0.378 L71.882,13.094 Z" id="Path_145_"></path>
            </g>
        </g>
    </g>
</svg>