<?xml version="1.0" encoding="UTF-8" standalone="no"?>
<svg width="232px" height="25px" viewBox="0 0 232 25" version="1.1" xmlns="http://www.w3.org/2000/svg" xmlns:xlink="http://www.w3.org/1999/xlink">
    <!-- Generator: Sketch 49 (51002) - http://www.bohemiancoding.com/sketch -->
    <title>vina-rosa</title>
    <desc>Created with Sketch.</desc>
    <defs></defs>
    <g id="Page-1" stroke="none" stroke-width="1" fill="none" fill-rule="evenodd">
        <g id="Artboard" transform="translate(-360.000000, -182.000000)" fill="#000000">
            <g id="vina-rosa" transform="translate(359.000000, 182.000000)">
                <path fill-opacity="0" stroke="#ffffff" stroke-width="0.2" d="M0.952,23.762 C0.952,23.592 1.088,23.456 1.258,23.456 C1.428,23.456 1.734,23.524 1.972,23.524 C3.468,23.524 4.182,22.3 4.182,21.348 L4.182,3.396 C4.182,2.546 3.298,1.594 2.006,1.594 C1.768,1.594 1.462,1.662 1.292,1.662 C1.122,1.662 0.986,1.526 0.986,1.356 C0.986,1.152 1.122,1.05 1.53,1.05 C1.768,1.05 3.774,1.118 5.848,1.118 C8.262,1.118 9.996,1.05 10.268,1.05 C10.642,1.05 10.778,1.152 10.778,1.356 C10.778,1.526 10.642,1.662 10.472,1.662 C10.302,1.662 9.996,1.594 9.758,1.594 C8.262,1.594 7.514,2.818 7.514,3.77 L7.514,20.634 C7.514,22.742 8.194,23.048 10.37,23.048 L12.92,23.048 C14.008,23.048 15.096,22.946 16.048,22.368 C17.748,21.314 18.36,19.206 18.36,18.118 C18.36,17.88 18.53,17.744 18.734,17.744 C18.938,17.744 19.108,17.914 19.108,18.118 C19.108,18.866 18.87,20.872 18.87,22.98 L18.87,23.728 C18.87,23.932 18.7,24.102 18.496,24.102 C18.258,24.102 17.816,24 16.898,24 L7.514,24 C5.44,24 1.734,24.068 1.496,24.068 C1.088,24.068 0.952,23.966 0.952,23.762 Z" id="Path"></path>
                <path fill-opacity="0" stroke="#ffffff" stroke-width="0.2" d="M21.216,20.532 C21.216,17.132 29.546,16.554 29.818,16.554 L29.818,14.072 C29.818,11.964 29.58,9.992 27.438,9.992 C25.398,9.992 24.854,10.842 24.854,11.522 C24.854,12.304 25.33,12.746 25.33,13.324 C25.33,13.902 24.854,14.48 23.97,14.48 C22.95,14.48 22.27,13.8 22.27,12.576 C22.27,10.74 24.956,9.244 27.404,9.244 C31.96,9.244 32.742,11.624 32.742,14.072 L32.742,20.906 C32.742,22.028 32.878,22.878 34.034,22.878 C34.612,22.878 34.714,22.64 34.85,22.64 C34.986,22.64 35.088,22.742 35.088,22.878 C35.088,23.218 33.15,24.272 31.552,24.272 C29.92,24.272 29.818,23.184 29.818,22.028 C29.58,22.368 27.778,24.272 25.364,24.272 C22.542,24.272 21.216,22.64 21.216,20.532 Z M24.174,20.192 C24.174,21.96 25.364,22.742 26.35,22.742 C28.152,22.742 29.614,21.518 29.818,21.246 L29.818,17.302 C29.546,17.302 24.174,17.608 24.174,20.192 Z" id="Combined-Shape"></path>
                <path fill-opacity="0" stroke="#ffffff" stroke-width="0.2" d="M45.22,1.356 C45.22,1.152 45.356,1.05 45.764,1.05 C46.002,1.05 48.008,1.118 50.082,1.118 C52.496,1.118 54.23,1.05 54.502,1.05 C54.876,1.05 55.012,1.152 55.012,1.356 C55.012,1.526 54.876,1.662 54.706,1.662 C54.536,1.662 54.23,1.594 53.992,1.594 C52.496,1.594 51.51,2.07 52.224,3.77 L58.99,19.784 L65.11,3.77 C65.756,2.07 64.566,1.594 63.07,1.594 C62.764,1.594 62.526,1.662 62.356,1.662 C62.186,1.662 62.05,1.526 62.05,1.356 C62.05,1.152 62.186,1.05 62.594,1.05 C62.832,1.05 64.158,1.118 65.824,1.118 C67.456,1.118 68.884,1.05 69.156,1.05 C69.53,1.05 69.666,1.152 69.666,1.356 C69.666,1.526 69.53,1.662 69.36,1.662 C69.19,1.662 68.884,1.594 68.646,1.594 C67.388,1.594 66.81,2.138 66.334,3.328 L58.276,24 C58.208,24.204 57.868,24.272 57.698,24.272 C57.528,24.272 57.222,24.204 57.154,24 L48.382,3.158 C47.94,2.036 46.988,1.594 46.24,1.594 C45.934,1.594 45.696,1.662 45.526,1.662 C45.356,1.662 45.22,1.526 45.22,1.356 Z" id="Path"></path>
                <path fill-opacity="0" stroke="#ffffff" stroke-width="0.2" d="M73.508,4.586 C72.488,4.586 71.638,3.736 71.638,2.716 C71.638,1.696 72.488,0.846 73.508,0.846 C74.528,0.846 75.378,1.696 75.378,2.716 C75.378,3.736 74.528,4.586 73.508,4.586 Z M70.21,23.83 C70.21,23.694 70.312,23.592 70.448,23.592 C70.584,23.592 70.754,23.626 70.924,23.626 C72.08,23.626 72.386,22.98 72.386,22.028 L72.386,12.678 C72.386,11.148 71.876,10.298 70.652,10.298 C70.516,10.298 70.414,10.196 70.414,10.06 C70.414,9.924 70.516,9.822 70.652,9.822 C72.556,9.822 74.732,9.176 75.174,9.176 C75.31,9.176 75.412,9.278 75.412,9.414 C75.412,9.652 75.31,9.72 75.31,10.026 L75.31,22.028 C75.31,22.98 75.616,23.626 76.772,23.626 C76.942,23.626 77.112,23.592 77.248,23.592 C77.384,23.592 77.486,23.694 77.486,23.83 C77.486,23.966 77.384,24.068 77.248,24.068 C76.092,24.068 74.97,24 73.848,24 C72.726,24 71.57,24.068 70.448,24.068 C70.312,24.068 70.21,23.966 70.21,23.83 Z" id="Combined-Shape"></path>
                <path fill-opacity="0" stroke="#ffffff" stroke-width="0.2" d="M92.99,2.512 C92.99,4.178 91.97,6.014 90.202,6.014 C88.468,6.014 86.836,5.028 85.238,5.028 C84.49,5.028 83.164,5.266 83.164,6.32 C83.164,6.558 82.926,6.558 82.926,6.32 C82.926,4.756 84.252,2.92 85.782,2.92 C87.414,2.92 89.08,3.804 90.542,3.804 C91.63,3.804 92.718,3.668 92.718,2.512 C92.718,2.308 92.99,2.308 92.99,2.512 Z M79.22,23.83 C79.22,23.694 79.322,23.592 79.458,23.592 C79.594,23.592 79.764,23.626 79.934,23.626 C81.09,23.626 81.396,22.98 81.396,22.028 L81.396,12.746 C81.396,11.216 80.886,10.366 79.662,10.366 C79.526,10.366 79.424,10.264 79.424,10.128 C79.424,9.992 79.526,9.89 79.662,9.89 C81.566,9.89 83.742,9.244 84.184,9.244 C84.32,9.244 84.422,9.346 84.422,9.482 C84.422,9.72 84.32,9.788 84.32,10.094 L84.32,12.134 C85.306,10.604 87.21,9.244 89.42,9.244 C93.976,9.244 94.078,11.76 94.078,14.072 L94.078,22.028 C94.078,22.98 94.384,23.626 95.54,23.626 C95.71,23.626 95.88,23.592 96.016,23.592 C96.152,23.592 96.254,23.694 96.254,23.83 C96.254,23.966 96.152,24.068 96.016,24.068 C94.86,24.068 93.738,24 92.616,24 C91.494,24 90.338,24.068 89.216,24.068 C89.08,24.068 88.978,23.966 88.978,23.83 C88.978,23.694 89.08,23.592 89.216,23.592 C89.352,23.592 89.522,23.626 89.692,23.626 C90.848,23.626 91.154,22.98 91.154,22.028 L91.154,14.072 C91.154,12.1 91.086,9.992 88.91,9.992 C86.768,9.992 84.32,12.372 84.32,14.412 L84.32,22.028 C84.32,22.98 84.626,23.626 85.782,23.626 C85.952,23.626 86.122,23.592 86.258,23.592 C86.394,23.592 86.496,23.694 86.496,23.83 C86.496,23.966 86.394,24.068 86.258,24.068 C85.102,24.068 83.98,24 82.858,24 C81.736,24 80.58,24.068 79.458,24.068 C79.322,24.068 79.22,23.966 79.22,23.83 Z" id="Combined-Shape"></path>
                <path fill-opacity="0" stroke="#ffffff" stroke-width="0.2" d="M98.192,20.532 C98.192,17.132 106.522,16.554 106.794,16.554 L106.794,14.072 C106.794,11.964 106.556,9.992 104.414,9.992 C102.374,9.992 101.83,10.842 101.83,11.522 C101.83,12.304 102.306,12.746 102.306,13.324 C102.306,13.902 101.83,14.48 100.946,14.48 C99.926,14.48 99.246,13.8 99.246,12.576 C99.246,10.74 101.932,9.244 104.38,9.244 C108.936,9.244 109.718,11.624 109.718,14.072 L109.718,20.906 C109.718,22.028 109.854,22.878 111.01,22.878 C111.588,22.878 111.69,22.64 111.826,22.64 C111.962,22.64 112.064,22.742 112.064,22.878 C112.064,23.218 110.126,24.272 108.528,24.272 C106.896,24.272 106.794,23.184 106.794,22.028 C106.556,22.368 104.754,24.272 102.34,24.272 C99.518,24.272 98.192,22.64 98.192,20.532 Z M101.15,20.192 C101.15,21.96 102.34,22.742 103.326,22.742 C105.128,22.742 106.59,21.518 106.794,21.246 L106.794,17.302 C106.522,17.302 101.15,17.608 101.15,20.192 Z" id="Combined-Shape"></path>
                <path fill-opacity="0" stroke="#ffffff" stroke-width="0.2" d="M122.196,16.758 C122.196,12.542 125.052,9.244 129.438,9.244 C132.94,9.244 135.524,12.202 135.524,15.568 C135.524,15.704 135.422,15.84 135.286,15.84 L125.154,15.84 C125.154,16.01 125.12,16.316 125.12,16.758 C125.12,20.158 127.126,22.912 130.016,22.912 C133.62,22.912 134.062,21.382 134.64,21.382 C134.844,21.382 135.014,21.552 135.014,21.756 C135.014,22.164 133.144,24.238 129.506,24.272 C125.29,24.306 122.196,21.144 122.196,16.758 Z M125.188,15.296 L131.376,15.092 C131.784,15.092 131.852,14.82 131.852,14.174 C131.852,12.372 131.342,9.992 129.166,9.992 C126.65,9.992 125.188,12.916 125.188,15.296 Z" id="Combined-Shape"></path>
                <path fill-opacity="0" stroke="#ffffff" stroke-width="0.2" d="M137.394,23.83 C137.394,23.694 137.496,23.592 137.632,23.592 C137.768,23.592 137.938,23.626 138.108,23.626 C139.264,23.626 139.57,22.98 139.57,22.028 L139.57,12.746 C139.57,11.216 139.06,10.366 137.836,10.366 C137.7,10.366 137.598,10.264 137.598,10.128 C137.598,9.992 137.7,9.89 137.836,9.89 C139.74,9.89 141.916,9.244 142.358,9.244 C142.494,9.244 142.596,9.346 142.596,9.482 C142.596,9.72 142.494,9.788 142.494,10.094 L142.494,12.134 C143.48,10.604 145.384,9.244 147.594,9.244 C152.15,9.244 152.252,11.76 152.252,14.072 L152.252,22.028 C152.252,22.98 152.558,23.626 153.714,23.626 C153.884,23.626 154.054,23.592 154.19,23.592 C154.326,23.592 154.428,23.694 154.428,23.83 C154.428,23.966 154.326,24.068 154.19,24.068 C153.034,24.068 151.912,24 150.79,24 C149.668,24 148.512,24.068 147.39,24.068 C147.254,24.068 147.152,23.966 147.152,23.83 C147.152,23.694 147.254,23.592 147.39,23.592 C147.526,23.592 147.696,23.626 147.866,23.626 C149.022,23.626 149.328,22.98 149.328,22.028 L149.328,14.072 C149.328,12.1 149.26,9.992 147.084,9.992 C144.942,9.992 142.494,12.372 142.494,14.412 L142.494,22.028 C142.494,22.98 142.8,23.626 143.956,23.626 C144.126,23.626 144.296,23.592 144.432,23.592 C144.568,23.592 144.67,23.694 144.67,23.83 C144.67,23.966 144.568,24.068 144.432,24.068 C143.276,24.068 142.154,24 141.032,24 C139.91,24 138.754,24.068 137.632,24.068 C137.496,24.068 137.394,23.966 137.394,23.83 Z" id="Path"></path>
                <path fill-opacity="0" stroke="#ffffff" stroke-width="0.2" d="M165.172,23.762 C165.172,23.592 165.308,23.456 165.478,23.456 C165.648,23.456 165.954,23.524 166.192,23.524 C167.688,23.524 168.402,22.3 168.402,21.348 L168.402,3.77 C168.402,2.818 167.688,1.594 166.192,1.594 C165.954,1.594 165.648,1.662 165.478,1.662 C165.308,1.662 165.172,1.526 165.172,1.356 C165.172,1.152 165.308,1.05 165.716,1.05 C165.92,1.05 168.742,1.118 170.85,1.118 C172.38,1.084 173.842,1.016 175.338,1.016 C178.976,1.016 183.124,3.226 183.124,7.646 C183.124,11.556 180.302,13.528 177.106,14.072 L183.226,20.43 C184.008,21.212 186.32,23.592 187.306,23.592 C187.442,23.592 187.544,23.694 187.544,23.83 C187.544,23.966 187.442,24.068 187.306,24.068 C186.592,24.068 185.742,24 185.028,24 C184.518,24 183.736,24.068 183.226,24.068 C182.342,24.068 181.662,23.558 180.812,22.674 L173.536,14.956 C173.06,14.378 172.754,14.208 171.734,14.208 L171.734,21.348 C171.734,22.3 172.448,23.524 173.944,23.524 C174.182,23.524 174.488,23.456 174.658,23.456 C174.828,23.456 174.964,23.592 174.964,23.762 C174.964,23.966 174.828,24.068 174.454,24.068 C174.182,24.068 172.448,24 170.034,24 C167.96,24 165.954,24.068 165.716,24.068 C165.308,24.068 165.172,23.966 165.172,23.762 Z M171.734,13.256 C172.414,13.29 173.196,13.324 173.978,13.324 C177.548,13.324 179.316,11.488 179.316,7.748 C179.316,4.382 177.718,2.002 174.352,2.002 C173.944,2.002 172.312,2.002 171.972,2.206 C171.768,2.342 171.734,2.58 171.734,3.056 L171.734,13.256 Z" id="Combined-Shape"></path>
                <path fill-opacity="0" stroke="#ffffff" stroke-width="0.2" d="M195.568,24.272 C191.318,24.272 188.088,20.94 188.088,16.758 C188.088,12.576 191.318,9.244 195.568,9.244 C199.818,9.244 203.014,12.576 203.048,16.758 C203.014,20.94 199.818,24.272 195.568,24.272 Z M195.568,9.992 C192.95,9.992 191.012,12.984 191.012,16.758 C191.012,20.532 192.95,23.524 195.568,23.524 C198.22,23.524 200.124,20.566 200.124,16.758 C200.124,12.95 198.22,9.992 195.568,9.992 Z" id="Combined-Shape"></path>
                <path fill-opacity="0" stroke="#ffffff" stroke-width="0.2" d="M205.632,19.342 C205.632,19.206 205.802,19.104 205.938,19.104 C206.108,19.104 206.21,19.206 206.21,19.342 C206.21,19.444 206.176,19.512 206.176,19.75 C206.176,21.416 208.284,23.524 210.494,23.524 C212.772,23.524 214.166,22.402 214.166,20.668 C214.166,19.104 212.126,18.288 210.664,17.54 C208.76,16.554 205.666,15.432 205.666,12.95 C205.666,10.638 207.876,9.244 210.834,9.244 C211.99,9.244 213.384,9.516 213.894,9.516 C214.404,9.516 214.642,9.244 214.846,9.244 C215.016,9.244 215.118,9.346 215.118,9.482 C215.118,9.754 214.744,10.128 214.744,10.91 C214.744,11.386 214.812,12.032 214.812,12.406 C214.812,12.712 214.676,12.848 214.472,12.848 C214.268,12.848 214.166,12.678 214.166,12.542 C214.166,12.406 214.234,12.27 214.234,12.1 C214.234,10.57 212.194,9.992 210.834,9.992 C209.236,9.992 207.468,10.808 207.468,12.134 C207.468,13.732 210.46,14.616 211.752,15.228 C214.098,16.35 216.376,16.894 216.376,19.92 C216.376,22.98 213.418,24.272 210.494,24.272 C208.08,24.272 207.638,23.49 206.856,23.49 C206.448,23.49 206.108,23.728 205.904,23.728 C205.768,23.728 205.666,23.626 205.666,23.49 C205.666,23.388 205.734,22.368 205.734,21.45 C205.734,20.702 205.632,19.954 205.632,19.342 Z" id="Path"></path>
                <path fill-opacity="0" stroke="#ffffff" stroke-width="0.2" d="M219.062,20.532 C219.062,17.132 227.392,16.554 227.664,16.554 L227.664,14.072 C227.664,11.964 227.426,9.992 225.284,9.992 C223.244,9.992 222.7,10.842 222.7,11.522 C222.7,12.304 223.176,12.746 223.176,13.324 C223.176,13.902 222.7,14.48 221.816,14.48 C220.796,14.48 220.116,13.8 220.116,12.576 C220.116,10.74 222.802,9.244 225.25,9.244 C229.806,9.244 230.588,11.624 230.588,14.072 L230.588,20.906 C230.588,22.028 230.724,22.878 231.88,22.878 C232.458,22.878 232.56,22.64 232.696,22.64 C232.832,22.64 232.934,22.742 232.934,22.878 C232.934,23.218 230.996,24.272 229.398,24.272 C227.766,24.272 227.664,23.184 227.664,22.028 C227.426,22.368 225.624,24.272 223.21,24.272 C220.388,24.272 219.062,22.64 219.062,20.532 Z M222.02,20.192 C222.02,21.96 223.21,22.742 224.196,22.742 C225.998,22.742 227.46,21.518 227.664,21.246 L227.664,17.302 C227.392,17.302 222.02,17.608 222.02,20.192 Z" id="Combined-Shape"></path>
            </g>
        </g>
    </g>
</svg>