<svg xmlns="http://www.w3.org/2000/svg" x="0px" y="0px"
     width="100" height="100"
     viewBox="0 0 16 16"
     style="fill:#232734;"><g id="surface1"><path style=" " d="M 1 0.992188 L 1 1.992188 L 3 1.992188 C 3.214844 1.992188 3.398438 2.132813 3.46875 2.335938 L 4.402344 10.667969 C 4.488281 11.421875 5.136719 12 5.894531 12 L 12 12 L 12 11 L 5.894531 11 C 5.636719 11 5.425781 10.8125 5.398438 10.558594 L 5.335938 10 L 11.679688 10 C 12.390625 10 13.011719 9.492188 13.152344 8.796875 L 14.109375 4 L 4.660156 4 L 4.445313 2.09375 L 4.429688 2.046875 C 4.238281 1.421875 3.65625 0.996094 3 0.992188 Z M 11 12 C 10.449219 12 10 12.449219 10 13 C 10 13.550781 10.449219 14 11 14 C 11.550781 14 12 13.550781 12 13 C 12 12.449219 11.550781 12 11 12 Z M 6 12 C 5.449219 12 5 12.449219 5 13 C 5 13.550781 5.449219 14 6 14 C 6.550781 14 7 13.550781 7 13 C 7 12.449219 6.550781 12 6 12 Z M 4.773438 5 L 12.890625 5 L 12.171875 8.597656 C 12.121094 8.835938 11.921875 9 11.679688 9 L 5.222656 9 Z "></path></g></svg>