<?xml version="1.0" encoding="utf-8"?>
<!-- Generator: Adobe Illustrator 15.0.2, SVG Export Plug-In . SVG Version: 6.00 Build 0)  -->
<!DOCTYPE svg PUBLIC "-//W3C//DTD SVG 1.1//EN" "http://www.w3.org/Graphics/SVG/1.1/DTD/svg11.dtd">
<svg version="1.1" xmlns="http://www.w3.org/2000/svg" xmlns:xlink="http://www.w3.org/1999/xlink" x="0px" y="0px" width="1807px"
	 height="1700px" viewBox="0 0 1807 1700" enable-background="new 0 0 1807 1700" xml:space="preserve">
<g id="Layer_1" display="none">
	<g id="Page-1" display="inline">
		<g id="Artboard" transform="translate(-920.000000, -980.000000)">
			<g id="Group-4" transform="translate(830.000000, 880.000000)">
				<g id="noun_x5F_454383_x5F_cc-_x28_2_x29_" transform="translate(93.000000, 103.000000)">
					<g id="Layer_4">
						<path id="Shape" fill="#5D2649" stroke="#5D2649" stroke-width="6.3" d="M416.593,73.103c0.422-0.138,0.574-0.191,1.256,0.022
							c2.301,0.505,5.29,1.876,6.823,4.354c1.562,2.489,1.64,6.061-1.329,11.02c-0.109,0.184-0.671,0.898-1.012,1.092
							c-0.504,0.236-11.108,3.593-25.511,10.895c-15.31,7.763-31.395,18.341-47.21,31.313
							c-15.846,12.94-31.443,28.192-46.573,44.592c-7.575,8.195-15.043,16.671-22.447,25.265l-5.599,6.534
							c-1.978,2.233-4.015,4.443-5.985,6.548c-3.984,4.25-8.046,8.384-12.129,12.428c-16.349,16.167-33.014,30.944-47.547,45.82
							c-14.573,14.821-26.997,29.8-35.791,44.748c-4.518,7.54-8.441,14.949-11.875,22.018c-1.729,3.524-3.312,6.98-4.814,10.311
							l-3.021,6.909c-3.476,8.195-5.443,13.319-5.452,13.312l-6.639,13.986c-3.827,8.062-8.628,18.313-12.99,26.651
							c-14.15,28.53-13.48,15.289-8.892-3.802c-0.507,0.902,2.574-10.404,5.948-21.983c3.342-11.573,7.229-23.378,7.24-23.378
							l1.454-3.613l1.747-4.247l2.795-6.561c5.465-12.527,12.517-27.416,22.37-43.101c10.046-15.925,23.427-31.4,38.394-46.376
							c14.928-15.017,31.351-29.592,46.852-45.089c3.874-3.874,7.682-7.809,11.389-11.824c1.837-1.999,3.604-3.915,5.371-6.029
							l5.509-6.412c7.376-8.544,14.881-17.019,22.533-25.264c15.3-16.493,31.265-32.057,47.725-45.444
							c16.431-13.413,33.385-24.57,49.721-32.859C404.438,77.048,416.04,73.359,416.593,73.103z"/>
						<path id="Shape_1_" fill="#5D2649" stroke="#5D2649" stroke-width="6.3" d="M147.191,372.2
							c0.359-0.307,0.491-0.419,1.229-0.502c2.437-0.467,5.84-0.273,8.097,1.584c2.316,1.851,3.374,5.237,2.644,10.716
							c-0.03,0.198-0.238,1.046-0.459,1.333c-0.357,0.313-8.353,6.975-17.314,20.279c-6.299,9.202-12.744,20.774-19.035,33.489
							c-3.158,6.355-6.289,12.986-9.462,19.74l-4.812,10.199c-1.69,3.468-3.143,6.712-5.204,10.48
							c-7.298,13.04-13.935,25.693-19.456,37.462c-5.521,11.728-9.826,22.426-12.84,30.979c-3.214,9.112-4.749,14.866-4.772,14.861
							c0.02,0.005-2.278,6.006-4.863,14.31c-2.631,8.294-5.339,18.952-7.23,27.953c-1.432,7.646-2.29,12.72-3.166,15.664
							c-0.849,2.948-1.707,3.765-2.581,2.966c-1.738-1.588-3.533-9.772-3.841-19.908c-0.265,1.05-0.371-11.07,1.205-23.387
							c1.437-12.324,4.415-24.665,4.419-24.656c0.018,0.009,1.474-5.23,4.421-13.592c3.039-8.647,7.453-19.69,13.113-31.794
							c5.638-12.107,12.523-25.276,19.881-38.468c0.411-0.748,0.883-1.536,1.243-2.254l1.154-2.339l2.423-5.018l4.811-10.186
							c3.203-6.827,6.421-13.66,9.706-20.291c6.55-13.273,13.433-25.741,20.465-36.033
							C136.739,381.143,146.684,372.585,147.191,372.2z"/>
						<path id="Shape_2_" fill="#5D2649" stroke="#5D2649" stroke-width="6.3" d="M120.828,356.503
							c0.245-0.353,0.331-0.485,0.997-0.721c4.263-1.93,12.519-2.875,13.735,8.834c0.023,0.213,0,1.14-0.156,1.509
							c-0.291,0.502-6.7,9.92-15.025,24.16c-16.657,28.363-33.819,64.888-45.964,104.76c-6.189,19.946-10.952,40.465-14.809,61.269
							c-3.954,20.705-7.216,41.204-9.691,60.737c-2.478,19.53-4.156,38.096-5.091,54.926c-0.468,8.413-0.755,16.393-0.891,23.843
							l-0.091,10.767l0.052,7.196c0.127,8.923,0.421,14.367,0.407,14.367l-0.291,15.365c-0.107,8.839,0.028,19.992,0.187,29.271
							c0.727,15.67,0.282,20.714-1.815,19.473c-2.004-1.24-5.251-8.89-7.811-18.575c-0.028,1.061-2.766-10.574-4.625-22.64
							c-1.942-12.051-3.12-24.465-3.112-24.463l-0.139-3.898l-0.124-4.591l-0.109-7.018c-0.3-25.56,1.483-60.952,6.667-100.036
							c2.556-19.545,5.882-40.021,9.881-60.698c3.864-20.664,8.913-41.842,15.238-62.038c12.503-40.562,30.03-77.807,47.052-106.805
							C113.896,366.786,120.528,357.027,120.828,356.503z"/>
						<path id="Shape_3_" fill="#5D2649" stroke="#5D2649" stroke-width="6.3" d="M64.72,523.984
							c0.208-0.393,0.292-0.53,0.935-0.845c2.031-1.2,5.154-2.238,7.966-1.47c2.84,0.761,5.325,3.325,6.545,8.964
							c0.044,0.207,0.12,1.111,0.009,1.484c-0.217,0.511-5.64,10.182-11.192,25.388c-10.458,28.209-17.013,65.162-18.256,103.901
							c-1.398,38.76,2.094,79.197,8.162,115.228c3.018,18.027,6.64,34.975,10.449,50.192c1.9,7.608,3.851,14.787,5.777,21.457
							l2.865,9.622l2.041,6.504c2.731,8.504,4.571,13.649,4.564,13.653l4.13,14.843c2.423,8.522,5.676,19.228,8.354,28.137
							c4.936,14.932,5.765,19.927,3.43,19.271c-2.263-0.676-7.371-7.202-12.456-15.795c0.254,1.025-5.499-9.398-10.692-20.414
							c-5.242-10.988-9.955-22.503-9.946-22.503l-1.257-3.685l-1.447-4.352l-2.117-6.582c-7.173-22.674-15.588-54.628-21.454-91.034
							c-5.919-36.369-9.308-77.202-7.766-116.741c1.406-39.504,8.131-77.697,19.231-107.692
							C58.534,535.197,64.479,524.542,64.72,523.984z"/>
						<path id="Shape_4_" fill="#5D2649" stroke="#5D2649" stroke-width="6.3" d="M79.707,492.478
							c0.205-0.401,0.279-0.545,0.919-0.883c1.999-1.284,5.135-2.404,7.948-1.691c2.854,0.704,5.367,3.249,6.752,8.797
							c0.055,0.205,0.164,1.097,0.061,1.465c-0.178,0.514-5.327,10.167-9.824,25.593c-4.33,14.682-7.29,31.682-8.757,49.958
							c-1.477,18.283-1.482,37.829-0.34,57.735c1.14,19.913,3.421,40.188,6.397,60.082l2.354,14.842
							c0.44,2.494,0.851,5.124,1.19,7.624l1.081,7.354c1.456,9.758,2.986,19.33,4.588,28.629
							c3.199,18.594,6.73,36.082,10.443,51.776c1.849,7.846,3.749,15.245,5.633,22.118l2.817,9.905l2.008,6.648
							c2.642,8.519,4.46,13.646,4.452,13.649c0.008,0,1.652,6.314,4.086,14.794c2.423,8.491,5.769,19.108,8.638,27.927
							c5.288,14.741,6.422,19.672,4.04,19.123c-2.282-0.585-7.689-6.917-12.98-15.447c0.287,1.029-5.751-9.313-11.014-20.354
							c-5.335-11.006-9.976-22.595-9.972-22.595l-1.234-3.705l-1.415-4.374l-2.071-6.652c-7.196-23.388-15.017-56.358-21.216-93.48
							c-1.571-9.279-3.068-18.809-4.499-28.504l-1.049-7.212l-1.191-7.208l-2.315-14.888c-2.934-19.98-5.17-40.434-6.271-60.666
							c-1.106-20.23-1.059-40.243,0.505-59.22c1.555-18.971,4.673-36.903,9.337-52.757
							C73.697,504.031,79.499,493.045,79.707,492.478z"/>
						<path id="Shape_5_" fill="#5D2649" stroke="#5D2649" stroke-width="6.3" d="M45.989,820.694c-0.005-0.456,0-0.626,0.415-1.227
							c1.209-2.097,3.511-4.53,6.373-5.124c2.89-0.628,6.212,0.604,9.958,4.837c0.138,0.156,0.632,0.884,0.714,1.252
							c0.057,0.519-0.142,11.201,3.557,26.78c4.259,18.772,13.391,41.117,23.626,64.509c2.537,5.863,5.113,11.821,7.614,17.879
							c1.276,3.134,2.375,5.846,3.685,8.846l3.765,8.974l14.115,34.691c4.523,11.033,8.941,21.352,13.195,30.535
							c2.126,4.593,4.2,8.909,6.206,12.893l2.944,5.727l2.303,4.307c4.222,7.755,7.103,12.275,7.083,12.291
							c0.023-0.016,2.893,5.75,7.252,13.262c4.331,7.529,10.342,16.685,15.832,24.007c4.769,6.093,8.077,10.004,9.767,12.562
							c1.721,2.524,1.807,3.718,0.634,3.877c-2.325,0.335-9.837-3.56-17.698-10.089c0.607,0.908-8.622-7.106-16.652-16.625
							c-8.15-9.41-15.195-19.943-15.195-19.93l-2.014-3.409l-2.305-4.035l-3.136-5.72c-7.424-13.691-16.305-33.243-25.202-55.169
							l-13.856-34.016l-7.332-17.522l-7.41-17.334c-10.07-23.034-19.549-46.094-24.222-66.533
							C45.908,834.062,46.026,821.296,45.989,820.694z"/>
						<path id="Shape_6_" fill="#5D2649" stroke="#5D2649" stroke-width="6.3" d="M56.365,902.293
							c-0.063-0.444-0.09-0.609,0.236-1.25c0.916-2.211,2.807-4.93,5.543-5.959c2.748-1.061,6.252-0.408,10.572,3.324
							c0.16,0.138,0.769,0.8,0.899,1.167c0.104,0.521,1.585,11.339,6.55,26.799c7.123,22.492,19.422,49.188,34.558,75.59
							c7.561,13.211,15.807,26.378,24.452,38.932c2.145,3.113,4.39,6.297,6.514,9.228c2.19,2.9,4.474,5.781,6.807,8.662
							c4.659,5.705,9.45,11.164,14.274,16.348c9.651,10.371,19.418,19.644,28.594,27.68c4.599,4.004,9.034,7.72,13.25,11.101
							l6.14,4.835l4.478,3.412c7.107,5.336,11.608,8.392,11.603,8.402c0,0,5.045,4.113,12.029,9.525
							c6.967,5.432,15.953,12.051,23.448,17.542c12.932,8.913,16.636,12.374,14.375,13.276c-2.198,0.816-10.238-1.246-19.485-5.074
							c0.83,0.657-10.091-4.173-20.837-9.992c-10.803-5.711-21.392-12.367-21.395-12.359l-3.191-2.275l-3.729-2.709l-5.335-3.993
							c-14.901-11.335-34.92-28.07-54.634-49.619c-4.926-5.38-9.832-11.054-14.624-17.007c-2.371-2.964-4.846-6.045-7.14-9.289
							c-2.241-3.119-4.457-6.286-6.644-9.486c-8.743-12.798-17.05-26.138-24.7-39.562c-15.296-26.828-27.884-54.063-35.442-77.881
							C58.212,915.169,56.473,902.906,56.365,902.293z"/>
						<path id="Shape_7_" fill="#5D2649" stroke="#5D2649" stroke-width="6.3" d="M116.097,1004.82
							c-0.164-0.437-0.222-0.595-0.042-1.31c0.389-2.402,1.696-5.501,4.175-7.043c2.499-1.596,6.042-1.57,11.018,1.053
							c0.181,0.095,0.903,0.596,1.101,0.904c0.245,0.444,3.706,10.503,13.032,23.236c10.363,14.368,26.641,29.709,45.527,43.308
							c4.712,3.417,9.571,6.748,14.521,9.98l7.482,4.772c2.377,1.45,5.402,3.349,7.82,4.997
							c10.126,6.762,19.786,13.601,28.971,19.975c9.182,6.388,17.876,12.325,25.842,17.487c3.981,2.585,7.777,4.979,11.347,7.17
							l5.175,3.117l4.039,2.356c7.678,4.416,12.49,6.803,12.481,6.82c0.012-0.023,5.473,3.42,13.09,7.58
							c7.601,4.204,17.463,8.877,25.962,12.082c7.241,2.557,12.141,3.905,14.976,5.028c2.846,1.092,3.62,1.993,2.754,2.811
							c-1.689,1.638-10.23,2.774-20.467,1.437c1.018,0.451-11.209-1.395-23.031-5.408c-11.877-3.826-23.331-9.178-23.334-9.157
							l-3.483-1.859l-4.064-2.236l-5.599-3.2c-12.581-7.269-29.304-18.293-47.397-30.963c-9.068-6.303-18.518-12.973-28.185-19.375
							c-1.221-0.797-2.277-1.532-3.511-2.269l-3.808-2.362l-7.646-4.906c-5.068-3.331-10.075-6.778-14.953-10.339
							c-19.538-14.165-36.956-30.455-48.608-46.569C120.686,1017.551,116.359,1005.349,116.097,1004.82z"/>
						<path id="Shape_8_" fill="#5D2649" stroke="#5D2649" stroke-width="6.3" d="M171.115,1083.116
							c-0.312-0.3-0.426-0.412-0.551-1.102c-1.18-4.565-0.622-12.83,11.087-11.988c0.213,0.015,1.125,0.183,1.461,0.409
							c0.438,0.366,8.543,8.297,21.259,18.682c14.19,11.617,32.451,24.647,52.631,36.191c20.146,11.6,42.151,21.675,62.655,29.193
							c10.253,3.769,20.104,6.969,29.12,9.58c4.504,1.322,8.8,2.485,12.825,3.527l5.832,1.473l4.546,1.095
							c8.673,2.04,14.037,3.054,14.033,3.067l14.869,4.016l28.503,7.205c15.388,3.475,20.046,5.507,18.259,7.12
							c-1.771,1.558-9.971,2.458-19.93,2.402c1.01,0.289-10.859-0.117-22.975-1.258c-12.12-1.074-24.46-2.904-24.456-2.908
							l-3.825-0.808l-4.49-0.992l-6.239-1.451c-13.961-3.339-33.224-8.653-54.137-16.495c-20.927-7.775-43.429-18.175-64.094-30.13
							c-20.708-11.89-39.5-25.321-54.162-37.316C180.065,1091.805,171.582,1083.511,171.115,1083.116z"/>
						<path id="Shape_9_" fill="#5D2649" stroke="#5D2649" stroke-width="6.3" d="M253.657,1159.915
							c-0.364-0.239-0.5-0.323-0.757-0.986c-2.087-4.265-3.071-12.462,8.549-13.914c0.213-0.027,1.134-0.031,1.501,0.116
							c0.507,0.251,9.911,6.505,24.445,13.711c9.172,4.564,21.662,9.817,34.089,13.652c12.409,3.902,24.695,6.441,32.79,7.79
							c9.536,1.599,15.541,2.197,15.535,2.216c0,0,6.36,1.232,15.089,2.668l29.065,4.543c15.68,2.128,20.466,3.896,18.799,5.614
							c-1.656,1.683-9.731,3.189-19.617,4.021c1.023,0.198-10.781,0.853-22.964,0.874c-12.172,0.091-24.722-0.711-24.722-0.735
							c0-0.019-5.344-0.588-14.092-2.055c-8.16-1.352-21.24-3.996-34.655-8.184c-13.442-4.102-27.084-9.814-37.022-14.755
							C264.154,1166.807,254.205,1160.183,253.657,1159.915z"/>
						<path id="Shape_10_" fill="#5D2649" stroke="#5D2649" stroke-width="6.3" d="M294.144,1182.43
							c-0.363-0.269-0.5-0.363-0.73-1.051c-0.932-2.2-1.535-5.444-0.36-8.121c1.166-2.704,4.085-4.754,9.785-5.211
							c0.208-0.012,1.111,0.017,1.46,0.176c0.479,0.232,9.091,7.012,23.553,13.343c4.26,1.885,10.045,4.082,15.773,5.814
							c5.721,1.758,11.355,3.1,15.074,3.885c9.369,1.965,15.358,2.715,15.35,2.743c0,0,6.301,1.408,15.015,3.12
							c8.702,1.732,19.837,3.769,29.021,5.909c15.631,3.25,20.126,5.782,18.292,7.247c-1.836,1.483-9.937,2.114-19.755,2.308
							c0.996,0.257-10.689,0.129-22.792-0.243c-12.087-0.324-24.646-1.462-24.647-1.501c0.002-0.023-5.335-0.729-14.1-2.57
							c-3.826-0.799-9.955-2.236-16.338-4.177c-6.385-1.916-12.989-4.395-17.864-6.544
							C304.53,1190.416,294.677,1182.689,294.144,1182.43z"/>
						<path id="Shape_11_" fill="#5D2649" stroke="#5D2649" stroke-width="6.3" d="M96.966,851.008
							c-0.129-0.416-0.176-0.566,0.051-1.236c1.157-4.603,5.666-11.517,15.495-5.148c0.184,0.114,0.896,0.701,1.083,1.049
							c0.2,0.535,3.458,11.333,9.747,26.461c4.763,11.495,10.982,24.592,18.345,38.094c7.347,13.509,15.843,27.412,24.673,40.77
							c17.664,26.715,36.533,51.31,48.838,67.425l9.82,12.776c-0.022,0,14.86,22.091,23.965,38.616
							c8.027,13.777,9.232,18.76,6.904,18.408c-2.344-0.338-8.279-5.934-14.988-13.104c1.024,1.799-31.004-35.121-31.054-35.121
							l-8.902-11.576c-7.921-10.354-18.939-24.757-30.812-41.301c-11.869-16.54-24.526-35.286-35.619-54.188
							c-11.137-18.868-20.592-37.916-27.285-54.102C100.637,862.999,97.177,851.574,96.966,851.008z"/>
						<path id="Shape_12_" fill="#5D2649" stroke="#5D2649" stroke-width="6.3" d="M263.604,1077.059
							c-0.047-0.292-0.066-0.4,0.284-0.848c0.959-1.521,3.099-3.346,5.935-3.68c2.853-0.405,6.256,0.471,10.15,0.869
							c0.143,0.021,0.666,0.109,0.747,0.18c0.037,0.081,0.1,0.697,0.637,2.172c0.525,1.459,1.527,3.713,3.121,6.473
							c3.136,5.529,8.494,12.834,14.306,19.82c11.627,14.051,24.861,26.887,24.824,26.877c-0.011,0.01,7.224,9.642,11.79,17.156
							c4.112,6.079,4.71,8.833,3.048,9.702c-1.65,0.849-5.536-0.397-9.651-2.661c0.231,0.465-4.423-2.54-9.012-5.814
							c-4.601-3.254-9.158-6.769-9.158-6.769c0.007-0.027-13.417-13.044-25.595-27.775c-6.102-7.371-11.896-15.177-15.779-22.003
							c-1.952-3.391-3.424-6.574-4.337-9.113C263.992,1079.126,263.65,1077.224,263.604,1077.059z"/>
						<path id="Shape_13_" fill="#5D2649" stroke="#5D2649" stroke-width="6.3" d="M173.298,341.767c-0.005,0-0.009,0-0.312-0.292
							c-1.776-1.713-6.307-6.152-11.549-11.541l-0.488-0.51l1.363-1.263c0,0,1.477,1.052,3.505,2.786
							c2.879,2.376,5.506,5.204,6.82,6.829c0.287,0.252,1.956,2.698,1.956,2.698L173.298,341.767z"/>
						<path id="Shape_14_" fill="#5D2649" stroke="#5D2649" stroke-width="6.3" d="M190.816,320.521
							c-0.241,0.344-0.324,0.467-0.984,0.68c-4.134,1.72-12.577,2.903-13.64-8.975c-0.02-0.218,0.026-1.164,0.197-1.542
							c0.356-0.477,6.874-10.269,17.202-23.841c21.543-28.268,48.458-57.646,81.209-83.96
							c32.656-26.36,71.182-49.347,113.082-66.197c10.476-4.242,21.089-8.096,31.956-11.618c10.864-3.458,21.79-6.508,32.827-9.255
							c22.06-5.481,44.419-9.61,66.719-12.649c44.615-6.064,88.93-7.765,130.871-6.774c20.976,0.493,41.372,1.68,60.976,3.357
							c4.986,0.388,9.597,0.969,14.261,1.18c4.85,0.316,9.646,0.694,14.384,1.127c9.475,0.867,18.718,1.973,27.7,3.271
							c17.961,2.597,34.874,5.986,50.505,9.948c7.816,1.974,15.31,4.104,22.459,6.329c3.574,1.111,7.057,2.264,10.457,3.423
							l2.792,0.969c8.762,3.087,14.03,5.276,14.03,5.262c-0.003,0.001,6.195,2.884,14.235,7.389
							c8.046,4.49,17.848,10.745,25.307,16.724c12.832,9.866,15.303,14.48,13.05,14.826c-2.332,0.438-9.667-2.895-18.467-6.819
							c0.764,0.671-9.506-4.488-20.395-8.786c-10.851-4.394-22.237-8.005-22.237-8.001l-3.49-1.342l-4.135-1.53l-2.598-0.933
							l-5.184-1.798c-24.332-8.243-54.456-15.511-88.667-19.767c-8.548-1.065-17.351-1.953-26.364-2.611l-6.879-0.461
							c-2.41-0.109-4.809-0.419-7.168-0.608l-14.058-1.176c-18.933-1.449-38.618-2.413-58.845-2.721
							c-40.438-0.605-83.086,1.391-125.785,7.568c-42.679,6.242-85.428,16.409-124.899,32.931
							c-39.565,16.286-75.828,38.181-106.667,63.271c-30.938,25.021-56.498,52.972-77.101,80.007
							C197.5,310.537,191.168,320.051,190.816,320.521z"/>
						<path id="Shape_15_" fill="#5D2649" stroke="#5D2649" stroke-width="6.3" d="M472.79,187.241
							c-0.412,0.107-0.563,0.15-1.215-0.111c-4.427-1.366-11.341-6.08-4.494-15.694c0.127-0.176,0.756-0.864,1.124-1.04
							c0.563-0.157,11.645-3.121,27.63-7.884c26.907-8,56.562-17.854,88.217-28.118c31.655-10.226,65.375-20.805,100.548-29.213
							c17.593-4.191,35.481-7.863,53.665-10.596c17.944-2.662,35.897-5.142,53.776-7.363c35.744-4.45,71.114-7.83,104.837-9.732
							c33.725-1.919,65.804-2.332,94.891-1.291c14.545,0.508,28.336,1.386,41.204,2.536c6.438,0.575,12.639,1.211,18.59,1.918
							l11.379,1.442c9.12,1.249,14.685,2.208,14.685,2.199c0.025,0.011,6.543,1.47,15.445,3.982l3.493,0.994l3.517,1.185
							l7.211,2.439c4.951,1.713,10.114,3.738,14.521,6.342c7.662,4.228,11.138,9.452,12.169,12.438
							c1.054,3.088,0.465,4.175-0.63,3.881c-1.147-0.254-2.915-1.788-5.524-3.35c-2.59-1.591-6.075-3.14-10.322-4.307
							c0.37,0.278-1.847-0.477-5.769-1.303c-3.916-0.854-9.558-1.673-15.637-2.68c-2.947-0.574-5.657-0.81-8.415-1.176l-7.607-0.875
							l-7.462-0.773l-3.732-0.57l-4.398-0.646l-7.691-1.051c-20.743-2.705-45.717-4.77-73.701-5.483
							c-27.981-0.736-58.954-0.12-91.617,1.909c-32.669,2.007-67.026,5.411-101.845,9.831c-17.392,2.201-34.983,4.664-52.4,7.273
							c-17.184,2.747-34.406,6.327-51.291,10.428c-33.819,8.212-66.604,18.527-97.685,28.581
							c-31.071,10.085-60.503,19.859-87.425,27.866C484.676,184.05,473.371,187.079,472.79,187.241z"/>
						<path id="Shape_16_" fill="#5D2649" stroke="#5D2649" stroke-width="6.3" d="M77.687,516.749
							c-0.095,0.393-0.125,0.532-0.653,0.958c-1.605,1.519-4.206,3.304-7.129,3.476c-2.902,0.158-6.201-1.295-8.869-6.777
							c-0.096-0.199-0.398-1.118-0.374-1.547c0.18-0.571,2.605-12.565,8.925-28.825c6.714-17.537,17.322-37.681,29.865-57.261
							c6.244-9.815,12.903-19.545,19.548-28.988l9.936-13.959c3.148-4.337,6.034-8.76,8.802-13.204
							c5.503-8.889,10.432-17.689,14.944-25.705l6.425-11.406l5.303-9.235c4.626-7.942,7.681-12.753,7.672-12.756
							c0.02,0.014,3.899-5.568,9.82-12.709c5.887-7.142,14.042-15.728,21.888-21.542c6.487-5.1,11.365-7.504,14.335-8.49
							c2.993-0.959,4.116-0.578,3.886,0.569c-0.484,2.304-6.04,7.804-11.843,15.187c0.799-0.577-6.545,7.864-12.687,17.708
							c-6.256,9.73-11.799,20.378-11.813,20.369l-1.956,3.212l-5.392,9.14c-6.819,11.576-15.485,28.221-26.91,46.631
							c-2.859,4.552-6.076,9.357-9.387,13.858L132.414,409c-6.434,9.165-12.804,18.525-18.72,27.87
							c-11.891,18.656-21.691,37.418-27.829,53.463C80.031,505.363,77.859,516.212,77.687,516.749z"/>
						<path id="Shape_17_" fill="#5D2649" stroke="#5D2649" stroke-width="6.3" d="M200.062,245.544
							c-0.292,0.299-0.396,0.408-1.077,0.518c-4.372,1.035-12.88,0.845-12.027-11.047c0.016-0.218,0.209-1.145,0.44-1.493
							c0.44-0.405,8.394-9.041,20.829-20.781c11.304-10.658,24.451-21.978,39.41-32.74c14.943-10.762,31.746-20.877,49.79-29.271
							c18.029-8.417,37.238-15.081,56.489-19.942c19.175-4.75,37.94-8.45,55.735-12.024l25.79-5.226l12.135-2.599l12.282-2.739
							c7.517-0.972,14.445-2.432,21.205-3.798l16.445-3.409c8.977-1.822,14.587-2.788,14.582-2.791
							c0.001,0.019,6.734-0.823,16.005-1.226c9.244-0.411,21.142-0.15,30.787,2.056c8.197,1.627,13.211,4.153,15.748,6.025
							c2.538,1.93,2.793,3.103,1.716,3.536c-1.085,0.465-3.488,0.271-6.771,0.12c-3.278-0.176-7.469-0.283-12.091-0.118
							c0.469,0.143-2.041,0.138-6.106,0.407c-4.068,0.255-9.697,0.884-15.398,1.834c-11.4,1.872-23.056,4.902-23.061,4.875
							l-3.706,0.694l-10.958,2.182l-18.443,3.815c-3.366,0.674-6.875,1.352-10.573,1.978c-1.849,0.315-3.745,0.614-5.704,0.884
							l-1.158,0.154c-0.058,0.015,0.193-0.042-0.11,0.024l-0.695,0.161l-2.806,0.648c-15.05,3.461-31.678,6.777-49.114,10.26
							c-17.394,3.495-35.786,7.18-53.809,11.757c-17.957,4.686-35.732,10.985-52.393,18.883
							c-16.681,7.858-32.214,17.292-46.154,27.375c-13.952,10.082-26.347,20.758-37.103,30.902
							C208.248,236.726,200.492,245.147,200.062,245.544z"/>
						<path id="Shape_18_" fill="#5D2649" stroke="#5D2649" stroke-width="6.3" d="M579.865,109.635
							c-0.454-0.067-0.622-0.084-1.158-0.591c-1.9-1.504-3.983-4.149-4.137-7.065c-0.182-2.951,1.544-6.046,6.261-9.122
							c0.174-0.109,0.966-0.497,1.342-0.529c0.509,0.068,11.062,1.673,27.25,0.682c13.176-0.743,27.235-2.684,41.97-5.052
							c14.761-2.336,30.14-5.249,46.578-7.281c2.016-0.24,4.197-0.487,6.262-0.667l6.124-0.53l12.294-1.051l25.007-2.068
							c16.848-1.353,34.024-2.631,51.394-3.719c8.688-0.539,17.417-1.045,26.183-1.474c8.812-0.482,17.694-0.667,26.483-0.832
							c17.594-0.335,35.201-0.409,52.661-0.265c34.928,0.286,69.284,1.456,101.877,3.111l24.097,1.324
							c7.812,0.472,15.496,0.817,23.068,1.077c15.132,0.52,29.749,0.703,43.685,0.826l39.61,0.319l17.972,0.289l11.077,0.28
							l14.747,0.539c-0.005,0.009,6.676,0.719,15.666,2.061c4.498,0.667,9.564,1.507,14.661,2.474l3.813,0.752l0.489,0.095
							c0.236,0.036,0.489,0.079,0.768,0.146l0.863,0.241l1.619,0.411c2.184,0.506,4.478,0.836,6.812,1.167
							c3.95,0.426,7.723,1.079,10.498,2.35c2.796,1.234,4.567,2.746,5.642,3.96c2.112,2.483,1.954,3.725,0.836,3.848
							c-1.149,0.188-3.414-0.653-6.291-1.033c-2.888-0.446-6.315-0.059-11.305,0.525c0.497,0.05-2.088,0.472-6.98,0.436
							l-1.925-0.083l-1.033-0.076l-0.472-0.039c-0.018,0.009-0.056,0.014-0.122,0.02l-3.898-0.059l-8.667-0.091
							c-11.868-0.077-23.997,0.169-24,0.174l-16.021-0.537c-20.432-0.576-44.932-0.58-72.435-0.849
							c-13.753-0.154-28.257-0.403-43.372-1.026c-15.206-0.643-30.588-1.722-46.514-2.439c-31.814-1.542-65.324-2.606-99.369-2.81
							c-17.015-0.104-34.168,0.004-51.298,0.362l-12.782,0.311l-12.744,0.602c-8.535,0.433-17.049,0.925-25.53,1.476
							c-16.957,1.081-33.768,2.351-50.288,3.684l-24.549,2.042l-12.064,1.038l-5.925,0.519l-5.692,0.645
							c-15.329,1.943-30.513,4.792-45.279,7.131c-14.78,2.364-29.198,4.365-43.21,5.166
							C593.063,111.535,580.489,109.743,579.865,109.635z"/>
						<path id="Shape_19_" fill="#5D2649" stroke="#5D2649" stroke-width="6.3" d="M776.922,1252.205
							c-0.398,0.057-0.542,0.078-1.129-0.26c-1.998-0.951-4.598-2.684-5.845-5.354c-1.218-2.641-1.089-6.229,3.045-10.729
							c0.153-0.162,0.901-0.778,1.308-0.92c0.595-0.066,12.706-2.123,30.037-2.288c25.059-0.434,52.219,2.95,80.223,4.824
							c6.831,0.479,14.02,0.535,21.27,0.684c7.248,0.105,14.583,0.127,21.993,0.06c14.814-0.131,29.923-0.606,45.192-1.307
							c15.263-0.701,30.685-1.642,46.132-2.652l23.193-1.57c7.854-0.658,15.729-0.778,23.314-1.218
							c30.553-1.54,60.573-4.297,88.986-7.879c28.416-3.563,55.222-7.895,79.422-12.385c12.102-2.244,23.549-4.508,34.231-6.733
							l15.428-3.286l9.648-2.13l14.199-3.223l15.415-2.374c8.806-1.257,20.21-3.207,29.654-3.515
							c31.85-2.584,20.083,3.706,1.441,9.548c0.521-0.008-2.039,0.76-6.156,1.919c-4.177,1.113-9.572,3.071-15.375,4.811
							c-11.484,3.603-23.289,7.068-23.289,7.068l-15.58,3.517c-35.768,7.925-85.778,17.895-142.408,24.744
							c-28.301,3.437-58.24,6.078-88.728,7.514l-11.329,0.487l-11.245,0.761l-22.858,1.535c-15.263,0.996-30.55,1.902-45.733,2.581
							c-15.189,0.68-30.275,1.116-45.123,1.229c-7.427,0.058-14.791,0.035-22.074-0.087c-7.239-0.148-14.53-0.25-21.77-0.762
							c-28.483-1.971-54.569-5.138-77.846-4.719C788.333,1250.269,777.479,1252.143,776.922,1252.205z"/>
						<path id="Shape_20_" fill="#5D2649" stroke="#5D2649" stroke-width="6.3" d="M777.167,1266.687
							c-0.466-0.208-0.642-0.292-1.072-0.951c-1.625-2.074-2.942-5.437-2.013-8.209c0.879-2.858,3.794-4.891,8.676-6.694
							c0.184-0.066,0.969-0.26,1.286-0.193c0.235,0.06,2.399,1.117,6.684,2.222c4.27,1.105,10.686,2.163,18.634,2.57
							c13.438,0.716,28.105-0.14,43.475-1.384l23.729-2.038c4.071-0.331,8.206-0.642,12.441-0.866
							c4.219-0.289,8.72-0.239,12.674-0.389c33.405-1.003,68.71-0.802,104.219-2.521c17.76-0.866,35.596-2.254,53.268-4.578
							c4.431-0.563,8.783-1.219,13.325-1.93c4.655-0.646,9.234-1.202,13.748-1.72c9.087-1.049,18.151-1.942,27.174-2.76
							c36.075-3.22,71.436-5.247,104.752-8.477c33.316-3.166,64.597-7.554,92.228-14.026c13.816-3.22,26.704-6.944,38.474-11.062
							c5.885-2.061,11.495-4.216,16.798-6.445c2.655-1.109,5.23-2.25,7.737-3.384l2.306-1.077c1.938-0.881,3.948-1.905,5.576-2.684
							l4.184-1.853l3.275-1.581c0.003-0.004,5.744-2.299,13.522-6.258c7.783-3.902,17.629-9.49,26.207-13.6
							c14.399-7.287,19.731-7.474,19.009-5.287c-0.672,2.257-6.743,7.398-14.177,13.661c0.898-0.444-8.093,6.775-17.842,14.185
							c-4.884,3.677-10.066,7.258-14.139,9.809c-4.077,2.545-6.975,4.109-6.975,4.109l-14.899,6.93
							c-20.032,9.104-44.979,17.267-73.237,23.306c-28.25,6.117-59.739,10.186-92.867,13.198
							c-33.128,3.064-67.942,5.062-102.961,8.312c-8.756,0.816-17.513,1.732-26.256,2.777c-4.432,0.536-8.52,1.036-12.991,1.772
							c-4.452,0.665-8.967,1.295-13.456,1.845c-17.985,2.232-35.998,3.542-53.798,4.366c-35.645,1.614-70.236,1.431-103.075,2.444
							l-6.058,0.128l-5.847,0.26c-3.922,0.226-7.867,0.528-11.801,0.853l-23.422,2.014c-15.466,1.232-30.546,2.148-45.274,1.374
							c-8.806-0.451-16.453-1.642-21.996-3.078C780.874,1268.365,777.488,1266.791,777.167,1266.687z"/>
						<path id="Shape_21_" fill="#5D2649" stroke="#5D2649" stroke-width="6.3" d="M781.887,1288.429
							c-0.423,0.024-0.579,0.035-1.162-0.349c-4.015-2.208-9.964-8.16-1.332-16.274c0.161-0.146,0.921-0.696,1.318-0.794
							l28.843-1.994c58.717-4.24,130.206-10.163,203.614-21.527c18.344-2.853,36.811-6.005,55.208-9.562
							c9.212-1.754,18.364-3.634,27.549-5.578c4.609-0.993,9.199-2.021,13.962-2.901l13.88-2.624
							c36.938-6.828,73.213-12.856,107.165-20.276c33.952-7.344,65.562-16.133,93.097-26.74
							c13.773-5.275,26.514-10.984,38.094-16.896c5.789-2.958,11.286-5.969,16.475-9c2.569-1.508,5.125-3.054,7.662-4.621
							l2.205-1.324c7.082-4.463,11.317-7.938,11.325-7.881l12.821-8.565c7.459-5.012,17.267-11.424,26.254-15.319
							c7.498-3.496,12.893-4.639,16.027-4.807c3.162-0.134,4.123,0.546,3.592,1.585c-1.117,2.054-7.777,5.892-15.084,11.751
							c0.465-0.168-1.576,1.346-4.785,3.951c-3.215,2.6-7.553,6.367-11.938,10.348l-12.333,11.19
							c-3.479,3.097-5.943,5.135-5.94,5.135l-3.251,2.363c-1.053,0.757-2.373,1.673-3.938,2.715l-2.534,1.648l-1.405,0.881
							l-3.159,1.908c-19.189,11.899-43.735,24.007-71.971,34.208c-28.251,10.305-60.24,18.764-94.146,25.898
							c-33.902,7.184-69.743,13.104-105.775,19.848l-13.431,2.571l-13.522,2.888c-9.115,1.922-18.268,3.732-27.428,5.482
							c-18.318,3.469-36.689,6.6-54.94,9.393c-73.02,11.166-143.896,17.045-202.1,21.252L781.887,1288.429z"/>
						<path id="Shape_22_" fill="#5D2649" stroke="#5D2649" stroke-width="6.3" d="M849.622,1244.605
							c-0.433-0.053-0.592-0.066-1.115-0.545c-3.768-2.892-8.281-9.801,1.483-16.26c0.177-0.116,0.997-0.532,1.396-0.563
							c0.571,0.035,11.748,1.345,28.169,1.642c17.766,0.334,37.601-0.6,58.66-2.515c21.062-1.898,43.352-4.755,66.207-7.596
							c22.854-2.821,46.3-5.625,69.708-6.956c5.98-0.33,11.463-0.527,17.13-0.922c5.619-0.363,11.209-0.803,16.756-1.304
							c11.089-0.993,22.003-2.204,32.65-3.508c21.293-2.612,41.52-5.514,59.959-7.909l6.83-0.88l6.7-0.817
							c4.257-0.486,8.315-1.057,12.31-1.673l11.551-1.905l7.659-1.345l14.474-2.521c-0.003,0.008,6.677-0.731,15.84-1.243
							c9.149-0.518,20.862-0.596,30.461,0.742c8.143,0.881,13.312,2.462,16.157,3.74c2.842,1.339,3.423,2.35,2.476,3.05
							c-1.919,1.385-9.768,1.669-19.185,2.86c0.985,0.155-10.272,1.046-21.771,3.331c-11.49,2.163-23.291,5.063-23.298,5.04
							l-15.115,2.661c-6.754,1.187-14.205,2.49-22.395,3.636l-25.618,3.26c-17.979,2.377-37.88,5.216-59.062,7.758
							c-10.589,1.262-21.503,2.438-32.658,3.389c-5.574,0.473-11.211,0.888-16.896,1.225l-16.879,0.902
							c-22.292,1.394-45.014,4.131-67.439,6.916c-22.426,2.793-44.583,5.621-65.777,7.512c-21.182,1.92-41.399,2.863-59.75,2.518
							C862.111,1246.022,850.23,1244.642,849.622,1244.605z"/>
						<path id="Shape_23_" fill="#5D2649" stroke="#5D2649" stroke-width="6.3" d="M1620.906,546.553
							c0.053-0.426,0.068-0.583,0.55-1.099c2.885-3.673,9.794-8.324,16.26,1.509c0.12,0.18,0.53,1.012,0.563,1.414
							c-0.05,0.581-1.332,11.897-2.339,28.458c-1.902,30.1-1.911,63.802-3,99.848c-1.166,35.976-3.698,74.625-12.628,113.066
							c-8.432,37.508-16.32,76.187-26.491,113.907c-10.142,37.685-22.529,74.57-39.458,107.645
							c-8.448,16.517-18.039,32.036-28.797,45.972c-2.701,3.515-5.366,6.713-7.979,10.051c-2.687,3.312-5.434,6.557-8.178,9.709
							c-5.514,6.293-11.121,12.224-16.713,17.844c-11.198,11.233-22.338,21.235-32.896,30.32
							c-5.285,4.529-10.438,8.826-15.396,12.918l-9.427,7.681l-11.452,9.18c0.011,0.05-21.953,15.095-38.017,24.729
							c-13.356,8.521-18.149,10.22-17.992,7.846c0.174-2.352,5.4-8.716,12.38-15.717c-1.888,0.88,34.597-31.902,34.554-31.859
							l12.73-10.256c17.614-14.41,38.536-31.707,59.176-53.28c5.143-5.403,10.252-11.079,15.225-17.063
							c2.496-2.939,4.955-6.177,7.497-9.293c2.525-3.138,4.896-6.254,7.263-9.544c9.431-13.058,17.952-27.622,25.548-43.23
							c15.234-31.243,26.772-66.495,36.372-102.943c9.645-36.477,17.312-74.247,25.711-111.425
							c8.103-36.17,10.48-73.082,11.571-108.126c1.032-35.102,1.064-68.624,2.974-99.031
							C1619.54,558.869,1620.854,547.156,1620.906,546.553z"/>
						<path id="Shape_24_" fill="#5D2649" stroke="#5D2649" stroke-width="6.3" d="M1626.284,558.216
							c-0.07-0.441-0.099-0.601,0.229-1.246c0.895-2.2,2.764-4.929,5.479-5.994c2.733-1.092,6.251-0.507,10.618,3.217
							c0.159,0.137,0.761,0.802,0.9,1.167c0.068,0.563,1.791,11.322,6.406,27.192c2.269,7.986,4.903,16.488,7.417,25.607
							c2.479,9.1,4.904,18.967,6.124,29.388c2.462,19.946,4.237,41.007,5.239,62.554c0.995,21.533,1.188,43.524,0.438,65.153
							c-0.619,21.534-2.264,43.041-5.061,63.16c-2.757,20.162-6.52,39.1-10.702,56.053c-2.071,8.479-4.265,16.467-6.431,23.888
							l-3.238,10.694l-2.283,7.11l-1.086,3.307l-1.273,3.081l-1.799,4.258l-1.521,3.603c0.067,0.116-12.33,23.337-19.753,40.059
							c-3.015,7.17-4.866,11.93-6.29,14.643c-1.4,2.725-2.392,3.374-3.099,2.423c-1.44-1.881-1.569-10.354,0.288-20.33
							c-0.518,0.961,2.064-10.893,5.836-22.506c3.701-11.653,7.92-23.155,7.889-23.159l1.489-3.521l1.735-4.134
							c0.254-0.642-0.013,0.084,0.244-0.673l0.451-1.363l1.246-3.835c7.671-23.729,16.64-57.301,21.544-95.704
							c2.534-19.228,3.917-39.434,4.495-60.364c0.647-20.783,0.404-41.948-0.606-62.699c-1.01-20.741-2.775-41.127-5.143-60.238
							c-2.312-18.136-8.39-35.416-12.926-51.677C1628.354,570.994,1626.348,558.821,1626.284,558.216z"/>
						<path id="Shape_25_" fill="#5D2649" stroke="#5D2649" stroke-width="6.3" d="M1628.187,610.062
							c0.084-0.609,0.115-0.827,0.803-1.549c2.067-2.545,5.616-5.439,9.688-5.847c4.093-0.424,8.634,1.643,13.022,8.494
							c0.162,0.253,0.715,1.409,0.747,1.962c-0.099,0.804-2.188,16.254-3.159,39.391c-1.289,26.343-0.938,56.444-5.247,88.878
							c-1.095,8.088-2.508,16.298-4.317,24.545c-0.905,4.124-1.915,8.258-3.028,12.391l-3.391,12
							c-4.365,15.664-8.65,31.907-12.809,48.226c-8.386,32.704-16.024,66.236-23.946,99.336
							c-7.464,32.286-11.968,66.156-22.739,97.809c-2.656,7.902-5.744,15.64-9.224,23.108c-1.828,3.994-3.916,7.621-5.928,11.072
							c-1.989,3.415-4.031,6.765-6.112,10.051c-8.343,13.135-17.45,25.15-26.982,35.843c-9.529,10.694-19.489,20.033-29.338,28.059
							c-4.922,4.026-9.818,7.71-14.644,11.08c-2.396,1.705-4.8,3.288-7.149,4.846l-2.791,1.8
							c-11.259,7.103-18.545,10.729-18.525,10.765c0-0.024-8.842,4.146-21.211,8.312l-4.534,1.508l-4.505,1.584
							c-3.067,1.131-6.24,2.398-9.423,3.743c-6.375,2.685-12.792,5.688-18.595,8.474c-19.384,9.983-25.222,13.399-25.409,10.033
							c0.008-3.53,7.667-12.763,18.602-21.732c-1.312,0.645,11.718-9.991,27.293-18.661c1.943-1.091,3.957-2.134,5.954-3.141
							l5.227-2.712c3.371-1.797,6.487-3.539,9.14-5.064c5.288-3.077,8.718-5.296,8.732-5.279l4.473-2.503l5.187-3.063l3.209-1.972
							l4.8-3.093c15.979-10.517,33.736-25.158,50.116-44.759c8.199-9.776,16.059-20.75,23.305-32.783l2.691-4.563l2.517-4.455
							c0.766-1.508,1.432-2.884,2.174-4.486c0.729-1.592,1.466-3.197,2.156-4.843c2.809-6.524,5.271-13.406,7.511-20.521
							c4.452-14.256,7.867-29.511,11.055-45.343c3.215-15.841,6.193-32.294,10.247-49.019c3.948-16.075,7.611-32.574,11.588-48.992
							c3.922-16.421,7.943-32.824,12.091-49.057c4.155-16.275,8.385-32.208,12.827-48.124c1.115-4.087,2.271-7.699,3.204-11.398
							c0.972-3.703,1.852-7.415,2.641-11.13c1.589-7.426,2.835-14.867,3.808-22.279c3.87-29.663,3.623-58.784,4.895-85.585
							C1625.855,627.644,1628.073,610.896,1628.187,610.062z"/>
						<path id="Shape_26_" fill="#5D2649" stroke="#5D2649" stroke-width="6.3" d="M1648.584,725.219
							c0.087-0.411,0.118-0.558,0.643-1.016c3.15-3.223,10.457-7.552,16.066,2.951c0.099,0.194,0.429,1.078,0.418,1.493
							c-0.129,0.581-2.354,12.072-6.232,28.547c-11.916,51.147-30.838,112.169-53.922,174.177
							c-11.523,31.021-24.028,62.294-37.065,92.825c-3.247,7.892-7.428,15.862-12.075,23.102
							c-4.676,7.294-9.896,14.114-15.438,20.46c-11.091,12.721-23.338,23.609-35.472,33.575
							c-12.154,9.963-24.241,19.031-35.576,27.906c-5.678,4.451-11.165,8.792-16.326,13.185
							c-5.206,4.408-10.228,8.882-15.136,13.297c-9.805,8.839-19.187,17.41-28.318,25.145c-4.566,3.866-9.057,7.536-13.47,10.959
							c-2.2,1.718-4.384,3.374-6.546,4.97l-2.106,1.539c-7.564,5.479-12.449,8.528-12.438,8.543
							c-0.003-0.019-5.973,3.437-14.425,7.282c-8.426,3.888-19.396,7.952-28.699,10.227c-7.809,2.138-13.048,2.856-16.155,2.916
							c-3.109,0.042-4.103-0.592-3.566-1.645c1.073-2.116,8.22-5.871,16.668-10.445c-0.998,0.193,9.347-4.765,19.212-10.913
							c9.936-6.043,19.359-13.224,19.356-13.224l3.081-2.067l3.592-2.493l2.232-1.584l3.812-2.793
							c7.628-5.673,15.741-12.311,24.312-19.809c8.586-7.483,17.609-15.834,27.447-24.585
							c19.715-17.971,43.692-34.487,66.478-53.591c11.371-9.58,22.45-19.897,32.047-31.536c4.797-5.818,9.197-11.967,13.065-18.443
							c1.918-3.246,3.718-6.567,5.355-9.97c1.599-3.307,3.113-7.008,4.719-10.752c12.637-29.773,24.789-60.314,35.98-90.578
							c22.432-60.508,40.815-120.007,52.376-169.66C1646.28,737.055,1648.457,725.796,1648.584,725.219z"/>
						<path id="Shape_27_" fill="#5D2649" stroke="#5D2649" stroke-width="6.3" d="M1075.563,112.562
							c-0.486-0.161-0.669-0.218-1.169-0.859c-1.839-1.925-3.448-5.251-2.697-8.064c0.696-2.923,3.492-5.087,8.119-7.333
							c0.177-0.082,0.906-0.33,1.238-0.312c0.229,0.048,2.412,0.894,6.757,1.565c4.314,0.681,10.799,1.069,18.772,0.681
							c17.018-0.725,35.738-4.353,56.194-5.187c20.328-0.981,41.781,0.986,62.857,5.319c10.551,2.123,21.092,4.7,31.582,7.407
							c10.399,2.572,21.39,5.551,32.022,9.04c21.412,6.949,42.646,15.78,63.174,26.459c41.064,21.322,79.212,50.214,110.589,84.52
							c7.853,8.564,15.286,17.449,22.27,26.601l5.146,6.913c1.722,2.362,3.448,4.811,4.966,7.088
							c3.066,4.501,6.246,8.928,9.493,13.289c13.012,17.452,27.146,33.89,40.827,50.215c13.698,16.314,26.989,32.559,38.613,49.335
							c5.808,8.385,11.206,16.891,16.033,25.526c1.219,2.194,2.335,4.237,3.565,6.605c1.161,2.283,2.112,4.502,3.143,6.719
							c1.945,4.332,3.844,8.626,5.64,12.896c7.216,17.062,13.216,33.566,18.26,49.154c2.517,7.793,4.803,15.356,6.881,22.653
							l2.962,10.739l0.757,2.861c2.316,8.888,3.596,14.361,3.603,14.361c0.078-0.016,4.435,26.593,4.905,45.501
							c0.878,15.967-0.418,20.926-2.303,19.543c-1.931-1.382-4.579-9.087-7.307-18.471c-0.016,1.032-2.813-10.281-6.008-21.713
							c-3.158-11.449-6.721-22.998-6.733-22.997l-0.906-3.678l-3.229-12.447c-6.917-25.601-16.63-55.844-30.956-88.056
							c-1.848-4.038-3.496-8.037-5.554-11.691c-2.102-3.896-4.326-7.798-6.698-11.689c-4.729-7.786-9.973-15.548-15.617-23.298
							c-11.287-15.515-24.193-30.957-37.632-46.912c-13.418-15.967-27.416-32.477-40.435-50.527
							c-3.265-4.436-6.444-9.346-9.417-13.474c-3.093-4.292-6.363-8.628-9.698-12.85c-6.694-8.47-13.802-16.691-21.296-24.621
							c-29.954-31.736-66.135-58.504-105.017-78.242c-19.432-9.884-39.509-18.075-59.744-24.495
							c-10.17-3.265-20.147-5.855-30.582-8.48c-10.215-2.619-20.283-5.04-30.211-6.989c-19.841-3.982-39.149-5.595-57.869-4.663
							c-18.613,0.763-36.929,4.303-55.471,5.155c-8.771,0.43-16.512,0.041-22.207-0.856
							C1079.479,113.95,1075.901,112.652,1075.563,112.562z"/>
						<path id="Shape_28_" fill="#5D2649" stroke="#5D2649" stroke-width="6.3" d="M1132.512,118.648
							c-0.393,0.061-0.527,0.085-1.109-0.245c-1.958-0.919-4.532-2.616-5.874-5.211c-1.31-2.575-1.381-6.223,2.811-10.82
							c0.154-0.167,0.911-0.799,1.326-0.946c0.646-0.147,12.868-2.126,30.005-2.502c9.296-0.264,20.021-0.204,31.328,0.164
							c5.655,0.181,11.452,0.441,17.294,0.768l8.783,0.535c1.469,0.109,2.846,0.17,4.688,0.354c1.792,0.231,3.339,0.469,4.874,0.742
							c12.421,2.182,23.844,6.471,33.588,11.139c9.765,4.686,17.918,9.752,24.17,13.957c8.578,5.82,13.512,9.865,13.533,9.841
							c-0.008,0.003,5.194,4.536,11.593,11.194c6.427,6.634,13.938,15.461,19.4,23.261c9.519,13.009,10.79,18.043,8.504,17.801
							c-2.362-0.188-8.593-5.362-15.956-11.638c0.55,0.866-7.892-7.022-17.048-14.312c-9.1-7.378-18.928-13.965-18.936-13.941
							c-0.011,0.019-3.976-3.152-10.817-7.78c-5.483-3.684-12.776-8.24-21.4-12.415c-8.607-4.176-18.591-7.936-29.016-9.838
							c-1.25-0.236-2.729-0.468-3.803-0.612c-0.57-0.097-1.152-0.151-1.74-0.179l-2.151-0.145l-8.663-0.534
							c-5.768-0.322-11.498-0.581-17.069-0.761c-11.153-0.364-21.682-0.42-30.662-0.162
							C1143.74,116.748,1133.007,118.54,1132.512,118.648z"/>
						<path id="Shape_29_" fill="#5D2649" stroke="#5D2649" stroke-width="6.3" d="M1427.29,221.485
							c-0.359-0.06-0.489-0.076-0.898-0.567c-1.45-1.465-3.363-3.812-3.927-6.683c-0.507-2.817,0.304-6.412,5.941-9.522
							c0.208-0.11,1.176-0.469,1.645-0.469c0.32,0.088,3.812,0.505,9.311,2.146c5.49,1.621,12.91,4.642,20.689,9.47
							c16.152,9.975,30.428,24.672,43.301,41.26c12.894,16.645,24.494,35.345,35.33,54.746c10.856,19.383,20.84,39.626,30.8,59.092
							l7.651,14.576c2.564,5.005,4.97,10.048,7.21,15.097c4.479,10.107,8.346,20.234,11.744,30.179
							c6.793,19.903,11.782,39.027,16.104,56.267l10.478,42.636l3.626,14.053c-0.025,0.028,4.951,25.824,8.717,44.029
							c3.531,15.327,3.858,20.383,1.598,19.51c-2.184-0.887-6.649-7.866-10.906-16.89c0.162,1.046-4.599-9.873-8.775-21.273
							c-4.236-11.382-8.03-23.143-8.036-23.137l-3.825-14.935l-10.979-44.598c-4.251-16.715-9.178-35.006-15.752-53.688
							c-3.298-9.336-7.012-18.761-11.273-28.09c-2.131-4.668-4.405-9.298-6.828-13.888c-2.462-4.592-5.106-9.61-7.55-14.404
							c-9.879-19.397-19.588-38.926-30.063-57.526c-10.442-18.585-21.532-36.284-33.506-51.642
							c-11.935-15.324-24.891-28.335-38.215-36.515C1437.854,222.601,1427.716,221.641,1427.29,221.485z"/>
						<path id="Shape_30_" fill="#5D2649" stroke="#5D2649" stroke-width="6.3" d="M1402.455,201.941
							c-0.369-0.16-0.496-0.222-0.826-0.804c-1.213-1.832-2.529-4.688-2.216-7.6c0.33-2.884,2.299-5.902,8.173-7.598
							c0.218-0.062,1.187-0.208,1.606-0.104c0.278,0.135,3.271,1.313,8.106,3.665c4.832,2.339,11.509,5.902,18.876,10.999
							c8.166,5.626,16.633,12.836,24.375,21.549c7.773,8.688,14.784,18.826,20.661,29.681c11.846,21.751,19.226,45.93,24.805,67.552
							c2.793,10.842,5.147,21.099,7.269,30.354l5.426,23.553l3.443,14.059c-0.006,0.038,4.569,25.78,8.971,43.689
							c1.972,7.562,3.296,12.535,3.729,15.575c0.455,3.034,0.018,4.135-1.109,3.767c-2.255-0.711-7.252-7.434-11.832-16.407
							c0.186,1.057-4.977-9.814-9.206-21.283c-4.314-11.443-7.962-23.293-7.974-23.285l-3.479-14.353
							c-3.271-13.674-7.261-32.662-12.62-53.344c-5.399-20.637-12.488-43.046-23.158-62.322c-5.3-9.635-11.455-18.44-18.188-25.912
							c-6.71-7.504-13.974-13.656-21.021-18.52C1413.34,206.002,1402.902,202.248,1402.455,201.941z"/>
						<path id="Shape_31_" fill="#5D2649" stroke="#5D2649" stroke-width="6.3" d="M1498.866,329.161
							c-0.271-0.305-0.366-0.417-0.416-1.096c-0.338-2.202-0.31-5.371,1.243-7.853c1.554-2.46,4.655-4.28,10.635-3.347
							c0.223,0.033,1.145,0.307,1.477,0.57c0.366,0.474,8.685,9.222,18.749,23.377c13.723,19.122,27.204,44.501,37.704,71.922
							c10.637,27.392,18.711,56.562,25.321,82.897c3.31,13.174,6.272,25.658,8.956,36.939l6.843,28.444l3.528,14.107
							c-0.012,0.021,4.747,25.956,7.884,44.336c3.008,15.488,3.033,20.559,0.835,19.58c-2.145-0.988-6.272-8.141-10.226-17.266
							c0.122,1.048-4.234-9.98-8.202-21.408c-4.005-11.414-7.706-23.167-7.709-23.164l-3.596-14.439
							c-4.117-16.658-9.39-39.814-15.833-65.386c-6.466-25.554-14.332-53.524-24.465-79.381
							c-10.008-25.904-22.616-49.44-35.271-67.083C1506.934,337.722,1499.215,329.613,1498.866,329.161z"/>
						<path id="Shape_32_" fill="#5D2649" stroke="#5D2649" stroke-width="6.3" d="M679.156,1101.144
							c-0.279-0.324-0.378-0.437-0.43-1.135c-0.692-4.5,0.352-12.874,12.068-10.994c0.217,0.036,1.118,0.3,1.437,0.553
							l19.148,21.769c23.196,26.411,60.889,70.27,78.842,91.87l10.346,12.453c-0.014,0,15.665,21.643,24.927,38.191
							c8.207,13.808,8.939,19.076,6.657,18.534c-2.277-0.479-7.945-6.114-14.699-13.168c0.476,0.916-7.235-7.789-15.332-16.555
							l-16.413-17.686l-8.832-10.613c-16.973-20.423-55.169-64.861-78.622-91.535L679.156,1101.144z"/>
						<path id="Shape_33_" fill="#5D2649" stroke="#5D2649" stroke-width="6.3" d="M743.817,1079.323
							c-0.299-0.288-0.408-0.387-0.522-1.07c-1.047-4.3-1.044-12.867,10.913-12.146c0.219,0.018,1.151,0.203,1.501,0.432
							c0.426,0.413,9.191,8.425,20.913,20.743c13.3,13.812,29.809,32.772,45.969,50.288c16.147,17.447,32.447,33.536,43.853,42.052
							c7.691,5.913,12.762,9.519,12.738,9.526c-0.013,0.014,5.088,4.239,11.902,10.308c6.793,6.06,15.249,14.139,21.161,21.901
							c5.177,6.416,7.628,11.367,8.529,14.389c0.888,3.043,0.408,4.148-0.716,3.859c-2.228-0.623-7.532-6.086-15.026-11.805
							c0.61,0.775-7.986-6.405-17.836-12.875c-9.749-6.525-20.169-13.072-20.15-13.114c0.003-0.018-4.258-3.053-11.262-8.438
							c-12.175-9.105-28.864-25.523-45.481-43.428c-16.574-17.929-33.18-36.998-46.301-50.608
							C752.599,1087.359,744.238,1079.732,743.817,1079.323z"/>
						<path id="Shape_34_" fill="#5D2649" stroke="#5D2649" stroke-width="6.3" d="M840.836,1095.072
							c-0.286-0.145-0.386-0.193-0.555-0.727c-0.324-0.826-0.715-1.873-0.677-2.949c-0.066-1.113-0.45-2.396-0.766-3.759
							c-0.335-1.401-0.494-2.939,0.415-4.694c0.481-0.866,1.286-1.697,2.595-2.346c1.397-0.612,2.91-1.065,4.7-1.334
							c0.257-0.042,1.425-0.067,1.896,0.088c0.372,0.169,3.734,1.817,8.238,4.813c4.551,2.983,10.441,7.321,17.143,12.618
							c8.058,6.346,17.104,13.896,26.58,21.918c9.479,7.992,19.398,16.576,29.14,24.427c2.479,1.972,4.768,3.789,7.205,5.476
							l7.649,5.393l14.564,10.477c9.248,6.754,17.432,12.959,23.83,17.967c7.941,6.206,12.756,10.202,12.759,10.202
							c-0.006,0.003,4.949,4.581,11.322,11.101c6.373,6.515,14.118,15.019,19.914,22.53c10.106,12.48,11.764,17.375,9.449,17.291
							c-2.377-0.035-8.92-4.828-16.604-10.79c0.599,0.831-8.261-6.648-17.65-13.851c-9.354-7.243-19.196-14.259-19.196-14.259
							c-0.003,0.007-3.996-3.285-10.702-8.519c-5.951-4.652-13.791-10.603-22.8-17.188l-14.296-10.287l-7.648-5.395l-1.981-1.392
							l-2.118-1.578l-3.955-3.081c-10.301-8.258-20.238-16.871-29.811-24.939c-9.533-8.072-18.581-15.611-26.455-21.81
							c-6.454-5.096-11.998-9.163-15.923-11.73C843.144,1096.153,841.001,1095.149,840.836,1095.072z"/>
						<path id="Shape_35_" fill="#5D2649" stroke="#5D2649" stroke-width="6.3" d="M879.541,1053.103
							c-0.355-0.19-0.485-0.269-0.764-0.881c-1.075-1.937-2.148-4.912-1.57-7.783c0.595-2.846,2.852-5.648,8.804-6.85
							c0.221-0.046,1.187-0.105,1.592,0.029c0.507,0.312,11.427,5.668,25.668,15.627c15.386,10.64,32.529,25.479,48.918,41.876
							c16.482,16.391,32.312,33.969,47.145,49.549c3.687,4.086,7,7.604,10.504,11.043c3.452,3.413,6.896,6.601,10.241,9.572
							c3.346,2.973,6.611,5.713,9.691,8.252l4.498,3.641l3.578,2.835c7.042,5.504,11.482,8.804,11.476,8.808l11.727,10.314
							c6.729,5.986,15.157,13.742,21.638,20.68c11.228,11.494,13.297,16.248,10.988,16.36c-2.375,0.169-9.295-4.011-17.51-9.227
							c0.68,0.762-8.86-5.812-18.87-12.314l-20.287-13.322l-3.081-2.339l-8.632-6.705c-5.413-4.274-11.842-9.515-18.76-15.752
							c-3.458-3.117-7.039-6.483-10.656-10.117c-3.628-3.575-7.271-7.727-10.674-11.305c-14.604-15.393-30.184-32.627-45.946-48.239
							c-15.714-15.663-31.789-29.492-45.979-39.293C890.012,1058.279,880.021,1053.404,879.541,1053.103z"/>
						<path id="Shape_36_" fill="#5D2649" stroke="#5D2649" stroke-width="6.3" d="M960.773,1047.559
							c-0.306-0.292-0.42-0.401-0.535-1.092c-1.128-4.451-0.792-12.84,11.022-12.047c0.211,0.018,1.134,0.196,1.472,0.418
							l21.123,19.665c35.178,32.562,94.389,84.948,122.869,110.716l11.982,10.843c0.004-0.011,18.517,19.192,30.347,33.85
							c20.562,24.334,8.669,18.446-7.022,6.648c1.3,1.585-36.646-29.214-36.702-29.158l-10.255-9.272
							c-26.996-24.422-87.198-77.647-123.047-110.801L960.773,1047.559z"/>
						<path id="Shape_37_" fill="#5D2649" stroke="#5D2649" stroke-width="6.3" d="M1031.659,1023.238
							c-0.303-0.306-0.414-0.415-0.523-1.112c-1.105-4.547-0.459-12.836,11.262-11.819c0.218,0.019,1.122,0.208,1.458,0.43
							c0.412,0.416,8.544,8.357,20.9,19.637c14.956,13.77,35.332,31.824,53.447,51.219c4.49,4.807,8.967,9.854,12.941,14.6
							c3.899,4.451,8.04,8.946,11.896,13.016c7.775,8.206,15.012,15.214,20.897,20.525c7.197,6.514,11.897,10.229,11.885,10.247
							c0.003-0.004,4.659,4.472,11.245,10.24c6.564,5.79,15.188,12.742,22.513,18.396c6.302,4.642,10.452,7.724,12.678,9.848
							c2.239,2.108,2.564,3.253,1.451,3.655c-2.205,0.796-10.247-1.343-19.45-5.423c0.82,0.68-10.043-4.459-20.566-10.89
							c-10.581-6.317-20.695-13.863-20.695-13.861c0.014-0.01-4.197-3.397-10.74-9.325c-5.903-5.317-13.33-12.477-21.331-20.89
							c-4.039-4.246-8.061-8.61-12.444-13.543c-4.072-4.868-8.105-9.418-12.492-14.137c-17.394-18.707-37.759-36.779-53.035-50.816
							C1040.544,1031.901,1032.085,1023.668,1031.659,1023.238z"/>
						<path id="Shape_38_" fill="#5D2649" stroke="#5D2649" stroke-width="6.3" d="M1087.16,995.094
							c-0.292-0.331-0.4-0.45-0.476-1.158c-0.433-2.296-0.353-5.585,1.303-7.977c1.662-2.416,4.901-3.927,10.653-3.148
							c0.208,0.028,1.096,0.261,1.411,0.504c0.393,0.408,7.812,8.726,19.999,19.802c14.896,13.734,36.231,30.581,56.48,47.781
							l7.49,6.476l7.159,6.139c4.759,4.001,9.47,7.821,13.983,11.431l23.774,18.696l12.725,10.044
							c-0.04-0.018,19.972,18.006,31.898,32.912c10.386,12.33,11.956,17.313,9.655,17.199c-2.383-0.038-8.88-4.785-16.678-10.554
							c0.624,0.804-8.377-6.434-17.96-13.414c-9.543-7.018-19.54-13.956-19.534-13.967l-10.836-8.532l-23.312-18.312
							c-4.547-3.626-9.351-7.505-14.266-11.62l-7.438-6.361l-7.367-6.377c-19.89-16.925-41.819-34.191-57.536-48.657
							C1095.633,1004.525,1087.58,995.538,1087.16,995.094z"/>
						<path id="Shape_39_" fill="#5D2649" stroke="#5D2649" stroke-width="6.3" d="M1172.203,987.249
							c-0.317-0.205-0.427-0.275-0.609-0.879c-0.38-0.946-0.7-2.119-0.789-3.338c-0.003-0.288-0.045-0.616-0.01-0.919
							c0.066-0.277,0.147-0.585,0.165-0.912l-0.005-2.061c-0.002-1.45,0.202-3.007,1.483-4.472c0.346-0.331,0.706-0.69,1.271-0.937
							c0.602-0.243,1.198-0.461,1.799-0.673c1.236-0.405,2.674-0.673,4.298-0.796c0.232-0.021,1.281,0.031,1.693,0.208
							c0.295,0.183,3.145,1.979,7.389,5.036c4.258,3.063,9.994,7.409,16.66,12.642c31.688,24.947,75.492,62.241,111.589,93.238
							l55.933,48.421c0.004,0,18.867,18.803,31.101,33.097c21.267,23.679,9.222,18.196-6.832,6.84
							c1.302,1.612-37.398-28.347-37.417-28.328l-55.863-48.317c-35.371-30.341-78.468-66.983-109.286-91.23
							c-6.524-5.123-12.093-9.332-16.064-12.181C1174.718,988.819,1172.411,987.375,1172.203,987.249z"/>
						<path id="Shape_40_" fill="#5D2649" stroke="#5D2649" stroke-width="6.3" d="M1271.326,998.946
							c-0.307-0.299-0.42-0.408-0.535-1.105c-1.17-4.521-0.683-12.818,11.074-11.995c0.21,0.015,1.123,0.191,1.461,0.413
							c0.423,0.395,8.646,8.278,21.201,19.139c24.964,21.855,68.885,55.424,89.562,72.919l12.423,10.533
							c0.003-0.039,19.221,18.949,30.417,34.336c9.821,12.716,11.37,17.64,9.06,17.498c-2.383-0.088-8.799-5.035-16.354-11.156
							c0.593,0.832-8.128-6.811-17.344-14.245c-9.206-7.448-18.861-14.755-18.868-14.751l-10.474-8.854
							c-19.221-16.319-63.872-50.408-89.844-73.095C1280.289,1007.512,1271.772,999.355,1271.326,998.946z"/>
						<path id="Shape_41_" fill="#5D2649" stroke="#5D2649" stroke-width="6.3" d="M1278.026,912.238
							c-0.236-0.384-0.327-0.521-0.274-1.239c-0.024-2.381,0.641-5.607,2.733-7.646c2.092-2.067,5.561-2.896,11.033-1.146
							c0.192,0.067,1.021,0.444,1.286,0.726c0.344,0.423,5.869,9.932,16.586,21.82c7.906,8.818,18.167,18.202,29.968,27.254
							c11.776,9.089,25.018,17.893,38.228,26.521l19.569,12.876l9.498,6.472l4.388,3.176l4.27,2.987
							c11.43,7.836,21.984,14.917,30.14,20.767c8.227,5.863,13.221,9.755,13.224,9.744c-0.014,0.021,5.173,4.416,11.721,10.987
							c6.525,6.559,14.42,15.461,19.202,24.268c4.265,7.307,5.36,13.156,5.068,16.4c-0.317,3.275-1.37,3.985-2.212,3.243
							c-0.913-0.729-1.865-2.758-3.617-5.329c-1.718-2.588-4.223-5.762-7.359-9.061c0.196,0.437-1.419-1.412-4.312-4.236
							c-2.895-2.817-7.142-6.554-11.688-10.11c-9.067-7.152-19.165-13.688-19.144-13.702l-3.011-2.254l-8.544-6.191
							c-5.091-3.627-11.265-7.882-18.238-12.618l-11.025-7.518l-5.909-4.156c-2.159-1.577-3.691-2.7-5.775-4.093
							c-15.988-10.99-34.578-22.41-52.078-34.764c-17.516-12.272-33.683-25.913-45.318-38.978
							C1284.641,923.384,1278.4,912.703,1278.026,912.238z"/>
						<path id="Shape_42_" fill="#5D2649" stroke="#5D2649" stroke-width="6.3" d="M1339.749,901.769
							c-0.33-0.265-0.454-0.359-0.634-1.032c-1.525-4.303-2.045-12.716,9.815-13.047c0.215-0.008,1.151,0.087,1.515,0.277
							l22.861,17.904c16.418,12.995,37.957,30.539,57.832,48.509c9.983,9.002,19.411,17.94,27.996,26.487
							c2.366,2.317,3.793,3.986,5.727,5.662c1.852,1.677,3.765,3.254,5.667,4.736c3.81,2.969,7.539,5.567,10.878,7.829
							c8.061,5.395,13.337,8.603,13.312,8.617c-0.004,0.01,5.343,3.856,12.582,9.321c7.212,5.466,16.341,12.64,23.032,19.757
							c5.813,5.859,8.754,10.705,9.748,13.769c0.992,3.085,0.375,4.185-0.709,3.861c-1.123-0.296-2.887-1.779-5.512-3.685
							c-2.602-1.923-6.066-4.305-10.049-6.807c0.312,0.383-1.801-1.036-5.34-3.216c-3.543-2.176-8.547-5.082-13.727-7.938
							l-21.236-11.578c0.004-0.018-4.486-2.761-11.832-7.684c-3.369-2.279-7.244-4.967-11.448-8.22
							c-2.101-1.631-4.287-3.396-6.515-5.389c-1.113-0.99-2.24-2.042-3.367-3.154c-1.181-1.148-2.158-2.276-3.127-3.195
							c-7.946-7.92-17.401-16.913-27.152-25.707c-19.559-17.703-41.106-35.262-57.596-48.306L1339.749,901.769z"/>
						<path id="Shape_43_" fill="#5D2649" stroke="#5D2649" stroke-width="6.3" d="M1115.013,1237.859
							c-0.415,0.141-0.571,0.186-1.246-0.028c-2.286-0.529-5.263-1.902-6.798-4.385c-1.549-2.49-1.638-6.062,1.376-11.02
							c0.109-0.179,0.683-0.888,1.026-1.087c0.528-0.208,11.146-3.629,26.027-10.463c9.565-4.346,22.017-10.742,33.902-17.312
							c11.883-6.564,23.293-13.129,30.817-17.352l14.21-7.892c-0.056,0.007,24.482-11.466,43.029-16.214
							c15.528-4.422,20.712-3.768,19.67-1.726c-1.018,2.138-8.033,6.12-16.468,10.851c0.989-0.229-9.283,4.99-19.456,10.986
							c-10.194,5.935-20.415,12.457-20.423,12.449l-12.011,6.699c-7.089,3.979-18.419,10.514-30.583,17.241
							c-12.145,6.739-25.231,13.494-35.412,18.126C1127.07,1233.914,1115.582,1237.641,1115.013,1237.859z"/>
						<path id="Shape_44_" fill="#5D2649" stroke="#5D2649" stroke-width="6.3" d="M1524.908,592.969
							c-0.299-0.251-0.408-0.341-0.535-0.978c-0.589-2.053-0.984-5.026-0.004-7.779c0.961-2.711,3.581-5.327,9.931-5.188
							c0.226,0.007,1.229,0.158,1.604,0.38c0.254,0.201,2.849,2.282,6.729,5.826c3.901,3.534,9.071,8.563,15.054,14.4
							c3.796,3.693,8.772,8.568,13.591,12.799l0.733,0.634l0.527,0.375l1.931,1.344l3.742,2.504c2.413,1.57,4.62,2.938,6.378,4.007
							c8.296,4.983,13.729,7.907,13.713,7.923c-0.011,0.012,5.532,3.564,13.058,8.691c7.509,5.11,16.937,12.023,23.855,18.79
							c6.002,5.556,9.258,9.834,10.805,12.541c1.515,2.743,1.4,3.905,0.226,3.922c-2.371,0.014-8.935-4.379-17.218-9.03
							c0.715,0.684-8.898-5.239-19.498-10.383l-21.729-10.486c0.002-0.026-4.628-2.525-12.224-7.096
							c-1.781-1.075-4.089-2.502-6.685-4.185l-4.071-2.705l-2.138-1.477l-1.376-0.965l-1.335-1.15
							c-5.406-4.726-10.564-9.78-14.456-13.551c-6.019-5.871-11.016-10.716-14.628-13.983
							C1527.283,594.862,1525.116,593.136,1524.908,592.969z"/>
						<path id="Shape_45_" fill="#5D2649" stroke="#5D2649" stroke-width="6.3" d="M1533.945,687.048
							c-0.345-0.067-0.459-0.071-0.85-0.555c-1.353-1.454-3.138-3.724-3.856-6.561c-0.659-2.748-0.137-6.519,5.79-9.653
							c0.208-0.106,1.23-0.477,1.704-0.465c0.327,0.072,3.966,0.572,9.356,2.254c5.406,1.668,12.5,4.557,20.297,8.605
							c2.277,1.178,5.928,3.214,7.672,4.224c8.945,5.135,14.169,8.647,14.186,8.624c0,0,5.501,4.029,12.523,9.836
							c7.043,5.792,15.579,13.374,22.29,19.951c11.602,10.846,14.439,14.98,12.127,15.453c-2.34,0.465-9.841-3.071-18.328-8.037
							c0.705,0.773-9.194-5.55-19.316-11.745c-10.112-6.247-20.568-12.056-20.575-12.028c-0.004,0.018-4.3-2.805-11.505-6.934
							c-1.554-0.887-4.983-2.776-7.078-3.843c-7.086-3.675-13.185-6.119-17.468-7.435
							C1536.624,687.409,1534.188,687.109,1533.945,687.048z"/>
						<path id="Shape_46_" fill="#5D2649" stroke="#5D2649" stroke-width="6.3" d="M1496.091,753.604
							c-0.271-0.352-0.37-0.481-0.391-1.19c-0.236-2.356,0.096-5.613,1.95-7.854c1.854-2.265,5.247-3.5,10.869-2.25
							c0.211,0.043,1.076,0.343,1.368,0.601c0.377,0.41,6.943,9.371,18.461,20.784c3.704,3.712,8.786,8.466,13.872,12.852
							c5.074,4.394,10.136,8.43,13.479,11.023c7.709,5.948,12.695,9.41,12.689,9.423l34.905,28.313
							c24.94,19.638,12.228,16.414-5.612,7.869c0.773,0.689-9.675-4.752-20.207-10.747c-10.552-5.944-21.091-12.633-21.088-12.642
							c0.008-0.007-4.353-3.088-11.333-8.46c-3.335-2.582-8.638-6.781-14.047-11.449c-5.42-4.652-10.935-9.783-14.96-13.807
							C1503.715,763.859,1496.497,754.055,1496.091,753.604z"/>
						<path id="Shape_47_" fill="#5D2649" stroke="#5D2649" stroke-width="6.3" d="M1429.787,787.63
							c-0.324-0.247-0.441-0.336-0.624-0.993c-0.749-2.109-1.331-5.212-0.271-7.95c1.058-2.713,3.757-5.08,9.801-5.309
							c0.223-0.006,1.18,0.084,1.56,0.276c0.462,0.375,10.196,7.462,22.891,18.973c11.094,9.931,24.85,23.754,37.84,36.931
							c12.984,13.2,25.549,25.44,34.079,32.952c7.282,6.476,11.987,10.164,11.979,10.177c0.005-0.003,4.681,4.448,11.291,10.125
							c6.599,5.69,15.279,12.418,22.826,17.632c6.467,4.293,10.84,6.971,13.235,8.896c2.408,1.884,2.854,2.993,1.781,3.504
							c-2.113,1.021-10.429-0.381-19.923-4.063c0.871,0.655-10.398-3.987-21.071-10.337c-10.748-6.208-20.89-13.726-20.895-13.709
							c0.014-0.011-4.208-3.389-10.791-9.234c-8.493-7.465-21.411-19.995-34.497-33.287c-13.114-13.29-26.764-27.002-37.543-36.63
							C1439.288,794.562,1430.236,787.998,1429.787,787.63z"/>
						<path id="Shape_48_" fill="#5D2649" stroke="#5D2649" stroke-width="6.3" d="M1398.093,852.955
							c-0.292-0.306-0.401-0.419-0.48-1.112c-0.894-4.49-0.165-12.875,11.607-11.487c0.215,0.025,1.124,0.255,1.458,0.493
							l20.084,20.741c10.266,10.514,23.933,24.278,37.399,37.121c13.442,12.868,26.726,24.74,35.579,32.255
							c7.486,6.381,12.241,10.171,12.238,10.178l11.325,10.463c6.538,5.989,14.92,13.389,21.887,19.548
							c12.064,10.072,15.438,13.847,13.105,14.537c-2.27,0.627-10.082-2.187-18.941-6.825c0.76,0.732-9.643-5.103-19.838-11.762
							c-10.232-6.606-20.279-13.91-20.279-13.907c0.003-0.01-4.149-3.342-10.784-8.99c-8.642-7.328-22.176-19.372-35.906-32.498
							c-13.766-13.093-27.788-27.207-38.261-37.92L1398.093,852.955z"/>
						<path id="Shape_49_" fill="#5D2649" stroke="#5D2649" stroke-width="6.3" d="M128.053,354.97
							c0.392-0.473,0.533-0.647,1.498-0.901c3.113-1.078,7.65-1.678,11.327,0.12c3.7,1.792,6.467,5.955,6.6,14.069
							c0,0.296-0.13,1.574-0.391,2.056c-0.435,0.648-10.581,12.566-22.588,31.793c-20.059,32.087-36.511,71.494-46.758,115.254
							C67.398,561.105,63.081,609,64.578,657.69c1.451,48.71,8.617,98.213,20.332,145.805
							c11.696,47.612,27.937,93.322,47.174,134.908c19.213,41.614,41.447,79.077,64.535,110.74
							c11.535,15.844,23.271,30.247,34.84,43.118c5.783,6.438,11.53,12.488,17.186,18.158c2.826,2.835,5.628,5.57,8.407,8.212
							l2.589,2.45c9.028,8.445,14.851,13.267,14.837,13.28c0.009-0.01,6.402,6.392,15.436,14.696
							c9.016,8.331,20.84,18.375,30.887,26.545c8.653,6.713,14.354,11.152,17.409,14.186c3.075,3.015,3.5,4.62,1.932,5.156
							c-3.124,1.08-14.324-2.188-27.068-8.234c1.122,0.992-13.91-6.596-28.396-15.945c-14.575-9.201-28.514-20.039-28.505-20.039
							l-4.149-3.641l-4.825-4.346l-2.986-2.754l-5.259-4.966c-21.861-20.925-45.783-48.09-68.74-80.942
							c-22.989-32.812-45.023-71.261-64.022-113.737c-19.018-42.46-35.024-88.938-46.493-137.36
							c-11.479-48.401-18.43-98.763-19.618-148.555c-1.222-49.764,3.402-98.985,14.306-144.372
							c10.797-45.393,28.087-86.791,49.375-120.85C116.612,368.582,127.572,355.678,128.053,354.97z"/>
						<path id="Shape_50_" fill="#5D2649" stroke="#5D2649" stroke-width="6.3" d="M799.611,1260.559
							c-0.594-0.02-0.814-0.027-1.578-0.637c-5.352-3.604-12.792-12.692,0.279-22.852c0.238-0.187,1.367-0.856,1.93-0.944
							c0.82,0.015,16.941,0.493,40.315,0.707c44.616,0.388,94.14-0.422,146.522-3.165c52.374-2.754,107.616-7.42,163.428-15.101
							c27.895-3.852,55.929-8.476,83.726-14.118l10.661-2.174l10.503-1.972c6.878-1.354,13.728-2.845,20.531-4.461
							c13.614-3.229,27.05-7.012,40.225-11.347c26.352-8.675,51.641-19.654,75.123-32.895c23.494-13.221,45.16-28.67,64.585-45.676
							c38.967-34.012,68.6-74,91.114-112.593c11.288-19.326,20.88-38.35,29.173-56.458c4.148-9.058,7.962-17.894,11.498-26.44
							l5.093-12.596l1.397-3.567c4.549-11.676,7.134-18.912,7.145-18.904l8.815-19.799l3.996-9.043l2.05-4.6l0.114-0.151
							c0.03-0.057,0.056-0.028,0.139-0.333l0.432-1.37l0.914-2.725c2.519-7.249,5.794-14.051,8.752-19.851
							c4.849-9.864,7.314-16.014,8.853-19.952c1.557-3.877,2.656-5.081,3.881-3.892c1.162,1.175,2.304,4.862,2.371,10.197
							c0.115,5.325-1.026,12.07-2.589,18.809c0.38-0.648-0.574,3.083-1.916,8.72c-0.661,2.82-1.38,6.125-1.986,9.675l-0.426,2.705
							l-0.19,1.382l-0.173,1.103c-0.066,0.468-0.213,0.888-0.335,1.327l-1.615,6.198c-4.271,16.384-9.312,32.986-9.325,32.983
							l-1.895,5.097l-2.271,5.986l-4.227,10.832c-12.649,31.684-29.401,69.164-53.424,108.282
							c-23.946,39.008-55.732,79.68-97.332,114.16c-20.725,17.237-43.785,32.823-68.583,46.082
							c-24.786,13.288-51.297,24.201-78.673,32.762c-13.688,4.282-27.599,7.973-41.633,11.139
							c-7.016,1.582-14.064,3.025-21.136,4.346c-3.451,0.609-6.807,1.229-10.188,1.977l-10.417,2.111
							c-27.94,5.526-56.007,10.053-83.894,13.827c-111.59,14.942-219.978,18.584-309.02,17.903
							C816.765,1261.053,800.453,1260.572,799.611,1260.559z"/>
						<path id="Shape_51_" fill="#5D2649" stroke="#5D2649" stroke-width="6.3" d="M416.162,1201.523
							c-0.045-0.367-0.074-0.486,0.251-1.025c0.943-1.838,2.542-4.297,5.06-5.808c2.454-1.443,6.185-1.919,10.938,2.529
							c0.166,0.157,0.845,0.979,0.978,1.416c0.039,0.323,0.682,3.781,1.012,9.262c0.357,5.485,0.308,12.938-0.146,21.502
							c-0.423,8.29-1.135,16.861-1.646,25.609c-0.245,4.366-0.451,8.783-0.471,13.171c-0.009,4.447,0.093,9.029,0.307,13.653
							c0.87,18.521,3.61,38.093,7.966,57.729c4.349,19.644,10.299,39.354,17.457,58.265c1.885,4.839,3.582,9.611,5.476,14.111
							c1.88,4.558,3.89,9.029,6.015,13.393c4.244,8.734,8.96,17.051,14.021,24.852c10.113,15.623,21.598,29.152,32.991,40.436
							c5.688,5.657,11.352,10.759,16.805,15.354c2.718,2.302,5.406,4.462,8.004,6.512l5.515,4.239
							c7.069,5.307,11.591,8.321,11.581,8.336c0.006-0.008,5.048,4.078,12.085,9.428c7.016,5.371,16.075,11.948,23.568,17.508
							c12.921,9.052,16.451,12.718,14.183,13.525c-2.23,0.76-10.153-1.515-19.341-5.351c0.821,0.654-10.006-4.204-20.789-9.913
							c-10.821-5.617-21.503-12.206-21.494-12.213l-3.21-2.268l-3.75-2.715l-5.639-4.227c-9.942-7.606-21.462-17.281-33.185-29.31
							c-11.706-12.023-23.581-26.458-33.999-43.116c-5.212-8.317-10.069-17.17-14.431-26.436c-2.183-4.632-4.243-9.369-6.167-14.189
							c-1.94-4.934-3.617-9.451-5.475-14.332c-7.205-19.372-13.2-39.549-17.586-59.748c-4.409-20.189-7.168-40.42-8.053-59.781
							c-0.212-4.854-0.303-9.607-0.29-14.369c0.034-4.796,0.26-9.403,0.512-13.878c0.528-8.942,1.221-17.337,1.619-25.177
							c0.432-8.178,0.452-14.911,0.149-19.537C416.683,1204.326,416.188,1201.783,416.162,1201.523z"/>
						<path id="Shape_52_" fill="#5D2649" stroke="#5D2649" stroke-width="6.3" d="M779.886,1239.761
							c0.448-0.015,0.613-0.015,1.221,0.387c2.091,1.141,4.583,3.339,5.304,6.159c0.749,2.85-0.286,6.258-4.481,10.142
							c-0.155,0.146-0.882,0.663-1.256,0.751c-0.53,0.073-11.47,0.258-27.19,3.685c-17,3.7-35.554,10.159-54.031,19.425
							c-18.439,9.271-36.931,21.333-52.955,36.38c-7.979,7.527-15.331,15.802-21.377,24.796c-3.012,4.501-5.729,9.164-7.966,13.967
							c-2.275,4.909-4.41,10.149-6.292,15.341c-7.559,20.893-11.944,42.688-13.898,63.516c-1.942,20.862-1.386,40.797,0.92,58.54
							c1.167,8.873,2.755,17.197,4.64,24.857c0.955,3.825,1.967,7.488,3.038,10.975l1.645,5.088l0.696,2.008
							c2.887,8.169,5.133,12.956,5.118,12.962c0.024-0.014,2.056,5.979,5.527,13.833c3.458,7.851,8.652,17.404,13.612,25.053
							c4.33,6.374,7.423,10.453,8.966,13.094c1.574,2.627,1.599,3.816,0.416,3.915c-2.315,0.183-9.668-4.063-17.096-11.162
							c0.566,0.946-8.196-7.692-15.345-18.063c-7.309-10.237-12.959-21.829-12.938-21.826l-1.544-3.712
							c-0.466-1.208-1.086-2.669-1.709-4.401l-1.027-2.771l-1.438-4.149c-4.508-13.53-8.438-30.112-10.461-48.834
							c-2.045-18.71-2.271-39.522,0.068-61.262c2.361-21.717,7.19-44.402,15.509-66.484c2.14-5.571,4.265-10.866,7.079-16.513
							c2.759-5.535,5.972-10.779,9.454-15.78c7.007-9.979,15.145-18.924,23.84-26.953c17.431-16.065,36.956-28.617,56.424-38.354
							c19.515-9.695,39.093-16.526,57.414-20.521C766.862,1240.092,779.274,1239.834,779.886,1239.761z"/>
						<path id="Shape_53_" fill="#5D2649" stroke="#5D2649" stroke-width="6.3" d="M399.779,1187.218
							c0.166-0.429,0.241-0.585,0.86-0.989c1.917-1.489,4.981-2.877,7.84-2.338c2.905,0.518,5.521,2.94,7.384,8.246
							c0.071,0.194,0.248,1.051,0.189,1.424c-0.146,0.482-4.359,10.283-6.615,26.07c-2.515,17.136-2.456,36.899-0.453,57.768
							c1.994,20.891,5.901,42.936,11.019,65.172c2.562,11.12,5.426,22.299,8.528,33.434c1.551,5.578,3.152,11.104,4.818,16.682
							c1.605,5.49,3.326,10.695,5.322,15.902c7.898,20.764,19.422,39.693,32.433,56.157c13.014,16.49,27.364,30.644,41.005,42.813
							c6.825,6.089,13.498,11.684,19.819,16.828l9.218,7.367l6.13,4.783l11.538,8.823c-0.055,0.035,20.115,17.252,33.532,30.507
							c23.051,22.019,10.582,17.404-6.266,7.367c1.454,1.541-39.599-25.252-39.584-25.393l-12.3-9.435
							c-10.917-8.52-23.875-18.908-37.66-31.456c-13.762-12.543-28.362-27.326-41.75-44.83
							c-13.372-17.466-25.343-37.843-33.484-60.22c-2.059-5.531-3.835-11.416-5.433-16.843c-1.641-5.549-3.237-11.12-4.779-16.714
							c-3.076-11.181-5.938-22.429-8.494-33.663c-5.11-22.463-9.034-44.861-11.054-66.43c-2.023-21.553-2.121-42.319,0.624-61.139
							C394.624,1199.614,399.58,1187.792,399.779,1187.218z"/>
						<path id="Shape_54_" fill="#5D2649" stroke="#5D2649" stroke-width="6.3" d="M797.966,1243.881
							c0.642,0.373,0.89,0.563,1.452,1.464c1.028,1.52,1.744,3.49,1.735,5.263c0.023,1.781-0.63,3.309-1.7,4.302
							c-1.093,0.994-2.564,1.536-4.334,1.832c-1.723,0.313-3.804,0.556-5.387,1.754c-0.118,0.071-0.542,0.388-0.651,0.408
							c-0.115,0.054-0.326-0.612-3.804-0.761c-3.388-0.137-9.562,1.028-16.838,3.712c-15.233,5.624-31.889,15.045-48.772,25.897
							c-16.898,10.936-34.221,23.553-50.979,37.339c-8.358,6.907-16.606,14.108-24.268,21.658
							c-3.808,3.772-7.506,7.653-10.666,11.556c-1.555,1.929-3.005,3.922-3.927,5.584l-0.212,0.389l-0.324,0.76l-0.733,1.739
							l-1.437,3.648c-7.372,19.696-11.392,40.787-13.686,60.776c-2.251,20.059-2.591,39.272-1.556,56.518
							c0.516,8.624,1.385,16.76,2.51,24.285c0.566,3.762,1.188,7.377,1.877,10.817l1.055,5.044l0.469,2.057
							c1.988,8.477,3.685,13.48,3.664,13.488c0.026-0.008,1.347,6.201,3.933,14.346c2.536,8.167,6.66,18.13,11.066,25.976
							c3.857,6.554,6.867,10.629,8.394,13.259c1.56,2.606,1.638,3.783,0.448,3.902c-2.33,0.268-9.865-4.096-16.908-11.83
							c0.488,1.029-7.81-8.385-13.797-19.561c-6.205-11.041-10.433-23.198-10.438-23.18l-1.112-3.853l-1.213-4.554l-0.7-2.859
							l-0.963-4.201c-5.916-26.582-8.704-64.227-3.558-105.647c2.654-20.687,6.909-42.373,15.316-63.763l1.737-4.147
							c0.88-1.938,1.806-3.382,2.7-4.749c1.815-2.725,3.695-5.066,5.612-7.324c3.837-4.494,7.826-8.564,11.886-12.516
							c8.131-7.874,16.567-15.171,25.106-22.179c17.095-13.967,34.594-26.679,51.888-37.836
							c17.361-11.079,34.311-20.792,51.629-27.229c8.45-3.07,16.354-4.908,23.134-4.769c3.356,0.043,6.413,0.662,8.621,1.451
							C796.442,1242.923,797.746,1243.766,797.966,1243.881z"/>
						<path id="Shape_55_" fill="#5D2649" stroke="#5D2649" stroke-width="6.3" d="M784.242,1254.119
							c0.485,0.02,0.661,0.031,1.28,0.474c2.159,1.3,4.541,3.797,4.892,6.694c0.405,2.955-1.224,6.09-5.381,9.625
							c-0.153,0.135-0.858,0.603-1.2,0.656c-0.437,0.033-10.606-0.656-25.544,4.267c-22.487,7.269-48.542,23.538-71.509,44.359
							c-5.726,5.222-11.269,10.744-16.33,16.541c-4.76,5.405-9.184,12.096-13.31,18.604c-8.217,13.188-15.123,27.077-20.881,40.597
							c-5.755,13.522-10.355,26.717-13.886,38.828c-1.775,6.05-3.277,11.843-4.544,17.271c-0.643,2.714-1.207,5.339-1.729,7.871
							l-1.101,5.631c-1.599,8.655-2.191,13.98-2.207,13.98c0.024,0.002-1.355,6.286-2.662,14.871
							c-1.356,8.586-2.403,19.482-2.682,28.595c-0.058,7.71,0.172,12.8-0.025,15.849c-0.146,3.043-0.788,4.053-1.824,3.476
							c-2.069-1.11-5.745-8.844-7.807-18.89c-0.108,1.096-2.314-10.97-2.594-23.415c-0.466-12.438,0.668-25.063,0.659-25.058
							l0.572-3.919l0.744-4.6l1.214-6.659c3.697-19.27,10.898-45.54,23.024-73.368c6.058-13.91,13.295-28.222,22.09-42.097
							c2.206-3.466,4.508-6.902,6.938-10.287c1.202-1.662,2.47-3.381,3.838-5.147c1.48-1.801,2.793-3.311,4.194-4.899
							c5.576-6.251,11.468-12.058,17.539-17.535c24.317-21.762,51.314-38.824,76.915-47.199c8.539-2.774,16.221-4.205,21.849-4.739
							C780.399,1253.945,783.911,1254.136,784.242,1254.119z"/>
						<path id="Shape_56_" fill="#5D2649" stroke="#5D2649" stroke-width="6.3" d="M403.043,1187.056
							c0.658-0.524,0.95-0.687,2.083-0.9c1.924-0.435,4.145-0.262,5.834,0.534c1.713,0.769,2.838,2.096,3.199,3.512
							c0.348,1.439,0.057,2.979-0.497,4.676c-0.492,1.639-1.097,3.649-0.359,5.456c0.041,0.126,0.282,0.573,0.34,0.627
							c-0.028,0.045,0.071-0.106-0.09,0.099c-0.209,0.273-0.722,1.041-1.262,2.684c-1.115,3.26-1.87,9.637-1.686,17.48
							c0.487,18.819,4.247,40.533,8.945,63.182c4.79,22.706,10.809,46.6,17.506,70.801c3.354,12.097,6.881,24.278,10.561,36.413
							c3.687,12.065,7.489,24.376,11.586,35.835c8.849,22.898,19.798,45.05,32.04,64.569c12.249,19.591,25.908,36.751,39.697,50.859
							c6.882,7.071,13.797,13.374,20.502,18.956c3.349,2.797,6.661,5.396,9.891,7.824l4.781,3.523l1.812,1.281
							c7.173,5.064,11.802,7.804,11.782,7.835c0.01-0.019,5.164,3.832,12.443,8.688c7.264,4.871,16.728,10.663,24.731,15.326
							c6.842,3.812,11.35,6.35,13.821,8.18c2.483,1.821,2.94,2.917,1.889,3.453c-2.092,1.055-10.328-0.074-19.958-2.953
							c0.894,0.578-10.516-3.124-21.792-8.117c-11.309-4.881-22.366-11.078-22.344-11.1l-3.329-2.155l-3.876-2.593l-2.404-1.654
							l-3.664-2.609c-12.56-9.043-26.768-21.007-40.844-36.029c-14.092-14.995-27.964-33.066-40.35-53.457
							c-6.197-10.193-12.035-20.95-17.438-32.126c-2.702-5.591-5.296-11.281-7.779-17.062c-2.467-5.86-4.879-11.443-7.105-17.822
							c-8.169-23.989-15.279-48.232-21.987-72.352c-6.634-24.092-12.623-47.919-17.42-70.795c-4.704-22.92-8.57-44.713-9.146-65.579
							c-0.161-8.902,0.467-16.797,2.522-23.193c1.022-3.189,2.51-6.007,4.061-7.986
							C401.33,1188.303,402.864,1187.211,403.043,1187.056z"/>
						<path id="Shape_57_" fill="#5D2649" stroke="#5D2649" stroke-width="6.3" d="M402.755,1186.328
							c0.068-0.611,0.096-0.829,0.776-1.562c2.027-2.567,5.522-5.518,9.579-6.001c4.078-0.506,8.674,1.473,13.174,8.266
							c0.165,0.25,0.727,1.397,0.774,1.955c-0.03,0.785-2.09,16.396-2.278,39.182c-0.368,33.489,4.191,74.537,15.843,115.524
							c11.425,41.027,29.809,81.681,50.888,115.667c10.494,17.035,21.548,32.466,32.264,45.88
							c5.357,6.706,10.619,12.914,15.678,18.591c2.523,2.846,5.003,5.547,7.406,8.119l5.443,5.721
							c8.614,8.87,14.19,13.992,14.182,14.001c0.009-0.007,6.086,6.708,14.695,15.499c8.583,8.817,19.841,19.568,29.329,28.438
							c8.192,7.311,13.53,12.208,16.336,15.48c2.818,3.258,3.104,4.895,1.494,5.296c-3.2,0.812-14.049-3.359-26.309-10.223
							c1.052,1.053-13.359-7.508-27.272-17.602c-13.993-9.97-27.374-21.438-27.363-21.446l-3.965-3.835l-4.607-4.571l-6.554-6.732
							c-18.435-19.229-42.246-47.828-63.619-83.275c-21.5-35.315-40.288-77.446-52.002-120.104
							c-11.946-42.602-16.675-85.428-16.298-120.595C400.534,1203.829,402.721,1187.184,402.755,1186.328z"/>
						<path id="Shape_58_" fill="#5D2649" stroke="#5D2649" stroke-width="6.3" d="M784.855,1265.186
							c0.519-0.218,0.699-0.31,1.616-0.076c3.044,0.521,7.209,1.904,9.889,5c2.641,3.085,3.861,8.008-0.045,15.625
							c-0.143,0.279-0.919,1.405-1.418,1.736c-0.396,0.166-4.483,2.053-11.312,4.782c-6.823,2.746-16.407,6.233-27.54,10.071
							c-18.143,6.269-41.34,14.098-60.989,25.73c-9.862,5.734-18.846,12.261-26.233,18.9c-7.419,6.608-13.256,13.286-17.486,18.836
							c-7.708,10.205-11.2,17.433-11.257,17.383c0.028,0.021-4.811,7.092-10.021,17.745c-5.309,10.589-10.583,24.929-14.417,37.216
							c-3.014,10.456-4.909,17.436-6.553,21.412c-1.604,3.99-2.927,4.997-4.024,3.754c-2.166-2.477-3.522-14.047-2.61-28.236
							c-0.463,1.433,0.808-15.506,5.323-32.664c2.193-8.57,5.17-17.122,7.817-23.439c2.642-6.316,4.787-10.438,4.778-10.438
							c0.048,0.036,3.713-7.057,11.591-17.495c4.748-6.254,11.487-14.009,20.039-21.728c8.526-7.733,18.88-15.326,30.062-21.9
							c22.388-13.352,47.845-21.859,65.957-28.142c11.058-3.821,20.127-7.128,26.468-9.685
							C780.83,1267.038,784.482,1265.341,784.855,1265.186z"/>
						<path id="Shape_59_" fill="#5D2649" stroke="#5D2649" stroke-width="6.3" d="M621.666,1142.84
							c-0.288-0.304-0.388-0.416-0.47-1.097c-0.845-4.37-0.367-12.909,11.513-11.582c0.218,0.028,1.144,0.258,1.479,0.507
							c0.396,0.441,8.722,8.835,19.883,21.683c11.225,12.72,28.416,34.435,36.575,44.981l9.913,12.748
							c0.031,0.004,14.769,22.053,24.516,37.998c8.594,13.277,10.405,18.02,8.013,17.904c-2.353-0.148-8.796-5.289-15.854-12.249
							c0.498,0.923-7.631-7.656-15.681-16.614l-16.126-18.172l-8.501-10.917c-7.752-10.005-24.973-31.736-36.019-44.228
							C630.062,1151.34,622.058,1143.279,621.666,1142.84z"/>
						<path id="Shape_60_" fill="#5D2649" stroke="#5D2649" stroke-width="6.3" d="M599.071,1194.585
							c-0.218-0.349-0.296-0.472-0.232-1.154c0.028-2.226,0.585-5.339,2.521-7.537c1.933-2.173,5.295-3.462,11.049-1.553
							c0.208,0.071,1.072,0.493,1.357,0.808c0.34,0.492,6.866,10.62,14.875,25.572c5.903,10.945,15.121,28.789,19.847,37.139
							c4.777,8.558,7.947,13.64,7.942,13.643c0.015-0.01,2.92,5.786,7.225,13.34c4.282,7.568,10.194,16.734,15.729,23.939
							c4.812,5.988,8.262,9.727,10.067,12.193c1.83,2.437,2.004,3.605,0.833,3.838c-2.306,0.485-10.113-3.082-18.113-9.594
							c0.616,0.93-8.781-7.092-16.731-16.702c-8.08-9.498-15.053-19.964-15.065-19.942c0.003,0-2.812-4.6-7.082-12.234
							c-4.69-8.248-14.174-26.539-20.003-37.314C605.454,1204.421,599.396,1195.065,599.071,1194.585z"/>
						<path id="Shape_61_" fill="#5D2649" stroke="#5D2649" stroke-width="6.3" d="M566.551,1254.713
							c-0.081-0.176-0.115-0.236,0.149-0.651c1.382-2.729,6.03-7.571,14.486-7.54c0.154,0,0.746,0.064,0.888,0.176
							c0.117,0.205,2.079,4.146,5.367,9.763c3.267,5.627,7.923,12.903,12.951,19.956c10.011,14.133,21.338,27.485,21.304,27.512
							c-0.022,0.002,5.92,9.898,9.157,17.752c6.082,12.801-0.402,11.174-7.509,6.06c0.279,0.97-15.707-13.427-15.684-13.497
							c0.038-0.025-11.358-13.449-21.769-28.145c-5.212-7.324-10.118-14.984-13.59-20.968
							C568.8,1259.171,566.678,1254.932,566.551,1254.713z"/>
						<path id="Shape_62_" fill="#5D2649" stroke="#5D2649" stroke-width="6.3" d="M545.244,1319.188
							c-0.1-0.135-0.137-0.186,0.056-0.621c0.959-2.781,4.765-8.205,12.787-10.152c0.146-0.039,0.716-0.116,0.865-0.05
							c0.134,0.157,2.486,3.22,6.266,7.533c3.751,4.324,8.989,9.863,14.475,15.231c10.973,10.701,22.683,21.11,22.642,21.164
							c-0.012-0.011,6.351,8.219,9.694,15.14c6.124,11.198-0.149,10.409-6.857,6.792c0.351,0.754-15.182-9.729-15.235-9.709
							c0.047-0.045-11.408-10.193-22.752-21.256c-5.652-5.529-11.175-11.354-15.188-15.975
							C547.957,1322.687,545.387,1319.359,545.244,1319.188z"/>
						<path id="Shape_63_" fill="#5D2649" stroke="#5D2649" stroke-width="6.3" d="M539.024,1387.329
							c-0.118-0.12-0.166-0.162-0.039-0.616c0.582-2.832,3.194-9.062,11.06-12.012c0.146-0.053,0.724-0.19,0.897-0.135
							c0.37,0.279,12.761,12.031,24.271,24.12c11.548,12.075,22.86,23.794,22.894,23.764c0,0.011,6.169,8.807,9.752,15.864
							c6.696,11.383,0.439,10.84-6.844,6.804c0.286,0.937-16.009-11.071-15.953-11.135l-22.704-23.524
							C551.114,1398.689,539.387,1387.607,539.024,1387.329z"/>
						<path id="Shape_64_" fill="#5D2649" stroke="#5D2649" stroke-width="6.3" d="M543.76,1459.532
							c-0.075-0.085-0.105-0.116,0.088-0.518c1.018-2.476,4.457-8,11.502-11.591c0.129-0.066,0.63-0.271,0.756-0.242
							c0.236,0.187,7.914,8.09,15.692,15.242c7.752,7.255,16.004,13.191,16.023,13.153c-0.004,0.023,4.336,5.249,7.225,9.866
							c2.628,3.586,2.998,5.808,1.827,7.135c-1.145,1.307-3.811,1.642-6.72,1.184c0.159,0.311-3.116-0.584-6.396-1.768
							c-3.281-1.162-6.525-2.613-6.525-2.61c-0.031,0.051-9.294-6.697-17.423-14.312C551.593,1467.52,544,1459.719,543.76,1459.532z
							"/>
						<path id="Shape_65_" fill="#5D2649" stroke="#5D2649" stroke-width="6.3" d="M560.969,1516.691
							c-0.075-0.042-0.104-0.058-0.015-0.486c0.439-2.55,2.128-8.807,7.345-14.58c0.094-0.104,0.482-0.467,0.594-0.49
							c0.262,0.064,8.586,4.491,16.25,9.06c7.698,4.577,15.125,8.677,15.145,8.657c0.001,0.009,4.019,4.186,6.452,8.252
							c4.521,6.171,0.661,8.653-4.263,8.653c0.246,0.63-10.892-1.752-10.872-1.839c-0.016,0.04-7.944-4.352-15.448-8.793
							C568.617,1520.663,561.196,1516.756,560.969,1516.691z"/>
					</g>
				</g>
			</g>
		</g>
	</g>
</g>
<g id="Layer_2">
	<g>
		<g>
			<path fill="#232734" d="M407.807,1207.859c0.129,94.995,23.595,190.324,64.748,275.808
				c39.692,82.447,98.38,162.507,181.075,205.755c0.376,0.194,0.753,0.39,1.129,0.584c4.964,2.567,9.04,3.876,14.566,1.709
				c5.489-2.151,9.781-6.754,12.523-11.858c3.083-5.74,4.499-12.516,3.688-19.002c-0.576-4.599-2.883-11.843-7.459-14.21
				c-19.088-9.872-36.957-21.852-53.623-35.401c-8.535-6.939-16.694-14.332-24.563-22.015c-1.911-1.866-3.792-3.761-5.665-5.665
				c-3.298-3.355,3.105,3.243-0.153-0.161c-0.929-0.971-1.849-1.951-2.768-2.931c-4.009-4.272-7.905-8.649-11.732-13.084
				c-15.042-17.431-28.622-36.1-41.023-55.487c-6.332-9.9-12.299-20.032-17.992-30.312c-1.375-2.482-2.723-4.98-4.061-7.482
				c-0.67-1.253-1.332-2.512-1.993-3.77c2.746,5.224,0.427,0.798-0.097-0.223c-2.822-5.496-5.541-11.044-8.194-16.623
				c-9.829-20.658-18.448-41.887-26.023-63.47c-3.771-10.743-7.23-21.595-10.443-32.518c-1.596-5.427-3.105-10.878-4.562-16.344
				c-0.725-2.721-1.424-5.448-2.114-8.179c-0.344-1.361-0.68-2.725-1.015-4.089c-1.206-4.903,1.218,5.143,0.056,0.234
				c-5.069-21.402-8.987-43.078-11.749-64.898c-1.333-10.528-2.339-21.099-3.065-31.686c-0.355-5.176-0.615-10.357-0.813-15.541
				c-0.098-2.56-0.167-5.12-0.225-7.681c-0.11-4.852,0.083,6.018,0.025,1.178c-0.021-1.685-0.025-3.369-0.027-5.055
				c-0.014-10.416-3.925-24.139-17.12-23.318C417.319,1182.858,407.792,1196.693,407.807,1207.859L407.807,1207.859z"/>
		</g>
	</g>
	<g>
		<g>
			<path fill="#232734" d="M697.744,1654.712c-15.716-44.997-30.045-90.767-35.976-138.218
				c-5.147-41.175-2.725-89.797,19.23-125.983c1.899-3.13,4.034-6.111,6.232-9.036c-3.729,4.963,0.051,0.017,0.767-0.821
				c1.209-1.418,2.48-2.781,3.75-4.144c2.577-2.766,5.327-5.364,8.119-7.909c0.884-0.807,5.896-5.007,0.708-0.731
				c2.009-1.656,4.086-3.229,6.17-4.791c6.452-4.837,13.297-9.137,20.27-13.174c0.843-0.488,6.96-3.83,1.396-0.854
				c1.856-0.993,3.735-1.942,5.614-2.892c4.458-2.253,8.999-4.339,13.562-6.369c16.964-7.548,34.59-13.566,52.363-18.889
				c-4.816,1.442,2.393-0.663,2.737-0.761c2.193-0.621,4.394-1.22,6.593-1.818c4.4-1.198,8.817-2.333,13.239-3.449
				c9.514-2.402,19.081-4.593,28.666-6.691c35.301-7.729,71.025-14.547,106.716-20.217c45.4-7.212,90.061-10.138,135.519-12.136
				c91.249-4.012,183.723-3.651,273.285-23.792c88.722-19.952,171.817-62.166,233.989-129.36
				c55.437-59.915,94.154-134.027,121.698-210.365c27.665-76.676,44.182-157.915,50.621-239.114
				c6.392-80.583-0.053-161.2-23.89-238.671c-49.263-160.107-167.346-291.834-318.028-363.596
				c-85.01-40.486-180.395-55.217-273.655-60.199c-94.692-5.058-189.524,0.54-284.207,2.898
				c-174.372,4.343-353.973-5.128-519.81,59.163c-39.203,15.198-78.34,35.012-111.532,61.033
				c-32.772,25.691-61.053,55.796-85.792,89.239c-47.958,64.83-79.017,141.788-98.514,219.613
				c-19.744,78.814-28.357,160.266-27.583,241.449c0.425,44.523,4.08,88.734,13.458,132.324
				c10.205,47.431,27.051,93.183,48.299,136.74c15.178,31.112,33.996,59.503,52.656,88.537
				c17.966,27.955,37.674,54.788,60.496,78.993c25.099,26.619,51.898,50.02,86.897,62.389c31.769,11.228,65.9,12.587,96.962,26.355
				c-2.707-1.98-5.413-3.961-8.119-5.94c5.041,5.864,8.186,12.923,16.668,14.489c12.581,2.325,25.067-2.376,32.124-13.537
				c5.176-8.186,5.523-23.99-6.899-26.285c1.282,1.089,2.563,2.179,3.845,3.269c-0.779-1.279-1.597-2.532-2.454-3.761
				c-2.556-3.797-5.801-6.224-9.94-8.059c-5.29-2.345-10.646-4.437-16.119-6.314c-11.11-3.812-22.643-6.309-34.129-8.674
				c-21.319-4.392-43.568-8.092-63.172-18.063c-20.592-10.475-38.342-27.222-54.2-43.812c-15.747-16.473-29.85-34.448-43.021-53.021
				c-27.526-38.817-53.366-79.208-73.848-122.22c-20.21-42.441-34.456-87.827-43.39-133.935
				c-15.379-79.372-12.039-163.519-1.971-243.393c5.112-40.556,12.388-77.595,23.167-116.493
				c5.39-19.453,11.642-38.662,18.647-57.591c3.335-9.011,6.912-17.932,10.644-26.786c1.856-4.406,3.789-8.78,5.748-13.142
				c0.977-2.175,1.979-4.339,2.982-6.502c0.357-0.771,3.844-8.072,2.574-5.472c8.625-17.665,18.262-34.828,28.769-51.439
				c4.994-7.896,10.265-15.613,15.706-23.206c2.71-3.781,5.505-7.501,8.329-11.199c0.162-0.212,4.881-6.225,1.835-2.403
				c1.927-2.418,3.898-4.801,5.875-7.178c12.338-14.83,25.779-28.725,40.063-41.684c3.434-3.115,6.95-6.139,10.492-9.129
				c-4.328,3.654,1.599-1.252,2.051-1.616c1.813-1.458,3.653-2.882,5.493-4.306c8.348-6.462,17.381-12.177,26.342-17.739
				c17.659-10.96,30.196-17.273,51.173-26.46c19.33-8.465,39.232-15.587,59.376-21.846c5.139-1.597,5.028-1.548,11.252-3.298
				c4.976-1.399,9.975-2.715,14.98-4.006c10.926-2.816,21.929-5.325,32.966-7.665c21.465-4.55,43.123-8.167,64.849-11.214
				c84.472-11.849,168.188-13.418,254.181-13.58c92.832-0.174,185.545-5.711,278.372-5.767
				c92.938-0.057,187.067,5.802,276.359,33.34c81.248,25.057,155.116,70.802,217.013,128.777
				c116.445,109.066,179.688,266.661,175.53,426.067c-2.07,79.379-14.899,156.608-37.531,231.686
				c-5.913,19.618-12.614,38.996-19.989,58.111c-3.517,9.115-7.252,18.145-11.124,27.114c-3.619,8.384-9.084,20.217-11.691,25.523
				c-8.764,17.839-18.432,35.228-28.898,52.122c-4.934,7.964-10.12,15.77-15.466,23.463c-2.647,3.81-5.373,7.564-8.125,11.3
				c-1.369,1.858-2.766,3.697-4.161,5.535c-0.501,0.66-6.089,7.78-3.187,4.146c-11.768,14.736-24.551,28.649-38.186,41.673
				c-3.225,3.079-6.529,6.073-9.859,9.037c-1.66,1.477-3.346,2.922-5.031,4.368c-5.61,4.811,4.04-3.269-1.678,1.395
				c-9.463,7.717-19.551,14.72-29.744,21.429c-34.702,22.842-76.862,40.511-116.646,51.086
				c-87.358,23.221-176.296,23.31-265.834,26.847c-47.321,1.869-94.694,4.521-141.674,10.7
				c-37.134,4.885-74.131,12.314-110.822,19.802c-72.141,14.721-153.959,34.325-207.453,88.591
				c-37.953,38.5-49.821,96.644-48.264,148.993c1.759,59.169,19.273,116.345,38.641,171.798
				C661.081,1698.846,705.603,1677.215,697.744,1654.712L697.744,1654.712z"/>
		</g>
	</g>
</g>
<g id="Layer_3">
	<g>
		<g>
			<path fill="#232734" d="M1606.7,572.305c25.672,35.557,63.643,62.527,103.313,80.336c6.863,3.081,13.286-6.54,14.617-11.743
				c1.838-7.182-0.285-14.226-7.18-17.321c-35.789-16.066-70.251-41.592-93.327-73.553c-4.363-6.043-12.303-3.636-16.246,1.397
				C1603.353,557.199,1602.276,566.177,1606.7,572.305L1606.7,572.305z"/>
		</g>
	</g>
	<g>
		<g>
			<path fill="#232734" d="M1619.676,654.931c36.871,28.72,72.249,59.468,111.144,85.495c5.834,3.904,12.811,1.873,15.131-4.918
				c2.356-6.899-0.416-16.063-6.559-20.174c-38.895-26.027-74.272-56.775-111.144-85.495c-5.616-4.375-12.937-1.503-15.131,4.918
				C1610.631,642.035,1613.774,650.334,1619.676,654.931L1619.676,654.931z"/>
		</g>
	</g>
	<g>
		<g>
			<path fill="#232734" d="M1592.168,723.518c9.334,9.385,16.524,17.851,25.522,28.435c9.903,11.649,19.786,23.302,30.031,34.654
				c19.17,21.243,40.494,41.79,66.77,53.938c6.863,3.173,12.777-4.101,14.212-9.966c1.666-6.814-0.318-15.553-7.181-18.726
				c-23.479-10.856-44.151-31.391-61.38-50.582c-18.753-20.89-35.865-43.304-55.684-63.228c-5.306-5.334-12.938-0.642-15.577,4.817
				C1585.543,709.766,1586.791,718.112,1592.168,723.518L1592.168,723.518z"/>
		</g>
	</g>
	<g>
		<g>
			<path fill="#232734" d="M1512.902,772.492c5.717,16.699,16.248,30.448,28.088,43.342c13.657,14.873,29.178,28.012,44.83,40.714
				c30.719,24.931,64.382,47.119,92.502,75.084c5.332,5.304,14.433,0.447,18.303-4.068c4.446-5.188,6.562-13.396,1.219-18.711
				c-27.102-26.952-59.422-48.547-89.169-72.396c-15.569-12.482-30.865-25.423-44.75-39.783
				c-6.618-6.846-10.489-11.331-15.46-18.326c-2.222-3.125-4.253-6.381-6.116-9.73c-0.951-1.711-1.812-3.47-2.633-5.246
				c-0.396-0.858-0.757-1.731-1.117-2.604c-1.197-2.906,0.785,2.371-0.216-0.555c-2.354-6.877-8.584-9.107-15.189-5.93
				C1517.428,757.056,1510.514,765.512,1512.902,772.492L1512.902,772.492z"/>
		</g>
	</g>
	<g>
		<g>
			<path fill="#232734" d="M1468.651,850.529c54.896,54.896,109.899,110.067,170.99,158.165c5.644,4.443,14.625,6.315,20.837,1.819
				c5.894-4.265,4.298-12.19-0.897-16.28c-61.091-48.099-116.095-103.269-170.99-158.166c-4.994-4.994-15.122-5.955-20.837-1.819
				C1461.387,838.855,1464.071,845.948,1468.651,850.529L1468.651,850.529z"/>
		</g>
	</g>
	<g>
		<g>
			<path fill="#232734" d="M1355.84,911.181c69.153,64.833,138.13,129.914,209.463,192.363c5.656,4.951,15.045,4.123,20.915,0.062
				c5.423-3.751,7.936-11.252,2.358-16.135c-71.332-62.448-140.309-127.53-209.463-192.363
				C1368.783,885.424,1343.129,899.264,1355.84,911.181L1355.84,911.181z"/>
		</g>
	</g>
	<g>
		<g>
			<path fill="#232734" d="M1348.674,1006.42c37.906,17.044,68.721,50.197,96.554,81.001c29.997,33.199,59.523,68.31,97.339,92.96
				c12.638,8.237,29.982-16.234,17.449-24.404c-74.988-48.881-115.823-138.996-199.383-176.568
				c-6.768-3.043-14.757,5.102-17.123,10.44C1340.586,996.443,1341.883,1003.366,1348.674,1006.42L1348.674,1006.42z"/>
		</g>
	</g>
	<g>
		<g>
			<path fill="#232734" d="M1236.879,993.545c86.478,53.88,133.158,152.028,220.066,205.619c2.142,1.32,4.314,2.589,6.494,3.844
				c6.519,3.752,14.067-3.095,16.722-8.481c2.995-6.076,3.07-14.67-3.46-18.429c-43.163-24.842-76.748-62.475-109.333-99.613
				c-33.785-38.506-67.702-77.176-110.733-105.7c-2.142-1.42-4.313-2.791-6.494-4.149c-6.383-3.977-14.159,3.281-16.722,8.481
				C1230.332,981.38,1230.479,989.557,1236.879,993.545L1236.879,993.545z"/>
		</g>
	</g>
	<g>
		<g>
			<path fill="#232734" d="M1145.135,1002.761c17.516,10.427,33.805,24.243,49.139,39.485
				c16.061,15.965,30.715,33.291,45.106,50.752c28.462,34.531,55.853,70.717,90.425,99.501
				c18.832,15.68,39.967,28.952,63.265,36.823c7.07,2.389,12.705-2.431,14.758-9.137c1.769-5.775,0.952-16.724-6.098-19.105
				c-41.07-13.876-71.64-42.678-100.362-74.941c-30.279-34.011-56.963-71.119-88.678-103.869
				c-17.635-18.211-37.066-34.757-58.895-47.751c-6.525-3.885-13.072,3.629-14.758,9.137
				C1136.902,990.63,1138.605,998.874,1145.135,1002.761L1145.135,1002.761z"/>
		</g>
	</g>
	<g>
		<g>
			<path fill="#232734" d="M1090.642,1031.72c77.594,60.58,134.005,142.52,200.913,213.736c9.835,10.47,34.637-6.019,23.602-17.764
				c-66.907-71.217-123.318-153.156-200.913-213.736c-6.005-4.688-14.099-3.691-20.04,0.776
				C1089.711,1018.11,1084.643,1027.036,1090.642,1031.72L1090.642,1031.72z"/>
		</g>
	</g>
	<g>
		<g>
			<path fill="#232734" d="M1019.809,1045.699c84.297,50.943,126.07,147.693,205.188,205.188
				c11.466,8.332,34.066-9.798,19.926-20.074c-38.148-27.721-68-66.776-97.943-103.413c-31.291-38.284-64.496-75.94-107.244-101.774
				c-6.425-3.883-15.584-1.251-20.571,3.781C1014.483,1034.127,1013.475,1041.871,1019.809,1045.699L1019.809,1045.699z"/>
		</g>
	</g>
	<g>
		<g>
			<path fill="#232734" d="M927.16,1037.31c62.092,86.751,139.094,160.285,220.399,228.794c11.147,9.393,35.265-4.212,20.908-16.309
				c-79.692-67.149-154.769-139.308-215.624-224.331C944.596,1013.939,917.002,1023.117,927.16,1037.31L927.16,1037.31z"/>
		</g>
	</g>
	<g>
		<g>
			<path fill="#232734" d="M872.499,1073.178c28.526,32.847,59.321,63.62,89.564,94.864c29.347,30.318,58.74,61.035,83.795,95.074
				c4.523,6.146,12.392,7.571,19.437,4.944c5.187-1.935,12.755-9.141,8.237-15.278c-52.168-70.874-119.639-128.545-177.17-194.788
				C887.069,1047.293,861.036,1059.979,872.499,1073.178L872.499,1073.178z"/>
		</g>
	</g>
	<g>
		<g>
			<path fill="#232734" d="M787.872,1080.137c61.416,70.906,119.675,145.749,190.725,207.502c5.444,4.731,13.062,1.031,15.077-5.079
				c2.521-7.644-1.065-15.143-6.772-20.103c-33.105-28.773-65.328-63.882-95.197-97.734
				c-30.562-34.636-60.016-70.225-90.255-105.139c-4.327-4.995-12.292-6.272-16.305-0.185
				C780.933,1065.787,783.171,1074.71,787.872,1080.137L787.872,1080.137z"/>
		</g>
	</g>
	<g>
		<g>
			<path fill="#232734" d="M712.892,1114.885c45.011,62.905,97.143,123.604,160.317,168.924c13.062,9.37,25.573-17.689,13.891-26.07
				c-61.637-44.218-112.104-103.143-156.013-164.508c-4.316-6.031-12.053-4.203-16.285,0.826
				C710.192,1099.534,708.515,1108.768,712.892,1114.885L712.892,1114.885z"/>
		</g>
	</g>
	<g>
		<g>
			<path fill="#232734" d="M649.684,1155.199c15.475,8.339,29.961,19.2,41.962,29.966c13.994,12.554,26.896,26.277,39.769,39.958
				c25.954,27.582,52.324,55.649,84.984,75.418c5.987,3.624,12.836,1.569,14.977-5.369c2.125-6.885-0.851-16.151-7.158-19.969
				c-31.717-19.198-56.036-45.836-81.731-73.129c-25.455-27.037-51.967-54.42-84.984-72.213
				C640.979,1120.957,636.84,1148.277,649.684,1155.199L649.684,1155.199z"/>
		</g>
	</g>
	<g>
		<g>
			<path fill="#232734" d="M625.302,1218.986c35.352,39.861,67.141,84.369,111.143,115.418c5.926,4.183,12.21,2.619,15.845-3.85
				c3.09-5.498,4.006-16.574-2.009-20.818c-44.002-31.05-75.792-75.558-111.143-115.42c-4.989-5.625-12.862-1.459-15.845,3.851
				C619.548,1204.831,620.247,1213.285,625.302,1218.986L625.302,1218.986z"/>
		</g>
	</g>
	<g>
		<g>
			<path fill="#232734" d="M588.327,1264.43c19.519,38.24,58.095,59.574,89.676,86.488c5.417,4.617,15.039,5.752,20.875,1.305
				c6.037-4.601,3.677-12.014-1.299-16.254c-14.966-12.755-31.135-23.99-46.361-36.419c-14.004-11.432-26.89-23.734-34.953-39.532
				c-3.454-6.766-11.385-10.292-18.827-9.111C591.315,1251.878,584.919,1257.754,588.327,1264.43L588.327,1264.43z"/>
		</g>
	</g>
	<g>
		<g>
			<path fill="#232734" d="M569.201,1343.882c28.97,20.744,56.525,43.376,85.496,64.121c6.217,4.452,13.978,3.683,20.032-0.955
				c4.309-3.301,9.618-12.574,3.41-17.02c-28.97-20.744-56.525-43.376-85.496-64.121c-6.217-4.452-13.978-3.683-20.032,0.955
				C568.302,1330.163,562.993,1339.437,569.201,1343.882L569.201,1343.882z"/>
		</g>
	</g>
	<g>
		<g>
			<path fill="#232734" d="M558.057,1416.223c18.833,15.139,36.009,32.118,53.077,49.186c5.363,5.362,14.131,6.094,20.75,2.631
				c5.55-2.904,9.612-10.433,4.322-15.723c-18.629-18.628-37.512-36.888-58.067-53.41
				C566.758,1389.759,543.433,1404.467,558.057,1416.223L558.057,1416.223z"/>
		</g>
	</g>
	<g>
		<g>
			<path fill="#232734" d="M566.393,1495.141c13.56,17.799,31.501,31.473,49.264,44.798c6.017,4.513,14.365-1.673,17.523-6.671
				c3.668-5.806,4.532-14.168-1.497-18.69c-16.245-12.185-32.377-24.415-44.78-40.696
				C577.187,1461.127,557.677,1483.699,566.393,1495.141L566.393,1495.141z"/>
		</g>
	</g>
	<g>
		<g>
			<path fill="#232734" d="M581.908,1566.9c13.841,18.169,31.939,32.407,52.253,42.702c6.672,3.382,12.566-2.805,13.606-8.987
				c1.237-7.361-2.175-15.481-8.939-18.909c-16.329-8.275-30.741-19.738-41.792-34.243c-3.994-5.243-11.725-7.265-16.241-1.448
				C576.149,1551.997,577.566,1561.202,581.908,1566.9L581.908,1566.9z"/>
		</g>
	</g>
	<g>
		<g>
			<path fill="#232734" d="M1428.414,887.48c19.477,35.806,50.693,64.968,81.213,91.305c32.069,27.674,66.315,53.358,102.383,75.607
				c12.052,7.434,34.458-11.217,19.631-20.363c-34.033-20.992-66.184-44.947-96.394-70.803
				c-16.328-13.975-32.073-28.68-46.693-44.44c-12.511-13.486-24.567-28.329-32.397-42.726c-3.604-6.626-11.65-7.37-18.154-4.693
				C1432.688,873.556,1424.82,880.874,1428.414,887.48L1428.414,887.48z"/>
		</g>
	</g>
</g>
</svg>
