<?xml version="1.0" encoding="utf-8"?>
<!-- Generator: Adobe Illustrator 15.0.2, SVG Export Plug-In . SVG Version: 6.00 Build 0)  -->
<!DOCTYPE svg PUBLIC "-//W3C//DTD SVG 1.1//EN" "http://www.w3.org/Graphics/SVG/1.1/DTD/svg11.dtd">
<svg version="1.1" xmlns="http://www.w3.org/2000/svg" xmlns:xlink="http://www.w3.org/1999/xlink" x="0px" y="0px" width="1700px"
	 height="1700px" viewBox="0 0 1700 1700" enable-background="new 0 0 1700 1700" xml:space="preserve">
<g id="Layer_1">
</g>
<g id="Layer_2_1_">
	<g>
		<path fill="#232734" d="M783.636,1480.832c12.954,14.268,25.793,29.686,42.761,39.342c17.062,9.709,36.335,10.459,55.07,5.805
			c17.552-4.363,34.204-12.859,48.668-23.643c14.095-10.508,27.13-25.049,31.161-42.594c0.954-4.15,0.398-10.266-4.564-11.639
			c-4.707-1.301-8.938,3.488-9.893,7.643c-2.833,12.322-13.238,22.734-24.238,30.936c-12.656,9.438-27.44,16.367-42.701,20.355
			c-15.362,4.012-31.819,2.84-45.705-5.062c-15.354-8.738-26.955-22.877-38.661-35.771
			C787.7,1457.574,777.285,1473.836,783.636,1480.832L783.636,1480.832z"/>
		<g>
			<path fill="#232734" d="M772.871,1491.277c19.533,21.566,39.206,43.896,69.211,49.512c30.127,5.639,62.414-7.363,87.041-23.836
				c12.559-8.398,23.789-18.574,32.679-30.824c7.705-10.619,16.669-27.76,11.894-41.176c-2.736-7.686-9.751-10.48-17.396-10.09
				c-9.68,0.492-17.808,9.824-21.319,18.041c-1.49,3.484-1.28,4.791-2.893,8.305c0.992-2.162-1.411,2.184-1.344,2.08
				c-0.873,1.338-1.873,2.59-2.863,3.84c1.669-2.107-1.878,1.865-1.792,1.777c-1.152,1.188-2.38,2.303-3.603,3.42
				c-1.229,1.121-2.515,2.178-3.798,3.234c1.301-1.07-3.071,2.219-3.628,2.615c-13.027,9.256-28.535,16.203-44.76,17.779
				c-15.924,1.545-29.718-5.889-41.235-16.186c-6.183-5.527-11.74-11.738-17.273-17.902c-5.756-6.412-10.62-12.088-20.039-11.137
				C774.198,1452.502,761.644,1477.094,772.871,1491.277c4.668,5.898,14.446,1.658,18.6-2.373c5.018-4.869,7.61-12.607,2.93-18.52
				c1.602,2.023,0.118-1.445,0.596,1.232c-0.516-2.891-0.42,2.322,0.145-0.633c-0.312,1.633-1.188,2.99-3.145,4.332
				c-2.173,1.492-4.827,2.115-7.251,1.189c-1.982-0.756,0.359,0.512,1.123,1.357c2.583,2.854,5.139,5.732,7.723,8.588
				c9.598,10.602,19.885,20.484,32.308,27.742c27.854,16.277,61.896,5.943,88.091-8.363c13.696-7.48,26.04-17.727,35.723-29.945
				c4.708-5.941,8.031-13.031,9.902-20.348c-0.897,3.51-7.638,7.705-10.706,4.826c-0.645-0.604-0.822-2.656-0.518-0.232
				c0.135-1.297,0.121-1.225-0.041,0.215c-0.149,0.881-0.344,1.752-0.584,2.615c-1.14,4.629-3.813,8.852-6.797,13.152
				c-0.908,1.309-1.897,2.559-2.884,3.807c1.712-2.168-1.639,1.789-1.606,1.754c-2.513,2.736-5.254,5.258-8.055,7.693
				c0.001,0-4.017,3.234-1.741,1.469c-1.33,1.033-2.701,2.012-4.067,2.996c-2.851,2.051-5.803,3.953-8.787,5.801
				c-6.341,3.928-11.741,6.545-18.665,9.303c-17.901,7.129-37.761,9.521-55.763,1.447c-18.422-8.264-31.776-25.398-45-39.998
				C784.345,1459.283,762.75,1480.104,772.871,1491.277z"/>
		</g>
	</g>
	<g>
		<path fill="#232734" d="M746.503,833.532c37.784,13.893,78.678,20.44,118.869,20.534c39.343,0.092,83.211-7.041,114.002-33.463
			c3.55-3.046,3.518-7.881-0.43-10.598c-3.998-2.752-10.394-2.634-14.131,0.574c-27.174,23.317-65.482,28.419-100.051,28.5
			c-36.653,0.086-74.296-6.247-108.7-18.896c-4.489-1.651-10.596-0.889-13.562,3.243C739.66,827.384,742.37,832.013,746.503,833.532
			L746.503,833.532z"/>
		<g>
			<path fill="#232734" d="M743.402,840.586c29.518,10.752,60.479,17.051,91.755,19.71c27.911,2.374,56.597,1.948,84.112-3.659
				c13.213-2.692,26.178-6.663,38.41-12.361c5.917-2.756,11.641-5.901,17.119-9.448c5.173-3.349,13.065-7.894,15.773-13.649
				c2.822-5.998,0.71-11.969-4.242-16.029c-6.346-5.202-15.099-5.218-22.605-3.286c-5.789,1.489-10.768,7.24-15.669,10.479
				c-5.424,3.584-11.223,6.404-17.246,8.818c-33.943,13.605-74.204,12.225-109.771,7.46c-20.489-2.745-40.695-7.923-60.152-14.866
				c-9.142-3.262-18.65-2.188-25.965,4.394c-7.857,7.068-1.635,17.978,6.144,21.533c4.367,1.996,10.389,2.037,13.822-1.839
				c3.175-3.583,1.078-8.625-2.946-10.464c-1.607-0.734-0.923-0.058,0.028-0.706c-0.387,0.264,2.026,0.938,2.716,1.189
				c7.502,2.731,15.139,5.078,22.835,7.194c15.16,4.168,30.682,7.021,46.269,9.017c28.031,3.59,57.28,3.843,85.194-0.911
				c13.136-2.237,26.133-5.916,38.231-11.531c5.884-2.73,11.533-5.906,16.885-9.568c2.591-1.772,5.045-3.734,7.443-5.756
				c1.143-0.963,2.052-0.825,0.475-0.772c0.689-0.023-0.185-0.833,0.058-0.112c-0.265-0.789,0.144-0.193-0.637,0.467
				c-1.203,1.017-2.45,1.98-3.696,2.944c-2.482,1.919-5.085,3.677-7.717,5.381c-5.504,3.562-11.331,6.5-17.358,9.06
				c-11.911,5.06-24.461,8.23-37.204,10.318c-24.731,4.052-50.081,3.597-74.956,1.227c-27.618-2.632-54.84-8.85-80.903-18.343
				c-4.198-1.529-10.694,0.12-12.602,4.467C734.881,835.779,739.486,839.16,743.402,840.586z"/>
		</g>
	</g>
	<g>
		<path fill="#232734" d="M499.555,100.002c29.571,4.162,57.839,14.725,86.171,23.725c14.336,4.554,28.799,8.725,43.546,11.736
			c15.226,3.109,30.758,4.737,46.203,6.319c31.343,3.209,62.823,4.937,94.287,6.438c31.685,1.513,63.345,3.433,95.076,3.565
			c62.629,0.262,125.154-5.166,186.975-15.054c25.476-4.074,50.616-9.791,76.294-12.421c21.398-2.193,42.952-3.918,64.061-8.219
			c10.407-2.121,21.814-4.7,30.577-11.053c9.355-6.785-6.999-17.436-14.617-11.912c-2.423,1.757-3.465,2.201-7.222,3.645
			c-4.006,1.54-7.789,2.528-11.609,3.407c-10.23,2.354-20.674,3.788-31.083,5.082c-20.017,2.489-40.647,2.939-60.445,6.886
			c-61.278,12.218-123.341,20.502-185.784,23.325c-31.477,1.423-63.029,1.237-94.5-0.185c-31.409-1.418-62.845-2.895-94.223-4.893
			c-30.487-1.941-61.746-3.62-91.731-9.743c-29.606-6.045-57.905-17.128-86.816-25.68c-15.228-4.504-30.68-8.113-46.412-10.328
			c-4.198-0.591-9.584,2.243-9.196,7.023C489.526,96.9,495.073,99.371,499.555,100.002L499.555,100.002z"/>
		<g>
			<path fill="#232734" d="M497.278,114.596c30.879,4.488,60.125,15.558,89.758,24.854c15.009,4.709,30.204,8.854,45.683,11.706
				c16.302,3.003,32.885,4.584,49.372,6.192c32.694,3.189,65.51,4.712,98.309,6.337c32.946,1.632,65.875,3.313,98.874,3.048
				c65.068-0.522,130.229-7.02,194.235-18.656c15.844-2.88,31.667-5.869,47.646-7.909c16.156-2.063,32.42-3.172,48.574-5.279
				c21.633-2.822,81.651-9.332,64.406-45.222c-5.544-11.536-20.759-16.506-31.527-9.698c-0.424,0.268-3.278,1.952-0.856,0.574
				c-0.974,0.554-2.054,0.945-3.089,1.363c-3.194,1.29-6.467,2.3-9.794,3.181c-7.251,1.922-14.789,2.947-22.206,3.993
				c-15.64,2.204-31.381,3.228-47.085,4.827c-16.004,1.63-31.677,5.129-47.484,8C1008,113.551,942.948,120.666,877.78,121.413
				c-32.814,0.376-65.576-1.251-98.34-2.849c-32.411-1.581-64.864-3.237-97.203-5.944c-31.619-2.647-61.877-8.843-92.1-18.464
				c-14.993-4.772-29.875-9.888-44.976-14.316c-15.24-4.469-31.682-9.127-47.597-10.18c-12.944-0.856-19.408,11.346-19.695,22.558
				C477.587,103.241,486.865,112.798,497.278,114.596c7.348,1.269,12.219-4.144,13.308-11.144
				c0.917-5.898-1.429-16.778-8.755-18.043c-1.19-0.206-2.311-0.476-3.464-0.833c-2.049-0.633-0.736-0.323,0.062,0.452
				c3.297,3.202,2.118,12.955-1.146,14.557c-0.856,0.42-1.006-0.312,0.628-0.076c8.163,1.179,16.256,2.813,24.29,4.673
				c15.384,3.561,30.426,8.427,45.425,13.324c14.953,4.882,29.889,9.819,45.099,13.857c15.762,4.185,31.801,6.807,47.963,8.852
				c32.016,4.051,64.46,5.371,96.666,7.108c32.723,1.766,65.495,3.6,98.267,4.03c65.267,0.857,130.47-5.044,194.857-15.506
				c16.061-2.61,32.067-5.547,48.026-8.718c15.571-3.094,31.455-4.053,47.236-5.487c15.861-1.441,31.737-3.515,47.253-7.163
				c5.762-1.355,11.811-2.864,16.997-5.813c1.516-0.862,3.01-1.873,4.443-2.881c-0.638,0.449-3.395,1.079-1.192,0.817
				c2.86-0.34-2.003-0.627,0.894-0.026c0.653,0.16,1.294,0.361,1.921,0.605c-1.226-0.704-1.256-0.717-0.092-0.041
				c0.778,0.455,2.593,2.471,0.445,0.169c-3.318-3.558-1.444-11.929-0.062-14.604c1.152-2.232,0.095-0.328-1.245,0.602
				c-0.783,0.543-2.202,1.115-3.067,1.542c-5.964,2.945-12.56,4.582-19.037,5.94c-15.865,3.326-31.986,5.154-48.099,6.789
				c-16.127,1.637-32.152,3.372-48.142,6.086c-15.89,2.699-31.696,5.86-47.614,8.394c-64.414,10.253-129.717,15.571-194.956,14.65
				c-30.377-0.429-60.724-2.279-91.062-3.752c-30.8-1.496-61.571-3.388-92.25-6.551c-14.439-1.489-28.802-3.265-43.008-6.31
				c-14.087-3.019-27.918-7.151-41.636-11.524c-27.821-8.869-55.375-18.941-84.4-23.16c-7.367-1.07-12.195,3.989-13.308,11.144
				C487.63,102.297,489.938,113.529,497.278,114.596z"/>
		</g>
	</g>
	<g>
		<path fill="#232734" d="M494.06,99.792c106.843-44.12,223.797-55.8,338.481-54.083c58.479,0.876,116.856,5.354,175.005,11.441
			c28.371,2.971,56.641,6.74,84.983,9.926c27.457,3.087,54.829,8.207,80.773,17.916c11.614,4.346,22.688,9.854,33.048,16.676
			c8.006,5.271,22.543-8.336,13.66-14.187c-47.316-31.16-105.847-35.387-160.545-41.887
			c-57.721-6.859-115.619-12.444-173.695-15.146c-116.087-5.399-234.314,1.016-345.741,36.259
			c-16.837,5.326-33.434,11.404-49.755,18.144c-4.155,1.716-8.422,6.425-7.191,11.271
			C484.325,101.007,490.176,101.396,494.06,99.792L494.06,99.792z"/>
		<g>
			<path fill="#232734" d="M493.947,113.05c114.074-46.898,238.706-56.855,360.867-52.992
				c65.836,2.082,131.462,8.394,196.826,16.314c31.474,3.814,63.065,6.548,93.744,14.961c14.183,3.89,28.328,8.825,41.273,15.869
				c6.223,3.387,11.751,8.282,18.914,9.249c6.921,0.935,13.251-2.838,18.632-6.645c11.197-7.923,16.554-26.662,3.485-35.173
				c-12.052-7.85-25.206-14.138-38.634-19.238c-26.617-10.11-54.964-14.708-83.066-18.417
				c-62.778-8.284-125.968-14.836-189.168-18.767c-125.565-7.809-253.989-3.022-374.881,34.674
				c-18.794,5.86-38.286,12.071-56.038,20.657c-10.313,4.989-18.837,19.205-14.789,30.56
				C474.509,113.624,485.051,116.208,493.947,113.05c7.069-2.51,12.806-9.077,12.872-16.862c0.057-6.693-5.914-12.043-12.646-9.654
				c-0.658,0.233-3.535,0.49-1.063,0.364c1.723-0.088-0.764-0.966,0.769,0.161c3.296,2.423,1.497,7.365-1.018,9.82
				c-0.526,0.515-2.888,1.302,0.804-0.204c7.592-3.096,15.255-6.015,22.961-8.814c14.786-5.372,29.806-10.08,44.941-14.361
				c30.116-8.518,60.803-14.947,91.713-19.798c61.406-9.637,123.925-12.083,186-10.941c65.25,1.2,130.364,6.773,195.188,14.065
				c28.382,3.192,56.936,5.946,85.114,10.659c26.846,4.49,54.131,11.251,78.291,24.14c2.972,1.585,5.874,3.295,8.749,5.047
				c1.447,0.883,2.868,1.808,4.288,2.732c1.893,1.233-0.316-0.648-0.643-1.625c-0.532-1.59,1.977-8.535,0.503-5.459
				c0.146-0.306,4.055-4.723,1.81-2.651c-2.471,2.28,2.688-1.508-0.282,0.052c1.719-0.672,1.871-0.794,0.457-0.366
				c1.663-0.206,1.804-0.293,0.422-0.263c1.307,0.029,3.833,1.665,0.792-0.313c-1.482-0.964-2.998-1.878-4.512-2.791
				c-3.022-1.823-6.135-3.493-9.271-5.112c-7.235-3.736-14.616-7.027-22.255-9.852c-30.234-11.18-62.087-15.332-93.916-19.054
				C1018.48,44.309,953.05,36.82,887.109,33.609c-123.248-6.001-250.117,0.978-367.176,42.975
				c-8.666,3.109-17.247,6.45-25.761,9.951c-6.995,2.876-12.803,8.806-12.872,16.862
				C481.247,109.822,487.274,115.793,493.947,113.05z"/>
		</g>
	</g>
	<g>
		<path fill="#232734" d="M478.177,90.331c-18.726,51.631-23.275,107.587-24.792,162.091c-1.543,55.458,0.467,110.946-0.759,166.413
			c-1.247,56.438,7.246,112.647,24.902,166.251c8.707,26.433,19.794,52.049,32.599,76.745c13.058,25.184,27.602,50.393,44.742,73.04
			c15.568,20.57,34.621,38.392,54.504,54.717c19.516,16.023,39.913,32.096,61.386,45.409
			c38.125,23.638,84.617,42.167,108.378,82.546c2.552,4.338,8.341,2.348,10.846-0.732c3.271-4.023,3.624-9.514,1.039-13.906
			c-25.26-42.924-74.657-62.312-114.939-87.718c-11.103-7.003-21.503-15.246-32.012-23.104
			c-10.885-8.14-21.616-16.486-32.008-25.249c-20.879-17.604-39.878-37.324-54.918-60.203
			c-30.861-46.948-55.882-97.211-71.488-151.307c-7.604-26.359-12.582-53.482-15.399-80.759
			c-2.864-27.728-1.998-55.241-1.707-83.043c0.533-50.781-1.302-101.563,0.577-152.332c1.81-48.912,6.72-98.579,23.511-144.876
			c1.454-4.01,0.028-10.364-4.576-11.632C482.993,81.285,479.628,86.329,478.177,90.331L478.177,90.331z"/>
		<g>
			<path fill="#232734" d="M467.538,86.675c-21.574,60.05-25.163,124.348-26.182,187.577c-0.532,33.017-0.031,66.04,0.037,99.058
				c0.066,32.333-1.514,64.699,0.828,96.981c4.632,63.855,21.962,125.888,49.254,183.67c13.229,28.007,28.444,55.385,46.167,80.806
				c17.576,25.21,39.217,46.825,62.817,66.387c23.077,19.129,46.873,37.39,72.776,52.554c21.427,12.543,43.672,23.792,63.546,38.8
				c9.464,7.148,18.216,15.215,25.269,24.307c3.762,4.849,6.465,11.299,11.233,15.205c6.847,5.613,17.313,1.619,22.668-4.084
				c6.202-6.605,9.238-15.861,8.253-24.854c-0.849-7.751-5.724-14.408-10.181-20.541c-7.487-10.304-16.63-19.467-26.408-27.588
				c-19.065-15.833-41.176-27.551-62.613-39.769c-25.498-14.532-48.872-31.817-71.876-50.004
				c-22.919-18.122-44.348-37.958-61.469-61.757c-17.27-24.005-31.881-50.423-44.846-76.957
				c-26.763-54.771-43.295-114.724-46.374-175.68c-1.662-32.894-0.026-65.957-0.174-98.88c-0.148-32.973-0.688-65.946-0.002-98.917
				c0.768-36.966,3.304-74.124,10.532-110.437c1.716-8.62,3.613-16.234,6.141-25.059c1.199-4.185,2.517-8.334,3.886-12.466
				c1.546-4.667,3.665-9.316,3.922-14.291c0.461-8.91-2.875-20.731-13.143-22.468C479.442,66.213,471.574,76.548,467.538,86.675
				c-2.368,5.939-1.144,15.468,5.765,17.842c7.326,2.518,13.149-4.597,15.514-10.53c-1.617,4.059,1.473-1.441-0.767,1.261
				c-1.437,1.733-3.641,2.328-5.476,1.164c-0.834-0.529-0.964-1.766-1.098-2.611c-0.169-1.07,1.422-5.642-0.107-1.384
				c-2.732,7.61-5.085,15.353-7.224,23.148c-4.299,15.666-7.544,31.632-10.02,47.683c-4.885,31.674-6.35,63.77-7.115,95.769
				c-0.788,32.966-0.231,65.947-0.052,98.917c0.179,32.941-1.269,65.962,0.094,98.883c2.594,62.673,19.577,124.439,46.13,181.066
				c12.869,27.444,27.77,53.805,44.385,79.152c16.23,24.759,37.287,46.104,59.946,64.999c23.157,19.309,47.477,38.115,73.493,53.406
				c21.345,12.545,43.436,23.892,63.43,38.595c9.345,6.873,18.71,15.004,25.883,23.516c3.826,4.541,7.241,9.412,10.352,14.467
				c1.728,2.808,0.457,1.062,0.397,0.525c-0.327-2.979,0.986-5.005,3.186-6.807c0.765-0.627,1.616-0.309,2.436-0.134
				c2.187,2.058,2.604,2.14,1.252,0.244c-0.52-0.856-1.052-1.704-1.595-2.546c-13.609-21.387-34.16-37.223-55.421-50.415
				c-21.994-13.647-45.205-25.132-66.625-39.73c-25.223-17.19-49.559-36.676-71.737-57.652
				c-22.073-20.877-39.472-45.35-54.892-71.423c-15.521-26.245-29.227-53.622-40.376-82.007
				c-22.913-58.331-33.869-120.817-33.092-183.434c0.803-64.667-1.486-129.504,1.815-194.114
				c2.285-44.719,7.811-88.821,22.797-130.536c2.161-6.014,1.292-15.417-5.765-17.842C475.874,73.679,469.697,80.663,467.538,86.675
				z"/>
		</g>
	</g>
	<g>
		<path fill="#232734" d="M1214.003,105.628c0.64,0.37,1.271,0.749,1.898,1.141c-1.595-0.997,0.471,0.372,0.646,0.499
			c1.242,0.898,2.417,1.887,3.569,2.896c2.539,2.225,4.965,4.939,6.397,6.751c4.748,5.998,8.521,12.74,11.834,19.614
			c7.861,16.316,12.655,34.068,16.645,51.67c8.691,38.363,12.56,77.749,15.619,116.903c1.365,17.484,2.812,34.984,3.44,52.512
			c1.062,29.633-0.005,59.344-2.868,88.853c-5.737,59.141-19.554,117.562-41.82,172.674c-20.7,51.232-49.368,99.514-87.376,139.839
			c-18.111,19.216-38.43,35.357-60.381,49.939c-1.501,0.997-3.046,1.924-4.601,2.834c-0.793,0.464-1.598,0.909-2.402,1.354
			c1.711-0.947-1.014,0.512-1.101,0.557c-3.737,1.933-7.57,3.68-11.42,5.376c-7.955,3.506-16.047,6.695-24.055,10.077
			c-17.489,7.386-34.729,15.896-49.642,27.781c-18.057,14.391-31.631,33.186-40.137,54.621c-4.298,10.83,14.905,12.949,18.391,4.166
			c8.025-20.227,20.421-37.748,37.864-50.889c14.826-11.17,31.108-18.218,48.409-25.376c16.267-6.73,31.907-13.655,46.648-23.369
			c22.626-14.909,43.203-32.979,61.595-52.842c78.337-84.614,117.959-201.638,129.54-314.701
			c4.93-48.126,3.462-96.055-0.217-144.174c-2.979-38.998-6.839-78.114-15.075-116.4c-4.271-19.848-9.864-39.627-18.452-58.075
			c-6.911-14.847-16.644-28.996-31.073-37.324C1217.47,87.682,1203.161,99.371,1214.003,105.628L1214.003,105.628z"/>
		<g>
			<path fill="#232734" d="M1204.788,113.799c0.639,0.369,1.271,0.75,1.898,1.141c6.144-5.447,12.286-10.895,18.43-16.342
				c-0.198-0.12-0.397-0.24-0.597-0.36c-6.17-3.729-15.072-4.942-20.914,0.226c-5.694,5.039-2.775,12.237,2.484,16.115
				c3.325,2.452,6.453,5.514,9.623,9.621c4.331,5.61,7.452,12.425,10.396,18.833c6.147,13.379,9.949,27.659,13.307,41.948
				c7.364,31.341,11.37,63.349,14.323,95.373c2.982,32.339,5.747,64.836,5.942,97.328c0.192,32.026-2.318,64.164-6.835,95.859
				c-8.601,60.364-25.802,119.911-52.663,174.72c-25.362,51.75-59.97,99.384-105.598,135.027
				c-9.208,7.193-18.731,14.382-28.961,20.064c5.985,6.503,11.972,13.007,17.957,19.511c0.184-0.103,0.367-0.207,0.551-0.31
				c6.084-3.423,7.867-10.247,2.901-15.643c-5.063-5.501-14.165-7.101-20.858-3.868c-25.531,12.331-52.826,21.116-76.669,36.762
				c-23.712,15.561-42.463,37.032-53.714,63.163c-2.626,6.101-4.09,11.02-1.321,17.336c2.936,6.699,10.718,9.8,17.186,11.553
				c11.919,3.229,25.138-2.188,29.865-13.533c10.295-24.701,27.854-43.371,51.349-55.96c13.104-7.021,27.079-12.211,40.688-18.13
				c14.27-6.208,27.729-13.521,40.644-22.199c24.246-16.292,45.887-36.299,65.213-58.141c36.489-41.238,64.345-89.18,84.621-140.261
				c20.314-51.173,33.306-104.961,39.979-159.573c7.916-64.789,4.517-130.355-1.78-195.131
				c-4.608-47.4-11.097-96.774-30.738-140.608c-8.485-18.936-21.7-36.781-40.64-46.18c-9.426-4.678-23.26-1.949-30.497,5.517
				C1191.966,96.313,1195.159,107.569,1204.788,113.799c6.025,3.898,15.192,4.837,20.914-0.227
				c5.468-4.838,3.062-12.526-2.484-16.115c-3.096-2.003,1.303,1.783,1.741,3.313c-0.021,0.471-0.044,0.941-0.065,1.412
				c0.284-1.235,0.207-1.079-0.229,0.467c1.213-2.404-1.67,1.454,0.494-0.431c-2.482,2.162,1.93-0.573-1.535,0.627
				c2.608-0.904-2.054-0.198-2.663-0.266c-0.781-0.089-4.85-2.275-1.645-0.245c3.195,2.023,4.666,3.306,6.895,5.445
				c9.245,8.875,14.884,20.13,19.967,32.066c12.182,28.602,17.548,60.192,21.929,90.795c4.634,32.371,7.271,65.082,9.225,97.713
				c1.947,32.528,2.444,65.122,0.295,97.652c-7.162,108.427-40.736,219.042-107.994,305.562
				c-17.21,22.14-37.058,42.319-58.907,59.892c-11.216,9.02-22.993,17.216-35.698,23.997c-13.241,7.065-27.245,12.481-41.018,18.383
				c-26.926,11.538-50.971,26.958-67.89,51.334c-3.564,5.136-6.609,10.619-9.348,16.232c-1.389,2.846-2.622,5.766-3.807,8.701
				c-0.385,0.955-1.855,2.381,0.158,0.283c-1.045,0.855-0.801,0.722,0.731-0.403c-1.308,0.597-0.988,0.511,0.958-0.257
				c-2.908,0.904,3.382-0.129,0.324,0.02c-3.141,0.15,3.642,0.587,0.624-0.018c3.573,0.716,5.627,1.728,6.761,5.689
				c-0.637-2.227-0.437,2.366,0.159-0.234c-0.427,1.862,1.227-2.83,1.101-2.537c1.476-3.427,3.146-6.764,4.896-10.057
				c11.003-20.721,27.698-37.113,47.877-48.904c21.441-12.531,45.273-20.364,67.58-31.137c-5.985-6.504-11.972-13.007-17.957-19.511
				c-0.184,0.103-0.367,0.207-0.551,0.31c-6.084,3.423-7.867,10.247-2.9,15.643c4.849,5.269,14.421,7.443,20.857,3.868
				c13.133-7.294,25.426-16.589,37.201-25.883c11.674-9.214,22.67-19.266,32.903-30.055c20.117-21.208,37.771-44.776,53.06-69.667
				c31.661-51.548,52.979-109.604,66.396-168.431c14.388-63.085,18.722-128.417,14.562-192.925
				c-2.078-32.236-4.657-64.542-8.891-96.572c-4.143-31.343-9.996-62.971-21.018-92.692c-6.944-18.727-16.99-36.392-33.276-48.399
				c-6.143,5.447-12.286,10.895-18.43,16.341c0.198,0.121,0.397,0.241,0.597,0.361c6.17,3.729,15.073,4.942,20.914-0.227
				c5.376-4.756,3.175-12.648-2.484-16.115c-0.626-0.391-1.259-0.771-1.898-1.141c-6.222-3.666-15.029-4.981-20.914,0.227
				C1196.992,102.383,1199.052,110.419,1204.788,113.799z"/>
		</g>
	</g>
	<g>
		<path fill="#232734" d="M511.167,1579.338c49.102,28.41,102.784,45.664,158.408,55.832c26.926,4.922,54.095,8.404,81.229,11.947
			c28.446,3.715,56.807,8.416,85.329,11.473c115.384,12.365,234.886-3.225,341.936-48.604c9.443-4.004,18.765-8.297,27.979-12.801
			c-1.732,0.377-3.464,0.752-5.196,1.127c6.057-0.65,11.775-2.766,16.384-6.877c9.727-8.682-4.807-17.484-12.611-10.518
			c-0.727,0.646-1.469,1.385-2.332,1.852c-4.284,2.322,5.867-1.117-1.966,0.584c-3.545,0.77-6.97,2.98-10.229,4.525
			c-6.699,3.174-13.475,6.186-20.292,9.1c-13.177,5.631-26.582,10.723-40.125,15.4c-27.007,9.328-54.771,16.502-82.783,22.084
			c-56.507,11.264-114.417,14.975-171.929,11.854c-28.486-1.547-56.52-5.803-84.744-9.699c-27.713-3.826-55.499-7.127-83.171-11.254
			c-54.302-8.098-107.495-20.672-157.081-44.818c-9.259-4.51-18.321-9.414-27.233-14.57
			C514.315,1561.1,500.337,1573.072,511.167,1579.338L511.167,1579.338z"/>
		<g>
			<path fill="#232734" d="M505.4,1592.936c52.688,30.328,111.167,48.396,170.862,58.643c32.126,5.516,64.541,9.119,96.8,13.732
				c31.416,4.49,62.79,8.936,94.49,10.838c116.758,7.004,236.071-13.797,341.525-65.148c5.613-2.734,8.426-9.67,8.389-15.6
				c-0.037-5.951-4.119-14.59-11.518-12.984c-1.732,0.377-3.464,0.752-5.196,1.127c-13.742,2.979-16.016,31.652,0.197,29.539
				c18.835-2.453,36.92-18.633,28.829-38.889c-2.876-7.203-10.875-10.613-18.092-10.553c-3.197,0.025-6.447,1.061-9.165,2.729
				c0.642-0.395-6.958,4.713-3.874,2.939c-2.74,1.574-3.409,2.471-5.496,4.885c-5.047,5.84-3.992,15.016-0.063,20.916
				c4.851,7.285,14.481,1.766,18.349-2.873c4.416-5.297,5.531-19.582-2.275-22.926c-6.052-2.59-12.181-0.209-17.817,2.566
				c-6.986,3.439-14.021,6.715-21.165,9.822c-14.277,6.211-28.823,11.766-43.53,16.867c-29.675,10.293-60.422,17.674-91.299,23.303
				c-63.189,11.52-128.397,13.961-192.221,6.689c-32.196-3.668-64.279-8.566-96.406-12.801c-30.958-4.08-61.86-8.516-92.348-15.355
				c-29.168-6.541-57.932-15.275-85.331-27.285c-14.296-6.268-27.534-14.271-41.462-21.199c-13.167-6.549-28.711,4.789-31.21,18.154
				C494.667,1579.189,497.481,1587.797,505.4,1592.936c13.405,8.699,23.598-19.367,11.533-27.195
				c-2.163-1.402,0.693,1.1,1.399,3.484c1.312,4.436-0.149,8.262-2.877,11.213c2.047-2.215-2.182,1.051,0.546-0.453
				c2.642-1.457-1.994,0.27,0.955-0.275c2.786-0.514-1.761-0.43,0.965,0.18c-3.019-0.674,2.173,1.475,2.4,1.605
				c3.912,2.234,7.866,4.395,11.841,6.516c14.023,7.484,28.542,13.947,43.339,19.736c28.255,11.057,57.533,19.066,87.24,25.123
				c30.938,6.307,62.298,10.25,93.588,14.336c32.092,4.189,64.11,9.348,96.34,12.383c61.395,5.777,124.169,2.523,184.79-8.527
				c30.457-5.553,60.46-13.285,89.84-23.031c14.224-4.717,28.264-10.014,42.094-15.781c6.852-2.857,13.64-5.869,20.379-8.982
				c4.224-1.951,8.82-5.502,13.618-5.631c-1.955-0.391-3.91-0.781-5.865-1.172c0.034,0.014,0.069,0.029,0.104,0.045
				c-0.759-7.643-1.518-15.283-2.276-22.926c-0.023,0.027-0.047,0.057-0.07,0.084c1.671-1.494,3.341-2.99,5.012-4.484
				c-0.161,0.096-0.331,0.174-0.51,0.236c2.881-1.191,1.117-0.652,4.397-0.533c1.723,1.041,3.445,2.08,5.167,3.121
				c-0.016-0.025-0.032-0.049-0.049-0.074c-0.021,6.973-0.042,13.945-0.062,20.916c-1.306,1.246-2.61,2.49-3.915,3.736
				c1.313-0.891,2.617-1.795,3.909-2.713c3.795-2.68-2.043,0.625,1.346-0.945c-2.187,1.014,1.783,0.504-0.68,0.287
				c0.687,0.094,1.358,0.25,2.016,0.471c-1.267-0.479-1.325-0.404-0.176,0.223c-2.97-1.889-2.686-6.844-2.394-9.584
				c0.397-3.736,3.707-5.586,0.858-3.771c-2.962,1.887-6.021,2.545-9.449,2.992c0.065,9.848,0.132,19.693,0.197,29.539
				c1.732-0.375,3.465-0.75,5.196-1.127c-1.043-9.527-2.086-19.055-3.129-28.582c-108.785,52.975-232.979,72.463-353.117,61.586
				c-29.605-2.682-58.963-7.488-88.402-11.516c-29.708-4.062-59.47-7.625-88.985-12.982c-54.444-9.881-107.498-27.043-155.58-54.721
				C502.983,1557.711,492.944,1585.766,505.4,1592.936z"/>
		</g>
	</g>
	<g>
		<path fill="#232734" d="M515.107,1568.529c12.263-34.455,42.765-57.291,74.387-73.9c35.147-18.461,75.516-29.752,114.996-37.016
			c23.301-4.285,46.949-7.123,69.238-7.77c4.816-0.143,10.257-2.455,11.761-7.492c1.348-4.514-2.639-8.377-7.08-8.248
			c-37.51,1.092-74.979,6.918-111.298,16.244c-40.419,10.377-80.842,25.229-115.229,49.328
			c-24.401,17.1-45.492,39.652-55.616,68.096c-1.672,4.697,2.898,8.078,7.08,8.25
			C508.312,1576.223,513.412,1573.291,515.107,1568.529L515.107,1568.529z"/>
		<g>
			<path fill="#232734" d="M529.247,1568.785c8.256-22.613,25.276-38.713,44.546-51.756c5.048-3.416,10.277-6.561,15.573-9.574
				c1.319-0.75,2.65-1.479,3.981-2.207c-2.804,1.535,2.177-1.121,2.052-1.057c3.695-1.926,7.451-3.73,11.226-5.49
				c13.659-6.367,27.838-11.588,42.201-16.125c27.254-8.605,58.793-14.721,88.329-18.334c6.864-0.838,13.662-1.467,20.538-1.922
				c8.639-0.57,16.865-0.441,25.219-2.979c7.974-2.424,13.869-9.209,16.716-16.732c3.203-8.461-3.82-17.641-11.919-19.555
				c-7.513-1.777-15.876-0.484-23.504,0.016c-9.005,0.588-18,1.447-26.964,2.475c-16.099,1.848-32.09,4.58-47.942,7.928
				c-30.252,6.385-60.311,15.098-88.855,27.035c-27.707,11.59-53.969,26.84-76.554,46.707
				c-10.289,9.053-19.249,19.498-26.978,30.799c-3.532,5.166-6.584,10.643-9.284,16.283c-3.561,7.439-7.391,14.742-5.205,23.066
				c2.381,9.068,15.201,11.146,22.772,10.184c9.142-1.162,18.992-7.074,22.764-15.756c7.468-17.193-19.879-19.928-25.702-6.523
				c-1.048,2.414,0.034,0.703,0.907,0.02c0.886-0.693,2.314-1.127,3.433-1.145c2.12-0.035,2.772,0.275,3.517,1.678
				c0.098,0.736,0.195,1.473,0.293,2.209c0.354-0.996,0.723-1.986,1.106-2.973c2.07-5.445,5.319-11.326,8.554-16.594
				c6.429-10.467,14.497-19.33,24.105-28.094c3.88-3.539,7.75-6.559,13.01-10.395c6.096-4.447,12.47-8.514,18.951-12.373
				c11.432-6.811,24.497-12.91,37.902-18.359c28.062-11.408,55.618-18.699,85.775-24.615c15.902-3.119,31.958-5.428,48.084-7.018
				c7.128-0.703,14.292-1.104,21.446-1.42c1.939-0.086,3.88-0.146,5.82-0.207c-0.96,0.029-3.031-0.469-3.611-1.656
				c-1.165-2.381,0.856-4.223,2.485-5.535c1.771-0.826,1.844-0.898,0.221-0.217c0.85-0.479,1.758-0.682,2.724-0.609
				c-28.807,1.92-57.04,4.734-85.378,10.514c-27.386,5.584-54.521,13.229-80.444,23.725c-45.472,18.41-92.604,47.904-110.188,96.068
				c-2.578,7.061,4.788,12.021,10.89,12.137C519.486,1580.553,526.635,1575.941,529.247,1568.785z"/>
		</g>
	</g>
	<g>
		<path fill="#232734" d="M957.31,1447.826c42.266,3.975,84.391,11.891,124.124,27.133c39.271,15.064,76.567,38.256,101.676,72.643
			c9.735,13.334,17.579,28.26,22.961,43.869c1.616,4.689,6.019,6.061,10.637,4.559c3.657-1.189,9.704-5.971,8.094-10.643
			c-14.512-42.098-43.17-75.979-80.562-99.789c-37.165-23.668-79.739-37.318-122.715-45.836c-18.895-3.746-38.007-6.35-57.179-8.15
			c-4.95-0.467-10.271,2.355-12.286,7.002C950.233,1442.82,952.601,1447.385,957.31,1447.826L957.31,1447.826z"/>
		<g>
			<path fill="#232734" d="M957.782,1462.59c58.488,5.578,118.085,18.328,168.593,49.646c22.321,13.84,40.885,31.789,55.052,53.779
				c3.115,4.836,6.399,11.256,9.094,17.059c3.172,6.826,4.815,15.783,10.012,21.365c12.617,13.557,31.611,4.711,35.696-11.635
				c1.985-7.939-2.757-16.887-5.683-24.062c-2.525-6.195-5.466-12.215-8.652-18.096c-6.414-11.836-13.976-23.049-22.574-33.404
				c-17.684-21.293-39.373-38.242-63.274-52.018c-26.147-15.07-54.716-25.234-83.776-33.029c-14.654-3.93-29.527-7.064-44.477-9.637
				c-7.594-1.307-15.222-2.402-22.862-3.389c-8.256-1.066-17.121-2.863-25.446-2.189
				C934.657,1418.986,933.879,1458.102,957.782,1462.59c7.448,1.398,11.198-7.535,11.007-13.422
				c-0.232-7.16-4.502-14.705-11.952-16.104c5.269,0.988,7.602,10.959,5.176,14.471c-0.735,1.064,1.517-1.061,0.469-0.613
				c2.663-1.137,4.805-0.316,8.087,0.016c8.305,0.84,16.588,1.875,24.851,3.055c15.357,2.191,30.602,5.129,45.7,8.688
				c28.458,6.703,56.236,16.475,82.141,30.094c22.57,11.865,44.005,28.238,59.726,46.568c8.237,9.604,15.229,19.924,20.408,29.48
				c2.944,5.432,5.542,11.045,7.922,16.746c0.601,1.438,1.164,2.891,1.728,4.344c-0.001-0.004,1.764,4.807,0.819,2.105
				c0.381-2.756,0.762-5.512,1.142-8.268c-0.944,1.096-1.112,1.316-0.504,0.664c-0.665,0.512-1.365,0.969-2.101,1.373
				c1.252-0.49,1.06-0.482-0.575,0.021c1.987-0.525,4.771,5.842,3.275,1.58c-1.174-3.348-2.513-6.633-3.902-9.895
				c-2.556-5.998-5.557-11.797-8.791-17.451c-6.778-11.85-14.673-22.891-23.871-32.979c-17.465-19.154-38.325-34.395-61.062-46.727
				c-48.963-26.555-105.665-38.029-160.636-43.273C940.824,1431.537,943.472,1461.225,957.782,1462.59z"/>
		</g>
	</g>
	<g>
		<path fill="#232734" d="M978.312,842.493c-28.379,46.694-45.072,99.44-55.867,152.729c-10.898,53.807-14.14,108.254-15,163.021
			c-0.806,51.297-0.33,102.688,4.215,153.818c2.281,25.674,5.689,51.275,10.544,76.592c2.31,12.047,5.036,24.014,8.136,35.881
			c3.12,11.949,6.286,23.682,11.76,34.803c2.25,4.572,7.061,6.561,12.074,5.738c3.574-0.584,9.605-4.361,7.357-8.93
			c-6.227-12.652-9.604-26.242-13.06-39.854c-3.608-14.215-6.55-28.594-9.067-43.037c-5.151-29.549-8.092-59.451-9.932-89.377
			c-3.597-58.514-3.547-117.756-0.656-176.307c4.408-89.271,21.6-182.967,68.603-260.304c2.646-4.353-3.11-8.635-6.6-9.505
			C985.862,836.529,980.961,838.134,978.312,842.493L978.312,842.493z"/>
		<g>
			<path fill="#232734" d="M965.456,835.221c-66.139,109.472-73.406,242.248-73.004,366.84
				c0.211,65.576,4.012,131.276,17.196,195.635c3.168,15.463,6.872,30.938,11.619,45.996c2.307,7.312,5.168,14.49,8.975,21.158
				c4.887,8.559,16.311,12.074,25.466,11.963c7-0.086,13.259-3.184,17.952-8.27c6.292-6.818,1.034-15.299-1.749-22.215
				c-5.725-14.229-9.097-29.582-12.488-44.5c-14.307-62.931-17.271-128.404-17.952-192.734
				c-0.645-60.734,0.782-122.25,10.19-182.354c6.229-39.788,16.146-79.087,31.061-116.533c7.249-18.203,15.804-35.859,25.781-52.723
				c2.742-4.633,5.746-9.589,3.489-15.138c-2.338-5.749-6.639-9.862-11.995-12.899C989.081,823.258,973.027,824.438,965.456,835.221
				c-9.271,13.204,17.462,26.293,25.711,14.545c1.068-1.521,1.18-1.349,0.197-0.917c-1.671,0.736-4.653-0.765-5.597-1.185
				c0.359,0.204,0.72,0.409,1.08,0.613c-2.055-1.046-3.201-2.691-3.441-4.934c0.089-0.626,0.178-1.251,0.267-1.877
				c-0.59,0.981-1.175,1.965-1.756,2.952c-4.012,6.78-7.742,13.723-11.375,20.711c-6.599,12.692-12.407,25.788-17.647,39.095
				c-10.538,26.762-18.312,54.564-24.207,82.695c-12.381,59.078-15.608,119.557-16.501,179.766
				c-0.965,65.064,0.85,130.967,10.929,195.346c2.535,16.197,5.711,32.316,9.464,48.275c3.497,14.873,7.159,29.934,13.321,43.961
				c0.255,0.557,0.511,1.111,0.766,1.666c0.915,2.555,1.21,2.176,0.885-1.137c0.146-0.826,2.16-2.094,0.023-0.648
				c1.912-1.295-1.768-0.166,1.002-0.482c2.19-0.248,4.357,0.535,6.066,1.9c1.021,0.814,1.075,1.43-0.051-1.025
				c-0.768-1.674-1.449-3.387-2.133-5.096c-1.589-3.973-2.894-8.055-4.141-12.145c-4.515-14.795-8.067-29.996-11.062-45.167
				c-12.639-64.038-15.436-129.69-15.447-194.813c-0.012-64.738,1.786-129.941,14.15-193.664
				c10.387-53.537,26.867-106.982,55.207-153.891c3.859-6.388,0.364-12.931-5.74-16.38
				C980.167,830.413,969.304,828.851,965.456,835.221z"/>
		</g>
	</g>
	<g>
		<path fill="#232734" d="M744.107,861.238c9.585,26.984,21.732,52.982,30.939,80.109c10.053,29.621,14.399,61.008,20.529,91.609
			c6.252,31.207,11.87,62.604,13.341,94.453c1.517,32.852,1.689,65.83,1.689,98.713c0,22.082-0.285,44.162-0.821,66.234
			c-0.538,22.176-1.364,44.1-4.767,66.053c-3.342,21.561-8.28,42.842-12.921,64.148c-2.231,10.246-4.381,20.51-6.294,30.82
			c-1.68,9.049-3.924,18.547-3.924,27.777c0,9.9,19.922,8.307,19.922-1.766c0-5.141,1.35-10.971,2.281-16.508
			c1.325-7.875,2.875-15.713,4.485-23.535c3.131-15.205,6.622-30.334,9.817-45.525c3.215-15.285,6.062-30.648,8.037-46.146
			c2.009-15.764,2.577-31.576,3.031-47.443c0.932-32.49,1.228-65,1-97.504c-0.229-32.615-0.007-65.594-3.115-98.084
			c-4.267-44.604-15.57-88.162-23.283-132.215c-7.131-40.734-27.361-78.219-41.088-116.867
			C759.775,846.583,740.496,851.072,744.107,861.238L744.107,861.238z"/>
		<g>
			<path fill="#232734" d="M733.501,865.832c10.685,29.883,24.56,58.651,33.791,89.045c9.124,30.039,13.557,61.477,19.567,92.232
				c6.143,31.436,10.223,62.529,11.386,94.74c1.186,32.826,1.252,65.703,1.092,98.547c-0.155,31.855-0.074,63.795-2.983,95.274
				c-2.971,32.144-11.158,63.54-17.781,95.054c-3.382,16.092-7.638,32.709-7.897,49.217c-0.207,13.15,9.26,24.25,22.888,22.697
				c4.707-0.535,9.748-2.57,12.994-6.113c5.983-6.529,5.955-13.947,6.943-20.941c2.187-15.484,5.637-30.879,8.937-46.154
				c6.874-31.823,14.381-63.582,16.761-96.14c2.46-33.65,2.425-67.618,2.544-101.345c0.116-32.838,0.238-65.771-1.173-98.585
				c-1.417-32.95-6.303-65.399-12.606-97.739c-4.521-23.192-9.438-46.297-13.622-69.555c-4.15-23.07-12.685-45.178-21.442-66.823
				c-4.06-10.034-8.282-20.003-12.342-30.036c-1.782-4.403-3.69-9.25-5.16-13.203c-2.293-6.164-3.94-12.118-9.293-16.378
				c-6.048-4.814-15.045-4.867-21.792-1.555C734.111,843.078,730.421,855.324,733.501,865.832c1.77,6.035,7.388,12.713,14.408,9.68
				c6.796-2.938,8.698-12.406,6.804-18.866c-0.089-0.303-0.178-0.605-0.266-0.908c0.97,3.552,0.511,6.89-1.379,10.014
				c1.183-2.317-2.062,1.821,0.015,0.114c-2.177,1.79-0.465,0.399,0.43,0.033c2.668-1.092-2.344,0.285,0.528-0.111
				c0.616-0.084,3.493,0.093,0.507-0.284c0.752,0.095,3.227,1.116,0.378-0.298c1.856,0.922-1.229-1.744-1.565-2.314
				c-1.513-2.574,1.182,3.26,1.448,3.977c5.458,14.674,11.547,29.095,17.499,43.572c5.567,13.541,10.548,26.359,14.833,40.434
				c4.492,14.752,6.881,29.895,9.801,45.004c5.934,30.711,13.077,61.746,17.19,92.247c4.361,32.341,4.792,65.015,4.985,97.597
				c0.387,65.113,2.799,131.068-9.833,195.169c-3.13,15.886-6.8,31.659-10.182,47.493c-3.209,15.021-7.165,30.561-8.311,45.9
				c-0.641,8.576-0.082,2.271,0.445,0.562c0.137-0.445,3.093-3.957,1.374-2.404c1.982-1.789,0.727-0.422-0.306,0.041
				c-2.592,1.16,2.396-0.287-0.434,0.205c-0.867,0.15-1.751,0.148-2.627,0.145c2.714,0.012,0.583,0.059-0.289-0.184
				c-2.544-0.705,2.075,1.41,0.047-0.064c2.499,1.816,4.185,5.146,4.045,8.236c0.339-7.494,2.05-14.914,3.468-22.258
				c1.608-8.328,3.223-16.648,4.981-24.947c6.682-31.544,14.5-62.879,17.317-95.082c2.885-32.971,2.802-66.33,2.988-99.406
				c0.185-32.846,0.046-65.717-1.092-98.547c-1.156-33.348-5.639-66.072-11.898-98.829c-6.011-31.454-10.858-63.466-19.774-94.262
				c-9.011-31.126-23.433-60.384-34.324-90.844c-2.105-5.887-7.143-12.819-14.408-9.679
				C733.767,849.792,731.245,859.521,733.501,865.832z"/>
		</g>
	</g>
	<g>
		<path fill="#232734" d="M545.866,513.675c-11.031,0.247-21.951,4.301-31.226,10.164c-8.968,5.669-18.19,16.243-12.995,27.385
			c4.082,8.754,15.676,11.104,24.212,12.415c8.994,1.381,18.135,1.114,27.201,1.092c5.017-0.012,10.09-2.616,11.972-7.527
			c1.572-4.103-0.865-8.991-5.646-8.979c-6.473,0.016-12.931,0.11-19.397-0.291c-6.236-0.386-14.292-1.274-18.803-4.224
			c-1.437-0.939-1.564-1.289-1.921-1.809c-0.172-0.25-0.508-1.392-0.509-1.322c0.018-1.236-0.111-0.299,0.609-1.349
			c-1.004,1.466,0.938-0.921,1.032-1.01c2.283-2.189-1.409,0.879,1.289-1.05c3.559-2.545,6.064-3.572,10.167-5.069
			c1.738-0.635,2.854-0.963,3.886-1.206c0.942-0.222,1.897-0.379,2.852-0.531c0.231-0.037,3.083-0.229,0.951-0.181
			c5.033-0.113,10.064-2.547,11.973-7.528C553.058,518.619,550.665,513.567,545.866,513.675L545.866,513.675z"/>
		<g>
			<path fill="#232734" d="M546.434,503.691c-19.347,0.782-42.578,10.447-51.11,29.034c-4.536,9.882-3.253,22.003,4.113,30.142
				c5.999,6.627,14.987,8.862,23.456,10.369c10.388,1.848,22.497,2.672,32.975,1.168c10.293-1.477,19.103-12.204,16.958-22.86
				c-0.965-4.798-3.004-9.462-7.549-11.864c-4.454-2.354-10.168-1.405-15.026-1.427c-5.284-0.025-10.562-0.254-15.813-0.847
				c-2.427-0.273-4.771-0.725-7.092-1.478c-0.866-0.302-1.707-0.665-2.522-1.087c-1.783-0.847,1.38,3.05,0.683,1.066
				c0.245,1.699,0.49,3.398,0.735,5.098c0.002-0.222,0.004-0.444,0.006-0.666c-0.865,2.312-1.73,4.624-2.595,6.935
				c0.206-0.224,0.407-0.451,0.603-0.684c-3.69-4.256-7.381-8.512-11.072-12.768c-0.096,0.156-0.191,0.312-0.287,0.467
				c-3.396,5.518,1.743,20.879,9.467,14.243c1.317-1.131,2.592-2.427,3.709-3.767c3.982-4.778,2.974-20.448-6.336-17.102
				c-2.19,0.787-4.372,2.579-5.251,4.77c-1.589,3.962-2.006,8.421,0.482,12.166c2.17,3.264,5.666,3.968,8.985,2.078
				c3.193-1.819,5.854-3.546,9.34-4.835c3.082-1.14,5.66-0.818,8.431-1.921c7.282-2.898,8.981-19.766-0.875-19.724
				c-0.248,0.001-0.495,0.002-0.742,0.003c-0.379,6.656-0.758,13.312-1.137,19.968c9.744-0.629,17.164-6.001,19.936-15.568
				C561.519,515.585,556.371,504.439,546.434,503.691c-9.978-0.75-11.149,19.215-1.137,19.968c-0.014-0.001-0.838-4.895-0.873-4.853
				c-0.847,1.025-3.111,1.315-4.316,1.393c-9.882,0.638-11.216,20.01-1.137,19.968c0.248-0.001,0.495-0.002,0.742-0.003
				c-0.292-6.574-0.583-13.149-0.875-19.724c1.585-0.165,1.822-0.197,0.71-0.097c-1.29,0.11-2.56,0.307-3.834,0.52
				c-2.341,0.392-4.56,1.222-6.776,2.041c-4.216,1.559-7.708,3.905-11.563,6.101c3.156,4.748,6.312,9.495,9.468,14.243
				c0.009-0.022,0.018-0.045,0.027-0.067c-0.963,1.143-1.927,2.286-2.89,3.429c0.625-0.537,0.173-0.358-1.358,0.536
				c-2.112-5.701-4.224-11.401-6.335-17.102c-0.364,0.437-2.821,2.812-0.5,0.818c3.156,4.748,6.312,9.495,9.467,14.243
				c0.096-0.156,0.191-0.311,0.287-0.466c4.443-7.218-3.478-21.456-11.072-12.768c-5.127,5.865-3.696,14.194,1.387,19.476
				c4.802,4.989,14.15,5.745,20.574,6.354c4.213,0.398,8.456,0.474,12.684,0.521c1.939,0.021,3.879,0.009,5.819,0.003
				c1.109-0.003,5.117,0.958,3.664-0.753c-0.195-0.991-0.391-1.982-0.586-2.974c0.556-1.388,0.536-1.772-0.061-1.156
				c-0.756,0.92-2.569,1.136-3.613,1.388c-4.227,1.019-9.987,0.075-14.339-0.001c-7.217-0.126-14.645-0.739-21.62-2.703
				c-2.901-0.817-11.599-3.551-10.717-8.059c1.181-6.033,8.438-10.269,13.249-13.08c7.316-4.275,15.927-6.885,24.387-7.227
				C555.36,523.252,556.31,503.292,546.434,503.691z"/>
		</g>
	</g>
	<g>
		<path fill="#232734" d="M1192.196,542.724c7.485,4.029,15.828,6.267,23.803,9.104c3.881,1.382,8.156,3.045,11.203,4.669
			c1.608,0.858,3.133,1.858,4.562,2.987c1.751,1.382-0.938-1.141,0.45,0.403c1.535,1.708-0.002-0.526,0.465,0.561
			c-0.771-1.797-0.396,0.064-0.312-2.104c0.046-1.009,0.306-1.959,0.778-2.85c-0.478,0.898-0.38,0.797,0.295-0.303
			c-0.969,1.423-1.769,1.967-3.988,3.582c1.117-0.812-1.343,0.66-1.331,0.655c-1.257,0.571-2.599,0.953-3.924,1.329
			c-2.369,0.671-5,0.841-7.441,1.104c-11.964,1.29-24.049,0.097-36.007,1.31c-9.54,0.968-11.846,20.732-1.229,19.655
			c13.616-1.381,27.365,0.178,40.942-1.959c12.933-2.035,25.425-9.961,27.257-23.846c1.541-11.677-10.268-17.857-19.135-21.665
			c-5.132-2.204-10.464-3.935-15.747-5.731c-2.3-0.783-4.596-1.577-6.874-2.418c-1.005-0.371-2.001-0.768-2.992-1.173
			c-2.081-0.853-0.079,0.086-1.854-0.869C1191.613,520.052,1183.831,538.222,1192.196,542.724L1192.196,542.724z"/>
		<g>
			<path fill="#232734" d="M1186.617,549.58c12.193,6.312,27.108,7.856,38.229,16.068c4.288,3.167,9.779,1.988,13.926-0.698
				c0.015-0.009,0.028-0.018,0.042-0.027c4.173-2.703,4.135-7.555,1-10.824c-2.377-2.479-6.67-2.825-9.807-1.959
				c-4.104,1.133-11.199,6.603-7.062,11.544c1.809,2.159,3.666,3.959,6.629,4.33c5.829,0.729,16.967-4.302,12.207-11.771
				c-0.457-0.716-1.079-1.311-1.72-1.868c-5.422-4.717-19.317-0.179-17.166,8.179c0.026,0.104,0.054,0.208,0.08,0.312
				c6.192-2.228,12.385-4.456,18.578-6.684c-0.115-0.331-0.274-0.635-0.478-0.913c0.141,1.951,0.28,3.901,0.42,5.852
				c0.453-1.313,0.438-2.774,0.942-4.041c4.359-10.962-14.628-11.484-18.588-3.171c-0.095,0.199-0.189,0.398-0.284,0.598
				c-4.646,9.753,13.07,11.809,17.438,5.021c0.192-0.3,0.386-0.601,0.579-0.901c6.807-10.58-10.49-14.593-16.287-6.872
				c-0.674,0.897-0.547,0.67-2.308,1.955c4.309,3.375,8.617,6.751,12.926,10.127c0.097-0.081,0.193-0.162,0.29-0.243
				c2.713-2.278,4.676-5.988,2.411-9.33c-2.865-4.227-9.087-3.947-13.203-2.108c-18.618,8.316-47.827-6.606-60.354,14.154
				c-3.995,6.621-3.099,15.893,2.553,21.119c3.996,3.694,10.059,3.097,14.971,2.738c7.787-0.569,15.626-0.291,23.426-0.488
				c12.591-0.317,25.353-2.168,36.021-9.305c8.756-5.857,15.65-15.59,15.65-26.448c0-11.141-9.035-18.058-17.974-22.831
				c-5.081-2.713-10.571-4.653-16-6.531c-6.119-2.117-12.224-4.673-18.445-6.43c1.377,0.581,2.754,1.162,4.132,1.743
				c-8.104-6.616-20.637-2.671-26.404,4.978c-5.161,6.847-6.474,18.469,1.744,23.63c4.313,2.709,9.838,2.464,13.926-0.697
				c3.155-2.439,5.258-8.15,1-10.824c-0.63-0.396-0.963-0.689-0.906-0.54c-0.359-0.951-0.275-1.77-0.01-3.326
				c0.111-0.653,0.676-1.56,1.092-2.111c-0.661,0.502-0.575,0.426,0.257-0.229c-1.538,1.233-3.634,1.42-5.467,0.839
				c1.275,0.625,1.222,0.559-0.158-0.198c0.229,0.187,6.52,2.906,2.926,1.491c2.695,1.061,5.406,2.051,8.143,3.001
				c5.857,2.032,11.746,3.928,17.471,6.32c5.759,2.406,14.997,6.389,14.997,13.832c0,7.522-5.994,13.638-12.756,15.968
				c-10.992,3.788-23.721,2.33-35.151,2.579c-3.256,0.071-6.502,0.28-9.744,0.576c1.136-0.104,2.997,1.781,2.224,0.604
				c0.389,0.592-0.212-1.136-0.212-1.535c-0.003-1.497,0.225-2.331,0.532-3.171c0.217-0.544,0.468-1.071,0.752-1.583
				c-0.68,1.319,1.405-1.056-0.156,0.275c-0.533,0.382-1.116,0.657-1.752,0.827c0.057-0.016,3.682-0.155,3.852-0.165
				c6.312-0.351,12.652-0.176,18.972-0.263c10.259-0.14,20.106-1.051,29.507-5.25c-3.597-3.813-7.194-7.625-10.791-11.438
				c-0.097,0.081-0.193,0.162-0.289,0.243c-3.336,2.8-4.999,7.698-1,10.824c4.027,3.148,10.057,2.124,13.926-0.697
				c2.091-1.524,4.104-3.125,5.669-5.209c-5.429-2.291-10.858-4.582-16.287-6.872c-0.193,0.3-0.387,0.601-0.579,0.901
				c5.812,1.674,11.624,3.348,17.437,5.021c0.095-0.199,0.19-0.398,0.285-0.598c-6.196-1.057-12.392-2.114-18.588-3.171
				c-0.488,1.08-0.853,2.201-1.094,3.363c-0.413,1.715-0.362,1.941,0.151,0.678c-0.928,2.688-0.279,4.383,0.896,6.764
				c3.815,7.734,20.816,2.014,18.578-6.684c-0.026-0.104-0.054-0.208-0.08-0.312c-5.722,2.727-11.444,5.453-17.166,8.179
				c-0.368-0.374-0.736-0.748-1.104-1.122c4.069-3.924,8.138-7.847,12.207-11.771c-0.033-0.004-0.066-0.008-0.1-0.013
				c1.377,0.581,2.754,1.162,4.132,1.744c0.142,0.138,0.282,0.276,0.425,0.415c-2.354,3.848-4.708,7.696-7.062,11.544
				c0.017-0.005,0.033-0.009,0.049-0.014c-3.092-0.506-6.185-1.011-9.276-1.517c0.175,0.137,0.335,0.289,0.48,0.456
				c0.334-3.608,0.667-7.216,1-10.824c-0.014,0.009-0.027,0.018-0.041,0.027c4.642-0.232,9.284-0.465,13.926-0.697
				c-12.535-9.257-28.355-11.196-41.997-18.257C1189.144,531.4,1175.503,543.826,1186.617,549.58z"/>
		</g>
	</g>
	<g>
		<path fill="#232734" d="M614.779,514.214c58.641-16.02,118.935-26.866,179.652-30.58c62.937-3.85,125.317,2.141,187.558,11.271
			c29.771,4.367,59.547,10.307,89.524,12.992c23.835,2.135,49.341,3.05,70.339,15.848c8.937,5.446,21.604-5.863,10.476-12.646
			c-22.964-13.997-51.222-15.679-77.337-17.931c-31.196-2.69-62.17-8.93-93.15-13.423c-62.721-9.098-125.424-14.868-188.815-10.991
			c-61.925,3.788-123.308,14.501-183.131,30.845c-4.017,1.097-8.934,3.981-7.255,9.014
			C604.132,513.089,610.473,515.391,614.779,514.214L614.779,514.214z"/>
		<g>
			<path fill="#232734" d="M615.779,521.854c61.696-16.792,125.036-27.958,188.98-30.75c65.189-2.846,130.533,4.688,194.788,15.116
				c16.193,2.628,32.37,5.36,48.639,7.492c14.899,1.953,29.896,2.785,44.815,4.508c13.938,1.61,27.535,4.53,40,11.174
				c5.62,2.996,10.888,4.958,17.344,3.161c6.257-1.741,11.552-5.604,14.555-11.415c6.996-13.542-12.31-21.031-21.652-24.662
				c-13.169-5.119-27.267-7.533-41.239-9.145c-14.858-1.714-29.786-2.586-44.628-4.49c-16.225-2.081-32.355-4.836-48.498-7.463
				c-64.31-10.465-129.569-17.525-194.805-15.604c-64.147,1.889-128.242,12.391-190.35,28.253
				c-10.394,2.655-27.637,4.793-30.547,17.589C590.152,518.937,605.558,523.894,615.779,521.854
				c4.382-0.875,9.088-5.634,8.467-10.347c-0.688-5.227-6.379-5.749-10.467-4.933c2.434-0.486-0.813-0.024-1.81-1.527
				c-1.007-1.519-0.604,1.713-1.93,2.5c-0.843,0.5,3.316-0.978,2.707-0.812c8.02-2.183,16.074-4.24,24.146-6.217
				c15.525-3.802,31.154-7.17,46.851-10.178c31.194-5.978,62.757-10.096,94.418-12.58c64.915-5.093,129.727,0.052,194.056,9.128
				c32.358,4.565,64.457,11.049,97.021,14.084c13.977,1.303,27.967,2.231,41.8,4.734c6.411,1.161,12.72,2.748,18.864,4.913
				c3.137,1.105,6.187,2.434,9.192,3.85c2.274,1.072,6.435,2.476,7.922,4.642c-0.33-0.48,1.526-1.81,1.758-1.953
				c0.348-0.215,2.377-0.242-0.081-0.059c0.889-0.066-2.463-1.52-0.947-0.715c-6.573-3.488-12.956-6.543-20.11-8.711
				c-13.761-4.169-27.988-5.679-42.26-6.898c-32.174-2.748-63.806-8.426-95.699-13.272c-62.713-9.528-126.383-15.548-189.846-12.177
				c-62.874,3.341-125.361,14.728-186.052,31.247c-4.335,1.18-9.117,5.416-8.467,10.347
				C605.972,521.939,611.728,522.957,615.779,521.854z"/>
		</g>
	</g>
	<g>
		<path fill="#232734" d="M621.878,568.061c12.214,5.418,25.825,6.781,39.025,7.525c13.595,0.767,27.041,1.531,40.589,2.931
			c32.975,3.408,65.959,6.75,99.003,9.42c33.043,2.669,65.903,4.383,99.062,3.214c32.49-1.145,64.775-4.695,97.189-6.917
			c47.41-3.251,94.978-2.133,142.452-3.456c4.424-0.123,8.307-3.976,6.772-8.502c-1.664-4.912-7.226-7.189-12.026-7.056
			c-32.511,0.905-65.037,0.721-97.55,1.496c-32.533,0.775-64.807,3.76-97.231,6.25c-32.386,2.486-64.938,4.074-97.412,2.533
			c-33.019-1.566-66.034-4.937-98.924-8.17c-20.928-2.057-41.899-5.021-62.889-6.265c-17.627-1.043-36.623,0.151-53.112-7.163
			c-3.899-1.729-10.341-0.723-11.915,3.779C613.177,562.65,617.986,566.335,621.878,568.061L621.878,568.061z"/>
		<g>
			<path fill="#232734" d="M620.228,577.769c14.206,6.059,29.667,7.167,44.911,8.031c16.24,0.92,32.4,2.273,48.58,3.934
				c32.971,3.386,65.963,6.674,99.021,9.113c32.915,2.428,65.884,3.443,98.862,1.788c32.505-1.631,64.864-5.335,97.357-7.133
				c32.942-1.822,65.956-1.746,98.936-2.136c7.917-0.093,15.832-0.222,23.748-0.396c7.741-0.17,14.529-0.018,19.435-6.904
				c4.306-6.045,3.358-15.641-1.191-21.283c-4.1-5.085-9.836-7.466-16.295-7.557c-16.555-0.234-33.207,0.639-49.77,0.807
				c-16.578,0.167-33.157,0.321-49.731,0.739c-32.49,0.817-64.872,3.884-97.263,6.352c-31.745,2.418-63.602,3.83-95.429,2.382
				c-32.397-1.474-64.687-4.799-96.951-7.976c-15.734-1.55-31.421-3.535-47.157-5.06c-15.17-1.471-30.388-1.447-45.56-2.704
				c-6.857-0.568-13.547-1.949-20.03-4.26c-5.593-1.994-10.471-3.481-16.2-0.757c-6.746,3.209-9.422,11.455-8.062,18.424
				C608.83,570.312,613.969,574.759,620.228,577.769c4.58,2.203,8.357-3.68,8.972-7.308c0.84-4.953-1.085-9.902-5.672-12.107
				c-0.887-0.427-1.656-1.083-2.424-1.684c1.964,1.536-2.222,7.824,0.11,6.714c1.896-0.901,3.836,0.17,5.566,0.906
				c7.018,2.983,14.667,4.185,22.183,5.109c14.922,1.837,30.118,1.384,45.103,2.693c32.879,2.875,65.645,7.046,98.531,9.939
				c33.05,2.908,66.062,4.724,99.244,3.671c32.802-1.04,65.474-4.334,98.196-6.65c32.801-2.321,65.607-2.739,98.476-3.074
				c7.964-0.081,15.928-0.174,23.891-0.298c3.981-0.062,7.963-0.139,11.944-0.223c3.688-0.078,7.982-0.828,11.618-0.175
				c0.932,0.167,1.942,0.486,2.757,0.973c0.327,0.247,0.654,0.494,0.982,0.742c-1.635-1.646-1.588-3.799,0.142-6.457
				c-1.303,1.264-7.15,0.402-8.916,0.443c-8.574,0.199-17.15,0.317-25.727,0.419c-32.986,0.39-65.984,0.399-98.933,2.222
				c-32.484,1.796-64.831,5.49-97.328,7.121c-48.252,2.422-96.451-1.458-144.47-5.919c-24.344-2.261-48.641-5.119-73-7.204
				c-22.518-1.927-46.768-0.237-67.946-9.27C613.844,554.223,611.433,574.017,620.228,577.769z"/>
		</g>
	</g>
	<g>
		<path fill="#232734" d="M891.642,884.607c-10.348,62.15-19.467,124.547-24.635,187.365c-2.604,31.658-4.096,63.416-4.139,95.184
			c-0.036,26.445,1.798,52.814,2.06,79.25c0.41,41.363-0.169,82.746,1.87,124.078c0.97,19.648,2.532,39.312,5.608,58.75
			c2.47,15.605,5.872,31.574,12.646,45.938c2.557,5.42,14.698,2.719,11.855-3.309c-7.68-16.279-10.879-34.416-13.303-52.117
			c-3.123-22.807-4.343-45.867-5.104-68.857c-1.516-45.836,0.445-91.811-1.988-137.605c-5.821-109.533,9.379-219.223,27.322-327.012
			C904.942,879.617,892.616,878.744,891.642,884.607L891.642,884.607z"/>
		<g>
			<path fill="#232734" d="M884.311,883.023c-10.768,64.76-20.217,129.799-25.263,195.282c-2.528,32.81-3.921,65.79-3.497,98.699
				c0.426,32.977,2.049,65.893,2.166,98.884c0.115,32.828,0.178,65.668,1.898,98.461c1.621,30.906,4.11,63.047,14.464,92.439
				c2.028,5.756,3.9,11.963,9.489,15.104c4.641,2.609,10.174,2.252,15.016,0.518c4.017-1.439,6.648-5.436,6.015-9.645
				c-0.455-3.025-2.475-6.1-3.604-8.916c-1.595-3.979-2.866-8.072-4.005-12.201c-8.414-30.508-9.712-63.33-10.897-94.781
				c-1.235-32.766-0.676-65.552-0.94-98.331c-0.265-32.797-2.624-65.513-2.507-98.317c0.234-65.828,7.265-131.471,16.631-196.562
				c3.363-23.372,7.076-46.694,10.926-69.991c0.653-3.957,1.975-8.09-0.017-11.853c-1.738-3.284-5.353-5.354-8.852-6.238
				C894.812,873.926,886.248,875.718,884.311,883.023c-1.916,7.228,12.729,10.459,14.662,3.167
				c-0.057,0.212-0.624,0.208-0.814,0.179c-0.955-0.145-1.471-1.012-1.721-1.833c0.179,0.587-0.472,3.392-0.577,4.026
				c-1.394,8.4-2.764,16.807-4.111,25.215c-2.598,16.202-5.078,32.422-7.415,48.663c-4.679,32.515-8.668,65.131-11.589,97.853
				c-2.904,32.527-4.613,65.17-4.858,97.828c-0.246,32.807,2.137,65.523,2.479,98.318c0.34,32.779-0.258,65.559,0.887,98.326
				c1.105,31.678,2.748,64.15,10.51,95.01c1.733,6.891,3.988,13.666,6.739,20.215c0.075,0.18,1.302,4.686,1.448,2.654
				c0-0.004,0.009-0.279-0.054-0.25c0.101-0.049,0.117,0.021,0.31,0.049c0.719,0.213,1.312,0.652,1.776,1.32
				c-0.502-1.062-0.985-2.137-1.451-3.217c-6.015-13.645-8.763-28.541-11.042-43.191c-5.043-32.406-6.038-65.412-6.605-98.152
				c-0.57-32.857,0.02-65.736-0.889-98.586c-0.914-33.094-2.199-66.012-1.1-99.125c2.188-65.905,10.355-131.559,20.292-196.693
				c2.475-16.223,5.095-32.422,7.786-48.608C900.21,878.748,885.537,875.649,884.311,883.023z"/>
		</g>
	</g>
	<g>
		<path fill="#232734" d="M913.581,1552.689c19.844-6.012,37.538-16.889,55.934-26.158c3.156-1.592,2.277-8.844-1.604-6.887
			c-17.897,9.02-35.166,19.812-54.473,25.662C910.021,1546.342,909.84,1553.824,913.581,1552.689L913.581,1552.689z"/>
		<g>
			<path fill="#232734" d="M914.215,1557.361c16.866-5.246,32.298-13.783,47.854-21.986c5.484-2.893,12.166-4.752,13.085-11.771
				c0.529-4.047-1.629-10.818-7.035-8.926c-7.342,2.57-14.371,7.408-21.244,11.043c-7.842,4.15-15.79,8.08-24.024,11.393
				c-6.35,2.555-13.291,2.969-15.486,10.361c-1.242,4.186,0.345,10.928,5.851,10.125c4.736-0.689,5.959-10.582,0.732-9.82
				c0.952,0.777,0.994,1.51,0.125,2.199c1.134-0.344,2.263-0.705,3.386-1.082c2.247-0.736,4.456-1.584,6.659-2.439
				c4.955-1.926,9.775-4.193,14.547-6.531c9.562-4.684,18.832-9.947,28.303-14.811c1.873-0.316,2.078-0.918,0.615-1.803
				c-0.28-1.068-0.927-1.002-1.94,0.197c-2.698,1.385-5.378,2.805-8.059,4.223c-4.825,2.555-9.643,5.121-14.503,7.607
				c-9.723,4.975-19.692,9.432-30.133,12.68C908.436,1549.422,908.653,1559.092,914.215,1557.361z"/>
		</g>
	</g>
	<g>
		<path fill="#232734" d="M923.014,1585.416c34.925-9.186,66.449-27.23,100.267-39.432c4.619-1.668,0.431-6.562-3.234-5.24
			c-33.816,12.201-65.342,30.246-100.266,39.432C915.028,1581.424,919.31,1586.391,923.014,1585.416L923.014,1585.416z"/>
		<g>
			<path fill="#232734" d="M922.668,1590.117c23.964-6.416,46.509-16.709,69.155-26.652c5.579-2.451,11.178-4.854,16.812-7.176
				c5.375-2.217,11.202-3.859,16.384-6.467c7.771-3.91,3.963-15.604-4.627-13.779c-5.525,1.174-11.152,4.145-16.372,6.275
				c-5.641,2.303-11.23,4.732-16.812,7.176c-11.719,5.129-23.38,10.389-35.245,15.178c-5.645,2.277-11.352,4.395-17.108,6.369
				c-5.535,1.898-11.411,3.053-16.844,5.195c-3.304,1.303-5.229,6.002-3.985,9.242
				C915.413,1589.094,919.015,1590.568,922.668,1590.117c4.688-0.58,6.463-10.117,0.691-9.402c-0.323-0.018-0.647-0.035-0.972-0.051
				c-1.649-1.4-2.043-0.154-1.181,3.738c2.359-0.633,4.699-1.334,7.036-2.043c4.427-1.344,8.808-2.844,13.163-4.398
				c8.598-3.072,17.034-6.586,25.421-10.188c17.356-7.453,34.467-15.471,52.191-22.039c0.55-0.141,1.1-0.281,1.648-0.424
				c1.619,1.219,2.26-0.012,1.923-3.691c-2.124,1.068-4.623,1.705-6.849,2.557c-4.551,1.742-9.057,3.604-13.549,5.49
				c-8.428,3.539-16.769,7.283-25.135,10.967c-17.51,7.707-35.183,15.125-53.698,20.082
				C918.859,1581.918,917.156,1591.592,922.668,1590.117z"/>
		</g>
	</g>
	<g>
		<path fill="#232734" d="M943.753,1622.9c35.434-20.354,76.35-28.697,111.532-49.568c3.344-1.982,2.324-8.363-1.902-5.857
			c-35.16,20.859-76.088,29.211-111.532,49.57C938.474,1618.984,939.494,1625.348,943.753,1622.9L943.753,1622.9z"/>
		<g>
			<path fill="#232734" d="M945.271,1627.051c23.865-13.562,50.209-21.82,75.542-32.1c12.38-5.023,24.461-10.703,35.99-17.469
				c6.623-3.885,5.293-18.902-3.987-14.688c-5.862,2.662-11.379,6.318-17.21,9.123c-6.376,3.064-12.901,5.816-19.456,8.475
				c-12.589,5.109-25.382,9.697-38.011,14.707c-12.425,4.93-24.578,10.416-36.263,16.916c-4.156,2.312-6.382,6.271-5.768,11.084
				c0.555,4.334,4.403,6.145,8.21,4.48c4.296-1.877,4.137-11.662-1.133-9.359c-0.705,3.064-0.13,3.764,1.727,2.096
				c1.233-0.686,2.474-1.357,3.721-2.016c2.084-1.113,4.198-2.166,6.315-3.213c4.759-2.352,9.616-4.504,14.496-6.592
				c9.229-3.951,18.632-7.49,28.016-11.055c19.118-7.262,38.131-14.711,55.908-24.916c1.303-3.385,0.924-4.199-1.136-2.443
				c-1.22,0.709-2.449,1.402-3.688,2.078c-2.069,1.139-4.172,2.215-6.277,3.285c-4.731,2.402-9.567,4.596-14.43,6.719
				c-9.737,4.254-19.688,8.01-29.619,11.781c-19.125,7.266-38.157,14.674-55.984,24.805
				C938,1621.156,939.838,1630.139,945.271,1627.051z"/>
		</g>
	</g>
	<g>
		<path fill="#232734" d="M702.231,1494.367c13.371,15.527,27.828,30.111,40.557,46.189c2.888,3.648,5.684-2.852,3.47-5.648
			c-12.729-16.078-27.186-30.66-40.557-46.189C702.651,1485.176,699.884,1491.641,702.231,1494.367L702.231,1494.367z"/>
		<g>
			<path fill="#232734" d="M698.19,1497.182c10.968,12.682,22.574,24.797,33.459,37.553c3.616,4.236,7.964,13.221,14.856,10.271
				c4.489-1.92,6.83-7.73,4.349-12.064c-4.012-7.008-10.876-13.293-16.232-19.301c-5.785-6.49-11.689-12.873-17.497-19.344
				c-3.741-4.168-8.425-12.883-15.234-9.971c-4.442,1.902-6.927,7.742-4.257,12.008c2.667,4.262,11.782,0.201,9.193-3.934
				c-0.473-0.502-0.688-1.098-0.647-1.787c-4.627-0.426-5.728,0.35-3.302,2.328c2.031,2.35,4.097,4.666,6.166,6.982
				c4.138,4.631,8.337,9.207,12.51,13.807c1.958,2.158,21.5,24.625,20.832,25.027c1.23-0.391,2.461-0.779,3.691-1.168
				c1.27,0.428,1.133-0.006-0.41-1.303c-0.777-0.969-1.561-1.934-2.35-2.893c-1.572-1.924-3.182-3.814-4.794-5.703
				c-3.627-4.252-7.362-8.41-11.106-12.559c-7.074-7.838-14.237-15.592-21.144-23.578
				C703.14,1487.934,694.675,1493.115,698.19,1497.182z"/>
		</g>
	</g>
	<g>
		<path fill="#232734" d="M662.39,1515.414c17.612,21.477,26.146,51.186,49.016,68.178c2.885,2.145,9.149-1.061,5.398-3.848
			c-22.299-16.568-30.668-46.033-47.872-67.012C666.705,1510.016,659.658,1512.082,662.39,1515.414L662.39,1515.414z"/>
		<g>
			<path fill="#232734" d="M659.686,1518.502c12.488,15.469,20.252,34.002,31.757,50.137c5.127,7.191,11.837,15.795,19.778,20.006
				c7.316,3.879,14.018-6.531,8.306-12.105c-3.423-3.342-7.264-6.131-10.551-9.664c-3.399-3.654-6.296-7.793-9.065-11.932
				c-5.537-8.275-10.173-17.129-15.16-25.738c-2.476-4.273-5.076-8.471-7.86-12.553c-2.231-3.27-4.7-7.686-8.36-9.492
				c-2.497-1.232-7.044-0.779-8.825,1.59C657.342,1511.896,657.713,1515.25,659.686,1518.502c3.393,5.598,8.05-1.82,5.409-6.176
				c-0.065,1.461-0.13,2.924-0.195,4.385c0.514-0.23,1.053-0.314,1.616-0.252c1.024,0.062,2.716,3.227,3.272,3.979
				c2.039,2.766,3.903,5.658,5.728,8.566c3.97,6.326,7.533,12.902,11.24,19.385c7.271,12.719,15.364,25.184,26.929,34.428
				c3.057,2.443,1.976-3.465-0.379-3.473c-1.378-0.006-3.605-2.639-4.572-3.48c-2.658-2.316-5.101-4.9-7.379-7.586
				c-4.783-5.641-8.779-11.928-12.581-18.254c-7.655-12.732-14.303-26.086-23.678-37.697
				C660.99,1507.242,656.407,1514.443,659.686,1518.502z"/>
		</g>
	</g>
	<g>
		<path fill="#232734" d="M630.615,1541.602c4.208,11.135,9.051,22.027,14.428,32.646c4.903,9.684,10.281,19.611,17.527,27.768
			c2.365,2.664,9.27,1.084,6.183-2.391c-7.252-8.164-12.493-18.033-17.396-27.717c-5.144-10.158-9.714-20.637-13.739-31.287
			C636.368,1537.312,629.077,1537.529,630.615,1541.602L630.615,1541.602z"/>
		<g>
			<path fill="#232734" d="M626.885,1544.484c6.379,16.727,13.784,33.518,23.312,48.717c3.217,5.133,7.511,14.162,14.278,14.861
				c6.021,0.621,10.112-4.986,8.58-10.492c-0.798-2.869-4.709-6.043-6.455-8.465c-2.838-3.934-5.227-8.176-7.542-12.432
				c-4.699-8.639-8.898-17.557-12.766-26.596c-2.445-5.717-3.524-14.811-10.517-16.4c-5.545-1.262-10.406,4.555-9.183,9.756
				c1.432,6.092,9.156,1.068,8.043-3.666c-3.073,2.379-3.649,3.488-1.73,3.33c1.277,0.092,1.229,1.055,1.658,2.18
				c1.127,2.959,2.321,5.891,3.532,8.814c2.665,6.436,5.592,12.76,8.679,19.002c2.833,5.73,5.82,11.389,9.119,16.865
				c1.367,2.27,2.829,4.479,4.336,6.656c0.982,1.418,2.046,2.777,3.113,4.133c0.365,0.441,0.731,0.885,1.097,1.328
				c1.075,1.656,1.385,1.799,0.931,0.428c0.504-1.189,1.009-2.377,1.514-3.564c0.613-0.398,0.452-0.529-0.482-0.395
				c-1.147-0.119-2.23-2.135-2.875-2.916c-1.839-2.225-3.482-4.609-5.09-7.002c-3.354-4.996-6.14-10.385-8.886-15.73
				c-5.702-11.102-10.76-22.518-15.207-34.178C632.296,1533.346,625.215,1540.104,626.885,1544.484z"/>
		</g>
	</g>
	<g>
		<path fill="#232734" d="M619.155,524.402c-0.376-0.799-3.781,3.274-1.8,4.462c1.168,0.701,2.25,1.557,3.325,2.389
			c3.114,2.409,6.071,5.027,9.015,7.639c4.705,4.173,9.386,8.416,13.859,12.839c3.337,3.299,6.251-2.965,3.657-5.529
			c-6.346-6.274-13.025-12.284-19.809-18.077c-2.921-2.495-5.993-5.399-9.582-6.908c-4.479-1.884-4.435,4.819-3.291,7.251
			C616.623,532.914,620.792,527.879,619.155,524.402L619.155,524.402z"/>
		<g>
			<path fill="#232734" d="M621.232,520.862c-4.805-1.56-9.997,3.234-9.341,8.092c0.393,2.913,5.382,5.216,7.391,6.853
				c3.643,2.968,7.113,6.163,10.604,9.306c4.735,4.263,11.611,14.562,19.127,10.333c2.385-1.342,3.806-3.516,4.105-6.232
				c0.402-3.651-2.224-5.809-4.614-8.125c-7.09-6.873-14.481-13.697-22.293-19.746c-4.88-3.778-11.978-6.669-16.274-0.53
				c-2.703,3.861-0.65,11.478,3.958,12.815c5.945,1.726,12.046-3.809,10.218-9.88c-1.449-4.811-11.318-3.354-9.914,1.311
				c0.108,0.359,0.217,0.719,0.325,1.079c-0.831,2.42,0.721,2.657,4.655,0.712c-0.346-0.538-0.289-1.518-0.336-2.119
				c0.018-0.246,0.035-0.492,0.053-0.738c0.416-1.531-0.492-1.184-2.725,1.044c2.216,1.069,4.09,2.852,5.938,4.442
				c6.235,5.365,12.389,10.805,18.332,16.493c0.928,0.889,2.912,2.039,2.75,3.501c1.465-0.061,2.931-0.123,4.396-0.184
				c-0.896-0.885-1.798-1.762-2.707-2.633c-3.174-3.062-6.455-6.013-9.741-8.952c-2.567-2.295-5.152-4.57-7.792-6.782
				c-1.211-1.015-2.464-1.979-3.714-2.944c-0.656-0.49-1.315-0.977-1.977-1.46c0.414,0.49,0.466,0.716,0.16,0.677
				c-1.668,0.22-3.336,0.441-5.004,0.662c0.089,0.028,0.178,0.058,0.267,0.086C622.011,529.544,627.463,522.884,621.232,520.862z"/>
		</g>
	</g>
	<g>
		<path fill="#232734" d="M649.567,517.651c9.817,13.04,20.241,26.917,33.511,36.652c2.887,2.118,8.894-2.341,5.725-4.666
			c-12.857-9.432-23.07-22.813-32.583-35.45C653.954,511.178,647.373,514.735,649.567,517.651L649.567,517.651z"/>
		<g>
			<path fill="#232734" d="M646.223,520.974c8.827,11.723,17.741,23.486,28.825,33.198c4.445,3.895,7.745,6.879,13.545,4.246
				c3.942-1.79,6.433-7.626,4.163-11.481c-1.373-2.331-4.58-3.97-6.611-5.688c-3.076-2.603-5.92-5.472-8.692-8.39
				c-5.339-5.619-10.11-11.753-14.804-17.911c-3.154-4.137-5.82-8.451-11.605-5.959
				C646.341,511.012,643.851,516.284,646.223,520.974c2.585,5.113,8.797-2.473,6.688-6.645c-0.216,1.235-0.431,2.471-0.646,3.706
				c0.78-0.368,1.324-0.091,1.633,0.831c1.375,1.826,2.761,3.645,4.152,5.458c2.673,3.483,5.428,6.903,8.244,10.271
				c5.549,6.635,11.628,12.803,18.446,18.136c3.139,2.456,2.265-2.822,0.826-2.728c-1.142,0.075-4.254-3.334-5.126-4.072
				c-3.502-2.959-6.718-6.251-9.835-9.608c-6.407-6.897-12.038-14.484-17.693-21.995
				C649.405,509.673,643.382,517.201,646.223,520.974z"/>
		</g>
	</g>
	<g>
		<path fill="#232734" d="M690.229,508.826c13.178,17.529,27.093,34.61,44.059,48.641c2.77,2.291,8.542-2.427,5.447-4.986
			c-16.589-13.721-30.176-30.352-43.063-47.494C694.403,501.969,688.006,505.869,690.229,508.826L690.229,508.826z"/>
		<g>
			<path fill="#232734" d="M687.333,512.546c10.702,14.203,21.879,28.045,34.742,40.367c4.421,4.236,9.563,11.449,16.318,9.498
				c4.543-1.312,8.292-9.027,4.833-12.971c-2.362-2.693-5.431-4.858-8.085-7.267c-3.707-3.365-7.207-6.956-10.638-10.599
				c-6.116-6.493-11.799-13.385-17.322-20.383c-3.434-4.351-7.612-13.893-14.456-11.857c-4.995,1.486-8.434,7.353-5.935,12.268
				c2.836,5.578,9.08-1.221,6.878-5.552c-1.063,2.462-1.027,3.348,0.108,2.657c0.716,0.952,1.434,1.903,2.155,2.852
				c1.798,2.374,3.623,4.728,5.459,7.072c3.667,4.684,7.458,9.27,11.354,13.766c7.236,8.35,15.063,16.186,23.465,23.362
				c1.745-2.483,1.957-3.366,0.637-2.648c-0.75-0.065-1.342-0.471-1.775-1.217c-2.276-1.903-4.475-3.898-6.654-5.911
				c-4.531-4.185-8.772-8.687-12.911-13.255c-7.958-8.786-15.251-18.16-22.381-27.622
				C689.649,500.494,684.503,508.79,687.333,512.546z"/>
		</g>
	</g>
	<g>
		<path fill="#232734" d="M738.291,504.95c16.41,18.165,26.862,41.702,47.217,56.165c3.817,2.712,5.089-4.182,2.146-6.272
			c-19.768-14.046-29.95-37.324-45.912-54.993C738.447,496.202,735.694,502.075,738.291,504.95L738.291,504.95z"/>
		<g>
			<path fill="#232734" d="M734.864,507.21c11.838,13.286,20.45,29.074,32.264,42.387c2.77,3.121,5.668,6.083,8.774,8.872
				c2.905,2.607,6.618,6.295,10.609,6.983c7.111,1.227,9.196-6.26,5.99-11.376c-1.852-2.954-6.114-5.083-8.7-7.428
				c-3.557-3.224-6.727-6.845-9.744-10.569c-5.926-7.316-11.08-15.235-16.532-22.9c-4.252-5.979-9.321-15.049-16.298-18.002
				c-7.258-3.072-10.576,6.11-7.134,11.155c2.716,3.979,11.917,2.397,8.396-2.763c-0.113-0.263-0.227-0.525-0.34-0.788
				c0.581-1.762-0.698-1.985-3.834-0.67c1.212,1.057,2.249,2.604,3.272,3.848c1.986,2.413,3.854,4.922,5.705,7.439
				c3.724,5.064,7.239,10.28,10.869,15.411c7.358,10.4,15.427,20.553,25.801,28.107c0.135,0.163,0.27,0.325,0.405,0.488
				c-0.233,1.705,0.953,1.942,3.557,0.712c-1.407-0.76-2.75-2.12-3.98-3.141c-2.407-1.997-4.635-4.201-6.809-6.444
				c-4.439-4.58-8.296-9.714-12.055-14.854c-7.653-10.465-14.716-21.283-23.361-30.985
				C738.237,498.783,730.528,502.345,734.864,507.21z"/>
		</g>
	</g>
	<g>
		<path fill="#232734" d="M787.292,499.286c16.633,22.71,32.686,46.042,52.575,66.093c2.834,2.857,7.117-3.237,4.587-5.788
			c-19.89-20.051-35.942-43.383-52.575-66.093C789.565,490.339,785.18,496.402,787.292,499.286L787.292,499.286z"/>
		<g>
			<path fill="#232734" d="M783.133,501.505c12.295,16.81,24.295,33.853,37.714,49.8c3.154,3.749,6.422,7.4,9.756,10.99
				c2.685,2.891,5.495,6.995,9.716,7.532c5.798,0.738,12.734-6.142,8.79-11.75c-2.56-3.64-6.329-6.759-9.325-10.072
				c-3.695-4.087-7.235-8.313-10.719-12.582c-6.973-8.544-13.542-17.413-20.05-26.313c-2.894-3.957-5.767-7.929-8.648-11.895
				c-2.288-3.148-4.413-7.744-8.73-8.293c-6.071-0.772-12.036,5.922-9.075,11.728c2.176,4.269,11.874,2.003,9.461-2.729
				c-0.372-0.73-0.351-1.443,0.234-2.094c-1.512-0.037-3.024-0.074-4.537-0.111c0.723,0.988,1.445,1.976,2.167,2.965
				c2.167,2.969,4.323,5.945,6.482,8.919c4.321,5.952,8.662,11.889,13.08,17.77c9.201,12.244,18.887,24.125,29.555,35.127
				c0.892,0.919,1.792,1.249,0.835,2.322c0.965-0.324,1.931-0.647,2.896-0.971c-0.857-0.877-1.708-1.762-2.552-2.652
				c-2.539-2.658-4.993-5.396-7.423-8.153c-4.858-5.512-9.472-11.237-13.995-17.024c-9.432-12.07-18.272-24.591-27.314-36.952
				C788.663,493.255,779.692,496.801,783.133,501.505z"/>
		</g>
	</g>
	<g>
		<path fill="#232734" d="M841.529,500.114c16.508,21.199,28.935,45.351,47.11,65.28c3.144,3.446,5.593-3.171,3.181-5.817
			c-17.769-19.483-29.88-43.173-46.023-63.903C842.793,491.817,839.118,497.017,841.529,500.114L841.529,500.114z"/>
		<g>
			<path fill="#232734" d="M838.726,503.531c12.144,15.723,22.208,32.893,33.886,48.949c2.745,3.775,5.628,7.447,8.606,11.042
				c2.062,2.486,5.148,7.674,8.823,7.834c6.522,0.285,7.886-10.245,5.122-14.385c-2.409-3.608-5.746-6.77-8.458-10.18
				c-3.267-4.108-6.323-8.381-9.326-12.685c-5.68-8.142-11.008-16.526-16.541-24.768c-2.604-3.878-5.277-7.707-8.022-11.486
				c-1.849-2.545-4.854-8.443-8.63-8.489C836.785,489.272,835.945,498.547,838.726,503.531c1.166,2.09,3.912,1.92,5.298,0.231
				c1.675-2.042,1.532-4.872,0.308-7.064c-0.985,2.096-0.721,3.821,0.79,5.174c1.059,1.395,2.087,2.812,3.116,4.229
				c2.058,2.834,4.041,5.723,6.012,8.618c3.616,5.311,7.115,10.702,10.66,16.061c7.28,11.004,14.805,21.905,23.653,31.723
				c2.686-0.689,2.865-1.739,0.54-3.148c-1.16-1.315-2.278-2.667-3.397-4.017c-2.233-2.695-4.355-5.481-6.451-8.284
				c-4.192-5.606-8.108-11.418-11.993-17.24c-7.453-11.175-14.712-22.477-22.93-33.116
				C840.507,491.745,835.76,499.691,838.726,503.531z"/>
		</g>
	</g>
	<g>
		<path fill="#232734" d="M894.448,499.189c15.449,21.746,28.638,45.033,45.062,66.094c2.164,2.774,9.234,0.813,6.58-2.591
			c-16.427-21.06-29.613-44.348-45.062-66.094C898.981,493.717,891.935,495.648,894.448,499.189L894.448,499.189z"/>
		<g>
			<path fill="#232734" d="M889.998,501.295c11.818,16.718,22.411,34.255,34.06,51.087c2.824,4.081,5.744,8.093,8.731,12.055
				c2.323,3.081,4.214,5.588,8.291,5.906c5.433,0.423,13.052-3.493,9.461-9.757c-2.399-4.186-6.058-8.014-8.868-11.961
				c-2.876-4.041-5.652-8.153-8.406-12.278c-5.855-8.77-11.507-17.674-17.308-26.48c-2.729-4.144-5.511-8.253-8.339-12.33
				c-2.203-3.175-3.997-5.693-8.078-6.075C893.875,490.929,886.754,494.995,889.998,501.295c2.178,4.229,11.371,0.584,8.9-4.213
				c-1.875,0.82-2.29,1.867-1.246,3.142c1.074,1.519,2.129,3.053,3.184,4.586c2.109,3.066,4.17,6.166,6.223,9.269
				c3.766,5.691,7.456,11.431,11.177,17.15c7.441,11.441,15.044,22.775,23.405,33.57c2.034-0.885,2.428-1.917,1.18-3.096
				c-1.141-1.472-2.252-2.966-3.363-4.459c-2.223-2.984-4.369-6.024-6.5-9.075c-3.904-5.593-7.654-11.293-11.386-17.003
				c-7.465-11.425-14.793-22.937-22.673-34.083C896.131,493.167,886.923,496.945,889.998,501.295z"/>
		</g>
	</g>
	<g>
		<path fill="#232734" d="M950.922,506.194c8.554,18.565,20.011,36.383,33.511,51.743c2.856,3.25,6.188-3.278,3.859-5.925
			c-13.164-14.976-24.238-32.296-32.579-50.4C953.761,497.376,949.423,502.941,950.922,506.194L950.922,506.194z"/>
		<g>
			<path fill="#232734" d="M947.829,508.894c6.898,14.811,15.363,28.797,25.226,41.823c2.482,3.278,5.102,6.451,7.774,9.574
				c1.649,1.927,3.441,3.873,6.199,3.392c5.186-0.904,7.385-9.471,4.855-13.563c-4.022-6.509-9.802-12.181-14.27-18.45
				c-4.929-6.915-9.293-14.215-13.314-21.689c-1.953-3.628-3.755-7.334-5.494-11.069c-0.948-2.037-2.935-3.951-5.333-3.817
				c-5.685,0.316-7.328,8.333-6.088,12.627c1.82,6.298,8.658,2.427,7.074-3.056c0.14,0.899-0.474,0.781-1.839-0.354
				c0.491,1.066,0.991,2.128,1.5,3.186c1.012,2.127,2.086,4.224,3.167,6.316c2.445,4.729,5.123,9.334,7.913,13.867
				c5.472,8.891,11.629,17.348,18.339,25.341c0.799,1.814,1.529,1.786,2.192-0.085c-0.766-0.887-1.523-1.78-2.273-2.68
				c-1.513-1.799-2.972-3.644-4.422-5.494c-3.28-4.184-6.346-8.53-9.304-12.945c-6.01-8.972-11.162-18.542-15.718-28.323
				C951.248,497.555,945.666,504.25,947.829,508.894z"/>
		</g>
	</g>
	<g>
		<path fill="#232734" d="M999.514,511.409c15.026,15.293,24.643,34.648,37.075,51.911c2.738,3.802,6.833-1.712,4.697-4.677
			c-12.748-17.7-22.625-37.553-38.032-53.235C1000.208,502.308,997.036,508.888,999.514,511.409L999.514,511.409z"/>
		<g>
			<path fill="#232734" d="M996.393,515.316c12.22,12.646,20.952,28.005,30.547,42.612c2.908,4.428,7.006,13.95,13.765,10.407
				c5.439-2.852,6.783-9.457,3.369-14.239c-10.021-14.04-18.286-29.243-29.027-42.782c-2.841-3.581-9.347-14.35-15.15-10.555
				c-4.354,2.849-7.527,8.957-4.17,13.794c3.069,4.421,10.303-2.362,7.576-6.29c-0.606-1.497-1.662-1.146-3.169,1.051
				c0.81,0.824,1.605,1.661,2.389,2.51c2.126,2.271,4.086,4.692,6.019,7.128c3.567,4.497,6.813,9.245,9.99,14.021
				c6.053,9.098,11.687,18.464,17.967,27.413c1.053,2.386,2.012,1.848,2.878-1.615c-0.664-0.939-1.321-1.883-1.971-2.833
				c-1.636-2.369-3.209-4.78-4.78-7.192c-3.144-4.828-6.2-9.712-9.34-14.543c-6.151-9.466-12.792-18.569-20.649-26.701
				C999.223,503.972,992.896,511.697,996.393,515.316z"/>
		</g>
	</g>
	<g>
		<path fill="#232734" d="M1056.722,523.245c10.567,10.797,18.083,23.981,27.039,36.051c2.761,3.721,5.594-2.796,3.482-5.641
			c-8.958-12.073-16.465-25.248-27.039-36.051C1056.922,514.251,1054.181,520.65,1056.722,523.245L1056.722,523.245z"/>
		<g>
			<path fill="#232734" d="M1052.42,525.639c9.657,10.059,16.944,21.938,24.995,33.248c2.923,4.106,6.402,7.183,11.495,4.129
				c4.169-2.5,4.749-7.792,2.635-11.754c-3.164-5.931-8.081-11.532-11.92-17.079c-3.95-5.709-8.104-11.258-12.731-16.438
				c-3.391-3.797-7.134-6.656-12.178-3.633C1050.689,516.523,1049.771,521.93,1052.42,525.639c2.783,3.897,11.726-0.418,8.604-4.788
				c-0.133-0.265-0.267-0.53-0.399-0.795c0.59-2.162-0.581-1.763-3.516,1.199c1.604,1.67,3.101,3.44,4.586,5.214
				c2.596,3.1,4.981,6.375,7.333,9.661c4.714,6.588,9.115,13.391,13.914,19.919c0.043,0.321,0.086,0.642,0.129,0.962
				c-0.882,2.452,0.782,2.416,4.992-0.109c-1.554-1.597-2.767-3.815-4.047-5.637c-2.33-3.314-4.591-6.678-6.887-10.016
				c-4.922-7.158-10.08-14.123-16.105-20.398C1057.719,517.409,1048.793,521.862,1052.42,525.639z"/>
		</g>
	</g>
	<g>
		<path fill="#232734" d="M1106.026,522.351c6.216,12.229,14.05,23.325,22.929,33.76c2.309,2.713,9.24,1.267,6.227-2.274
			c-8.511-10.001-16.173-20.602-22.136-32.332C1111.468,518.399,1104.094,518.549,1106.026,522.351L1106.026,522.351z"/>
		<g>
			<path fill="#232734" d="M1101.795,524.869c6.154,11.924,13.752,22.938,22.317,33.251c2.857,3.44,6.755,4.667,11.033,2.996
				c3.778-1.477,6.788-6.014,4.281-9.812c-3.428-5.194-7.91-9.821-11.555-14.9c-4.177-5.821-7.071-12.454-11.136-18.273
				C1111.972,511.31,1098.782,516.357,1101.795,524.869c1.771,5.002,10.062-0.519,8.463-5.035c-0.886,1.289-1.771,2.577-2.655,3.865
				c0.489,0.034,0.92,0.208,1.293,0.521c1.003,0.871,1.806,3.37,2.451,4.54c1.601,2.899,3.368,5.702,5.147,8.493
				c4.154,6.521,8.901,12.653,13.842,18.591c0.386,0.456,0.771,0.912,1.155,1.368c3.412-2.822,3.993-4.196,1.744-4.123
				c-1.032-0.127-2.295-2.381-2.882-3.088c-2.652-3.193-5.169-6.494-7.617-9.844c-4.7-6.434-8.826-13.245-12.479-20.322
				C1107.785,515.043,1099.607,520.629,1101.795,524.869z"/>
		</g>
	</g>
	<g>
		<path fill="#232734" d="M542.093,591.687c-14.524,11.399-21.304,32.252-26.458,49.261c-1.092,3.603,6.052,5.887,7.141,2.295
			c2.509-8.28,5.449-16.413,9.019-24.297c3.701-8.173,8.412-16.936,15.596-22.575C550.824,593.677,544.881,589.499,542.093,591.687
			L542.093,591.687z"/>
		<g>
			<path fill="#232734" d="M540.68,587.5c-11.036,8.965-17.619,21.424-22.684,34.478c-2.423,6.247-5.396,13.249-6.323,19.909
				c-0.707,5.072,4.58,8.902,9.243,7.829c6.279-1.444,7.136-10.857,8.902-15.856c2.939-8.321,6.432-16.523,11.045-24.062
				c2.128-3.477,4.8-6.641,7.942-9.238c2.513-2.077,3.611-4.717,3.422-7.948C551.884,586.761,544.917,585.227,540.68,587.5
				c-4.292,2.302-2.682,11.329,2.826,8.375c-0.512,0.173-0.274,0.28,0.714,0.323c1.165-3.047,1.045-3.784-0.357-2.209
				c-2.02,1.841-3.812,3.803-5.504,5.948c-2.978,3.773-5.356,7.978-7.52,12.255c-2.319,4.582-4.306,9.35-6.198,14.12
				c-1.138,2.869-2.163,5.782-3.165,8.7c-0.396,1.17-0.782,2.343-1.159,3.52c-0.186,0.589-0.372,1.178-0.558,1.767
				c1.165-0.12,1.368-0.166,0.609-0.138c-0.443-0.071-0.843-0.236-1.2-0.494c0.332,1.58,0.61,1.516,0.836-0.191
				c0.697-2.277,1.42-4.545,2.161-6.808c1.539-4.699,3.266-9.331,5.206-13.879c3.667-8.598,8.819-16.97,16.136-22.914
				c1.943-1.579,3.045-4.245,2.211-6.717C545.008,587.057,542.531,585.996,540.68,587.5z"/>
		</g>
	</g>
	<g>
		<path fill="#232734" d="M558.51,636.213c-9.377,12.807-14.771,27.816-23.027,41.281c-2.432,3.966,4.635,4.347,6.499,1.308
			c7.936-12.943,13.028-27.532,22.036-39.833C566.912,635.015,560.823,633.054,558.51,636.213L558.51,636.213z"/>
		<g>
			<path fill="#232734" d="M554.856,634.342c-8.444,11.785-14.059,25.066-21.042,37.699c-1.831,3.312-6.168,8.633-1.422,11.638
				c3.594,2.275,8.678,0.938,11.805-1.519c4.526-3.555,7.098-11.293,9.608-16.315c3.399-6.797,6.692-13.63,10.633-20.138
				c2.217-3.661,8.199-9.579,3.107-13.539C563.53,629.046,558.019,631.082,554.856,634.342c-4.56,4.7,3.753,7.407,7.308,3.742
				c-0.94,0.147-1.881,0.295-2.822,0.443c-0.562,0.796-1.115,1.599-1.66,2.407c-0.988,1.445-1.892,2.948-2.798,4.445
				c-2.116,3.495-3.979,7.143-5.824,10.785c-1.85,3.651-3.631,7.337-5.478,10.99c-0.791,1.564-1.612,3.113-2.438,4.659
				c-0.249,0.466-2.707,5.129-2.251,4.979c2.858-0.943-1.041,4.859,1.821,0.113c1.207-2.001,2.32-4.058,3.43-6.113
				c1.942-3.597,3.747-7.27,5.577-10.924c3.745-7.478,7.562-14.969,12.444-21.783C565.961,632.785,557.902,630.09,554.856,634.342z"
				/>
		</g>
	</g>
	<g>
		<path fill="#232734" d="M583.12,672.924c-1.846,15.834-9.825,30.029-16.25,44.355c-1.656,3.693,5.354,6.102,6.812,2.851
			c6.614-14.747,14.898-29.471,16.798-45.772C590.919,670.608,583.551,669.228,583.12,672.924L583.12,672.924z"/>
		<g>
			<path fill="#232734" d="M579.349,672.136c-1.97,15.009-9.467,28.436-15.618,42.032c-2.008,4.44-0.263,9.559,4.133,11.688
				c5.387,2.608,8.381-1.384,10.396-5.774c6.153-13.409,13.151-26.731,15.488-41.466c0.793-5.002,0.396-10.327-5.104-12.294
				c-4.104-1.467-7.909,0.377-9.096,4.578c-1.404,4.972,5.361,10.357,7.143,4.05c-0.367,1.3-0.964,0.619,0.573,0.912
				c-0.407-2.875-0.667-3.059-0.783-0.551c-0.209,1.314-0.46,2.62-0.754,3.917c-0.963,4.553-2.5,8.978-4.145,13.321
				c-1.725,4.556-3.832,8.978-5.891,13.389c-0.987,2.115-1.986,4.225-2.975,6.34c-0.49,1.052-0.977,2.105-1.458,3.161
				c-0.94,1.614-1.07,2.027-0.391,1.241c-0.196-0.011-0.392-0.021-0.587-0.032c-1.466-0.75-1.316-0.033,0.449,2.152
				c0.964-2.132,1.966-4.247,2.96-6.365c1.999-4.256,3.979-8.517,5.823-12.843c3.556-8.343,6.198-16.874,7.379-25.879
				C587.639,668.016,580.197,665.677,579.349,672.136z"/>
		</g>
	</g>
	<g>
		<path fill="#232734" d="M626.046,700.04c-4.338,4.528-7.76,10.374-9.844,16.28c-1.232,3.493,6.033,5.326,7.289,1.765
			c1.698-4.813,4.632-10.057,8.181-13.761C634.696,701.168,628.495,697.485,626.046,700.04L626.046,700.04z"/>
		<g>
			<path fill="#232734" d="M623.47,696.449c-2.741,2.951-4.96,6.193-6.983,9.667c-1.837,3.155-4.318,7.519-4.14,11.282
				c0.287,6.052,7.224,9.922,12.274,6.083c2.586-1.965,3.399-6.308,4.868-9.074c1.808-3.405,5.648-6.148,6.518-9.951
				c1.472-6.438-5.876-13.491-11.762-8.772c-3.662,2.936-0.892,12.316,3.601,8.714c0.143-0.235,0.345-0.302,0.607-0.199
				c0.134,0.045,0.269,0.091,0.403,0.137c1.358,0.857,1.438-0.343,0.24-3.602c-1.157,1.516-2.449,2.885-3.539,4.468
				c-2.189,3.181-3.917,6.676-5.25,10.292c0.716-0.552,0.833-0.714,0.353-0.488c-0.619,0.079-1.007-0.061-1.571-0.274
				c-0.962-0.868-0.728,0.157,0.703,3.075c0.411-1.12,0.907-2.208,1.401-3.292c1.839-4.04,4.417-7.64,7.429-10.882
				C631.93,700.069,627.728,691.864,623.47,696.449z"/>
		</g>
	</g>
	<g>
		<path fill="#232734" d="M680.573,664.947c18.862-22.259,38.594-45.215,62.366-62.394c3.478-2.513,1.134-7.905-2.845-5.03
			c-24.292,17.555-44.536,41.04-63.81,63.784C673.262,664.873,677.55,668.514,680.573,664.947L680.573,664.947z"/>
		<g>
			<path fill="#232734" d="M683.219,667.748c13.853-16.341,27.836-32.606,43.717-47.036c3.919-3.561,7.989-6.951,12.149-10.227
				c3.35-2.638,7.63-4.792,9.028-9.102c2.227-6.862-3.706-12.006-9.795-7.562c-17.111,12.487-32.04,27.541-46.159,43.266
				c-3.559,3.964-7.048,7.99-10.522,12.029c-3.126,3.635-7.31,7.38-9.459,11.702c-3.752,7.543,4.023,13.324,10.17,7.83
				c3.82-3.414,1.334-11.77-3.551-7.403c0.044,0.954,0.088,1.908,0.133,2.862c0.757-0.893,1.514-1.786,2.272-2.679
				c1.141-1.344,2.284-2.685,3.428-4.026c2.299-2.695,4.613-5.376,6.938-8.049c5.064-5.821,10.235-11.548,15.538-17.153
				c5.417-5.727,11.08-11.22,16.926-16.507c2.626-2.375,5.327-4.667,8.056-6.923c1.362-1.126,2.75-2.218,4.139-3.31
				c0.928-0.723,1.863-1.438,2.803-2.145c1.755-0.82,2.466-2.309,2.134-4.465c-5.114,4.74-11.202,8.634-16.461,13.277
				c-5.759,5.083-11.226,10.493-16.563,16.014c-10.543,10.908-20.407,22.436-30.212,34.003
				C674.228,666.51,678.987,672.74,683.219,667.748z"/>
		</g>
	</g>
	<g>
		<path fill="#232734" d="M666.534,620.667c8.019-10.834,19.82-18.331,31.684-24.349c4.402-2.233,0.247-6.492-3.527-4.577
			c-12.934,6.561-25.679,14.926-34.409,26.721C657.499,622.223,664.39,623.564,666.534,620.667L666.534,620.667z"/>
		<g>
			<path fill="#232734" d="M669.013,623.616c4.04-5.293,8.771-9.678,14.134-13.606c5.253-3.848,11.282-6.293,16.629-9.894
				c3.989-2.687,5.613-7.126,3.004-11.333c-3.252-5.244-10.938-0.271-14.358,1.612c-11.188,6.158-21.598,13.809-29.632,23.821
				c-2.422,3.019-5.34,8.521-1.082,11.473C661.455,628.288,666.109,626.569,669.013,623.616c4.02-4.087-0.378-10.556-4.958-5.898
				c-0.071-0.062-0.142-0.125-0.212-0.187c-1.301-0.414-1.333,0.448-0.095,2.583c0.984-1.294,2.067-2.51,3.146-3.725
				c2.609-2.938,5.569-5.516,8.63-7.966c6.062-4.852,12.823-8.762,19.714-12.297c0.341,0.013,0.683,0.025,1.024,0.038
				c1.023-3.411,0.545-4.331-1.434-2.758c-1.906,0.998-3.775,2.062-5.636,3.14c-3.143,1.823-6.192,3.773-9.161,5.867
				c-6.039,4.26-11.494,9.432-15.976,15.304c-1.373,1.799-2.469,4.633-0.78,6.64C664.821,626.194,667.727,625.301,669.013,623.616z"
				/>
		</g>
	</g>
	<g>
		<path fill="#232734" d="M690.636,768.121c46.768-60.096,107.837-106.456,160.726-160.726c2.527-2.594-0.109-9.06-3.382-5.701
			c-52.888,54.27-113.957,100.63-160.725,160.727C685.076,765.219,687.788,771.781,690.636,768.121L690.636,768.121z"/>
		<g>
			<path fill="#232734" d="M695.179,770.019c36.452-46.647,81.638-85.222,124.694-125.501
				c10.731-10.039,21.324-20.225,31.662-30.668c3.243-3.276,7.639-7.007,5.096-12.141c-2.036-4.111-7.673-6.492-11.656-3.379
				c-5.271,4.12-9.786,9.709-14.567,14.406c-5.451,5.355-10.977,10.635-16.53,15.885c-10.687,10.103-21.529,20.041-32.353,29.997
				c-22.06,20.291-44.056,40.675-64.694,62.428c-10.352,10.911-20.284,22.22-29.729,33.925c-3.605,4.469-7.34,8.278-4.418,14.153
				c2.213,4.449,8.509,4.936,11.829,1.678c4.152-4.074-4.382-8.671-7.754-5.362c-0.2,0.157-0.399,0.313-0.599,0.471
				c1.227-0.135,2.453-0.27,3.68-0.404c3.188,0.319,0.689,1.063,1.957-1.188c0.825-1.466,2.239-2.853,3.286-4.171
				c2.198-2.768,4.444-5.497,6.704-8.214c5.043-6.063,10.281-11.964,15.596-17.789c9.897-10.844,20.228-21.287,30.736-31.537
				c21.052-20.534,42.98-40.145,64.503-60.177c10.758-10.013,21.399-20.152,31.804-30.532c2.495-2.489,4.967-5.002,7.43-7.523
				c-1.497-0.209-2.994-0.419-4.491-0.628c0.192,0.96-0.178,1.703-1.112,2.227c-1.231,1.261-2.472,2.513-3.711,3.766
				c-5.375,5.429-10.839,10.768-16.341,16.067c-21.184,20.403-43.135,39.989-64.594,60.099
				c-26.839,25.151-52.833,51.295-75.513,80.318C682.877,770.338,692.244,773.775,695.179,770.019z"/>
		</g>
	</g>
	<g>
		<path fill="#232734" d="M649.769,737.273c10.574-12.003,23.594-21.293,36.725-30.276c13.555-9.274,26.476-18.848,38.969-29.509
			c25.896-22.098,44.094-51.926,71.515-72.4c3.443-2.571-2.958-6.188-5.769-4.09c-26.944,20.118-45.265,49.106-70.269,71.315
			c-12.272,10.899-25.337,20.455-38.889,29.688c-13.583,9.254-27.123,18.776-38.05,31.182
			C641.112,736.462,647.431,739.927,649.769,737.273L649.769,737.273z"/>
		<g>
			<path fill="#232734" d="M653.113,739.186c9.961-11.12,22.096-19.895,34.335-28.319c12.886-8.87,25.504-18.061,37.537-28.067
				c21.638-17.994,37.996-40.994,57.967-60.643c4.768-4.69,9.813-9.086,15.098-13.185c3.49-2.707,6.667-7.544,2.126-11.02
				c-3.4-2.604-8.021-2.366-11.379,0.174c-5.789,4.376-11.23,9.134-16.455,14.167c-20.194,19.453-36.594,42.413-57.934,60.733
				c-16.856,14.471-35.834,25.926-53.404,39.428c-4.187,3.218-8.198,6.65-12.057,10.253c-3.05,2.849-9.078,7.295-9.929,11.614
				c-1.572,7.981,8.022,9.904,13.163,5.821c4.899-3.891,0.037-9.603-4.825-5.741c0.348-0.192,0.697-0.384,1.045-0.576
				c-0.904-0.983-1.256-0.56-1.056,1.27c0.951-1.493,2.674-2.941,3.904-4.19c2.469-2.508,5.097-4.856,7.755-7.16
				c5.767-4.998,11.962-9.493,18.202-13.876c12.305-8.644,24.729-17.013,36.448-26.462c22.036-17.769,39.094-40.088,58.565-60.418
				c4.691-4.898,9.666-9.53,14.838-13.916c1.405-1.19,4.462-4.897,6.333-3.916c0.392-0.98,0.784-1.96,1.176-2.94
				c-0.898,0.67-1.787,1.351-2.668,2.043c-1.764,1.368-3.472,2.807-5.172,4.253c-10.507,8.936-19.776,19.289-28.87,29.624
				c-9.273,10.54-18.381,21.232-28.584,30.899c-11.089,10.508-23.495,19.739-35.905,28.611
				c-16.449,11.759-33.336,22.524-46.942,37.711c-1.413,1.577-1.8,4.578,0.295,5.778
				C648.983,742.435,651.604,740.87,653.113,739.186z"/>
		</g>
	</g>
	<g>
		<path fill="#232734" d="M725.589,794.182c15.304-19.052,32.014-36.884,49.475-53.967c17.399-17.021,35.947-32.706,53.806-49.213
			c31.017-28.67,54.554-66.68,91.949-87.936c3.293-1.872,3.158-8.479-1.101-6.059c-37.784,21.477-61.85,58.776-92.783,88.142
			c-17.929,17.021-36.986,32.809-54.751,50.037c-17.97,17.426-35.109,35.726-50.791,55.248
			C718.492,794.049,722.644,797.849,725.589,794.182L725.589,794.182z"/>
		<g>
			<path fill="#232734" d="M729.124,796.27c19.75-24.489,41.677-47.184,64.829-68.464c21.783-20.023,44.095-39.046,63.856-61.139
				c17.78-19.878,35.091-40.628,57.384-55.668c4.031-2.72,10.379-4.858,12.153-9.83c1.375-3.85,0.051-8.437-4.677-8.62
				c-5.321-0.207-10.967,4.78-15.129,7.566c-5.672,3.797-11.023,8.062-16.231,12.466c-16.355,13.834-30.303,30.268-44.595,46.145
				c-15.641,17.375-32.602,33.098-50.04,48.644c-18.833,16.79-37.123,34.05-54.277,52.567c-8.506,9.182-16.681,18.667-24.538,28.41
				c-2.333,2.894-3.389,6.881-0.308,9.667C721.119,801.238,726.136,799.085,729.124,796.27c4.769-4.493-3.34-7.689-7.069-4.176
				c1.351-0.345,2.702-0.689,4.053-1.034c0.788-0.973,1.579-1.943,2.374-2.91c1.189-1.453,2.395-2.892,3.6-4.332
				c2.411-2.879,4.867-5.719,7.337-8.546c5.353-6.126,10.868-12.107,16.468-18.007c10.83-11.41,22.103-22.391,33.712-33.005
				c21.926-20.045,44.245-39.268,64.184-61.359c17.963-19.902,35.435-40.64,57.553-56.123c2.646-1.852,5.377-3.578,8.136-5.254
				c3.262-1.981-1.239-1.571-1.238-1.578c-0.106,0.592-2.193,1.534-2.755,1.867c-5.944,3.525-11.544,7.611-16.935,11.926
				c-10.294,8.239-19.599,17.582-28.542,27.247c-10.52,11.369-20.511,23.215-31.142,34.483
				c-12.268,13.003-25.867,24.666-39.172,36.577c-27.745,24.839-54.229,51.025-77.634,80.047
				C717.963,797.167,725.839,800.343,729.124,796.27z"/>
		</g>
	</g>
	<g>
		<path fill="#232734" d="M758.338,810.114c36.942-39.673,78.361-74.744,120.032-109.29c20.148-16.704,40.585-33.188,59.667-51.119
			c8.838-8.305,16.266-17.64,24.165-26.807c7.346-8.525,15.253-17.256,25.35-22.536c3.141-1.642,1.494-8.685-2.379-6.659
			c-20.223,10.574-32.033,32.415-48.027,47.858c-19.326,18.661-40.482,35.474-61.153,52.604
			c-42.09,34.878-83.943,70.316-121.25,110.38C752.268,807.201,755.141,813.547,758.338,810.114L758.338,810.114z"/>
		<g>
			<path fill="#232734" d="M762.534,812.689c42.902-45.949,91.663-85.642,139.929-125.719c12.062-10.016,24.003-20.18,35.561-30.776
				c11.142-10.215,20.586-21.788,30.49-33.159c4.411-5.064,9.031-9.957,14.3-14.141c3.619-2.874,11.022-4.975,11.226-10.46
				c0.146-3.956-2.157-7.4-5.973-8.602c-5.461-1.72-11.13,3.287-15.186,6.31c-9.639,7.185-17.281,16.705-24.865,25.922
				c-8.451,10.271-17.546,19.503-27.421,28.416c-22.445,20.259-46.351,38.906-69.502,58.343
				c-22.635,19.004-44.962,38.39-66.4,58.742c-10.818,10.271-21.359,20.832-31.596,31.681c-3.637,3.854-5.395,7.035-2.671,12.047
				c2.145,3.946,8.039,4.763,11.331,2.068c4.51-3.691-3.183-9.483-6.836-6.493c1.254,0.367,2.508,0.734,3.763,1.101
				c0.148-0.945,0.658-1.683,1.529-2.212c1.273-1.364,2.558-2.717,3.841-4.071c2.567-2.706,5.166-5.383,7.773-8.05
				c5.647-5.777,11.405-11.445,17.219-17.054c11.181-10.787,22.667-21.255,34.299-31.552c23.511-20.81,47.751-40.782,71.986-60.739
				c22.427-18.469,44.512-36.955,63.026-59.444c8.146-9.896,16.525-19.687,27.587-26.423c3.139-1.912-1.541-1.597-1.62-2.231
				c0.144,1.15-0.627,1.16-1.617,1.699c-2.848,1.551-5.466,3.506-7.999,5.518c-5.375,4.267-10.062,9.337-14.586,14.474
				c-7.071,8.032-13.744,16.397-21.132,24.148c-8.456,8.872-17.944,16.876-27.231,24.856c-18.25,15.683-37.011,30.77-55.455,46.223
				c-35.559,29.793-70.471,60.486-102.161,94.427C750.523,811.414,759.265,816.191,762.534,812.689z"/>
		</g>
	</g>
	<g>
		<path fill="#232734" d="M822.829,827.596c42.485-34.66,78.351-76.347,118.271-113.763c9.959-9.335,20.355-18.089,29.696-28.071
			c8.924-9.538,17.063-19.786,25.022-30.131c15.467-20.104,30.191-40.905,48.554-58.541c3.562-3.42-1.851-6.015-4.865-3.118
			c-17.947,17.237-32.47,37.5-47.528,57.202c-7.575,9.914-15.363,19.663-23.721,28.934c-9.3,10.318-19.802,19.26-29.965,28.688
			c-40.312,37.401-76.166,79.482-118.864,114.317C815.827,826.054,819.19,830.565,822.829,827.596L822.829,827.596z"/>
		<g>
			<path fill="#232734" d="M824.831,831.864c47.16-38.627,86.994-85.282,131.983-126.302c22.752-20.745,40.607-45.269,59.342-69.529
				c9.383-12.151,19.183-23.979,30.22-34.674c3.113-3.018,4.364-8.989,0.475-12.042c-5.147-4.04-9.632,0.611-13.229,4.218
				c-20.501,20.556-36.627,44.885-54.77,67.427c-18.595,23.104-41.344,41.856-62.396,62.601
				c-20.892,20.588-41.022,41.936-62.142,62.296c-10.557,10.178-21.402,20.055-32.638,29.479c-4.311,3.616-8.893,6.952-7.09,13.253
				C816.063,833.755,820.785,834.321,824.831,831.864c4.031-2.449,0.977-11.561-4.003-8.536c0.201,1.351,0.402,2.702,0.604,4.053
				c0.949-0.774,1.894-1.552,2.836-2.333c1.415-1.168,2.817-2.354,4.219-3.538c2.801-2.367,5.563-4.78,8.315-7.205
				c5.957-5.25,11.78-10.651,17.542-16.112c11.086-10.506,21.848-21.35,32.565-32.229c21.408-21.728,42.858-43.276,65.38-63.857
				c22.585-20.638,40.32-45.034,58.938-69.141c9.399-12.172,19.227-24.014,30.283-34.727c0.393-0.173,0.785-0.347,1.179-0.52
				c-0.385-3.906-1.356-4.692-2.916-2.357c-1.292,1.274-2.552,2.581-3.812,3.886c-2.35,2.434-4.625,4.94-6.885,7.458
				c-5.244,5.841-10.194,11.943-15.057,18.103c-14.051,17.801-27.095,36.392-42.185,53.356
				c-15.664,17.61-34.343,32.575-51.111,49.128c-32.879,32.455-64.083,66.702-99.896,96.035
				C817.184,826.312,820.354,835.531,824.831,831.864z"/>
		</g>
	</g>
	<g>
		<path fill="#232734" d="M906.438,824.643c38.334-27.623,64.639-66.934,94.681-102.623
			c35.104-41.703,70.649-83.222,104.153-126.232c2.459-3.156-4.282-6.354-6.491-3.518c-33.146,42.549-68.101,83.919-103.081,124.964
			c-30.307,35.557-56.233,75.145-94.643,102.822C897.532,822.596,903.569,826.709,906.438,824.643L906.438,824.643z"/>
		<g>
			<path fill="#232734" d="M909.376,827.136c22.713-16.512,41.646-37.314,59.412-58.91c18.765-22.811,37.159-45.873,56.212-68.452
				c20.947-24.823,41.855-49.683,62.269-74.95c4.896-6.061,9.755-12.152,14.585-18.266c2.484-3.145,11.23-10.709,8.104-15.512
				c-2.192-3.368-6.546-4.756-10.382-3.521c-2.585,0.832-4.167,2.632-5.784,4.707c-2.799,3.588-5.613,7.163-8.435,10.733
				c-35.161,44.498-72.951,86.788-108.491,130.954c-15.949,19.821-31.438,40.089-49.332,58.231
				c-8.713,8.833-18.059,17.026-28.031,24.408c-9.219,6.825,0.103,15.591,8.782,11.349c5.638-2.755,1.854-9.238-3.693-6.527
				c0.3-0.111,0.599-0.223,0.897-0.334c-1.029-1.037-1.527-0.535-1.494,1.503c1.154-1.142,2.815-2.066,4.116-3.047
				c2.713-2.043,5.349-4.186,7.959-6.356c5.621-4.672,10.961-9.676,16.15-14.819c9.866-9.778,18.998-20.286,27.857-30.974
				c18.701-22.564,36.873-45.505,55.841-67.856c21.058-24.813,41.955-49.765,62.402-75.086c4.903-6.073,9.772-12.173,14.617-18.293
				c2.421-3.059,4.83-6.126,7.234-9.198c0.4-0.512,0.8-1.024,1.2-1.536c-1.35-0.233-1.526-0.194-0.531,0.119
				c-0.556-0.345-3.773,4.352-4.16,4.844c-10.024,12.77-20.233,25.395-30.528,37.948c-27.29,33.274-55.773,65.583-82.727,99.127
				c-24.38,30.342-48.15,61.629-79.926,84.729c-1.718,1.249-2.575,4.198-0.769,5.734
				C904.755,829.603,907.543,828.469,909.376,827.136z"/>
		</g>
	</g>
	<g>
		<path fill="#232734" d="M1096.094,667.357c17.75-20.784,33.525-42.998,46.981-66.797c2.091-3.698-5.284-4.069-6.994-1.045
			c-13.182,23.313-28.763,45.036-46.147,65.391C1086.904,668.453,1093.767,670.081,1096.094,667.357L1096.094,667.357z"/>
		<g>
			<path fill="#232734" d="M1100.354,669.823c13.354-15.698,25.646-32.231,36.703-49.626c2.602-4.093,5.104-8.249,7.557-12.432
				c1.646-2.805,4.677-6.224,3.276-9.667c-2.216-5.445-10.812-5.578-14.821-2.377c-3.013,2.404-4.805,7.5-6.774,10.777
				c-2.814,4.684-5.761,9.287-8.77,13.849c-5.679,8.611-11.745,16.963-18.044,25.13c-2.968,3.848-6.022,7.628-9.112,11.378
				c-2.093,2.539-6.615,6.004-5.968,9.74c1.1,6.342,10.932,7.695,15.192,3.92c4.362-3.865-3.469-9.444-7-6.315
				c-0.197,0.387-0.48,0.594-0.849,0.622c0.816,0.851,1.633,1.701,2.449,2.552c0.79-0.925,1.577-1.853,2.359-2.784
				c2.353-2.787,4.655-5.614,6.941-8.456c4.564-5.676,8.957-11.489,13.232-17.386c8.555-11.8,16.411-24.098,23.614-36.766
				c0.143-0.346,0.389-0.541,0.739-0.584c-1.056-0.573-2.111-1.146-3.167-1.719c-0.603,1.054-1.21,2.105-1.822,3.154
				c-1.826,3.146-3.716,6.256-5.627,9.352c-3.814,6.183-7.835,12.236-11.97,18.208c-8.276,11.956-17.243,23.424-26.662,34.498
				C1088.385,668.944,1097.249,673.475,1100.354,669.823z"/>
		</g>
	</g>
	<g>
		<path fill="#232734" d="M985.734,799.433c25.485-34.241,58.56-61.741,85.62-94.633c2.251-2.736-1.976-8.611-4.752-5.236
			c-27.062,32.893-60.128,60.383-85.621,94.633C978.867,797.038,983.13,802.932,985.734,799.433L985.734,799.433z"/>
		<g>
			<path fill="#232734" d="M989.068,801.364c16.695-22.279,36.509-41.855,55.826-61.813c9.457-9.771,18.752-19.698,27.525-30.091
				c2.898-3.434,6.083-8.035,2.578-12.37c-2.971-3.674-7.395-3.434-10.793-0.41c-4.623,4.114-8.38,9.758-12.523,14.378
				c-4.735,5.281-9.609,10.437-14.515,15.561c-9.812,10.251-19.83,20.302-29.579,30.615c-9.745,10.31-19.145,20.946-27.799,32.193
				c-2.761,3.589-5.849,8.231-2.338,12.564c2.907,3.586,7.433,3.51,10.681,0.326c4.388-4.302-0.308-10.167-4.795-5.768
				c2.341,0.407,2.949,0.088,1.826-0.956c0.103-0.925,0.534-1.692,1.294-2.304c1.789-2.356,3.637-4.668,5.496-6.97
				c3.341-4.138,6.814-8.167,10.33-12.156c7.034-7.979,14.389-15.671,21.783-23.314c15.211-15.721,30.699-31.187,44.739-47.986
				c-2.069-0.588-2.579-0.381-1.529,0.619c-0.346,0.813-0.854,1.518-1.524,2.117c-1.896,2.268-3.835,4.499-5.782,6.723
				c-3.504,4.002-7.104,7.92-10.731,11.811c-7.66,8.219-15.545,16.227-23.382,24.276c-15.256,15.673-30.321,31.567-43.456,49.094
				C978.473,802.744,985.642,805.937,989.068,801.364z"/>
		</g>
	</g>
	<g>
		<path fill="#232734" d="M1007.718,825.376c51.846-42.668,88.803-100.277,128.168-153.87c2.163-2.944-1.856-8.52-4.631-4.742
			c-39.06,53.176-75.75,110.224-127.191,152.56C1001.327,821.575,1004.344,828.154,1007.718,825.376L1007.718,825.376z"/>
		<g>
			<path fill="#232734" d="M1010.324,828.073c44.219-36.59,77.746-83.648,110.97-129.938c3.996-5.567,7.998-11.13,12.021-16.677
				c3.061-4.221,8.996-9.558,7.271-15.337c-1.189-3.986-5.11-6.146-8.984-4.245c-5.527,2.712-9.358,10.794-12.872,15.651
				c-16.8,23.225-33.272,46.692-50.957,69.261c-13.84,17.663-28.548,34.64-44.595,50.338c-4.089,4-8.293,7.879-12.565,11.682
				c-3.439,3.063-9.261,6.277-11.181,10.588c-3.068,6.889,3.015,13.666,9.843,9.505c4.87-2.967,2.486-10.46-3.113-7.048
				c0.532-0.083,1.065-0.167,1.598-0.25c-0.221-1.135-0.584-0.996-1.089,0.418c1.076-1.224,2.714-2.259,3.961-3.314
				c2.625-2.219,5.198-4.5,7.754-6.797c5.525-4.969,10.857-10.15,16.078-15.438c9.955-10.081,19.31-20.736,28.376-31.618
				c18.357-22.036,35.084-45.376,51.805-68.659c4.003-5.573,8.006-11.145,12.027-16.704c2.004-2.771,4.017-5.536,6.034-8.297
				c1.99-2.723-1.312-1.851-0.715-0.734c0.173,0.324-3.255,4.401-3.603,4.879c-8.421,11.549-16.706,23.197-25.062,34.792
				c-16.825,23.348-33.967,46.526-52.947,68.184c-13.941,15.909-28.964,30.873-45.268,44.363
				C1000.271,826.684,1005.584,831.994,1010.324,828.073z"/>
		</g>
	</g>
	<g>
		<path fill="#232734" d="M1202.414,597.925c-22.281,53.509-43.693,108.03-77.624,155.489c-2.85,3.986,3.267,5.867,5.543,2.683
			c34.307-47.984,56.066-102.841,78.597-156.949C1210.733,594.815,1203.815,594.561,1202.414,597.925L1202.414,597.925z"/>
		<g>
			<path fill="#232734" d="M1198.377,597.179c-11.502,27.638-22.759,55.391-35.596,82.446
				c-6.408,13.505-13.281,26.788-20.717,39.755c-3.662,6.386-7.533,12.648-11.537,18.825c-1.958,3.02-3.978,6-6.02,8.963
				c-1.86,2.701-4.224,5.259-4.864,8.557c-0.867,4.469,3.671,6.519,7.347,6.236c6.284-0.483,9.858-8.432,12.9-12.933
				c8.272-12.238,15.787-24.993,22.84-37.967c14.288-26.283,26.249-53.764,37.817-81.326c2.316-5.521,4.613-11.051,6.909-16.582
				c1.147-2.764,2.294-5.527,3.442-8.291c1.028-2.476,2.793-5.333,2.783-8.096c-0.013-3.492-2.92-5.688-6.319-5.475
				C1203.31,591.548,1200.378,593.746,1198.377,597.179c-1.124,1.929-0.208,4.61,2.065,5.028c2.63,0.483,4.791-1.446,6.009-3.536
				c2.563-4.399-3.608,4.656-2.248,1.387c-0.689,1.657-1.378,3.314-2.066,4.972c-1.377,3.316-2.753,6.634-4.131,9.95
				c-2.757,6.637-5.525,13.268-8.32,19.888c-5.822,13.786-11.814,27.499-18.146,41.058c-12.481,26.729-26.556,52.73-43.555,76.877
				c0.073,0.172,0.146,0.344,0.218,0.517c1.022,0.841,1.711,0.498,2.065-1.029c1.037-1.474,2.052-2.962,3.066-4.45
				c2.026-2.971,3.988-5.985,5.931-9.012c3.779-5.889,7.369-11.9,10.873-17.957c7.486-12.938,14.278-26.269,20.717-39.755
				c12.9-27.02,24.097-54.814,35.597-82.446C1208.968,592.625,1200.372,592.386,1198.377,597.179z"/>
		</g>
	</g>
</g>
</svg>
