<?xml version="1.0" encoding="UTF-8"?>
<svg width="10px" height="10px" viewBox="0 0 10 10" version="1.1" xmlns="http://www.w3.org/2000/svg" xmlns:xlink="http://www.w3.org/1999/xlink">
    <!-- Generator: Sketch 49.2 (51160) - http://www.bohemiancoding.com/sketch -->
    <title>Group</title>
    <desc>Created with Sketch.</desc>
    <defs></defs>
    <g id="Page-1" stroke="none" stroke-width="1" fill="none" fill-rule="evenodd">
        <g id="Group" fill="#000000" fill-rule="nonzero">
            <g id="icons8-menu_2">
                <path d="M1,0 C0.449219,0 0,0.449219 0,1 C0,1.550781 0.449219,2 1,2 C1.550781,2 2,1.550781 2,1 C2,0.449219 1.550781,0 1,0 Z M1,4 C0.449219,4 0,4.449219 0,5 C0,5.550781 0.449219,6 1,6 C1.550781,6 2,5.550781 2,5 C2,4.449219 1.550781,4 1,4 Z M1,8 C0.449219,8 0,8.449219 0,9 C0,9.550781 0.449219,10 1,10 C1.550781,10 2,9.550781 2,9 C2,8.449219 1.550781,8 1,8 Z" id="Shape"></path>
            </g>
            <g id="icons8-menu_2-copy-2" transform="translate(4.000000, 0.000000)">
                <path d="M1,0 C0.449219,0 0,0.449219 0,1 C0,1.550781 0.449219,2 1,2 C1.550781,2 2,1.550781 2,1 C2,0.449219 1.550781,0 1,0 Z M1,4 C0.449219,4 0,4.449219 0,5 C0,5.550781 0.449219,6 1,6 C1.550781,6 2,5.550781 2,5 C2,4.449219 1.550781,4 1,4 Z M1,8 C0.449219,8 0,8.449219 0,9 C0,9.550781 0.449219,10 1,10 C1.550781,10 2,9.550781 2,9 C2,8.449219 1.550781,8 1,8 Z" id="Shape"></path>
            </g>
            <g id="icons8-menu_2-copy-4" transform="translate(8.000000, 0.000000)">
                <path d="M1,0 C0.449219,0 0,0.449219 0,1 C0,1.550781 0.449219,2 1,2 C1.550781,2 2,1.550781 2,1 C2,0.449219 1.550781,0 1,0 Z M1,4 C0.449219,4 0,4.449219 0,5 C0,5.550781 0.449219,6 1,6 C1.550781,6 2,5.550781 2,5 C2,4.449219 1.550781,4 1,4 Z M1,8 C0.449219,8 0,8.449219 0,9 C0,9.550781 0.449219,10 1,10 C1.550781,10 2,9.550781 2,9 C2,8.449219 1.550781,8 1,8 Z" id="Shape"></path>
            </g>
        </g>
    </g>
</svg>