<svg width="13" height="14" viewBox="0 0 13 14" fill="none" xmlns="http://www.w3.org/2000/svg">
    <path d="M12.0934 4.02467L9.99341 5.99967L11.9934 11.4997L10.4934 12.9997L7.50591 8.62467L5.99341 9.99967V11.4997L4.49341 12.9997L3.60591 10.3809L0.993408 9.49967L2.49341 7.99967H3.99341L5.49341 6.49967L0.993408 3.49967L2.49341 1.99967L7.99341 3.99967L9.97466 1.90592L9.93091 1.93717C10.2127 1.65538 10.5949 1.49707 10.9934 1.49707C11.3919 1.49707 11.7741 1.65538 12.0559 1.93717C12.3377 2.21896 12.496 2.60116 12.496 2.99967C12.496 3.39819 12.3377 3.78038 12.0559 4.06217L12.0934 4.02467Z" stroke="#8C1835" stroke-linecap="round" stroke-linejoin="round"/>
    </svg>    