<?xml version="1.0" encoding="UTF-8"?>
<svg width="212px" height="22px" viewBox="0 0 212 22" version="1.1" xmlns="http://www.w3.org/2000/svg" xmlns:xlink="http://www.w3.org/1999/xlink">
    <!-- Generator: Sketch 49.2 (51160) - http://www.bohemiancoding.com/sketch -->
    <title>solar-logo-text</title>
    <desc>Created with Sketch.</desc>
    <defs></defs>
    <g id="Page-1" stroke="none" stroke-width="1" fill="none" fill-rule="evenodd">
        <g id="solar-logo-text" transform="translate(0.000000, -1.000000)" fill-rule="nonzero">
            <path d="M24.69,9.18 C23.7644466,9.17531512 22.8563423,9.43180258 22.07,9.92 C21.2463383,10.4413916 20.5847883,11.1826046 20.16,12.06 C19.6669895,13.0888169 19.4237301,14.2194592 19.45,15.36 C19.4135355,16.5607065 19.681885,17.7510773 20.23,18.82 C20.6814431,19.694763 21.375942,20.4205144 22.23,20.91 C23.5977874,21.7093945 25.2634941,21.8132693 26.72,21.19 C27.3530565,20.9170787 27.9244779,20.5191245 28.4,20.02 C28.9146752,19.4704671 29.3096745,18.8200804 29.56,18.11 C29.8486834,17.3016443 29.9909094,16.4482878 29.98,15.59 C30.0141012,14.5717235 29.8650694,13.5555981 29.54,12.59 C29.2585466,11.8384648 28.8185766,11.1563407 28.25,10.59 C27.7873044,10.1211385 27.2275178,9.75932523 26.61,9.53 C26.0021681,9.3036891 25.3585939,9.18852318 24.71,9.19 L24.69,9.18 Z M24.63,8.54 C25.7868149,8.51407822 26.9358105,8.73569458 28,9.19 C28.8944685,9.57954034 29.6930744,10.1597241 30.34,10.89 C30.921446,11.5473025 31.3758111,12.3068383 31.68,13.13 C31.9508746,13.8565036 32.0930029,14.6246732 32.1,15.4 C32.0990264,16.2366947 31.9360255,17.0652828 31.62,17.84 C30.9284113,19.5490646 29.5816108,20.9102694 27.88,21.62 C25.5140787,22.5517765 22.8558143,22.3794476 20.63,21.15 C19.5654462,20.5156724 18.6941545,19.6028906 18.11,18.51 C17.1364626,16.7795009 17.0255322,14.69401 17.81,12.87 C18.1559495,12.0338941 18.6659979,11.2756221 19.31,10.64 C19.981204,9.97312032 20.780638,9.4492359 21.66,9.1 C22.6224887,8.71293135 23.6527435,8.52252123 24.69,8.54 L24.63,8.54 Z" id="Shape" fill="#FFFFFF"></path>
            <polygon id="Shape" fill="#FFFFFF" points="37.24 8.82 37.24 8.74 44.16 8.74 44.16 8.82 41.89 9.14 41.89 21.39 47.41 21.39 48.36 18.78 48.5 18.78 48.07 22.12 37.23 22.12 37.23 22.03 39.41 21.48 39.41 9.14"></polygon>
            <path d="M60.83,8.63 L66.59,21.63 L68.09,22.06 L68.09,22.15 L61.69,22.15 L61.69,22.03 L64.35,21.6 L62.69,17.88 L57.03,17.88 L55.61,21.63 L58.18,22.06 L58.18,22.15 L53.07,22.15 L53.07,22.03 L54.79,21.6 L60.1,8.6 L60.82,8.6 L60.83,8.63 Z M59.93,10.98 L57.31,17.3 L62.49,17.3 L59.93,10.98 Z" id="Shape" fill="#FFFFFF"></path>
            <path d="M77.21,15.47 C77.4874594,15.5166289 77.76873,15.5367197 78.05,15.53 C78.7039024,15.5612545 79.3548271,15.4234926 79.94,15.13 C80.3692818,14.9088615 80.7188615,14.5592818 80.94,14.13 C81.1497253,13.6898652 81.2557741,13.2075141 81.25,12.72 C81.2553161,12.2368344 81.1528294,11.758563 80.95,11.32 C80.5912002,10.5195287 79.9401533,9.88636773 79.13,9.55 C78.7699783,9.3942385 78.3822632,9.31261425 77.99,9.31 C77.7181822,9.30123286 77.4462837,9.32473026 77.18,9.38 L77.18,15.53 L77.21,15.47 Z M74.84,9.14 L72.69,8.82 L72.69,8.73 L78.69,8.73 C79.6471401,8.68255277 80.5969452,8.91913425 81.42,9.41 C82.0277337,9.78659736 82.51655,10.3274154 82.83,10.97 C83.0603374,11.4383932 83.1930256,11.9487324 83.22,12.47 C83.2281859,13.0119287 83.0936864,13.5464779 82.83,14.02 C82.5875675,14.4545989 82.2446939,14.8249024 81.83,15.1 C81.4381897,15.3537761 80.9935109,15.5145446 80.53,15.57 C80.9043219,15.7205199 81.2444374,15.9449962 81.53,16.23 C81.7971197,16.5098987 82.0412435,16.8108733 82.26,17.13 C83.05,18.26 83.82,19.4 84.64,20.51 C84.8720061,20.8368336 85.1259227,21.1475473 85.4,21.44 C85.7826679,21.8904197 86.3304727,22.1679261 86.92,22.21 L86.92,22.3 L85.33,22.3 C84.541277,22.3375814 83.7727193,22.0439344 83.21,21.49 C82.9847902,21.2630443 82.7775032,21.0189806 82.59,20.76 C81.84,19.68 81.07,18.61 80.31,17.54 C80.0912106,17.2267839 79.8506144,16.9293802 79.59,16.65 C79.3864619,16.4285132 79.1419618,16.2485339 78.87,16.12 C78.5482294,16.0123218 78.2086065,15.9681708 77.87,15.99 C77.6280335,15.9836055 77.3862034,16.0071167 77.15,16.06 L77.15,21.67 L79.43,21.99 L79.43,22.08 L72.69,22.08 L72.69,22.03 L74.84,21.71 L74.84,9.14 Z" id="Shape" fill="#FFFFFF"></path>
            <path d="M0.13,17.85 L0.72,20.12 C2.21,21.98 7.72,22.59 7.72,18.68 C7.72,17.15 5.84,16.28 4.45,15.68 C2.75,14.94 1.17,14.43 0.59,13.02 C0.279081073,12.2467509 0.279081073,11.3832491 0.59,10.61 C1.32,8.88 3.35,8.45 5.15,8.61 C6.27773285,8.71874814 7.35878429,9.11467462 8.29,9.76 L8.29,12.3 L8.17,12.3 L7.69,10.46 C6.98496243,9.79945648 6.08872442,9.37934491 5.13,9.26 C3.73,9.1 1.93,9.49 1.86,11.26 C1.86,12.35 3.29,12.95 4.86,13.59 C7.28,14.59 9.43,15.59 9.31,18.45 C9.01,21.68 6.02,22.45 3.31,22.08 C2.15862128,21.9130096 1.04325314,21.5547398 0.01,21.02 L0.01,17.85 L0.14,17.85 L0.13,17.85 Z" id="Shape" fill="#FFFFFF"></path>
            <path d="M127.14,8.34 C128.306879,8.30976882 129.46656,8.53147253 130.54,8.99 C131.438528,9.38203956 132.24056,9.96564593 132.89,10.7 C133.474944,11.3603003 133.93265,12.1231434 134.24,12.95 C134.514797,13.6826916 134.660291,14.4575322 134.67,15.24 C134.669843,16.083253 134.50686,16.9185427 134.19,17.7 C133.856266,18.5169142 133.371077,19.2633588 132.76,19.9 C132.098953,20.5893127 131.30219,21.1341078 130.42,21.5 C128.035085,22.4407619 125.354803,22.2684319 123.11,21.03 C122.036996,20.39106 121.158763,19.4713356 120.57,18.37 C119.59098,16.6266781 119.480069,14.5267524 120.27,12.69 C120.619653,11.8505024 121.132966,11.0890307 121.78,10.45 C122.457382,9.77878621 123.263551,9.25154487 124.15,8.9 C125.103881,8.51937475 126.12304,8.32913185 127.15,8.34 L127.14,8.34 Z M127.2,8.98 C126.267271,8.97886569 125.35282,9.23865302 124.56,9.73 C123.73088,10.2566128 123.065774,11.0048573 122.64,11.89 C122.145344,12.9253662 121.902081,14.0628783 121.93,15.21 C121.893621,16.4170973 122.161872,17.6139129 122.71,18.69 C123.162039,19.569505 123.855933,20.3015633 124.71,20.8 C126.740174,21.9838557 129.318661,21.6107627 130.93,19.9 C131.448745,19.3479228 131.84716,18.6941131 132.1,17.98 C132.389992,17.1650616 132.532222,16.3049107 132.52,15.44 C132.558493,14.4018423 132.409441,13.3652522 132.08,12.38 C131.792844,11.6289699 131.349776,10.9473268 130.78,10.38 C130.314371,9.90756899 129.751278,9.54241171 129.13,9.31 C128.507695,9.08809402 127.850606,8.97970828 127.19,8.99 L127.2,8.98 Z" id="Shape" fill="#FFFFFF"></path>
            <polygon id="Shape" fill="#FFFFFF" points="169.32 8.54 169.53 11.35 169.42 11.35 168.74 9.26 164.28 9.26 164.28 21.59 166.55 21.93 166.55 22.02 159.6 22.02 159.6 21.93 161.92 21.59 161.92 9.26 157.36 9.26 156.69 11.4 156.56 11.4 156.77 8.54"></polygon>
            <path d="M190.75,0.99 C191.39,4.14 188.94,5.62 186.75,6.61 C185.251439,7.19873356 183.953368,8.20525877 183.01,9.51 C183.48,7.05 185.45,5.59 187.06,4.51 C188.67,3.43 190.32,2.63 190.75,0.99 Z" id="Shape" fill="#ED1C24"></path>
            <path d="M176.31,18.08 L176.31,8.9 L174.31,8.59 L174.31,8.5 L180.4,8.5 L180.4,8.63 L178.31,8.94 L178.31,17.54 C178.191604,19.1079037 179.101673,20.5721038 180.56,21.16 C181.725814,21.5877451 183.009087,21.5663572 184.16,21.1 C185.539153,20.4719589 186.38115,19.0513384 186.27,17.54 L186.27,11.09 C186.12,9.09 189.05,9.19 190.66,7.8 C190.53,9.6 188.31,9.75 188.3,11.09 L188.3,18.09 C188.3,20.8 186.42,21.78 183.99,22.09 C182.829994,22.2144391 181.660006,22.2144391 180.5,22.09 C178.14,21.74 176.31,20.75 176.31,18.08 Z" id="Shape" fill="#FFFFFF"></path>
            <polygon id="Shape" fill="#FFFFFF" points="194.79 8.63 194.79 8.54 199.24 8.54 208.4 18.72 208.4 8.97 206.16 8.63 206.16 8.54 211.64 8.54 211.64 8.63 209.23 8.99 209.23 22.38 209.14 22.38 198.58 10.83 198.58 21.59 200.97 21.93 200.97 22.02 195.37 22.02 195.37 21.93 197.64 21.6 197.64 10.08 196.49 8.97"></polygon>
            <path d="M143.94,15.32 C144.220769,15.3670826 144.505401,15.3871743 144.79,15.38 C145.448014,15.4085379 146.102308,15.2673481 146.69,14.97 C147.125678,14.7341575 147.475678,14.366658 147.69,13.92 C147.900543,13.476594 148.006595,12.9908094 148,12.5 C148.005798,12.0135685 147.903323,11.5319377 147.7,11.09 C147.339193,10.2850919 146.684592,9.64837636 145.87,9.31 C145.506716,9.15344785 145.115576,9.07181849 144.72,9.07 C144.448185,9.06132679 144.176297,9.08482324 143.91,9.14 L143.91,15.33 L143.94,15.32 Z M141.56,8.95 L139.39,8.63 L139.39,8.54 L145.44,8.54 C146.400266,8.49295371 147.353155,8.72943723 148.18,9.22 C148.792136,9.5986898 149.284476,10.1430371 149.6,10.79 C149.834586,11.2609119 149.970691,11.7747101 150,12.3 C150.005952,12.8461012 149.867993,13.3841411 149.6,13.86 C149.358226,14.2977843 149.01538,14.6714864 148.6,14.95 C148.205797,15.2080957 147.757634,15.3723083 147.29,15.43 C147.664322,15.5805199 148.004437,15.8049962 148.29,16.09 C148.560938,16.3727625 148.808421,16.6770998 149.03,17 C149.31,17.39 149.67,17.92 150.12,18.6 C150.57,19.28 150.94,19.8 151.22,20.18 C151.452343,20.5065766 151.706242,20.8172682 151.98,21.11 C152.366465,21.5609985 152.917532,21.8383328 153.51,21.88 L153.51,21.97 L151.91,21.97 C151.114838,22.0107803 150.338871,21.7170732 149.77,21.16 C149.544474,20.9297684 149.337183,20.6823567 149.15,20.42 C148.95,20.13 148.62,19.66 148.15,19.01 C147.68,18.36 147.33,17.82 147.03,17.4 C146.811621,17.0833243 146.571015,16.7825668 146.31,16.5 C146.103346,16.2776571 145.855406,16.0976459 145.58,15.97 C145.258116,15.8628153 144.91859,15.8186769 144.58,15.84 C144.335129,15.830108 144.089969,15.8502582 143.85,15.9 L143.85,21.63 L146.14,21.96 L146.14,22.05 L139.39,22.05 L139.39,21.93 L141.55,21.6 L141.55,8.95 L141.56,8.95 Z" id="Shape" fill="#FFFFFF"></path>
            <polygon id="Shape" fill="#FFFFFF" points="103.69 21.76 103.69 21.85 110.38 21.85 110.38 21.76 107.95 21.44 107.95 14.44 112.07 14.44 112.62 15.65 112.74 15.65 112.74 12.42 112.62 12.42 112.09 13.63 107.97 13.68 107.97 8.95 113.7 8.85 114.65 11.52 114.79 11.52 114.37 8.16 103.7 8.35 103.7 8.44 106.01 8.88 106.01 21.47"></polygon>
        </g>
    </g>
</svg>