<?xml version="1.0" encoding="utf-8"?>
<svg xmlns="http://www.w3.org/2000/svg" viewBox="0 0 24 24" fill="#FFFFFF"><path d="M 12 2 C 8.7279421 2 5.8321624 3.5785105 4.0078125 6.0078125 C 2.7527901 7.6789987 2 9.7490579 2 12 C 2 17.196902 5.963782 21.464965 11.033203 21.951172 C 11.351302 21.981681 11.673902 22 12 22 C 17.523 22 22 17.523 22 12 C 22 6.477 17.523 2 12 2 z M 12 4 C 14.953317 4 17.532097 5.6127487 18.917969 8 L 14.972656 8 C 14.139656 7.38 13.118 7 12 7 C 10.103 7 8.4739531 8.0699531 7.6269531 9.6269531 L 5.4375 7.4375 C 6.8843929 5.3628894 9.2846468 4 12 4 z M 5.0371094 8.0742188 L 7 12 C 7 14.761 9.239 17 12 17 C 12.236 17 12.461453 16.961688 12.689453 16.929688 L 11.671875 19.984375 C 7.4136189 19.81032 4 16.300212 4 12 C 4 10.573321 4.3798311 9.2352954 5.0371094 8.0742188 z M 19.275391 8.6894531 C 19.736991 9.6996371 20 10.81879 20 12 C 20 16.294258 16.595715 19.799363 12.345703 19.982422 L 15 16 L 14.972656 16 C 16.195656 15.089 17 13.643 17 12 C 17 11.211 16.800609 10.474547 16.474609 9.8105469 L 19.275391 8.6894531 z M 12 9 C 13.657 9 15 10.343 15 12 C 15 13.657 13.657 15 12 15 C 10.343 15 9 13.657 9 12 C 9 10.343 10.343 9 12 9 z" fill="#FFFFFF"/></svg>
