<svg id="Capa_1" data-name="Capa 1" xmlns="http://www.w3.org/2000/svg" viewBox="0 0 211.64 227.77"><defs><style>.cls-1{fill:#231f20;}.cls-2{fill:#ed1c24;}.cls-3{fill-rule:evenodd;}</style></defs><title>solar-logo-black</title><path class="cls-1" d="M139,446.55a4.92,4.92,0,0,0-2.62.74,5.23,5.23,0,0,0-1.91,2.14,7.25,7.25,0,0,0-.71,3.3,7.11,7.11,0,0,0,.78,3.46,5.11,5.11,0,0,0,2,2.09,5,5,0,0,0,4.49.28,5.12,5.12,0,0,0,1.68-1.17,5.44,5.44,0,0,0,1.16-1.91,7.22,7.22,0,0,0,.42-2.52,8.51,8.51,0,0,0-.44-3,5.59,5.59,0,0,0-1.29-2,4.51,4.51,0,0,0-1.64-1.06,5.41,5.41,0,0,0-1.9-.34h0Zm-0.06-.64a8.12,8.12,0,0,1,3.37.65,6.7,6.7,0,0,1,2.34,1.7,7.09,7.09,0,0,1,1.34,2.24,6.67,6.67,0,0,1,.42,2.27,6.48,6.48,0,0,1-.48,2.44,6.9,6.9,0,0,1-3.74,3.78,8.53,8.53,0,0,1-7.25-.47,6.81,6.81,0,0,1-2.52-2.64,6.37,6.37,0,0,1-.3-5.64,6.77,6.77,0,0,1,1.5-2.23,7,7,0,0,1,2.35-1.54A7.77,7.77,0,0,1,139,445.91Z" transform="translate(-114.31 -326.37)"/><polygon class="cls-1" points="37.24 119.82 37.24 119.74 44.16 119.74 44.16 119.82 41.89 120.14 41.89 132.39 47.41 132.39 48.36 129.78 48.5 129.78 48.07 133.12 37.23 133.12 37.23 133.03 39.41 132.48 39.41 120.14 37.24 119.82"/><path class="cls-1" d="M175.14,446l5.76,13,1.5,0.43v0.09H176V459.4l2.66-.43L177,455.25h-5.66L169.92,459l2.57,0.43v0.09h-5.11V459.4l1.72-.43,5.31-13h0.72Zm-0.9,2.35-2.62,6.32h5.18Z" transform="translate(-114.31 -326.37)"/><path class="cls-1" d="M191.52,452.84a4.43,4.43,0,0,0,.84.06,3.81,3.81,0,0,0,1.89-.4,2.32,2.32,0,0,0,1-1,3.19,3.19,0,0,0,.31-1.41,3.25,3.25,0,0,0-.3-1.4,3.44,3.44,0,0,0-1.82-1.77,2.92,2.92,0,0,0-1.14-.24,3.44,3.44,0,0,0-.81.07v6.15h0Zm-2.37-6.33-2.15-.32V446.1h6a4.86,4.86,0,0,1,2.73.68,3.79,3.79,0,0,1,1.41,1.56,3.85,3.85,0,0,1,.39,1.5,3.09,3.09,0,0,1-.39,1.55,3.12,3.12,0,0,1-1,1.08,3.06,3.06,0,0,1-1.3.47v0a3,3,0,0,1,1,.66,7.2,7.2,0,0,1,.73.9c0.79,1.13,1.56,2.27,2.38,3.38a8.86,8.86,0,0,0,.76.93,2.2,2.2,0,0,0,1.52.77v0.09h-1.59a2.83,2.83,0,0,1-2.12-.81,6.19,6.19,0,0,1-.62-0.73c-0.75-1.08-1.52-2.15-2.28-3.22a8.13,8.13,0,0,0-.72-0.89,2.33,2.33,0,0,0-.72-0.53,2.62,2.62,0,0,0-1-.13,2.94,2.94,0,0,0-.72.07v5.61l2.28,0.32v0.09H187V459.4l2.15-.32V446.51Z" transform="translate(-114.31 -326.37)"/><path class="cls-1" d="M114.44,455.22l0.59,2.27c1.49,1.86,7,2.47,7-1.44,0-1.53-1.88-2.4-3.27-3-1.7-.74-3.28-1.25-3.86-2.66a3.23,3.23,0,0,1,0-2.41c0.73-1.73,2.76-2.16,4.56-2a6.63,6.63,0,0,1,3.14,1.15l0,2.54h-0.12L122,447.83a4.57,4.57,0,0,0-2.56-1.2c-1.4-.16-3.2.23-3.27,2,0,1.09,1.43,1.69,3,2.33,2.42,1,4.57,2,4.45,4.86-0.3,3.23-3.29,4-6,3.63a10.44,10.44,0,0,1-3.3-1.06l0-3.17h0.13Z" transform="translate(-114.31 -326.37)"/><path class="cls-1" d="M241.45,445.71a8.12,8.12,0,0,1,3.4.65,6.73,6.73,0,0,1,2.35,1.71,7.15,7.15,0,0,1,1.35,2.25,6.76,6.76,0,0,1,.43,2.29,6.55,6.55,0,0,1-.48,2.46,7,7,0,0,1-1.43,2.2,6.91,6.91,0,0,1-2.34,1.6,8.6,8.6,0,0,1-7.31-.47,6.86,6.86,0,0,1-2.54-2.66,6.42,6.42,0,0,1-.3-5.68,6.85,6.85,0,0,1,1.51-2.24,7.07,7.07,0,0,1,2.37-1.55,7.87,7.87,0,0,1,3-.56h0Zm0.06,0.64a5,5,0,0,0-2.64.75,5.26,5.26,0,0,0-1.92,2.16,7.29,7.29,0,0,0-.71,3.32,7.19,7.19,0,0,0,.78,3.48,5.19,5.19,0,0,0,2,2.11,5.05,5.05,0,0,0,6.22-.9,5.47,5.47,0,0,0,1.17-1.92,7.27,7.27,0,0,0,.42-2.54,8.64,8.64,0,0,0-.44-3.06,5.69,5.69,0,0,0-1.3-2,4.56,4.56,0,0,0-1.65-1.07A5.52,5.52,0,0,0,241.5,446.36Z" transform="translate(-114.31 -326.37)"/><polygon class="cls-1" points="169.32 119.54 169.53 122.35 169.42 122.35 168.74 120.26 164.28 120.26 164.28 132.59 166.55 132.93 166.55 133.02 159.6 133.02 159.6 132.93 161.92 132.59 161.92 120.26 157.36 120.26 156.69 122.4 156.56 122.4 156.77 119.54 169.32 119.54"/><path class="cls-2" d="M305.06,438.36c0.64,3.15-1.81,4.63-4,5.62a8.41,8.41,0,0,0-3.74,2.9c0.47-2.46,2.44-3.92,4.05-5S304.63,440,305.06,438.36Z" transform="translate(-114.31 -326.37)"/><path class="cls-1" d="M290.62,455.45v-9.18l-2-.31v-0.09h6.09V446l-2.09.31v8.6a3.61,3.61,0,0,0,2.25,3.62,5,5,0,0,0,3.6-.06,3.62,3.62,0,0,0,2.11-3.56v-6.45c-0.15-2,2.78-1.9,4.39-3.29-0.13,1.8-2.35,1.95-2.36,3.29v7c0,2.71-1.88,3.69-4.31,4a16.36,16.36,0,0,1-3.49,0C292.45,459.11,290.62,458.12,290.62,455.45Z" transform="translate(-114.31 -326.37)"/><polygon class="cls-1" points="194.79 119.63 194.79 119.54 199.24 119.54 208.4 129.72 208.4 119.97 206.16 119.63 206.16 119.54 211.64 119.54 211.64 119.63 209.23 119.99 209.23 133.38 209.14 133.38 198.58 121.83 198.58 132.59 200.97 132.93 200.97 133.02 195.37 133.02 195.37 132.93 197.64 132.6 197.64 121.08 196.49 119.97 194.79 119.63"/><path class="cls-1" d="M258.25,452.69a4.46,4.46,0,0,0,.85.06,3.84,3.84,0,0,0,1.9-.41,2.35,2.35,0,0,0,1-1.05,3.21,3.21,0,0,0,.31-1.42,3.28,3.28,0,0,0-.3-1.41,3.46,3.46,0,0,0-1.83-1.78,2.94,2.94,0,0,0-1.15-.24,3.45,3.45,0,0,0-.81.07v6.19h0Zm-2.38-6.37L253.7,446v-0.09h6.05a4.9,4.9,0,0,1,2.74.68,3.81,3.81,0,0,1,1.42,1.57,3.87,3.87,0,0,1,.4,1.51,3.11,3.11,0,0,1-.4,1.56,3.14,3.14,0,0,1-1,1.09,3.08,3.08,0,0,1-1.31.48v0a3,3,0,0,1,1,.66,7.22,7.22,0,0,1,.74.91c0.28,0.39.64,0.92,1.09,1.6s0.82,1.2,1.1,1.58a9,9,0,0,0,.76.93,2.22,2.22,0,0,0,1.53.77v0.09h-1.6a2.85,2.85,0,0,1-2.14-.81,6.22,6.22,0,0,1-.62-0.74c-0.2-.29-0.53-0.76-1-1.41s-0.82-1.19-1.12-1.61a8.12,8.12,0,0,0-.72-0.9,2.34,2.34,0,0,0-.73-0.53,2.64,2.64,0,0,0-1-.13,3,3,0,0,0-.73.06V459l2.29,0.33v0.09H253.7V459.3l2.16-.33V446.32Z" transform="translate(-114.31 -326.37)"/><path class="cls-1" d="M218,459.13v0.09h6.69v-0.09l-2.43-.32v-7l4.12,0,0.55,1.21h0.12v-3.23h-0.12L226.4,451l-4.12.05v-4.73l5.73-.1,0.95,2.67h0.14l-0.42-3.36-10.67.19v0.09l2.31,0.44v12.59Z" transform="translate(-114.31 -326.37)"/><path class="cls-3" d="M218.88,396.5a4.43,4.43,0,0,1,2.22-2.22l0.15,0.9-0.07-.12-2.3,1.44h0Zm16.94,35.75c0,0.21,0,.4.24,0.4a3.76,3.76,0,0,0,2.47-1.74l-2.71,1.34h0Zm-0.82-.37,0.26,0.17,3-2.24,0.08,0.13v-0.23l-0.47-.16L235,431.35v0.52l-0.47-.39v-0.26c0.33,0,2.33-1.38,2.37-1.94a9.64,9.64,0,0,1-1.39.69,7.46,7.46,0,0,1-1.46,1c0.18-.74,1.7-0.93,1.78-1.94l-0.08-.14-2.18,1.45-0.94-.66v-0.26a2.71,2.71,0,0,0,1.85-1.41L232.25,429l-0.32-.39,1.05-.55v-0.23l-0.57-.11-0.94.34-0.2-.46,0.89-.82c-0.62-.31-0.54.39-1.07,0.39h-0.36c0.07-.75.68-0.47,1.18-1.32l-1.63.72-0.08-.12,1-1.1h-0.48l-0.68.51-0.23-.59,0.89-1-1.23.4,0.9-1.23c-0.55,0-.71,0-0.83.52h-0.24c0.07-.88.67-0.91,1-1.64l-1.16.6,0.49-1.17-0.54.11,0.42-1-0.65.08,0.54-.61-0.71,0a1.89,1.89,0,0,1-.24-0.65v-0.13a0.89,0.89,0,0,1,.59-0.65c0.66,0.49,2.51,4.08,2.37,4.8l0.36,0.12a4.1,4.1,0,0,0,1,1.64,15.37,15.37,0,0,0,1.22,1.38c1,0.92,2.22,1.13,3.66,1.57a11.27,11.27,0,0,1,3,2.18,33.2,33.2,0,0,1,2.16,3.21h0.36v-0.37l2-.15h0.36a19,19,0,0,0,3.55-.14c0.56-.08.79-0.39,1.5-0.57a6.94,6.94,0,0,1,1.71-.07h0.12a2.8,2.8,0,0,1,1.54.39,2.08,2.08,0,0,1,.71-0.13h0.83c0.91,0,2.72,1.49,3.44,1.56-0.06-.74-2.38-1.87-2.94-2-0.36-.07-1.41.12-2.12,0a14,14,0,0,0-1.94-.47,25.1,25.1,0,0,0-3.42.8c-0.76.16-.45,0.52-1.54,0.21a5.13,5.13,0,0,0-1.92,0,12.89,12.89,0,0,1-1.73,0,2.18,2.18,0,0,1-1.11-1.26l-0.1.1-2-2.53-0.1.1c0.21-.56-0.53-0.06-1.07-1.17a13,13,0,0,1-1.66-.26,5.28,5.28,0,0,1-1.32-.69l-0.8-2.22H235l0.26-.07v-0.39h-0.36V423.7h-0.36l0.09-.48,0.26-.66-0.61-.19,0.26-.22h-0.25l0.11-.49-0.21-.29c0-2.41-3.48-4.21-5-5.32a9.18,9.18,0,0,0-.88-4.74c-0.45-.75-0.64-1.48-1.11-2.15-0.65-.94-0.46-1.44-1.34-1.7l0.23-.18-0.45-.3c0.09-.45.18-0.47-0.28-0.54L225,404.9a3.22,3.22,0,0,0,.7-1.56c0.08-.47.45-1.55,0.84-1.55,0.73,0,.95.53,2.37,0.52,0.86,0,1.69.13,2.73,0.13,0.82,0,1.21-.74,2.25-1,0.5-.14,2.43-0.49,2.73-0.65l0.11,0.39c3.9-.1,4-2.54,4.41-2.74l-0.25-.37c0.8-.92.67-2.58,2.25-2.72l-0.09.1,0.68,0.86,2.61,0.21v-0.26h0.47c0.31,0,.86,1,2,1.3v-0.26a1.59,1.59,0,0,0,.59.13h1.78v0.39c1,0.24.53,0.41,1,.82,0.32,0.26.88,0.53,1.16,0.8,1.23,1.22.91,0.75,2.4,1.55l-1.27,2,0.83,0.11a2.34,2.34,0,0,0,.83,1c0.83,0,1.38-1.56,1.66-1.56s0.82,0.52,1.07.52h0.59a8.62,8.62,0,0,1,1.19-.26c0.46-.34,1.78-1.66,1.78-2.33v-0.26c0-.74-0.62,0-1-0.87a1.4,1.4,0,0,0-1.45-.58l-0.58-.23-0.17.25,0.19-1.26-2.06-1.07c-0.2.93-.82,1-1.4,1.43l-0.19,1.62-1.31-1.07-0.1.09,0-.77-0.71.12v-0.39c0-.5,0,0,0.06-0.31l-0.42-.47c0.25-.07,1.08-0.79,1.54-1a5.81,5.81,0,0,0,1.54-1.17,7.73,7.73,0,0,0,2.27-3.09c0.35-1.12,1-3,2-3.36,1.57-.51,2-1.2,2-3.4h-0.36c-0.45,0,0,0-.36-0.13-0.41,1.69-1.22,1.4-2.39,1.8-1.88.64-1.25,0.68-2,2.5s-1,1.5-1.77,2.73c-0.39.6-2,2-2.05,2.52l-3.19,1.08c-0.8,0-1.22-.39-2-0.39-0.12,0-.77.21-0.95,0.26l0.14-.64c-0.7.19-1.68,1.68-2,1.68h-0.24a2.41,2.41,0,0,1-.83-0.26l0.92-1.22,0.59-.64-0.15-.18-1,.79a3.39,3.39,0,0,1,1.18-1.7,4.36,4.36,0,0,1,1.87-.94s0.78,1.94.8,2a3,3,0,0,0,1.57,1l-0.12-.52c-1.76-.45-0.59-1.82-2.37-2.85a3.27,3.27,0,0,1-1.3.39h-0.12a1,1,0,0,1-1.19-1H245c-0.54,0-2-1.2-2.85.13l-0.47.37-0.48-.11v0.26h-0.83c-0.81,0-.86.72-1.3,0.52,0,1.85-.59,1.49-0.83,2.19l-1.32.13-0.34.28h-0.47c-1.19.88-.54,1.17-2.13,1.17h-0.59v0.26a4,4,0,0,0-1.78.39h-0.83c-0.73,0-1.29-.72-2.12-0.56l-2.51-1.52a1.63,1.63,0,0,1-1.19.26c-0.71,0-1.19.65-2.49,0.65h-0.59c0-1.67-.32-1,0.14-2.83a12.09,12.09,0,0,0,.84-2.85c0.17-1.71-.83-4.73-2-5.08,0-.83.37-2,0.47-2.86,0.16-1.57-.23-1.63.66-2.64,0.45-.51.73-1.48,1.17-2.1,0.84-1.16.79-.78,1.74-1.47l0,0.14L229,375c0.58-.95,1.38-0.75,2.13-1.3,1.49,0,1.3.37,2.25,0.39,1.26,0,1.37.42,2.38,0.64a5.54,5.54,0,0,0,4.38-1c1.56,0,2.29-.37,3.75-0.08a17.22,17.22,0,0,1,1.9.39,10.51,10.51,0,0,0,1.7.6h0.36a8.7,8.7,0,0,0,4-1.5c1.08-1.11,2.78-.7,4.46-0.7h1.07a1.61,1.61,0,0,0,1-.54,4.09,4.09,0,0,1,1.21-.37c0.89-.25,1.72.13,2.73,0.13,2.94,0,7-2.54,8.27-4.31,0.16-.24,1.07-1.84,1.17-2.09,0.34-.94.44-1.59,0.71-2.59,0.35-1.27,1.39-4.24,1-5.12l0.42-1.33-0.58.28c0,0.52-1,3.9-1.16,4.69a14.19,14.19,0,0,1-1.53,4.42c-1.13,1.91-1.76,1.5-3,2.65-0.93.84-3.38,1.71-3.65,2l-0.71.08a2.66,2.66,0,0,1-2.13-.65,10.8,10.8,0,0,1,2.9-3.06,3.3,3.3,0,0,0,1.12-1.88c0.08-.28.61-2.5,0.61-2.58,0-.54-0.24-0.82-0.24-1.56v-0.39a4.74,4.74,0,0,1,.36-1.17h0.24c0.25,0.76.45,0,.87,0.73a1.5,1.5,0,0,0,.91.83h0.34l0.13-1.16h0.59a1,1,0,0,0,.59-0.39c-0.29-.68.51-1.36,0.93-1.68l-0.1-.52a5.06,5.06,0,0,0-1.44-.3,12.46,12.46,0,0,1-1.85,0l-1.93,2.29a7.83,7.83,0,0,1-.12-0.91v-0.52c0-2.36,2.73-3.63,2.73-6.61,0.55,0.94.15,2,2.06,2.15l1-1.89-0.11-.78h-0.36c0.35-1.8.71-1.38,1.41-2.84l-0.47-.63-0.95,0-1.18-2.08,0-.51-0.23-.67-0.23.14v-0.52h-0.59c-0.58,0-1.16,2-1.32,2.77l-1.15-.49,0,0.14-0.28,0a7.76,7.76,0,0,0-.12.91,3.33,3.33,0,0,0,.24,1.3,1.91,1.91,0,0,0-1.3,1.94c0.29,0.47.83,0.61,0.83,1v0.39a4.77,4.77,0,0,0,.71.13c0.7,0,.65-0.59,1.3-0.78v0.39c0,1.13-1.87,4.35-2.45,4.8l-0.28,2.07c-0.16,1.11.69,3.58,0.58,4.28l-0.11,1.3c-0.71.52-.3,1.05-0.81,1.71a13.23,13.23,0,0,1-1.26,1.22,8.67,8.67,0,0,1-2.86,2.06l-0.41-.32v0.26h-0.24c-0.17-.52-0.44-0.39-1.06-0.4l-1.07-.9c0.64-1.33,3-4.89,3-6.48a2,2,0,0,0-.12-0.65h0.24v-0.52c0-.18,1.07-3.37,1.18-4,0.32-1.93-.35-2.5-0.33-4.54l-0.17-.41-0.44-1.13c0-1.58-.95-1.25-1-3.35l-0.5-.14-0.21-1.95v-0.52c0.8,0.07.46,1,1.54,1,1.4,0,1.45-.7,2.34-0.92l-0.32-1.41c0-1.74-.29-0.69.12-2.59,0.75,0.07,1.19,1,2,1h0.47c1.42,0,1.36-.9,1.82-1.9s1.09-1.39,1.5-2.25c-0.76-1.72-.26-1-1.54-1.94a8.93,8.93,0,0,1-1.54-.39,10.19,10.19,0,0,0-1.42.39c0.38-.78,1-1,1.23-1.64,0.51-1.16.08-1.31,0.08-2.51,0-.71.59-1.11,0.59-1.81v-0.52a2.1,2.1,0,0,0-1.16-1.33c-0.91-.24-1,0.25-1.54.85a10.77,10.77,0,0,1-3.11,2c-0.4,0-1-.91-1.42-0.91a8.6,8.6,0,0,1-1.19.26,7.79,7.79,0,0,0-1.74,1.34,20.22,20.22,0,0,0-1.23,2v0.13a6.06,6.06,0,0,0,.5,1.14,1.2,1.2,0,0,0,1.15.44l0.82,0.37,0.14,0.9H256a3.48,3.48,0,0,0-2.3,1.11c-0.86.94-.9,0.92-0.9,2.78L252,340l0.1,0.08,1.28,0.55,0.5,0.47,0.72-.24c0.09,0.05.94,0.39,0.95,0.39a10.4,10.4,0,0,0,1.87-1.07c0.2-.4.19-0.72,0.41-1.11s0.35-.47.57-0.93H259l-0.09.9-1.33,3.51,0,3.37a18.14,18.14,0,0,1,1.5,3.68c0.36,1,1.21,3.14,1.07,4.3s-1.14,2.94-1.43,4c-0.05.2-.18,2.38-0.18,2.65a4.36,4.36,0,0,1-.71,2.07,1.43,1.43,0,0,0,.12.51l-0.36-.12c-0.38.78-2.09,2.1-2.41,2.68-0.52.94-.69,0.47-0.79,1.86a1.22,1.22,0,0,1-1.42,1.17H251.6l-2-.27h-0.47a7.76,7.76,0,0,1,1.27-2.37,4.14,4.14,0,0,0,.86-2.95l0-.52-0.15-1.42a21.44,21.44,0,0,1-1.41-2.34,4.85,4.85,0,0,1-1.19-3h-0.36v-0.15h0.24l0-.39,0-.65c-0.54,0-.62,0-0.6.64a4,4,0,0,1-.11,1,14.39,14.39,0,0,0,1,3.14c0.19,0.56.39,0.94,0.62,1.53a3.67,3.67,0,0,0,.59,1.42,17.37,17.37,0,0,1-.83,2.47,11.68,11.68,0,0,0-1.19,2.46,5.57,5.57,0,0,0,.08.57l-0.27-.25-0.58.5,0.06,0.12-2.25-.55c-0.32-.52-2.85-2.36-3.2-2.2-0.13-.54-0.93-0.59-1.45-1.13s-0.77-1.07-1.63-1.07a0.63,0.63,0,0,0-.47-0.26h-0.59l-1.95.37-0.9.67c-1.48,0-1.28,0-1.82,1.13-0.25.52-.77,1.6-1.38,1.6h-0.24c-0.25,0-1-.66-1.51-0.81-0.23-.07-0.6,0-1-0.1a2.59,2.59,0,0,1-.85-0.44l0.26-.07v-0.26c-0.56-.16-1.35-2.05-1.41-2.73-0.08-.84-0.61-3.28-0.63-3.36l0.15-1.68c0.39-.17.35-0.77,0.62-1.27a5.23,5.23,0,0,1,.74-1.14,5,5,0,0,0,.78-3c0.71-1.15-.31-0.78,1.19-0.78v0.39c1.09-.28.93-0.91,1.54-1.69a1,1,0,0,1-.21-0.39l0-1a2.56,2.56,0,0,0,.71-1.69,4.17,4.17,0,0,1-.15-0.53L231.32,344a1.59,1.59,0,0,1,.1-0.63L231,343l-0.43.69c-0.46-.21-1.56,1.52-2,2-0.68.73-1.09,2.34-1.54,2.69l0,1c0.29,0.22,1.19.6,1.19,1V351c0,0.85-.47,1.55-0.47,2.59V354l-0.11-.08-1.55,2.41a1.38,1.38,0,0,0-.93-1.24l-1.7.49-0.33-.42c-1,0-1.22-.39-2.07.33a11.37,11.37,0,0,1-1.88,1.14l0.52,0.58,1.54,0.15h0.34l0,0.78c0.55,0,.4.13,0.83,0.13a1.22,1.22,0,0,0,.47-0.13v1.3h0.24l0.06,0.35,2.55-2a2,2,0,0,0-.12.65l0,0.13,0.5,5.54-0.23.23-1.17.32-0.36.26c-1.39,0-1.41,1-2.56,1.35a9.18,9.18,0,0,1-2.89.6h-0.24a20.82,20.82,0,0,0-3.91,1c0.46,0.32,1.13-.26,1.78-0.26,0.33,0,.22.06,0.35,0.24l-0.47.15a5.93,5.93,0,0,1-.71,1.69c-0.31.61-1,.65-1.31,1.18l-0.47-.15a1.4,1.4,0,0,1-1.33.88l1.65-1.26-0.1-.67,0.2-.44-1.4,1.34-0.12-.15,1.39-1.46-0.1-.13-1.38,1c0.22-.91,2.16-1.65,1.66-1.81a3.71,3.71,0,0,0-2.18,2.15,4.33,4.33,0,0,1-.47,1.69c-0.31.48-.82,0.38-1,1.21a18.59,18.59,0,0,1-2-2.87c-0.45-1.31-.08-0.82-0.29-2a2,2,0,0,0-1-1.47c-0.18-.72-1.16-0.69-1.9-0.78a1.48,1.48,0,0,1-.92-0.42,2.5,2.5,0,0,0-1.12-.33,10.4,10.4,0,0,0-2.47-.28c-0.89,0-1.4-.78-2-0.78-1.21,0-.88,1.1-1.07,1.56,0.72,0.21.54,0.7,0.44,1.4s0.27,0.76.81,1.12a4.64,4.64,0,0,0,1.43.64,3.46,3.46,0,0,1,.75,1.51,0.74,0.74,0,0,1-.24.52l0.07,1.18,0-.53c0.14,0,.32.13,0.36,0.13,0.53,0,1.77-2.31,1.78-2.85h0.36c0.46,0,0-.24.83-0.26-0.52.85-1.41,1.44-2,2.41-0.46.81,0.41,0.29-.87,1-0.42.23-1.24,0.46-1.09,0.89l-0.06-.11-0.89.63a1.77,1.77,0,0,0-1.78-.13,1.36,1.36,0,0,0-1.2,1,7.76,7.76,0,0,1-.81,1.44l-1.54.4-0.47-.27c-1.52.39-1.75-2.33-3.08-2.33h-0.47c-0.25-1-2.37-.94-2.37-3V370a18.21,18.21,0,0,0,.08-2.41,5.59,5.59,0,0,1-.55-2.12V365.1c0-3.24,2.13-3.21,2.13-6.35V358.1c0-.61-0.73-1.23-1-1.9a5.7,5.7,0,0,1-.35-2.37l0-.78c0.71,0.52.14,1,1.19,1.56,0.62,0.34.95,0.91,1.9,0.91H192c0.27,0,.36-0.09.36-0.39l0-.39L192,351.48l-1-1.16c0.18-.85.74-1.16,1-2.25a12.6,12.6,0,0,0,.4-2.78l-3.08.24c0-.48-0.59-1-0.86-1.91-0.13-.46-0.72-1.54-1.28-1.59,0.14-.4-0.31-0.6-0.83-0.65a2,2,0,0,0-.12.65V344H186c0,2-1,2.58-2.44,2.54-2.22-.06-0.49,2.26.66,2-0.21.59,0.36,0,.36,0.78v0.39h0.24c-0.07.92-.17,0-0.65,1a0.89,0.89,0,0,1-.89.71v0.25l0.59,0.13c0.17,0.82.43,0.28,0.48,1.16a8.83,8.83,0,0,0,.11,1.69c0.42,0,.61.17,0.83,0.15l0.95-.15a1.9,1.9,0,0,1,.83-1.69v0.75l0.35,0.15c0,1.62.13,3,1.16,3.76l0.15,1c0.12,0.84-1.23,2.14-1.3,3.11h-0.24c0-1.58-2.45-3.18-3.51-3.84l-0.6-.32-0.28-1.28a1.76,1.76,0,0,0,1.47-1.61L183,353.14l-1-.5-1.54.15a1.73,1.73,0,0,0-1.41-1v-0.39h-0.14c-0.06.75-.47,0.61-0.47,0.91,0,0.69.53,0.5,0.59,1.3-0.87,0-3.32,1-3.32,1.81v0.52c0,0.45.7,0.52,1.07,0.52a3.63,3.63,0,0,0,.73-0.15l0.34,0.25,1.18,0.15c0,0.83-.36,1-0.36,1.82v0.39a0.48,0.48,0,0,0,.47.52h0.59a16.07,16.07,0,0,0,1.54-1.17,1.64,1.64,0,0,0,.36.26,4.32,4.32,0,0,0,.91-0.23l0.28,0.36v-0.26a9,9,0,0,1,2.55,1.75,8.59,8.59,0,0,1,1,1.07c0,0.08.45,1.8,0.45,1.84a7.27,7.27,0,0,0-.47,1.94v0.39l0.12,0.91c0,0.4,0,.12-0.12.39,1.14,0.91.12,2,.12,2.85v0.39c0,0.61.24,0.83,0.2,1.17l0,0.78a1.62,1.62,0,0,1-1.07.62l-1.54-.1c-1,.75-0.45,0-1.11,1.12-0.34.58-.46,0.77-0.82,1.45s-0.06.44-1.08,0.88c-0.55.24-.85,0.84-1.28,1l0.14,0.9c-1.78.45-3,.24-4.79,0.59-0.78.15-4,1.55-4.1,2l-3.17.68,0-.15a3.55,3.55,0,0,1-.54-1.56l0-1c0.31-.08,2.61-1.59,2.61-1.94s-0.24-.2-0.24-0.65v-0.78H168c-0.15-.63-0.47-0.43-0.47-0.91l0-1.09L166,372.1v0.39c0,0.37-.05.24-0.26,0.4l0.12,0.46-0.21-.08-0.06.45-0.89,1,0.23,0.65a2,2,0,0,0-1.19.65c0,1.49.54,1.28,1,2a1.25,1.25,0,0,0,1.9.18l0.2,1.81c-0.68-.06-1.27-0.78-1.78-0.78a1.6,1.6,0,0,0-.59.13c-2.08-1.2-1.77-2.47-2.65-4.88A7.14,7.14,0,0,0,160.5,372a8.94,8.94,0,0,1-1.63-2.24h-0.47c-0.46,0-.49.07-0.59,0.38l-0.36-.12v0.26a0.71,0.71,0,0,1-.47.13h-0.12c-1,0-2.64-1.14-3.84-1.38-0.77-.15-3.87.34-3.87,0.86a7,7,0,0,0,.88,1.37,4.74,4.74,0,0,0,1.38,1,1.82,1.82,0,0,1,1.35.86c0.44,0.46,1.26.57,1.26,1.09,0,1-1.3,1.55-1.3,2.2a2.84,2.84,0,0,0,.83,1.32l2.13-.15h0.83s1,0.44,1.31.53l0.47-.26,0.59,0.25v0.65h0.24V379l0.91-.17,1.46-1.24c0.18,1.77,2.45,2.17,3,3.24a1.05,1.05,0,0,1,1.19.52,1.4,1.4,0,0,1,1.43.63l1.06,0.15h0.24a6.82,6.82,0,0,0,1.59-.35,3.08,3.08,0,0,0,1.86-.54c0.72-.35,2.86-1.29,3.19-1.83,0.86,0,1.68-.41,2.36-0.45a7.58,7.58,0,0,0,1.91.19l0.09-.56,0.16,0.46,1.17-.68a3.46,3.46,0,0,0,2.73.78v-0.26h0.95v-0.26h0.47c0.68,0,.15-0.13.26-0.45l0.53,0.17,0.26-.36,0.14,0.39v-0.39h0.14v0.43l0.56-.38,0.84,0.07,0.11,0.39H188a0.84,0.84,0,0,1,.83.91c0.35,0,2.75,2.17,3.68,1.69,0.19,0.8,5.13,2.72,5.93,2.72,1.06,0,2.25-1.16,2.92-.82l0.29-.37,2.69,0.6,0.63,0.58-0.72-.25c0.33,0.53.19,0.24,0.45,0.35a0.87,0.87,0,0,1,.49.57,9,9,0,0,1,1.17,1.05,16.33,16.33,0,0,1,1.92,2.44c0,0.84,0,1.1.52,1.44l0.42,3.38,0.12,0a0.54,0.54,0,0,0-.12.39c0,0.3,0,.15,0,0.44l-0.79.9-1,.6c-1.49.78-2.44,3.35-3.32,4.8a4.23,4.23,0,0,1-.95,2.33c0,2-.24,2,0.21,3.53a5.13,5.13,0,0,0,1.89,2l0,1.43c1.88,1.38,1.58,0,2.68,3a25.45,25.45,0,0,1,1.35,4.62v0.26c0,0.89-.38,2.26-0.95,2.59,0,1.28-1.3,2.28-1.3,3.11v0.39a2.66,2.66,0,0,0,.12.78c-1,1.61-3.26.62-3.55,1.36l-1.07-.07c-0.95-.69-1.12-0.12-1.66-0.39-0.17.68-1.77,1.35-1.9,1.69h-0.71c-0.89,0-2.4-.39-2.49.78-0.5-.22-0.91,1.9-0.94,2.28l-0.39,1.17-0.36.17-1,.33-0.5-.21-0.34.28v-0.26h-0.47c-0.84,0-1.08-.52-2.13-0.52h-0.36c-0.84,0-2.28.16-2.61,0.65-0.65-.34-1.83.69-2.35,1.06a6.82,6.82,0,0,1-1.23.6c-0.62.28-.23,0.67-1.22,0.78l-0.87.54L181,434l-0.27.63-0.55,0,0.07,0.23-2.73.26v0.26H178a8.22,8.22,0,0,0,2.71-.4,9.22,9.22,0,0,0,2-1.3l0,0.24,1.61-1.12,0.07,0.12,0.05-.41,0.06,0.27,1.15-.79,0-.16,0.92-.45-0.24.51a7.32,7.32,0,0,1,3.2-.91c1,0,2.16.78,3.08,0.78s2.06-.42,2.65-0.32a13.51,13.51,0,0,0,2.56.19c3.2,0,3.56-1.35,6.33-2.54a13.65,13.65,0,0,0,3.12-1.77c0.56-.52,2.65-1.72,2.75-2.2l-1.41.68v-0.26a1.85,1.85,0,0,0,1.54-1.17l-0.83.4,0-.19,0.78-.59-0.11-.39h0.47l-0.08-.1L211,423l-0.14-.64c0.59-.07.42-0.47,1.78-0.52a9.38,9.38,0,0,0,1.78-.25l1.06-.53v-0.39a2,2,0,0,0,1.54-1c0.5-.74,1.12-0.36,1.18-1.17l-1.13.3,3.18-2.85-0.07-.13-1.39.73,0-.48,2.4-1.76-0.1-.19-1.85,1c0.38-.56,1.83-1.12,1.9-1.95-0.87.25-1.87,1.9-1.9,0.52a3.25,3.25,0,0,0,1.86-1.63l-2.32,1.39,1.6-1.9-0.1-.12-1.79,1.34-0.07-.11c0.5-1.19-.58,0,0.66-1a3.33,3.33,0,0,0,1-.85l-0.06-.13-1.79,1,0.07,0.15-0.87,0,0.37-.5,0.68-.69-0.11-.05-0.07-.28H218a1.76,1.76,0,0,1-1.42,1.3h-0.36c-0.93,0,.25-0.13-0.5-0.42l1.45-1.65c-1,0-1.62,1.41-2.14,1.55l0.24-.52h-0.24v-0.26l0.09,0.11,1.55-1.55-0.14-.19-1.49,1.37h-0.36v-0.26h-0.24l-0.1-.13,2.15-1.93,0.08,0.11v-0.26c-0.86,0-1.7,1.3-1.9,1.3a1,1,0,0,1-.51-0.17l2-1.87-0.11-.17-2.24,1.65-0.08-.12,2.52-2.56c-0.42-.64-2,1.76-2.61,1.94,0.07-1,2.61-2.29,2.9-3.46l-1.95,1.66-0.1-.12,2.35-2.48c-0.77.19-2.23,1.93-3,2.42l0.88-1.38c0.64-.06,1.86-1.64,2.36-2.09s2.28-1.66,2.38-2.06c-1.48.38-2.54,2.32-3.91,2.72l-0.09-.13,4.73-3.87-0.09-.15-4,3-0.07-.12c0.27-.56,3.56-3.45,4.15-3.5v-0.26c-0.85,0-2.74,2.05-3.68,2.59,0.22-.91,2.53-2.12,2.69-2.78L217,399l0.42-.62-0.23-.31,1-.59c1.38-.35,2.4-1.68,4-1.68h0.47c0.2-.55.94-0.2,1.47-0.45a2.89,2.89,0,0,1,1.85-.19V394.9l2,1.44h0.36c0.48,0,1.33.65,1.9,0.65h1.07a13,13,0,0,1,2.37-.78s1.71,0.39,1.85.44a3.8,3.8,0,0,1,1.27,1.08c0.43,0.47.56,0.9,1.41,0.45s0.88-.21,1.4-1.06l0-.62,1.26-1.89-0.14-.13-1.27,1.33a2,2,0,0,1,.95-1.56l0-.76-1.21,1.41c-0.21-.5.8-1.54,1.32-1.69l-0.13-.51a4.89,4.89,0,0,0,1.66-1.56l0.24,0.13c0.85-1.27,3,.35,3,0.91a4.52,4.52,0,0,1-1.51,1.57l0.33-.73-0.14-.09-1.64,1.45,0.78-1.25-0.16-.14-1.57,1.78c0.17,0.39-.79,2.3-0.94,3.12s-1.49,2.32-2,2.32l-0.63,0,0.46-1-1.52,1.24-0.21-.24,0.6-.77,0.14,0.1-0.15-.51L236,400l-0.13-.17,1-1.2c-1.08,0-1,.56-1.78,1l-0.43-.22,1.14-.94c-0.24-1-1.24.59-2,.56l1-1.08h-0.36a13.19,13.19,0,0,1-2,1.17c0.31-.45.9-0.79,0.71-1.3-0.32.26-.76,0.64-1.14,1-1,.86-0.62.28-1.47,0.73,0.08-.8,1.15-0.75.5-1.27l-1.49,1.36-0.15-.2,1.14-.94c-0.23-1-1.26.69-2.1,0.82l1.22-1.4-0.12-.14-0.6.49-1.24.73-0.29-.41,0.76-.85-0.09-.17-1.4.81-0.11-.2,0.51-.34c0-.19,0-0.39-0.24-0.39a1.66,1.66,0,0,0-1,.79l-0.48-.16,0.49-.63c-0.5-.26-0.68.25-1,0.55a4.13,4.13,0,0,1-1.31.52,3.12,3.12,0,0,0-2.16,1.66,9.39,9.39,0,0,0-2.29,2.43c-0.16.25-1.75,3.28-1.77,3.28l0.15,1.42c0.46,0.27.89,0.54,1.35,0.86,0.62,0.43,1.23,0,1,1.08h0.59c0.44,0,1.2,1.32,1.45,1.69l-0.15.52,0.36,0.12V412c0,1.12,2.47,3.42,3.17,4.18a23.89,23.89,0,0,1,1.67,2.07c0.28,0.39.56,0.62,0.82,1s0.36,0.83.62,1.26c0,0.82-.08,3,0.47,3.24l-0.13,0,0.73,2.33,0.13,0-0.26.41,0.6,0.1c0.29,1.35,2.69,3.46,3.67,4.29,0.31,0.27,1.21,1.8,1.69,2.3,0.33,0.34,2,1.88,2.18,1l-1-.71,2.91-2-0.13-.22-0.67.47c-0.17-.55-0.68.45-1.44,0.52l0,0.52v-0.15l-1.17.58-1-1.47h0Zm-1.9-2.49,1.76-.59c0,0.76-.4.55-0.94,0.85s-0.75.55-.81-0.26h0Zm-19.68-4.25c-0.89.52-1.28,1.88-2,1.94,0-.71,1.33-2.32,2-2.33v0.39c0.41-.33.35-0.73,0.95-0.91a2.53,2.53,0,0,1-.5,1.13c-0.55.78-.14,0.31-0.68,0.55v-0.52h0.24v-0.26h0Zm3.32-37.73a1.67,1.67,0,0,1,1.66-.91,0.3,0.3,0,0,1,.24.26l-1.9.65h0Zm28.83,7.67,1.12-.87,0.12,0.16-0.83.91,0.06,0.43-0.48.15v-0.77h0Zm-3.31,38.64-0.66.55-0.31.07a1.69,1.69,0,0,0-.61.14l-0.1-.52H241a1.45,1.45,0,0,0,.58-0.25l0.14,0.25v-0.26l0.49,0h0Zm-3.46.23c0-.39,1.65-0.89,2.13-0.91l-0.2.22-0.28.43H240a2.54,2.54,0,0,1-.83.52,0.29,0.29,0,0,1-.36-0.26h0Zm-1.42-.26c0.16-.67,1.72-1.43,2.61-1.43a2.83,2.83,0,0,1-1.78,1.17l-0.33.42-0.5-.16h0Zm-10.32-62.23a2.49,2.49,0,0,1,1.42-1.94l-1,1.75-0.39.2h0Zm-0.95-.39a5.27,5.27,0,0,1,1.54-1.69,3.14,3.14,0,0,1-1.19,1.43l0.23,0.15v0.24l-0.58.29,0-.42h0Zm5.46-.52a1.86,1.86,0,0,1,.95-1.3l-0.65,1.26,0.31,0.11-0.59.35,0-.42h0Zm-0.95.39a2.64,2.64,0,0,1,1.07-1.82L231,370.54h0.25l-0.59.39h0Zm-1.07-.26c0-.3.53-0.28,0.59-1h0.47v0.26c-0.59.17-.47,0.79-0.95,1.17-0.15-.34-0.12.11-0.12-0.39h0Zm-1.07.52a2.33,2.33,0,0,1,1.19-1.69,3.76,3.76,0,0,1-1.19,1.69h0Zm4.4-1.92,0.35-.15,0.14,0.37c-0.61.24,0.09,0.19-.62,0.4l0.13-.62h0Zm-15.4,6.6L216.29,378l-0.18.05,0.08-.58-0.64.72c0.07-.74.71-0.65,0.71-1.94h0.24v0.65c0.54-.43.33-1,1-1h0Zm-1.89-3.47,0.65-.48c-0.1.63-1.57,2.57-2.11,2.64l0.41-.59,1-1.57h0Zm0.86,0,0.88-.74c-0.24,1-1.16,1.39-1.29,2l-0.36-.12,0.64-.86,0.13-.24h0Zm-20.57,3.16h0.36a11.18,11.18,0,0,0,.73-1.28,3.37,3.37,0,0,1,.93-1.18l1.66,0.26a4.39,4.39,0,0,0-.5,1.95l0.15,2.72c-0.54,0-.58.16-0.6,0.76l-1.12.35,0.89-1.24c-1.16.14-1.09,1.61-1.94,1.79l0.52-1.14a1,1,0,0,0-.83.78v0.52h-0.47c-0.66,0-.3.54-2,0l1.37-1.34a2.7,2.7,0,0,0-1.67,1.46l-0.73-.19,1.33-1.4a2.18,2.18,0,0,0-1.54,1.3H192a1.14,1.14,0,0,0-.71.26l-0.1-.14,1.76-1.55c-0.75.07-1.59,1.15-2.14,1.57l-0.23-.14-0.22-.36,1.83-1.35-0.12-.2-2.08,1.52c-0.39-1,1.46-1.25,1.66-2.07a2.9,2.9,0,0,0-1.16.68,3.15,3.15,0,0,1-1.09.88,0.5,0.5,0,0,1-.47-0.39h0.47l-0.1-.37,1.83-1.06-0.09-.19-2.46,1.23,0-.21,1.86-1.48A8.12,8.12,0,0,0,189,377c-0.49.37-.68,1.09-1.06,0.52,0.43-.65,1.46-0.61,1.66-1.43-0.89.26-1.63,1.43-2.77,1.35l2.65-2c0.71,0,1,.25,1.9.26a6.33,6.33,0,0,1,1.66.49l1.3,0a3.28,3.28,0,0,0,1.54-.65h0Zm0.19,3.2-0.76.72c0.14,0.4,0,.27-0.38.48l-0.36-.12v-0.26a9,9,0,0,1,1.5-.82h0Zm15.11,22.08a1.26,1.26,0,0,1,1.07-.91l-0.27.63,0.5-.13-0.64.86,0.08,0.31-0.49-.15v-0.62h-0.24Zm2.25-.26a1.15,1.15,0,0,1,1.07-.78,1,1,0,0,1-1.07.78h0Zm-2.37-1c0.53-.21.09-0.53,1.07-0.78,0,0.49.07,0.38-.47,0.52V400c-0.56,0-.47.13-0.59-0.39h0Zm-0.34-.62,2.19-1.78c-0.2,1.07-2,1.6-1.73,2.27l-0.48.11,0-.6h0Zm1-1.58a3,3,0,0,1,1.54-1.69l0.09,0.1-2.77,3.06a1.42,1.42,0,0,1,1.14-1.47h0Zm-1.07.13c0-.65,2.17-2.69,2.73-2.85l-2.73,2.85h0Zm1.68-4,0.81-.32-1.1,1.27,1.16-.49,0.06,0.13c-0.16.24-1.07,0.78-1.45,1.14a9.57,9.57,0,0,1-1.16,1.45l0-1.3,1.64-1.88h0Zm4.13,17.31a2.54,2.54,0,0,1,1.3-1.17,0.3,0.3,0,0,1,.24.26c-0.17,0-1.18.74-.71,0.91a0.67,0.67,0,0,1-.59.39c-0.17,0-.24-0.18-0.24-0.39h0ZM222.31,422a1.56,1.56,0,0,1,.59-0.26,2.37,2.37,0,0,1,.47,1.94l-0.83.28,0.31-1.33-0.69.38-0.11-.62,0.35-.16-0.11-.24h0Zm1.19,1.81-0.45.55,0.26,0.59,0.42-.12-0.79,1.51,1-.1-1.37,1.26-0.13.59,0.91-.4v0.52L222,429.57l0.09,0.1,0.8-.69,0,0.56-1.24,1.37c1.06-.2,1.43-1,1.6-0.34a2.44,2.44,0,0,0-1.54,1.69h0.47a6,6,0,0,1,.95-0.26l-1.5,1.74,0.12,0.15,0.64-.5,0,0.3h0.24l-0.7.95,0.12,0.11,0.33-.3,0.73,0-0.35.15V435h-0.36l0.28,0.34-0.51.21V436c-0.68-.06-1.79-2.2-2.13-2.2a9.91,9.91,0,0,0-1.42.26l-0.45-.3c0.25,0.69-.36.66-0.86,1l-0.72-.25c0.18-.73,1.58-1.56,2-2.52,0.8-1.9.4-1.76,0.81-3.78a5.47,5.47,0,0,1,.67-1.61c0.28-.69.32-1,0.55-1.73,0.29-.87.51-0.15,0.5-1.79a8.82,8.82,0,0,1,.12-2.07h0.59v0.39l0.36-.12,0.12,0.64,0.44-.32c-0.23-1.2-.73-0.62-0.91-1.36l-1.42.17,0.11-.09-1.29,2.45,0.34,0.06-0.75,1,0.73-.27,0,0.31a1.53,1.53,0,0,0-1.07,1.3L219,425l-0.89.84,0.54,0.1-1.36.93,0.08,0.17,1-.5-2.77,2.58-0.05-.46-0.73.75,0.05,0.12,2.2-.83-1.39.88,0.28,0.33a7.32,7.32,0,0,0-2.89,1.73l2.11-.73a26.79,26.79,0,0,1-2.58,1.51c-0.73.36-1.94,1.29-2.49,1.16l0.23,0.52,2.69-1.31,0.05,0.14c-0.08.07-1.87,1.12-2.14,1.3-1.12.71-1.16,0.53-2.49,0.65v0.39l-0.95.27v0.38h-0.36v-0.26l-1.51.63,0-.63c0.31-.16.71-0.15,0.71-0.65v-0.39h0.24v0.26c0.52,0,1.68-1.55,2.1-2a9.92,9.92,0,0,1,2.42-1.5c2-1.08,3.06-1.6,4.3-3.6a5.3,5.3,0,0,0,.82-1.31c0.37-1,.1-0.59.9-1.09s1-1.6,1.33-2.69c0.31-.93.61-2.14,1-3,0.75-1.69,1.43-1.2,1.94-2l0.47,0.27,0.58-.55c0.31,0.7-.38.53-0.57,1.32,0.78-.2.49-0.65,1.07-0.65,0.21,0,.19.19,0.24,0.39l-0.77.57,0.1,0.14,1.23-.9,0.12,0.12-0.55.85,1.25-.62,0.06,0.12L223.29,420l0.12,0.61,0.54-.31a1.6,1.6,0,0,1,1.33-1l-1.74,2,0.1,0.13,1.76-1.2,0.14,0.38A2.28,2.28,0,0,0,224,422.4h0.24l-0.09-.12,1.55-1.42,0.15,0.17-1.69,2.06c0.7-.09,1.1-1.05,2.22-1.08v0.26a3.25,3.25,0,0,0-1.78,1.81c0.66-.19,1.24-1.4,2.13-1.43l-1.81,2,0.17,0.67c1.17-.86.55-0.8,2.11-1.16v0.26a3,3,0,0,0-1.9,1.69v0.39l1.1-1,0.91-.82c0.32,0.75-1.49,2.13-1.89,2.73l0.47-.15-0.65.72,0.1,0.13,0.63-.41a2.67,2.67,0,0,1,1.71-1.2l-2,2.1,0.08,0.1h0.47c0.05-.54,1.62-1.68,2.13-1.81-0.21.85-2.16,1.72-2.25,3,1-.26,1.29-1.66,2.49-1.69l-1.09,1.27-1,1.14a1.83,1.83,0,0,0,1.31-.78,4,4,0,0,1,1.36-.72c-0.21.63-2.61,2.08-1.9,2.33v0.26h-0.24l0.43,0.45,1.51-1.82,0.54,0.11c-0.14.58-2,1.68-1.3,1.92l-0.24.52,0.1,0.07,0.33-.54,0.67-.66,0.32,0.08v-0.38l0.71-.15c-0.29.62-1.42,1.37-1.42,1.84a3.08,3.08,0,0,1,.36.78h0.24l0.66-1.38,1.18-.8,0.06,0.37-1.09,1.14-0.47.75-0.13,0,0.45,0.67c0.52-.42.72-1.32,1.59-1.34,0,0.57.16,0.38-.36,0.26l0.11,0.1-0.67.84v0.74l0.41,0.41c0.12-1.33,1-1.35,1.21-2.1l0.71,0v0.22a2.51,2.51,0,0,0-1.42,1.94l-0.35-.26-0.31.56c-0.45-.33-3.35-3.06-3.61-3.41-1.25-1.69-1.82-2-2.37-4.54h-0.47v-0.39c0-.45.24-0.2,0.24-0.65,0-.79-0.73-3-1.19-3.24h0Zm-8.92.76,0.69-.93a0.72,0.72,0,0,1-.43,1.21v-0.26l-0.26,0h0Zm-28,11.43a18,18,0,0,1,2.35-2.45l0.14,0.38c-0.44.13-1.24,2-2.49,2.07h0Zm-3.2.39V436h0.36V435.5c0.56-.22,1.05-1.22,1.9-1.3a1.66,1.66,0,0,1-1,1.25,8.89,8.89,0,0,1-1.26,1h0Zm-1.19,0a5.82,5.82,0,0,1,2.37-2.33c-0.07.66-1.82,2.17-2.37,2.33h0Zm-0.59-.39c0.06-.76,1.39-1.57,1.9-1.94,0.18,0.47-1.52,1.83-1.9,1.94h0Zm21.58-9.85c-0.71-.73,1.65-0.61,2.13-0.64,1.72-.13,1.52-0.66,2.49-0.91-0.44.72-2.81,1.83-2.61,2.33l2.2-1.39,0.11,0.17-1.87,1.55,0.72-.26,0.08,0.2L202.54,429l-0.17.29-1.24.41,0-.14a2.69,2.69,0,0,1-2.37,1.3v-0.26l1.88-1.07c-0.2-.86-2.1,1.2-2.95,1.2a1.28,1.28,0,0,1-.47-0.13l2-1.28-0.09-.18-3,1.55c0.1-1,2.06-1,2.15-2.16a13.38,13.38,0,0,1-2.61,1.69h-0.36c0-.58,1.45-1.5,2-1.56-0.14-.2,0-0.26-0.36-0.26a15.54,15.54,0,0,1-1.54.91l-0.09-.12,1.52-1.29-1.18.54,0.84-.77-0.5-.06c0.82-1.32,1.32-.42,2.84-0.64,1-.14,2.15-1.55,2.38-1.55H202c0.62,0,.11.75,1.19,0.78h0Zm4.51-3.76c0.18-.82.3-0.38,0.47-0.91l0.74,0.48-0.38,0c-0.28,0-.35.27-0.83,0.39h0Zm10.28-8,0,0.57a8.15,8.15,0,0,1-1.39,1.46c-0.45.37-1.32,0.76-1.34,1.52l0.09,0.13,2.47-2.13a5.41,5.41,0,0,1-2.57,2.52,7.83,7.83,0,0,1-.12-0.91v-0.52c0-.63.13-0.27,0.47-0.13l0-.28,2.37-2.23h0Zm-2.33,1.09a3.32,3.32,0,0,1,1.42-1.95,1.12,1.12,0,0,1-.66,1.1,10.74,10.74,0,0,1-.77.85h0Zm-6.76-2.2a1.28,1.28,0,0,1,1.07-1.17,3.32,3.32,0,0,1-1.07,1.17h0Zm2.73-2.2,0.71,0-2.83,3.36,0.1,0.1h-0.24l-0.24-.52c0.55-.9,1.42-2.32,2.49-2.59v-0.39h0Zm-2,4c0-.36,2.93-3.51,3.32-4.15l-0.36-.13a1.51,1.51,0,0,1,.59-0.26c0.06,0,2,2.58,2.13,2.85l-0.12-.09-0.57.93c1.58,0,.37-0.81,1.52-0.84-0.21.86-1.54,1.34-1.54,2.07,0,0.23.18,0.21,0.36,0.26-0.4.66-.71,0.45-0.71,1.56l0.57-.54,0.12,2.48a0.68,0.68,0,0,1,.26.52c0,0.44-1,.87-1.42.91l0.52-.72-0.21-.27-0.64.39-0.08-.1,0.85-1-0.1-.12-1,.44,0.91-.73c-0.1-.14,0-0.19-0.32-0.19H213.3l-0.19-.42-0.6.48,0-.44c-0.94.09-.9,1.88-1.4,2.75a9,9,0,0,1-.79,1.35,12.58,12.58,0,0,0-1.14,1c-0.87-.22-0.93.34-1.54,0.52l0.14-.77a3.78,3.78,0,0,0,2.12-1.82l-0.81.42,1.09-1.29,0.08-.17c-1.27.32-.9,0.89-1.66,0.91,0.29-.6.1-0.76,0.83-0.78-0.2-1,2-1.48,2.25-2.59l-1,.57,1.44-1.69c-0.4-.63-1.7,1.1-2.18,1.38l2.81-3.15-0.08-.09c-1.2.3-1.94,2.11-2.73,2.2a1.18,1.18,0,0,1,.83-1.17c0.07-.91,1.88-1.88,1.9-2.85h-0.24l-2.59,3a1.42,1.42,0,0,1-.14-0.54h0Zm7.94-17.63,1.06-.55a5.4,5.4,0,0,1-.58-2.18,11.44,11.44,0,0,1,1-3.08c0.54-1.06.43-2.21,1.16-2.75l0.16-3.37-0.3-.38a26.6,26.6,0,0,0,.69-4.53c0.12-1.88,1.43-2.42,1.7-3.53l0-.17-2.13.53,0,0.15h0.59l-2.25,1.43v0.25l1.65-.32,0,0.18-1.19.36-0.75.68,1.31-.15c-0.66.5-2.4,1-2.61,1.85l2.58-1.12c-0.15.79-2.9,1-2.94,2.67l2-1.26,0.12,0.17-0.54.58H219l-1.72,1.19L219,384a2.79,2.79,0,0,1-2,.85v0.26l1.41-.32c-0.55.59-1.36,0.49-1.41,1.22a1.51,1.51,0,0,1,1.07-.39h0.59v0.26c-1.56,0-2.22.83-2.25,2.46l1.87-.85,0.06,0.12-0.89.68,0.74,0v0.26a2.26,2.26,0,0,0-1.9,1.17c0.6-.15,1.09-0.62,1.42-0.13l-0.83.16c-0.25.69-.72,0-0.72,0.75v0.65l1.52-.48-1.74,1,0,0.22c0.91,0,1.46-.75,1.78-0.26l-1.77.8v0.62l0.84-.36,0.94,0c-0.67.51-1.7,0.39-1.78,1.43l1.64-.47,0.06,0.23-1.66.53,0-.17V395l0.55-.15h0.63c-0.12.56-.08,0.42-0.71,0.42l-0.55.46,0,0.18,1.41-.32c-0.85.89-1.37,0.18-2,1.62l1.64-.45c-0.51.56-1.91,0.79-2.12,1.75l1.41-.45a1.75,1.75,0,0,1-.93.71h-0.36c-0.06.77-.47,0.68-0.95,1l-1.07.15v-0.27c0.94-.27,1.16-2.12,1.9-2.33l0.67-2c-0.12-.72.26-3.6,0.28-4.77a28.82,28.82,0,0,1,.68-4.44,6.8,6.8,0,0,0-.62-4.19c-0.26-.49-0.88-1-1.09-1.41-0.1-.22-0.76-1.71-0.76-1.77v-1.43L214,376c0.39-.18.48-1.11,0.9-1.46s0.94-.59,1.4-0.93c0.9-.67,1-1.68,2.06-2.67l0.34,0.28,3.76-1.94,0.12,0.12,0.27-1.81,0.12,0a5.23,5.23,0,0,1,.24.78,1.62,1.62,0,0,1-.12.52c0.94-.69,1.28-2,2.85-2.46l0.08,0.11-1.43,1.25,0.64,0.07,1.6-1.63,0.14,0.16-1.22,1.4,0.1,0.11,1.85-1.37,0.09,0.12-1.08,1c0,0.21,0,.31.3,0.31s1-1,1.66-1.3l0.1,0.11-0.95,1,2.51-.21,0.62-.5-0.86-.43-1,.76-0.1-.08,0.67-1a3.23,3.23,0,0,1-2.23-.89c-0.41,0-.17.23-0.71,0.39v-0.65a1,1,0,0,0-.83-0.65,2.4,2.4,0,0,0-.83.26c-0.57.43-1,.1-1.78,0.65a10.77,10.77,0,0,0-1.4,1.06c-0.66.63-1.58,2.16-2.63,2.18L221,367l-0.14-.16-2.15,2.2-0.84-.17V368.6l1.59-1.37-0.11-.16-1.17.94-0.31,0-0.36.76-0.83-.07c-0.45,1.8-2.14,2.5-3.43,3.45l-1,.11v0.41l0.91-.48,0,0.35a5.85,5.85,0,0,0-2.25,2.59l2.28-2.18,0.15,0.17-2.13,2.47,0.08,0.31,1.83-1.61,0.09,0.11-1.73,1.86,0.06,0.55,1.81-1.75-0.53,1.24,0.56-.43,0.12,0.11-1.27,1.91,0.12,0.09c-0.47.12-.46,0-0.47,0.65l1.25-1a2.26,2.26,0,0,1-1.37,1.51v0.26h0.24v0.26l1.53-1.56-1.74,2.52,0.18,0.17,1.31-1.55-0.1-.1h0.24l-0.38.89,0.5,0a9.67,9.67,0,0,1-.56,1.34,2.34,2.34,0,0,0-.75,1l1.18-1.32,0.71-.5-2,2.64,0.76-.38,1.16-1.3a2.8,2.8,0,0,1-.73,1.28,6.46,6.46,0,0,0-.86,1,1.62,1.62,0,0,0,.12.52h0.36l1.37-1.74c-0.23,1.37-1.47,1.65-1.49,2.52l0.09,0.1,1.7-1.9,0.11,0.09-1.53,2.08-0.12-.11v0.91l2.1-2.24c-0.2,1.14-2,2.17-2,3l1.35-.9,0.07,0.12c-0.13.52-1.75,0.89-1.78,2.33l1.55-1.55a1.57,1.57,0,0,1-1,1.42,2.14,2.14,0,0,0-.95,1.43l0.79-.46L212,390.82l0.09,0.12,1-.76,0.08,0.11L211.45,392l0.09,0.12,1.54-1c-0.25.94-1.94,1.53-2.62,2.18l0.93-.42c-0.12.58-3,2.18-3.66,2.37a8.55,8.55,0,0,0-1.35,1.51,9.84,9.84,0,0,0-1,1.94l0.38,0-1.32,1.69,0.09,0.08,0.6-.51c-0.17.71-.85,1-0.41,1.34l0.65-.43c-0.62,1-1.51.72-1.55,2.07l0.79-.58,0.1,0.14-1,1.2,0.58-.3,0.08,0.1-0.39.64,1.33-.94,0.09,0.14-0.72.76h0.48l-1,1,0.09,0.11h-0.24v-0.52l-0.38,0,0.38,0.87,0.48,0a1.32,1.32,0,0,1,1.33-1.14l-1.29,1.3,0.09,0.11,1.42-.78c-0.19.79-1.28,0.65-1,1.39l1.68-.87v0.39l-0.08-.11-1.11.89c0,0.58.2,0.6,0.74,0.64l-0.18-.57,1.26-.85,0.07,0.13c-0.23.93-.69,0.12-0.76,1.23l1.73-1.49,0.18,0.22-1.09,1.32,0.07,0.28h0.36l0-.46,1-.78L209,406.5l-0.64,1h0.59c0.42-1,2.36-3,2.38-3.78l0.35,0.15-0.09-.12,1-.79c-0.08.78-.67,0.79-1,1.8a6.4,6.4,0,0,1-1,1.92c-0.37.71-.53,1.23-0.87,1.9-0.12.24-1.11,1.76-1.11,1.77,0,0.68,1,.39,1.19.13h-0.49l0.89-1.6,0.19,0.1L210,410.52l0.81-.31a1.61,1.61,0,0,1-.12-0.52,3.09,3.09,0,0,1,1.35-1.92l-1.08,2,0.13,0.09,1.26-2.23h0.59c0-1.78.9-2.58,1.54-3.63,0-1.18.2-1,.74-1.65a6,6,0,0,0,.61-1.8c0.37-1.51.42-2.65,1.73-3h0Zm-10-.39a13.59,13.59,0,0,1,1.19-1.16c0.53-.38.37-1.1,1.18-1.17-0.21.85-1,1.24-.83,2.2l0.44-.23c-0.29.58-.7,0.39-0.44,1l0.45-.3,0.1,0.12-0.85,1,0.65-.33,0.23,0.15-0.61.74,0.72-.26-0.28.59-0.06.21h0.24l-0.52.87,0.63-.36,0.35,0.16v0.24l-1,.72,0.63-.2,0.34,0.15-1.13.91,0.09,0.15,0.79-.47L210,402l-0.62.61,0.21,0.32-0.91.86a1.15,1.15,0,0,1-1.24,1.1v-0.26h-0.24v0.26h-0.36a0.86,0.86,0,0,1-.95-0.78,4.49,4.49,0,0,1,.83-1.94,2,2,0,0,1-.12-0.65c0-.09.49-0.83,0.59-1l-0.58.29,0.12-1.2h0.34L207,399h-0.15l0.32-.42a1,1,0,0,1,.65-1.11l-0.24-.39h0ZM210.21,428l-0.7-.13-0.36.9a5.75,5.75,0,0,1,.95-0.52h0.12c0.33,0,.22.06,0.36,0.26-1.67,0-1.53,1.69-2.89,2.55a9.59,9.59,0,0,1-1.62,1.08,9.06,9.06,0,0,0-1.8.88c-1,.75-5.77,3.91-7,4l-1,.34a5.89,5.89,0,0,0-1.26-.44c-0.59-.22-0.61-0.51-1.12-0.72a7,7,0,0,0-3-.43l-2.43,1.58,0.08,0.1-3.8-.36c0.21-.88,1.78-2.83,2.68-2.77l-2.09,2.25a3.27,3.27,0,0,1,1.3-.39h0.12c1.6,0,.86.36,2-0.83a4.67,4.67,0,0,1,1.82-1.63l0.11,0.23-0.64.58,0.08,0.11,0.58-.41h0.47c0.48-.35,1.22-1.36,1.35-0.61l-0.49.56,0.43,0.27,1.8-1.39c0.22,0.59-.59,1.14-1.19,1.3l-0.07.12,0.63,0.35L196,433l0.08,0.13a2,2,0,0,1,.12.65c0,0.56-.93.78-1.3,1.56,0.14,0,.32.13,0.36,0.13,0.5,0,1.45-1.17,1.86-1.35l0.63,0.31c0.2-.54.48-0.33,0.56,0.08l-2,1.73h0.59l1.9-1.68c1.09,0.57,3.06-.91,4-1.45a18.9,18.9,0,0,0,1.64-1.32,5.52,5.52,0,0,1,1.11-.34c0.27-.15.6-0.45,0.94-0.65a3.5,3.5,0,0,1,.91-1.73c0.26-.4.8-1.46,1.27-1.49L208,429.31l1.74-2.11v0.26l0.09,0.09,1.82-2.26,0.11,0.1c0,0.95-1.34,2-1.54,2.59h0ZM210.1,392.2h0.36l-0.28.29-0.44.22v-1l0.46-.14-0.11-.4,0.2,0.07,0.63-.32c-0.22.91-.77,0.45-0.83,1.3h0Zm-0.59-1v-0.54l1.44-1a1.6,1.6,0,0,1-1.42,1.56h0Zm2.58-1-0.54.39-0.12-.72,0.81-.56-0.15.9h0Zm0.26-1.29-0.95.39a1.43,1.43,0,0,1,1.19-1.17v0.26h-0.24v0.52h0Zm-3,.39-0.13-.41,1.32-.89a1.54,1.54,0,0,1-1.19,1.3h0Zm-0.4-.67c-0.06-1,1.38-2.3,1.43-1.2l-1.43,1.2h0Zm2.65-.37-0.36-.13v-0.36l1.53-.68c-0.17.82-.6,0.83-1.19,1.17h0Zm-3-.57a1.26,1.26,0,0,1,1.25-1.63l0.07,0.57-1.32,1.05h0Zm-0.4-1.11c-0.48,0-.31-0.32-0.24-0.65,0.48,0,1.42-1,1.42-.39a1.85,1.85,0,0,1-1.19,1h0Zm-0.71-.65-0.12-.52c0.78-.23.35-0.63,1.29-0.66l0.14-.25a1.61,1.61,0,0,1,.12.52,5.62,5.62,0,0,1-1.42.91h0Zm-0.59-.52-0.24-.13v-0.52c0.58-.05,1-0.78,1.19-0.78a0.29,0.29,0,0,1,.24.26,2.71,2.71,0,0,1-1.19,1.17h0Zm-0.26-1.09-0.57-.08V383.9c0.38-.11.91-0.78,1.07-0.78a0.51,0.51,0,0,1,.33.59l-0.83.52h0Zm-0.8-.6c-0.45,0,0,0-.37-0.14l0.25-.37-0.49,0,0.62-.78,0.7,0.41a1.23,1.23,0,0,1-.71.91h0Zm-1.3-1c0.14-.36.21-0.14-0.12-0.26,0.14-.22,0-0.26.36-0.26h0.95a1.21,1.21,0,0,1-1.19.52h0Zm7.71-1,0-.59,0.66-.58a1.22,1.22,0,0,1-.71,1.17h0Zm-7.67-.94a2,2,0,0,1,.79-0.88h0.83c1.19,0,1.71-.39,2.49-0.39l1.07,0,1.39,0.21,0.34,0.21,0.28,1.16-0.24.52h0.24v1.17c0,1.16,1.07,2.32,1.07,3.63l0,0.31-1.6.85L211,387l1.43-1.26-0.09-.12c-0.68.06-1.66,1.55-1.66,0.52l0.06-.32,1.32-1.28-0.12-.17-1.5,1-0.24-.14-0.22-.51,0.95-.82L211.4,384c0-.25,0-0.52-0.24-0.52a5.09,5.09,0,0,0-1.64.77l-0.11-.32,1.81-1.24-0.13-.25-1.93,1.15-0.58-.71,1.67-1.27-0.08-.15-1.86,1.12a0.69,0.69,0,0,1-.47-0.39c0-.55,1.45-0.82,1.63-1.74l-2.1,1.48s-0.12-.24-0.12-0.26a1.54,1.54,0,0,1,.12-0.52,1,1,0,0,0,1-1l-1.78,1.24-0.08-.14,0-.19,0.87-.71-0.09-.14a2.53,2.53,0,0,0-1.19.65,1.25,1.25,0,0,1-.49-0.14l0.24-.81-1.37.66h0Zm-0.94,0-0.06-.52-1.05.31a7.82,7.82,0,0,0,.12-0.91v-0.65c0.79,0.2.94,0.65,2.37,0.65l0,0.2-1.34.92h0Zm6.43-1.8-0.79,0a0.93,0.93,0,0,1,1.07-.52l-0.28.49h0Zm-1.14-.36-1.07.65a3.12,3.12,0,0,1,1.19-.91v-0.39h0.36a0.3,0.3,0,0,1,.36.26c0,0.3-.5.38-0.83,0.39h0Zm-1.9,1h-0.47c0-.6.43-0.64,0.86-1s0.57-.69.91-0.94l0.36,0.12c-0.47.77-1.46,1-1.66,1.81h0Zm4-1.43-0.36-.39a5.7,5.7,0,0,1,.59-0.52,0.29,0.29,0,0,1,.24.26,6,6,0,0,1-.47.65h0Zm-5.45,1.17a4.08,4.08,0,0,1,2.37-1.82,5.57,5.57,0,0,1-2.37,1.82h0Zm-0.59,0-0.38-.17,0.26-.22c-0.41-.15.39-0.62,0.75-0.86a5.43,5.43,0,0,0,1-1.08,0.69,0.69,0,0,1,.47.39c0,0.29-2,1.25-2.13,1.94h0Zm-0.27-.82-0.42,0-0.14.25c0.05-.66,1.3-1.41,1.85-1.61l-1.29,1.31h0Zm-1.62.17a2.2,2.2,0,0,1,2.13-1.56,7,7,0,0,1-2.13,1.56h0Zm9.84-2.33-0.17.45-0.75.71-0.14-.38,1.07-.77h0Zm-26.8-.52a3.37,3.37,0,0,0-1.54,2.22l-1.39.62-0.07-.16,1.12-.83-0.06-.12-1.27.86c-0.64-.5,1.29-1.13,1.66-1.69l-0.07-.14L182.35,378l-0.47.06c0.23-1,1.84-1.22,2.25-2.07l-0.08-.13-2.8,2,0.42-.82,2.45-1.49V375c0.59-.07,2.59-3.08,3.74-3l0.76,0.84a2.85,2.85,0,0,1,1.47,1c0.56,0.45,1.05.37,1.24,1.26l-0.86-.3,0-.14h-0.59a0.57,0.57,0,0,1-.71-0.52H188a1.77,1.77,0,0,0-1.9,1.69h0Zm14.69-3a7.22,7.22,0,0,1,3.6-1.33l0.33,0.42a1.15,1.15,0,0,1,.71-0.26,14.48,14.48,0,0,1,3.34,1.53,5.11,5.11,0,0,1,1.29,1.18,7.55,7.55,0,0,0,1,1.58l0.22,0.88-0.12-.1-0.87.89-0.31-.06L209.6,377l1.17-1-0.08-.11c-1,0-1.22,1-1.54,1a1.21,1.21,0,0,1-.64-0.19l1.44-1.38-0.14-.2L208,376.48l-0.43-.42,1.11-.85V374.7c-0.16.11-1.42,1.17-1.42,1.17a1.3,1.3,0,0,1-.66-0.19l1-1.36a2.12,2.12,0,0,0-1.43,1.44l-0.83-.14,0.08-.17,1-1.25c-1,0-1.32,1.66-2.37,1.69l-0.09-.11,1.15-1.18c-1,.09-1.49,1.24-2.3,1.64l0.52-.87a2.24,2.24,0,0,0-1.47,2.31,33,33,0,0,0-.23,3.34l-1.5,1.61-0.51,0,1.31-1.27-0.09-.11c-0.74.07-1.67,1.41-2.13,1.94l-0.1-.08,1.23-1.67-0.17-.17L198,383l0.1,0.1a0.44,0.44,0,0,0-.36-0.13h-0.36v-0.23l0.6-.21-0.3-.13,1.89-1.53-0.13-.2-2.61,2-0.1-.14,1.71-1.76c-0.7.06-1.54,1.12-2.13,1.56,0.06-.84,1.69-1.7,2.33-2.12a2.86,2.86,0,0,0,1.32-.89,3.75,3.75,0,0,0,0-2.15l0.25-.09-0.15-.06,0-.39v-1.43a2.61,2.61,0,0,1,.84-1.95l-0.15-.51h0Zm11.52-.13-1.54,1.68-0.12-.65a1.65,1.65,0,0,0,1.42-1h0.24Zm-1.13.58v-0.44l0.06-.38,0.77-.08-0.83.91h0Zm-3.14-2.14,0.3,0,0.42,0.48-0.24.52h-0.5l0.14-.38h-0.26l0.15-.64h0Zm-0.78.75a1,1,0,0,1-.65-0.49,3.6,3.6,0,0,1,.91-1.27l0.27,0.48-0.53,1.27h0Zm-1.36-.49-0.59-.26a4.22,4.22,0,0,1,1.07-1.69,0.66,0.66,0,0,1,.59.39,4.05,4.05,0,0,1-1.07,1.56h0Zm-4.88-2.2,0.75,0.13-0.34.81-0.41-.94h0Zm3.64,1.9-0.52.05,0.21-.53h0.38l-0.15-.39,1.1-1.45,0.36,0.39L206,369l-1.26,2h0Zm-1.37-.22-0.26.59-0.19-.16,2-2.77h0.47a7.08,7.08,0,0,1-2,2.33h0Zm4-4.15c0.2,0.83.53,0.49,0.71,1.43a13,13,0,0,1,.24,1.94c-0.64-.51-0.64-1.49-2.12-2.22-1.63-.81-1.31-0.82-3.1-0.37l0.11-.39h-0.59a1.52,1.52,0,0,1-1.42,1.17c0.46-.76,1.29-0.9,1.54-2.07-0.88,0-1.46,1.94-2.37,2.2,0.07-.89,1.29-1.48,1.3-2.33-1,.09-1.47,2.09-2,1.82-0.29-.67,1.31-1.61,1-2s-1.34,1.12-1.46,1.71c-1.05-.31.66-1.53,0.8-2.4l-0.71.31,0.26-.77c1.44,0.76,3.51-.09,5.58,1.4l1.53,0.17,0.72,0.38h0Zm26.92,59.9a1.18,1.18,0,0,1,.47-1c0.3,0,.52,1.2.59,1.56l-1.07-.52h0Zm-0.17-3c0,1.41-.51.36-0.54,1.61l0.9-.6,0.14,0.14L234,425.9c-0.78-.06-0.7-0.62-0.94-1.16l1-1.21h0Zm-0.21-1.14,0.11,0.68-1.1,1.36-0.29.06-0.1-.5,1.38-1.6h0Zm-0.11-1.16,0,0.41c0,0.58-1.24,1.11-1.42,1.94l-0.38-.15,1.78-2.2h0Zm-2,1.83-0.11-.12a6.21,6.21,0,0,1-.12-0.78c0-.55,1.37-1.06,1.21-1.51l0.68-.44,0.24,0.66-1.9,2.19h0Zm0.33-4.05c0.53,0.41-.92,1.11-0.92,1.86,0,0.36.09,0.31,0.36,0.39,0.1-1.37.82-.94,1.07-1.95h0.24l0.24,0.52-1.79,1.94-0.37-1.33,1.18-1.44h0Zm-1-.55,0.67,0.16-1.24,1.55-0.3-.58,0.87-1.13h0Zm-1.13.72a1.63,1.63,0,0,1,.83-1.43,2.47,2.47,0,0,1-.83,1.43h0ZM224.21,414c-0.6-.47.72-1,1.07-1.56l-0.71,0-0.65.57-0.08-.12,1.06-1-0.1-.14-0.59.16,0.24-.39-0.65.26-0.91.32,1.39-1.41-1.6.84c0-1,.86-0.85,1.3-1.57l-0.35-.15,0,0.13-0.89.54,0.85-1-0.49,0v-0.26l0.71-.15-0.23-.37,1.5-1.86c0,0.05,2.09,3.41,2.22,3.63a9.72,9.72,0,0,1,1.5,4.45v0.78H228.6l0.2,0.79a4,4,0,0,0-.08.63,11.44,11.44,0,0,0,.36,1.43l-0.83.38-0.5-.61,0.76-.65-0.5-.13-0.69.3,0.85-.64L228.1,417l-1.28.37-0.11-.4,0.25-.37-0.49,0v-0.26l0.64-.61-1,.41c-0.18-.43.24-0.6,0.68-0.72l-0.28-.34-0.76.39c0.36-.84.86-0.33,0.93-1.21l-1.49.77,0.06,0.14c-0.19-.15-0.24,0-0.24-0.39s0.64-.26.95-0.91l-1.39.59-0.12-.18,1.24-1.22-0.11-.16-1.48.94,0.08,0.15h0Zm1.18-14.49c1.35-.06,1.82.73,3,1.39a12.12,12.12,0,0,1,5.69-.26,6.75,6.75,0,0,1-3.27,1.48c-0.32,0-1.29-.16-2-0.18a7.29,7.29,0,0,1-1.77-.52h-0.24c-1.51,0-1.62,2.58-2.4,3.47s-1.67,2.75-2.7,3l0.38-.5-0.91.53,0.05,0.12-0.35-.15-0.43.44-0.13-.18,1.09-1,0.31,0-0.14-.42-1.9,1.24-0.25-.45,0.51,0,0.14-.38c0.29,0.13,2.26-1.72,2.35-2.08a9,9,0,0,0-1.82,1.12c-0.27.17-1.43,1.34-1.5,1.34a1.29,1.29,0,0,1-.47-0.13l3.18-3-0.15-.22-3.43,2.66-0.15-.23,4.68-4-0.09-.13h-0.36c-0.43,0-2.24,2.12-3,2.33l3.22-3.11,0.1,0.13c-0.49-.74-1.94,1.13-2.37,1.3,0.6-1.25,3.05-2.28,3.32-3.39l1.77-.2h0Zm27.28-1.85a0.66,0.66,0,0,1,.36-0.39l0,0.91h-0.25a1.54,1.54,0,0,1-.12-0.52h0Zm-4.39-.91c-0.41-.12-0.36-0.07-0.47-0.52h0.47v0.52h0Zm1.06-.66-0.18.44-0.05.48c-0.46,0-.36.08-0.47-0.39h0.24v-0.37l0.47-.16h0Zm1.78-.26c-0.21.66-.75,0.22-0.83,1.18h-0.71l0.33-.42-0.09-.35,1.3-.41h0Zm-6.42-.92-0.18.45,0.11,0.49h-0.38a0.68,0.68,0,0,1-.59-0.65h0.24l0,0.32,0.77-.61h0Zm6.07,2c1.17-1.91,1.84-1.29,3.23-2.44,0.93-.77,1.72-2.39,2.94-2.75v0.52a3.86,3.86,0,0,1-2.07,3c-0.53.31-1,.73-1.51,1.08-0.69.45-.77,1-1.4,1.06l-0.12-.11,0.86-1.17-0.09-.12-1.1.86L251.6,397h-0.47a0.44,0.44,0,0,1-.36-0.13h0Zm7.82-6.62a1.23,1.23,0,0,1-.94,1.17l0.16-1.06,0.08,0.54c0.33-.12.26,0.1,0.16-0.2l0.55-.45h0Zm2.26-3.75a1.38,1.38,0,0,0,1.3-1.43h0.24l-0.64,2.23a3.21,3.21,0,0,0-2.45,1.53l-0.14-.39-1,.58c0-1.07.9-.55,1.16-1.62l-0.94.4c0.48-1,.58-0.48,1.18-1a0.63,0.63,0,0,0,.47.26,0.7,0.7,0,0,0,.83-0.52h0Zm-23.24,9.72,1.19,0.13v0.26c-0.54,0-.7.28-0.71,0.91l0.52-.06L239,397v0.52a2.45,2.45,0,0,1-.71.39h-0.24c-0.63,0-1.11-1.78-2.49-1.82,0.24-1,1.16-.35,1.66-1.17l0.05,0.13,1.61-.78c-0.39.63-1.28,1-1.3,1.95h0Zm-17.43-2.59c0.17-.71,1.36-0.94,1.42-1.81a12.11,12.11,0,0,0-1.43,1c-0.37.24-1.21,0.65-1.06,1l-0.36.12v0.91a1.91,1.91,0,0,1,1.42-1.3h0Zm1.29-2.08-0.41.16-0.92.78-0.78.38-0.09-.13,2.5-1.93-0.3.75h0Zm-0.93-.12-1.07.65c0.08-1.1,1.84-2.28,2.61-2.72,0,1.18-1.78,1.47-1.54,2.07h0Zm1.25-2.37-1.61,1.07c0.33-.75-0.07-0.62.75-1.13a11.76,11.76,0,0,0,1-.77l0.2,0.28-0.32.54h0Zm-0.9-1.39,0.17-.33,0.66-.58c0,0.79-.21.75-0.83,0.91h0Zm15.42-14.13c0.14,0.58.18,0.26,0.59,0.65h-0.71a1.59,1.59,0,0,1-.59-0.13c0.11-.45.21-0.47,0.71-0.52h0Zm-1.3.39a0.67,0.67,0,0,1-.59-0.38l1.42-.79V373h0.24v0.26a7.53,7.53,0,0,0-1.07.65h0Zm-0.95-.52h-0.24c-0.45,0,0,0-.36.13a2.49,2.49,0,0,1,1.54-.91v-0.4l0.71-.12a1,1,0,0,1-.71.77,1.42,1.42,0,0,1-.95.52h0Zm-1.3-.13a5.76,5.76,0,0,1,3-1.94,6.58,6.58,0,0,1-3,1.94h0Zm1.9-1.94a0.68,0.68,0,0,1,.71-0.78v0.52a1.65,1.65,0,0,1-.71.26h0Zm20.87,0.52v-0.52a1.77,1.77,0,0,1,.95-0.52h0.36a1.24,1.24,0,0,1-1.3,1h0Zm-0.87,0-0.44,0a1.47,1.47,0,0,1,1.24-1.12l-0.8,1.09h0Zm-1.43.36-0.31-.2a1.6,1.6,0,0,1,1.46-1.13l-1.15,1.34h0Zm-18.1-1.76-0.39-.15,0.5-.62s0.12,0.24.12,0.26a1.16,1.16,0,0,1-.24.52h0Zm-1.76-5,0.82-.92,1.3-.17-0.06-.13,1.25-.77c1,0.5,2.16-.28,2.82.8,0.31,0.51.56,0.72,0.77,1.1s0.45,1.29.56,1.47c0.34,0.56.39,0,.66,1.22a2.83,2.83,0,0,0,.56,1.46c0.12,0.08,2.33,1.13,2.56,1.22,0.7,0.28.34,0.54,1.05,0.8,0.47,0.17,1,.2,1.54.4a4.08,4.08,0,0,0,3.08.05c0.88-.46,1.25-1.22,2.11-1.72a6.45,6.45,0,0,1,2.79-1c0.86-.63,2.87-0.49,3.08.39a6.24,6.24,0,0,0-1.78-.39,5.13,5.13,0,0,0-3.49,1.37,9.81,9.81,0,0,1-1.26,1.22c-0.48.65-.36,1.15-1.37,1.13l0.42-.87c-1.39.35-.49,1.49-2.67,1.63l0.77-1.11c-0.76.07-1,1.37-1.54,1.3l-0.83-.13a1.28,1.28,0,0,1,1.07-.91c-0.25-1-1.43.65-1.54,0.65a1.15,1.15,0,0,1-.55-0.19l0.57-.8,0.1,0.08c-0.38-.56-0.94.27-1.08,0.82l-1.23-.39,1.24-.95c-1.06,0-1.28.74-2,1l0-.58,0.41-.59h0.47v-0.26a1.48,1.48,0,0,0-1.54,1.17h-0.83l-0.12.05-0.42-.12,1.34-1.11-0.08-.12h0.47v-0.26c-1.21,0-2.07,1.56-2.25,1.56a3.26,3.26,0,0,1-.86-0.18l1.75-1.43-0.11-.18-2.31,1.66h-0.47c0.44-.71,2.21-1.66,2.2-2.29l-2.75,2.17,0.08,0.12-0.59-.13c0.25-1,1.4-.92,1.85-2l-2.33,1.51c-0.31-1.62,2.85-1.94,3-3.12L237,370.68c0.47-1,2.65-1.9,2.71-2.75l-2.47,1.84c0.08-1.07,1.8-1.2,2-2.17l-1.72,1.13c0.11-1.07,1.55-.74,1.75-1.75l-1.48.9-0.07-.12,1.23-1.08-1.22.47,0.74-.88h-0.36V366c-0.77.2-2.5-.14-3,0.44s-1.47,1.3-1.47,2.16,1.29,1.6.21,2.56c-0.36.31-.89,0.47-1.18,0.78-0.13.13-.91,0.82-1.06,0.93l0.13-.49-0.69-.14-0.85,1.28h-0.58l0.46-1c-0.73.53-.77,1.69-1.86,1.89L229,373c-0.81.21-.6,0.93-1.21,1.18l0.14,0.38a1.28,1.28,0,0,1-.47.13,1.09,1.09,0,0,1-.54-0.19l1-1.36c-1.1.32-1.12,1.82-1.78,1.82l-0.38,0,0.83-1.48-0.22-.16-0.94,1.63-0.9-.17,0.78-1.24c-0.87.25-.76,1.43-1.42,1.43l-0.43-.05,0.67-1.24c-0.69.28-.91,1.3-1.42,1.3l-0.4,0,0.64-1c-1,.09-0.58,1.25-1.87,1.57l0.33-.92a2.29,2.29,0,0,0-.85.88,1.56,1.56,0,0,1-1,.88l0.79-1.5a3.08,3.08,0,0,0-1.07,1.43,5.4,5.4,0,0,1-1,1.59c-0.53.65-2,2.18-2,3.08h-0.24c-0.2-.81-0.95-2-0.95-3v-0.39a6.79,6.79,0,0,1,.93-2,4.51,4.51,0,0,1,1.8-1,13.65,13.65,0,0,0,1.43-1.41,2.49,2.49,0,0,0,.88-0.59,1.21,1.21,0,0,1,.77-0.72c-0.31-.82,2-0.65,2.49-0.65H224a4.33,4.33,0,0,0,1.3-.52v0.52c1-.09,1.06-2.63,3.42-2.93,1.08-.14,4.51-1.18,4.88-1.7l-0.56-.24,1.2-.6,0-.12-0.72.13,0.61-.61Z" transform="translate(-114.31 -326.37)"/><path class="cls-3" d="M222.34,547.81c0.12-.14.36,0.19,0.13,0.07,0,0-.32.16-0.13-0.07h0Zm-0.12-1.28c0-.34.14,0,0.07,0h0s-0.06.3-.06,0h0ZM222,545c0.13,0.25.22,0.08,0,.56V545Zm0,0v-0.56c-0.38.55-.21-0.16-0.31,0.38L222,545h0Zm-8.84-.17a2.33,2.33,0,0,1,.42-1.53c0,0.24-.05.54-0.08,0.84-0.05.51,0,.56-0.33,0.68h0Zm8.38-2.39a3.24,3.24,0,0,1,.08-1.75c0.6-1.44,0-.69.47-1.63,0.33,0.55,0,1-.19,1.54-0.25.8,0,1.15-.36,1.83h0Zm-7.46-4.69,0,0s0,0,0,0h0Zm8.28,0c-0.12-.2-0.13.11,0-0.42l0,0.42h0Zm-16-.14,0.34,0C206.34,537.94,206.46,537.94,206.36,537.58Zm0,0h0Zm16,0.14c-0.18.47-.2,0.31,0,0.73a1.9,1.9,0,0,0,.51-1.21c-0.32,0-.28.17-0.51,0.47h0Zm-15.4-.85-0.09.41c-0.05-.61,0-0.25.09-0.41h0Zm15.86,0c0-.34.14,0,0.07,0h0s-0.06.3-.06,0h0Zm-15.86,0c0.41-.21.07,0.15,0.34-0.53-0.3.09-.23,0-0.34,0.53h0Zm0.4-.71c0-.53,0-0.58.29-0.67l-0.29.67h0Zm15.46-1.71,0.24,0.13-0.24,1a1.48,1.48,0,0,1,0-1.16h0Zm-0.23-.43-0.13.67c0.37-.11.07,0.14,0.37-0.25V533.9Zm0,0-0.2.13-0.51-.69,0.37-1.16c0.29,0.65-.21.26,0.59,1a0.75,0.75,0,0,0-.25.71h0Zm-12.13-1.14h0Zm0.12-.14-0.12.14,0.12-.14h0Zm0.12-.14-0.12.14Zm0,0h0Zm10.64-1,0.31,0.52c-0.46-.14-0.16-0.15-0.31-0.52h0Zm-18,0c0-.34.14,0,0.07,0h0s-0.06.3-.06,0h0Zm0.58,0h0Zm-0.46-.32a0.51,0.51,0,0,0,.55-0.51,0.72,0.72,0,0,0-.55.51h0Zm0.69-.82,0,0s0,0,0,0h0Zm0.38-.15c0-.57.19-0.82,0.66-0.8a3.5,3.5,0,0,0-.66.8h0Zm1-1.27,0,0h0Zm17-.57,0,0s0,0,0,0h0Zm0.12-.28,0,0s0,0,0,0h0Zm-16.1-1a2.06,2.06,0,0,1-.82,1.7A7.6,7.6,0,0,1,206.59,527.22Zm0,0,0.12-.26-0.12.26h0Zm-0.47-1.14,0,0s0,0,0,0h0Zm1.05-1.85a1.19,1.19,0,0,0,.12-0.85l-0.24-.27,0.16-1-0.42.37a3.15,3.15,0,0,0-.75,1.6l0.28-.41,0.14,1.85,0.38,0.22v0.87l0.19-.4a3.29,3.29,0,0,0,.12-0.57c0-.39,0-1,0-1.41h0ZM205,522l0.46,0.11c-0.25,0,.09.11-0.22,0A0.34,0.34,0,0,1,205,522h0Zm2.92-2.41a2.74,2.74,0,0,1-1.4,2.7l-0.25-.43a2.16,2.16,0,0,1,.46-0.46C207.08,520.92,207.15,520,207.87,519.54Zm0,0a1.39,1.39,0,0,0,.57-0.67,0.66,0.66,0,0,0-.57.67h0Zm10.5-1h0Zm-9.91,0c0-.34.14,0,0.07,0h0s-0.06.3-.06,0h0Zm10-.14-0.12.14,0.12-.14h0ZM212.77,517c0-.34.14,0,0.07,0h0s-0.06.3-.06,0h0Zm13.88-.71c0.39,0.13.33,0,.23,0.28-0.11.05,0,.26-0.14,0s0-.09-0.1-0.28h0ZM212,514.72l0.44-.11,0.14,0.84c0.31-1.19.34-1,.2-1.69s0.39-1.07,0-1.71a2,2,0,0,0-.4,1,1.94,1.94,0,0,1-.5,1l-0.23.14c-1.1.88-.72,1.12-1.48,2.18l-0.31-.1c-0.6,1-1.28,1.79-1,2.3l1.42-2-0.51,1.54c1.53-3.28.72-1.53,1.65-2.6,0.3-.34,0,0.25.39-0.25a1.1,1.1,0,0,0,.16-0.52h0Zm-12.36-2.27,0,0s0,0,0,0h0ZM199,512m0,0h0Zm28.58-.28c0.12-.14.36,0.19,0.13,0.07,0,0-.32.16-0.13-0.07h0Zm-1.19.14a0.83,0.83,0,0,1,.83-0.11c-0.37.25-.56,0.5-0.83,0.11h0Zm-0.33-.28,0,0s0,0,0,0h0Zm-26.6,0-0.23.07,0.23-.07h0Zm0.23-.28c-0.07.4,0.09,0.2-.23,0.28Zm0,0h0Zm0.73,0.84a2.57,2.57,0,0,1,.13-1.53,4,4,0,0,1-.13,1.53h0Zm37.65-2.69,0,0-0.12-.14,0.12,0.14h0Zm-0.12-.14-0.12-.14,0.12,0.14h0Zm-29-.43,0,0s0,0,0,0h0Zm-7.82,0,0,0h0Zm36.74,0.28L236.92,508a1.69,1.69,0,0,1,.93,1.14h0Zm-28.45-.89a2,2,0,0,1,.66-0.8,0.72,0.72,0,0,1-.66.8h0ZM236.1,507h0Zm0.37-.4,1,0.51a1.18,1.18,0,0,1-.65,0,0.43,0.43,0,0,1-.37-0.5h0Zm-0.37.4c-0.65.33,0.14,0.16-.48,0.41l-0.21-.8c0.41-.19.56-0.18,0.69,0.39h0Zm-2.22-1.56c0-.34.14,0,0.07,0h0s-0.06.3-.06,0h0Zm0.26-.41a1.56,1.56,0,0,1,.41,1.11,2.07,2.07,0,0,1-.41-1.11h0Zm-1-.58,0.22,0.83L234,505l-0.24-.3-0.29.38Zm0,0-0.19.12a2.7,2.7,0,0,0-.26-0.41,3.09,3.09,0,0,0-.37-0.15c-0.4-.28,0-0.41-0.63-0.35l-0.17-.91a7,7,0,0,1,1.63,1.7h0ZM230,502.07l0,0s0,0,0,0h0Zm-28.81-1.14,0.12,0.28c-0.3.23-.4,0.22-0.73,0l0.62-.23h0Zm1,0.14h0Zm-0.93.14c0.42,0.11.55,0.21,0.56-.4-0.4,0-.32,0-0.56.4h0Zm0.93-.14h0ZM229,500.8c0-.34.14,0,0.07,0h0s-0.06.3-.06,0h0Zm-1.52,0c0-.34.14,0,0.07,0h0s-0.06.3-.06,0h0Zm-26.25.14h0Zm27.65-.43h0Zm11.08-.39c0.35,0.12.43,0.26,0.17,0.66l-0.17-.66h0Zm-11.08.39-0.21.12a0.88,0.88,0,0,1,0-.82l0.23,0.7h0Zm-0.9-.32a0.69,0.69,0,0,1,0-.92c0.48,0.19-.1,0,0.42.48-0.27.41-.13,0.34-0.42,0.44h0Zm-0.83-1.41,0.3-.82c0.08,0.93-.16.61-0.3,0.82h0Zm-32.56-.4h0ZM205,498.1c-0.24.26-.26,0.35-0.56,0.19,0.33-.3.08-0.18,0.56-0.19h0Zm-11.9-.57,0,0s0,0,0,0h0ZM226.3,495c0.08,0.15.44,1.46,0.58,1.85-0.65-.22-0.58-1.14-0.58-1.85h0Zm-0.23,1c0-.34.14,0,0.07,0h0s-0.06.3-.06,0h0Zm16.1-.43,0,0s0,0,0,0h0ZM226.3,495h0Zm15.28-.85c0.12,0.2.13-.11,0,0.42l0-.42h0Zm10.72,0.11-0.67-.13a0.26,0.26,0,0,1,.3-0.17,1.5,1.5,0,0,1,.37.3h0Zm-53.06-.39,0,0s0,0,0,0h0Zm52.14-.14,0,0s0,0,0,0h0Zm-13.3-1c0.37,0.34.47,0.39,0.24,0.89-0.46-.17-0.48-0.4-0.24-0.89h0Zm-2.11-.56c0.36,0.19.41,0,.09,0.56-0.19-.32-0.23-0.29-0.09-0.56h0Zm10.62,0c0.81,0,.93.53,1.5,0.52a2.82,2.82,0,0,1,1.65.33c-0.07.24,0.11,0.25-.67,0.21-0.37,0-.53,0-0.86,0-1.24-.1-0.91-0.19-1.62-1h0ZM226,492h0Zm18.9-.14c0.12-.14.36,0.19,0.13,0.07,0,0-.32.16-0.13-0.07h0Zm-3.27,2.27v-0.4l-1.14-.76c-0.73-.56-1.32-0.13-2.44-0.87-0.63-.41-0.35-0.65-1.08-0.67v0.43l0.78,0.47a2.07,2.07,0,0,1,.94.56c0,1.3.06,0.76,0,1.54a2.56,2.56,0,0,0,.4,1.48,1.88,1.88,0,0,1,0,1,8.16,8.16,0,0,0,.42,2.38l0-.57,0.21,0a2.19,2.19,0,0,1,.11.86c0.21-.11.3,0.19,0.24-0.54a1.6,1.6,0,0,0-.23-0.61l-0.12-.14c-0.06-.79-0.34-0.44-0.32-1.27l0.39,0.31a20.83,20.83,0,0,1-.45-3.91c1.69,0.5,1.42.09,2.25,0.75h0Zm-26.17-2.26c0-.41-0.07-0.23.19-0.41l-0.19.41h0Zm19.3-1.29,0.13-.83,1.31,1.13-0.17.59-0.73-1-0.54.15h0Zm-9.23-.56,0,0s0,0,0,0h0Zm21.11,2.13a4.47,4.47,0,0,0-.85-0.53c-1.3-.62-0.31.23-1.21-0.94-0.12-.15-0.2-0.18-0.32-0.32-0.92-1.12-.61-1.73-1.63-2.55s-0.15-.08-0.86-1l-0.06-.07-0.39-.3-0.26.64,1,1.47a1,1,0,0,0,.5.84c0.74,0.17.23-.29,0.59-0.32l0.41,0.91a6.15,6.15,0,0,0,.8.88,4.12,4.12,0,0,0,.36.56c0.43,0.43.6,0,1.17,0.71a8,8,0,0,0,.81,1l-0.34-.84,0.25-.14h0Zm-5.95-6c0-.34.14,0,0.07,0h0s-0.06.3-.06,0h0Zm-36.28-.57c-0.13,0-.25-0.33,0-0.22s0-.29,0,0.06c0,0,.08.14,0,0.16h0ZM216,484.46h0Zm27.39,0h-1c0.15-.28.1-0.11,0.34-0.18,0.4-.12.51-0.46,0.67,0.18h0ZM199,482.62l0,0s0,0,0,0h0Zm-1.73.83c0.13-.81.24-0.25,1.36-0.95a1.08,1.08,0,0,1-1.36.95h0Zm-14-1.4,0,0,0.2-.41c0,0.41.12,0.13-.2,0.41h0Zm33.24-.43h0Zm-1.4-.14h0Zm1.28-.14c-0.2-.52-0.14-0.13,0-0.45,0.23,0.48.17,0.11,0,.45h0Zm-32.31-.28-0.23.07,0.23-.07h0Zm19.83-.14h0Zm-19.83.14h0Zm21.11-.28,0,0s0,0,0,0h0Zm-1.28.14c-0.46.28-.34,0.38-0.6,0,0.32-.23.29-0.24,0.6,0h0Zm-1.28,0-1.84.11c0.06-.53.39-0.44,1.69-0.72,0.48-.1,1,0.06,2.25-0.1v0.28a9.42,9.42,0,0,1-1.17.14c-1-.05-0.21.06-0.93,0.28h0ZM222.8,489c-0.26.46,0,.5-0.48,0.72a1,1,0,0,1-.11-0.72l-0.44.25c-0.35-.59,0-0.59.07-1.22-0.67.16-.14,0.45-0.86,0.71l0-.59-0.55.53c0.22-1.2.24-.81,0-1.68l-0.7.27,0-1-0.76.95-0.07-2-0.43.45-0.55-.49c0-.55.06-0.23,0.06-0.67,0-.88-0.2,0,0.19-1.9l-0.59.75,0.2-1.49-0.45.05a8.71,8.71,0,0,1-.15-1.53l-0.56-.4c0.53-.25.25-0.11,0.72,0.36l0.94,0.28a10.94,10.94,0,0,0,.38,1.39c0.58,1.27.67,2.53,1.7,3.47,0.74,0.68,1.15.53,1.95,1.32a6,6,0,0,0,.93.71c0.48,0.35.09,0.16,0.34,0.44L224,488.4l1.34,1.78-0.06.93c0.54,0.64.31,0.63,0.67,2.59l-1.21-3.1-0.32.41-0.6-1.28-0.56.43a1.93,1.93,0,0,1-.46-1.15h0Zm-36.62-9a0.56,0.56,0,0,1,.56-0.35,0.55,0.55,0,0,1-.56.35h0Zm1.39-.82c0.19-.32,0-0.42.45-0.19-0.3.31,0.1,0.13-.45,0.19h0Zm27.3-1.42,0.86,1.14-0.19.65,0.48-.07a2.61,2.61,0,0,1,0,.34s0,0.08,0,.11v0.1c0,0.89.12,0.55-1,1.95l0.13-.53a1,1,0,0,0,.12-1.59,1.2,1.2,0,0,1-.57.7l0.1-.39-0.34.11,0.79-1.05-0.65.22a1.8,1.8,0,0,1,.23-0.88,2.77,2.77,0,0,0,0-.34c0-.06.09-0.25,0.14-0.47h0Zm-2.45-.85c0-.34.14,0,0.07,0h0s-0.06.3-.06,0h0Zm13.3-1c0-.34.14,0,0.07,0h0s-0.06.3-.06,0h0ZM215,477.22c1.3,0.43,1,2,1.63,2.56-0.35-1.67-.19-1.58-0.88-2.33a2.44,2.44,0,0,1-.46-1.14,1.88,1.88,0,0,0-.41-1.06c-0.07-.45.57-1.59-0.44-1.83a8.16,8.16,0,0,0,.57,2.69l-0.38.13,0.37,1h0Zm-3.15-4.55-0.2.27C211.68,472.54,211.54,472.82,211.84,472.67Zm0,0,0.23-.07-0.23.07h0Zm3-.57h0Zm-18.42-3a0.83,0.83,0,0,1,.68-0.64,1,1,0,0,1-.68.64h0Zm23.2-.82h0Zm-2.22-.43,0,0a1,1,0,0,1,.47-0.85,1.49,1.49,0,0,1-.47.85h0Zm-11.9,0a8.66,8.66,0,0,1-.65.63c-0.4.25-.38,0-0.66,0.76-0.45,1.33-.16,1.1-1.36.9l-0.36.65,0.38-1.29-1.41,1.88c0-.74,0,0,0.31-0.86,0.88-2.36,0,0,1.4-2.53l-0.34-.32-1.22,1.2-0.06-.47-0.44.27a0.67,0.67,0,0,1,.2-0.7l-1,.84,0.31-.66-1.5.92,0.94-1.1-0.28-.53-1.54.73-0.3-.65c-1.73.87-1.15,0.51-2.78,2.27,0-.22,1-1.38,1.23-1.81l-1.69,1.54,0.66-1.09-1.17.95,0.47,0.69a1.25,1.25,0,0,0-.91.48,3.18,3.18,0,0,0-1.38,1.59,2.36,2.36,0,0,1-.62,1c0,1-.63.82-0.57,2.05a10.91,10.91,0,0,1-1.48,3l-1.37.82,0.05-.86c1.76-.77,1.13-1.35,1.45-1.63l0.73-.45-0.53-.33-0.55.45c0-.47.27-0.25,0.55-1l0.93-.58c0.12-.57-0.24-0.36.11-1s0.15,0.2.55-.47a1.09,1.09,0,0,1,0-.8c0.2-.63.19-0.35,0.52-0.52l0.57-1.29,0.83-.56-0.31-.64a0.84,0.84,0,0,0,.92-0.75l-0.59.15c-0.23-.5.07-0.47-0.4-0.8l-0.61-.48-0.75.28-0.59-.45a1.71,1.71,0,0,1-.51.47c-0.29.08,0,0-.23-0.06-1-.21-0.55-0.28-1.66.27a0.55,0.55,0,0,1,0-.54c-1.83-.55-0.92.17-1.78-0.1a0.73,0.73,0,0,0-.72.21,11,11,0,0,1-1.95.48,12.57,12.57,0,0,0-3.49,1.43c-0.35,0-1-.13-1.18-0.13l-1.06.13c0.18-.5.32-0.33,0.76-0.52l0.87-.45a2.51,2.51,0,0,0-2.43.54l-0.38.82a1.93,1.93,0,0,0-.73.24,11.35,11.35,0,0,1-2.26.37l0.24,0.69a4.33,4.33,0,0,1,1.84-.28,0.79,0.79,0,0,0,.53-0.22c0.45-.15.43,0,1-0.11l0.44,0c1.39,0.06,1.91-.7,3.29-0.83a22.66,22.66,0,0,1,2.52-.29,8.64,8.64,0,0,0,1.14-.29,1.67,1.67,0,0,1,.51-0.24l0.3-.05,1.37,0a12,12,0,0,1,1.59,0,8.56,8.56,0,0,0,2.81.13c-0.06.84-.91,1.47-1.18,2.27l-0.15.9a16.72,16.72,0,0,1-1.36,3.07,4.12,4.12,0,0,1-.73,1.1,3.22,3.22,0,0,0-.49.82,0.73,0.73,0,0,1-.28.37,4.88,4.88,0,0,0-.41.36c-0.66.7-.28,0.86-1.48,1.33a5.66,5.66,0,0,0-.81.44,4.87,4.87,0,0,1-1,.37,1.11,1.11,0,0,0-.32.31c-0.45.31,0.07-.06-0.42,0.09l-0.83.52c-0.32,0,.08,0-0.36-0.18a1.94,1.94,0,0,0-.76-0.17l-0.84-.22-0.36.51c0.57,0.54.58,0.11,1.08,0.53l1,0.73a1.47,1.47,0,0,1-.07.39,15.1,15.1,0,0,1-2,3c0.18,0.35-.16.19,0.26,0.23a0.51,0.51,0,0,0,.4-0.19,5.3,5.3,0,0,0,1.13-1.19,13.1,13.1,0,0,0,1.7-2.05c0.55-.82.43-0.42,1.32-1.09a10.55,10.55,0,0,1,1.58-.77c1.63-.79.64-0.17,1.55-0.51a5.74,5.74,0,0,0,1.52-.86,1.57,1.57,0,0,0,.45-0.73c0.16-.23.41-0.47,0.58-0.71,1.1-1.56,2-5.65,3.54-6.34l0.69-.43a8.76,8.76,0,0,0,1.76-.29,1.46,1.46,0,0,1,.35-0.21l0.38,0a2.93,2.93,0,0,1,1,0,7.33,7.33,0,0,0,2.35-.47,6.54,6.54,0,0,0-.37,1.4,8.25,8.25,0,0,1-.38,1.53c-0.11.43-.11,1-0.23,1.28s-0.24.27-.37,0.55c-0.6,1.3-.26.68-1.18,1.41a2.54,2.54,0,0,1-.43.4,0.67,0.67,0,0,0-.5.16,1.18,1.18,0,0,1-.37.43,5.62,5.62,0,0,0-1.42,1.07c0.36,0.67.59,0.25,1.14,0l2.56-1.58,1-1.23c0.2-.29.4-1.15,0.59-1.55a5.85,5.85,0,0,1,3.57-2.83l-0.18.77c1.25,0.79,1.11-.74,1.15-1.63,0.2-.17.43-0.39,0.63-0.52a1.1,1.1,0,0,1,.78-0.27c0.95,0,1.55-.41,2.41-0.35,1.65,0.11,1.09-.3,2.7-0.16a2.13,2.13,0,0,0-.49.82c-0.45,1.24-1.17,1.23-2.2,1.29-0.43.87-.86,0.4-1.67,1.09l-1.35,1.47c0.61,1,1.79-.21,2.37-0.69,0.4,0.34,1.25.25,0.34,1.71a6.14,6.14,0,0,1-1,1.18l-0.46.37,0.27,0.5a19.28,19.28,0,0,0-1.16,2L205,480.05l-0.68-.23a3.09,3.09,0,0,0-.87-0.07c-0.58.05-1.83-.63-3,0.39a7.78,7.78,0,0,0-.72.55c-0.43.7-.2,1.21-1.5,0.91l-1.16-.22c-0.2,0-.4-0.19-0.6-0.23-0.53-.13,0,0.1-0.59,0a3,3,0,0,0-1.45-.08c0,0.93.37,0.48,2.55,1.18-0.37.36-.25,0.08-0.24,1.19-1.27,1.55-1.64.71-2.33,2.63,0.89,0.43,1.73-.68,2.39-1.28s1.77-.56,2.66-1.31c0.61-.52.07-0.53,0.73-1.09a1.56,1.56,0,0,1,1.4-.57h0.08a4.82,4.82,0,0,1,1.24.27,9.1,9.1,0,0,0,1.32.13l-0.36.53a1.56,1.56,0,0,1,.32,1.72c-0.2,1.13-1.8,1.89-2.67,2.64a5.47,5.47,0,0,1-1.67,1.23,1.21,1.21,0,0,0-.24.28,2.24,2.24,0,0,1-2.19,1l-0.65.23c-0.44,0,0-.66-1.28.14,0.16,0.7.74,0.47,1.25,0.72l1.53,1.17a9.47,9.47,0,0,0-.63,1.15,14.77,14.77,0,0,1-2.08,3.6,3.11,3.11,0,0,0-1.9.22c-0.57.13-.21-0.28-0.73,0.25a2.13,2.13,0,0,1-.7.72,14.9,14.9,0,0,0-3.16,2.11c0.31,0.63.48,0.3,1.54,0,0.32-.08.86-0.15,1.11-0.22l0.84-.24c1.47-.36,2.29-0.2,3.83-0.67l0.37,2.24c1-.14,1.2-2.82,1.8-3.64a6.19,6.19,0,0,0,.93-1.71c0.21-.68.59-1.26,0.73-1.92a7.41,7.41,0,0,1,.77-1.79c1.36-1.85,1.73-1.47,2.73-2.5l1.32-1.37c0.08,1.13.67,1.83,0.26,3,0.64,0.76.33,2,.38,2.92a4.55,4.55,0,0,1-.38,2.12,6.8,6.8,0,0,1-1,1.29l-0.68.73c-0.14.18-.32,0.37-0.41,0.5-1,1.38.42,1.16-1.88,1.5l0.85-.52c-0.23-.44-0.13-0.6-0.6-0.3-0.24.15-.33,0.31-0.65,0.51a6.37,6.37,0,0,0-.9.89l-0.57.59a7.1,7.1,0,0,0-1.86,2.57c0.81,0,1-.6,1.56-1.25,1.35,0.53.42-.18,1.45-0.37,0.35-.06.69-0.27,0.85,0.2a4.1,4.1,0,0,1-.4,2.23,4.6,4.6,0,0,0-.06.94c0,0.18-.19.51-0.25,0.81a5.71,5.71,0,0,1-.79,2.58c-0.14.25-.29,0.33-0.43,0.61a7.12,7.12,0,0,1-1.43,2.1l-2,2.52,0.46,0.3c0.66-.33,1.18-1,2.25-1.54l0.76-.44c0,0.6-.16,1.31-0.18,2l1,0.59a6.29,6.29,0,0,0,.38-1.38c0.08-.41.35-2.35,0.46-2.56,0.29-.53,1.84-1.52,1.67-4.07l0.1-1.41a0.57,0.57,0,0,1,.1-0.46,2.61,2.61,0,0,0,.37-1c0-.26,0-0.52.08-0.92l0.25-.7a4.41,4.41,0,0,1,1-1.85l0.45-.73a10.15,10.15,0,0,1,1.6-2.12c0,0.47,0,.95.06,1.43s0.26,1.1.27,1.62a2,2,0,0,0,.63,1.33l-0.07-2a11.24,11.24,0,0,1-.11-1.59c0.06-1-.24-0.4,0-1.39,0.06-.23.11-0.58,0.15-0.83,0.07-.48.19-1.14,0.2-1.53a5.64,5.64,0,0,1,.28-1.33l0.06-.35-0.18-2.42a18.33,18.33,0,0,1-.27-2l-0.14-.93a1,1,0,0,1-.15-0.75c0-1.74-.33-2.64.34-4.28a2.45,2.45,0,0,1,1.64-1.83l-0.34-.4a13.69,13.69,0,0,0,1.52-2l0.52-1.08a0.93,0.93,0,0,1,.4-0.36,0.14,0.14,0,0,1,.05.08l0.27,0.39a3.62,3.62,0,0,1,.3.63,5.82,5.82,0,0,1,.47,1.16,2.76,2.76,0,0,0,.44,1.15l0.31,1.18c0.32,0.48,1.08.27,1.17,1.83,0,0.91.22,0-.17,1-0.16.4,0,4.09-.59,6.59,0.95,2-.88,4.56-1,5.09a8.89,8.89,0,0,0-.05,1.37c-0.1.68,0.37,1.48,0.38,2.46L213,501.4l0.3,0.51a3.81,3.81,0,0,0-.46.74,0.62,0.62,0,0,1-.16.26c-0.45.75,0.13,0.36-.37,1.25a12.32,12.32,0,0,1-.82,1,8,8,0,0,1-.75,1.22,10.47,10.47,0,0,1-1,.74,18.3,18.3,0,0,0-2.25,3.44l0.25,0.29,2.64-2.24a6.9,6.9,0,0,1,.4,1.23,2.19,2.19,0,0,1,.1,1l0,2,0.38,0.55a12.07,12.07,0,0,0-1.12,1.79,3.68,3.68,0,0,1-.9,1.18l-0.48.55a1,1,0,0,1-.67.61,2.53,2.53,0,0,0-.46.72,2.21,2.21,0,0,0-.68.59,4.94,4.94,0,0,1-.94,1.41c-0.8.46-.58,1-1.24,1-1.1,0-1.9.86-2.74,1.66a3.84,3.84,0,0,0,1.76.44,3.17,3.17,0,0,1,1.86-.58c0,2.47.68,1.17-.32,4.58-0.41,1.41-2.2,2.59-2.52,3.75a10.25,10.25,0,0,1-.1,1.45l-0.31,1.7c0.65-.11.6-0.52,0.84-1.2a14.22,14.22,0,0,0,.77-1.48,1.09,1.09,0,0,0,.68-0.73,0.52,0.52,0,0,1,.16-0.23l0.21-.16a7.41,7.41,0,0,0,2.59-4.39c0.14-.71-0.09-0.58,0-1.39,0.22-1.71-.18-3.18,1.07-4.53a8.19,8.19,0,0,0,1-1.16,3.86,3.86,0,0,1,.62-0.95l0.31-.47a6.47,6.47,0,0,1,.92-1l0.06-.07L212,516c0.5,0.82.07,1.18,0.43,1.93a6.28,6.28,0,0,0,.54,1.47c0.59-.48.41-0.68,0.42-1.43a6.45,6.45,0,0,0-.21-2.11l0.11-1s0-.07,0-0.09l0-2.78c0-.43-0.15-0.56-0.15-1l0-3.8,0.54-.32c0.15-1.69,0-.81.73-2.1a6.44,6.44,0,0,0,1-1.72,6.21,6.21,0,0,1,.08-1,3.21,3.21,0,0,0,.23-1,17.23,17.23,0,0,0,.17-2.63,0.22,0.22,0,0,1,0,.09,0.27,0.27,0,0,0,0,.09l0.07,0.19a3.36,3.36,0,0,1,.15,1.24,3.75,3.75,0,0,1,1,1.88,8.74,8.74,0,0,1,.39,1.08c0.11,0.46.12,1,.19,1.33a19.25,19.25,0,0,0,1.11,1.77c1.16,2.9.43,3.19-.29,7-0.2,1-.61,4.28-0.85,4.94-0.55.91-.74,0.7-0.63,2a1.39,1.39,0,0,1-.36,1,2,2,0,0,1-.38,1.1c-0.24.4-.13,0.66-0.36,1.12-0.44.88-1.58,1.87-1.84,2.44a4.49,4.49,0,0,1-.89,1.9,3.38,3.38,0,0,0-.44.88c-0.16.35-.32,0.38-0.58,0.86-0.76,1.39-1,2.27-2.35,3.1-0.27.16-.53,0.31-0.79,0.46a3,3,0,0,1-1,.38c-0.69.21-.8,1-1.09,1.65s-0.58.91-.94,1.84l-0.83,1.91c1.29,0.57,1.86-.85,2.4-2,0.86-1.81.81-2.48,2.62-2.76a1.42,1.42,0,0,0,.54-0.17l0.86-.06a8.12,8.12,0,0,0,.46,2.7l0.06,0.07a5.94,5.94,0,0,1,.52,1.36,5,5,0,0,1,0,.68,1.12,1.12,0,0,1,.15.62c0,0.85-.49.68,0.11,1.67-0.6,1.74,0,2.51-.38,3.69-0.54,1.72-.58.34-0.77,2.9,1.21,0,2.06-3.54,2.47-4.76l-0.48-.17a1.31,1.31,0,0,0,.15-0.58,1,1,0,0,1,.12-0.66,7.09,7.09,0,0,0,.4-2,3,3,0,0,0,0-.87l-0.34-1.7a0.71,0.71,0,0,0,0-.27l0-.09-0.06-.25c-0.09-.61,0-1.07-0.15-1.64-0.32-1.63-.58-0.65,0-2.51a5.94,5.94,0,0,1,.55-1.17l0-.09,0-.09,0.5-1c0.9-2.41.64-1,1.68-2.08l0.33-.46a4.86,4.86,0,0,1,.84-1.4c0.36-.43.13-0.23,0.18-0.45l0-.07,0.82-1.78a11.31,11.31,0,0,1,1.38,2,3.53,3.53,0,0,1,.51,2.26,5,5,0,0,0,.09,2.06,1.24,1.24,0,0,0-.66,1.06c-0.3.9-.82,1.54-1.14,2.45l-0.53,1.37,0.49,0.45,1.63-2.89a2.85,2.85,0,0,1,.64,1.72,2.36,2.36,0,0,1,.07,1.44c-0.11,1.15.23,1-.25,2.25a9.61,9.61,0,0,0-.53,2.93,16,16,0,0,1-.38,3,1.35,1.35,0,0,1,.62,1l0,0.26a26.81,26.81,0,0,1,.62,3.76c0,0.82-1,3.88-1.31,5.57,0.32,0.15.48-.08,0.8-0.5a5.77,5.77,0,0,0,.58-1.14c0.57-1.24.39-.08,1-2.35,0.47,1.14,0,.76.87,2.22,0.33-.55,0-0.61,0-1.24a5.12,5.12,0,0,0-.26-1.19l-0.09-1a6.51,6.51,0,0,0-.08-1.82,5.13,5.13,0,0,1-.13-0.67c-0.11-1-.44-1.82-0.59-2.78a5.78,5.78,0,0,0-.44-1.26c0.63-1,.65-2.79.93-3.72l0.4-1.24a5.06,5.06,0,0,1,.38,1.33l0.87,1.07a3.25,3.25,0,0,0-.08-1.31c-0.12-.47-0.13-0.84-0.27-1.35-0.45-1.56.16-1.26-.76-3.51a7,7,0,0,0-.64-1.78,1.11,1.11,0,0,1-.1-1.68c1.09-1.88.51-1.85,0.3-3.31a0.93,0.93,0,0,0-.19-0.55c-0.25-.55-0.39-1.31-0.63-1.94L221,522.29l-0.88-.72,0.37,1.51,0.36-.18a8.26,8.26,0,0,0,.36,1l0.38,0.68,0.15,0.79a10.46,10.46,0,0,0,.44,1.71c0.65,1.16-.26,2.08-0.44,3l0.25-.11-0.36,1c-0.21-.46-0.11-0.16,0-0.73-0.26-.51.21-0.81,0.29-2.51,0-.48-0.29-1.66-0.44-2.74l-0.24.32a12,12,0,0,0-.5-1.8l-1-1.49-1-.41a1,1,0,0,0-.26.73,7.84,7.84,0,0,1,.1.86,12,12,0,0,1-1.06,2.67c-0.47.58-.28-0.08-0.78,0.47a4.41,4.41,0,0,1-.61.67c-0.52.43-.44,0-0.74,0.52l0.21,0.09c-0.85,1.72-.57,1.87-1.71,3.62s-0.72-.2-0.72,2.39c0.45,0.87-.44.23,0.8,2a4.19,4.19,0,0,0,.37,3.22,3,3,0,0,1-.38,1,1.34,1.34,0,0,1-.29.94c-0.18-2,.45-0.88.21-2.11a7.25,7.25,0,0,1-.21-2.2l-0.51-.21c0.39-1.72.09-.82-0.14-1.67L212.85,533l-0.49-.53-0.41,0-0.47.31c-0.18-.42.12-0.37-0.47-0.45a6.4,6.4,0,0,1,.89-0.77l0.85-1-0.19-.49c0.37-.44.55-0.82,0.87-1.21a9.91,9.91,0,0,0,1.06-1.13,4.88,4.88,0,0,1,.46-1.56l1.23-.92c0.41-.94-0.15-0.33.35-1l0.51-1.05-0.52.11c0.09-.74.86-0.57,1.16-2.08,0.17-.88-0.3-0.26.29-1,0.07-.09.31-0.46,0.32-0.48a0.39,0.39,0,0,1,.3-0.17l0.11,0a3.61,3.61,0,0,0,.39-1.17c-0.43-.18-0.18-0.09-0.62,0,0.27-1.21.86,0.29,0.26-2.52a3.93,3.93,0,0,0,1-2.19l-0.51-.41a3.73,3.73,0,0,0,.52-0.75,1.05,1.05,0,0,1,.31-0.83l0.93-1.81-1.3,1.45a5.29,5.29,0,0,1,.58-1.39,4.65,4.65,0,0,0,.87-0.92,2.05,2.05,0,0,0-.27-0.41c-0.46-.92.2-1.09,0.21-1.63l-0.1-.78-0.88.51c0-.09.7-2.19,0-2.84l-0.56-.3-0.23-1.51-0.06,1.25a1.22,1.22,0,0,1-.71-1.17c0.42,0.05-.41-0.31.33,0.25l0.06-.34-0.1-.68-0.46.23c-0.11-.74-0.21-0.25.14-1.44l-0.48.32,0.07-1.1-0.78.24c0-.36,0-0.36,0-0.64l0-.73-0.78,0a1.27,1.27,0,0,1-.09-0.63V497.3a2.28,2.28,0,0,1-.14-0.88l-0.41.16,0.31-.9-0.37-.86a2,2,0,0,0-.11.75,1.1,1.1,0,0,1-.44.74c-0.33.55-.12,1.55-0.4,2.07s0.07-.13.21,0.74a5.78,5.78,0,0,1-.1,1.11,3,3,0,0,1-.46,2c-0.29.54-.49,1.07-0.8,1.58-0.45.73-.4,1.47-0.68,1.87-0.59.84-.37,0.84-0.46,1.78a2.72,2.72,0,0,0-.11.92,16.64,16.64,0,0,0,.07,2c0.15,0.86,0,.1-0.1.86s0.51,0.36-.74,1.53l0.14-1-0.43.25a2.31,2.31,0,0,0,.15-1.77c-0.22-.67-0.39.52-0.07-2.2l-0.36-.4c0.11-1,0-.52.94-2,0.45-.7.64-0.23,0.82-1.42a0.69,0.69,0,0,1,.33-0.73,1.06,1.06,0,0,0,.34-0.72,5.93,5.93,0,0,0,.52-1.82c-0.46-1-.22-0.2-0.14-1.28-0.14-1.53-.74-0.21.23-2.75l-0.43,0,0.59-.8,1.33-2.63-1.1.63,1.26-2.51-1-.58,0.92-1.8-1,.62,1-2.11c-0.41-.16-0.09-0.18-0.79,0,0-1.14-.17-0.71.63-1.77l-0.42,0,0.7-1.44,0.12-.43-1.17.85,0.73-1.86a4.52,4.52,0,0,1,.11-0.45c0-.54-0.31.4,0.25-1.5,0.24,0.39,0,.1.31,0.26l-0.08.42,0.2-.13,0,2.39,0.88,0.63a2.28,2.28,0,0,0-.2,1.8,10.88,10.88,0,0,1-.09,1.78c0,1.76,0,1.19-.71,3.3l0.43,0.13c-0.44.91,0.16,0.12-.42,2.09,0.59,0.38.31,0.26,0.56,1.09,0.17,0.57.36,0.79,0.54,1.33a10.52,10.52,0,0,0,.4,1.35,4.55,4.55,0,0,1,.72,1.11l0.55,1.18a8.47,8.47,0,0,0,.46,1.42,21.38,21.38,0,0,1,1.13,2.6l0.57,1.15,0.9,2.74a2,2,0,0,0,.35.58,4.4,4.4,0,0,0,.44,1,1.36,1.36,0,0,1,.33.6c0.06,0.16.08,0.23,0.1,0.3a1,1,0,0,0,.17.36c0.22,0.39.2-.05,0.22,0.72,0.07,2.17-.06,0,0.66,3.12a8.38,8.38,0,0,1-1-1.75l0-.8-0.48-.27,0.12-.7-0.42.24a2.55,2.55,0,0,0-.2-1.17,1.16,1.16,0,0,0-.42-0.51l0.34-.53-0.55-.6c-0.76.46-.83,3.48-0.89,4.38,0,0.68-.24,1-0.28,1.58a9.29,9.29,0,0,1-.11,1.85l-0.24,1.39-1.08,2.72,0.34,0.83a10.36,10.36,0,0,0,.89-2.21,11.88,11.88,0,0,0,.48-2.25c0.08-.4.32-0.95,0.36-1.2l0.28-1.15L222,511.2a0.11,0.11,0,0,1,0,.06,0.14,0.14,0,0,0,0,.06,2.42,2.42,0,0,1,0,1c0.69,0.65.32,1.1,1.1,1.64a7,7,0,0,1,1.44,1.23,9.19,9.19,0,0,1,1.16,1.57,0.51,0.51,0,0,0,.32.32,1.27,1.27,0,0,0,.43.29,0.91,0.91,0,0,1,.85.28c0.93,0.75.94-.09,1.5,1.16L229,519a0.94,0.94,0,0,1,.14.25c0.57,1.26-.21,1.86,1.7,4.46l0.6,0.55c0.51-.7-0.59-1.23-1.07-3.09L230,519.83c0.58,0.06.32,0.14,0.75,0.51a8.74,8.74,0,0,0,1.59,1l0.49,0.39c1.18,1,1.08-.29,3.36,2.49l0.33-.37a3.22,3.22,0,0,0-.66-1,8.21,8.21,0,0,0-1.75-1.57c-0.32-.35.06-0.42-1.05-0.28a5.77,5.77,0,0,0-1.23-1.06,3.94,3.94,0,0,1-1.23-1.06c-0.33-.49-0.62-0.6-1-1.28a2.64,2.64,0,0,0-1.29-1,18.2,18.2,0,0,1-3-3l-0.06-.07-0.06-.07-0.28-.37-0.47-.68a1.12,1.12,0,0,1,0-.76c0.63,0.59,1,.16,2.22,1.18,0.53-.39.83-0.28,1.7,0.18l1.61,0.84a2.11,2.11,0,0,0-.65-1.87,1.06,1.06,0,0,0-.88-0.35,8.5,8.5,0,0,1-.79-0.46,6.46,6.46,0,0,0-.94-0.06l-1.58-.84c-1.48-1.33-1.49-1.69-2.42-3.44a3.48,3.48,0,0,1-.21-0.46l-1.68-3.63c-0.12-.26-0.24-0.65-0.38-1-0.62-1.37-.95-3.12-1.74-4.27a6.79,6.79,0,0,1-.7-1.28,17.41,17.41,0,0,1-.77-3.33c0-.11.25-2.39,0.27-2.48a5.57,5.57,0,0,0,.47-2.53l-0.11-.56a1.18,1.18,0,0,1,0-.54l0-.39a2.42,2.42,0,0,1,.62,1,3.62,3.62,0,0,0,1.17,1.56,7.5,7.5,0,0,1,1.27.72c0.69,0.47,1,.91,1.66,1.39l0.07,0.06,0.23,0.14c0.75,0.43,1.5,2.06,2,3a3.7,3.7,0,0,0,1,1.17c-0.73.56-.26,0.59,0.21,2.28a6.6,6.6,0,0,0,.51,1.09,3.07,3.07,0,0,0,.42,1.14l-0.71,2a7.77,7.77,0,0,0-.18,1,2.52,2.52,0,0,0-.3,1.61,1,1,0,0,1,.06.43,11.06,11.06,0,0,0,1.35,2.69,0.75,0.75,0,0,0,.22-0.34c0.34-.75-0.55-2.45-0.81-3.22a2.9,2.9,0,0,0,.6-1.43,3,3,0,0,1,.7-1.27c0.1-.06-0.09-0.25.39,0.08a13,13,0,0,1,1.94,1.92c0.17,0.19.49,0.54,0.74,0.8l1.69,1.77,0.07,0.06,0.06,0.06c0.47,0.48.88,0.55,1.37,1s0,0.69,1.57,1.49,1.35,0.53,2.83,2.52c0.65,0.87.31,1.42,0.81,2.14l0.42,0.48a3.39,3.39,0,0,0-.32-2.59c-1-2.06-.81-2-2.36-3.51l0.23-.07c1.3-.49,0,0.48,2.45-0.78-0.49-.37-3.82-0.44-4.33-0.84a16.58,16.58,0,0,0-1.4-1.42,2.1,2.1,0,0,0-1.1-1.07,1.22,1.22,0,0,1-.42-0.35c-0.81-.77-1-0.14-1.69-1.21a2.82,2.82,0,0,0-.68-0.73,16,16,0,0,1-2-2.8l-0.38-.82a5,5,0,0,1-.46-1.14,2.19,2.19,0,0,0-.37-1.11l-0.64-1.64c-0.28-.63,0,0-0.1-0.51A4.14,4.14,0,0,0,226,492l-0.1-.69a6.52,6.52,0,0,1,1.82,1.08c0.48-.81-0.89-1.2-1.19-1.6a8.46,8.46,0,0,1-.51-1.09l-0.88-.47c-0.47-.57.45-0.14-1.07-1.28a18,18,0,0,0-2.73-2.21,1.47,1.47,0,0,1-1.14-1.17,12.52,12.52,0,0,1-.59-1.12l-0.37-1.11c-0.36-1-.69-2.34-1.5-2.86l-0.64-.5c-0.81-.62-0.7-2.07-0.74-2.26s-0.48-.76-0.61-1.09c-0.39-1,.55.1-0.5-2.51a23.72,23.72,0,0,0,1.56-2.81,4.92,4.92,0,0,1,.55-1,4.23,4.23,0,0,0,1.44,1.09L219,470.5l0.08,0,0.57,0.16a2.34,2.34,0,0,0,0,1l-0.18.92a3.32,3.32,0,0,1,.42,1.2c0.23,2-.48-0.22.43,2.73a7.36,7.36,0,0,1,.73,3.16l0.49-1.82,1.1,0.34c0.23-.88-0.91-1.45-1.26-2.11l-0.53-.77a3,3,0,0,1,.85-2l0.55-.45c2.31,1.2,1.14,1.43,1.91,2.37,0.26,0.31.43,1.74,0.65,2.19,0.55,1.12,1.29,2.21,1.84,3.3,0.34,0.68.45,0.34,0.94,0.7l2.14,1.24c0.19,1-.11.85,0.23,1.71a28.38,28.38,0,0,1,.29,3.55,0.66,0.66,0,0,0,.17.71c0.55,1,.55.58,1.19,1a1.26,1.26,0,0,0,.66.34,7.88,7.88,0,0,1,1.29.85c0.63,0.63.14,0.51,1,1a8,8,0,0,0,1.16,1l0.46,0.31a7,7,0,0,0,1.82,1.21c0.48,0.36.87,2.32,0.85,3.43a12.81,12.81,0,0,0,.3,1.77c0.08,1.73,1.22,3.1,2,4.44,0.59-1.1-.36-1.66-0.41-2.65a13.89,13.89,0,0,1-.11-2.09,5.59,5.59,0,0,0-.22-1.11A16,16,0,0,1,240,496a7.61,7.61,0,0,0,.14-1.38l-0.57.23,0.1-.43h1.24a2.66,2.66,0,0,0,.75,1.93,32.06,32.06,0,0,1,2.12,3l0.59-.49-0.18-.7c-1.15-.76-0.52-0.9-1.14-2-1.08-2-.34-2.55-2.67-3.85-0.77-.43-1.55-0.34-2.29-0.77-1.43-.82-2.06-2.09-3.59-2.73a20.71,20.71,0,0,1-1.77-1.39l-0.31-2.72c0.52-.19.4,0.14,1.68,0.62a10.31,10.31,0,0,0,1.85.73,1.07,1.07,0,0,1,.72.24c0.63,0.34.34,0,1,.1l2,0.59a2.6,2.6,0,0,0,1.47,1.35c0.25,1.08.48,0.27,0.85,1.08,0.78,1.3.65,0.47,1.26,2.32,0.72,0.07.23-.29,0.77,0.46a3.24,3.24,0,0,0,.9.61l1.62,1.44a6.29,6.29,0,0,1,1.08,2.09l1.14,2c0.62-.52.11-1.3-0.11-2a20.64,20.64,0,0,0-.7-2.22,3.65,3.65,0,0,1,1.31-.23,1,1,0,0,0,1.18.06l0.21,0.53a2,2,0,0,1,.93.28,2.7,2.7,0,0,0,.86.38c0.68,0.26-.1.44,1.68,0.79a4.42,4.42,0,0,0-2.32-2.71l-1.28-.45a4.94,4.94,0,0,1,1.36-.43c0.13-1.71-2.19-.06-2.76-0.09a1,1,0,0,0-.49-0.28,2.93,2.93,0,0,1-1.31-.39c-0.56-.36-1.22-0.52-1.72-0.89a2.18,2.18,0,0,1-1-.75c-0.46-.69-1-1.44-1.43-2.09a11,11,0,0,0-1.6-2A3.13,3.13,0,0,1,243,485a8.13,8.13,0,0,0,1.59-.57,0.71,0.71,0,0,0,1,.36,3.29,3.29,0,0,0,.88-0.66l-0.09-.61a0.47,0.47,0,0,0-.34,0,2.11,2.11,0,0,1-1.28-.12,0.94,0.94,0,0,0-.8-0.13,2.54,2.54,0,0,1-.87.08,15.76,15.76,0,0,0-1.77.54,2.92,2.92,0,0,1-.88.09,9.58,9.58,0,0,0-1-.17,6.58,6.58,0,0,1-1.54-.61,19.45,19.45,0,0,1-2.51-.92l-0.84-.41-1.67-.46,0.83,0.77-0.34.59c1-.17,1.09-0.42,1.15.27l0.33-.12,0.1,0.81,0.26-.41-0.09-.43,1.61,0.71c1.09,0.3.46,0.44,1.09,0.49a0.66,0.66,0,0,1,.42.07l1.62,0.54a3.91,3.91,0,0,1,1.52.08,1.59,1.59,0,0,0-.71,1l-0.31-.45-0.58.28,0-.59c-0.29-.14,0-0.07-0.45-0.06l-0.95.38-0.27-.83a1.87,1.87,0,0,1-.47.19,1.45,1.45,0,0,0-.3-0.06c-1,.11,0-0.13-1,0l-0.27-.67-0.33.7-0.22-1.13c-0.59.22-.3,1.2-1.16,0.56-0.65-.49.5-0.31-2.12-1.49l-0.42.35-0.38-.58c0,3.43.27,0.15,0.35,3.12,0.09,3.39.59,2.06,1.13,2.74,0.71,0.9.52,0,1,.77l0.35,0.66a2.1,2.1,0,0,1-1.88-.51l0.19-.49-0.46-.49c-0.69.51,0-.06-1.08,0.26l0.28-1-0.61-.52,0.33-1.56-0.48.18c-0.18-.85.6-0.52,0.36-1.26s-0.08.22-.28-0.4a1.63,1.63,0,0,1,.22-0.92,2.44,2.44,0,0,0,0-1.16l-0.2.13,0-1.29H230v-0.4l-0.92.82c0.14-.69.25,0,0.13-0.7a1.82,1.82,0,0,1-.06-1l-0.88,1.25,0.34-2-0.85,1.22,0.21-1.49-0.43.59,0-.85-0.84.58-0.13-.56-0.48.38,0.18-1.68-0.67.37A2,2,0,0,1,226,476a2.38,2.38,0,0,0-.15-1.21L225,476.25c-0.25-.53-0.1-0.28,0-0.71a1.08,1.08,0,0,0,0-.71l0.29-1.7-0.75,1.1a4.73,4.73,0,0,1,0-2.13l-0.82.83,0.36-.81-0.45-.42-0.72.54a1.9,1.9,0,0,1,.33-1,1.93,1.93,0,0,0-1.29.3l-0.15-.64-0.69,1.3-0.29-.38L220,473l1.85-3-0.78.52,0.54-1.37-1.36,1.09c0.09-.54.55-0.81,0.68-1.4l-0.68.69,0.78-1.66h-0.66l-0.57,1.24,0.42-1.53a1.4,1.4,0,0,0-.56.69l0-.62c-0.42-.13-0.16,0-1.19,1.16,0.13-1,.38-0.61.6-2l-1.06,1,0.3-1.24c-0.41.16,0,0-.45,0.4l-0.08-.26-0.35.45a1.08,1.08,0,0,0-.82,0c-1.2,2-.25.82-0.59,2a11.3,11.3,0,0,0-.42,1.07c-0.29,1.17-.75,1.28-0.89,1.9h0.12l-0.12.14h-0.12a3.18,3.18,0,0,1-.83,1,1.15,1.15,0,0,0,0,1.22c0.34,0.58.19-.15,0.26,0.56a13.52,13.52,0,0,0,.64,2.19H215l-0.12.57-0.31-.4a1,1,0,0,0-.39.69l0.32-.27c0,0.49-.32,1.63-0.79,1.41-0.16-.34-0.13.06,0-0.57-0.57-.5.21-0.1-0.72-0.71l0.58-1.4-0.64.38c-0.63-1-.76-0.27-0.07-2l-0.94.89,0.49-1.59-0.45.57-0.44-.27c-1.23,1.9-.46,1.93-0.72,2.82l-1.13,1.75a1.19,1.19,0,0,1-.51.51l-0.23.14a0.94,0.94,0,0,1-.5,1,2.83,2.83,0,0,0-.6,1l-1.08,1.35c-0.35.5,0.13,0.29-.61,0.77l0.35,0.19c0,0.44-.31,1.37.23,1l0.34-.26c-0.29.64,0.08,1.08,0.07,2.46,0,1.07.26,0.78,0.34,2.09a28.38,28.38,0,0,1,.25,4,9,9,0,0,1-.85,3.36l-0.19.2c-0.29.42,0,.45-0.55,0.61a3.73,3.73,0,0,1-1,1.6c-0.75.8-.58,1.37-1.51,2.43a20.42,20.42,0,0,0-1.19,2.69l0.48,0.11-0.54.64,0.25,0.28a2.56,2.56,0,0,0-.35.48c-0.4.72,0,0-.09,0.72l-0.13,1a2.2,2.2,0,0,1-.31,1.89c-0.42.68-.5,1-1.3,0.93a0.71,0.71,0,0,1,.56-0.83h0.12l0.32-.18,0-1.18-0.48,0c1.18-1.44,0-.7,1.13-2.65l-0.47-.66a5.93,5.93,0,0,1,.72-0.85l-0.44-.18a1.06,1.06,0,0,1,.42-0.72,2.15,2.15,0,0,1,.53-1.95l0.31,0.15,0.12-.14,0.68-.62-0.65-.13c0-.79.44-0.66,0.8-1.08l1.05-.91L205,498.1c0.38-.65.51-0.08,0.82-1s0.66-.51.35-1.42a0.69,0.69,0,0,1-.05-0.76,2.16,2.16,0,0,1,.37-0.7l0.47-1.52-0.59.32,0.85-1.43-1,.51a3.07,3.07,0,0,1,.26-1.2c0.39-.81.2-0.25,0.19-1.19l-0.69.38,0.73-1.43-0.95.32,0.63-1.83-0.54.73-0.06-.53c0-.45-0.15.17,0.4-0.87-1.61-.22-1.17,1.17-2.89,1.47l-0.47.13,0.78,0.25c-0.46.29-.31-0.07-0.57,0.68a4.08,4.08,0,0,0-1.1.64c-2.25,2.11-1.29.95-2.45,3.41a2.82,2.82,0,0,0-.5,1.71l-0.26,0a4.11,4.11,0,0,1-.47,1.16c-0.35.29,0.44,0.08-.26,0a4.42,4.42,0,0,1-.83,2.42c-0.24-.11-0.11-0.21-0.34-0.32L196,498a1.19,1.19,0,0,0-.66,0l0.23,0.26-1,.17-2,.57,1.51-1.57a2.55,2.55,0,0,0,.79.56,1.3,1.3,0,0,0,.34-0.32l1.1-1.1c0.14,0.47,0-.33,0,0.43,0.73-.18.46,0,1.1-0.92l-0.13-.41,0.65-1-0.33-.38a5.36,5.36,0,0,1,1.27-1.46l-0.35-.4,0.81-.93a0.55,0.55,0,0,0-.3-0.37l-0.25-.4c-0.83.12-.22,0.51-1.18-0.13l0.15-.07a2.28,2.28,0,0,0,.58-0.05l0.48-.27c0.31-.15.18-0.07,0.31,0,0.73,0.19.57-.09,0.85-0.24l1.12-.34-0.2-.55c1.13-.08-0.43-0.06,1.24-0.47,0.39-.74-0.68.25,1.18-1.26l1.64-1-0.22-.53,0.4-.56-0.15-.84c0.64-.74.25-0.15,0.36-0.61a1.14,1.14,0,0,1,.43-0.67l-0.34-.63a4,4,0,0,1,1.85-1.63l-1.55.29c-0.19-.72.74-1.11,1.58-1.69l0.09-1.46c1.53,0.18,1,.31,2.09-0.44-0.44-.86-0.19-0.6-0.84-0.86l1.18-1.18-0.25-.57a1.63,1.63,0,0,1,1-.38c0.39-.12.27,0,0.69-0.69l-1,.09c0-.89.47-0.36,1.11-0.71l1.06-.95-1.29,0,1.59-.8,0.16-.78-0.6.06,1.71-1.65-0.84.17c0-.75.51-0.72,0.94-0.95l0.79-1.19-0.57.15-0.33-.53a2.63,2.63,0,0,1-1,.39,1.83,1.83,0,0,1,0-.64,0.94,0.94,0,0,0,.07-0.49c-0.58.31,0.1-.09-0.54,1.35l-0.77,1.23c-0.57-.55-0.41-0.68-0.21-1.68l-0.8.78,0.09-1.08-1.37,1.12-0.24-1.14c-0.31,1.18-.1.84-0.76,1.46l0.24-1.32c-0.7.55-.45,0-1,1.82-0.07,0-.17.28-0.28-0.28-0.06-.29,0-0.1.1-0.49l-0.06-1c-0.49.46,0,.06-0.68,1.13l-0.12-1c-0.6.09-.46,0.37-0.72,1.05l-0.7.95A4.07,4.07,0,0,1,205.54,467.84Z" transform="translate(-114.31 -326.37)"/><path class="cls-3" d="M244.15,477.5h0Zm3.27-.57-0.46-.39a1.78,1.78,0,0,1,1.26,0,5.26,5.26,0,0,0,1.21.09c0.74,0.09,0-.17,1.22-0.29h1.17c-0.46.39,0-.12-0.46,0.18a1.15,1.15,0,0,1-.67.33,1,1,0,0,0-.86.81,1.19,1.19,0,0,0-1.27-.7l1,0.57c-0.56.38-.94-0.23-1.23-0.54l-0.65.53-0.24-.55h0Zm-10-4.83c0.52,0.07.07-.06,0.59,0.28l0.08,0a3.9,3.9,0,0,0,1.09.52,6.43,6.43,0,0,0,.76.63c1.34,0.82.47,0.27,1.75,2.5l0.19-.7c0.48,0.72-.1-0.18,1,0.39,0.75,0.37.37-.32,1.1,0.06a1.43,1.43,0,0,0,1.34.37,11.6,11.6,0,0,0,1.38.19l-0.53.65c-0.89-.7-0.43-0.32-2.69-0.37l-0.25.69c-0.67-.25,0-0.29-0.64-0.51l-0.07,0a0.66,0.66,0,0,0-.67.05A1.38,1.38,0,0,0,241,476a1.64,1.64,0,0,1-.76-0.92L239,473.78l-0.59-.22,0.67,0.93a3.92,3.92,0,0,1-2.08-2l-1-.85c0.44-.3.23-0.2,0.53,0.18l0.15-.44,0.62,0.69h0Zm-4-2.7v0.4l1.48,1c0.47,0.2,0,0,.39,0s0.22,0.49,1.27.51l-0.91-.88c-0.45-.4.37,0.23-0.13-0.13l-1.2-.67C233.9,469.52,233.78,469.61,233.42,469.41Zm0,0-0.12-.14,0.12,0.14h0Zm-8.75,0h0Zm33.73-.54L260,469l-0.7.4c-0.06-.42-0.21.44,0.14-0.31a2.89,2.89,0,0,1-.59.12c-0.51,0-.39-0.3-0.45-0.37h0Zm-25.1.4-0.62-.09c-0.06-.7.51-0.44,0.62,0.09h0Zm-9-.28,0,0s0,0,0,0h0Zm5.48,0,0.47-.14-0.39.47L229.8,469h0Zm0.47-.14h0Zm2.1-1.42h0ZM229.8,469a1.46,1.46,0,0,1,.51-0.83l0.52,0.49-0.53,1.17c1-.38.61-0.22,1-0.13s-0.33,0,.15,0h0.1c0.28,0,0,.37.37,0s0.12-.26,0-0.66l-0.65.39,0.18-.46-0.25-.71c0.78-.14.49-0.21,1.2,0.3l-0.53-1a2.83,2.83,0,0,1-.18-0.35,9.8,9.8,0,0,1-2.31,0l-0.13.53-0.57.18,0.12,0.43-0.36.57,1.19,0.43,0.22-.3h0Zm4.43-1.56c-0.42.46-.54,0.26-1.41,0.44a0.73,0.73,0,0,0-.46-0.44c0.37-.28.38-0.06,0.9,0a6.38,6.38,0,0,0,1,0h0Zm8.75-.57c0.29-.16.49-0.08,1.29-0.44,0.53,0.53-.08.29,0.58,0.43l0.55,0.42c-0.65-.38-1.89,0-2.42-0.41h0Zm3.38-.28c2.07,0,.23-0.59,3.51.17l-0.59.37c0.42,0,.85,0,1.28,0a11.47,11.47,0,0,1,3.2.22,16,16,0,0,0,2.16.64l2.32,0.6c-0.44.26-.3,0-0.56,0-0.86.11-.11,0.27-2-0.17l-2.85-.35,0.45-.39a20.85,20.85,0,0,0-3-.45,2.1,2.1,0,0,1-.79.11,9.37,9.37,0,0,0-2.51.08l0.14-.44a1,1,0,0,1-.7-0.46h0Zm-52.14,0s0.58,0,.24.09c0,0-.44.16-0.24-0.09h0Zm-1.52,0,0,0s0,0,0,0h0Zm50.15-.11-0.57.11c0.13-.1,0-0.09.24-0.13a0.67,0.67,0,0,1,.33,0h0Zm-11.3-.32,0.23-.07-0.23.07h0Zm-1.05-.28,0.21,0.15-0.21-.15h0Zm-33,0,0,0s0,0,0,0h0Zm36.74,1.56c-1.2-1-1.12-.87-2.28-0.81a6.89,6.89,0,0,1-1-.16,7.53,7.53,0,0,1-1.37,0,2.23,2.23,0,0,1,1.28-.14c0.44-.19,0-0.11.22-0.2a1.24,1.24,0,0,1,.48.06l0.16,0.26c0.6-.33.25,0.17,1.69-0.45l-2.19-.34a25.3,25.3,0,0,1,3,.19,4.36,4.36,0,0,0,1.34-.07l2.7,0.27a21.29,21.29,0,0,0,3.85.28l-0.51.17-0.07.41h-0.59c-0.16.44,0-.48,0,0.44-0.88-.13-0.77-0.84-1.35-0.63a9.53,9.53,0,0,1-1.56.61l-0.21-.39-0.7.52-0.42-.65a3.18,3.18,0,0,1-1.69-.57l-0.13.3,0.9,0.34c-1.33.35-.41,0.6-1.51,0.6h0Zm-26.6-1.7h0Zm-15.4,1.14c0.61,0,.73-0.16,1.73-0.27l-0.9.94,0.68,0.07,0,0.68,0.59-.55c0.26,0.59-.29.53,1.1-0.2,1-.55,0-1.13,3.18-1.1a8.13,8.13,0,0,0,1,0c0.32,0,.52-0.22.83-0.26a8.22,8.22,0,0,1,.93,0,7.33,7.33,0,0,0,.93-0.14l2-.14a4.2,4.2,0,0,1,1.11-.06l0.41,0c2.11,0.16,1,.13,1.74-0.13l0.11,0.3a6.13,6.13,0,0,0,2.54-.34,4.83,4.83,0,0,1,1-.51,3.09,3.09,0,0,0,1.24-.19c0.82-.33.67,0.18,2.41-0.19a6,6,0,0,1,1.2-.13,6.78,6.78,0,0,1,1.2-.05c0.66,0.14-.07.36,1,0a1.21,1.21,0,0,1,1.11.25,7.82,7.82,0,0,0,1.1.05c0.12,0,.46.16,0.56,0.18a15.9,15.9,0,0,0,4.2.35,1.54,1.54,0,0,1,1,.67l0.16-.43a15.33,15.33,0,0,0,3.19-.1,0.71,0.71,0,0,1,.9.26,5.66,5.66,0,0,0-2.09,0l0.25,0.52c0.44-.25.33,0,0.9,0-0.52.4-2.71,0.11-3.14,0.52l0.92,0.19c0.37,0.12.11-.1,0.23,0.28,0.35-.17.47,0,0.66,0.26,0.35-.54,0-0.25.38-0.37-0.17.45-.17,0,0,0.53l-0.46.72a3.43,3.43,0,0,0-1.84-.18c0-.07-0.12-0.27-0.13-0.29-0.14-.21.05-0.13-0.58-0.28l0.32-1.08-1.14.93,0.44-1.22-1.53.8-0.17-.67c-1.09.79-1.24-.6-2.23,1.29,0,0,0,0,0,0,0.06,0.26-.1.06,0.31-0.08l0.07,0.48c0.54-.26.29-0.41,0.72,0.11,0.86,1,.18-0.51,2.12,2.29,0.26-.17,0-0.15.29-0.08a1.34,1.34,0,0,1,.9.87,1.13,1.13,0,0,1,.46.72c0.4,1.37.47,2.5,1,3,1.52,1.42-.26.59,1,1.25,0.79,0.43,1.45,1.74,2.29,2.47a1.21,1.21,0,0,1,.25.26,9.83,9.83,0,0,0,2.15,2.22c0-.12-0.26-0.79-0.31-0.9l-1.72-2a4.12,4.12,0,0,1-1.19-1.25,9.89,9.89,0,0,0-1.25-1.31c-1-1.07-.9-2.2-1.49-3.59-0.46-1.09-.06-1.18-0.85-1.66a3.56,3.56,0,0,1-.71-0.56,2.68,2.68,0,0,1-.65-0.63,1.52,1.52,0,0,0,.67,0l0.84,0c1.53,0,3.84,2,4.37,2l0.66-.27,0.25,0.81c0.56,0,.35-0.18.65,0.06a4.3,4.3,0,0,0,1.89,1,0.85,0.85,0,0,0-.47-1.13l-1-.68a1.09,1.09,0,0,1,1.09-.21,5.26,5.26,0,0,1,.93.83c0.68,0.54,1.28,1.22,1.92,1.78a36,36,0,0,1,3.2,2.78l0.19,0.2,2.39,2.07,0.86,0.08c0.32,0.26.29,0.37,0.7,0.71,1.22,1,.86,2.1,2.34,1.65l-1.73-3.38a5.83,5.83,0,0,1,1.66.26c1.42,0.1,1.7.58,2.93,0.67,0.82,0.06,1.64,1.28,2.31,1.62a2.6,2.6,0,0,0,.82.14,11.57,11.57,0,0,1,2.18,1.74l1.08,0.82a8.55,8.55,0,0,0,2.21,1.15,1.19,1.19,0,0,0-.5-1.24,13,13,0,0,0-2.69-2.27c-2.22-1.56-.77.07-3.92-2.78,1.68-1.13,1-.15,2.94-2.13a4,4,0,0,0-1.46-.14c-1.65-.06-0.75.32-2.07,0.32-0.75,0-.65.32-1.35,0.09a2.79,2.79,0,0,0-1.49-.16,2.78,2.78,0,0,1-1.49-.21,5.23,5.23,0,0,1-.72,0,4.62,4.62,0,0,1-1.24-.3,3.17,3.17,0,0,1-.85-0.4l-0.48-.26a9.07,9.07,0,0,1-1-.9c-0.43-.36-0.93-0.54-1.38-0.88l-0.07-.06-0.21-.18c-0.19-.14-0.39-0.25-0.62-0.39a5.6,5.6,0,0,1-1.2-.81l-1-.9a1.14,1.14,0,0,0-1.23-.63,5.73,5.73,0,0,1-1.19-.68,1.72,1.72,0,0,1-1.12-.86c0.51-.39.45-0.07,0.93-0.08,0.18,0,.28-0.06.44-0.05A20,20,0,0,0,237,468c0.64,0,1.94.08,2.42,0a8.29,8.29,0,0,1,1.87-.12l2-.07,3.72,0.31a6.71,6.71,0,0,0,1.08.09c0.42,0.06.9,0,1.33,0.09l2,0.31c2,0.11,1.81.74,4.24,0.91,0.67,0,.39.36,1.05,0.43s0.5-.29,1.19,0a13.21,13.21,0,0,0,2.14.23,6.27,6.27,0,0,0,2.25-.16,2.85,2.85,0,0,0,1,0l2.14-.24c0.85,0.08.31-.19,1-0.23s0.2,0.31,1.14,0a2.17,2.17,0,0,0,.94-0.22c-0.23-.78-0.73-0.69-1.35-0.67a8.79,8.79,0,0,1-1.68-.18c-1.06-.12-2.16.11-3.29,0a31.29,31.29,0,0,1-6.12-1,7.32,7.32,0,0,0-1.54-.3c-0.37-.07-0.76-0.37-1.22-0.44a6,6,0,0,0-1.39-.17c-0.47,0-2.41-.58-3.13-0.65-1.42-.13-3.41.24-5-0.14-0.52-.12-1.31-0.08-1.61-0.2-0.89-.34-0.39-0.34-1.36-0.08s-2.41-.2-3.34-0.24a14.76,14.76,0,0,1-3.39-.14c-1.07-.47-1.81-0.11-2.9.12s-2-.15-3.06.06-0.57,0-1.38-.28c-0.33-.14-4.82-0.53-5.59-0.62-1.38-.17-1.23-0.88-4.41-0.36a29.63,29.63,0,0,0-3,.1c-1.92,1-2.08.38-4.54,1.08-0.71.2-3.28-.46-5.11-0.06a43,43,0,0,1-4.83.61,7.88,7.88,0,0,0-1.72-.28,14.63,14.63,0,0,1-1.77.23,13.14,13.14,0,0,0-1.87-.19c-0.24.05-.81,0.45-1.24,0.57a21.65,21.65,0,0,1-3,0c-0.67,0-.89-0.58-1.42-0.47-0.9.2-.35,0.43-1.57,0.26a15.62,15.62,0,0,0-3.65.08c-0.83.09-.76-0.49-1.52-0.17s-1.63,0-3.23.35c-0.48.1-1,.3-1.46,0.41s-1,0-1.59.11c-3.21.52-2.58,1-5.88,0.67l0.07,1-0.69.62a22.69,22.69,0,0,0,2.55-.42,2.76,2.76,0,0,1,.44,0l1.1,0.11c0.69,0.24,1-.13,1.66-0.1l1-.11h0.86A25.79,25.79,0,0,0,179,468c0.33-.07.53-0.22,0.84-0.26l2.1,0.21-0.93.32a7.13,7.13,0,0,0,3.13-.87,2,2,0,0,0-1.67-.15,6.54,6.54,0,0,1-1.7-.24,22.85,22.85,0,0,0-2.76.21l-0.36.15-0.39-.06a0.67,0.67,0,0,1,.56-0.45c2.88-1.12,3.57.45,6.37-.49,0.82-.27,2,0.36,2.63.38a3.54,3.54,0,0,0,1-.12,2.83,2.83,0,0,1,1,0,0.68,0.68,0,0,0,.34,0,1.71,1.71,0,0,1,.81.15l0.2,0.05h0.06l0.64,0.32c0-.22,0,0.07,0-0.35l1.37-.26Z" transform="translate(-114.31 -326.37)"/><path class="cls-3" d="M213.32,472.85c0.7,0.33.84-1.39,1.17-1.92s0.25,0.29.32-.77l0-.76c-1,.9-0.48.34-1,1.49A3.06,3.06,0,0,0,213.32,472.85Z" transform="translate(-114.31 -326.37)"/><path class="cls-3" d="M208.92,479.77l0.23-.14,0.21-1.11c-0.83.17-.76,0.46-1,1.2Z" transform="translate(-114.31 -326.37)"/><path class="cls-3" d="M180.12,469.09a1,1,0,0,0,1-.35A0.86,0.86,0,0,0,180.12,469.09Z" transform="translate(-114.31 -326.37)"/><path class="cls-3" d="M214.17,529.77a2.55,2.55,0,0,0,.58-1.42A2.29,2.29,0,0,0,214.17,529.77Z" transform="translate(-114.31 -326.37)"/><path class="cls-3" d="M233.07,481.9a0.68,0.68,0,0,0-.38-0.28c-0.5,0-.26.08-0.33,0.29C232.76,482.18,232.63,482,233.07,481.9Z" transform="translate(-114.31 -326.37)"/><path class="cls-3" d="M237,472.53c0.45,0,.32-0.08.55,0.27a0.67,0.67,0,0,0-.2-0.7C237,472.16,237.1,472.16,237,472.53Z" transform="translate(-114.31 -326.37)"/><path class="cls-3" d="M239.22,494.68a1,1,0,0,0-.13-1C238.8,494,238.95,494.22,239.22,494.68Z" transform="translate(-114.31 -326.37)"/><path class="cls-3" d="M216.39,495.28c0.36-.36.36-0.39,0-0.76A0.58,0.58,0,0,0,216.39,495.28Z" transform="translate(-114.31 -326.37)"/><path class="cls-3" d="M228.16,466.32h-0.9c0.24,0.45.09,0.22,0.44,0.19S227.83,466.61,228.16,466.32Z" transform="translate(-114.31 -326.37)"/><polygon class="cls-3" points="97.64 188.35 97.53 187.78 97.29 187.78 97.44 188.48 97.64 188.35"/><path class="cls-3" d="M238.17,473.65c0-.58,0-0.4-0.41-0.69A0.79,0.79,0,0,0,238.17,473.65Z" transform="translate(-114.31 -326.37)"/><path class="cls-3" d="M247.42,476.93c0.42,0.11.23,0.22,0.6-.14-0.48-.3,0,0.12-0.56-0.13Z" transform="translate(-114.31 -326.37)"/><path class="cls-3" d="M242.45,476.65l0.2-.44c-0.27-.19,0-0.14-0.48-0.08Z" transform="translate(-114.31 -326.37)"/><path class="cls-3" d="M215.13,469.68a0.93,0.93,0,0,0,.41-0.83A0.93,0.93,0,0,0,215.13,469.68Z" transform="translate(-114.31 -326.37)"/><path class="cls-3" d="M212.07,509.6a0.65,0.65,0,0,0-.16.83A0.9,0.9,0,0,0,212.07,509.6Z" transform="translate(-114.31 -326.37)"/><path class="cls-3" d="M213.1,471.11c0.23,0.16.18,0.35,0.47-.09C213.34,470.82,213.24,470.77,213.1,471.11Z" transform="translate(-114.31 -326.37)"/><path class="cls-3" d="M206.5,495.53a0.83,0.83,0,0,0,.29-0.83A1,1,0,0,0,206.5,495.53Z" transform="translate(-114.31 -326.37)"/><path class="cls-3" d="M248.13,467.1c0.36,0,.19.19,0.44-0.2C248.16,466.54,248.37,466.59,248.13,467.1Z" transform="translate(-114.31 -326.37)"/><path class="cls-3" d="M205.79,466.82c0.3-.07.21,0,0.44-0.37C205.93,466.45,205.8,466.44,205.79,466.82Z" transform="translate(-114.31 -326.37)"/><path class="cls-3" d="M207.06,489.46c0.18-.39.18-0.23,0-0.62C206.89,489.2,206.86,489.08,207.06,489.46Z" transform="translate(-114.31 -326.37)"/><path class="cls-3" d="M222.22,489c0.12-.25.2-0.08-0.08-0.54C221.94,488.81,222,488.76,222.22,489Z" transform="translate(-114.31 -326.37)"/><path class="cls-3" d="M236.78,484.15c0-.54.13-0.36-0.31-0.38C236.66,484.31,236.5,484,236.78,484.15Z" transform="translate(-114.31 -326.37)"/><path class="cls-3" d="M204.75,468a0.77,0.77,0,0,0,.29-0.69A0.77,0.77,0,0,0,204.75,468Z" transform="translate(-114.31 -326.37)"/><path class="cls-3" d="M212.77,465.71c0.3,0.23.08,0.28,0.45,0C212.82,465.44,213,465.56,212.77,465.71Z" transform="translate(-114.31 -326.37)"/><path class="cls-3" d="M243.45,476.22c0.19,0.15,0,.28.45,0C243.53,475.94,243.75,476,243.45,476.22Z" transform="translate(-114.31 -326.37)"/><path class="cls-3" d="M236.11,466.53c0.44,0.06.28,0.11,0.59-.11C236.49,466.29,236.39,466.31,236.11,466.53Z" transform="translate(-114.31 -326.37)"/><path class="cls-3" d="M216.5,484.75c0.35-.28.27-0.16,0.32-0.56A0.57,0.57,0,0,0,216.5,484.75Z" transform="translate(-114.31 -326.37)"/><path class="cls-3" d="M203.09,501.22l0.08,0.4c0.27-.45.23-0.18,0-0.54Z" transform="translate(-114.31 -326.37)"/><path class="cls-3" d="M215.7,526c0.31-.05.2,0.06,0.45-0.35A0.44,0.44,0,0,0,215.7,526Z" transform="translate(-114.31 -326.37)"/><path class="cls-3" d="M193.79,498.23c0.47-.31.2,0,0.3-0.39C193.84,497.91,193.78,497.84,193.79,498.23Z" transform="translate(-114.31 -326.37)"/><path class="cls-3" d="M220.24,465.43c0.24,0.19,0,.17.46,0.11C220.32,465.19,220.45,465.28,220.24,465.43Z" transform="translate(-114.31 -326.37)"/><path class="cls-3" d="M219.42,518.27c0.33-.15.09,0.2,0.34-0.39C219.41,518,219.69,517.57,219.42,518.27Z" transform="translate(-114.31 -326.37)"/><path class="cls-3" d="M218.71,483.57l-0.09-.27a1.11,1.11,0,0,0-.13-0.27C218.5,483.79,218.41,483.48,218.71,483.57Z" transform="translate(-114.31 -326.37)"/><path class="cls-3" d="M221.05,468.7c0.3-.26.3-0.15,0.15-0.56Z" transform="translate(-114.31 -326.37)"/><path class="cls-3" d="M199.75,491c0.18-.45.05-0.23,0-0.43C199.61,490.79,199.48,490.56,199.75,491Z" transform="translate(-114.31 -326.37)"/><path class="cls-3" d="M235.52,490.71c0,0.17.25,0.31,0.18,0S235.52,490.45,235.52,490.71Z" transform="translate(-114.31 -326.37)"/><path class="cls-3" d="M229.92,479.21c0,0.17.25,0.31,0.18,0S229.92,478.95,229.92,479.21Z" transform="translate(-114.31 -326.37)"/><polygon class="cls-3" points="103.71 195.31 103.97 195.15 103.72 194.89 103.71 195.31"/><polygon class="cls-3" points="125.4 172.3 125.52 172.01 125.4 171.87 125.27 172.01 125.4 172.3"/><path class="cls-3" d="M215.08,467.82c0.41-.1.27,0.07,0.35-0.42Z" transform="translate(-114.31 -326.37)"/><path class="cls-3" d="M218.72,484.6c0.19,0.14,0,.3.33,0C218.68,484.34,218.85,484.51,218.72,484.6Z" transform="translate(-114.31 -326.37)"/><path class="cls-3" d="M242.59,489c0-.43.11-0.31-0.31-0.37Z" transform="translate(-114.31 -326.37)"/><path class="cls-3" d="M223.74,466.42s0.33,0.32.19,0S223.7,466.13,223.74,466.42Z" transform="translate(-114.31 -326.37)"/><path class="cls-3" d="M231.06,467.72c-0.24-.44-0.05-0.27-0.44-0.22Z" transform="translate(-114.31 -326.37)"/><path class="cls-3" d="M233.07,481.9c0.12,0.37-.19.27,0.35,0.22Z" transform="translate(-114.31 -326.37)"/><polygon class="cls-3" points="98.81 207.24 98.58 207.11 98.66 207.51 98.81 207.24"/><path class="cls-3" d="M210.67,475.23c0,0.21.17,0.14,0.16,0S210.72,474.93,210.67,475.23Z" transform="translate(-114.31 -326.37)"/><path class="cls-3" d="M207.17,524.23c-0.1-.42.12-0.18-0.21-0.26C207,524.41,206.86,524.08,207.17,524.23Z" transform="translate(-114.31 -326.37)"/><path class="cls-3" d="M222.92,469.69c-0.31.43-.18,0.27-0.07,0.46Z" transform="translate(-114.31 -326.37)"/><path class="cls-3" d="M213.74,476.2c0.07-.17.06-0.1,0-0.37C213.58,476.09,213.5,475.84,213.74,476.2Z" transform="translate(-114.31 -326.37)"/><path class="cls-3" d="M217.55,465.71l0.34-.25C217.67,465.5,217.75,465.22,217.55,465.71Z" transform="translate(-114.31 -326.37)"/><path class="cls-3" d="M207,523.79l0.2-.41C206.85,523.67,206.94,523.37,207,523.79Z" transform="translate(-114.31 -326.37)"/><path class="cls-3" d="M203.94,467.26l0.2-.41C203.82,467.14,203.91,466.84,203.94,467.26Z" transform="translate(-114.31 -326.37)"/><path class="cls-3" d="M201.8,488.9l-0.34,0C201.52,488.91,201.41,489.16,201.8,488.9Z" transform="translate(-114.31 -326.37)"/><path class="cls-3" d="M225.6,466.14c0.11,0.14.37-.18,0.13-0.08C225.74,466.06,225.42,465.91,225.6,466.14Z" transform="translate(-114.31 -326.37)"/><path class="cls-3" d="M222.45,465.85c0.11,0.14.37-.18,0.13-0.08C222.59,465.78,222.27,465.63,222.45,465.85Z" transform="translate(-114.31 -326.37)"/><path class="cls-3" d="M208.22,466.71c0.11,0.14.37-.18,0.13-0.08C208.36,466.63,208,466.48,208.22,466.71Z" transform="translate(-114.31 -326.37)"/><path class="cls-3" d="M203.32,487.59c0.11,0.14.37-.18,0.13-0.08C203.46,487.51,203.14,487.36,203.32,487.59Z" transform="translate(-114.31 -326.37)"/><path class="cls-3" d="M222.34,466.71c0.11,0.14.37-.18,0.13-0.08C222.47,466.63,222.15,466.48,222.34,466.71Z" transform="translate(-114.31 -326.37)"/><path class="cls-3" d="M202.51,488.86c0.11,0.14.37-.18,0.13-0.08C202.64,488.79,202.32,488.64,202.51,488.86Z" transform="translate(-114.31 -326.37)"/><path class="cls-3" d="M215.15,476.8c0-.31.17-0.13-0.18-0.39Z" transform="translate(-114.31 -326.37)"/><path class="cls-3" d="M234.58,483c-0.08.15-.23-0.06,0,0.41Z" transform="translate(-114.31 -326.37)"/><path class="cls-3" d="M192.24,466.85l-0.34,0C192.28,467.12,192.11,467,192.24,466.85Z" transform="translate(-114.31 -326.37)"/><path class="cls-3" d="M209.51,477.5l0.34,0C209.46,477.23,209.64,477.4,209.51,477.5Z" transform="translate(-114.31 -326.37)"/><path class="cls-3" d="M207.2,494.11l0.09-.56A0.68,0.68,0,0,0,207.2,494.11Z" transform="translate(-114.31 -326.37)"/><path class="cls-3" d="M219.22,485.73l0.09-.56A0.68,0.68,0,0,0,219.22,485.73Z" transform="translate(-114.31 -326.37)"/><path class="cls-3" d="M216.18,483l0.09-.41C216.18,482.76,216.14,482.43,216.18,483Z" transform="translate(-114.31 -326.37)"/><path class="cls-3" d="M239.28,493.11l0.09-.41C239.28,492.85,239.23,492.51,239.28,493.11Z" transform="translate(-114.31 -326.37)"/><path class="cls-3" d="M226.57,476.21l0.09-.41C226.56,475.94,226.52,475.61,226.57,476.21Z" transform="translate(-114.31 -326.37)"/><path class="cls-3" d="M238.9,495.26c0,0.33.14,0,.07,0S238.9,494.89,238.9,495.26Z" transform="translate(-114.31 -326.37)"/><path class="cls-3" d="M222.1,469.83c0,0.33.14,0,.07,0S222.1,469.47,222.1,469.83Z" transform="translate(-114.31 -326.37)"/><path class="cls-3" d="M207.29,491.71c0,0.33.14,0,.07,0S207.29,491.34,207.29,491.71Z" transform="translate(-114.31 -326.37)"/><path class="cls-3" d="M239.13,495.54c0,0.33.14,0,.07,0S239.13,495.17,239.13,495.54Z" transform="translate(-114.31 -326.37)"/><path class="cls-3" d="M214.06,468.7c0,0.33.14,0,.07,0S214.06,468.33,214.06,468.7Z" transform="translate(-114.31 -326.37)"/><path class="cls-3" d="M215.8,487.16c0,0.33.14,0,.07,0S215.8,486.79,215.8,487.16Z" transform="translate(-114.31 -326.37)"/><polygon class="cls-3" points="100.44 145.88 100.44 145.74 100.33 145.88 100.44 145.88"/><polygon class="cls-3" points="115.25 153.69 115.37 153.64 115.29 153.56 115.25 153.69"/><polygon class="cls-3" points="99.51 151.13 99.62 151.09 99.54 151 99.51 151.13"/><polygon class="cls-3" points="87.96 177.55 88.08 177.51 87.99 177.42 87.96 177.55"/><polygon class="cls-3" points="97.76 183.24 97.88 183.19 97.79 183.1 97.76 183.24"/><polygon class="cls-3" points="99.28 139.91 99.16 139.96 99.25 140.04 99.28 139.91"/><polygon class="cls-3" points="106.04 189.49 106.16 189.44 106.07 189.35 106.04 189.49"/><polygon class="cls-3" points="100.56 201.84 100.67 201.79 100.59 201.71 100.56 201.84"/><polygon class="cls-3" points="87.03 141.62 87.14 141.57 87.06 141.49 87.03 141.62"/><polygon class="cls-3" points="87.73 181.1 87.61 181.15 87.7 181.23 87.73 181.1"/><polygon class="cls-3" points="112.46 141.19 112.57 141.14 112.49 141.06 112.46 141.19"/><polygon class="cls-3" points="91.23 141.48 91.34 141.43 91.26 141.35 91.23 141.48"/><polygon class="cls-3" points="87.38 141.9 87.49 141.85 87.41 141.77 87.38 141.9"/><polygon class="cls-3" points="99.74 151.84 99.63 151.89 99.71 151.97 99.74 151.84"/><polygon class="cls-3" points="86.33 163.78 86.21 163.82 86.3 163.91 86.33 163.78"/><polygon class="cls-3" points="86.33 163.78 86.44 163.73 86.36 163.65 86.33 163.78"/><polygon class="cls-3" points="92.28 163.35 92.39 163.3 92.31 163.22 92.28 163.35"/><polygon class="cls-3" points="127.62 149.86 127.58 149.72 127.51 149.82 127.62 149.86"/><polygon class="cls-3" points="115.25 153.69 115.14 153.74 115.22 153.82 115.25 153.69"/><polygon class="cls-3" points="102.19 158.38 102.08 158.43 102.16 158.51 102.19 158.38"/><polygon class="cls-3" points="108.49 162.64 108.61 162.59 108.52 162.51 108.49 162.64"/><polygon class="cls-3" points="92.16 169.74 92.28 169.69 92.19 169.61 92.16 169.74"/><polygon class="cls-3" points="113.97 150.99 113.93 150.85 113.87 150.96 113.97 150.99"/><polygon class="cls-3" points="79.91 142.19 80.03 142.14 79.94 142.06 79.91 142.19"/><polygon class="cls-3" points="97.76 185.08 97.88 185.03 97.79 184.95 97.76 185.08"/><polygon class="cls-3" points="100.44 153.83 100.56 153.78 100.47 153.7 100.44 153.83"/><polygon class="cls-3" points="99.39 152.27 99.51 152.22 99.42 152.14 99.39 152.27"/><polygon class="cls-3" points="127.62 149.86 127.66 150 127.73 149.89 127.62 149.86"/><polygon class="cls-3" points="120.97 156.96 121.09 156.91 121 156.83 120.97 156.96"/><polygon class="cls-3" points="91.81 171.16 91.77 171.02 91.7 171.13 91.81 171.16"/><polygon class="cls-3" points="100.67 172.01 100.64 171.87 100.57 171.98 100.67 172.01"/><polygon class="cls-3" points="97.64 206.1 97.76 206.06 97.67 205.97 97.64 206.1"/><polygon class="cls-3" points="103.71 195.31 103.59 195.36 103.68 195.44 103.71 195.31"/><polygon class="cls-3" points="99.28 139.91 99.39 139.87 99.31 139.78 99.28 139.91"/><polygon class="cls-3" points="103.82 196.87 103.94 196.82 103.85 196.74 103.82 196.87"/><polygon class="cls-3" points="112.46 141.19 112.34 141.24 112.43 141.32 112.46 141.19"/><polygon class="cls-3" points="115.72 153.83 115.84 153.78 115.75 153.7 115.72 153.83"/><polygon class="cls-3" points="106.62 161.79 106.74 161.74 106.65 161.66 106.62 161.79"/><polygon class="cls-3" points="92.16 169.74 92.04 169.79 92.13 169.87 92.16 169.74"/><polygon class="cls-3" points="99.51 151.13 99.39 151.18 99.48 151.26 99.51 151.13"/><polygon class="cls-3" points="100.91 201.27 100.79 201.32 100.88 201.4 100.91 201.27"/><path class="cls-3" d="M213.47,530.2a0.2,0.2,0,0,0,0,0h0S213.46,530.18,213.47,530.2Z" transform="translate(-114.31 -326.37)"/><path class="cls-3" d="M218.25,482.9l0,0S218.24,482.89,218.25,482.9Z" transform="translate(-114.31 -326.37)"/><path class="cls-3" d="M208.11,478.92l0,0S208.09,478.91,208.11,478.92Z" transform="translate(-114.31 -326.37)"/><path class="cls-3" d="M203.56,467.42l0,0S203.55,467.4,203.56,467.42Z" transform="translate(-114.31 -326.37)"/><path class="cls-3" d="M213.35,466.71l0,0S213.34,466.69,213.35,466.71Z" transform="translate(-114.31 -326.37)"/><path class="cls-3" d="M244.15,466.85l0,0S244.14,466.83,244.15,466.85Z" transform="translate(-114.31 -326.37)"/><path class="cls-3" d="M225.25,466l0,0S225.24,466,225.25,466Z" transform="translate(-114.31 -326.37)"/><path class="cls-3" d="M238.9,466.42l0,0S238.89,466.41,238.9,466.42Z" transform="translate(-114.31 -326.37)"/><path class="cls-3" d="M205.42,498.38l0,0S205.41,498.37,205.42,498.38Z" transform="translate(-114.31 -326.37)"/><path class="cls-3" d="M205.77,485.31l0,0S205.76,485.3,205.77,485.31Z" transform="translate(-114.31 -326.37)"/><path class="cls-3" d="M219.3,465.43l0,0S219.29,465.41,219.3,465.43Z" transform="translate(-114.31 -326.37)"/><path class="cls-3" d="M224.32,471l0,0S224.31,471,224.32,471Z" transform="translate(-114.31 -326.37)"/><path class="cls-3" d="M221.05,487.87l0,0S221,487.86,221.05,487.87Z" transform="translate(-114.31 -326.37)"/><path class="cls-3" d="M214.87,479.92l0,0S214.86,479.9,214.87,479.92Z" transform="translate(-114.31 -326.37)"/><path class="cls-3" d="M229.22,467.42l0,0S229.21,467.4,229.22,467.42Z" transform="translate(-114.31 -326.37)"/><path class="cls-3" d="M211.49,466.56l0,0S211.48,466.55,211.49,466.56Z" transform="translate(-114.31 -326.37)"/><path class="cls-3" d="M201.92,508.18l0,0S201.91,508.17,201.92,508.18Z" transform="translate(-114.31 -326.37)"/><path class="cls-3" d="M205.07,486.17l0,0S205.06,486.15,205.07,486.17Z" transform="translate(-114.31 -326.37)"/><path class="cls-3" d="M212.42,473.81l0,0S212.41,473.79,212.42,473.81Z" transform="translate(-114.31 -326.37)"/><path class="cls-3" d="M242.87,476.51l0,0S242.85,476.49,242.87,476.51Z" transform="translate(-114.31 -326.37)"/><path class="cls-3" d="M223.15,510.74l0,0S223.14,510.72,223.15,510.74Z" transform="translate(-114.31 -326.37)"/><path class="cls-3" d="M254.65,468l0,0S254.64,468,254.65,468Z" transform="translate(-114.31 -326.37)"/><path class="cls-3" d="M237.5,466.71l0,0S237.49,466.69,237.5,466.71Z" transform="translate(-114.31 -326.37)"/><path class="cls-3" d="M184.66,467.42l0,0S184.65,467.4,184.66,467.42Z" transform="translate(-114.31 -326.37)"/><path class="cls-3" d="M218.72,484.18l0,0S218.71,484.16,218.72,484.18Z" transform="translate(-114.31 -326.37)"/><path class="cls-3" d="M242.17,488l0,0S242.15,488,242.17,488Z" transform="translate(-114.31 -326.37)"/><path class="cls-3" d="M222.92,488.44l0,0S222.91,488.42,222.92,488.44Z" transform="translate(-114.31 -326.37)"/><path class="cls-3" d="M241.7,487.59l0,0S241.69,487.57,241.7,487.59Z" transform="translate(-114.31 -326.37)"/><path class="cls-3" d="M212.42,505.91l0,0S212.41,505.9,212.42,505.91Z" transform="translate(-114.31 -326.37)"/><path class="cls-3" d="M242.4,488.15l0,0S242.39,488.14,242.4,488.15Z" transform="translate(-114.31 -326.37)"/><path class="cls-3" d="M231.9,487.73l0,0S231.89,487.71,231.9,487.73Z" transform="translate(-114.31 -326.37)"/><path class="cls-3" d="M220,486.88l0,0S220,486.86,220,486.88Z" transform="translate(-114.31 -326.37)"/><path class="cls-3" d="M223.5,470.83l0.05-.28Z" transform="translate(-114.31 -326.37)"/><path class="cls-3" d="M201.11,509.46h0Z" transform="translate(-114.31 -326.37)"/><path class="cls-3" d="M222.92,469.69l0.05-.28Z" transform="translate(-114.31 -326.37)"/><path class="cls-3" d="M221.05,468.7l-0.12.14Z" transform="translate(-114.31 -326.37)"/><path class="cls-3" d="M214.17,478.07l-0.12.14Z" transform="translate(-114.31 -326.37)"/><path class="cls-3" d="M201.69,468.27l-0.12.14Z" transform="translate(-114.31 -326.37)"/><path class="cls-3" d="M212,511.73l0.12-.28Z" transform="translate(-114.31 -326.37)"/><path class="cls-3" d="M211.84,514v0Z" transform="translate(-114.31 -326.37)"/><path class="cls-3" d="M227.59,467.42l-0.21.15Z" transform="translate(-114.31 -326.37)"/><path class="cls-3" d="M228.29,477.36l0.23,0.07Z" transform="translate(-114.31 -326.37)"/><path class="cls-3" d="M220.35,515.85l-0.05.28Z" transform="translate(-114.31 -326.37)"/><path class="cls-3" d="M218.14,523.24l-0.05.28Z" transform="translate(-114.31 -326.37)"/><path class="cls-3" d="M216.27,483.89l-0.12.14Z" transform="translate(-114.31 -326.37)"/><path class="cls-3" d="M215.34,527.5l-0.12.14Z" transform="translate(-114.31 -326.37)"/><path class="cls-3" d="M216.27,483.89l0.05-.28Z" transform="translate(-114.31 -326.37)"/><path class="cls-3" d="M231,481.76l0.05-.28Z" transform="translate(-114.31 -326.37)"/><path class="cls-3" d="M214.87,528.21l-0.12.14Z" transform="translate(-114.31 -326.37)"/><path class="cls-3" d="M219,502.07l0.05-.28Z" transform="translate(-114.31 -326.37)"/><path class="cls-3" d="M214.17,529.77l-0.05.28Z" transform="translate(-114.31 -326.37)"/><path class="cls-3" d="M191.78,473.1h0Z" transform="translate(-114.31 -326.37)"/><path class="cls-3" d="M221.75,530.06l-0.12.14Z" transform="translate(-114.31 -326.37)"/><path class="cls-3" d="M223.27,471.25l0.23-.43Z" transform="translate(-114.31 -326.37)"/></svg>