<?xml version="1.0" encoding="utf-8"?>
<!-- Generator: Adobe Illustrator 15.0.2, SVG Export Plug-In . SVG Version: 6.00 Build 0)  -->
<!DOCTYPE svg PUBLIC "-//W3C//DTD SVG 1.1//EN" "http://www.w3.org/Graphics/SVG/1.1/DTD/svg11.dtd">
<svg version="1.1" id="Layer_1" xmlns="http://www.w3.org/2000/svg" xmlns:xlink="http://www.w3.org/1999/xlink" x="0px" y="0px"
	 width="1700px" height="1700px" viewBox="0 0 1700 1700" enable-background="new 0 0 1700 1700" xml:space="preserve">
<g>
	<g>
		<path fill="#232734" d="M231.185,1677.833c155.552,14.593,311.834,20.024,468.034,19.629
			c156.137-0.395,312.208-6.717,468.061-15.842c25.314-1.482,50.546-3.847,75.898-4.788c25.371-0.943,50.473,0.58,75.801,1.086
			c23.934,0.479,47.852,4.232,71.808,3.522c6.932-0.205,13.843-1.243,20.743-1.873c3.115-0.285,6.238-0.485,9.367-0.46
			c4.962,0.041-3.527-0.844-0.945-0.291c1.869,0.597,0.895,0.036-2.924-1.683c-12.993-7.482-2.338-24.944,3.545-31.168
			c-7.793,8.244-15.501,21.07-8.36,32.362c6.289,9.945,21.621,7.943,28.929,0.214c7.128-7.541,17.093-20.1,12.525-31.58
			c-3.82-9.604-9.877-12.52-19.604-13.527c-10.119-1.048-20.743,1.602-30.846,2.191c-17.996,1.051-36.396-1.447-54.342-2.61
			c-19.527-1.266-39.221-2.1-58.788-2.402c-39.618-0.614-78.974,3.352-118.469,5.649c-38.808,2.258-77.628,4.323-116.458,6.175
			c-156.237,7.449-312.704,11.189-469.112,8.295c-114.691-2.123-229.338-7.948-343.556-18.663
			c-12.294-1.153-23.563,12.391-26.18,23.019C213.458,1666.678,219.07,1676.696,231.185,1677.833L231.185,1677.833z"/>
	</g>
</g>
<g>
	<g>
		<path fill="#232734" d="M637.509,465.505c-17.71-21.944-38.585-39.091-63.805-51.633c-21.872-10.876-46.764-16.152-71.08-17.052
			c-53.254-1.969-105.774,16.722-150.402,44.773c-43.57,27.387-82.487,66.392-106.182,112.348
			c-16.401,31.811-25.329,67.188-29.484,102.618c-3.829,32.652-2.971,65.645-2.523,98.447c1.019,74.564-6.241,148.837-8.227,223.334
			c-2.066,77.494,3.133,155.186,5.826,232.622c5.147,148.023,9.241,296.108,9.263,444.233c0.004,29.121,46.495,15.833,46.491-7.793
			c-0.022-155.925-4.57-311.8-10.083-467.613c-2.737-77.363-7.165-154.672-4.27-232.09c1.429-38.214,3.881-76.381,5.836-114.57
			c1.811-35.366,1.806-70.559,1.385-105.956c-0.389-32.771,0.064-65.608,5.606-97.994c0.677-3.958,1.468-7.896,2.299-11.825
			c-0.875,4.138,0.574-2.404,0.624-2.609c0.48-1.997,1.002-3.983,1.524-5.969c2.329-8.864,5.18-17.583,8.348-26.18
			c1.526-4.139,3.193-8.225,4.906-12.29c0.653-1.549,1.356-3.054,2.086-4.566c2.182-4.52-2.43,4.716-0.124,0.244
			c2.799-5.429,5.878-10.71,9.108-15.892c3.029-4.86,6.277-9.581,9.64-14.215c1.699-2.341,3.458-4.638,5.235-6.919
			c0.893-1.146,1.805-2.278,2.716-3.409c-4.788,5.941-0.329,0.462,0.706-0.751c7.977-9.362,16.658-18.111,25.787-26.347
			c2.21-1.994,4.466-3.938,6.737-5.863c1.137-0.964,2.288-1.911,3.439-2.858c-6.066,4.989-1.841,1.495-0.538,0.466
			c5.082-4.009,10.325-7.812,15.66-11.477c4.921-3.381,9.97-6.574,15.089-9.646c2.554-1.533,5.144-3.006,7.744-4.458
			c1.298-0.725,2.608-1.43,3.917-2.134c4.034-2.17-5.724,2.886,0.662-0.334c9.206-4.642,18.705-8.694,28.385-12.236
			c4.557-1.667,9.175-3.163,13.821-4.559c0.925-0.275,1.853-0.544,2.781-0.808c-6.966,2.001-1.925,0.56-0.457,0.177
			c2.782-0.726,5.583-1.373,8.391-1.993c9.705-2.143,19.566-3.541,29.474-4.287c2.414-0.156,1.869-0.136-1.634,0.061
			c1.399-0.075,2.8-0.119,4.2-0.163c2.792-0.087,5.585-0.082,8.377-0.043c5.095,0.07,10.182,0.415,15.25,0.926
			c2.297,0.232,4.585,0.538,6.87,0.864c1.385,0.197,9.171,1.608,2.833,0.375c4.987,0.97,9.913,2.238,14.783,3.681
			c4.456,1.32,8.831,2.898,13.148,4.614c2.176,0.865,4.32,1.81,6.454,2.773c1.288,0.582,2.559,1.199,3.83,1.816
			c4.411,2.143-3.851-2.081,0.493,0.233c9.041,4.816,17.503,10.664,25.424,17.144c4.362,3.568,8.485,7.419,12.465,11.406
			c0.739,0.747,1.471,1.5,2.196,2.259c-3.32-3.447,0.366,0.474,0.847,1.01c2.178,2.428,4.258,4.941,6.306,7.479
			c7.893,9.78,21.442,8.38,31.186,2.007C634.932,489.595,645.381,475.26,637.509,465.505L637.509,465.505z"/>
	</g>
</g>
<g>
	<g>
		<path fill="#232734" d="M623.508,481.51c0-52.292,0-104.584,0-156.876c0-42.658-0.647-85.304,2.42-127.882
			c0.537-7.448,1.249-14.883,2.143-22.297c0.426-3.535,0.933-7.059,1.475-10.577c0.15-0.973,1.186-6.815,0.148-1.075
			c0.402-2.227,0.859-4.443,1.325-6.657c1.345-6.382,3.057-12.681,5.078-18.881c0.97-2.977,2.08-5.906,3.243-8.812
			c-2.797,6.985,1.785-3.426,2.757-5.291c1.393-2.669,2.945-5.25,4.554-7.792c2.944-4.652-3.592,5.042-0.38,0.571
			c0.875-1.219,1.806-2.397,2.735-3.574c1.875-2.374,3.911-4.613,5.997-6.801c3.844-4.032-4.507,4.192-0.388,0.38
			c1.529-1.415,3.134-2.744,4.748-4.06c2.493-2.034,5.126-3.89,7.792-5.687c-5.907,3.979,3.217-1.774,4.873-2.661
			c3.153-1.689,6.409-3.178,9.686-4.608c1.713-0.748,3.455-1.43,5.195-2.113c2.401-0.9,2.38-0.901-0.064-0.002
			c1.25-0.431,2.504-0.848,3.763-1.25c20.218-6.592,41.465-8.991,62.445-11.832c26.042-3.526,52.142-6.618,78.274-9.384
			c51.413-5.443,103.014-9.19,154.642-11.84c99.128-5.087,198.747-5.913,297.965-3.098c30.202,0.856,52.309,1.594,78.499,15.036
			c0.823,0.422,5.085,2.965,0.7,0.346c1.249,0.746,2.46,1.554,3.669,2.362c2.424,1.619,4.716,3.423,6.954,5.285
			c2.271,1.889,4.384,3.959,6.436,6.08c1.047,1.082,2.034,2.22,3.021,3.356c-3.346-3.853,0.938,1.412,1.501,2.19
			c9.722,13.418,13.065,23.666,16.715,37.905c5.645,22.025,7.311,45.143,9.339,67.717c2.281,25.389,3.525,50.861,4.391,76.333
			c1.807,53.192,1.839,106.508,1.343,159.724c-0.986,105.763-8.188,211.347-10.189,317.085
			c-2.001,105.744,6.116,210.814,11.406,316.337c2.637,52.601,4.684,105.233,5.658,157.892c0.74,40.044,0.479,80.007,2.557,120.014
			c3.878,74.673,10.959,150.529,0.989,225.015c-0.546,4.081-1.188,8.147-1.869,12.207c0.821-4.899-0.333,1.63-0.436,2.16
			c-0.375,1.943-0.788,3.88-1.202,5.815c-1.592,7.453-3.562,14.82-5.84,22.092c-1.085,3.462-2.308,6.878-3.584,10.273
			c-0.417,1.108-2.786,6.721-0.252,0.749c-0.675,1.592-1.403,3.16-2.132,4.729c-2.801,6.027-6.116,11.803-9.819,17.319
			c-5.922,8.824-4.713,24.178,6.396,28.213c12.507,4.541,23.507-5.676,29.826-15.09c18.674-27.822,26.479-61.662,31.384-94.322
			c5.519-36.74,5.861-74.204,5.105-111.273c-0.772-37.903-3.255-75.744-5.286-113.593c-2.111-39.343-2.049-78.607-2.674-117.99
			c-1.672-105.146-7.768-210.217-14.357-315.15c-6.636-105.671-2.012-211.617,2.354-317.276
			c4.384-106.139,6.99-212.326,3.879-318.548c-0.793-27.057-2.247-54.081-4.322-81.069c-1.841-23.939-3.746-48.223-8.469-71.793
			c-6.009-29.997-19.104-60.205-44.242-78.954c-23.412-17.462-53.02-22.861-81.473-25.207c-16.327-1.346-32.746-1.497-49.119-1.562
			c-25.157-0.099-50.312-0.731-75.471-0.854c-105.237-0.514-210.519,3.282-315.346,12.728
			c-52.463,4.728-105.344,9.859-157.308,18.647c-35.21,5.955-68.54,19.644-94.187,44.913
			c-45.708,45.034-45.876,116.737-47.954,176.377c-1.344,38.595-0.074,77.46-0.074,116.081c0,39.922,0,79.844,0,119.767
			c0,11.625,8.34,19.844,20.283,17.079C612.277,505.883,623.508,493.762,623.508,481.51L623.508,481.51z"/>
	</g>
</g>
<g>
	<g>
		<path fill="#232734" d="M690.393,36.163c-46.695,1.832-89.12,24.767-124.067,54.462c-36.364,30.899-66.637,67.785-95.635,105.483
			c-12.697,16.505-25.137,33.211-38.09,49.519c-16.595,20.893-34.179,41.025-50.97,61.767
			c-34.543,42.674-67.713,86.662-95.71,133.966c-35.11,59.325-61.081,122.805-69.825,191.537c-0.658,5.171,3.648,11.14,7.115,14.385
			c4.772,4.468,11.087,7.303,17.543,8.181c11.779,1.601,22.562-3.635,24.13-15.957c0.415-3.263,0.866-6.519,1.352-9.771
			c0.095-0.638,0.99-6.054,0.225-1.474c0.269-1.613,0.559-3.223,0.849-4.832c1.251-6.949,2.736-13.854,4.359-20.725
			c3.105-13.148,6.948-26.117,11.294-38.906c8.708-25.625,19.849-50.383,32.451-74.316c1.521-2.889,3.077-5.76,4.644-8.625
			c0.784-1.434,1.579-2.862,2.374-4.291c0.315-0.565,3.02-5.329,0.72-1.292c3.516-6.172,7.151-12.276,10.852-18.34
			c7.145-11.708,14.645-23.198,22.358-34.538c15.479-22.755,31.996-44.79,48.976-66.441c30.566-38.976,63.168-76.258,93.185-115.666
			c27.784-36.476,55.738-73.108,88.758-105.08c2.325-2.25,4.685-4.463,7.062-6.658c1.014-0.937,2.038-1.862,3.061-2.787
			c0.837-0.756,5.637-4.951,1.284-1.163c4.784-4.164,9.705-8.167,14.727-12.04c9.762-7.529,20.055-14.369,30.84-20.342
			c2.631-1.458,5.307-2.831,8.001-4.167c1.147-0.569,2.307-1.115,3.465-1.661c-5.97,2.811-0.394,0.232,0.876-0.312
			c5.424-2.323,10.987-4.307,16.627-6.032c2.805-0.858,5.643-1.601,8.493-2.293c1.22-0.296,2.448-0.562,3.676-0.827
			c3.896-0.841-5.675,0.959,0.43-0.079c5.825-0.991,11.719-1.53,17.62-1.761c11.029-0.433,20.825-9.79,16.979-21.219
			C716.325,41.689,702.369,35.693,690.393,36.163L690.393,36.163z"/>
	</g>
</g>
<g>
	<g>
		<path fill="#232734" d="M765.738,300.467c131.16-0.026,262.238-5.229,393.321-9.067c23.469-0.687,46.938-1.326,70.41-1.887
			c9.321-0.223,14.666-12.422,14.903-20.158c0.262-8.573-4.448-16.974-13.79-16.75c-131.116,3.134-262.17,8.785-393.32,10.482
			c-23.469,0.304-46.94,0.466-70.411,0.471c-9.304,0.002-14.672,12.597-14.903,20.158
			C751.681,292.464,756.409,300.469,765.738,300.467L765.738,300.467z"/>
	</g>
</g>
<g>
	<g>
		<path fill="#232734" d="M740.011,406.424c54.279-5.16,108.655-9.329,163.112-12.058c56.387-2.826,114.854-4.151,169.991-2.703
			c54.644,1.436,109.445,5.307,163.347,14.684c19.813,3.447,19.441-33.805,1.738-36.885c-52.248-9.089-105.313-12.936-158.276-14.54
			c-58.025-1.758-116.103-0.715-174.082,1.989c-57.322,2.673-114.561,7.043-171.686,12.473c-9.36,0.89-12.137,13.284-10.962,20.716
			C724.512,398.446,730.636,407.315,740.011,406.424L740.011,406.424z"/>
	</g>
</g>
<g>
	<g>
		<path fill="#232734" d="M666.72,544.529c131.642,2.409,262.853-10.217,394.071-18.714c60.876-3.942,121.84-6.814,182.855-6.845
			c9.516-0.005,16.683-7.416,19.006-16.348c1.783-6.86-0.224-19.398-9.729-19.393c-131.658,0.067-262.753,13.483-394.071,21.111
			c-60.875,3.536-121.876,5.564-182.856,4.449c-9.493-0.174-16.718,7.552-19.005,16.348
			C655.172,532.131,657.233,544.355,666.72,544.529L666.72,544.529z"/>
	</g>
</g>
<g>
	<g>
		<path fill="#232734" d="M407.934,661.765c57.764,10.074,116.862,8.995,175.103,4.355c59.608-4.749,118.798-13.504,178.169-20.436
			c28.587-3.337,57.054-5.801,85.812-6.96c29.859-1.203,59.737-1.926,89.616-2.389c60.054-0.931,120.119-0.705,180.177-0.333
			c40.237,0.249,80.475,0.591,120.713,0.596c8.913,0.001,19.041-6.378,21.129-15.399c2.121-9.162-6.024-14.604-14.217-14.605
			c-116.552-0.014-233.112-2.384-349.646,0.763c-29.097,0.786-58.346,1.348-87.332,4.108c-28.959,2.758-57.83,6.38-86.689,10.018
			c-59.446,7.493-118.975,15.285-178.906,17.497c-20.308,0.75-40.646,0.757-60.948-0.185c-5.107-0.237-10.21-0.562-15.31-0.936
			c-2.25-0.165-4.499-0.354-6.747-0.548c1.567,0.138,1.345,0.113-0.668-0.074c-1.672-0.161-3.343-0.338-5.014-0.516
			c-9.909-1.053-19.778-2.462-29.595-4.174c-9.19-1.603-19.546,2.797-24.04,11.189C395.494,651.294,399.19,660.24,407.934,661.765
			L407.934,661.765z"/>
	</g>
</g>
<g>
	<g>
		<path fill="#232734" d="M429.064,783.096c22.436,9.422,47.935,10.663,71.965,9.935c26.925-0.815,53.702-4.768,80.356-8.393
			c5.872-0.799,11.745-1.587,17.624-2.335c-3.924,0.499,0.787-0.092,1.321-0.156c1.392-0.168,2.785-0.328,4.178-0.488
			c3.151-0.361,6.307-0.686,9.464-0.988c14.868-1.422,29.792-2.426,44.686-3.535c32.604-2.428,65.234-4.492,97.861-6.575
			c32.661-2.085,65.321-4.197,97.956-6.671c14.992-1.136,29.917-2.503,44.944-2.938c27.567-0.798,55.161-0.86,82.738-0.971
			c68.354-0.274,136.711,0.112,205.064-0.301c14.054-0.084,28.111-0.17,42.16-0.564c3.771-0.105,7.551-0.209,11.312-0.517
			c9.936-0.813,22.083-5.222,24.163-16.604c1.556-8.512-2.558-15.895-12.025-15.84c-8.604,0.051-19.479,7.054-21.119,16.034
			c1.438-7.873,10.272-13.788,16.251-15.242c-0.232,0.057-0.471,0.091-0.707,0.126c6.284-0.931,4.006-0.451,1.584-0.276
			c-2.856,0.206-5.723,0.3-8.585,0.392c-9.757,0.312-19.521,0.41-29.281,0.504c-30.676,0.296-61.354,0.277-92.031,0.286
			c-66.055,0.018-132.145-0.487-198.19,0.808c-39.43,0.773-78.717,4.911-118.056,7.505c-32.537,2.146-65.083,4.134-97.616,6.331
			c-30.024,2.027-60.184,3.719-90.102,7.007c-15.151,1.666-30.246,3.834-45.351,5.868c-3.602,0.485-7.206,0.959-10.811,1.423
			c-0.292,0.037-5.43,0.677-1.879,0.239c-2.084,0.257-4.17,0.503-6.256,0.747c-7.822,0.913-15.659,1.688-23.509,2.301
			c-14.623,1.141-29.328,1.546-43.969,0.523c-1.439-0.101-2.876-0.233-4.312-0.366c-0.948-0.091-1.895-0.19-2.841-0.297
			c1.708,0.215,1.658,0.203-0.151-0.035c-3.648-0.49-7.27-1.158-10.869-1.928c-6.423-1.374-12.706-3.353-18.76-5.896
			c-8.493-3.567-19.626,4.558-23.483,11.494C418.305,771.766,420.696,779.582,429.064,783.096L429.064,783.096z"/>
	</g>
</g>
<g>
	<g>
		<path fill="#232734" d="M434.812,903.03c131.849-0.024,263.634-4.787,395.411-8.585c56.994-1.643,113.968-3.136,170.94-5.443
			c51.956-2.104,103.909-4.312,155.88-6.041c8.373-0.279,16.747-0.54,25.121-0.783c3.959-0.115,7.918-0.223,11.878-0.327
			c1.704-0.045,3.409-0.088,5.114-0.13c-1.695,0.041-1.705,0.042-0.03,0.002c1.234-0.029,2.47-0.058,3.704-0.086
			c12.98-0.293,25.964-0.51,38.947-0.516c9.441-0.004,15.363-7.365,16.754-16.39c1.043-6.767-1.64-20.677-11.043-20.673
			c-43.723,0.021-87.46,1.773-131.145,3.401c-52.282,1.949-104.553,4.21-156.831,6.251c-59.998,2.343-121.101,3.533-182.335,5.366
			c-65.13,1.949-130.26,3.957-195.406,5.301c-47.077,0.97-94.162,1.581-141.249,1.59c-9.441,0.002-15.364,7.367-16.754,16.39
			C422.726,889.126,425.409,903.032,434.812,903.03L434.812,903.03z"/>
	</g>
</g>
<g>
	<g>
		<path fill="#232734" d="M446.06,1008.127c11.958,2.209,24.62,1.925,36.743,2.11c19.977,0.307,39.962,0.065,59.938-0.233
			c58.717-0.877,117.421-2.642,176.121-4.281c68.749-1.92,137.497-3.867,206.259-5.256c60.837-1.229,121.716-2.215,182.564-1.299
			c11.879,0.18,23.758,0.451,35.631,0.872c5.246,0.187,10.492,0.408,15.735,0.669c2.34,0.116,4.679,0.244,7.018,0.38
			c2.752,0.159-5.167-0.313-2.431-0.146c0.556,0.033,1.111,0.068,1.667,0.104c1.268,0.081,2.534,0.166,3.801,0.254
			c7.775,0.539,15.549,1.214,23.277,2.229c2.985,0.393,5.963,0.851,8.922,1.406c2.337,0.438,11.074,2.829,2.99,0.476
			c2.574,0.749,8.42,4.095,2.133,0.268c1.789,1.09,2.56,2.677-1.032-1.466c1.843,2.125-1.179-4.414-0.854-1.943
			c1.226,9.321,14.708,10.798,21.616,9.059c8.584-2.161,15.979-8.865,14.749-18.215c-1.567-11.923-19.967-15.105-29.144-16.705
			c-17.136-2.986-34.747-3.723-52.084-4.552c-53.661-2.567-107.508-1.958-161.206-1.294c-68.015,0.842-136.017,2.573-204.01,4.417
			c-64.327,1.743-128.649,3.695-192.983,5.191c-42.646,0.992-85.472,2.492-128.125,1.035c-2.059-0.07-4.117-0.157-6.175-0.262
			c-3.91-0.199,0.724,0.049,1.779,0.115c-0.886-0.056-1.771-0.118-2.656-0.187c-2.613-0.2-5.238-0.442-7.818-0.919
			c-8.773-1.621-19.883,2.649-23.646,11.156C431.051,999.675,437.995,1006.637,446.06,1008.127L446.06,1008.127z"/>
	</g>
</g>
<g>
	<g>
		<path fill="#232734" d="M452.891,1136.643c120.451,15.893,242.051-0.17,362.797-2.795c47.092-1.023,94.383-0.003,141.1,6.446
			c9.344,1.29,13.995-9.09,13.733-16.797c-0.293-8.6-5.631-18.818-14.972-20.107c-118.737-16.393-239.209,0.252-358.302,2.795
			c-48.595,1.037-97.358-0.082-145.595-6.446c-9.346-1.233-13.997,9.046-13.733,16.797
			C438.211,1125.09,443.549,1135.41,452.891,1136.643L452.891,1136.643z"/>
	</g>
</g>
<g>
	<g>
		<path fill="#232734" d="M233.454,609.315c18.333,22.167,32.787,47.21,51.12,69.377c6.45,7.798,19.739-5.1,14.071-11.953
			c-18.333-22.166-32.787-47.21-51.12-69.377C241.076,589.564,227.787,602.462,233.454,609.315L233.454,609.315z"/>
	</g>
</g>
<g>
	<g>
		<path fill="#232734" d="M281.412,578.241c30.081,19.076,50.778,49.443,80.332,69.376c9.727,6.561,13.322-10.448,5.789-15.529
			c-29.55-19.931-50.235-50.29-80.332-69.376C277.292,556.427,273.719,573.361,281.412,578.241L281.412,578.241z"/>
	</g>
</g>
<g>
	<g>
		<path fill="#232734" d="M298.405,535.49c-2.515,0.42-0.493,0.194,0.22,0.269c-2.434-0.255-0.126,0.055,0.545,0.281
			c0.505,0.17,3.012,1.351,0.941,0.312c1.06,0.532,2.075,1.151,3.079,1.78c4.686,2.934,8.584,6.321,11.878,9.25
			c11.396,10.131,21.927,21.245,32.49,32.226c11.468,11.922,22.848,23.938,34.737,35.445c9.477,9.172,19.44,18.881,31.002,25.411
			c10.217,5.771,12.851-11.347,4.921-15.825c-11.441-6.462-19.805-14.937-29.25-24.118c-12.473-12.125-24.384-24.819-36.457-37.34
			c-11.016-11.425-22.086-22.868-34.208-33.137c-7.133-6.043-16.181-13.889-26.188-12.217c-4.638,0.775-4.6,8.045-3.48,11.19
			C290.197,533.398,293.745,536.269,298.405,535.49L298.405,535.49z"/>
	</g>
</g>
<g>
	<g>
		<path fill="#232734" d="M313.515,514.044c31.996,42.623,66.073,84.686,110.744,114.667c7.837,5.26,19.873-9.086,12.211-14.229
			c-43.647-29.294-77.071-70.065-108.343-111.723C322.051,494.666,308.175,506.932,313.515,514.044L313.515,514.044z"/>
	</g>
</g>
<g>
	<g>
		<path fill="#232734" d="M368.027,487.55c49.177,37.907,96.128,81.35,130.037,133.795c2.559,3.957,7.875,1.948,10.138-1.042
			c2.918-3.854,3.112-9.053,0.521-13.062c-34.56-53.452-82.75-97.781-132.867-136.412
			C368.01,464.782,360.919,482.071,368.027,487.55L368.027,487.55z"/>
	</g>
</g>
<g>
	<g>
		<path fill="#232734" d="M445.989,460.393c42.123,52.693,82.047,107.335,127.8,157.012c6.841,7.428,18.636-6.936,12.566-13.526
			c-45.752-49.676-85.677-104.318-127.8-157.012C452.294,439.035,440.376,453.372,445.989,460.393L445.989,460.393z"/>
	</g>
</g>
<g>
	<g>
		<path fill="#232734" d="M525.649,474.524c41.614,45.546,75.69,97.229,113.195,146.057c5.663,7.372,19.658-5.089,13.907-12.576
			c-37.505-48.828-71.581-100.51-113.195-146.057C533.214,455.006,519.313,467.589,525.649,474.524L525.649,474.524z"/>
	</g>
</g>
<g>
	<g>
		<path fill="#232734" d="M610.316,459.047c16.512,9.969,32.051,21.301,47.469,32.863c7.285,5.463,21.928-3.795,12.54-10.835
			c-15.418-11.562-30.957-22.894-47.469-32.863c-3.991-2.41-9.636-2.188-13.227,0.915
			C606.375,451.939,606.521,456.756,610.316,459.047L610.316,459.047z"/>
	</g>
</g>
<g>
	<g>
		<path fill="#232734" d="M623.026,400.891c0.55,0.021,2.79,0.621,1.023,0.06c1.038,0.33,2.03,0.804,3.008,1.274
			c2.6,1.249,5.044,2.834,7.443,4.426c6.337,4.203,12.237,9.147,18.063,14.018c12.63,10.559,24.77,21.767,36.424,33.393
			c3.296,3.289,7.946,1.042,9.889-2.463c2.218-4.002,2.012-9.67-1.331-13.005c-12.272-12.243-25.092-23.986-38.428-35.062
			c-6.438-5.347-13.072-10.456-20.048-15.083c-4.121-2.733-9.204-6.027-14.317-6.228
			C615.328,381.852,613.696,400.525,623.026,400.891L623.026,400.891z"/>
	</g>
</g>
<g>
	<g>
		<path fill="#232734" d="M610.809,329.562c31.359,24.606,54.206,57.729,83.983,83.983c6.998,6.17,18.632-8.527,11.555-14.767
			c-29.778-26.254-52.624-59.377-83.983-83.983C614.971,308.994,603.414,323.759,610.809,329.562L610.809,329.562z"/>
	</g>
</g>
<g>
	<g>
		<path fill="#232734" d="M609.049,256.245c25.039,28.493,53.517,53.578,80.332,80.331c3.324,3.316,8.5,4.863,12.953,2.829
			c3.779-1.726,5.288-6.556,2.122-9.714c-26.814-26.754-55.292-51.838-80.332-80.331c-3.065-3.489-8.708-4.768-12.953-2.829
			C607.189,248.349,606.135,252.929,609.049,256.245L609.049,256.245z"/>
	</g>
</g>
<g>
	<g>
		<path fill="#232734" d="M620.564,218.899c17.641,21.092,37.028,40.541,59.921,55.938c7.409,4.983,19.349-9.216,10.956-14.86
			c-21.812-14.669-40.127-33.52-56.926-53.604C628.51,199.192,614.518,211.67,620.564,218.899L620.564,218.899z"/>
	</g>
</g>
<g>
	<g>
		<path fill="#232734" d="M628.537,161.149c18.714,22.527,35.889,46.74,58.424,65.725c7.208,6.073,19.77-7.844,12.613-13.873
			c-22.535-18.985-39.709-43.198-58.424-65.725c-3.004-3.616-9.172-0.363-11.509,2.207
			C626.604,152.824,625.521,157.52,628.537,161.149L628.537,161.149z"/>
	</g>
</g>
<g>
	<g>
		<path fill="#232734" d="M646.267,98.556c21.526,25.253,39.205,53.357,58.422,80.331c5.333,7.486,19.143-5.151,13.669-12.835
			c-19.217-26.973-36.896-55.077-58.422-80.331C653.875,78.61,640.149,91.379,646.267,98.556L646.267,98.556z"/>
	</g>
</g>
<g>
	<g>
		<path fill="#232734" d="M683.09,75.337c13.806,10.446,26.359,22.417,40.165,32.863c7.227,5.468,22.4-3.14,13.051-10.215
			C722.5,87.539,709.946,75.568,696.14,65.122C688.913,59.654,673.739,68.263,683.09,75.337L683.09,75.337z"/>
	</g>
</g>
<g>
	<g>
		<path fill="#232734" d="M353.022,385.764c13.76,3.611,25.747,10.991,38.337,17.347c10.459,5.28,13.134-11.691,4.98-15.807
			c-13.754-6.943-26.965-15.224-41.995-19.168C343.79,365.366,344.454,383.515,353.022,385.764L353.022,385.764z"/>
	</g>
</g>
<g>
	<g>
		<path fill="#232734" d="M389.445,348.099c10.511,10.505,21.65,19.624,36.252,23.566c4.539,1.226,7.635-5.162,8.005-8.559
			c0.495-4.545-1.417-8.851-5.975-10.081c-11.858-3.201-21.023-11.807-29.474-20.252
			C390.594,325.117,383.208,341.865,389.445,348.099L389.445,348.099z"/>
	</g>
</g>
<g>
	<g>
		<path fill="#232734" d="M422.927,327.646c6.891,6.703,14.926,11.463,23.467,15.738c4.212,2.108,9.707,0.323,12.71-3.055
			c2.7-3.036,3.2-8.067-0.954-10.146c-7.442-3.725-14.341-7.63-20.349-13.474C431.358,310.442,415.757,320.672,422.927,327.646
			L422.927,327.646z"/>
	</g>
</g>
<g>
	<g>
		<path fill="#232734" d="M452.133,283.979c1.006,16.261,19.971,29.159,32.971,35.867c8.272,4.268,15.753-12.915,7.365-17.243
			c-6.204-3.201-11.724-7.252-16.856-11.975c-2.252-2.073-4.455-4.338-6.259-6.816c-0.671-0.921-1.242-1.904-1.8-2.895
			c-0.246-0.437-0.625-2.295-0.537-0.871C466.259,267.798,451.531,274.243,452.133,283.979L452.133,283.979z"/>
	</g>
</g>
<g>
	<g>
		<path fill="#232734" d="M481.183,253.404c10.306,10.448,18.901,22.412,29.211,32.863c3.297,3.342,8.063,0.548,9.777-2.873
			c2.131-4.253,1.47-9.55-1.871-12.938c-10.306-10.448-18.901-22.412-29.211-32.863c-3.297-3.342-8.063-0.548-9.777,2.873
			C477.18,244.719,477.841,250.017,481.183,253.404L481.183,253.404z"/>
	</g>
</g>
<g>
	<g>
		<path fill="#232734" d="M517.224,216.635c10.167,10.29,17.809,22.018,24.308,34.899c2.011,3.985,7.014,4.153,9.882,1.104
			c3.332-3.542,3.584-8.991,1.472-13.176c-7.084-14.042-15.73-26.915-26.811-38.129
			C518.467,193.634,511.027,210.364,517.224,216.635L517.224,216.635z"/>
	</g>
</g>
<g>
	<g>
		<path fill="#232734" d="M538.515,174.633c5.351,7.897,12.693,15.04,17.128,23.499c1.814,3.46,5.518,7.326,9.75,4.756
			c3.801-2.308,4.539-8.554,2.594-12.263c-5.252-10.017-13.065-18.294-19.384-27.621c-2.312-3.412-7.08-4.918-10.088-1.444
			C535.411,165.146,536.002,170.925,538.515,174.633L538.515,174.633z"/>
	</g>
</g>
<g>
	<g>
		<path fill="#232734" d="M327.26,498.099c14.488,25.519,25.95,55.156,52.494,70.729c4.115,2.414,9.32,1.953,13.023-1.134
			c2.89-2.41,4.625-7.793,0.563-10.175c-25.231-14.803-35.968-43.757-49.746-68.026C339.192,481.739,322.265,489.3,327.26,498.099
			L327.26,498.099z"/>
	</g>
</g>
<g>
	<g>
		<path fill="#232734" d="M342.426,475.174c4.586,19.519,16.705,35.833,30.503,49.975c14.569,14.93,31.496,27.778,49.13,38.86
			c7.919,4.977,17.288-11.262,9.306-16.277c-15.754-9.9-30.649-21.166-43.971-34.176c-12.551-12.259-25.637-27.427-29.756-44.956
			C354.957,457.186,340.338,466.288,342.426,475.174L342.426,475.174z"/>
	</g>
</g>
<g>
	<g>
		<path fill="#232734" d="M391.61,458.585c15.852,31.078,44.246,52.782,72.024,72.644c8.83,6.313,13.672-11.307,6.487-16.444
			c-25.321-18.105-52.25-37.719-66.731-66.111c-1.862-3.649-6.148-6.029-9.739-3.001
			C390.108,448.661,389.585,454.614,391.61,458.585L391.61,458.585z"/>
	</g>
</g>
<g>
	<g>
		<path fill="#232734" d="M434.462,459.811c18.048,32.035,47.412,54.949,69.377,83.983c6.089,8.049,19.122-5.213,13.713-12.362
			c-21.966-29.034-51.33-51.948-69.377-83.983C443.315,438.822,430.058,451.994,434.462,459.811L434.462,459.811z"/>
	</g>
</g>
<g>
	<g>
		<path fill="#232734" d="M493.121,447.659c7.611,22.231,22.326,41.966,42.475,54.299c8.62,5.277,16.254-11.654,8.622-16.325
			c-18.067-11.06-31.016-27.963-37.856-47.94c-1.436-4.195-6.115-5.354-9.551-2.768C493.018,437.78,491.61,443.249,493.121,447.659
			L493.121,447.659z"/>
	</g>
</g>
<g>
	<g>
		<path fill="#232734" d="M447.417,442.087c18.74,25.982,43.335,47.047,62.075,73.029c2.597,3.6,7.432,3.298,9.942-0.173
			c2.791-3.859,2.498-9.473-0.231-13.256c-18.74-25.982-43.335-47.047-62.075-73.029c-2.597-3.6-7.432-3.298-9.942,0.173
			C444.395,432.69,444.688,438.304,447.417,442.087L447.417,442.087z"/>
	</g>
</g>
<g>
	<g>
		<path fill="#232734" d="M408.624,461.754c22.036,18.506,41.473,41.078,55.873,66.035c6.108,10.586,16.967-1.067,12.064-9.562
			c-15.882-27.524-36.629-52.275-60.973-72.72c-3.574-3.001-8.032-0.19-9.592,3.442C404.169,453.202,405,458.71,408.624,461.754
			L408.624,461.754z"/>
	</g>
</g>
<g>
	<g>
		<path fill="#232734" d="M368.122,460.866c13.444,13.551,25.08,28.572,36.514,43.817c5.471,7.294,21.981,2.216,14.942-7.169
			c-11.435-15.245-23.07-30.266-36.514-43.817c-3.293-3.32-8.666-4.666-13.004-2.584
			C366.241,452.945,364.987,457.706,368.122,460.866L368.122,460.866z"/>
	</g>
</g>
<g>
	<g>
		<path fill="#232734" d="M483.249,444.532c7.855,30.591,25.236,59.465,49.425,79.905c6.74,5.696,22.744-3.166,14.465-10.162
			c-22.229-18.784-38.289-45.329-45.511-73.455C499.282,431.684,480.926,435.486,483.249,444.532L483.249,444.532z"/>
	</g>
</g>
<g>
	<g>
		<path fill="#232734" d="M518.474,451.942c8.038,23.217,26.151,41.294,44.889,56.374c7.884,6.344,18.431-8.867,11.512-14.435
			c-17.831-14.35-35.092-31.057-42.747-53.169c-1.543-4.456-7.219-3.718-10.102-1.352
			C518.274,442.441,516.911,447.427,518.474,451.942L518.474,451.942z"/>
	</g>
</g>
<g>
	<g>
		<path fill="#232734" d="M607.724,417.432c9.013,3.057,17.145,6.788,24.021,13.492c6.747,6.577,20.207-6.474,13.501-13.012
			c-7.78-7.584-16.889-12.256-27.098-15.718c-4.515-1.531-9.065,0.602-11.711,4.467
			C604.473,409.528,603.215,415.903,607.724,417.432L607.724,417.432z"/>
	</g>
</g>
<g>
	<g>
		<path fill="#232734" d="M615.327,375.141c9.62,3.365,18.65,8.933,25.955,16.059c8.397,8.192,15.56-7.527,9.033-13.895
			c-9.292-9.065-20.183-16.157-32.469-20.454C608.46,353.568,606.848,372.176,615.327,375.141L615.327,375.141z"/>
	</g>
</g>
<g>
	<g>
		<path fill="#232734" d="M618.795,329.401c11.585,11.581,23.488,23.136,39.736,27.523c9.001,2.431,12.855-15.912,3.745-18.372
			c-13.57-3.665-23.645-13.953-33.293-23.598C621.262,307.236,612.53,323.138,618.795,329.401L618.795,329.401z"/>
	</g>
</g>
<g>
	<g>
		<path fill="#232734" d="M628.382,263.046c9.236,13.379,23.605,23.226,37.905,30.503c8.414,4.282,18.395-11.57,10.142-15.771
			c-13.278-6.757-26.54-15.484-35.124-27.918C635.647,241.665,623.277,255.651,628.382,263.046L628.382,263.046z"/>
	</g>
</g>
<g>
	<g>
		<path fill="#232734" d="M619.378,215.221c9.298,9.076,20.021,16.239,30.796,23.424c9.763,6.51,13.422-10.458,5.854-15.504
			c-9.43-6.288-19.477-12.438-27.627-20.393C619.655,194.21,612.358,208.37,619.378,215.221L619.378,215.221z"/>
	</g>
</g>
<g>
	<g>
		<path fill="#232734" d="M638.038,135.208c0.457,17.263,11.567,32.073,23.223,43.869c7.113,7.199,19.149-6.884,12.895-13.214
			c-9.696-9.812-20.212-21.964-20.596-36.462c-0.118-4.447-4.4-6.847-8.375-5.36C640.685,125.724,637.914,130.535,638.038,135.208
			L638.038,135.208z"/>
	</g>
</g>
<g>
	<g>
		<path fill="#232734" d="M650.835,113.831c11.617,15.104,28.504,25.579,45.308,34.04c8.412,4.236,17.226-12.312,8.854-16.527
			c-15.813-7.962-31.389-17.461-42.328-31.685C656.631,91.809,645.364,106.717,650.835,113.831L650.835,113.831z"/>
	</g>
</g>
</svg>
