<svg width="38" height="38" viewBox="0 0 38 38" fill="none" xmlns="http://www.w3.org/2000/svg">
<path d="M12.7893 3.11347C14.8596 2.23754 17.0096 1.75977 19.3189 1.75977C21.5485 1.75977 23.7782 2.23754 25.8485 3.11347C27.9189 3.9894 29.6707 5.18384 31.1837 6.6968C32.6967 8.20977 33.8911 9.96162 34.767 12.032C35.643 14.1024 36.1207 16.2524 36.1207 18.5616C36.1207 20.7912 35.643 23.0209 34.767 25.0912C33.8911 27.1616 32.6967 28.9135 31.1837 30.4264C29.6707 31.9394 27.9189 33.1338 25.8485 34.0098C23.7782 34.8857 21.6282 35.3635 19.3189 35.3635C16.4522 35.3635 13.7448 34.6468 11.1967 33.2931L1.88 36.2394L4.90593 27.2412C3.31334 24.6135 2.51704 21.7468 2.51704 18.5616C2.51704 16.332 2.99482 14.1024 3.87075 12.032C4.74667 9.96162 5.94112 8.20977 7.45408 6.6968C8.88741 5.18384 10.7189 4.06903 12.7893 3.11347ZM19.2393 32.4968C21.1504 32.4968 22.9022 32.0987 24.6541 31.382C26.4059 30.6653 27.8393 29.6301 29.1133 28.4357C30.3874 27.2412 31.343 25.7283 32.0596 23.9764C32.7763 22.2246 33.1744 20.4727 33.1744 18.5616C33.1744 16.6505 32.7763 14.8987 32.0596 13.1468C31.343 11.395 30.3078 9.96162 29.1133 8.68754C27.9189 7.41347 26.4059 6.45791 24.6541 5.74125C22.9022 5.02458 21.1504 4.62643 19.2393 4.62643C17.3282 4.62643 15.5763 5.02458 13.8245 5.74125C12.0726 6.45791 10.6393 7.4931 9.36519 8.68754C8.09112 9.88199 7.13556 11.395 6.41889 13.1468C5.70223 14.8987 5.30408 16.6505 5.30408 18.5616C5.30408 21.5875 6.18001 24.295 7.93186 26.7635L6.18001 31.9394L11.5948 30.2672C13.9041 31.7801 16.5319 32.4968 19.2393 32.4968ZM22.5837 21.8264C23.1411 21.1098 23.5393 20.7116 23.7782 20.7116C23.9374 20.7116 24.6541 21.0301 25.9282 21.6672C27.2022 22.3042 27.8393 22.7024 27.9189 22.8616C27.9189 22.9412 27.9985 23.0209 27.9985 23.1801C27.9985 23.6579 27.8393 24.2153 27.6004 24.8524C27.3615 25.4098 26.8041 25.8875 26.0078 26.2857C25.2115 26.6838 24.4152 26.8431 23.7782 26.8431C22.9022 26.8431 21.5485 26.3653 19.5578 25.4894C18.1245 24.8524 16.8504 23.9764 15.8152 22.8616C14.78 21.7468 13.6652 20.3931 12.5504 18.7209C11.5152 17.1283 10.9578 15.695 10.9578 14.4209V14.2616C11.0374 12.9079 11.5152 11.7135 12.63 10.7579C12.9485 10.4394 13.3467 10.2801 13.8245 10.2801C13.9041 10.2801 14.0633 10.2801 14.2226 10.2801C14.3819 10.2801 14.5411 10.2801 14.6207 10.2801C14.9393 10.2801 15.0985 10.3598 15.1782 10.4394C15.2578 10.519 15.417 10.7579 15.4967 11.0764C15.5763 11.3949 15.8948 12.032 16.2133 13.0672C16.6115 14.1024 16.7707 14.6598 16.7707 14.7394C16.7707 15.0579 16.5319 15.4561 15.9744 16.0135C15.4967 16.5709 15.1782 16.8894 15.1782 17.0487C15.1782 17.1283 15.1782 17.2875 15.2578 17.3672C15.7356 18.482 16.5319 19.4375 17.4874 20.3931C18.2837 21.1894 19.3985 21.9061 20.8319 22.6227C20.9911 22.7024 21.1504 22.782 21.3096 22.782C21.6282 22.8616 22.0263 22.5431 22.5837 21.8264Z" fill="white"/>
</svg>
